$MeshFormat
2.2 0 8
$EndMeshFormat
$PhysicalNames
4
2 1 "SD1G0"
2 2 "SD1D1001"
2 3 "SD2G0"
2 4 "I1-2"
$EndPhysicalNames
$Nodes
778
1 12.7 0 0
2 9.018000000000001 8.942 0
3 0 12.7 0
4 12.944 0 4.779
5 9.303000000000001 9.224 4.779
6 0 12.85 4.779
7 14.521 0 13.348
8 11.065 10.972 13.348
9 0 13.851 13.348
10 19.001 0 26.468
11 15.687 15.554 26.468
12 0 16.891 26.468
13 27.895 0 45.424
14 24.191 23.986 45.424
15 0 23.428 45.424
16 41.762 0 69.875
17 36.793 36.482 69.875
18 0 34.284 69.875
19 61.693 0 98.331
20 54.39 53.929 98.331
21 0 50.83 98.331
22 90.55 0 126.699
23 79.902 79.22499999999999 126.699
24 0 76.53700000000001 126.699
25 129.435 0 150.215
26 114.907 113.934 150.215
27 0 113.17 150.215
28 175.163 0 167.845
29 156.497 155.172 167.845
30 0 157.592 167.845
31 218.587 0 179.465
32 195.811 194.152 179.465
33 0 200.416 179.465
34 254.438 0 186.432
35 227.542 225.615 186.432
36 0 236.032 186.432
37 277.795 0 189.554
38 247.27 245.175 189.554
39 0 259.318 189.554
40 0 0 189.554
41 0 0 0
42 0 0 19.554
43 278 0 189.554
44 288 0 179.554
45 288 0 29.554
46 278 0 19.554
47 0 260 189.554
48 0 270 179.554
49 0 270 29.554
50 0 260 19.554
51 278 260 189.554
52 288 260 179.554
53 288 260 29.554
54 278 260 19.554
55 278 270 179.554
56 278 270 29.554
57 11.11257327957779 4.778225171728897 0
58 4.846973910753122 11.04270331885105 0
59 11.34059689480063 4.867983190010037 4.779
60 4.906769060077171 11.188723629555 4.779
61 12.76818340274329 5.56046847363546 13.348
62 5.569118001982266 12.06981686020765 13.348
63 16.7029724172812 7.842035790001653 26.468
64 7.991100995130362 14.63434850072493 26.468
65 13.27463280552197 13.16251006380391 19.62025928352406
66 16.66274707242292 0 19.62025928352425
67 0 15.30432837058014 19.62025928355641
68 24.52854191210787 12.13994370452648 45.42400000000001
69 12.56962267642012 20.32639153286971 45.424
70 19.72016378808766 19.55301658762408 35.45819905538448
71 23.21912779059891 0 35.45819905538486
72 0 19.99128124210568 35.45819905543144
73 38.41090909410825 12.32982485367147 69.875
74 35.27765205776058 24.71450381795422 69.875
75 25.7868878880067 29.74059762306071 69.875
76 12.82329376997074 31.2372910958138 69.875
77 30.16047800642912 29.90526655835092 57.00626525434046
78 34.46369953302361 0 57.006265254342
79 0 28.57041019188478 57.00626525440077
80 57.01285052102525 18.22277333910739 98.331
81 52.61039530275384 36.51207132588945 98.331
82 38.0328029500569 44.36520335200341 98.33100000000002
83 18.92062414890099 46.66273268791408 98.331
84 45.12830025432797 44.74624865245554 83.35396255254628
85 51.20286317946351 0 83.35396255254696
86 0 42.12146536391667 83.35396255261772
87 86.49978427347931 20.05631701301873 126.699
88 82.41597478363799 40.10588613114698 126.699
89 78.90065727762888 60.25879394532062 126.699
90 61.78719254478369 70.11001273668295 126.699
91 41.26471872554306 69.78189986058796 126.699
92 20.62775757578821 73.13043986380798 126.699
93 66.61579278507287 66.05128183957365 111.9254375088957
94 75.52177478828187 0 111.925437508888
95 0 63.14924016648575 111.9254375089613
96 125.7884717940371 28.82337170172485 150.215
97 122.1165587577252 57.6435375651858 150.215
98 118.6716938716631 86.49133861697891 150.215
99 87.6889052453141 106.1031377565164 150.215
100 58.41299150878193 107.6943057736056 150.215
101 29.20755227899424 110.4436774762868 150.215
102 96.85405749824041 96.033712004183 138.0872183724788
103 109.3810457311596 0 138.0872183724816
104 0 94.27745771565355 138.0872183725414
105 173.097797937989 31.75070258428173 167.845
106 171.0500695428303 63.50253998972745 167.845
107 168.9813136880996 95.25301181253327 167.845
108 166.7995521057817 126.9958412324508 167.845
109 126.04210520181 153.3539499206937 167.845
110 94.52116847196579 153.9925998226751 167.845
111 63.01266701242463 155.1538252698306 167.845
112 31.50732654857754 156.398870174461 167.845
113 135.2967549225824 134.1511847438675 158.8582166214265
114 151.8534350348514 0 158.858216621423
115 0 134.9481604514532 158.858216621474
116 217.7092850126816 29.04046622146104 179.465
117 216.8958167047327 58.08281884411237 179.465
118 216.084681852071 87.12523728753933 179.465
119 215.2156576739616 116.1659677012632 179.465
120 214.1747427166854 145.2009492845731 179.465
121 212.3859627899157 174.1953007092181 179.465
122 164.4608780949103 199.1304380183162 179.465
123 131.5683363411331 199.3219666680959 179.465
124 98.6761919182419 199.5881484644944 179.465
125 65.78413273509074 199.8646822409436 179.465
126 32.89208734271767 200.1428933241317 179.465
127 175.8996466098091 174.4098075202309 173.5798210206537
128 196.5940557659994 0 173.5798210206548
129 0 178.7269376411213 173.5798210206854
130 253.9146846524602 34.25217101960202 186.432
131 253.4946406918603 68.50579845192274 186.432
132 253.0780436221426 102.7594690677383 186.432
133 252.5676034045548 137.01184194279 186.432
134 251.7769449595164 171.2586649642341 186.432
135 249.6519274700789 205.4349357642985 186.432
136 198.9686473918506 236.2026543882347 186.432
137 165.8080089868801 236.4393922040653 186.432
138 132.6463051890829 236.4232908946284 186.432
139 99.48469638926696 236.3361419238868 186.432
140 66.32315835030427 236.224957672987 186.432
141 33.16161641689576 236.1149136613917 186.432
142 211.5605249730131 209.768504497996 182.9230360053885
143 236.3814666038911 0 182.923036005392
144 0 218.0938255158173 182.9230360054105
145 277.320183599854 32.78277286684862 189.554
146 276.9539864576811 65.56697102918898 189.554
147 276.6111762043205 98.35142703478573 189.554
148 276.2191711401769 131.135320349018 189.554
149 275.6770521442608 163.91702262274 189.554
150 274.7424359888105 196.689414209475 189.554
151 271.3354712760525 229.2030928252882 189.554
152 222.3876940374697 258.8198143408416 189.554
153 190.6251967732379 259.4653022395298 189.554
154 158.8545096632536 259.5820041410312 189.554
155 127.0835605619576 259.5687732593399 189.554
156 95.31266730135599 259.5045742812581 189.554
157 63.54181104198008 259.4237997243715 189.554
158 31.77093434945529 259.351684744296 189.554
159 243.0706250000916 0 189.554
160 208.346250000211 0 189.554
161 173.6218750003027 0 189.554
162 138.8975000003888 0 189.554
163 104.1731250002971 0 189.554
164 69.44875000019985 0 189.554
165 34.72437500010264 0 189.554
166 0 32.41474999993679 189.554
167 0 64.82949999984311 189.554
168 0 97.24424999974809 189.554
169 0 129.6589999996586 189.554
170 0 162.0737499997412 189.554
171 0 194.4884999998238 189.554
172 0 226.9032499999063 189.554
173 6.349999999983785 0 0
174 0 6.350000000015788 0
175 285.0710678214817 0 186.6250678022492
176 288 0 154.5539999999824
177 288 0 129.5539999999648
178 288 0 104.55400000005
179 288 0 79.55400000003516
180 288 0 54.55400000001758
181 285.0710677944365 0 22.48293217070553
182 254.8333333333056 0 19.554
183 231.6666666666593 0 19.554
184 208.5000000000167 0 19.554
185 185.333333333374 0 19.554
186 162.1666666667314 0 19.554
187 139.0000000000888 0 19.554
188 115.8333333334462 0 19.554
189 92.66666666680362 0 19.554
190 69.50000000016098 0 19.554
191 46.33333333351834 0 19.554
192 23.16666666687209 0 19.554
193 0 267.0710678214817 186.6250678022492
194 0 270 154.5539999999824
195 0 270 129.5539999999648
196 0 270 104.55400000005
197 0 270 79.55400000003516
198 0 270 54.55400000001758
199 0 267.0710677944365 22.48293217070553
200 0 236.3636363636091 19.554
201 0 212.7272727272515 19.554
202 0 189.0909090908939 19.554
203 0 165.4545454545364 19.554
204 0 141.8181818181788 19.554
205 0 118.1818181818212 19.554
206 0 94.54545454546363 19.554
207 0 70.90909090910606 19.554
208 0 47.27272727274845 19.554
209 0 23.63636363639085 19.554
210 23.16666666665775 260 189.554
211 46.3333333333137 260 189.554
212 69.49999999995902 260 189.554
213 92.66666666660433 260 189.554
214 115.8333333332497 260 189.554
215 138.999999999895 260 189.554
216 162.1666666665403 260 189.554
217 185.3333333331856 260 189.554
218 208.4999999998309 260 189.554
219 231.6666666664762 260 189.554
220 254.8333333331253 260 189.554
221 285.0710678214817 260 186.6250678022492
222 288 260 154.5539999999824
223 288 260 129.5539999999648
224 288 260 104.55400000005
225 288 260 79.55400000003516
226 288 260 54.55400000001758
227 285.0710677944365 260 22.48293217070553
228 254.8333333333056 260 19.554
229 231.6666666666593 260 19.554
230 208.5000000000167 260 19.554
231 185.333333333374 260 19.554
232 162.1666666667314 260 19.554
233 139.0000000000888 260 19.554
234 115.8333333334462 260 19.554
235 92.66666666680362 260 19.554
236 69.50000000016098 260 19.554
237 46.33333333351834 260 19.554
238 23.16666666687209 260 19.554
239 23.16666666665775 270 179.554
240 46.3333333333137 270 179.554
241 69.49999999995902 270 179.554
242 92.66666666660433 270 179.554
243 115.8333333332497 270 179.554
244 138.999999999895 270 179.554
245 162.1666666665403 270 179.554
246 185.3333333331856 270 179.554
247 208.4999999998309 270 179.554
248 231.6666666664762 270 179.554
249 254.8333333331253 270 179.554
250 278 270 154.5539999999824
251 278 270 129.5539999999648
252 278 270 104.55400000005
253 278 270 79.55400000003516
254 278 270 54.55400000001758
255 254.8333333333056 270 29.554
256 231.6666666666593 270 29.554
257 208.5000000000167 270 29.554
258 185.333333333374 270 29.554
259 162.1666666667314 270 29.554
260 139.0000000000888 270 29.554
261 115.8333333334462 270 29.554
262 92.66666666680362 270 29.554
263 69.50000000016098 270 29.554
264 46.33333333351834 270 29.554
265 23.16666666687209 270 29.554
266 278 267.0710678214817 186.6250678022492
267 285.0710678019434 267.0710678217876 179.554
268 285.0710678019434 267.0710678217876 29.554
269 278 267.0710678178115 22.48293219408054
270 278 23.63636363637201 189.554
271 278 47.27272727274114 189.554
272 278 70.90909090909953 189.554
273 278 94.54545454545793 189.554
274 278 118.1818181818163 189.554
275 278 141.8181818181747 189.554
276 278 165.4545454545331 189.554
277 278 189.0909090908915 189.554
278 278 212.7272727272499 189.554
279 278 236.3636363636083 189.554
280 288 23.63636363637201 179.554
281 288 47.27272727274114 179.554
282 288 70.90909090909953 179.554
283 288 94.54545454545793 179.554
284 288 118.1818181818163 179.554
285 288 141.8181818181747 179.554
286 288 165.4545454545331 179.554
287 288 189.0909090908915 179.554
288 288 212.7272727272499 179.554
289 288 236.3636363636083 179.554
290 288 23.63636363637201 29.554
291 288 47.27272727274114 29.554
292 288 70.90909090909953 29.554
293 288 94.54545454545793 29.554
294 288 118.1818181818163 29.554
295 288 141.8181818181747 29.554
296 288 165.4545454545331 29.554
297 288 189.0909090908915 29.554
298 288 212.7272727272499 29.554
299 288 236.3636363636083 29.554
300 278 23.63636363637201 19.554
301 278 47.27272727274114 19.554
302 278 70.90909090909953 19.554
303 278 94.54545454545793 19.554
304 278 118.1818181818163 19.554
305 278 141.8181818181747 19.554
306 278 165.4545454545331 19.554
307 278 189.0909090908915 19.554
308 278 212.7272727272499 19.554
309 278 236.3636363636083 19.554
310 10.47332247673813 7.059526198220671 2.388629237529026
311 7.126069216001452 10.33941593248179 2.389437239218005
312 12.05469787548388 5.212651772964456 9.063500000000003
313 3.846325724439828 12.03803995172031 8.682276184872251
314 14.08850006764047 9.058674136518384 20.04214661339551
315 16.10991033851913 4.398061513771235 21.85599069523649
316 14.69607644672225 4.091080289842611 17.53419893699734
317 3.955364576833362 14.16773035891005 19.82837904519973
318 9.263779928934529 12.74097826913048 20.24904534579304
319 19.94931663988847 13.49303890179334 36.47021903242306
320 22.97395093995142 6.66147003872817 38.93297240538729
321 20.18417507686905 5.935478444703029 32.61535806877323
322 6.586373509905997 18.9786093889702 37.53845548707163
323 12.519891690098 16.66971745057899 34.98659087754054
324 27.33916467708207 18.04660379292643 53.00901338567725
325 32.41316292764555 15.73462924850636 60.96512840734312
326 29.40066392443889 9.356932630953816 52.62445805256253
327 10.52566646604554 23.67971765803658 51.84747167064094
328 16.94514540884669 25.80718076104122 59.70463136014602
329 49.45011215561342 20.26233481280845 88.40429527417507
330 43.13130526968148 30.16549021657323 82.79785884306911
331 43.60865219807104 14.49353111948296 78.02198498334258
332 14.23008177795109 36.92017595838797 80.02972875161329
333 30.25660600181788 37.47680782936254 85.58006473686112
334 66.78752533936981 22.08110162580619 108.3843170853744
335 73.45659236225544 35.11202624395322 117.3513353408237
336 62.27837112677625 39.83153261327816 107.8845984289522
337 68.55053733955361 50.39237618944335 115.50108384658
338 14.49338477775327 58.86155652197779 110.2195916111037
339 30.81312367500428 57.97912054548726 112.5442248318091
340 47.68693679926067 56.31565594608833 112.329375983734
341 108.3460768055218 16.43975495068014 138.99194574686
342 104.3859894889251 39.44804268396036 138.797574474848
343 96.30523707806631 59.27897420380887 136.0433001140014
344 102.8864197370816 75.55691705313613 140.8384835839381
345 18.47859182795508 88.17479552355681 135.6928271519962
346 38.40908631745953 87.4091189032072 136.8219748114592
347 59.19661332782572 84.57755068496624 136.5132637582592
348 76.15647001247802 93.32528714027811 142.2393292185364
349 150.6936382516497 20.30866295439888 159.1155994765839
350 147.961708571347 48.92822406368554 159.0635486135574
351 145.4939441444226 74.60843598385976 159.0118715011567
352 138.722073973899 97.12315334277429 157.3799956561724
353 145.4605542035108 113.3775398970354 160.1584592358106
354 94.56239599418586 127.4348440803716 158.136380532116
355 73.58863200481663 131.6705279705441 159.3118039806575
356 45.52704744935181 133.2364273625565 159.2720054677815
357 19.3386985580258 134.4211126909233 159.1019447364558
358 113.0351434884962 136.7780129120496 161.6563921456237
359 194.6261494550004 43.8263610616946 173.5831664847179
360 195.930383525301 18.16337954826431 173.6258000229662
361 197.4483011057189 66.85136974532014 174.5577876876234
362 188.8238277423313 83.63220806849165 172.5727744908322
363 192.1247694578311 123.0473999256406 173.8563926596067
364 196.4096957368133 141.9414303166704 175.131335468675
365 191.5726310916486 105.0287308283276 173.5069871079007
366 181.6302151269406 155.4924558811552 172.1399551096085
367 49.88055435994932 175.6885506241437 173.0655055980241
368 17.23498495343193 178.2544814218823 173.5494841642941
369 76.94691567431943 174.6144102350433 172.9523010461613
370 108.3639787923373 176.7318522501342 173.6634239130923
371 135.5833218559345 180.1903518711352 174.6427222956214
372 151.8420143967512 173.0164175728693 172.6438341854502
373 232.954200760416 162.1534262505172 182.9713030077278
374 231.3944596073064 191.9309325596298 183.0609663221971
375 236.6112077245912 20.65305453234137 183.058512277979
376 237.7739070450117 49.61771310279568 183.3898354355652
377 213.1519531290156 190.9901144730551 181.1197667357533
378 143.7564707381291 217.9027085771303 182.9517606366023
379 113.8858570535599 218.4813792707424 183.0443443827735
380 185.292839706325 216.0890468370825 182.6495228587976
381 81.68205138998169 218.1342505486572 182.9654234454615
382 52.73649201920671 218.1367133736898 182.9548513912784
383 13.31574278844074 219.4234697070851 183.1890019553417
384 254.1442399275505 221.1895993321978 188.2126131043998
385 141.2182297042979 134.1114928377872 189.554
386 79.62856003226986 180.2791518787631 189.554
387 81.95570137923229 85.17604528577606 189.554
388 192.8494410501207 181.2991840337102 189.554
389 199.5249444087195 83.92217469564636 189.554
390 135.5586066041559 200.1418940573825 189.554
391 140.7303174842347 68.29523881902179 189.554
392 52.17462187878012 133.5296711054233 189.554
393 220.3246441707867 127.2930134706889 189.554
394 45.80871282259626 213.8289979546994 189.554
395 47.24252078822904 46.32773159380487 189.554
396 232.2578792014617 46.77799781004906 189.554
397 99.89758712072236 142.5920708184852 189.554
398 217.1082801542109 216.9366001530013 189.554
399 174.7739563519295 220.5601452865757 189.554
400 98.12123035188985 214.8951467153494 189.554
401 174.9680586403772 43.38464238200986 189.554
402 103.063922753223 44.06684156346016 189.554
403 46.81035694551137 173.4017326755118 189.554
404 183.0473518444704 146.0642464673408 189.554
405 40.33290207711922 93.06436487815976 189.554
406 114.528968828969 98.49699699049867 189.554
407 247.0371854816551 179.3051738881747 189.554
408 166.9024577613537 96.95145801257308 189.554
409 237.5583319158349 97.16930119122314 189.554
410 127.3946815808957 162.821867060504 189.554
411 161.8828527229526 174.8973621911016 189.554
412 148.1901597773282 231.1773985358416 189.554
413 243.5410088870412 214.305335796617 189.554
414 145.4883972865375 33.53283568611749 189.554
415 191.9521226696467 113.2790862064892 189.554
416 85.69428525004288 120.6190442408758 189.554
417 70.40168612517074 231.8297135996285 189.554
418 76.03634562393987 27.58057527784547 189.554
419 27.29190930272096 144.6906479292388 189.554
420 247.9274809500002 149.2178349164001 189.554
421 108.7025936230928 186.764275580224 189.554
422 205.5665470634123 30.52597443729575 189.554
423 251.3896104094588 72.26607017232929 189.554
424 217.423468567535 161.4279156780903 189.554
425 76.23293158461169 152.5252711872215 189.554
426 26.21114501099521 116.8964337797167 189.554
427 106.4975175725972 72.57610857899607 189.554
428 26.44874978453855 232.7847386409697 189.554
429 251.7281608762238 120.6333793924232 189.554
430 27.25096372737684 26.800749127809 189.554
431 26.86373549675906 69.38000447956875 189.554
432 175.6967940149623 71.74425867891981 189.554
433 200.2808235535348 234.8759407887159 189.554
434 26.23619801776743 196.2671540619068 189.554
435 122.1374668062046 20.27171785968545 189.554
436 252.3807666143294 24.98002501314921 189.554
437 69.697973155423 204.0895796767601 189.554
438 120.8532449193375 233.0575573698343 189.554
439 141.1983892906927 105.6356448432746 189.554
440 162.5744698230769 125.0762130888405 189.554
441 56.04790777919527 76.25654738377763 189.554
442 194.8692352569095 207.8082773126632 189.554
443 152.620705520456 152.2939529948554 189.554
444 202.2202757791511 58.85104037895741 189.554
445 98.37127078831848 164.9965273050395 189.554
446 218.8047698995787 193.5137478103761 189.554
447 47.59437882474819 239.443786932793 189.554
448 118.4551504939829 126.5642145343052 189.554
449 79.20208067382114 57.91240312918194 189.554
450 162.9325224754299 199.6737114760073 189.554
451 50.94059102796965 20.14181119989187 189.554
452 226.5892795902135 235.9060368065836 189.554
453 258.060485256557 48.47476737831304 189.554
454 214.0121817911983 101.9276933790608 189.554
455 228.3244135759012 20.4567994520988 189.554
456 223.5358403257334 76.79965998510033 189.554
457 174.6449778648886 242.7209635391334 189.554
458 58.8702695322983 107.5576644814113 189.554
459 20.27144400247299 47.9505470401925 189.554
460 5.221257865052449 5.185488081765955 0
461 265.8877609218356 246.1483458377793 189.5540000000001
462 284.2395483581403 247.0332037748636 187.3686040390047
463 284.2286699626782 12.94236082278121 187.377277477888
464 288 106.3636363636371 104.554
465 288 185.4615649760077 102.98450198999
466 288 58.88382441008476 117.4559333299761
467 288 60.58595428979275 75.87842101257354
468 288 140.9212701582156 134.5807670436016
469 288 145.6949880830226 75.01658162932732
470 288 217.2824287863862 136.3671567981044
471 288 215.7068931705203 70.83523439407671
472 288 88.40359942307495 142.6105123839273
473 288 104.5043492418366 68.02209366118666
474 288 179.6105344853125 144.2037439724234
475 288 177.545414913796 65.30469444699041
476 288 34.63269592112551 96.90669217626592
477 288 30.71283162011486 145.7216377728785
478 288 227.5406206352502 104.5539999999999
479 288 33.33768185283671 62.10220286204294
480 288 79.28213840923158 101.4489170690071
481 288 119.432561988987 149.6512786043343
482 288 132.9957952349967 109.2634123750694
483 288 82.67855196576828 54.51856743233472
484 288 66.86356563628647 152.1757387990913
485 288 127.6976165375011 55.23311731173024
486 288 155.8878398422922 53.53959767924339
487 288 155.6882160092756 156.5008358251046
488 288 233.6664684911283 152.5647149777103
489 288 233.5324943741328 56.38124345699897
490 288 199.7182325993499 157.4223363169735
491 288 201.7191851621232 52.72209209156546
492 288 25.27175001761963 128.1855511646119
493 288 120.5028716399451 124.8988210496977
494 288 161.0043547058658 111.8196497788072
495 288 86.07721172686882 77.30124965854075
496 288 55.17191838568671 50.07551330632052
497 288 166.4162224089147 85.77864008547913
498 288 124.3792811962265 84.61417953466785
499 288 204.492089829711 115.7083646126442
500 288 193.4032545692346 82.1208499815645
501 288 236.9356945787486 125.9278954032142
502 288 236.2881893559419 82.56840387801047
503 288 96.06054498951126 123.4487103989478
504 288 84.92302840055629 163.1841075912971
505 288 53.13035327809512 97.86354487228999
506 288 20.13599288890575 85.1247869784202
507 288 182.041301663132 124.2753468110405
508 288 105.521558094476 47.37635568105032
509 288 177.2727272727123 163.5696010851047
510 288 177.2727272727123 45.5383989148953
511 288 103.8934314888626 162.0262867734671
512 288 163.7452853000253 132.8065163352041
513 288 73.96931848381764 130.4292973460302
514 288 210.4821020894443 93.12855914271429
515 288 134.8452561781452 161.4435714754088
516 288 47.15611039556241 160.1240515494654
517 288 19.26698430658963 160.2602815537167
518 288 17.77728926279569 47.31886321377886
519 288 40.47315238994297 82.91705031557723
520 288 101.0395351990329 87.03099116551512
521 288 146.0981283258052 93.29849268067019
522 288 15.05031318886482 143.6550940982308
523 288 49.05743910324134 135.5622611672198
524 288 35.45454545455657 43.07614391630884
525 288 218.4452673191064 162.6379145011369
526 288 218.4452673191064 46.47008549886302
527 288 196.6289174727783 135.5953897022372
528 288 107.2734258091342 137.7337443495463
529 288 40.54467315920362 114.8436182084855
530 288 246.3910411436963 140.950740736124
531 288 246.3910411436963 68.15725926387597
532 288 19.39285150084937 109.0289369611957
533 288 161.3861163120064 69.90987846026005
534 288 246.5876000603527 164.3051005191087
535 288 246.5806251479726 44.7944633310948
536 288 14.25019280090763 65.73077061085895
537 286.014998202111 247.1407716235119 23.57404984802082
538 286.0149984539204 12.85923160774819 23.57405018552392
539 127.2528731591337 131.0280909369058 19.554
540 196.5127174304682 80.38935312876417 19.554
541 196.4803659092561 178.6629051959893 19.554
542 74.52141267567677 75.29693170547698 19.554
543 74.15363515320412 187.8499478818427 19.554
544 135.7699367934141 63.16356545778108 19.554
545 134.2254428407259 196.2141403843536 19.554
546 56.3227966433743 129.9999999999999 19.554
547 218.2472293197517 128.4063577218743 19.554
548 231.3718649368639 213.8745512152154 19.554
549 231.3718649368644 46.1254487847854 19.554
550 176.8943579707857 123.7519980143414 19.554
551 44.4695133717203 215.4841154584969 19.554
552 44.46951337172034 44.51588454150313 19.554
553 175.6886622494025 42.7047440344194 19.554
554 175.9984056855137 217.5786507705518 19.554
555 100.8209524931924 39.62056662760691 19.554
556 99.2836712330343 219.2832823425261 19.554
557 157.2493377474987 164.1454074291937 19.554
558 239.9838953307768 167.590342979201 19.554
559 241.2728887583704 92.15636553680764 19.554
560 93.05587777944636 112.7765192523536 19.554
561 112.027598884568 166.0803352210217 19.554
562 38.80920744554287 168.4108605299985 19.554
563 40.02856370741191 93.42064683609068 19.554
564 151.2613137285468 94.90694694770585 19.554
565 109.5576761550731 82.81979888186541 19.554
566 83.55109836503247 150.1448116897158 19.554
567 143.0271474831762 30.8372502194124 19.554
568 143.6434445359094 229.2129170130111 19.554
569 197.2712392067791 148.9261816853495 19.554
570 210.2340591790382 226.0620753103844 19.554
571 210.234059179039 33.93792468961595 19.554
572 167.7351994758416 72.22476178004241 19.554
573 72.11939319976467 35.33273415596039 19.554
574 71.8997815911704 224.5106728397729 19.554
575 169.7635059721054 188.5459232205751 19.554
576 200.8597564795103 108.7553618608784 19.554
577 26.92149698678104 130 19.554
578 247.0886144899133 146.3509769843346 19.554
579 66.72982183833984 102.5846314141355 19.554
580 29.47603198000983 191.9491939868041 19.554
581 29.67925802365466 68.3560572408774 19.554
582 250.1026952941268 232.1920347019372 19.554
583 250.1026952941293 27.80796529806398 19.554
584 247.0049756733885 112.7849589934306 19.554
585 248.8836043756883 191.6740153287614 19.554
586 249.0370559742109 68.29583092314397 19.554
587 110.2370324493168 192.6664744974307 19.554
588 101.4441267668957 134.9857110637113 19.554
589 206.2199769513419 56.53462142479901 19.554
590 206.0509001315425 203.367765875498 19.554
591 176.1096635857406 98.62852518784214 19.554
592 124.4707194733446 104.3527315437219 19.554
593 26.03488474789207 25.98255496747348 19.554
594 26.03488474789207 234.0174450325265 19.554
595 121.2699604970351 233.910889758539 19.554
596 120.7424773793707 25.45467450831477 19.554
597 153.8278032757474 135.2290764436811 19.554
598 133.0830683370004 156.4934382852915 19.554
599 51.26170080750467 69.86457873460593 19.554
600 52.57833354394741 191.5523991401629 19.554
601 229.7882517766657 237.291485769221 19.554
602 229.7882517766666 22.70851423077961 19.554
603 79.68147219297268 207.3054078612731 19.554
604 80.39605165178722 53.44132888504612 19.554
605 223.6386712694867 72.10063006111587 19.554
606 223.3465371051707 187.3143420330582 19.554
607 21.17261958038713 106.4888705839939 19.554
608 20.98454338294908 153.4647456252019 19.554
609 63.80267101108856 165.6683481132781 19.554
610 114.9978955941223 61.37528488395334 19.554
611 172.0789673242767 18.34995455183862 19.554
612 172.1158415428613 241.6837829249437 19.554
613 214.935283043745 163.4489709903183 19.554
614 179.6280821148934 163.0713724922028 19.554
615 52.12747353142677 19.94381145134196 19.554
616 52.10506418361091 240.0402096706716 19.554
617 140.1352508150741 175.579754733261 19.554
618 78.44328014063994 129.394416582483 19.554
619 132.327377871969 83.06742965587638 19.554
620 154.7004237594779 51.24583760946871 19.554
621 154.7071009143485 208.8570291350501 19.554
622 120.5718854128022 211.2425265560362 19.554
623 91.51879029979031 21.66004203461251 19.554
624 90.79582235479853 238.5148379857802 19.554
625 215.8382602619174 92.65801726413355 19.554
626 21.59375350738049 212.8847372336466 19.554
627 21.59375350738057 47.11526276635333 19.554
628 259.2297261452471 173.420228597255 19.554
629 259.3593657047494 86.49523645277972 19.554
630 90.68315818389401 90.62812760965764 19.554
631 41.78169308126393 114.0749339268712 19.554
632 44.18678380480763 147.9594357406584 19.554
633 185.8419867635101 61.07854938869069 19.554
634 90.73077091679754 172.8010915603109 19.554
635 227.5498359301661 109.4638744761735 19.554
636 95.16285779229095 67.19700643226773 19.554
637 17.85395656170035 173.674050937487 19.554
638 18.17608826229074 86.74402402310635 19.554
639 229.3598626658959 148.0811196386497 19.554
640 257.3578722353747 212.8664245066545 19.554
641 257.3578722353748 47.13357549334723 19.554
642 127.0980957957383 44.69413490880926 19.554
643 144.0414692132128 115.451915053467 19.554
644 187.0352605574304 200.1093750317171 19.554
645 174.6612774317423 143.8832237701167 19.554
646 111.4967693307037 118.7585610028918 19.554
647 196.3179544316704 130.6317030010622 19.554
648 260.3992246530922 129.6486957050968 19.554
649 57.47545377861668 86.06729358252207 19.554
650 161.2748400903737 113.0648457768113 19.554
651 193.3604921031019 20.74839562074828 19.554
652 193.3958612515399 239.2839648161654 19.554
653 91.30140031416292 194.7703898440656 19.554
654 62.54673617910768 53.04655977789756 19.554
655 64.55654717060297 205.3405086363097 19.554
656 64.85665177656729 145.5115643875424 19.554
657 152.1954338189299 16.26464886866576 19.554
658 151.8125921648906 244.4121507734924 19.554
659 148.7406397749811 74.38772002201277 19.554
660 105.8528401844924 101.8671476580981 19.554
661 262.6948862565334 155.5808504102158 19.554
662 123.6426659305706 179.6503977122455 19.554
663 115.2697054546656 148.642013526628 19.554
664 100.2998160987274 154.2901766612816 19.554
665 194.5428973610129 217.2803663608634 19.554
666 194.269035449279 43.00084703165467 19.554
667 261.323818356129 246.4264144392463 19.554
668 261.3238183561278 13.57358556075092 19.554
669 263.0310959868066 103.5427753083641 19.554
670 106.4041078708703 244.4160321733345 19.554
671 106.4943185168246 15.50297518075658 19.554
672 151.2825157115941 187.1756496526613 19.554
673 243.2499999999824 12.33583162860258 19.554
674 243.2499999999823 247.6641683713988 19.554
675 160.452517716511 32.08499332908529 19.554
676 161.165526464926 227.8859680989337 19.554
677 13.97677590623628 14.16406239116965 19.554
678 13.97677590623624 245.8359376088304 19.554
679 238.2749571220346 129.1226639199266 19.554
680 34.75000000019522 248.1290968851972 19.554
681 34.75000000019522 11.87090311480283 19.554
682 134.2688548613813 245.1324426690496 19.554
683 134.1604857562173 15.14467702698581 19.554
684 135.7292106126598 215.3875992059506 19.554
685 212.6451965644627 143.7737791973479 19.554
686 75.58646473958927 15.38731752838297 19.554
687 75.3934669593089 244.6131440992449 19.554
688 214.7098939450967 15.47896690822877 19.554
689 214.7169677747839 244.5275051791542 19.554
690 12.60719502956833 265.9777619322199 187.5706303570579
691 265.3928051735018 265.9777619495292 187.5706303441508
692 285.7742384371689 264.447539591587 184.0015395786109
693 286.2080223679279 265.712124719191 165.8227045074614
694 286.2079246547388 265.7122651253361 43.28519912003291
695 12.60719500689908 268.0166305407279 23.57623831409555
696 265.3928049832992 265.9777622630964 21.53736988966692
697 196.9166666666954 270 104.5539999999857
698 104.2061175518082 270 104.5123078652327
699 54.21759864840775 270 125.7801363635923
700 150.5833333334101 270 80.47136111107841
701 151.4454165380374 270 126.9162684727059
702 59.29297691868116 270 76.08512556405434
703 231.6870107219075 270 138.9959160484319
704 232.3266386890646 270 75.41020370369185
705 86.43669075707903 270 143.5002407686179
706 104.5979070002385 270 68.07311721549196
707 187.6349166200005 270 65.69160264521115
708 186.7927117026807 270 143.8132884586781
709 122.2724840997424 270 147.3448069713145
710 34.88792843950731 270 97.04271837264366
711 32.16111409629865 270 146.6435421101424
712 245.8651109558572 270 104.5539999999991
713 34.58692801758967 270 63.82354310407156
714 170.1999193658381 270 106.8532800252214
715 133.871100522504 270 106.8454902029287
716 72.83843600792783 270 103.2928450652129
717 125.7954136963652 270 58.07680854773547
718 81.19840613892457 270 54.58051698825964
719 66.42127822917431 270 152.6685760433774
720 210.649491275051 270 58.03364559594417
721 211.1518983874642 270 151.9909506911766
722 163.2504500229542 270 59.31042515961998
723 163.8046743487508 270 153.3606657171198
724 251.1525177322027 270 152.9092219873672
725 251.1525177321982 270 56.1987780126104
726 128.1331060173873 270 82.32681076728122
727 28.97315216663112 270 128.823924990002
728 207.6050866458996 270 81.72181440432597
729 208.9654663110801 270 125.4161914002872
730 84.1758018750609 270 80.3823480920007
731 220.6721693496659 270 101.2750426403259
732 115.5341773199757 270 120.9897823878825
733 54.27694073484498 270 49.41411448752024
734 104.7193271902356 270 159.125042740136
735 254.5135426059511 270 126.8209493454245
736 254.6863133398635 270 82.73971251625522
737 142.5202274923545 270 155.0076571697351
738 169.7298709146976 270 83.3872677384883
739 91.42644073567843 270 119.507357900655
740 185.3098305009059 270 122.2888688036481
741 20.24924670053794 270 85.95787375150385
742 83.94879256861044 270 162.8803719104262
743 193.5109899124332 270 46.33203690786265
744 193.6965078152338 270 162.4099148769791
745 231.4328239396309 270 50.17259617807476
746 50.33961738762785 270 100.0571059452348
747 231.6467661930688 270 159.0918640065405
748 107.9180655837576 270 46.93145366863523
749 72.94686227173845 270 131.3748188319597
750 105.0212834218104 270 88.27413480219916
751 170.8972124491084 270 131.7307691385565
752 16.10761655221991 270 144.1505772409056
753 145.4397899705643 270 46.73380625734335
754 186.4172920426263 270 88.4415929626465
755 20.07211858390357 270 161.0116662586146
756 17.78858621295691 270 47.52876459588283
757 46.42336469037834 270 162.3534627303522
758 150.6226825418613 270 98.07679971796605
759 178.3792713110987 270 46.08841294253876
760 124.8690744230954 270 164.1171013762371
761 40.41438790373948 270 82.74742680009446
762 105.0600414405828 270 137.9342499693041
763 133.1837817181442 270 132.9852191281769
764 35.2304909931564 270 43.97488443749493
765 19.22036131167391 270 109.7131017822669
766 232.3444848004657 270 118.4357417288286
767 178.3587787732782 270 163.7383738105554
768 264.5361120022922 270 141.1854610484929
769 264.5361120022905 270 67.92253895149526
770 127.4166666667675 270 41.75027926032433
771 50.01210129767692 270 142.4584627398806
772 263.9027943563499 270 164.7244783258414
773 263.902794356361 270 44.38352167421365
774 90.06137069173691 270 97.08748012260739
775 142.6404186081362 270 65.3838423686117
776 39.64224770677113 270 114.5845683207157
777 14.5249521862169 270 66.2836362903022
778 118.6995101864045 270 98.9463051694039
$EndNodes
$Elements
1463
1 2 2 1 1 1 4 59
2 2 2 1 1 5 310 59
3 2 2 1 1 59 57 1
4 2 2 1 1 57 310 2
5 2 2 1 1 310 5 2
6 2 2 1 1 310 57 59
7 2 2 1 2 5 311 2
8 2 2 1 2 6 3 60
9 2 2 1 2 58 311 60
10 2 2 1 2 60 3 58
11 2 2 1 2 311 5 60
12 2 2 1 2 311 58 2
13 2 2 1 3 312 59 4
14 2 2 1 3 7 312 4
15 2 2 1 3 61 8 312
16 2 2 1 3 8 5 312
17 2 2 1 3 59 312 5
18 2 2 1 3 61 312 7
19 2 2 1 4 60 313 6
20 2 2 1 4 313 9 6
21 2 2 1 4 62 5 8
22 2 2 1 4 313 60 5
23 2 2 1 4 313 62 9
24 2 2 1 4 62 313 5
25 2 2 1 5 314 316 315
26 2 2 1 5 315 316 66
27 2 2 1 5 61 316 314
28 2 2 1 5 8 314 65
29 2 2 1 5 11 65 314
30 2 2 1 5 11 314 63
31 2 2 1 5 66 10 315
32 2 2 1 5 315 10 63
33 2 2 1 5 314 8 61
34 2 2 1 5 314 315 63
35 2 2 1 5 316 61 7
36 2 2 1 5 66 316 7
37 2 2 1 6 12 317 64
38 2 2 1 6 317 318 64
39 2 2 1 6 65 11 318
40 2 2 1 6 318 11 64
41 2 2 1 6 67 9 317
42 2 2 1 6 317 9 62
43 2 2 1 6 12 67 317
44 2 2 1 6 8 318 62
45 2 2 1 6 318 317 62
46 2 2 1 6 318 8 65
47 2 2 1 7 11 319 70
48 2 2 1 7 320 321 71
49 2 2 1 7 319 11 63
50 2 2 1 7 319 321 320
51 2 2 1 7 14 70 319
52 2 2 1 7 14 319 68
53 2 2 1 7 71 13 320
54 2 2 1 7 320 13 68
55 2 2 1 7 63 321 319
56 2 2 1 7 319 320 68
57 2 2 1 7 321 63 10
58 2 2 1 7 71 321 10
59 2 2 1 8 15 72 322
60 2 2 1 8 15 322 69
61 2 2 1 8 323 322 64
62 2 2 1 8 72 12 64
63 2 2 1 8 70 14 69
64 2 2 1 8 322 72 64
65 2 2 1 8 322 323 69
66 2 2 1 8 323 70 69
67 2 2 1 8 11 323 64
68 2 2 1 8 323 11 70
69 2 2 1 9 78 16 73
70 2 2 1 9 74 17 77
71 2 2 1 9 324 326 325
72 2 2 1 9 326 78 325
73 2 2 1 9 77 324 325
74 2 2 1 9 68 326 324
75 2 2 1 9 74 325 73
76 2 2 1 9 326 68 13
77 2 2 1 9 325 78 73
78 2 2 1 9 324 14 68
79 2 2 1 9 325 74 77
80 2 2 1 9 78 326 13
81 2 2 1 9 14 324 77
82 2 2 1 10 14 327 69
83 2 2 1 10 327 14 328
84 2 2 1 10 14 77 328
85 2 2 1 10 79 327 328
86 2 2 1 10 77 17 75
87 2 2 1 10 76 18 79
88 2 2 1 10 327 79 15
89 2 2 1 10 69 327 15
90 2 2 1 10 328 75 76
91 2 2 1 10 75 328 77
92 2 2 1 10 79 328 76
93 2 2 1 11 85 19 80
94 2 2 1 11 81 20 84
95 2 2 1 11 329 81 330
96 2 2 1 11 84 330 81
97 2 2 1 11 85 331 16
98 2 2 1 11 331 73 16
99 2 2 1 11 74 331 330
100 2 2 1 11 331 74 73
101 2 2 1 11 330 331 329
102 2 2 1 11 331 85 329
103 2 2 1 11 330 17 74
104 2 2 1 11 329 85 80
105 2 2 1 11 81 329 80
106 2 2 1 11 17 330 84
107 2 2 1 12 332 75 333
108 2 2 1 12 75 332 76
109 2 2 1 12 333 83 332
110 2 2 1 12 332 83 86
111 2 2 1 12 82 83 333
112 2 2 1 12 84 20 82
113 2 2 1 12 17 333 75
114 2 2 1 12 83 21 86
115 2 2 1 12 332 86 18
116 2 2 1 12 76 332 18
117 2 2 1 12 333 84 82
118 2 2 1 12 84 333 17
119 2 2 1 13 334 19 94
120 2 2 1 13 80 19 334
121 2 2 1 13 94 22 87
122 2 2 1 13 89 23 93
123 2 2 1 13 335 334 87
124 2 2 1 13 334 94 87
125 2 2 1 13 87 88 335
126 2 2 1 13 336 335 337
127 2 2 1 13 20 336 337
128 2 2 1 13 337 93 20
129 2 2 1 13 334 336 81
130 2 2 1 13 336 334 335
131 2 2 1 13 337 335 88
132 2 2 1 13 89 337 88
133 2 2 1 13 334 81 80
134 2 2 1 13 93 337 89
135 2 2 1 13 336 20 81
136 2 2 1 14 338 339 92
137 2 2 1 14 338 83 339
138 2 2 1 14 95 92 24
139 2 2 1 14 82 339 83
140 2 2 1 14 91 92 339
141 2 2 1 14 340 339 82
142 2 2 1 14 82 20 340
143 2 2 1 14 338 92 95
144 2 2 1 14 93 23 90
145 2 2 1 14 339 340 91
146 2 2 1 14 340 93 91
147 2 2 1 14 90 91 93
148 2 2 1 14 338 95 21
149 2 2 1 14 83 338 21
150 2 2 1 14 93 340 20
151 2 2 1 15 341 342 87
152 2 2 1 15 103 25 341
153 2 2 1 15 87 342 88
154 2 2 1 15 98 26 102
155 2 2 1 15 342 341 96
156 2 2 1 15 341 22 103
157 2 2 1 15 342 96 97
158 2 2 1 15 88 342 343
159 2 2 1 15 88 343 89
160 2 2 1 15 87 22 341
161 2 2 1 15 343 342 97
162 2 2 1 15 343 97 344
163 2 2 1 15 102 344 98
164 2 2 1 15 344 97 98
165 2 2 1 15 341 25 96
166 2 2 1 15 344 102 23
167 2 2 1 15 343 23 89
168 2 2 1 15 23 343 344
169 2 2 1 16 345 346 101
170 2 2 1 16 104 345 101
171 2 2 1 16 26 99 102
172 2 2 1 16 91 346 92
173 2 2 1 16 346 91 347
174 2 2 1 16 91 90 347
175 2 2 1 16 101 346 100
176 2 2 1 16 346 347 100
177 2 2 1 16 100 347 348
178 2 2 1 16 27 104 101
179 2 2 1 16 345 92 346
180 2 2 1 16 348 99 100
181 2 2 1 16 348 102 99
182 2 2 1 16 92 345 24
183 2 2 1 16 345 104 24
184 2 2 1 16 102 348 23
185 2 2 1 16 347 23 348
186 2 2 1 16 23 347 90
187 2 2 1 17 114 28 349
188 2 2 1 17 349 28 105
189 2 2 1 17 108 29 113
190 2 2 1 17 96 350 97
191 2 2 1 17 351 97 350
192 2 2 1 17 114 349 25
193 2 2 1 17 349 96 25
194 2 2 1 17 98 97 351
195 2 2 1 17 98 351 352
196 2 2 1 17 107 351 106
197 2 2 1 17 351 107 352
198 2 2 1 17 349 350 96
199 2 2 1 17 350 105 106
200 2 2 1 17 113 353 108
201 2 2 1 17 351 350 106
202 2 2 1 17 350 349 105
203 2 2 1 17 353 113 26
204 2 2 1 17 352 26 98
205 2 2 1 17 352 107 353
206 2 2 1 17 353 107 108
207 2 2 1 17 26 352 353
208 2 2 1 18 354 110 355
209 2 2 1 18 355 110 111
210 2 2 1 18 355 356 100
211 2 2 1 18 29 109 113
212 2 2 1 18 354 355 99
213 2 2 1 18 99 355 100
214 2 2 1 18 115 357 30
215 2 2 1 18 112 357 356
216 2 2 1 18 354 26 358
217 2 2 1 18 26 354 99
218 2 2 1 18 358 110 354
219 2 2 1 18 358 109 110
220 2 2 1 18 101 356 357
221 2 2 1 18 358 113 109
222 2 2 1 18 357 112 30
223 2 2 1 18 101 357 27
224 2 2 1 18 113 358 26
225 2 2 1 18 356 355 111
226 2 2 1 18 112 356 111
227 2 2 1 18 101 100 356
228 2 2 1 18 357 115 27
229 2 2 1 19 359 105 360
230 2 2 1 19 32 127 121
231 2 2 1 19 360 105 28
232 2 2 1 19 359 361 106
233 2 2 1 19 106 362 107
234 2 2 1 19 363 364 108
235 2 2 1 19 107 365 108
236 2 2 1 19 108 365 363
237 2 2 1 19 108 364 366
238 2 2 1 19 29 108 366
239 2 2 1 19 106 361 362
240 2 2 1 19 361 359 117
241 2 2 1 19 359 116 117
242 2 2 1 19 359 360 116
243 2 2 1 19 360 128 31
244 2 2 1 19 116 360 31
245 2 2 1 19 127 366 121
246 2 2 1 19 359 106 105
247 2 2 1 19 118 365 362
248 2 2 1 19 366 127 29
249 2 2 1 19 119 365 118
250 2 2 1 19 119 363 365
251 2 2 1 19 360 28 128
252 2 2 1 19 118 362 361
253 2 2 1 19 365 107 362
254 2 2 1 19 364 363 119
255 2 2 1 19 119 120 364
256 2 2 1 19 364 121 366
257 2 2 1 19 118 361 117
258 2 2 1 19 121 364 120
259 2 2 1 20 126 368 367
260 2 2 1 20 122 127 32
261 2 2 1 20 126 367 125
262 2 2 1 20 110 370 369
263 2 2 1 20 110 369 111
264 2 2 1 20 371 370 109
265 2 2 1 20 370 110 109
266 2 2 1 20 371 109 372
267 2 2 1 20 109 29 372
268 2 2 1 20 369 367 111
269 2 2 1 20 367 112 111
270 2 2 1 20 30 368 129
271 2 2 1 20 129 368 33
272 2 2 1 20 368 126 33
273 2 2 1 20 125 367 369
274 2 2 1 20 372 127 122
275 2 2 1 20 30 112 368
276 2 2 1 20 124 369 370
277 2 2 1 20 127 372 29
278 2 2 1 20 369 124 125
279 2 2 1 20 124 370 123
280 2 2 1 20 371 123 370
281 2 2 1 20 367 368 112
282 2 2 1 20 122 123 371
283 2 2 1 20 371 372 122
284 2 2 1 21 133 119 132
285 2 2 1 21 118 132 119
286 2 2 1 21 133 120 119
287 2 2 1 21 132 118 131
288 2 2 1 21 373 120 133
289 2 2 1 21 121 120 373
290 2 2 1 21 131 118 117
291 2 2 1 21 35 142 374
292 2 2 1 21 35 374 135
293 2 2 1 21 143 375 31
294 2 2 1 21 31 375 116
295 2 2 1 21 131 117 376
296 2 2 1 21 121 373 374
297 2 2 1 21 121 377 32
298 2 2 1 21 142 377 374
299 2 2 1 21 375 376 116
300 2 2 1 21 376 375 130
301 2 2 1 21 377 142 32
302 2 2 1 21 116 376 117
303 2 2 1 21 377 121 374
304 2 2 1 21 374 134 135
305 2 2 1 21 130 375 34
306 2 2 1 21 375 143 34
307 2 2 1 21 374 373 134
308 2 2 1 21 134 373 133
309 2 2 1 21 376 130 131
310 2 2 1 22 137 378 122
311 2 2 1 22 379 138 139
312 2 2 1 22 136 142 35
313 2 2 1 22 138 378 137
314 2 2 1 22 137 380 136
315 2 2 1 22 381 124 379
316 2 2 1 22 381 140 382
317 2 2 1 22 381 125 124
318 2 2 1 22 137 122 380
319 2 2 1 22 379 139 381
320 2 2 1 22 381 139 140
321 2 2 1 22 378 123 122
322 2 2 1 22 138 379 378
323 2 2 1 22 379 123 378
324 2 2 1 22 123 379 124
325 2 2 1 22 141 382 140
326 2 2 1 22 122 32 380
327 2 2 1 22 380 142 136
328 2 2 1 22 382 126 125
329 2 2 1 22 141 126 382
330 2 2 1 22 142 380 32
331 2 2 1 22 383 126 141
332 2 2 1 22 382 125 381
333 2 2 1 22 383 141 36
334 2 2 1 22 144 383 36
335 2 2 1 22 126 383 33
336 2 2 1 22 383 144 33
337 2 2 1 23 131 130 146
338 2 2 1 23 150 151 384
339 2 2 1 23 150 384 135
340 2 2 1 23 145 130 34
341 2 2 1 23 149 150 134
342 2 2 1 23 134 150 135
343 2 2 1 23 148 149 133
344 2 2 1 23 133 149 134
345 2 2 1 23 35 384 38
346 2 2 1 23 132 148 133
347 2 2 1 23 146 130 145
348 2 2 1 23 147 148 132
349 2 2 1 23 131 147 132
350 2 2 1 23 145 34 37
351 2 2 1 23 131 146 147
352 2 2 1 23 384 35 135
353 2 2 1 23 384 151 38
354 2 2 1 24 157 141 140
355 2 2 1 24 35 38 152
356 2 2 1 24 138 154 155
357 2 2 1 24 153 154 137
358 2 2 1 24 157 140 156
359 2 2 1 24 36 141 158
360 2 2 1 24 155 139 138
361 2 2 1 24 35 152 136
362 2 2 1 24 140 139 156
363 2 2 1 24 136 152 153
364 2 2 1 24 158 39 36
365 2 2 1 24 137 154 138
366 2 2 1 24 156 139 155
367 2 2 1 24 153 137 136
368 2 2 1 24 158 141 157
369 2 2 4 25 392 403 425
370 2 2 4 25 402 391 414
371 2 2 4 25 402 163 418
372 2 2 4 25 403 392 419
373 2 2 4 25 401 161 414
374 2 2 4 25 390 400 438
375 2 2 4 25 161 401 422
376 2 2 4 25 156 400 417
377 2 2 4 25 403 170 434
378 2 2 4 25 403 394 437
379 2 2 4 25 386 403 437
380 2 2 4 25 150 149 407
381 2 2 4 25 163 402 435
382 2 2 4 25 170 171 434
383 2 2 4 25 400 156 438
384 2 2 4 25 412 390 438
385 2 2 4 25 403 386 425
386 2 2 4 25 402 414 435
387 2 2 4 25 391 401 414
388 2 2 4 25 388 404 411
389 2 2 4 25 163 164 418
390 2 2 4 25 410 390 411
391 2 2 4 25 400 390 421
392 2 2 4 25 400 386 437
393 2 2 4 25 401 391 432
394 2 2 4 25 386 400 421
395 2 2 4 25 404 388 424
396 2 2 4 25 391 402 427
397 2 2 4 25 393 404 424
398 2 2 4 25 168 405 431
399 2 2 4 25 161 162 414
400 2 2 4 25 409 147 423
401 2 2 4 25 394 403 434
402 2 2 4 25 406 387 416
403 2 2 4 25 160 161 422
404 2 2 4 25 404 393 415
405 2 2 4 25 172 428 434
406 2 2 4 25 170 403 419
407 2 2 4 25 150 407 413
408 2 2 4 25 38 151 413
409 2 2 4 25 389 408 415
410 2 2 4 25 391 406 439
411 2 2 4 25 171 172 434
412 2 2 4 25 405 168 426
413 2 2 4 25 406 391 427
414 2 2 4 25 407 149 420
415 2 2 4 25 397 410 448
416 2 2 4 25 442 388 450
417 2 2 4 25 147 146 423
418 2 2 4 25 410 385 448
419 2 2 4 25 416 392 425
420 2 2 4 25 410 411 443
421 2 2 4 25 397 416 425
422 2 2 4 25 388 411 450
423 2 2 4 25 157 156 417
424 2 2 4 25 387 406 427
425 2 2 4 25 408 391 439
426 2 2 4 25 38 413 452
427 2 2 4 25 147 409 429
428 2 2 4 25 391 408 432
429 2 2 4 25 433 152 452
430 2 2 4 25 153 152 433
431 2 2 4 25 167 168 431
432 2 2 4 25 406 416 448
433 2 2 4 25 39 158 428
434 2 2 4 25 172 39 428
435 2 2 4 25 409 393 429
436 2 2 4 25 40 166 430
437 2 2 4 25 408 389 432
438 2 2 4 25 390 410 421
439 2 2 4 25 412 399 450
440 2 2 4 25 165 40 430
441 2 2 4 25 151 150 413
442 2 2 4 25 393 409 454
443 2 2 4 25 416 397 448
444 2 2 4 25 155 154 412
445 2 2 4 25 390 412 450
446 2 2 4 25 145 37 436
447 2 2 4 25 37 159 436
448 2 2 4 25 149 148 420
449 2 2 4 25 413 398 452
450 2 2 4 25 169 170 419
451 2 2 4 25 148 147 429
452 2 2 4 25 428 394 434
453 2 2 4 25 401 432 444
454 2 2 4 25 387 441 458
455 2 2 4 25 418 395 449
456 2 2 4 25 395 441 449
457 2 2 4 25 399 412 457
458 2 2 4 25 410 397 445
459 2 2 4 25 385 410 443
460 2 2 4 25 426 392 458
461 2 2 4 25 412 154 457
462 2 2 4 25 404 440 443
463 2 2 4 25 156 155 438
464 2 2 4 25 411 404 443
465 2 2 4 25 419 392 426
466 2 2 4 25 168 169 426
467 2 2 4 25 417 400 437
468 2 2 4 25 407 420 424
469 2 2 4 25 420 393 424
470 2 2 4 25 432 389 444
471 2 2 4 25 441 405 458
472 2 2 4 25 398 413 446
473 2 2 4 25 405 426 458
474 2 2 4 25 411 390 450
475 2 2 4 25 424 388 446
476 2 2 4 25 407 424 446
477 2 2 4 25 440 385 443
478 2 2 4 25 413 407 446
479 2 2 4 25 416 387 458
480 2 2 4 25 420 148 429
481 2 2 4 25 393 420 429
482 2 2 4 25 415 393 454
483 2 2 4 25 399 442 450
484 2 2 4 25 389 415 454
485 2 2 4 25 169 419 426
486 2 2 4 25 162 163 435
487 2 2 4 25 155 412 438
488 2 2 4 25 414 162 435
489 2 2 4 25 398 433 452
490 2 2 4 25 422 401 444
491 2 2 4 25 158 157 447
492 2 2 4 25 395 418 451
493 2 2 4 25 404 415 440
494 2 2 4 25 415 408 440
495 2 2 4 25 439 385 440
496 2 2 4 25 164 165 451
497 2 2 4 25 159 160 455
498 2 2 4 25 408 439 440
499 2 2 4 25 154 153 457
500 2 2 4 25 423 396 456
501 2 2 4 25 146 145 453
502 2 2 4 25 394 417 437
503 2 2 4 25 152 38 452
504 2 2 4 25 166 167 459
505 2 2 4 25 421 410 445
506 2 2 4 25 417 394 447
507 2 2 4 25 157 417 447
508 2 2 4 25 396 444 456
509 2 2 4 25 392 416 458
510 2 2 4 25 387 427 449
511 2 2 4 25 402 418 449
512 2 2 4 25 425 386 445
513 2 2 4 25 418 164 451
514 2 2 4 25 427 402 449
515 2 2 4 25 397 425 445
516 2 2 4 25 386 421 445
517 2 2 4 25 430 395 451
518 2 2 4 25 433 398 442
519 2 2 4 25 441 387 449
520 2 2 4 25 431 405 441
521 2 2 4 25 396 422 444
522 2 2 4 25 428 158 447
523 2 2 4 25 399 433 442
524 2 2 4 25 395 431 441
525 2 2 4 25 442 398 446
526 2 2 4 25 422 396 455
527 2 2 4 25 385 439 448
528 2 2 4 25 439 406 448
529 2 2 4 25 396 423 453
530 2 2 4 25 160 422 455
531 2 2 4 25 395 430 459
532 2 2 4 25 394 428 447
533 2 2 4 25 388 442 446
534 2 2 4 25 431 395 459
535 2 2 4 25 436 396 453
536 2 2 4 25 423 146 453
537 2 2 4 25 409 423 456
538 2 2 4 25 396 436 455
539 2 2 4 25 430 166 459
540 2 2 4 25 165 430 451
541 2 2 4 25 454 409 456
542 2 2 4 25 145 436 453
543 2 2 4 25 389 454 456
544 2 2 4 25 444 389 456
545 2 2 4 25 433 399 457
546 2 2 4 25 153 433 457
547 2 2 4 25 167 431 459
548 2 2 4 25 436 159 455
549 2 2 2 26 173 57 460
550 2 2 2 26 57 173 1
551 2 2 2 26 58 3 174
552 2 2 2 26 41 173 460
553 2 2 2 26 174 41 460
554 2 2 2 26 57 2 460
555 2 2 2 26 58 174 460
556 2 2 2 26 2 58 460
557 2 2 3 27 51 220 461
558 2 2 3 27 151 279 461
559 2 2 3 27 220 38 461
560 2 2 3 27 145 37 270
561 2 2 3 27 38 151 461
562 2 2 3 27 152 38 219
563 2 2 3 27 210 39 158
564 2 2 3 27 146 145 271
565 2 2 3 27 271 145 270
566 2 2 3 27 146 272 147
567 2 2 3 27 272 146 271
568 2 2 3 27 147 274 148
569 2 2 3 27 272 273 147
570 2 2 3 27 273 274 147
571 2 2 3 27 149 148 275
572 2 2 3 27 148 274 275
573 2 2 3 27 150 149 277
574 2 2 3 27 149 275 276
575 2 2 3 27 149 276 277
576 2 2 3 27 151 150 278
577 2 2 3 27 150 277 278
578 2 2 3 27 151 278 279
579 2 2 3 27 218 153 152
580 2 2 3 27 218 152 219
581 2 2 3 27 153 217 154
582 2 2 3 27 217 153 218
583 2 2 3 27 215 155 154
584 2 2 3 27 215 154 216
585 2 2 3 27 217 216 154
586 2 2 3 27 214 156 155
587 2 2 3 27 155 215 214
588 2 2 3 27 156 212 157
589 2 2 3 27 156 213 212
590 2 2 3 27 213 156 214
591 2 2 3 27 157 211 158
592 2 2 3 27 212 211 157
593 2 2 3 27 211 210 158
594 2 2 3 27 37 43 270
595 2 2 3 27 219 38 220
596 2 2 3 27 39 210 47
597 2 2 3 27 279 51 461
598 2 2 3 28 273 283 284
599 2 2 3 28 273 284 274
600 2 2 3 28 462 289 52
601 2 2 3 28 221 462 52
602 2 2 3 28 280 463 44
603 2 2 3 28 463 175 44
604 2 2 3 28 284 275 274
605 2 2 3 28 285 275 284
606 2 2 3 28 285 286 275
607 2 2 3 28 286 276 275
608 2 2 3 28 279 462 51
609 2 2 3 28 462 279 289
610 2 2 3 28 462 221 51
611 2 2 3 28 463 270 43
612 2 2 3 28 270 463 280
613 2 2 3 28 175 463 43
614 2 2 3 28 279 278 289
615 2 2 3 28 280 281 271
616 2 2 3 28 280 271 270
617 2 2 3 28 282 271 281
618 2 2 3 28 288 289 278
619 2 2 3 28 288 278 277
620 2 2 3 28 286 287 277
621 2 2 3 28 286 277 276
622 2 2 3 28 287 288 277
623 2 2 3 28 283 273 282
624 2 2 3 28 282 273 272
625 2 2 3 28 282 272 271
626 2 2 3 29 485 469 498
627 2 2 3 29 473 485 498
628 2 2 3 29 224 478 502
629 2 2 3 29 478 224 501
630 2 2 3 29 292 293 483
631 2 2 3 29 475 491 500
632 2 2 3 29 464 480 520
633 2 2 3 29 491 471 500
634 2 2 3 29 467 479 496
635 2 2 3 29 478 470 499
636 2 2 3 29 483 293 508
637 2 2 3 29 480 467 495
638 2 2 3 29 479 467 519
639 2 2 3 29 481 468 515
640 2 2 3 29 480 495 520
641 2 2 3 29 470 478 501
642 2 2 3 29 464 493 503
643 2 2 3 29 484 282 516
644 2 2 3 29 178 506 532
645 2 2 3 29 516 280 517
646 2 2 3 29 178 179 506
647 2 2 3 29 503 493 528
648 2 2 3 29 468 481 493
649 2 2 3 29 494 465 507
650 2 2 3 29 292 483 496
651 2 2 3 29 485 295 486
652 2 2 3 29 494 507 512
653 2 2 3 29 466 480 513
654 2 2 3 29 467 483 495
655 2 2 3 29 480 466 505
656 2 2 3 29 482 468 493
657 2 2 3 29 464 482 493
658 2 2 3 29 465 500 514
659 2 2 3 29 499 465 514
660 2 2 3 29 473 483 508
661 2 2 3 29 468 482 494
662 2 2 3 29 282 281 516
663 2 2 3 29 482 464 498
664 2 2 3 29 480 464 503
665 2 2 3 29 468 487 515
666 2 2 3 29 523 492 529
667 2 2 3 29 281 280 516
668 2 2 3 29 225 224 502
669 2 2 3 29 224 223 501
670 2 2 3 29 467 480 505
671 2 2 3 29 469 485 486
672 2 2 3 29 477 492 523
673 2 2 3 29 284 481 515
674 2 2 3 29 483 473 495
675 2 2 3 29 295 296 486
676 2 2 3 29 481 284 511
677 2 2 3 29 465 494 497
678 2 2 3 29 482 498 521
679 2 2 3 29 498 469 521
680 2 2 3 29 294 295 485
681 2 2 3 29 483 467 496
682 2 2 3 29 474 487 512
683 2 2 3 29 291 292 496
684 2 2 3 29 488 470 501
685 2 2 3 29 471 489 502
686 2 2 3 29 288 287 490
687 2 2 3 29 297 298 491
688 2 2 3 29 487 474 509
689 2 2 3 29 466 523 529
690 2 2 3 29 465 497 500
691 2 2 3 29 286 285 487
692 2 2 3 29 497 475 500
693 2 2 3 29 477 516 517
694 2 2 3 29 282 484 504
695 2 2 3 29 484 472 504
696 2 2 3 29 470 488 525
697 2 2 3 29 489 471 526
698 2 2 3 29 472 484 513
699 2 2 3 29 490 470 525
700 2 2 3 29 471 491 526
701 2 2 3 29 487 468 512
702 2 2 3 29 497 494 521
703 2 2 3 29 294 485 508
704 2 2 3 29 485 473 508
705 2 2 3 29 490 287 509
706 2 2 3 29 297 491 510
707 2 2 3 29 480 503 513
708 2 2 3 29 471 502 514
709 2 2 3 29 492 177 532
710 2 2 3 29 502 478 514
711 2 2 3 29 474 490 509
712 2 2 3 29 491 475 510
713 2 2 3 29 177 178 532
714 2 2 3 29 286 487 509
715 2 2 3 29 488 501 530
716 2 2 3 29 502 489 531
717 2 2 3 29 499 470 527
718 2 2 3 29 513 484 523
719 2 2 3 29 475 486 510
720 2 2 3 29 488 289 525
721 2 2 3 29 299 489 526
722 2 2 3 29 511 472 528
723 2 2 3 29 486 296 510
724 2 2 3 29 507 499 527
725 2 2 3 29 466 513 523
726 2 2 3 29 505 466 529
727 2 2 3 29 44 176 517
728 2 2 3 29 280 44 517
729 2 2 3 29 285 284 515
730 2 2 3 29 180 45 518
731 2 2 3 29 45 290 518
732 2 2 3 29 486 475 533
733 2 2 3 29 283 282 504
734 2 2 3 29 289 488 534
735 2 2 3 29 489 299 535
736 2 2 3 29 506 476 532
737 2 2 3 29 469 486 533
738 2 2 3 29 487 285 515
739 2 2 3 29 289 288 525
740 2 2 3 29 298 299 526
741 2 2 3 29 504 472 511
742 2 2 3 29 472 503 528
743 2 2 3 29 496 479 524
744 2 2 3 29 284 283 511
745 2 2 3 29 481 511 528
746 2 2 3 29 507 474 512
747 2 2 3 29 288 490 525
748 2 2 3 29 491 298 526
749 2 2 3 29 465 499 507
750 2 2 3 29 490 474 527
751 2 2 3 29 492 477 522
752 2 2 3 29 470 490 527
753 2 2 3 29 291 496 524
754 2 2 3 29 177 492 522
755 2 2 3 29 494 482 521
756 2 2 3 29 468 494 512
757 2 2 3 29 495 473 520
758 2 2 3 29 293 294 508
759 2 2 3 29 473 498 520
760 2 2 3 29 493 481 528
761 2 2 3 29 498 464 520
762 2 2 3 29 287 286 509
763 2 2 3 29 296 297 510
764 2 2 3 29 478 499 514
765 2 2 3 29 475 497 533
766 2 2 3 29 222 52 534
767 2 2 3 29 53 226 535
768 2 2 3 29 500 471 514
769 2 2 3 29 469 497 521
770 2 2 3 29 497 469 533
771 2 2 3 29 179 180 536
772 2 2 3 29 176 177 522
773 2 2 3 29 506 479 519
774 2 2 3 29 52 289 534
775 2 2 3 29 299 53 535
776 2 2 3 29 223 222 530
777 2 2 3 29 226 225 531
778 2 2 3 29 290 291 524
779 2 2 3 29 488 530 534
780 2 2 3 29 531 489 535
781 2 2 3 29 530 222 534
782 2 2 3 29 226 531 535
783 2 2 3 29 283 504 511
784 2 2 3 29 467 505 519
785 2 2 3 29 503 472 513
786 2 2 3 29 476 529 532
787 2 2 3 29 529 492 532
788 2 2 3 29 505 476 519
789 2 2 3 29 476 505 529
790 2 2 3 29 501 223 530
791 2 2 3 29 225 502 531
792 2 2 3 29 476 506 519
793 2 2 3 29 506 179 536
794 2 2 3 29 474 507 527
795 2 2 3 29 479 506 536
796 2 2 3 29 477 517 522
797 2 2 3 29 517 176 522
798 2 2 3 29 484 516 523
799 2 2 3 29 516 477 523
800 2 2 3 29 518 290 524
801 2 2 3 29 479 518 524
802 2 2 3 29 518 479 536
803 2 2 3 29 180 518 536
804 2 2 3 30 290 300 301
805 2 2 3 30 290 301 291
806 2 2 3 30 302 292 301
807 2 2 3 30 301 292 291
808 2 2 3 30 537 309 54
809 2 2 3 30 227 537 54
810 2 2 3 30 300 538 46
811 2 2 3 30 538 181 46
812 2 2 3 30 304 305 294
813 2 2 3 30 305 295 294
814 2 2 3 30 303 294 293
815 2 2 3 30 304 294 303
816 2 2 3 30 299 537 53
817 2 2 3 30 537 299 309
818 2 2 3 30 537 227 53
819 2 2 3 30 538 290 45
820 2 2 3 30 290 538 300
821 2 2 3 30 181 538 45
822 2 2 3 30 306 307 297
823 2 2 3 30 306 297 296
824 2 2 3 30 299 298 309
825 2 2 3 30 308 298 307
826 2 2 3 30 307 298 297
827 2 2 3 30 302 303 292
828 2 2 3 30 292 303 293
829 2 2 3 30 305 306 296
830 2 2 3 30 305 296 295
831 2 2 3 30 308 309 298
832 2 2 3 31 572 564 591
833 2 2 3 31 540 572 591
834 2 2 3 31 570 548 590
835 2 2 3 31 549 571 589
836 2 2 3 31 207 581 627
837 2 2 3 31 580 202 626
838 2 2 3 31 550 576 591
839 2 2 3 31 576 540 591
840 2 2 3 31 593 209 627
841 2 2 3 31 200 594 626
842 2 2 3 31 557 575 614
843 2 2 3 31 575 541 614
844 2 2 3 31 208 207 627
845 2 2 3 31 202 201 626
846 2 2 3 31 205 204 577
847 2 2 3 31 300 583 641
848 2 2 3 31 582 309 640
849 2 2 3 31 307 585 640
850 2 2 3 31 586 302 641
851 2 2 3 31 541 606 613
852 2 2 3 31 562 600 609
853 2 2 3 31 579 546 618
854 2 2 3 31 209 208 627
855 2 2 3 31 201 200 626
856 2 2 3 31 562 580 600
857 2 2 3 31 581 563 599
858 2 2 3 31 548 570 601
859 2 2 3 31 571 549 602
860 2 2 3 31 564 572 659
861 2 2 3 31 589 540 605
862 2 2 3 31 541 590 606
863 2 2 3 31 569 541 613
864 2 2 3 31 541 569 614
865 2 2 3 31 560 579 618
866 2 2 3 31 308 307 640
867 2 2 3 31 302 301 641
868 2 2 3 31 555 573 604
869 2 2 3 31 574 556 603
870 2 2 3 31 572 553 620
871 2 2 3 31 553 572 633
872 2 2 3 31 301 300 641
873 2 2 3 31 309 308 640
874 2 2 3 31 587 561 634
875 2 2 3 31 572 540 633
876 2 2 3 31 552 573 615
877 2 2 3 31 574 551 616
878 2 2 3 31 610 565 619
879 2 2 3 31 573 555 623
880 2 2 3 31 556 574 624
881 2 2 3 31 546 579 631
882 2 2 3 31 573 552 654
883 2 2 3 31 551 574 655
884 2 2 3 31 544 610 619
885 2 2 3 31 651 553 666
886 2 2 3 31 554 652 665
887 2 2 3 31 605 540 625
888 2 2 3 31 547 576 647
889 2 2 3 31 578 558 661
890 2 2 3 31 600 543 609
891 2 2 3 31 554 612 652
892 2 2 3 31 611 553 651
893 2 2 3 31 575 557 672
894 2 2 3 31 579 563 631
895 2 2 3 31 237 236 616
896 2 2 3 31 190 191 615
897 2 2 3 31 554 575 621
898 2 2 3 31 616 236 687
899 2 2 3 31 190 615 686
900 2 2 3 31 580 551 600
901 2 2 3 31 552 581 599
902 2 2 3 31 597 539 598
903 2 2 3 31 557 597 598
904 2 2 3 31 587 634 653
905 2 2 3 31 548 585 606
906 2 2 3 31 586 549 605
907 2 2 3 31 205 577 607
908 2 2 3 31 577 204 608
909 2 2 3 31 585 558 606
910 2 2 3 31 559 586 605
911 2 2 3 31 559 584 669
912 2 2 3 31 620 567 642
913 2 2 3 31 582 548 601
914 2 2 3 31 549 583 602
915 2 2 3 31 576 547 635
916 2 2 3 31 548 582 640
917 2 2 3 31 583 549 641
918 2 2 3 31 541 575 644
919 2 2 3 31 575 554 644
920 2 2 3 31 579 560 630
921 2 2 3 31 542 579 630
922 2 2 3 31 576 550 647
923 2 2 3 31 309 582 667
924 2 2 3 31 583 300 668
925 2 2 3 31 585 548 640
926 2 2 3 31 549 586 641
927 2 2 3 31 544 620 642
928 2 2 3 31 588 560 618
929 2 2 3 31 566 588 618
930 2 2 3 31 540 576 625
931 2 2 3 31 577 546 631
932 2 2 3 31 546 577 632
933 2 2 3 31 562 609 632
934 2 2 3 31 558 628 661
935 2 2 3 31 629 559 669
936 2 2 3 31 609 543 634
937 2 2 3 31 566 609 634
938 2 2 3 31 302 586 629
939 2 2 3 31 585 307 628
940 2 2 3 31 599 563 649
941 2 2 3 31 632 609 656
942 2 2 3 31 202 580 637
943 2 2 3 31 581 207 638
944 2 2 3 31 606 558 613
945 2 2 3 31 645 569 647
946 2 2 3 31 543 600 655
947 2 2 3 31 599 542 654
948 2 2 3 31 551 580 626
949 2 2 3 31 581 552 627
950 2 2 3 31 596 555 642
951 2 2 3 31 598 561 662
952 2 2 3 31 556 587 653
953 2 2 3 31 603 543 655
954 2 2 3 31 542 604 654
955 2 2 3 31 558 578 639
956 2 2 3 31 593 552 615
957 2 2 3 31 551 594 616
958 2 2 3 31 595 556 670
959 2 2 3 31 555 596 671
960 2 2 3 31 584 559 635
961 2 2 3 31 563 581 638
962 2 2 3 31 580 562 637
963 2 2 3 31 617 598 662
964 2 2 3 31 563 579 649
965 2 2 3 31 549 589 605
966 2 2 3 31 590 548 606
967 2 2 3 31 579 542 649
968 2 2 3 31 587 556 622
969 2 2 3 31 547 647 685
970 2 2 3 31 545 587 622
971 2 2 3 31 592 539 643
972 2 2 3 31 564 592 643
973 2 2 3 31 558 585 628
974 2 2 3 31 586 559 629
975 2 2 3 31 550 645 647
976 2 2 3 31 565 592 619
977 2 2 3 31 557 617 672
978 2 2 3 31 595 568 684
979 2 2 3 31 555 610 642
980 2 2 3 31 556 624 670
981 2 2 3 31 623 555 671
982 2 2 3 31 597 550 650
983 2 2 3 31 561 587 662
984 2 2 3 31 555 604 636
985 2 2 3 31 592 564 619
986 2 2 3 31 594 551 626
987 2 2 3 31 552 593 627
988 2 2 3 31 590 541 644
989 2 2 3 31 571 651 666
990 2 2 3 31 652 570 665
991 2 2 3 31 615 573 686
992 2 2 3 31 574 616 687
993 2 2 3 31 540 589 633
994 2 2 3 31 587 545 662
995 2 2 3 31 610 555 636
996 2 2 3 31 204 203 608
997 2 2 3 31 206 205 607
998 2 2 3 31 556 595 622
999 2 2 3 31 567 596 642
1000 2 2 3 31 603 556 653
1001 2 2 3 31 303 302 629
1002 2 2 3 31 307 306 628
1003 2 2 3 31 539 588 663
1004 2 2 3 31 588 539 646
1005 2 2 3 31 572 620 659
1006 2 2 3 31 188 596 683
1007 2 2 3 31 595 234 682
1008 2 2 3 31 185 186 611
1009 2 2 3 31 232 231 612
1010 2 2 3 31 614 569 645
1011 2 2 3 31 622 595 684
1012 2 2 3 31 557 598 617
1013 2 2 3 31 539 592 646
1014 2 2 3 31 588 566 664
1015 2 2 3 31 597 557 645
1016 2 2 3 31 559 605 625
1017 2 2 3 31 630 565 636
1018 2 2 3 31 589 571 666
1019 2 2 3 31 570 590 665
1020 2 2 3 31 560 588 646
1021 2 2 3 31 209 593 677
1022 2 2 3 31 594 200 678
1023 2 2 3 31 203 202 637
1024 2 2 3 31 207 206 638
1025 2 2 3 31 625 576 635
1026 2 2 3 31 596 188 671
1027 2 2 3 31 234 595 670
1028 2 2 3 31 591 564 650
1029 2 2 3 31 550 591 650
1030 2 2 3 31 592 565 660
1031 2 2 3 31 643 597 650
1032 2 2 3 31 620 544 659
1033 2 2 3 31 542 630 636
1034 2 2 3 31 229 601 689
1035 2 2 3 31 602 183 688
1036 2 2 3 31 648 304 669
1037 2 2 3 31 230 229 689
1038 2 2 3 31 183 184 688
1039 2 2 3 31 596 567 683
1040 2 2 3 31 568 595 682
1041 2 2 3 31 539 597 643
1042 2 2 3 31 584 648 669
1043 2 2 3 31 305 648 661
1044 2 2 3 31 598 539 663
1045 2 2 3 31 550 597 645
1046 2 2 3 31 231 230 652
1047 2 2 3 31 184 185 651
1048 2 2 3 31 563 607 631
1049 2 2 3 31 608 562 632
1050 2 2 3 31 607 577 631
1051 2 2 3 31 577 608 632
1052 2 2 3 31 611 186 657
1053 2 2 3 31 232 612 658
1054 2 2 3 31 648 578 661
1055 2 2 3 31 557 614 645
1056 2 2 3 31 604 573 654
1057 2 2 3 31 574 603 655
1058 2 2 3 31 187 188 683
1059 2 2 3 31 234 233 682
1060 2 2 3 31 607 563 638
1061 2 2 3 31 562 608 637
1062 2 2 3 31 608 203 637
1063 2 2 3 31 206 607 638
1064 2 2 3 31 542 599 649
1065 2 2 3 31 565 610 636
1066 2 2 3 31 604 542 636
1067 2 2 3 31 611 657 675
1068 2 2 3 31 658 612 676
1069 2 2 3 31 584 635 679
1070 2 2 3 31 613 558 639
1071 2 2 3 31 552 599 654
1072 2 2 3 31 600 551 655
1073 2 2 3 31 610 544 642
1074 2 2 3 31 54 309 667
1075 2 2 3 31 300 46 668
1076 2 2 3 31 561 598 663
1077 2 2 3 31 593 615 681
1078 2 2 3 31 616 594 680
1079 2 2 3 31 621 575 672
1080 2 2 3 31 634 543 653
1081 2 2 3 31 228 54 667
1082 2 2 3 31 46 182 668
1083 2 2 3 31 236 235 687
1084 2 2 3 31 189 190 686
1085 2 2 3 31 545 617 662
1086 2 2 3 31 559 625 635
1087 2 2 3 31 184 651 688
1088 2 2 3 31 652 230 689
1089 2 2 3 31 566 618 656
1090 2 2 3 31 618 546 656
1091 2 2 3 31 619 564 659
1092 2 2 3 31 546 632 656
1093 2 2 3 31 188 189 671
1094 2 2 3 31 235 234 670
1095 2 2 3 31 306 305 661
1096 2 2 3 31 647 569 685
1097 2 2 3 31 304 303 669
1098 2 2 3 31 305 304 648
1099 2 2 3 31 601 229 674
1100 2 2 3 31 183 602 673
1101 2 2 3 31 635 547 679
1102 2 2 3 31 582 601 674
1103 2 2 3 31 602 583 673
1104 2 2 3 31 42 209 677
1105 2 2 3 31 200 50 678
1106 2 2 3 31 543 603 653
1107 2 2 3 31 547 639 679
1108 2 2 3 31 639 578 679
1109 2 2 3 31 192 42 677
1110 2 2 3 31 50 238 678
1111 2 2 3 31 233 232 658
1112 2 2 3 31 186 187 657
1113 2 2 3 31 185 611 651
1114 2 2 3 31 612 231 652
1115 2 2 3 31 571 602 688
1116 2 2 3 31 601 570 689
1117 2 2 3 31 235 624 687
1118 2 2 3 31 623 189 686
1119 2 2 3 31 609 566 656
1120 2 2 3 31 569 613 685
1121 2 2 3 31 545 621 672
1122 2 2 3 31 189 623 671
1123 2 2 3 31 624 235 670
1124 2 2 3 31 229 228 674
1125 2 2 3 31 182 183 673
1126 2 2 3 31 238 237 680
1127 2 2 3 31 191 192 681
1128 2 2 3 31 237 616 680
1129 2 2 3 31 615 191 681
1130 2 2 3 31 553 611 675
1131 2 2 3 31 612 554 676
1132 2 2 3 31 567 620 675
1133 2 2 3 31 621 568 676
1134 2 2 3 31 620 553 675
1135 2 2 3 31 554 621 676
1136 2 2 3 31 544 619 659
1137 2 2 3 31 657 567 675
1138 2 2 3 31 568 658 676
1139 2 2 3 31 578 648 679
1140 2 2 3 31 648 584 679
1141 2 2 3 31 568 621 684
1142 2 2 3 31 630 560 660
1143 2 2 3 31 565 630 660
1144 2 2 3 31 621 545 684
1145 2 2 3 31 617 545 672
1146 2 2 3 31 553 633 666
1147 2 2 3 31 633 589 666
1148 2 2 3 31 564 643 650
1149 2 2 3 31 628 306 661
1150 2 2 3 31 613 639 685
1151 2 2 3 31 634 561 664
1152 2 2 3 31 566 634 664
1153 2 2 3 31 545 622 684
1154 2 2 3 31 573 623 686
1155 2 2 3 31 624 574 687
1156 2 2 3 31 303 629 669
1157 2 2 3 31 646 592 660
1158 2 2 3 31 560 646 660
1159 2 2 3 31 644 554 665
1160 2 2 3 31 590 644 665
1161 2 2 3 31 651 571 688
1162 2 2 3 31 570 652 689
1163 2 2 3 31 678 238 680
1164 2 2 3 31 192 677 681
1165 2 2 3 31 594 678 680
1166 2 2 3 31 677 593 681
1167 2 2 3 31 639 547 685
1168 2 2 3 31 567 657 683
1169 2 2 3 31 658 568 682
1170 2 2 3 31 228 667 674
1171 2 2 3 31 668 182 673
1172 2 2 3 31 667 582 674
1173 2 2 3 31 583 668 673
1174 2 2 3 31 561 663 664
1175 2 2 3 31 663 588 664
1176 2 2 3 31 233 658 682
1177 2 2 3 31 657 187 683
1178 2 2 3 32 211 240 239
1179 2 2 3 32 211 239 210
1180 2 2 3 32 241 240 211
1181 2 2 3 32 241 211 212
1182 2 2 3 32 690 239 48
1183 2 2 3 32 193 690 48
1184 2 2 3 32 691 266 55
1185 2 2 3 32 249 691 55
1186 2 2 3 32 216 245 244
1187 2 2 3 32 244 214 215
1188 2 2 3 32 244 243 214
1189 2 2 3 32 216 244 215
1190 2 2 3 32 220 691 249
1191 2 2 3 32 266 691 51
1192 2 2 3 32 691 220 51
1193 2 2 3 32 210 690 47
1194 2 2 3 32 690 210 239
1195 2 2 3 32 690 193 47
1196 2 2 3 32 248 219 249
1197 2 2 3 32 249 219 220
1198 2 2 3 32 247 218 248
1199 2 2 3 32 248 218 219
1200 2 2 3 32 246 217 247
1201 2 2 3 32 247 217 218
1202 2 2 3 32 242 241 212
1203 2 2 3 32 242 212 213
1204 2 2 3 32 217 246 245
1205 2 2 3 32 217 245 216
1206 2 2 3 32 243 242 213
1207 2 2 3 32 243 213 214
1208 2 2 3 33 266 51 221
1209 2 2 3 33 52 692 221
1210 2 2 3 33 266 692 267
1211 2 2 3 33 267 55 266
1212 2 2 3 33 692 52 267
1213 2 2 3 33 692 266 221
1214 2 2 3 34 267 693 55
1215 2 2 3 34 693 250 55
1216 2 2 3 34 694 268 56
1217 2 2 3 34 254 694 56
1218 2 2 3 34 250 223 251
1219 2 2 3 34 225 253 252
1220 2 2 3 34 250 222 223
1221 2 2 3 34 251 223 252
1222 2 2 3 34 226 694 254
1223 2 2 3 34 268 694 53
1224 2 2 3 34 694 226 53
1225 2 2 3 34 693 222 250
1226 2 2 3 34 693 267 52
1227 2 2 3 34 222 693 52
1228 2 2 3 34 225 252 224
1229 2 2 3 34 226 254 225
1230 2 2 3 34 252 223 224
1231 2 2 3 34 225 254 253
1232 2 2 3 35 268 53 227
1233 2 2 3 35 227 54 269
1234 2 2 3 35 268 227 269
1235 2 2 3 35 269 56 268
1236 2 2 3 36 232 259 258
1237 2 2 3 36 232 258 231
1238 2 2 3 36 261 234 262
1239 2 2 3 36 262 234 235
1240 2 2 3 36 233 260 259
1241 2 2 3 36 233 259 232
1242 2 2 3 36 260 233 261
1243 2 2 3 36 261 233 234
1244 2 2 3 36 695 238 50
1245 2 2 3 36 199 695 50
1246 2 2 3 36 269 696 56
1247 2 2 3 36 696 255 56
1248 2 2 3 36 235 236 262
1249 2 2 3 36 263 262 236
1250 2 2 3 36 236 237 263
1251 2 2 3 36 231 257 230
1252 2 2 3 36 265 695 49
1253 2 2 3 36 695 265 238
1254 2 2 3 36 695 199 49
1255 2 2 3 36 696 228 255
1256 2 2 3 36 696 269 54
1257 2 2 3 36 228 696 54
1258 2 2 3 36 229 256 255
1259 2 2 3 36 229 255 228
1260 2 2 3 36 230 257 256
1261 2 2 3 36 230 256 229
1262 2 2 3 36 265 264 237
1263 2 2 3 36 265 237 238
1264 2 2 3 36 263 237 264
1265 2 2 3 36 231 258 257
1266 2 2 3 37 701 714 758
1267 2 2 3 37 715 701 758
1268 2 2 3 37 712 704 731
1269 2 2 3 37 712 252 736
1270 2 2 3 37 252 712 735
1271 2 2 3 37 262 263 718
1272 2 2 3 37 262 718 748
1273 2 2 3 37 755 239 757
1274 2 2 3 37 239 240 757
1275 2 2 3 37 706 717 748
1276 2 2 3 37 713 702 733
1277 2 2 3 37 702 716 730
1278 2 2 3 37 257 720 745
1279 2 2 3 37 714 697 754
1280 2 2 3 37 721 247 747
1281 2 2 3 37 714 701 751
1282 2 2 3 37 725 255 745
1283 2 2 3 37 717 706 726
1284 2 2 3 37 700 726 758
1285 2 2 3 37 255 256 745
1286 2 2 3 37 726 715 758
1287 2 2 3 37 704 712 736
1288 2 2 3 37 741 196 765
1289 2 2 3 37 249 724 747
1290 2 2 3 37 702 713 761
1291 2 2 3 37 245 723 737
1292 2 2 3 37 718 263 733
1293 2 2 3 37 707 722 738
1294 2 2 3 37 722 700 738
1295 2 2 3 37 732 698 739
1296 2 2 3 37 248 249 747
1297 2 2 3 37 247 248 747
1298 2 2 3 37 732 739 762
1299 2 2 3 37 699 716 746
1300 2 2 3 37 716 699 749
1301 2 2 3 37 256 257 745
1302 2 2 3 37 197 196 741
1303 2 2 3 37 701 715 763
1304 2 2 3 37 748 717 770
1305 2 2 3 37 718 706 748
1306 2 2 3 37 718 702 730
1307 2 2 3 37 711 755 757
1308 2 2 3 37 244 245 737
1309 2 2 3 37 251 252 735
1310 2 2 3 37 252 253 736
1311 2 2 3 37 704 728 731
1312 2 2 3 37 697 729 731
1313 2 2 3 37 697 714 740
1314 2 2 3 37 708 721 729
1315 2 2 3 37 706 718 730
1316 2 2 3 37 720 707 728
1317 2 2 3 37 723 701 737
1318 2 2 3 37 716 702 746
1319 2 2 3 37 704 720 728
1320 2 2 3 37 726 700 775
1321 2 2 3 37 721 703 729
1322 2 2 3 37 702 718 733
1323 2 2 3 37 717 726 775
1324 2 2 3 37 738 714 754
1325 2 2 3 37 699 727 771
1326 2 2 3 37 241 719 757
1327 2 2 3 37 263 264 733
1328 2 2 3 37 740 714 751
1329 2 2 3 37 703 724 735
1330 2 2 3 37 725 704 736
1331 2 2 3 37 727 711 771
1332 2 2 3 37 731 729 766
1333 2 2 3 37 737 701 763
1334 2 2 3 37 727 699 776
1335 2 2 3 37 728 697 731
1336 2 2 3 37 720 704 745
1337 2 2 3 37 720 257 743
1338 2 2 3 37 729 697 740
1339 2 2 3 37 708 729 740
1340 2 2 3 37 739 716 749
1341 2 2 3 37 703 721 747
1342 2 2 3 37 715 732 763
1343 2 2 3 37 719 241 742
1344 2 2 3 37 247 721 744
1345 2 2 3 37 700 722 775
1346 2 2 3 37 705 719 742
1347 2 2 3 37 719 705 749
1348 2 2 3 37 722 707 759
1349 2 2 3 37 724 703 747
1350 2 2 3 37 704 725 745
1351 2 2 3 37 710 741 765
1352 2 2 3 37 707 720 743
1353 2 2 3 37 721 708 744
1354 2 2 3 37 699 746 776
1355 2 2 3 37 240 241 757
1356 2 2 3 37 708 723 767
1357 2 2 3 37 194 48 755
1358 2 2 3 37 722 259 753
1359 2 2 3 37 729 703 766
1360 2 2 3 37 48 239 755
1361 2 2 3 37 242 243 734
1362 2 2 3 37 259 722 759
1363 2 2 3 37 255 725 773
1364 2 2 3 37 724 249 772
1365 2 2 3 37 195 727 765
1366 2 2 3 37 739 705 762
1367 2 2 3 37 698 732 778
1368 2 2 3 37 732 715 778
1369 2 2 3 37 701 723 751
1370 2 2 3 37 723 708 751
1371 2 2 3 37 723 245 767
1372 2 2 3 37 257 258 743
1373 2 2 3 37 738 700 758
1374 2 2 3 37 714 738 758
1375 2 2 3 37 246 247 744
1376 2 2 3 37 709 737 763
1377 2 2 3 37 715 726 778
1378 2 2 3 37 196 195 765
1379 2 2 3 37 49 198 756
1380 2 2 3 37 265 49 756
1381 2 2 3 37 735 724 768
1382 2 2 3 37 725 736 769
1383 2 2 3 37 726 706 750
1384 2 2 3 37 711 727 752
1385 2 2 3 37 707 743 759
1386 2 2 3 37 706 730 750
1387 2 2 3 37 734 243 760
1388 2 2 3 37 719 749 771
1389 2 2 3 37 744 708 767
1390 2 2 3 37 241 242 742
1391 2 2 3 37 728 707 754
1392 2 2 3 37 727 195 752
1393 2 2 3 37 697 728 754
1394 2 2 3 37 259 260 753
1395 2 2 3 37 734 705 742
1396 2 2 3 37 703 735 766
1397 2 2 3 37 735 712 766
1398 2 2 3 37 709 734 760
1399 2 2 3 37 749 699 771
1400 2 2 3 37 261 262 748
1401 2 2 3 37 733 264 764
1402 2 2 3 37 242 734 742
1403 2 2 3 37 713 741 761
1404 2 2 3 37 730 716 774
1405 2 2 3 37 734 709 762
1406 2 2 3 37 705 734 762
1407 2 2 3 37 713 733 764
1408 2 2 3 37 254 56 773
1409 2 2 3 37 55 250 772
1410 2 2 3 37 195 194 752
1411 2 2 3 37 245 246 767
1412 2 2 3 37 258 259 759
1413 2 2 3 37 261 748 770
1414 2 2 3 37 739 698 774
1415 2 2 3 37 709 732 762
1416 2 2 3 37 732 709 763
1417 2 2 3 37 712 731 766
1418 2 2 3 37 243 244 760
1419 2 2 3 37 716 739 774
1420 2 2 3 37 249 55 772
1421 2 2 3 37 56 255 773
1422 2 2 3 37 198 197 777
1423 2 2 3 37 250 251 768
1424 2 2 3 37 253 254 769
1425 2 2 3 37 707 738 754
1426 2 2 3 37 244 737 760
1427 2 2 3 37 264 265 764
1428 2 2 3 37 705 739 749
1429 2 2 3 37 260 261 770
1430 2 2 3 37 708 740 751
1431 2 2 3 37 746 710 776
1432 2 2 3 37 737 709 760
1433 2 2 3 37 768 724 772
1434 2 2 3 37 725 769 773
1435 2 2 3 37 710 765 776
1436 2 2 3 37 765 727 776
1437 2 2 3 37 250 768 772
1438 2 2 3 37 769 254 773
1439 2 2 3 37 750 730 774
1440 2 2 3 37 251 735 768
1441 2 2 3 37 736 253 769
1442 2 2 3 37 746 702 761
1443 2 2 3 37 741 710 761
1444 2 2 3 37 197 741 777
1445 2 2 3 37 710 746 761
1446 2 2 3 37 743 258 759
1447 2 2 3 37 752 194 755
1448 2 2 3 37 741 713 777
1449 2 2 3 37 711 752 755
1450 2 2 3 37 753 260 770
1451 2 2 3 37 717 753 770
1452 2 2 3 37 246 744 767
1453 2 2 3 37 698 750 774
1454 2 2 3 37 726 750 778
1455 2 2 3 37 750 698 778
1456 2 2 3 37 757 719 771
1457 2 2 3 37 711 757 771
1458 2 2 3 37 265 756 764
1459 2 2 3 37 722 753 775
1460 2 2 3 37 753 717 775
1461 2 2 3 37 756 713 764
1462 2 2 3 37 713 756 777
1463 2 2 3 37 756 198 777
$EndElements
