$MeshFormat
2.2 0 8
$EndMeshFormat
$Nodes
678
1 12.7 0 0
2 9.92 7.931 0
3 9.882999999999999 7.976 0
4 9.845000000000001 8.023 0
5 9.81 8.065 0
6 9.781000000000001 8.1 0
7 0 12.7 0
8 -9.781000000000001 8.1 0
9 -9.81 8.065 0
10 -9.845000000000001 8.023 0
11 -9.882999999999999 7.976 0
12 -9.92 7.931 0
13 -12.7 0 0
14 -9.92 -7.931 0
15 -9.882999999999999 -7.976 0
16 -9.845000000000001 -8.023 0
17 -9.81 -8.065 0
18 -9.781000000000001 -8.1 0
19 0 -12.7 0
20 9.781000000000001 -8.1 0
21 9.81 -8.065 0
22 9.845000000000001 -8.023 0
23 9.882999999999999 -7.976 0
24 9.92 -7.931 0
25 12.942 0 4.901
26 10.224 8.173999999999999 4.901
27 10.182 8.218 4.901
28 10.138 8.262 4.901
29 10.096 8.301 4.901
30 10.06 8.331 4.901
31 0 12.848 4.901
32 -10.06 8.331 4.901
33 -10.096 8.301 4.901
34 -10.138 8.262 4.901
35 -10.182 8.218 4.901
36 -10.224 8.173999999999999 4.901
37 -12.942 0 4.901
38 -10.224 -8.173999999999999 4.901
39 -10.182 -8.218 4.901
40 -10.138 -8.262 4.901
41 -10.096 -8.301 4.901
42 -10.06 -8.331 4.901
43 0 -12.848 4.901
44 10.06 -8.331 4.901
45 10.096 -8.301 4.901
46 10.138 -8.262 4.901
47 10.182 -8.218 4.901
48 10.224 -8.173999999999999 4.901
49 14.504 0 13.687
50 12.11 9.682 13.687
51 12.041 9.718 13.687
52 11.962 9.747999999999999 13.687
53 11.88 9.766999999999999 13.687
54 11.803 9.773999999999999 13.687
55 0 13.837 13.687
56 -11.803 9.773999999999999 13.687
57 -11.88 9.766999999999999 13.687
58 -11.962 9.747999999999999 13.687
59 -12.041 9.718 13.687
60 -12.11 9.682 13.687
61 -14.504 0 13.687
62 -12.11 -9.682 13.687
63 -12.041 -9.718 13.687
64 -11.962 -9.747999999999999 13.687
65 -11.88 -9.766999999999999 13.687
66 -11.803 -9.773999999999999 13.687
67 0 -13.837 13.687
68 11.803 -9.773999999999999 13.687
69 11.88 -9.766999999999999 13.687
70 11.962 -9.747999999999999 13.687
71 12.041 -9.718 13.687
72 12.11 -9.682 13.687
73 18.953 0 27.14
74 17.087 13.661 27.14
75 16.953 13.683 27.14
76 16.795 13.686 27.14
77 16.624 13.667 27.14
78 16.456 13.627 27.14
79 0 16.849 27.14
80 -16.456 13.627 27.14
81 -16.624 13.667 27.14
82 -16.795 13.686 27.14
83 -16.953 13.683 27.14
84 -17.087 13.661 27.14
85 -18.953 0 27.14
86 -17.087 -13.661 27.14
87 -16.953 -13.683 27.14
88 -16.795 -13.686 27.14
89 -16.624 -13.667 27.14
90 -16.456 -13.627 27.14
91 0 -16.849 27.14
92 16.456 -13.627 27.14
93 16.624 -13.667 27.14
94 16.795 -13.686 27.14
95 16.953 -13.683 27.14
96 17.087 -13.661 27.14
97 27.809 0 46.577
98 26.292 21.02 46.577
99 26.057 21.031 46.577
100 25.775 21.004 46.577
101 25.464 20.935 46.577
102 25.154 20.831 46.577
103 0 23.348 46.577
104 -25.154 20.831 46.577
105 -25.464 20.935 46.577
106 -25.775 21.004 46.577
107 -26.057 21.031 46.577
108 -26.292 21.02 46.577
109 -27.809 0 46.577
110 -26.292 -21.02 46.577
111 -26.057 -21.031 46.577
112 -25.775 -21.004 46.577
113 -25.464 -20.935 46.577
114 -25.154 -20.831 46.577
115 0 -23.348 46.577
116 25.154 -20.831 46.577
117 25.464 -20.935 46.577
118 25.775 -21.004 46.577
119 26.057 -21.031 46.577
120 26.292 -21.02 46.577
121 41.662 0 71.648
122 39.998 31.978 71.648
123 39.629 31.985 71.648
124 39.183 31.93 71.648
125 38.69 31.809 71.648
126 38.197 31.632 71.648
127 0 34.175 71.648
128 -38.197 31.632 71.648
129 -38.69 31.809 71.648
130 -39.183 31.93 71.648
131 -39.629 31.985 71.648
132 -39.998 31.978 71.648
133 -41.662 0 71.648
134 -39.998 -31.978 71.648
135 -39.629 -31.985 71.648
136 -39.183 -31.93 71.648
137 -38.69 -31.809 71.648
138 -38.197 -31.632 71.648
139 0 -34.175 71.648
140 38.197 -31.632 71.648
141 38.69 -31.809 71.648
142 39.183 -31.93 71.648
143 39.629 -31.985 71.648
144 39.998 -31.978 71.648
145 61.766 0 100.826
146 59.422 47.507 100.826
147 58.895 47.535 100.826
148 58.255 47.472 100.826
149 57.547 47.312 100.826
150 56.835 47.066 100.826
151 0 50.504 100.826
152 -56.835 47.066 100.826
153 -57.547 47.312 100.826
154 -58.255 47.472 100.826
155 -58.895 47.535 100.826
156 -59.422 47.507 100.826
157 -61.766 0 100.826
158 -59.422 -47.507 100.826
159 -58.895 -47.535 100.826
160 -58.255 -47.472 100.826
161 -57.547 -47.312 100.826
162 -56.835 -47.066 100.826
163 0 -50.504 100.826
164 56.835 -47.066 100.826
165 57.547 -47.312 100.826
166 58.255 -47.472 100.826
167 58.895 -47.535 100.826
168 59.422 -47.507 100.826
169 91.583 0 129.914
170 88.702 70.916 129.914
171 88.03100000000001 71.05 129.914
172 87.197 71.05800000000001 129.914
173 86.264 70.922 129.914
174 85.316 70.652 129.914
175 0 74.803 129.914
176 -85.316 70.652 129.914
177 -86.264 70.922 129.914
178 -87.197 71.05800000000001 129.914
179 -88.03100000000001 71.05 129.914
180 -88.702 70.916 129.914
181 -91.583 0 129.914
182 -88.702 -70.916 129.914
183 -88.03100000000001 -71.05 129.914
184 -87.197 -71.05800000000001 129.914
185 -86.264 -70.922 129.914
186 -85.316 -70.652 129.914
187 0 -74.803 129.914
188 85.316 -70.652 129.914
189 86.264 -70.922 129.914
190 87.197 -71.05800000000001 129.914
191 88.03100000000001 -71.05 129.914
192 88.702 -70.916 129.914
193 132.769 0 154.026
194 130.454 104.297 154.026
195 129.696 104.679 154.026
196 128.711 104.887 154.026
197 127.578 104.888 154.026
198 126.401 104.676 154.026
199 0 107.824 154.026
200 -126.401 104.676 154.026
201 -127.578 104.888 154.026
202 -128.711 104.887 154.026
203 -129.696 104.679 154.026
204 -130.454 104.297 154.026
205 -132.769 0 154.026
206 -130.454 -104.297 154.026
207 -129.696 -104.679 154.026
208 -128.711 -104.887 154.026
209 -127.578 -104.888 154.026
210 -126.401 -104.676 154.026
211 0 -107.824 154.026
212 126.401 -104.676 154.026
213 127.578 -104.888 154.026
214 128.711 -104.887 154.026
215 129.696 -104.679 154.026
216 130.454 -104.297 154.026
217 181.887 0 172.104
218 181.109 144.795 172.104
219 180.321 145.539 172.104
220 179.231 146.057 172.104
221 177.932 146.286 172.104
222 176.547 146.203 172.104
223 0 146.842 172.104
224 -176.547 146.203 172.104
225 -177.932 146.286 172.104
226 -179.231 146.057 172.104
227 -180.321 145.539 172.104
228 -181.109 144.795 172.104
229 -181.887 0 172.104
230 -181.109 -144.795 172.104
231 -180.321 -145.539 172.104
232 -179.231 -146.057 172.104
233 -177.932 -146.286 172.104
234 -176.547 -146.203 172.104
235 0 -146.842 172.104
236 176.547 -146.203 172.104
237 177.932 -146.286 172.104
238 179.231 -146.057 172.104
239 180.321 -145.539 172.104
240 181.109 -144.795 172.104
241 228.741 0 184.019
242 229.33 183.346 184.019
243 228.542 184.458 184.019
244 227.383 185.295 184.019
245 225.958 185.771 184.019
246 224.406 185.836 184.019
247 0 184.292 184.019
248 -224.406 185.836 184.019
249 -225.958 185.771 184.019
250 -227.383 185.295 184.019
251 -228.542 184.458 184.019
252 -229.33 183.346 184.019
253 -228.741 0 184.019
254 -229.33 -183.346 184.019
255 -228.542 -184.458 184.019
256 -227.383 -185.295 184.019
257 -225.958 -185.771 184.019
258 -224.406 -185.836 184.019
259 0 -184.292 184.019
260 224.406 -185.836 184.019
261 225.958 -185.771 184.019
262 227.383 -185.295 184.019
263 228.542 -184.458 184.019
264 229.33 -183.346 184.019
265 267.311 0 191.163
266 268.124 214.362 191.163
267 267.335 215.768 191.163
268 266.124 216.866 191.163
269 264.607 217.546 191.163
270 262.932 217.74 191.163
271 0 215.898 191.163
272 -262.932 217.74 191.163
273 -264.607 217.546 191.163
274 -266.124 216.866 191.163
275 -267.335 215.768 191.163
276 -268.124 214.362 191.163
277 -267.311 0 191.163
278 -268.124 -214.362 191.163
279 -267.335 -215.768 191.163
280 -266.124 -216.866 191.163
281 -264.607 -217.546 191.163
282 -262.932 -217.74 191.163
283 0 -215.898 191.163
284 262.932 -217.74 191.163
285 264.607 -217.546 191.163
286 266.124 -216.866 191.163
287 267.335 -215.768 191.163
288 268.124 -214.362 191.163
289 292.187 0 194.364
290 291.91 233.379 194.364
291 291.107 234.955 194.364
292 289.856 236.206 194.364
293 288.28 237.009 194.364
294 286.533 237.285 194.364
295 0 237.285 194.364
296 -286.533 237.285 194.364
297 -288.28 237.009 194.364
298 -289.856 236.206 194.364
299 -291.107 234.955 194.364
300 -291.91 233.379 194.364
301 -292.187 0 194.364
302 -291.91 -233.379 194.364
303 -291.107 -234.955 194.364
304 -289.856 -236.206 194.364
305 -288.28 -237.009 194.364
306 -286.533 -237.285 194.364
307 0 -237.285 194.364
308 286.533 -237.285 194.364
309 288.28 -237.009 194.364
310 289.856 -236.206 194.364
311 291.107 -234.955 194.364
312 291.91 -233.379 194.364
313 28.4175000000783 48.78499999999526 100.826
314 -28.4174999999214 48.78500000000476 100.826
315 -28.4175000000783 -48.78499999999526 100.826
316 28.4174999999214 -48.78500000000476 100.826
317 90.14250000000389 35.45799999990421 129.914
318 109.5779999999447 87.60649999995579 141.9699999999681
319 108.8634999999477 87.86449999995779 141.9699999999697
320 107.953999999942 87.97249999995276 141.9699999999663
321 106.9209999999422 87.90499999995251 141.9699999999663
322 105.8584999999438 87.66399999995346 141.969999999967
323 42.65800000011361 72.72749999999448 129.914
324 -42.65799999988433 72.72750000000563 129.914
325 -105.8584999999438 87.66399999995346 141.969999999967
326 -106.9209999999422 87.90499999995251 141.9699999999663
327 -107.953999999942 87.97249999995276 141.9699999999663
328 -108.8634999999477 87.86449999995779 141.9699999999697
329 -109.5779999999447 87.60649999995579 141.9699999999681
330 -90.14249999999605 35.45800000009736 129.914
331 -90.14250000000389 -35.45799999990421 129.914
332 -109.5779999999447 -87.60649999995579 141.9699999999681
333 -108.8634999999477 -87.86449999995779 141.9699999999697
334 -107.953999999942 -87.97249999995276 141.9699999999663
335 -106.9209999999422 -87.90499999995251 141.9699999999663
336 -105.8584999999438 -87.66399999995346 141.969999999967
337 -42.65800000011361 -72.72749999999448 129.914
338 42.65799999988433 -72.72750000000563 129.914
339 105.8584999999438 -87.66399999995346 141.969999999967
340 106.9209999999422 -87.90499999995251 141.9699999999663
341 107.953999999942 -87.97249999995276 141.9699999999663
342 108.8634999999477 -87.86449999995779 141.9699999999697
343 109.5779999999447 -87.60649999995579 141.9699999999681
344 90.14249999999605 -35.45800000009736 129.914
345 157.3279999999262 0 163.0649999999729
346 131.9973333333352 34.76566666658137 154.026
347 131.2256666666687 69.53133333324121 154.026
348 155.7814999999376 124.5459999999501 163.0649999999777
349 155.0084999999702 125.1089999999759 163.0649999999894
350 153.9709999999437 125.4719999999541 163.0649999999798
351 152.754999999932 125.5869999999441 163.0649999999756
352 151.4739999999426 125.4394999999525 163.0649999999793
353 84.26733333344531 105.7253333333305 154.026
354 42.13366666678338 106.7746666666638 154.026
355 -42.13366666656373 106.7746666666692 154.026
356 -84.26733333322021 105.7253333333362 154.026
357 -151.4739999999426 125.4394999999525 163.0649999999793
358 -152.754999999932 125.5869999999441 163.0649999999756
359 -153.9709999999437 125.4719999999541 163.0649999999798
360 -155.0084999999702 125.1089999999759 163.0649999999894
361 -155.7814999999376 124.5459999999501 163.0649999999777
362 -131.2256666666648 69.53133333341935 154.026
363 -131.9973333333313 34.76566666675916 154.026
364 -157.3279999999262 0 163.0649999999729
365 -131.9973333333352 -34.76566666658137 154.026
366 -131.2256666666687 -69.53133333324121 154.026
367 -155.7814999999376 -124.5459999999501 163.0649999999777
368 -155.0084999999702 -125.1089999999759 163.0649999999894
369 -153.9709999999437 -125.4719999999541 163.0649999999798
370 -152.754999999932 -125.5869999999441 163.0649999999756
371 -151.4739999999426 -125.4394999999525 163.0649999999793
372 -84.26733333344531 -105.7253333333305 154.026
373 -42.13366666678338 -106.7746666666638 154.026
374 42.13366666656373 -106.7746666666692 154.026
375 84.26733333322021 -105.7253333333362 154.026
376 151.4739999999426 -125.4394999999525 163.0649999999793
377 152.754999999932 -125.5869999999441 163.0649999999756
378 153.9709999999437 -125.4719999999541 163.0649999999798
379 155.0084999999702 -125.1089999999759 163.0649999999894
380 155.7814999999376 -124.5459999999501 163.0649999999777
381 131.2256666666648 -69.53133333341935 154.026
382 131.9973333333313 -34.76566666675916 154.026
383 181.6276666666673 48.26499999988344 172.104
384 181.3683333333339 96.52999999989191 172.104
385 205.2194999999472 164.0704999999577 178.0614999999869
386 204.4314999999604 164.998499999968 178.0614999999902
387 203.306999999928 165.6759999999413 178.0614999999822
388 201.944999999943 166.0284999999531 178.0614999999859
389 200.4764999999266 166.0194999999393 178.0614999999817
390 132.4102500001125 146.3627499999996 172.104
391 88.27350000023043 146.5224999999992 172.104
392 44.13675000012077 146.6822499999996 172.104
393 -44.13674999989821 146.6822500000004 172.104
394 -88.27349999977115 146.5225000000008 172.104
395 -132.41024999988 146.3627500000004 172.104
396 -200.4764999999266 166.0194999999393 178.0614999999817
397 -201.944999999943 166.0284999999531 178.0614999999859
398 -203.306999999928 165.6759999999413 178.0614999999822
399 -204.4314999999604 164.998499999968 178.0614999999902
400 -205.2194999999472 164.0704999999577 178.0614999999869
401 -181.3683333333327 96.5300000001092 172.104
402 -181.6276666666661 48.26500000010716 172.104
403 -181.6276666666673 -48.26499999988344 172.104
404 -181.3683333333339 -96.52999999989191 172.104
405 -205.2194999999472 -164.0704999999577 178.0614999999869
406 -204.4314999999604 -164.998499999968 178.0614999999902
407 -203.306999999928 -165.6759999999413 178.0614999999822
408 -201.944999999943 -166.0284999999531 178.0614999999859
409 -200.4764999999266 -166.0194999999393 178.0614999999817
410 -132.4102500001125 -146.3627499999996 172.104
411 -88.27350000023043 -146.5224999999992 172.104
412 -44.13675000012077 -146.6822499999996 172.104
413 44.13674999989821 -146.6822500000004 172.104
414 88.27349999977115 -146.5225000000008 172.104
415 132.41024999988 -146.3627500000004 172.104
416 200.4764999999266 -166.0194999999393 178.0614999999817
417 201.944999999943 -166.0284999999531 178.0614999999859
418 203.306999999928 -165.6759999999413 178.0614999999822
419 204.4314999999604 -164.998499999968 178.0614999999902
420 205.2194999999472 -164.0704999999577 178.0614999999869
421 181.3683333333327 -96.5300000001092 172.104
422 181.6276666666661 -48.26500000010716 172.104
423 228.8882499999997 45.8364999998939 184.019
424 229.0354999999992 91.67299999975444 184.019
425 229.1827499999996 137.5094999998759 184.019
426 245.2824999999399 201.6584999999506 187.5909999999889
427 243.668999999943 201.7879999999528 187.5909999999894
428 179.5248000001012 185.5272000000007 184.019
429 134.643600000229 185.2184000000016 184.019
430 89.76240000022887 184.9096000000016 184.019
431 44.88120000011438 184.6008000000008 184.019
432 -44.88119999990056 184.6007999999993 184.019
433 -89.76239999976504 184.9095999999984 184.019
434 -134.643599999769 185.2183999999984 184.019
435 -179.5247999998846 185.5271999999992 184.019
436 -243.668999999943 201.7879999999528 187.5909999999894
437 -245.2824999999399 201.6584999999506 187.5909999999889
438 -229.1827500000004 137.5095000001069 184.019
439 -229.0355000000008 91.6730000002498 184.019
440 -228.8882500000004 45.83650000012625 184.019
441 -228.8882499999997 -45.8364999998939 184.019
442 -229.0354999999992 -91.67299999975444 184.019
443 -229.1827499999996 -137.5094999998759 184.019
444 -245.2824999999399 -201.6584999999506 187.5909999999889
445 -243.668999999943 -201.7879999999528 187.5909999999894
446 -179.5248000001012 -185.5272000000007 184.019
447 -134.643600000229 -185.2184000000016 184.019
448 -89.76240000022887 -184.9096000000016 184.019
449 -44.88120000011438 -184.6008000000008 184.019
450 44.88119999990056 -184.6007999999993 184.019
451 89.76239999976504 -184.9095999999984 184.019
452 134.643599999769 -185.2183999999984 184.019
453 179.5247999998846 -185.5271999999992 184.019
454 243.668999999943 -201.7879999999528 187.5909999999894
455 245.2824999999399 -201.6584999999506 187.5909999999889
456 229.1827500000004 -137.5095000001069 184.019
457 229.0355000000008 -91.6730000002498 184.019
458 228.8882500000004 -45.83650000012625 184.019
459 267.4735999999996 42.87239999990631 191.163
460 267.6361999999992 85.74479999978371 191.163
461 267.7987999999992 128.6171999997779 191.163
462 267.9613999999996 171.4895999998892 191.163
463 219.1100000000779 217.4330000000006 191.163
464 175.2880000002131 217.1260000000015 191.163
465 131.4660000003777 216.8190000000027 191.163
466 87.64400000026669 216.5120000000019 191.163
467 43.82200000013893 216.205000000001 191.163
468 -43.82199999989901 216.2049999999993 191.163
469 -87.64399999976052 216.5119999999983 191.163
470 -131.4659999996115 216.8189999999973 191.163
471 -175.2879999997262 217.1259999999981 191.163
472 -219.1099999998575 217.432999999999 191.163
473 -267.9614000000004 171.4896000000898 191.163
474 -267.7988000000008 128.6172000002136 191.163
475 -267.6362000000008 85.74480000022027 191.163
476 -267.4736000000004 42.87240000010993 191.163
477 -267.4735999999996 -42.87239999990631 191.163
478 -267.6361999999992 -85.74479999978371 191.163
479 -267.7987999999992 -128.6171999997779 191.163
480 -267.9613999999996 -171.4895999998892 191.163
481 -219.1100000000779 -217.4330000000006 191.163
482 -175.2880000002131 -217.1260000000015 191.163
483 -131.4660000003777 -216.8190000000027 191.163
484 -87.64400000026669 -216.5120000000019 191.163
485 -43.82200000013893 -216.205000000001 191.163
486 43.82199999989901 -216.2049999999993 191.163
487 87.64399999976052 -216.5119999999983 191.163
488 131.4659999996115 -216.8189999999973 191.163
489 175.2879999997262 -217.1259999999981 191.163
490 219.1099999998575 -217.432999999999 191.163
491 267.9614000000004 -171.4896000000898 191.163
492 267.7988000000008 -128.6172000002136 191.163
493 267.6362000000008 -85.74480000022027 191.163
494 267.4736000000004 -42.87240000010993 191.163
495 292.1316000000001 46.67579999990096 194.364
496 292.0762000000003 93.35159999976875 194.364
497 292.0208000000003 140.0273999997529 194.364
498 291.9654000000002 186.703199999882 194.364
499 238.7775000000925 237.285 194.364
500 191.0220000002239 237.285 194.364
501 143.2665000003719 237.285 194.364
502 95.51100000025352 237.285 194.364
503 47.75550000012953 237.285 194.364
504 -47.75549999989517 237.285 194.364
505 -95.51099999975405 237.285 194.364
506 -143.2664999996143 237.285 194.364
507 -191.0219999997373 237.285 194.364
508 -238.7774999998659 237.285 194.364
509 -291.9653999999999 186.7032000001155 194.364
510 -292.0207999999997 140.0274000002421 194.364
511 -292.0761999999997 93.35160000024214 194.364
512 -292.1315999999999 46.67580000011552 194.364
513 -292.1316000000001 -46.67579999990096 194.364
514 -292.0762000000003 -93.35159999976875 194.364
515 -292.0208000000003 -140.0273999997529 194.364
516 -291.9654000000002 -186.703199999882 194.364
517 -238.7775000000925 -237.285 194.364
518 -191.0220000002239 -237.285 194.364
519 -143.2665000003719 -237.285 194.364
520 -95.51100000025352 -237.285 194.364
521 -47.75550000012953 -237.285 194.364
522 47.75549999989517 -237.285 194.364
523 95.51099999975405 -237.285 194.364
524 143.2664999996143 -237.285 194.364
525 191.0219999997373 -237.285 194.364
526 238.7774999998659 -237.285 194.364
527 291.9653999999999 -186.7032000001155 194.364
528 292.0207999999997 -140.0274000002421 194.364
529 292.0761999999997 -93.35160000024214 194.364
530 292.1315999999999 -46.67580000011552 194.364
531 11.47857569966111 4.036915739133703 2.448916176429712
532 4.940878804233029 10.4516075980926 2.453636188218648
533 -4.979691631500222 10.53804927228077 2.449192452091909
534 -11.41453133427029 4.015619851547181 2.453010018456615
535 -11.47857569966111 -4.036915739133703 2.448916176429712
536 -4.940878804233029 -10.4516075980926 2.453636188218648
537 4.979691631500222 -10.53804927228077 2.449192452091909
538 11.41453133427029 -4.015619851547182 2.453010018456615
539 12.60443154501085 4.503421516087168 9.265655807727416
540 5.388393357612419 10.97277923945345 9.346254118501051
541 -5.545937761797629 11.43044515198066 9.267778425300605
542 -12.29044701658042 4.425784771503152 9.333735430378168
543 -12.60443154501085 -4.503421516087168 9.265655807727416
544 -5.388393357612419 -10.97277923945345 9.346254118501051
545 5.545937761797629 -11.43044515198066 9.267778425300605
546 12.29044701658042 -4.425784771503151 9.333735430378168
547 16.05524354422869 5.467976555134761 20.63615055911146
548 6.991056728007047 13.14536996154064 20.54678529567882
549 -7.143539824977478 13.92416010547158 20.3234041672727
550 -15.61293684327438 5.461121484382698 20.81837206520974
551 -16.05524354422869 -5.467976555134761 20.63615055911146
552 -6.991056728007047 -13.14536996154064 20.54678529567882
553 7.143539824977478 -13.92416010547158 20.3234041672727
554 15.61293684327438 -5.461121484382698 20.81837206520974
555 22.93407197338936 7.478353708737925 37.06213197014272
556 9.96591646469351 18.41895416486479 37.11211926145584
557 -10.01392007119406 19.09417910414745 36.85164539475535
558 -22.58983254883911 7.477277380915019 37.23483879775826
559 -22.93407197338936 -7.478353708737925 37.06213197014272
560 -9.96591646469351 -18.41895416486479 37.11211926145584
561 10.01392007119406 -19.09417910414745 36.85164539475535
562 22.58983254883911 -7.477277380915019 37.23483879775826
563 34.22430888777581 11.60857761593298 59.2805754482437
564 15.82626830332614 27.3240397688354 59.19277197664734
565 -15.84952235381653 27.67332603174584 59.03613705294114
566 -34.06674892402892 11.60283252091417 59.36997680696155
567 -34.22430888777581 -11.60857761593298 59.2805754482437
568 -15.82626830332614 -27.3240397688354 59.19277197664734
569 15.84952235381653 -27.67332603174584 59.03613705294114
570 34.06674892402892 -11.60283252091417 59.36997680696155
571 50.72658908468213 19.87196982685699 86.22694794165302
572 15.81453464139671 41.34200446777279 86.36975983268003
573 -15.81981296739579 41.42926265888239 86.32047831194672
574 -50.69745109900175 19.87053215580988 86.24706735401394
575 -50.72658908468213 -19.87196982685699 86.22694794165302
576 -15.81453464139671 -41.34200446777279 86.36975983268003
577 15.81981296739579 -41.42926265888239 86.32047831194672
578 50.69745109900175 -19.87053215580988 86.24706735401394
579 76.05121638944352 18.97783075117966 115.5140896416068
580 15.98218398650007 61.86242005836859 115.746110892629
581 -15.98995836818878 62.05318767759565 115.5826860053412
582 -75.95259234972316 18.97382409748622 115.616239588376
583 -76.05121638944352 -18.97783075117966 115.5140896416068
584 -15.98218398650007 -61.86242005836859 115.746110892629
585 15.98995836818878 -62.05318767759565 115.5826860053412
586 75.95259234972316 -18.97382409748622 115.616239588376
587 110.7321143410268 52.53741477142638 141.8073916963898
588 111.478145473337 24.55295666360034 141.8805026557358
589 64.7816327251052 87.9425109196912 141.4577922600503
590 -64.78305419191793 88.30906127202798 140.9542704610015
591 -110.5682504472311 52.53377761117211 142.0901648607429
592 -111.3165330210881 24.54936947684526 142.1623053629542
593 -110.7321143410268 -52.53741477142638 141.8073916963898
594 -111.478145473337 -24.55295666360034 141.8805026557358
595 -64.7816327251052 -87.9425109196912 141.4577922600503
596 64.78305419191793 -88.30906127202798 140.9542704610015
597 110.5682504472311 -52.53377761117211 142.0901648607429
598 111.3165330210881 -24.54936947684527 142.1623053629542
599 151.1421865568977 90.72421825578483 160.9677113297931
600 157.7782397414842 25.37129662853213 163.2808858003686
601 155.8914587262933 60.86477326943914 162.6566428949992
602 110.2745866438222 127.8517682732384 164.0459324571953
603 21.56732027466505 126.9777194130226 163.5279239336959
604 -110.2753587840442 128.0651001994498 163.5891287703
605 -21.56578407257416 127.192240704986 163.0359479761123
606 -151.0178816630569 90.72378298465998 161.3076292782968
607 -157.6815475196433 25.37083949316854 163.5508345125635
608 -155.786950398119 60.86426090713149 162.9453441750683
609 -151.1421865568977 -90.72421825578485 160.9677113297931
610 -157.7782397414842 -25.37129662853213 163.2808858003686
611 -155.8914587262933 -60.86477326943914 162.6566428949992
612 -110.2745866438222 -127.8517682732384 164.0459324571953
613 -21.56732027466504 -126.9777194130225 163.5279239336959
614 110.2753587840442 -128.0651001994498 163.5891287703
615 21.56578407257416 -127.192240704986 163.0359479761123
616 151.0178816630569 -90.72378298465998 161.3076292782968
617 157.6815475196433 -25.37083949316854 163.5508345125635
618 155.786950398119 -60.86426090713149 162.9453441750683
619 203.0402937523916 122.3734129715643 177.3833231704012
620 205.3184867671697 22.99373146896798 178.0438564423864
621 155.7814795921391 165.8180862993947 178.0936660408073
622 22.2549571442579 165.5360040957595 178.2866622856516
623 66.27348311324056 165.2059127964769 178.0947804587606
624 110.4094080857511 164.9313701934651 177.919493460765
625 -155.7808995914299 165.9023839601082 177.8271932495952
626 -22.25441422731349 165.6149119943012 178.0280276070851
627 -66.27208542800035 165.2879919908291 177.8276587974922
628 -110.4079847554022 165.0167876407239 177.6447575363948
629 -202.9994047985666 122.3737528095128 177.5447041926783
630 -205.2824376916065 22.99384727693112 178.1893639826149
631 -203.0402937523916 -122.3734129715643 177.3833231704012
632 -205.3184867671697 -22.99373146896798 178.0438564423864
633 -155.7814795921391 -165.8180862993947 178.0936660408073
634 -22.2549571442579 -165.5360040957595 178.2866622856516
635 -66.27348311324057 -165.2059127964769 178.0947804587606
636 -110.4094080857511 -164.9313701934651 177.919493460765
637 155.7808995914299 -165.9023839601082 177.8271932495952
638 22.25441422731349 -165.6149119943012 178.0280276070851
639 66.27208542800035 -165.2879919908291 177.8276587974922
640 110.4079847554022 -165.0167876407239 177.6447575363948
641 202.9994047985666 -122.3737528095128 177.5447041926783
642 205.2824376916065 -22.99384727693112 178.1893639826149
643 248.1036830065777 22.17722416364581 187.5898094990609
644 248.2590490197331 66.53167249092188 187.5874284971828
645 199.5822004777563 201.4804818177864 187.5913019153284
646 22.17580429898758 200.248336360071 187.5937172379556
647 66.52740334379496 200.5563727245007 187.5931134072988
648 110.8790023885668 200.86440908893 187.592509576642
649 155.230601433205 201.1724454533585 187.5919057459852
650 -199.5821956936666 201.4811646785536 187.5882805808515
651 -22.17579952148318 200.2490182976168 187.5906978423168
652 -66.52739856443114 200.5570548928503 187.5900935269505
653 -110.8789976073929 200.8650914880839 187.5894892115842
654 -155.2305966504808 201.1731280833185 187.5888848962178
655 -248.101927152624 22.17723082309398 187.5993121023037
656 -248.2572908233033 66.53167915948723 187.5969372159312
657 -248.1036830065777 -22.17722416364581 187.5898094990609
658 -248.2590490197331 -66.53167249092186 187.5874284971828
659 -199.5822004777563 -201.4804818177864 187.5913019153284
660 -22.17580429898758 -200.248336360071 187.5937172379556
661 -66.52740334379496 -200.5563727245007 187.5931134072988
662 -110.8790023885668 -200.86440908893 187.592509576642
663 -155.230601433205 -201.1724454533585 187.5919057459852
664 199.5821956936667 -201.4811646785536 187.5882805808515
665 22.17579952148318 -200.2490182976168 187.5906978423168
666 66.52739856443114 -200.5570548928503 187.5900935269505
667 110.878997607393 -200.8650914880839 187.5894892115842
668 155.2305966504808 -201.1731280833185 187.5888848962178
669 248.101927152624 -22.17723082309399 187.5993121023037
670 248.2572908233033 -66.53167915948723 187.5969372159312
671 279.7749306656338 22.38704896812968 192.7702558768168
672 22.89437500006711 226.690303405964 192.6288440113835
673 -22.89437499994855 226.6665683770107 192.7747355110493
674 -279.784328560535 22.38706012269494 192.7000658097148
675 -279.7749306656338 -22.38704896812968 192.7702558768168
676 -22.89437500006711 -226.690303405964 192.6288440113835
677 22.89437499994855 -226.6665683770107 192.7747355110493
678 279.784328560535 -22.38706012269494 192.7000658097148
$EndNodes
$Elements
2402
1 15 2 0 1 1
2 15 2 0 2 2
3 15 2 0 3 3
4 15 2 0 4 4
5 15 2 0 5 5
6 15 2 0 6 6
7 15 2 0 7 7
8 15 2 0 8 8
9 15 2 0 9 9
10 15 2 0 10 10
11 15 2 0 11 11
12 15 2 0 12 12
13 15 2 0 13 13
14 15 2 0 14 14
15 15 2 0 15 15
16 15 2 0 16 16
17 15 2 0 17 17
18 15 2 0 18 18
19 15 2 0 19 19
20 15 2 0 20 20
21 15 2 0 21 21
22 15 2 0 22 22
23 15 2 0 23 23
24 15 2 0 24 24
25 15 2 0 25 25
26 15 2 0 26 26
27 15 2 0 27 27
28 15 2 0 28 28
29 15 2 0 29 29
30 15 2 0 30 30
31 15 2 0 31 31
32 15 2 0 32 32
33 15 2 0 33 33
34 15 2 0 34 34
35 15 2 0 35 35
36 15 2 0 36 36
37 15 2 0 37 37
38 15 2 0 38 38
39 15 2 0 39 39
40 15 2 0 40 40
41 15 2 0 41 41
42 15 2 0 42 42
43 15 2 0 43 43
44 15 2 0 44 44
45 15 2 0 45 45
46 15 2 0 46 46
47 15 2 0 47 47
48 15 2 0 48 48
49 15 2 0 49 49
50 15 2 0 50 50
51 15 2 0 51 51
52 15 2 0 52 52
53 15 2 0 53 53
54 15 2 0 54 54
55 15 2 0 55 55
56 15 2 0 56 56
57 15 2 0 57 57
58 15 2 0 58 58
59 15 2 0 59 59
60 15 2 0 60 60
61 15 2 0 61 61
62 15 2 0 62 62
63 15 2 0 63 63
64 15 2 0 64 64
65 15 2 0 65 65
66 15 2 0 66 66
67 15 2 0 67 67
68 15 2 0 68 68
69 15 2 0 69 69
70 15 2 0 70 70
71 15 2 0 71 71
72 15 2 0 72 72
73 15 2 0 73 73
74 15 2 0 74 74
75 15 2 0 75 75
76 15 2 0 76 76
77 15 2 0 77 77
78 15 2 0 78 78
79 15 2 0 79 79
80 15 2 0 80 80
81 15 2 0 81 81
82 15 2 0 82 82
83 15 2 0 83 83
84 15 2 0 84 84
85 15 2 0 85 85
86 15 2 0 86 86
87 15 2 0 87 87
88 15 2 0 88 88
89 15 2 0 89 89
90 15 2 0 90 90
91 15 2 0 91 91
92 15 2 0 92 92
93 15 2 0 93 93
94 15 2 0 94 94
95 15 2 0 95 95
96 15 2 0 96 96
97 15 2 0 97 97
98 15 2 0 98 98
99 15 2 0 99 99
100 15 2 0 100 100
101 15 2 0 101 101
102 15 2 0 102 102
103 15 2 0 103 103
104 15 2 0 104 104
105 15 2 0 105 105
106 15 2 0 106 106
107 15 2 0 107 107
108 15 2 0 108 108
109 15 2 0 109 109
110 15 2 0 110 110
111 15 2 0 111 111
112 15 2 0 112 112
113 15 2 0 113 113
114 15 2 0 114 114
115 15 2 0 115 115
116 15 2 0 116 116
117 15 2 0 117 117
118 15 2 0 118 118
119 15 2 0 119 119
120 15 2 0 120 120
121 15 2 0 121 121
122 15 2 0 122 122
123 15 2 0 123 123
124 15 2 0 124 124
125 15 2 0 125 125
126 15 2 0 126 126
127 15 2 0 127 127
128 15 2 0 128 128
129 15 2 0 129 129
130 15 2 0 130 130
131 15 2 0 131 131
132 15 2 0 132 132
133 15 2 0 133 133
134 15 2 0 134 134
135 15 2 0 135 135
136 15 2 0 136 136
137 15 2 0 137 137
138 15 2 0 138 138
139 15 2 0 139 139
140 15 2 0 140 140
141 15 2 0 141 141
142 15 2 0 142 142
143 15 2 0 143 143
144 15 2 0 144 144
145 15 2 0 145 145
146 15 2 0 146 146
147 15 2 0 147 147
148 15 2 0 148 148
149 15 2 0 149 149
150 15 2 0 150 150
151 15 2 0 151 151
152 15 2 0 152 152
153 15 2 0 153 153
154 15 2 0 154 154
155 15 2 0 155 155
156 15 2 0 156 156
157 15 2 0 157 157
158 15 2 0 158 158
159 15 2 0 159 159
160 15 2 0 160 160
161 15 2 0 161 161
162 15 2 0 162 162
163 15 2 0 163 163
164 15 2 0 164 164
165 15 2 0 165 165
166 15 2 0 166 166
167 15 2 0 167 167
168 15 2 0 168 168
169 15 2 0 169 169
170 15 2 0 170 170
171 15 2 0 171 171
172 15 2 0 172 172
173 15 2 0 173 173
174 15 2 0 174 174
175 15 2 0 175 175
176 15 2 0 176 176
177 15 2 0 177 177
178 15 2 0 178 178
179 15 2 0 179 179
180 15 2 0 180 180
181 15 2 0 181 181
182 15 2 0 182 182
183 15 2 0 183 183
184 15 2 0 184 184
185 15 2 0 185 185
186 15 2 0 186 186
187 15 2 0 187 187
188 15 2 0 188 188
189 15 2 0 189 189
190 15 2 0 190 190
191 15 2 0 191 191
192 15 2 0 192 192
193 15 2 0 193 193
194 15 2 0 194 194
195 15 2 0 195 195
196 15 2 0 196 196
197 15 2 0 197 197
198 15 2 0 198 198
199 15 2 0 199 199
200 15 2 0 200 200
201 15 2 0 201 201
202 15 2 0 202 202
203 15 2 0 203 203
204 15 2 0 204 204
205 15 2 0 205 205
206 15 2 0 206 206
207 15 2 0 207 207
208 15 2 0 208 208
209 15 2 0 209 209
210 15 2 0 210 210
211 15 2 0 211 211
212 15 2 0 212 212
213 15 2 0 213 213
214 15 2 0 214 214
215 15 2 0 215 215
216 15 2 0 216 216
217 15 2 0 217 217
218 15 2 0 218 218
219 15 2 0 219 219
220 15 2 0 220 220
221 15 2 0 221 221
222 15 2 0 222 222
223 15 2 0 223 223
224 15 2 0 224 224
225 15 2 0 225 225
226 15 2 0 226 226
227 15 2 0 227 227
228 15 2 0 228 228
229 15 2 0 229 229
230 15 2 0 230 230
231 15 2 0 231 231
232 15 2 0 232 232
233 15 2 0 233 233
234 15 2 0 234 234
235 15 2 0 235 235
236 15 2 0 236 236
237 15 2 0 237 237
238 15 2 0 238 238
239 15 2 0 239 239
240 15 2 0 240 240
241 15 2 0 241 241
242 15 2 0 242 242
243 15 2 0 243 243
244 15 2 0 244 244
245 15 2 0 245 245
246 15 2 0 246 246
247 15 2 0 247 247
248 15 2 0 248 248
249 15 2 0 249 249
250 15 2 0 250 250
251 15 2 0 251 251
252 15 2 0 252 252
253 15 2 0 253 253
254 15 2 0 254 254
255 15 2 0 255 255
256 15 2 0 256 256
257 15 2 0 257 257
258 15 2 0 258 258
259 15 2 0 259 259
260 15 2 0 260 260
261 15 2 0 261 261
262 15 2 0 262 262
263 15 2 0 263 263
264 15 2 0 264 264
265 15 2 0 265 265
266 15 2 0 266 266
267 15 2 0 267 267
268 15 2 0 268 268
269 15 2 0 269 269
270 15 2 0 270 270
271 15 2 0 271 271
272 15 2 0 272 272
273 15 2 0 273 273
274 15 2 0 274 274
275 15 2 0 275 275
276 15 2 0 276 276
277 15 2 0 277 277
278 15 2 0 278 278
279 15 2 0 279 279
280 15 2 0 280 280
281 15 2 0 281 281
282 15 2 0 282 282
283 15 2 0 283 283
284 15 2 0 284 284
285 15 2 0 285 285
286 15 2 0 286 286
287 15 2 0 287 287
288 15 2 0 288 288
289 15 2 0 289 289
290 15 2 0 290 290
291 15 2 0 291 291
292 15 2 0 292 292
293 15 2 0 293 293
294 15 2 0 294 294
295 15 2 0 295 295
296 15 2 0 296 296
297 15 2 0 297 297
298 15 2 0 298 298
299 15 2 0 299 299
300 15 2 0 300 300
301 15 2 0 301 301
302 15 2 0 302 302
303 15 2 0 303 303
304 15 2 0 304 304
305 15 2 0 305 305
306 15 2 0 306 306
307 15 2 0 307 307
308 15 2 0 308 308
309 15 2 0 309 309
310 15 2 0 310 310
311 15 2 0 311 311
312 15 2 0 312 312
313 1 2 0 1 1 25
314 1 2 0 2 1 2
315 1 2 0 3 2 26
316 1 2 0 4 2 3
317 1 2 0 5 3 27
318 1 2 0 6 3 4
319 1 2 0 7 4 28
320 1 2 0 8 4 5
321 1 2 0 9 5 29
322 1 2 0 10 5 6
323 1 2 0 11 6 30
324 1 2 0 12 6 7
325 1 2 0 13 7 31
326 1 2 0 14 7 8
327 1 2 0 15 8 32
328 1 2 0 16 8 9
329 1 2 0 17 9 33
330 1 2 0 18 9 10
331 1 2 0 19 10 34
332 1 2 0 20 10 11
333 1 2 0 21 11 35
334 1 2 0 22 11 12
335 1 2 0 23 12 36
336 1 2 0 24 12 13
337 1 2 0 25 13 37
338 1 2 0 26 13 14
339 1 2 0 27 14 38
340 1 2 0 28 14 15
341 1 2 0 29 15 39
342 1 2 0 30 15 16
343 1 2 0 31 16 40
344 1 2 0 32 16 17
345 1 2 0 33 17 41
346 1 2 0 34 17 18
347 1 2 0 35 18 42
348 1 2 0 36 18 19
349 1 2 0 37 19 43
350 1 2 0 38 19 20
351 1 2 0 39 20 44
352 1 2 0 40 20 21
353 1 2 0 41 21 45
354 1 2 0 42 21 22
355 1 2 0 43 22 46
356 1 2 0 44 22 23
357 1 2 0 45 23 47
358 1 2 0 46 23 24
359 1 2 0 47 24 48
360 1 2 0 48 24 1
361 1 2 0 49 25 49
362 1 2 0 50 25 26
363 1 2 0 51 26 50
364 1 2 0 52 26 27
365 1 2 0 53 27 51
366 1 2 0 54 27 28
367 1 2 0 55 28 52
368 1 2 0 56 28 29
369 1 2 0 57 29 53
370 1 2 0 58 29 30
371 1 2 0 59 30 54
372 1 2 0 60 30 31
373 1 2 0 61 31 55
374 1 2 0 62 31 32
375 1 2 0 63 32 56
376 1 2 0 64 32 33
377 1 2 0 65 33 57
378 1 2 0 66 33 34
379 1 2 0 67 34 58
380 1 2 0 68 34 35
381 1 2 0 69 35 59
382 1 2 0 70 35 36
383 1 2 0 71 36 60
384 1 2 0 72 36 37
385 1 2 0 73 37 61
386 1 2 0 74 37 38
387 1 2 0 75 38 62
388 1 2 0 76 38 39
389 1 2 0 77 39 63
390 1 2 0 78 39 40
391 1 2 0 79 40 64
392 1 2 0 80 40 41
393 1 2 0 81 41 65
394 1 2 0 82 41 42
395 1 2 0 83 42 66
396 1 2 0 84 42 43
397 1 2 0 85 43 67
398 1 2 0 86 43 44
399 1 2 0 87 44 68
400 1 2 0 88 44 45
401 1 2 0 89 45 69
402 1 2 0 90 45 46
403 1 2 0 91 46 70
404 1 2 0 92 46 47
405 1 2 0 93 47 71
406 1 2 0 94 47 48
407 1 2 0 95 48 72
408 1 2 0 96 48 25
409 1 2 0 97 49 73
410 1 2 0 98 49 50
411 1 2 0 99 50 74
412 1 2 0 100 50 51
413 1 2 0 101 51 75
414 1 2 0 102 51 52
415 1 2 0 103 52 76
416 1 2 0 104 52 53
417 1 2 0 105 53 77
418 1 2 0 106 53 54
419 1 2 0 107 54 78
420 1 2 0 108 54 55
421 1 2 0 109 55 79
422 1 2 0 110 55 56
423 1 2 0 111 56 80
424 1 2 0 112 56 57
425 1 2 0 113 57 81
426 1 2 0 114 57 58
427 1 2 0 115 58 82
428 1 2 0 116 58 59
429 1 2 0 117 59 83
430 1 2 0 118 59 60
431 1 2 0 119 60 84
432 1 2 0 120 60 61
433 1 2 0 121 61 85
434 1 2 0 122 61 62
435 1 2 0 123 62 86
436 1 2 0 124 62 63
437 1 2 0 125 63 87
438 1 2 0 126 63 64
439 1 2 0 127 64 88
440 1 2 0 128 64 65
441 1 2 0 129 65 89
442 1 2 0 130 65 66
443 1 2 0 131 66 90
444 1 2 0 132 66 67
445 1 2 0 133 67 91
446 1 2 0 134 67 68
447 1 2 0 135 68 92
448 1 2 0 136 68 69
449 1 2 0 137 69 93
450 1 2 0 138 69 70
451 1 2 0 139 70 94
452 1 2 0 140 70 71
453 1 2 0 141 71 95
454 1 2 0 142 71 72
455 1 2 0 143 72 96
456 1 2 0 144 72 49
457 1 2 0 145 73 97
458 1 2 0 146 73 74
459 1 2 0 147 74 98
460 1 2 0 148 74 75
461 1 2 0 149 75 99
462 1 2 0 150 75 76
463 1 2 0 151 76 100
464 1 2 0 152 76 77
465 1 2 0 153 77 101
466 1 2 0 154 77 78
467 1 2 0 155 78 102
468 1 2 0 156 78 79
469 1 2 0 157 79 103
470 1 2 0 158 79 80
471 1 2 0 159 80 104
472 1 2 0 160 80 81
473 1 2 0 161 81 105
474 1 2 0 162 81 82
475 1 2 0 163 82 106
476 1 2 0 164 82 83
477 1 2 0 165 83 107
478 1 2 0 166 83 84
479 1 2 0 167 84 108
480 1 2 0 168 84 85
481 1 2 0 169 85 109
482 1 2 0 170 85 86
483 1 2 0 171 86 110
484 1 2 0 172 86 87
485 1 2 0 173 87 111
486 1 2 0 174 87 88
487 1 2 0 175 88 112
488 1 2 0 176 88 89
489 1 2 0 177 89 113
490 1 2 0 178 89 90
491 1 2 0 179 90 114
492 1 2 0 180 90 91
493 1 2 0 181 91 115
494 1 2 0 182 91 92
495 1 2 0 183 92 116
496 1 2 0 184 92 93
497 1 2 0 185 93 117
498 1 2 0 186 93 94
499 1 2 0 187 94 118
500 1 2 0 188 94 95
501 1 2 0 189 95 119
502 1 2 0 190 95 96
503 1 2 0 191 96 120
504 1 2 0 192 96 73
505 1 2 0 193 97 121
506 1 2 0 194 97 98
507 1 2 0 195 98 122
508 1 2 0 196 98 99
509 1 2 0 197 99 123
510 1 2 0 198 99 100
511 1 2 0 199 100 124
512 1 2 0 200 100 101
513 1 2 0 201 101 125
514 1 2 0 202 101 102
515 1 2 0 203 102 126
516 1 2 0 204 102 103
517 1 2 0 205 103 127
518 1 2 0 206 103 104
519 1 2 0 207 104 128
520 1 2 0 208 104 105
521 1 2 0 209 105 129
522 1 2 0 210 105 106
523 1 2 0 211 106 130
524 1 2 0 212 106 107
525 1 2 0 213 107 131
526 1 2 0 214 107 108
527 1 2 0 215 108 132
528 1 2 0 216 108 109
529 1 2 0 217 109 133
530 1 2 0 218 109 110
531 1 2 0 219 110 134
532 1 2 0 220 110 111
533 1 2 0 221 111 135
534 1 2 0 222 111 112
535 1 2 0 223 112 136
536 1 2 0 224 112 113
537 1 2 0 225 113 137
538 1 2 0 226 113 114
539 1 2 0 227 114 138
540 1 2 0 228 114 115
541 1 2 0 229 115 139
542 1 2 0 230 115 116
543 1 2 0 231 116 140
544 1 2 0 232 116 117
545 1 2 0 233 117 141
546 1 2 0 234 117 118
547 1 2 0 235 118 142
548 1 2 0 236 118 119
549 1 2 0 237 119 143
550 1 2 0 238 119 120
551 1 2 0 239 120 144
552 1 2 0 240 120 97
553 1 2 0 241 121 145
554 1 2 0 242 121 122
555 1 2 0 243 122 146
556 1 2 0 244 122 123
557 1 2 0 245 123 147
558 1 2 0 246 123 124
559 1 2 0 247 124 148
560 1 2 0 248 124 125
561 1 2 0 249 125 149
562 1 2 0 250 125 126
563 1 2 0 251 126 150
564 1 2 0 252 126 127
565 1 2 0 253 127 151
566 1 2 0 254 127 128
567 1 2 0 255 128 152
568 1 2 0 256 128 129
569 1 2 0 257 129 153
570 1 2 0 258 129 130
571 1 2 0 259 130 154
572 1 2 0 260 130 131
573 1 2 0 261 131 155
574 1 2 0 262 131 132
575 1 2 0 263 132 156
576 1 2 0 264 132 133
577 1 2 0 265 133 157
578 1 2 0 266 133 134
579 1 2 0 267 134 158
580 1 2 0 268 134 135
581 1 2 0 269 135 159
582 1 2 0 270 135 136
583 1 2 0 271 136 160
584 1 2 0 272 136 137
585 1 2 0 273 137 161
586 1 2 0 274 137 138
587 1 2 0 275 138 162
588 1 2 0 276 138 139
589 1 2 0 277 139 163
590 1 2 0 278 139 140
591 1 2 0 279 140 164
592 1 2 0 280 140 141
593 1 2 0 281 141 165
594 1 2 0 282 141 142
595 1 2 0 283 142 166
596 1 2 0 284 142 143
597 1 2 0 285 143 167
598 1 2 0 286 143 144
599 1 2 0 287 144 168
600 1 2 0 288 144 121
601 1 2 0 289 145 169
602 1 2 0 290 145 146
603 1 2 0 291 146 170
604 1 2 0 292 146 147
605 1 2 0 293 147 171
606 1 2 0 294 147 148
607 1 2 0 295 148 172
608 1 2 0 296 148 149
609 1 2 0 297 149 173
610 1 2 0 298 149 150
611 1 2 0 299 150 174
612 1 2 0 300 150 313
613 1 2 0 300 313 151
614 1 2 0 301 151 175
615 1 2 0 302 151 314
616 1 2 0 302 314 152
617 1 2 0 303 152 176
618 1 2 0 304 152 153
619 1 2 0 305 153 177
620 1 2 0 306 153 154
621 1 2 0 307 154 178
622 1 2 0 308 154 155
623 1 2 0 309 155 179
624 1 2 0 310 155 156
625 1 2 0 311 156 180
626 1 2 0 312 156 157
627 1 2 0 313 157 181
628 1 2 0 314 157 158
629 1 2 0 315 158 182
630 1 2 0 316 158 159
631 1 2 0 317 159 183
632 1 2 0 318 159 160
633 1 2 0 319 160 184
634 1 2 0 320 160 161
635 1 2 0 321 161 185
636 1 2 0 322 161 162
637 1 2 0 323 162 186
638 1 2 0 324 162 315
639 1 2 0 324 315 163
640 1 2 0 325 163 187
641 1 2 0 326 163 316
642 1 2 0 326 316 164
643 1 2 0 327 164 188
644 1 2 0 328 164 165
645 1 2 0 329 165 189
646 1 2 0 330 165 166
647 1 2 0 331 166 190
648 1 2 0 332 166 167
649 1 2 0 333 167 191
650 1 2 0 334 167 168
651 1 2 0 335 168 192
652 1 2 0 336 168 145
653 1 2 0 337 169 193
654 1 2 0 338 169 317
655 1 2 0 338 317 170
656 1 2 0 339 170 318
657 1 2 0 339 318 194
658 1 2 0 340 170 171
659 1 2 0 341 171 319
660 1 2 0 341 319 195
661 1 2 0 342 171 172
662 1 2 0 343 172 320
663 1 2 0 343 320 196
664 1 2 0 344 172 173
665 1 2 0 345 173 321
666 1 2 0 345 321 197
667 1 2 0 346 173 174
668 1 2 0 347 174 322
669 1 2 0 347 322 198
670 1 2 0 348 174 323
671 1 2 0 348 323 175
672 1 2 0 349 175 199
673 1 2 0 350 175 324
674 1 2 0 350 324 176
675 1 2 0 351 176 325
676 1 2 0 351 325 200
677 1 2 0 352 176 177
678 1 2 0 353 177 326
679 1 2 0 353 326 201
680 1 2 0 354 177 178
681 1 2 0 355 178 327
682 1 2 0 355 327 202
683 1 2 0 356 178 179
684 1 2 0 357 179 328
685 1 2 0 357 328 203
686 1 2 0 358 179 180
687 1 2 0 359 180 329
688 1 2 0 359 329 204
689 1 2 0 360 180 330
690 1 2 0 360 330 181
691 1 2 0 361 181 205
692 1 2 0 362 181 331
693 1 2 0 362 331 182
694 1 2 0 363 182 332
695 1 2 0 363 332 206
696 1 2 0 364 182 183
697 1 2 0 365 183 333
698 1 2 0 365 333 207
699 1 2 0 366 183 184
700 1 2 0 367 184 334
701 1 2 0 367 334 208
702 1 2 0 368 184 185
703 1 2 0 369 185 335
704 1 2 0 369 335 209
705 1 2 0 370 185 186
706 1 2 0 371 186 336
707 1 2 0 371 336 210
708 1 2 0 372 186 337
709 1 2 0 372 337 187
710 1 2 0 373 187 211
711 1 2 0 374 187 338
712 1 2 0 374 338 188
713 1 2 0 375 188 339
714 1 2 0 375 339 212
715 1 2 0 376 188 189
716 1 2 0 377 189 340
717 1 2 0 377 340 213
718 1 2 0 378 189 190
719 1 2 0 379 190 341
720 1 2 0 379 341 214
721 1 2 0 380 190 191
722 1 2 0 381 191 342
723 1 2 0 381 342 215
724 1 2 0 382 191 192
725 1 2 0 383 192 343
726 1 2 0 383 343 216
727 1 2 0 384 192 344
728 1 2 0 384 344 169
729 1 2 0 385 193 345
730 1 2 0 385 345 217
731 1 2 0 386 193 346
732 1 2 0 386 346 347
733 1 2 0 386 347 194
734 1 2 0 387 194 348
735 1 2 0 387 348 218
736 1 2 0 388 194 195
737 1 2 0 389 195 349
738 1 2 0 389 349 219
739 1 2 0 390 195 196
740 1 2 0 391 196 350
741 1 2 0 391 350 220
742 1 2 0 392 196 197
743 1 2 0 393 197 351
744 1 2 0 393 351 221
745 1 2 0 394 197 198
746 1 2 0 395 198 352
747 1 2 0 395 352 222
748 1 2 0 396 198 353
749 1 2 0 396 353 354
750 1 2 0 396 354 199
751 1 2 0 397 199 223
752 1 2 0 398 199 355
753 1 2 0 398 355 356
754 1 2 0 398 356 200
755 1 2 0 399 200 357
756 1 2 0 399 357 224
757 1 2 0 400 200 201
758 1 2 0 401 201 358
759 1 2 0 401 358 225
760 1 2 0 402 201 202
761 1 2 0 403 202 359
762 1 2 0 403 359 226
763 1 2 0 404 202 203
764 1 2 0 405 203 360
765 1 2 0 405 360 227
766 1 2 0 406 203 204
767 1 2 0 407 204 361
768 1 2 0 407 361 228
769 1 2 0 408 204 362
770 1 2 0 408 362 363
771 1 2 0 408 363 205
772 1 2 0 409 205 364
773 1 2 0 409 364 229
774 1 2 0 410 205 365
775 1 2 0 410 365 366
776 1 2 0 410 366 206
777 1 2 0 411 206 367
778 1 2 0 411 367 230
779 1 2 0 412 206 207
780 1 2 0 413 207 368
781 1 2 0 413 368 231
782 1 2 0 414 207 208
783 1 2 0 415 208 369
784 1 2 0 415 369 232
785 1 2 0 416 208 209
786 1 2 0 417 209 370
787 1 2 0 417 370 233
788 1 2 0 418 209 210
789 1 2 0 419 210 371
790 1 2 0 419 371 234
791 1 2 0 420 210 372
792 1 2 0 420 372 373
793 1 2 0 420 373 211
794 1 2 0 421 211 235
795 1 2 0 422 211 374
796 1 2 0 422 374 375
797 1 2 0 422 375 212
798 1 2 0 423 212 376
799 1 2 0 423 376 236
800 1 2 0 424 212 213
801 1 2 0 425 213 377
802 1 2 0 425 377 237
803 1 2 0 426 213 214
804 1 2 0 427 214 378
805 1 2 0 427 378 238
806 1 2 0 428 214 215
807 1 2 0 429 215 379
808 1 2 0 429 379 239
809 1 2 0 430 215 216
810 1 2 0 431 216 380
811 1 2 0 431 380 240
812 1 2 0 432 216 381
813 1 2 0 432 381 382
814 1 2 0 432 382 193
815 1 2 0 433 217 241
816 1 2 0 434 217 383
817 1 2 0 434 383 384
818 1 2 0 434 384 218
819 1 2 0 435 218 385
820 1 2 0 435 385 242
821 1 2 0 436 218 219
822 1 2 0 437 219 386
823 1 2 0 437 386 243
824 1 2 0 438 219 220
825 1 2 0 439 220 387
826 1 2 0 439 387 244
827 1 2 0 440 220 221
828 1 2 0 441 221 388
829 1 2 0 441 388 245
830 1 2 0 442 221 222
831 1 2 0 443 222 389
832 1 2 0 443 389 246
833 1 2 0 444 222 390
834 1 2 0 444 390 391
835 1 2 0 444 391 392
836 1 2 0 444 392 223
837 1 2 0 445 223 247
838 1 2 0 446 223 393
839 1 2 0 446 393 394
840 1 2 0 446 394 395
841 1 2 0 446 395 224
842 1 2 0 447 224 396
843 1 2 0 447 396 248
844 1 2 0 448 224 225
845 1 2 0 449 225 397
846 1 2 0 449 397 249
847 1 2 0 450 225 226
848 1 2 0 451 226 398
849 1 2 0 451 398 250
850 1 2 0 452 226 227
851 1 2 0 453 227 399
852 1 2 0 453 399 251
853 1 2 0 454 227 228
854 1 2 0 455 228 400
855 1 2 0 455 400 252
856 1 2 0 456 228 401
857 1 2 0 456 401 402
858 1 2 0 456 402 229
859 1 2 0 457 229 253
860 1 2 0 458 229 403
861 1 2 0 458 403 404
862 1 2 0 458 404 230
863 1 2 0 459 230 405
864 1 2 0 459 405 254
865 1 2 0 460 230 231
866 1 2 0 461 231 406
867 1 2 0 461 406 255
868 1 2 0 462 231 232
869 1 2 0 463 232 407
870 1 2 0 463 407 256
871 1 2 0 464 232 233
872 1 2 0 465 233 408
873 1 2 0 465 408 257
874 1 2 0 466 233 234
875 1 2 0 467 234 409
876 1 2 0 467 409 258
877 1 2 0 468 234 410
878 1 2 0 468 410 411
879 1 2 0 468 411 412
880 1 2 0 468 412 235
881 1 2 0 469 235 259
882 1 2 0 470 235 413
883 1 2 0 470 413 414
884 1 2 0 470 414 415
885 1 2 0 470 415 236
886 1 2 0 471 236 416
887 1 2 0 471 416 260
888 1 2 0 472 236 237
889 1 2 0 473 237 417
890 1 2 0 473 417 261
891 1 2 0 474 237 238
892 1 2 0 475 238 418
893 1 2 0 475 418 262
894 1 2 0 476 238 239
895 1 2 0 477 239 419
896 1 2 0 477 419 263
897 1 2 0 478 239 240
898 1 2 0 479 240 420
899 1 2 0 479 420 264
900 1 2 0 480 240 421
901 1 2 0 480 421 422
902 1 2 0 480 422 217
903 1 2 0 481 241 265
904 1 2 0 482 241 423
905 1 2 0 482 423 424
906 1 2 0 482 424 425
907 1 2 0 482 425 242
908 1 2 0 483 242 266
909 1 2 0 484 242 243
910 1 2 0 485 243 267
911 1 2 0 486 243 244
912 1 2 0 487 244 268
913 1 2 0 488 244 245
914 1 2 0 489 245 426
915 1 2 0 489 426 269
916 1 2 0 490 245 246
917 1 2 0 491 246 427
918 1 2 0 491 427 270
919 1 2 0 492 246 428
920 1 2 0 492 428 429
921 1 2 0 492 429 430
922 1 2 0 492 430 431
923 1 2 0 492 431 247
924 1 2 0 493 247 271
925 1 2 0 494 247 432
926 1 2 0 494 432 433
927 1 2 0 494 433 434
928 1 2 0 494 434 435
929 1 2 0 494 435 248
930 1 2 0 495 248 436
931 1 2 0 495 436 272
932 1 2 0 496 248 249
933 1 2 0 497 249 437
934 1 2 0 497 437 273
935 1 2 0 498 249 250
936 1 2 0 499 250 274
937 1 2 0 500 250 251
938 1 2 0 501 251 275
939 1 2 0 502 251 252
940 1 2 0 503 252 276
941 1 2 0 504 252 438
942 1 2 0 504 438 439
943 1 2 0 504 439 440
944 1 2 0 504 440 253
945 1 2 0 505 253 277
946 1 2 0 506 253 441
947 1 2 0 506 441 442
948 1 2 0 506 442 443
949 1 2 0 506 443 254
950 1 2 0 507 254 278
951 1 2 0 508 254 255
952 1 2 0 509 255 279
953 1 2 0 510 255 256
954 1 2 0 511 256 280
955 1 2 0 512 256 257
956 1 2 0 513 257 444
957 1 2 0 513 444 281
958 1 2 0 514 257 258
959 1 2 0 515 258 445
960 1 2 0 515 445 282
961 1 2 0 516 258 446
962 1 2 0 516 446 447
963 1 2 0 516 447 448
964 1 2 0 516 448 449
965 1 2 0 516 449 259
966 1 2 0 517 259 283
967 1 2 0 518 259 450
968 1 2 0 518 450 451
969 1 2 0 518 451 452
970 1 2 0 518 452 453
971 1 2 0 518 453 260
972 1 2 0 519 260 454
973 1 2 0 519 454 284
974 1 2 0 520 260 261
975 1 2 0 521 261 455
976 1 2 0 521 455 285
977 1 2 0 522 261 262
978 1 2 0 523 262 286
979 1 2 0 524 262 263
980 1 2 0 525 263 287
981 1 2 0 526 263 264
982 1 2 0 527 264 288
983 1 2 0 528 264 456
984 1 2 0 528 456 457
985 1 2 0 528 457 458
986 1 2 0 528 458 241
987 1 2 0 529 265 289
988 1 2 0 530 265 459
989 1 2 0 530 459 460
990 1 2 0 530 460 461
991 1 2 0 530 461 462
992 1 2 0 530 462 266
993 1 2 0 531 266 290
994 1 2 0 532 266 267
995 1 2 0 533 267 291
996 1 2 0 534 267 268
997 1 2 0 535 268 292
998 1 2 0 536 268 269
999 1 2 0 537 269 293
1000 1 2 0 538 269 270
1001 1 2 0 539 270 294
1002 1 2 0 540 270 463
1003 1 2 0 540 463 464
1004 1 2 0 540 464 465
1005 1 2 0 540 465 466
1006 1 2 0 540 466 467
1007 1 2 0 540 467 271
1008 1 2 0 541 271 295
1009 1 2 0 542 271 468
1010 1 2 0 542 468 469
1011 1 2 0 542 469 470
1012 1 2 0 542 470 471
1013 1 2 0 542 471 472
1014 1 2 0 542 472 272
1015 1 2 0 543 272 296
1016 1 2 0 544 272 273
1017 1 2 0 545 273 297
1018 1 2 0 546 273 274
1019 1 2 0 547 274 298
1020 1 2 0 548 274 275
1021 1 2 0 549 275 299
1022 1 2 0 550 275 276
1023 1 2 0 551 276 300
1024 1 2 0 552 276 473
1025 1 2 0 552 473 474
1026 1 2 0 552 474 475
1027 1 2 0 552 475 476
1028 1 2 0 552 476 277
1029 1 2 0 553 277 301
1030 1 2 0 554 277 477
1031 1 2 0 554 477 478
1032 1 2 0 554 478 479
1033 1 2 0 554 479 480
1034 1 2 0 554 480 278
1035 1 2 0 555 278 302
1036 1 2 0 556 278 279
1037 1 2 0 557 279 303
1038 1 2 0 558 279 280
1039 1 2 0 559 280 304
1040 1 2 0 560 280 281
1041 1 2 0 561 281 305
1042 1 2 0 562 281 282
1043 1 2 0 563 282 306
1044 1 2 0 564 282 481
1045 1 2 0 564 481 482
1046 1 2 0 564 482 483
1047 1 2 0 564 483 484
1048 1 2 0 564 484 485
1049 1 2 0 564 485 283
1050 1 2 0 565 283 307
1051 1 2 0 566 283 486
1052 1 2 0 566 486 487
1053 1 2 0 566 487 488
1054 1 2 0 566 488 489
1055 1 2 0 566 489 490
1056 1 2 0 566 490 284
1057 1 2 0 567 284 308
1058 1 2 0 568 284 285
1059 1 2 0 569 285 309
1060 1 2 0 570 285 286
1061 1 2 0 571 286 310
1062 1 2 0 572 286 287
1063 1 2 0 573 287 311
1064 1 2 0 574 287 288
1065 1 2 0 575 288 312
1066 1 2 0 576 288 491
1067 1 2 0 576 491 492
1068 1 2 0 576 492 493
1069 1 2 0 576 493 494
1070 1 2 0 576 494 265
1071 1 2 0 578 289 495
1072 1 2 0 578 495 496
1073 1 2 0 578 496 497
1074 1 2 0 578 497 498
1075 1 2 0 578 498 290
1076 1 2 0 580 290 291
1077 1 2 0 582 291 292
1078 1 2 0 584 292 293
1079 1 2 0 586 293 294
1080 1 2 0 588 294 499
1081 1 2 0 588 499 500
1082 1 2 0 588 500 501
1083 1 2 0 588 501 502
1084 1 2 0 588 502 503
1085 1 2 0 588 503 295
1086 1 2 0 590 295 504
1087 1 2 0 590 504 505
1088 1 2 0 590 505 506
1089 1 2 0 590 506 507
1090 1 2 0 590 507 508
1091 1 2 0 590 508 296
1092 1 2 0 592 296 297
1093 1 2 0 594 297 298
1094 1 2 0 596 298 299
1095 1 2 0 598 299 300
1096 1 2 0 600 300 509
1097 1 2 0 600 509 510
1098 1 2 0 600 510 511
1099 1 2 0 600 511 512
1100 1 2 0 600 512 301
1101 1 2 0 602 301 513
1102 1 2 0 602 513 514
1103 1 2 0 602 514 515
1104 1 2 0 602 515 516
1105 1 2 0 602 516 302
1106 1 2 0 604 302 303
1107 1 2 0 606 303 304
1108 1 2 0 608 304 305
1109 1 2 0 610 305 306
1110 1 2 0 612 306 517
1111 1 2 0 612 517 518
1112 1 2 0 612 518 519
1113 1 2 0 612 519 520
1114 1 2 0 612 520 521
1115 1 2 0 612 521 307
1116 1 2 0 614 307 522
1117 1 2 0 614 522 523
1118 1 2 0 614 523 524
1119 1 2 0 614 524 525
1120 1 2 0 614 525 526
1121 1 2 0 614 526 308
1122 1 2 0 616 308 309
1123 1 2 0 618 309 310
1124 1 2 0 620 310 311
1125 1 2 0 622 311 312
1126 1 2 0 624 312 527
1127 1 2 0 624 527 528
1128 1 2 0 624 528 529
1129 1 2 0 624 529 530
1130 1 2 0 624 530 289
1131 2 2 0 38 26 2 531
1132 2 2 0 38 1 25 531
1133 2 2 0 38 2 1 531
1134 2 2 0 38 25 26 531
1135 2 2 0 39 27 3 2
1136 2 2 0 39 26 27 2
1137 2 2 0 40 28 4 3
1138 2 2 0 40 27 28 3
1139 2 2 0 41 29 5 4
1140 2 2 0 41 28 29 4
1141 2 2 0 42 30 5 29
1142 2 2 0 42 6 5 30
1143 2 2 0 43 6 30 532
1144 2 2 0 43 31 7 532
1145 2 2 0 43 7 6 532
1146 2 2 0 43 30 31 532
1147 2 2 0 44 32 8 533
1148 2 2 0 44 7 31 533
1149 2 2 0 44 8 7 533
1150 2 2 0 44 31 32 533
1151 2 2 0 45 33 9 32
1152 2 2 0 45 32 9 8
1153 2 2 0 46 33 10 9
1154 2 2 0 46 34 10 33
1155 2 2 0 47 34 11 10
1156 2 2 0 47 35 11 34
1157 2 2 0 48 35 12 11
1158 2 2 0 48 36 12 35
1159 2 2 0 49 12 36 534
1160 2 2 0 49 37 13 534
1161 2 2 0 49 13 12 534
1162 2 2 0 49 36 37 534
1163 2 2 0 50 38 14 535
1164 2 2 0 50 13 37 535
1165 2 2 0 50 14 13 535
1166 2 2 0 50 37 38 535
1167 2 2 0 51 39 15 14
1168 2 2 0 51 38 39 14
1169 2 2 0 52 40 16 15
1170 2 2 0 52 39 40 15
1171 2 2 0 53 41 17 16
1172 2 2 0 53 40 41 16
1173 2 2 0 54 41 42 17
1174 2 2 0 54 42 18 17
1175 2 2 0 55 18 42 536
1176 2 2 0 55 43 19 536
1177 2 2 0 55 19 18 536
1178 2 2 0 55 42 43 536
1179 2 2 0 56 44 20 537
1180 2 2 0 56 19 43 537
1181 2 2 0 56 20 19 537
1182 2 2 0 56 43 44 537
1183 2 2 0 57 21 44 45
1184 2 2 0 57 21 20 44
1185 2 2 0 58 45 22 21
1186 2 2 0 58 46 22 45
1187 2 2 0 59 46 23 22
1188 2 2 0 59 47 23 46
1189 2 2 0 60 47 24 23
1190 2 2 0 60 48 24 47
1191 2 2 0 61 24 48 538
1192 2 2 0 61 25 1 538
1193 2 2 0 61 1 24 538
1194 2 2 0 61 48 25 538
1195 2 2 0 62 49 50 539
1196 2 2 0 62 50 26 539
1197 2 2 0 62 25 49 539
1198 2 2 0 62 26 25 539
1199 2 2 0 63 51 27 26
1200 2 2 0 63 50 51 26
1201 2 2 0 64 52 28 27
1202 2 2 0 64 51 52 27
1203 2 2 0 65 53 29 28
1204 2 2 0 65 52 53 28
1205 2 2 0 66 54 30 29
1206 2 2 0 66 53 54 29
1207 2 2 0 67 31 30 540
1208 2 2 0 67 30 54 540
1209 2 2 0 67 55 31 540
1210 2 2 0 67 54 55 540
1211 2 2 0 68 32 31 541
1212 2 2 0 68 56 32 541
1213 2 2 0 68 31 55 541
1214 2 2 0 68 55 56 541
1215 2 2 0 69 56 33 32
1216 2 2 0 69 57 33 56
1217 2 2 0 70 57 34 33
1218 2 2 0 70 58 34 57
1219 2 2 0 71 58 35 34
1220 2 2 0 71 59 35 58
1221 2 2 0 72 59 36 35
1222 2 2 0 72 60 36 59
1223 2 2 0 73 60 61 542
1224 2 2 0 73 36 60 542
1225 2 2 0 73 61 37 542
1226 2 2 0 73 37 36 542
1227 2 2 0 74 61 62 543
1228 2 2 0 74 62 38 543
1229 2 2 0 74 37 61 543
1230 2 2 0 74 38 37 543
1231 2 2 0 75 63 39 38
1232 2 2 0 75 62 63 38
1233 2 2 0 76 64 40 39
1234 2 2 0 76 63 64 39
1235 2 2 0 77 65 41 40
1236 2 2 0 77 64 65 40
1237 2 2 0 78 66 42 41
1238 2 2 0 78 65 66 41
1239 2 2 0 79 43 42 544
1240 2 2 0 79 42 66 544
1241 2 2 0 79 67 43 544
1242 2 2 0 79 66 67 544
1243 2 2 0 80 44 43 545
1244 2 2 0 80 68 44 545
1245 2 2 0 80 43 67 545
1246 2 2 0 80 67 68 545
1247 2 2 0 81 68 45 44
1248 2 2 0 81 69 45 68
1249 2 2 0 82 69 46 45
1250 2 2 0 82 70 46 69
1251 2 2 0 83 70 47 46
1252 2 2 0 83 71 47 70
1253 2 2 0 84 71 48 47
1254 2 2 0 84 72 48 71
1255 2 2 0 85 72 49 546
1256 2 2 0 85 48 72 546
1257 2 2 0 85 49 25 546
1258 2 2 0 85 25 48 546
1259 2 2 0 86 74 50 547
1260 2 2 0 86 49 73 547
1261 2 2 0 86 73 74 547
1262 2 2 0 86 50 49 547
1263 2 2 0 87 75 51 50
1264 2 2 0 87 74 75 50
1265 2 2 0 88 51 76 52
1266 2 2 0 88 75 76 51
1267 2 2 0 89 52 77 53
1268 2 2 0 89 76 77 52
1269 2 2 0 90 53 78 54
1270 2 2 0 90 77 78 53
1271 2 2 0 91 78 79 548
1272 2 2 0 91 54 78 548
1273 2 2 0 91 79 55 548
1274 2 2 0 91 55 54 548
1275 2 2 0 92 79 80 549
1276 2 2 0 92 80 56 549
1277 2 2 0 92 55 79 549
1278 2 2 0 92 56 55 549
1279 2 2 0 93 80 57 56
1280 2 2 0 93 80 81 57
1281 2 2 0 94 81 58 57
1282 2 2 0 94 81 82 58
1283 2 2 0 95 82 59 58
1284 2 2 0 95 82 83 59
1285 2 2 0 96 83 60 59
1286 2 2 0 96 83 84 60
1287 2 2 0 97 60 84 550
1288 2 2 0 97 85 61 550
1289 2 2 0 97 84 85 550
1290 2 2 0 97 61 60 550
1291 2 2 0 98 86 62 551
1292 2 2 0 98 61 85 551
1293 2 2 0 98 85 86 551
1294 2 2 0 98 62 61 551
1295 2 2 0 99 87 63 62
1296 2 2 0 99 86 87 62
1297 2 2 0 100 63 88 64
1298 2 2 0 100 87 88 63
1299 2 2 0 101 64 89 65
1300 2 2 0 101 88 89 64
1301 2 2 0 102 65 90 66
1302 2 2 0 102 89 90 65
1303 2 2 0 103 90 91 552
1304 2 2 0 103 66 90 552
1305 2 2 0 103 91 67 552
1306 2 2 0 103 67 66 552
1307 2 2 0 104 91 92 553
1308 2 2 0 104 92 68 553
1309 2 2 0 104 67 91 553
1310 2 2 0 104 68 67 553
1311 2 2 0 105 92 69 68
1312 2 2 0 105 92 93 69
1313 2 2 0 106 93 70 69
1314 2 2 0 106 93 94 70
1315 2 2 0 107 94 71 70
1316 2 2 0 107 94 95 71
1317 2 2 0 108 95 72 71
1318 2 2 0 108 95 96 72
1319 2 2 0 109 72 96 554
1320 2 2 0 109 73 49 554
1321 2 2 0 109 96 73 554
1322 2 2 0 109 49 72 554
1323 2 2 0 110 98 74 555
1324 2 2 0 110 73 97 555
1325 2 2 0 110 97 98 555
1326 2 2 0 110 74 73 555
1327 2 2 0 111 74 99 75
1328 2 2 0 111 98 99 74
1329 2 2 0 112 75 100 76
1330 2 2 0 112 99 100 75
1331 2 2 0 113 76 101 77
1332 2 2 0 113 100 101 76
1333 2 2 0 114 77 102 78
1334 2 2 0 114 101 102 77
1335 2 2 0 115 102 103 556
1336 2 2 0 115 78 102 556
1337 2 2 0 115 103 79 556
1338 2 2 0 115 79 78 556
1339 2 2 0 116 103 104 557
1340 2 2 0 116 104 80 557
1341 2 2 0 116 79 103 557
1342 2 2 0 116 80 79 557
1343 2 2 0 117 104 81 80
1344 2 2 0 117 104 105 81
1345 2 2 0 118 105 82 81
1346 2 2 0 118 105 106 82
1347 2 2 0 119 106 83 82
1348 2 2 0 119 106 107 83
1349 2 2 0 120 107 84 83
1350 2 2 0 120 107 108 84
1351 2 2 0 121 84 108 558
1352 2 2 0 121 109 85 558
1353 2 2 0 121 108 109 558
1354 2 2 0 121 85 84 558
1355 2 2 0 122 110 86 559
1356 2 2 0 122 85 109 559
1357 2 2 0 122 109 110 559
1358 2 2 0 122 86 85 559
1359 2 2 0 123 86 111 87
1360 2 2 0 123 110 111 86
1361 2 2 0 124 87 112 88
1362 2 2 0 124 111 112 87
1363 2 2 0 125 88 113 89
1364 2 2 0 125 112 113 88
1365 2 2 0 126 89 114 90
1366 2 2 0 126 113 114 89
1367 2 2 0 127 114 115 560
1368 2 2 0 127 90 114 560
1369 2 2 0 127 115 91 560
1370 2 2 0 127 91 90 560
1371 2 2 0 128 115 116 561
1372 2 2 0 128 116 92 561
1373 2 2 0 128 91 115 561
1374 2 2 0 128 92 91 561
1375 2 2 0 129 116 93 92
1376 2 2 0 129 116 117 93
1377 2 2 0 130 117 94 93
1378 2 2 0 130 117 118 94
1379 2 2 0 131 118 95 94
1380 2 2 0 131 118 119 95
1381 2 2 0 132 119 96 95
1382 2 2 0 132 119 120 96
1383 2 2 0 133 96 120 562
1384 2 2 0 133 97 73 562
1385 2 2 0 133 120 97 562
1386 2 2 0 133 73 96 562
1387 2 2 0 134 122 98 563
1388 2 2 0 134 97 121 563
1389 2 2 0 134 121 122 563
1390 2 2 0 134 98 97 563
1391 2 2 0 135 98 123 99
1392 2 2 0 135 122 123 98
1393 2 2 0 136 99 124 100
1394 2 2 0 136 123 124 99
1395 2 2 0 137 100 125 101
1396 2 2 0 137 124 125 100
1397 2 2 0 138 101 126 102
1398 2 2 0 138 125 126 101
1399 2 2 0 139 102 126 564
1400 2 2 0 139 127 103 564
1401 2 2 0 139 103 102 564
1402 2 2 0 139 126 127 564
1403 2 2 0 140 128 104 565
1404 2 2 0 140 103 127 565
1405 2 2 0 140 104 103 565
1406 2 2 0 140 127 128 565
1407 2 2 0 141 128 105 104
1408 2 2 0 141 128 129 105
1409 2 2 0 142 129 106 105
1410 2 2 0 142 129 130 106
1411 2 2 0 143 130 107 106
1412 2 2 0 143 130 131 107
1413 2 2 0 144 131 108 107
1414 2 2 0 144 131 132 108
1415 2 2 0 145 108 132 566
1416 2 2 0 145 133 109 566
1417 2 2 0 145 132 133 566
1418 2 2 0 145 109 108 566
1419 2 2 0 146 134 110 567
1420 2 2 0 146 109 133 567
1421 2 2 0 146 133 134 567
1422 2 2 0 146 110 109 567
1423 2 2 0 147 110 135 111
1424 2 2 0 147 134 135 110
1425 2 2 0 148 111 136 112
1426 2 2 0 148 135 136 111
1427 2 2 0 149 112 137 113
1428 2 2 0 149 136 137 112
1429 2 2 0 150 113 138 114
1430 2 2 0 150 137 138 113
1431 2 2 0 151 114 138 568
1432 2 2 0 151 139 115 568
1433 2 2 0 151 115 114 568
1434 2 2 0 151 138 139 568
1435 2 2 0 152 140 116 569
1436 2 2 0 152 115 139 569
1437 2 2 0 152 116 115 569
1438 2 2 0 152 139 140 569
1439 2 2 0 153 140 117 116
1440 2 2 0 153 140 141 117
1441 2 2 0 154 141 118 117
1442 2 2 0 154 141 142 118
1443 2 2 0 155 142 119 118
1444 2 2 0 155 142 143 119
1445 2 2 0 156 143 120 119
1446 2 2 0 156 143 144 120
1447 2 2 0 157 120 144 570
1448 2 2 0 157 121 97 570
1449 2 2 0 157 144 121 570
1450 2 2 0 157 97 120 570
1451 2 2 0 158 145 146 571
1452 2 2 0 158 146 122 571
1453 2 2 0 158 121 145 571
1454 2 2 0 158 122 121 571
1455 2 2 0 159 122 147 123
1456 2 2 0 159 146 147 122
1457 2 2 0 160 123 148 124
1458 2 2 0 160 147 148 123
1459 2 2 0 161 124 149 125
1460 2 2 0 161 148 149 124
1461 2 2 0 162 125 150 126
1462 2 2 0 162 149 150 125
1463 2 2 0 163 150 313 126
1464 2 2 0 163 127 126 572
1465 2 2 0 163 126 313 572
1466 2 2 0 163 151 127 572
1467 2 2 0 163 313 151 572
1468 2 2 0 164 128 314 152
1469 2 2 0 164 128 127 573
1470 2 2 0 164 314 128 573
1471 2 2 0 164 127 151 573
1472 2 2 0 164 151 314 573
1473 2 2 0 165 152 129 128
1474 2 2 0 165 152 153 129
1475 2 2 0 166 153 130 129
1476 2 2 0 166 153 154 130
1477 2 2 0 167 154 131 130
1478 2 2 0 167 154 155 131
1479 2 2 0 168 155 132 131
1480 2 2 0 168 155 156 132
1481 2 2 0 169 156 157 574
1482 2 2 0 169 132 156 574
1483 2 2 0 169 157 133 574
1484 2 2 0 169 133 132 574
1485 2 2 0 170 157 158 575
1486 2 2 0 170 158 134 575
1487 2 2 0 170 133 157 575
1488 2 2 0 170 134 133 575
1489 2 2 0 171 134 159 135
1490 2 2 0 171 158 159 134
1491 2 2 0 172 135 160 136
1492 2 2 0 172 159 160 135
1493 2 2 0 173 136 161 137
1494 2 2 0 173 160 161 136
1495 2 2 0 174 137 162 138
1496 2 2 0 174 161 162 137
1497 2 2 0 175 162 315 138
1498 2 2 0 175 139 138 576
1499 2 2 0 175 138 315 576
1500 2 2 0 175 163 139 576
1501 2 2 0 175 315 163 576
1502 2 2 0 176 140 316 164
1503 2 2 0 176 140 139 577
1504 2 2 0 176 316 140 577
1505 2 2 0 176 139 163 577
1506 2 2 0 176 163 316 577
1507 2 2 0 177 164 141 140
1508 2 2 0 177 164 165 141
1509 2 2 0 178 165 142 141
1510 2 2 0 178 165 166 142
1511 2 2 0 179 166 143 142
1512 2 2 0 179 166 167 143
1513 2 2 0 180 167 144 143
1514 2 2 0 180 167 168 144
1515 2 2 0 181 168 145 578
1516 2 2 0 181 144 168 578
1517 2 2 0 181 145 121 578
1518 2 2 0 181 121 144 578
1519 2 2 0 182 146 317 170
1520 2 2 0 182 146 145 579
1521 2 2 0 182 317 146 579
1522 2 2 0 182 145 169 579
1523 2 2 0 182 169 317 579
1524 2 2 0 183 146 171 147
1525 2 2 0 183 170 171 146
1526 2 2 0 184 147 172 148
1527 2 2 0 184 171 172 147
1528 2 2 0 185 148 173 149
1529 2 2 0 185 172 173 148
1530 2 2 0 186 149 174 150
1531 2 2 0 186 173 174 149
1532 2 2 0 187 174 323 150
1533 2 2 0 187 323 313 150
1534 2 2 0 187 313 323 580
1535 2 2 0 187 175 151 580
1536 2 2 0 187 323 175 580
1537 2 2 0 187 151 313 580
1538 2 2 0 188 152 324 176
1539 2 2 0 188 152 314 324
1540 2 2 0 188 324 314 581
1541 2 2 0 188 151 175 581
1542 2 2 0 188 175 324 581
1543 2 2 0 188 314 151 581
1544 2 2 0 189 176 153 152
1545 2 2 0 189 176 177 153
1546 2 2 0 190 177 154 153
1547 2 2 0 190 177 178 154
1548 2 2 0 191 178 155 154
1549 2 2 0 191 178 179 155
1550 2 2 0 192 179 156 155
1551 2 2 0 192 179 180 156
1552 2 2 0 193 180 330 156
1553 2 2 0 193 157 156 582
1554 2 2 0 193 156 330 582
1555 2 2 0 193 181 157 582
1556 2 2 0 193 330 181 582
1557 2 2 0 194 158 331 182
1558 2 2 0 194 158 157 583
1559 2 2 0 194 331 158 583
1560 2 2 0 194 157 181 583
1561 2 2 0 194 181 331 583
1562 2 2 0 195 158 183 159
1563 2 2 0 195 182 183 158
1564 2 2 0 196 159 184 160
1565 2 2 0 196 183 184 159
1566 2 2 0 197 160 185 161
1567 2 2 0 197 184 185 160
1568 2 2 0 198 161 186 162
1569 2 2 0 198 185 186 161
1570 2 2 0 199 186 337 162
1571 2 2 0 199 337 315 162
1572 2 2 0 199 315 337 584
1573 2 2 0 199 187 163 584
1574 2 2 0 199 337 187 584
1575 2 2 0 199 163 315 584
1576 2 2 0 200 164 338 188
1577 2 2 0 200 164 316 338
1578 2 2 0 200 338 316 585
1579 2 2 0 200 163 187 585
1580 2 2 0 200 187 338 585
1581 2 2 0 200 316 163 585
1582 2 2 0 201 188 165 164
1583 2 2 0 201 188 189 165
1584 2 2 0 202 189 166 165
1585 2 2 0 202 189 190 166
1586 2 2 0 203 190 167 166
1587 2 2 0 203 190 191 167
1588 2 2 0 204 191 168 167
1589 2 2 0 204 191 192 168
1590 2 2 0 205 192 344 168
1591 2 2 0 205 145 168 586
1592 2 2 0 205 168 344 586
1593 2 2 0 205 169 145 586
1594 2 2 0 205 344 169 586
1595 2 2 0 206 318 347 194
1596 2 2 0 206 318 170 587
1597 2 2 0 206 347 318 587
1598 2 2 0 206 346 347 587
1599 2 2 0 206 170 317 587
1600 2 2 0 206 346 587 588
1601 2 2 0 206 587 317 588
1602 2 2 0 206 317 169 588
1603 2 2 0 206 193 346 588
1604 2 2 0 206 169 193 588
1605 2 2 0 207 319 171 170
1606 2 2 0 207 318 319 170
1607 2 2 0 207 195 318 194
1608 2 2 0 207 195 319 318
1609 2 2 0 208 320 172 171
1610 2 2 0 208 319 320 171
1611 2 2 0 208 196 319 195
1612 2 2 0 208 196 320 319
1613 2 2 0 209 172 321 173
1614 2 2 0 209 320 321 172
1615 2 2 0 209 197 320 196
1616 2 2 0 209 197 321 320
1617 2 2 0 210 173 322 174
1618 2 2 0 210 321 322 173
1619 2 2 0 210 197 198 321
1620 2 2 0 210 198 322 321
1621 2 2 0 211 199 175 354
1622 2 2 0 211 175 323 354
1623 2 2 0 211 174 322 589
1624 2 2 0 211 322 353 589
1625 2 2 0 211 323 174 589
1626 2 2 0 211 353 354 589
1627 2 2 0 211 354 323 589
1628 2 2 0 211 353 322 198
1629 2 2 0 212 199 355 175
1630 2 2 0 212 355 324 175
1631 2 2 0 212 325 176 590
1632 2 2 0 212 356 325 590
1633 2 2 0 212 176 324 590
1634 2 2 0 212 355 356 590
1635 2 2 0 212 324 355 590
1636 2 2 0 212 325 356 200
1637 2 2 0 213 325 177 176
1638 2 2 0 213 326 177 325
1639 2 2 0 213 200 201 326
1640 2 2 0 213 326 325 200
1641 2 2 0 214 326 178 177
1642 2 2 0 214 327 178 326
1643 2 2 0 214 202 327 201
1644 2 2 0 214 327 326 201
1645 2 2 0 215 327 179 178
1646 2 2 0 215 328 179 327
1647 2 2 0 215 203 328 202
1648 2 2 0 215 328 327 202
1649 2 2 0 216 328 180 179
1650 2 2 0 216 329 180 328
1651 2 2 0 216 204 329 203
1652 2 2 0 216 329 328 203
1653 2 2 0 217 329 204 362
1654 2 2 0 217 180 329 591
1655 2 2 0 217 329 362 591
1656 2 2 0 217 362 363 591
1657 2 2 0 217 330 180 591
1658 2 2 0 217 591 363 592
1659 2 2 0 217 330 591 592
1660 2 2 0 217 181 330 592
1661 2 2 0 217 363 205 592
1662 2 2 0 217 205 181 592
1663 2 2 0 218 332 366 206
1664 2 2 0 218 332 182 593
1665 2 2 0 218 366 332 593
1666 2 2 0 218 365 366 593
1667 2 2 0 218 182 331 593
1668 2 2 0 218 365 593 594
1669 2 2 0 218 593 331 594
1670 2 2 0 218 331 181 594
1671 2 2 0 218 205 365 594
1672 2 2 0 218 181 205 594
1673 2 2 0 219 333 183 182
1674 2 2 0 219 332 333 182
1675 2 2 0 219 207 332 206
1676 2 2 0 219 207 333 332
1677 2 2 0 220 334 184 183
1678 2 2 0 220 333 334 183
1679 2 2 0 220 208 333 207
1680 2 2 0 220 208 334 333
1681 2 2 0 221 184 335 185
1682 2 2 0 221 334 335 184
1683 2 2 0 221 209 334 208
1684 2 2 0 221 209 335 334
1685 2 2 0 222 185 336 186
1686 2 2 0 222 335 336 185
1687 2 2 0 222 209 210 335
1688 2 2 0 222 210 336 335
1689 2 2 0 223 187 373 211
1690 2 2 0 223 187 337 373
1691 2 2 0 223 186 336 595
1692 2 2 0 223 336 372 595
1693 2 2 0 223 337 186 595
1694 2 2 0 223 372 373 595
1695 2 2 0 223 373 337 595
1696 2 2 0 223 372 336 210
1697 2 2 0 224 211 374 187
1698 2 2 0 224 374 338 187
1699 2 2 0 224 339 188 596
1700 2 2 0 224 375 339 596
1701 2 2 0 224 188 338 596
1702 2 2 0 224 374 375 596
1703 2 2 0 224 338 374 596
1704 2 2 0 224 339 375 212
1705 2 2 0 225 339 189 188
1706 2 2 0 225 340 189 339
1707 2 2 0 225 212 213 340
1708 2 2 0 225 340 339 212
1709 2 2 0 226 340 190 189
1710 2 2 0 226 341 190 340
1711 2 2 0 226 214 341 213
1712 2 2 0 226 341 340 213
1713 2 2 0 227 341 191 190
1714 2 2 0 227 342 191 341
1715 2 2 0 227 215 342 214
1716 2 2 0 227 342 341 214
1717 2 2 0 228 342 192 191
1718 2 2 0 228 343 192 342
1719 2 2 0 228 216 343 215
1720 2 2 0 228 343 342 215
1721 2 2 0 229 381 343 216
1722 2 2 0 229 192 343 597
1723 2 2 0 229 343 381 597
1724 2 2 0 229 381 382 597
1725 2 2 0 229 344 192 597
1726 2 2 0 229 597 382 598
1727 2 2 0 229 344 597 598
1728 2 2 0 229 169 344 598
1729 2 2 0 229 382 193 598
1730 2 2 0 229 193 169 598
1731 2 2 0 230 193 345 600
1732 2 2 0 230 218 348 384
1733 2 2 0 230 217 383 600
1734 2 2 0 230 346 193 600
1735 2 2 0 230 345 217 600
1736 2 2 0 230 384 599 601
1737 2 2 0 230 383 384 601
1738 2 2 0 230 384 348 599
1739 2 2 0 230 348 194 599
1740 2 2 0 230 194 347 599
1741 2 2 0 230 347 346 601
1742 2 2 0 230 346 600 601
1743 2 2 0 230 599 347 601
1744 2 2 0 230 600 383 601
1745 2 2 0 231 349 195 194
1746 2 2 0 231 348 349 194
1747 2 2 0 231 219 348 218
1748 2 2 0 231 219 349 348
1749 2 2 0 232 350 196 195
1750 2 2 0 232 349 350 195
1751 2 2 0 232 220 349 219
1752 2 2 0 232 220 350 349
1753 2 2 0 233 351 197 196
1754 2 2 0 233 350 351 196
1755 2 2 0 233 221 350 220
1756 2 2 0 233 221 351 350
1757 2 2 0 234 197 352 198
1758 2 2 0 234 351 352 197
1759 2 2 0 234 221 222 351
1760 2 2 0 234 222 352 351
1761 2 2 0 235 353 392 354
1762 2 2 0 235 392 353 391
1763 2 2 0 235 352 390 602
1764 2 2 0 235 198 352 602
1765 2 2 0 235 390 391 602
1766 2 2 0 235 353 198 602
1767 2 2 0 235 391 353 602
1768 2 2 0 235 392 223 603
1769 2 2 0 235 354 392 603
1770 2 2 0 235 223 199 603
1771 2 2 0 235 199 354 603
1772 2 2 0 235 390 352 222
1773 2 2 0 236 393 356 355
1774 2 2 0 236 356 393 394
1775 2 2 0 236 395 357 604
1776 2 2 0 236 357 200 604
1777 2 2 0 236 394 395 604
1778 2 2 0 236 200 356 604
1779 2 2 0 236 356 394 604
1780 2 2 0 236 223 393 605
1781 2 2 0 236 393 355 605
1782 2 2 0 236 199 223 605
1783 2 2 0 236 355 199 605
1784 2 2 0 236 357 395 224
1785 2 2 0 237 357 201 200
1786 2 2 0 237 358 201 357
1787 2 2 0 237 224 225 358
1788 2 2 0 237 358 357 224
1789 2 2 0 238 358 202 201
1790 2 2 0 238 359 202 358
1791 2 2 0 238 226 359 225
1792 2 2 0 238 359 358 225
1793 2 2 0 239 359 203 202
1794 2 2 0 239 360 203 359
1795 2 2 0 239 227 360 226
1796 2 2 0 239 360 359 226
1797 2 2 0 240 360 204 203
1798 2 2 0 240 361 204 360
1799 2 2 0 240 228 361 227
1800 2 2 0 240 361 360 227
1801 2 2 0 241 364 205 607
1802 2 2 0 241 401 361 228
1803 2 2 0 241 402 229 607
1804 2 2 0 241 205 363 607
1805 2 2 0 241 229 364 607
1806 2 2 0 241 606 401 608
1807 2 2 0 241 401 402 608
1808 2 2 0 241 361 401 606
1809 2 2 0 241 204 361 606
1810 2 2 0 241 362 204 606
1811 2 2 0 241 363 362 608
1812 2 2 0 241 607 363 608
1813 2 2 0 241 362 606 608
1814 2 2 0 241 402 607 608
1815 2 2 0 242 205 364 610
1816 2 2 0 242 367 404 230
1817 2 2 0 242 229 403 610
1818 2 2 0 242 365 205 610
1819 2 2 0 242 364 229 610
1820 2 2 0 242 404 609 611
1821 2 2 0 242 403 404 611
1822 2 2 0 242 404 367 609
1823 2 2 0 242 367 206 609
1824 2 2 0 242 206 366 609
1825 2 2 0 242 366 365 611
1826 2 2 0 242 365 610 611
1827 2 2 0 242 609 366 611
1828 2 2 0 242 610 403 611
1829 2 2 0 243 368 207 206
1830 2 2 0 243 367 368 206
1831 2 2 0 243 231 367 230
1832 2 2 0 243 231 368 367
1833 2 2 0 244 369 208 207
1834 2 2 0 244 368 369 207
1835 2 2 0 244 232 368 231
1836 2 2 0 244 232 369 368
1837 2 2 0 245 370 209 208
1838 2 2 0 245 369 370 208
1839 2 2 0 245 233 369 232
1840 2 2 0 245 233 370 369
1841 2 2 0 246 209 371 210
1842 2 2 0 246 370 371 209
1843 2 2 0 246 233 234 370
1844 2 2 0 246 234 371 370
1845 2 2 0 247 412 373 372
1846 2 2 0 247 412 372 411
1847 2 2 0 247 371 410 612
1848 2 2 0 247 210 371 612
1849 2 2 0 247 410 411 612
1850 2 2 0 247 372 210 612
1851 2 2 0 247 411 372 612
1852 2 2 0 247 412 235 613
1853 2 2 0 247 373 412 613
1854 2 2 0 247 235 211 613
1855 2 2 0 247 211 373 613
1856 2 2 0 247 410 371 234
1857 2 2 0 248 375 374 413
1858 2 2 0 248 414 375 413
1859 2 2 0 248 415 376 614
1860 2 2 0 248 376 212 614
1861 2 2 0 248 414 415 614
1862 2 2 0 248 212 375 614
1863 2 2 0 248 375 414 614
1864 2 2 0 248 235 413 615
1865 2 2 0 248 413 374 615
1866 2 2 0 248 211 235 615
1867 2 2 0 248 374 211 615
1868 2 2 0 248 376 415 236
1869 2 2 0 249 376 213 212
1870 2 2 0 249 377 213 376
1871 2 2 0 249 236 237 377
1872 2 2 0 249 377 376 236
1873 2 2 0 250 377 214 213
1874 2 2 0 250 378 214 377
1875 2 2 0 250 238 378 237
1876 2 2 0 250 378 377 237
1877 2 2 0 251 378 215 214
1878 2 2 0 251 379 215 378
1879 2 2 0 251 239 379 238
1880 2 2 0 251 379 378 238
1881 2 2 0 252 379 216 215
1882 2 2 0 252 380 216 379
1883 2 2 0 252 240 380 239
1884 2 2 0 252 380 379 239
1885 2 2 0 253 345 193 617
1886 2 2 0 253 421 380 240
1887 2 2 0 253 422 217 617
1888 2 2 0 253 193 382 617
1889 2 2 0 253 217 345 617
1890 2 2 0 253 616 421 618
1891 2 2 0 253 421 422 618
1892 2 2 0 253 380 421 616
1893 2 2 0 253 216 380 616
1894 2 2 0 253 381 216 616
1895 2 2 0 253 382 381 618
1896 2 2 0 253 617 382 618
1897 2 2 0 253 381 616 618
1898 2 2 0 253 422 617 618
1899 2 2 0 254 424 383 423
1900 2 2 0 254 242 385 425
1901 2 2 0 254 383 424 384
1902 2 2 0 254 385 218 619
1903 2 2 0 254 425 385 619
1904 2 2 0 254 218 384 619
1905 2 2 0 254 424 425 619
1906 2 2 0 254 384 424 619
1907 2 2 0 254 423 383 620
1908 2 2 0 254 217 241 620
1909 2 2 0 254 383 217 620
1910 2 2 0 254 241 423 620
1911 2 2 0 255 386 219 218
1912 2 2 0 255 243 386 242
1913 2 2 0 255 385 386 218
1914 2 2 0 255 386 385 242
1915 2 2 0 256 387 220 219
1916 2 2 0 256 386 387 219
1917 2 2 0 256 244 386 243
1918 2 2 0 256 244 387 386
1919 2 2 0 257 388 221 220
1920 2 2 0 257 387 388 220
1921 2 2 0 257 245 387 244
1922 2 2 0 257 245 388 387
1923 2 2 0 258 221 389 222
1924 2 2 0 258 388 389 221
1925 2 2 0 258 246 388 245
1926 2 2 0 258 246 389 388
1927 2 2 0 259 389 428 222
1928 2 2 0 259 428 429 621
1929 2 2 0 259 222 428 621
1930 2 2 0 259 390 222 621
1931 2 2 0 259 431 247 622
1932 2 2 0 259 430 431 623
1933 2 2 0 259 223 392 622
1934 2 2 0 259 392 391 623
1935 2 2 0 259 429 430 624
1936 2 2 0 259 391 390 624
1937 2 2 0 259 429 390 621
1938 2 2 0 259 390 429 624
1939 2 2 0 259 391 430 623
1940 2 2 0 259 392 431 622
1941 2 2 0 259 247 223 622
1942 2 2 0 259 431 392 623
1943 2 2 0 259 430 391 624
1944 2 2 0 259 428 389 246
1945 2 2 0 260 435 396 224
1946 2 2 0 260 434 435 625
1947 2 2 0 260 435 224 625
1948 2 2 0 260 224 395 625
1949 2 2 0 260 247 432 626
1950 2 2 0 260 432 433 627
1951 2 2 0 260 393 223 626
1952 2 2 0 260 394 393 627
1953 2 2 0 260 433 434 628
1954 2 2 0 260 395 394 628
1955 2 2 0 260 395 434 625
1956 2 2 0 260 434 395 628
1957 2 2 0 260 433 394 627
1958 2 2 0 260 432 393 626
1959 2 2 0 260 223 247 626
1960 2 2 0 260 393 432 627
1961 2 2 0 260 394 433 628
1962 2 2 0 260 396 435 248
1963 2 2 0 261 396 225 224
1964 2 2 0 261 397 225 396
1965 2 2 0 261 249 397 248
1966 2 2 0 261 397 396 248
1967 2 2 0 262 397 226 225
1968 2 2 0 262 398 226 397
1969 2 2 0 262 250 398 249
1970 2 2 0 262 398 397 249
1971 2 2 0 263 398 227 226
1972 2 2 0 263 399 227 398
1973 2 2 0 263 251 399 250
1974 2 2 0 263 399 398 250
1975 2 2 0 264 399 228 227
1976 2 2 0 264 252 399 251
1977 2 2 0 264 400 228 399
1978 2 2 0 264 252 400 399
1979 2 2 0 265 440 402 439
1980 2 2 0 265 438 400 252
1981 2 2 0 265 402 401 439
1982 2 2 0 265 228 400 629
1983 2 2 0 265 400 438 629
1984 2 2 0 265 401 228 629
1985 2 2 0 265 438 439 629
1986 2 2 0 265 439 401 629
1987 2 2 0 265 402 440 630
1988 2 2 0 265 253 229 630
1989 2 2 0 265 229 402 630
1990 2 2 0 265 440 253 630
1991 2 2 0 266 442 403 441
1992 2 2 0 266 405 443 254
1993 2 2 0 266 404 403 442
1994 2 2 0 266 405 230 631
1995 2 2 0 266 443 405 631
1996 2 2 0 266 230 404 631
1997 2 2 0 266 442 443 631
1998 2 2 0 266 404 442 631
1999 2 2 0 266 441 403 632
2000 2 2 0 266 229 253 632
2001 2 2 0 266 403 229 632
2002 2 2 0 266 253 441 632
2003 2 2 0 267 406 231 230
2004 2 2 0 267 255 406 254
2005 2 2 0 267 405 406 230
2006 2 2 0 267 406 405 254
2007 2 2 0 268 407 232 231
2008 2 2 0 268 406 407 231
2009 2 2 0 268 256 406 255
2010 2 2 0 268 256 407 406
2011 2 2 0 269 408 233 232
2012 2 2 0 269 407 408 232
2013 2 2 0 269 257 407 256
2014 2 2 0 269 257 408 407
2015 2 2 0 270 233 409 234
2016 2 2 0 270 408 409 233
2017 2 2 0 270 258 408 257
2018 2 2 0 270 258 409 408
2019 2 2 0 271 409 446 234
2020 2 2 0 271 446 447 633
2021 2 2 0 271 234 446 633
2022 2 2 0 271 410 234 633
2023 2 2 0 271 449 259 634
2024 2 2 0 271 448 449 635
2025 2 2 0 271 235 412 634
2026 2 2 0 271 412 411 635
2027 2 2 0 271 447 448 636
2028 2 2 0 271 411 410 636
2029 2 2 0 271 447 410 633
2030 2 2 0 271 410 447 636
2031 2 2 0 271 411 448 635
2032 2 2 0 271 412 449 634
2033 2 2 0 271 259 235 634
2034 2 2 0 271 449 412 635
2035 2 2 0 271 448 411 636
2036 2 2 0 271 446 409 258
2037 2 2 0 272 236 453 416
2038 2 2 0 272 452 453 637
2039 2 2 0 272 453 236 637
2040 2 2 0 272 236 415 637
2041 2 2 0 272 259 450 638
2042 2 2 0 272 450 451 639
2043 2 2 0 272 413 235 638
2044 2 2 0 272 414 413 639
2045 2 2 0 272 451 452 640
2046 2 2 0 272 415 414 640
2047 2 2 0 272 415 452 637
2048 2 2 0 272 452 415 640
2049 2 2 0 272 451 414 639
2050 2 2 0 272 450 413 638
2051 2 2 0 272 235 259 638
2052 2 2 0 272 413 450 639
2053 2 2 0 272 414 451 640
2054 2 2 0 272 416 453 260
2055 2 2 0 273 416 237 236
2056 2 2 0 273 417 237 416
2057 2 2 0 273 261 417 260
2058 2 2 0 273 417 416 260
2059 2 2 0 274 417 238 237
2060 2 2 0 274 418 238 417
2061 2 2 0 274 262 418 261
2062 2 2 0 274 418 417 261
2063 2 2 0 275 418 239 238
2064 2 2 0 275 419 239 418
2065 2 2 0 275 263 419 262
2066 2 2 0 275 419 418 262
2067 2 2 0 276 419 240 239
2068 2 2 0 276 264 419 263
2069 2 2 0 276 420 240 419
2070 2 2 0 276 264 420 419
2071 2 2 0 277 457 458 422
2072 2 2 0 277 456 420 264
2073 2 2 0 277 421 457 422
2074 2 2 0 277 240 420 641
2075 2 2 0 277 420 456 641
2076 2 2 0 277 421 240 641
2077 2 2 0 277 456 457 641
2078 2 2 0 277 457 421 641
2079 2 2 0 277 422 458 642
2080 2 2 0 277 241 217 642
2081 2 2 0 277 217 422 642
2082 2 2 0 277 458 241 642
2083 2 2 0 278 425 424 461
2084 2 2 0 278 461 424 460
2085 2 2 0 278 242 425 462
2086 2 2 0 278 425 461 462
2087 2 2 0 278 266 242 462
2088 2 2 0 278 424 423 644
2089 2 2 0 278 423 241 643
2090 2 2 0 278 265 459 643
2091 2 2 0 278 459 460 644
2092 2 2 0 278 423 459 644
2093 2 2 0 278 241 265 643
2094 2 2 0 278 459 423 643
2095 2 2 0 278 460 424 644
2096 2 2 0 279 266 243 242
2097 2 2 0 279 267 243 266
2098 2 2 0 280 268 244 243
2099 2 2 0 280 267 268 243
2100 2 2 0 281 268 269 426
2101 2 2 0 281 426 245 244
2102 2 2 0 281 268 426 244
2103 2 2 0 282 427 246 245
2104 2 2 0 282 426 427 245
2105 2 2 0 282 270 426 269
2106 2 2 0 282 426 270 427
2107 2 2 0 283 467 271 646
2108 2 2 0 283 466 467 647
2109 2 2 0 283 465 466 648
2110 2 2 0 283 464 465 649
2111 2 2 0 283 246 427 463
2112 2 2 0 283 246 463 645
2113 2 2 0 283 464 428 645
2114 2 2 0 283 465 429 649
2115 2 2 0 283 466 430 648
2116 2 2 0 283 467 431 647
2117 2 2 0 283 271 247 646
2118 2 2 0 283 431 467 646
2119 2 2 0 283 430 466 647
2120 2 2 0 283 429 465 648
2121 2 2 0 283 428 464 649
2122 2 2 0 283 428 246 645
2123 2 2 0 283 247 431 646
2124 2 2 0 283 427 270 463
2125 2 2 0 283 429 428 649
2126 2 2 0 283 430 429 648
2127 2 2 0 283 431 430 647
2128 2 2 0 283 463 464 645
2129 2 2 0 284 271 468 651
2130 2 2 0 284 468 469 652
2131 2 2 0 284 469 470 653
2132 2 2 0 284 470 471 654
2133 2 2 0 284 248 472 436
2134 2 2 0 284 472 248 650
2135 2 2 0 284 435 471 650
2136 2 2 0 284 434 470 654
2137 2 2 0 284 433 469 653
2138 2 2 0 284 432 468 652
2139 2 2 0 284 247 271 651
2140 2 2 0 284 468 432 651
2141 2 2 0 284 469 433 652
2142 2 2 0 284 470 434 653
2143 2 2 0 284 471 435 654
2144 2 2 0 284 432 247 651
2145 2 2 0 284 248 435 650
2146 2 2 0 284 472 272 436
2147 2 2 0 284 433 432 652
2148 2 2 0 284 434 433 653
2149 2 2 0 284 435 434 654
2150 2 2 0 284 471 472 650
2151 2 2 0 285 436 249 248
2152 2 2 0 285 437 249 436
2153 2 2 0 285 273 437 272
2154 2 2 0 285 437 436 272
2155 2 2 0 286 274 437 273
2156 2 2 0 286 437 250 249
2157 2 2 0 286 437 274 250
2158 2 2 0 287 274 251 250
2159 2 2 0 287 275 251 274
2160 2 2 0 288 276 252 251
2161 2 2 0 288 275 276 251
2162 2 2 0 289 439 438 474
2163 2 2 0 289 475 439 474
2164 2 2 0 289 473 438 252
2165 2 2 0 289 474 438 473
2166 2 2 0 289 276 473 252
2167 2 2 0 289 440 439 656
2168 2 2 0 289 253 440 655
2169 2 2 0 289 476 277 655
2170 2 2 0 289 475 476 656
2171 2 2 0 289 476 440 656
2172 2 2 0 289 277 253 655
2173 2 2 0 289 440 476 655
2174 2 2 0 289 439 475 656
2175 2 2 0 290 443 442 479
2176 2 2 0 290 479 442 478
2177 2 2 0 290 254 443 480
2178 2 2 0 290 480 443 479
2179 2 2 0 290 254 480 278
2180 2 2 0 290 442 441 658
2181 2 2 0 290 441 253 657
2182 2 2 0 290 277 477 657
2183 2 2 0 290 477 478 658
2184 2 2 0 290 441 477 658
2185 2 2 0 290 253 277 657
2186 2 2 0 290 477 441 657
2187 2 2 0 290 478 442 658
2188 2 2 0 291 278 255 254
2189 2 2 0 291 279 255 278
2190 2 2 0 292 280 256 255
2191 2 2 0 292 279 280 255
2192 2 2 0 293 281 444 280
2193 2 2 0 293 444 257 256
2194 2 2 0 293 280 444 256
2195 2 2 0 294 445 258 257
2196 2 2 0 294 444 445 257
2197 2 2 0 294 282 444 281
2198 2 2 0 294 282 445 444
2199 2 2 0 295 485 283 660
2200 2 2 0 295 484 485 661
2201 2 2 0 295 483 484 662
2202 2 2 0 295 482 483 663
2203 2 2 0 295 258 445 481
2204 2 2 0 295 258 481 659
2205 2 2 0 295 482 446 659
2206 2 2 0 295 483 447 663
2207 2 2 0 295 484 448 662
2208 2 2 0 295 485 449 661
2209 2 2 0 295 283 259 660
2210 2 2 0 295 449 485 660
2211 2 2 0 295 448 484 661
2212 2 2 0 295 447 483 662
2213 2 2 0 295 446 482 663
2214 2 2 0 295 446 258 659
2215 2 2 0 295 259 449 660
2216 2 2 0 295 481 445 282
2217 2 2 0 295 447 446 663
2218 2 2 0 295 448 447 662
2219 2 2 0 295 449 448 661
2220 2 2 0 295 481 482 659
2221 2 2 0 296 283 486 665
2222 2 2 0 296 486 487 666
2223 2 2 0 296 487 488 667
2224 2 2 0 296 488 489 668
2225 2 2 0 296 490 454 260
2226 2 2 0 296 490 260 664
2227 2 2 0 296 453 489 664
2228 2 2 0 296 452 488 668
2229 2 2 0 296 451 487 667
2230 2 2 0 296 450 486 666
2231 2 2 0 296 259 283 665
2232 2 2 0 296 486 450 665
2233 2 2 0 296 487 451 666
2234 2 2 0 296 488 452 667
2235 2 2 0 296 489 453 668
2236 2 2 0 296 450 259 665
2237 2 2 0 296 260 453 664
2238 2 2 0 296 284 454 490
2239 2 2 0 296 451 450 666
2240 2 2 0 296 452 451 667
2241 2 2 0 296 453 452 668
2242 2 2 0 296 489 490 664
2243 2 2 0 297 454 261 260
2244 2 2 0 297 261 454 455
2245 2 2 0 297 284 285 455
2246 2 2 0 297 454 284 455
2247 2 2 0 298 286 455 285
2248 2 2 0 298 455 262 261
2249 2 2 0 298 455 286 262
2250 2 2 0 299 286 263 262
2251 2 2 0 299 287 263 286
2252 2 2 0 300 288 264 263
2253 2 2 0 300 287 288 263
2254 2 2 0 301 456 492 457
2255 2 2 0 301 492 493 457
2256 2 2 0 301 491 456 264
2257 2 2 0 301 492 456 491
2258 2 2 0 301 288 491 264
2259 2 2 0 301 458 457 670
2260 2 2 0 301 241 458 669
2261 2 2 0 301 494 265 669
2262 2 2 0 301 493 494 670
2263 2 2 0 301 494 458 670
2264 2 2 0 301 265 241 669
2265 2 2 0 301 458 494 669
2266 2 2 0 301 457 493 670
2267 2 2 0 302 495 459 671
2268 2 2 0 302 265 289 671
2269 2 2 0 302 459 265 671
2270 2 2 0 302 289 495 671
2271 2 2 0 302 266 498 290
2272 2 2 0 302 266 462 498
2273 2 2 0 302 459 495 460
2274 2 2 0 302 496 461 460
2275 2 2 0 302 495 496 460
2276 2 2 0 302 462 461 497
2277 2 2 0 302 461 496 497
2278 2 2 0 302 498 462 497
2279 2 2 0 303 290 267 266
2280 2 2 0 303 291 267 290
2281 2 2 0 304 292 268 267
2282 2 2 0 304 291 292 267
2283 2 2 0 305 268 293 269
2284 2 2 0 305 292 293 268
2285 2 2 0 306 269 294 270
2286 2 2 0 306 293 294 269
2287 2 2 0 307 467 503 672
2288 2 2 0 307 295 271 672
2289 2 2 0 307 270 294 499
2290 2 2 0 307 463 270 499
2291 2 2 0 307 271 467 672
2292 2 2 0 307 503 295 672
2293 2 2 0 307 464 463 500
2294 2 2 0 307 463 499 500
2295 2 2 0 307 464 500 501
2296 2 2 0 307 465 464 501
2297 2 2 0 307 465 502 466
2298 2 2 0 307 502 465 501
2299 2 2 0 307 503 467 466
2300 2 2 0 307 502 503 466
2301 2 2 0 308 504 468 673
2302 2 2 0 308 271 295 673
2303 2 2 0 308 468 271 673
2304 2 2 0 308 272 508 296
2305 2 2 0 308 272 472 508
2306 2 2 0 308 295 504 673
2307 2 2 0 308 507 472 471
2308 2 2 0 308 506 507 471
2309 2 2 0 308 472 507 508
2310 2 2 0 308 468 504 469
2311 2 2 0 308 469 505 470
2312 2 2 0 308 504 505 469
2313 2 2 0 308 470 506 471
2314 2 2 0 308 505 506 470
2315 2 2 0 309 296 273 272
2316 2 2 0 309 296 297 273
2317 2 2 0 310 297 274 273
2318 2 2 0 310 297 298 274
2319 2 2 0 311 298 275 274
2320 2 2 0 311 299 275 298
2321 2 2 0 312 300 276 275
2322 2 2 0 312 299 300 275
2323 2 2 0 313 476 512 674
2324 2 2 0 313 301 277 674
2325 2 2 0 313 277 476 674
2326 2 2 0 313 512 301 674
2327 2 2 0 313 300 509 276
2328 2 2 0 313 509 473 276
2329 2 2 0 313 474 473 510
2330 2 2 0 313 473 509 510
2331 2 2 0 313 475 474 511
2332 2 2 0 313 511 474 510
2333 2 2 0 313 476 475 512
2334 2 2 0 313 512 475 511
2335 2 2 0 314 513 477 675
2336 2 2 0 314 277 301 675
2337 2 2 0 314 477 277 675
2338 2 2 0 314 301 513 675
2339 2 2 0 314 278 516 302
2340 2 2 0 314 278 480 516
2341 2 2 0 314 478 477 513
2342 2 2 0 314 479 478 514
2343 2 2 0 314 514 478 513
2344 2 2 0 314 480 479 515
2345 2 2 0 314 515 479 514
2346 2 2 0 314 516 480 515
2347 2 2 0 315 302 279 278
2348 2 2 0 315 303 279 302
2349 2 2 0 316 304 280 279
2350 2 2 0 316 303 304 279
2351 2 2 0 317 280 305 281
2352 2 2 0 317 304 305 280
2353 2 2 0 318 281 306 282
2354 2 2 0 318 305 306 281
2355 2 2 0 319 485 521 676
2356 2 2 0 319 307 283 676
2357 2 2 0 319 282 306 517
2358 2 2 0 319 282 517 481
2359 2 2 0 319 283 485 676
2360 2 2 0 319 521 307 676
2361 2 2 0 319 481 518 482
2362 2 2 0 319 517 518 481
2363 2 2 0 319 518 519 482
2364 2 2 0 319 482 519 483
2365 2 2 0 319 483 520 484
2366 2 2 0 319 519 520 483
2367 2 2 0 319 521 485 484
2368 2 2 0 319 520 521 484
2369 2 2 0 320 522 486 677
2370 2 2 0 320 283 307 677
2371 2 2 0 320 486 283 677
2372 2 2 0 320 526 308 284
2373 2 2 0 320 490 526 284
2374 2 2 0 320 307 522 677
2375 2 2 0 320 490 489 525
2376 2 2 0 320 489 524 525
2377 2 2 0 320 490 525 526
2378 2 2 0 320 486 522 487
2379 2 2 0 320 487 523 488
2380 2 2 0 320 522 523 487
2381 2 2 0 320 524 489 488
2382 2 2 0 320 523 524 488
2383 2 2 0 321 308 285 284
2384 2 2 0 321 308 309 285
2385 2 2 0 322 309 286 285
2386 2 2 0 322 309 310 286
2387 2 2 0 323 310 287 286
2388 2 2 0 323 311 287 310
2389 2 2 0 324 312 288 287
2390 2 2 0 324 311 312 287
2391 2 2 0 325 494 530 678
2392 2 2 0 325 289 265 678
2393 2 2 0 325 265 494 678
2394 2 2 0 325 530 289 678
2395 2 2 0 325 312 527 288
2396 2 2 0 325 527 491 288
2397 2 2 0 325 492 491 528
2398 2 2 0 325 528 491 527
2399 2 2 0 325 493 492 529
2400 2 2 0 325 529 492 528
2401 2 2 0 325 493 530 494
2402 2 2 0 325 530 493 529
$EndElements
