$MeshFormat
2.2 0 8
$EndMeshFormat
$Nodes
492
1 12.7 0 0
2 9.823 8.050000000000001 0
3 9.502000000000001 8.427 0
4 9.157999999999999 8.798999999999999 0
5 8.816000000000001 9.141999999999999 0
6 8.500999999999999 9.435 0
7 0 12.7 0
8 -8.500999999999999 9.435 0
9 -8.816000000000001 9.141999999999999 0
10 -9.157999999999999 8.798999999999999 0
11 -9.502000000000001 8.427 0
12 -9.823 8.050000000000001 0
13 -12.7 0 0
14 -9.823 -8.050000000000001 0
15 -9.502000000000001 -8.427 0
16 -9.157999999999999 -8.798999999999999 0
17 -8.816000000000001 -9.141999999999999 0
18 -8.500999999999999 -9.435 0
19 0 -12.7 0
20 8.500999999999999 -9.435 0
21 8.816000000000001 -9.141999999999999 0
22 9.157999999999999 -8.798999999999999 0
23 9.502000000000001 -8.427 0
24 9.823 -8.050000000000001 0
25 12.96 0 4.034
26 10.109 8.285 4.034
27 9.800000000000001 8.691000000000001 4.034
28 9.461 9.09 4.034
29 9.112 9.449 4.034
30 8.779999999999999 9.744999999999999 4.034
31 0 12.862 4.034
32 -8.779999999999999 9.744999999999999 4.034
33 -9.112 9.449 4.034
34 -9.461 9.09 4.034
35 -9.800000000000001 8.691000000000001 4.034
36 -10.109 8.285 4.034
37 -12.96 0 4.034
38 -10.109 -8.285 4.034
39 -9.800000000000001 -8.691000000000001 4.034
40 -9.461 -9.09 4.034
41 -9.112 -9.449 4.034
42 -8.779999999999999 -9.744999999999999 4.034
43 0 -12.862 4.034
44 8.779999999999999 -9.744999999999999 4.034
45 9.112 -9.449 4.034
46 9.461 -9.09 4.034
47 9.800000000000001 -8.691000000000001 4.034
48 10.109 -8.285 4.034
49 14.626 0 11.267
50 11.889 9.744 11.267
51 11.641 10.324 11.267
52 11.324 10.879 11.267
53 10.932 11.337 11.267
54 10.498 11.652 11.267
55 0 13.936 11.267
56 -10.498 11.652 11.267
57 -10.932 11.337 11.267
58 -11.324 10.879 11.267
59 -11.641 10.324 11.267
60 -11.889 9.744 11.267
61 -14.626 0 11.267
62 -11.889 -9.744 11.267
63 -11.641 -10.324 11.267
64 -11.324 -10.879 11.267
65 -10.932 -11.337 11.267
66 -10.498 -11.652 11.267
67 0 -13.936 11.267
68 10.498 -11.652 11.267
69 10.932 -11.337 11.267
70 11.324 -10.879 11.267
71 11.641 -10.324 11.267
72 11.889 -9.744 11.267
73 19.298 0 22.341
74 16.609 13.612 22.341
75 16.464 14.6 22.341
76 16.157 15.522 22.341
77 15.64 16.219 22.341
78 14.961 16.606 22.341
79 0 17.152 22.341
80 -14.961 16.606 22.341
81 -15.64 16.219 22.341
82 -16.157 15.522 22.341
83 -16.464 14.6 22.341
84 -16.609 13.612 22.341
85 -19.298 0 22.341
86 -16.609 -13.612 22.341
87 -16.464 -14.6 22.341
88 -16.157 -15.522 22.341
89 -15.64 -16.219 22.341
90 -14.961 -16.606 22.341
91 0 -17.152 22.341
92 14.961 -16.606 22.341
93 15.64 -16.219 22.341
94 16.157 -15.522 22.341
95 16.464 -14.6 22.341
96 16.609 -13.612 22.341
97 28.424 0 38.342
98 25.35 20.775 38.342
99 25.299 22.436 38.342
100 24.946 23.966 38.342
101 24.182 25.077 38.342
102 23.085 25.623 38.342
103 0 23.921 38.342
104 -23.085 25.623 38.342
105 -24.182 25.077 38.342
106 -24.946 23.966 38.342
107 -25.299 22.436 38.342
108 -25.35 20.775 38.342
109 -28.424 0 38.342
110 -25.35 -20.775 38.342
111 -25.299 -22.436 38.342
112 -24.946 -23.966 38.342
113 -24.182 -25.077 38.342
114 -23.085 -25.623 38.342
115 0 -23.921 38.342
116 23.085 -25.623 38.342
117 24.182 -25.077 38.342
118 24.946 -23.966 38.342
119 25.299 -22.436 38.342
120 25.35 -20.775 38.342
121 42.385 0 58.981
122 38.269 31.363 58.981
123 38.271 33.94 58.981
124 37.789 36.304 58.981
125 36.646 38.002 58.981
126 34.962 38.806 58.981
127 0 34.885 58.981
128 -34.962 38.806 58.981
129 -36.646 38.002 58.981
130 -37.789 36.304 58.981
131 -38.271 33.94 58.981
132 -38.269 31.363 58.981
133 -42.385 0 58.981
134 -38.269 -31.363 58.981
135 -38.271 -33.94 58.981
136 -37.789 -36.304 58.981
137 -36.646 -38.002 58.981
138 -34.962 -38.806 58.981
139 0 -34.885 58.981
140 34.962 -38.806 58.981
141 36.646 -38.002 58.981
142 37.789 -36.304 58.981
143 38.271 -33.94 58.981
144 38.269 -31.363 58.981
145 61.495 0 83
146 55.782 45.716 83
147 55.736 49.429 83
148 54.982 52.822 83
149 53.28 55.251 83
150 50.808 56.394 83
151 0 50.657 83
152 -50.808 56.394 83
153 -53.28 55.251 83
154 -54.982 52.822 83
155 -55.736 49.429 83
156 -55.782 45.716 83
157 -61.495 0 83
158 -55.782 -45.716 83
159 -55.736 -49.429 83
160 -54.982 -52.822 83
161 -53.28 -55.251 83
162 -50.808 -56.394 83
163 0 -50.657 83
164 50.808 -56.394 83
165 53.28 -55.251 83
166 54.982 -52.822 83
167 55.736 -49.429 83
168 55.782 -45.716 83
169 85.93899999999999 0 106.945
170 79.062 64.795 106.945
171 78.687 69.782 106.945
172 77.304 74.26600000000001 106.945
173 74.68000000000001 77.44199999999999 106.945
174 71.086 78.901 106.945
175 0 72.152 106.945
176 -71.086 78.901 106.945
177 -74.68000000000001 77.44199999999999 106.945
178 -77.304 74.26600000000001 106.945
179 -78.687 69.782 106.945
180 -79.062 64.795 106.945
181 -85.93899999999999 0 106.945
182 -79.062 -64.795 106.945
183 -78.687 -69.782 106.945
184 -77.304 -74.26600000000001 106.945
185 -74.68000000000001 -77.44199999999999 106.945
186 -71.086 -78.901 106.945
187 0 -72.152 106.945
188 71.086 -78.901 106.945
189 74.68000000000001 -77.44199999999999 106.945
190 77.304 -74.26600000000001 106.945
191 78.687 -69.782 106.945
192 79.062 -64.795 106.945
193 114.392 0 126.794
194 108.039 88.542 126.794
195 106.898 94.801 126.794
196 104.352 100.252 126.794
197 100.306 104.016 126.794
198 95.169 105.633 126.794
199 0 98.839 126.794
200 -95.169 105.633 126.794
201 -100.306 104.016 126.794
202 -104.352 100.252 126.794
203 -106.898 94.801 126.794
204 -108.039 88.542 126.794
205 -114.392 0 126.794
206 -108.039 -88.542 126.794
207 -106.898 -94.801 126.794
208 -104.352 -100.252 126.794
209 -100.306 -104.016 126.794
210 -95.169 -105.633 126.794
211 0 -98.839 126.794
212 95.169 -105.633 126.794
213 100.306 -104.016 126.794
214 104.352 -100.252 126.794
215 106.898 -94.801 126.794
216 108.039 -88.542 126.794
217 144.807 0 141.676
218 140.486 115.134 141.676
219 138.229 122.587 141.676
220 134.103 128.833 141.676
221 128.263 133.007 141.676
222 121.292 134.628 141.676
223 0 128.663 141.676
224 -121.292 134.628 141.676
225 -128.263 133.007 141.676
226 -134.103 128.833 141.676
227 -138.229 122.587 141.676
228 -140.486 115.134 141.676
229 -144.807 0 141.676
230 -140.486 -115.134 141.676
231 -138.229 -122.587 141.676
232 -134.103 -128.833 141.676
233 -128.263 -133.007 141.676
234 -121.292 -134.628 141.676
235 0 -128.663 141.676
236 121.292 -134.628 141.676
237 128.263 -133.007 141.676
238 134.103 -128.833 141.676
239 138.229 -122.587 141.676
240 140.486 -115.134 141.676
241 172.68 0 151.484
242 170.477 139.713 151.484
243 167.071 148.165 151.484
244 161.373 155.031 151.484
245 153.806 159.496 151.484
246 145.12 161.076 151.484
247 0 156.649 151.484
248 -145.12 161.076 151.484
249 -153.806 159.496 151.484
250 -161.373 155.031 151.484
251 -167.071 148.165 151.484
252 -170.477 139.713 151.484
253 -172.68 0 151.484
254 -170.477 -139.713 151.484
255 -167.071 -148.165 151.484
256 -161.373 -155.031 151.484
257 -153.806 -159.496 151.484
258 -145.12 -161.076 151.484
259 0 -156.649 151.484
260 145.12 -161.076 151.484
261 153.806 -159.496 151.484
262 161.373 -155.031 151.484
263 167.071 -148.165 151.484
264 170.477 -139.713 151.484
265 196.043 0 157.365
266 194.834 159.674 157.365
267 190.466 168.912 157.365
268 183.492 176.281 157.365
269 174.55 181.007 157.365
270 164.52 182.609 157.365
271 0 180.321 157.365
272 -164.52 182.609 157.365
273 -174.55 181.007 157.365
274 -183.492 176.281 157.365
275 -190.466 168.912 157.365
276 -194.834 159.674 157.365
277 -196.043 0 157.365
278 -194.834 -159.674 157.365
279 -190.466 -168.912 157.365
280 -183.492 -176.281 157.365
281 -174.55 -181.007 157.365
282 -164.52 -182.609 157.365
283 0 -180.321 157.365
284 164.52 -182.609 157.365
285 174.55 -181.007 157.365
286 183.492 -176.281 157.365
287 190.466 -168.912 157.365
288 194.834 -159.674 157.365
289 212.213 0 160
290 210.5 172.513 160
291 205.529 182.27 160
292 197.786 190.013 160
293 188.029 194.985 160
294 177.213 196.698 160
295 0 196.698 160
296 -177.213 196.698 160
297 -188.029 194.985 160
298 -197.786 190.013 160
299 -205.529 182.27 160
300 -210.5 172.513 160
301 -212.213 0 160
302 -210.5 -172.513 160
303 -205.529 -182.27 160
304 -197.786 -190.013 160
305 -188.029 -194.985 160
306 -177.213 -196.698 160
307 0 -196.698 160
308 177.213 -196.698 160
309 188.029 -194.985 160
310 197.786 -190.013 160
311 205.529 -182.27 160
312 210.5 -172.513 160
313 25.40400000009239 53.52550000001043 83
314 -25.40399999992392 53.52549999999141 83
315 -25.40400000009239 -53.52550000001043 83
316 25.40399999992392 -53.52549999999141 83
317 82.50050000000867 32.39749999991824 106.945
318 35.5430000000918 75.52650000000871 106.945
319 -35.5429999999091 75.52649999999137 106.945
320 -82.50049999999131 32.39750000008186 106.945
321 -82.50050000000867 -32.39749999991824 106.945
322 -35.5430000000918 -75.52650000000871 106.945
323 35.5429999999091 -75.52649999999137 106.945
324 82.50049999999131 -32.39750000008186 106.945
325 111.2155000000082 44.27099999988558 126.794
326 47.58450000012473 102.2360000000089 126.794
327 -47.58449999987717 102.2359999999912 126.794
328 -111.2154999999916 44.27100000011733 126.794
329 -111.2155000000082 -44.27099999988558 126.794
330 -47.58450000012473 -102.2360000000089 126.794
331 47.58449999987717 -102.2359999999912 126.794
332 111.2154999999916 -44.27100000011733 126.794
333 143.3666666666712 38.37799999987836 141.676
334 141.926333333339 76.75599999984819 141.676
335 80.86133333343446 132.6396666666716 141.676
336 40.43066666677794 130.6513333333388 141.676
337 -40.43066666656841 130.6513333333285 141.676
338 -80.86133333322394 132.6396666666613 141.676
339 -141.9263333333279 76.75600000014441 141.676
340 -143.3666666666605 38.37800000016368 141.676
341 -143.3666666666712 -38.37799999987836 141.676
342 -141.926333333339 -76.75599999984819 141.676
343 -80.86133333343446 -132.6396666666716 141.676
344 -40.43066666677794 -130.6513333333388 141.676
345 40.43066666656841 -130.6513333333285 141.676
346 80.86133333322394 -132.6396666666613 141.676
347 141.9263333333279 -76.75600000014441 141.676
348 143.3666666666605 -38.37800000016368 141.676
349 171.9456666666684 46.57099999988799 151.484
350 171.211333333335 93.14199999989324 151.484
351 96.74666666677851 159.6003333333367 151.484
352 48.37333333345613 158.1246666666704 151.484
353 -48.37333333320982 158.1246666666629 151.484
354 -96.74666666653845 159.6003333333294 151.484
355 -171.2113333333315 93.14200000011854 151.484
356 -171.9456666666649 46.5710000001101 151.484
357 -171.9456666666684 -46.57099999988799 151.484
358 -171.211333333335 -93.14199999989324 151.484
359 -96.74666666677851 -159.6003333333367 151.484
360 -48.37333333345613 -158.1246666666704 151.484
361 48.37333333320982 -158.1246666666629 151.484
362 96.74666666653845 -159.6003333333294 151.484
363 171.2113333333315 -93.14200000011854 151.484
364 171.9456666666649 -46.5710000001101 151.484
365 195.7407500000008 39.91849999989396 157.365
366 195.4385000000016 79.83699999978683 157.365
367 195.1362500000008 119.7554999998934 157.365
368 123.3900000001041 182.0370000000015 157.365
369 82.26000000021919 181.465000000003 157.365
370 41.13000000010958 180.8930000000015 157.365
371 -41.12999999990533 180.8929999999987 157.365
372 -82.25999999978707 181.464999999997 157.365
373 -123.3899999998935 182.0369999999985 157.365
374 -195.1362499999993 119.7555000000999 157.365
375 -195.4384999999984 79.83700000021094 157.365
376 -195.7407499999992 39.91850000010547 157.365
377 -195.7407500000008 -39.91849999989396 157.365
378 -195.4385000000016 -79.83699999978683 157.365
379 -195.1362500000008 -119.7554999998934 157.365
380 -123.3900000001041 -182.0370000000015 157.365
381 -82.26000000021919 -181.465000000003 157.365
382 -41.13000000010958 -180.8930000000015 157.365
383 41.12999999990533 -180.8929999999987 157.365
384 82.25999999978707 -181.464999999997 157.365
385 123.3899999998935 -182.0369999999985 157.365
386 195.1362499999993 -119.7555000000999 157.365
387 195.4384999999984 -79.83700000021094 157.365
388 195.7407499999992 -39.91850000010547 157.365
389 211.7847500000009 43.12824999990588 160
390 211.3565000000022 86.25649999977617 160
391 210.928250000001 129.3847499998992 160
392 132.9097500000999 196.698 160
393 88.60650000023591 196.698 160
394 44.30325000012212 196.698 160
395 -44.30324999989478 196.698 160
396 -88.60649999976424 196.698 160
397 -132.909749999878 196.698 160
398 -210.928249999999 129.3847500001014 160
399 -211.3564999999977 86.25650000023052 160
400 -211.784749999999 43.12825000010409 160
401 -211.7847500000009 -43.12824999990588 160
402 -211.3565000000022 -86.25649999977617 160
403 -210.928250000001 -129.3847499998992 160
404 -132.9097500000999 -196.698 160
405 -88.60650000023591 -196.698 160
406 -44.30325000012212 -196.698 160
407 44.30324999989478 -196.698 160
408 88.60649999976424 -196.698 160
409 132.909749999878 -196.698 160
410 210.928249999999 -129.3847500001014 160
411 211.3564999999977 -86.25650000023052 160
412 211.784749999999 -43.12825000010409 160
413 11.42179968457422 4.091939849211962 2.015466059001164
414 4.3009540937173 11.13114707822839 2.022511394051083
415 -4.339694252026297 11.24027078369936 2.014800479187086
416 -11.37428727480692 4.075590074891311 2.019156524989035
417 -11.42179968457422 -4.091939849211962 2.015466059001164
418 -4.3009540937173 -11.13114707822839 2.022511394051083
419 4.339694252026297 -11.24027078369936 2.014800479187086
420 11.37428727480692 -4.07559007489131 2.019156524989035
421 12.51168935998287 4.53974607740898 7.623852900078604
422 4.762262411713508 11.7856675998986 7.733457599014181
423 -4.880879510586401 12.33087000969178 7.608609098519427
424 -12.28412622803921 4.475825686180553 7.684370231985729
425 -12.51168935998287 -4.53974607740898 7.623852900078604
426 -4.762262411713508 -11.7856675998986 7.733457599014181
427 4.880879510586401 -12.33087000969178 7.608609098519427
428 12.28412622803921 -4.475825686180553 7.684370231985729
429 15.84295572978157 5.799974623697631 16.86733217850336
430 6.350473910311006 14.44531945451089 16.9847497390857
431 -6.380724534183358 15.27421979105718 16.6768818089182
432 -15.52588799554347 5.74572983152756 17.01600528568799
433 -15.84295572978157 -5.799974623697631 16.86733217850336
434 -6.350473910311006 -14.44531945451089 16.9847497390857
435 6.380724534183358 -15.27421979105718 16.6768818089182
436 15.52588799554347 -5.745729831527561 17.01600528568799
437 22.76389104560208 8.2104732037403 30.54798133863309
438 9.535205039750865 20.5039777657763 30.51065106824943
439 -9.485837227563177 21.17357585294011 30.19425136250536
440 -22.52685381006347 8.181818467324797 30.69076153353291
441 -22.76389104560208 -8.2104732037403 30.54798133863309
442 -9.535205039750865 -20.5039777657763 30.51065106824943
443 9.485837227563177 -21.17357585294011 30.19425136250536
444 22.52685381006347 -8.181818467324796 30.69076153353291
445 33.66591376849532 13.04223169247606 48.6216484993477
446 -33.54899341587296 13.02688736408293 48.70171462519635
447 -33.66591376849532 -13.04223169247606 48.6216484993477
448 33.54899341587296 -13.02688736408293 48.70171462519635
449 49.51257086263099 19.27347662936851 70.96677392127575
450 15.09202232034146 44.46374922856531 70.99354264874782
451 -15.09097715024787 44.47300546003617 70.98745942313484
452 -49.45316414072979 19.26605273834083 71.0142813376907
453 -49.51257086263099 -19.27347662936851 70.96677392127575
454 -15.09202232034146 -44.46374922856531 70.99354264874782
455 15.09097715024787 -44.47300546003617 70.98745942313484
456 49.45316414072979 -19.26605273834083 71.0142813376907
457 12.51065365618286 62.51416335145888 94.35039673710905
458 -12.53298497475217 62.24471549533035 94.58296027188715
459 -12.51065365618286 -62.51416335145888 94.35039673710905
460 12.53298497475217 -62.24471549533035 94.58296027188715
461 98.6027582833147 19.17365495888425 116.7390421086687
462 -98.2656214195507 19.14946496445576 117.2499443922015
463 -98.6027582833147 -19.17365495888425 116.7390421086687
464 98.2656214195507 -19.14946496445576 117.2499443922015
465 128.5184335148012 20.66499502682944 134.0855167779253
466 21.99507005089274 115.2746782164229 133.9047836235268
467 -22.00638078645011 115.0446863050854 134.3405063143639
468 -128.2575427966391 20.65520375076619 134.6569366649078
469 -128.5184335148012 -20.66499502682944 134.0855167779253
470 -21.99507005089274 -115.2746782164229 133.9047836235268
471 22.00638078645011 -115.0446863050854 134.3405063143639
472 128.2575427966391 -20.65520375076619 134.6569366649078
473 158.2228376083776 21.23761273224222 146.5146249838635
474 22.19734582457754 143.641786299031 146.2658649731495
475 -22.20162975590321 143.5013561814481 146.6389047620243
476 -158.1012853881739 21.23569609224898 146.8852350044364
477 -158.2228376083776 -21.23761273224222 146.5146249838635
478 -22.19734582457754 -143.641786299031 146.2658649731495
479 22.20162975590321 -143.5013561814481 146.6389047620243
480 158.1012853881739 -21.23569609224898 146.8852350044364
481 184.1080405774157 21.62241805561262 154.4019100298737
482 22.37484146809573 169.068237330325 154.1666347281429
483 -22.37599561652428 168.9852475934365 154.4714699543401
484 -184.0763757150059 21.62217829960137 154.5327610924705
485 -184.1080405774157 -21.62241805561262 154.4019100298737
486 -22.37484146809573 -169.068237330325 154.1666347281429
487 22.37599561652428 -168.9852475934365 154.4714699543401
488 184.0763757150059 -21.62217829960137 154.5327610924705
489 194.2045605694475 179.4346598820199 158.6872024520466
490 -194.2062010285081 179.4363938257759 158.669017071328
491 -194.2045605694475 -179.4346598820199 158.6872024520466
492 194.2062010285081 -179.4363938257759 158.669017071328
$EndNodes
$Elements
1924
1 15 2 0 1 1
2 15 2 0 2 2
3 15 2 0 3 3
4 15 2 0 4 4
5 15 2 0 5 5
6 15 2 0 6 6
7 15 2 0 7 7
8 15 2 0 8 8
9 15 2 0 9 9
10 15 2 0 10 10
11 15 2 0 11 11
12 15 2 0 12 12
13 15 2 0 13 13
14 15 2 0 14 14
15 15 2 0 15 15
16 15 2 0 16 16
17 15 2 0 17 17
18 15 2 0 18 18
19 15 2 0 19 19
20 15 2 0 20 20
21 15 2 0 21 21
22 15 2 0 22 22
23 15 2 0 23 23
24 15 2 0 24 24
25 15 2 0 25 25
26 15 2 0 26 26
27 15 2 0 27 27
28 15 2 0 28 28
29 15 2 0 29 29
30 15 2 0 30 30
31 15 2 0 31 31
32 15 2 0 32 32
33 15 2 0 33 33
34 15 2 0 34 34
35 15 2 0 35 35
36 15 2 0 36 36
37 15 2 0 37 37
38 15 2 0 38 38
39 15 2 0 39 39
40 15 2 0 40 40
41 15 2 0 41 41
42 15 2 0 42 42
43 15 2 0 43 43
44 15 2 0 44 44
45 15 2 0 45 45
46 15 2 0 46 46
47 15 2 0 47 47
48 15 2 0 48 48
49 15 2 0 49 49
50 15 2 0 50 50
51 15 2 0 51 51
52 15 2 0 52 52
53 15 2 0 53 53
54 15 2 0 54 54
55 15 2 0 55 55
56 15 2 0 56 56
57 15 2 0 57 57
58 15 2 0 58 58
59 15 2 0 59 59
60 15 2 0 60 60
61 15 2 0 61 61
62 15 2 0 62 62
63 15 2 0 63 63
64 15 2 0 64 64
65 15 2 0 65 65
66 15 2 0 66 66
67 15 2 0 67 67
68 15 2 0 68 68
69 15 2 0 69 69
70 15 2 0 70 70
71 15 2 0 71 71
72 15 2 0 72 72
73 15 2 0 73 73
74 15 2 0 74 74
75 15 2 0 75 75
76 15 2 0 76 76
77 15 2 0 77 77
78 15 2 0 78 78
79 15 2 0 79 79
80 15 2 0 80 80
81 15 2 0 81 81
82 15 2 0 82 82
83 15 2 0 83 83
84 15 2 0 84 84
85 15 2 0 85 85
86 15 2 0 86 86
87 15 2 0 87 87
88 15 2 0 88 88
89 15 2 0 89 89
90 15 2 0 90 90
91 15 2 0 91 91
92 15 2 0 92 92
93 15 2 0 93 93
94 15 2 0 94 94
95 15 2 0 95 95
96 15 2 0 96 96
97 15 2 0 97 97
98 15 2 0 98 98
99 15 2 0 99 99
100 15 2 0 100 100
101 15 2 0 101 101
102 15 2 0 102 102
103 15 2 0 103 103
104 15 2 0 104 104
105 15 2 0 105 105
106 15 2 0 106 106
107 15 2 0 107 107
108 15 2 0 108 108
109 15 2 0 109 109
110 15 2 0 110 110
111 15 2 0 111 111
112 15 2 0 112 112
113 15 2 0 113 113
114 15 2 0 114 114
115 15 2 0 115 115
116 15 2 0 116 116
117 15 2 0 117 117
118 15 2 0 118 118
119 15 2 0 119 119
120 15 2 0 120 120
121 15 2 0 121 121
122 15 2 0 122 122
123 15 2 0 123 123
124 15 2 0 124 124
125 15 2 0 125 125
126 15 2 0 126 126
127 15 2 0 127 127
128 15 2 0 128 128
129 15 2 0 129 129
130 15 2 0 130 130
131 15 2 0 131 131
132 15 2 0 132 132
133 15 2 0 133 133
134 15 2 0 134 134
135 15 2 0 135 135
136 15 2 0 136 136
137 15 2 0 137 137
138 15 2 0 138 138
139 15 2 0 139 139
140 15 2 0 140 140
141 15 2 0 141 141
142 15 2 0 142 142
143 15 2 0 143 143
144 15 2 0 144 144
145 15 2 0 145 145
146 15 2 0 146 146
147 15 2 0 147 147
148 15 2 0 148 148
149 15 2 0 149 149
150 15 2 0 150 150
151 15 2 0 151 151
152 15 2 0 152 152
153 15 2 0 153 153
154 15 2 0 154 154
155 15 2 0 155 155
156 15 2 0 156 156
157 15 2 0 157 157
158 15 2 0 158 158
159 15 2 0 159 159
160 15 2 0 160 160
161 15 2 0 161 161
162 15 2 0 162 162
163 15 2 0 163 163
164 15 2 0 164 164
165 15 2 0 165 165
166 15 2 0 166 166
167 15 2 0 167 167
168 15 2 0 168 168
169 15 2 0 169 169
170 15 2 0 170 170
171 15 2 0 171 171
172 15 2 0 172 172
173 15 2 0 173 173
174 15 2 0 174 174
175 15 2 0 175 175
176 15 2 0 176 176
177 15 2 0 177 177
178 15 2 0 178 178
179 15 2 0 179 179
180 15 2 0 180 180
181 15 2 0 181 181
182 15 2 0 182 182
183 15 2 0 183 183
184 15 2 0 184 184
185 15 2 0 185 185
186 15 2 0 186 186
187 15 2 0 187 187
188 15 2 0 188 188
189 15 2 0 189 189
190 15 2 0 190 190
191 15 2 0 191 191
192 15 2 0 192 192
193 15 2 0 193 193
194 15 2 0 194 194
195 15 2 0 195 195
196 15 2 0 196 196
197 15 2 0 197 197
198 15 2 0 198 198
199 15 2 0 199 199
200 15 2 0 200 200
201 15 2 0 201 201
202 15 2 0 202 202
203 15 2 0 203 203
204 15 2 0 204 204
205 15 2 0 205 205
206 15 2 0 206 206
207 15 2 0 207 207
208 15 2 0 208 208
209 15 2 0 209 209
210 15 2 0 210 210
211 15 2 0 211 211
212 15 2 0 212 212
213 15 2 0 213 213
214 15 2 0 214 214
215 15 2 0 215 215
216 15 2 0 216 216
217 15 2 0 217 217
218 15 2 0 218 218
219 15 2 0 219 219
220 15 2 0 220 220
221 15 2 0 221 221
222 15 2 0 222 222
223 15 2 0 223 223
224 15 2 0 224 224
225 15 2 0 225 225
226 15 2 0 226 226
227 15 2 0 227 227
228 15 2 0 228 228
229 15 2 0 229 229
230 15 2 0 230 230
231 15 2 0 231 231
232 15 2 0 232 232
233 15 2 0 233 233
234 15 2 0 234 234
235 15 2 0 235 235
236 15 2 0 236 236
237 15 2 0 237 237
238 15 2 0 238 238
239 15 2 0 239 239
240 15 2 0 240 240
241 15 2 0 241 241
242 15 2 0 242 242
243 15 2 0 243 243
244 15 2 0 244 244
245 15 2 0 245 245
246 15 2 0 246 246
247 15 2 0 247 247
248 15 2 0 248 248
249 15 2 0 249 249
250 15 2 0 250 250
251 15 2 0 251 251
252 15 2 0 252 252
253 15 2 0 253 253
254 15 2 0 254 254
255 15 2 0 255 255
256 15 2 0 256 256
257 15 2 0 257 257
258 15 2 0 258 258
259 15 2 0 259 259
260 15 2 0 260 260
261 15 2 0 261 261
262 15 2 0 262 262
263 15 2 0 263 263
264 15 2 0 264 264
265 15 2 0 265 265
266 15 2 0 266 266
267 15 2 0 267 267
268 15 2 0 268 268
269 15 2 0 269 269
270 15 2 0 270 270
271 15 2 0 271 271
272 15 2 0 272 272
273 15 2 0 273 273
274 15 2 0 274 274
275 15 2 0 275 275
276 15 2 0 276 276
277 15 2 0 277 277
278 15 2 0 278 278
279 15 2 0 279 279
280 15 2 0 280 280
281 15 2 0 281 281
282 15 2 0 282 282
283 15 2 0 283 283
284 15 2 0 284 284
285 15 2 0 285 285
286 15 2 0 286 286
287 15 2 0 287 287
288 15 2 0 288 288
289 15 2 0 289 289
290 15 2 0 290 290
291 15 2 0 291 291
292 15 2 0 292 292
293 15 2 0 293 293
294 15 2 0 294 294
295 15 2 0 295 295
296 15 2 0 296 296
297 15 2 0 297 297
298 15 2 0 298 298
299 15 2 0 299 299
300 15 2 0 300 300
301 15 2 0 301 301
302 15 2 0 302 302
303 15 2 0 303 303
304 15 2 0 304 304
305 15 2 0 305 305
306 15 2 0 306 306
307 15 2 0 307 307
308 15 2 0 308 308
309 15 2 0 309 309
310 15 2 0 310 310
311 15 2 0 311 311
312 15 2 0 312 312
313 1 2 0 1 1 25
314 1 2 0 2 1 2
315 1 2 0 3 2 26
316 1 2 0 4 2 3
317 1 2 0 5 3 27
318 1 2 0 6 3 4
319 1 2 0 7 4 28
320 1 2 0 8 4 5
321 1 2 0 9 5 29
322 1 2 0 10 5 6
323 1 2 0 11 6 30
324 1 2 0 12 6 7
325 1 2 0 13 7 31
326 1 2 0 14 7 8
327 1 2 0 15 8 32
328 1 2 0 16 8 9
329 1 2 0 17 9 33
330 1 2 0 18 9 10
331 1 2 0 19 10 34
332 1 2 0 20 10 11
333 1 2 0 21 11 35
334 1 2 0 22 11 12
335 1 2 0 23 12 36
336 1 2 0 24 12 13
337 1 2 0 25 13 37
338 1 2 0 26 13 14
339 1 2 0 27 14 38
340 1 2 0 28 14 15
341 1 2 0 29 15 39
342 1 2 0 30 15 16
343 1 2 0 31 16 40
344 1 2 0 32 16 17
345 1 2 0 33 17 41
346 1 2 0 34 17 18
347 1 2 0 35 18 42
348 1 2 0 36 18 19
349 1 2 0 37 19 43
350 1 2 0 38 19 20
351 1 2 0 39 20 44
352 1 2 0 40 20 21
353 1 2 0 41 21 45
354 1 2 0 42 21 22
355 1 2 0 43 22 46
356 1 2 0 44 22 23
357 1 2 0 45 23 47
358 1 2 0 46 23 24
359 1 2 0 47 24 48
360 1 2 0 48 24 1
361 1 2 0 49 25 49
362 1 2 0 50 25 26
363 1 2 0 51 26 50
364 1 2 0 52 26 27
365 1 2 0 53 27 51
366 1 2 0 54 27 28
367 1 2 0 55 28 52
368 1 2 0 56 28 29
369 1 2 0 57 29 53
370 1 2 0 58 29 30
371 1 2 0 59 30 54
372 1 2 0 60 30 31
373 1 2 0 61 31 55
374 1 2 0 62 31 32
375 1 2 0 63 32 56
376 1 2 0 64 32 33
377 1 2 0 65 33 57
378 1 2 0 66 33 34
379 1 2 0 67 34 58
380 1 2 0 68 34 35
381 1 2 0 69 35 59
382 1 2 0 70 35 36
383 1 2 0 71 36 60
384 1 2 0 72 36 37
385 1 2 0 73 37 61
386 1 2 0 74 37 38
387 1 2 0 75 38 62
388 1 2 0 76 38 39
389 1 2 0 77 39 63
390 1 2 0 78 39 40
391 1 2 0 79 40 64
392 1 2 0 80 40 41
393 1 2 0 81 41 65
394 1 2 0 82 41 42
395 1 2 0 83 42 66
396 1 2 0 84 42 43
397 1 2 0 85 43 67
398 1 2 0 86 43 44
399 1 2 0 87 44 68
400 1 2 0 88 44 45
401 1 2 0 89 45 69
402 1 2 0 90 45 46
403 1 2 0 91 46 70
404 1 2 0 92 46 47
405 1 2 0 93 47 71
406 1 2 0 94 47 48
407 1 2 0 95 48 72
408 1 2 0 96 48 25
409 1 2 0 97 49 73
410 1 2 0 98 49 50
411 1 2 0 99 50 74
412 1 2 0 100 50 51
413 1 2 0 101 51 75
414 1 2 0 102 51 52
415 1 2 0 103 52 76
416 1 2 0 104 52 53
417 1 2 0 105 53 77
418 1 2 0 106 53 54
419 1 2 0 107 54 78
420 1 2 0 108 54 55
421 1 2 0 109 55 79
422 1 2 0 110 55 56
423 1 2 0 111 56 80
424 1 2 0 112 56 57
425 1 2 0 113 57 81
426 1 2 0 114 57 58
427 1 2 0 115 58 82
428 1 2 0 116 58 59
429 1 2 0 117 59 83
430 1 2 0 118 59 60
431 1 2 0 119 60 84
432 1 2 0 120 60 61
433 1 2 0 121 61 85
434 1 2 0 122 61 62
435 1 2 0 123 62 86
436 1 2 0 124 62 63
437 1 2 0 125 63 87
438 1 2 0 126 63 64
439 1 2 0 127 64 88
440 1 2 0 128 64 65
441 1 2 0 129 65 89
442 1 2 0 130 65 66
443 1 2 0 131 66 90
444 1 2 0 132 66 67
445 1 2 0 133 67 91
446 1 2 0 134 67 68
447 1 2 0 135 68 92
448 1 2 0 136 68 69
449 1 2 0 137 69 93
450 1 2 0 138 69 70
451 1 2 0 139 70 94
452 1 2 0 140 70 71
453 1 2 0 141 71 95
454 1 2 0 142 71 72
455 1 2 0 143 72 96
456 1 2 0 144 72 49
457 1 2 0 145 73 97
458 1 2 0 146 73 74
459 1 2 0 147 74 98
460 1 2 0 148 74 75
461 1 2 0 149 75 99
462 1 2 0 150 75 76
463 1 2 0 151 76 100
464 1 2 0 152 76 77
465 1 2 0 153 77 101
466 1 2 0 154 77 78
467 1 2 0 155 78 102
468 1 2 0 156 78 79
469 1 2 0 157 79 103
470 1 2 0 158 79 80
471 1 2 0 159 80 104
472 1 2 0 160 80 81
473 1 2 0 161 81 105
474 1 2 0 162 81 82
475 1 2 0 163 82 106
476 1 2 0 164 82 83
477 1 2 0 165 83 107
478 1 2 0 166 83 84
479 1 2 0 167 84 108
480 1 2 0 168 84 85
481 1 2 0 169 85 109
482 1 2 0 170 85 86
483 1 2 0 171 86 110
484 1 2 0 172 86 87
485 1 2 0 173 87 111
486 1 2 0 174 87 88
487 1 2 0 175 88 112
488 1 2 0 176 88 89
489 1 2 0 177 89 113
490 1 2 0 178 89 90
491 1 2 0 179 90 114
492 1 2 0 180 90 91
493 1 2 0 181 91 115
494 1 2 0 182 91 92
495 1 2 0 183 92 116
496 1 2 0 184 92 93
497 1 2 0 185 93 117
498 1 2 0 186 93 94
499 1 2 0 187 94 118
500 1 2 0 188 94 95
501 1 2 0 189 95 119
502 1 2 0 190 95 96
503 1 2 0 191 96 120
504 1 2 0 192 96 73
505 1 2 0 193 97 121
506 1 2 0 194 97 98
507 1 2 0 195 98 122
508 1 2 0 196 98 99
509 1 2 0 197 99 123
510 1 2 0 198 99 100
511 1 2 0 199 100 124
512 1 2 0 200 100 101
513 1 2 0 201 101 125
514 1 2 0 202 101 102
515 1 2 0 203 102 126
516 1 2 0 204 102 103
517 1 2 0 205 103 127
518 1 2 0 206 103 104
519 1 2 0 207 104 128
520 1 2 0 208 104 105
521 1 2 0 209 105 129
522 1 2 0 210 105 106
523 1 2 0 211 106 130
524 1 2 0 212 106 107
525 1 2 0 213 107 131
526 1 2 0 214 107 108
527 1 2 0 215 108 132
528 1 2 0 216 108 109
529 1 2 0 217 109 133
530 1 2 0 218 109 110
531 1 2 0 219 110 134
532 1 2 0 220 110 111
533 1 2 0 221 111 135
534 1 2 0 222 111 112
535 1 2 0 223 112 136
536 1 2 0 224 112 113
537 1 2 0 225 113 137
538 1 2 0 226 113 114
539 1 2 0 227 114 138
540 1 2 0 228 114 115
541 1 2 0 229 115 139
542 1 2 0 230 115 116
543 1 2 0 231 116 140
544 1 2 0 232 116 117
545 1 2 0 233 117 141
546 1 2 0 234 117 118
547 1 2 0 235 118 142
548 1 2 0 236 118 119
549 1 2 0 237 119 143
550 1 2 0 238 119 120
551 1 2 0 239 120 144
552 1 2 0 240 120 97
553 1 2 0 241 121 145
554 1 2 0 242 121 122
555 1 2 0 243 122 146
556 1 2 0 244 122 123
557 1 2 0 245 123 147
558 1 2 0 246 123 124
559 1 2 0 247 124 148
560 1 2 0 248 124 125
561 1 2 0 249 125 149
562 1 2 0 250 125 126
563 1 2 0 251 126 150
564 1 2 0 252 126 127
565 1 2 0 253 127 151
566 1 2 0 254 127 128
567 1 2 0 255 128 152
568 1 2 0 256 128 129
569 1 2 0 257 129 153
570 1 2 0 258 129 130
571 1 2 0 259 130 154
572 1 2 0 260 130 131
573 1 2 0 261 131 155
574 1 2 0 262 131 132
575 1 2 0 263 132 156
576 1 2 0 264 132 133
577 1 2 0 265 133 157
578 1 2 0 266 133 134
579 1 2 0 267 134 158
580 1 2 0 268 134 135
581 1 2 0 269 135 159
582 1 2 0 270 135 136
583 1 2 0 271 136 160
584 1 2 0 272 136 137
585 1 2 0 273 137 161
586 1 2 0 274 137 138
587 1 2 0 275 138 162
588 1 2 0 276 138 139
589 1 2 0 277 139 163
590 1 2 0 278 139 140
591 1 2 0 279 140 164
592 1 2 0 280 140 141
593 1 2 0 281 141 165
594 1 2 0 282 141 142
595 1 2 0 283 142 166
596 1 2 0 284 142 143
597 1 2 0 285 143 167
598 1 2 0 286 143 144
599 1 2 0 287 144 168
600 1 2 0 288 144 121
601 1 2 0 289 145 169
602 1 2 0 290 145 146
603 1 2 0 291 146 170
604 1 2 0 292 146 147
605 1 2 0 293 147 171
606 1 2 0 294 147 148
607 1 2 0 295 148 172
608 1 2 0 296 148 149
609 1 2 0 297 149 173
610 1 2 0 298 149 150
611 1 2 0 299 150 174
612 1 2 0 300 150 313
613 1 2 0 300 313 151
614 1 2 0 301 151 175
615 1 2 0 302 151 314
616 1 2 0 302 314 152
617 1 2 0 303 152 176
618 1 2 0 304 152 153
619 1 2 0 305 153 177
620 1 2 0 306 153 154
621 1 2 0 307 154 178
622 1 2 0 308 154 155
623 1 2 0 309 155 179
624 1 2 0 310 155 156
625 1 2 0 311 156 180
626 1 2 0 312 156 157
627 1 2 0 313 157 181
628 1 2 0 314 157 158
629 1 2 0 315 158 182
630 1 2 0 316 158 159
631 1 2 0 317 159 183
632 1 2 0 318 159 160
633 1 2 0 319 160 184
634 1 2 0 320 160 161
635 1 2 0 321 161 185
636 1 2 0 322 161 162
637 1 2 0 323 162 186
638 1 2 0 324 162 315
639 1 2 0 324 315 163
640 1 2 0 325 163 187
641 1 2 0 326 163 316
642 1 2 0 326 316 164
643 1 2 0 327 164 188
644 1 2 0 328 164 165
645 1 2 0 329 165 189
646 1 2 0 330 165 166
647 1 2 0 331 166 190
648 1 2 0 332 166 167
649 1 2 0 333 167 191
650 1 2 0 334 167 168
651 1 2 0 335 168 192
652 1 2 0 336 168 145
653 1 2 0 337 169 193
654 1 2 0 338 169 317
655 1 2 0 338 317 170
656 1 2 0 339 170 194
657 1 2 0 340 170 171
658 1 2 0 341 171 195
659 1 2 0 342 171 172
660 1 2 0 343 172 196
661 1 2 0 344 172 173
662 1 2 0 345 173 197
663 1 2 0 346 173 174
664 1 2 0 347 174 198
665 1 2 0 348 174 318
666 1 2 0 348 318 175
667 1 2 0 349 175 199
668 1 2 0 350 175 319
669 1 2 0 350 319 176
670 1 2 0 351 176 200
671 1 2 0 352 176 177
672 1 2 0 353 177 201
673 1 2 0 354 177 178
674 1 2 0 355 178 202
675 1 2 0 356 178 179
676 1 2 0 357 179 203
677 1 2 0 358 179 180
678 1 2 0 359 180 204
679 1 2 0 360 180 320
680 1 2 0 360 320 181
681 1 2 0 361 181 205
682 1 2 0 362 181 321
683 1 2 0 362 321 182
684 1 2 0 363 182 206
685 1 2 0 364 182 183
686 1 2 0 365 183 207
687 1 2 0 366 183 184
688 1 2 0 367 184 208
689 1 2 0 368 184 185
690 1 2 0 369 185 209
691 1 2 0 370 185 186
692 1 2 0 371 186 210
693 1 2 0 372 186 322
694 1 2 0 372 322 187
695 1 2 0 373 187 211
696 1 2 0 374 187 323
697 1 2 0 374 323 188
698 1 2 0 375 188 212
699 1 2 0 376 188 189
700 1 2 0 377 189 213
701 1 2 0 378 189 190
702 1 2 0 379 190 214
703 1 2 0 380 190 191
704 1 2 0 381 191 215
705 1 2 0 382 191 192
706 1 2 0 383 192 216
707 1 2 0 384 192 324
708 1 2 0 384 324 169
709 1 2 0 385 193 217
710 1 2 0 386 193 325
711 1 2 0 386 325 194
712 1 2 0 387 194 218
713 1 2 0 388 194 195
714 1 2 0 389 195 219
715 1 2 0 390 195 196
716 1 2 0 391 196 220
717 1 2 0 392 196 197
718 1 2 0 393 197 221
719 1 2 0 394 197 198
720 1 2 0 395 198 222
721 1 2 0 396 198 326
722 1 2 0 396 326 199
723 1 2 0 397 199 223
724 1 2 0 398 199 327
725 1 2 0 398 327 200
726 1 2 0 399 200 224
727 1 2 0 400 200 201
728 1 2 0 401 201 225
729 1 2 0 402 201 202
730 1 2 0 403 202 226
731 1 2 0 404 202 203
732 1 2 0 405 203 227
733 1 2 0 406 203 204
734 1 2 0 407 204 228
735 1 2 0 408 204 328
736 1 2 0 408 328 205
737 1 2 0 409 205 229
738 1 2 0 410 205 329
739 1 2 0 410 329 206
740 1 2 0 411 206 230
741 1 2 0 412 206 207
742 1 2 0 413 207 231
743 1 2 0 414 207 208
744 1 2 0 415 208 232
745 1 2 0 416 208 209
746 1 2 0 417 209 233
747 1 2 0 418 209 210
748 1 2 0 419 210 234
749 1 2 0 420 210 330
750 1 2 0 420 330 211
751 1 2 0 421 211 235
752 1 2 0 422 211 331
753 1 2 0 422 331 212
754 1 2 0 423 212 236
755 1 2 0 424 212 213
756 1 2 0 425 213 237
757 1 2 0 426 213 214
758 1 2 0 427 214 238
759 1 2 0 428 214 215
760 1 2 0 429 215 239
761 1 2 0 430 215 216
762 1 2 0 431 216 240
763 1 2 0 432 216 332
764 1 2 0 432 332 193
765 1 2 0 433 217 241
766 1 2 0 434 217 333
767 1 2 0 434 333 334
768 1 2 0 434 334 218
769 1 2 0 435 218 242
770 1 2 0 436 218 219
771 1 2 0 437 219 243
772 1 2 0 438 219 220
773 1 2 0 439 220 244
774 1 2 0 440 220 221
775 1 2 0 441 221 245
776 1 2 0 442 221 222
777 1 2 0 443 222 246
778 1 2 0 444 222 335
779 1 2 0 444 335 336
780 1 2 0 444 336 223
781 1 2 0 445 223 247
782 1 2 0 446 223 337
783 1 2 0 446 337 338
784 1 2 0 446 338 224
785 1 2 0 447 224 248
786 1 2 0 448 224 225
787 1 2 0 449 225 249
788 1 2 0 450 225 226
789 1 2 0 451 226 250
790 1 2 0 452 226 227
791 1 2 0 453 227 251
792 1 2 0 454 227 228
793 1 2 0 455 228 252
794 1 2 0 456 228 339
795 1 2 0 456 339 340
796 1 2 0 456 340 229
797 1 2 0 457 229 253
798 1 2 0 458 229 341
799 1 2 0 458 341 342
800 1 2 0 458 342 230
801 1 2 0 459 230 254
802 1 2 0 460 230 231
803 1 2 0 461 231 255
804 1 2 0 462 231 232
805 1 2 0 463 232 256
806 1 2 0 464 232 233
807 1 2 0 465 233 257
808 1 2 0 466 233 234
809 1 2 0 467 234 258
810 1 2 0 468 234 343
811 1 2 0 468 343 344
812 1 2 0 468 344 235
813 1 2 0 469 235 259
814 1 2 0 470 235 345
815 1 2 0 470 345 346
816 1 2 0 470 346 236
817 1 2 0 471 236 260
818 1 2 0 472 236 237
819 1 2 0 473 237 261
820 1 2 0 474 237 238
821 1 2 0 475 238 262
822 1 2 0 476 238 239
823 1 2 0 477 239 263
824 1 2 0 478 239 240
825 1 2 0 479 240 264
826 1 2 0 480 240 347
827 1 2 0 480 347 348
828 1 2 0 480 348 217
829 1 2 0 481 241 265
830 1 2 0 482 241 349
831 1 2 0 482 349 350
832 1 2 0 482 350 242
833 1 2 0 483 242 266
834 1 2 0 484 242 243
835 1 2 0 485 243 267
836 1 2 0 486 243 244
837 1 2 0 487 244 268
838 1 2 0 488 244 245
839 1 2 0 489 245 269
840 1 2 0 490 245 246
841 1 2 0 491 246 270
842 1 2 0 492 246 351
843 1 2 0 492 351 352
844 1 2 0 492 352 247
845 1 2 0 493 247 271
846 1 2 0 494 247 353
847 1 2 0 494 353 354
848 1 2 0 494 354 248
849 1 2 0 495 248 272
850 1 2 0 496 248 249
851 1 2 0 497 249 273
852 1 2 0 498 249 250
853 1 2 0 499 250 274
854 1 2 0 500 250 251
855 1 2 0 501 251 275
856 1 2 0 502 251 252
857 1 2 0 503 252 276
858 1 2 0 504 252 355
859 1 2 0 504 355 356
860 1 2 0 504 356 253
861 1 2 0 505 253 277
862 1 2 0 506 253 357
863 1 2 0 506 357 358
864 1 2 0 506 358 254
865 1 2 0 507 254 278
866 1 2 0 508 254 255
867 1 2 0 509 255 279
868 1 2 0 510 255 256
869 1 2 0 511 256 280
870 1 2 0 512 256 257
871 1 2 0 513 257 281
872 1 2 0 514 257 258
873 1 2 0 515 258 282
874 1 2 0 516 258 359
875 1 2 0 516 359 360
876 1 2 0 516 360 259
877 1 2 0 517 259 283
878 1 2 0 518 259 361
879 1 2 0 518 361 362
880 1 2 0 518 362 260
881 1 2 0 519 260 284
882 1 2 0 520 260 261
883 1 2 0 521 261 285
884 1 2 0 522 261 262
885 1 2 0 523 262 286
886 1 2 0 524 262 263
887 1 2 0 525 263 287
888 1 2 0 526 263 264
889 1 2 0 527 264 288
890 1 2 0 528 264 363
891 1 2 0 528 363 364
892 1 2 0 528 364 241
893 1 2 0 529 265 289
894 1 2 0 530 265 365
895 1 2 0 530 365 366
896 1 2 0 530 366 367
897 1 2 0 530 367 266
898 1 2 0 531 266 290
899 1 2 0 532 266 267
900 1 2 0 533 267 291
901 1 2 0 534 267 268
902 1 2 0 535 268 292
903 1 2 0 536 268 269
904 1 2 0 537 269 293
905 1 2 0 538 269 270
906 1 2 0 539 270 294
907 1 2 0 540 270 368
908 1 2 0 540 368 369
909 1 2 0 540 369 370
910 1 2 0 540 370 271
911 1 2 0 541 271 295
912 1 2 0 542 271 371
913 1 2 0 542 371 372
914 1 2 0 542 372 373
915 1 2 0 542 373 272
916 1 2 0 543 272 296
917 1 2 0 544 272 273
918 1 2 0 545 273 297
919 1 2 0 546 273 274
920 1 2 0 547 274 298
921 1 2 0 548 274 275
922 1 2 0 549 275 299
923 1 2 0 550 275 276
924 1 2 0 551 276 300
925 1 2 0 552 276 374
926 1 2 0 552 374 375
927 1 2 0 552 375 376
928 1 2 0 552 376 277
929 1 2 0 553 277 301
930 1 2 0 554 277 377
931 1 2 0 554 377 378
932 1 2 0 554 378 379
933 1 2 0 554 379 278
934 1 2 0 555 278 302
935 1 2 0 556 278 279
936 1 2 0 557 279 303
937 1 2 0 558 279 280
938 1 2 0 559 280 304
939 1 2 0 560 280 281
940 1 2 0 561 281 305
941 1 2 0 562 281 282
942 1 2 0 563 282 306
943 1 2 0 564 282 380
944 1 2 0 564 380 381
945 1 2 0 564 381 382
946 1 2 0 564 382 283
947 1 2 0 565 283 307
948 1 2 0 566 283 383
949 1 2 0 566 383 384
950 1 2 0 566 384 385
951 1 2 0 566 385 284
952 1 2 0 567 284 308
953 1 2 0 568 284 285
954 1 2 0 569 285 309
955 1 2 0 570 285 286
956 1 2 0 571 286 310
957 1 2 0 572 286 287
958 1 2 0 573 287 311
959 1 2 0 574 287 288
960 1 2 0 575 288 312
961 1 2 0 576 288 386
962 1 2 0 576 386 387
963 1 2 0 576 387 388
964 1 2 0 576 388 265
965 1 2 0 578 289 389
966 1 2 0 578 389 390
967 1 2 0 578 390 391
968 1 2 0 578 391 290
969 1 2 0 580 290 291
970 1 2 0 582 291 292
971 1 2 0 584 292 293
972 1 2 0 586 293 294
973 1 2 0 588 294 392
974 1 2 0 588 392 393
975 1 2 0 588 393 394
976 1 2 0 588 394 295
977 1 2 0 590 295 395
978 1 2 0 590 395 396
979 1 2 0 590 396 397
980 1 2 0 590 397 296
981 1 2 0 592 296 297
982 1 2 0 594 297 298
983 1 2 0 596 298 299
984 1 2 0 598 299 300
985 1 2 0 600 300 398
986 1 2 0 600 398 399
987 1 2 0 600 399 400
988 1 2 0 600 400 301
989 1 2 0 602 301 401
990 1 2 0 602 401 402
991 1 2 0 602 402 403
992 1 2 0 602 403 302
993 1 2 0 604 302 303
994 1 2 0 606 303 304
995 1 2 0 608 304 305
996 1 2 0 610 305 306
997 1 2 0 612 306 404
998 1 2 0 612 404 405
999 1 2 0 612 405 406
1000 1 2 0 612 406 307
1001 1 2 0 614 307 407
1002 1 2 0 614 407 408
1003 1 2 0 614 408 409
1004 1 2 0 614 409 308
1005 1 2 0 616 308 309
1006 1 2 0 618 309 310
1007 1 2 0 620 310 311
1008 1 2 0 622 311 312
1009 1 2 0 624 312 410
1010 1 2 0 624 410 411
1011 1 2 0 624 411 412
1012 1 2 0 624 412 289
1013 2 2 0 38 26 2 413
1014 2 2 0 38 1 25 413
1015 2 2 0 38 2 1 413
1016 2 2 0 38 25 26 413
1017 2 2 0 39 26 3 2
1018 2 2 0 39 27 3 26
1019 2 2 0 40 27 4 3
1020 2 2 0 40 28 4 27
1021 2 2 0 41 28 5 4
1022 2 2 0 41 29 5 28
1023 2 2 0 42 30 6 5
1024 2 2 0 42 29 30 5
1025 2 2 0 43 6 30 414
1026 2 2 0 43 31 7 414
1027 2 2 0 43 7 6 414
1028 2 2 0 43 30 31 414
1029 2 2 0 44 32 8 415
1030 2 2 0 44 7 31 415
1031 2 2 0 44 8 7 415
1032 2 2 0 44 31 32 415
1033 2 2 0 45 32 9 8
1034 2 2 0 45 33 9 32
1035 2 2 0 46 34 10 9
1036 2 2 0 46 33 34 9
1037 2 2 0 47 35 11 10
1038 2 2 0 47 34 35 10
1039 2 2 0 48 36 12 11
1040 2 2 0 48 35 36 11
1041 2 2 0 49 12 36 416
1042 2 2 0 49 37 13 416
1043 2 2 0 49 13 12 416
1044 2 2 0 49 36 37 416
1045 2 2 0 50 38 14 417
1046 2 2 0 50 13 37 417
1047 2 2 0 50 14 13 417
1048 2 2 0 50 37 38 417
1049 2 2 0 51 38 15 14
1050 2 2 0 51 39 15 38
1051 2 2 0 52 39 16 15
1052 2 2 0 52 40 16 39
1053 2 2 0 53 40 17 16
1054 2 2 0 53 41 17 40
1055 2 2 0 54 42 18 17
1056 2 2 0 54 41 42 17
1057 2 2 0 55 18 42 418
1058 2 2 0 55 43 19 418
1059 2 2 0 55 19 18 418
1060 2 2 0 55 42 43 418
1061 2 2 0 56 44 20 419
1062 2 2 0 56 19 43 419
1063 2 2 0 56 20 19 419
1064 2 2 0 56 43 44 419
1065 2 2 0 57 44 21 20
1066 2 2 0 57 45 21 44
1067 2 2 0 58 46 22 21
1068 2 2 0 58 45 46 21
1069 2 2 0 59 47 23 22
1070 2 2 0 59 46 47 22
1071 2 2 0 60 48 24 23
1072 2 2 0 60 47 48 23
1073 2 2 0 61 24 48 420
1074 2 2 0 61 25 1 420
1075 2 2 0 61 1 24 420
1076 2 2 0 61 48 25 420
1077 2 2 0 62 26 25 421
1078 2 2 0 62 50 26 421
1079 2 2 0 62 25 49 421
1080 2 2 0 62 49 50 421
1081 2 2 0 63 51 27 50
1082 2 2 0 63 50 27 26
1083 2 2 0 64 51 28 27
1084 2 2 0 64 52 28 51
1085 2 2 0 65 52 29 28
1086 2 2 0 65 53 29 52
1087 2 2 0 66 54 30 29
1088 2 2 0 66 53 54 29
1089 2 2 0 67 31 30 422
1090 2 2 0 67 30 54 422
1091 2 2 0 67 55 31 422
1092 2 2 0 67 54 55 422
1093 2 2 0 68 32 31 423
1094 2 2 0 68 56 32 423
1095 2 2 0 68 31 55 423
1096 2 2 0 68 55 56 423
1097 2 2 0 69 56 33 32
1098 2 2 0 69 57 33 56
1099 2 2 0 70 58 34 33
1100 2 2 0 70 57 58 33
1101 2 2 0 71 59 35 34
1102 2 2 0 71 58 59 34
1103 2 2 0 72 59 60 35
1104 2 2 0 72 60 36 35
1105 2 2 0 73 37 36 424
1106 2 2 0 73 36 60 424
1107 2 2 0 73 61 37 424
1108 2 2 0 73 60 61 424
1109 2 2 0 74 38 37 425
1110 2 2 0 74 62 38 425
1111 2 2 0 74 37 61 425
1112 2 2 0 74 61 62 425
1113 2 2 0 75 63 39 62
1114 2 2 0 75 62 39 38
1115 2 2 0 76 63 40 39
1116 2 2 0 76 64 40 63
1117 2 2 0 77 64 41 40
1118 2 2 0 77 65 41 64
1119 2 2 0 78 66 42 41
1120 2 2 0 78 65 66 41
1121 2 2 0 79 43 42 426
1122 2 2 0 79 42 66 426
1123 2 2 0 79 67 43 426
1124 2 2 0 79 66 67 426
1125 2 2 0 80 44 43 427
1126 2 2 0 80 68 44 427
1127 2 2 0 80 43 67 427
1128 2 2 0 80 67 68 427
1129 2 2 0 81 68 45 44
1130 2 2 0 81 69 45 68
1131 2 2 0 82 70 46 45
1132 2 2 0 82 69 70 45
1133 2 2 0 83 71 47 46
1134 2 2 0 83 70 71 46
1135 2 2 0 84 71 72 47
1136 2 2 0 84 72 48 47
1137 2 2 0 85 25 48 428
1138 2 2 0 85 48 72 428
1139 2 2 0 85 49 25 428
1140 2 2 0 85 72 49 428
1141 2 2 0 86 73 74 429
1142 2 2 0 86 74 50 429
1143 2 2 0 86 49 73 429
1144 2 2 0 86 50 49 429
1145 2 2 0 87 74 51 50
1146 2 2 0 87 74 75 51
1147 2 2 0 88 75 52 51
1148 2 2 0 88 76 52 75
1149 2 2 0 89 77 53 76
1150 2 2 0 89 76 53 52
1151 2 2 0 90 78 54 53
1152 2 2 0 90 77 78 53
1153 2 2 0 91 78 79 430
1154 2 2 0 91 54 78 430
1155 2 2 0 91 79 55 430
1156 2 2 0 91 55 54 430
1157 2 2 0 92 79 80 431
1158 2 2 0 92 80 56 431
1159 2 2 0 92 55 79 431
1160 2 2 0 92 56 55 431
1161 2 2 0 93 80 57 56
1162 2 2 0 93 81 57 80
1163 2 2 0 94 81 82 57
1164 2 2 0 94 82 58 57
1165 2 2 0 95 83 59 58
1166 2 2 0 95 82 83 58
1167 2 2 0 96 84 60 59
1168 2 2 0 96 83 84 59
1169 2 2 0 97 84 85 432
1170 2 2 0 97 60 84 432
1171 2 2 0 97 85 61 432
1172 2 2 0 97 61 60 432
1173 2 2 0 98 85 86 433
1174 2 2 0 98 86 62 433
1175 2 2 0 98 61 85 433
1176 2 2 0 98 62 61 433
1177 2 2 0 99 86 63 62
1178 2 2 0 99 86 87 63
1179 2 2 0 100 87 64 63
1180 2 2 0 100 88 64 87
1181 2 2 0 101 89 65 88
1182 2 2 0 101 88 65 64
1183 2 2 0 102 90 66 65
1184 2 2 0 102 89 90 65
1185 2 2 0 103 90 91 434
1186 2 2 0 103 66 90 434
1187 2 2 0 103 91 67 434
1188 2 2 0 103 67 66 434
1189 2 2 0 104 91 92 435
1190 2 2 0 104 92 68 435
1191 2 2 0 104 67 91 435
1192 2 2 0 104 68 67 435
1193 2 2 0 105 92 69 68
1194 2 2 0 105 93 69 92
1195 2 2 0 106 93 94 69
1196 2 2 0 106 94 70 69
1197 2 2 0 107 95 71 70
1198 2 2 0 107 94 95 70
1199 2 2 0 108 96 72 71
1200 2 2 0 108 95 96 71
1201 2 2 0 109 96 73 436
1202 2 2 0 109 72 96 436
1203 2 2 0 109 73 49 436
1204 2 2 0 109 49 72 436
1205 2 2 0 110 98 74 437
1206 2 2 0 110 97 98 437
1207 2 2 0 110 73 97 437
1208 2 2 0 110 74 73 437
1209 2 2 0 111 98 75 74
1210 2 2 0 111 98 99 75
1211 2 2 0 112 99 76 75
1212 2 2 0 112 99 100 76
1213 2 2 0 113 100 77 76
1214 2 2 0 113 101 77 100
1215 2 2 0 114 102 78 77
1216 2 2 0 114 101 102 77
1217 2 2 0 115 102 103 438
1218 2 2 0 115 78 102 438
1219 2 2 0 115 103 79 438
1220 2 2 0 115 79 78 438
1221 2 2 0 116 103 104 439
1222 2 2 0 116 104 80 439
1223 2 2 0 116 79 103 439
1224 2 2 0 116 80 79 439
1225 2 2 0 117 104 81 80
1226 2 2 0 117 105 81 104
1227 2 2 0 118 106 82 81
1228 2 2 0 118 105 106 81
1229 2 2 0 119 82 107 83
1230 2 2 0 119 106 107 82
1231 2 2 0 120 83 108 84
1232 2 2 0 120 107 108 83
1233 2 2 0 121 84 108 440
1234 2 2 0 121 108 109 440
1235 2 2 0 121 109 85 440
1236 2 2 0 121 85 84 440
1237 2 2 0 122 110 86 441
1238 2 2 0 122 109 110 441
1239 2 2 0 122 85 109 441
1240 2 2 0 122 86 85 441
1241 2 2 0 123 110 87 86
1242 2 2 0 123 110 111 87
1243 2 2 0 124 111 88 87
1244 2 2 0 124 111 112 88
1245 2 2 0 125 112 89 88
1246 2 2 0 125 113 89 112
1247 2 2 0 126 114 90 89
1248 2 2 0 126 113 114 89
1249 2 2 0 127 114 115 442
1250 2 2 0 127 90 114 442
1251 2 2 0 127 115 91 442
1252 2 2 0 127 91 90 442
1253 2 2 0 128 115 116 443
1254 2 2 0 128 116 92 443
1255 2 2 0 128 91 115 443
1256 2 2 0 128 92 91 443
1257 2 2 0 129 116 93 92
1258 2 2 0 129 117 93 116
1259 2 2 0 130 118 94 93
1260 2 2 0 130 117 118 93
1261 2 2 0 131 94 119 95
1262 2 2 0 131 118 119 94
1263 2 2 0 132 95 120 96
1264 2 2 0 132 119 120 95
1265 2 2 0 133 96 120 444
1266 2 2 0 133 120 97 444
1267 2 2 0 133 97 73 444
1268 2 2 0 133 73 96 444
1269 2 2 0 134 121 122 445
1270 2 2 0 134 122 98 445
1271 2 2 0 134 97 121 445
1272 2 2 0 134 98 97 445
1273 2 2 0 135 122 99 98
1274 2 2 0 135 122 123 99
1275 2 2 0 136 123 100 99
1276 2 2 0 136 123 124 100
1277 2 2 0 137 124 101 100
1278 2 2 0 137 125 101 124
1279 2 2 0 138 126 102 101
1280 2 2 0 138 125 126 101
1281 2 2 0 139 127 103 102
1282 2 2 0 139 126 127 102
1283 2 2 0 140 127 104 103
1284 2 2 0 140 128 104 127
1285 2 2 0 141 128 105 104
1286 2 2 0 141 129 105 128
1287 2 2 0 142 130 106 105
1288 2 2 0 142 129 130 105
1289 2 2 0 143 106 131 107
1290 2 2 0 143 130 131 106
1291 2 2 0 144 107 132 108
1292 2 2 0 144 131 132 107
1293 2 2 0 145 132 133 446
1294 2 2 0 145 108 132 446
1295 2 2 0 145 133 109 446
1296 2 2 0 145 109 108 446
1297 2 2 0 146 133 134 447
1298 2 2 0 146 134 110 447
1299 2 2 0 146 109 133 447
1300 2 2 0 146 110 109 447
1301 2 2 0 147 134 111 110
1302 2 2 0 147 134 135 111
1303 2 2 0 148 135 112 111
1304 2 2 0 148 135 136 112
1305 2 2 0 149 136 113 112
1306 2 2 0 149 137 113 136
1307 2 2 0 150 138 114 113
1308 2 2 0 150 137 138 113
1309 2 2 0 151 139 115 114
1310 2 2 0 151 138 139 114
1311 2 2 0 152 139 116 115
1312 2 2 0 152 140 116 139
1313 2 2 0 153 140 117 116
1314 2 2 0 153 141 117 140
1315 2 2 0 154 142 118 117
1316 2 2 0 154 141 142 117
1317 2 2 0 155 118 143 119
1318 2 2 0 155 142 143 118
1319 2 2 0 156 119 144 120
1320 2 2 0 156 143 144 119
1321 2 2 0 157 144 121 448
1322 2 2 0 157 120 144 448
1323 2 2 0 157 121 97 448
1324 2 2 0 157 97 120 448
1325 2 2 0 158 146 122 449
1326 2 2 0 158 122 121 449
1327 2 2 0 158 121 145 449
1328 2 2 0 158 145 146 449
1329 2 2 0 159 146 123 122
1330 2 2 0 159 146 147 123
1331 2 2 0 160 147 124 123
1332 2 2 0 160 147 148 124
1333 2 2 0 161 148 125 124
1334 2 2 0 161 149 125 148
1335 2 2 0 162 150 126 125
1336 2 2 0 162 149 150 125
1337 2 2 0 163 150 313 126
1338 2 2 0 163 127 126 450
1339 2 2 0 163 126 313 450
1340 2 2 0 163 151 127 450
1341 2 2 0 163 313 151 450
1342 2 2 0 164 128 314 152
1343 2 2 0 164 128 127 451
1344 2 2 0 164 314 128 451
1345 2 2 0 164 127 151 451
1346 2 2 0 164 151 314 451
1347 2 2 0 165 152 129 128
1348 2 2 0 165 153 129 152
1349 2 2 0 166 154 130 129
1350 2 2 0 166 153 154 129
1351 2 2 0 167 130 155 131
1352 2 2 0 167 154 155 130
1353 2 2 0 168 131 156 132
1354 2 2 0 168 155 156 131
1355 2 2 0 169 132 156 452
1356 2 2 0 169 133 132 452
1357 2 2 0 169 157 133 452
1358 2 2 0 169 156 157 452
1359 2 2 0 170 158 134 453
1360 2 2 0 170 134 133 453
1361 2 2 0 170 133 157 453
1362 2 2 0 170 157 158 453
1363 2 2 0 171 158 135 134
1364 2 2 0 171 158 159 135
1365 2 2 0 172 159 136 135
1366 2 2 0 172 159 160 136
1367 2 2 0 173 160 137 136
1368 2 2 0 173 161 137 160
1369 2 2 0 174 162 138 137
1370 2 2 0 174 161 162 137
1371 2 2 0 175 162 315 138
1372 2 2 0 175 139 138 454
1373 2 2 0 175 138 315 454
1374 2 2 0 175 163 139 454
1375 2 2 0 175 315 163 454
1376 2 2 0 176 140 316 164
1377 2 2 0 176 140 139 455
1378 2 2 0 176 316 140 455
1379 2 2 0 176 139 163 455
1380 2 2 0 176 163 316 455
1381 2 2 0 177 164 141 140
1382 2 2 0 177 165 141 164
1383 2 2 0 178 166 142 141
1384 2 2 0 178 165 166 141
1385 2 2 0 179 142 167 143
1386 2 2 0 179 166 167 142
1387 2 2 0 180 143 168 144
1388 2 2 0 180 167 168 143
1389 2 2 0 181 144 168 456
1390 2 2 0 181 121 144 456
1391 2 2 0 181 145 121 456
1392 2 2 0 181 168 145 456
1393 2 2 0 182 169 317 145
1394 2 2 0 182 146 317 170
1395 2 2 0 182 317 146 145
1396 2 2 0 183 170 147 146
1397 2 2 0 183 170 171 147
1398 2 2 0 184 171 148 147
1399 2 2 0 184 171 172 148
1400 2 2 0 185 172 149 148
1401 2 2 0 185 173 149 172
1402 2 2 0 186 174 150 149
1403 2 2 0 186 173 174 149
1404 2 2 0 187 174 318 150
1405 2 2 0 187 318 313 150
1406 2 2 0 187 175 151 457
1407 2 2 0 187 313 318 457
1408 2 2 0 187 318 175 457
1409 2 2 0 187 151 313 457
1410 2 2 0 188 152 319 176
1411 2 2 0 188 152 314 319
1412 2 2 0 188 151 175 458
1413 2 2 0 188 319 314 458
1414 2 2 0 188 175 319 458
1415 2 2 0 188 314 151 458
1416 2 2 0 189 176 153 152
1417 2 2 0 189 176 177 153
1418 2 2 0 190 178 154 153
1419 2 2 0 190 177 178 153
1420 2 2 0 191 154 179 155
1421 2 2 0 191 178 179 154
1422 2 2 0 192 155 180 156
1423 2 2 0 192 179 180 155
1424 2 2 0 193 157 320 181
1425 2 2 0 193 180 320 156
1426 2 2 0 193 320 157 156
1427 2 2 0 194 181 321 157
1428 2 2 0 194 158 321 182
1429 2 2 0 194 321 158 157
1430 2 2 0 195 182 159 158
1431 2 2 0 195 182 183 159
1432 2 2 0 196 183 160 159
1433 2 2 0 196 183 184 160
1434 2 2 0 197 184 161 160
1435 2 2 0 197 185 161 184
1436 2 2 0 198 186 162 161
1437 2 2 0 198 185 186 161
1438 2 2 0 199 186 322 162
1439 2 2 0 199 322 315 162
1440 2 2 0 199 187 163 459
1441 2 2 0 199 315 322 459
1442 2 2 0 199 322 187 459
1443 2 2 0 199 163 315 459
1444 2 2 0 200 164 323 188
1445 2 2 0 200 164 316 323
1446 2 2 0 200 163 187 460
1447 2 2 0 200 323 316 460
1448 2 2 0 200 187 323 460
1449 2 2 0 200 316 163 460
1450 2 2 0 201 188 165 164
1451 2 2 0 201 188 189 165
1452 2 2 0 202 190 166 165
1453 2 2 0 202 189 190 165
1454 2 2 0 203 166 191 167
1455 2 2 0 203 190 191 166
1456 2 2 0 204 167 192 168
1457 2 2 0 204 191 192 167
1458 2 2 0 205 169 145 324
1459 2 2 0 205 192 324 168
1460 2 2 0 205 324 145 168
1461 2 2 0 206 194 170 325
1462 2 2 0 206 193 325 461
1463 2 2 0 206 170 317 325
1464 2 2 0 206 325 317 461
1465 2 2 0 206 169 193 461
1466 2 2 0 206 317 169 461
1467 2 2 0 207 194 171 170
1468 2 2 0 207 194 195 171
1469 2 2 0 208 195 172 171
1470 2 2 0 208 196 172 195
1471 2 2 0 209 196 173 172
1472 2 2 0 209 197 173 196
1473 2 2 0 210 173 198 174
1474 2 2 0 210 197 198 173
1475 2 2 0 211 175 318 199
1476 2 2 0 211 198 326 174
1477 2 2 0 211 326 318 174
1478 2 2 0 211 318 326 199
1479 2 2 0 212 199 319 175
1480 2 2 0 212 176 327 200
1481 2 2 0 212 176 319 327
1482 2 2 0 212 327 319 199
1483 2 2 0 213 200 177 176
1484 2 2 0 213 200 201 177
1485 2 2 0 214 202 178 177
1486 2 2 0 214 201 202 177
1487 2 2 0 215 178 203 179
1488 2 2 0 215 202 203 178
1489 2 2 0 216 179 204 180
1490 2 2 0 216 203 204 179
1491 2 2 0 217 204 328 180
1492 2 2 0 217 328 205 462
1493 2 2 0 217 328 320 180
1494 2 2 0 217 320 328 462
1495 2 2 0 217 205 181 462
1496 2 2 0 217 181 320 462
1497 2 2 0 218 182 329 206
1498 2 2 0 218 205 329 463
1499 2 2 0 218 182 321 329
1500 2 2 0 218 329 321 463
1501 2 2 0 218 181 205 463
1502 2 2 0 218 321 181 463
1503 2 2 0 219 206 183 182
1504 2 2 0 219 206 207 183
1505 2 2 0 220 207 184 183
1506 2 2 0 220 208 184 207
1507 2 2 0 221 208 185 184
1508 2 2 0 221 209 185 208
1509 2 2 0 222 185 210 186
1510 2 2 0 222 209 210 185
1511 2 2 0 223 187 322 211
1512 2 2 0 223 210 330 186
1513 2 2 0 223 330 322 186
1514 2 2 0 223 322 330 211
1515 2 2 0 224 211 323 187
1516 2 2 0 224 188 331 212
1517 2 2 0 224 188 323 331
1518 2 2 0 224 331 323 211
1519 2 2 0 225 212 189 188
1520 2 2 0 225 212 213 189
1521 2 2 0 226 214 190 189
1522 2 2 0 226 213 214 189
1523 2 2 0 227 190 215 191
1524 2 2 0 227 214 215 190
1525 2 2 0 228 191 216 192
1526 2 2 0 228 215 216 191
1527 2 2 0 229 216 332 192
1528 2 2 0 229 332 193 464
1529 2 2 0 229 332 324 192
1530 2 2 0 229 324 332 464
1531 2 2 0 229 193 169 464
1532 2 2 0 229 169 324 464
1533 2 2 0 230 194 325 334
1534 2 2 0 230 325 333 334
1535 2 2 0 230 325 193 465
1536 2 2 0 230 218 194 334
1537 2 2 0 230 217 333 465
1538 2 2 0 230 333 325 465
1539 2 2 0 230 193 217 465
1540 2 2 0 231 218 195 194
1541 2 2 0 231 218 219 195
1542 2 2 0 232 219 196 195
1543 2 2 0 232 220 196 219
1544 2 2 0 233 220 221 196
1545 2 2 0 233 221 197 196
1546 2 2 0 234 197 222 198
1547 2 2 0 234 221 222 197
1548 2 2 0 235 222 335 198
1549 2 2 0 235 336 223 466
1550 2 2 0 235 326 336 466
1551 2 2 0 235 223 199 466
1552 2 2 0 235 199 326 466
1553 2 2 0 235 335 326 198
1554 2 2 0 235 335 336 326
1555 2 2 0 236 200 338 224
1556 2 2 0 236 223 337 467
1557 2 2 0 236 337 327 467
1558 2 2 0 236 199 223 467
1559 2 2 0 236 327 199 467
1560 2 2 0 236 338 200 327
1561 2 2 0 236 337 338 327
1562 2 2 0 237 224 201 200
1563 2 2 0 237 224 225 201
1564 2 2 0 238 226 202 225
1565 2 2 0 238 225 202 201
1566 2 2 0 239 227 203 202
1567 2 2 0 239 226 227 202
1568 2 2 0 240 203 228 204
1569 2 2 0 240 227 228 203
1570 2 2 0 241 339 328 204
1571 2 2 0 241 340 328 339
1572 2 2 0 241 205 328 468
1573 2 2 0 241 228 339 204
1574 2 2 0 241 340 229 468
1575 2 2 0 241 328 340 468
1576 2 2 0 241 229 205 468
1577 2 2 0 242 206 329 342
1578 2 2 0 242 342 329 341
1579 2 2 0 242 329 205 469
1580 2 2 0 242 206 342 230
1581 2 2 0 242 229 341 469
1582 2 2 0 242 341 329 469
1583 2 2 0 242 205 229 469
1584 2 2 0 243 230 207 206
1585 2 2 0 243 230 231 207
1586 2 2 0 244 231 208 207
1587 2 2 0 244 232 208 231
1588 2 2 0 245 232 233 208
1589 2 2 0 245 233 209 208
1590 2 2 0 246 209 234 210
1591 2 2 0 246 233 234 209
1592 2 2 0 247 234 343 210
1593 2 2 0 247 344 235 470
1594 2 2 0 247 330 344 470
1595 2 2 0 247 235 211 470
1596 2 2 0 247 211 330 470
1597 2 2 0 247 343 330 210
1598 2 2 0 247 344 330 343
1599 2 2 0 248 212 346 236
1600 2 2 0 248 235 345 471
1601 2 2 0 248 345 331 471
1602 2 2 0 248 211 235 471
1603 2 2 0 248 331 211 471
1604 2 2 0 248 212 331 346
1605 2 2 0 248 346 331 345
1606 2 2 0 249 236 213 212
1607 2 2 0 249 236 237 213
1608 2 2 0 250 238 214 237
1609 2 2 0 250 237 214 213
1610 2 2 0 251 239 215 214
1611 2 2 0 251 238 239 214
1612 2 2 0 252 215 240 216
1613 2 2 0 252 239 240 215
1614 2 2 0 253 347 332 216
1615 2 2 0 253 348 332 347
1616 2 2 0 253 193 332 472
1617 2 2 0 253 240 347 216
1618 2 2 0 253 348 217 472
1619 2 2 0 253 332 348 472
1620 2 2 0 253 217 193 472
1621 2 2 0 254 333 349 334
1622 2 2 0 254 218 350 242
1623 2 2 0 254 333 217 473
1624 2 2 0 254 350 218 334
1625 2 2 0 254 349 333 473
1626 2 2 0 254 217 241 473
1627 2 2 0 254 241 349 473
1628 2 2 0 254 349 350 334
1629 2 2 0 255 242 219 218
1630 2 2 0 255 243 219 242
1631 2 2 0 256 243 220 219
1632 2 2 0 256 244 220 243
1633 2 2 0 257 244 245 220
1634 2 2 0 257 245 221 220
1635 2 2 0 258 221 246 222
1636 2 2 0 258 245 246 221
1637 2 2 0 259 246 351 222
1638 2 2 0 259 351 335 222
1639 2 2 0 259 336 352 474
1640 2 2 0 259 247 223 474
1641 2 2 0 259 223 336 474
1642 2 2 0 259 352 247 474
1643 2 2 0 259 336 335 352
1644 2 2 0 259 335 351 352
1645 2 2 0 260 224 354 248
1646 2 2 0 260 354 224 338
1647 2 2 0 260 353 337 475
1648 2 2 0 260 223 247 475
1649 2 2 0 260 337 223 475
1650 2 2 0 260 247 353 475
1651 2 2 0 260 338 337 353
1652 2 2 0 260 354 338 353
1653 2 2 0 261 248 225 224
1654 2 2 0 261 248 249 225
1655 2 2 0 262 250 226 249
1656 2 2 0 262 249 226 225
1657 2 2 0 263 251 227 226
1658 2 2 0 263 250 251 226
1659 2 2 0 264 227 252 228
1660 2 2 0 264 251 252 227
1661 2 2 0 265 340 339 356
1662 2 2 0 265 252 355 228
1663 2 2 0 265 229 340 476
1664 2 2 0 265 355 339 228
1665 2 2 0 265 340 356 476
1666 2 2 0 265 253 229 476
1667 2 2 0 265 356 253 476
1668 2 2 0 265 339 355 356
1669 2 2 0 266 342 341 357
1670 2 2 0 266 230 358 254
1671 2 2 0 266 341 229 477
1672 2 2 0 266 230 342 358
1673 2 2 0 266 357 341 477
1674 2 2 0 266 229 253 477
1675 2 2 0 266 253 357 477
1676 2 2 0 266 358 342 357
1677 2 2 0 267 254 231 230
1678 2 2 0 267 255 231 254
1679 2 2 0 268 255 232 231
1680 2 2 0 268 256 232 255
1681 2 2 0 269 256 257 232
1682 2 2 0 269 257 233 232
1683 2 2 0 270 233 258 234
1684 2 2 0 270 257 258 233
1685 2 2 0 271 258 359 234
1686 2 2 0 271 359 343 234
1687 2 2 0 271 344 360 478
1688 2 2 0 271 259 235 478
1689 2 2 0 271 235 344 478
1690 2 2 0 271 360 259 478
1691 2 2 0 271 344 343 360
1692 2 2 0 271 360 343 359
1693 2 2 0 272 236 362 260
1694 2 2 0 272 236 346 362
1695 2 2 0 272 361 345 479
1696 2 2 0 272 235 259 479
1697 2 2 0 272 345 235 479
1698 2 2 0 272 259 361 479
1699 2 2 0 272 346 345 361
1700 2 2 0 272 362 346 361
1701 2 2 0 273 260 237 236
1702 2 2 0 273 260 261 237
1703 2 2 0 274 262 238 261
1704 2 2 0 274 261 238 237
1705 2 2 0 275 263 239 238
1706 2 2 0 275 262 263 238
1707 2 2 0 276 239 264 240
1708 2 2 0 276 263 264 239
1709 2 2 0 277 348 347 364
1710 2 2 0 277 264 363 240
1711 2 2 0 277 217 348 480
1712 2 2 0 277 363 347 240
1713 2 2 0 277 348 364 480
1714 2 2 0 277 241 217 480
1715 2 2 0 277 364 241 480
1716 2 2 0 277 364 347 363
1717 2 2 0 278 367 350 366
1718 2 2 0 278 242 367 266
1719 2 2 0 278 365 349 481
1720 2 2 0 278 241 265 481
1721 2 2 0 278 349 241 481
1722 2 2 0 278 265 365 481
1723 2 2 0 278 242 350 367
1724 2 2 0 278 350 349 366
1725 2 2 0 278 366 349 365
1726 2 2 0 279 266 243 242
1727 2 2 0 279 267 243 266
1728 2 2 0 280 267 244 243
1729 2 2 0 280 268 244 267
1730 2 2 0 281 269 245 244
1731 2 2 0 281 268 269 244
1732 2 2 0 282 245 270 246
1733 2 2 0 282 269 270 245
1734 2 2 0 283 270 368 246
1735 2 2 0 283 352 370 482
1736 2 2 0 283 271 247 482
1737 2 2 0 283 368 351 246
1738 2 2 0 283 247 352 482
1739 2 2 0 283 370 271 482
1740 2 2 0 283 352 351 369
1741 2 2 0 283 369 351 368
1742 2 2 0 283 370 352 369
1743 2 2 0 284 248 373 272
1744 2 2 0 284 371 353 483
1745 2 2 0 284 247 271 483
1746 2 2 0 284 353 247 483
1747 2 2 0 284 248 354 373
1748 2 2 0 284 271 371 483
1749 2 2 0 284 354 353 372
1750 2 2 0 284 372 353 371
1751 2 2 0 284 373 354 372
1752 2 2 0 285 272 249 248
1753 2 2 0 285 272 273 249
1754 2 2 0 286 273 250 249
1755 2 2 0 286 274 250 273
1756 2 2 0 287 275 251 250
1757 2 2 0 287 274 275 250
1758 2 2 0 288 276 252 251
1759 2 2 0 288 275 276 251
1760 2 2 0 289 374 375 355
1761 2 2 0 289 276 374 252
1762 2 2 0 289 356 376 484
1763 2 2 0 289 277 253 484
1764 2 2 0 289 253 356 484
1765 2 2 0 289 376 277 484
1766 2 2 0 289 374 355 252
1767 2 2 0 289 355 375 356
1768 2 2 0 289 375 376 356
1769 2 2 0 290 379 358 378
1770 2 2 0 290 254 379 278
1771 2 2 0 290 377 357 485
1772 2 2 0 290 253 277 485
1773 2 2 0 290 357 253 485
1774 2 2 0 290 277 377 485
1775 2 2 0 290 254 358 379
1776 2 2 0 290 378 358 357
1777 2 2 0 290 377 378 357
1778 2 2 0 291 278 255 254
1779 2 2 0 291 279 255 278
1780 2 2 0 292 279 256 255
1781 2 2 0 292 280 256 279
1782 2 2 0 293 281 257 256
1783 2 2 0 293 280 281 256
1784 2 2 0 294 257 282 258
1785 2 2 0 294 281 282 257
1786 2 2 0 295 282 380 258
1787 2 2 0 295 360 382 486
1788 2 2 0 295 283 259 486
1789 2 2 0 295 380 359 258
1790 2 2 0 295 259 360 486
1791 2 2 0 295 382 283 486
1792 2 2 0 295 359 381 360
1793 2 2 0 295 381 359 380
1794 2 2 0 295 381 382 360
1795 2 2 0 296 260 385 284
1796 2 2 0 296 383 361 487
1797 2 2 0 296 259 283 487
1798 2 2 0 296 361 259 487
1799 2 2 0 296 385 260 362
1800 2 2 0 296 283 383 487
1801 2 2 0 296 384 362 361
1802 2 2 0 296 383 384 361
1803 2 2 0 296 384 385 362
1804 2 2 0 297 284 261 260
1805 2 2 0 297 284 285 261
1806 2 2 0 298 285 262 261
1807 2 2 0 298 286 262 285
1808 2 2 0 299 287 263 262
1809 2 2 0 299 286 287 262
1810 2 2 0 300 288 264 263
1811 2 2 0 300 287 288 263
1812 2 2 0 301 387 363 386
1813 2 2 0 301 288 386 264
1814 2 2 0 301 364 388 488
1815 2 2 0 301 265 241 488
1816 2 2 0 301 241 364 488
1817 2 2 0 301 388 265 488
1818 2 2 0 301 386 363 264
1819 2 2 0 301 364 363 387
1820 2 2 0 301 388 364 387
1821 2 2 0 302 266 391 290
1822 2 2 0 302 391 266 367
1823 2 2 0 302 390 391 367
1824 2 2 0 302 289 365 265
1825 2 2 0 302 389 365 289
1826 2 2 0 302 366 365 389
1827 2 2 0 302 366 390 367
1828 2 2 0 302 390 366 389
1829 2 2 0 303 290 267 266
1830 2 2 0 303 291 267 290
1831 2 2 0 304 268 267 489
1832 2 2 0 304 291 292 489
1833 2 2 0 304 267 291 489
1834 2 2 0 304 292 268 489
1835 2 2 0 305 293 269 268
1836 2 2 0 305 292 293 268
1837 2 2 0 306 294 270 269
1838 2 2 0 306 293 294 269
1839 2 2 0 307 294 392 270
1840 2 2 0 307 392 368 270
1841 2 2 0 307 393 368 392
1842 2 2 0 307 394 369 393
1843 2 2 0 307 271 370 295
1844 2 2 0 307 370 394 295
1845 2 2 0 307 369 368 393
1846 2 2 0 307 370 369 394
1847 2 2 0 308 272 397 296
1848 2 2 0 308 397 272 373
1849 2 2 0 308 396 372 395
1850 2 2 0 308 396 397 373
1851 2 2 0 308 295 371 271
1852 2 2 0 308 395 371 295
1853 2 2 0 308 372 371 395
1854 2 2 0 308 372 396 373
1855 2 2 0 309 296 273 272
1856 2 2 0 309 297 273 296
1857 2 2 0 310 297 274 273
1858 2 2 0 310 298 274 297
1859 2 2 0 311 275 274 490
1860 2 2 0 311 298 299 490
1861 2 2 0 311 274 298 490
1862 2 2 0 311 299 275 490
1863 2 2 0 312 300 276 275
1864 2 2 0 312 299 300 275
1865 2 2 0 313 300 398 276
1866 2 2 0 313 398 374 276
1867 2 2 0 313 399 374 398
1868 2 2 0 313 277 376 301
1869 2 2 0 313 376 400 301
1870 2 2 0 313 375 374 399
1871 2 2 0 313 376 375 400
1872 2 2 0 313 400 375 399
1873 2 2 0 314 278 403 302
1874 2 2 0 314 403 278 379
1875 2 2 0 314 402 403 379
1876 2 2 0 314 301 377 277
1877 2 2 0 314 401 377 301
1878 2 2 0 314 378 377 401
1879 2 2 0 314 378 402 379
1880 2 2 0 314 402 378 401
1881 2 2 0 315 302 279 278
1882 2 2 0 315 303 279 302
1883 2 2 0 316 280 279 491
1884 2 2 0 316 303 304 491
1885 2 2 0 316 279 303 491
1886 2 2 0 316 304 280 491
1887 2 2 0 317 305 281 280
1888 2 2 0 317 304 305 280
1889 2 2 0 318 306 282 281
1890 2 2 0 318 305 306 281
1891 2 2 0 319 306 404 282
1892 2 2 0 319 404 380 282
1893 2 2 0 319 405 380 404
1894 2 2 0 319 406 381 405
1895 2 2 0 319 283 382 307
1896 2 2 0 319 382 406 307
1897 2 2 0 319 381 380 405
1898 2 2 0 319 382 381 406
1899 2 2 0 320 284 409 308
1900 2 2 0 320 409 284 385
1901 2 2 0 320 408 384 407
1902 2 2 0 320 408 409 385
1903 2 2 0 320 307 383 283
1904 2 2 0 320 407 383 307
1905 2 2 0 320 384 383 407
1906 2 2 0 320 384 408 385
1907 2 2 0 321 308 285 284
1908 2 2 0 321 309 285 308
1909 2 2 0 322 309 286 285
1910 2 2 0 322 310 286 309
1911 2 2 0 323 287 286 492
1912 2 2 0 323 310 311 492
1913 2 2 0 323 286 310 492
1914 2 2 0 323 311 287 492
1915 2 2 0 324 312 288 287
1916 2 2 0 324 311 312 287
1917 2 2 0 325 312 410 288
1918 2 2 0 325 410 386 288
1919 2 2 0 325 411 386 410
1920 2 2 0 325 265 388 289
1921 2 2 0 325 388 412 289
1922 2 2 0 325 387 386 411
1923 2 2 0 325 388 387 412
1924 2 2 0 325 412 387 411
$EndElements
