$MeshFormat
2.2 0 8
$EndMeshFormat
$PhysicalNames
4
2 1 "SD1G0"
2 2 "SD1D1001"
2 3 "SD2G0"
2 4 "I1-2"
$EndPhysicalNames
$Nodes
687
1 12.7 0 0
2 9.788 8.093 0
3 0 8.827 0
4 12.916 0 3.782
5 10.044 8.305 3.782
6 0 9.119 3.782
7 14.296 0 10.563
8 11.637 9.622 10.563
9 0 10.901 10.563
10 18.193 0 20.945
11 15.867 13.12 20.945
12 0 15.458 20.945
13 25.769 0 35.946
14 23.607 19.519 35.946
15 0 23.54 35.946
16 37.078 0 55.294
17 34.723 28.711 55.294
18 0 34.94 55.294
19 52.433 0 77.812
20 49.554 40.974 77.812
21 0 49.746 77.812
22 73.658 0 100.261
23 70.279 58.11 100.261
24 0 69.121 100.261
25 101.803 0 118.869
26 98.402 81.36199999999999 118.869
27 0 93.59699999999999 118.869
28 135.184 0 132.821
29 132.062 109.194 132.821
30 0 121.687 132.821
31 167.865 0 142.017
32 164.626 136.119 142.017
33 0 148.458 142.017
34 196.772 0 147.529
35 192.364 159.054 147.529
36 0 171.384 147.529
37 218.623 0 150
38 211.939 175.24 150
39 0 187.954 150
40 0 0 150
41 0 0 0
42 0 0 -10
43 219 0 150
44 229 0 140
45 229 0 0
46 219 0 -10
47 0 188 150
48 0 198 140
49 0 198 0
50 0 188 -10
51 219 188 150
52 229 188 140
53 229 188 0
54 219 188 -10
55 219 198 140
56 219 198 0
57 11.23640579768616 4.364377419112196 0
58 5.414030603405704 8.649740475638231 0
59 11.46069505433004 4.455753733672131 3.782
60 5.592636550544068 8.924751653343595 3.782
61 12.87067768454202 5.05639176300901 10.563
62 6.693587704448425 10.60869039404649 10.563
63 10.81430940784897 8.941847137562522 7.061013242074008
64 13.58331135277738 0 7.06101324868361
65 0 9.980702050325899 7.061013245375939
66 16.74096259727415 6.795869356218802 20.94499999999999
67 12.70286853114254 14.7491110361596 20.945
68 6.351739888013584 15.1087681443481 20.945
69 13.66539308134758 11.29938037790871 15.54143427199777
70 16.16471107281596 0 15.54143427199777
71 0 13.0861979365841 15.54143427202461
72 24.10828675400786 10.07870542063326 35.946
73 19.40692220094581 22.33116704058528 35.946
74 9.704181172304281 22.9465367908426 35.946
75 19.54403504804668 16.15996734786185 28.0715119839468
76 21.79212371111119 0 28.07151198394653
77 0 19.2975086897248 28.07151198398437
78 35.6744381242659 9.881514469851599 55.29399999999999
79 34.28076033039882 19.7644083152857 55.29399999999999
80 32.44523998382635 32.74656338106937 55.294
81 21.63793739308536 33.58350329817245 55.294
82 10.81752883619777 34.23940168637301 55.294
83 27.05189512999528 22.36763944178811 41.94202653608751
84 30.75097575014047 25.42646897222842 48.38047668349385
85 31.12187391533899 0 45.10396308373674
86 0 28.93594682422662 45.10396308378391
87 50.62984598147742 14.09445407509238 77.812
88 48.83997373261303 28.19057639992214 77.812
89 46.20814878143299 46.67294431468402 77.81199999999998
90 30.81615838651951 47.84562313622067 77.81199999999998
91 15.40607785073502 48.76423272061459 77.81199999999998
92 39.34893561861931 32.5359510141682 62.31758696379674
93 44.28564236159514 36.61786287372673 69.8130196681545
94 44.38140349556911 0 66.00439009529308
95 0 41.98227887697766 66.00439009535208
96 72.18251545424621 14.9698316284382 100.261
97 70.67899593091737 29.93689250986463 100.261
98 69.25797377077889 44.91193049636941 100.261
99 68.45185408569002 64.92120934421314 100.261
100 51.36032009351116 66.27388584178527 100.261
101 34.24108654834033 67.23912904167527 100.261
102 17.11797754226279 68.1342153912081 100.261
103 56.06609034338236 46.35837539803136 84.86579571139158
104 62.96669800937765 52.06398760379713 92.34042738781756
105 62.5845532812089 0 88.54897147749628
106 0 59.01273002701639 88.54897147749629
107 100.6006119038665 21.00956022275565 118.869
108 99.38284712692892 42.01824017918804 118.869
109 98.20573896282454 63.02922115053332 118.869
110 96.55063266319432 88.75497701204706 118.869
111 77.26578743697999 90.13641240791442 118.869
112 57.95271514220861 91.07446367319081 118.869
113 38.63404483259044 91.89108705106787 118.869
114 19.31496019134581 92.69797238417907 118.869
115 79.29508479532669 65.56446800344686 106.2266262088482
116 88.66479528398499 73.3113125179824 112.4262341017812
117 87.32456559346815 0 109.2966174298545
118 0 81.0059834594923 109.2966174299
119 134.6740838623617 22.82536391065259 132.821
120 134.1731349397795 45.65092896990853 132.821
121 133.6672142617745 68.47638536837701 132.821
122 133.1347337409141 91.30123348293006 132.821
123 129.2380351227031 116.6884407288131 132.821
124 107.7217113650063 117.9905682678912 132.821
125 86.18166506639839 118.8470442655311 132.821
126 64.63646649856443 119.5645490083999 132.821
127 43.08977328680757 120.2360440913249 132.821
128 21.5435018142274 120.9208719103509 132.821
129 109.3334787441006 90.40076756998837 123.4000752061109
130 120.5509864916672 99.6760401674415 128.0497088393268
131 118.1702190943566 0 125.7098807646404
132 0 107.3699601978067 125.7098807646778
133 167.7666748156716 24.03034121319344 142.017
134 167.7000689370954 48.06079919878863 142.017
135 167.6320480736318 72.09125259058219 142.017
136 167.5282626375 96.12157338463246 142.017
137 167.3094324592412 120.1510555460747 142.017
138 161.1580056406803 143.4853512544059 142.017
139 138.1566368201505 144.7004336917226 142.017
140 115.1350463533652 145.4768372505778 142.017
141 92.108977040724 146.1091158622485 142.017
142 69.0813011676732 146.6803678507512 142.017
143 46.05322983937998 147.2355564868459 142.017
144 23.02568928190212 147.8122087986685 142.017
145 148.1183023269771 122.4698856453095 137.3552634872522
146 151.2979914122021 0 137.3552634872437
147 0 134.8869530032193 137.3552634872663
148 196.7503569032173 24.27360336658228 147.529
149 196.7725633232026 48.54721567788356 147.529
150 196.8029214398568 72.82082073627062 147.529
151 196.8105823367285 97.09443936291048 147.529
152 196.7498670906525 121.3679700265732 147.529
153 196.4927368992727 145.6400174413662 147.529
154 189.150650800764 166.3331884188636 147.529
155 165.5279238983284 167.5118540174086 147.529
156 141.8858777434943 168.2443123491213 147.529
157 118.2396363376149 168.8285155653306 147.529
158 94.59177597677115 169.3435916027862 147.529
159 70.94327725430369 169.8286507139227 147.529
160 47.29472641530156 170.311172205845 147.529
161 23.6466815208487 170.8177759393898 147.529
162 178.3957340581157 147.5044225475119 144.7532742132935
163 182.2150505594468 0 144.7532742132933
164 218.4180097653703 23.48956141463876 150
165 218.2587387353301 46.9794846179315 150
166 218.1140947274016 70.46950386922879 150
167 217.9595685986162 93.95945894236387 150
168 217.7663217236045 117.4491228385988 150
169 217.4832057091966 140.9378499381577 150
170 216.9491868361172 164.4218771321926 150
171 210.0463477588326 182.5775714048419 150
172 186.7318696937987 183.7873986955782 150
173 163.3959523682604 184.519174664254 150
174 140.055584878222 185.0947687569882 150
175 116.7134517190654 185.5943216233746 150
176 93.3705184387738 186.0551222801162 150
177 70.02729059726862 186.5008318488956 150
178 46.68414666677617 186.9508886065765 150
179 23.34149870632658 187.4258919313154 150
180 202.1318468436366 167.130749374769 148.7620191341316
181 194.3315555555907 0 150
182 170.0401111112197 0 150
183 145.7486666668591 0 150
184 121.457222222476 0 150
185 97.16577777803374 0 150
186 72.87433333352763 0 150
187 48.58288888902092 0 150
188 24.29144444449813 0 150
189 0 23.49424999995837 150
190 0 46.98849999988898 150
191 0 70.4827499998196 150
192 0 93.97699999975298 150
193 0 117.471249999814 150
194 0 140.9654999998723 150
195 0 164.4597499999279 150
196 4.233333333322931 0 0
197 8.46666666665539 0 0
198 0 4.413500000014571 0
199 226.0710678378863 0 147.0710677858446
200 229 0 116.6666666666879
201 229 0 93.33333333349248
202 229 0 70.00000000029421
203 229 0 46.66666666686466
204 229 0 23.33333333343231
205 226.0710677830066 0 -7.071067840724301
206 194.6666666668054 0 -10
207 170.3333333334888 0 -10
208 146.0000000001166 0 -10
209 121.666666666782 0 -10
210 97.33333333348877 0 -10
211 73.00000000011659 0 -10
212 48.66666666674439 0 -10
213 24.33333333337222 0 -10
214 0 195.0710678378863 147.0710677858446
215 0 198 116.6666666666879
216 0 198 93.33333333349248
217 0 198 70.00000000029421
218 0 198 46.66666666686466
219 0 198 23.33333333343231
220 0 195.0710677830066 -7.071067840724301
221 0 164.5000000000326 -10
222 0 141.0000000000652 -10
223 0 117.5000000000978 -10
224 0 94.00000000012767 -10
225 0 70.49999999998541 -10
226 0 46.99999999993474 -10
227 0 23.49999999996737 -10
228 24.3333333332475 188 150
229 48.66666666649667 188 150
230 72.99999999975279 188 150
231 97.33333333300889 188 150
232 121.666666666344 188 150
233 145.999999999758 188 150
234 170.333333333172 188 150
235 194.666666666586 188 150
236 226.0710678378863 188 147.0710677858446
237 229 188 116.6666666666879
238 229 188 93.33333333349248
239 229 188 70.00000000029421
240 229 188 46.66666666686466
241 229 188 23.33333333343231
242 226.0710677830066 188 -7.071067840724301
243 194.6666666668054 188 -10
244 170.3333333334888 188 -10
245 146.0000000001166 188 -10
246 121.666666666782 188 -10
247 97.33333333348877 188 -10
248 73.00000000011659 188 -10
249 48.66666666674439 188 -10
250 24.33333333337222 188 -10
251 24.3333333332475 198 140
252 48.66666666649667 198 140
253 72.99999999975279 198 140
254 97.33333333300889 198 140
255 121.666666666344 198 140
256 145.999999999758 198 140
257 170.333333333172 198 140
258 194.666666666586 198 140
259 219 198 116.6666666666879
260 219 198 93.33333333349248
261 219 198 70.00000000029421
262 219 198 46.66666666686466
263 219 198 23.33333333343231
264 194.6666666668054 198 0
265 170.3333333334888 198 0
266 146.0000000001166 198 0
267 121.666666666782 198 0
268 97.33333333348877 198 0
269 73.00000000011659 198 0
270 48.66666666674439 198 0
271 24.33333333337222 198 0
272 219 195.0710678378863 147.0710677858446
273 226.0710677858446 195.0710678378863 140
274 226.0710677858446 195.0710678378863 0
275 219 195.07106782495 -7.071067798780907
276 219 23.49999999996765 150
277 219 46.99999999992252 150
278 219 70.49999999989195 150
279 219 93.99999999986416 150
280 219 117.5000000000084 150
281 219 141.0000000000612 150
282 219 164.5000000000306 150
283 229 23.49999999996765 140
284 229 46.99999999992252 140
285 229 70.49999999989195 140
286 229 93.99999999986416 140
287 229 117.5000000000084 140
288 229 141.0000000000612 140
289 229 164.5000000000306 140
290 229 23.49999999996765 0
291 229 46.99999999992252 0
292 229 70.49999999989195 0
293 229 93.99999999986416 0
294 229 117.5000000000084 0
295 229 141.0000000000612 0
296 229 164.5000000000306 0
297 219 23.49999999996765 -10
298 219 46.99999999992252 -10
299 219 70.49999999989195 -10
300 219 93.99999999986416 -10
301 219 117.5000000000084 -10
302 219 141.0000000000612 -10
303 219 164.5000000000306 -10
304 10.70923331783083 6.332218369325311 1.890906505021362
305 7.729933032408259 8.704726123348671 1.888331778574143
306 12.77789141629835 2.751273408152718 7.196182059552831
307 11.69669065369601 6.354718077243282 7.235339702650677
308 7.821547609605044 9.698992178851281 7.183849686240557
309 3.471798332044359 9.877419556459646 7.202937569730051
310 14.96602797363083 8.758635552124662 17.72238970620634
311 15.26845487846576 4.106550140036582 15.80593150802227
312 13.54594741682142 8.045283878486629 14.01503981359881
313 3.912583278176232 12.95644487811254 15.70518225695846
314 9.153148036892203 12.74498011688422 15.80978746157001
315 10.30337440569754 11.44546149985013 12.94126874836316
316 21.08093592998977 5.592686090447073 28.69405830894027
317 18.8373045701176 10.2791915585096 26.12534301315734
318 21.40634424778786 12.17696252785152 31.52292719982146
319 14.63674874139403 17.55052927727012 26.41548396691631
320 14.66509639262767 20.22506084335172 31.40896650057507
321 9.023105611673241 18.18339946623767 26.96845907487567
322 6.254665816036791 20.87020443683558 31.70230726313044
323 26.11003787522733 16.43254926758681 40.90236297904994
324 29.46528280388612 16.76300248235993 46.56168939546708
325 28.2669980655161 8.785102697572722 42.54863919122121
326 32.78397005163087 9.303746990590188 50.27786857386459
327 26.53245108598662 30.29577774886506 50.3092184250069
328 32.12242739382275 30.27349801473562 51.19287063493017
329 24.48516878601605 26.90488348675954 44.32982549405178
330 6.335577454714404 28.91845241831148 45.77940721245081
331 16.85437912346627 28.56524039010602 46.24276567754403
332 44.53832340131014 8.208435574953203 67.8218633341575
333 39.24628665660821 12.95460671495795 61.09025036489069
334 38.23093221186078 24.13468269620186 61.77984273802424
335 43.89759998153949 19.30542177033775 69.05424347926979
336 42.70632558353807 28.11478674919046 68.9241238047527
337 38.97704523829931 43.36903228231118 71.9302943046127
338 45.98472014740406 43.20458574108224 72.73869083637115
339 36.07889642444243 38.50091965685391 64.30725279238673
340 27.5356469405768 40.61334074699295 66.5268182310637
341 7.132387587122821 41.48740097601889 65.97943426767921
342 16.03101259845639 39.99491787825579 64.52213565094166
343 64.38236978952762 9.006677490559245 91.46532881394052
344 56.62822273967286 7.51799390989531 83.18048573874813
345 60.38778036530682 19.91719419563005 88.58099613250613
346 59.64029995320158 30.98873941250243 89.07403945797847
347 54.59960369083922 37.41500716583277 84.63559329725805
348 62.63485718878141 40.01316900431538 93.0520243691373
349 39.21499539817682 57.50526785497912 89.42145374268574
350 23.60403869332327 58.13657527232948 89.13411367496113
351 60.30886016754653 60.32337735435967 94.32315414040602
352 54.93219838458458 53.58744654771478 86.35348682317114
353 49.66499266198934 56.99691763302728 89.62829971363783
354 10.08638885217744 58.95769577687567 89.21302150391801
355 87.5342171752835 11.55755140095781 109.9915551392877
356 86.19848029822211 27.27405831991339 109.8874701786124
357 82.59034194319183 42.08119490029748 108.3233474251991
358 88.68880937558819 53.15404979200709 112.5939433670254
359 78.82186120515642 54.57412144291256 106.5656877354644
360 87.11287707392073 62.31583853395426 111.9689215981634
361 11.32716989456023 80.98001501543906 109.7320367528303
362 87.77119277046313 83.68513498421311 114.7233173696259
363 45.90329736473358 79.36177322236682 109.7279004634491
364 26.51562191662874 80.19812401761715 109.6847104154474
365 65.68779978815562 77.81856687631463 109.3522223952657
366 78.48299129302578 80.34954726413942 111.8052260740409
367 75.8018896923035 73.26414740249967 106.6049828401996
368 117.1871260733117 36.40200921911586 125.8630098549759
369 118.0960010352208 14.93802980004891 125.9088904090642
370 116.4619811194707 58.79270563677846 125.9044910430999
371 109.6891175089605 75.44015862510673 123.5170195342284
372 123.0533711466646 75.1928371596605 128.7086171142459
373 119.3989634428052 86.37467158895241 127.4257246627538
374 116.6574917222259 108.6234463397815 128.6738285827621
375 90.37450900039092 104.2200265009493 125.8774002427953
376 71.9326696616377 105.1524151454359 125.9453653753368
377 51.54866440118468 105.814267292682 125.9000841847546
378 32.94126929104842 106.448126783153 125.887253231188
379 13.60882482350303 107.29171181034 125.9504197434997
380 104.0003743513538 102.6670380460842 125.5035226746209
381 109.2958256608239 98.39779190134246 123.7561235068209
382 151.1219783779743 37.31665990629262 137.4296430171644
383 150.931911130554 58.89980590467549 137.4436678800684
384 148.2406042892934 101.5609961565883 136.8770596430289
385 151.4380665729933 15.48758953946291 137.4484566293456
386 158.6007396079408 114.2013358216699 139.6822099963656
387 150.8597174748409 82.63615795187849 137.5006288322498
388 13.98605720256734 134.7727696086131 137.4711977182256
389 32.92257949536184 134.4153950813498 137.5372635175866
390 56.40337369005757 133.5874783114779 137.4741079132908
391 78.51350059898925 132.8577993751251 137.4336829495924
392 100.9048614646167 132.0281920189983 137.3817977938489
393 123.1491624595417 130.9582448766993 137.298229957078
394 142.6835335612348 132.4740494460748 138.1166491245226
395 182.1728570067164 109.4494610014837 144.7806342464057
396 182.9086572790185 135.442761838416 144.9682969063913
397 182.2958810726765 15.03474578808972 144.7767399521912
398 182.1543018052742 35.26415787648708 144.7546372178216
399 182.2006132874604 60.81116429320831 144.7660772375073
400 182.1968768936134 84.61117879849735 144.7700457613118
401 171.7110296796155 156.7830329881421 145.139442265177
402 151.7464530043308 155.9319681317495 144.7331647854565
403 35.69300407159697 159.0272988705955 144.773
404 206.8995586470244 156.3039496991334 148.7885866290006
405 196.0718562983986 176.899245624032 149.0732675562626
406 201.5871855135506 173.6215088524814 148.6736005253519
407 104.5657417570728 93.6273252028904 150
408 156.6451404342042 123.4739169863215 150
409 156.5995539592474 61.27622371961334 150
410 57.92553398426008 129.8370073086107 150
411 57.24149609719646 61.17121201664727 150
412 104.142169134449 140.2424441293798 150
413 114.5601799206801 47.67956217604282 150
414 191.877603052515 159.5874715630852 150
415 37.96022720189497 94.73355023205897 150
416 180.4831459764672 91.61021635947705 150
417 179.4991461175192 34.38170303997266 150
418 140.6217456960142 92.27926565127419 150
419 33.03771704077802 154.2266332781735 150
420 140.8938033107932 151.2536598311932 150
421 38.85276606938974 33.33485895806535 150
422 79.71611915542293 33.48981942781654 150
423 73.11992272565074 100.9428564595426 150
424 144.3289467063578 28.2461015419204 150
425 74.74627568182291 154.4926264671699 150
426 190.6991351823719 126.5891740434136 150
427 87.15598235450508 66.23353502049007 150
428 126.3797175718204 119.7750295880575 150
429 188.877057311999 68.18718008864306 150
430 28.92237750921475 126.3507155120298 150
431 27.57964898674353 67.03955238152562 150
432 159.6935638185525 146.1390582959901 150
433 128.0137910931894 66.27194762528305 150
434 82.46367669342197 122.7088020242267 150
435 59.29551006335639 20.95835066578353 150
436 103.1344088352793 163.131874728164 150
437 105.3692950232827 24.50626327576563 150
438 56.10889624117786 167.5751128312561 150
439 163.9931693201703 20.16784733731449 150
440 197.9933441724172 175.5557402400774 150
441 205.9225247981975 159.7420268600415 150
442 197.0286327185379 104.2047782546747 150
443 59.13694878943656 83.57949777789771 150
444 107.2644409047158 117.2793915824207 150
445 20.21964231614191 104.6072871327746 150
446 159.2036351442691 101.4486034735445 150
447 106.6411195071716 70.88063975479938 150
448 200.4924998666044 85.6862275028775 150
449 150.5167023680541 167.0676863156393 150
450 197.7818771118867 20.5560404142026 150
451 163.115534121088 79.07632191848505 150
452 54.88424105094686 108.6063226300339 150
453 18.81671060540766 84.46784214066024 150
454 126.8030566688094 166.0822169769804 150
455 19.30907684316203 47.3528677695806 150
456 175.8525129857949 113.5545662492547 150
457 176.1437900771984 166.1025214339389 150
458 161.0702349915949 42.30394718323646 150
459 19.26860774157223 168.2207837913444 150
460 20.02087395930366 19.90466317503615 150
461 122.6825981563413 101.9312434621187 150
462 84.47694357157653 84.69061130628582 150
463 198.7928753335743 46.87902099724299 150
464 18.87892879174639 141.7163780645147 150
465 74.55811063998026 53.0875926037366 150
466 128.2488178186551 18.04661093729866 150
467 40.41271830481894 53.70520224452972 150
468 85.02005555578069 14.95844401720819 150
469 121.3183970608947 141.5288165616865 150
470 142.412600549662 111.046565778979 150
471 140.6111830003955 132.93709909561 150
472 49.91290130371062 146.5542868799052 150
473 139.1215396738907 50.88268101274966 150
474 94.11003681183158 48.69767778020253 150
475 38.05534231758756 14.95569677773002 150
476 199.2928090189394 142.7092222867362 150
477 90.04961252912048 104.241068774639 150
478 81.43553905556948 172.48469007623 150
479 35.68817327932617 172.8798620877332 150
480 180.7914514310482 15.19436874924628 150
481 173.1375694975429 131.1635671675857 150
482 124.0085124465083 83.34103589169379 150
483 142.8553213755437 73.18706111703473 150
484 86.62603888734108 141.2355287637076 150
485 58.88600424936583 42.25124297894227 150
486 173.3624126927832 57.42790195176894 150
487 71.87599032369049 69.5812888388572 150
488 182.7974950667908 146.0611202629484 150
489 125.2199464321634 34.28553786356316 150
490 42.05631990884354 77.65649336731435 150
491 39.98240441249172 112.8269765631016 150
492 6.441750871960673 4.209471757350944 0
493 3.024377423013714 5.736379216451177 0
494 2.739892325659464 2.871870194763339 0
495 225.2237414144595 175.1028671774679 147.8271989118676
496 225.2242049071354 12.89759590460179 147.8268303465701
497 229 82.55343050577869 69.57194726461478
498 229 133.0993295456611 84.84897409836472
499 229 46.37606856835517 94.50091688666582
500 229 43.09074628741052 43.88062681858855
501 229 118.6229627018095 44.44093836061756
502 229 101.9990541893973 104.5671265468402
503 229 153.6500645177252 35.00000000014846
504 229 82.24999999987804 34.01383928571661
505 229 159.2000825989897 107.6826393632375
506 229 157.1982850575312 64.52936641733082
507 229 70.27710861422243 109.9155484766738
508 229 29.46664858108639 70.00000000000493
509 229 123.9186096034406 117.4063183471113
510 229 110.4398900314139 70.84097350697344
511 229 28.93377442610911 111.3134389449536
512 229 26.24253900702713 26.26272380944205
513 229 55.85832429048232 71.03708675690552
514 229 60.42336003904249 23.04758231245345
515 229 103.2954491374706 24.08521586296484
516 229 131.5340522026514 23.47899027837909
517 229 134.4638287683315 64.92907216240133
518 229 165.4121305869403 88.99634344042005
519 229 96.0569602616702 51.22395956733073
520 229 67.7708057883569 50.45707470026704
521 229 49.68887921630206 119.0256658028149
522 229 20.94850214267577 91.07458719520682
523 229 21.44874098410144 48.55447499283859
524 229 69.74130604257428 88.00490966841123
525 229 105.0316479941059 124.2853023530306
526 229 167.7789695205758 20.19820450667582
527 229 169.5864771825748 47.37695570597507
528 229 116.4374843929886 92.05871043867077
529 229 86.30387216615833 122.1224331567727
530 229 95.28078372446784 84.88739157356865
531 229 82.20932992369922 15.30329797943381
532 229 169.8172179828641 121.9112859240828
533 229 149.3628408861188 16.76347398267576
534 229 139.0938386496098 46.47567344377545
535 229 149.9255422862761 121.4731163828067
536 229 41.79352167784495 17.2193926639794
537 229 174.253745821583 104.7397334573023
538 229 84.47130916926551 100.8048307599076
539 229 141.8671417382918 100.4133669279061
540 229 14.30036663082983 125.7647497979931
541 229 13.30272930691543 15.60461817476354
542 229 148.2239703845052 80.79605427765509
543 229 35.24999999994507 127.9524583965024
544 229 11.98244837295631 105.0000000000902
545 229 11.98244837299003 35.00000000014846
546 227.0176674252043 175.2127593894045 -5.976370893679261
547 227.0176668222722 12.78723995914696 -5.976371702549591
548 92.62912043494609 98.20212597495365 -10
549 155.5268166408905 66.38227080073541 -10
550 159.8693861320431 126.150709730465 -10
551 54.76726515769644 55.01314926496458 -10
552 54.76726515769644 132.9868507350354 -10
553 110.5196587606533 140.2193574873952 -10
554 110.4769438487022 48.5070457915468 -10
555 41.04848732370284 95.92394584595701 -10
556 181.0476948185949 93.35178517725231 -10
557 179.5941245313792 36.4513457822919 -10
558 131.8813237004807 97.51678183168085 -10
559 184.2047075218749 152.7500000000459 -10
560 142.8434804703514 34.40448003473551 -10
561 81.68882492368203 155.6625698738603 -10
562 142.9559914745699 155.083413434855 -10
563 33.89239525263199 157.1597300768955 -10
564 33.73257033067343 30.75484732404389 -10
565 76.0749740060493 31.07424036762789 -10
566 83.29091224035629 118.8350929760525 -10
567 184.1826673234824 123.3578005250648 -10
568 83.47093579492156 65.37741575235913 -10
569 189.7675708444585 67.6484471142596 -10
570 29.78296983686917 120.2931144473858 -10
571 29.18219454438903 66.22570079470502 -10
572 124.0670289972044 72.23130967058987 -10
573 67.58202493461228 101.4466026760448 -10
574 127.0314175536318 125.9230179216931 -10
575 58.27368370093677 160.7559300475135 -10
576 106.6902319514475 164.5219240012236 -10
577 107.528098041613 115.7633653030691 -10
578 109.4740570013135 23.33858352445942 -10
579 54.33947060582241 28.88008073159577 -10
580 155.8863518298565 90.2365201478728 -10
581 160.4962734778644 167.7508890000618 -10
582 158.8470893721487 21.02892954612826 -10
583 62.14916360197519 76.40730949668207 -10
584 196.829445939134 22.10863517414627 -10
585 199.4928787996611 103.7500042088891 -10
586 159.3611374347163 44.76023492856009 -10
587 21.06416677561916 86.36721795688214 -10
588 101.9155856288311 73.47497291313819 -10
589 201.6616288925429 85.85004730003143 -10
590 198.5477502517563 167.6706019155113 -10
591 18.77028324065659 141.6310801888852 -10
592 18.71484590724221 46.25473560142829 -10
593 50.61102387487593 113.0963424592344 -10
594 171.1447390749487 75.82932120488977 -10
595 199.0504250080109 47.20914151697375 -10
596 164.5626658405676 108.062745531548 -10
597 136.4617698553208 54.37855847147139 -10
598 199.3179606109827 140.1102231670489 -10
599 111.604231360615 91.43771113868632 -10
600 165.0688074932107 144.8276292366681 -10
601 17.57412770360781 103.8077918643559 -10
602 133.4286247706277 19.04400311184938 -10
603 18.85710946783991 19.0900882122364 -10
604 18.89298651040205 168.8766439863057 -10
605 146.7400829535177 113.5206143197228 -10
606 133.5984142149168 171.3495077091503 -10
607 89.74947198339378 18.34879421687405 -10
608 79.47459864115747 83.35205329318467 -10
609 84.70606382296982 172.8875242105821 -10
610 181.649746250358 172.8342981831238 -10
611 72.76377206454627 50.10142270904625 -10
612 180.0541319685912 15.91778210051328 -10
613 72.77549957482307 138.0612090732935 -10
614 92.3767838064341 140.0917455633612 -10
615 175.740802255734 56.38012689128508 -10
616 36.09328069656509 15.25527270911911 -10
617 36.36190723575152 173.9690536520211 -10
618 141.2165264823268 78.87254250835902 -10
619 65.8053451564728 120.8852195839321 -10
620 126.5369751892631 35.93453418681249 -10
621 38.54126991986647 140.6612316266737 -10
622 38.16874498858333 46.28423746339229 -10
623 90.2685090583438 46.22676518064936 -10
624 144.0156455338245 136.4894908585319 -10
625 126.0284535380214 150.2169591228023 -10
626 43.09261300629851 77.10101172176437 -10
627 68.36611665242529 15.66062306321954 -10
628 13.35811762260434 193.7412851709355 148.1876519580399
629 205.6418818234724 193.741285634655 148.187651632874
630 227.0889014172211 193.8795981038229 12.697297511913
631 227.0889014217656 193.8795980975707 127.3027024950559
632 13.35811784749939 196.1876516271585 -5.741285642805829
633 205.6418821837586 193.7412857500511 -8.187651551956765
634 82.49859492500588 198 69.83683659056001
635 151.4156260972456 198 66.39374310212941
636 44.11849247131497 198 96.16761894962931
637 43.57906507112883 198 43.79055714358827
638 122.0034050584474 198 94.14499353897135
639 116.5583822726323 198 44.97468825899391
640 177.9282910299958 198 99.73817983118607
641 179.3599566052301 198 37.43599412669953
642 85.28519404687418 198 106.0367400822889
643 82.52616882899177 198 34.40160240196626
644 147.0337719205557 198 29.70691319132873
645 187.4907140268606 198 69.16783570044237
646 147.3644357135671 198 109.0215796177481
647 29.30076874778487 198 69.99999999999808
648 127.6079065452132 198 68.86574735063562
649 26.77167355197412 198 113.3609794698384
650 26.78159623222136 198 26.90795035644834
651 55.91533570109216 198 70.06348306264712
652 62.37752810194183 198 116.7122799120404
653 61.17121565867636 198 23.28032506368605
654 106.6037188913903 198 116.9218509118473
655 195.0217790879185 198 116.0155696202586
656 104.0232038549813 198 23.96263092199272
657 146.2804883521008 198 85.63080843280241
658 197.6777436819339 198 23.09510353129105
659 69.3439474965771 198 90.58320616936527
660 21.32716582192736 198 91.23415738393361
661 21.30419341808896 198 48.77569553848922
662 127.8856351462728 198 21.9882128897418
663 97.5476173692187 198 89.12257533342317
664 197.4023220125081 198 88.86929213022673
665 95.97204140393782 198 50.58421493513998
666 197.9072399952052 198 50.44207265251419
667 68.16266849189894 198 49.79581625441821
668 128.7276452659014 198 120.0176848137133
669 137.4427961301617 198 47.99722207909844
670 168.4841474909543 198 118.2956181569025
671 166.8924648242609 198 21.3727945992726
672 169.4155284457819 198 80.00047237277587
673 171.9979761383377 198 57.8980162921147
674 105.96047563634 198 69.41698981775212
675 84.05532214426574 198 15.99227139735117
676 85.16666666638085 198 125.1973971633278
677 43.0404881468773 198 122.222067060676
678 42.07910100789024 198 16.99600696672525
679 160.7331197066024 198 96.3310410954779
680 159.0237652859652 198 43.4674472317739
681 13.70422820148044 198 124.2610268318161
682 13.70524071987557 198 15.76641498721362
683 181.8461708597821 198 15.36943166993389
684 182.1264816446577 198 128.5777969442903
685 12.07217164095437 198 105.0000000000902
686 12.07217164097955 198 35.00000000014849
687 206.9221114386261 198 128.1705590717366
$EndNodes
$Elements
1286
1 2 2 1 1 1 4 59
2 2 2 1 1 5 304 59
3 2 2 1 1 57 304 2
4 2 2 1 1 1 59 57
5 2 2 1 1 304 5 2
6 2 2 1 1 304 57 59
7 2 2 1 2 2 305 58
8 2 2 1 2 6 3 58
9 2 2 1 2 60 305 5
10 2 2 1 2 6 58 60
11 2 2 1 2 305 2 5
12 2 2 1 2 305 60 58
13 2 2 1 3 306 307 59
14 2 2 1 3 307 63 5
15 2 2 1 3 59 307 5
16 2 2 1 3 307 306 61
17 2 2 1 3 306 64 7
18 2 2 1 3 61 306 7
19 2 2 1 3 306 59 4
20 2 2 1 3 63 307 8
21 2 2 1 3 307 61 8
22 2 2 1 3 64 306 4
23 2 2 1 4 308 62 309
24 2 2 1 4 63 308 5
25 2 2 1 4 308 309 60
26 2 2 1 4 308 60 5
27 2 2 1 4 309 65 6
28 2 2 1 4 60 309 6
29 2 2 1 4 65 309 9
30 2 2 1 4 309 62 9
31 2 2 1 4 62 308 8
32 2 2 1 4 308 63 8
33 2 2 1 5 310 311 66
34 2 2 1 5 61 311 312
35 2 2 1 5 311 10 66
36 2 2 1 5 70 10 311
37 2 2 1 5 312 311 310
38 2 2 1 5 310 69 312
39 2 2 1 5 70 311 7
40 2 2 1 5 311 61 7
41 2 2 1 5 312 8 61
42 2 2 1 5 310 66 11
43 2 2 1 5 69 310 11
44 2 2 1 5 8 312 69
45 2 2 1 6 71 313 12
46 2 2 1 6 314 313 62
47 2 2 1 6 71 9 313
48 2 2 1 6 313 9 62
49 2 2 1 6 69 11 67
50 2 2 1 6 313 68 12
51 2 2 1 6 68 313 314
52 2 2 1 6 67 314 69
53 2 2 1 6 314 67 68
54 2 2 1 6 315 8 69
55 2 2 1 6 315 314 62
56 2 2 1 6 8 315 62
57 2 2 1 6 314 315 69
58 2 2 1 7 76 316 10
59 2 2 1 7 13 316 76
60 2 2 1 7 66 316 317
61 2 2 1 7 14 75 318
62 2 2 1 7 14 318 72
63 2 2 1 7 316 66 10
64 2 2 1 7 316 13 72
65 2 2 1 7 316 318 317
66 2 2 1 7 317 11 66
67 2 2 1 7 318 316 72
68 2 2 1 7 318 75 317
69 2 2 1 7 11 317 75
70 2 2 1 8 11 75 319
71 2 2 1 8 67 11 319
72 2 2 1 8 320 321 319
73 2 2 1 8 68 77 12
74 2 2 1 8 74 320 73
75 2 2 1 8 321 322 77
76 2 2 1 8 320 322 321
77 2 2 1 8 74 322 320
78 2 2 1 8 319 75 320
79 2 2 1 8 15 77 322
80 2 2 1 8 320 14 73
81 2 2 1 8 15 322 74
82 2 2 1 8 319 321 67
83 2 2 1 8 14 320 75
84 2 2 1 8 67 321 68
85 2 2 1 8 321 77 68
86 2 2 1 9 323 325 324
87 2 2 1 9 326 324 325
88 2 2 1 9 324 326 79
89 2 2 1 9 325 85 326
90 2 2 1 9 79 17 84
91 2 2 1 9 13 85 325
92 2 2 1 9 13 325 72
93 2 2 1 9 85 16 326
94 2 2 1 9 326 16 78
95 2 2 1 9 83 324 84
96 2 2 1 9 324 79 84
97 2 2 1 9 79 326 78
98 2 2 1 9 323 14 72
99 2 2 1 9 325 323 72
100 2 2 1 9 324 83 323
101 2 2 1 9 14 323 83
102 2 2 1 10 327 84 328
103 2 2 1 10 73 14 83
104 2 2 1 10 84 327 329
105 2 2 1 10 86 15 330
106 2 2 1 10 330 15 74
107 2 2 1 10 18 86 330
108 2 2 1 10 18 330 82
109 2 2 1 10 329 331 73
110 2 2 1 10 327 80 81
111 2 2 1 10 327 81 331
112 2 2 1 10 327 331 329
113 2 2 1 10 330 74 331
114 2 2 1 10 82 330 331
115 2 2 1 10 84 329 83
116 2 2 1 10 83 329 73
117 2 2 1 10 17 328 84
118 2 2 1 10 73 331 74
119 2 2 1 10 82 331 81
120 2 2 1 10 328 17 80
121 2 2 1 10 327 328 80
122 2 2 1 11 332 333 16
123 2 2 1 11 16 333 78
124 2 2 1 11 88 20 93
125 2 2 1 11 333 335 334
126 2 2 1 11 333 334 79
127 2 2 1 11 16 94 332
128 2 2 1 11 94 19 332
129 2 2 1 11 332 19 87
130 2 2 1 11 335 336 334
131 2 2 1 11 335 333 332
132 2 2 1 11 78 333 79
133 2 2 1 11 334 92 17
134 2 2 1 11 92 334 336
135 2 2 1 11 79 334 17
136 2 2 1 11 88 336 335
137 2 2 1 11 92 336 93
138 2 2 1 11 335 87 88
139 2 2 1 11 336 88 93
140 2 2 1 11 332 87 335
141 2 2 1 12 337 93 338
142 2 2 1 12 80 17 92
143 2 2 1 12 339 340 80
144 2 2 1 12 21 95 341
145 2 2 1 12 21 341 91
146 2 2 1 12 91 340 90
147 2 2 1 12 95 18 341
148 2 2 1 12 341 18 82
149 2 2 1 12 93 337 339
150 2 2 1 12 90 337 89
151 2 2 1 12 90 340 337
152 2 2 1 12 341 82 342
153 2 2 1 12 91 341 342
154 2 2 1 12 339 92 93
155 2 2 1 12 340 81 80
156 2 2 1 12 92 339 80
157 2 2 1 12 342 81 340
158 2 2 1 12 91 342 340
159 2 2 1 12 81 342 82
160 2 2 1 12 337 340 339
161 2 2 1 12 20 338 93
162 2 2 1 12 338 20 89
163 2 2 1 12 337 338 89
164 2 2 1 13 343 345 344
165 2 2 1 13 346 347 88
166 2 2 1 13 98 23 104
167 2 2 1 13 105 22 343
168 2 2 1 13 343 22 96
169 2 2 1 13 344 345 87
170 2 2 1 13 105 344 19
171 2 2 1 13 344 105 343
172 2 2 1 13 344 87 19
173 2 2 1 13 347 103 20
174 2 2 1 13 346 348 347
175 2 2 1 13 88 347 20
176 2 2 1 13 103 347 348
177 2 2 1 13 103 348 104
178 2 2 1 13 346 97 348
179 2 2 1 13 348 98 104
180 2 2 1 13 98 348 97
181 2 2 1 13 343 96 345
182 2 2 1 13 346 88 345
183 2 2 1 13 87 345 88
184 2 2 1 13 97 346 345
185 2 2 1 13 97 345 96
186 2 2 1 14 349 101 350
187 2 2 1 14 90 349 350
188 2 2 1 14 351 353 352
189 2 2 1 14 24 106 354
190 2 2 1 14 24 354 102
191 2 2 1 14 106 21 354
192 2 2 1 14 354 21 91
193 2 2 1 14 104 351 352
194 2 2 1 14 89 353 349
195 2 2 1 14 20 103 89
196 2 2 1 14 89 352 353
197 2 2 1 14 354 91 350
198 2 2 1 14 102 354 350
199 2 2 1 14 89 103 352
200 2 2 1 14 100 351 99
201 2 2 1 14 353 100 349
202 2 2 1 14 89 349 90
203 2 2 1 14 101 349 100
204 2 2 1 14 102 350 101
205 2 2 1 14 90 350 91
206 2 2 1 14 100 353 351
207 2 2 1 14 351 23 99
208 2 2 1 14 104 352 103
209 2 2 1 14 351 104 23
210 2 2 1 15 117 355 22
211 2 2 1 15 355 356 96
212 2 2 1 15 117 25 355
213 2 2 1 15 109 26 116
214 2 2 1 15 355 25 107
215 2 2 1 15 355 96 22
216 2 2 1 15 357 108 358
217 2 2 1 15 109 358 108
218 2 2 1 15 357 358 359
219 2 2 1 15 358 109 360
220 2 2 1 15 357 359 98
221 2 2 1 15 108 357 356
222 2 2 1 15 360 109 116
223 2 2 1 15 359 115 23
224 2 2 1 15 115 360 116
225 2 2 1 15 98 359 23
226 2 2 1 15 356 107 108
227 2 2 1 15 355 107 356
228 2 2 1 15 357 97 356
229 2 2 1 15 356 97 96
230 2 2 1 15 97 357 98
231 2 2 1 15 360 115 359
232 2 2 1 15 358 360 359
233 2 2 1 16 361 118 24
234 2 2 1 16 102 361 24
235 2 2 1 16 27 118 361
236 2 2 1 16 27 361 114
237 2 2 1 16 23 115 99
238 2 2 1 16 116 26 362
239 2 2 1 16 363 113 364
240 2 2 1 16 101 363 364
241 2 2 1 16 365 112 363
242 2 2 1 16 100 365 363
243 2 2 1 16 361 102 364
244 2 2 1 16 114 361 364
245 2 2 1 16 366 365 367
246 2 2 1 16 367 365 99
247 2 2 1 16 111 365 366
248 2 2 1 16 111 366 362
249 2 2 1 16 362 26 110
250 2 2 1 16 111 362 110
251 2 2 1 16 113 363 112
252 2 2 1 16 100 363 101
253 2 2 1 16 101 364 102
254 2 2 1 16 114 364 113
255 2 2 1 16 99 365 100
256 2 2 1 16 112 365 111
257 2 2 1 16 116 366 367
258 2 2 1 16 366 116 362
259 2 2 1 16 115 367 99
260 2 2 1 16 367 115 116
261 2 2 1 17 107 369 368
262 2 2 1 17 370 371 109
263 2 2 1 17 369 119 368
264 2 2 1 17 29 130 122
265 2 2 1 17 368 119 120
266 2 2 1 17 368 108 107
267 2 2 1 17 369 131 28
268 2 2 1 17 119 369 28
269 2 2 1 17 108 368 370
270 2 2 1 17 368 120 370
271 2 2 1 17 370 120 121
272 2 2 1 17 370 109 108
273 2 2 1 17 131 369 25
274 2 2 1 17 369 107 25
275 2 2 1 17 370 121 372
276 2 2 1 17 122 372 121
277 2 2 1 17 370 372 371
278 2 2 1 17 372 122 373
279 2 2 1 17 373 122 130
280 2 2 1 17 109 371 26
281 2 2 1 17 373 129 371
282 2 2 1 17 371 129 26
283 2 2 1 17 129 373 130
284 2 2 1 17 372 373 371
285 2 2 1 18 130 29 374
286 2 2 1 18 374 29 123
287 2 2 1 18 375 125 376
288 2 2 1 18 26 129 110
289 2 2 1 18 110 375 111
290 2 2 1 18 111 375 376
291 2 2 1 18 377 127 378
292 2 2 1 18 113 377 378
293 2 2 1 18 132 379 30
294 2 2 1 18 379 128 30
295 2 2 1 18 379 132 27
296 2 2 1 18 114 379 27
297 2 2 1 18 376 126 377
298 2 2 1 18 112 376 377
299 2 2 1 18 379 114 378
300 2 2 1 18 128 379 378
301 2 2 1 18 124 380 374
302 2 2 1 18 374 380 381
303 2 2 1 18 380 124 375
304 2 2 1 18 113 378 114
305 2 2 1 18 374 123 124
306 2 2 1 18 128 378 127
307 2 2 1 18 125 375 124
308 2 2 1 18 112 377 113
309 2 2 1 18 127 377 126
310 2 2 1 18 126 376 125
311 2 2 1 18 111 376 112
312 2 2 1 18 110 380 375
313 2 2 1 18 130 374 381
314 2 2 1 18 381 129 130
315 2 2 1 18 129 381 110
316 2 2 1 18 381 380 110
317 2 2 1 19 134 383 382
318 2 2 1 19 384 29 122
319 2 2 1 19 383 120 382
320 2 2 1 19 28 146 385
321 2 2 1 19 119 28 385
322 2 2 1 19 385 146 31
323 2 2 1 19 133 385 31
324 2 2 1 19 384 136 386
325 2 2 1 19 136 384 387
326 2 2 1 19 384 122 387
327 2 2 1 19 135 387 383
328 2 2 1 19 387 121 383
329 2 2 1 19 137 386 136
330 2 2 1 19 384 145 29
331 2 2 1 19 119 385 382
332 2 2 1 19 385 133 382
333 2 2 1 19 145 384 386
334 2 2 1 19 32 386 137
335 2 2 1 19 386 32 145
336 2 2 1 19 387 122 121
337 2 2 1 19 387 135 136
338 2 2 1 19 382 133 134
339 2 2 1 19 382 120 119
340 2 2 1 19 383 134 135
341 2 2 1 19 383 121 120
342 2 2 1 20 147 388 33
343 2 2 1 20 388 389 144
344 2 2 1 20 29 145 123
345 2 2 1 20 389 388 128
346 2 2 1 20 143 389 390
347 2 2 1 20 390 389 127
348 2 2 1 20 142 390 391
349 2 2 1 20 391 390 126
350 2 2 1 20 141 391 392
351 2 2 1 20 392 391 125
352 2 2 1 20 393 140 392
353 2 2 1 20 393 392 124
354 2 2 1 20 388 144 33
355 2 2 1 20 394 139 393
356 2 2 1 20 394 138 139
357 2 2 1 20 394 393 123
358 2 2 1 20 394 32 138
359 2 2 1 20 388 147 30
360 2 2 1 20 128 388 30
361 2 2 1 20 124 392 125
362 2 2 1 20 141 392 140
363 2 2 1 20 125 391 126
364 2 2 1 20 142 391 141
365 2 2 1 20 140 393 139
366 2 2 1 20 123 393 124
367 2 2 1 20 126 390 127
368 2 2 1 20 143 390 142
369 2 2 1 20 127 389 128
370 2 2 1 20 144 389 143
371 2 2 1 20 394 123 145
372 2 2 1 20 32 394 145
373 2 2 1 21 395 152 396
374 2 2 1 21 395 396 137
375 2 2 1 21 152 153 396
376 2 2 1 21 396 32 137
377 2 2 1 21 148 398 397
378 2 2 1 21 398 149 399
379 2 2 1 21 398 399 134
380 2 2 1 21 151 395 400
381 2 2 1 21 400 395 136
382 2 2 1 21 150 400 399
383 2 2 1 21 399 400 135
384 2 2 1 21 396 162 32
385 2 2 1 21 163 397 31
386 2 2 1 21 397 398 133
387 2 2 1 21 397 133 31
388 2 2 1 21 396 35 162
389 2 2 1 21 35 396 153
390 2 2 1 21 136 395 137
391 2 2 1 21 152 395 151
392 2 2 1 21 397 163 34
393 2 2 1 21 148 397 34
394 2 2 1 21 398 148 149
395 2 2 1 21 398 134 133
396 2 2 1 21 399 135 134
397 2 2 1 21 399 149 150
398 2 2 1 21 400 150 151
399 2 2 1 21 400 136 135
400 2 2 1 22 401 155 402
401 2 2 1 22 161 36 33
402 2 2 1 22 401 402 138
403 2 2 1 22 32 162 138
404 2 2 1 22 402 156 139
405 2 2 1 22 156 402 155
406 2 2 1 22 138 402 139
407 2 2 1 22 403 143 160
408 2 2 1 22 403 161 144
409 2 2 1 22 161 403 160
410 2 2 1 22 143 403 144
411 2 2 1 22 154 155 401
412 2 2 1 22 140 157 158
413 2 2 1 22 33 144 161
414 2 2 1 22 140 158 141
415 2 2 1 22 35 401 162
416 2 2 1 22 401 138 162
417 2 2 1 22 401 35 154
418 2 2 1 22 141 159 142
419 2 2 1 22 158 159 141
420 2 2 1 22 142 160 143
421 2 2 1 22 159 160 142
422 2 2 1 22 156 157 139
423 2 2 1 22 139 157 140
424 2 2 1 23 35 404 180
425 2 2 1 23 38 404 170
426 2 2 1 23 168 169 152
427 2 2 1 23 148 34 164
428 2 2 1 23 169 170 404
429 2 2 1 23 152 169 153
430 2 2 1 23 167 168 151
431 2 2 1 23 167 151 150
432 2 2 1 23 151 168 152
433 2 2 1 23 149 166 150
434 2 2 1 23 166 167 150
435 2 2 1 23 165 166 149
436 2 2 1 23 164 165 148
437 2 2 1 23 164 34 37
438 2 2 1 23 148 165 149
439 2 2 1 23 404 38 180
440 2 2 1 23 169 404 153
441 2 2 1 23 404 35 153
442 2 2 1 24 179 39 36
443 2 2 1 24 177 178 160
444 2 2 1 24 171 172 405
445 2 2 1 24 158 176 159
446 2 2 1 24 175 157 174
447 2 2 1 24 175 176 158
448 2 2 1 24 174 157 156
449 2 2 1 24 161 178 179
450 2 2 1 24 160 178 161
451 2 2 1 24 159 176 177
452 2 2 1 24 405 172 154
453 2 2 1 24 158 157 175
454 2 2 1 24 172 155 154
455 2 2 1 24 35 180 154
456 2 2 1 24 156 155 173
457 2 2 1 24 36 161 179
458 2 2 1 24 171 405 406
459 2 2 1 24 177 160 159
460 2 2 1 24 173 155 172
461 2 2 1 24 156 173 174
462 2 2 1 24 38 171 406
463 2 2 1 24 406 180 38
464 2 2 1 24 180 406 154
465 2 2 1 24 406 405 154
466 2 2 4 25 410 434 452
467 2 2 4 25 434 423 452
468 2 2 4 25 410 425 484
469 2 2 4 25 168 426 476
470 2 2 4 25 189 455 460
471 2 2 4 25 183 424 439
472 2 2 4 25 189 190 455
473 2 2 4 25 436 454 469
474 2 2 4 25 416 429 451
475 2 2 4 25 412 436 469
476 2 2 4 25 424 183 466
477 2 2 4 25 437 422 474
478 2 2 4 25 425 410 472
479 2 2 4 25 426 168 442
480 2 2 4 25 430 193 464
481 2 2 4 25 429 166 463
482 2 2 4 25 169 168 476
483 2 2 4 25 434 410 484
484 2 2 4 25 430 419 472
485 2 2 4 25 451 429 486
486 2 2 4 25 410 430 472
487 2 2 4 25 420 432 471
488 2 2 4 25 432 408 471
489 2 2 4 25 425 436 484
490 2 2 4 25 164 450 463
491 2 2 4 25 191 431 455
492 2 2 4 25 422 437 468
493 2 2 4 25 165 164 463
494 2 2 4 25 193 194 464
495 2 2 4 25 441 169 476
496 2 2 4 25 186 435 468
497 2 2 4 25 166 165 463
498 2 2 4 25 195 459 464
499 2 2 4 25 436 425 478
500 2 2 4 25 408 432 481
501 2 2 4 25 430 410 491
502 2 2 4 25 419 430 464
503 2 2 4 25 193 430 445
504 2 2 4 25 166 429 448
505 2 2 4 25 413 433 473
506 2 2 4 25 413 437 474
507 2 2 4 25 186 187 435
508 2 2 4 25 194 195 464
509 2 2 4 25 455 421 460
510 2 2 4 25 190 191 455
511 2 2 4 25 429 416 448
512 2 2 4 25 436 412 484
513 2 2 4 25 438 177 478
514 2 2 4 25 164 37 450
515 2 2 4 25 435 422 468
516 2 2 4 25 37 181 450
517 2 2 4 25 444 412 469
518 2 2 4 25 431 191 453
519 2 2 4 25 447 413 474
520 2 2 4 25 454 420 469
521 2 2 4 25 428 444 469
522 2 2 4 25 432 420 449
523 2 2 4 25 182 183 439
524 2 2 4 25 413 473 489
525 2 2 4 25 178 177 438
526 2 2 4 25 427 447 474
527 2 2 4 25 433 413 447
528 2 2 4 25 443 415 452
529 2 2 4 25 423 443 452
530 2 2 4 25 425 438 478
531 2 2 4 25 434 412 444
532 2 2 4 25 39 179 459
533 2 2 4 25 174 449 454
534 2 2 4 25 195 39 459
535 2 2 4 25 171 38 440
536 2 2 4 25 435 421 485
537 2 2 4 25 410 452 491
538 2 2 4 25 421 467 485
539 2 2 4 25 438 425 472
540 2 2 4 25 176 175 436
541 2 2 4 25 40 189 460
542 2 2 4 25 463 417 486
543 2 2 4 25 188 40 460
544 2 2 4 25 184 185 437
545 2 2 4 25 168 167 442
546 2 2 4 25 407 447 462
547 2 2 4 25 449 420 454
548 2 2 4 25 447 427 462
549 2 2 4 25 440 414 457
550 2 2 4 25 38 170 441
551 2 2 4 25 443 423 462
552 2 2 4 25 172 440 457
553 2 2 4 25 429 463 486
554 2 2 4 25 411 467 490
555 2 2 4 25 442 167 448
556 2 2 4 25 458 424 473
557 2 2 4 25 192 193 445
558 2 2 4 25 412 434 484
559 2 2 4 25 443 462 487
560 2 2 4 25 418 446 451
561 2 2 4 25 459 419 464
562 2 2 4 25 450 417 463
563 2 2 4 25 439 424 458
564 2 2 4 25 176 436 478
565 2 2 4 25 467 431 490
566 2 2 4 25 423 434 477
567 2 2 4 25 437 185 468
568 2 2 4 25 416 442 448
569 2 2 4 25 167 166 448
570 2 2 4 25 175 174 454
571 2 2 4 25 183 184 466
572 2 2 4 25 453 415 490
573 2 2 4 25 409 451 486
574 2 2 4 25 414 441 476
575 2 2 4 25 191 192 453
576 2 2 4 25 445 415 453
577 2 2 4 25 174 173 449
578 2 2 4 25 418 451 483
579 2 2 4 25 440 38 441
580 2 2 4 25 436 175 454
581 2 2 4 25 421 435 475
582 2 2 4 25 409 458 473
583 2 2 4 25 449 173 457
584 2 2 4 25 431 453 490
585 2 2 4 25 432 449 457
586 2 2 4 25 422 435 485
587 2 2 4 25 435 187 475
588 2 2 4 25 426 442 456
589 2 2 4 25 442 416 456
590 2 2 4 25 446 408 456
591 2 2 4 25 444 428 461
592 2 2 4 25 443 411 490
593 2 2 4 25 407 444 461
594 2 2 4 25 409 473 483
595 2 2 4 25 173 172 457
596 2 2 4 25 473 433 483
597 2 2 4 25 184 437 466
598 2 2 4 25 417 439 458
599 2 2 4 25 456 408 481
600 2 2 4 25 179 178 479
601 2 2 4 25 181 182 480
602 2 2 4 25 437 413 489
603 2 2 4 25 432 457 488
604 2 2 4 25 192 445 453
605 2 2 4 25 446 416 451
606 2 2 4 25 461 428 470
607 2 2 4 25 187 188 475
608 2 2 4 25 418 461 470
609 2 2 4 25 457 414 488
610 2 2 4 25 178 438 479
611 2 2 4 25 417 458 486
612 2 2 4 25 419 438 472
613 2 2 4 25 438 419 479
614 2 2 4 25 185 186 468
615 2 2 4 25 439 417 480
616 2 2 4 25 416 446 456
617 2 2 4 25 482 418 483
618 2 2 4 25 177 176 478
619 2 2 4 25 433 482 483
620 2 2 4 25 447 407 482
621 2 2 4 25 434 444 477
622 2 2 4 25 182 439 480
623 2 2 4 25 426 456 481
624 2 2 4 25 467 411 485
625 2 2 4 25 470 428 471
626 2 2 4 25 408 470 471
627 2 2 4 25 473 424 489
628 2 2 4 25 444 407 477
629 2 2 4 25 408 446 470
630 2 2 4 25 446 418 470
631 2 2 4 25 450 181 480
632 2 2 4 25 407 461 482
633 2 2 4 25 462 427 487
634 2 2 4 25 415 443 490
635 2 2 4 25 411 443 487
636 2 2 4 25 459 179 479
637 2 2 4 25 445 430 491
638 2 2 4 25 415 445 491
639 2 2 4 25 417 450 480
640 2 2 4 25 433 447 482
641 2 2 4 25 455 431 467
642 2 2 4 25 421 455 467
643 2 2 4 25 462 423 477
644 2 2 4 25 188 460 475
645 2 2 4 25 407 462 477
646 2 2 4 25 465 422 485
647 2 2 4 25 465 427 474
648 2 2 4 25 451 409 483
649 2 2 4 25 460 421 475
650 2 2 4 25 428 469 471
651 2 2 4 25 461 418 482
652 2 2 4 25 419 459 479
653 2 2 4 25 469 420 471
654 2 2 4 25 422 465 474
655 2 2 4 25 466 437 489
656 2 2 4 25 452 415 491
657 2 2 4 25 458 409 486
658 2 2 4 25 414 440 441
659 2 2 4 25 411 465 485
660 2 2 4 25 476 426 488
661 2 2 4 25 465 411 487
662 2 2 4 25 427 465 487
663 2 2 4 25 426 481 488
664 2 2 4 25 481 432 488
665 2 2 4 25 424 466 489
666 2 2 4 25 414 476 488
667 2 2 4 25 172 171 440
668 2 2 4 25 170 169 441
669 2 2 2 26 197 57 492
670 2 2 2 26 57 197 1
671 2 2 2 26 57 2 492
672 2 2 2 26 2 58 492
673 2 2 2 26 58 3 493
674 2 2 2 26 196 197 492
675 2 2 2 26 196 492 494
676 2 2 2 26 3 198 493
677 2 2 2 26 492 58 493
678 2 2 2 26 198 41 494
679 2 2 2 26 41 196 494
680 2 2 2 26 492 493 494
681 2 2 2 26 493 198 494
682 2 2 3 27 282 38 170
683 2 2 3 27 38 282 51
684 2 2 3 27 179 228 47
685 2 2 3 27 235 171 51
686 2 2 3 27 235 172 171
687 2 2 3 27 234 173 172
688 2 2 3 27 234 172 235
689 2 2 3 27 173 233 174
690 2 2 3 27 173 234 233
691 2 2 3 27 232 175 174
692 2 2 3 27 233 232 174
693 2 2 3 27 175 231 176
694 2 2 3 27 175 232 231
695 2 2 3 27 230 177 176
696 2 2 3 27 231 230 176
697 2 2 3 27 178 177 229
698 2 2 3 27 177 230 229
699 2 2 3 27 179 178 228
700 2 2 3 27 228 178 229
701 2 2 3 27 164 37 43
702 2 2 3 27 171 38 51
703 2 2 3 27 39 179 47
704 2 2 3 27 164 43 276
705 2 2 3 27 165 164 276
706 2 2 3 27 166 165 277
707 2 2 3 27 165 276 277
708 2 2 3 27 167 166 278
709 2 2 3 27 166 277 278
710 2 2 3 27 168 167 279
711 2 2 3 27 167 278 279
712 2 2 3 27 168 280 169
713 2 2 3 27 280 168 279
714 2 2 3 27 169 281 170
715 2 2 3 27 280 281 169
716 2 2 3 27 281 282 170
717 2 2 3 28 495 289 52
718 2 2 3 28 236 495 52
719 2 2 3 28 283 496 44
720 2 2 3 28 496 199 44
721 2 2 3 28 286 279 278
722 2 2 3 28 285 286 278
723 2 2 3 28 278 277 285
724 2 2 3 28 287 281 280
725 2 2 3 28 282 495 51
726 2 2 3 28 495 282 289
727 2 2 3 28 495 236 51
728 2 2 3 28 496 276 43
729 2 2 3 28 276 496 283
730 2 2 3 28 199 496 43
731 2 2 3 28 285 277 284
732 2 2 3 28 284 277 276
733 2 2 3 28 286 287 280
734 2 2 3 28 286 280 279
735 2 2 3 28 282 281 289
736 2 2 3 28 288 289 281
737 2 2 3 28 283 284 276
738 2 2 3 28 288 281 287
739 2 2 3 29 526 241 527
740 2 2 3 29 508 202 523
741 2 2 3 29 202 508 522
742 2 2 3 29 507 285 521
743 2 2 3 29 241 240 527
744 2 2 3 29 508 500 513
745 2 2 3 29 506 239 518
746 2 2 3 29 239 506 527
747 2 2 3 29 503 506 534
748 2 2 3 29 499 508 513
749 2 2 3 29 506 503 527
750 2 2 3 29 202 203 523
751 2 2 3 29 201 202 522
752 2 2 3 29 288 287 509
753 2 2 3 29 509 502 528
754 2 2 3 29 515 501 519
755 2 2 3 29 504 515 519
756 2 2 3 29 285 284 521
757 2 2 3 29 507 499 524
758 2 2 3 29 502 509 525
759 2 2 3 29 515 294 516
760 2 2 3 29 519 497 520
761 2 2 3 29 500 514 520
762 2 2 3 29 514 504 520
763 2 2 3 29 499 507 521
764 2 2 3 29 504 519 520
765 2 2 3 29 285 507 529
766 2 2 3 29 498 510 517
767 2 2 3 29 510 501 517
768 2 2 3 29 508 499 522
769 2 2 3 29 500 508 523
770 2 2 3 29 288 509 535
771 2 2 3 29 501 515 516
772 2 2 3 29 506 517 534
773 2 2 3 29 509 528 539
774 2 2 3 29 239 238 518
775 2 2 3 29 240 239 527
776 2 2 3 29 294 295 516
777 2 2 3 29 501 510 519
778 2 2 3 29 528 498 539
779 2 2 3 29 510 497 519
780 2 2 3 29 509 287 525
781 2 2 3 29 513 500 520
782 2 2 3 29 53 241 526
783 2 2 3 29 291 292 514
784 2 2 3 29 296 53 526
785 2 2 3 29 293 294 515
786 2 2 3 29 500 512 536
787 2 2 3 29 499 513 524
788 2 2 3 29 503 526 527
789 2 2 3 29 514 500 536
790 2 2 3 29 518 505 539
791 2 2 3 29 518 539 542
792 2 2 3 29 497 513 520
793 2 2 3 29 511 499 521
794 2 2 3 29 510 498 528
795 2 2 3 29 497 510 530
796 2 2 3 29 499 511 522
797 2 2 3 29 512 500 523
798 2 2 3 29 532 289 535
799 2 2 3 29 512 290 536
800 2 2 3 29 513 497 524
801 2 2 3 29 514 292 531
802 2 2 3 29 504 514 531
803 2 2 3 29 290 512 541
804 2 2 3 29 289 288 535
805 2 2 3 29 515 504 531
806 2 2 3 29 293 515 531
807 2 2 3 29 524 497 530
808 2 2 3 29 237 52 532
809 2 2 3 29 52 289 532
810 2 2 3 29 524 530 538
811 2 2 3 29 290 291 536
812 2 2 3 29 286 285 529
813 2 2 3 29 291 514 536
814 2 2 3 29 517 506 542
815 2 2 3 29 498 517 542
816 2 2 3 29 516 503 534
817 2 2 3 29 502 529 538
818 2 2 3 29 501 516 534
819 2 2 3 29 295 296 533
820 2 2 3 29 505 532 535
821 2 2 3 29 503 516 533
822 2 2 3 29 516 295 533
823 2 2 3 29 287 286 525
824 2 2 3 29 502 525 529
825 2 2 3 29 529 507 538
826 2 2 3 29 292 293 531
827 2 2 3 29 517 501 534
828 2 2 3 29 283 44 540
829 2 2 3 29 45 290 541
830 2 2 3 29 44 200 540
831 2 2 3 29 204 45 541
832 2 2 3 29 296 526 533
833 2 2 3 29 518 238 537
834 2 2 3 29 505 518 537
835 2 2 3 29 238 237 537
836 2 2 3 29 511 521 543
837 2 2 3 29 284 283 543
838 2 2 3 29 203 204 545
839 2 2 3 29 200 201 544
840 2 2 3 29 506 518 542
841 2 2 3 29 521 284 543
842 2 2 3 29 539 498 542
843 2 2 3 29 525 286 529
844 2 2 3 29 510 528 530
845 2 2 3 29 528 502 530
846 2 2 3 29 201 522 544
847 2 2 3 29 523 203 545
848 2 2 3 29 522 511 544
849 2 2 3 29 512 523 545
850 2 2 3 29 526 503 533
851 2 2 3 29 507 524 538
852 2 2 3 29 505 535 539
853 2 2 3 29 535 509 539
854 2 2 3 29 540 511 543
855 2 2 3 29 283 540 543
856 2 2 3 29 204 541 545
857 2 2 3 29 540 200 544
858 2 2 3 29 541 512 545
859 2 2 3 29 511 540 544
860 2 2 3 29 530 502 538
861 2 2 3 29 237 532 537
862 2 2 3 29 532 505 537
863 2 2 3 30 297 298 291
864 2 2 3 30 297 291 290
865 2 2 3 30 546 303 54
866 2 2 3 30 242 546 54
867 2 2 3 30 297 547 46
868 2 2 3 30 547 205 46
869 2 2 3 30 292 291 299
870 2 2 3 30 292 300 293
871 2 2 3 30 299 300 292
872 2 2 3 30 300 294 293
873 2 2 3 30 296 546 53
874 2 2 3 30 546 296 303
875 2 2 3 30 546 242 53
876 2 2 3 30 547 290 45
877 2 2 3 30 290 547 297
878 2 2 3 30 205 547 45
879 2 2 3 30 294 301 302
880 2 2 3 30 294 302 295
881 2 2 3 30 299 291 298
882 2 2 3 30 296 295 303
883 2 2 3 30 302 303 295
884 2 2 3 30 300 301 294
885 2 2 3 31 591 221 604
886 2 2 3 31 227 592 603
887 2 2 3 31 567 550 600
888 2 2 3 31 222 221 591
889 2 2 3 31 227 226 592
890 2 2 3 31 559 567 600
891 2 2 3 31 566 548 573
892 2 2 3 31 297 584 595
893 2 2 3 31 550 567 596
894 2 2 3 31 298 297 595
895 2 2 3 31 579 551 611
896 2 2 3 31 569 299 595
897 2 2 3 31 590 303 598
898 2 2 3 31 301 567 598
899 2 2 3 31 561 576 614
900 2 2 3 31 563 591 604
901 2 2 3 31 592 564 603
902 2 2 3 31 303 302 598
903 2 2 3 31 297 46 584
904 2 2 3 31 552 575 613
905 2 2 3 31 551 579 622
906 2 2 3 31 548 566 577
907 2 2 3 31 567 556 596
908 2 2 3 31 570 223 591
909 2 2 3 31 225 571 592
910 2 2 3 31 46 206 584
911 2 2 3 31 575 552 621
912 2 2 3 31 575 248 609
913 2 2 3 31 574 558 577
914 2 2 3 31 583 568 611
915 2 2 3 31 551 583 611
916 2 2 3 31 565 579 611
917 2 2 3 31 578 607 623
918 2 2 3 31 299 298 595
919 2 2 3 31 245 581 606
920 2 2 3 31 588 554 623
921 2 2 3 31 567 301 585
922 2 2 3 31 568 588 623
923 2 2 3 31 571 225 587
924 2 2 3 31 576 561 609
925 2 2 3 31 567 559 598
926 2 2 3 31 570 555 601
927 2 2 3 31 249 248 575
928 2 2 3 31 554 572 597
929 2 2 3 31 302 301 598
930 2 2 3 31 561 575 609
931 2 2 3 31 554 578 623
932 2 2 3 31 569 556 589
933 2 2 3 31 556 567 585
934 2 2 3 31 576 553 614
935 2 2 3 31 624 574 625
936 2 2 3 31 299 569 589
937 2 2 3 31 574 553 625
938 2 2 3 31 575 561 613
939 2 2 3 31 226 225 592
940 2 2 3 31 223 222 591
941 2 2 3 31 556 569 594
942 2 2 3 31 572 554 588
943 2 2 3 31 577 566 614
944 2 2 3 31 553 577 614
945 2 2 3 31 563 575 621
946 2 2 3 31 581 562 606
947 2 2 3 31 245 244 581
948 2 2 3 31 579 564 622
949 2 2 3 31 582 208 602
950 2 2 3 31 577 558 599
951 2 2 3 31 223 570 601
952 2 2 3 31 54 303 590
953 2 2 3 31 243 54 590
954 2 2 3 31 555 573 583
955 2 2 3 31 553 574 577
956 2 2 3 31 207 208 582
957 2 2 3 31 555 570 593
958 2 2 3 31 570 552 593
959 2 2 3 31 551 571 626
960 2 2 3 31 554 597 620
961 2 2 3 31 552 570 621
962 2 2 3 31 571 551 622
963 2 2 3 31 560 582 602
964 2 2 3 31 555 587 601
965 2 2 3 31 558 572 599
966 2 2 3 31 225 224 587
967 2 2 3 31 247 246 576
968 2 2 3 31 607 565 623
969 2 2 3 31 572 558 618
970 2 2 3 31 209 210 578
971 2 2 3 31 562 581 600
972 2 2 3 31 212 579 627
973 2 2 3 31 211 212 627
974 2 2 3 31 562 600 624
975 2 2 3 31 559 590 598
976 2 2 3 31 566 573 619
977 2 2 3 31 573 555 593
978 2 2 3 31 595 557 615
979 2 2 3 31 573 548 608
980 2 2 3 31 42 227 603
981 2 2 3 31 221 50 604
982 2 2 3 31 569 595 615
983 2 2 3 31 213 42 603
984 2 2 3 31 50 250 604
985 2 2 3 31 301 300 585
986 2 2 3 31 576 246 606
987 2 2 3 31 247 576 609
988 2 2 3 31 209 578 602
989 2 2 3 31 584 557 595
990 2 2 3 31 588 568 608
991 2 2 3 31 548 588 608
992 2 2 3 31 548 577 599
993 2 2 3 31 568 583 608
994 2 2 3 31 582 560 586
995 2 2 3 31 210 211 607
996 2 2 3 31 586 560 597
997 2 2 3 31 557 582 586
998 2 2 3 31 556 585 589
999 2 2 3 31 580 558 605
1000 2 2 3 31 558 574 605
1001 2 2 3 31 583 551 626
1002 2 2 3 31 549 586 597
1003 2 2 3 31 575 563 617
1004 2 2 3 31 602 578 620
1005 2 2 3 31 550 605 624
1006 2 2 3 31 605 574 624
1007 2 2 3 31 249 575 617
1008 2 2 3 31 562 624 625
1009 2 2 3 31 300 299 589
1010 2 2 3 31 576 606 625
1011 2 2 3 31 580 556 594
1012 2 2 3 31 549 580 594
1013 2 2 3 31 549 597 618
1014 2 2 3 31 556 580 596
1015 2 2 3 31 571 587 626
1016 2 2 3 31 597 572 618
1017 2 2 3 31 564 579 616
1018 2 2 3 31 587 555 626
1019 2 2 3 31 579 212 616
1020 2 2 3 31 206 207 612
1021 2 2 3 31 572 588 599
1022 2 2 3 31 582 557 612
1023 2 2 3 31 607 211 627
1024 2 2 3 31 578 210 607
1025 2 2 3 31 553 576 625
1026 2 2 3 31 244 243 610
1027 2 2 3 31 581 559 600
1028 2 2 3 31 558 580 618
1029 2 2 3 31 578 554 620
1030 2 2 3 31 583 573 608
1031 2 2 3 31 224 223 601
1032 2 2 3 31 559 581 610
1033 2 2 3 31 596 580 605
1034 2 2 3 31 579 565 627
1035 2 2 3 31 585 300 589
1036 2 2 3 31 208 209 602
1037 2 2 3 31 581 244 610
1038 2 2 3 31 580 549 618
1039 2 2 3 31 584 206 612
1040 2 2 3 31 207 582 612
1041 2 2 3 31 246 245 606
1042 2 2 3 31 248 247 609
1043 2 2 3 31 212 213 616
1044 2 2 3 31 250 249 617
1045 2 2 3 31 555 583 626
1046 2 2 3 31 597 560 620
1047 2 2 3 31 600 550 624
1048 2 2 3 31 557 584 612
1049 2 2 3 31 560 602 620
1050 2 2 3 31 557 586 615
1051 2 2 3 31 586 549 615
1052 2 2 3 31 587 224 601
1053 2 2 3 31 588 548 599
1054 2 2 3 31 243 590 610
1055 2 2 3 31 570 591 621
1056 2 2 3 31 592 571 622
1057 2 2 3 31 549 594 615
1058 2 2 3 31 606 562 625
1059 2 2 3 31 590 559 610
1060 2 2 3 31 550 596 605
1061 2 2 3 31 594 569 615
1062 2 2 3 31 593 552 619
1063 2 2 3 31 573 593 619
1064 2 2 3 31 591 563 621
1065 2 2 3 31 564 592 622
1066 2 2 3 31 611 568 623
1067 2 2 3 31 566 613 614
1068 2 2 3 31 613 561 614
1069 2 2 3 31 603 564 616
1070 2 2 3 31 563 604 617
1071 2 2 3 31 565 607 627
1072 2 2 3 31 552 613 619
1073 2 2 3 31 213 603 616
1074 2 2 3 31 604 250 617
1075 2 2 3 31 613 566 619
1076 2 2 3 31 565 611 623
1077 2 2 3 32 229 252 251
1078 2 2 3 32 229 251 228
1079 2 2 3 32 254 253 230
1080 2 2 3 32 254 230 231
1081 2 2 3 32 628 251 48
1082 2 2 3 32 214 628 48
1083 2 2 3 32 629 272 55
1084 2 2 3 32 258 629 55
1085 2 2 3 32 233 255 232
1086 2 2 3 32 233 256 255
1087 2 2 3 32 233 257 256
1088 2 2 3 32 229 230 252
1089 2 2 3 32 235 629 258
1090 2 2 3 32 272 629 51
1091 2 2 3 32 629 235 51
1092 2 2 3 32 228 628 47
1093 2 2 3 32 628 228 251
1094 2 2 3 32 628 214 47
1095 2 2 3 32 258 257 235
1096 2 2 3 32 235 257 234
1097 2 2 3 32 234 257 233
1098 2 2 3 32 253 252 230
1099 2 2 3 32 255 254 231
1100 2 2 3 32 255 231 232
1101 2 2 3 33 55 272 273
1102 2 2 3 33 272 51 236
1103 2 2 3 33 273 272 236
1104 2 2 3 33 236 52 273
1105 2 2 3 34 630 274 56
1106 2 2 3 34 263 630 56
1107 2 2 3 34 273 631 55
1108 2 2 3 34 631 259 55
1109 2 2 3 34 240 261 239
1110 2 2 3 34 262 261 240
1111 2 2 3 34 260 237 238
1112 2 2 3 34 259 237 260
1113 2 2 3 34 241 630 263
1114 2 2 3 34 274 630 53
1115 2 2 3 34 630 241 53
1116 2 2 3 34 631 237 259
1117 2 2 3 34 631 273 52
1118 2 2 3 34 237 631 52
1119 2 2 3 34 261 238 239
1120 2 2 3 34 262 240 263
1121 2 2 3 34 260 238 261
1122 2 2 3 34 263 240 241
1123 2 2 3 35 56 274 275
1124 2 2 3 35 274 53 242
1125 2 2 3 35 275 274 242
1126 2 2 3 35 242 54 275
1127 2 2 3 36 632 250 50
1128 2 2 3 36 220 632 50
1129 2 2 3 36 275 633 56
1130 2 2 3 36 633 264 56
1131 2 2 3 36 268 267 247
1132 2 2 3 36 247 248 268
1133 2 2 3 36 269 268 248
1134 2 2 3 36 264 244 265
1135 2 2 3 36 271 632 49
1136 2 2 3 36 632 271 250
1137 2 2 3 36 632 220 49
1138 2 2 3 36 633 243 264
1139 2 2 3 36 633 275 54
1140 2 2 3 36 243 633 54
1141 2 2 3 36 271 270 250
1142 2 2 3 36 249 250 270
1143 2 2 3 36 269 248 270
1144 2 2 3 36 270 248 249
1145 2 2 3 36 265 244 266
1146 2 2 3 36 266 244 245
1147 2 2 3 36 266 245 246
1148 2 2 3 36 267 266 246
1149 2 2 3 36 267 246 247
1150 2 2 3 36 264 243 244
1151 2 2 3 37 262 658 666
1152 2 2 3 37 655 260 664
1153 2 2 3 37 262 263 658
1154 2 2 3 37 259 260 655
1155 2 2 3 37 266 644 671
1156 2 2 3 37 261 645 664
1157 2 2 3 37 645 261 666
1158 2 2 3 37 217 647 661
1159 2 2 3 37 647 217 660
1160 2 2 3 37 644 266 662
1161 2 2 3 37 647 636 651
1162 2 2 3 37 637 647 651
1163 2 2 3 37 646 256 670
1164 2 2 3 37 263 56 658
1165 2 2 3 37 56 264 658
1166 2 2 3 37 218 217 661
1167 2 2 3 37 217 216 660
1168 2 2 3 37 256 646 668
1169 2 2 3 37 638 648 674
1170 2 2 3 37 641 671 680
1171 2 2 3 37 638 646 657
1172 2 2 3 37 646 638 668
1173 2 2 3 37 634 659 663
1174 2 2 3 37 663 638 674
1175 2 2 3 37 654 638 663
1176 2 2 3 37 642 654 663
1177 2 2 3 37 256 257 670
1178 2 2 3 37 634 665 667
1179 2 2 3 37 648 639 674
1180 2 2 3 37 644 662 669
1181 2 2 3 37 671 644 680
1182 2 2 3 37 662 639 669
1183 2 2 3 37 659 642 663
1184 2 2 3 37 664 645 672
1185 2 2 3 37 640 664 672
1186 2 2 3 37 636 647 660
1187 2 2 3 37 647 637 661
1188 2 2 3 37 260 261 664
1189 2 2 3 37 267 268 656
1190 2 2 3 37 265 266 671
1191 2 2 3 37 261 262 666
1192 2 2 3 37 650 637 678
1193 2 2 3 37 267 656 662
1194 2 2 3 37 269 270 653
1195 2 2 3 37 252 253 652
1196 2 2 3 37 636 652 659
1197 2 2 3 37 665 643 667
1198 2 2 3 37 636 649 677
1199 2 2 3 37 639 665 674
1200 2 2 3 37 637 653 678
1201 2 2 3 37 652 642 659
1202 2 2 3 37 653 637 667
1203 2 2 3 37 635 648 657
1204 2 2 3 37 639 656 665
1205 2 2 3 37 635 657 672
1206 2 2 3 37 634 651 659
1207 2 2 3 37 266 267 662
1208 2 2 3 37 656 643 665
1209 2 2 3 37 643 653 667
1210 2 2 3 37 648 638 657
1211 2 2 3 37 652 636 677
1212 2 2 3 37 651 634 667
1213 2 2 3 37 269 653 675
1214 2 2 3 37 672 657 679
1215 2 2 3 37 254 255 654
1216 2 2 3 37 640 655 664
1217 2 2 3 37 658 641 666
1218 2 2 3 37 649 636 660
1219 2 2 3 37 637 650 661
1220 2 2 3 37 645 666 673
1221 2 2 3 37 666 641 673
1222 2 2 3 37 655 640 670
1223 2 2 3 37 653 643 675
1224 2 2 3 37 651 636 659
1225 2 2 3 37 648 635 669
1226 2 2 3 37 649 251 677
1227 2 2 3 37 639 648 669
1228 2 2 3 37 655 670 684
1229 2 2 3 37 255 256 668
1230 2 2 3 37 652 253 676
1231 2 2 3 37 642 652 676
1232 2 2 3 37 637 651 667
1233 2 2 3 37 251 649 681
1234 2 2 3 37 650 271 682
1235 2 2 3 37 271 650 678
1236 2 2 3 37 673 641 680
1237 2 2 3 37 654 255 668
1238 2 2 3 37 638 654 668
1239 2 2 3 37 656 639 662
1240 2 2 3 37 251 252 677
1241 2 2 3 37 252 652 677
1242 2 2 3 37 641 658 683
1243 2 2 3 37 270 271 678
1244 2 2 3 37 671 641 683
1245 2 2 3 37 254 654 676
1246 2 2 3 37 654 642 676
1247 2 2 3 37 653 270 678
1248 2 2 3 37 672 645 673
1249 2 2 3 37 635 672 673
1250 2 2 3 37 670 640 679
1251 2 2 3 37 646 670 679
1252 2 2 3 37 48 251 681
1253 2 2 3 37 271 49 682
1254 2 2 3 37 215 48 681
1255 2 2 3 37 49 219 682
1256 2 2 3 37 268 269 675
1257 2 2 3 37 258 55 687
1258 2 2 3 37 253 254 676
1259 2 2 3 37 643 656 675
1260 2 2 3 37 656 268 675
1261 2 2 3 37 259 655 687
1262 2 2 3 37 657 646 679
1263 2 2 3 37 264 265 683
1264 2 2 3 37 257 258 684
1265 2 2 3 37 655 258 687
1266 2 2 3 37 219 218 686
1267 2 2 3 37 216 215 685
1268 2 2 3 37 258 655 684
1269 2 2 3 37 55 259 687
1270 2 2 3 37 634 663 674
1271 2 2 3 37 665 634 674
1272 2 2 3 37 658 264 683
1273 2 2 3 37 660 216 685
1274 2 2 3 37 218 661 686
1275 2 2 3 37 649 660 685
1276 2 2 3 37 661 650 686
1277 2 2 3 37 669 635 680
1278 2 2 3 37 640 672 679
1279 2 2 3 37 644 669 680
1280 2 2 3 37 635 673 680
1281 2 2 3 37 265 671 683
1282 2 2 3 37 670 257 684
1283 2 2 3 37 682 219 686
1284 2 2 3 37 215 681 685
1285 2 2 3 37 650 682 686
1286 2 2 3 37 681 649 685
$EndElements
