$MeshFormat
2.2 0 8
$EndMeshFormat
$Nodes
604
1 12.7 0 0
2 10.082 7.723 0
3 9.795999999999999 8.083 0
4 9.492000000000001 8.436999999999999 0
5 9.192 8.763 0
6 8.922000000000001 9.038 0
7 0 12.7 0
8 -8.922000000000001 9.038 0
9 -9.192 8.763 0
10 -9.492000000000001 8.436999999999999 0
11 -9.795999999999999 8.083 0
12 -10.082 7.723 0
13 -12.7 0 0
14 -10.082 -7.723 0
15 -9.795999999999999 -8.083 0
16 -9.492000000000001 -8.436999999999999 0
17 -9.192 -8.763 0
18 -8.922000000000001 -9.038 0
19 0 -12.7 0
20 8.922000000000001 -9.038 0
21 9.192 -8.763 0
22 9.492000000000001 -8.436999999999999 0
23 9.795999999999999 -8.083 0
24 10.082 -7.723 0
25 12.952 0 4.419
26 10.404 7.97 4.419
27 10.117 8.348000000000001 4.419
28 9.785 8.698 4.419
29 9.438000000000001 8.997 4.419
30 9.119 9.239000000000001 4.419
31 0 12.856 4.419
32 -9.119 9.239000000000001 4.419
33 -9.438000000000001 8.997 4.419
34 -9.785 8.698 4.419
35 -10.117 8.348000000000001 4.419
36 -10.404 7.97 4.419
37 -12.952 0 4.419
38 -10.404 -7.97 4.419
39 -10.117 -8.348000000000001 4.419
40 -9.785 -8.698 4.419
41 -9.438000000000001 -8.997 4.419
42 -9.119 -9.239000000000001 4.419
43 0 -12.856 4.419
44 9.119 -9.239000000000001 4.419
45 9.438000000000001 -8.997 4.419
46 9.785 -8.698 4.419
47 10.117 -8.348000000000001 4.419
48 10.404 -7.97 4.419
49 14.572 0 12.341
50 12.394 9.494 12.341
51 12.095 9.981 12.341
52 11.602 10.313 12.341
53 10.98 10.467 12.341
54 10.38 10.515 12.341
55 0 13.892 12.341
56 -10.38 10.515 12.341
57 -10.98 10.467 12.341
58 -11.602 10.313 12.341
59 -12.095 9.981 12.341
60 -12.394 9.494 12.341
61 -14.572 0 12.341
62 -12.394 -9.494 12.341
63 -12.095 -9.981 12.341
64 -11.602 -10.313 12.341
65 -10.98 -10.467 12.341
66 -10.38 -10.515 12.341
67 0 -13.892 12.341
68 10.38 -10.515 12.341
69 10.98 -10.467 12.341
70 11.602 -10.313 12.341
71 12.095 -9.981 12.341
72 12.394 -9.494 12.341
73 19.144 0 24.471
74 17.594 13.477 24.471
75 17.244 14.229 24.471
76 16.377 14.558 24.471
77 15.134 14.426 24.471
78 13.878 14.059 24.471
79 0 17.017 24.471
80 -13.878 14.059 24.471
81 -15.134 14.426 24.471
82 -16.377 14.558 24.471
83 -17.244 14.229 24.471
84 -17.594 13.477 24.471
85 -19.144 0 24.471
86 -17.594 -13.477 24.471
87 -17.244 -14.229 24.471
88 -16.377 -14.558 24.471
89 -15.134 -14.426 24.471
90 -13.878 -14.059 24.471
91 0 -17.017 24.471
92 13.878 -14.059 24.471
93 15.134 -14.426 24.471
94 16.377 -14.558 24.471
95 17.244 -14.229 24.471
96 17.594 -13.477 24.471
97 28.151 0 41.997
98 27.121 20.775 41.997
99 26.642 21.983 41.997
100 25.17 22.373 41.997
101 22.946 21.874 41.997
102 20.649 20.919 41.997
103 0 23.666 41.997
104 -20.649 20.919 41.997
105 -22.946 21.874 41.997
106 -25.17 22.373 41.997
107 -26.642 21.983 41.997
108 -27.121 20.775 41.997
109 -28.151 0 41.997
110 -27.121 -20.775 41.997
111 -26.642 -21.983 41.997
112 -25.17 -22.373 41.997
113 -22.946 -21.874 41.997
114 -20.649 -20.919 41.997
115 0 -23.666 41.997
116 20.649 -20.919 41.997
117 22.946 -21.874 41.997
118 25.17 -22.373 41.997
119 26.642 -21.983 41.997
120 27.121 -20.775 41.997
121 42.069 0 64.604
122 41.163 31.532 64.604
123 40.462 33.387 64.604
124 38.17 33.929 64.604
125 34.658 33.038 64.604
126 30.999 31.403 64.604
127 0 34.573 64.604
128 -30.999 31.403 64.604
129 -34.658 33.038 64.604
130 -38.17 33.929 64.604
131 -40.462 33.387 64.604
132 -41.163 31.532 64.604
133 -42.069 0 64.604
134 -41.163 -31.532 64.604
135 -40.462 -33.387 64.604
136 -38.17 -33.929 64.604
137 -34.658 -33.038 64.604
138 -30.999 -31.403 64.604
139 0 -34.573 64.604
140 30.999 -31.403 64.604
141 34.658 -33.038 64.604
142 38.17 -33.929 64.604
143 40.462 -33.387 64.604
144 41.163 -31.532 64.604
145 61.782 0 90.913
146 60.532 46.369 90.913
147 59.488 49.087 90.913
148 56.181 49.939 90.913
149 51.135 48.746 90.913
150 45.858 46.456 90.913
151 0 50.722 90.913
152 -45.858 46.456 90.913
153 -51.135 48.746 90.913
154 -56.181 49.939 90.913
155 -59.488 49.087 90.913
156 -60.532 46.369 90.913
157 -61.782 0 90.913
158 -60.532 -46.369 90.913
159 -59.488 -49.087 90.913
160 -56.181 -49.939 90.913
161 -51.135 -48.746 90.913
162 -45.858 -46.456 90.913
163 0 -50.722 90.913
164 45.858 -46.456 90.913
165 51.135 -48.746 90.913
166 56.181 -49.939 90.913
167 59.488 -49.087 90.913
168 60.532 -46.369 90.913
169 89.595 0 117.141
170 87.93300000000001 67.35899999999999 117.141
171 86.34699999999999 71.249 117.141
172 81.908 72.807 117.141
173 75.282 71.764 117.141
174 68.30500000000001 69.197 117.141
175 0 74.248 117.141
176 -68.30500000000001 69.197 117.141
177 -75.282 71.764 117.141
178 -81.908 72.807 117.141
179 -86.34699999999999 71.249 117.141
180 -87.93300000000001 67.35899999999999 117.141
181 -89.595 0 117.141
182 -87.93300000000001 -67.35899999999999 117.141
183 -86.34699999999999 -71.249 117.141
184 -81.908 -72.807 117.141
185 -75.282 -71.764 117.141
186 -68.30500000000001 -69.197 117.141
187 0 -74.248 117.141
188 68.30500000000001 -69.197 117.141
189 75.282 -71.764 117.141
190 81.908 -72.807 117.141
191 86.34699999999999 -71.249 117.141
192 87.93300000000001 -67.35899999999999 117.141
193 126.159 0 138.882
194 124.658 95.491 138.882
195 122.286 100.904 138.882
196 116.725 103.756 138.882
197 108.737 103.656 138.882
198 100.216 101.524 138.882
199 0 105.712 138.882
200 -100.216 101.524 138.882
201 -108.737 103.656 138.882
202 -116.725 103.756 138.882
203 -122.286 100.904 138.882
204 -124.658 95.491 138.882
205 -126.159 0 138.882
206 -124.658 -95.491 138.882
207 -122.286 -100.904 138.882
208 -116.725 -103.756 138.882
209 -108.737 -103.656 138.882
210 -100.216 -101.524 138.882
211 0 -105.712 138.882
212 100.216 -101.524 138.882
213 108.737 -103.656 138.882
214 116.725 -103.756 138.882
215 122.286 -100.904 138.882
216 124.658 -95.491 138.882
217 168.534 0 155.183
218 167.706 128.467 155.183
219 164.373 135.631 155.183
220 157.765 140.236 155.183
221 148.693 141.745 155.183
222 138.861 140.673 155.183
223 0 142.541 155.183
224 -138.861 140.673 155.183
225 -148.693 141.745 155.183
226 -157.765 140.236 155.183
227 -164.373 135.631 155.183
228 -167.706 128.467 155.183
229 -168.534 0 155.183
230 -167.706 -128.467 155.183
231 -164.373 -135.631 155.183
232 -157.765 -140.236 155.183
233 -148.693 -141.745 155.183
234 -138.861 -140.673 155.183
235 0 -142.541 155.183
236 138.861 -140.673 155.183
237 148.693 -141.745 155.183
238 157.765 -140.236 155.183
239 164.373 -135.631 155.183
240 167.706 -128.467 155.183
241 208.495 0 165.927
242 208.142 159.441 165.927
243 203.878 168.229 165.927
244 196.398 174.577 165.927
245 186.528 177.811 165.927
246 175.688 177.981 165.927
247 0 177.654 165.927
248 -175.688 177.981 165.927
249 -186.528 177.811 165.927
250 -196.398 174.577 165.927
251 -203.878 168.229 165.927
252 -208.142 159.441 165.927
253 -208.495 0 165.927
254 -208.142 -159.441 165.927
255 -203.878 -168.229 165.927
256 -196.398 -174.577 165.927
257 -186.528 -177.811 165.927
258 -175.688 -177.981 165.927
259 0 -177.654 165.927
260 175.688 -177.981 165.927
261 186.528 -177.811 165.927
262 196.398 -174.577 165.927
263 203.878 -168.229 165.927
264 208.142 -159.441 165.927
265 241.407 0 172.367
266 240.703 184.384 172.367
267 235.669 194.461 172.367
268 227.503 202.225 172.367
269 217.039 206.896 172.367
270 205.458 208.139 172.367
271 0 207.085 172.367
272 -205.458 208.139 172.367
273 -217.039 206.896 172.367
274 -227.503 202.225 172.367
275 -235.669 194.461 172.367
276 -240.703 184.384 172.367
277 -241.407 0 172.367
278 -240.703 -184.384 172.367
279 -235.669 -194.461 172.367
280 -227.503 -202.225 172.367
281 -217.039 -206.896 172.367
282 -205.458 -208.139 172.367
283 0 -207.085 172.367
284 205.458 -208.139 172.367
285 217.039 -206.896 172.367
286 227.503 -202.225 172.367
287 235.669 -194.461 172.367
288 240.703 -184.384 172.367
289 262.864 0 175.254
290 260.957 199.899 175.254
291 255.422 210.761 175.254
292 246.802 219.381 175.254
293 235.94 224.915 175.254
294 223.9 226.822 175.254
295 0 226.822 175.254
296 -223.9 226.822 175.254
297 -235.94 224.915 175.254
298 -246.802 219.381 175.254
299 -255.422 210.761 175.254
300 -260.957 199.899 175.254
301 -262.864 0 175.254
302 -260.957 -199.899 175.254
303 -255.422 -210.761 175.254
304 -246.802 -219.381 175.254
305 -235.94 -224.915 175.254
306 -223.9 -226.822 175.254
307 0 -226.822 175.254
308 223.9 -226.822 175.254
309 235.94 -224.915 175.254
310 246.802 -219.381 175.254
311 255.422 -210.761 175.254
312 260.957 -199.899 175.254
313 88.76400000000227 33.67949999990809 117.141
314 106.2954999999658 81.42499999997379 128.0114999999797
315 104.3164999999419 86.07649999995202 128.0114999999648
316 99.31649999994724 88.28149999995311 128.0114999999671
317 92.00949999995494 87.70999999995705 128.0114999999707
318 34.15250000009861 71.72249999999271 117.141
319 -34.15249999990371 71.72250000000713 117.141
320 -92.00949999995494 87.70999999995705 128.0114999999707
321 -99.31649999994724 88.28149999995311 128.0114999999671
322 -104.3164999999419 86.07649999995202 128.0114999999648
323 -106.2954999999658 81.42499999997379 128.0114999999797
324 -88.76399999999775 33.67950000009142 117.141
325 -88.76400000000227 -33.67949999990809 117.141
326 -106.2954999999658 -81.42499999997379 128.0114999999797
327 -104.3164999999419 -86.07649999995202 128.0114999999648
328 -99.31649999994724 -88.28149999995311 128.0114999999671
329 -92.00949999995494 -87.70999999995705 128.0114999999707
330 -34.15250000009861 -71.72249999999271 117.141
331 34.15249999990371 -71.72250000000713 117.141
332 92.00949999995494 -87.70999999995705 128.0114999999707
333 99.31649999994724 -88.28149999995311 128.0114999999671
334 104.3164999999419 -86.07649999995202 128.0114999999648
335 106.2954999999658 -81.42499999997379 128.0114999999797
336 88.76399999999775 -33.67950000009142 117.141
337 125.408500000002 47.74549999987069 138.882
338 146.1819999999391 111.9789999999533 147.0324999999769
339 143.32949999994 118.2674999999505 147.0324999999767
340 137.244999999948 121.9959999999538 147.0324999999793
341 128.7149999999228 122.7004999999264 147.0324999999685
342 119.5384999999463 121.0984999999456 147.0324999999774
343 50.10800000013595 103.6179999999943 138.882
344 -50.10799999986814 103.6180000000055 138.882
345 -119.5384999999463 121.0984999999456 147.0324999999774
346 -128.7149999999228 122.7004999999264 147.0324999999685
347 -137.244999999948 121.9959999999538 147.0324999999793
348 -143.32949999994 118.2674999999505 147.0324999999767
349 -146.1819999999391 111.9789999999533 147.0324999999769
350 -125.4084999999974 47.74550000016372 138.882
351 -125.408500000002 -47.74549999987069 138.882
352 -146.1819999999391 -111.9789999999533 147.0324999999769
353 -143.32949999994 -118.2674999999505 147.0324999999767
354 -137.244999999948 -121.9959999999538 147.0324999999793
355 -128.7149999999228 -122.7004999999264 147.0324999999685
356 -119.5384999999463 -121.0984999999456 147.0324999999774
357 -50.10800000013595 -103.6179999999943 138.882
358 50.10799999986814 -103.6180000000055 138.882
359 119.5384999999463 -121.0984999999456 147.0324999999774
360 128.7149999999228 -122.7004999999264 147.0324999999685
361 137.244999999948 -121.9959999999538 147.0324999999793
362 143.32949999994 -118.2674999999505 147.0324999999767
363 146.1819999999391 -111.9789999999533 147.0324999999769
364 125.4084999999974 -47.74550000016372 138.882
365 168.2580000000007 42.82233333322551 155.183
366 167.9820000000007 85.64466666655457 155.183
367 187.9239999999534 143.9539999999643 160.5549999999876
368 184.1254999999533 151.9299999999615 160.5549999999873
369 177.0814999999347 157.406499999942 160.5549999999818
370 167.6104999999455 159.7779999999481 160.5549999999845
371 157.2744999999634 159.3269999999629 160.5549999999893
372 92.5740000001009 141.2956666666653 155.183
373 46.28700000011834 141.9183333333317 155.183
374 -46.28699999988194 141.9183333333349 155.183
375 -92.57399999987514 141.2956666666684 155.183
376 -157.2744999999634 159.3269999999629 160.5549999999893
377 -167.6104999999455 159.7779999999481 160.5549999999845
378 -177.0814999999347 157.406499999942 160.5549999999818
379 -184.1254999999533 151.9299999999615 160.5549999999873
380 -187.9239999999534 143.9539999999643 160.5549999999876
381 -167.9819999999994 85.64466666675924 155.183
382 -168.2579999999993 42.82233333344151 155.183
383 -168.2580000000007 -42.82233333322551 155.183
384 -167.9820000000007 -85.64466666655457 155.183
385 -187.9239999999534 -143.9539999999643 160.5549999999876
386 -184.1254999999533 -151.9299999999615 160.5549999999873
387 -177.0814999999347 -157.406499999942 160.5549999999818
388 -167.6104999999455 -159.7779999999481 160.5549999999845
389 -157.2744999999634 -159.3269999999629 160.5549999999893
390 -92.5740000001009 -141.2956666666653 155.183
391 -46.28700000011834 -141.9183333333317 155.183
392 46.28699999988194 -141.9183333333349 155.183
393 92.57399999987514 -141.2956666666684 155.183
394 157.2744999999634 -159.3269999999629 160.5549999999893
395 167.6104999999455 -159.7779999999481 160.5549999999845
396 177.0814999999347 -157.406499999942 160.5549999999818
397 184.1254999999533 -151.9299999999615 160.5549999999873
398 187.9239999999534 -143.9539999999643 160.5549999999876
399 167.9819999999994 -85.64466666675924 155.183
400 168.2579999999993 -42.82233333344151 155.183
401 208.4067500000002 39.86024999990942 165.927
402 208.3185000000005 79.72049999979544 165.927
403 208.2302500000002 119.5807499999034 165.927
404 131.7660000000846 177.8992500000002 165.927
405 87.84400000021652 177.8175000000004 165.927
406 43.92200000011522 177.7357500000002 165.927
407 -43.92199999989952 177.7357499999998 165.927
408 -87.8439999997766 177.8174999999996 165.927
409 -131.7659999998813 177.8992499999998 165.927
410 -208.2302499999998 119.5807500000832 165.927
411 -208.3184999999995 79.72050000019962 165.927
412 -208.4067499999998 39.8602500000942 165.927
413 -208.4067500000002 -39.86024999990942 165.927
414 -208.3185000000005 -79.72049999979544 165.927
415 -208.2302500000002 -119.5807499999034 165.927
416 -131.7660000000846 -177.8992500000002 165.927
417 -87.84400000021652 -177.8175000000004 165.927
418 -43.92200000011522 -177.7357500000002 165.927
419 43.92199999989952 -177.7357499999998 165.927
420 87.8439999997766 -177.8174999999996 165.927
421 131.7659999998813 -177.8992499999998 165.927
422 208.2302499999998 -119.5807500000832 165.927
423 208.3184999999995 -79.72050000019962 165.927
424 208.4067499999998 -39.8602500000942 165.927
425 241.2310000000004 46.0959999999046 172.367
426 241.0550000000009 92.19199999975946 172.367
427 240.8790000000005 138.2879999998728 172.367
428 164.3664000000886 207.9282000000005 172.367
429 123.2748000002239 207.7174000000012 172.367
430 82.18320000022797 207.5066000000012 172.367
431 41.0916000001001 207.2958000000005 172.367
432 -41.09159999990783 207.2957999999995 172.367
433 -82.1831999997803 207.5065999999989 172.367
434 -123.2747999997748 207.7173999999989 172.367
435 -164.3663999999013 207.9281999999995 172.367
436 -240.8789999999996 138.2880000000903 172.367
437 -241.0549999999991 92.19200000023901 172.367
438 -241.2309999999995 46.09600000012645 172.367
439 -241.2310000000004 -46.0959999999046 172.367
440 -241.0550000000009 -92.19199999975946 172.367
441 -240.8790000000005 -138.2879999998728 172.367
442 -164.3664000000886 -207.9282000000005 172.367
443 -123.2748000002239 -207.7174000000012 172.367
444 -82.18320000022797 -207.5066000000012 172.367
445 -41.0916000001001 -207.2958000000005 172.367
446 41.09159999990783 -207.2957999999995 172.367
447 82.1831999997803 -207.5065999999989 172.367
448 123.2747999997748 -207.7173999999989 172.367
449 164.3663999999013 -207.9281999999995 172.367
450 240.8789999999996 -138.2880000000903 172.367
451 241.0549999999991 -92.19200000023901 172.367
452 241.2309999999995 -46.09600000012645 172.367
453 262.3872500000011 49.9747499998874 175.254
454 261.9105000000024 99.94949999974816 175.254
455 261.4337500000012 149.9242499998728 175.254
456 179.120000000121 226.822 175.254
457 134.3400000002309 226.822 175.254
458 89.56000000023207 226.822 175.254
459 44.78000000009106 226.822 175.254
460 -44.7799999998999 226.822 175.254
461 -89.55999999977789 226.822 175.254
462 -134.3399999997738 226.822 175.254
463 -179.1199999999119 226.822 175.254
464 -261.4337499999988 149.9242500001264 175.254
465 -261.9104999999973 99.9495000002775 175.254
466 -262.3872499999986 49.97475000014009 175.254
467 -262.3872500000011 -49.9747499998874 175.254
468 -261.9105000000024 -99.94949999974816 175.254
469 -261.4337500000012 -149.9242499998728 175.254
470 -179.120000000121 -226.822 175.254
471 -134.3400000002309 -226.822 175.254
472 -89.56000000023207 -226.822 175.254
473 -44.78000000009106 -226.822 175.254
474 44.7799999998999 -226.822 175.254
475 89.55999999977789 -226.822 175.254
476 134.3399999997738 -226.822 175.254
477 179.1199999999119 -226.822 175.254
478 261.4337499999988 -149.9242500001264 175.254
479 261.9104999999973 -99.9495000002775 175.254
480 262.3872499999986 -49.97475000014009 175.254
481 11.56818862366879 3.934020214944551 2.207578856491393
482 4.499735564667422 10.93174153005314 2.211174484322207
483 -4.520789337543854 10.98482125215991 2.208561978878265
484 -11.50096249437785 3.912528097324311 2.21254308367758
485 -11.56818862366879 -3.934020214944551 2.207578856491393
486 -4.499735564667422 -10.93174153005314 2.211174484322207
487 4.520789337543854 -10.98482125215991 2.208561978878265
488 11.50096249437785 -3.912528097324311 2.21254308367758
489 12.74487951566134 4.403709983685529 8.346385405784984
490 4.828806778237112 11.48428275336134 8.410059026679361
491 -4.921847209702367 11.7702642987002 8.361068440614311
492 -12.42266814187026 4.329792101642449 8.426612753695414
493 -12.74487951566134 -4.403709983685529 8.346385405784984
494 -4.828806778237112 -11.48428275336134 8.410059026679361
495 4.921847209702367 -11.7702642987002 8.361068440614311
496 12.42266814187026 -4.329792101642449 8.426612753695414
497 16.31983518307241 5.344020560127705 18.60884332588565
498 5.942003588409112 13.67557957826688 18.60356033810585
499 -6.031949254590121 14.17844262369223 18.44330610477838
500 -15.88858861653119 5.349334579611077 18.81089211354015
501 -16.31983518307241 -5.344020560127705 18.60884332588565
502 -5.942003588409112 -13.67557957826688 18.60356033810585
503 6.031949254590121 -14.17844262369223 18.44330610477838
504 15.88858861653119 -5.349334579611077 18.81089211354015
505 23.36158809683982 7.289923523630915 33.38093646649341
506 7.944359442366396 18.91689899263177 33.65888457706516
507 -7.975104785974236 19.36732352852086 33.4627322369432
508 -23.0326053171772 7.296707094678471 33.56680412995218
509 -23.36158809683982 -7.289923523630915 33.38093646649341
510 -7.944359442366396 -18.91689899263177 33.65888457706516
511 7.975104785974236 -19.36732352852086 33.4627322369432
512 23.0326053171772 -7.296707094678471 33.56680412995218
513 34.79345322371299 11.93517332082632 53.34335416706381
514 12.38112119683671 27.64173601421792 53.5082077952306
515 -12.40428565489811 27.89102606466512 53.38341905629029
516 -34.63941442173252 11.93236834044544 53.44038930472873
517 -34.79345322371299 -11.93517332082632 53.34335416706381
518 -12.38112119683671 -27.64173601421792 53.5082077952306
519 12.40428565489811 -27.89102606466512 53.38341905629029
520 34.63941442173252 -11.93236834044544 53.44038930472873
521 51.39545730115523 19.47549146792996 77.75178840785763
522 19.20949068117179 40.73733899605631 77.7904603675865
523 -19.21905561525408 40.84015867424323 77.72679085368681
524 -51.37756096797208 19.47500902456308 77.76521692059396
525 -51.39545730115523 -19.47549146792996 77.75178840785763
526 -19.20949068117179 -40.73733899605631 77.7904603675865
527 19.21905561525408 -40.84015867424323 77.72679085368681
528 51.37756096797207 -19.47500902456308 77.76521692059396
529 75.18070836550589 20.01243239473451 104.0137887555361
530 -75.15584173080931 20.01181884132997 104.0402082223213
531 -75.18070836550589 -20.01243239473451 104.0137887555361
532 75.15584173080931 -20.01181884132997 104.0402082223213
533 103.3044137015311 49.50258707840501 125.7553051477351
534 106.988805105176 23.64668432908985 127.7043894270882
535 21.05499725449271 88.58277491651184 128.3867190624889
536 -21.06883089774901 88.91380462142885 127.883161119151
537 -103.210811671461 49.50125668880875 125.9135782367028
538 -106.9095063263661 23.64565929343464 127.8393996246486
539 -103.3044137015311 -49.50258707840501 125.7553051477351
540 -106.988805105176 -23.64668432908985 127.7043894270882
541 -21.05499725449271 -88.58277491651184 128.3867190624889
542 21.06883089774901 -88.91380462142885 127.883161119151
543 103.210811671461 -49.50125668880875 125.9135782367028
544 106.9095063263661 -23.64565929343464 127.8393996246486
545 144.0910934681833 73.65945100696572 145.9628258553833
546 147.1683381053852 22.25157414687027 147.0191340374845
547 76.60810302119633 120.0490706444491 146.3639459114825
548 24.0966804295915 123.2934882448293 147.4068856156471
549 97.23415075531088 120.991809327765 146.865361477865
550 -76.60968274358349 120.2978702302076 145.7940448184448
551 -24.0995322448377 123.5054828563995 146.901122244958
552 -97.2368924205518 121.2284577933993 146.3287529394782
553 -144.0279240598275 73.65931641544866 146.1277585365815
554 -147.1130165471997 22.251217586551 147.1654008245849
555 -144.0910934681833 -73.65945100696572 145.9628258553833
556 -147.1683381053852 -22.25157414687027 147.0191340374845
557 -76.60810302119633 -120.0490706444491 146.3639459114825
558 -24.0966804295915 -123.2934882448293 147.4068856156471
559 -97.23415075531088 -120.991809327765 146.865361477865
560 76.60968274358349 -120.2978702302076 145.7940448184448
561 24.0995322448377 -123.5054828563995 146.901122244958
562 97.2368924205518 -121.2284577933993 146.3287529394782
563 144.0279240598275 -73.65931641544866 146.1277585365815
564 147.1130165471997 -22.251217586551 147.1654008245849
565 185.4514728353111 108.2852584589413 159.7959254936674
566 188.4507885636044 20.44646030762984 160.5500413008748
567 112.7612753444875 159.4077373328495 160.6021968985764
568 22.55237672199324 159.894186664248 160.7909844928824
569 65.91415063237054 161.0402571994534 161.0983537243418
570 -112.761108818338 159.4972070820054 160.3071013201527
571 -22.55222176363632 159.9774414164013 160.5054202640306
572 -65.9140037612375 161.1191667959128 160.8300743332485
573 -185.4308703885314 108.2852599995786 159.8727403244609
574 -188.4328789862792 20.44642065619026 160.6174500826905
575 -185.4514728353111 -108.2852584589413 159.7959254936674
576 -188.4507885636044 -20.44646030762984 160.5500413008748
577 -112.7612753444875 -159.4077373328495 160.6021968985764
578 -22.55237672199324 -159.894186664248 160.7909844928824
579 -65.91415063237054 -161.0402571994534 161.0983537243418
580 112.7611088183381 -159.4972070820054 160.3071013201527
581 22.55222176363632 -159.9774414164013 160.5054202640306
582 65.9140037612375 -161.1191667959128 160.8300743332485
583 185.4308703885314 -108.2852599995786 159.8727403244609
584 188.4328789862792 -20.44642065619026 160.6174500826905
585 224.8843480246335 21.48906024926659 169.1500125486442
586 21.25345675923763 192.4315733364472 169.1985502055172
587 61.70477952857593 194.2667947358112 169.5479029476439
588 -21.25339158657355 192.4442775340368 169.1395049935181
589 -61.70472147260626 194.2781116216541 169.4953709941737
590 -224.8891262866559 21.48907849333986 169.1257593163346
591 -224.8843480246335 -21.48906024926659 169.1500125486442
592 -21.25345675923763 -192.4315733364472 169.1985502055172
593 -61.70477952857593 -194.2667947358112 169.5479029476439
594 21.25339158657355 -192.4442775340368 169.1395049935181
595 61.70472147260626 -194.2781116216541 169.4953709941737
596 224.8891262866559 -21.48907849333986 169.1257593163346
597 251.9711400581682 24.01767631506677 173.8192139190826
598 21.46790000004779 217.0172612752013 173.7389178023608
599 -21.46789999995193 217.0050960541394 173.8180471352435
600 -251.981373222502 24.0177739377067 173.7464691882404
601 -251.9711400581682 -24.01767631506677 173.8192139190826
602 -21.46790000004779 -217.0172612752013 173.7389178023608
603 21.46789999995193 -217.0050960541394 173.8180471352435
604 251.981373222502 -24.0177739377067 173.7464691882404
$EndNodes
$Elements
2212
1 15 2 0 1 1
2 15 2 0 2 2
3 15 2 0 3 3
4 15 2 0 4 4
5 15 2 0 5 5
6 15 2 0 6 6
7 15 2 0 7 7
8 15 2 0 8 8
9 15 2 0 9 9
10 15 2 0 10 10
11 15 2 0 11 11
12 15 2 0 12 12
13 15 2 0 13 13
14 15 2 0 14 14
15 15 2 0 15 15
16 15 2 0 16 16
17 15 2 0 17 17
18 15 2 0 18 18
19 15 2 0 19 19
20 15 2 0 20 20
21 15 2 0 21 21
22 15 2 0 22 22
23 15 2 0 23 23
24 15 2 0 24 24
25 15 2 0 25 25
26 15 2 0 26 26
27 15 2 0 27 27
28 15 2 0 28 28
29 15 2 0 29 29
30 15 2 0 30 30
31 15 2 0 31 31
32 15 2 0 32 32
33 15 2 0 33 33
34 15 2 0 34 34
35 15 2 0 35 35
36 15 2 0 36 36
37 15 2 0 37 37
38 15 2 0 38 38
39 15 2 0 39 39
40 15 2 0 40 40
41 15 2 0 41 41
42 15 2 0 42 42
43 15 2 0 43 43
44 15 2 0 44 44
45 15 2 0 45 45
46 15 2 0 46 46
47 15 2 0 47 47
48 15 2 0 48 48
49 15 2 0 49 49
50 15 2 0 50 50
51 15 2 0 51 51
52 15 2 0 52 52
53 15 2 0 53 53
54 15 2 0 54 54
55 15 2 0 55 55
56 15 2 0 56 56
57 15 2 0 57 57
58 15 2 0 58 58
59 15 2 0 59 59
60 15 2 0 60 60
61 15 2 0 61 61
62 15 2 0 62 62
63 15 2 0 63 63
64 15 2 0 64 64
65 15 2 0 65 65
66 15 2 0 66 66
67 15 2 0 67 67
68 15 2 0 68 68
69 15 2 0 69 69
70 15 2 0 70 70
71 15 2 0 71 71
72 15 2 0 72 72
73 15 2 0 73 73
74 15 2 0 74 74
75 15 2 0 75 75
76 15 2 0 76 76
77 15 2 0 77 77
78 15 2 0 78 78
79 15 2 0 79 79
80 15 2 0 80 80
81 15 2 0 81 81
82 15 2 0 82 82
83 15 2 0 83 83
84 15 2 0 84 84
85 15 2 0 85 85
86 15 2 0 86 86
87 15 2 0 87 87
88 15 2 0 88 88
89 15 2 0 89 89
90 15 2 0 90 90
91 15 2 0 91 91
92 15 2 0 92 92
93 15 2 0 93 93
94 15 2 0 94 94
95 15 2 0 95 95
96 15 2 0 96 96
97 15 2 0 97 97
98 15 2 0 98 98
99 15 2 0 99 99
100 15 2 0 100 100
101 15 2 0 101 101
102 15 2 0 102 102
103 15 2 0 103 103
104 15 2 0 104 104
105 15 2 0 105 105
106 15 2 0 106 106
107 15 2 0 107 107
108 15 2 0 108 108
109 15 2 0 109 109
110 15 2 0 110 110
111 15 2 0 111 111
112 15 2 0 112 112
113 15 2 0 113 113
114 15 2 0 114 114
115 15 2 0 115 115
116 15 2 0 116 116
117 15 2 0 117 117
118 15 2 0 118 118
119 15 2 0 119 119
120 15 2 0 120 120
121 15 2 0 121 121
122 15 2 0 122 122
123 15 2 0 123 123
124 15 2 0 124 124
125 15 2 0 125 125
126 15 2 0 126 126
127 15 2 0 127 127
128 15 2 0 128 128
129 15 2 0 129 129
130 15 2 0 130 130
131 15 2 0 131 131
132 15 2 0 132 132
133 15 2 0 133 133
134 15 2 0 134 134
135 15 2 0 135 135
136 15 2 0 136 136
137 15 2 0 137 137
138 15 2 0 138 138
139 15 2 0 139 139
140 15 2 0 140 140
141 15 2 0 141 141
142 15 2 0 142 142
143 15 2 0 143 143
144 15 2 0 144 144
145 15 2 0 145 145
146 15 2 0 146 146
147 15 2 0 147 147
148 15 2 0 148 148
149 15 2 0 149 149
150 15 2 0 150 150
151 15 2 0 151 151
152 15 2 0 152 152
153 15 2 0 153 153
154 15 2 0 154 154
155 15 2 0 155 155
156 15 2 0 156 156
157 15 2 0 157 157
158 15 2 0 158 158
159 15 2 0 159 159
160 15 2 0 160 160
161 15 2 0 161 161
162 15 2 0 162 162
163 15 2 0 163 163
164 15 2 0 164 164
165 15 2 0 165 165
166 15 2 0 166 166
167 15 2 0 167 167
168 15 2 0 168 168
169 15 2 0 169 169
170 15 2 0 170 170
171 15 2 0 171 171
172 15 2 0 172 172
173 15 2 0 173 173
174 15 2 0 174 174
175 15 2 0 175 175
176 15 2 0 176 176
177 15 2 0 177 177
178 15 2 0 178 178
179 15 2 0 179 179
180 15 2 0 180 180
181 15 2 0 181 181
182 15 2 0 182 182
183 15 2 0 183 183
184 15 2 0 184 184
185 15 2 0 185 185
186 15 2 0 186 186
187 15 2 0 187 187
188 15 2 0 188 188
189 15 2 0 189 189
190 15 2 0 190 190
191 15 2 0 191 191
192 15 2 0 192 192
193 15 2 0 193 193
194 15 2 0 194 194
195 15 2 0 195 195
196 15 2 0 196 196
197 15 2 0 197 197
198 15 2 0 198 198
199 15 2 0 199 199
200 15 2 0 200 200
201 15 2 0 201 201
202 15 2 0 202 202
203 15 2 0 203 203
204 15 2 0 204 204
205 15 2 0 205 205
206 15 2 0 206 206
207 15 2 0 207 207
208 15 2 0 208 208
209 15 2 0 209 209
210 15 2 0 210 210
211 15 2 0 211 211
212 15 2 0 212 212
213 15 2 0 213 213
214 15 2 0 214 214
215 15 2 0 215 215
216 15 2 0 216 216
217 15 2 0 217 217
218 15 2 0 218 218
219 15 2 0 219 219
220 15 2 0 220 220
221 15 2 0 221 221
222 15 2 0 222 222
223 15 2 0 223 223
224 15 2 0 224 224
225 15 2 0 225 225
226 15 2 0 226 226
227 15 2 0 227 227
228 15 2 0 228 228
229 15 2 0 229 229
230 15 2 0 230 230
231 15 2 0 231 231
232 15 2 0 232 232
233 15 2 0 233 233
234 15 2 0 234 234
235 15 2 0 235 235
236 15 2 0 236 236
237 15 2 0 237 237
238 15 2 0 238 238
239 15 2 0 239 239
240 15 2 0 240 240
241 15 2 0 241 241
242 15 2 0 242 242
243 15 2 0 243 243
244 15 2 0 244 244
245 15 2 0 245 245
246 15 2 0 246 246
247 15 2 0 247 247
248 15 2 0 248 248
249 15 2 0 249 249
250 15 2 0 250 250
251 15 2 0 251 251
252 15 2 0 252 252
253 15 2 0 253 253
254 15 2 0 254 254
255 15 2 0 255 255
256 15 2 0 256 256
257 15 2 0 257 257
258 15 2 0 258 258
259 15 2 0 259 259
260 15 2 0 260 260
261 15 2 0 261 261
262 15 2 0 262 262
263 15 2 0 263 263
264 15 2 0 264 264
265 15 2 0 265 265
266 15 2 0 266 266
267 15 2 0 267 267
268 15 2 0 268 268
269 15 2 0 269 269
270 15 2 0 270 270
271 15 2 0 271 271
272 15 2 0 272 272
273 15 2 0 273 273
274 15 2 0 274 274
275 15 2 0 275 275
276 15 2 0 276 276
277 15 2 0 277 277
278 15 2 0 278 278
279 15 2 0 279 279
280 15 2 0 280 280
281 15 2 0 281 281
282 15 2 0 282 282
283 15 2 0 283 283
284 15 2 0 284 284
285 15 2 0 285 285
286 15 2 0 286 286
287 15 2 0 287 287
288 15 2 0 288 288
289 15 2 0 289 289
290 15 2 0 290 290
291 15 2 0 291 291
292 15 2 0 292 292
293 15 2 0 293 293
294 15 2 0 294 294
295 15 2 0 295 295
296 15 2 0 296 296
297 15 2 0 297 297
298 15 2 0 298 298
299 15 2 0 299 299
300 15 2 0 300 300
301 15 2 0 301 301
302 15 2 0 302 302
303 15 2 0 303 303
304 15 2 0 304 304
305 15 2 0 305 305
306 15 2 0 306 306
307 15 2 0 307 307
308 15 2 0 308 308
309 15 2 0 309 309
310 15 2 0 310 310
311 15 2 0 311 311
312 15 2 0 312 312
313 1 2 0 1 1 25
314 1 2 0 2 1 2
315 1 2 0 3 2 26
316 1 2 0 4 2 3
317 1 2 0 5 3 27
318 1 2 0 6 3 4
319 1 2 0 7 4 28
320 1 2 0 8 4 5
321 1 2 0 9 5 29
322 1 2 0 10 5 6
323 1 2 0 11 6 30
324 1 2 0 12 6 7
325 1 2 0 13 7 31
326 1 2 0 14 7 8
327 1 2 0 15 8 32
328 1 2 0 16 8 9
329 1 2 0 17 9 33
330 1 2 0 18 9 10
331 1 2 0 19 10 34
332 1 2 0 20 10 11
333 1 2 0 21 11 35
334 1 2 0 22 11 12
335 1 2 0 23 12 36
336 1 2 0 24 12 13
337 1 2 0 25 13 37
338 1 2 0 26 13 14
339 1 2 0 27 14 38
340 1 2 0 28 14 15
341 1 2 0 29 15 39
342 1 2 0 30 15 16
343 1 2 0 31 16 40
344 1 2 0 32 16 17
345 1 2 0 33 17 41
346 1 2 0 34 17 18
347 1 2 0 35 18 42
348 1 2 0 36 18 19
349 1 2 0 37 19 43
350 1 2 0 38 19 20
351 1 2 0 39 20 44
352 1 2 0 40 20 21
353 1 2 0 41 21 45
354 1 2 0 42 21 22
355 1 2 0 43 22 46
356 1 2 0 44 22 23
357 1 2 0 45 23 47
358 1 2 0 46 23 24
359 1 2 0 47 24 48
360 1 2 0 48 24 1
361 1 2 0 49 25 49
362 1 2 0 50 25 26
363 1 2 0 51 26 50
364 1 2 0 52 26 27
365 1 2 0 53 27 51
366 1 2 0 54 27 28
367 1 2 0 55 28 52
368 1 2 0 56 28 29
369 1 2 0 57 29 53
370 1 2 0 58 29 30
371 1 2 0 59 30 54
372 1 2 0 60 30 31
373 1 2 0 61 31 55
374 1 2 0 62 31 32
375 1 2 0 63 32 56
376 1 2 0 64 32 33
377 1 2 0 65 33 57
378 1 2 0 66 33 34
379 1 2 0 67 34 58
380 1 2 0 68 34 35
381 1 2 0 69 35 59
382 1 2 0 70 35 36
383 1 2 0 71 36 60
384 1 2 0 72 36 37
385 1 2 0 73 37 61
386 1 2 0 74 37 38
387 1 2 0 75 38 62
388 1 2 0 76 38 39
389 1 2 0 77 39 63
390 1 2 0 78 39 40
391 1 2 0 79 40 64
392 1 2 0 80 40 41
393 1 2 0 81 41 65
394 1 2 0 82 41 42
395 1 2 0 83 42 66
396 1 2 0 84 42 43
397 1 2 0 85 43 67
398 1 2 0 86 43 44
399 1 2 0 87 44 68
400 1 2 0 88 44 45
401 1 2 0 89 45 69
402 1 2 0 90 45 46
403 1 2 0 91 46 70
404 1 2 0 92 46 47
405 1 2 0 93 47 71
406 1 2 0 94 47 48
407 1 2 0 95 48 72
408 1 2 0 96 48 25
409 1 2 0 97 49 73
410 1 2 0 98 49 50
411 1 2 0 99 50 74
412 1 2 0 100 50 51
413 1 2 0 101 51 75
414 1 2 0 102 51 52
415 1 2 0 103 52 76
416 1 2 0 104 52 53
417 1 2 0 105 53 77
418 1 2 0 106 53 54
419 1 2 0 107 54 78
420 1 2 0 108 54 55
421 1 2 0 109 55 79
422 1 2 0 110 55 56
423 1 2 0 111 56 80
424 1 2 0 112 56 57
425 1 2 0 113 57 81
426 1 2 0 114 57 58
427 1 2 0 115 58 82
428 1 2 0 116 58 59
429 1 2 0 117 59 83
430 1 2 0 118 59 60
431 1 2 0 119 60 84
432 1 2 0 120 60 61
433 1 2 0 121 61 85
434 1 2 0 122 61 62
435 1 2 0 123 62 86
436 1 2 0 124 62 63
437 1 2 0 125 63 87
438 1 2 0 126 63 64
439 1 2 0 127 64 88
440 1 2 0 128 64 65
441 1 2 0 129 65 89
442 1 2 0 130 65 66
443 1 2 0 131 66 90
444 1 2 0 132 66 67
445 1 2 0 133 67 91
446 1 2 0 134 67 68
447 1 2 0 135 68 92
448 1 2 0 136 68 69
449 1 2 0 137 69 93
450 1 2 0 138 69 70
451 1 2 0 139 70 94
452 1 2 0 140 70 71
453 1 2 0 141 71 95
454 1 2 0 142 71 72
455 1 2 0 143 72 96
456 1 2 0 144 72 49
457 1 2 0 145 73 97
458 1 2 0 146 73 74
459 1 2 0 147 74 98
460 1 2 0 148 74 75
461 1 2 0 149 75 99
462 1 2 0 150 75 76
463 1 2 0 151 76 100
464 1 2 0 152 76 77
465 1 2 0 153 77 101
466 1 2 0 154 77 78
467 1 2 0 155 78 102
468 1 2 0 156 78 79
469 1 2 0 157 79 103
470 1 2 0 158 79 80
471 1 2 0 159 80 104
472 1 2 0 160 80 81
473 1 2 0 161 81 105
474 1 2 0 162 81 82
475 1 2 0 163 82 106
476 1 2 0 164 82 83
477 1 2 0 165 83 107
478 1 2 0 166 83 84
479 1 2 0 167 84 108
480 1 2 0 168 84 85
481 1 2 0 169 85 109
482 1 2 0 170 85 86
483 1 2 0 171 86 110
484 1 2 0 172 86 87
485 1 2 0 173 87 111
486 1 2 0 174 87 88
487 1 2 0 175 88 112
488 1 2 0 176 88 89
489 1 2 0 177 89 113
490 1 2 0 178 89 90
491 1 2 0 179 90 114
492 1 2 0 180 90 91
493 1 2 0 181 91 115
494 1 2 0 182 91 92
495 1 2 0 183 92 116
496 1 2 0 184 92 93
497 1 2 0 185 93 117
498 1 2 0 186 93 94
499 1 2 0 187 94 118
500 1 2 0 188 94 95
501 1 2 0 189 95 119
502 1 2 0 190 95 96
503 1 2 0 191 96 120
504 1 2 0 192 96 73
505 1 2 0 193 97 121
506 1 2 0 194 97 98
507 1 2 0 195 98 122
508 1 2 0 196 98 99
509 1 2 0 197 99 123
510 1 2 0 198 99 100
511 1 2 0 199 100 124
512 1 2 0 200 100 101
513 1 2 0 201 101 125
514 1 2 0 202 101 102
515 1 2 0 203 102 126
516 1 2 0 204 102 103
517 1 2 0 205 103 127
518 1 2 0 206 103 104
519 1 2 0 207 104 128
520 1 2 0 208 104 105
521 1 2 0 209 105 129
522 1 2 0 210 105 106
523 1 2 0 211 106 130
524 1 2 0 212 106 107
525 1 2 0 213 107 131
526 1 2 0 214 107 108
527 1 2 0 215 108 132
528 1 2 0 216 108 109
529 1 2 0 217 109 133
530 1 2 0 218 109 110
531 1 2 0 219 110 134
532 1 2 0 220 110 111
533 1 2 0 221 111 135
534 1 2 0 222 111 112
535 1 2 0 223 112 136
536 1 2 0 224 112 113
537 1 2 0 225 113 137
538 1 2 0 226 113 114
539 1 2 0 227 114 138
540 1 2 0 228 114 115
541 1 2 0 229 115 139
542 1 2 0 230 115 116
543 1 2 0 231 116 140
544 1 2 0 232 116 117
545 1 2 0 233 117 141
546 1 2 0 234 117 118
547 1 2 0 235 118 142
548 1 2 0 236 118 119
549 1 2 0 237 119 143
550 1 2 0 238 119 120
551 1 2 0 239 120 144
552 1 2 0 240 120 97
553 1 2 0 241 121 145
554 1 2 0 242 121 122
555 1 2 0 243 122 146
556 1 2 0 244 122 123
557 1 2 0 245 123 147
558 1 2 0 246 123 124
559 1 2 0 247 124 148
560 1 2 0 248 124 125
561 1 2 0 249 125 149
562 1 2 0 250 125 126
563 1 2 0 251 126 150
564 1 2 0 252 126 127
565 1 2 0 253 127 151
566 1 2 0 254 127 128
567 1 2 0 255 128 152
568 1 2 0 256 128 129
569 1 2 0 257 129 153
570 1 2 0 258 129 130
571 1 2 0 259 130 154
572 1 2 0 260 130 131
573 1 2 0 261 131 155
574 1 2 0 262 131 132
575 1 2 0 263 132 156
576 1 2 0 264 132 133
577 1 2 0 265 133 157
578 1 2 0 266 133 134
579 1 2 0 267 134 158
580 1 2 0 268 134 135
581 1 2 0 269 135 159
582 1 2 0 270 135 136
583 1 2 0 271 136 160
584 1 2 0 272 136 137
585 1 2 0 273 137 161
586 1 2 0 274 137 138
587 1 2 0 275 138 162
588 1 2 0 276 138 139
589 1 2 0 277 139 163
590 1 2 0 278 139 140
591 1 2 0 279 140 164
592 1 2 0 280 140 141
593 1 2 0 281 141 165
594 1 2 0 282 141 142
595 1 2 0 283 142 166
596 1 2 0 284 142 143
597 1 2 0 285 143 167
598 1 2 0 286 143 144
599 1 2 0 287 144 168
600 1 2 0 288 144 121
601 1 2 0 289 145 169
602 1 2 0 290 145 146
603 1 2 0 291 146 170
604 1 2 0 292 146 147
605 1 2 0 293 147 171
606 1 2 0 294 147 148
607 1 2 0 295 148 172
608 1 2 0 296 148 149
609 1 2 0 297 149 173
610 1 2 0 298 149 150
611 1 2 0 299 150 174
612 1 2 0 300 150 151
613 1 2 0 301 151 175
614 1 2 0 302 151 152
615 1 2 0 303 152 176
616 1 2 0 304 152 153
617 1 2 0 305 153 177
618 1 2 0 306 153 154
619 1 2 0 307 154 178
620 1 2 0 308 154 155
621 1 2 0 309 155 179
622 1 2 0 310 155 156
623 1 2 0 311 156 180
624 1 2 0 312 156 157
625 1 2 0 313 157 181
626 1 2 0 314 157 158
627 1 2 0 315 158 182
628 1 2 0 316 158 159
629 1 2 0 317 159 183
630 1 2 0 318 159 160
631 1 2 0 319 160 184
632 1 2 0 320 160 161
633 1 2 0 321 161 185
634 1 2 0 322 161 162
635 1 2 0 323 162 186
636 1 2 0 324 162 163
637 1 2 0 325 163 187
638 1 2 0 326 163 164
639 1 2 0 327 164 188
640 1 2 0 328 164 165
641 1 2 0 329 165 189
642 1 2 0 330 165 166
643 1 2 0 331 166 190
644 1 2 0 332 166 167
645 1 2 0 333 167 191
646 1 2 0 334 167 168
647 1 2 0 335 168 192
648 1 2 0 336 168 145
649 1 2 0 337 169 193
650 1 2 0 338 169 313
651 1 2 0 338 313 170
652 1 2 0 339 170 314
653 1 2 0 339 314 194
654 1 2 0 340 170 171
655 1 2 0 341 171 315
656 1 2 0 341 315 195
657 1 2 0 342 171 172
658 1 2 0 343 172 316
659 1 2 0 343 316 196
660 1 2 0 344 172 173
661 1 2 0 345 173 317
662 1 2 0 345 317 197
663 1 2 0 346 173 174
664 1 2 0 347 174 198
665 1 2 0 348 174 318
666 1 2 0 348 318 175
667 1 2 0 349 175 199
668 1 2 0 350 175 319
669 1 2 0 350 319 176
670 1 2 0 351 176 200
671 1 2 0 352 176 177
672 1 2 0 353 177 320
673 1 2 0 353 320 201
674 1 2 0 354 177 178
675 1 2 0 355 178 321
676 1 2 0 355 321 202
677 1 2 0 356 178 179
678 1 2 0 357 179 322
679 1 2 0 357 322 203
680 1 2 0 358 179 180
681 1 2 0 359 180 323
682 1 2 0 359 323 204
683 1 2 0 360 180 324
684 1 2 0 360 324 181
685 1 2 0 361 181 205
686 1 2 0 362 181 325
687 1 2 0 362 325 182
688 1 2 0 363 182 326
689 1 2 0 363 326 206
690 1 2 0 364 182 183
691 1 2 0 365 183 327
692 1 2 0 365 327 207
693 1 2 0 366 183 184
694 1 2 0 367 184 328
695 1 2 0 367 328 208
696 1 2 0 368 184 185
697 1 2 0 369 185 329
698 1 2 0 369 329 209
699 1 2 0 370 185 186
700 1 2 0 371 186 210
701 1 2 0 372 186 330
702 1 2 0 372 330 187
703 1 2 0 373 187 211
704 1 2 0 374 187 331
705 1 2 0 374 331 188
706 1 2 0 375 188 212
707 1 2 0 376 188 189
708 1 2 0 377 189 332
709 1 2 0 377 332 213
710 1 2 0 378 189 190
711 1 2 0 379 190 333
712 1 2 0 379 333 214
713 1 2 0 380 190 191
714 1 2 0 381 191 334
715 1 2 0 381 334 215
716 1 2 0 382 191 192
717 1 2 0 383 192 335
718 1 2 0 383 335 216
719 1 2 0 384 192 336
720 1 2 0 384 336 169
721 1 2 0 385 193 217
722 1 2 0 386 193 337
723 1 2 0 386 337 194
724 1 2 0 387 194 338
725 1 2 0 387 338 218
726 1 2 0 388 194 195
727 1 2 0 389 195 339
728 1 2 0 389 339 219
729 1 2 0 390 195 196
730 1 2 0 391 196 340
731 1 2 0 391 340 220
732 1 2 0 392 196 197
733 1 2 0 393 197 341
734 1 2 0 393 341 221
735 1 2 0 394 197 198
736 1 2 0 395 198 342
737 1 2 0 395 342 222
738 1 2 0 396 198 343
739 1 2 0 396 343 199
740 1 2 0 397 199 223
741 1 2 0 398 199 344
742 1 2 0 398 344 200
743 1 2 0 399 200 345
744 1 2 0 399 345 224
745 1 2 0 400 200 201
746 1 2 0 401 201 346
747 1 2 0 401 346 225
748 1 2 0 402 201 202
749 1 2 0 403 202 347
750 1 2 0 403 347 226
751 1 2 0 404 202 203
752 1 2 0 405 203 348
753 1 2 0 405 348 227
754 1 2 0 406 203 204
755 1 2 0 407 204 349
756 1 2 0 407 349 228
757 1 2 0 408 204 350
758 1 2 0 408 350 205
759 1 2 0 409 205 229
760 1 2 0 410 205 351
761 1 2 0 410 351 206
762 1 2 0 411 206 352
763 1 2 0 411 352 230
764 1 2 0 412 206 207
765 1 2 0 413 207 353
766 1 2 0 413 353 231
767 1 2 0 414 207 208
768 1 2 0 415 208 354
769 1 2 0 415 354 232
770 1 2 0 416 208 209
771 1 2 0 417 209 355
772 1 2 0 417 355 233
773 1 2 0 418 209 210
774 1 2 0 419 210 356
775 1 2 0 419 356 234
776 1 2 0 420 210 357
777 1 2 0 420 357 211
778 1 2 0 421 211 235
779 1 2 0 422 211 358
780 1 2 0 422 358 212
781 1 2 0 423 212 359
782 1 2 0 423 359 236
783 1 2 0 424 212 213
784 1 2 0 425 213 360
785 1 2 0 425 360 237
786 1 2 0 426 213 214
787 1 2 0 427 214 361
788 1 2 0 427 361 238
789 1 2 0 428 214 215
790 1 2 0 429 215 362
791 1 2 0 429 362 239
792 1 2 0 430 215 216
793 1 2 0 431 216 363
794 1 2 0 431 363 240
795 1 2 0 432 216 364
796 1 2 0 432 364 193
797 1 2 0 433 217 241
798 1 2 0 434 217 365
799 1 2 0 434 365 366
800 1 2 0 434 366 218
801 1 2 0 435 218 367
802 1 2 0 435 367 242
803 1 2 0 436 218 219
804 1 2 0 437 219 368
805 1 2 0 437 368 243
806 1 2 0 438 219 220
807 1 2 0 439 220 369
808 1 2 0 439 369 244
809 1 2 0 440 220 221
810 1 2 0 441 221 370
811 1 2 0 441 370 245
812 1 2 0 442 221 222
813 1 2 0 443 222 371
814 1 2 0 443 371 246
815 1 2 0 444 222 372
816 1 2 0 444 372 373
817 1 2 0 444 373 223
818 1 2 0 445 223 247
819 1 2 0 446 223 374
820 1 2 0 446 374 375
821 1 2 0 446 375 224
822 1 2 0 447 224 376
823 1 2 0 447 376 248
824 1 2 0 448 224 225
825 1 2 0 449 225 377
826 1 2 0 449 377 249
827 1 2 0 450 225 226
828 1 2 0 451 226 378
829 1 2 0 451 378 250
830 1 2 0 452 226 227
831 1 2 0 453 227 379
832 1 2 0 453 379 251
833 1 2 0 454 227 228
834 1 2 0 455 228 380
835 1 2 0 455 380 252
836 1 2 0 456 228 381
837 1 2 0 456 381 382
838 1 2 0 456 382 229
839 1 2 0 457 229 253
840 1 2 0 458 229 383
841 1 2 0 458 383 384
842 1 2 0 458 384 230
843 1 2 0 459 230 385
844 1 2 0 459 385 254
845 1 2 0 460 230 231
846 1 2 0 461 231 386
847 1 2 0 461 386 255
848 1 2 0 462 231 232
849 1 2 0 463 232 387
850 1 2 0 463 387 256
851 1 2 0 464 232 233
852 1 2 0 465 233 388
853 1 2 0 465 388 257
854 1 2 0 466 233 234
855 1 2 0 467 234 389
856 1 2 0 467 389 258
857 1 2 0 468 234 390
858 1 2 0 468 390 391
859 1 2 0 468 391 235
860 1 2 0 469 235 259
861 1 2 0 470 235 392
862 1 2 0 470 392 393
863 1 2 0 470 393 236
864 1 2 0 471 236 394
865 1 2 0 471 394 260
866 1 2 0 472 236 237
867 1 2 0 473 237 395
868 1 2 0 473 395 261
869 1 2 0 474 237 238
870 1 2 0 475 238 396
871 1 2 0 475 396 262
872 1 2 0 476 238 239
873 1 2 0 477 239 397
874 1 2 0 477 397 263
875 1 2 0 478 239 240
876 1 2 0 479 240 398
877 1 2 0 479 398 264
878 1 2 0 480 240 399
879 1 2 0 480 399 400
880 1 2 0 480 400 217
881 1 2 0 481 241 265
882 1 2 0 482 241 401
883 1 2 0 482 401 402
884 1 2 0 482 402 403
885 1 2 0 482 403 242
886 1 2 0 483 242 266
887 1 2 0 484 242 243
888 1 2 0 485 243 267
889 1 2 0 486 243 244
890 1 2 0 487 244 268
891 1 2 0 488 244 245
892 1 2 0 489 245 269
893 1 2 0 490 245 246
894 1 2 0 491 246 270
895 1 2 0 492 246 404
896 1 2 0 492 404 405
897 1 2 0 492 405 406
898 1 2 0 492 406 247
899 1 2 0 493 247 271
900 1 2 0 494 247 407
901 1 2 0 494 407 408
902 1 2 0 494 408 409
903 1 2 0 494 409 248
904 1 2 0 495 248 272
905 1 2 0 496 248 249
906 1 2 0 497 249 273
907 1 2 0 498 249 250
908 1 2 0 499 250 274
909 1 2 0 500 250 251
910 1 2 0 501 251 275
911 1 2 0 502 251 252
912 1 2 0 503 252 276
913 1 2 0 504 252 410
914 1 2 0 504 410 411
915 1 2 0 504 411 412
916 1 2 0 504 412 253
917 1 2 0 505 253 277
918 1 2 0 506 253 413
919 1 2 0 506 413 414
920 1 2 0 506 414 415
921 1 2 0 506 415 254
922 1 2 0 507 254 278
923 1 2 0 508 254 255
924 1 2 0 509 255 279
925 1 2 0 510 255 256
926 1 2 0 511 256 280
927 1 2 0 512 256 257
928 1 2 0 513 257 281
929 1 2 0 514 257 258
930 1 2 0 515 258 282
931 1 2 0 516 258 416
932 1 2 0 516 416 417
933 1 2 0 516 417 418
934 1 2 0 516 418 259
935 1 2 0 517 259 283
936 1 2 0 518 259 419
937 1 2 0 518 419 420
938 1 2 0 518 420 421
939 1 2 0 518 421 260
940 1 2 0 519 260 284
941 1 2 0 520 260 261
942 1 2 0 521 261 285
943 1 2 0 522 261 262
944 1 2 0 523 262 286
945 1 2 0 524 262 263
946 1 2 0 525 263 287
947 1 2 0 526 263 264
948 1 2 0 527 264 288
949 1 2 0 528 264 422
950 1 2 0 528 422 423
951 1 2 0 528 423 424
952 1 2 0 528 424 241
953 1 2 0 529 265 289
954 1 2 0 530 265 425
955 1 2 0 530 425 426
956 1 2 0 530 426 427
957 1 2 0 530 427 266
958 1 2 0 531 266 290
959 1 2 0 532 266 267
960 1 2 0 533 267 291
961 1 2 0 534 267 268
962 1 2 0 535 268 292
963 1 2 0 536 268 269
964 1 2 0 537 269 293
965 1 2 0 538 269 270
966 1 2 0 539 270 294
967 1 2 0 540 270 428
968 1 2 0 540 428 429
969 1 2 0 540 429 430
970 1 2 0 540 430 431
971 1 2 0 540 431 271
972 1 2 0 541 271 295
973 1 2 0 542 271 432
974 1 2 0 542 432 433
975 1 2 0 542 433 434
976 1 2 0 542 434 435
977 1 2 0 542 435 272
978 1 2 0 543 272 296
979 1 2 0 544 272 273
980 1 2 0 545 273 297
981 1 2 0 546 273 274
982 1 2 0 547 274 298
983 1 2 0 548 274 275
984 1 2 0 549 275 299
985 1 2 0 550 275 276
986 1 2 0 551 276 300
987 1 2 0 552 276 436
988 1 2 0 552 436 437
989 1 2 0 552 437 438
990 1 2 0 552 438 277
991 1 2 0 553 277 301
992 1 2 0 554 277 439
993 1 2 0 554 439 440
994 1 2 0 554 440 441
995 1 2 0 554 441 278
996 1 2 0 555 278 302
997 1 2 0 556 278 279
998 1 2 0 557 279 303
999 1 2 0 558 279 280
1000 1 2 0 559 280 304
1001 1 2 0 560 280 281
1002 1 2 0 561 281 305
1003 1 2 0 562 281 282
1004 1 2 0 563 282 306
1005 1 2 0 564 282 442
1006 1 2 0 564 442 443
1007 1 2 0 564 443 444
1008 1 2 0 564 444 445
1009 1 2 0 564 445 283
1010 1 2 0 565 283 307
1011 1 2 0 566 283 446
1012 1 2 0 566 446 447
1013 1 2 0 566 447 448
1014 1 2 0 566 448 449
1015 1 2 0 566 449 284
1016 1 2 0 567 284 308
1017 1 2 0 568 284 285
1018 1 2 0 569 285 309
1019 1 2 0 570 285 286
1020 1 2 0 571 286 310
1021 1 2 0 572 286 287
1022 1 2 0 573 287 311
1023 1 2 0 574 287 288
1024 1 2 0 575 288 312
1025 1 2 0 576 288 450
1026 1 2 0 576 450 451
1027 1 2 0 576 451 452
1028 1 2 0 576 452 265
1029 1 2 0 578 289 453
1030 1 2 0 578 453 454
1031 1 2 0 578 454 455
1032 1 2 0 578 455 290
1033 1 2 0 580 290 291
1034 1 2 0 582 291 292
1035 1 2 0 584 292 293
1036 1 2 0 586 293 294
1037 1 2 0 588 294 456
1038 1 2 0 588 456 457
1039 1 2 0 588 457 458
1040 1 2 0 588 458 459
1041 1 2 0 588 459 295
1042 1 2 0 590 295 460
1043 1 2 0 590 460 461
1044 1 2 0 590 461 462
1045 1 2 0 590 462 463
1046 1 2 0 590 463 296
1047 1 2 0 592 296 297
1048 1 2 0 594 297 298
1049 1 2 0 596 298 299
1050 1 2 0 598 299 300
1051 1 2 0 600 300 464
1052 1 2 0 600 464 465
1053 1 2 0 600 465 466
1054 1 2 0 600 466 301
1055 1 2 0 602 301 467
1056 1 2 0 602 467 468
1057 1 2 0 602 468 469
1058 1 2 0 602 469 302
1059 1 2 0 604 302 303
1060 1 2 0 606 303 304
1061 1 2 0 608 304 305
1062 1 2 0 610 305 306
1063 1 2 0 612 306 470
1064 1 2 0 612 470 471
1065 1 2 0 612 471 472
1066 1 2 0 612 472 473
1067 1 2 0 612 473 307
1068 1 2 0 614 307 474
1069 1 2 0 614 474 475
1070 1 2 0 614 475 476
1071 1 2 0 614 476 477
1072 1 2 0 614 477 308
1073 1 2 0 616 308 309
1074 1 2 0 618 309 310
1075 1 2 0 620 310 311
1076 1 2 0 622 311 312
1077 1 2 0 624 312 478
1078 1 2 0 624 478 479
1079 1 2 0 624 479 480
1080 1 2 0 624 480 289
1081 2 2 0 38 26 2 481
1082 2 2 0 38 1 25 481
1083 2 2 0 38 2 1 481
1084 2 2 0 38 25 26 481
1085 2 2 0 39 26 3 2
1086 2 2 0 39 27 3 26
1087 2 2 0 40 28 4 3
1088 2 2 0 40 27 28 3
1089 2 2 0 41 29 5 4
1090 2 2 0 41 28 29 4
1091 2 2 0 42 30 6 5
1092 2 2 0 42 29 30 5
1093 2 2 0 43 6 30 482
1094 2 2 0 43 31 7 482
1095 2 2 0 43 7 6 482
1096 2 2 0 43 30 31 482
1097 2 2 0 44 32 8 483
1098 2 2 0 44 7 31 483
1099 2 2 0 44 8 7 483
1100 2 2 0 44 31 32 483
1101 2 2 0 45 32 9 8
1102 2 2 0 45 33 9 32
1103 2 2 0 46 33 10 9
1104 2 2 0 46 34 10 33
1105 2 2 0 47 34 11 10
1106 2 2 0 47 35 11 34
1107 2 2 0 48 36 12 11
1108 2 2 0 48 35 36 11
1109 2 2 0 49 12 36 484
1110 2 2 0 49 37 13 484
1111 2 2 0 49 13 12 484
1112 2 2 0 49 36 37 484
1113 2 2 0 50 38 14 485
1114 2 2 0 50 13 37 485
1115 2 2 0 50 14 13 485
1116 2 2 0 50 37 38 485
1117 2 2 0 51 38 15 14
1118 2 2 0 51 39 15 38
1119 2 2 0 52 40 16 15
1120 2 2 0 52 39 40 15
1121 2 2 0 53 41 17 16
1122 2 2 0 53 40 41 16
1123 2 2 0 54 42 18 17
1124 2 2 0 54 41 42 17
1125 2 2 0 55 18 42 486
1126 2 2 0 55 43 19 486
1127 2 2 0 55 19 18 486
1128 2 2 0 55 42 43 486
1129 2 2 0 56 44 20 487
1130 2 2 0 56 19 43 487
1131 2 2 0 56 20 19 487
1132 2 2 0 56 43 44 487
1133 2 2 0 57 44 21 20
1134 2 2 0 57 45 21 44
1135 2 2 0 58 45 22 21
1136 2 2 0 58 46 22 45
1137 2 2 0 59 46 23 22
1138 2 2 0 59 47 23 46
1139 2 2 0 60 48 24 23
1140 2 2 0 60 47 48 23
1141 2 2 0 61 24 48 488
1142 2 2 0 61 25 1 488
1143 2 2 0 61 1 24 488
1144 2 2 0 61 48 25 488
1145 2 2 0 62 49 50 489
1146 2 2 0 62 26 25 489
1147 2 2 0 62 50 26 489
1148 2 2 0 62 25 49 489
1149 2 2 0 63 50 27 26
1150 2 2 0 63 51 27 50
1151 2 2 0 64 51 52 27
1152 2 2 0 64 52 28 27
1153 2 2 0 65 52 53 28
1154 2 2 0 65 53 29 28
1155 2 2 0 66 53 54 29
1156 2 2 0 66 54 30 29
1157 2 2 0 67 31 30 490
1158 2 2 0 67 30 54 490
1159 2 2 0 67 55 31 490
1160 2 2 0 67 54 55 490
1161 2 2 0 68 32 31 491
1162 2 2 0 68 56 32 491
1163 2 2 0 68 31 55 491
1164 2 2 0 68 55 56 491
1165 2 2 0 69 57 33 56
1166 2 2 0 69 56 33 32
1167 2 2 0 70 58 34 57
1168 2 2 0 70 57 34 33
1169 2 2 0 71 59 35 58
1170 2 2 0 71 58 35 34
1171 2 2 0 72 60 36 35
1172 2 2 0 72 59 60 35
1173 2 2 0 73 60 61 492
1174 2 2 0 73 37 36 492
1175 2 2 0 73 36 60 492
1176 2 2 0 73 61 37 492
1177 2 2 0 74 61 62 493
1178 2 2 0 74 38 37 493
1179 2 2 0 74 62 38 493
1180 2 2 0 74 37 61 493
1181 2 2 0 75 62 39 38
1182 2 2 0 75 63 39 62
1183 2 2 0 76 63 64 39
1184 2 2 0 76 64 40 39
1185 2 2 0 77 64 65 40
1186 2 2 0 77 65 41 40
1187 2 2 0 78 65 66 41
1188 2 2 0 78 66 42 41
1189 2 2 0 79 43 42 494
1190 2 2 0 79 42 66 494
1191 2 2 0 79 67 43 494
1192 2 2 0 79 66 67 494
1193 2 2 0 80 44 43 495
1194 2 2 0 80 68 44 495
1195 2 2 0 80 43 67 495
1196 2 2 0 80 67 68 495
1197 2 2 0 81 69 45 68
1198 2 2 0 81 68 45 44
1199 2 2 0 82 70 46 69
1200 2 2 0 82 69 46 45
1201 2 2 0 83 71 47 70
1202 2 2 0 83 70 47 46
1203 2 2 0 84 72 48 47
1204 2 2 0 84 71 72 47
1205 2 2 0 85 72 49 496
1206 2 2 0 85 25 48 496
1207 2 2 0 85 48 72 496
1208 2 2 0 85 49 25 496
1209 2 2 0 86 74 50 497
1210 2 2 0 86 49 73 497
1211 2 2 0 86 73 74 497
1212 2 2 0 86 50 49 497
1213 2 2 0 87 74 51 50
1214 2 2 0 87 75 51 74
1215 2 2 0 88 76 52 51
1216 2 2 0 88 75 76 51
1217 2 2 0 89 52 77 53
1218 2 2 0 89 76 77 52
1219 2 2 0 90 53 78 54
1220 2 2 0 90 77 78 53
1221 2 2 0 91 78 79 498
1222 2 2 0 91 54 78 498
1223 2 2 0 91 79 55 498
1224 2 2 0 91 55 54 498
1225 2 2 0 92 79 80 499
1226 2 2 0 92 80 56 499
1227 2 2 0 92 55 79 499
1228 2 2 0 92 56 55 499
1229 2 2 0 93 80 57 56
1230 2 2 0 93 80 81 57
1231 2 2 0 94 81 58 57
1232 2 2 0 94 81 82 58
1233 2 2 0 95 82 59 58
1234 2 2 0 95 83 59 82
1235 2 2 0 96 84 60 59
1236 2 2 0 96 83 84 59
1237 2 2 0 97 60 84 500
1238 2 2 0 97 85 61 500
1239 2 2 0 97 84 85 500
1240 2 2 0 97 61 60 500
1241 2 2 0 98 86 62 501
1242 2 2 0 98 61 85 501
1243 2 2 0 98 85 86 501
1244 2 2 0 98 62 61 501
1245 2 2 0 99 86 63 62
1246 2 2 0 99 87 63 86
1247 2 2 0 100 88 64 63
1248 2 2 0 100 87 88 63
1249 2 2 0 101 64 89 65
1250 2 2 0 101 88 89 64
1251 2 2 0 102 65 90 66
1252 2 2 0 102 89 90 65
1253 2 2 0 103 90 91 502
1254 2 2 0 103 66 90 502
1255 2 2 0 103 91 67 502
1256 2 2 0 103 67 66 502
1257 2 2 0 104 91 92 503
1258 2 2 0 104 92 68 503
1259 2 2 0 104 67 91 503
1260 2 2 0 104 68 67 503
1261 2 2 0 105 92 69 68
1262 2 2 0 105 92 93 69
1263 2 2 0 106 93 70 69
1264 2 2 0 106 93 94 70
1265 2 2 0 107 94 71 70
1266 2 2 0 107 95 71 94
1267 2 2 0 108 96 72 71
1268 2 2 0 108 95 96 71
1269 2 2 0 109 72 96 504
1270 2 2 0 109 73 49 504
1271 2 2 0 109 96 73 504
1272 2 2 0 109 49 72 504
1273 2 2 0 110 98 74 505
1274 2 2 0 110 73 97 505
1275 2 2 0 110 97 98 505
1276 2 2 0 110 74 73 505
1277 2 2 0 111 98 75 74
1278 2 2 0 111 99 75 98
1279 2 2 0 112 75 100 76
1280 2 2 0 112 99 100 75
1281 2 2 0 113 76 101 77
1282 2 2 0 113 100 101 76
1283 2 2 0 114 77 102 78
1284 2 2 0 114 101 102 77
1285 2 2 0 115 78 102 506
1286 2 2 0 115 103 79 506
1287 2 2 0 115 102 103 506
1288 2 2 0 115 79 78 506
1289 2 2 0 116 104 80 507
1290 2 2 0 116 79 103 507
1291 2 2 0 116 103 104 507
1292 2 2 0 116 80 79 507
1293 2 2 0 117 104 81 80
1294 2 2 0 117 104 105 81
1295 2 2 0 118 105 82 81
1296 2 2 0 118 105 106 82
1297 2 2 0 119 106 83 82
1298 2 2 0 119 106 107 83
1299 2 2 0 120 108 84 83
1300 2 2 0 120 107 108 83
1301 2 2 0 121 84 108 508
1302 2 2 0 121 109 85 508
1303 2 2 0 121 108 109 508
1304 2 2 0 121 85 84 508
1305 2 2 0 122 110 86 509
1306 2 2 0 122 85 109 509
1307 2 2 0 122 109 110 509
1308 2 2 0 122 86 85 509
1309 2 2 0 123 110 87 86
1310 2 2 0 123 111 87 110
1311 2 2 0 124 87 112 88
1312 2 2 0 124 111 112 87
1313 2 2 0 125 88 113 89
1314 2 2 0 125 112 113 88
1315 2 2 0 126 89 114 90
1316 2 2 0 126 113 114 89
1317 2 2 0 127 90 114 510
1318 2 2 0 127 115 91 510
1319 2 2 0 127 114 115 510
1320 2 2 0 127 91 90 510
1321 2 2 0 128 116 92 511
1322 2 2 0 128 91 115 511
1323 2 2 0 128 115 116 511
1324 2 2 0 128 92 91 511
1325 2 2 0 129 116 93 92
1326 2 2 0 129 116 117 93
1327 2 2 0 130 117 94 93
1328 2 2 0 130 117 118 94
1329 2 2 0 131 118 95 94
1330 2 2 0 131 118 119 95
1331 2 2 0 132 120 96 95
1332 2 2 0 132 119 120 95
1333 2 2 0 133 96 120 512
1334 2 2 0 133 97 73 512
1335 2 2 0 133 120 97 512
1336 2 2 0 133 73 96 512
1337 2 2 0 134 121 122 513
1338 2 2 0 134 122 98 513
1339 2 2 0 134 97 121 513
1340 2 2 0 134 98 97 513
1341 2 2 0 135 122 99 98
1342 2 2 0 135 123 99 122
1343 2 2 0 136 99 124 100
1344 2 2 0 136 123 124 99
1345 2 2 0 137 100 125 101
1346 2 2 0 137 124 125 100
1347 2 2 0 138 101 126 102
1348 2 2 0 138 125 126 101
1349 2 2 0 139 126 127 514
1350 2 2 0 139 102 126 514
1351 2 2 0 139 127 103 514
1352 2 2 0 139 103 102 514
1353 2 2 0 140 127 128 515
1354 2 2 0 140 128 104 515
1355 2 2 0 140 103 127 515
1356 2 2 0 140 104 103 515
1357 2 2 0 141 128 105 104
1358 2 2 0 141 128 129 105
1359 2 2 0 142 129 106 105
1360 2 2 0 142 129 130 106
1361 2 2 0 143 130 107 106
1362 2 2 0 143 130 131 107
1363 2 2 0 144 132 108 107
1364 2 2 0 144 131 132 107
1365 2 2 0 145 132 133 516
1366 2 2 0 145 108 132 516
1367 2 2 0 145 133 109 516
1368 2 2 0 145 109 108 516
1369 2 2 0 146 133 134 517
1370 2 2 0 146 134 110 517
1371 2 2 0 146 109 133 517
1372 2 2 0 146 110 109 517
1373 2 2 0 147 134 111 110
1374 2 2 0 147 135 111 134
1375 2 2 0 148 111 136 112
1376 2 2 0 148 135 136 111
1377 2 2 0 149 112 137 113
1378 2 2 0 149 136 137 112
1379 2 2 0 150 113 138 114
1380 2 2 0 150 137 138 113
1381 2 2 0 151 138 139 518
1382 2 2 0 151 114 138 518
1383 2 2 0 151 139 115 518
1384 2 2 0 151 115 114 518
1385 2 2 0 152 139 140 519
1386 2 2 0 152 140 116 519
1387 2 2 0 152 115 139 519
1388 2 2 0 152 116 115 519
1389 2 2 0 153 140 117 116
1390 2 2 0 153 140 141 117
1391 2 2 0 154 141 118 117
1392 2 2 0 154 141 142 118
1393 2 2 0 155 142 119 118
1394 2 2 0 155 142 143 119
1395 2 2 0 156 144 120 119
1396 2 2 0 156 143 144 119
1397 2 2 0 157 144 121 520
1398 2 2 0 157 120 144 520
1399 2 2 0 157 121 97 520
1400 2 2 0 157 97 120 520
1401 2 2 0 158 146 122 521
1402 2 2 0 158 121 145 521
1403 2 2 0 158 122 121 521
1404 2 2 0 158 145 146 521
1405 2 2 0 159 146 123 122
1406 2 2 0 159 147 123 146
1407 2 2 0 160 123 148 124
1408 2 2 0 160 147 148 123
1409 2 2 0 161 124 149 125
1410 2 2 0 161 148 149 124
1411 2 2 0 162 125 150 126
1412 2 2 0 162 149 150 125
1413 2 2 0 163 126 150 522
1414 2 2 0 163 127 126 522
1415 2 2 0 163 151 127 522
1416 2 2 0 163 150 151 522
1417 2 2 0 164 152 128 523
1418 2 2 0 164 128 127 523
1419 2 2 0 164 127 151 523
1420 2 2 0 164 151 152 523
1421 2 2 0 165 152 129 128
1422 2 2 0 165 152 153 129
1423 2 2 0 166 153 130 129
1424 2 2 0 166 153 154 130
1425 2 2 0 167 154 131 130
1426 2 2 0 167 154 155 131
1427 2 2 0 168 156 132 131
1428 2 2 0 168 155 156 131
1429 2 2 0 169 132 156 524
1430 2 2 0 169 157 133 524
1431 2 2 0 169 133 132 524
1432 2 2 0 169 156 157 524
1433 2 2 0 170 158 134 525
1434 2 2 0 170 133 157 525
1435 2 2 0 170 134 133 525
1436 2 2 0 170 157 158 525
1437 2 2 0 171 158 135 134
1438 2 2 0 171 159 135 158
1439 2 2 0 172 135 160 136
1440 2 2 0 172 159 160 135
1441 2 2 0 173 136 161 137
1442 2 2 0 173 160 161 136
1443 2 2 0 174 137 162 138
1444 2 2 0 174 161 162 137
1445 2 2 0 175 138 162 526
1446 2 2 0 175 139 138 526
1447 2 2 0 175 163 139 526
1448 2 2 0 175 162 163 526
1449 2 2 0 176 164 140 527
1450 2 2 0 176 140 139 527
1451 2 2 0 176 139 163 527
1452 2 2 0 176 163 164 527
1453 2 2 0 177 164 141 140
1454 2 2 0 177 164 165 141
1455 2 2 0 178 165 142 141
1456 2 2 0 178 165 166 142
1457 2 2 0 179 166 143 142
1458 2 2 0 179 166 167 143
1459 2 2 0 180 168 144 143
1460 2 2 0 180 167 168 143
1461 2 2 0 181 144 168 528
1462 2 2 0 181 145 121 528
1463 2 2 0 181 121 144 528
1464 2 2 0 181 168 145 528
1465 2 2 0 182 146 313 170
1466 2 2 0 182 146 145 529
1467 2 2 0 182 313 146 529
1468 2 2 0 182 145 169 529
1469 2 2 0 182 169 313 529
1470 2 2 0 183 170 147 146
1471 2 2 0 183 171 147 170
1472 2 2 0 184 147 172 148
1473 2 2 0 184 171 172 147
1474 2 2 0 185 148 173 149
1475 2 2 0 185 172 173 148
1476 2 2 0 186 149 174 150
1477 2 2 0 186 173 174 149
1478 2 2 0 187 151 318 175
1479 2 2 0 187 174 318 150
1480 2 2 0 187 318 151 150
1481 2 2 0 188 175 319 151
1482 2 2 0 188 152 319 176
1483 2 2 0 188 319 152 151
1484 2 2 0 189 176 153 152
1485 2 2 0 189 176 177 153
1486 2 2 0 190 177 154 153
1487 2 2 0 190 177 178 154
1488 2 2 0 191 178 155 154
1489 2 2 0 191 178 179 155
1490 2 2 0 192 180 156 155
1491 2 2 0 192 179 180 155
1492 2 2 0 193 180 324 156
1493 2 2 0 193 157 156 530
1494 2 2 0 193 156 324 530
1495 2 2 0 193 181 157 530
1496 2 2 0 193 324 181 530
1497 2 2 0 194 158 325 182
1498 2 2 0 194 158 157 531
1499 2 2 0 194 325 158 531
1500 2 2 0 194 157 181 531
1501 2 2 0 194 181 325 531
1502 2 2 0 195 182 159 158
1503 2 2 0 195 183 159 182
1504 2 2 0 196 159 184 160
1505 2 2 0 196 183 184 159
1506 2 2 0 197 160 185 161
1507 2 2 0 197 184 185 160
1508 2 2 0 198 161 186 162
1509 2 2 0 198 185 186 161
1510 2 2 0 199 163 330 187
1511 2 2 0 199 186 330 162
1512 2 2 0 199 330 163 162
1513 2 2 0 200 187 331 163
1514 2 2 0 200 164 331 188
1515 2 2 0 200 331 164 163
1516 2 2 0 201 188 165 164
1517 2 2 0 201 188 189 165
1518 2 2 0 202 189 166 165
1519 2 2 0 202 189 190 166
1520 2 2 0 203 190 167 166
1521 2 2 0 203 190 191 167
1522 2 2 0 204 192 168 167
1523 2 2 0 204 191 192 167
1524 2 2 0 205 192 336 168
1525 2 2 0 205 145 168 532
1526 2 2 0 205 168 336 532
1527 2 2 0 205 169 145 532
1528 2 2 0 205 336 169 532
1529 2 2 0 206 337 314 533
1530 2 2 0 206 193 337 534
1531 2 2 0 206 169 193 534
1532 2 2 0 206 314 170 533
1533 2 2 0 206 170 313 533
1534 2 2 0 206 337 533 534
1535 2 2 0 206 313 169 534
1536 2 2 0 206 533 313 534
1537 2 2 0 206 314 337 194
1538 2 2 0 207 314 171 170
1539 2 2 0 207 315 171 314
1540 2 2 0 207 195 315 194
1541 2 2 0 207 315 314 194
1542 2 2 0 208 316 172 171
1543 2 2 0 208 315 316 171
1544 2 2 0 208 196 315 195
1545 2 2 0 208 196 316 315
1546 2 2 0 209 317 173 172
1547 2 2 0 209 316 317 172
1548 2 2 0 209 197 316 196
1549 2 2 0 209 197 317 316
1550 2 2 0 210 173 317 174
1551 2 2 0 210 317 198 174
1552 2 2 0 210 198 317 197
1553 2 2 0 211 343 199 535
1554 2 2 0 211 198 343 174
1555 2 2 0 211 343 318 174
1556 2 2 0 211 318 343 535
1557 2 2 0 211 199 175 535
1558 2 2 0 211 175 318 535
1559 2 2 0 212 199 344 536
1560 2 2 0 212 200 176 344
1561 2 2 0 212 176 319 344
1562 2 2 0 212 344 319 536
1563 2 2 0 212 175 199 536
1564 2 2 0 212 319 175 536
1565 2 2 0 213 320 177 176
1566 2 2 0 213 200 320 176
1567 2 2 0 213 201 320 200
1568 2 2 0 214 320 178 177
1569 2 2 0 214 321 178 320
1570 2 2 0 214 202 321 201
1571 2 2 0 214 201 321 320
1572 2 2 0 215 321 179 178
1573 2 2 0 215 322 179 321
1574 2 2 0 215 203 322 202
1575 2 2 0 215 202 322 321
1576 2 2 0 216 323 180 179
1577 2 2 0 216 322 323 179
1578 2 2 0 216 203 204 322
1579 2 2 0 216 204 323 322
1580 2 2 0 217 323 350 537
1581 2 2 0 217 350 205 538
1582 2 2 0 217 205 181 538
1583 2 2 0 217 180 323 537
1584 2 2 0 217 324 180 537
1585 2 2 0 217 537 350 538
1586 2 2 0 217 181 324 538
1587 2 2 0 217 324 537 538
1588 2 2 0 217 204 350 323
1589 2 2 0 218 351 326 539
1590 2 2 0 218 205 351 540
1591 2 2 0 218 181 205 540
1592 2 2 0 218 326 182 539
1593 2 2 0 218 182 325 539
1594 2 2 0 218 351 539 540
1595 2 2 0 218 325 181 540
1596 2 2 0 218 539 325 540
1597 2 2 0 218 326 351 206
1598 2 2 0 219 326 183 182
1599 2 2 0 219 327 183 326
1600 2 2 0 219 207 327 206
1601 2 2 0 219 327 326 206
1602 2 2 0 220 328 184 183
1603 2 2 0 220 327 328 183
1604 2 2 0 220 208 327 207
1605 2 2 0 220 208 328 327
1606 2 2 0 221 329 185 184
1607 2 2 0 221 328 329 184
1608 2 2 0 221 209 328 208
1609 2 2 0 221 209 329 328
1610 2 2 0 222 185 329 186
1611 2 2 0 222 329 210 186
1612 2 2 0 222 210 329 209
1613 2 2 0 223 357 211 541
1614 2 2 0 223 210 357 186
1615 2 2 0 223 357 330 186
1616 2 2 0 223 330 357 541
1617 2 2 0 223 211 187 541
1618 2 2 0 223 187 330 541
1619 2 2 0 224 211 358 542
1620 2 2 0 224 188 358 212
1621 2 2 0 224 188 331 358
1622 2 2 0 224 358 331 542
1623 2 2 0 224 187 211 542
1624 2 2 0 224 331 187 542
1625 2 2 0 225 332 189 188
1626 2 2 0 225 212 332 188
1627 2 2 0 225 213 332 212
1628 2 2 0 226 332 190 189
1629 2 2 0 226 333 190 332
1630 2 2 0 226 214 333 213
1631 2 2 0 226 213 333 332
1632 2 2 0 227 333 191 190
1633 2 2 0 227 334 191 333
1634 2 2 0 227 215 334 214
1635 2 2 0 227 214 334 333
1636 2 2 0 228 335 192 191
1637 2 2 0 228 334 335 191
1638 2 2 0 228 215 216 334
1639 2 2 0 228 216 335 334
1640 2 2 0 229 335 364 543
1641 2 2 0 229 364 193 544
1642 2 2 0 229 193 169 544
1643 2 2 0 229 192 335 543
1644 2 2 0 229 336 192 543
1645 2 2 0 229 543 364 544
1646 2 2 0 229 169 336 544
1647 2 2 0 229 336 543 544
1648 2 2 0 229 216 364 335
1649 2 2 0 230 338 366 218
1650 2 2 0 230 194 337 545
1651 2 2 0 230 338 194 545
1652 2 2 0 230 366 338 545
1653 2 2 0 230 365 366 545
1654 2 2 0 230 337 365 545
1655 2 2 0 230 337 193 546
1656 2 2 0 230 365 337 546
1657 2 2 0 230 193 217 546
1658 2 2 0 230 217 365 546
1659 2 2 0 231 338 195 194
1660 2 2 0 231 339 195 338
1661 2 2 0 231 219 339 218
1662 2 2 0 231 339 338 218
1663 2 2 0 232 340 196 195
1664 2 2 0 232 339 340 195
1665 2 2 0 232 220 340 339
1666 2 2 0 232 220 339 219
1667 2 2 0 233 341 197 196
1668 2 2 0 233 340 341 196
1669 2 2 0 233 221 340 220
1670 2 2 0 233 221 341 340
1671 2 2 0 234 342 198 197
1672 2 2 0 234 341 342 197
1673 2 2 0 234 222 341 221
1674 2 2 0 234 222 342 341
1675 2 2 0 235 199 343 548
1676 2 2 0 235 372 373 547
1677 2 2 0 235 373 223 548
1678 2 2 0 235 342 372 549
1679 2 2 0 235 373 343 547
1680 2 2 0 235 343 373 548
1681 2 2 0 235 223 199 548
1682 2 2 0 235 198 342 549
1683 2 2 0 235 547 198 549
1684 2 2 0 235 372 547 549
1685 2 2 0 235 343 198 547
1686 2 2 0 235 372 342 222
1687 2 2 0 236 344 199 551
1688 2 2 0 236 374 375 550
1689 2 2 0 236 223 374 551
1690 2 2 0 236 375 345 552
1691 2 2 0 236 344 374 550
1692 2 2 0 236 374 344 551
1693 2 2 0 236 199 223 551
1694 2 2 0 236 345 200 552
1695 2 2 0 236 200 550 552
1696 2 2 0 236 550 375 552
1697 2 2 0 236 200 344 550
1698 2 2 0 236 345 375 224
1699 2 2 0 237 345 201 200
1700 2 2 0 237 346 201 345
1701 2 2 0 237 225 346 224
1702 2 2 0 237 346 345 224
1703 2 2 0 238 346 202 201
1704 2 2 0 238 347 202 346
1705 2 2 0 238 226 347 225
1706 2 2 0 238 347 346 225
1707 2 2 0 239 347 203 202
1708 2 2 0 239 348 203 347
1709 2 2 0 239 348 347 226
1710 2 2 0 239 227 348 226
1711 2 2 0 240 349 204 203
1712 2 2 0 240 348 349 203
1713 2 2 0 240 228 348 227
1714 2 2 0 240 228 349 348
1715 2 2 0 241 381 349 228
1716 2 2 0 241 350 204 553
1717 2 2 0 241 204 349 553
1718 2 2 0 241 349 381 553
1719 2 2 0 241 381 382 553
1720 2 2 0 241 382 350 553
1721 2 2 0 241 205 350 554
1722 2 2 0 241 350 382 554
1723 2 2 0 241 229 205 554
1724 2 2 0 241 382 229 554
1725 2 2 0 242 352 384 230
1726 2 2 0 242 206 351 555
1727 2 2 0 242 352 206 555
1728 2 2 0 242 384 352 555
1729 2 2 0 242 383 384 555
1730 2 2 0 242 351 383 555
1731 2 2 0 242 351 205 556
1732 2 2 0 242 383 351 556
1733 2 2 0 242 205 229 556
1734 2 2 0 242 229 383 556
1735 2 2 0 243 352 207 206
1736 2 2 0 243 353 207 352
1737 2 2 0 243 231 353 230
1738 2 2 0 243 353 352 230
1739 2 2 0 244 354 208 207
1740 2 2 0 244 353 354 207
1741 2 2 0 244 232 354 353
1742 2 2 0 244 232 353 231
1743 2 2 0 245 355 209 208
1744 2 2 0 245 354 355 208
1745 2 2 0 245 233 354 232
1746 2 2 0 245 233 355 354
1747 2 2 0 246 356 210 209
1748 2 2 0 246 355 356 209
1749 2 2 0 246 234 355 233
1750 2 2 0 246 234 356 355
1751 2 2 0 247 211 357 558
1752 2 2 0 247 390 391 557
1753 2 2 0 247 391 235 558
1754 2 2 0 247 356 390 559
1755 2 2 0 247 391 357 557
1756 2 2 0 247 357 391 558
1757 2 2 0 247 235 211 558
1758 2 2 0 247 210 356 559
1759 2 2 0 247 557 210 559
1760 2 2 0 247 390 557 559
1761 2 2 0 247 357 210 557
1762 2 2 0 247 390 356 234
1763 2 2 0 248 358 211 561
1764 2 2 0 248 392 393 560
1765 2 2 0 248 235 392 561
1766 2 2 0 248 393 359 562
1767 2 2 0 248 358 392 560
1768 2 2 0 248 392 358 561
1769 2 2 0 248 211 235 561
1770 2 2 0 248 359 212 562
1771 2 2 0 248 212 560 562
1772 2 2 0 248 560 393 562
1773 2 2 0 248 212 358 560
1774 2 2 0 248 236 359 393
1775 2 2 0 249 359 213 212
1776 2 2 0 249 360 213 359
1777 2 2 0 249 237 360 236
1778 2 2 0 249 360 359 236
1779 2 2 0 250 360 214 213
1780 2 2 0 250 361 214 360
1781 2 2 0 250 238 361 237
1782 2 2 0 250 361 360 237
1783 2 2 0 251 361 215 214
1784 2 2 0 251 362 215 361
1785 2 2 0 251 362 361 238
1786 2 2 0 251 239 362 238
1787 2 2 0 252 363 216 215
1788 2 2 0 252 362 363 215
1789 2 2 0 252 240 362 239
1790 2 2 0 252 240 363 362
1791 2 2 0 253 399 363 240
1792 2 2 0 253 364 216 563
1793 2 2 0 253 216 363 563
1794 2 2 0 253 363 399 563
1795 2 2 0 253 399 400 563
1796 2 2 0 253 400 364 563
1797 2 2 0 253 193 364 564
1798 2 2 0 253 364 400 564
1799 2 2 0 253 217 193 564
1800 2 2 0 253 400 217 564
1801 2 2 0 254 402 365 401
1802 2 2 0 254 366 365 402
1803 2 2 0 254 367 218 565
1804 2 2 0 254 218 366 565
1805 2 2 0 254 403 367 565
1806 2 2 0 254 402 403 565
1807 2 2 0 254 366 402 565
1808 2 2 0 254 365 217 566
1809 2 2 0 254 401 365 566
1810 2 2 0 254 217 241 566
1811 2 2 0 254 241 401 566
1812 2 2 0 254 367 403 242
1813 2 2 0 255 367 219 218
1814 2 2 0 255 368 219 367
1815 2 2 0 255 243 368 242
1816 2 2 0 255 368 367 242
1817 2 2 0 256 369 220 219
1818 2 2 0 256 368 369 219
1819 2 2 0 256 244 368 243
1820 2 2 0 256 244 369 368
1821 2 2 0 257 370 221 220
1822 2 2 0 257 369 370 220
1823 2 2 0 257 245 369 244
1824 2 2 0 257 245 370 369
1825 2 2 0 258 371 222 221
1826 2 2 0 258 370 371 221
1827 2 2 0 258 246 370 245
1828 2 2 0 258 246 371 370
1829 2 2 0 259 371 404 222
1830 2 2 0 259 223 373 568
1831 2 2 0 259 222 404 567
1832 2 2 0 259 404 405 567
1833 2 2 0 259 373 372 569
1834 2 2 0 259 406 247 568
1835 2 2 0 259 405 406 569
1836 2 2 0 259 405 372 567
1837 2 2 0 259 372 405 569
1838 2 2 0 259 373 406 568
1839 2 2 0 259 247 223 568
1840 2 2 0 259 406 373 569
1841 2 2 0 259 372 222 567
1842 2 2 0 259 371 246 404
1843 2 2 0 260 376 224 409
1844 2 2 0 260 374 223 571
1845 2 2 0 260 409 224 570
1846 2 2 0 260 408 409 570
1847 2 2 0 260 375 374 572
1848 2 2 0 260 247 407 571
1849 2 2 0 260 407 408 572
1850 2 2 0 260 375 408 570
1851 2 2 0 260 408 375 572
1852 2 2 0 260 407 374 571
1853 2 2 0 260 223 247 571
1854 2 2 0 260 374 407 572
1855 2 2 0 260 224 375 570
1856 2 2 0 260 376 409 248
1857 2 2 0 261 376 225 224
1858 2 2 0 261 377 225 376
1859 2 2 0 261 249 377 248
1860 2 2 0 261 377 376 248
1861 2 2 0 262 377 226 225
1862 2 2 0 262 378 226 377
1863 2 2 0 262 250 378 249
1864 2 2 0 262 378 377 249
1865 2 2 0 263 378 227 226
1866 2 2 0 263 379 227 378
1867 2 2 0 263 251 379 250
1868 2 2 0 263 379 378 250
1869 2 2 0 264 380 228 227
1870 2 2 0 264 379 380 227
1871 2 2 0 264 252 379 251
1872 2 2 0 264 252 380 379
1873 2 2 0 265 411 412 382
1874 2 2 0 265 381 411 382
1875 2 2 0 265 228 380 573
1876 2 2 0 265 381 228 573
1877 2 2 0 265 380 410 573
1878 2 2 0 265 410 411 573
1879 2 2 0 265 411 381 573
1880 2 2 0 265 229 382 574
1881 2 2 0 265 382 412 574
1882 2 2 0 265 253 229 574
1883 2 2 0 265 412 253 574
1884 2 2 0 265 380 252 410
1885 2 2 0 266 413 414 383
1886 2 2 0 266 414 384 383
1887 2 2 0 266 385 230 575
1888 2 2 0 266 230 384 575
1889 2 2 0 266 415 385 575
1890 2 2 0 266 414 415 575
1891 2 2 0 266 384 414 575
1892 2 2 0 266 383 229 576
1893 2 2 0 266 413 383 576
1894 2 2 0 266 229 253 576
1895 2 2 0 266 253 413 576
1896 2 2 0 266 415 254 385
1897 2 2 0 267 385 231 230
1898 2 2 0 267 231 385 386
1899 2 2 0 267 254 255 386
1900 2 2 0 267 385 254 386
1901 2 2 0 268 387 232 231
1902 2 2 0 268 386 387 231
1903 2 2 0 268 256 386 255
1904 2 2 0 268 386 256 387
1905 2 2 0 269 388 233 232
1906 2 2 0 269 387 388 232
1907 2 2 0 269 257 387 256
1908 2 2 0 269 387 257 388
1909 2 2 0 270 389 234 233
1910 2 2 0 270 388 389 233
1911 2 2 0 270 258 388 257
1912 2 2 0 270 388 258 389
1913 2 2 0 271 389 416 234
1914 2 2 0 271 235 391 578
1915 2 2 0 271 234 416 577
1916 2 2 0 271 416 417 577
1917 2 2 0 271 391 390 579
1918 2 2 0 271 418 259 578
1919 2 2 0 271 417 418 579
1920 2 2 0 271 417 390 577
1921 2 2 0 271 390 417 579
1922 2 2 0 271 391 418 578
1923 2 2 0 271 259 235 578
1924 2 2 0 271 418 391 579
1925 2 2 0 271 390 234 577
1926 2 2 0 271 389 258 416
1927 2 2 0 272 236 421 394
1928 2 2 0 272 392 235 581
1929 2 2 0 272 421 236 580
1930 2 2 0 272 420 421 580
1931 2 2 0 272 393 392 582
1932 2 2 0 272 259 419 581
1933 2 2 0 272 419 420 582
1934 2 2 0 272 393 420 580
1935 2 2 0 272 420 393 582
1936 2 2 0 272 419 392 581
1937 2 2 0 272 235 259 581
1938 2 2 0 272 392 419 582
1939 2 2 0 272 236 393 580
1940 2 2 0 272 394 421 260
1941 2 2 0 273 394 237 236
1942 2 2 0 273 395 237 394
1943 2 2 0 273 261 395 260
1944 2 2 0 273 395 394 260
1945 2 2 0 274 395 238 237
1946 2 2 0 274 396 238 395
1947 2 2 0 274 262 396 261
1948 2 2 0 274 396 395 261
1949 2 2 0 275 396 239 238
1950 2 2 0 275 397 239 396
1951 2 2 0 275 263 397 262
1952 2 2 0 275 397 396 262
1953 2 2 0 276 398 240 239
1954 2 2 0 276 397 398 239
1955 2 2 0 276 264 397 263
1956 2 2 0 276 264 398 397
1957 2 2 0 277 400 423 424
1958 2 2 0 277 400 399 423
1959 2 2 0 277 240 398 583
1960 2 2 0 277 399 240 583
1961 2 2 0 277 398 422 583
1962 2 2 0 277 422 423 583
1963 2 2 0 277 423 399 583
1964 2 2 0 277 217 400 584
1965 2 2 0 277 400 424 584
1966 2 2 0 277 241 217 584
1967 2 2 0 277 424 241 584
1968 2 2 0 277 398 264 422
1969 2 2 0 278 402 401 425
1970 2 2 0 278 427 403 426
1971 2 2 0 278 403 402 426
1972 2 2 0 278 242 427 266
1973 2 2 0 278 401 241 585
1974 2 2 0 278 242 403 427
1975 2 2 0 278 425 401 585
1976 2 2 0 278 241 265 585
1977 2 2 0 278 265 425 585
1978 2 2 0 278 426 402 425
1979 2 2 0 279 266 243 242
1980 2 2 0 279 267 243 266
1981 2 2 0 280 268 244 243
1982 2 2 0 280 267 268 243
1983 2 2 0 281 244 269 245
1984 2 2 0 281 268 269 244
1985 2 2 0 282 245 270 246
1986 2 2 0 282 269 270 245
1987 2 2 0 283 431 271 586
1988 2 2 0 283 270 428 246
1989 2 2 0 283 405 430 587
1990 2 2 0 283 271 247 586
1991 2 2 0 283 406 431 586
1992 2 2 0 283 431 406 587
1993 2 2 0 283 247 406 586
1994 2 2 0 283 406 405 587
1995 2 2 0 283 430 431 587
1996 2 2 0 283 428 404 246
1997 2 2 0 283 405 404 429
1998 2 2 0 283 429 404 428
1999 2 2 0 283 430 405 429
2000 2 2 0 284 271 432 588
2001 2 2 0 284 248 435 272
2002 2 2 0 284 433 408 589
2003 2 2 0 284 247 271 588
2004 2 2 0 284 432 407 588
2005 2 2 0 284 407 432 589
2006 2 2 0 284 407 247 588
2007 2 2 0 284 408 407 589
2008 2 2 0 284 432 433 589
2009 2 2 0 284 248 409 435
2010 2 2 0 284 409 408 434
2011 2 2 0 284 434 408 433
2012 2 2 0 284 435 409 434
2013 2 2 0 285 272 249 248
2014 2 2 0 285 272 273 249
2015 2 2 0 286 273 250 249
2016 2 2 0 286 274 250 273
2017 2 2 0 287 274 251 250
2018 2 2 0 287 275 251 274
2019 2 2 0 288 276 252 251
2020 2 2 0 288 275 276 251
2021 2 2 0 289 438 412 411
2022 2 2 0 289 437 410 436
2023 2 2 0 289 437 411 410
2024 2 2 0 289 276 436 252
2025 2 2 0 289 253 412 590
2026 2 2 0 289 436 410 252
2027 2 2 0 289 412 438 590
2028 2 2 0 289 277 253 590
2029 2 2 0 289 438 277 590
2030 2 2 0 289 438 411 437
2031 2 2 0 290 414 413 439
2032 2 2 0 290 441 415 440
2033 2 2 0 290 415 414 440
2034 2 2 0 290 254 441 278
2035 2 2 0 290 413 253 591
2036 2 2 0 290 254 415 441
2037 2 2 0 290 439 413 591
2038 2 2 0 290 253 277 591
2039 2 2 0 290 277 439 591
2040 2 2 0 290 440 414 439
2041 2 2 0 291 278 255 254
2042 2 2 0 291 279 255 278
2043 2 2 0 292 280 256 255
2044 2 2 0 292 279 280 255
2045 2 2 0 293 256 281 257
2046 2 2 0 293 280 281 256
2047 2 2 0 294 257 282 258
2048 2 2 0 294 281 282 257
2049 2 2 0 295 445 283 592
2050 2 2 0 295 282 442 258
2051 2 2 0 295 417 444 593
2052 2 2 0 295 283 259 592
2053 2 2 0 295 418 445 592
2054 2 2 0 295 445 418 593
2055 2 2 0 295 259 418 592
2056 2 2 0 295 418 417 593
2057 2 2 0 295 444 445 593
2058 2 2 0 295 442 416 258
2059 2 2 0 295 443 417 416
2060 2 2 0 295 443 416 442
2061 2 2 0 295 444 417 443
2062 2 2 0 296 283 446 594
2063 2 2 0 296 260 449 284
2064 2 2 0 296 447 420 595
2065 2 2 0 296 259 283 594
2066 2 2 0 296 446 419 594
2067 2 2 0 296 419 446 595
2068 2 2 0 296 419 259 594
2069 2 2 0 296 420 419 595
2070 2 2 0 296 446 447 595
2071 2 2 0 296 449 260 421
2072 2 2 0 296 448 421 420
2073 2 2 0 296 447 448 420
2074 2 2 0 296 448 449 421
2075 2 2 0 297 284 261 260
2076 2 2 0 297 284 285 261
2077 2 2 0 298 285 262 261
2078 2 2 0 298 286 262 285
2079 2 2 0 299 286 263 262
2080 2 2 0 299 287 263 286
2081 2 2 0 300 288 264 263
2082 2 2 0 300 287 288 263
2083 2 2 0 301 423 452 424
2084 2 2 0 301 451 422 450
2085 2 2 0 301 423 422 451
2086 2 2 0 301 288 450 264
2087 2 2 0 301 241 424 596
2088 2 2 0 301 450 422 264
2089 2 2 0 301 424 452 596
2090 2 2 0 301 265 241 596
2091 2 2 0 301 452 265 596
2092 2 2 0 301 452 423 451
2093 2 2 0 302 453 425 597
2094 2 2 0 302 265 289 597
2095 2 2 0 302 425 265 597
2096 2 2 0 302 266 455 290
2097 2 2 0 302 289 453 597
2098 2 2 0 302 454 455 427
2099 2 2 0 302 455 266 427
2100 2 2 0 302 426 425 453
2101 2 2 0 302 426 454 427
2102 2 2 0 302 454 426 453
2103 2 2 0 303 290 267 266
2104 2 2 0 303 291 267 290
2105 2 2 0 304 292 268 267
2106 2 2 0 304 291 292 267
2107 2 2 0 305 293 269 268
2108 2 2 0 305 292 293 268
2109 2 2 0 306 269 294 270
2110 2 2 0 306 293 294 269
2111 2 2 0 307 431 459 598
2112 2 2 0 307 295 271 598
2113 2 2 0 307 294 456 270
2114 2 2 0 307 456 428 270
2115 2 2 0 307 271 431 598
2116 2 2 0 307 459 295 598
2117 2 2 0 307 457 428 456
2118 2 2 0 307 429 428 457
2119 2 2 0 307 429 458 430
2120 2 2 0 307 458 429 457
2121 2 2 0 307 459 431 430
2122 2 2 0 307 458 459 430
2123 2 2 0 308 460 432 599
2124 2 2 0 308 271 295 599
2125 2 2 0 308 432 271 599
2126 2 2 0 308 272 463 296
2127 2 2 0 308 463 272 435
2128 2 2 0 308 295 460 599
2129 2 2 0 308 462 463 435
2130 2 2 0 308 433 432 460
2131 2 2 0 308 433 461 434
2132 2 2 0 308 461 433 460
2133 2 2 0 308 462 435 434
2134 2 2 0 308 461 462 434
2135 2 2 0 309 296 273 272
2136 2 2 0 309 296 297 273
2137 2 2 0 310 297 274 273
2138 2 2 0 310 298 274 297
2139 2 2 0 311 298 275 274
2140 2 2 0 311 299 275 298
2141 2 2 0 312 300 276 275
2142 2 2 0 312 299 300 275
2143 2 2 0 313 438 466 600
2144 2 2 0 313 301 277 600
2145 2 2 0 313 300 464 276
2146 2 2 0 313 277 438 600
2147 2 2 0 313 466 301 600
2148 2 2 0 313 465 436 464
2149 2 2 0 313 464 436 276
2150 2 2 0 313 437 436 465
2151 2 2 0 313 437 466 438
2152 2 2 0 313 466 437 465
2153 2 2 0 314 467 439 601
2154 2 2 0 314 277 301 601
2155 2 2 0 314 439 277 601
2156 2 2 0 314 278 469 302
2157 2 2 0 314 301 467 601
2158 2 2 0 314 468 469 441
2159 2 2 0 314 469 278 441
2160 2 2 0 314 440 439 467
2161 2 2 0 314 440 468 441
2162 2 2 0 314 468 440 467
2163 2 2 0 315 302 279 278
2164 2 2 0 315 303 279 302
2165 2 2 0 316 304 280 279
2166 2 2 0 316 303 304 279
2167 2 2 0 317 305 281 280
2168 2 2 0 317 304 305 280
2169 2 2 0 318 281 306 282
2170 2 2 0 318 305 306 281
2171 2 2 0 319 445 473 602
2172 2 2 0 319 307 283 602
2173 2 2 0 319 306 470 282
2174 2 2 0 319 470 442 282
2175 2 2 0 319 283 445 602
2176 2 2 0 319 473 307 602
2177 2 2 0 319 471 442 470
2178 2 2 0 319 443 442 471
2179 2 2 0 319 443 472 444
2180 2 2 0 319 472 443 471
2181 2 2 0 319 473 445 444
2182 2 2 0 319 472 473 444
2183 2 2 0 320 474 446 603
2184 2 2 0 320 283 307 603
2185 2 2 0 320 446 283 603
2186 2 2 0 320 284 477 308
2187 2 2 0 320 284 449 477
2188 2 2 0 320 307 474 603
2189 2 2 0 320 477 449 476
2190 2 2 0 320 447 446 474
2191 2 2 0 320 447 475 448
2192 2 2 0 320 475 447 474
2193 2 2 0 320 449 448 476
2194 2 2 0 320 448 475 476
2195 2 2 0 321 308 285 284
2196 2 2 0 321 308 309 285
2197 2 2 0 322 309 286 285
2198 2 2 0 322 310 286 309
2199 2 2 0 323 310 287 286
2200 2 2 0 323 311 287 310
2201 2 2 0 324 312 288 287
2202 2 2 0 324 311 312 287
2203 2 2 0 325 452 480 604
2204 2 2 0 325 289 265 604
2205 2 2 0 325 265 452 604
2206 2 2 0 325 312 478 288
2207 2 2 0 325 480 289 604
2208 2 2 0 325 479 450 478
2209 2 2 0 325 478 450 288
2210 2 2 0 325 451 450 479
2211 2 2 0 325 451 480 452
2212 2 2 0 325 480 451 479
$EndElements
