$MeshFormat
2.2 0 8
$EndMeshFormat
$Nodes
604
1 12.7 0 0
2 9.989000000000001 7.843 0
3 9.622 8.289 0
4 9.227 8.726000000000001 0
5 8.831 9.127000000000001 0
6 8.462 9.470000000000001 0
7 0 12.7 0
8 -8.462 9.470000000000001 0
9 -8.831 9.127000000000001 0
10 -9.227 8.726000000000001 0
11 -9.622 8.289 0
12 -9.989000000000001 7.843 0
13 -12.7 0 0
14 -9.989000000000001 -7.843 0
15 -9.622 -8.289 0
16 -9.227 -8.726000000000001 0
17 -8.831 -9.127000000000001 0
18 -8.462 -9.470000000000001 0
19 0 -12.7 0
20 8.462 -9.470000000000001 0
21 8.831 -9.127000000000001 0
22 9.227 -8.726000000000001 0
23 9.622 -8.289 0
24 9.989000000000001 -7.843 0
25 12.945 0 4.758
26 10.252 8.050000000000001 4.758
27 9.914999999999999 8.542 4.758
28 9.522 9.005000000000001 4.758
29 9.077 9.381 4.758
30 8.645 9.675000000000001 4.758
31 0 12.85 4.758
32 -8.645 9.675000000000001 4.758
33 -9.077 9.381 4.758
34 -9.522 9.005000000000001 4.758
35 -9.914999999999999 8.542 4.758
36 -10.252 8.050000000000001 4.758
37 -12.945 0 4.758
38 -10.252 -8.050000000000001 4.758
39 -9.914999999999999 -8.542 4.758
40 -9.522 -9.005000000000001 4.758
41 -9.077 -9.381 4.758
42 -8.645 -9.675000000000001 4.758
43 0 -12.85 4.758
44 8.645 -9.675000000000001 4.758
45 9.077 -9.381 4.758
46 9.522 -9.005000000000001 4.758
47 9.914999999999999 -8.542 4.758
48 10.252 -8.050000000000001 4.758
49 14.524 0 13.289
50 11.906 9.349 13.289
51 11.738 10.112 13.289
52 11.345 10.728 13.289
53 10.617 10.973 13.289
54 9.814 10.983 13.289
55 0 13.853 13.289
56 -9.814 10.983 13.289
57 -10.617 10.973 13.289
58 -11.345 10.728 13.289
59 -11.738 10.112 13.289
60 -11.906 9.349 13.289
61 -14.524 0 13.289
62 -11.906 -9.349 13.289
63 -11.738 -10.112 13.289
64 -11.345 -10.728 13.289
65 -10.617 -10.973 13.289
66 -9.814 -10.983 13.289
67 0 -13.853 13.289
68 9.814 -10.983 13.289
69 10.617 -10.973 13.289
70 11.345 -10.728 13.289
71 11.738 -10.112 13.289
72 11.906 -9.349 13.289
73 19.009 0 26.351
74 16.38 12.861 26.351
75 16.545 14.254 26.351
76 16.114 15.238 26.351
77 14.741 15.236 26.351
78 13.078 14.635 26.351
79 0 16.899 26.351
80 -13.078 14.635 26.351
81 -14.741 15.236 26.351
82 -16.114 15.238 26.351
83 -16.545 14.254 26.351
84 -16.38 12.861 26.351
85 -19.009 0 26.351
86 -16.38 -12.861 26.351
87 -16.545 -14.254 26.351
88 -16.114 -15.238 26.351
89 -14.741 -15.236 26.351
90 -13.078 -14.635 26.351
91 0 -16.899 26.351
92 13.078 -14.635 26.351
93 14.741 -15.236 26.351
94 16.114 -15.238 26.351
95 16.545 -14.254 26.351
96 16.38 -12.861 26.351
97 27.91 0 45.223
98 24.835 19.501 45.223
99 25.434 21.912 45.223
100 24.872 23.521 45.223
101 22.472 23.226 45.223
102 19.438 21.753 45.223
103 0 23.442 45.223
104 -19.438 21.753 45.223
105 -22.472 23.226 45.223
106 -24.872 23.521 45.223
107 -25.434 21.912 45.223
108 -24.835 19.501 45.223
109 -27.91 0 45.223
110 -24.835 -19.501 45.223
111 -25.434 -21.912 45.223
112 -24.872 -23.521 45.223
113 -22.472 -23.226 45.223
114 -19.438 -21.753 45.223
115 0 -23.442 45.223
116 19.438 -21.753 45.223
117 22.472 -23.226 45.223
118 24.872 -23.521 45.223
119 25.434 -21.912 45.223
120 24.835 -19.501 45.223
121 41.774 0 69.566
122 37.582 29.51 69.566
123 38.643 33.291 69.566
124 37.832 35.776 69.566
125 34.06 35.202 69.566
126 29.229 32.71 69.566
127 0 34.294 69.566
128 -29.229 32.71 69.566
129 -34.06 35.202 69.566
130 -37.832 35.776 69.566
131 -38.643 33.291 69.566
132 -37.582 29.51 69.566
133 -41.774 0 69.566
134 -37.582 -29.51 69.566
135 -38.643 -33.291 69.566
136 -37.832 -35.776 69.566
137 -34.06 -35.202 69.566
138 -29.229 -32.71 69.566
139 0 -34.294 69.566
140 29.229 -32.71 69.566
141 34.06 -35.202 69.566
142 37.832 -35.776 69.566
143 38.643 -33.291 69.566
144 37.582 -29.51 69.566
145 61.517 0 97.896
146 55.614 43.669 97.896
147 57.027 49.13 97.896
148 55.767 52.737 97.896
149 50.323 52.011 97.896
150 43.36 48.524 97.896
151 0 50.594 97.896
152 -43.36 48.524 97.896
153 -50.323 52.011 97.896
154 -55.767 52.737 97.896
155 -57.027 49.13 97.896
156 -55.614 43.669 97.896
157 -61.517 0 97.896
158 -55.614 -43.669 97.896
159 -57.027 -49.13 97.896
160 -55.767 -52.737 97.896
161 -50.323 -52.011 97.896
162 -43.36 -48.524 97.896
163 0 -50.594 97.896
164 43.36 -48.524 97.896
165 50.323 -52.011 97.896
166 55.767 -52.737 97.896
167 57.027 -49.13 97.896
168 55.614 -43.669 97.896
169 89.241 0 126.139
170 82.05500000000001 64.43000000000001 126.139
171 83.262 71.73099999999999 126.139
172 81.07899999999999 76.673 126.139
173 73.80200000000001 76.27800000000001 126.139
174 64.639 72.336 126.139
175 0 74.815 126.139
176 -64.639 72.336 126.139
177 -73.80200000000001 76.27800000000001 126.139
178 -81.07899999999999 76.673 126.139
179 -83.262 71.73099999999999 126.139
180 -82.05500000000001 64.43000000000001 126.139
181 -89.241 0 126.139
182 -82.05500000000001 -64.43000000000001 126.139
183 -83.262 -71.73099999999999 126.139
184 -81.07899999999999 -76.673 126.139
185 -73.80200000000001 -76.27800000000001 126.139
186 -64.639 -72.336 126.139
187 0 -74.815 126.139
188 64.639 -72.336 126.139
189 73.80200000000001 -76.27800000000001 126.139
190 81.07899999999999 -76.673 126.139
191 83.262 -71.73099999999999 126.139
192 82.05500000000001 -64.43000000000001 126.139
193 125.312 0 149.55
194 118.582 93.11199999999999 149.55
195 118.605 102.18 149.55
196 114.803 108.564 149.55
197 105.749 109.297 149.55
198 94.673 105.947 149.55
199 0 107.752 149.55
200 -94.673 105.947 149.55
201 -105.749 109.297 149.55
202 -114.803 108.564 149.55
203 -118.605 102.18 149.55
204 -118.582 93.11199999999999 149.55
205 -125.312 0 149.55
206 -118.582 -93.11199999999999 149.55
207 -118.605 -102.18 149.55
208 -114.803 -108.564 149.55
209 -105.749 -109.297 149.55
210 -94.673 -105.947 149.55
211 0 -107.752 149.55
212 94.673 -105.947 149.55
213 105.749 -109.297 149.55
214 114.803 -108.564 149.55
215 118.605 -102.18 149.55
216 118.582 -93.11199999999999 149.55
217 166.86 0 167.103
218 162.144 127.317 167.103
219 160.163 137.982 167.103
220 154.202 145.822 167.103
221 143.53 148.346 167.103
222 130.911 146.501 167.103
223 0 146.683 167.103
224 -130.911 146.501 167.103
225 -143.53 148.346 167.103
226 -154.202 145.822 167.103
227 -160.163 137.982 167.103
228 -162.144 127.317 167.103
229 -166.86 0 167.103
230 -162.144 -127.317 167.103
231 -160.163 -137.982 167.103
232 -154.202 -145.822 167.103
233 -143.53 -148.346 167.103
234 -130.911 -146.501 167.103
235 0 -146.683 167.103
236 130.911 -146.501 167.103
237 143.53 -148.346 167.103
238 154.202 -145.822 167.103
239 160.163 -137.982 167.103
240 162.144 -127.317 167.103
241 206.093 0 178.672
242 203.466 159.763 178.672
243 199.341 171.734 178.672
244 191.248 180.855 178.672
245 179.253 185.267 178.672
246 165.49 185.197 178.672
247 0 184.002 178.672
248 -165.49 185.197 178.672
249 -179.253 185.267 178.672
250 -191.248 180.855 178.672
251 -199.341 171.734 178.672
252 -203.466 159.763 178.672
253 -206.093 0 178.672
254 -203.466 -159.763 178.672
255 -199.341 -171.734 178.672
256 -191.248 -180.855 178.672
257 -179.253 -185.267 178.672
258 -165.49 -185.197 178.672
259 0 -184.002 178.672
260 165.49 -185.197 178.672
261 179.253 -185.267 178.672
262 191.248 -180.855 178.672
263 199.341 -171.734 178.672
264 203.466 -159.763 178.672
265 238.724 0 185.608
266 236.991 186.087 185.608
267 231.086 199.083 185.608
268 221.267 209.242 185.608
269 208.25 215.237 185.608
270 193.64 216.699 185.608
271 0 215.394 185.608
272 -193.64 216.699 185.608
273 -208.25 215.237 185.608
274 -221.267 209.242 185.608
275 -231.086 199.083 185.608
276 -236.991 186.087 185.608
277 -238.724 0 185.608
278 -236.991 -186.087 185.608
279 -231.086 -199.083 185.608
280 -221.267 -209.242 185.608
281 -208.25 -215.237 185.608
282 -193.64 -216.699 185.608
283 0 -215.394 185.608
284 193.64 -216.699 185.608
285 208.25 -215.237 185.608
286 221.267 -209.242 185.608
287 231.086 -199.083 185.608
288 236.991 -186.087 185.608
289 260.421 0 188.716
290 258.019 202.599 188.716
291 251.048 216.28 188.716
292 240.191 227.138 188.716
293 226.509 234.109 188.716
294 211.343 236.511 188.716
295 0 236.511 188.716
296 -211.343 236.511 188.716
297 -226.509 234.109 188.716
298 -240.191 227.138 188.716
299 -251.048 216.28 188.716
300 -258.019 202.599 188.716
301 -260.421 0 188.716
302 -258.019 -202.599 188.716
303 -251.048 -216.28 188.716
304 -240.191 -227.138 188.716
305 -226.509 -234.109 188.716
306 -211.343 -236.511 188.716
307 0 -236.511 188.716
308 211.343 -236.511 188.716
309 226.509 -234.109 188.716
310 240.191 -227.138 188.716
311 251.048 -216.28 188.716
312 258.019 -202.599 188.716
313 85.6480000000096 32.21499999991396 126.139
314 100.3184999999353 78.7709999999492 137.8444999999585
315 100.9334999999341 86.95549999994324 137.8444999999564
316 97.94099999994009 92.61849999994335 137.8444999999584
317 89.77549999993839 92.78749999993632 137.8444999999548
318 79.65599999993866 89.14149999993136 137.8444999999522
319 32.3195000000873 73.57549999999665 126.139
320 -32.31949999991429 73.57550000000329 126.139
321 -79.65599999993866 89.14149999993136 137.8444999999522
322 -89.77549999993839 92.78749999993632 137.8444999999548
323 -97.94099999994009 92.61849999994335 137.8444999999584
324 -100.9334999999341 86.95549999994324 137.8444999999564
325 -100.3184999999353 78.7709999999492 137.8444999999585
326 -85.64799999999023 32.21500000008755 126.139
327 -85.6480000000096 -32.21499999991396 126.139
328 -100.3184999999353 -78.7709999999492 137.8444999999585
329 -100.9334999999341 -86.95549999994324 137.8444999999564
330 -97.94099999994009 -92.61849999994335 137.8444999999584
331 -89.77549999993839 -92.78749999993632 137.8444999999548
332 -79.65599999993866 -89.14149999993136 137.8444999999522
333 -32.3195000000873 -73.57549999999665 126.139
334 32.31949999991429 -73.57550000000329 126.139
335 79.65599999993866 -89.14149999993136 137.8444999999522
336 89.77549999993839 -92.78749999993632 137.8444999999548
337 97.94099999994009 -92.61849999994335 137.8444999999584
338 100.9334999999341 -86.95549999994324 137.8444999999564
339 100.3184999999353 -78.7709999999492 137.8444999999585
340 85.64799999999023 -32.21500000008755 126.139
341 121.9470000000084 46.55599999988416 149.55
342 140.362999999952 110.2144999999623 158.3264999999807
343 139.3839999999411 120.0809999999493 158.3264999999751
344 134.5024999999476 127.1929999999504 158.3264999999766
345 124.639499999946 128.8214999999442 158.3264999999749
346 112.7919999999676 126.2239999999637 158.3264999999843
347 47.33650000011364 106.8494999999978 149.55
348 -47.33649999988258 106.8495000000022 149.55
349 -112.7919999999676 126.2239999999637 158.3264999999843
350 -124.639499999946 128.8214999999442 158.3264999999749
351 -134.5024999999476 127.1929999999504 158.3264999999766
352 -139.3839999999411 120.0809999999493 158.3264999999751
353 -140.362999999952 110.2144999999623 158.3264999999807
354 -121.9469999999916 46.55600000011631 149.55
355 -121.9470000000084 -46.55599999988416 149.55
356 -140.362999999952 -110.2144999999623 158.3264999999807
357 -139.3839999999411 -120.0809999999493 158.3264999999751
358 -134.5024999999476 -127.1929999999504 158.3264999999766
359 -124.639499999946 -128.8214999999442 158.3264999999749
360 -112.7919999999676 -126.2239999999637 158.3264999999843
361 -47.33650000011364 -106.8494999999978 149.55
362 47.33649999988258 -106.8495000000022 149.55
363 112.7919999999676 -126.2239999999637 158.3264999999843
364 124.639499999946 -128.8214999999442 158.3264999999749
365 134.5024999999476 -127.1929999999504 158.3264999999766
366 139.3839999999411 -120.0809999999493 158.3264999999751
367 140.362999999952 -110.2144999999623 158.3264999999807
368 121.9469999999916 -46.55600000011631 149.55
369 165.2880000000038 42.43899999989674 167.103
370 163.716000000004 84.87799999989298 167.103
371 182.8049999999285 143.5399999999439 172.88749999998
372 179.751999999943 154.8579999999509 172.8874999999832
373 172.7249999999513 163.3384999999539 172.8874999999848
374 161.3914999999534 166.8064999999519 172.8874999999849
375 148.2004999999552 165.8489999999499 172.887499999985
376 87.2740000001601 146.5616666666664 167.103
377 43.6370000001241 146.6223333333332 167.103
378 -43.63699999989304 146.6223333333335 167.103
379 -87.27399999988445 146.5616666666668 167.103
380 -148.2004999999552 165.8489999999499 172.887499999985
381 -161.3914999999534 166.8064999999519 172.8874999999849
382 -172.7249999999513 163.3384999999539 172.8874999999848
383 -179.751999999943 154.8579999999509 172.8874999999832
384 -182.8049999999285 143.5399999999439 172.88749999998
385 -163.7159999999959 84.87800000011092 167.103
386 -165.2879999999958 42.43900000011247 167.103
387 -165.2880000000038 -42.43899999989674 167.103
388 -163.716000000004 -84.87799999989298 167.103
389 -182.8049999999285 -143.5399999999439 172.88749999998
390 -179.751999999943 -154.8579999999509 172.8874999999832
391 -172.7249999999513 -163.3384999999539 172.8874999999848
392 -161.3914999999534 -166.8064999999519 172.8874999999849
393 -148.2004999999552 -165.8489999999499 172.887499999985
394 -87.2740000001601 -146.5616666666664 167.103
395 -43.6370000001241 -146.6223333333332 167.103
396 43.63699999989304 -146.6223333333335 167.103
397 87.27399999988445 -146.5616666666668 167.103
398 148.2004999999552 -165.8489999999499 172.887499999985
399 161.3914999999534 -166.8064999999519 172.8874999999849
400 172.7249999999513 -163.3384999999539 172.8874999999848
401 179.751999999943 -154.8579999999509 172.8874999999832
402 182.8049999999285 -143.5399999999439 172.88749999998
403 163.7159999999959 -84.87800000011092 167.103
404 165.2879999999958 -42.43900000011247 167.103
405 205.4362500000016 39.94074999990256 178.672
406 204.7795000000036 79.88149999978224 178.672
407 204.122750000002 119.8222499998812 178.672
408 124.1175000001055 184.8982500000008 178.672
409 82.74500000021375 184.5995000000015 178.672
410 41.37250000011107 184.3007500000008 178.672
411 -41.37249999989518 184.3007499999993 178.672
412 -82.7449999997867 184.5994999999985 178.672
413 -124.1174999998892 184.8982499999992 178.672
414 -204.1227499999987 119.8222500000816 178.672
415 -204.7794999999966 79.88150000020555 178.672
416 -205.4362499999982 39.94075000011264 178.672
417 -205.4362500000016 -39.94074999990256 178.672
418 -204.7795000000036 -79.88149999978224 178.672
419 -204.122750000002 -119.8222499998812 178.672
420 -124.1175000001055 -184.8982500000008 178.672
421 -82.74500000021375 -184.5995000000015 178.672
422 -41.37250000011107 -184.3007500000008 178.672
423 41.37249999989518 -184.3007499999993 178.672
424 82.7449999997867 -184.5994999999985 178.672
425 124.1174999998892 -184.8982499999992 178.672
426 204.1227499999987 -119.8222500000816 178.672
427 204.7794999999966 -79.88150000020555 178.672
428 205.4362499999982 -39.94075000011264 178.672
429 238.2907500000009 46.52174999990842 185.608
430 237.8575000000022 93.04349999976239 185.608
431 237.4242500000011 139.5652499998828 185.608
432 145.2300000001069 216.3727500000007 185.608
433 96.82000000024973 216.0465000000017 185.608
434 48.41000000012625 215.7202500000008 185.608
435 -48.40999999988766 215.7202499999993 185.608
436 -96.81999999975216 216.0464999999983 185.608
437 -145.2299999998747 216.3727499999992 185.608
438 -237.4242499999992 139.5652500000849 185.608
439 -237.8574999999978 93.0435000002331 185.608
440 -238.2907499999989 46.52175000011491 185.608
441 -238.2907500000009 -46.52174999990842 185.608
442 -237.8575000000022 -93.04349999976239 185.608
443 -237.4242500000011 -139.5652499998828 185.608
444 -145.2300000001069 -216.3727500000007 185.608
445 -96.82000000024973 -216.0465000000017 185.608
446 -48.41000000012625 -215.7202500000008 185.608
447 48.40999999988766 -215.7202499999993 185.608
448 96.81999999975216 -216.0464999999983 185.608
449 145.2299999998747 -216.3727499999992 185.608
450 237.4242499999992 -139.5652500000849 185.608
451 237.8574999999978 -93.0435000002331 185.608
452 238.2907499999989 -46.52175000011491 185.608
453 259.940600000001 40.51979999991347 188.716
454 259.4602000000024 81.03959999979871 188.716
455 258.9798000000025 121.5593999997873 188.716
456 258.4994000000013 162.0791999998878 188.716
457 169.0744000000921 236.511 188.716
458 126.8058000002093 236.511 188.716
459 84.53720000021983 236.511 188.716
460 42.26860000010549 236.511 188.716
461 -42.2685999999062 236.511 188.716
462 -84.53719999978739 236.511 188.716
463 -126.8057999997779 236.511 188.716
464 -169.0743999998934 236.511 188.716
465 -258.4993999999989 162.0792000000951 188.716
466 -258.9797999999976 121.5594000002052 188.716
467 -259.4601999999974 81.03960000021529 188.716
468 -259.9405999999987 40.51980000011349 188.716
469 -259.940600000001 -40.51979999991347 188.716
470 -259.4602000000024 -81.03959999979871 188.716
471 -258.9798000000025 -121.5593999997873 188.716
472 -258.4994000000013 -162.0791999998878 188.716
473 -169.0744000000921 -236.511 188.716
474 -126.8058000002093 -236.511 188.716
475 -84.53720000021983 -236.511 188.716
476 -42.26860000010549 -236.511 188.716
477 42.2685999999062 -236.511 188.716
478 84.53719999978739 -236.511 188.716
479 126.8057999997779 -236.511 188.716
480 169.0743999998934 -236.511 188.716
481 258.4993999999989 -162.0792000000951 188.716
482 258.9797999999976 -121.5594000002052 188.716
483 259.4601999999974 -81.03960000021529 188.716
484 259.9405999999987 -40.51980000011349 188.716
485 11.4910701027572 3.979796867916167 2.377992291892494
486 4.266891260515944 11.14690628257018 2.38053575271095
487 -4.286628521638899 11.20064758096638 2.378152030864867
488 -11.45196888194257 3.96671617379768 2.380363847430219
489 -11.4910701027572 -3.979796867916167 2.377992291892494
490 -4.266891260515944 -11.14690628257018 2.38053575271095
491 4.286628521638899 -11.20064758096638 2.378152030864867
492 11.45196888194257 -3.966716173797681 2.380363847430219
493 12.50533200295587 4.377355913331741 9.005253489313407
494 4.572634948679521 11.69623706841144 9.051351530830088
495 -4.657768346961068 11.98735176204735 9.006205067713811
496 -12.31005244677908 4.322671789032799 9.046370982191277
497 -12.50533200295587 -4.377355913331741 9.005253489313407
498 -4.572634948679521 -11.69623706841144 9.051351530830088
499 4.657768346961068 -11.98735176204735 9.006205067713811
500 12.31005244677908 -4.322671789032799 9.046370982191277
501 15.78437802432314 5.370956870766546 20.15722378356382
502 5.423131395152937 13.97227425604459 20.19362540294527
503 -5.446110243505061 14.48182135303531 20.02851846261327
504 -15.50111967452855 5.336957756066086 20.2704277303082
505 -15.78437802432314 -5.370956870766546 20.15722378356382
506 -5.423131395152937 -13.97227425604459 20.19362540294527
507 5.446110243505061 -14.48182135303531 20.02851846261327
508 15.50111967452855 -5.336957756066086 20.2704277303082
509 22.50465093105744 7.402514980813739 36.23735563600351
510 7.164528210811528 19.14091211016575 36.17268855906969
511 -7.162032696951631 19.61495741874467 35.97960889726332
512 -22.27947555873163 7.378729931854715 36.35104630995166
513 -22.50465093105744 -7.402514980813739 36.23735563600351
514 -7.164528210811528 -19.14091211016575 36.17268855906969
515 7.162032696951631 -19.61495741874467 35.97960889726332
516 22.27947555873163 -7.378729931854715 36.35104630995166
517 33.67285786969341 10.89987947019771 58.06035821363722
518 10.7175483428045 28.09084816873647 57.65188668717003
519 -10.7249805337151 28.3478294490061 57.53143650445402
520 -33.56668054322023 10.88666173297211 58.12223338261847
521 -33.67285786969341 -10.89987947019771 58.06035821363722
522 -10.7175483428045 -28.09084816873647 57.65188668717003
523 10.7249805337151 -28.3478294490061 57.53143650445402
524 33.56668054322023 -10.88666173297211 58.12223338261847
525 49.15548765358562 18.29931052048629 83.70748844000207
526 18.14557137787787 41.49533813757706 83.75146488886567
527 -18.14893832314026 41.56586506829064 83.71065229039404
528 -49.08823600092096 18.29021971223148 83.75459579159576
529 -49.15548765358562 -18.29931052048629 83.70748844000207
530 -18.14557137787787 -41.49533813757706 83.75146488886567
531 18.14893832314026 -41.56586506829064 83.71065229039404
532 49.08823600092096 -18.29021971223148 83.75459579159576
533 74.17872527278961 15.7925527506135 112.5891025111841
534 17.99873282053862 61.94078765889807 112.1667026530203
535 -18.00315922657427 62.05620454608523 112.0666514961987
536 -73.93656608283624 15.7655442773234 112.834823391998
537 -74.17872527278961 -15.7925527506135 112.5891025111841
538 -17.99873282053863 -61.94078765889805 112.1667026530203
539 18.00315922657427 -62.05620454608523 112.0666514961987
540 73.93656608283624 -15.7655442773234 112.834823391998
541 99.6701012784868 48.06971969083263 135.1627334664547
542 105.6368392155601 21.8934820636573 137.8073551471284
543 23.18464646739504 90.22959045988767 137.8523271031738
544 49.42637053092755 86.38662067939961 135.5630756896853
545 -23.18693586629584 90.4347988434351 137.5554766718175
546 -49.4307777258018 86.6348055780245 135.2101560569816
547 -99.23850882629254 48.04146860578773 135.8423930665076
548 -105.2931814756153 21.8761526499573 138.367549371906
549 -99.6701012784868 -48.06971969083263 135.1627334664547
550 -105.6368392155601 -21.8934820636573 137.8073551471284
551 -23.18464646739504 -90.22959045988766 137.8523271031738
552 -49.42637053092755 -86.38662067939961 135.5630756896853
553 23.18693586629584 -90.4347988434351 137.5554766718175
554 49.4307777258018 -86.6348055780245 135.2101560569816
555 99.23850882629254 -48.04146860578773 135.8423930665076
556 105.2931814756153 -21.8761526499573 138.367549371906
557 139.6006014806166 72.27075675090396 156.7175502849348
558 71.32706907979696 123.242953171381 157.0128931583361
559 22.74323763633814 126.8779038161981 158.5550590027009
560 -71.32523557073387 123.4044204178402 156.6519881037338
561 -22.7434241293778 127.012046703225 158.2481226241538
562 -139.328450573226 72.26586240647161 157.3710206762668
563 -139.6006014806166 -72.27075675090396 156.7175502849348
564 -71.32706907979696 -123.242953171381 157.0128931583361
565 -22.74323763633814 -126.8779038161981 158.5550590027009
566 71.32523557073387 -123.4044204178402 156.6519881037338
567 22.7434241293778 -127.012046703225 158.2481226241538
568 139.328450573226 -72.26586240647161 157.3710206762668
569 181.2937132736282 107.8751001848031 171.8822608582174
570 185.8866006607928 167.9469362074109 175.8578816114711
571 109.1151183510888 162.7038878730963 172.0260224773729
572 21.25265661913706 165.3630207151218 173.017105883673
573 -109.1143533380786 162.7604110365399 171.842789589416
574 -21.2523155248203 165.410257267414 172.8609311104275
575 -185.8931476808731 167.9527453328921 175.8187547121938
576 -181.1787985253413 107.8745339358965 172.2759156417271
577 -181.2937132736282 -107.8751001848031 171.8822608582174
578 -185.8866006607928 -167.9469362074109 175.8578816114711
579 -109.1151183510888 -162.7038878730963 172.0260224773729
580 -21.25265661913706 -165.3630207151218 173.017105883673
581 109.1143533380786 -162.7604110365399 171.842789589416
582 21.2523155248203 -165.410257267414 172.8609311104275
583 185.8931476808731 -167.952745332892 175.8187547121938
584 181.1787985253413 -107.8745339358965 172.2759156417271
585 222.1390776956669 21.61565366206558 182.1255207198264
586 22.44561400748652 199.8558811124887 182.1326364093595
587 -22.44562656271908 199.8540181107783 182.1410495193825
588 -222.1158272288453 21.61543713409951 182.2382176378892
589 -222.1390776956669 -21.61565366206558 182.1255207198264
590 -22.44561400748652 -199.8558811124887 182.1326364093595
591 22.44562656271908 -199.8540181107783 182.1410495193825
592 222.1158272288453 -21.61543713409951 182.2382176378892
593 249.3434928013877 21.76038044924906 187.166151600966
594 235.7799882872537 212.9996319860274 187.1645620603917
595 22.66965000005793 226.0477755958049 187.0745856325339
596 -22.66964999994847 226.0323331579981 187.1737498439673
597 -235.7811650414892 213.0008200101514 187.1504743046659
598 -249.3484341618035 21.76043903378458 187.1323177190075
599 -249.3434928013877 -21.76038044924906 187.166151600966
600 -235.7799882872537 -212.9996319860274 187.1645620603917
601 -22.66965000005793 -226.0477755958049 187.0745856325339
602 22.66964999994847 -226.0323331579981 187.1737498439673
603 235.7811650414892 -213.0008200101514 187.1504743046659
604 249.3484341618035 -21.76043903378458 187.1323177190075
$EndNodes
$Elements
2212
1 15 2 0 1 1
2 15 2 0 2 2
3 15 2 0 3 3
4 15 2 0 4 4
5 15 2 0 5 5
6 15 2 0 6 6
7 15 2 0 7 7
8 15 2 0 8 8
9 15 2 0 9 9
10 15 2 0 10 10
11 15 2 0 11 11
12 15 2 0 12 12
13 15 2 0 13 13
14 15 2 0 14 14
15 15 2 0 15 15
16 15 2 0 16 16
17 15 2 0 17 17
18 15 2 0 18 18
19 15 2 0 19 19
20 15 2 0 20 20
21 15 2 0 21 21
22 15 2 0 22 22
23 15 2 0 23 23
24 15 2 0 24 24
25 15 2 0 25 25
26 15 2 0 26 26
27 15 2 0 27 27
28 15 2 0 28 28
29 15 2 0 29 29
30 15 2 0 30 30
31 15 2 0 31 31
32 15 2 0 32 32
33 15 2 0 33 33
34 15 2 0 34 34
35 15 2 0 35 35
36 15 2 0 36 36
37 15 2 0 37 37
38 15 2 0 38 38
39 15 2 0 39 39
40 15 2 0 40 40
41 15 2 0 41 41
42 15 2 0 42 42
43 15 2 0 43 43
44 15 2 0 44 44
45 15 2 0 45 45
46 15 2 0 46 46
47 15 2 0 47 47
48 15 2 0 48 48
49 15 2 0 49 49
50 15 2 0 50 50
51 15 2 0 51 51
52 15 2 0 52 52
53 15 2 0 53 53
54 15 2 0 54 54
55 15 2 0 55 55
56 15 2 0 56 56
57 15 2 0 57 57
58 15 2 0 58 58
59 15 2 0 59 59
60 15 2 0 60 60
61 15 2 0 61 61
62 15 2 0 62 62
63 15 2 0 63 63
64 15 2 0 64 64
65 15 2 0 65 65
66 15 2 0 66 66
67 15 2 0 67 67
68 15 2 0 68 68
69 15 2 0 69 69
70 15 2 0 70 70
71 15 2 0 71 71
72 15 2 0 72 72
73 15 2 0 73 73
74 15 2 0 74 74
75 15 2 0 75 75
76 15 2 0 76 76
77 15 2 0 77 77
78 15 2 0 78 78
79 15 2 0 79 79
80 15 2 0 80 80
81 15 2 0 81 81
82 15 2 0 82 82
83 15 2 0 83 83
84 15 2 0 84 84
85 15 2 0 85 85
86 15 2 0 86 86
87 15 2 0 87 87
88 15 2 0 88 88
89 15 2 0 89 89
90 15 2 0 90 90
91 15 2 0 91 91
92 15 2 0 92 92
93 15 2 0 93 93
94 15 2 0 94 94
95 15 2 0 95 95
96 15 2 0 96 96
97 15 2 0 97 97
98 15 2 0 98 98
99 15 2 0 99 99
100 15 2 0 100 100
101 15 2 0 101 101
102 15 2 0 102 102
103 15 2 0 103 103
104 15 2 0 104 104
105 15 2 0 105 105
106 15 2 0 106 106
107 15 2 0 107 107
108 15 2 0 108 108
109 15 2 0 109 109
110 15 2 0 110 110
111 15 2 0 111 111
112 15 2 0 112 112
113 15 2 0 113 113
114 15 2 0 114 114
115 15 2 0 115 115
116 15 2 0 116 116
117 15 2 0 117 117
118 15 2 0 118 118
119 15 2 0 119 119
120 15 2 0 120 120
121 15 2 0 121 121
122 15 2 0 122 122
123 15 2 0 123 123
124 15 2 0 124 124
125 15 2 0 125 125
126 15 2 0 126 126
127 15 2 0 127 127
128 15 2 0 128 128
129 15 2 0 129 129
130 15 2 0 130 130
131 15 2 0 131 131
132 15 2 0 132 132
133 15 2 0 133 133
134 15 2 0 134 134
135 15 2 0 135 135
136 15 2 0 136 136
137 15 2 0 137 137
138 15 2 0 138 138
139 15 2 0 139 139
140 15 2 0 140 140
141 15 2 0 141 141
142 15 2 0 142 142
143 15 2 0 143 143
144 15 2 0 144 144
145 15 2 0 145 145
146 15 2 0 146 146
147 15 2 0 147 147
148 15 2 0 148 148
149 15 2 0 149 149
150 15 2 0 150 150
151 15 2 0 151 151
152 15 2 0 152 152
153 15 2 0 153 153
154 15 2 0 154 154
155 15 2 0 155 155
156 15 2 0 156 156
157 15 2 0 157 157
158 15 2 0 158 158
159 15 2 0 159 159
160 15 2 0 160 160
161 15 2 0 161 161
162 15 2 0 162 162
163 15 2 0 163 163
164 15 2 0 164 164
165 15 2 0 165 165
166 15 2 0 166 166
167 15 2 0 167 167
168 15 2 0 168 168
169 15 2 0 169 169
170 15 2 0 170 170
171 15 2 0 171 171
172 15 2 0 172 172
173 15 2 0 173 173
174 15 2 0 174 174
175 15 2 0 175 175
176 15 2 0 176 176
177 15 2 0 177 177
178 15 2 0 178 178
179 15 2 0 179 179
180 15 2 0 180 180
181 15 2 0 181 181
182 15 2 0 182 182
183 15 2 0 183 183
184 15 2 0 184 184
185 15 2 0 185 185
186 15 2 0 186 186
187 15 2 0 187 187
188 15 2 0 188 188
189 15 2 0 189 189
190 15 2 0 190 190
191 15 2 0 191 191
192 15 2 0 192 192
193 15 2 0 193 193
194 15 2 0 194 194
195 15 2 0 195 195
196 15 2 0 196 196
197 15 2 0 197 197
198 15 2 0 198 198
199 15 2 0 199 199
200 15 2 0 200 200
201 15 2 0 201 201
202 15 2 0 202 202
203 15 2 0 203 203
204 15 2 0 204 204
205 15 2 0 205 205
206 15 2 0 206 206
207 15 2 0 207 207
208 15 2 0 208 208
209 15 2 0 209 209
210 15 2 0 210 210
211 15 2 0 211 211
212 15 2 0 212 212
213 15 2 0 213 213
214 15 2 0 214 214
215 15 2 0 215 215
216 15 2 0 216 216
217 15 2 0 217 217
218 15 2 0 218 218
219 15 2 0 219 219
220 15 2 0 220 220
221 15 2 0 221 221
222 15 2 0 222 222
223 15 2 0 223 223
224 15 2 0 224 224
225 15 2 0 225 225
226 15 2 0 226 226
227 15 2 0 227 227
228 15 2 0 228 228
229 15 2 0 229 229
230 15 2 0 230 230
231 15 2 0 231 231
232 15 2 0 232 232
233 15 2 0 233 233
234 15 2 0 234 234
235 15 2 0 235 235
236 15 2 0 236 236
237 15 2 0 237 237
238 15 2 0 238 238
239 15 2 0 239 239
240 15 2 0 240 240
241 15 2 0 241 241
242 15 2 0 242 242
243 15 2 0 243 243
244 15 2 0 244 244
245 15 2 0 245 245
246 15 2 0 246 246
247 15 2 0 247 247
248 15 2 0 248 248
249 15 2 0 249 249
250 15 2 0 250 250
251 15 2 0 251 251
252 15 2 0 252 252
253 15 2 0 253 253
254 15 2 0 254 254
255 15 2 0 255 255
256 15 2 0 256 256
257 15 2 0 257 257
258 15 2 0 258 258
259 15 2 0 259 259
260 15 2 0 260 260
261 15 2 0 261 261
262 15 2 0 262 262
263 15 2 0 263 263
264 15 2 0 264 264
265 15 2 0 265 265
266 15 2 0 266 266
267 15 2 0 267 267
268 15 2 0 268 268
269 15 2 0 269 269
270 15 2 0 270 270
271 15 2 0 271 271
272 15 2 0 272 272
273 15 2 0 273 273
274 15 2 0 274 274
275 15 2 0 275 275
276 15 2 0 276 276
277 15 2 0 277 277
278 15 2 0 278 278
279 15 2 0 279 279
280 15 2 0 280 280
281 15 2 0 281 281
282 15 2 0 282 282
283 15 2 0 283 283
284 15 2 0 284 284
285 15 2 0 285 285
286 15 2 0 286 286
287 15 2 0 287 287
288 15 2 0 288 288
289 15 2 0 289 289
290 15 2 0 290 290
291 15 2 0 291 291
292 15 2 0 292 292
293 15 2 0 293 293
294 15 2 0 294 294
295 15 2 0 295 295
296 15 2 0 296 296
297 15 2 0 297 297
298 15 2 0 298 298
299 15 2 0 299 299
300 15 2 0 300 300
301 15 2 0 301 301
302 15 2 0 302 302
303 15 2 0 303 303
304 15 2 0 304 304
305 15 2 0 305 305
306 15 2 0 306 306
307 15 2 0 307 307
308 15 2 0 308 308
309 15 2 0 309 309
310 15 2 0 310 310
311 15 2 0 311 311
312 15 2 0 312 312
313 1 2 0 1 1 25
314 1 2 0 2 1 2
315 1 2 0 3 2 26
316 1 2 0 4 2 3
317 1 2 0 5 3 27
318 1 2 0 6 3 4
319 1 2 0 7 4 28
320 1 2 0 8 4 5
321 1 2 0 9 5 29
322 1 2 0 10 5 6
323 1 2 0 11 6 30
324 1 2 0 12 6 7
325 1 2 0 13 7 31
326 1 2 0 14 7 8
327 1 2 0 15 8 32
328 1 2 0 16 8 9
329 1 2 0 17 9 33
330 1 2 0 18 9 10
331 1 2 0 19 10 34
332 1 2 0 20 10 11
333 1 2 0 21 11 35
334 1 2 0 22 11 12
335 1 2 0 23 12 36
336 1 2 0 24 12 13
337 1 2 0 25 13 37
338 1 2 0 26 13 14
339 1 2 0 27 14 38
340 1 2 0 28 14 15
341 1 2 0 29 15 39
342 1 2 0 30 15 16
343 1 2 0 31 16 40
344 1 2 0 32 16 17
345 1 2 0 33 17 41
346 1 2 0 34 17 18
347 1 2 0 35 18 42
348 1 2 0 36 18 19
349 1 2 0 37 19 43
350 1 2 0 38 19 20
351 1 2 0 39 20 44
352 1 2 0 40 20 21
353 1 2 0 41 21 45
354 1 2 0 42 21 22
355 1 2 0 43 22 46
356 1 2 0 44 22 23
357 1 2 0 45 23 47
358 1 2 0 46 23 24
359 1 2 0 47 24 48
360 1 2 0 48 24 1
361 1 2 0 49 25 49
362 1 2 0 50 25 26
363 1 2 0 51 26 50
364 1 2 0 52 26 27
365 1 2 0 53 27 51
366 1 2 0 54 27 28
367 1 2 0 55 28 52
368 1 2 0 56 28 29
369 1 2 0 57 29 53
370 1 2 0 58 29 30
371 1 2 0 59 30 54
372 1 2 0 60 30 31
373 1 2 0 61 31 55
374 1 2 0 62 31 32
375 1 2 0 63 32 56
376 1 2 0 64 32 33
377 1 2 0 65 33 57
378 1 2 0 66 33 34
379 1 2 0 67 34 58
380 1 2 0 68 34 35
381 1 2 0 69 35 59
382 1 2 0 70 35 36
383 1 2 0 71 36 60
384 1 2 0 72 36 37
385 1 2 0 73 37 61
386 1 2 0 74 37 38
387 1 2 0 75 38 62
388 1 2 0 76 38 39
389 1 2 0 77 39 63
390 1 2 0 78 39 40
391 1 2 0 79 40 64
392 1 2 0 80 40 41
393 1 2 0 81 41 65
394 1 2 0 82 41 42
395 1 2 0 83 42 66
396 1 2 0 84 42 43
397 1 2 0 85 43 67
398 1 2 0 86 43 44
399 1 2 0 87 44 68
400 1 2 0 88 44 45
401 1 2 0 89 45 69
402 1 2 0 90 45 46
403 1 2 0 91 46 70
404 1 2 0 92 46 47
405 1 2 0 93 47 71
406 1 2 0 94 47 48
407 1 2 0 95 48 72
408 1 2 0 96 48 25
409 1 2 0 97 49 73
410 1 2 0 98 49 50
411 1 2 0 99 50 74
412 1 2 0 100 50 51
413 1 2 0 101 51 75
414 1 2 0 102 51 52
415 1 2 0 103 52 76
416 1 2 0 104 52 53
417 1 2 0 105 53 77
418 1 2 0 106 53 54
419 1 2 0 107 54 78
420 1 2 0 108 54 55
421 1 2 0 109 55 79
422 1 2 0 110 55 56
423 1 2 0 111 56 80
424 1 2 0 112 56 57
425 1 2 0 113 57 81
426 1 2 0 114 57 58
427 1 2 0 115 58 82
428 1 2 0 116 58 59
429 1 2 0 117 59 83
430 1 2 0 118 59 60
431 1 2 0 119 60 84
432 1 2 0 120 60 61
433 1 2 0 121 61 85
434 1 2 0 122 61 62
435 1 2 0 123 62 86
436 1 2 0 124 62 63
437 1 2 0 125 63 87
438 1 2 0 126 63 64
439 1 2 0 127 64 88
440 1 2 0 128 64 65
441 1 2 0 129 65 89
442 1 2 0 130 65 66
443 1 2 0 131 66 90
444 1 2 0 132 66 67
445 1 2 0 133 67 91
446 1 2 0 134 67 68
447 1 2 0 135 68 92
448 1 2 0 136 68 69
449 1 2 0 137 69 93
450 1 2 0 138 69 70
451 1 2 0 139 70 94
452 1 2 0 140 70 71
453 1 2 0 141 71 95
454 1 2 0 142 71 72
455 1 2 0 143 72 96
456 1 2 0 144 72 49
457 1 2 0 145 73 97
458 1 2 0 146 73 74
459 1 2 0 147 74 98
460 1 2 0 148 74 75
461 1 2 0 149 75 99
462 1 2 0 150 75 76
463 1 2 0 151 76 100
464 1 2 0 152 76 77
465 1 2 0 153 77 101
466 1 2 0 154 77 78
467 1 2 0 155 78 102
468 1 2 0 156 78 79
469 1 2 0 157 79 103
470 1 2 0 158 79 80
471 1 2 0 159 80 104
472 1 2 0 160 80 81
473 1 2 0 161 81 105
474 1 2 0 162 81 82
475 1 2 0 163 82 106
476 1 2 0 164 82 83
477 1 2 0 165 83 107
478 1 2 0 166 83 84
479 1 2 0 167 84 108
480 1 2 0 168 84 85
481 1 2 0 169 85 109
482 1 2 0 170 85 86
483 1 2 0 171 86 110
484 1 2 0 172 86 87
485 1 2 0 173 87 111
486 1 2 0 174 87 88
487 1 2 0 175 88 112
488 1 2 0 176 88 89
489 1 2 0 177 89 113
490 1 2 0 178 89 90
491 1 2 0 179 90 114
492 1 2 0 180 90 91
493 1 2 0 181 91 115
494 1 2 0 182 91 92
495 1 2 0 183 92 116
496 1 2 0 184 92 93
497 1 2 0 185 93 117
498 1 2 0 186 93 94
499 1 2 0 187 94 118
500 1 2 0 188 94 95
501 1 2 0 189 95 119
502 1 2 0 190 95 96
503 1 2 0 191 96 120
504 1 2 0 192 96 73
505 1 2 0 193 97 121
506 1 2 0 194 97 98
507 1 2 0 195 98 122
508 1 2 0 196 98 99
509 1 2 0 197 99 123
510 1 2 0 198 99 100
511 1 2 0 199 100 124
512 1 2 0 200 100 101
513 1 2 0 201 101 125
514 1 2 0 202 101 102
515 1 2 0 203 102 126
516 1 2 0 204 102 103
517 1 2 0 205 103 127
518 1 2 0 206 103 104
519 1 2 0 207 104 128
520 1 2 0 208 104 105
521 1 2 0 209 105 129
522 1 2 0 210 105 106
523 1 2 0 211 106 130
524 1 2 0 212 106 107
525 1 2 0 213 107 131
526 1 2 0 214 107 108
527 1 2 0 215 108 132
528 1 2 0 216 108 109
529 1 2 0 217 109 133
530 1 2 0 218 109 110
531 1 2 0 219 110 134
532 1 2 0 220 110 111
533 1 2 0 221 111 135
534 1 2 0 222 111 112
535 1 2 0 223 112 136
536 1 2 0 224 112 113
537 1 2 0 225 113 137
538 1 2 0 226 113 114
539 1 2 0 227 114 138
540 1 2 0 228 114 115
541 1 2 0 229 115 139
542 1 2 0 230 115 116
543 1 2 0 231 116 140
544 1 2 0 232 116 117
545 1 2 0 233 117 141
546 1 2 0 234 117 118
547 1 2 0 235 118 142
548 1 2 0 236 118 119
549 1 2 0 237 119 143
550 1 2 0 238 119 120
551 1 2 0 239 120 144
552 1 2 0 240 120 97
553 1 2 0 241 121 145
554 1 2 0 242 121 122
555 1 2 0 243 122 146
556 1 2 0 244 122 123
557 1 2 0 245 123 147
558 1 2 0 246 123 124
559 1 2 0 247 124 148
560 1 2 0 248 124 125
561 1 2 0 249 125 149
562 1 2 0 250 125 126
563 1 2 0 251 126 150
564 1 2 0 252 126 127
565 1 2 0 253 127 151
566 1 2 0 254 127 128
567 1 2 0 255 128 152
568 1 2 0 256 128 129
569 1 2 0 257 129 153
570 1 2 0 258 129 130
571 1 2 0 259 130 154
572 1 2 0 260 130 131
573 1 2 0 261 131 155
574 1 2 0 262 131 132
575 1 2 0 263 132 156
576 1 2 0 264 132 133
577 1 2 0 265 133 157
578 1 2 0 266 133 134
579 1 2 0 267 134 158
580 1 2 0 268 134 135
581 1 2 0 269 135 159
582 1 2 0 270 135 136
583 1 2 0 271 136 160
584 1 2 0 272 136 137
585 1 2 0 273 137 161
586 1 2 0 274 137 138
587 1 2 0 275 138 162
588 1 2 0 276 138 139
589 1 2 0 277 139 163
590 1 2 0 278 139 140
591 1 2 0 279 140 164
592 1 2 0 280 140 141
593 1 2 0 281 141 165
594 1 2 0 282 141 142
595 1 2 0 283 142 166
596 1 2 0 284 142 143
597 1 2 0 285 143 167
598 1 2 0 286 143 144
599 1 2 0 287 144 168
600 1 2 0 288 144 121
601 1 2 0 289 145 169
602 1 2 0 290 145 146
603 1 2 0 291 146 170
604 1 2 0 292 146 147
605 1 2 0 293 147 171
606 1 2 0 294 147 148
607 1 2 0 295 148 172
608 1 2 0 296 148 149
609 1 2 0 297 149 173
610 1 2 0 298 149 150
611 1 2 0 299 150 174
612 1 2 0 300 150 151
613 1 2 0 301 151 175
614 1 2 0 302 151 152
615 1 2 0 303 152 176
616 1 2 0 304 152 153
617 1 2 0 305 153 177
618 1 2 0 306 153 154
619 1 2 0 307 154 178
620 1 2 0 308 154 155
621 1 2 0 309 155 179
622 1 2 0 310 155 156
623 1 2 0 311 156 180
624 1 2 0 312 156 157
625 1 2 0 313 157 181
626 1 2 0 314 157 158
627 1 2 0 315 158 182
628 1 2 0 316 158 159
629 1 2 0 317 159 183
630 1 2 0 318 159 160
631 1 2 0 319 160 184
632 1 2 0 320 160 161
633 1 2 0 321 161 185
634 1 2 0 322 161 162
635 1 2 0 323 162 186
636 1 2 0 324 162 163
637 1 2 0 325 163 187
638 1 2 0 326 163 164
639 1 2 0 327 164 188
640 1 2 0 328 164 165
641 1 2 0 329 165 189
642 1 2 0 330 165 166
643 1 2 0 331 166 190
644 1 2 0 332 166 167
645 1 2 0 333 167 191
646 1 2 0 334 167 168
647 1 2 0 335 168 192
648 1 2 0 336 168 145
649 1 2 0 337 169 193
650 1 2 0 338 169 313
651 1 2 0 338 313 170
652 1 2 0 339 170 314
653 1 2 0 339 314 194
654 1 2 0 340 170 171
655 1 2 0 341 171 315
656 1 2 0 341 315 195
657 1 2 0 342 171 172
658 1 2 0 343 172 316
659 1 2 0 343 316 196
660 1 2 0 344 172 173
661 1 2 0 345 173 317
662 1 2 0 345 317 197
663 1 2 0 346 173 174
664 1 2 0 347 174 318
665 1 2 0 347 318 198
666 1 2 0 348 174 319
667 1 2 0 348 319 175
668 1 2 0 349 175 199
669 1 2 0 350 175 320
670 1 2 0 350 320 176
671 1 2 0 351 176 321
672 1 2 0 351 321 200
673 1 2 0 352 176 177
674 1 2 0 353 177 322
675 1 2 0 353 322 201
676 1 2 0 354 177 178
677 1 2 0 355 178 323
678 1 2 0 355 323 202
679 1 2 0 356 178 179
680 1 2 0 357 179 324
681 1 2 0 357 324 203
682 1 2 0 358 179 180
683 1 2 0 359 180 325
684 1 2 0 359 325 204
685 1 2 0 360 180 326
686 1 2 0 360 326 181
687 1 2 0 361 181 205
688 1 2 0 362 181 327
689 1 2 0 362 327 182
690 1 2 0 363 182 328
691 1 2 0 363 328 206
692 1 2 0 364 182 183
693 1 2 0 365 183 329
694 1 2 0 365 329 207
695 1 2 0 366 183 184
696 1 2 0 367 184 330
697 1 2 0 367 330 208
698 1 2 0 368 184 185
699 1 2 0 369 185 331
700 1 2 0 369 331 209
701 1 2 0 370 185 186
702 1 2 0 371 186 332
703 1 2 0 371 332 210
704 1 2 0 372 186 333
705 1 2 0 372 333 187
706 1 2 0 373 187 211
707 1 2 0 374 187 334
708 1 2 0 374 334 188
709 1 2 0 375 188 335
710 1 2 0 375 335 212
711 1 2 0 376 188 189
712 1 2 0 377 189 336
713 1 2 0 377 336 213
714 1 2 0 378 189 190
715 1 2 0 379 190 337
716 1 2 0 379 337 214
717 1 2 0 380 190 191
718 1 2 0 381 191 338
719 1 2 0 381 338 215
720 1 2 0 382 191 192
721 1 2 0 383 192 339
722 1 2 0 383 339 216
723 1 2 0 384 192 340
724 1 2 0 384 340 169
725 1 2 0 385 193 217
726 1 2 0 386 193 341
727 1 2 0 386 341 194
728 1 2 0 387 194 342
729 1 2 0 387 342 218
730 1 2 0 388 194 195
731 1 2 0 389 195 343
732 1 2 0 389 343 219
733 1 2 0 390 195 196
734 1 2 0 391 196 344
735 1 2 0 391 344 220
736 1 2 0 392 196 197
737 1 2 0 393 197 345
738 1 2 0 393 345 221
739 1 2 0 394 197 198
740 1 2 0 395 198 346
741 1 2 0 395 346 222
742 1 2 0 396 198 347
743 1 2 0 396 347 199
744 1 2 0 397 199 223
745 1 2 0 398 199 348
746 1 2 0 398 348 200
747 1 2 0 399 200 349
748 1 2 0 399 349 224
749 1 2 0 400 200 201
750 1 2 0 401 201 350
751 1 2 0 401 350 225
752 1 2 0 402 201 202
753 1 2 0 403 202 351
754 1 2 0 403 351 226
755 1 2 0 404 202 203
756 1 2 0 405 203 352
757 1 2 0 405 352 227
758 1 2 0 406 203 204
759 1 2 0 407 204 353
760 1 2 0 407 353 228
761 1 2 0 408 204 354
762 1 2 0 408 354 205
763 1 2 0 409 205 229
764 1 2 0 410 205 355
765 1 2 0 410 355 206
766 1 2 0 411 206 356
767 1 2 0 411 356 230
768 1 2 0 412 206 207
769 1 2 0 413 207 357
770 1 2 0 413 357 231
771 1 2 0 414 207 208
772 1 2 0 415 208 358
773 1 2 0 415 358 232
774 1 2 0 416 208 209
775 1 2 0 417 209 359
776 1 2 0 417 359 233
777 1 2 0 418 209 210
778 1 2 0 419 210 360
779 1 2 0 419 360 234
780 1 2 0 420 210 361
781 1 2 0 420 361 211
782 1 2 0 421 211 235
783 1 2 0 422 211 362
784 1 2 0 422 362 212
785 1 2 0 423 212 363
786 1 2 0 423 363 236
787 1 2 0 424 212 213
788 1 2 0 425 213 364
789 1 2 0 425 364 237
790 1 2 0 426 213 214
791 1 2 0 427 214 365
792 1 2 0 427 365 238
793 1 2 0 428 214 215
794 1 2 0 429 215 366
795 1 2 0 429 366 239
796 1 2 0 430 215 216
797 1 2 0 431 216 367
798 1 2 0 431 367 240
799 1 2 0 432 216 368
800 1 2 0 432 368 193
801 1 2 0 433 217 241
802 1 2 0 434 217 369
803 1 2 0 434 369 370
804 1 2 0 434 370 218
805 1 2 0 435 218 371
806 1 2 0 435 371 242
807 1 2 0 436 218 219
808 1 2 0 437 219 372
809 1 2 0 437 372 243
810 1 2 0 438 219 220
811 1 2 0 439 220 373
812 1 2 0 439 373 244
813 1 2 0 440 220 221
814 1 2 0 441 221 374
815 1 2 0 441 374 245
816 1 2 0 442 221 222
817 1 2 0 443 222 375
818 1 2 0 443 375 246
819 1 2 0 444 222 376
820 1 2 0 444 376 377
821 1 2 0 444 377 223
822 1 2 0 445 223 247
823 1 2 0 446 223 378
824 1 2 0 446 378 379
825 1 2 0 446 379 224
826 1 2 0 447 224 380
827 1 2 0 447 380 248
828 1 2 0 448 224 225
829 1 2 0 449 225 381
830 1 2 0 449 381 249
831 1 2 0 450 225 226
832 1 2 0 451 226 382
833 1 2 0 451 382 250
834 1 2 0 452 226 227
835 1 2 0 453 227 383
836 1 2 0 453 383 251
837 1 2 0 454 227 228
838 1 2 0 455 228 384
839 1 2 0 455 384 252
840 1 2 0 456 228 385
841 1 2 0 456 385 386
842 1 2 0 456 386 229
843 1 2 0 457 229 253
844 1 2 0 458 229 387
845 1 2 0 458 387 388
846 1 2 0 458 388 230
847 1 2 0 459 230 389
848 1 2 0 459 389 254
849 1 2 0 460 230 231
850 1 2 0 461 231 390
851 1 2 0 461 390 255
852 1 2 0 462 231 232
853 1 2 0 463 232 391
854 1 2 0 463 391 256
855 1 2 0 464 232 233
856 1 2 0 465 233 392
857 1 2 0 465 392 257
858 1 2 0 466 233 234
859 1 2 0 467 234 393
860 1 2 0 467 393 258
861 1 2 0 468 234 394
862 1 2 0 468 394 395
863 1 2 0 468 395 235
864 1 2 0 469 235 259
865 1 2 0 470 235 396
866 1 2 0 470 396 397
867 1 2 0 470 397 236
868 1 2 0 471 236 398
869 1 2 0 471 398 260
870 1 2 0 472 236 237
871 1 2 0 473 237 399
872 1 2 0 473 399 261
873 1 2 0 474 237 238
874 1 2 0 475 238 400
875 1 2 0 475 400 262
876 1 2 0 476 238 239
877 1 2 0 477 239 401
878 1 2 0 477 401 263
879 1 2 0 478 239 240
880 1 2 0 479 240 402
881 1 2 0 479 402 264
882 1 2 0 480 240 403
883 1 2 0 480 403 404
884 1 2 0 480 404 217
885 1 2 0 481 241 265
886 1 2 0 482 241 405
887 1 2 0 482 405 406
888 1 2 0 482 406 407
889 1 2 0 482 407 242
890 1 2 0 483 242 266
891 1 2 0 484 242 243
892 1 2 0 485 243 267
893 1 2 0 486 243 244
894 1 2 0 487 244 268
895 1 2 0 488 244 245
896 1 2 0 489 245 269
897 1 2 0 490 245 246
898 1 2 0 491 246 270
899 1 2 0 492 246 408
900 1 2 0 492 408 409
901 1 2 0 492 409 410
902 1 2 0 492 410 247
903 1 2 0 493 247 271
904 1 2 0 494 247 411
905 1 2 0 494 411 412
906 1 2 0 494 412 413
907 1 2 0 494 413 248
908 1 2 0 495 248 272
909 1 2 0 496 248 249
910 1 2 0 497 249 273
911 1 2 0 498 249 250
912 1 2 0 499 250 274
913 1 2 0 500 250 251
914 1 2 0 501 251 275
915 1 2 0 502 251 252
916 1 2 0 503 252 276
917 1 2 0 504 252 414
918 1 2 0 504 414 415
919 1 2 0 504 415 416
920 1 2 0 504 416 253
921 1 2 0 505 253 277
922 1 2 0 506 253 417
923 1 2 0 506 417 418
924 1 2 0 506 418 419
925 1 2 0 506 419 254
926 1 2 0 507 254 278
927 1 2 0 508 254 255
928 1 2 0 509 255 279
929 1 2 0 510 255 256
930 1 2 0 511 256 280
931 1 2 0 512 256 257
932 1 2 0 513 257 281
933 1 2 0 514 257 258
934 1 2 0 515 258 282
935 1 2 0 516 258 420
936 1 2 0 516 420 421
937 1 2 0 516 421 422
938 1 2 0 516 422 259
939 1 2 0 517 259 283
940 1 2 0 518 259 423
941 1 2 0 518 423 424
942 1 2 0 518 424 425
943 1 2 0 518 425 260
944 1 2 0 519 260 284
945 1 2 0 520 260 261
946 1 2 0 521 261 285
947 1 2 0 522 261 262
948 1 2 0 523 262 286
949 1 2 0 524 262 263
950 1 2 0 525 263 287
951 1 2 0 526 263 264
952 1 2 0 527 264 288
953 1 2 0 528 264 426
954 1 2 0 528 426 427
955 1 2 0 528 427 428
956 1 2 0 528 428 241
957 1 2 0 529 265 289
958 1 2 0 530 265 429
959 1 2 0 530 429 430
960 1 2 0 530 430 431
961 1 2 0 530 431 266
962 1 2 0 531 266 290
963 1 2 0 532 266 267
964 1 2 0 533 267 291
965 1 2 0 534 267 268
966 1 2 0 535 268 292
967 1 2 0 536 268 269
968 1 2 0 537 269 293
969 1 2 0 538 269 270
970 1 2 0 539 270 294
971 1 2 0 540 270 432
972 1 2 0 540 432 433
973 1 2 0 540 433 434
974 1 2 0 540 434 271
975 1 2 0 541 271 295
976 1 2 0 542 271 435
977 1 2 0 542 435 436
978 1 2 0 542 436 437
979 1 2 0 542 437 272
980 1 2 0 543 272 296
981 1 2 0 544 272 273
982 1 2 0 545 273 297
983 1 2 0 546 273 274
984 1 2 0 547 274 298
985 1 2 0 548 274 275
986 1 2 0 549 275 299
987 1 2 0 550 275 276
988 1 2 0 551 276 300
989 1 2 0 552 276 438
990 1 2 0 552 438 439
991 1 2 0 552 439 440
992 1 2 0 552 440 277
993 1 2 0 553 277 301
994 1 2 0 554 277 441
995 1 2 0 554 441 442
996 1 2 0 554 442 443
997 1 2 0 554 443 278
998 1 2 0 555 278 302
999 1 2 0 556 278 279
1000 1 2 0 557 279 303
1001 1 2 0 558 279 280
1002 1 2 0 559 280 304
1003 1 2 0 560 280 281
1004 1 2 0 561 281 305
1005 1 2 0 562 281 282
1006 1 2 0 563 282 306
1007 1 2 0 564 282 444
1008 1 2 0 564 444 445
1009 1 2 0 564 445 446
1010 1 2 0 564 446 283
1011 1 2 0 565 283 307
1012 1 2 0 566 283 447
1013 1 2 0 566 447 448
1014 1 2 0 566 448 449
1015 1 2 0 566 449 284
1016 1 2 0 567 284 308
1017 1 2 0 568 284 285
1018 1 2 0 569 285 309
1019 1 2 0 570 285 286
1020 1 2 0 571 286 310
1021 1 2 0 572 286 287
1022 1 2 0 573 287 311
1023 1 2 0 574 287 288
1024 1 2 0 575 288 312
1025 1 2 0 576 288 450
1026 1 2 0 576 450 451
1027 1 2 0 576 451 452
1028 1 2 0 576 452 265
1029 1 2 0 578 289 453
1030 1 2 0 578 453 454
1031 1 2 0 578 454 455
1032 1 2 0 578 455 456
1033 1 2 0 578 456 290
1034 1 2 0 580 290 291
1035 1 2 0 582 291 292
1036 1 2 0 584 292 293
1037 1 2 0 586 293 294
1038 1 2 0 588 294 457
1039 1 2 0 588 457 458
1040 1 2 0 588 458 459
1041 1 2 0 588 459 460
1042 1 2 0 588 460 295
1043 1 2 0 590 295 461
1044 1 2 0 590 461 462
1045 1 2 0 590 462 463
1046 1 2 0 590 463 464
1047 1 2 0 590 464 296
1048 1 2 0 592 296 297
1049 1 2 0 594 297 298
1050 1 2 0 596 298 299
1051 1 2 0 598 299 300
1052 1 2 0 600 300 465
1053 1 2 0 600 465 466
1054 1 2 0 600 466 467
1055 1 2 0 600 467 468
1056 1 2 0 600 468 301
1057 1 2 0 602 301 469
1058 1 2 0 602 469 470
1059 1 2 0 602 470 471
1060 1 2 0 602 471 472
1061 1 2 0 602 472 302
1062 1 2 0 604 302 303
1063 1 2 0 606 303 304
1064 1 2 0 608 304 305
1065 1 2 0 610 305 306
1066 1 2 0 612 306 473
1067 1 2 0 612 473 474
1068 1 2 0 612 474 475
1069 1 2 0 612 475 476
1070 1 2 0 612 476 307
1071 1 2 0 614 307 477
1072 1 2 0 614 477 478
1073 1 2 0 614 478 479
1074 1 2 0 614 479 480
1075 1 2 0 614 480 308
1076 1 2 0 616 308 309
1077 1 2 0 618 309 310
1078 1 2 0 620 310 311
1079 1 2 0 622 311 312
1080 1 2 0 624 312 481
1081 1 2 0 624 481 482
1082 1 2 0 624 482 483
1083 1 2 0 624 483 484
1084 1 2 0 624 484 289
1085 2 2 0 38 26 2 485
1086 2 2 0 38 1 25 485
1087 2 2 0 38 2 1 485
1088 2 2 0 38 25 26 485
1089 2 2 0 39 26 3 2
1090 2 2 0 39 27 3 26
1091 2 2 0 40 27 4 3
1092 2 2 0 40 28 4 27
1093 2 2 0 41 29 5 4
1094 2 2 0 41 28 29 4
1095 2 2 0 42 30 6 5
1096 2 2 0 42 29 30 5
1097 2 2 0 43 6 30 486
1098 2 2 0 43 31 7 486
1099 2 2 0 43 7 6 486
1100 2 2 0 43 30 31 486
1101 2 2 0 44 32 8 487
1102 2 2 0 44 7 31 487
1103 2 2 0 44 8 7 487
1104 2 2 0 44 31 32 487
1105 2 2 0 45 32 9 8
1106 2 2 0 45 33 9 32
1107 2 2 0 46 33 10 9
1108 2 2 0 46 34 10 33
1109 2 2 0 47 35 11 10
1110 2 2 0 47 34 35 10
1111 2 2 0 48 36 12 11
1112 2 2 0 48 35 36 11
1113 2 2 0 49 12 36 488
1114 2 2 0 49 37 13 488
1115 2 2 0 49 13 12 488
1116 2 2 0 49 36 37 488
1117 2 2 0 50 38 14 489
1118 2 2 0 50 13 37 489
1119 2 2 0 50 14 13 489
1120 2 2 0 50 37 38 489
1121 2 2 0 51 38 15 14
1122 2 2 0 51 39 15 38
1123 2 2 0 52 39 16 15
1124 2 2 0 52 40 16 39
1125 2 2 0 53 41 17 16
1126 2 2 0 53 40 41 16
1127 2 2 0 54 42 18 17
1128 2 2 0 54 41 42 17
1129 2 2 0 55 18 42 490
1130 2 2 0 55 43 19 490
1131 2 2 0 55 19 18 490
1132 2 2 0 55 42 43 490
1133 2 2 0 56 44 20 491
1134 2 2 0 56 19 43 491
1135 2 2 0 56 20 19 491
1136 2 2 0 56 43 44 491
1137 2 2 0 57 44 21 20
1138 2 2 0 57 45 21 44
1139 2 2 0 58 45 22 21
1140 2 2 0 58 46 22 45
1141 2 2 0 59 47 23 22
1142 2 2 0 59 46 47 22
1143 2 2 0 60 48 24 23
1144 2 2 0 60 47 48 23
1145 2 2 0 61 24 48 492
1146 2 2 0 61 25 1 492
1147 2 2 0 61 1 24 492
1148 2 2 0 61 48 25 492
1149 2 2 0 62 49 50 493
1150 2 2 0 62 50 26 493
1151 2 2 0 62 25 49 493
1152 2 2 0 62 26 25 493
1153 2 2 0 63 51 27 50
1154 2 2 0 63 50 27 26
1155 2 2 0 64 51 28 27
1156 2 2 0 64 52 28 51
1157 2 2 0 65 52 53 28
1158 2 2 0 65 53 29 28
1159 2 2 0 66 53 54 29
1160 2 2 0 66 54 30 29
1161 2 2 0 67 54 55 494
1162 2 2 0 67 31 30 494
1163 2 2 0 67 30 54 494
1164 2 2 0 67 55 31 494
1165 2 2 0 68 55 56 495
1166 2 2 0 68 32 31 495
1167 2 2 0 68 56 32 495
1168 2 2 0 68 31 55 495
1169 2 2 0 69 57 33 56
1170 2 2 0 69 56 33 32
1171 2 2 0 70 58 34 57
1172 2 2 0 70 57 34 33
1173 2 2 0 71 59 35 34
1174 2 2 0 71 58 59 34
1175 2 2 0 72 59 60 35
1176 2 2 0 72 60 36 35
1177 2 2 0 73 60 61 496
1178 2 2 0 73 36 60 496
1179 2 2 0 73 61 37 496
1180 2 2 0 73 37 36 496
1181 2 2 0 74 61 62 497
1182 2 2 0 74 62 38 497
1183 2 2 0 74 37 61 497
1184 2 2 0 74 38 37 497
1185 2 2 0 75 63 39 62
1186 2 2 0 75 62 39 38
1187 2 2 0 76 63 40 39
1188 2 2 0 76 64 40 63
1189 2 2 0 77 64 65 40
1190 2 2 0 77 65 41 40
1191 2 2 0 78 65 66 41
1192 2 2 0 78 66 42 41
1193 2 2 0 79 66 67 498
1194 2 2 0 79 43 42 498
1195 2 2 0 79 42 66 498
1196 2 2 0 79 67 43 498
1197 2 2 0 80 67 68 499
1198 2 2 0 80 44 43 499
1199 2 2 0 80 68 44 499
1200 2 2 0 80 43 67 499
1201 2 2 0 81 69 45 68
1202 2 2 0 81 68 45 44
1203 2 2 0 82 70 46 69
1204 2 2 0 82 69 46 45
1205 2 2 0 83 71 47 46
1206 2 2 0 83 70 71 46
1207 2 2 0 84 71 72 47
1208 2 2 0 84 72 48 47
1209 2 2 0 85 72 49 500
1210 2 2 0 85 48 72 500
1211 2 2 0 85 49 25 500
1212 2 2 0 85 25 48 500
1213 2 2 0 86 74 50 501
1214 2 2 0 86 49 73 501
1215 2 2 0 86 73 74 501
1216 2 2 0 86 50 49 501
1217 2 2 0 87 74 51 50
1218 2 2 0 87 74 75 51
1219 2 2 0 88 75 52 51
1220 2 2 0 88 76 52 75
1221 2 2 0 89 77 53 52
1222 2 2 0 89 76 77 52
1223 2 2 0 90 53 78 54
1224 2 2 0 90 77 78 53
1225 2 2 0 91 54 78 502
1226 2 2 0 91 79 55 502
1227 2 2 0 91 78 79 502
1228 2 2 0 91 55 54 502
1229 2 2 0 92 80 56 503
1230 2 2 0 92 55 79 503
1231 2 2 0 92 79 80 503
1232 2 2 0 92 56 55 503
1233 2 2 0 93 80 57 56
1234 2 2 0 93 80 81 57
1235 2 2 0 94 81 58 57
1236 2 2 0 94 81 82 58
1237 2 2 0 95 83 59 58
1238 2 2 0 95 82 83 58
1239 2 2 0 96 84 60 59
1240 2 2 0 96 83 84 59
1241 2 2 0 97 60 84 504
1242 2 2 0 97 85 61 504
1243 2 2 0 97 84 85 504
1244 2 2 0 97 61 60 504
1245 2 2 0 98 86 62 505
1246 2 2 0 98 61 85 505
1247 2 2 0 98 85 86 505
1248 2 2 0 98 62 61 505
1249 2 2 0 99 86 63 62
1250 2 2 0 99 86 87 63
1251 2 2 0 100 87 64 63
1252 2 2 0 100 88 64 87
1253 2 2 0 101 89 65 64
1254 2 2 0 101 88 89 64
1255 2 2 0 102 65 90 66
1256 2 2 0 102 89 90 65
1257 2 2 0 103 66 90 506
1258 2 2 0 103 91 67 506
1259 2 2 0 103 90 91 506
1260 2 2 0 103 67 66 506
1261 2 2 0 104 92 68 507
1262 2 2 0 104 67 91 507
1263 2 2 0 104 91 92 507
1264 2 2 0 104 68 67 507
1265 2 2 0 105 92 69 68
1266 2 2 0 105 92 93 69
1267 2 2 0 106 93 70 69
1268 2 2 0 106 93 94 70
1269 2 2 0 107 95 71 70
1270 2 2 0 107 94 95 70
1271 2 2 0 108 96 72 71
1272 2 2 0 108 95 96 71
1273 2 2 0 109 72 96 508
1274 2 2 0 109 73 49 508
1275 2 2 0 109 96 73 508
1276 2 2 0 109 49 72 508
1277 2 2 0 110 98 74 509
1278 2 2 0 110 73 97 509
1279 2 2 0 110 97 98 509
1280 2 2 0 110 74 73 509
1281 2 2 0 111 98 75 74
1282 2 2 0 111 98 99 75
1283 2 2 0 112 99 76 75
1284 2 2 0 112 100 76 99
1285 2 2 0 113 76 101 77
1286 2 2 0 113 100 101 76
1287 2 2 0 114 77 102 78
1288 2 2 0 114 101 102 77
1289 2 2 0 115 78 102 510
1290 2 2 0 115 103 79 510
1291 2 2 0 115 102 103 510
1292 2 2 0 115 79 78 510
1293 2 2 0 116 104 80 511
1294 2 2 0 116 79 103 511
1295 2 2 0 116 103 104 511
1296 2 2 0 116 80 79 511
1297 2 2 0 117 104 81 80
1298 2 2 0 117 104 105 81
1299 2 2 0 118 105 82 81
1300 2 2 0 118 105 106 82
1301 2 2 0 119 107 83 82
1302 2 2 0 119 106 107 82
1303 2 2 0 120 83 108 84
1304 2 2 0 120 107 108 83
1305 2 2 0 121 84 108 512
1306 2 2 0 121 109 85 512
1307 2 2 0 121 108 109 512
1308 2 2 0 121 85 84 512
1309 2 2 0 122 110 86 513
1310 2 2 0 122 85 109 513
1311 2 2 0 122 109 110 513
1312 2 2 0 122 86 85 513
1313 2 2 0 123 110 87 86
1314 2 2 0 123 110 111 87
1315 2 2 0 124 111 88 87
1316 2 2 0 124 112 88 111
1317 2 2 0 125 88 113 89
1318 2 2 0 125 112 113 88
1319 2 2 0 126 89 114 90
1320 2 2 0 126 113 114 89
1321 2 2 0 127 90 114 514
1322 2 2 0 127 115 91 514
1323 2 2 0 127 114 115 514
1324 2 2 0 127 91 90 514
1325 2 2 0 128 116 92 515
1326 2 2 0 128 91 115 515
1327 2 2 0 128 115 116 515
1328 2 2 0 128 92 91 515
1329 2 2 0 129 116 93 92
1330 2 2 0 129 116 117 93
1331 2 2 0 130 117 94 93
1332 2 2 0 130 117 118 94
1333 2 2 0 131 119 95 94
1334 2 2 0 131 118 119 94
1335 2 2 0 132 95 120 96
1336 2 2 0 132 119 120 95
1337 2 2 0 133 96 120 516
1338 2 2 0 133 97 73 516
1339 2 2 0 133 120 97 516
1340 2 2 0 133 73 96 516
1341 2 2 0 134 97 121 517
1342 2 2 0 134 122 98 517
1343 2 2 0 134 121 122 517
1344 2 2 0 134 98 97 517
1345 2 2 0 135 122 99 98
1346 2 2 0 135 122 123 99
1347 2 2 0 136 123 100 99
1348 2 2 0 136 124 100 123
1349 2 2 0 137 100 125 101
1350 2 2 0 137 124 125 100
1351 2 2 0 138 101 126 102
1352 2 2 0 138 125 126 101
1353 2 2 0 139 102 126 518
1354 2 2 0 139 127 103 518
1355 2 2 0 139 126 127 518
1356 2 2 0 139 103 102 518
1357 2 2 0 140 128 104 519
1358 2 2 0 140 103 127 519
1359 2 2 0 140 127 128 519
1360 2 2 0 140 104 103 519
1361 2 2 0 141 128 105 104
1362 2 2 0 141 128 129 105
1363 2 2 0 142 129 106 105
1364 2 2 0 142 129 130 106
1365 2 2 0 143 131 107 106
1366 2 2 0 143 130 131 106
1367 2 2 0 144 107 132 108
1368 2 2 0 144 131 132 107
1369 2 2 0 145 133 109 520
1370 2 2 0 145 108 132 520
1371 2 2 0 145 132 133 520
1372 2 2 0 145 109 108 520
1373 2 2 0 146 109 133 521
1374 2 2 0 146 134 110 521
1375 2 2 0 146 133 134 521
1376 2 2 0 146 110 109 521
1377 2 2 0 147 134 111 110
1378 2 2 0 147 134 135 111
1379 2 2 0 148 135 112 111
1380 2 2 0 148 136 112 135
1381 2 2 0 149 112 137 113
1382 2 2 0 149 136 137 112
1383 2 2 0 150 113 138 114
1384 2 2 0 150 137 138 113
1385 2 2 0 151 114 138 522
1386 2 2 0 151 139 115 522
1387 2 2 0 151 138 139 522
1388 2 2 0 151 115 114 522
1389 2 2 0 152 140 116 523
1390 2 2 0 152 115 139 523
1391 2 2 0 152 139 140 523
1392 2 2 0 152 116 115 523
1393 2 2 0 153 140 117 116
1394 2 2 0 153 140 141 117
1395 2 2 0 154 141 118 117
1396 2 2 0 154 141 142 118
1397 2 2 0 155 143 119 118
1398 2 2 0 155 142 143 118
1399 2 2 0 156 119 144 120
1400 2 2 0 156 143 144 119
1401 2 2 0 157 121 97 524
1402 2 2 0 157 120 144 524
1403 2 2 0 157 144 121 524
1404 2 2 0 157 97 120 524
1405 2 2 0 158 145 146 525
1406 2 2 0 158 146 122 525
1407 2 2 0 158 121 145 525
1408 2 2 0 158 122 121 525
1409 2 2 0 159 146 123 122
1410 2 2 0 159 146 147 123
1411 2 2 0 160 147 124 123
1412 2 2 0 160 148 124 147
1413 2 2 0 161 124 149 125
1414 2 2 0 161 148 149 124
1415 2 2 0 162 125 150 126
1416 2 2 0 162 149 150 125
1417 2 2 0 163 150 151 526
1418 2 2 0 163 126 150 526
1419 2 2 0 163 151 127 526
1420 2 2 0 163 127 126 526
1421 2 2 0 164 151 152 527
1422 2 2 0 164 152 128 527
1423 2 2 0 164 127 151 527
1424 2 2 0 164 128 127 527
1425 2 2 0 165 152 129 128
1426 2 2 0 165 152 153 129
1427 2 2 0 166 153 130 129
1428 2 2 0 166 153 154 130
1429 2 2 0 167 155 131 130
1430 2 2 0 167 154 155 130
1431 2 2 0 168 131 156 132
1432 2 2 0 168 155 156 131
1433 2 2 0 169 156 157 528
1434 2 2 0 169 132 156 528
1435 2 2 0 169 157 133 528
1436 2 2 0 169 133 132 528
1437 2 2 0 170 157 158 529
1438 2 2 0 170 158 134 529
1439 2 2 0 170 133 157 529
1440 2 2 0 170 134 133 529
1441 2 2 0 171 158 135 134
1442 2 2 0 171 158 159 135
1443 2 2 0 172 159 136 135
1444 2 2 0 172 160 136 159
1445 2 2 0 173 136 161 137
1446 2 2 0 173 160 161 136
1447 2 2 0 174 137 162 138
1448 2 2 0 174 161 162 137
1449 2 2 0 175 162 163 530
1450 2 2 0 175 138 162 530
1451 2 2 0 175 163 139 530
1452 2 2 0 175 139 138 530
1453 2 2 0 176 163 164 531
1454 2 2 0 176 164 140 531
1455 2 2 0 176 139 163 531
1456 2 2 0 176 140 139 531
1457 2 2 0 177 164 141 140
1458 2 2 0 177 164 165 141
1459 2 2 0 178 165 142 141
1460 2 2 0 178 165 166 142
1461 2 2 0 179 167 143 142
1462 2 2 0 179 166 167 142
1463 2 2 0 180 143 168 144
1464 2 2 0 180 167 168 143
1465 2 2 0 181 168 145 532
1466 2 2 0 181 144 168 532
1467 2 2 0 181 145 121 532
1468 2 2 0 181 121 144 532
1469 2 2 0 182 146 313 170
1470 2 2 0 182 313 146 533
1471 2 2 0 182 145 169 533
1472 2 2 0 182 146 145 533
1473 2 2 0 182 169 313 533
1474 2 2 0 183 170 147 146
1475 2 2 0 183 170 171 147
1476 2 2 0 184 171 148 147
1477 2 2 0 184 172 148 171
1478 2 2 0 185 148 173 149
1479 2 2 0 185 172 173 148
1480 2 2 0 186 149 174 150
1481 2 2 0 186 173 174 149
1482 2 2 0 187 174 319 150
1483 2 2 0 187 151 150 534
1484 2 2 0 187 150 319 534
1485 2 2 0 187 175 151 534
1486 2 2 0 187 319 175 534
1487 2 2 0 188 176 152 320
1488 2 2 0 188 152 151 535
1489 2 2 0 188 320 152 535
1490 2 2 0 188 151 175 535
1491 2 2 0 188 175 320 535
1492 2 2 0 189 176 153 152
1493 2 2 0 189 176 177 153
1494 2 2 0 190 177 154 153
1495 2 2 0 190 177 178 154
1496 2 2 0 191 179 155 154
1497 2 2 0 191 178 179 154
1498 2 2 0 192 155 180 156
1499 2 2 0 192 179 180 155
1500 2 2 0 193 180 326 156
1501 2 2 0 193 156 326 536
1502 2 2 0 193 181 157 536
1503 2 2 0 193 157 156 536
1504 2 2 0 193 326 181 536
1505 2 2 0 194 158 327 182
1506 2 2 0 194 327 158 537
1507 2 2 0 194 157 181 537
1508 2 2 0 194 158 157 537
1509 2 2 0 194 181 327 537
1510 2 2 0 195 182 159 158
1511 2 2 0 195 182 183 159
1512 2 2 0 196 183 160 159
1513 2 2 0 196 184 160 183
1514 2 2 0 197 160 185 161
1515 2 2 0 197 184 185 160
1516 2 2 0 198 161 186 162
1517 2 2 0 198 185 186 161
1518 2 2 0 199 186 333 162
1519 2 2 0 199 163 162 538
1520 2 2 0 199 162 333 538
1521 2 2 0 199 187 163 538
1522 2 2 0 199 333 187 538
1523 2 2 0 200 164 334 188
1524 2 2 0 200 164 163 539
1525 2 2 0 200 334 164 539
1526 2 2 0 200 163 187 539
1527 2 2 0 200 187 334 539
1528 2 2 0 201 188 165 164
1529 2 2 0 201 188 189 165
1530 2 2 0 202 189 166 165
1531 2 2 0 202 189 190 166
1532 2 2 0 203 191 167 166
1533 2 2 0 203 190 191 166
1534 2 2 0 204 167 192 168
1535 2 2 0 204 191 192 167
1536 2 2 0 205 192 340 168
1537 2 2 0 205 168 340 540
1538 2 2 0 205 169 145 540
1539 2 2 0 205 145 168 540
1540 2 2 0 205 340 169 540
1541 2 2 0 206 341 314 541
1542 2 2 0 206 193 341 542
1543 2 2 0 206 169 193 542
1544 2 2 0 206 170 313 541
1545 2 2 0 206 541 313 542
1546 2 2 0 206 314 170 541
1547 2 2 0 206 341 541 542
1548 2 2 0 206 313 169 542
1549 2 2 0 206 314 341 194
1550 2 2 0 207 314 171 170
1551 2 2 0 207 315 171 314
1552 2 2 0 207 195 315 194
1553 2 2 0 207 315 314 194
1554 2 2 0 208 315 172 171
1555 2 2 0 208 316 172 315
1556 2 2 0 208 196 316 195
1557 2 2 0 208 316 315 195
1558 2 2 0 209 317 173 172
1559 2 2 0 209 316 317 172
1560 2 2 0 209 197 316 196
1561 2 2 0 209 197 317 316
1562 2 2 0 210 318 174 173
1563 2 2 0 210 317 318 173
1564 2 2 0 210 198 317 197
1565 2 2 0 210 198 318 317
1566 2 2 0 211 347 199 543
1567 2 2 0 211 318 347 544
1568 2 2 0 211 174 318 544
1569 2 2 0 211 199 175 543
1570 2 2 0 211 319 174 544
1571 2 2 0 211 347 543 544
1572 2 2 0 211 175 319 543
1573 2 2 0 211 543 319 544
1574 2 2 0 211 347 318 198
1575 2 2 0 212 199 348 545
1576 2 2 0 212 348 321 546
1577 2 2 0 212 321 176 546
1578 2 2 0 212 175 199 545
1579 2 2 0 212 176 320 546
1580 2 2 0 212 545 348 546
1581 2 2 0 212 320 175 545
1582 2 2 0 212 320 545 546
1583 2 2 0 212 321 348 200
1584 2 2 0 213 321 177 176
1585 2 2 0 213 322 177 321
1586 2 2 0 213 201 322 200
1587 2 2 0 213 322 321 200
1588 2 2 0 214 322 178 177
1589 2 2 0 214 323 178 322
1590 2 2 0 214 202 323 201
1591 2 2 0 214 323 322 201
1592 2 2 0 215 324 179 178
1593 2 2 0 215 323 324 178
1594 2 2 0 215 203 323 202
1595 2 2 0 215 203 324 323
1596 2 2 0 216 325 180 179
1597 2 2 0 216 324 325 179
1598 2 2 0 216 204 324 203
1599 2 2 0 216 204 325 324
1600 2 2 0 217 325 354 547
1601 2 2 0 217 354 205 548
1602 2 2 0 217 205 181 548
1603 2 2 0 217 326 180 547
1604 2 2 0 217 326 547 548
1605 2 2 0 217 180 325 547
1606 2 2 0 217 181 326 548
1607 2 2 0 217 547 354 548
1608 2 2 0 217 354 325 204
1609 2 2 0 218 355 328 549
1610 2 2 0 218 205 355 550
1611 2 2 0 218 181 205 550
1612 2 2 0 218 182 327 549
1613 2 2 0 218 549 327 550
1614 2 2 0 218 328 182 549
1615 2 2 0 218 355 549 550
1616 2 2 0 218 327 181 550
1617 2 2 0 218 328 355 206
1618 2 2 0 219 328 183 182
1619 2 2 0 219 329 183 328
1620 2 2 0 219 207 329 206
1621 2 2 0 219 329 328 206
1622 2 2 0 220 329 184 183
1623 2 2 0 220 330 184 329
1624 2 2 0 220 208 330 207
1625 2 2 0 220 330 329 207
1626 2 2 0 221 331 185 184
1627 2 2 0 221 330 331 184
1628 2 2 0 221 209 330 208
1629 2 2 0 221 209 331 330
1630 2 2 0 222 332 186 185
1631 2 2 0 222 331 332 185
1632 2 2 0 222 210 331 209
1633 2 2 0 222 210 332 331
1634 2 2 0 223 361 211 551
1635 2 2 0 223 332 361 552
1636 2 2 0 223 186 332 552
1637 2 2 0 223 211 187 551
1638 2 2 0 223 333 186 552
1639 2 2 0 223 361 551 552
1640 2 2 0 223 187 333 551
1641 2 2 0 223 551 333 552
1642 2 2 0 223 361 332 210
1643 2 2 0 224 211 362 553
1644 2 2 0 224 362 335 554
1645 2 2 0 224 335 188 554
1646 2 2 0 224 187 211 553
1647 2 2 0 224 188 334 554
1648 2 2 0 224 553 362 554
1649 2 2 0 224 334 187 553
1650 2 2 0 224 334 553 554
1651 2 2 0 224 335 362 212
1652 2 2 0 225 335 189 188
1653 2 2 0 225 336 189 335
1654 2 2 0 225 213 336 212
1655 2 2 0 225 336 335 212
1656 2 2 0 226 336 190 189
1657 2 2 0 226 337 190 336
1658 2 2 0 226 214 337 213
1659 2 2 0 226 337 336 213
1660 2 2 0 227 338 191 190
1661 2 2 0 227 337 338 190
1662 2 2 0 227 215 337 214
1663 2 2 0 227 215 338 337
1664 2 2 0 228 339 192 191
1665 2 2 0 228 338 339 191
1666 2 2 0 228 216 338 215
1667 2 2 0 228 216 339 338
1668 2 2 0 229 339 368 555
1669 2 2 0 229 368 193 556
1670 2 2 0 229 193 169 556
1671 2 2 0 229 340 192 555
1672 2 2 0 229 340 555 556
1673 2 2 0 229 192 339 555
1674 2 2 0 229 169 340 556
1675 2 2 0 229 555 368 556
1676 2 2 0 229 368 339 216
1677 2 2 0 230 217 369 193
1678 2 2 0 230 369 341 193
1679 2 2 0 230 342 370 218
1680 2 2 0 230 194 341 557
1681 2 2 0 230 342 194 557
1682 2 2 0 230 370 342 557
1683 2 2 0 230 369 370 557
1684 2 2 0 230 341 369 557
1685 2 2 0 231 342 195 194
1686 2 2 0 231 343 195 342
1687 2 2 0 231 219 343 218
1688 2 2 0 231 343 342 218
1689 2 2 0 232 343 196 195
1690 2 2 0 232 344 196 343
1691 2 2 0 232 220 344 219
1692 2 2 0 232 344 343 219
1693 2 2 0 233 345 197 196
1694 2 2 0 233 344 345 196
1695 2 2 0 233 221 344 220
1696 2 2 0 233 221 345 344
1697 2 2 0 234 346 198 197
1698 2 2 0 234 345 346 197
1699 2 2 0 234 222 345 221
1700 2 2 0 234 222 346 345
1701 2 2 0 235 347 198 558
1702 2 2 0 235 198 346 558
1703 2 2 0 235 346 376 558
1704 2 2 0 235 376 377 558
1705 2 2 0 235 199 347 559
1706 2 2 0 235 377 347 558
1707 2 2 0 235 377 223 559
1708 2 2 0 235 347 377 559
1709 2 2 0 235 223 199 559
1710 2 2 0 235 376 346 222
1711 2 2 0 236 200 348 560
1712 2 2 0 236 349 200 560
1713 2 2 0 236 379 349 560
1714 2 2 0 236 378 379 560
1715 2 2 0 236 348 199 561
1716 2 2 0 236 348 378 560
1717 2 2 0 236 223 378 561
1718 2 2 0 236 378 348 561
1719 2 2 0 236 199 223 561
1720 2 2 0 236 224 349 379
1721 2 2 0 237 349 201 200
1722 2 2 0 237 350 201 349
1723 2 2 0 237 225 350 224
1724 2 2 0 237 350 349 224
1725 2 2 0 238 350 202 201
1726 2 2 0 238 351 202 350
1727 2 2 0 238 226 351 225
1728 2 2 0 238 351 350 225
1729 2 2 0 239 352 203 202
1730 2 2 0 239 351 352 202
1731 2 2 0 239 227 351 226
1732 2 2 0 239 227 352 351
1733 2 2 0 240 353 204 203
1734 2 2 0 240 352 353 203
1735 2 2 0 240 228 352 227
1736 2 2 0 240 228 353 352
1737 2 2 0 241 229 205 386
1738 2 2 0 241 205 354 386
1739 2 2 0 241 385 353 228
1740 2 2 0 241 354 204 562
1741 2 2 0 241 204 353 562
1742 2 2 0 241 353 385 562
1743 2 2 0 241 385 386 562
1744 2 2 0 241 386 354 562
1745 2 2 0 242 229 387 205
1746 2 2 0 242 387 355 205
1747 2 2 0 242 356 388 230
1748 2 2 0 242 206 355 563
1749 2 2 0 242 356 206 563
1750 2 2 0 242 388 356 563
1751 2 2 0 242 387 388 563
1752 2 2 0 242 355 387 563
1753 2 2 0 243 356 207 206
1754 2 2 0 243 357 207 356
1755 2 2 0 243 231 357 230
1756 2 2 0 243 357 356 230
1757 2 2 0 244 357 208 207
1758 2 2 0 244 358 208 357
1759 2 2 0 244 232 358 231
1760 2 2 0 244 358 357 231
1761 2 2 0 245 359 209 208
1762 2 2 0 245 358 359 208
1763 2 2 0 245 233 358 232
1764 2 2 0 245 233 359 358
1765 2 2 0 246 360 210 209
1766 2 2 0 246 359 360 209
1767 2 2 0 246 234 359 233
1768 2 2 0 246 234 360 359
1769 2 2 0 247 361 210 564
1770 2 2 0 247 210 360 564
1771 2 2 0 247 360 394 564
1772 2 2 0 247 394 395 564
1773 2 2 0 247 211 361 565
1774 2 2 0 247 395 361 564
1775 2 2 0 247 395 235 565
1776 2 2 0 247 361 395 565
1777 2 2 0 247 235 211 565
1778 2 2 0 247 394 360 234
1779 2 2 0 248 212 362 566
1780 2 2 0 248 363 212 566
1781 2 2 0 248 397 363 566
1782 2 2 0 248 396 397 566
1783 2 2 0 248 362 211 567
1784 2 2 0 248 362 396 566
1785 2 2 0 248 235 396 567
1786 2 2 0 248 396 362 567
1787 2 2 0 248 211 235 567
1788 2 2 0 248 363 397 236
1789 2 2 0 249 363 213 212
1790 2 2 0 249 364 213 363
1791 2 2 0 249 237 364 236
1792 2 2 0 249 364 363 236
1793 2 2 0 250 364 214 213
1794 2 2 0 250 365 214 364
1795 2 2 0 250 238 365 237
1796 2 2 0 250 365 364 237
1797 2 2 0 251 366 215 214
1798 2 2 0 251 365 366 214
1799 2 2 0 251 239 365 238
1800 2 2 0 251 239 366 365
1801 2 2 0 252 367 216 215
1802 2 2 0 252 366 367 215
1803 2 2 0 252 240 366 239
1804 2 2 0 252 240 367 366
1805 2 2 0 253 193 404 217
1806 2 2 0 253 193 368 404
1807 2 2 0 253 403 367 240
1808 2 2 0 253 368 216 568
1809 2 2 0 253 216 367 568
1810 2 2 0 253 367 403 568
1811 2 2 0 253 403 404 568
1812 2 2 0 253 404 368 568
1813 2 2 0 254 241 405 217
1814 2 2 0 254 407 242 371
1815 2 2 0 254 405 369 217
1816 2 2 0 254 406 369 405
1817 2 2 0 254 370 369 406
1818 2 2 0 254 371 218 569
1819 2 2 0 254 218 370 569
1820 2 2 0 254 407 371 569
1821 2 2 0 254 406 407 569
1822 2 2 0 254 370 406 569
1823 2 2 0 255 371 219 218
1824 2 2 0 255 219 371 372
1825 2 2 0 255 243 372 242
1826 2 2 0 255 372 371 242
1827 2 2 0 256 243 244 570
1828 2 2 0 256 373 372 570
1829 2 2 0 256 372 243 570
1830 2 2 0 256 244 373 570
1831 2 2 0 256 372 220 219
1832 2 2 0 256 220 372 373
1833 2 2 0 257 374 221 220
1834 2 2 0 257 373 374 220
1835 2 2 0 257 245 373 244
1836 2 2 0 257 373 245 374
1837 2 2 0 258 375 222 221
1838 2 2 0 258 374 375 221
1839 2 2 0 258 246 374 245
1840 2 2 0 258 374 246 375
1841 2 2 0 259 409 377 376
1842 2 2 0 259 409 410 377
1843 2 2 0 259 222 375 571
1844 2 2 0 259 376 222 571
1845 2 2 0 259 375 408 571
1846 2 2 0 259 408 409 571
1847 2 2 0 259 223 377 572
1848 2 2 0 259 409 376 571
1849 2 2 0 259 410 247 572
1850 2 2 0 259 377 410 572
1851 2 2 0 259 247 223 572
1852 2 2 0 259 408 375 246
1853 2 2 0 260 378 412 379
1854 2 2 0 260 411 412 378
1855 2 2 0 260 380 224 573
1856 2 2 0 260 224 379 573
1857 2 2 0 260 413 380 573
1858 2 2 0 260 412 413 573
1859 2 2 0 260 378 223 574
1860 2 2 0 260 379 412 573
1861 2 2 0 260 247 411 574
1862 2 2 0 260 411 378 574
1863 2 2 0 260 223 247 574
1864 2 2 0 260 380 413 248
1865 2 2 0 261 380 225 224
1866 2 2 0 261 381 225 380
1867 2 2 0 261 249 381 248
1868 2 2 0 261 248 381 380
1869 2 2 0 262 381 226 225
1870 2 2 0 262 382 226 381
1871 2 2 0 262 250 382 249
1872 2 2 0 262 249 382 381
1873 2 2 0 263 250 251 575
1874 2 2 0 263 383 382 575
1875 2 2 0 263 382 250 575
1876 2 2 0 263 251 383 575
1877 2 2 0 263 383 227 226
1878 2 2 0 263 382 383 226
1879 2 2 0 264 384 228 227
1880 2 2 0 264 383 384 227
1881 2 2 0 264 251 252 383
1882 2 2 0 264 252 384 383
1883 2 2 0 265 229 416 253
1884 2 2 0 265 252 414 384
1885 2 2 0 265 229 386 416
1886 2 2 0 265 416 386 415
1887 2 2 0 265 386 385 415
1888 2 2 0 265 228 384 576
1889 2 2 0 265 385 228 576
1890 2 2 0 265 384 414 576
1891 2 2 0 265 414 415 576
1892 2 2 0 265 415 385 576
1893 2 2 0 266 253 417 229
1894 2 2 0 266 389 419 254
1895 2 2 0 266 417 387 229
1896 2 2 0 266 418 387 417
1897 2 2 0 266 388 387 418
1898 2 2 0 266 389 230 577
1899 2 2 0 266 230 388 577
1900 2 2 0 266 419 389 577
1901 2 2 0 266 418 419 577
1902 2 2 0 266 388 418 577
1903 2 2 0 267 389 231 230
1904 2 2 0 267 390 231 389
1905 2 2 0 267 255 390 254
1906 2 2 0 267 390 389 254
1907 2 2 0 268 255 256 578
1908 2 2 0 268 391 390 578
1909 2 2 0 268 390 255 578
1910 2 2 0 268 256 391 578
1911 2 2 0 268 390 232 231
1912 2 2 0 268 391 232 390
1913 2 2 0 269 392 233 232
1914 2 2 0 269 391 392 232
1915 2 2 0 269 257 391 256
1916 2 2 0 269 257 392 391
1917 2 2 0 270 393 234 233
1918 2 2 0 270 392 393 233
1919 2 2 0 270 258 392 257
1920 2 2 0 270 258 393 392
1921 2 2 0 271 421 395 394
1922 2 2 0 271 422 395 421
1923 2 2 0 271 234 393 579
1924 2 2 0 271 394 234 579
1925 2 2 0 271 393 420 579
1926 2 2 0 271 420 421 579
1927 2 2 0 271 235 395 580
1928 2 2 0 271 421 394 579
1929 2 2 0 271 422 259 580
1930 2 2 0 271 395 422 580
1931 2 2 0 271 259 235 580
1932 2 2 0 271 420 393 258
1933 2 2 0 272 396 424 397
1934 2 2 0 272 424 396 423
1935 2 2 0 272 398 236 581
1936 2 2 0 272 236 397 581
1937 2 2 0 272 425 398 581
1938 2 2 0 272 424 425 581
1939 2 2 0 272 396 235 582
1940 2 2 0 272 397 424 581
1941 2 2 0 272 259 423 582
1942 2 2 0 272 423 396 582
1943 2 2 0 272 235 259 582
1944 2 2 0 272 398 425 260
1945 2 2 0 273 398 237 236
1946 2 2 0 273 399 237 398
1947 2 2 0 273 261 399 260
1948 2 2 0 273 399 398 260
1949 2 2 0 274 399 238 237
1950 2 2 0 274 400 238 399
1951 2 2 0 274 262 400 261
1952 2 2 0 274 400 399 261
1953 2 2 0 275 262 263 583
1954 2 2 0 275 401 400 583
1955 2 2 0 275 400 262 583
1956 2 2 0 275 263 401 583
1957 2 2 0 275 401 239 238
1958 2 2 0 275 400 401 238
1959 2 2 0 276 402 240 239
1960 2 2 0 276 401 402 239
1961 2 2 0 276 264 401 263
1962 2 2 0 276 264 402 401
1963 2 2 0 277 241 217 428
1964 2 2 0 277 426 402 264
1965 2 2 0 277 217 404 428
1966 2 2 0 277 404 427 428
1967 2 2 0 277 404 403 427
1968 2 2 0 277 240 402 584
1969 2 2 0 277 403 240 584
1970 2 2 0 277 402 426 584
1971 2 2 0 277 426 427 584
1972 2 2 0 277 427 403 584
1973 2 2 0 278 406 405 429
1974 2 2 0 278 431 407 430
1975 2 2 0 278 407 406 430
1976 2 2 0 278 242 431 266
1977 2 2 0 278 405 241 585
1978 2 2 0 278 242 407 431
1979 2 2 0 278 429 405 585
1980 2 2 0 278 241 265 585
1981 2 2 0 278 265 429 585
1982 2 2 0 278 430 406 429
1983 2 2 0 279 266 243 242
1984 2 2 0 279 267 243 266
1985 2 2 0 280 268 244 243
1986 2 2 0 280 267 268 243
1987 2 2 0 281 269 245 244
1988 2 2 0 281 268 269 244
1989 2 2 0 282 245 270 246
1990 2 2 0 282 269 270 245
1991 2 2 0 283 433 408 432
1992 2 2 0 283 247 410 586
1993 2 2 0 283 270 432 246
1994 2 2 0 283 409 408 433
1995 2 2 0 283 432 408 246
1996 2 2 0 283 410 434 586
1997 2 2 0 283 271 247 586
1998 2 2 0 283 434 271 586
1999 2 2 0 283 410 409 434
2000 2 2 0 283 434 409 433
2001 2 2 0 284 437 413 436
2002 2 2 0 284 411 247 587
2003 2 2 0 284 248 437 272
2004 2 2 0 284 413 412 436
2005 2 2 0 284 248 413 437
2006 2 2 0 284 435 411 587
2007 2 2 0 284 247 271 587
2008 2 2 0 284 271 435 587
2009 2 2 0 284 412 411 435
2010 2 2 0 284 436 412 435
2011 2 2 0 285 272 249 248
2012 2 2 0 285 272 273 249
2013 2 2 0 286 273 250 249
2014 2 2 0 286 274 250 273
2015 2 2 0 287 274 251 250
2016 2 2 0 287 275 251 274
2017 2 2 0 288 276 252 251
2018 2 2 0 288 275 276 251
2019 2 2 0 289 416 415 440
2020 2 2 0 289 439 414 438
2021 2 2 0 289 415 414 439
2022 2 2 0 289 276 438 252
2023 2 2 0 289 253 416 588
2024 2 2 0 289 438 414 252
2025 2 2 0 289 416 440 588
2026 2 2 0 289 277 253 588
2027 2 2 0 289 440 277 588
2028 2 2 0 289 440 415 439
2029 2 2 0 290 418 417 441
2030 2 2 0 290 443 419 442
2031 2 2 0 290 419 418 442
2032 2 2 0 290 254 443 278
2033 2 2 0 290 417 253 589
2034 2 2 0 290 254 419 443
2035 2 2 0 290 441 417 589
2036 2 2 0 290 253 277 589
2037 2 2 0 290 277 441 589
2038 2 2 0 290 442 418 441
2039 2 2 0 291 278 255 254
2040 2 2 0 291 279 255 278
2041 2 2 0 292 280 256 255
2042 2 2 0 292 279 280 255
2043 2 2 0 293 281 257 256
2044 2 2 0 293 280 281 256
2045 2 2 0 294 257 282 258
2046 2 2 0 294 281 282 257
2047 2 2 0 295 445 420 444
2048 2 2 0 295 259 422 590
2049 2 2 0 295 282 444 258
2050 2 2 0 295 421 420 445
2051 2 2 0 295 444 420 258
2052 2 2 0 295 422 446 590
2053 2 2 0 295 283 259 590
2054 2 2 0 295 446 283 590
2055 2 2 0 295 422 421 446
2056 2 2 0 295 446 421 445
2057 2 2 0 296 449 425 448
2058 2 2 0 296 423 259 591
2059 2 2 0 296 260 449 284
2060 2 2 0 296 425 424 448
2061 2 2 0 296 260 425 449
2062 2 2 0 296 447 423 591
2063 2 2 0 296 259 283 591
2064 2 2 0 296 283 447 591
2065 2 2 0 296 424 423 447
2066 2 2 0 296 448 424 447
2067 2 2 0 297 284 261 260
2068 2 2 0 297 284 285 261
2069 2 2 0 298 285 262 261
2070 2 2 0 298 286 262 285
2071 2 2 0 299 286 263 262
2072 2 2 0 299 287 263 286
2073 2 2 0 300 288 264 263
2074 2 2 0 300 287 288 263
2075 2 2 0 301 428 427 452
2076 2 2 0 301 451 426 450
2077 2 2 0 301 427 426 451
2078 2 2 0 301 288 450 264
2079 2 2 0 301 241 428 592
2080 2 2 0 301 450 426 264
2081 2 2 0 301 428 452 592
2082 2 2 0 301 265 241 592
2083 2 2 0 301 452 265 592
2084 2 2 0 301 452 427 451
2085 2 2 0 302 456 431 455
2086 2 2 0 302 453 429 593
2087 2 2 0 302 265 289 593
2088 2 2 0 302 429 265 593
2089 2 2 0 302 266 431 456
2090 2 2 0 302 289 453 593
2091 2 2 0 302 431 430 455
2092 2 2 0 302 266 456 290
2093 2 2 0 302 430 429 454
2094 2 2 0 302 454 429 453
2095 2 2 0 302 455 430 454
2096 2 2 0 303 290 267 266
2097 2 2 0 303 291 267 290
2098 2 2 0 304 268 267 594
2099 2 2 0 304 291 292 594
2100 2 2 0 304 267 291 594
2101 2 2 0 304 292 268 594
2102 2 2 0 305 293 269 268
2103 2 2 0 305 292 293 268
2104 2 2 0 306 294 270 269
2105 2 2 0 306 293 294 269
2106 2 2 0 307 434 460 595
2107 2 2 0 307 295 271 595
2108 2 2 0 307 294 457 270
2109 2 2 0 307 457 432 270
2110 2 2 0 307 271 434 595
2111 2 2 0 307 460 295 595
2112 2 2 0 307 433 432 458
2113 2 2 0 307 458 432 457
2114 2 2 0 307 434 433 459
2115 2 2 0 307 459 433 458
2116 2 2 0 307 460 434 459
2117 2 2 0 308 461 435 596
2118 2 2 0 308 271 295 596
2119 2 2 0 308 435 271 596
2120 2 2 0 308 296 272 464
2121 2 2 0 308 272 437 464
2122 2 2 0 308 295 461 596
2123 2 2 0 308 462 436 435
2124 2 2 0 308 463 437 436
2125 2 2 0 308 437 463 464
2126 2 2 0 308 462 435 461
2127 2 2 0 308 463 436 462
2128 2 2 0 309 296 273 272
2129 2 2 0 309 297 273 296
2130 2 2 0 310 297 274 273
2131 2 2 0 310 298 274 297
2132 2 2 0 311 275 274 597
2133 2 2 0 311 298 299 597
2134 2 2 0 311 274 298 597
2135 2 2 0 311 299 275 597
2136 2 2 0 312 300 276 275
2137 2 2 0 312 299 300 275
2138 2 2 0 313 466 438 465
2139 2 2 0 313 440 468 598
2140 2 2 0 313 301 277 598
2141 2 2 0 313 465 438 276
2142 2 2 0 313 277 440 598
2143 2 2 0 313 468 301 598
2144 2 2 0 313 438 466 439
2145 2 2 0 313 300 465 276
2146 2 2 0 313 467 440 439
2147 2 2 0 313 466 467 439
2148 2 2 0 313 467 468 440
2149 2 2 0 314 443 471 472
2150 2 2 0 314 469 441 599
2151 2 2 0 314 277 301 599
2152 2 2 0 314 441 277 599
2153 2 2 0 314 278 443 472
2154 2 2 0 314 301 469 599
2155 2 2 0 314 443 442 471
2156 2 2 0 314 302 278 472
2157 2 2 0 314 442 441 470
2158 2 2 0 314 441 469 470
2159 2 2 0 314 471 442 470
2160 2 2 0 315 302 279 278
2161 2 2 0 315 303 279 302
2162 2 2 0 316 280 279 600
2163 2 2 0 316 303 304 600
2164 2 2 0 316 279 303 600
2165 2 2 0 316 304 280 600
2166 2 2 0 317 305 281 280
2167 2 2 0 317 304 305 280
2168 2 2 0 318 306 282 281
2169 2 2 0 318 305 306 281
2170 2 2 0 319 446 476 601
2171 2 2 0 319 307 283 601
2172 2 2 0 319 306 473 282
2173 2 2 0 319 473 444 282
2174 2 2 0 319 283 446 601
2175 2 2 0 319 476 307 601
2176 2 2 0 319 445 444 474
2177 2 2 0 319 474 444 473
2178 2 2 0 319 446 445 475
2179 2 2 0 319 445 474 475
2180 2 2 0 319 476 446 475
2181 2 2 0 320 477 447 602
2182 2 2 0 320 283 307 602
2183 2 2 0 320 447 283 602
2184 2 2 0 320 284 480 308
2185 2 2 0 320 449 480 284
2186 2 2 0 320 307 477 602
2187 2 2 0 320 448 447 478
2188 2 2 0 320 449 448 479
2189 2 2 0 320 480 449 479
2190 2 2 0 320 447 477 478
2191 2 2 0 320 479 448 478
2192 2 2 0 321 308 285 284
2193 2 2 0 321 309 285 308
2194 2 2 0 322 309 286 285
2195 2 2 0 322 310 286 309
2196 2 2 0 323 287 286 603
2197 2 2 0 323 310 311 603
2198 2 2 0 323 286 310 603
2199 2 2 0 323 311 287 603
2200 2 2 0 324 312 288 287
2201 2 2 0 324 311 312 287
2202 2 2 0 325 482 450 481
2203 2 2 0 325 452 484 604
2204 2 2 0 325 289 265 604
2205 2 2 0 325 265 452 604
2206 2 2 0 325 481 450 288
2207 2 2 0 325 484 289 604
2208 2 2 0 325 451 450 482
2209 2 2 0 325 312 481 288
2210 2 2 0 325 452 451 483
2211 2 2 0 325 451 482 483
2212 2 2 0 325 484 452 483
$EndElements
