$MeshFormat
2.2 0 8
$EndMeshFormat
$PhysicalNames
4
2 1 "SD1G0"
2 2 "SD1D1001"
2 3 "SD2G0"
2 4 "I1-2"
$EndPhysicalNames
$Nodes
694
1 12.7 0 0
2 9.212 8.743 0
3 0 12.7 0
4 12.943 0 4.838
5 9.48 8.997 4.838
6 0 12.849 4.838
7 14.513 0 13.512
8 11.151 10.584 13.512
9 0 13.844 13.512
10 18.978 0 26.791
11 15.598 14.804 26.791
12 0 16.871 26.791
13 27.854 0 45.979
14 23.882 22.666 45.979
15 0 23.389 45.979
16 41.707 0 70.729
17 36.262 34.416 70.729
18 0 34.23 70.729
19 61.488 0 99.533
20 53.681 50.949 99.533
21 0 50.604 99.533
22 89.39 0 128.247
23 79.164 75.134 128.247
24 0 75.22799999999999 128.247
25 125.838 0 152.05
26 114.359 108.537 152.05
27 0 109.108 152.05
28 167.928 0 169.896
29 156.329 148.371 169.896
30 0 149.42 169.896
31 207.727 0 181.658
32 196.102 186.12 181.658
33 0 188.146 181.658
34 240.853 0 188.71
35 228.291 216.67 188.71
36 0 220.677 188.71
37 262.893 0 191.87
38 248.385 235.741 191.87
39 0 242.463 191.87
40 0 0 191.87
41 0 0 0
42 0 0 31.87
43 263 0 191.87
44 273 0 181.87
45 273 0 41.87
46 263 0 31.87
47 0 243 191.87
48 0 253 181.87
49 0 253 41.87
50 0 243 31.87
51 263 243 191.87
52 273 243 181.87
53 273 243 41.87
54 263 243 31.87
55 263 253 181.87
56 263 253 41.87
57 10.96463006963101 4.811261151196415 0
58 5.122362029173767 10.68117701776494 0
59 11.20193321220923 4.923644623201329 4.838
60 5.29167001353528 10.91555805614207 4.838
61 12.70970022073221 5.663506704235401 13.512
62 6.34753483475947 12.39949597974334 13.512
63 16.89558149530775 7.788152003473959 26.791
64 9.131188498986278 16.48203697967776 26.791
65 13.28169306493427 12.60593045514339 19.87437310754716
66 16.65231741284725 0 19.87437310754728
67 0 15.29432784069905 19.87437310757937
68 25.07407059584766 11.85986412468203 45.979
69 14.20589099001449 24.40229703500819 45.979
70 19.52518300097557 18.53112611705335 35.88742532867204
71 23.18583152060118 0 35.88742532867231
72 0 19.96097812656859 35.8874253287202
73 39.03857405311439 11.99237856219217 70.729
74 36.38579435816519 23.98820647445636 70.729
75 28.88574277335978 37.37174591028524 70.729
76 14.44189252940802 35.81000129648267 70.729
77 29.72704413279043 28.21359842974859 57.66436690521511
78 34.39450051465986 0 57.66436690520693
79 0 28.50742677250454 57.66436690521976
80 57.74691330526755 17.7612409398333 99.533
81 54.02590733086907 35.52667414052965 99.533
82 42.50866897080776 55.13824115437664 99.533
83 21.25300951334173 52.88371342058846 99.533
84 44.52508218215945 42.25878877763604 84.39280499310642
85 51.09054834636275 0 84.39280499310614
86 0 41.99736366331997 84.39280499317628
87 86.08262964391518 19.70670952624192 128.247
88 82.75979215620845 39.41082319051802 128.247
89 79.50438297626076 59.12614315780635 128.247
90 68.98705527961445 81.07106360983175 128.247
91 45.98507392268763 79.19946892311636 128.247
92 22.99386179802775 77.19829004697986 128.247
93 65.88073481089626 62.52733011817785 113.2795441808294
94 74.84580719277895 0 113.2795441808277
95 0 62.39249703665658 113.2795441809031
96 122.8467604733887 28.71904899782867 152.05
97 119.8515026474633 57.43768000523834 152.05
98 116.8719244991603 86.15794158585639 152.05
99 103.2184205723984 115.3851635981043 152.05
100 77.40632856948589 113.9444748062889 152.05
101 51.60375073913239 112.339772590406 152.05
102 25.80308296783985 110.7045066248791 152.05
103 96.22487817378899 91.32620098420439 139.7855731828583
104 107.0582735524344 0 139.7855731828522
105 0 91.65142811566695 139.7855731829168
106 166.3333500893928 31.85023983396304 169.896
107 164.7570870126499 63.70139710939218 169.896
108 163.1664891004573 95.55184132430325 169.896
109 161.5002619919689 127.3983922007969 169.896
110 143.7182249338377 155.3651543267423 169.896
111 114.9685710215533 154.3319415909964 169.896
112 86.22523521867099 153.1321357175052 169.896
113 57.4838333821591 151.8866808751944 169.896
114 28.74261714281052 150.6369402561096 169.896
115 134.9350522746009 128.0658650537634 160.7991119583638
116 146.4728830173502 0 160.7991119583662
117 0 128.8712075124652 160.7991119584107
118 207.0997852539164 33.69447603888582 181.658
119 206.5108739430821 67.38964979819181 181.658
120 205.9166502133238 101.0847290722912 181.658
121 205.268207084601 134.7787993201721 181.658
122 204.421802040187 168.4682964094543 181.658
123 183.1767961861561 192.9156455566325 181.658
124 152.6434879304204 192.2862402360352 181.658
125 122.1137245412191 191.4983878384927 181.658
126 91.5851863727892 190.6641240468663 181.658
127 61.05707574776461 189.8143035334071 181.658
128 30.52887130982101 188.9678690035647 181.658
129 175.9581769754184 167.0012718337834 175.7009023102323
130 187.5700087608316 0 175.7009023102314
131 0 168.5324508474177 175.7009023102651
132 240.6498435384807 33.8779648765877 188.71
133 240.4948294876386 67.75619197915972 188.71
134 240.3460982432305 101.6344480600521 188.71
135 240.1659846027489 135.5125477516239 188.71
136 239.89234521108 169.3900011141011 188.71
137 239.2905541965515 203.2626594010218 188.71
138 216.4361776819376 223.2917359691336 188.71
139 185.5151713578915 223.0850166393606 188.71
140 154.5954045811166 222.7302888606554 188.71
141 123.6761646861309 222.3316237375741 188.71
142 92.75716497015692 221.9147161870951 188.71
143 61.8382362272855 221.49258296724 188.71
144 30.91923741004029 221.0756725002561 188.71
145 212.0788510086915 201.2833414618511 185.1582253351546
146 262.6790163340586 32.36226444018045 191.87
147 262.5136162869471 64.7248194295762 191.87
148 262.3618588958483 97.08744382020262 191.87
149 262.1956019231161 129.4499951213978 191.87
150 261.9794426837919 161.8122472276321 191.87
151 261.6421844402427 194.1734250953181 191.87
152 260.8650122181126 226.5258922903434 191.87
153 235.0593752533531 242.4016884564205 191.87
154 201.4798686934204 242.5642853809999 191.87
155 167.8998904225986 242.590629603669 191.87
156 134.3199044346223 242.5762327627681 191.87
157 100.7399301918771 242.5449177393388 191.87
158 67.15995916729227 242.508753539448 191.87
159 33.57998483824598 242.4774267073392 191.87
160 230.0313750000583 0 191.87
161 197.1697500001221 0 191.87
162 164.3081250002192 0 191.87
163 131.4465000003163 0 191.87
164 98.58487500020809 0 191.87
165 65.72325000014428 0 191.87
166 32.86162500008047 0 191.87
167 0 34.63757142850275 191.87
168 0 69.27514285696738 191.87
169 0 103.9127142854459 191.87
170 0 138.5502857140243 191.87
171 0 173.1878571426768 191.87
172 0 207.8254285713245 191.87
173 6.349999999983785 0 0
174 0 6.350000000015788 0
175 270.0710678303063 0 188.9410677934246
176 273 0 158.5366666666398
177 273 0 135.2033333332797
178 273 0 111.8700000000777
179 273 0 88.53666666672034
180 273 0 65.20333333336016
181 270.0710677866103 0 34.79893216287935
182 239.0909090910312 0 31.87
183 215.1818181820624 0 31.87
184 191.2727272730937 0 31.87
185 167.3636363641249 0 31.87
186 143.4545454551561 0 31.87
187 119.5454545460581 0 31.87
188 95.63636363683094 0 31.87
189 71.72727272760378 0 31.87
190 47.81818181837659 0 31.87
191 23.90909090914943 0 31.87
192 0 250.0710678378863 188.9410677858446
193 0 253 158.5366666666398
194 0 253 135.2033333332797
195 0 253 111.8700000000777
196 0 253 88.53666666672034
197 0 253 65.20333333336016
198 0 250.0710677754724 34.7989321517415
199 0 218.7000000001382 31.87
200 0 194.4000000002765 31.87
201 0 170.1000000004147 31.87
202 0 145.8000000005529 31.87
203 0 121.5000000006883 31.87
204 0 97.200000000584 31.87
205 0 72.90000000043801 31.87
206 0 48.600000000292 31.87
207 0 24.30000000014604 31.87
208 23.90909090900988 243 191.87
209 47.81818181800585 243 191.87
210 71.72727272700726 243 191.87
211 95.63636363605434 243 191.87
212 119.5454545451014 243 191.87
213 143.4545454541964 243 191.87
214 167.3636363633727 243 191.87
215 191.2727272725489 243 191.87
216 215.1818181817252 243 191.87
217 239.0909090909014 243 191.87
218 270.0710678303063 243 188.9410677934246
219 273 243 158.5366666666398
220 273 243 135.2033333332797
221 273 243 111.8700000000777
222 273 243 88.53666666672034
223 273 243 65.20333333336016
224 270.0710677866103 243 34.79893216287935
225 239.0909090910312 243 31.87
226 215.1818181820624 243 31.87
227 191.2727272730937 243 31.87
228 167.3636363641249 243 31.87
229 143.4545454551561 243 31.87
230 119.5454545460581 243 31.87
231 95.63636363683094 243 31.87
232 71.72727272760378 243 31.87
233 47.81818181837659 243 31.87
234 23.90909090914943 243 31.87
235 23.90909090900988 253 181.87
236 47.81818181800585 253 181.87
237 71.72727272700726 253 181.87
238 95.63636363605434 253 181.87
239 119.5454545451014 253 181.87
240 143.4545454541964 253 181.87
241 167.3636363633727 253 181.87
242 191.2727272725489 253 181.87
243 215.1818181817252 253 181.87
244 239.0909090909014 253 181.87
245 263 253 158.5366666666398
246 263 253 135.2033333332797
247 263 253 111.8700000000777
248 263 253 88.53666666672034
249 263 253 65.20333333336016
250 239.0909090910312 253 41.87
251 215.1818181820624 253 41.87
252 191.2727272730937 253 41.87
253 167.3636363641249 253 41.87
254 143.4545454551561 253 41.87
255 119.5454545460581 253 41.87
256 95.63636363683094 253 41.87
257 71.72727272760378 253 41.87
258 47.81818181837659 253 41.87
259 23.90909090914943 253 41.87
260 263 250.0710678378863 188.9410677858446
261 270.0710677943634 250.0710678293676 181.87
262 270.0710677943634 250.0710678293676 41.87
263 263 250.071067826345 34.79893220261405
264 263 24.29999999989518 191.87
265 263 48.59999999976115 191.87
266 263 72.89999999961822 191.87
267 263 97.1999999994753 191.87
268 263 121.4999999993352 191.87
269 263 145.7999999994348 191.87
270 263 170.0999999995761 191.87
271 263 194.3999999997174 191.87
272 263 218.6999999998587 191.87
273 273 24.29999999989518 181.87
274 273 48.59999999976115 181.87
275 273 72.89999999961822 181.87
276 273 97.1999999994753 181.87
277 273 121.4999999993352 181.87
278 273 145.7999999994348 181.87
279 273 170.0999999995761 181.87
280 273 194.3999999997174 181.87
281 273 218.6999999998587 181.87
282 273 24.29999999989518 41.87
283 273 48.59999999976115 41.87
284 273 72.89999999961822 41.87
285 273 97.1999999994753 41.87
286 273 121.4999999993352 41.87
287 273 145.7999999994348 41.87
288 273 170.0999999995761 41.87
289 273 194.3999999997174 41.87
290 273 218.6999999998587 41.87
291 263 24.29999999989518 31.87
292 263 48.59999999976115 31.87
293 263 72.89999999961822 31.87
294 263 97.1999999994753 31.87
295 263 121.4999999993352 31.87
296 263 145.7999999994348 31.87
297 263 170.0999999995761 31.87
298 263 194.3999999997174 31.87
299 263 218.6999999998587 31.87
300 10.34719159590195 6.918854309048902 2.419486546692021
301 7.368409757836078 9.974265682383805 2.417315884058811
302 12.09465427215234 4.936267547771928 9.271215172978364
303 7.42410034486992 11.18986655171168 9.18298943319575
304 3.049069504887148 12.47388633435564 9.262727867689557
305 16.44292428338916 4.354404208732411 22.86813870963156
306 14.21196993890802 6.017676503689634 17.94621752515704
307 15.04172432002585 9.392686996974957 22.88078180990242
308 7.374442014008352 15.25298105141302 22.55441670220782
309 9.258160455162137 13.27366983692012 17.45392323849872
310 4.760142475442663 13.99730873045131 17.48345357464267
311 21.96476224107874 5.252843454287525 36.06009905380952
312 19.86929832632893 11.6852602187031 35.02253656471404
313 9.090570779071625 18.70272809771214 32.17684543775704
314 9.98124428674358 21.35485741773311 38.82623226670846
315 17.15466831854054 22.5317683364112 40.96734545804522
316 32.28453240787324 15.01323937905839 59.9749495840436
317 27.63641041143453 18.0897811183681 52.99818169349661
318 29.68947247100779 8.389533440925383 52.70388900889428
319 21.59825302505195 31.40151544883151 59.54304502666795
320 9.988806859399485 30.68740908969855 60.43354649935245
321 43.61956903969931 15.10242625690022 78.31950819837945
322 49.40503170425694 22.51905044818013 88.96230564262599
323 42.17090848991605 28.32085127739204 80.34019916949954
324 33.8424153168386 47.25104101822392 87.21665255080566
325 16.9280048453792 44.6910305091014 85.91600386817014
326 64.44761119753342 37.39252746873987 109.9290506316549
327 70.48524186673404 15.72925721431482 111.831394351059
328 74.40424175074099 45.80265089917198 121.1030246050933
329 76.83104605842395 29.72173732311751 120.7176901585789
330 47.5272509779779 66.02247131873811 112.2047774637004
331 60.46104846457728 73.78617347694933 120.2546385212004
332 24.94931524128488 66.47823764409745 115.3192306132175
333 94.52264631037008 52.98551551746097 136.4497700368865
334 100.2532261560573 33.42441130599778 138.2878612402558
335 108.673493164604 47.63438167535708 144.5554507271708
336 105.1717483602607 13.28690762726155 139.6882071315527
337 98.97834179900212 69.25683493763225 140.3527866815033
338 86.11817039324724 99.4064748843642 140.9965706078698
339 62.36389319859435 97.14370517741283 140.4873716437172
340 40.06439659218051 95.40744656358157 140.3947392388914
341 19.70176623214946 96.83620899563635 142.4700046818496
342 145.7743741109905 20.01713074069939 161.1166246174823
343 144.8413075554255 48.00881969558715 161.5497332917298
344 142.2389257796651 104.2367782965635 162.0770930744207
345 144.6164565260347 75.76770993715115 162.2253939931559
346 125.935132874846 141.9668359296118 163.9769561080819
347 96.02363066367232 134.8126820261097 161.2677741101208
348 42.68793110486743 129.9158401937626 160.2812827852587
349 68.26946571343089 133.0440318315024 161.0961034763001
350 113.87292146395 127.3898321033247 157.4297885600668
351 19.71692173339301 132.8984935962457 162.1533067940562
352 186.3182230675531 17.627861022102 175.505736481695
353 183.8916611398634 116.0389617792816 175.7212749059828
354 182.9228484840441 144.1431106200602 175.7353096055397
355 184.5550388540001 87.77089935759302 175.6474083697806
356 185.8270394478451 41.30472267719247 175.5862287570818
357 46.47155077434382 170.8510169391369 175.9264074418623
358 17.98980194075344 169.6164151971074 175.8476149850724
359 101.7718295895784 172.5806532689591 175.8699524635974
360 73.20589824979376 171.9356974889075 175.9756582410032
361 158.5380842935451 173.4353980160214 175.5808856419662
362 131.6151873886788 173.4271165846089 175.8260224497732
363 221.1051453966728 180.6351331522314 185.0074815989513
364 222.9953974155036 118.0569549831302 185.1839350438624
365 222.5555571700334 151.7764633360468 185.184
366 223.3665786866112 84.16557232960685 185.1843412939774
367 224.0357774878374 21.97047047613371 185.1867006437975
368 223.7004578668615 52.53451649942819 185.1857308634236
369 199.7525959290998 208.1147651103193 185.184
370 173.0631871467474 207.8358131558367 185.1971839870257
371 78.27457341309372 205.965140618438 185.1840000000001
372 50.54519079419649 205.4528383647106 185.1947965062351
373 14.04999211372727 204.6798905740524 185.1839999999999
374 140.9141202261249 121.192987212484 191.87
375 76.28231269017857 78.78032924249948 191.87
376 77.92385103412242 164.5983813476926 191.87
377 186.0743469716392 68.02711343173831 191.87
378 191.2588998965579 171.8675023895149 191.87
379 224.8624289678551 205.3410746507585 191.87
380 133.485970625914 58.12579618413152 191.87
381 130.9898047223214 184.2808675552347 191.87
382 208.6776625740557 122.2961282883375 191.87
383 49.45898263235425 121.1497229251127 191.87
384 95.18762980183416 118.8918141354852 191.87
385 44.85472621761654 44.28534125206298 191.87
386 44.80703834524841 198.0011324754313 191.87
387 220.4555070097545 38.54163719084676 191.87
388 97.74402515246194 40.62452275436688 191.87
389 98.08895771500417 202.3400924593468 191.87
390 166.7708975608722 40.39851246827806 191.87
391 185.2143157395006 207.7438729546532 191.87
392 38.28532653397621 83.24894583721394 191.87
393 225.1747230760727 167.3271864347313 191.87
394 39.39408117313213 159.2212218086839 191.87
395 236.3794564700322 81.48305349163448 191.87
396 178.0526578829273 104.2767890013002 191.87
397 156.3506182540289 154.2779548820684 191.87
398 116.5479130539479 149.907679544314 191.87
399 243.3367273038027 213.989758274908 191.87
400 119.4514497031602 92.21165393291517 191.87
401 153.3070282796249 211.45246944821 191.87
402 160.9394975982017 75.15791438072401 191.87
403 233.5831737400373 139.854940260377 191.87
404 185.6075777180795 141.4325905691458 191.87
405 122.175093375585 23.98750600924231 191.87
406 225.845344884611 225.0037458524759 191.87
407 234.6772034802192 110.8122546753225 191.87
408 123.48912506869 216.6389159929797 191.87
409 195.0330932194747 29.95934056088669 191.87
410 70.27877091193579 27.61887145935133 191.87
411 163.835030358779 184.7424777688493 191.87
412 66.05803909118532 216.2436595941243 191.87
413 102.0954835754261 68.76334516923762 191.87
414 74.10872824309254 136.748128282656 191.87
415 103.6364103838133 174.6798064132374 191.87
416 209.5219333608168 91.64720114851997 191.87
417 71.40701970037365 105.0926007039624 191.87
418 22.66838199898016 121.2276157104704 191.87
419 25.36657232283251 25.79638897213308 191.87
420 208.8604074009606 148.5556695884213 191.87
421 27.35472140227037 216.25288170087 191.87
422 148.0582915419537 22.05017232819869 191.87
423 211.231937187128 189.7075880310828 191.87
424 238.808174578397 24.07964657783875 191.87
425 23.94823439858212 58.46146517975234 191.87
426 20.36733060301679 190.6084393695987 191.87
427 145.6064854172179 96.35895233189393 191.87
428 238.946798293347 52.96832107314883 191.87
429 164.8729641145043 127.7528871319019 191.87
430 238.5331113014379 188.6015083428227 191.87
431 68.77110075845792 54.70339585681621 191.87
432 208.5778425303669 215.0510883639487 191.87
433 92.88477909419453 92.74794863681996 191.87
434 68.80576626661482 187.8527444384532 191.87
435 47.81698889052192 19.54012033670948 191.87
436 215.9821365654403 18.62386960119146 191.87
437 118.0252781962668 120.5510337062996 191.87
438 213.2702727860271 62.9878680027869 191.87
439 5.239002246094157 5.199563973683455 0
440 269.2396121469623 13.32488827410371 189.684553106575
441 269.2397221140898 229.674939809148 189.684465300898
442 273 84.48440992969181 111.87
443 273 157.9499999995055 111.8699999999999
444 273 44.05018478842828 138.0477580437571
445 273 198.9498152112073 138.0477580437036
446 273 44.0501847884283 85.6922419562427
447 273 198.9498152112073 85.69224195629621
448 273 121.4999999995261 137.3799821428678
449 273 121.4999999995261 86.36001785713206
450 273 85.04999999954674 147.924446428559
451 273 85.04999999954674 75.81555357144093
452 273 157.9499999995054 147.9244464285836
453 273 158.0994430329398 76.65006141322141
454 273 31.77839482602133 111.8700000000129
455 273 211.2216051737228 111.8700000000129
456 273 216.2636200350529 155.2456494118319
457 273 216.2636200350529 68.49435058816792
458 273 26.73637996475943 155.2456494118966
459 273 26.73637996475946 68.4943505881032
460 273 56.88481594529804 111.8700000000021
461 273 186.0209190425553 111.8700000000021
462 273 112.2017378449384 111.87
463 273 62.2444978896376 158.6006234529927
464 273 62.24449788963762 65.13937654700719
465 273 180.7555021097403 158.6006234528978
466 273 180.766394459116 65.20020073382251
467 273 106.4551427721123 157.9723110464622
468 273 106.4551427721124 65.76768895353767
469 273 135.713997166505 158.2789372795637
470 273 136.1008071781511 65.15253323054583
471 273 136.1736860567215 105.8969293903958
472 273 143.4148367023261 129.8972232142917
473 273 69.4155713377082 132.4595248714579
474 273 69.41557133770823 91.28047512854218
475 273 174.5271393298446 132.2028301488229
476 273 174.5271393298446 91.53716985117703
477 273 21.10904748764035 133.1231330158556
478 273 21.10904748764038 90.61686698415519
479 273 221.890952512359 133.1231330157943
480 273 221.890952512359 90.6168669842166
481 273 98.9843488247847 92.28784198388333
482 273 98.98434882478479 131.4521580161167
483 273 141.4010644442041 86.88158873294591
484 273 85.04999999954674 167.0716243429513
485 273 85.04999999954674 56.66837565704861
486 273 157.9499999995054 167.071624343016
487 273 158.0313880951097 57.20780110105606
488 273 200.054695049726 164.1512538041807
489 273 200.054695049726 59.58874619581918
490 273 42.94530494988003 164.1512538043561
491 273 42.94530494988003 59.58874619564374
492 273 229.3133646239088 166.1364800863334
493 273 13.68663537596151 166.1364800863762
494 273 229.3133646239088 57.6035199136665
495 273 13.68663537596153 57.60351991362364
496 273 154.6614196913688 94.50984376400949
497 273 12.06816405553251 146.8699999999597
498 273 230.931835944434 146.8699999999597
499 273 12.0681640555326 76.87000000004021
500 273 230.931835944434 76.87000000004022
501 273 128.322565150878 121.2610336868888
502 271.2959008718888 13.3472311907233 36.28627107357512
503 271.2462947691533 229.638798303788 36.21326749967493
504 131.5000000006071 121.5 31.87
505 74.10582827778974 167.2693602667785 31.87
506 188.8941717226502 75.73063973284543 31.87
507 73.45183529152746 73.06876492755097 31.87
508 189.5481647089111 169.9312350727761 31.87
509 127.972503694292 60.08135275758926 31.87
510 135.0274963065625 182.9186472424086 31.87
511 210.8194890249016 121.5000000000047 31.87
512 52.18051097495739 121.499999999995 31.87
513 43.64995939134849 199.7520089922336 31.87
514 219.3500406089169 43.2479910075866 31.87
515 43.64995939129366 43.24799100777027 31.87
516 219.3500406089681 199.7520089924103 31.87
517 91.8402554877816 131.7847593491884 31.87
518 171.159744512755 111.2152406499888 31.87
519 94.96883846445112 203.2325134828307 31.87
520 93.1310229572974 41.61100531815672 31.87
521 168.0311615362703 39.76748651691242 31.87
522 169.8689770435514 201.3889946820276 31.87
523 36.67249080346517 158.5056267410211 31.87
524 37.02944550053045 86.37901997483957 31.87
525 226.3275091967638 84.49437325895522 31.87
526 225.9705544995088 156.6209800250318 31.87
527 108.1832282093688 93.41892385039388 31.87
528 154.8167717914828 149.5810761495 31.87
529 118.5403563267719 153.1351250154212 31.87
530 144.4596436735443 89.86487498458317 31.87
531 186.4778054931321 137.5193798175045 31.87
532 76.52219450659796 105.480620182546 31.87
533 131.5000000005185 21.34969004616135 31.87
534 131.5000000005163 221.6503099538409 31.87
535 69.46687828012395 213.8411797829154 31.87
536 193.5331217204266 29.15882021689614 31.87
537 69.31060145126753 29.31558201990051 31.87
538 193.6893985492952 213.684417980284 31.87
539 162.234036317175 67.09384187542292 31.87
540 100.7659636831254 175.9061581243351 31.87
541 237.2564843129099 132.6474400530018 31.87
542 25.74351568703435 110.3525599468072 31.87
543 195.2366307298452 99.98042734447358 31.87
544 67.76336927078987 143.019572655018 31.87
545 238.7125593271426 62.54055744059633 31.87
546 24.28744067284826 180.4594425594937 31.87
547 238.6992852936124 180.3893584160639 31.87
548 24.30071470635743 62.61064158384129 31.87
549 155.792835957401 176.1560732989219 31.87
550 107.2071640433869 66.84392670121217 31.87
551 25.40259077593789 217.6182906115645 31.87
552 237.5974092241914 25.3817093882958 31.87
553 25.40259077593934 25.3817093884243 31.87
554 237.5974092241905 217.6182906117143 31.87
555 25.60919323375456 136.6383996912145 31.87
556 237.3908067663122 106.3616003088043 31.87
557 152.1839081773809 127.0245412234739 31.87
558 110.8160918235021 115.9754587761988 31.87
559 211.2991371855219 66.97800831589717 31.87
560 51.7008628147946 176.0219916839033 31.87
561 210.8509212402228 175.0365165468968 31.87
562 52.14907875998554 67.96348345316736 31.87
563 108.7217015113305 222.0953178083514 31.87
564 109.0846582682594 20.99032356698727 31.87
565 154.2782984895968 20.90468219154127 31.87
566 153.9153417326691 222.0096764331363 31.87
567 189.1743659328345 52.42545446128299 31.87
568 73.82563406769188 190.5745455384477 31.87
569 193.0009611959829 189.9197895569801 31.87
570 69.9990388045544 53.08021044326192 31.87
571 93.94126299921071 151.8301230361359 31.87
572 169.058737001338 91.1698769634467 31.87
573 202.309414698196 150.7066611216058 31.87
574 60.69058530190656 92.29333887850629 31.87
575 215.1050792589581 21.94476560569318 31.87
576 47.89492074147099 221.0552343941864 31.87
577 215.1050792589885 221.0552343942976 31.87
578 47.89492074144147 21.94476560582399 31.87
579 88.10421092406806 225.0338022148195 31.87
580 87.77798380825182 18.3833821810089 31.87
581 174.8957890767025 17.96619778506997 31.87
582 175.2220161925468 224.6166178190896 31.87
583 119.5062978788745 196.7203727889809 31.87
584 119.2089807998628 42.32250749361073 31.87
585 143.8604902125023 46.17445019982658 31.87
586 145.5968578657329 200.0139304102651 31.87
587 135.0668093909912 141.5818074166047 31.87
588 127.9331906097719 101.4181925833731 31.87
589 136.407636520654 162.4451897675845 31.87
590 126.5923634800275 80.55481023244995 31.87
591 16.76616707653631 158.0412884735303 31.87
592 246.2338329235029 84.95871152649987 31.87
593 17.41473517878445 85.88844430130202 31.87
594 245.5852648212062 157.1115556986217 31.87
595 89.25377192143858 87.90396135047754 31.87
596 173.7462280790908 155.0960386500891 31.87
597 148.355448638758 109.0682889228753 31.87
598 114.6445513623403 133.93171107699 31.87
599 189.4349096663923 118.9635075481736 31.87
600 73.56509033427884 124.036492451772 31.87
601 47.689840317603 143.5891331262578 31.87
602 215.3101596826249 99.41086687355777 31.87
603 44.07570618269558 103.1828831992684 31.87
604 218.9242938172549 139.8171168006586 31.87
605 244.2211056783486 43.64021408042669 31.87
606 18.77889432156336 199.3597859196046 31.87
607 244.2211056785623 199.3597859197039 31.87
608 18.77889432133534 43.64021408025803 31.87
609 55.89855617843602 157.9754697841198 31.87
610 207.1014438219239 85.02453021554837 31.87
611 121.2358356310596 173.388901700576 31.87
612 141.8165626681633 69.59607301213831 31.87
613 87.68469110849352 63.72164359159207 31.87
614 175.3153088923099 179.2783564088389 31.87
615 249.8100548211788 13.36552610357767 31.87
616 13.18994517896184 229.6344738963786 31.87
617 13.18994517883482 13.36552610362428 31.87
618 249.8100548212893 229.6344738964202 31.87
619 91.6967720471613 109.7667026600961 31.87
620 171.3032279533723 133.2332973397883 31.87
621 249.8725084683981 248.7416835717497 190.0573725798878
622 13.12749188960019 248.7416835824378 190.0573725723924
623 271.0889014249285 248.8795980932194 54.56729745985563
624 271.0889014206618 248.8795980990893 169.1727025391431
625 13.12749189068134 251.1873725162065 36.12831633744369
626 249.8725081997548 248.7416835828012 33.68262742786247
627 182.0290085876794 253 111.6209106043103
628 82.24262235885401 253 111.734069298659
629 132.2670225200332 253 129.8079179337036
630 45.62932021651121 253 136.4481131690242
631 217.3070510075374 253 87.21225620649727
632 217.3706797835237 253 136.4481131690592
633 45.69294899259646 253 87.2122562065872
634 131.5000000005218 253 83.90227206636197
635 97.50623006632748 253 147.2306134877975
636 169.027484445562 253 146.0520880531961
637 94.72151145252212 253 77.05045370710377
638 168.2784885483834 253 77.05045370693435
639 233.6200024241997 253 111.870000000004
640 29.37999757579243 253 111.8699999999957
641 110.1733991317701 253 110.9420456915128
642 149.3998683939162 253 109.0022922459682
643 71.2041712941809 253 151.222526765491
644 193.4087178589191 253 152.7990880363183
645 69.40682119008409 253 70.53743860069758
646 193.5931788104198 253 70.53743860055786
647 206.3480221033313 253 111.8699999999901
648 56.65197789681318 253 111.8700000000108
649 26.5062627171385 253 155.2925477227151
650 236.4937372828869 253 68.44745227725443
651 236.4937372828823 253 155.2925477227264
652 26.50626271714361 253 68.44745227730574
653 131.7546772862469 253 158.4102278600316
654 143.2725925041939 253 67.19672250139199
655 118.8406732608298 253 66.99292956826342
656 189.2604893632534 253 92.51481200649198
657 72.87014881715066 253 92.75048017649735
658 21.11684625466814 253 133.1081264127193
659 241.8831537453345 253 133.1081264127269
660 241.8792890237543 253 90.62703693613346
661 21.12071097624042 253 90.62703693615384
662 189.7760661628306 253 130.4629723992035
663 68.85432171005932 253 128.1747686400235
664 48.36986766707176 253 159.5940906816708
665 214.63013233301 253 159.5940906817155
666 47.81821953593691 253 63.70355388785975
667 215.1817804644173 253 63.70355388759111
668 155.5373613299449 253 162.6065882112522
669 110.028749667445 253 162.6542232307019
670 109.7583637973261 253 131.7603143322046
671 162.5749842368053 253 124.2472459136347
672 175.4229299908409 253 164.4893915543667
673 88.67888638936662 253 164.4393342947808
674 86.61444087774512 253 58.87068825065454
675 176.3855591230136 253 58.87068825055619
676 149.2587872663634 253 89.63592367688754
677 112.2434681395535 253 89.21333419989767
678 150.2323059637185 253 144.2248135943637
679 130.807090908693 253 102.0839643023886
680 94.99281287911698 253 96.79781292120856
681 166.8002710660668 253 100.6786063590378
682 89.26443580221061 253 129.894162403505
683 117.1466870608397 253 145.9823990513187
684 131.2783164415595 253 54.48241301741386
685 13.49963170560796 253 166.1869311106619
686 249.5003682944113 253 57.55306888933085
687 249.5003682943903 253 166.186931110685
688 13.49963170563049 253 57.55306888932124
689 12.02376527130123 253 146.8699999999597
690 250.9762347287065 253 146.8699999999597
691 250.976234728703 253 76.87000000004024
692 12.02376527129741 253 76.87000000004025
693 159.7509643989744 253 57.37157289177651
694 103.0716887547972 253 57.33081430520434
$EndNodes
$Elements
1300
1 2 2 1 1 1 4 59
2 2 2 1 1 5 300 59
3 2 2 1 1 59 57 1
4 2 2 1 1 57 300 2
5 2 2 1 1 300 5 2
6 2 2 1 1 300 57 59
7 2 2 1 2 2 301 58
8 2 2 1 2 6 3 58
9 2 2 1 2 60 301 5
10 2 2 1 2 6 58 60
11 2 2 1 2 301 2 5
12 2 2 1 2 301 60 58
13 2 2 1 3 61 8 302
14 2 2 1 3 8 5 302
15 2 2 1 3 59 4 302
16 2 2 1 3 4 7 302
17 2 2 1 3 59 302 5
18 2 2 1 3 61 302 7
19 2 2 1 4 8 62 303
20 2 2 1 4 8 303 5
21 2 2 1 4 60 303 304
22 2 2 1 4 303 62 304
23 2 2 1 4 9 304 62
24 2 2 1 4 60 304 6
25 2 2 1 4 303 60 5
26 2 2 1 4 304 9 6
27 2 2 1 5 305 307 306
28 2 2 1 5 306 307 65
29 2 2 1 5 66 10 305
30 2 2 1 5 305 10 63
31 2 2 1 5 65 8 306
32 2 2 1 5 306 8 61
33 2 2 1 5 306 66 305
34 2 2 1 5 66 306 7
35 2 2 1 5 11 307 63
36 2 2 1 5 306 61 7
37 2 2 1 5 307 305 63
38 2 2 1 5 307 11 65
39 2 2 1 6 308 309 65
40 2 2 1 6 308 310 309
41 2 2 1 6 62 309 310
42 2 2 1 6 308 64 12
43 2 2 1 6 67 9 310
44 2 2 1 6 310 9 62
45 2 2 1 6 67 308 12
46 2 2 1 6 67 310 308
47 2 2 1 6 11 308 65
48 2 2 1 6 308 11 64
49 2 2 1 6 65 309 8
50 2 2 1 6 309 62 8
51 2 2 1 7 71 311 10
52 2 2 1 7 68 14 70
53 2 2 1 7 312 63 311
54 2 2 1 7 311 63 10
55 2 2 1 7 312 311 68
56 2 2 1 7 71 13 311
57 2 2 1 7 311 13 68
58 2 2 1 7 70 312 68
59 2 2 1 7 312 11 63
60 2 2 1 7 312 70 11
61 2 2 1 8 313 70 314
62 2 2 1 8 69 314 315
63 2 2 1 8 315 314 70
64 2 2 1 8 72 314 15
65 2 2 1 8 314 69 15
66 2 2 1 8 70 313 11
67 2 2 1 8 313 64 11
68 2 2 1 8 313 12 64
69 2 2 1 8 315 14 69
70 2 2 1 8 72 12 313
71 2 2 1 8 72 313 314
72 2 2 1 8 14 315 70
73 2 2 1 9 316 77 317
74 2 2 1 9 78 16 73
75 2 2 1 9 74 17 77
76 2 2 1 9 317 14 68
77 2 2 1 9 77 316 74
78 2 2 1 9 317 318 316
79 2 2 1 9 318 78 316
80 2 2 1 9 317 68 318
81 2 2 1 9 316 78 73
82 2 2 1 9 77 14 317
83 2 2 1 9 74 316 73
84 2 2 1 9 78 318 13
85 2 2 1 9 318 68 13
86 2 2 1 10 14 77 319
87 2 2 1 10 14 319 69
88 2 2 1 10 79 320 18
89 2 2 1 10 79 15 69
90 2 2 1 10 320 76 18
91 2 2 1 10 69 319 320
92 2 2 1 10 76 319 75
93 2 2 1 10 319 76 320
94 2 2 1 10 17 319 77
95 2 2 1 10 319 17 75
96 2 2 1 10 320 79 69
97 2 2 1 11 321 16 85
98 2 2 1 11 85 19 80
99 2 2 1 11 81 20 84
100 2 2 1 11 322 321 85
101 2 2 1 11 73 16 321
102 2 2 1 11 74 321 323
103 2 2 1 11 321 74 73
104 2 2 1 11 322 84 323
105 2 2 1 11 84 322 81
106 2 2 1 11 323 321 322
107 2 2 1 11 323 17 74
108 2 2 1 11 322 85 80
109 2 2 1 11 81 322 80
110 2 2 1 11 17 323 84
111 2 2 1 12 17 84 324
112 2 2 1 12 17 324 75
113 2 2 1 12 325 21 86
114 2 2 1 12 86 18 76
115 2 2 1 12 83 21 325
116 2 2 1 12 83 325 324
117 2 2 1 12 83 324 82
118 2 2 1 12 325 86 76
119 2 2 1 12 324 325 75
120 2 2 1 12 75 325 76
121 2 2 1 12 20 324 84
122 2 2 1 12 324 20 82
123 2 2 1 13 20 326 93
124 2 2 1 13 326 20 81
125 2 2 1 13 94 22 87
126 2 2 1 13 89 23 93
127 2 2 1 13 94 327 19
128 2 2 1 13 80 327 326
129 2 2 1 13 327 80 19
130 2 2 1 13 328 326 329
131 2 2 1 13 88 89 328
132 2 2 1 13 326 81 80
133 2 2 1 13 328 329 88
134 2 2 1 13 327 94 87
135 2 2 1 13 87 329 327
136 2 2 1 13 93 326 328
137 2 2 1 13 93 328 89
138 2 2 1 13 329 87 88
139 2 2 1 13 329 326 327
140 2 2 1 14 330 20 93
141 2 2 1 14 331 91 330
142 2 2 1 14 24 95 332
143 2 2 1 14 92 24 332
144 2 2 1 14 332 95 83
145 2 2 1 14 95 21 83
146 2 2 1 14 330 93 331
147 2 2 1 14 82 332 83
148 2 2 1 14 91 332 330
149 2 2 1 14 92 332 91
150 2 2 1 14 330 332 82
151 2 2 1 14 20 330 82
152 2 2 1 14 23 331 93
153 2 2 1 14 331 23 90
154 2 2 1 14 331 90 91
155 2 2 1 15 333 88 334
156 2 2 1 15 335 334 96
157 2 2 1 15 26 103 98
158 2 2 1 15 335 96 97
159 2 2 1 15 334 336 96
160 2 2 1 15 334 88 87
161 2 2 1 15 337 333 335
162 2 2 1 15 333 337 89
163 2 2 1 15 333 89 88
164 2 2 1 15 97 337 335
165 2 2 1 15 335 333 334
166 2 2 1 15 98 337 97
167 2 2 1 15 103 337 98
168 2 2 1 15 104 25 336
169 2 2 1 15 87 336 334
170 2 2 1 15 23 337 103
171 2 2 1 15 336 25 96
172 2 2 1 15 337 23 89
173 2 2 1 15 104 336 22
174 2 2 1 15 336 87 22
175 2 2 1 16 338 100 339
176 2 2 1 16 339 100 101
177 2 2 1 16 23 103 338
178 2 2 1 16 105 24 92
179 2 2 1 16 23 338 90
180 2 2 1 16 340 91 339
181 2 2 1 16 339 91 90
182 2 2 1 16 102 340 101
183 2 2 1 16 340 341 92
184 2 2 1 16 341 340 102
185 2 2 1 16 338 339 90
186 2 2 1 16 105 341 27
187 2 2 1 16 341 102 27
188 2 2 1 16 101 340 339
189 2 2 1 16 26 338 103
190 2 2 1 16 338 26 99
191 2 2 1 16 92 341 105
192 2 2 1 16 340 92 91
193 2 2 1 16 338 99 100
194 2 2 1 17 342 106 343
195 2 2 1 17 343 106 107
196 2 2 1 17 109 29 115
197 2 2 1 17 26 344 115
198 2 2 1 17 26 98 344
199 2 2 1 17 345 344 98
200 2 2 1 17 28 342 116
201 2 2 1 17 116 342 25
202 2 2 1 17 342 96 25
203 2 2 1 17 28 106 342
204 2 2 1 17 97 345 98
205 2 2 1 17 108 345 107
206 2 2 1 17 345 108 344
207 2 2 1 17 115 344 109
208 2 2 1 17 108 109 344
209 2 2 1 17 97 96 343
210 2 2 1 17 345 343 107
211 2 2 1 17 97 343 345
212 2 2 1 17 343 96 342
213 2 2 1 18 346 111 347
214 2 2 1 18 347 111 112
215 2 2 1 18 348 101 349
216 2 2 1 18 348 349 113
217 2 2 1 18 114 348 113
218 2 2 1 18 348 102 101
219 2 2 1 18 349 101 100
220 2 2 1 18 100 347 349
221 2 2 1 18 346 347 350
222 2 2 1 18 350 115 346
223 2 2 1 18 29 346 115
224 2 2 1 18 346 29 110
225 2 2 1 18 27 102 117
226 2 2 1 18 111 346 110
227 2 2 1 18 348 351 102
228 2 2 1 18 351 117 102
229 2 2 1 18 99 347 100
230 2 2 1 18 99 350 347
231 2 2 1 18 26 115 350
232 2 2 1 18 351 348 114
233 2 2 1 18 117 351 30
234 2 2 1 18 351 114 30
235 2 2 1 18 26 350 99
236 2 2 1 18 112 349 347
237 2 2 1 18 349 112 113
238 2 2 1 19 352 130 31
239 2 2 1 19 129 122 32
240 2 2 1 19 118 352 31
241 2 2 1 19 121 353 120
242 2 2 1 19 121 354 353
243 2 2 1 19 355 120 353
244 2 2 1 19 355 108 107
245 2 2 1 19 107 119 355
246 2 2 1 19 120 355 119
247 2 2 1 19 29 109 354
248 2 2 1 19 29 354 129
249 2 2 1 19 356 352 118
250 2 2 1 19 107 356 119
251 2 2 1 19 356 118 119
252 2 2 1 19 355 353 108
253 2 2 1 19 353 109 108
254 2 2 1 19 109 353 354
255 2 2 1 19 130 352 28
256 2 2 1 19 352 106 28
257 2 2 1 19 106 356 107
258 2 2 1 19 106 352 356
259 2 2 1 19 121 122 354
260 2 2 1 19 129 354 122
261 2 2 1 20 129 32 123
262 2 2 1 20 357 128 358
263 2 2 1 20 358 128 33
264 2 2 1 20 359 126 360
265 2 2 1 20 360 113 112
266 2 2 1 20 361 29 129
267 2 2 1 20 131 30 358
268 2 2 1 20 358 30 114
269 2 2 1 20 358 33 131
270 2 2 1 20 362 359 111
271 2 2 1 20 359 360 112
272 2 2 1 20 111 359 112
273 2 2 1 20 360 126 127
274 2 2 1 20 360 357 113
275 2 2 1 20 360 127 357
276 2 2 1 20 128 357 127
277 2 2 1 20 357 114 113
278 2 2 1 20 125 362 124
279 2 2 1 20 361 129 123
280 2 2 1 20 359 362 125
281 2 2 1 20 362 110 361
282 2 2 1 20 362 361 124
283 2 2 1 20 361 110 29
284 2 2 1 20 110 362 111
285 2 2 1 20 124 361 123
286 2 2 1 20 359 125 126
287 2 2 1 20 357 358 114
288 2 2 1 21 145 32 363
289 2 2 1 21 363 32 122
290 2 2 1 21 135 365 364
291 2 2 1 21 364 365 121
292 2 2 1 21 134 364 366
293 2 2 1 21 366 364 120
294 2 2 1 21 136 363 365
295 2 2 1 21 365 363 122
296 2 2 1 21 132 368 367
297 2 2 1 21 367 368 118
298 2 2 1 21 133 366 368
299 2 2 1 21 368 366 119
300 2 2 1 21 31 367 118
301 2 2 1 21 35 145 137
302 2 2 1 21 132 367 34
303 2 2 1 21 363 137 145
304 2 2 1 21 137 363 136
305 2 2 1 21 367 31 34
306 2 2 1 21 121 365 122
307 2 2 1 21 136 365 135
308 2 2 1 21 118 368 119
309 2 2 1 21 133 368 132
310 2 2 1 21 120 364 121
311 2 2 1 21 135 364 134
312 2 2 1 21 134 366 133
313 2 2 1 21 119 366 120
314 2 2 1 22 32 145 369
315 2 2 1 22 32 369 123
316 2 2 1 22 139 370 369
317 2 2 1 22 369 370 123
318 2 2 1 22 143 372 371
319 2 2 1 22 138 145 35
320 2 2 1 22 371 372 127
321 2 2 1 22 371 126 142
322 2 2 1 22 143 371 142
323 2 2 1 22 126 371 127
324 2 2 1 22 33 373 36
325 2 2 1 22 144 373 128
326 2 2 1 22 373 144 36
327 2 2 1 22 373 33 128
328 2 2 1 22 372 144 128
329 2 2 1 22 144 372 143
330 2 2 1 22 127 372 128
331 2 2 1 22 138 369 145
332 2 2 1 22 369 138 139
333 2 2 1 22 370 124 123
334 2 2 1 22 124 141 125
335 2 2 1 22 140 141 124
336 2 2 1 22 125 142 126
337 2 2 1 22 125 141 142
338 2 2 1 22 124 370 140
339 2 2 1 22 370 139 140
340 2 2 1 23 133 132 147
341 2 2 1 23 38 35 152
342 2 2 1 23 151 152 137
343 2 2 1 23 150 151 136
344 2 2 1 23 146 132 34
345 2 2 1 23 150 136 135
346 2 2 1 23 136 151 137
347 2 2 1 23 134 149 135
348 2 2 1 23 149 150 135
349 2 2 1 23 148 149 134
350 2 2 1 23 152 35 137
351 2 2 1 23 146 34 37
352 2 2 1 23 133 148 134
353 2 2 1 23 147 148 133
354 2 2 1 23 147 132 146
355 2 2 1 24 158 142 157
356 2 2 1 24 159 39 144
357 2 2 1 24 35 38 153
358 2 2 1 24 144 39 36
359 2 2 1 24 157 141 156
360 2 2 1 24 143 142 158
361 2 2 1 24 156 141 140
362 2 2 1 24 159 144 143
363 2 2 1 24 156 140 155
364 2 2 1 24 139 154 155
365 2 2 1 24 153 154 138
366 2 2 1 24 157 142 141
367 2 2 1 24 138 35 153
368 2 2 1 24 138 154 139
369 2 2 1 24 140 139 155
370 2 2 1 24 159 143 158
371 2 2 4 25 159 412 421
372 2 2 4 25 152 151 399
373 2 2 4 25 159 158 412
374 2 2 4 25 376 398 414
375 2 2 4 25 154 153 406
376 2 2 4 25 153 38 406
377 2 2 4 25 397 374 398
378 2 2 4 25 412 386 421
379 2 2 4 25 381 397 398
380 2 2 4 25 398 384 414
381 2 2 4 25 168 169 392
382 2 2 4 25 170 171 394
383 2 2 4 25 162 390 409
384 2 2 4 25 390 377 409
385 2 2 4 25 157 389 412
386 2 2 4 25 164 388 405
387 2 2 4 25 388 164 410
388 2 2 4 25 392 169 418
389 2 2 4 25 170 394 418
390 2 2 4 25 409 377 438
391 2 2 4 25 377 390 402
392 2 2 4 25 390 380 402
393 2 2 4 25 148 147 395
394 2 2 4 25 380 390 422
395 2 2 4 25 161 162 409
396 2 2 4 25 38 399 406
397 2 2 4 25 38 152 399
398 2 2 4 25 394 376 414
399 2 2 4 25 155 154 391
400 2 2 4 25 398 376 415
401 2 2 4 25 383 394 414
402 2 2 4 25 158 157 412
403 2 2 4 25 392 375 431
404 2 2 4 25 385 392 431
405 2 2 4 25 383 392 418
406 2 2 4 25 389 157 408
407 2 2 4 25 376 394 434
408 2 2 4 25 394 386 434
409 2 2 4 25 155 391 401
410 2 2 4 25 394 383 418
411 2 2 4 25 382 396 404
412 2 2 4 25 164 165 410
413 2 2 4 25 375 392 417
414 2 2 4 25 405 380 422
415 2 2 4 25 163 164 405
416 2 2 4 25 388 380 405
417 2 2 4 25 392 383 417
418 2 2 4 25 381 389 408
419 2 2 4 25 380 388 413
420 2 2 4 25 393 150 403
421 2 2 4 25 389 381 415
422 2 2 4 25 390 162 422
423 2 2 4 25 168 392 425
424 2 2 4 25 156 155 401
425 2 2 4 25 394 171 426
426 2 2 4 25 396 377 402
427 2 2 4 25 380 400 427
428 2 2 4 25 148 395 407
429 2 2 4 25 386 394 426
430 2 2 4 25 413 388 431
431 2 2 4 25 395 147 428
432 2 2 4 25 150 149 403
433 2 2 4 25 387 409 438
434 2 2 4 25 375 413 431
435 2 2 4 25 391 378 411
436 2 2 4 25 392 385 425
437 2 2 4 25 397 378 404
438 2 2 4 25 402 380 427
439 2 2 4 25 150 393 430
440 2 2 4 25 398 374 437
441 2 2 4 25 396 382 416
442 2 2 4 25 377 396 416
443 2 2 4 25 391 154 432
444 2 2 4 25 384 398 437
445 2 2 4 25 146 424 428
446 2 2 4 25 157 156 408
447 2 2 4 25 389 415 434
448 2 2 4 25 404 396 429
449 2 2 4 25 397 381 411
450 2 2 4 25 378 397 411
451 2 2 4 25 396 427 429
452 2 2 4 25 378 391 423
453 2 2 4 25 427 374 429
454 2 2 4 25 381 398 415
455 2 2 4 25 401 391 411
456 2 2 4 25 415 376 434
457 2 2 4 25 156 401 408
458 2 2 4 25 166 40 419
459 2 2 4 25 40 167 419
460 2 2 4 25 393 378 423
461 2 2 4 25 374 397 429
462 2 2 4 25 147 146 428
463 2 2 4 25 407 395 416
464 2 2 4 25 419 167 425
465 2 2 4 25 39 159 421
466 2 2 4 25 172 39 421
467 2 2 4 25 400 380 413
468 2 2 4 25 374 400 437
469 2 2 4 25 151 150 430
470 2 2 4 25 400 384 437
471 2 2 4 25 401 381 408
472 2 2 4 25 149 148 407
473 2 2 4 25 382 407 416
474 2 2 4 25 378 393 420
475 2 2 4 25 167 168 425
476 2 2 4 25 381 401 411
477 2 2 4 25 37 160 424
478 2 2 4 25 146 37 424
479 2 2 4 25 400 374 427
480 2 2 4 25 403 149 407
481 2 2 4 25 154 406 432
482 2 2 4 25 399 151 430
483 2 2 4 25 384 400 433
484 2 2 4 25 424 387 428
485 2 2 4 25 379 399 430
486 2 2 4 25 379 423 432
487 2 2 4 25 396 402 427
488 2 2 4 25 423 391 432
489 2 2 4 25 382 403 407
490 2 2 4 25 385 419 425
491 2 2 4 25 423 379 430
492 2 2 4 25 414 384 417
493 2 2 4 25 162 163 422
494 2 2 4 25 383 414 417
495 2 2 4 25 169 170 418
496 2 2 4 25 416 395 438
497 2 2 4 25 377 416 438
498 2 2 4 25 171 172 426
499 2 2 4 25 382 404 420
500 2 2 4 25 388 410 431
501 2 2 4 25 160 161 436
502 2 2 4 25 403 382 420
503 2 2 4 25 404 378 420
504 2 2 4 25 165 166 435
505 2 2 4 25 412 389 434
506 2 2 4 25 163 405 422
507 2 2 4 25 397 404 429
508 2 2 4 25 393 403 420
509 2 2 4 25 399 379 406
510 2 2 4 25 393 423 430
511 2 2 4 25 161 409 436
512 2 2 4 25 400 413 433
513 2 2 4 25 413 375 433
514 2 2 4 25 410 165 435
515 2 2 4 25 385 410 435
516 2 2 4 25 410 385 431
517 2 2 4 25 409 387 436
518 2 2 4 25 386 412 434
519 2 2 4 25 421 386 426
520 2 2 4 25 172 421 426
521 2 2 4 25 375 417 433
522 2 2 4 25 417 384 433
523 2 2 4 25 406 379 432
524 2 2 4 25 419 385 435
525 2 2 4 25 166 419 435
526 2 2 4 25 395 428 438
527 2 2 4 25 428 387 438
528 2 2 4 25 387 424 436
529 2 2 4 25 424 160 436
530 2 2 2 26 57 173 1
531 2 2 2 26 58 3 174
532 2 2 2 26 173 57 439
533 2 2 2 26 57 2 439
534 2 2 2 26 41 173 439
535 2 2 2 26 174 41 439
536 2 2 2 26 58 174 439
537 2 2 2 26 2 58 439
538 2 2 3 27 38 152 51
539 2 2 3 27 264 146 37
540 2 2 3 27 217 38 51
541 2 2 3 27 217 153 38
542 2 2 3 27 39 159 208
543 2 2 3 27 152 272 51
544 2 2 3 27 265 147 146
545 2 2 3 27 265 146 264
546 2 2 3 27 266 148 147
547 2 2 3 27 266 147 265
548 2 2 3 27 149 148 268
549 2 2 3 27 148 266 267
550 2 2 3 27 148 267 268
551 2 2 3 27 269 150 149
552 2 2 3 27 269 149 268
553 2 2 3 27 270 151 150
554 2 2 3 27 269 270 150
555 2 2 3 27 272 152 151
556 2 2 3 27 271 151 270
557 2 2 3 27 271 272 151
558 2 2 3 27 216 154 153
559 2 2 3 27 217 216 153
560 2 2 3 27 215 155 154
561 2 2 3 27 154 216 215
562 2 2 3 27 213 156 155
563 2 2 3 27 214 213 155
564 2 2 3 27 215 214 155
565 2 2 3 27 212 157 156
566 2 2 3 27 156 213 212
567 2 2 3 27 158 157 211
568 2 2 3 27 157 212 211
569 2 2 3 27 209 159 158
570 2 2 3 27 158 210 209
571 2 2 3 27 210 158 211
572 2 2 3 27 159 209 208
573 2 2 3 27 264 37 43
574 2 2 3 27 47 39 208
575 2 2 3 28 273 440 44
576 2 2 3 28 440 175 44
577 2 2 3 28 441 281 52
578 2 2 3 28 218 441 52
579 2 2 3 28 277 278 269
580 2 2 3 28 278 279 269
581 2 2 3 28 268 267 276
582 2 2 3 28 270 269 279
583 2 2 3 28 272 441 51
584 2 2 3 28 441 272 281
585 2 2 3 28 441 218 51
586 2 2 3 28 440 264 43
587 2 2 3 28 264 440 273
588 2 2 3 28 175 440 43
589 2 2 3 28 279 280 271
590 2 2 3 28 279 271 270
591 2 2 3 28 280 281 271
592 2 2 3 28 276 267 275
593 2 2 3 28 275 267 266
594 2 2 3 28 272 271 281
595 2 2 3 28 273 274 264
596 2 2 3 28 264 274 265
597 2 2 3 28 274 275 266
598 2 2 3 28 277 268 276
599 2 2 3 28 274 266 265
600 2 2 3 28 269 268 277
601 2 2 3 29 454 178 478
602 2 2 3 29 178 454 477
603 2 2 3 29 221 455 480
604 2 2 3 29 455 221 479
605 2 2 3 29 455 445 461
606 2 2 3 29 447 455 461
607 2 2 3 29 444 454 460
608 2 2 3 29 454 446 460
609 2 2 3 29 473 442 482
610 2 2 3 29 442 474 481
611 2 2 3 29 178 179 478
612 2 2 3 29 177 178 477
613 2 2 3 29 222 221 480
614 2 2 3 29 221 220 479
615 2 2 3 29 472 443 475
616 2 2 3 29 450 473 482
617 2 2 3 29 474 451 481
618 2 2 3 29 452 472 475
619 2 2 3 29 469 448 472
620 2 2 3 29 452 469 472
621 2 2 3 29 277 467 469
622 2 2 3 29 468 286 470
623 2 2 3 29 454 444 477
624 2 2 3 29 446 454 478
625 2 2 3 29 445 455 479
626 2 2 3 29 455 447 480
627 2 2 3 29 451 468 481
628 2 2 3 29 467 450 482
629 2 2 3 29 468 449 481
630 2 2 3 29 448 467 482
631 2 2 3 29 449 468 470
632 2 2 3 29 467 448 469
633 2 2 3 29 275 274 463
634 2 2 3 29 283 284 464
635 2 2 3 29 280 279 465
636 2 2 3 29 288 289 466
637 2 2 3 29 463 444 473
638 2 2 3 29 446 464 474
639 2 2 3 29 445 465 475
640 2 2 3 29 466 447 476
641 2 2 3 29 458 444 490
642 2 2 3 29 445 456 488
643 2 2 3 29 446 459 491
644 2 2 3 29 457 447 489
645 2 2 3 29 450 463 473
646 2 2 3 29 464 451 474
647 2 2 3 29 465 452 475
648 2 2 3 29 453 466 476
649 2 2 3 29 460 442 473
650 2 2 3 29 442 460 474
651 2 2 3 29 443 461 475
652 2 2 3 29 461 443 476
653 2 2 3 29 444 463 490
654 2 2 3 29 464 446 491
655 2 2 3 29 465 445 488
656 2 2 3 29 447 466 489
657 2 2 3 29 278 277 469
658 2 2 3 29 286 287 470
659 2 2 3 29 277 276 467
660 2 2 3 29 285 286 468
661 2 2 3 29 456 445 479
662 2 2 3 29 447 457 480
663 2 2 3 29 444 458 477
664 2 2 3 29 459 446 478
665 2 2 3 29 462 449 471
666 2 2 3 29 442 462 482
667 2 2 3 29 462 442 481
668 2 2 3 29 444 460 473
669 2 2 3 29 460 446 474
670 2 2 3 29 461 445 475
671 2 2 3 29 447 461 476
672 2 2 3 29 273 458 490
673 2 2 3 29 456 281 488
674 2 2 3 29 459 282 491
675 2 2 3 29 290 457 489
676 2 2 3 29 465 279 486
677 2 2 3 29 288 466 487
678 2 2 3 29 275 463 484
679 2 2 3 29 464 284 485
680 2 2 3 29 452 465 486
681 2 2 3 29 463 450 484
682 2 2 3 29 466 453 487
683 2 2 3 29 451 464 485
684 2 2 3 29 449 462 481
685 2 2 3 29 462 448 482
686 2 2 3 29 281 456 492
687 2 2 3 29 457 290 494
688 2 2 3 29 458 273 493
689 2 2 3 29 282 459 495
690 2 2 3 29 471 443 472
691 2 2 3 29 448 462 501
692 2 2 3 29 274 273 490
693 2 2 3 29 282 283 491
694 2 2 3 29 281 280 488
695 2 2 3 29 289 290 489
696 2 2 3 29 467 276 484
697 2 2 3 29 450 467 484
698 2 2 3 29 285 468 485
699 2 2 3 29 468 451 485
700 2 2 3 29 278 469 486
701 2 2 3 29 470 287 487
702 2 2 3 29 469 452 486
703 2 2 3 29 453 470 487
704 2 2 3 29 463 274 490
705 2 2 3 29 283 464 491
706 2 2 3 29 280 465 488
707 2 2 3 29 466 289 489
708 2 2 3 29 449 470 483
709 2 2 3 29 470 453 483
710 2 2 3 29 476 443 496
711 2 2 3 29 443 471 496
712 2 2 3 29 471 472 501
713 2 2 3 29 52 281 492
714 2 2 3 29 290 53 494
715 2 2 3 29 273 44 493
716 2 2 3 29 45 282 495
717 2 2 3 29 471 483 496
718 2 2 3 29 219 52 492
719 2 2 3 29 53 223 494
720 2 2 3 29 44 176 493
721 2 2 3 29 180 45 495
722 2 2 3 29 276 275 484
723 2 2 3 29 284 285 485
724 2 2 3 29 279 278 486
725 2 2 3 29 287 288 487
726 2 2 3 29 471 449 483
727 2 2 3 29 176 177 497
728 2 2 3 29 220 219 498
729 2 2 3 29 179 180 499
730 2 2 3 29 223 222 500
731 2 2 3 29 462 471 501
732 2 2 3 29 472 448 501
733 2 2 3 29 453 476 496
734 2 2 3 29 177 477 497
735 2 2 3 29 478 179 499
736 2 2 3 29 479 220 498
737 2 2 3 29 222 480 500
738 2 2 3 29 477 458 497
739 2 2 3 29 459 478 499
740 2 2 3 29 456 479 498
741 2 2 3 29 480 457 500
742 2 2 3 29 493 176 497
743 2 2 3 29 180 495 499
744 2 2 3 29 219 492 498
745 2 2 3 29 494 223 500
746 2 2 3 29 458 493 497
747 2 2 3 29 495 459 499
748 2 2 3 29 492 456 498
749 2 2 3 29 457 494 500
750 2 2 3 29 483 453 496
751 2 2 3 30 295 286 294
752 2 2 3 30 294 286 285
753 2 2 3 30 291 502 46
754 2 2 3 30 502 181 46
755 2 2 3 30 503 299 54
756 2 2 3 30 224 503 54
757 2 2 3 30 295 287 286
758 2 2 3 30 295 296 287
759 2 2 3 30 296 297 287
760 2 2 3 30 292 293 283
761 2 2 3 30 290 503 53
762 2 2 3 30 503 290 299
763 2 2 3 30 503 224 53
764 2 2 3 30 502 282 45
765 2 2 3 30 282 502 291
766 2 2 3 30 181 502 45
767 2 2 3 30 298 299 290
768 2 2 3 30 298 290 289
769 2 2 3 30 297 298 289
770 2 2 3 30 297 289 288
771 2 2 3 30 294 285 293
772 2 2 3 30 293 285 284
773 2 2 3 30 293 284 283
774 2 2 3 30 283 282 291
775 2 2 3 30 288 287 297
776 2 2 3 30 291 292 283
777 2 2 3 31 513 535 568
778 2 2 3 31 537 515 570
779 2 2 3 31 514 536 567
780 2 2 3 31 538 516 569
781 2 2 3 31 560 513 568
782 2 2 3 31 515 562 570
783 2 2 3 31 559 514 567
784 2 2 3 31 516 561 569
785 2 2 3 31 511 541 556
786 2 2 3 31 512 542 555
787 2 2 3 31 184 536 575
788 2 2 3 31 232 535 576
789 2 2 3 31 538 227 577
790 2 2 3 31 537 189 578
791 2 2 3 31 186 187 533
792 2 2 3 31 230 229 534
793 2 2 3 31 511 531 573
794 2 2 3 31 512 532 574
795 2 2 3 31 551 234 576
796 2 2 3 31 552 182 575
797 2 2 3 31 191 553 578
798 2 2 3 31 225 554 577
799 2 2 3 31 182 183 575
800 2 2 3 31 234 233 576
801 2 2 3 31 226 225 577
802 2 2 3 31 190 191 578
803 2 2 3 31 227 226 577
804 2 2 3 31 183 184 575
805 2 2 3 31 189 190 578
806 2 2 3 31 233 232 576
807 2 2 3 31 511 556 602
808 2 2 3 31 512 555 601
809 2 2 3 31 521 539 567
810 2 2 3 31 519 540 568
811 2 2 3 31 539 506 567
812 2 2 3 31 540 505 568
813 2 2 3 31 512 574 603
814 2 2 3 31 511 573 604
815 2 2 3 31 571 529 598
816 2 2 3 31 572 530 597
817 2 2 3 31 296 295 541
818 2 2 3 31 204 203 542
819 2 2 3 31 517 571 598
820 2 2 3 31 518 572 597
821 2 2 3 31 528 596 620
822 2 2 3 31 527 595 619
823 2 2 3 31 557 528 620
824 2 2 3 31 558 527 619
825 2 2 3 31 542 203 555
826 2 2 3 31 541 295 556
827 2 2 3 31 186 533 565
828 2 2 3 31 534 229 566
829 2 2 3 31 230 534 563
830 2 2 3 31 533 187 564
831 2 2 3 31 540 519 583
832 2 2 3 31 539 521 585
833 2 2 3 31 531 511 599
834 2 2 3 31 532 512 600
835 2 2 3 31 296 541 594
836 2 2 3 31 204 542 593
837 2 2 3 31 540 583 611
838 2 2 3 31 539 585 612
839 2 2 3 31 507 574 595
840 2 2 3 31 508 573 596
841 2 2 3 31 293 292 545
842 2 2 3 31 201 200 546
843 2 2 3 31 298 297 547
844 2 2 3 31 206 205 548
845 2 2 3 31 574 532 595
846 2 2 3 31 573 531 596
847 2 2 3 31 539 530 572
848 2 2 3 31 540 529 571
849 2 2 3 31 536 184 581
850 2 2 3 31 227 538 582
851 2 2 3 31 535 232 579
852 2 2 3 31 189 537 580
853 2 2 3 31 515 548 562
854 2 2 3 31 546 513 560
855 2 2 3 31 545 514 559
856 2 2 3 31 516 547 561
857 2 2 3 31 523 546 560
858 2 2 3 31 548 524 562
859 2 2 3 31 525 545 559
860 2 2 3 31 547 526 561
861 2 2 3 31 527 550 595
862 2 2 3 31 528 549 596
863 2 2 3 31 541 526 594
864 2 2 3 31 542 524 593
865 2 2 3 31 535 519 568
866 2 2 3 31 536 521 567
867 2 2 3 31 520 537 570
868 2 2 3 31 522 538 569
869 2 2 3 31 583 534 586
870 2 2 3 31 533 584 585
871 2 2 3 31 510 583 586
872 2 2 3 31 584 509 585
873 2 2 3 31 518 543 572
874 2 2 3 31 517 544 571
875 2 2 3 31 543 506 572
876 2 2 3 31 544 505 571
877 2 2 3 31 203 202 555
878 2 2 3 31 295 294 556
879 2 2 3 31 506 559 567
880 2 2 3 31 505 560 568
881 2 2 3 31 561 508 569
882 2 2 3 31 562 507 570
883 2 2 3 31 535 513 576
884 2 2 3 31 536 514 575
885 2 2 3 31 515 537 578
886 2 2 3 31 516 538 577
887 2 2 3 31 595 550 613
888 2 2 3 31 596 549 614
889 2 2 3 31 519 535 579
890 2 2 3 31 537 520 580
891 2 2 3 31 521 536 581
892 2 2 3 31 538 522 582
893 2 2 3 31 506 539 572
894 2 2 3 31 505 540 571
895 2 2 3 31 585 509 612
896 2 2 3 31 583 510 611
897 2 2 3 31 530 539 612
898 2 2 3 31 529 540 611
899 2 2 3 31 508 561 573
900 2 2 3 31 507 562 574
901 2 2 3 31 561 526 573
902 2 2 3 31 562 524 574
903 2 2 3 31 549 528 589
904 2 2 3 31 550 527 590
905 2 2 3 31 510 549 589
906 2 2 3 31 509 550 590
907 2 2 3 31 291 552 605
908 2 2 3 31 199 551 606
909 2 2 3 31 554 299 607
910 2 2 3 31 553 207 608
911 2 2 3 31 231 230 563
912 2 2 3 31 187 188 564
913 2 2 3 31 185 186 565
914 2 2 3 31 229 228 566
915 2 2 3 31 541 511 604
916 2 2 3 31 542 512 603
917 2 2 3 31 526 541 604
918 2 2 3 31 524 542 603
919 2 2 3 31 545 292 605
920 2 2 3 31 546 200 606
921 2 2 3 31 298 547 607
922 2 2 3 31 206 548 608
923 2 2 3 31 526 547 594
924 2 2 3 31 524 548 593
925 2 2 3 31 545 525 592
926 2 2 3 31 546 523 591
927 2 2 3 31 548 205 593
928 2 2 3 31 547 297 594
929 2 2 3 31 293 545 592
930 2 2 3 31 201 546 591
931 2 2 3 31 513 546 606
932 2 2 3 31 514 545 605
933 2 2 3 31 548 515 608
934 2 2 3 31 547 516 607
935 2 2 3 31 292 291 605
936 2 2 3 31 200 199 606
937 2 2 3 31 299 298 607
938 2 2 3 31 207 206 608
939 2 2 3 31 522 549 586
940 2 2 3 31 520 550 584
941 2 2 3 31 549 510 586
942 2 2 3 31 550 509 584
943 2 2 3 31 184 185 581
944 2 2 3 31 228 227 582
945 2 2 3 31 232 231 579
946 2 2 3 31 188 189 580
947 2 2 3 31 555 523 601
948 2 2 3 31 556 525 602
949 2 2 3 31 513 551 576
950 2 2 3 31 514 552 575
951 2 2 3 31 553 515 578
952 2 2 3 31 554 516 577
953 2 2 3 31 551 513 606
954 2 2 3 31 552 514 605
955 2 2 3 31 515 553 608
956 2 2 3 31 516 554 607
957 2 2 3 31 549 522 614
958 2 2 3 31 550 520 613
959 2 2 3 31 596 531 620
960 2 2 3 31 595 532 619
961 2 2 3 31 512 544 600
962 2 2 3 31 511 543 599
963 2 2 3 31 505 544 609
964 2 2 3 31 506 543 610
965 2 2 3 31 543 518 599
966 2 2 3 31 544 517 600
967 2 2 3 31 544 512 601
968 2 2 3 31 543 511 602
969 2 2 3 31 523 555 591
970 2 2 3 31 525 556 592
971 2 2 3 31 185 565 581
972 2 2 3 31 566 228 582
973 2 2 3 31 231 563 579
974 2 2 3 31 564 188 580
975 2 2 3 31 563 534 583
976 2 2 3 31 533 564 584
977 2 2 3 31 565 533 585
978 2 2 3 31 534 566 586
979 2 2 3 31 555 202 591
980 2 2 3 31 556 294 592
981 2 2 3 31 521 565 585
982 2 2 3 31 519 563 583
983 2 2 3 31 564 520 584
984 2 2 3 31 566 522 586
985 2 2 3 31 558 517 598
986 2 2 3 31 557 518 597
987 2 2 3 31 557 504 587
988 2 2 3 31 558 504 588
989 2 2 3 31 528 557 587
990 2 2 3 31 527 558 588
991 2 2 3 31 563 519 579
992 2 2 3 31 520 564 580
993 2 2 3 31 565 521 581
994 2 2 3 31 522 566 582
995 2 2 3 31 520 570 613
996 2 2 3 31 522 569 614
997 2 2 3 31 234 551 616
998 2 2 3 31 182 552 615
999 2 2 3 31 553 191 617
1000 2 2 3 31 554 225 618
1001 2 2 3 31 551 199 616
1002 2 2 3 31 552 291 615
1003 2 2 3 31 207 553 617
1004 2 2 3 31 299 554 618
1005 2 2 3 31 504 557 597
1006 2 2 3 31 504 558 598
1007 2 2 3 31 202 201 591
1008 2 2 3 31 294 293 592
1009 2 2 3 31 205 204 593
1010 2 2 3 31 297 296 594
1011 2 2 3 31 559 506 610
1012 2 2 3 31 560 505 609
1013 2 2 3 31 507 595 613
1014 2 2 3 31 508 596 614
1015 2 2 3 31 527 588 590
1016 2 2 3 31 528 587 589
1017 2 2 3 31 588 530 590
1018 2 2 3 31 587 529 589
1019 2 2 3 31 588 504 597
1020 2 2 3 31 587 504 598
1021 2 2 3 31 530 588 597
1022 2 2 3 31 529 587 598
1023 2 2 3 31 523 560 609
1024 2 2 3 31 525 559 610
1025 2 2 3 31 54 299 618
1026 2 2 3 31 291 46 615
1027 2 2 3 31 42 207 617
1028 2 2 3 31 199 50 616
1029 2 2 3 31 518 557 620
1030 2 2 3 31 517 558 619
1031 2 2 3 31 50 234 616
1032 2 2 3 31 46 182 615
1033 2 2 3 31 191 42 617
1034 2 2 3 31 225 54 618
1035 2 2 3 31 573 526 604
1036 2 2 3 31 574 524 603
1037 2 2 3 31 570 507 613
1038 2 2 3 31 569 508 614
1039 2 2 3 31 543 602 610
1040 2 2 3 31 544 601 609
1041 2 2 3 31 602 525 610
1042 2 2 3 31 601 523 609
1043 2 2 3 31 510 589 611
1044 2 2 3 31 509 590 612
1045 2 2 3 31 589 529 611
1046 2 2 3 31 590 530 612
1047 2 2 3 31 600 517 619
1048 2 2 3 31 599 518 620
1049 2 2 3 31 532 600 619
1050 2 2 3 31 531 599 620
1051 2 2 3 32 237 210 238
1052 2 2 3 32 238 210 211
1053 2 2 3 32 209 236 235
1054 2 2 3 32 209 235 208
1055 2 2 3 32 213 240 239
1056 2 2 3 32 213 239 212
1057 2 2 3 32 212 239 238
1058 2 2 3 32 212 238 211
1059 2 2 3 32 621 260 55
1060 2 2 3 32 244 621 55
1061 2 2 3 32 622 235 48
1062 2 2 3 32 192 622 48
1063 2 2 3 32 240 213 214
1064 2 2 3 32 240 214 241
1065 2 2 3 32 210 237 209
1066 2 2 3 32 237 236 209
1067 2 2 3 32 217 621 244
1068 2 2 3 32 260 621 51
1069 2 2 3 32 621 217 51
1070 2 2 3 32 208 622 47
1071 2 2 3 32 622 208 235
1072 2 2 3 32 622 192 47
1073 2 2 3 32 242 215 243
1074 2 2 3 32 243 215 216
1075 2 2 3 32 217 244 243
1076 2 2 3 32 243 216 217
1077 2 2 3 32 241 214 242
1078 2 2 3 32 242 214 215
1079 2 2 3 33 260 51 218
1080 2 2 3 33 218 52 261
1081 2 2 3 33 261 260 218
1082 2 2 3 33 55 260 261
1083 2 2 3 34 623 262 56
1084 2 2 3 34 249 623 56
1085 2 2 3 34 261 624 55
1086 2 2 3 34 624 245 55
1087 2 2 3 34 248 221 222
1088 2 2 3 34 247 221 248
1089 2 2 3 34 245 219 246
1090 2 2 3 34 246 219 220
1091 2 2 3 34 223 623 249
1092 2 2 3 34 262 623 53
1093 2 2 3 34 623 223 53
1094 2 2 3 34 624 219 245
1095 2 2 3 34 624 261 52
1096 2 2 3 34 219 624 52
1097 2 2 3 34 247 220 221
1098 2 2 3 34 248 222 249
1099 2 2 3 34 246 220 247
1100 2 2 3 34 249 222 223
1101 2 2 3 35 56 262 263
1102 2 2 3 35 262 53 224
1103 2 2 3 35 224 54 263
1104 2 2 3 35 263 262 224
1105 2 2 3 36 229 254 253
1106 2 2 3 36 229 253 228
1107 2 2 3 36 252 227 253
1108 2 2 3 36 253 227 228
1109 2 2 3 36 625 234 50
1110 2 2 3 36 198 625 50
1111 2 2 3 36 263 626 56
1112 2 2 3 36 626 250 56
1113 2 2 3 36 230 231 256
1114 2 2 3 36 255 229 230
1115 2 2 3 36 256 255 230
1116 2 2 3 36 254 229 255
1117 2 2 3 36 259 625 49
1118 2 2 3 36 625 259 234
1119 2 2 3 36 625 198 49
1120 2 2 3 36 626 225 250
1121 2 2 3 36 626 263 54
1122 2 2 3 36 225 626 54
1123 2 2 3 36 259 258 234
1124 2 2 3 36 234 258 233
1125 2 2 3 36 258 257 233
1126 2 2 3 36 233 257 232
1127 2 2 3 36 252 251 226
1128 2 2 3 36 252 226 227
1129 2 2 3 36 251 250 226
1130 2 2 3 36 257 256 232
1131 2 2 3 36 232 256 231
1132 2 2 3 36 250 225 226
1133 2 2 3 37 649 235 664
1134 2 2 3 37 244 651 665
1135 2 2 3 37 644 242 665
1136 2 2 3 37 237 643 664
1137 2 2 3 37 235 236 664
1138 2 2 3 37 243 244 665
1139 2 2 3 37 645 257 666
1140 2 2 3 37 252 646 667
1141 2 2 3 37 639 247 660
1142 2 2 3 37 195 640 661
1143 2 2 3 37 247 639 659
1144 2 2 3 37 640 195 658
1145 2 2 3 37 642 629 671
1146 2 2 3 37 636 644 662
1147 2 2 3 37 636 662 671
1148 2 2 3 37 259 652 666
1149 2 2 3 37 650 250 667
1150 2 2 3 37 640 630 648
1151 2 2 3 37 632 639 647
1152 2 2 3 37 639 631 647
1153 2 2 3 37 633 640 648
1154 2 2 3 37 641 628 682
1155 2 2 3 37 258 259 666
1156 2 2 3 37 250 251 667
1157 2 2 3 37 257 258 666
1158 2 2 3 37 251 252 667
1159 2 2 3 37 242 243 665
1160 2 2 3 37 236 237 664
1161 2 2 3 37 671 629 678
1162 2 2 3 37 670 641 682
1163 2 2 3 37 637 645 657
1164 2 2 3 37 646 638 656
1165 2 2 3 37 247 248 660
1166 2 2 3 37 246 247 659
1167 2 2 3 37 195 194 658
1168 2 2 3 37 196 195 661
1169 2 2 3 37 643 635 682
1170 2 2 3 37 630 643 663
1171 2 2 3 37 644 632 662
1172 2 2 3 37 637 657 680
1173 2 2 3 37 656 638 681
1174 2 2 3 37 645 633 657
1175 2 2 3 37 631 646 656
1176 2 2 3 37 639 632 659
1177 2 2 3 37 630 640 658
1178 2 2 3 37 631 639 660
1179 2 2 3 37 640 633 661
1180 2 2 3 37 662 627 671
1181 2 2 3 37 663 643 682
1182 2 2 3 37 641 629 679
1183 2 2 3 37 629 642 679
1184 2 2 3 37 643 630 664
1185 2 2 3 37 632 644 665
1186 2 2 3 37 634 654 655
1187 2 2 3 37 239 240 653
1188 2 2 3 37 643 237 673
1189 2 2 3 37 242 644 672
1190 2 2 3 37 633 645 666
1191 2 2 3 37 646 631 667
1192 2 2 3 37 628 641 680
1193 2 2 3 37 629 641 670
1194 2 2 3 37 647 631 656
1195 2 2 3 37 633 648 657
1196 2 2 3 37 632 647 662
1197 2 2 3 37 648 630 663
1198 2 2 3 37 635 643 673
1199 2 2 3 37 644 636 672
1200 2 2 3 37 257 645 674
1201 2 2 3 37 646 252 675
1202 2 2 3 37 655 654 684
1203 2 2 3 37 645 637 674
1204 2 2 3 37 638 646 675
1205 2 2 3 37 642 671 681
1206 2 2 3 37 649 630 658
1207 2 2 3 37 632 651 659
1208 2 2 3 37 650 631 660
1209 2 2 3 37 633 652 661
1210 2 2 3 37 627 647 656
1211 2 2 3 37 648 628 657
1212 2 2 3 37 671 627 681
1213 2 2 3 37 630 649 664
1214 2 2 3 37 651 632 665
1215 2 2 3 37 631 650 667
1216 2 2 3 37 652 633 666
1217 2 2 3 37 647 627 662
1218 2 2 3 37 628 648 663
1219 2 2 3 37 235 649 685
1220 2 2 3 37 250 650 686
1221 2 2 3 37 651 244 687
1222 2 2 3 37 652 259 688
1223 2 2 3 37 653 240 668
1224 2 2 3 37 239 653 669
1225 2 2 3 37 240 241 668
1226 2 2 3 37 238 239 669
1227 2 2 3 37 237 238 673
1228 2 2 3 37 241 242 672
1229 2 2 3 37 629 653 678
1230 2 2 3 37 653 629 683
1231 2 2 3 37 668 241 672
1232 2 2 3 37 238 669 673
1233 2 2 3 37 636 671 678
1234 2 2 3 37 638 654 676
1235 2 2 3 37 654 634 676
1236 2 2 3 37 634 655 677
1237 2 2 3 37 655 637 677
1238 2 2 3 37 657 628 680
1239 2 2 3 37 627 656 681
1240 2 2 3 37 252 253 675
1241 2 2 3 37 256 257 674
1242 2 2 3 37 655 255 694
1243 2 2 3 37 254 654 693
1244 2 2 3 37 636 668 672
1245 2 2 3 37 669 635 673
1246 2 2 3 37 676 634 679
1247 2 2 3 37 642 676 679
1248 2 2 3 37 634 677 679
1249 2 2 3 37 677 641 679
1250 2 2 3 37 654 638 693
1251 2 2 3 37 637 655 694
1252 2 2 3 37 255 256 694
1253 2 2 3 37 253 254 693
1254 2 2 3 37 259 49 688
1255 2 2 3 37 244 55 687
1256 2 2 3 37 48 235 685
1257 2 2 3 37 56 250 686
1258 2 2 3 37 193 48 685
1259 2 2 3 37 249 56 686
1260 2 2 3 37 55 245 687
1261 2 2 3 37 49 197 688
1262 2 2 3 37 255 655 684
1263 2 2 3 37 654 254 684
1264 2 2 3 37 254 255 684
1265 2 2 3 37 635 670 682
1266 2 2 3 37 194 193 689
1267 2 2 3 37 245 246 690
1268 2 2 3 37 248 249 691
1269 2 2 3 37 197 196 692
1270 2 2 3 37 628 663 682
1271 2 2 3 37 653 668 678
1272 2 2 3 37 638 675 693
1273 2 2 3 37 674 637 694
1274 2 2 3 37 676 642 681
1275 2 2 3 37 641 677 680
1276 2 2 3 37 668 636 678
1277 2 2 3 37 635 669 683
1278 2 2 3 37 658 194 689
1279 2 2 3 37 246 659 690
1280 2 2 3 37 660 248 691
1281 2 2 3 37 196 661 692
1282 2 2 3 37 649 658 689
1283 2 2 3 37 659 651 690
1284 2 2 3 37 650 660 691
1285 2 2 3 37 661 652 692
1286 2 2 3 37 670 635 683
1287 2 2 3 37 629 670 683
1288 2 2 3 37 669 653 683
1289 2 2 3 37 677 637 680
1290 2 2 3 37 638 676 681
1291 2 2 3 37 687 245 690
1292 2 2 3 37 193 685 689
1293 2 2 3 37 249 686 691
1294 2 2 3 37 688 197 692
1295 2 2 3 37 651 687 690
1296 2 2 3 37 685 649 689
1297 2 2 3 37 686 650 691
1298 2 2 3 37 652 688 692
1299 2 2 3 37 675 253 693
1300 2 2 3 37 256 674 694
$EndElements
