$MeshFormat
2.2 0 8
$EndMeshFormat
$PhysicalNames
4
2 1 "SD1G0"
2 2 "SD1D1001"
2 3 "SD2G0"
2 4 "I1-2"
$EndPhysicalNames
$Nodes
694
1 12.7 0 0
2 9.227 8.726000000000001 0
3 0 12.7 0
4 12.945 0 4.758
5 9.522 9.005000000000001 4.758
6 0 12.85 4.758
7 14.524 0 13.289
8 11.345 10.728 13.289
9 0 13.853 13.289
10 19.009 0 26.351
11 16.114 15.238 26.351
12 0 16.899 26.351
13 27.91 0 45.223
14 24.872 23.521 45.223
15 0 23.442 45.223
16 41.774 0 69.566
17 37.832 35.776 69.566
18 0 34.294 69.566
19 61.517 0 97.896
20 55.767 52.737 97.896
21 0 50.594 97.896
22 89.241 0 126.139
23 81.07899999999999 76.673 126.139
24 0 74.815 126.139
25 125.312 0 149.55
26 114.803 108.564 149.55
27 0 107.752 149.55
28 166.86 0 167.103
29 154.202 145.822 167.103
30 0 146.683 167.103
31 206.093 0 178.672
32 191.248 180.855 178.672
33 0 184.002 178.672
34 238.724 0 185.608
35 221.267 209.242 185.608
36 0 215.394 185.608
37 260.421 0 188.716
38 240.191 227.138 188.716
39 0 236.511 188.716
40 0 0 188.716
41 0 0 0
42 0 0 28.716
43 261 0 188.716
44 271 0 178.716
45 271 0 38.716
46 261 0 28.716
47 0 237 188.716
48 0 247 178.716
49 0 247 38.716
50 0 237 28.716
51 261 237 188.716
52 271 237 178.716
53 271 237 38.716
54 261 237 28.716
55 261 247 178.716
56 261 247 38.716
57 11.0812738187124 4.72426542221052 0
58 5.063188822077404 10.78079487065231 0
59 11.33677549186894 4.841847519721268 4.757999999999999
60 5.163351883945534 10.96267927359446 4.757999999999999
61 12.94866814610876 5.614662885016011 13.289
62 5.910554950577978 12.10942795099137 13.289
63 17.37545977431514 7.841675854415491 26.351
64 8.272562365365314 15.40469402520599 26.351
65 13.62490888133603 12.88408912871158 19.5335313080334
66 16.66813741513781 0 19.53353130803345
67 0 15.30919678183784 19.53353130806495
68 25.93985241748426 12.06671337757052 45.223
69 12.80302175112363 22.20469808011529 45.223
70 20.26762752305651 19.16635085333147 35.30136065484385
71 23.23044765731035 0 35.30136065484338
72 0 20.00212684214459 35.30136065489114
73 39.96586359023769 12.23223834373731 69.566
74 38.18907058084164 24.46899561877336 69.56600000000002
75 26.01204841763764 32.73099465421575 69.566
76 13.00290526994509 33.45529411119556 69.566
77 31.00206009606316 29.31759617880047 56.73720161407913
78 34.46765070770218 0 56.73720161407921
79 0 28.5749793335516 56.73720161413995
80 58.98517724193307 18.03169478976898 97.896
81 56.49363992722333 36.06891611674798 97.89599999999999
82 38.29343034413036 48.54605064592941 97.89600000000002
83 19.1431342920533 49.49613109599996 97.89599999999999
84 46.34999935970073 43.83141049009669 83.02097194649131
85 51.15068588561858 0 83.02097194649113
86 0 42.03547697596098 83.02097194656287
87 86.987871811709 19.68871102397868 126.139
88 84.71174207150311 39.37478985455098 126.139
89 82.55521774983598 59.07418886520599 126.139
90 62.374638822344 72.3145825142031 126.139
91 41.57536109554425 72.91644954545656 126.139
92 20.78857141961392 73.88584693952153 126.139
93 67.87054803608024 64.18258019088245 111.4010769272682
94 74.77390446240018 0 111.4010769272677
95 0 62.17585986818592 111.401076927343
96 123.2619305950885 28.10338817838282 149.55
97 121.2038017515917 56.20618927074582 149.55
98 119.1826823914337 84.31166549917837 149.55
99 88.09247083220835 105.9202643803613 149.55
100 58.72573164168438 106.3868484879482 149.55
101 29.36330663205841 107.0890077598266 149.55
102 97.44106004968597 92.14573327732582 137.4974446632428
103 106.7417670517206 0 137.4974446632428
104 0 90.79522689655492 137.4974446633041
105 165.7531907970386 30.71037212414096 167.103
106 164.6693116297172 61.42156631121622 167.103
107 163.5646868603978 92.13201857687683 167.103
108 162.3514303937498 122.8383086525048 167.1030000000001
109 126.9733235952753 146.4638997175532 167.103
110 95.22999586977518 146.412674511142 167.103
111 63.48664021795074 146.4947630266949 167.103
112 31.74335736746984 146.602390813175 167.103
113 134.0865837678566 126.7996852717785 158.1412014486963
114 145.6473978117899 0 158.1412014486942
115 0 126.8065242181369 158.1412014487416
116 205.619940699807 32.20654493505025 178.672
117 205.1994610795001 64.4138314192144 178.672
118 204.7687042591875 96.62098098789509 178.672
119 204.2541471778519 128.8268762585795 178.672
120 203.4151740165334 161.0253759355607 178.672
121 165.9227541811924 185.2001053963605 178.672
122 132.7381900003874 184.9625994832957 178.672
123 99.5536386582733 184.7228456776108 178.672
124 66.36909242160652 184.4824812045078 178.672
125 33.18454694841282 184.2420443473105 178.672
126 172.4997664442679 163.1255051514884 172.8171623925319
127 186.2379698458083 0 172.8171623925307
128 0 165.1156066495031 172.8171623925641
129 238.4880928855852 32.22569558302173 185.608
130 238.3201208693036 64.45183332057505 185.608
131 238.1587234544045 96.6780057852322 185.608
132 237.9470765140746 128.9038785026639 185.608
133 237.5864413467079 161.1283616797722 185.608
134 236.6516601784821 193.3393035872763 185.608
135 199.3691659246376 216.6921117189498 185.608
136 166.140366036226 216.6138858562532 185.608
137 132.9120580500381 216.4036305504416 185.608
138 99.6840120047334 216.1553400456616 185.608
139 66.45606307873705 215.894174708006 185.608
140 33.2280994374123 215.6349959122389 185.608
141 206.1477822370684 194.9447471056218 182.1146493086481
142 260.1166887874367 30.7290556239682 188.716
143 259.881675361902 61.45873428158993 188.716
144 259.6645282658795 92.18854676446806 188.716
145 259.4229721369195 122.9181726220457 188.716
146 259.1019016323409 153.6470551319008 188.716
147 258.5836498556742 184.3731368332184 188.716
148 257.2435276547654 215.0693339502657 188.716
149 222.0684414391972 236.3672448400086 188.716
150 190.3455834795578 236.6409078778463 188.716
151 158.6213372764406 236.6886433378966 188.716
152 126.897052492377 236.6716851613584 188.716
153 95.17279129259977 236.6282207986824 188.716
154 63.44854124481925 236.5767706759136 188.716
155 31.72428235308147 236.5317972325948 188.716
156 227.8683750000486 0 188.716
157 195.3157500001472 0 188.716
158 162.7631250002291 0 188.716
159 130.2105000003333 0 188.716
160 97.65787500025971 0 188.716
161 65.10525000016386 0 188.716
162 32.55262500006805 0 188.716
163 0 33.78728571421735 188.716
164 0 67.57457142840404 188.716
165 0 101.3618571425874 188.716
166 0 135.1491428568758 188.716
167 0 168.9364285712566 188.716
168 0 202.7237142856271 188.716
169 6.349999999983785 0 0
170 0 6.350000000015788 0
171 268.0710678303063 0 185.7870677934246
172 271 0 155.3826666666343
173 271 0 132.0493333332686
174 271 0 108.7160000000944
175 271 0 85.38266666673145
176 271 0 62.04933333336571
177 268.0710677900352 0 31.64493216630424
178 237.2727272728514 0 28.716
179 213.5454545457029 0 28.716
180 189.8181818185543 0 28.716
181 166.0909090914057 0 28.716
182 142.3636363642571 0 28.716
183 118.6363636369793 0 28.716
184 94.90909090957234 0 28.716
185 71.18181818216542 0 28.716
186 47.45454545475843 0 28.716
187 23.7272727273515 0 28.716
188 0 244.0710678378863 185.7870677858446
189 0 247 155.3826666666343
190 0 247 132.0493333332686
191 0 247 108.7160000000944
192 0 247 85.38266666673145
193 0 247 62.04933333336571
194 0 244.0710677788973 31.64493215516638
195 0 213.3000000001504 28.716
196 0 189.6000000001565 28.716
197 0 165.9000000001294 28.716
198 0 142.2000000001021 28.716
199 0 118.5000000001332 28.716
200 0 94.80000000010884 28.716
201 0 71.10000000008162 28.716
202 0 47.40000000005443 28.716
203 0 23.70000000002722 28.716
204 23.72727272717885 237 188.716
205 47.45454545433655 237 188.716
206 71.18181818148076 237 188.716
207 94.90909090862496 237 188.716
208 118.6363636357692 237 188.716
209 142.3636363630426 237 188.716
210 166.0909090904451 237 188.716
211 189.8181818178477 237 188.716
212 213.5454545452503 237 188.716
213 237.2727272726529 237 188.716
214 268.0710678303063 237 185.7870677934246
215 271 237 155.3826666666343
216 271 237 132.0493333332686
217 271 237 108.7160000000944
218 271 237 85.38266666673145
219 271 237 62.04933333336571
220 268.0710677900352 237 31.64493216630424
221 237.2727272728514 237 28.716
222 213.5454545457029 237 28.716
223 189.8181818185543 237 28.716
224 166.0909090914057 237 28.716
225 142.3636363642571 237 28.716
226 118.6363636369793 237 28.716
227 94.90909090957234 237 28.716
228 71.18181818216542 237 28.716
229 47.45454545475843 237 28.716
230 23.7272727273515 237 28.716
231 23.72727272717885 247 178.716
232 47.45454545433655 247 178.716
233 71.18181818148076 247 178.716
234 94.90909090862496 247 178.716
235 118.6363636357692 247 178.716
236 142.3636363630426 247 178.716
237 166.0909090904451 247 178.716
238 189.8181818178477 247 178.716
239 213.5454545452503 247 178.716
240 237.2727272726529 247 178.716
241 261 247 155.3826666666343
242 261 247 132.0493333332686
243 261 247 108.7160000000944
244 261 247 85.38266666673145
245 261 247 62.04933333336571
246 237.2727272728514 247 38.716
247 213.5454545457029 247 38.716
248 189.8181818185543 247 38.716
249 166.0909090914057 247 38.716
250 142.3636363642571 247 38.716
251 118.6363636369793 247 38.716
252 94.90909090957234 247 38.716
253 71.18181818216542 247 38.716
254 47.45454545475843 247 38.716
255 23.7272727273515 247 38.716
256 261 244.0710678378863 185.7870677858446
257 268.0710677943634 244.0710678293676 178.716
258 268.0710677943634 244.0710678293676 38.716
259 261 244.0710678234306 31.64493219969963
260 261 23.69999999992186 188.716
261 261 47.39999999984789 188.716
262 261 71.09999999977811 188.716
263 261 94.79999999970829 188.716
264 261 118.4999999996413 188.716
265 261 142.1999999997108 188.716
266 261 165.8999999997831 188.716
267 261 189.5999999998554 188.716
268 261 213.2999999999277 188.716
269 271 23.69999999992186 178.716
270 271 47.39999999984789 178.716
271 271 71.09999999977811 178.716
272 271 94.79999999970829 178.716
273 271 118.4999999996413 178.716
274 271 142.1999999997108 178.716
275 271 165.8999999997831 178.716
276 271 189.5999999998554 178.716
277 271 213.2999999999277 178.716
278 271 23.69999999992186 38.716
279 271 47.39999999984789 38.716
280 271 71.09999999977811 38.716
281 271 94.79999999970829 38.716
282 271 118.4999999996413 38.716
283 271 142.1999999997108 38.716
284 271 165.8999999997831 38.716
285 271 189.5999999998554 38.716
286 271 213.2999999999277 38.716
287 261 23.69999999992186 28.716
288 261 47.39999999984789 28.716
289 261 71.09999999977811 28.716
290 261 94.79999999970829 28.716
291 261 118.4999999996413 28.716
292 261 142.1999999997108 28.716
293 261 165.8999999997831 28.716
294 261 189.5999999998554 28.716
295 261 213.2999999999277 28.716
296 10.49159869686351 6.890366815532793 2.377901143607269
297 7.352576632259641 10.03293838134637 2.378461165759388
298 12.23109889982123 5.002837650187025 9.115444316253363
299 5.259401265523566 11.64104697629469 9.11746742854498
300 15.84449523281947 4.029380751889422 19.92718427569343
301 14.68969060709788 9.23022795999281 20.12858483944209
302 9.900008301467562 13.25505667806566 20.24786601953408
303 4.777768296584817 14.62435182526493 21.08295831436614
304 20.2584337524309 9.023106750991728 32.61582995979492
305 23.92777548930703 7.138856813105594 39.40236384907693
306 22.6922405716096 14.59023549869229 39.47927882888861
307 14.63000412966802 19.93578479845359 39.84077245358683
308 9.347880524936857 17.88425216177486 33.05008181888995
309 6.573574759931015 21.17466927772365 40.77748275445076
310 31.98173460256773 8.43656131146051 54.67251052546395
311 31.99460375733285 18.15181934441244 57.28986976316088
312 9.888081385422936 26.1507320338023 53.14231901308585
313 11.51014862697425 30.3341467314339 62.5241552543696
314 20.17761646561248 26.89553054019465 56.3986785236415
315 44.62007997425923 15.5472771187254 76.89599124389515
316 43.96397466805257 29.06441182495924 78.67896576605958
317 50.86062666648174 23.23804192674306 87.36660421029559
318 21.0561862606421 39.83238458530671 81.42771689774932
319 31.36474107301478 43.67641814283489 88.98609282398414
320 33.14506041050412 37.91272400165823 78.91069798971091
321 65.12165670648392 49.12035787309618 107.8617236126608
322 75.36279783982711 53.75721781464825 118.4722896794946
323 71.61175961899106 33.42047878974831 112.4358970796095
324 71.9400216569376 14.40846189985155 110.3619844361249
325 42.54772266186136 59.1911497738604 110.368865849167
326 53.98118641806596 63.25556466948908 115.3945073386922
327 26.48598674225764 60.49648042341944 111.015936095241
328 102.7652455063968 47.68178902054427 137.715718175747
329 101.2274168624571 30.80548207671441 135.793346079227
330 101.7094963697869 69.60011023884938 138.2433833148091
331 102.7106417351069 15.70242794319239 135.8298222754862
332 49.05731466996066 90.18592897377147 138.1824995342938
333 24.05930593165502 90.96317442515731 138.1493516408351
334 11.88142975653248 83.5660474090692 132.6533084689592
335 73.10180714354871 90.58582291357942 138.8498878558554
336 131.8577609852473 99.05400505004219 154.7969240147652
337 140.7323607806707 72.29012775722228 157.6781871734035
338 146.0985591307128 41.98265694852808 159.2130970787062
339 145.7955608415832 17.24249939081406 158.5765500252124
340 147.4009058313993 102.9955941086651 160.911869559454
341 54.84983524134167 129.921003888044 159.788997361085
342 38.35377203680623 123.2866663437296 156.7780924252529
343 16.83955326059616 125.4969260434418 157.6338264352987
344 79.09912094624278 126.5383656246497 158.420465208395
345 105.0529870307696 127.1226229592774 158.7364913681713
346 185.0039483297579 46.38915552847432 172.7808620934621
347 184.73660470515 74.23204083143945 172.8873232482698
348 185.1545792471436 17.07417384007712 172.6241975534153
349 184.6225703109612 107.3167826204912 173.078500522978
350 186.6792242108103 132.8338385349203 173.8398958703582
351 176.7635355878114 145.5224046826244 171.2844825471668
352 21.786124645576 165.2952831573591 172.8523376543043
353 143.4907274635295 165.9103891440992 172.9174079716487
354 51.66320279043448 165.4560313536192 172.8778127304391
355 110.840172431821 165.3645746434104 172.8003572524565
356 81.94236251312878 165.3557678965724 172.823759993042
357 221.906672414526 50.01525323223677 182.1406595382931
358 221.6428555530136 80.1227107995784 182.1397213093786
359 217.8912866719803 173.6890607845824 181.6778603406486
360 221.3373879747409 112.2862761483946 182.14
361 220.9130347848711 144.7088869338691 182.14
362 222.1828776345106 20.90642111324683 182.1419698485127
363 82.27145015198872 200.3103984741586 182.14
364 115.7325679507179 200.5597594156669 182.14
365 149.1557572036577 200.7907277042322 182.14
366 146.2688436068802 115.4446976623936 188.716
367 81.62467124058834 161.8463620515869 188.716
368 75.46244869659559 78.09812230920485 188.716
369 184.3222178217314 168.3557314415194 188.716
370 190.0170491182406 68.04538926634686 188.716
371 132.3555959839262 55.86440099754633 188.716
372 131.0361451596326 179.0168163753615 188.716
373 207.7726863835823 118.5640398573654 188.716
374 214.1152864947522 200.7478647908185 188.716
375 49.66042776480104 120.4093337969099 188.716
376 50.87012441560036 196.499550954733 188.716
377 94.63021736231113 115.3848108993509 188.716
378 44.30962757195334 43.90255978413337 188.716
379 217.2487309222934 43.44491390875564 188.716
380 96.33054812252205 40.62207852076634 188.716
381 183.0421411904954 204.7518295160796 188.716
382 99.47577491923239 197.1193104607458 188.716
383 166.3671008947 38.93456206814723 188.716
384 38.90895045248517 81.92833654659536 188.716
385 232.7099091541667 164.0747377216092 188.716
386 175.9100540511261 137.1698084870681 188.716
387 229.8606194904233 72.93500463198238 188.716
388 33.41395346741193 150.4002501679615 188.716
389 157.521314461418 85.89567596097812 188.716
390 116.8274983289698 91.25629197328878 188.716
391 118.7242664986355 152.4030712017275 188.716
392 237.2954929249184 205.2385252772033 188.716
393 145.9833364443339 209.6275908348913 188.716
394 232.8685893271762 135.8785663534995 188.716
395 161.284865091559 163.0306959629083 188.716
396 180.4888649490017 104.1122142000917 188.716
397 232.4172433087705 105.7621470823863 188.716
398 140.9847217876477 23.12808365052243 188.716
399 72.63887698233205 211.9009688606333 188.716
400 193.4937365349579 28.87453501589331 188.716
401 69.6628319468678 26.86430355157356 188.716
402 206.0654832029555 220.0980884181379 188.716
403 207.266616692949 150.4407339291218 188.716
404 71.49251038480112 103.9603748229725 188.716
405 101.181616543212 67.80875406336162 188.716
406 68.92095600744373 138.3234547059567 188.716
407 207.1977988210434 93.37084279544081 188.716
408 104.1585152765875 170.5448124428389 188.716
409 22.87561619233915 118.107644351938 188.716
410 25.7740794042311 210.8095682155834 188.716
411 27.78611216621209 183.5245772437302 188.716
412 223.9471408123646 217.9179446652337 188.716
413 25.2026842768646 25.49382564539596 188.716
414 142.5528422588915 144.8006140354015 188.716
415 115.5161212864142 21.96443530603246 188.716
416 118.2260101979131 213.4015944661132 188.716
417 237.0323971377082 23.08327975013906 188.716
418 20.28484150571898 50.54615662620384 188.716
419 158.8729406353811 186.6418786602474 188.716
420 161.5652651145712 62.18500707325462 188.716
421 56.87834130151145 169.4771553766679 188.716
422 68.01368531214749 54.20673517266233 188.716
423 241.3226143632688 46.22457466353239 188.716
424 229.6969149842592 186.0673939757905 188.716
425 208.5255143897256 179.0730485624898 188.716
426 95.6719519439189 144.292767996724 188.716
427 48.21179950992824 218.3132231376859 188.716
428 47.36660375918353 19.25213779622058 188.716
429 77.90672111478591 185.0515630087738 188.716
430 91.91885826317792 91.30167081363574 188.716
431 119.1126033332678 127.263708961481 188.716
432 214.1917979190311 19.0805457349576 188.716
433 5.235415870713158 5.247110501547186 0
434 252.9547157030086 227.0910118065393 188.7160000000001
435 267.2272763560477 224.0004290063815 186.5403868248834
436 267.2417278641416 12.97921654885393 186.5288633208316
437 271 82.53700434106173 108.8948052268602
438 271 154.0499999997471 108.716
439 271 43.2645700199208 135.137630406251
440 271 193.7354299799062 135.1376304060998
441 271 43.29102393043443 82.51133873948258
442 271 193.7089760694179 82.51133873942243
443 271 118.4999999997452 134.6888392857133
444 271 118.4999999997451 82.7431607142867
445 271 82.94999999974323 72.71298214286305
446 271 82.94999999974321 144.719017857137
447 271 153.9318255266166 73.4777409450963
448 271 154.049999999747 144.719017857149
449 271 29.42302974945643 108.716
450 271 207.5769702505743 108.716
451 271 110.1003605620892 109.0824860894605
452 271 181.4385453146692 108.8566413078502
453 271 55.49262207530641 108.8864421791301
454 271 210.6287540668192 152.2998963926271
455 271 26.37124593308717 152.2998963927394
456 271 210.6287540668192 65.13210360737295
457 271 26.37124593308718 65.13210360726058
458 271 60.85340428789873 155.7006310628341
459 271 176.1465957117577 155.7006310627424
460 271 60.86882930860641 61.79287388234962
461 271 176.122557391274 61.848614319863
462 271 104.2311376770294 62.27403265416616
463 271 104.2311376770294 155.1579673458339
464 271 132.7386250287967 61.79405645964583
465 271 131.6811740840158 155.9858432094521
466 271 133.9494350735718 102.891179936679
467 271 140.4624599784055 127.2403616136405
468 271 67.31264089228023 89.28122968028002
469 271 169.6873591074763 89.28122967992392
470 271 21.41556453375727 130.1205196845551
471 271 21.41671222875038 87.32089345692778
472 271 215.5844354662648 130.120519684509
473 271 215.5832877712728 87.32089345696477
474 271 97.19126258895918 90.25271035288281
475 271 97.19126258895932 127.1792896471173
476 271 169.032947598608 129.1119015951293
477 271 67.12746351868483 128.7776490219067
478 271 137.7574119990864 82.98218990724014
479 271 82.90834896820164 53.95984647029303
480 271 82.94999999974321 163.782729003237
481 271 154.0968664682197 54.10889612362276
482 271 154.049999999747 163.7827290032685
483 271 194.9269754042511 161.3784749505251
484 271 194.926975404251 56.05352504947489
485 271 42.0730245955376 161.3784749506165
486 271 42.07302459553765 56.05352504938358
487 271 125.7530639034529 118.4757167313733
488 271 150.6673456116877 91.50100346376647
489 271 223.6011785074953 163.0732646345427
490 271 13.39882149243409 163.0732646345699
491 271 223.6011785074953 54.35873536545734
492 271 13.39882149243408 54.35873536543018
493 271 12.00198845060586 143.7159999999515
494 271 224.9980115493797 143.7159999999515
495 271 12.00198845060584 73.71600000004857
496 271 224.9980115493797 73.71600000004858
497 269.0153739529469 224.106640907248 32.73655350434341
498 269.0153745093513 12.89335964939829 32.73655425019683
499 130.5000000003805 118.500000000051 28.716
500 73.32691442821186 162.4792888912645 28.716
501 73.98478956770803 74.9615994068094 28.716
502 187.67308557219 74.52071110841894 28.716
503 187.0152104324875 162.0384005934541 28.716
504 130.5000000001459 58.11056169942852 28.716
505 130.5000000001389 178.8894383005723 28.716
506 211.4394102333493 117.5796463420203 28.716
507 49.56058976658798 119.4203536579412 28.716
508 221.9775359808721 42.86500348396 28.716
509 39.02246401930452 194.1349965159081 28.716
510 39.02246401929828 42.86500348413016 28.716
511 221.9775359808758 194.134996515951 28.716
512 89.50780460751623 125.7142601060717 28.716
513 171.4921953928706 111.2857398939659 28.716
514 166.9084975726362 39.27430390206909 28.716
515 167.4950248002266 198.0870526394977 28.716
516 93.50497520003231 38.91294736057506 28.716
517 94.09150242757502 197.7256960978565 28.716
518 36.52812445767212 154.0485665252718 28.716
519 36.60308708824758 82.56935700148205 28.716
520 224.4718755425246 82.95143347462852 28.716
521 224.3969129118715 154.4306429984087 28.716
522 107.3964424876461 87.23523475243729 28.716
523 153.6035575128864 149.764765247899 28.716
524 116.0428162089994 148.6947191501714 28.716
525 144.9571837912729 88.3052808496012 28.716
526 130.5000000004736 23.14635776719347 28.716
527 130.5000000004715 213.8536422328069 28.716
528 187.8264648088111 140.8158963188085 28.716
529 73.17353519108065 96.18410368151021 28.716
530 191.6665256120492 28.92463965816433 28.716
531 191.6919719203463 208.0910376872717 28.716
532 69.30802807984068 28.90896231271609 28.716
533 69.33347438813358 208.0753603418457 28.716
534 235.8387412764936 107.0283643184705 28.716
535 25.16125872345329 129.9716356815043 28.716
536 162.2155277649376 65.98229945803968 28.716
537 98.78447223541521 171.0177005418346 28.716
538 67.2546867122126 138.524955117486 28.716
539 193.7453132884231 98.47504488197069 28.716
540 237.3976558386036 176.7185807780256 28.716
541 237.3976558387029 60.28141922163812 28.716
542 23.60234416140831 60.28141922189208 28.716
543 23.60234416137558 176.7185807782514 28.716
544 95.4662312205709 63.86600402556601 28.716
545 165.5337687797368 173.1339959745787 28.716
546 25.01486889119067 211.983633718086 28.716
547 235.9851311089393 25.01636628176875 28.716
548 25.014868891195 25.01636628190843 28.716
549 235.9851311089368 211.9836337182372 28.716
550 25.08537661219124 103.7106564459243 28.716
551 235.9146233878039 133.289343553985 28.716
552 208.7595997809401 174.8726242482267 28.716
553 208.9963768911015 62.46405073886987 28.716
554 52.24040021919566 62.12737575184455 28.716
555 52.00362310910229 174.5359492610208 28.716
556 152.2020532648525 125.9434784170215 28.716
557 108.7979467358462 111.0565215832673 28.716
558 108.3689065342752 20.82417486009108 28.716
559 108.3689065342727 216.175825139908 28.716
560 152.6310934665463 20.8241748599142 28.716
561 152.6310934665426 216.1758251400875 28.716
562 74.53052507794945 184.5627516019457 28.716
563 74.02459802776661 52.03906239661254 28.716
564 186.4694749223085 52.43724839796838 28.716
565 186.9754019724472 184.9609376034596 28.716
566 92.37589640254322 146.1984263246596 28.716
567 168.6241035978211 90.80157367515423 28.716
568 207.8396420801917 139.4084354626685 28.716
569 53.16035791958386 97.59156453742897 28.716
570 213.2121071674558 21.66074937544645 28.716
571 213.2121071674673 215.3392506245481 28.716
572 47.78789283257264 215.3392506244718 28.716
573 47.78789283256526 21.66074937553203 28.716
574 87.4545637811772 17.72921690667645 28.716
575 87.57695848834383 219.195376315922 28.716
576 173.4230415122383 17.80462368402953 28.716
577 173.5454362194151 219.2707830933714 28.716
578 116.8829149722708 44.77901093299496 28.716
579 117.2491336691966 192.0041451364951 28.716
580 143.3463295046022 46.06060312512095 28.716
581 144.3127627337681 191.9326401286693 28.716
582 133.2628342629368 158.9164035869351 28.716
583 127.7371657375132 78.08359641305222 28.716
584 128.5083424216485 98.23683324288966 28.716
585 132.4916575788266 138.7631667572012 28.716
586 16.8114928778305 153.8483975693558 28.716
587 16.50915738192983 82.78319480104366 28.716
588 244.1885071222212 83.15160243053 28.716
589 244.4908426181275 154.2168051988125 28.716
590 88.49607277944588 85.2062613214426 28.716
591 172.5039272207525 151.7937386790406 28.716
592 213.6046501944531 98.57560410679019 28.716
593 47.39534980600597 138.4243958932466 28.716
594 151.6613157772324 106.2403658589291 28.716
595 109.338684222904 130.7596341411295 28.716
596 204.7011778696605 82.92975760573952 28.716
597 56.29882213073718 154.0702423941817 28.716
598 242.953786239138 194.6019443775401 28.716
599 242.9537862392509 42.39805562227256 28.716
600 18.04621376081941 42.39805562246406 28.716
601 18.04621376078896 194.6019443776115 28.716
602 190.9551098875204 120.2963121881735 28.716
603 70.04489011229616 116.7036878117937 28.716
604 118.2107293013872 168.3312594985014 28.716
605 142.3326789012688 68.16533829395087 28.716
606 90.39513916028193 103.7122076946022 28.716
607 170.6048608399179 133.2877923059547 28.716
608 145.6819371613707 170.7722865988498 28.716
609 115.5965508836294 66.41488156469579 28.716
610 203.5765275450943 42.1809518141294 28.716
611 203.6186127234241 194.926267947845 28.716
612 57.38138727673869 42.07373205216622 28.716
613 57.42347245508286 194.8190481858424 28.716
614 203.1782198001154 155.0105441887621 28.716
615 57.82178019998293 81.98945581140069 28.716
616 13.1004944652448 223.9117185865246 28.716
617 247.8995055349151 13.08828141343865 28.716
618 13.10049446516864 13.08828141347868 28.716
619 247.8995055349807 223.9117185865598 28.716
620 12.90772853613933 242.9801989126321 186.7308125970202
621 248.0922713497791 242.9801996844187 186.7308120211567
622 269.0889014178611 242.8795981029423 51.41329757441446
623 269.0889014127042 242.879598110037 166.0187025414257
624 12.90772856229125 245.0148123153905 32.73580070992072
625 248.0922713514482 242.9801995223893 30.70118785794615
626 81.63217999084034 247 108.64815952826
627 179.3678200094224 247 108.6481595281817
628 130.4999999999288 247 127.217109297582
629 130.5000000005234 247 80.82704140914782
630 45.39461476490042 247 133.5057795307731
631 215.3811457965 247 83.94252219179442
632 215.6053852350873 247 133.5057795307766
633 45.61885420365498 247 83.94252219191014
634 96.73949102652172 247 144.1626102359326
635 164.2605089731423 247 144.1626102359556
636 93.8681539767047 247 73.83604100212665
637 167.1318460241946 247 73.83604100194381
638 231.5827321583627 247 108.7160000000046
639 29.41726784163543 247 108.7159999999959
640 109.3151448661276 247 107.9146658041113
641 151.6848551342042 247 107.9146658043297
642 70.65772938700481 247 148.2682412860433
643 190.3422706129431 247 148.2682412860919
644 68.86834994755041 247 67.28993562114231
645 192.1316500529455 247 67.28993562099481
646 56.23136119334371 247 109.0801843033611
647 204.7686388066708 247 109.080184303363
648 26.38883047259635 247 152.2789086744969
649 234.611169527409 247 65.15309132549426
650 234.6111695274041 247 152.2789086744781
651 26.38883047260197 247 65.15309132552858
652 130.4999999994421 247 155.2212832681543
653 118.781608826976 247 64.05244375735769
654 143.0716296629606 247 63.84987913173816
655 187.6391870566672 247 89.37913002677632
656 73.36081294385663 247 89.37913002696357
657 192.5861589128837 247 125.1563284411403
658 68.41384108715027 247 125.1563284411748
659 21.13156646780313 247 130.0125029263941
660 239.8684335322034 247 130.0125029263897
661 239.854813546857 247 87.42048721711345
662 21.14518645314174 247 87.42048721713036
663 47.98196141839628 247 156.684360440005
664 213.0180385816471 247 156.684360440028
665 47.45569689893255 247 60.32829923864406
666 213.5443031014121 247 60.32829923837179
667 151.9380015181735 247 159.5516647057971
668 109.0619984810709 247 159.5516647059575
669 108.8071111095991 247 128.7439345113639
670 152.1928888901866 247 128.7439345114533
671 173.018510339332 247 161.3641899142756
672 87.98148966026267 247 161.3641899142269
673 85.97249978808038 247 55.65424016869684
674 175.0275002126863 247 55.65424016859464
675 149.4008918305743 247 86.40662007086686
676 111.8025608214948 247 86.49217088887062
677 130.5000000001711 247 101.6562497693542
678 93.99577051980481 247 93.25403345006643
679 167.0449200110125 247 93.2369232864197
680 88.71842017357974 247 126.7230083790579
681 172.2815798264015 247 126.723008379008
682 145.3116893528234 247 142.9675832666193
683 115.6883106464716 247 142.967583266654
684 130.7133096227932 247 51.33358072227396
685 13.41195052208065 247 163.0680317345522
686 247.5880494779265 247 54.36396826544926
687 247.5880494778958 247 163.0680317345759
688 13.4119505221081 247 54.36396826542672
689 12.00475080217164 247 143.7159999999515
690 248.9952491978347 247 143.7159999999515
691 248.9952491978284 247 73.71600000004858
692 12.00475080216648 247 73.71600000004858
693 158.7371042711009 247 54.15443206045532
694 102.4335434276626 247 54.19494498563623
$EndNodes
$Elements
1300
1 2 2 1 1 1 4 59
2 2 2 1 1 5 296 59
3 2 2 1 1 59 57 1
4 2 2 1 1 57 296 2
5 2 2 1 1 296 5 2
6 2 2 1 1 296 57 59
7 2 2 1 2 5 297 2
8 2 2 1 2 6 3 60
9 2 2 1 2 58 297 60
10 2 2 1 2 60 3 58
11 2 2 1 2 297 5 60
12 2 2 1 2 297 58 2
13 2 2 1 3 61 8 298
14 2 2 1 3 8 5 298
15 2 2 1 3 298 59 4
16 2 2 1 3 7 298 4
17 2 2 1 3 59 298 5
18 2 2 1 3 61 298 7
19 2 2 1 4 8 62 299
20 2 2 1 4 5 8 299
21 2 2 1 4 60 299 6
22 2 2 1 4 299 9 6
23 2 2 1 4 299 60 5
24 2 2 1 4 299 62 9
25 2 2 1 5 66 300 7
26 2 2 1 5 301 61 300
27 2 2 1 5 11 65 301
28 2 2 1 5 11 301 63
29 2 2 1 5 66 10 300
30 2 2 1 5 300 10 63
31 2 2 1 5 300 61 7
32 2 2 1 5 301 8 61
33 2 2 1 5 301 65 8
34 2 2 1 5 301 300 63
35 2 2 1 6 302 8 65
36 2 2 1 6 62 303 67
37 2 2 1 6 12 67 303
38 2 2 1 6 12 303 64
39 2 2 1 6 67 9 62
40 2 2 1 6 65 11 302
41 2 2 1 6 302 11 64
42 2 2 1 6 303 302 64
43 2 2 1 6 8 302 62
44 2 2 1 6 62 302 303
45 2 2 1 7 10 71 304
46 2 2 1 7 10 304 63
47 2 2 1 7 71 13 305
48 2 2 1 7 305 13 68
49 2 2 1 7 14 70 306
50 2 2 1 7 14 306 68
51 2 2 1 7 304 71 305
52 2 2 1 7 305 306 304
53 2 2 1 7 306 70 304
54 2 2 1 7 11 304 70
55 2 2 1 7 304 11 63
56 2 2 1 7 306 305 68
57 2 2 1 8 70 14 307
58 2 2 1 8 307 14 69
59 2 2 1 8 72 12 308
60 2 2 1 8 308 12 64
61 2 2 1 8 307 309 308
62 2 2 1 8 70 307 308
63 2 2 1 8 308 11 70
64 2 2 1 8 72 308 309
65 2 2 1 8 11 308 64
66 2 2 1 8 72 309 15
67 2 2 1 8 309 69 15
68 2 2 1 8 69 309 307
69 2 2 1 9 78 16 73
70 2 2 1 9 74 17 77
71 2 2 1 9 13 78 310
72 2 2 1 9 13 310 68
73 2 2 1 9 73 311 310
74 2 2 1 9 73 310 78
75 2 2 1 9 74 311 73
76 2 2 1 9 310 311 68
77 2 2 1 9 14 311 77
78 2 2 1 9 311 14 68
79 2 2 1 9 77 311 74
80 2 2 1 10 79 15 312
81 2 2 1 10 312 15 69
82 2 2 1 10 18 79 313
83 2 2 1 10 18 313 76
84 2 2 1 10 77 17 75
85 2 2 1 10 312 314 313
86 2 2 1 10 314 312 69
87 2 2 1 10 314 14 77
88 2 2 1 10 14 314 69
89 2 2 1 10 79 312 313
90 2 2 1 10 313 314 75
91 2 2 1 10 314 77 75
92 2 2 1 10 313 75 76
93 2 2 1 11 85 315 16
94 2 2 1 11 85 19 80
95 2 2 1 11 81 20 84
96 2 2 1 11 315 73 16
97 2 2 1 11 74 315 316
98 2 2 1 11 317 315 85
99 2 2 1 11 315 74 73
100 2 2 1 11 316 317 84
101 2 2 1 11 17 316 84
102 2 2 1 11 84 317 81
103 2 2 1 11 316 17 74
104 2 2 1 11 316 315 317
105 2 2 1 11 317 85 80
106 2 2 1 11 81 317 80
107 2 2 1 12 318 319 83
108 2 2 1 12 86 318 83
109 2 2 1 12 82 83 319
110 2 2 1 12 86 18 76
111 2 2 1 12 319 318 320
112 2 2 1 12 84 20 82
113 2 2 1 12 318 86 76
114 2 2 1 12 83 21 86
115 2 2 1 12 318 75 320
116 2 2 1 12 75 318 76
117 2 2 1 12 17 320 75
118 2 2 1 12 84 319 320
119 2 2 1 12 319 84 82
120 2 2 1 12 320 17 84
121 2 2 1 13 321 323 322
122 2 2 1 13 322 323 88
123 2 2 1 13 94 22 87
124 2 2 1 13 89 322 88
125 2 2 1 13 323 80 324
126 2 2 1 13 80 323 81
127 2 2 1 13 94 324 19
128 2 2 1 13 323 321 81
129 2 2 1 13 322 93 321
130 2 2 1 13 324 80 19
131 2 2 1 13 323 324 87
132 2 2 1 13 321 20 81
133 2 2 1 13 23 93 322
134 2 2 1 13 23 322 89
135 2 2 1 13 20 321 93
136 2 2 1 13 324 94 87
137 2 2 1 13 87 88 323
138 2 2 1 14 325 20 326
139 2 2 1 14 326 20 93
140 2 2 1 14 95 92 24
141 2 2 1 14 90 326 93
142 2 2 1 14 91 327 325
143 2 2 1 14 95 21 83
144 2 2 1 14 327 91 92
145 2 2 1 14 326 91 325
146 2 2 1 14 93 23 90
147 2 2 1 14 325 327 82
148 2 2 1 14 326 90 91
149 2 2 1 14 95 327 92
150 2 2 1 14 327 95 83
151 2 2 1 14 82 327 83
152 2 2 1 14 20 325 82
153 2 2 1 15 328 88 329
154 2 2 1 15 103 25 96
155 2 2 1 15 329 88 87
156 2 2 1 15 98 26 102
157 2 2 1 15 330 97 98
158 2 2 1 15 329 331 96
159 2 2 1 15 98 102 330
160 2 2 1 15 96 331 103
161 2 2 1 15 330 328 97
162 2 2 1 15 328 330 89
163 2 2 1 15 328 89 88
164 2 2 1 15 329 96 328
165 2 2 1 15 330 23 89
166 2 2 1 15 328 96 97
167 2 2 1 15 87 331 329
168 2 2 1 15 23 330 102
169 2 2 1 15 103 331 22
170 2 2 1 15 331 87 22
171 2 2 1 16 101 333 332
172 2 2 1 16 101 332 100
173 2 2 1 16 26 99 102
174 2 2 1 16 91 332 333
175 2 2 1 16 91 333 92
176 2 2 1 16 334 333 104
177 2 2 1 16 335 23 102
178 2 2 1 16 335 102 99
179 2 2 1 16 335 99 100
180 2 2 1 16 90 332 91
181 2 2 1 16 335 332 90
182 2 2 1 16 335 100 332
183 2 2 1 16 104 333 27
184 2 2 1 16 333 101 27
185 2 2 1 16 92 333 334
186 2 2 1 16 92 334 24
187 2 2 1 16 23 335 90
188 2 2 1 16 334 104 24
189 2 2 1 17 98 337 336
190 2 2 1 17 98 97 337
191 2 2 1 17 108 29 113
192 2 2 1 17 338 105 106
193 2 2 1 17 339 114 28
194 2 2 1 17 337 338 106
195 2 2 1 17 337 97 338
196 2 2 1 17 337 340 336
197 2 2 1 17 107 337 106
198 2 2 1 17 340 337 107
199 2 2 1 17 338 96 339
200 2 2 1 17 339 105 338
201 2 2 1 17 105 339 28
202 2 2 1 17 336 26 98
203 2 2 1 17 340 113 336
204 2 2 1 17 113 340 108
205 2 2 1 17 26 336 113
206 2 2 1 17 97 96 338
207 2 2 1 17 108 340 107
208 2 2 1 17 339 96 25
209 2 2 1 17 114 339 25
210 2 2 1 18 112 342 341
211 2 2 1 18 115 343 30
212 2 2 1 18 29 109 113
213 2 2 1 18 112 341 111
214 2 2 1 18 344 100 99
215 2 2 1 18 345 344 99
216 2 2 1 18 99 26 345
217 2 2 1 18 113 345 26
218 2 2 1 18 345 113 109
219 2 2 1 18 344 110 111
220 2 2 1 18 344 345 110
221 2 2 1 18 112 343 342
222 2 2 1 18 343 112 30
223 2 2 1 18 343 101 342
224 2 2 1 18 341 342 100
225 2 2 1 18 100 342 101
226 2 2 1 18 111 341 344
227 2 2 1 18 100 344 341
228 2 2 1 18 345 109 110
229 2 2 1 18 343 115 27
230 2 2 1 18 101 343 27
231 2 2 1 19 346 117 347
232 2 2 1 19 32 126 120
233 2 2 1 19 346 347 106
234 2 2 1 19 348 127 31
235 2 2 1 19 348 116 346
236 2 2 1 19 116 348 31
237 2 2 1 19 349 108 107
238 2 2 1 19 350 108 349
239 2 2 1 19 108 351 29
240 2 2 1 19 126 29 351
241 2 2 1 19 108 350 351
242 2 2 1 19 106 347 107
243 2 2 1 19 346 116 117
244 2 2 1 19 119 349 118
245 2 2 1 19 119 350 349
246 2 2 1 19 349 107 347
247 2 2 1 19 126 351 120
248 2 2 1 19 127 348 28
249 2 2 1 19 348 105 28
250 2 2 1 19 105 346 106
251 2 2 1 19 105 348 346
252 2 2 1 19 118 347 117
253 2 2 1 19 347 118 349
254 2 2 1 19 119 120 350
255 2 2 1 19 351 350 120
256 2 2 1 20 32 121 126
257 2 2 1 20 128 352 33
258 2 2 1 20 352 125 33
259 2 2 1 20 126 121 353
260 2 2 1 20 126 353 29
261 2 2 1 20 352 112 354
262 2 2 1 20 125 354 124
263 2 2 1 20 352 354 125
264 2 2 1 20 355 110 109
265 2 2 1 20 353 355 109
266 2 2 1 20 353 109 29
267 2 2 1 20 124 354 356
268 2 2 1 20 110 355 356
269 2 2 1 20 356 123 124
270 2 2 1 20 352 128 30
271 2 2 1 20 123 356 355
272 2 2 1 20 112 352 30
273 2 2 1 20 353 122 355
274 2 2 1 20 110 356 111
275 2 2 1 20 123 355 122
276 2 2 1 20 354 112 111
277 2 2 1 20 111 356 354
278 2 2 1 20 121 122 353
279 2 2 1 21 130 358 357
280 2 2 1 21 35 141 134
281 2 2 1 21 357 358 117
282 2 2 1 21 141 32 359
283 2 2 1 21 359 32 120
284 2 2 1 21 132 361 360
285 2 2 1 21 360 361 119
286 2 2 1 21 361 133 359
287 2 2 1 21 361 359 120
288 2 2 1 21 129 357 362
289 2 2 1 21 362 357 116
290 2 2 1 21 131 360 358
291 2 2 1 21 358 360 118
292 2 2 1 21 31 362 116
293 2 2 1 21 119 361 120
294 2 2 1 21 133 361 132
295 2 2 1 21 129 362 34
296 2 2 1 21 362 31 34
297 2 2 1 21 130 357 129
298 2 2 1 21 359 134 141
299 2 2 1 21 134 359 133
300 2 2 1 21 116 357 117
301 2 2 1 21 131 358 130
302 2 2 1 21 117 358 118
303 2 2 1 21 132 360 131
304 2 2 1 21 118 360 119
305 2 2 1 22 124 363 139
306 2 2 1 22 140 36 33
307 2 2 1 22 138 363 123
308 2 2 1 22 135 141 35
309 2 2 1 22 363 138 139
310 2 2 1 22 363 124 123
311 2 2 1 22 364 123 122
312 2 2 1 22 364 137 138
313 2 2 1 22 137 364 122
314 2 2 1 22 33 125 140
315 2 2 1 22 123 364 138
316 2 2 1 22 122 365 137
317 2 2 1 22 136 365 121
318 2 2 1 22 121 135 136
319 2 2 1 22 124 140 125
320 2 2 1 22 139 140 124
321 2 2 1 22 32 135 121
322 2 2 1 22 141 135 32
323 2 2 1 22 365 122 121
324 2 2 1 22 365 136 137
325 2 2 1 23 129 34 142
326 2 2 1 23 38 35 148
327 2 2 1 23 148 35 134
328 2 2 1 23 145 146 132
329 2 2 1 23 147 148 134
330 2 2 1 23 133 147 134
331 2 2 1 23 132 146 133
332 2 2 1 23 133 146 147
333 2 2 1 23 143 130 129
334 2 2 1 23 131 145 132
335 2 2 1 23 131 130 144
336 2 2 1 23 142 143 129
337 2 2 1 23 142 34 37
338 2 2 1 23 144 145 131
339 2 2 1 23 144 130 143
340 2 2 1 24 155 140 154
341 2 2 1 24 35 38 149
342 2 2 1 24 140 139 154
343 2 2 1 24 135 35 149
344 2 2 1 24 153 139 138
345 2 2 1 24 150 151 136
346 2 2 1 24 152 138 137
347 2 2 1 24 153 138 152
348 2 2 1 24 149 150 135
349 2 2 1 24 155 39 36
350 2 2 1 24 135 150 136
351 2 2 1 24 137 151 152
352 2 2 1 24 155 36 140
353 2 2 1 24 136 151 137
354 2 2 1 24 154 139 153
355 2 2 4 25 379 370 387
356 2 2 4 25 381 374 425
357 2 2 4 25 370 379 400
358 2 2 4 25 366 389 390
359 2 2 4 25 389 371 390
360 2 2 4 25 366 386 396
361 2 2 4 25 380 371 415
362 2 2 4 25 389 366 396
363 2 2 4 25 158 383 400
364 2 2 4 25 166 167 388
365 2 2 4 25 164 165 384
366 2 2 4 25 166 388 409
367 2 2 4 25 383 370 400
368 2 2 4 25 380 160 401
369 2 2 4 25 374 381 402
370 2 2 4 25 371 398 415
371 2 2 4 25 151 150 381
372 2 2 4 25 369 381 425
373 2 2 4 25 151 381 393
374 2 2 4 25 144 143 387
375 2 2 4 25 157 158 400
376 2 2 4 25 368 384 404
377 2 2 4 25 375 388 406
378 2 2 4 25 384 368 422
379 2 2 4 25 388 375 409
380 2 2 4 25 147 146 385
381 2 2 4 25 383 158 398
382 2 2 4 25 384 375 404
383 2 2 4 25 378 384 422
384 2 2 4 25 148 147 392
385 2 2 4 25 406 388 421
386 2 2 4 25 384 165 409
387 2 2 4 25 153 382 399
388 2 2 4 25 372 382 416
389 2 2 4 25 160 380 415
390 2 2 4 25 370 383 420
391 2 2 4 25 370 389 396
392 2 2 4 25 381 369 419
393 2 2 4 25 375 384 409
394 2 2 4 25 147 385 424
395 2 2 4 25 371 380 405
396 2 2 4 25 160 161 401
397 2 2 4 25 382 153 416
398 2 2 4 25 381 150 402
399 2 2 4 25 382 372 408
400 2 2 4 25 164 384 418
401 2 2 4 25 373 386 403
402 2 2 4 25 386 369 403
403 2 2 4 25 144 387 397
404 2 2 4 25 383 371 420
405 2 2 4 25 384 378 418
406 2 2 4 25 385 146 394
407 2 2 4 25 369 395 419
408 2 2 4 25 369 386 395
409 2 2 4 25 371 383 398
410 2 2 4 25 158 159 398
411 2 2 4 25 386 373 396
412 2 2 4 25 387 143 423
413 2 2 4 25 391 372 414
414 2 2 4 25 367 406 421
415 2 2 4 25 379 387 423
416 2 2 4 25 150 149 402
417 2 2 4 25 393 372 416
418 2 2 4 25 405 380 422
419 2 2 4 25 38 148 392
420 2 2 4 25 371 389 420
421 2 2 4 25 386 366 414
422 2 2 4 25 368 405 422
423 2 2 4 25 39 155 410
424 2 2 4 25 154 153 399
425 2 2 4 25 370 396 407
426 2 2 4 25 168 39 410
427 2 2 4 25 388 167 411
428 2 2 4 25 387 370 407
429 2 2 4 25 372 395 414
430 2 2 4 25 146 145 394
431 2 2 4 25 389 370 420
432 2 2 4 25 372 391 408
433 2 2 4 25 390 371 405
434 2 2 4 25 397 387 407
435 2 2 4 25 366 390 431
436 2 2 4 25 152 151 393
437 2 2 4 25 162 40 413
438 2 2 4 25 390 377 431
439 2 2 4 25 392 147 424
440 2 2 4 25 40 163 413
441 2 2 4 25 393 381 419
442 2 2 4 25 373 397 407
443 2 2 4 25 37 156 417
444 2 2 4 25 145 144 397
445 2 2 4 25 142 37 417
446 2 2 4 25 377 390 430
447 2 2 4 25 385 403 425
448 2 2 4 25 394 145 397
449 2 2 4 25 153 152 416
450 2 2 4 25 373 394 397
451 2 2 4 25 388 411 421
452 2 2 4 25 411 376 421
453 2 2 4 25 403 369 425
454 2 2 4 25 385 394 403
455 2 2 4 25 395 386 414
456 2 2 4 25 167 168 411
457 2 2 4 25 394 373 403
458 2 2 4 25 377 404 406
459 2 2 4 25 404 375 406
460 2 2 4 25 165 166 409
461 2 2 4 25 396 373 407
462 2 2 4 25 376 399 429
463 2 2 4 25 414 366 431
464 2 2 4 25 159 160 415
465 2 2 4 25 38 392 412
466 2 2 4 25 391 414 431
467 2 2 4 25 380 401 422
468 2 2 4 25 372 393 419
469 2 2 4 25 163 164 418
470 2 2 4 25 149 38 412
471 2 2 4 25 156 157 432
472 2 2 4 25 421 376 429
473 2 2 4 25 152 393 416
474 2 2 4 25 161 162 428
475 2 2 4 25 155 154 427
476 2 2 4 25 143 142 423
477 2 2 4 25 382 408 429
478 2 2 4 25 392 374 412
479 2 2 4 25 408 367 429
480 2 2 4 25 395 372 419
481 2 2 4 25 398 159 415
482 2 2 4 25 168 410 411
483 2 2 4 25 402 149 412
484 2 2 4 25 426 391 431
485 2 2 4 25 377 426 431
486 2 2 4 25 154 399 427
487 2 2 4 25 399 376 427
488 2 2 4 25 410 376 411
489 2 2 4 25 408 391 426
490 2 2 4 25 367 408 426
491 2 2 4 25 374 392 424
492 2 2 4 25 374 402 412
493 2 2 4 25 157 400 432
494 2 2 4 25 404 377 430
495 2 2 4 25 378 401 428
496 2 2 4 25 401 161 428
497 2 2 4 25 390 405 430
498 2 2 4 25 401 378 422
499 2 2 4 25 399 382 429
500 2 2 4 25 405 368 430
501 2 2 4 25 400 379 432
502 2 2 4 25 377 406 426
503 2 2 4 25 378 413 418
504 2 2 4 25 410 155 427
505 2 2 4 25 406 367 426
506 2 2 4 25 368 404 430
507 2 2 4 25 413 163 418
508 2 2 4 25 413 378 428
509 2 2 4 25 376 410 427
510 2 2 4 25 142 417 423
511 2 2 4 25 367 421 429
512 2 2 4 25 162 413 428
513 2 2 4 25 417 379 423
514 2 2 4 25 374 424 425
515 2 2 4 25 379 417 432
516 2 2 4 25 417 156 432
517 2 2 4 25 424 385 425
518 2 2 2 26 57 169 1
519 2 2 2 26 170 58 3
520 2 2 2 26 169 57 433
521 2 2 2 26 57 2 433
522 2 2 2 26 41 169 433
523 2 2 2 26 170 41 433
524 2 2 2 26 58 170 433
525 2 2 2 26 2 58 433
526 2 2 3 27 260 142 37
527 2 2 3 27 38 148 434
528 2 2 3 27 213 149 38
529 2 2 3 27 39 155 204
530 2 2 3 27 51 213 434
531 2 2 3 27 268 51 434
532 2 2 3 27 143 142 261
533 2 2 3 27 142 260 261
534 2 2 3 27 262 144 143
535 2 2 3 27 262 143 261
536 2 2 3 27 145 144 264
537 2 2 3 27 144 262 263
538 2 2 3 27 144 263 264
539 2 2 3 27 145 265 146
540 2 2 3 27 265 145 264
541 2 2 3 27 266 147 146
542 2 2 3 27 265 266 146
543 2 2 3 27 147 267 148
544 2 2 3 27 267 147 266
545 2 2 3 27 267 268 148
546 2 2 3 27 148 268 434
547 2 2 3 27 212 150 149
548 2 2 3 27 213 212 149
549 2 2 3 27 210 151 150
550 2 2 3 27 211 210 150
551 2 2 3 27 212 211 150
552 2 2 3 27 209 152 151
553 2 2 3 27 151 210 209
554 2 2 3 27 208 153 152
555 2 2 3 27 152 209 208
556 2 2 3 27 206 154 153
557 2 2 3 27 206 153 207
558 2 2 3 27 153 208 207
559 2 2 3 27 205 155 154
560 2 2 3 27 154 206 205
561 2 2 3 27 155 205 204
562 2 2 3 27 43 260 37
563 2 2 3 27 213 38 434
564 2 2 3 27 39 204 47
565 2 2 3 28 267 276 277
566 2 2 3 28 267 277 268
567 2 2 3 28 261 270 271
568 2 2 3 28 261 271 262
569 2 2 3 28 270 261 269
570 2 2 3 28 269 261 260
571 2 2 3 28 273 264 272
572 2 2 3 28 272 264 263
573 2 2 3 28 435 277 52
574 2 2 3 28 214 435 52
575 2 2 3 28 269 436 44
576 2 2 3 28 436 171 44
577 2 2 3 28 264 274 265
578 2 2 3 28 264 273 274
579 2 2 3 28 274 275 265
580 2 2 3 28 271 263 262
581 2 2 3 28 268 435 51
582 2 2 3 28 435 268 277
583 2 2 3 28 435 214 51
584 2 2 3 28 436 260 43
585 2 2 3 28 260 436 269
586 2 2 3 28 171 436 43
587 2 2 3 28 276 267 266
588 2 2 3 28 275 276 266
589 2 2 3 28 275 266 265
590 2 2 3 28 272 263 271
591 2 2 3 29 449 174 471
592 2 2 3 29 174 449 470
593 2 2 3 29 217 450 473
594 2 2 3 29 450 217 472
595 2 2 3 29 449 441 453
596 2 2 3 29 442 450 452
597 2 2 3 29 450 440 452
598 2 2 3 29 439 449 453
599 2 2 3 29 174 175 471
600 2 2 3 29 173 174 470
601 2 2 3 29 218 217 473
602 2 2 3 29 217 216 472
603 2 2 3 29 437 475 477
604 2 2 3 29 465 443 467
605 2 2 3 29 448 465 467
606 2 2 3 29 467 438 476
607 2 2 3 29 437 468 474
608 2 2 3 29 463 446 475
609 2 2 3 29 445 462 474
610 2 2 3 29 462 444 474
611 2 2 3 29 443 463 475
612 2 2 3 29 462 282 464
613 2 2 3 29 273 463 465
614 2 2 3 29 475 446 477
615 2 2 3 29 448 467 476
616 2 2 3 29 441 460 468
617 2 2 3 29 461 442 469
618 2 2 3 29 460 445 468
619 2 2 3 29 447 461 469
620 2 2 3 29 468 445 474
621 2 2 3 29 449 439 470
622 2 2 3 29 441 449 471
623 2 2 3 29 440 450 472
624 2 2 3 29 450 442 473
625 2 2 3 29 440 459 476
626 2 2 3 29 458 439 477
627 2 2 3 29 459 448 476
628 2 2 3 29 446 458 477
629 2 2 3 29 463 443 465
630 2 2 3 29 444 462 464
631 2 2 3 29 271 270 458
632 2 2 3 29 279 280 460
633 2 2 3 29 276 275 459
634 2 2 3 29 284 285 461
635 2 2 3 29 455 439 485
636 2 2 3 29 440 454 483
637 2 2 3 29 441 457 486
638 2 2 3 29 456 442 484
639 2 2 3 29 453 437 477
640 2 2 3 29 438 452 476
641 2 2 3 29 274 273 465
642 2 2 3 29 282 283 464
643 2 2 3 29 281 282 462
644 2 2 3 29 273 272 463
645 2 2 3 29 452 438 469
646 2 2 3 29 437 453 468
647 2 2 3 29 439 458 485
648 2 2 3 29 459 440 483
649 2 2 3 29 460 441 486
650 2 2 3 29 442 461 484
651 2 2 3 29 453 441 468
652 2 2 3 29 442 452 469
653 2 2 3 29 451 444 466
654 2 2 3 29 437 451 475
655 2 2 3 29 451 437 474
656 2 2 3 29 444 451 474
657 2 2 3 29 451 443 475
658 2 2 3 29 454 440 472
659 2 2 3 29 439 455 470
660 2 2 3 29 442 456 473
661 2 2 3 29 457 441 471
662 2 2 3 29 466 438 467
663 2 2 3 29 452 440 476
664 2 2 3 29 439 453 477
665 2 2 3 29 443 451 487
666 2 2 3 29 269 455 485
667 2 2 3 29 454 277 483
668 2 2 3 29 457 278 486
669 2 2 3 29 286 456 484
670 2 2 3 29 459 275 482
671 2 2 3 29 284 461 481
672 2 2 3 29 271 458 480
673 2 2 3 29 460 280 479
674 2 2 3 29 458 446 480
675 2 2 3 29 448 459 482
676 2 2 3 29 445 460 479
677 2 2 3 29 461 447 481
678 2 2 3 29 455 269 490
679 2 2 3 29 277 454 489
680 2 2 3 29 278 457 492
681 2 2 3 29 456 286 491
682 2 2 3 29 466 467 487
683 2 2 3 29 463 272 480
684 2 2 3 29 446 463 480
685 2 2 3 29 462 445 479
686 2 2 3 29 281 462 479
687 2 2 3 29 464 283 481
688 2 2 3 29 274 465 482
689 2 2 3 29 447 464 481
690 2 2 3 29 465 448 482
691 2 2 3 29 270 269 485
692 2 2 3 29 278 279 486
693 2 2 3 29 277 276 483
694 2 2 3 29 285 286 484
695 2 2 3 29 444 464 478
696 2 2 3 29 464 447 478
697 2 2 3 29 458 270 485
698 2 2 3 29 279 460 486
699 2 2 3 29 276 459 483
700 2 2 3 29 461 285 484
701 2 2 3 29 469 438 488
702 2 2 3 29 438 466 488
703 2 2 3 29 52 277 489
704 2 2 3 29 286 53 491
705 2 2 3 29 269 44 490
706 2 2 3 29 45 278 492
707 2 2 3 29 280 281 479
708 2 2 3 29 272 271 480
709 2 2 3 29 275 274 482
710 2 2 3 29 283 284 481
711 2 2 3 29 215 52 489
712 2 2 3 29 53 219 491
713 2 2 3 29 44 172 490
714 2 2 3 29 176 45 492
715 2 2 3 29 466 444 478
716 2 2 3 29 172 173 493
717 2 2 3 29 216 215 494
718 2 2 3 29 175 176 495
719 2 2 3 29 219 218 496
720 2 2 3 29 451 466 487
721 2 2 3 29 466 478 488
722 2 2 3 29 447 469 488
723 2 2 3 29 467 443 487
724 2 2 3 29 173 470 493
725 2 2 3 29 472 216 494
726 2 2 3 29 471 175 495
727 2 2 3 29 218 473 496
728 2 2 3 29 470 455 493
729 2 2 3 29 457 471 495
730 2 2 3 29 454 472 494
731 2 2 3 29 473 456 496
732 2 2 3 29 490 172 493
733 2 2 3 29 176 492 495
734 2 2 3 29 215 489 494
735 2 2 3 29 491 219 496
736 2 2 3 29 455 490 493
737 2 2 3 29 492 457 495
738 2 2 3 29 489 454 494
739 2 2 3 29 456 491 496
740 2 2 3 29 478 447 488
741 2 2 3 30 285 294 295
742 2 2 3 30 285 295 286
743 2 2 3 30 497 295 54
744 2 2 3 30 220 497 54
745 2 2 3 30 287 498 46
746 2 2 3 30 498 177 46
747 2 2 3 30 283 282 291
748 2 2 3 30 291 292 283
749 2 2 3 30 289 290 281
750 2 2 3 30 280 289 281
751 2 2 3 30 286 497 53
752 2 2 3 30 497 286 295
753 2 2 3 30 497 220 53
754 2 2 3 30 498 278 45
755 2 2 3 30 278 498 287
756 2 2 3 30 177 498 45
757 2 2 3 30 294 285 284
758 2 2 3 30 293 294 284
759 2 2 3 30 293 284 283
760 2 2 3 30 292 293 283
761 2 2 3 30 278 287 288
762 2 2 3 30 278 288 279
763 2 2 3 30 279 288 280
764 2 2 3 30 291 282 290
765 2 2 3 30 288 289 280
766 2 2 3 30 282 281 290
767 2 2 3 31 551 506 568
768 2 2 3 31 550 507 569
769 2 2 3 31 182 183 526
770 2 2 3 31 226 225 527
771 2 2 3 31 532 185 573
772 2 2 3 31 228 533 572
773 2 2 3 31 180 530 570
774 2 2 3 31 531 223 571
775 2 2 3 31 534 506 551
776 2 2 3 31 535 507 550
777 2 2 3 31 547 178 570
778 2 2 3 31 221 549 571
779 2 2 3 31 546 230 572
780 2 2 3 31 187 548 573
781 2 2 3 31 178 179 570
782 2 2 3 31 222 221 571
783 2 2 3 31 230 229 572
784 2 2 3 31 186 187 573
785 2 2 3 31 185 186 573
786 2 2 3 31 229 228 572
787 2 2 3 31 179 180 570
788 2 2 3 31 223 222 571
789 2 2 3 31 521 551 568
790 2 2 3 31 519 550 569
791 2 2 3 31 537 500 562
792 2 2 3 31 536 502 564
793 2 2 3 31 517 537 562
794 2 2 3 31 514 536 564
795 2 2 3 31 291 290 534
796 2 2 3 31 199 198 535
797 2 2 3 31 291 534 551
798 2 2 3 31 199 535 550
799 2 2 3 31 526 183 558
800 2 2 3 31 226 527 559
801 2 2 3 31 182 526 560
802 2 2 3 31 527 225 561
803 2 2 3 31 537 517 579
804 2 2 3 31 536 514 580
805 2 2 3 31 518 543 555
806 2 2 3 31 542 519 554
807 2 2 3 31 520 541 553
808 2 2 3 31 540 521 552
809 2 2 3 31 543 509 555
810 2 2 3 31 510 542 554
811 2 2 3 31 541 508 553
812 2 2 3 31 511 540 552
813 2 2 3 31 528 503 614
814 2 2 3 31 529 501 615
815 2 2 3 31 530 180 576
816 2 2 3 31 223 531 577
817 2 2 3 31 185 532 574
818 2 2 3 31 533 228 575
819 2 2 3 31 516 544 578
820 2 2 3 31 515 545 581
821 2 2 3 31 534 290 588
822 2 2 3 31 535 198 586
823 2 2 3 31 537 579 604
824 2 2 3 31 536 580 605
825 2 2 3 31 289 288 541
826 2 2 3 31 202 201 542
827 2 2 3 31 197 196 543
828 2 2 3 31 294 293 540
829 2 2 3 31 530 514 564
830 2 2 3 31 515 531 565
831 2 2 3 31 516 532 563
832 2 2 3 31 533 517 562
833 2 2 3 31 200 199 550
834 2 2 3 31 292 291 551
835 2 2 3 31 503 528 591
836 2 2 3 31 501 529 590
837 2 2 3 31 578 504 580
838 2 2 3 31 505 579 581
839 2 2 3 31 526 578 580
840 2 2 3 31 579 527 581
841 2 2 3 31 536 525 567
842 2 2 3 31 537 524 566
843 2 2 3 31 520 534 588
844 2 2 3 31 518 535 586
845 2 2 3 31 602 513 607
846 2 2 3 31 603 512 606
847 2 2 3 31 528 602 607
848 2 2 3 31 529 603 606
849 2 2 3 31 514 530 576
850 2 2 3 31 531 515 577
851 2 2 3 31 532 516 574
852 2 2 3 31 517 533 575
853 2 2 3 31 578 544 609
854 2 2 3 31 581 545 608
855 2 2 3 31 501 544 563
856 2 2 3 31 503 545 565
857 2 2 3 31 552 503 565
858 2 2 3 31 502 553 564
859 2 2 3 31 554 501 563
860 2 2 3 31 500 555 562
861 2 2 3 31 544 516 563
862 2 2 3 31 545 515 565
863 2 2 3 31 538 500 566
864 2 2 3 31 539 502 567
865 2 2 3 31 512 538 566
866 2 2 3 31 513 539 567
867 2 2 3 31 585 499 595
868 2 2 3 31 584 499 594
869 2 2 3 31 500 537 566
870 2 2 3 31 502 536 567
871 2 2 3 31 568 506 602
872 2 2 3 31 569 507 603
873 2 2 3 31 528 568 602
874 2 2 3 31 529 569 603
875 2 2 3 31 535 518 593
876 2 2 3 31 534 520 592
877 2 2 3 31 507 535 593
878 2 2 3 31 506 534 592
879 2 2 3 31 567 525 594
880 2 2 3 31 566 524 595
881 2 2 3 31 568 528 614
882 2 2 3 31 569 529 615
883 2 2 3 31 552 565 611
884 2 2 3 31 564 553 610
885 2 2 3 31 554 563 612
886 2 2 3 31 562 555 613
887 2 2 3 31 524 585 595
888 2 2 3 31 525 584 594
889 2 2 3 31 183 184 558
890 2 2 3 31 227 226 559
891 2 2 3 31 181 182 560
892 2 2 3 31 225 224 561
893 2 2 3 31 195 546 601
894 2 2 3 31 287 547 599
895 2 2 3 31 548 203 600
896 2 2 3 31 549 295 598
897 2 2 3 31 525 536 605
898 2 2 3 31 524 537 604
899 2 2 3 31 579 505 604
900 2 2 3 31 580 504 605
901 2 2 3 31 540 293 589
902 2 2 3 31 542 201 587
903 2 2 3 31 289 541 588
904 2 2 3 31 197 543 586
905 2 2 3 31 521 540 589
906 2 2 3 31 519 542 587
907 2 2 3 31 541 520 588
908 2 2 3 31 543 518 586
909 2 2 3 31 508 541 599
910 2 2 3 31 542 510 600
911 2 2 3 31 509 543 601
912 2 2 3 31 540 511 598
913 2 2 3 31 180 181 576
914 2 2 3 31 224 223 577
915 2 2 3 31 184 185 574
916 2 2 3 31 228 227 575
917 2 2 3 31 513 567 594
918 2 2 3 31 512 566 595
919 2 2 3 31 508 547 570
920 2 2 3 31 549 511 571
921 2 2 3 31 509 546 572
922 2 2 3 31 548 510 573
923 2 2 3 31 196 195 601
924 2 2 3 31 288 287 599
925 2 2 3 31 295 294 598
926 2 2 3 31 203 202 600
927 2 2 3 31 544 501 590
928 2 2 3 31 545 503 591
929 2 2 3 31 522 544 590
930 2 2 3 31 523 545 591
931 2 2 3 31 543 196 601
932 2 2 3 31 541 288 599
933 2 2 3 31 202 542 600
934 2 2 3 31 294 540 598
935 2 2 3 31 546 509 601
936 2 2 3 31 547 508 599
937 2 2 3 31 510 548 600
938 2 2 3 31 511 549 598
939 2 2 3 31 538 512 603
940 2 2 3 31 539 513 602
941 2 2 3 31 544 522 609
942 2 2 3 31 545 523 608
943 2 2 3 31 539 506 592
944 2 2 3 31 538 507 593
945 2 2 3 31 200 550 587
946 2 2 3 31 292 551 589
947 2 2 3 31 550 519 587
948 2 2 3 31 551 521 589
949 2 2 3 31 514 560 580
950 2 2 3 31 561 515 581
951 2 2 3 31 558 516 578
952 2 2 3 31 517 559 579
953 2 2 3 31 560 526 580
954 2 2 3 31 527 561 581
955 2 2 3 31 526 558 578
956 2 2 3 31 559 527 579
957 2 2 3 31 499 557 595
958 2 2 3 31 499 556 594
959 2 2 3 31 181 560 576
960 2 2 3 31 558 184 574
961 2 2 3 31 561 224 577
962 2 2 3 31 227 559 575
963 2 2 3 31 502 539 596
964 2 2 3 31 500 538 597
965 2 2 3 31 506 539 602
966 2 2 3 31 507 538 603
967 2 2 3 31 516 558 574
968 2 2 3 31 559 517 575
969 2 2 3 31 560 514 576
970 2 2 3 31 515 561 577
971 2 2 3 31 508 570 610
972 2 2 3 31 571 511 611
973 2 2 3 31 573 510 612
974 2 2 3 31 509 572 613
975 2 2 3 31 570 530 610
976 2 2 3 31 531 571 611
977 2 2 3 31 532 573 612
978 2 2 3 31 572 533 613
979 2 2 3 31 546 195 616
980 2 2 3 31 547 287 617
981 2 2 3 31 203 548 618
982 2 2 3 31 295 549 619
983 2 2 3 31 230 546 616
984 2 2 3 31 178 547 617
985 2 2 3 31 548 187 618
986 2 2 3 31 549 221 619
987 2 2 3 31 513 556 607
988 2 2 3 31 512 557 606
989 2 2 3 31 523 556 585
990 2 2 3 31 522 557 584
991 2 2 3 31 556 499 585
992 2 2 3 31 557 499 584
993 2 2 3 31 511 552 611
994 2 2 3 31 510 554 612
995 2 2 3 31 553 508 610
996 2 2 3 31 555 509 613
997 2 2 3 31 198 197 586
998 2 2 3 31 201 200 587
999 2 2 3 31 290 289 588
1000 2 2 3 31 293 292 589
1001 2 2 3 31 524 582 585
1002 2 2 3 31 525 583 584
1003 2 2 3 31 520 553 596
1004 2 2 3 31 518 555 597
1005 2 2 3 31 557 522 606
1006 2 2 3 31 556 523 607
1007 2 2 3 31 554 519 615
1008 2 2 3 31 552 521 614
1009 2 2 3 31 522 583 609
1010 2 2 3 31 523 582 608
1011 2 2 3 31 556 513 594
1012 2 2 3 31 557 512 595
1013 2 2 3 31 553 502 596
1014 2 2 3 31 555 500 597
1015 2 2 3 31 504 578 609
1016 2 2 3 31 505 581 608
1017 2 2 3 31 50 230 616
1018 2 2 3 31 187 42 618
1019 2 2 3 31 46 178 617
1020 2 2 3 31 221 54 619
1021 2 2 3 31 287 46 617
1022 2 2 3 31 54 295 619
1023 2 2 3 31 195 50 616
1024 2 2 3 31 42 203 618
1025 2 2 3 31 521 568 614
1026 2 2 3 31 519 569 615
1027 2 2 3 31 583 522 584
1028 2 2 3 31 582 523 585
1029 2 2 3 31 503 552 614
1030 2 2 3 31 501 554 615
1031 2 2 3 31 522 590 606
1032 2 2 3 31 523 591 607
1033 2 2 3 31 592 520 596
1034 2 2 3 31 593 518 597
1035 2 2 3 31 530 564 610
1036 2 2 3 31 533 562 613
1037 2 2 3 31 563 532 612
1038 2 2 3 31 565 531 611
1039 2 2 3 31 504 583 605
1040 2 2 3 31 505 582 604
1041 2 2 3 31 583 525 605
1042 2 2 3 31 582 524 604
1043 2 2 3 31 538 593 597
1044 2 2 3 31 539 592 596
1045 2 2 3 31 582 505 608
1046 2 2 3 31 583 504 609
1047 2 2 3 31 590 529 606
1048 2 2 3 31 591 528 607
1049 2 2 3 32 235 234 207
1050 2 2 3 32 235 207 208
1051 2 2 3 32 236 235 208
1052 2 2 3 32 236 208 209
1053 2 2 3 32 620 231 48
1054 2 2 3 32 188 620 48
1055 2 2 3 32 621 256 55
1056 2 2 3 32 240 621 55
1057 2 2 3 32 210 236 209
1058 2 2 3 32 237 236 210
1059 2 2 3 32 211 237 210
1060 2 2 3 32 211 238 237
1061 2 2 3 32 213 621 240
1062 2 2 3 32 256 621 51
1063 2 2 3 32 621 213 51
1064 2 2 3 32 204 620 47
1065 2 2 3 32 620 204 231
1066 2 2 3 32 620 188 47
1067 2 2 3 32 239 212 240
1068 2 2 3 32 240 212 213
1069 2 2 3 32 204 205 231
1070 2 2 3 32 232 231 205
1071 2 2 3 32 233 232 205
1072 2 2 3 32 233 205 206
1073 2 2 3 32 212 239 238
1074 2 2 3 32 206 207 233
1075 2 2 3 32 234 233 207
1076 2 2 3 32 212 238 211
1077 2 2 3 33 256 51 214
1078 2 2 3 33 214 52 257
1079 2 2 3 33 256 214 257
1080 2 2 3 33 257 55 256
1081 2 2 3 34 622 258 56
1082 2 2 3 34 245 622 56
1083 2 2 3 34 257 623 55
1084 2 2 3 34 623 241 55
1085 2 2 3 34 243 218 244
1086 2 2 3 34 242 216 243
1087 2 2 3 34 241 216 242
1088 2 2 3 34 243 216 217
1089 2 2 3 34 219 622 245
1090 2 2 3 34 258 622 53
1091 2 2 3 34 622 219 53
1092 2 2 3 34 623 215 241
1093 2 2 3 34 623 257 52
1094 2 2 3 34 215 623 52
1095 2 2 3 34 218 243 217
1096 2 2 3 34 244 218 245
1097 2 2 3 34 245 218 219
1098 2 2 3 34 241 215 216
1099 2 2 3 35 258 53 220
1100 2 2 3 35 220 54 259
1101 2 2 3 35 258 220 259
1102 2 2 3 35 258 259 56
1103 2 2 3 36 225 250 249
1104 2 2 3 36 225 249 224
1105 2 2 3 36 624 230 50
1106 2 2 3 36 194 624 50
1107 2 2 3 36 259 625 56
1108 2 2 3 36 625 246 56
1109 2 2 3 36 255 624 49
1110 2 2 3 36 624 255 230
1111 2 2 3 36 624 194 49
1112 2 2 3 36 250 225 226
1113 2 2 3 36 227 251 226
1114 2 2 3 36 252 251 227
1115 2 2 3 36 250 226 251
1116 2 2 3 36 625 221 246
1117 2 2 3 36 625 259 54
1118 2 2 3 36 221 625 54
1119 2 2 3 36 246 221 222
1120 2 2 3 36 255 254 230
1121 2 2 3 36 230 254 229
1122 2 2 3 36 247 246 222
1123 2 2 3 36 247 222 223
1124 2 2 3 36 253 252 228
1125 2 2 3 36 228 252 227
1126 2 2 3 36 248 247 223
1127 2 2 3 36 248 223 224
1128 2 2 3 36 249 248 224
1129 2 2 3 36 228 229 254
1130 2 2 3 36 254 253 228
1131 2 2 3 37 648 231 663
1132 2 2 3 37 240 650 664
1133 2 2 3 37 638 243 661
1134 2 2 3 37 191 639 662
1135 2 2 3 37 639 191 659
1136 2 2 3 37 243 638 660
1137 2 2 3 37 643 238 664
1138 2 2 3 37 233 642 663
1139 2 2 3 37 231 232 663
1140 2 2 3 37 239 240 664
1141 2 2 3 37 644 253 665
1142 2 2 3 37 248 645 666
1143 2 2 3 37 638 631 647
1144 2 2 3 37 633 639 646
1145 2 2 3 37 255 651 665
1146 2 2 3 37 649 246 666
1147 2 2 3 37 639 630 646
1148 2 2 3 37 632 638 647
1149 2 2 3 37 640 626 680
1150 2 2 3 37 627 641 681
1151 2 2 3 37 254 255 665
1152 2 2 3 37 246 247 666
1153 2 2 3 37 253 254 665
1154 2 2 3 37 247 248 666
1155 2 2 3 37 238 239 664
1156 2 2 3 37 232 233 663
1157 2 2 3 37 636 644 656
1158 2 2 3 37 645 637 655
1159 2 2 3 37 669 640 680
1160 2 2 3 37 641 670 681
1161 2 2 3 37 243 244 661
1162 2 2 3 37 191 190 659
1163 2 2 3 37 192 191 662
1164 2 2 3 37 242 243 660
1165 2 2 3 37 635 643 681
1166 2 2 3 37 642 634 680
1167 2 2 3 37 643 657 681
1168 2 2 3 37 658 642 680
1169 2 2 3 37 630 642 658
1170 2 2 3 37 643 632 657
1171 2 2 3 37 636 656 678
1172 2 2 3 37 655 637 679
1173 2 2 3 37 630 639 659
1174 2 2 3 37 638 632 660
1175 2 2 3 37 631 638 661
1176 2 2 3 37 639 633 662
1177 2 2 3 37 640 628 677
1178 2 2 3 37 628 641 677
1179 2 2 3 37 644 633 656
1180 2 2 3 37 631 645 655
1181 2 2 3 37 653 629 654
1182 2 2 3 37 235 236 652
1183 2 2 3 37 642 630 663
1184 2 2 3 37 632 643 664
1185 2 2 3 37 647 631 655
1186 2 2 3 37 633 646 656
1187 2 2 3 37 642 233 672
1188 2 2 3 37 238 643 671
1189 2 2 3 37 626 640 678
1190 2 2 3 37 641 627 679
1191 2 2 3 37 628 640 669
1192 2 2 3 37 641 628 670
1193 2 2 3 37 633 644 665
1194 2 2 3 37 645 631 666
1195 2 2 3 37 646 630 658
1196 2 2 3 37 632 647 657
1197 2 2 3 37 634 642 672
1198 2 2 3 37 643 635 671
1199 2 2 3 37 253 644 673
1200 2 2 3 37 645 248 674
1201 2 2 3 37 653 654 684
1202 2 2 3 37 627 647 655
1203 2 2 3 37 646 626 656
1204 2 2 3 37 644 636 673
1205 2 2 3 37 637 645 674
1206 2 2 3 37 648 630 659
1207 2 2 3 37 632 650 660
1208 2 2 3 37 649 631 661
1209 2 2 3 37 633 651 662
1210 2 2 3 37 647 627 657
1211 2 2 3 37 626 646 658
1212 2 2 3 37 630 648 663
1213 2 2 3 37 650 632 664
1214 2 2 3 37 631 649 666
1215 2 2 3 37 651 633 665
1216 2 2 3 37 231 648 685
1217 2 2 3 37 246 649 686
1218 2 2 3 37 650 240 687
1219 2 2 3 37 651 255 688
1220 2 2 3 37 652 236 667
1221 2 2 3 37 235 652 668
1222 2 2 3 37 236 237 667
1223 2 2 3 37 234 235 668
1224 2 2 3 37 233 234 672
1225 2 2 3 37 237 238 671
1226 2 2 3 37 652 628 683
1227 2 2 3 37 628 652 682
1228 2 2 3 37 637 654 675
1229 2 2 3 37 654 629 675
1230 2 2 3 37 629 653 676
1231 2 2 3 37 653 636 676
1232 2 2 3 37 667 237 671
1233 2 2 3 37 234 668 672
1234 2 2 3 37 656 626 678
1235 2 2 3 37 627 655 679
1236 2 2 3 37 248 249 674
1237 2 2 3 37 252 253 673
1238 2 2 3 37 653 251 694
1239 2 2 3 37 250 654 693
1240 2 2 3 37 654 637 693
1241 2 2 3 37 636 653 694
1242 2 2 3 37 675 629 677
1243 2 2 3 37 641 675 677
1244 2 2 3 37 629 676 677
1245 2 2 3 37 676 640 677
1246 2 2 3 37 635 667 671
1247 2 2 3 37 668 634 672
1248 2 2 3 37 251 252 694
1249 2 2 3 37 249 250 693
1250 2 2 3 37 255 49 688
1251 2 2 3 37 240 55 687
1252 2 2 3 37 48 231 685
1253 2 2 3 37 56 246 686
1254 2 2 3 37 251 653 684
1255 2 2 3 37 654 250 684
1256 2 2 3 37 189 48 685
1257 2 2 3 37 245 56 686
1258 2 2 3 37 55 241 687
1259 2 2 3 37 49 193 688
1260 2 2 3 37 250 251 684
1261 2 2 3 37 190 189 689
1262 2 2 3 37 241 242 690
1263 2 2 3 37 244 245 691
1264 2 2 3 37 193 192 692
1265 2 2 3 37 634 669 680
1266 2 2 3 37 670 635 681
1267 2 2 3 37 675 641 679
1268 2 2 3 37 640 676 678
1269 2 2 3 37 626 658 680
1270 2 2 3 37 657 627 681
1271 2 2 3 37 637 674 693
1272 2 2 3 37 673 636 694
1273 2 2 3 37 667 635 682
1274 2 2 3 37 634 668 683
1275 2 2 3 37 659 190 689
1276 2 2 3 37 242 660 690
1277 2 2 3 37 661 244 691
1278 2 2 3 37 192 662 692
1279 2 2 3 37 648 659 689
1280 2 2 3 37 649 661 691
1281 2 2 3 37 660 650 690
1282 2 2 3 37 662 651 692
1283 2 2 3 37 635 670 682
1284 2 2 3 37 669 634 683
1285 2 2 3 37 628 669 683
1286 2 2 3 37 670 628 682
1287 2 2 3 37 652 667 682
1288 2 2 3 37 668 652 683
1289 2 2 3 37 676 636 678
1290 2 2 3 37 637 675 679
1291 2 2 3 37 687 241 690
1292 2 2 3 37 189 685 689
1293 2 2 3 37 688 193 692
1294 2 2 3 37 245 686 691
1295 2 2 3 37 685 648 689
1296 2 2 3 37 650 687 690
1297 2 2 3 37 686 649 691
1298 2 2 3 37 651 688 692
1299 2 2 3 37 674 249 693
1300 2 2 3 37 252 673 694
$EndElements
