$MeshFormat
2.2 0 8
$EndMeshFormat
$Nodes
654
1 12.7 0 0
2 9.952 7.889 0
3 9.768000000000001 8.116 0
4 9.574999999999999 8.343 0
5 9.388999999999999 8.552 0
6 9.227 8.727 0
7 0 12.7 0
8 -9.227 8.727 0
9 -9.388999999999999 8.552 0
10 -9.574999999999999 8.343 0
11 -9.768000000000001 8.116 0
12 -9.952 7.889 0
13 -12.7 0 0
14 -9.952 -7.889 0
15 -9.768000000000001 -8.116 0
16 -9.574999999999999 -8.343 0
17 -9.388999999999999 -8.552 0
18 -9.227 -8.727 0
19 0 -12.7 0
20 9.227 -8.727 0
21 9.388999999999999 -8.552 0
22 9.574999999999999 -8.343 0
23 9.768000000000001 -8.116 0
24 9.952 -7.889 0
25 12.942 0 4.915
26 10.249 8.124000000000001 4.915
27 10.077 8.372999999999999 4.915
28 9.875 8.603999999999999 4.915
29 9.654999999999999 8.794 4.915
30 9.449 8.936999999999999 4.915
31 0 12.848 4.915
32 -9.449 8.936999999999999 4.915
33 -9.654999999999999 8.794 4.915
34 -9.875 8.603999999999999 4.915
35 -10.077 8.372999999999999 4.915
36 -10.249 8.124000000000001 4.915
37 -12.942 0 4.915
38 -10.249 -8.124000000000001 4.915
39 -10.077 -8.372999999999999 4.915
40 -9.875 -8.603999999999999 4.915
41 -9.654999999999999 -8.794 4.915
42 -9.449 -8.936999999999999 4.915
43 0 -12.848 4.915
44 9.449 -8.936999999999999 4.915
45 9.654999999999999 -8.794 4.915
46 9.875 -8.603999999999999 4.915
47 10.077 -8.372999999999999 4.915
48 10.249 -8.124000000000001 4.915
49 14.502 0 13.727
50 12.094 9.587 13.727
51 11.986 9.959 13.727
52 11.729 10.22 13.727
53 11.318 10.308 13.727
54 10.857 10.269 13.727
55 0 13.835 13.727
56 -10.857 10.269 13.727
57 -11.318 10.308 13.727
58 -11.729 10.22 13.727
59 -11.986 9.959 13.727
60 -12.094 9.587 13.727
61 -14.502 0 13.727
62 -12.094 -9.587 13.727
63 -11.986 -9.959 13.727
64 -11.729 -10.22 13.727
65 -11.318 -10.308 13.727
66 -10.857 -10.269 13.727
67 0 -13.835 13.727
68 10.857 -10.269 13.727
69 11.318 -10.308 13.727
70 11.729 -10.22 13.727
71 11.986 -9.959 13.727
72 12.094 -9.587 13.727
73 18.947 0 27.218
74 16.986 13.465 27.218
75 16.995 14.122 27.218
76 16.604 14.468 27.218
77 15.762 14.356 27.218
78 14.725 13.927 27.218
79 0 16.845 27.218
80 -14.725 13.927 27.218
81 -15.762 14.356 27.218
82 -16.604 14.468 27.218
83 -16.995 14.122 27.218
84 -16.986 13.465 27.218
85 -18.947 0 27.218
86 -16.986 -13.465 27.218
87 -16.995 -14.122 27.218
88 -16.604 -14.468 27.218
89 -15.762 -14.356 27.218
90 -14.725 -13.927 27.218
91 0 -16.845 27.218
92 14.725 -13.927 27.218
93 15.762 -14.356 27.218
94 16.604 -14.468 27.218
95 16.995 -14.122 27.218
96 16.986 -13.465 27.218
97 27.799 0 46.711
98 26.071 20.667 46.711
99 26.222 21.788 46.711
100 25.596 22.302 46.711
101 24.081 21.933 46.711
102 22.145 20.945 46.711
103 0 23.339 46.711
104 -22.145 20.945 46.711
105 -24.081 21.933 46.711
106 -25.596 22.302 46.711
107 -26.222 21.788 46.711
108 -26.071 20.667 46.711
109 -27.799 0 46.711
110 -26.071 -20.667 46.711
111 -26.222 -21.788 46.711
112 -25.596 -22.302 46.711
113 -24.081 -21.933 46.711
114 -22.145 -20.945 46.711
115 0 -23.339 46.711
116 22.145 -20.945 46.711
117 24.081 -21.933 46.711
118 25.596 -22.302 46.711
119 26.222 -21.788 46.711
120 26.071 -20.667 46.711
121 41.65 0 71.855
122 39.638 31.422 71.855
123 39.924 33.173 71.855
124 38.961 33.948 71.855
125 36.564 33.303 71.855
126 33.467 31.654 71.855
127 0 34.168 71.855
128 -33.467 31.654 71.855
129 -36.564 33.303 71.855
130 -38.961 33.948 71.855
131 -39.924 33.173 71.855
132 -39.638 31.422 71.855
133 -41.65 0 71.855
134 -39.638 -31.422 71.855
135 -39.924 -33.173 71.855
136 -38.961 -33.948 71.855
137 -36.564 -33.303 71.855
138 -33.467 -31.654 71.855
139 0 -34.168 71.855
140 33.467 -31.654 71.855
141 36.564 -33.303 71.855
142 38.961 -33.948 71.855
143 39.924 -33.173 71.855
144 39.638 -31.422 71.855
145 61.762 0 101.118
146 58.918 46.705 101.118
147 59.273 49.25 101.118
148 57.853 50.408 101.118
149 54.401 49.549 101.118
150 49.95 47.244 101.118
151 0 50.638 101.118
152 -49.95 47.244 101.118
153 -54.401 49.549 101.118
154 -57.853 50.408 101.118
155 -59.273 49.25 101.118
156 -58.918 46.705 101.118
157 -61.762 0 101.118
158 -58.918 -46.705 101.118
159 -59.273 -49.25 101.118
160 -57.853 -50.408 101.118
161 -54.401 -49.549 101.118
162 -49.95 -47.244 101.118
163 0 -50.638 101.118
164 49.95 -47.244 101.118
165 54.401 -49.549 101.118
166 57.853 -50.408 101.118
167 59.273 -49.25 101.118
168 58.918 -46.705 101.118
169 91.617 0 130.289
170 88.08 69.822 130.289
171 88.236 73.31699999999999 130.289
172 86.16800000000001 75.07899999999999 130.289
173 81.60899999999999 74.331 130.289
174 75.821 71.71299999999999 130.289
175 0 75.78700000000001 130.289
176 -75.821 71.71299999999999 130.289
177 -81.60899999999999 74.331 130.289
178 -86.16800000000001 75.07899999999999 130.289
179 -88.236 73.31699999999999 130.289
180 -88.08 69.822 130.289
181 -91.617 0 130.289
182 -88.08 -69.822 130.289
183 -88.236 -73.31699999999999 130.289
184 -86.16800000000001 -75.07899999999999 130.289
185 -81.60899999999999 -74.331 130.289
186 -75.821 -71.71299999999999 130.289
187 0 -75.78700000000001 130.289
188 75.821 -71.71299999999999 130.289
189 81.60899999999999 -74.331 130.289
190 86.16800000000001 -75.07899999999999 130.289
191 88.236 -73.31699999999999 130.289
192 88.08 -69.822 130.289
193 132.886 0 154.472
194 129.769 102.87 154.472
195 129.278 107.419 154.472
196 126.331 110.074 154.472
197 120.777 110.005 154.472
198 113.923 107.751 154.472
199 0 110.923 154.472
200 -113.923 107.751 154.472
201 -120.777 110.005 154.472
202 -126.331 110.074 154.472
203 -129.278 107.419 154.472
204 -129.769 102.87 154.472
205 -132.886 0 154.472
206 -129.769 -102.87 154.472
207 -129.278 -107.419 154.472
208 -126.331 -110.074 154.472
209 -120.777 -110.005 154.472
210 -113.923 -107.751 154.472
211 0 -110.923 154.472
212 113.923 -107.751 154.472
213 120.777 -110.005 154.472
214 126.331 -110.074 154.472
215 129.278 -107.419 154.472
216 129.769 -102.87 154.472
217 182.124 0 172.602
218 180.414 143.018 172.602
219 178.906 148.655 172.602
220 174.922 152.413 172.602
221 168.533 153.502 172.602
222 160.923 152.204 172.602
223 0 153.083 172.602
224 -160.923 152.204 172.602
225 -168.533 153.502 172.602
226 -174.922 152.413 172.602
227 -178.906 148.655 172.602
228 -180.414 143.018 172.602
229 -182.124 0 172.602
230 -180.414 -143.018 172.602
231 -178.906 -148.655 172.602
232 -174.922 -152.413 172.602
233 -168.533 -153.502 172.602
234 -160.923 -152.204 172.602
235 0 -153.083 172.602
236 160.923 -152.204 172.602
237 168.533 -153.502 172.602
238 174.922 -152.413 172.602
239 178.906 -148.655 172.602
240 180.414 -143.018 172.602
241 229.102 0 184.552
242 228.664 181.266 184.552
243 226.09 187.861 184.552
244 221.134 192.678 184.552
245 214.104 195.009 184.552
246 206 194.839 184.552
247 0 193.682 184.552
248 -206 194.839 184.552
249 -214.104 195.009 184.552
250 -221.134 192.678 184.552
251 -226.09 187.861 184.552
252 -228.664 181.266 184.552
253 -229.102 0 184.552
254 -228.664 -181.266 184.552
255 -226.09 -187.861 184.552
256 -221.134 -192.678 184.552
257 -214.104 -195.009 184.552
258 -206 -194.839 184.552
259 0 -193.682 184.552
260 206 -194.839 184.552
261 214.104 -195.009 184.552
262 221.134 -192.678 184.552
263 226.09 -187.861 184.552
264 228.664 -181.266 184.552
265 267.778 0 191.715
266 267.51 212.06 191.715
267 264.056 219.408 191.715
268 258.324 225.082 191.715
269 250.815 228.445 191.715
270 242.373 229.241 191.715
271 0 227.707 191.715
272 -242.373 229.241 191.715
273 -250.815 228.445 191.715
274 -258.324 225.082 191.715
275 -264.056 219.408 191.715
276 -267.51 212.06 191.715
277 -267.778 0 191.715
278 -267.51 -212.06 191.715
279 -264.056 -219.408 191.715
280 -258.324 -225.082 191.715
281 -250.815 -228.445 191.715
282 -242.373 -229.241 191.715
283 0 -227.707 191.715
284 242.373 -229.241 191.715
285 250.815 -228.445 191.715
286 258.324 -225.082 191.715
287 264.056 -219.408 191.715
288 267.51 -212.06 191.715
289 292.724 0 194.926
290 291.352 230.96 194.926
291 287.368 238.778 194.926
292 281.163 244.982 194.926
293 273.345 248.966 194.926
294 264.679 250.339 194.926
295 0 250.339 194.926
296 -264.679 250.339 194.926
297 -273.345 248.966 194.926
298 -281.163 244.982 194.926
299 -287.368 238.778 194.926
300 -291.352 230.96 194.926
301 -292.724 0 194.926
302 -291.352 -230.96 194.926
303 -287.368 -238.778 194.926
304 -281.163 -244.982 194.926
305 -273.345 -248.966 194.926
306 -264.679 -250.339 194.926
307 0 -250.339 194.926
308 264.679 -250.339 194.926
309 273.345 -248.966 194.926
310 281.163 -244.982 194.926
311 287.368 -238.778 194.926
312 291.352 -230.96 194.926
313 89.84850000000415 34.91099999991819 130.289
314 108.9244999999419 86.34599999995395 142.3804999999663
315 108.7569999999462 90.3679999999553 142.3804999999683
316 106.2494999999523 92.57649999995846 142.3804999999713
317 101.1929999999604 92.16799999996393 142.3804999999755
318 94.87199999996895 89.73199999997063 142.3804999999803
319 37.9105000000958 73.74999999999486 130.289
320 -37.91049999990223 73.75000000000526 130.289
321 -94.87199999996895 89.73199999997063 142.3804999999803
322 -101.1929999999604 92.16799999996393 142.3804999999755
323 -106.2494999999523 92.57649999995846 142.3804999999713
324 -108.7569999999462 90.3679999999553 142.3804999999683
325 -108.9244999999419 86.34599999995395 142.3804999999663
326 -89.84849999999585 34.91100000008191 130.289
327 -89.84850000000415 -34.91099999991819 130.289
328 -108.9244999999419 -86.34599999995395 142.3804999999663
329 -108.7569999999462 -90.3679999999553 142.3804999999683
330 -106.2494999999523 -92.57649999995846 142.3804999999713
331 -101.1929999999604 -92.16799999996393 142.3804999999755
332 -94.87199999996895 -89.73199999997063 142.3804999999803
333 -37.9105000000958 -73.74999999999486 130.289
334 37.91049999990223 -73.75000000000526 130.289
335 94.87199999996895 -89.73199999997063 142.3804999999803
336 101.1929999999604 -92.16799999996393 142.3804999999755
337 106.2494999999523 -92.57649999995846 142.3804999999713
338 108.7569999999462 -90.3679999999553 142.3804999999683
339 108.9244999999419 -86.34599999995395 142.3804999999663
340 89.84849999999585 -34.91100000008191 130.289
341 157.5049999999586 0 163.5369999999848
342 131.8470000000027 34.28999999991114 154.472
343 130.8080000000029 68.57999999990369 154.472
344 155.0914999999299 122.9439999999445 163.5369999999749
345 154.0919999999461 128.0369999999552 163.5369999999803
346 150.6264999999498 131.2434999999563 163.5369999999813
347 144.6549999999392 131.7534999999446 163.5369999999769
348 137.4229999999765 129.9774999999778 163.5369999999909
349 75.94866666675071 108.808333333331 154.472
350 37.97433333341957 109.8656666666643 154.472
351 -37.97433333324876 109.865666666669 154.472
352 -75.94866666657995 108.8083333333358 154.472
353 -137.4229999999765 129.9774999999778 163.5369999999909
354 -144.6549999999392 131.7534999999446 163.5369999999769
355 -150.6264999999498 131.2434999999563 163.5369999999813
356 -154.0919999999461 128.0369999999552 163.5369999999803
357 -155.0914999999299 122.9439999999445 163.5369999999749
358 -130.8079999999973 68.58000000008782 154.472
359 -131.8469999999972 34.29000000009246 154.472
360 -157.5049999999586 0 163.5369999999848
361 -131.8470000000027 -34.28999999991114 154.472
362 -130.8080000000029 -68.57999999990369 154.472
363 -155.0914999999299 -122.9439999999445 163.5369999999749
364 -154.0919999999461 -128.0369999999552 163.5369999999803
365 -150.6264999999498 -131.2434999999563 163.5369999999813
366 -144.6549999999392 -131.7534999999446 163.5369999999769
367 -137.4229999999765 -129.9774999999778 163.5369999999909
368 -75.94866666675071 -108.808333333331 154.472
369 -37.97433333341957 -109.8656666666643 154.472
370 37.97433333324876 -109.865666666669 154.472
371 75.94866666657995 -108.8083333333358 154.472
372 137.4229999999765 -129.9774999999778 163.5369999999909
373 144.6549999999392 -131.7534999999446 163.5369999999769
374 150.6264999999498 -131.2434999999563 163.5369999999813
375 154.0919999999461 -128.0369999999552 163.5369999999803
376 155.0914999999299 -122.9439999999445 163.5369999999749
377 130.8079999999973 -68.58000000008782 154.472
378 131.8469999999972 -34.29000000009246 154.472
379 181.5540000000011 47.67266666657692 172.602
380 180.9840000000011 95.34533333323947 172.602
381 204.5389999999715 162.1419999999774 178.5769999999929
382 202.4979999999386 168.257999999949 178.5769999999845
383 198.0279999999256 172.5454999999351 178.5769999999808
384 191.3184999999386 174.2554999999441 178.5769999999839
385 183.4614999999535 173.521499999956 178.5769999999877
386 120.6922500000986 152.4237499999995 172.602
387 80.46150000021383 152.6434999999988 172.602
388 40.23075000011248 152.8632499999994 172.602
389 -40.23074999991116 152.8632500000005 172.602
390 -80.46149999978898 152.6435000000012 172.602
391 -120.6922499998889 152.4237500000006 172.602
392 -183.4614999999535 173.521499999956 178.5769999999877
393 -191.3184999999386 174.2554999999441 178.5769999999839
394 -198.0279999999256 172.5454999999351 178.5769999999808
395 -202.4979999999386 168.257999999949 178.5769999999845
396 -204.5389999999715 162.1419999999774 178.5769999999929
397 -180.9839999999991 95.34533333340457 172.602
398 -181.5539999999988 47.67266666676915 172.602
399 -181.5540000000011 -47.67266666657692 172.602
400 -180.9840000000011 -95.34533333323947 172.602
401 -204.5389999999715 -162.1419999999774 178.5769999999929
402 -202.4979999999386 -168.257999999949 178.5769999999845
403 -198.0279999999256 -172.5454999999351 178.5769999999808
404 -191.3184999999386 -174.2554999999441 178.5769999999839
405 -183.4614999999535 -173.521499999956 178.5769999999877
406 -120.6922500000986 -152.4237499999995 172.602
407 -80.46150000021383 -152.6434999999988 172.602
408 -40.23075000011248 -152.8632499999994 172.602
409 40.23074999991116 -152.8632500000005 172.602
410 80.46149999978898 -152.6435000000012 172.602
411 120.6922499998889 -152.4237500000006 172.602
412 183.4614999999535 -173.521499999956 178.5769999999877
413 191.3184999999386 -174.2554999999441 178.5769999999839
414 198.0279999999256 -172.5454999999351 178.5769999999808
415 202.4979999999386 -168.257999999949 178.5769999999845
416 204.5389999999715 -162.1419999999774 178.5769999999929
417 180.9839999999991 -95.34533333340457 172.602
418 181.5539999999988 -47.67266666676915 172.602
419 228.9925000000003 45.31649999989593 184.552
420 228.8830000000005 90.6329999997678 184.552
421 228.7735000000003 135.9494999998701 184.552
422 224.1864999999663 212.0399999999682 188.1334999999934
423 164.8000000000343 194.6076000000002 184.552
424 123.6000000000688 194.3762000000004 184.552
425 82.3999999999611 194.1447999999998 184.552
426 41.19999999996566 193.9133999999998 184.552
427 -41.19999999995978 193.9133999999998 184.552
428 -82.39999999992675 194.1447999999996 184.552
429 -123.6000000000359 194.3762000000002 184.552
430 -164.8000000000328 194.6076000000002 184.552
431 -224.1864999999663 212.0399999999682 188.1334999999934
432 -228.7734999999998 135.9495000000971 184.552
433 -228.8829999999995 90.63300000022197 184.552
434 -228.9924999999997 45.31650000012482 184.552
435 -228.9925000000003 -45.31649999989593 184.552
436 -228.8830000000005 -90.6329999997678 184.552
437 -228.7735000000003 -135.9494999998701 184.552
438 -224.1864999999663 -212.0399999999682 188.1334999999934
439 -164.8000000000343 -194.6076000000002 184.552
440 -123.6000000000688 -194.3762000000004 184.552
441 -82.3999999999611 -194.1447999999998 184.552
442 -41.19999999996566 -193.9133999999998 184.552
443 41.19999999995978 -193.9133999999998 184.552
444 82.39999999992675 -194.1447999999996 184.552
445 123.6000000000359 -194.3762000000002 184.552
446 164.8000000000328 -194.6076000000002 184.552
447 224.1864999999663 -212.0399999999682 188.1334999999934
448 228.7734999999998 -135.9495000000971 184.552
449 228.8829999999995 -90.63300000022197 184.552
450 228.9924999999997 -45.31650000012482 184.552
451 267.7244000000001 42.41199999990324 191.715
452 267.6708000000003 84.82399999978321 191.715
453 267.6172000000003 127.2359999997783 191.715
454 267.5636000000001 169.6479999998905 191.715
455 193.8984000001065 228.9342000000007 191.715
456 145.4238000002463 228.6274000000016 191.715
457 96.94920000023848 228.3206000000015 191.715
458 48.47460000012762 228.0138000000008 191.715
459 -48.47459999989276 228.0137999999993 191.715
460 -96.94919999975518 228.3205999999984 191.715
461 -145.4237999997551 228.6273999999985 191.715
462 -193.8983999998692 228.9341999999992 191.715
463 -267.5635999999999 169.6480000000898 191.715
464 -267.6171999999997 127.2360000002047 191.715
465 -267.6707999999998 84.82400000021366 191.715
466 -267.7243999999999 42.41200000010545 191.715
467 -267.7244000000001 -42.41199999990324 191.715
468 -267.6708000000003 -84.82399999978321 191.715
469 -267.6172000000003 -127.2359999997783 191.715
470 -267.5636000000001 -169.6479999998905 191.715
471 -193.8984000001065 -228.9342000000007 191.715
472 -145.4238000002463 -228.6274000000016 191.715
473 -96.94920000023848 -228.3206000000015 191.715
474 -48.47460000012762 -228.0138000000008 191.715
475 48.47459999989276 -228.0137999999993 191.715
476 96.94919999975518 -228.3205999999984 191.715
477 145.4237999997551 -228.6273999999985 191.715
478 193.8983999998692 -228.9341999999992 191.715
479 267.5635999999999 -169.6480000000898 191.715
480 267.6171999999997 -127.2360000002047 191.715
481 267.6707999999998 -84.82400000021366 191.715
482 267.7243999999999 -42.41200000010545 191.715
483 292.4496000000005 46.19199999990477 194.926
484 292.1752000000014 92.38399999975515 194.926
485 291.9008000000014 138.5759999997532 194.926
486 291.6264000000007 184.7679999998767 194.926
487 220.5658333334258 250.339 194.926
488 176.4526666668813 250.339 194.926
489 132.3395000003442 250.339 194.926
490 88.22633333356464 250.339 194.926
491 44.11316666681284 250.339 194.926
492 -44.11316666657021 250.339 194.926
493 -88.22633333310017 250.339 194.926
494 -132.3394999996454 250.339 194.926
495 -176.4526666664284 250.339 194.926
496 -220.5658333331837 250.339 194.926
497 -291.6263999999994 184.7680000000987 194.926
498 -291.9007999999985 138.5760000002518 194.926
499 -292.1751999999985 92.3840000002441 194.926
500 -292.4495999999992 46.19200000012196 194.926
501 -292.4496000000005 -46.19199999990477 194.926
502 -292.1752000000014 -92.38399999975515 194.926
503 -291.9008000000014 -138.5759999997532 194.926
504 -291.6264000000007 -184.7679999998767 194.926
505 -220.5658333334258 -250.339 194.926
506 -176.4526666668813 -250.339 194.926
507 -132.3395000003442 -250.339 194.926
508 -88.22633333356464 -250.339 194.926
509 -44.11316666681284 -250.339 194.926
510 44.11316666657021 -250.339 194.926
511 88.22633333310017 -250.339 194.926
512 132.3394999996454 -250.339 194.926
513 176.4526666664284 -250.339 194.926
514 220.5658333331837 -250.339 194.926
515 291.6263999999994 -184.7680000000987 194.926
516 291.9007999999985 -138.5760000002518 194.926
517 292.1751999999985 -92.3840000002441 194.926
518 292.4495999999992 -46.19200000012196 194.926
519 11.49062019952364 4.013151581402901 2.456029280104838
520 4.655448950436798 10.77026058109878 2.459510907624066
521 -4.682584179525954 10.83581946109454 2.456511743592678
522 -11.43097066209722 3.993378538038872 2.459771466310882
523 -11.49062019952364 -4.013151581402901 2.456029280104838
524 -4.655448950436798 -10.77026058109878 2.459510907624066
525 4.682584179525954 -10.83581946109454 2.456511743592678
526 11.43097066209722 -3.993378538038873 2.459771466310883
527 12.59579284706288 4.465185608191032 9.294614747909886
528 5.018812651204566 11.29661580317667 9.356765834915189
529 -5.135676511913728 11.65241808464592 9.300820029556796
530 -12.30190241256055 4.391368129701243 9.357367507384573
531 -12.59579284706288 -4.465185608191032 9.294614747909886
532 -5.018812651204566 -11.29661580317667 9.356765834915189
533 5.135676511913728 -11.65241808464592 9.300820029556796
534 12.30190241256055 -4.391368129701243 9.357367507384573
535 16.0114238600202 5.427782598171896 20.70744355067899
536 6.13080793943947 13.52476616613506 20.79857638059681
537 -6.198600171636091 14.14188030102911 20.60801275211625
538 -15.59362295272826 5.415161546287695 20.87712216657129
539 -16.0114238600202 -5.427782598171896 20.70744355067899
540 -6.13080793943947 -13.52476616613506 20.79857638059681
541 6.198600171636091 -14.14188030102911 20.60801275211625
542 15.59362295272826 -5.415161546287695 20.87712216657129
543 22.85841761068424 7.423594358719815 37.19817790028333
544 8.080094856287007 18.7501900346471 37.44998666971362
545 -8.085959519157733 19.30518698068352 37.2266230055631
546 -22.53204955542105 7.418067486590754 37.36065333012757
547 -22.85841761068424 -7.423594358719815 37.19817790028333
548 -8.080094856287007 -18.7501900346471 37.44998666971362
549 8.085959519157733 -19.30518698068352 37.2266230055631
550 22.53204955542105 -7.418067486590754 37.36065333012757
551 34.1038397525281 11.48097943220184 59.49082673890264
552 13.26132902067604 27.47438536672698 59.4620337979551
553 -13.28094062137784 27.77481839474696 59.32703826373227
554 -33.95349236150564 11.47364378380584 59.57578495283039
555 -34.1038397525281 -11.48097943220184 59.49082673890264
556 -13.26132902067604 -27.47438536672698 59.4620337979551
557 13.28094062137784 -27.77481839474696 59.32703826373227
558 33.95349236150564 -11.47364378380584 59.57578495283039
559 50.50870405235915 19.53276715715468 86.47501956733596
560 20.85118644608134 40.88091322385461 86.51224580184355
561 -20.85733511242528 40.97140405587582 86.46094538153045
562 -50.47534833789776 19.53073603303674 86.49800054684856
563 -50.50870405235915 -19.53276715715468 86.47501956733596
564 -20.85118644608134 -40.88091322385461 86.51224580184355
565 20.85733511242528 -40.97140405587582 86.46094538153045
566 50.47534833789777 -19.53073603303674 86.49800054684857
567 75.92825693171019 18.60263932253561 115.8804684642852
568 -75.81471468343832 18.59688756910734 115.9980732613375
569 -75.92825693171019 -18.60263932253561 115.8804684642852
570 75.81471468343832 -18.59688756910734 115.9980732613375
571 110.3929861603162 51.75044002241276 142.2102973121383
572 111.3546199660518 24.19138859705888 142.2844736497113
573 57.28266844321819 90.7741862952296 142.3776140589858
574 21.63946104989973 91.89061724626329 142.4584463764044
575 -57.28830103450778 91.08764606719124 141.917808310519
576 -21.64236211587806 92.19802299658507 141.9989372224856
577 -110.2149061913469 51.74504413194286 142.5175778039386
578 -111.17911374554 24.18607069212936 142.590743756896
579 -110.3929861603162 -51.75044002241276 142.2102973121383
580 -111.3546199660518 -24.19138859705888 142.2844736497113
581 -57.28266844321819 -90.7741862952296 142.3776140589858
582 -21.63946104989973 -91.89061724626329 142.4584463764044
583 57.28830103450778 -91.08764606719124 141.917808310519
584 21.64236211587806 -92.19802299658507 141.9989372224856
585 110.2149061913469 -51.74504413194286 142.5175778039386
586 111.17911374554 -24.18607069212936 142.590743756896
587 150.5993424046475 89.53717521017091 161.3884476960506
588 157.6819520670075 25.11859477487486 163.7127412845956
589 155.6165980069296 60.09107728592799 163.1062216530949
590 97.66663920923743 130.3144902379851 163.585592212492
591 23.44758041730154 131.552214380893 163.9231025663894
592 59.28791715380782 130.9479000136203 163.7574353353366
593 -97.66701533487182 130.5103545734341 163.1245318449423
594 -23.44609962228395 131.7344587834688 163.4765926116081
595 -59.28842308129219 131.1372471237869 163.30396529777
596 -150.4654416852842 89.53573709373063 161.7548511808878
597 -157.5778540258677 25.11735641452594 164.0039243104316
598 -155.5042504418116 60.08976219226648 163.4168656132399
599 -150.5993424046475 -89.53717521017091 161.3884476960506
600 -157.6819520670074 -25.11859477487487 163.7127412845956
601 -155.6165980069296 -60.09107728592799 163.1062216530949
602 -97.6666392092374 -130.3144902379851 163.585592212492
603 -23.44758041730154 -131.552214380893 163.9231025663894
604 -59.28791715380782 -130.9479000136203 163.7574353353366
605 97.66701533487182 -130.5103545734341 163.1245318449423
606 23.44609962228395 -131.7344587834688 163.4765926116081
607 59.28842308129219 -131.1372471237869 163.30396529777
608 150.4654416852842 -89.53573709373063 161.7548511808878
609 157.5778540258677 -25.11735641452594 164.0039243104316
610 155.5042504418116 -60.08976219226648 163.4168656132399
611 202.6289037831035 120.99179289429 177.8922905139424
612 205.6096809469331 22.60161690137885 178.590047905856
613 142.3606035237459 173.272964497925 178.5720115219192
614 22.34933595584592 173.3047749995413 178.7710345640165
615 61.22153242314849 173.2071938608533 178.6819612668643
616 101.7894065045984 173.3283223737111 178.651870119669
617 -142.3600835132748 173.3436485215783 178.3302183043035
618 -20.22670852613447 173.39155757347 178.5462277468361
619 -60.86731785548859 173.2786888202249 178.4458196863594
620 -101.7300255714739 173.3980445266388 178.4133979226821
621 -202.584086246291 120.9919393176049 178.0691760774985
622 -205.5704830188402 22.6015221860336 178.7486289067643
623 -202.6289037831035 -120.99179289429 177.8922905139424
624 -205.6096809469331 -22.60161690137885 178.590047905856
625 -142.3606035237459 -173.272964497925 178.5720115219192
626 -22.34933595584592 -173.3047749995413 178.7710345640165
627 -61.22153242314849 -173.2071938608533 178.6819612668643
628 -101.7894065045984 -173.3283223737111 178.651870119669
629 142.3600835132748 -173.3436485215783 178.3302183043035
630 20.22670852613447 -173.39155757347 178.5462277468361
631 60.8673178554886 -173.2786888202249 178.4458196863594
632 101.7300255714739 -173.3980445266388 178.4133979226821
633 202.584086246291 -120.9919393176049 178.0691760774985
634 205.5704830188402 -22.60152218603362 178.7486289067643
635 248.3996580261749 21.93212554720536 188.1311619125597
636 248.3189740785246 65.79637664160424 188.1264857376791
637 22.4186675968617 210.8262696880644 188.1467637500227
638 -22.41864802856957 210.82936148147 188.1320204304027
639 -248.3962252344828 21.93212120897411 188.1497844665507
640 -248.3155323103446 65.79637229224971 188.1451317618219
641 -248.3996580261749 -21.93212554720536 188.1311619125597
642 -248.3189740785246 -65.79637664160423 188.1264857376791
643 -22.4186675968617 -210.8262696880644 188.1467637500227
644 22.41864802856957 -210.82936148147 188.1320204304027
645 248.3962252344828 -21.9321212089741 188.1497844665507
646 248.3155323103446 -65.79637229224971 188.1451317618219
647 280.1681918282632 22.15099519907036 193.3267786210371
648 23.14694166673511 239.1153275540206 193.2178185503821
649 -23.14694166661574 239.0981865266956 193.3311673708563
650 -280.1768774226219 22.1510467952761 193.2617339022736
651 -280.1681918282632 -22.15099519907036 193.3267786210371
652 -23.14694166673511 -239.1153275540206 193.2178185503821
653 23.14694166661574 -239.0981865266956 193.3311673708563
654 280.1768774226219 -22.1510467952761 193.2617339022736
$EndNodes
$Elements
2342
1 15 2 0 1 1
2 15 2 0 2 2
3 15 2 0 3 3
4 15 2 0 4 4
5 15 2 0 5 5
6 15 2 0 6 6
7 15 2 0 7 7
8 15 2 0 8 8
9 15 2 0 9 9
10 15 2 0 10 10
11 15 2 0 11 11
12 15 2 0 12 12
13 15 2 0 13 13
14 15 2 0 14 14
15 15 2 0 15 15
16 15 2 0 16 16
17 15 2 0 17 17
18 15 2 0 18 18
19 15 2 0 19 19
20 15 2 0 20 20
21 15 2 0 21 21
22 15 2 0 22 22
23 15 2 0 23 23
24 15 2 0 24 24
25 15 2 0 25 25
26 15 2 0 26 26
27 15 2 0 27 27
28 15 2 0 28 28
29 15 2 0 29 29
30 15 2 0 30 30
31 15 2 0 31 31
32 15 2 0 32 32
33 15 2 0 33 33
34 15 2 0 34 34
35 15 2 0 35 35
36 15 2 0 36 36
37 15 2 0 37 37
38 15 2 0 38 38
39 15 2 0 39 39
40 15 2 0 40 40
41 15 2 0 41 41
42 15 2 0 42 42
43 15 2 0 43 43
44 15 2 0 44 44
45 15 2 0 45 45
46 15 2 0 46 46
47 15 2 0 47 47
48 15 2 0 48 48
49 15 2 0 49 49
50 15 2 0 50 50
51 15 2 0 51 51
52 15 2 0 52 52
53 15 2 0 53 53
54 15 2 0 54 54
55 15 2 0 55 55
56 15 2 0 56 56
57 15 2 0 57 57
58 15 2 0 58 58
59 15 2 0 59 59
60 15 2 0 60 60
61 15 2 0 61 61
62 15 2 0 62 62
63 15 2 0 63 63
64 15 2 0 64 64
65 15 2 0 65 65
66 15 2 0 66 66
67 15 2 0 67 67
68 15 2 0 68 68
69 15 2 0 69 69
70 15 2 0 70 70
71 15 2 0 71 71
72 15 2 0 72 72
73 15 2 0 73 73
74 15 2 0 74 74
75 15 2 0 75 75
76 15 2 0 76 76
77 15 2 0 77 77
78 15 2 0 78 78
79 15 2 0 79 79
80 15 2 0 80 80
81 15 2 0 81 81
82 15 2 0 82 82
83 15 2 0 83 83
84 15 2 0 84 84
85 15 2 0 85 85
86 15 2 0 86 86
87 15 2 0 87 87
88 15 2 0 88 88
89 15 2 0 89 89
90 15 2 0 90 90
91 15 2 0 91 91
92 15 2 0 92 92
93 15 2 0 93 93
94 15 2 0 94 94
95 15 2 0 95 95
96 15 2 0 96 96
97 15 2 0 97 97
98 15 2 0 98 98
99 15 2 0 99 99
100 15 2 0 100 100
101 15 2 0 101 101
102 15 2 0 102 102
103 15 2 0 103 103
104 15 2 0 104 104
105 15 2 0 105 105
106 15 2 0 106 106
107 15 2 0 107 107
108 15 2 0 108 108
109 15 2 0 109 109
110 15 2 0 110 110
111 15 2 0 111 111
112 15 2 0 112 112
113 15 2 0 113 113
114 15 2 0 114 114
115 15 2 0 115 115
116 15 2 0 116 116
117 15 2 0 117 117
118 15 2 0 118 118
119 15 2 0 119 119
120 15 2 0 120 120
121 15 2 0 121 121
122 15 2 0 122 122
123 15 2 0 123 123
124 15 2 0 124 124
125 15 2 0 125 125
126 15 2 0 126 126
127 15 2 0 127 127
128 15 2 0 128 128
129 15 2 0 129 129
130 15 2 0 130 130
131 15 2 0 131 131
132 15 2 0 132 132
133 15 2 0 133 133
134 15 2 0 134 134
135 15 2 0 135 135
136 15 2 0 136 136
137 15 2 0 137 137
138 15 2 0 138 138
139 15 2 0 139 139
140 15 2 0 140 140
141 15 2 0 141 141
142 15 2 0 142 142
143 15 2 0 143 143
144 15 2 0 144 144
145 15 2 0 145 145
146 15 2 0 146 146
147 15 2 0 147 147
148 15 2 0 148 148
149 15 2 0 149 149
150 15 2 0 150 150
151 15 2 0 151 151
152 15 2 0 152 152
153 15 2 0 153 153
154 15 2 0 154 154
155 15 2 0 155 155
156 15 2 0 156 156
157 15 2 0 157 157
158 15 2 0 158 158
159 15 2 0 159 159
160 15 2 0 160 160
161 15 2 0 161 161
162 15 2 0 162 162
163 15 2 0 163 163
164 15 2 0 164 164
165 15 2 0 165 165
166 15 2 0 166 166
167 15 2 0 167 167
168 15 2 0 168 168
169 15 2 0 169 169
170 15 2 0 170 170
171 15 2 0 171 171
172 15 2 0 172 172
173 15 2 0 173 173
174 15 2 0 174 174
175 15 2 0 175 175
176 15 2 0 176 176
177 15 2 0 177 177
178 15 2 0 178 178
179 15 2 0 179 179
180 15 2 0 180 180
181 15 2 0 181 181
182 15 2 0 182 182
183 15 2 0 183 183
184 15 2 0 184 184
185 15 2 0 185 185
186 15 2 0 186 186
187 15 2 0 187 187
188 15 2 0 188 188
189 15 2 0 189 189
190 15 2 0 190 190
191 15 2 0 191 191
192 15 2 0 192 192
193 15 2 0 193 193
194 15 2 0 194 194
195 15 2 0 195 195
196 15 2 0 196 196
197 15 2 0 197 197
198 15 2 0 198 198
199 15 2 0 199 199
200 15 2 0 200 200
201 15 2 0 201 201
202 15 2 0 202 202
203 15 2 0 203 203
204 15 2 0 204 204
205 15 2 0 205 205
206 15 2 0 206 206
207 15 2 0 207 207
208 15 2 0 208 208
209 15 2 0 209 209
210 15 2 0 210 210
211 15 2 0 211 211
212 15 2 0 212 212
213 15 2 0 213 213
214 15 2 0 214 214
215 15 2 0 215 215
216 15 2 0 216 216
217 15 2 0 217 217
218 15 2 0 218 218
219 15 2 0 219 219
220 15 2 0 220 220
221 15 2 0 221 221
222 15 2 0 222 222
223 15 2 0 223 223
224 15 2 0 224 224
225 15 2 0 225 225
226 15 2 0 226 226
227 15 2 0 227 227
228 15 2 0 228 228
229 15 2 0 229 229
230 15 2 0 230 230
231 15 2 0 231 231
232 15 2 0 232 232
233 15 2 0 233 233
234 15 2 0 234 234
235 15 2 0 235 235
236 15 2 0 236 236
237 15 2 0 237 237
238 15 2 0 238 238
239 15 2 0 239 239
240 15 2 0 240 240
241 15 2 0 241 241
242 15 2 0 242 242
243 15 2 0 243 243
244 15 2 0 244 244
245 15 2 0 245 245
246 15 2 0 246 246
247 15 2 0 247 247
248 15 2 0 248 248
249 15 2 0 249 249
250 15 2 0 250 250
251 15 2 0 251 251
252 15 2 0 252 252
253 15 2 0 253 253
254 15 2 0 254 254
255 15 2 0 255 255
256 15 2 0 256 256
257 15 2 0 257 257
258 15 2 0 258 258
259 15 2 0 259 259
260 15 2 0 260 260
261 15 2 0 261 261
262 15 2 0 262 262
263 15 2 0 263 263
264 15 2 0 264 264
265 15 2 0 265 265
266 15 2 0 266 266
267 15 2 0 267 267
268 15 2 0 268 268
269 15 2 0 269 269
270 15 2 0 270 270
271 15 2 0 271 271
272 15 2 0 272 272
273 15 2 0 273 273
274 15 2 0 274 274
275 15 2 0 275 275
276 15 2 0 276 276
277 15 2 0 277 277
278 15 2 0 278 278
279 15 2 0 279 279
280 15 2 0 280 280
281 15 2 0 281 281
282 15 2 0 282 282
283 15 2 0 283 283
284 15 2 0 284 284
285 15 2 0 285 285
286 15 2 0 286 286
287 15 2 0 287 287
288 15 2 0 288 288
289 15 2 0 289 289
290 15 2 0 290 290
291 15 2 0 291 291
292 15 2 0 292 292
293 15 2 0 293 293
294 15 2 0 294 294
295 15 2 0 295 295
296 15 2 0 296 296
297 15 2 0 297 297
298 15 2 0 298 298
299 15 2 0 299 299
300 15 2 0 300 300
301 15 2 0 301 301
302 15 2 0 302 302
303 15 2 0 303 303
304 15 2 0 304 304
305 15 2 0 305 305
306 15 2 0 306 306
307 15 2 0 307 307
308 15 2 0 308 308
309 15 2 0 309 309
310 15 2 0 310 310
311 15 2 0 311 311
312 15 2 0 312 312
313 1 2 0 1 1 25
314 1 2 0 2 1 2
315 1 2 0 3 2 26
316 1 2 0 4 2 3
317 1 2 0 5 3 27
318 1 2 0 6 3 4
319 1 2 0 7 4 28
320 1 2 0 8 4 5
321 1 2 0 9 5 29
322 1 2 0 10 5 6
323 1 2 0 11 6 30
324 1 2 0 12 6 7
325 1 2 0 13 7 31
326 1 2 0 14 7 8
327 1 2 0 15 8 32
328 1 2 0 16 8 9
329 1 2 0 17 9 33
330 1 2 0 18 9 10
331 1 2 0 19 10 34
332 1 2 0 20 10 11
333 1 2 0 21 11 35
334 1 2 0 22 11 12
335 1 2 0 23 12 36
336 1 2 0 24 12 13
337 1 2 0 25 13 37
338 1 2 0 26 13 14
339 1 2 0 27 14 38
340 1 2 0 28 14 15
341 1 2 0 29 15 39
342 1 2 0 30 15 16
343 1 2 0 31 16 40
344 1 2 0 32 16 17
345 1 2 0 33 17 41
346 1 2 0 34 17 18
347 1 2 0 35 18 42
348 1 2 0 36 18 19
349 1 2 0 37 19 43
350 1 2 0 38 19 20
351 1 2 0 39 20 44
352 1 2 0 40 20 21
353 1 2 0 41 21 45
354 1 2 0 42 21 22
355 1 2 0 43 22 46
356 1 2 0 44 22 23
357 1 2 0 45 23 47
358 1 2 0 46 23 24
359 1 2 0 47 24 48
360 1 2 0 48 24 1
361 1 2 0 49 25 49
362 1 2 0 50 25 26
363 1 2 0 51 26 50
364 1 2 0 52 26 27
365 1 2 0 53 27 51
366 1 2 0 54 27 28
367 1 2 0 55 28 52
368 1 2 0 56 28 29
369 1 2 0 57 29 53
370 1 2 0 58 29 30
371 1 2 0 59 30 54
372 1 2 0 60 30 31
373 1 2 0 61 31 55
374 1 2 0 62 31 32
375 1 2 0 63 32 56
376 1 2 0 64 32 33
377 1 2 0 65 33 57
378 1 2 0 66 33 34
379 1 2 0 67 34 58
380 1 2 0 68 34 35
381 1 2 0 69 35 59
382 1 2 0 70 35 36
383 1 2 0 71 36 60
384 1 2 0 72 36 37
385 1 2 0 73 37 61
386 1 2 0 74 37 38
387 1 2 0 75 38 62
388 1 2 0 76 38 39
389 1 2 0 77 39 63
390 1 2 0 78 39 40
391 1 2 0 79 40 64
392 1 2 0 80 40 41
393 1 2 0 81 41 65
394 1 2 0 82 41 42
395 1 2 0 83 42 66
396 1 2 0 84 42 43
397 1 2 0 85 43 67
398 1 2 0 86 43 44
399 1 2 0 87 44 68
400 1 2 0 88 44 45
401 1 2 0 89 45 69
402 1 2 0 90 45 46
403 1 2 0 91 46 70
404 1 2 0 92 46 47
405 1 2 0 93 47 71
406 1 2 0 94 47 48
407 1 2 0 95 48 72
408 1 2 0 96 48 25
409 1 2 0 97 49 73
410 1 2 0 98 49 50
411 1 2 0 99 50 74
412 1 2 0 100 50 51
413 1 2 0 101 51 75
414 1 2 0 102 51 52
415 1 2 0 103 52 76
416 1 2 0 104 52 53
417 1 2 0 105 53 77
418 1 2 0 106 53 54
419 1 2 0 107 54 78
420 1 2 0 108 54 55
421 1 2 0 109 55 79
422 1 2 0 110 55 56
423 1 2 0 111 56 80
424 1 2 0 112 56 57
425 1 2 0 113 57 81
426 1 2 0 114 57 58
427 1 2 0 115 58 82
428 1 2 0 116 58 59
429 1 2 0 117 59 83
430 1 2 0 118 59 60
431 1 2 0 119 60 84
432 1 2 0 120 60 61
433 1 2 0 121 61 85
434 1 2 0 122 61 62
435 1 2 0 123 62 86
436 1 2 0 124 62 63
437 1 2 0 125 63 87
438 1 2 0 126 63 64
439 1 2 0 127 64 88
440 1 2 0 128 64 65
441 1 2 0 129 65 89
442 1 2 0 130 65 66
443 1 2 0 131 66 90
444 1 2 0 132 66 67
445 1 2 0 133 67 91
446 1 2 0 134 67 68
447 1 2 0 135 68 92
448 1 2 0 136 68 69
449 1 2 0 137 69 93
450 1 2 0 138 69 70
451 1 2 0 139 70 94
452 1 2 0 140 70 71
453 1 2 0 141 71 95
454 1 2 0 142 71 72
455 1 2 0 143 72 96
456 1 2 0 144 72 49
457 1 2 0 145 73 97
458 1 2 0 146 73 74
459 1 2 0 147 74 98
460 1 2 0 148 74 75
461 1 2 0 149 75 99
462 1 2 0 150 75 76
463 1 2 0 151 76 100
464 1 2 0 152 76 77
465 1 2 0 153 77 101
466 1 2 0 154 77 78
467 1 2 0 155 78 102
468 1 2 0 156 78 79
469 1 2 0 157 79 103
470 1 2 0 158 79 80
471 1 2 0 159 80 104
472 1 2 0 160 80 81
473 1 2 0 161 81 105
474 1 2 0 162 81 82
475 1 2 0 163 82 106
476 1 2 0 164 82 83
477 1 2 0 165 83 107
478 1 2 0 166 83 84
479 1 2 0 167 84 108
480 1 2 0 168 84 85
481 1 2 0 169 85 109
482 1 2 0 170 85 86
483 1 2 0 171 86 110
484 1 2 0 172 86 87
485 1 2 0 173 87 111
486 1 2 0 174 87 88
487 1 2 0 175 88 112
488 1 2 0 176 88 89
489 1 2 0 177 89 113
490 1 2 0 178 89 90
491 1 2 0 179 90 114
492 1 2 0 180 90 91
493 1 2 0 181 91 115
494 1 2 0 182 91 92
495 1 2 0 183 92 116
496 1 2 0 184 92 93
497 1 2 0 185 93 117
498 1 2 0 186 93 94
499 1 2 0 187 94 118
500 1 2 0 188 94 95
501 1 2 0 189 95 119
502 1 2 0 190 95 96
503 1 2 0 191 96 120
504 1 2 0 192 96 73
505 1 2 0 193 97 121
506 1 2 0 194 97 98
507 1 2 0 195 98 122
508 1 2 0 196 98 99
509 1 2 0 197 99 123
510 1 2 0 198 99 100
511 1 2 0 199 100 124
512 1 2 0 200 100 101
513 1 2 0 201 101 125
514 1 2 0 202 101 102
515 1 2 0 203 102 126
516 1 2 0 204 102 103
517 1 2 0 205 103 127
518 1 2 0 206 103 104
519 1 2 0 207 104 128
520 1 2 0 208 104 105
521 1 2 0 209 105 129
522 1 2 0 210 105 106
523 1 2 0 211 106 130
524 1 2 0 212 106 107
525 1 2 0 213 107 131
526 1 2 0 214 107 108
527 1 2 0 215 108 132
528 1 2 0 216 108 109
529 1 2 0 217 109 133
530 1 2 0 218 109 110
531 1 2 0 219 110 134
532 1 2 0 220 110 111
533 1 2 0 221 111 135
534 1 2 0 222 111 112
535 1 2 0 223 112 136
536 1 2 0 224 112 113
537 1 2 0 225 113 137
538 1 2 0 226 113 114
539 1 2 0 227 114 138
540 1 2 0 228 114 115
541 1 2 0 229 115 139
542 1 2 0 230 115 116
543 1 2 0 231 116 140
544 1 2 0 232 116 117
545 1 2 0 233 117 141
546 1 2 0 234 117 118
547 1 2 0 235 118 142
548 1 2 0 236 118 119
549 1 2 0 237 119 143
550 1 2 0 238 119 120
551 1 2 0 239 120 144
552 1 2 0 240 120 97
553 1 2 0 241 121 145
554 1 2 0 242 121 122
555 1 2 0 243 122 146
556 1 2 0 244 122 123
557 1 2 0 245 123 147
558 1 2 0 246 123 124
559 1 2 0 247 124 148
560 1 2 0 248 124 125
561 1 2 0 249 125 149
562 1 2 0 250 125 126
563 1 2 0 251 126 150
564 1 2 0 252 126 127
565 1 2 0 253 127 151
566 1 2 0 254 127 128
567 1 2 0 255 128 152
568 1 2 0 256 128 129
569 1 2 0 257 129 153
570 1 2 0 258 129 130
571 1 2 0 259 130 154
572 1 2 0 260 130 131
573 1 2 0 261 131 155
574 1 2 0 262 131 132
575 1 2 0 263 132 156
576 1 2 0 264 132 133
577 1 2 0 265 133 157
578 1 2 0 266 133 134
579 1 2 0 267 134 158
580 1 2 0 268 134 135
581 1 2 0 269 135 159
582 1 2 0 270 135 136
583 1 2 0 271 136 160
584 1 2 0 272 136 137
585 1 2 0 273 137 161
586 1 2 0 274 137 138
587 1 2 0 275 138 162
588 1 2 0 276 138 139
589 1 2 0 277 139 163
590 1 2 0 278 139 140
591 1 2 0 279 140 164
592 1 2 0 280 140 141
593 1 2 0 281 141 165
594 1 2 0 282 141 142
595 1 2 0 283 142 166
596 1 2 0 284 142 143
597 1 2 0 285 143 167
598 1 2 0 286 143 144
599 1 2 0 287 144 168
600 1 2 0 288 144 121
601 1 2 0 289 145 169
602 1 2 0 290 145 146
603 1 2 0 291 146 170
604 1 2 0 292 146 147
605 1 2 0 293 147 171
606 1 2 0 294 147 148
607 1 2 0 295 148 172
608 1 2 0 296 148 149
609 1 2 0 297 149 173
610 1 2 0 298 149 150
611 1 2 0 299 150 174
612 1 2 0 300 150 151
613 1 2 0 301 151 175
614 1 2 0 302 151 152
615 1 2 0 303 152 176
616 1 2 0 304 152 153
617 1 2 0 305 153 177
618 1 2 0 306 153 154
619 1 2 0 307 154 178
620 1 2 0 308 154 155
621 1 2 0 309 155 179
622 1 2 0 310 155 156
623 1 2 0 311 156 180
624 1 2 0 312 156 157
625 1 2 0 313 157 181
626 1 2 0 314 157 158
627 1 2 0 315 158 182
628 1 2 0 316 158 159
629 1 2 0 317 159 183
630 1 2 0 318 159 160
631 1 2 0 319 160 184
632 1 2 0 320 160 161
633 1 2 0 321 161 185
634 1 2 0 322 161 162
635 1 2 0 323 162 186
636 1 2 0 324 162 163
637 1 2 0 325 163 187
638 1 2 0 326 163 164
639 1 2 0 327 164 188
640 1 2 0 328 164 165
641 1 2 0 329 165 189
642 1 2 0 330 165 166
643 1 2 0 331 166 190
644 1 2 0 332 166 167
645 1 2 0 333 167 191
646 1 2 0 334 167 168
647 1 2 0 335 168 192
648 1 2 0 336 168 145
649 1 2 0 337 169 193
650 1 2 0 338 169 313
651 1 2 0 338 313 170
652 1 2 0 339 170 314
653 1 2 0 339 314 194
654 1 2 0 340 170 171
655 1 2 0 341 171 315
656 1 2 0 341 315 195
657 1 2 0 342 171 172
658 1 2 0 343 172 316
659 1 2 0 343 316 196
660 1 2 0 344 172 173
661 1 2 0 345 173 317
662 1 2 0 345 317 197
663 1 2 0 346 173 174
664 1 2 0 347 174 318
665 1 2 0 347 318 198
666 1 2 0 348 174 319
667 1 2 0 348 319 175
668 1 2 0 349 175 199
669 1 2 0 350 175 320
670 1 2 0 350 320 176
671 1 2 0 351 176 321
672 1 2 0 351 321 200
673 1 2 0 352 176 177
674 1 2 0 353 177 322
675 1 2 0 353 322 201
676 1 2 0 354 177 178
677 1 2 0 355 178 323
678 1 2 0 355 323 202
679 1 2 0 356 178 179
680 1 2 0 357 179 324
681 1 2 0 357 324 203
682 1 2 0 358 179 180
683 1 2 0 359 180 325
684 1 2 0 359 325 204
685 1 2 0 360 180 326
686 1 2 0 360 326 181
687 1 2 0 361 181 205
688 1 2 0 362 181 327
689 1 2 0 362 327 182
690 1 2 0 363 182 328
691 1 2 0 363 328 206
692 1 2 0 364 182 183
693 1 2 0 365 183 329
694 1 2 0 365 329 207
695 1 2 0 366 183 184
696 1 2 0 367 184 330
697 1 2 0 367 330 208
698 1 2 0 368 184 185
699 1 2 0 369 185 331
700 1 2 0 369 331 209
701 1 2 0 370 185 186
702 1 2 0 371 186 332
703 1 2 0 371 332 210
704 1 2 0 372 186 333
705 1 2 0 372 333 187
706 1 2 0 373 187 211
707 1 2 0 374 187 334
708 1 2 0 374 334 188
709 1 2 0 375 188 335
710 1 2 0 375 335 212
711 1 2 0 376 188 189
712 1 2 0 377 189 336
713 1 2 0 377 336 213
714 1 2 0 378 189 190
715 1 2 0 379 190 337
716 1 2 0 379 337 214
717 1 2 0 380 190 191
718 1 2 0 381 191 338
719 1 2 0 381 338 215
720 1 2 0 382 191 192
721 1 2 0 383 192 339
722 1 2 0 383 339 216
723 1 2 0 384 192 340
724 1 2 0 384 340 169
725 1 2 0 385 193 341
726 1 2 0 385 341 217
727 1 2 0 386 193 342
728 1 2 0 386 342 343
729 1 2 0 386 343 194
730 1 2 0 387 194 344
731 1 2 0 387 344 218
732 1 2 0 388 194 195
733 1 2 0 389 195 345
734 1 2 0 389 345 219
735 1 2 0 390 195 196
736 1 2 0 391 196 346
737 1 2 0 391 346 220
738 1 2 0 392 196 197
739 1 2 0 393 197 347
740 1 2 0 393 347 221
741 1 2 0 394 197 198
742 1 2 0 395 198 348
743 1 2 0 395 348 222
744 1 2 0 396 198 349
745 1 2 0 396 349 350
746 1 2 0 396 350 199
747 1 2 0 397 199 223
748 1 2 0 398 199 351
749 1 2 0 398 351 352
750 1 2 0 398 352 200
751 1 2 0 399 200 353
752 1 2 0 399 353 224
753 1 2 0 400 200 201
754 1 2 0 401 201 354
755 1 2 0 401 354 225
756 1 2 0 402 201 202
757 1 2 0 403 202 355
758 1 2 0 403 355 226
759 1 2 0 404 202 203
760 1 2 0 405 203 356
761 1 2 0 405 356 227
762 1 2 0 406 203 204
763 1 2 0 407 204 357
764 1 2 0 407 357 228
765 1 2 0 408 204 358
766 1 2 0 408 358 359
767 1 2 0 408 359 205
768 1 2 0 409 205 360
769 1 2 0 409 360 229
770 1 2 0 410 205 361
771 1 2 0 410 361 362
772 1 2 0 410 362 206
773 1 2 0 411 206 363
774 1 2 0 411 363 230
775 1 2 0 412 206 207
776 1 2 0 413 207 364
777 1 2 0 413 364 231
778 1 2 0 414 207 208
779 1 2 0 415 208 365
780 1 2 0 415 365 232
781 1 2 0 416 208 209
782 1 2 0 417 209 366
783 1 2 0 417 366 233
784 1 2 0 418 209 210
785 1 2 0 419 210 367
786 1 2 0 419 367 234
787 1 2 0 420 210 368
788 1 2 0 420 368 369
789 1 2 0 420 369 211
790 1 2 0 421 211 235
791 1 2 0 422 211 370
792 1 2 0 422 370 371
793 1 2 0 422 371 212
794 1 2 0 423 212 372
795 1 2 0 423 372 236
796 1 2 0 424 212 213
797 1 2 0 425 213 373
798 1 2 0 425 373 237
799 1 2 0 426 213 214
800 1 2 0 427 214 374
801 1 2 0 427 374 238
802 1 2 0 428 214 215
803 1 2 0 429 215 375
804 1 2 0 429 375 239
805 1 2 0 430 215 216
806 1 2 0 431 216 376
807 1 2 0 431 376 240
808 1 2 0 432 216 377
809 1 2 0 432 377 378
810 1 2 0 432 378 193
811 1 2 0 433 217 241
812 1 2 0 434 217 379
813 1 2 0 434 379 380
814 1 2 0 434 380 218
815 1 2 0 435 218 381
816 1 2 0 435 381 242
817 1 2 0 436 218 219
818 1 2 0 437 219 382
819 1 2 0 437 382 243
820 1 2 0 438 219 220
821 1 2 0 439 220 383
822 1 2 0 439 383 244
823 1 2 0 440 220 221
824 1 2 0 441 221 384
825 1 2 0 441 384 245
826 1 2 0 442 221 222
827 1 2 0 443 222 385
828 1 2 0 443 385 246
829 1 2 0 444 222 386
830 1 2 0 444 386 387
831 1 2 0 444 387 388
832 1 2 0 444 388 223
833 1 2 0 445 223 247
834 1 2 0 446 223 389
835 1 2 0 446 389 390
836 1 2 0 446 390 391
837 1 2 0 446 391 224
838 1 2 0 447 224 392
839 1 2 0 447 392 248
840 1 2 0 448 224 225
841 1 2 0 449 225 393
842 1 2 0 449 393 249
843 1 2 0 450 225 226
844 1 2 0 451 226 394
845 1 2 0 451 394 250
846 1 2 0 452 226 227
847 1 2 0 453 227 395
848 1 2 0 453 395 251
849 1 2 0 454 227 228
850 1 2 0 455 228 396
851 1 2 0 455 396 252
852 1 2 0 456 228 397
853 1 2 0 456 397 398
854 1 2 0 456 398 229
855 1 2 0 457 229 253
856 1 2 0 458 229 399
857 1 2 0 458 399 400
858 1 2 0 458 400 230
859 1 2 0 459 230 401
860 1 2 0 459 401 254
861 1 2 0 460 230 231
862 1 2 0 461 231 402
863 1 2 0 461 402 255
864 1 2 0 462 231 232
865 1 2 0 463 232 403
866 1 2 0 463 403 256
867 1 2 0 464 232 233
868 1 2 0 465 233 404
869 1 2 0 465 404 257
870 1 2 0 466 233 234
871 1 2 0 467 234 405
872 1 2 0 467 405 258
873 1 2 0 468 234 406
874 1 2 0 468 406 407
875 1 2 0 468 407 408
876 1 2 0 468 408 235
877 1 2 0 469 235 259
878 1 2 0 470 235 409
879 1 2 0 470 409 410
880 1 2 0 470 410 411
881 1 2 0 470 411 236
882 1 2 0 471 236 412
883 1 2 0 471 412 260
884 1 2 0 472 236 237
885 1 2 0 473 237 413
886 1 2 0 473 413 261
887 1 2 0 474 237 238
888 1 2 0 475 238 414
889 1 2 0 475 414 262
890 1 2 0 476 238 239
891 1 2 0 477 239 415
892 1 2 0 477 415 263
893 1 2 0 478 239 240
894 1 2 0 479 240 416
895 1 2 0 479 416 264
896 1 2 0 480 240 417
897 1 2 0 480 417 418
898 1 2 0 480 418 217
899 1 2 0 481 241 265
900 1 2 0 482 241 419
901 1 2 0 482 419 420
902 1 2 0 482 420 421
903 1 2 0 482 421 242
904 1 2 0 483 242 266
905 1 2 0 484 242 243
906 1 2 0 485 243 267
907 1 2 0 486 243 244
908 1 2 0 487 244 268
909 1 2 0 488 244 245
910 1 2 0 489 245 269
911 1 2 0 490 245 246
912 1 2 0 491 246 422
913 1 2 0 491 422 270
914 1 2 0 492 246 423
915 1 2 0 492 423 424
916 1 2 0 492 424 425
917 1 2 0 492 425 426
918 1 2 0 492 426 247
919 1 2 0 493 247 271
920 1 2 0 494 247 427
921 1 2 0 494 427 428
922 1 2 0 494 428 429
923 1 2 0 494 429 430
924 1 2 0 494 430 248
925 1 2 0 495 248 431
926 1 2 0 495 431 272
927 1 2 0 496 248 249
928 1 2 0 497 249 273
929 1 2 0 498 249 250
930 1 2 0 499 250 274
931 1 2 0 500 250 251
932 1 2 0 501 251 275
933 1 2 0 502 251 252
934 1 2 0 503 252 276
935 1 2 0 504 252 432
936 1 2 0 504 432 433
937 1 2 0 504 433 434
938 1 2 0 504 434 253
939 1 2 0 505 253 277
940 1 2 0 506 253 435
941 1 2 0 506 435 436
942 1 2 0 506 436 437
943 1 2 0 506 437 254
944 1 2 0 507 254 278
945 1 2 0 508 254 255
946 1 2 0 509 255 279
947 1 2 0 510 255 256
948 1 2 0 511 256 280
949 1 2 0 512 256 257
950 1 2 0 513 257 281
951 1 2 0 514 257 258
952 1 2 0 515 258 438
953 1 2 0 515 438 282
954 1 2 0 516 258 439
955 1 2 0 516 439 440
956 1 2 0 516 440 441
957 1 2 0 516 441 442
958 1 2 0 516 442 259
959 1 2 0 517 259 283
960 1 2 0 518 259 443
961 1 2 0 518 443 444
962 1 2 0 518 444 445
963 1 2 0 518 445 446
964 1 2 0 518 446 260
965 1 2 0 519 260 447
966 1 2 0 519 447 284
967 1 2 0 520 260 261
968 1 2 0 521 261 285
969 1 2 0 522 261 262
970 1 2 0 523 262 286
971 1 2 0 524 262 263
972 1 2 0 525 263 287
973 1 2 0 526 263 264
974 1 2 0 527 264 288
975 1 2 0 528 264 448
976 1 2 0 528 448 449
977 1 2 0 528 449 450
978 1 2 0 528 450 241
979 1 2 0 529 265 289
980 1 2 0 530 265 451
981 1 2 0 530 451 452
982 1 2 0 530 452 453
983 1 2 0 530 453 454
984 1 2 0 530 454 266
985 1 2 0 531 266 290
986 1 2 0 532 266 267
987 1 2 0 533 267 291
988 1 2 0 534 267 268
989 1 2 0 535 268 292
990 1 2 0 536 268 269
991 1 2 0 537 269 293
992 1 2 0 538 269 270
993 1 2 0 539 270 294
994 1 2 0 540 270 455
995 1 2 0 540 455 456
996 1 2 0 540 456 457
997 1 2 0 540 457 458
998 1 2 0 540 458 271
999 1 2 0 541 271 295
1000 1 2 0 542 271 459
1001 1 2 0 542 459 460
1002 1 2 0 542 460 461
1003 1 2 0 542 461 462
1004 1 2 0 542 462 272
1005 1 2 0 543 272 296
1006 1 2 0 544 272 273
1007 1 2 0 545 273 297
1008 1 2 0 546 273 274
1009 1 2 0 547 274 298
1010 1 2 0 548 274 275
1011 1 2 0 549 275 299
1012 1 2 0 550 275 276
1013 1 2 0 551 276 300
1014 1 2 0 552 276 463
1015 1 2 0 552 463 464
1016 1 2 0 552 464 465
1017 1 2 0 552 465 466
1018 1 2 0 552 466 277
1019 1 2 0 553 277 301
1020 1 2 0 554 277 467
1021 1 2 0 554 467 468
1022 1 2 0 554 468 469
1023 1 2 0 554 469 470
1024 1 2 0 554 470 278
1025 1 2 0 555 278 302
1026 1 2 0 556 278 279
1027 1 2 0 557 279 303
1028 1 2 0 558 279 280
1029 1 2 0 559 280 304
1030 1 2 0 560 280 281
1031 1 2 0 561 281 305
1032 1 2 0 562 281 282
1033 1 2 0 563 282 306
1034 1 2 0 564 282 471
1035 1 2 0 564 471 472
1036 1 2 0 564 472 473
1037 1 2 0 564 473 474
1038 1 2 0 564 474 283
1039 1 2 0 565 283 307
1040 1 2 0 566 283 475
1041 1 2 0 566 475 476
1042 1 2 0 566 476 477
1043 1 2 0 566 477 478
1044 1 2 0 566 478 284
1045 1 2 0 567 284 308
1046 1 2 0 568 284 285
1047 1 2 0 569 285 309
1048 1 2 0 570 285 286
1049 1 2 0 571 286 310
1050 1 2 0 572 286 287
1051 1 2 0 573 287 311
1052 1 2 0 574 287 288
1053 1 2 0 575 288 312
1054 1 2 0 576 288 479
1055 1 2 0 576 479 480
1056 1 2 0 576 480 481
1057 1 2 0 576 481 482
1058 1 2 0 576 482 265
1059 1 2 0 578 289 483
1060 1 2 0 578 483 484
1061 1 2 0 578 484 485
1062 1 2 0 578 485 486
1063 1 2 0 578 486 290
1064 1 2 0 580 290 291
1065 1 2 0 582 291 292
1066 1 2 0 584 292 293
1067 1 2 0 586 293 294
1068 1 2 0 588 294 487
1069 1 2 0 588 487 488
1070 1 2 0 588 488 489
1071 1 2 0 588 489 490
1072 1 2 0 588 490 491
1073 1 2 0 588 491 295
1074 1 2 0 590 295 492
1075 1 2 0 590 492 493
1076 1 2 0 590 493 494
1077 1 2 0 590 494 495
1078 1 2 0 590 495 496
1079 1 2 0 590 496 296
1080 1 2 0 592 296 297
1081 1 2 0 594 297 298
1082 1 2 0 596 298 299
1083 1 2 0 598 299 300
1084 1 2 0 600 300 497
1085 1 2 0 600 497 498
1086 1 2 0 600 498 499
1087 1 2 0 600 499 500
1088 1 2 0 600 500 301
1089 1 2 0 602 301 501
1090 1 2 0 602 501 502
1091 1 2 0 602 502 503
1092 1 2 0 602 503 504
1093 1 2 0 602 504 302
1094 1 2 0 604 302 303
1095 1 2 0 606 303 304
1096 1 2 0 608 304 305
1097 1 2 0 610 305 306
1098 1 2 0 612 306 505
1099 1 2 0 612 505 506
1100 1 2 0 612 506 507
1101 1 2 0 612 507 508
1102 1 2 0 612 508 509
1103 1 2 0 612 509 307
1104 1 2 0 614 307 510
1105 1 2 0 614 510 511
1106 1 2 0 614 511 512
1107 1 2 0 614 512 513
1108 1 2 0 614 513 514
1109 1 2 0 614 514 308
1110 1 2 0 616 308 309
1111 1 2 0 618 309 310
1112 1 2 0 620 310 311
1113 1 2 0 622 311 312
1114 1 2 0 624 312 515
1115 1 2 0 624 515 516
1116 1 2 0 624 516 517
1117 1 2 0 624 517 518
1118 1 2 0 624 518 289
1119 2 2 0 38 26 2 519
1120 2 2 0 38 1 25 519
1121 2 2 0 38 2 1 519
1122 2 2 0 38 25 26 519
1123 2 2 0 39 26 3 2
1124 2 2 0 39 27 3 26
1125 2 2 0 40 28 4 3
1126 2 2 0 40 27 28 3
1127 2 2 0 41 29 5 4
1128 2 2 0 41 28 29 4
1129 2 2 0 42 30 6 5
1130 2 2 0 42 29 30 5
1131 2 2 0 43 6 30 520
1132 2 2 0 43 31 7 520
1133 2 2 0 43 7 6 520
1134 2 2 0 43 30 31 520
1135 2 2 0 44 32 8 521
1136 2 2 0 44 7 31 521
1137 2 2 0 44 8 7 521
1138 2 2 0 44 31 32 521
1139 2 2 0 45 32 9 8
1140 2 2 0 45 33 9 32
1141 2 2 0 46 33 10 9
1142 2 2 0 46 34 10 33
1143 2 2 0 47 34 11 10
1144 2 2 0 47 35 11 34
1145 2 2 0 48 36 12 11
1146 2 2 0 48 35 36 11
1147 2 2 0 49 12 36 522
1148 2 2 0 49 37 13 522
1149 2 2 0 49 13 12 522
1150 2 2 0 49 36 37 522
1151 2 2 0 50 38 14 523
1152 2 2 0 50 13 37 523
1153 2 2 0 50 14 13 523
1154 2 2 0 50 37 38 523
1155 2 2 0 51 38 15 14
1156 2 2 0 51 39 15 38
1157 2 2 0 52 40 16 15
1158 2 2 0 52 39 40 15
1159 2 2 0 53 41 17 16
1160 2 2 0 53 40 41 16
1161 2 2 0 54 42 18 17
1162 2 2 0 54 41 42 17
1163 2 2 0 55 18 42 524
1164 2 2 0 55 43 19 524
1165 2 2 0 55 19 18 524
1166 2 2 0 55 42 43 524
1167 2 2 0 56 44 20 525
1168 2 2 0 56 19 43 525
1169 2 2 0 56 20 19 525
1170 2 2 0 56 43 44 525
1171 2 2 0 57 44 21 20
1172 2 2 0 57 45 21 44
1173 2 2 0 58 45 22 21
1174 2 2 0 58 46 22 45
1175 2 2 0 59 46 23 22
1176 2 2 0 59 47 23 46
1177 2 2 0 60 48 24 23
1178 2 2 0 60 47 48 23
1179 2 2 0 61 24 48 526
1180 2 2 0 61 25 1 526
1181 2 2 0 61 1 24 526
1182 2 2 0 61 48 25 526
1183 2 2 0 62 49 50 527
1184 2 2 0 62 50 26 527
1185 2 2 0 62 25 49 527
1186 2 2 0 62 26 25 527
1187 2 2 0 63 51 27 50
1188 2 2 0 63 50 27 26
1189 2 2 0 64 52 28 27
1190 2 2 0 64 51 52 27
1191 2 2 0 65 52 53 28
1192 2 2 0 65 53 29 28
1193 2 2 0 66 54 30 29
1194 2 2 0 66 53 54 29
1195 2 2 0 67 54 55 528
1196 2 2 0 67 31 30 528
1197 2 2 0 67 30 54 528
1198 2 2 0 67 55 31 528
1199 2 2 0 68 55 56 529
1200 2 2 0 68 32 31 529
1201 2 2 0 68 56 32 529
1202 2 2 0 68 31 55 529
1203 2 2 0 69 56 33 32
1204 2 2 0 69 57 33 56
1205 2 2 0 70 57 34 33
1206 2 2 0 70 58 34 57
1207 2 2 0 71 58 35 34
1208 2 2 0 71 59 35 58
1209 2 2 0 72 59 60 35
1210 2 2 0 72 60 36 35
1211 2 2 0 73 60 61 530
1212 2 2 0 73 36 60 530
1213 2 2 0 73 61 37 530
1214 2 2 0 73 37 36 530
1215 2 2 0 74 61 62 531
1216 2 2 0 74 62 38 531
1217 2 2 0 74 37 61 531
1218 2 2 0 74 38 37 531
1219 2 2 0 75 63 39 62
1220 2 2 0 75 62 39 38
1221 2 2 0 76 64 40 39
1222 2 2 0 76 63 64 39
1223 2 2 0 77 64 65 40
1224 2 2 0 77 65 41 40
1225 2 2 0 78 66 42 41
1226 2 2 0 78 65 66 41
1227 2 2 0 79 66 67 532
1228 2 2 0 79 43 42 532
1229 2 2 0 79 42 66 532
1230 2 2 0 79 67 43 532
1231 2 2 0 80 67 68 533
1232 2 2 0 80 44 43 533
1233 2 2 0 80 68 44 533
1234 2 2 0 80 43 67 533
1235 2 2 0 81 68 45 44
1236 2 2 0 81 69 45 68
1237 2 2 0 82 69 46 45
1238 2 2 0 82 70 46 69
1239 2 2 0 83 70 47 46
1240 2 2 0 83 71 47 70
1241 2 2 0 84 71 72 47
1242 2 2 0 84 72 48 47
1243 2 2 0 85 72 49 534
1244 2 2 0 85 48 72 534
1245 2 2 0 85 49 25 534
1246 2 2 0 85 25 48 534
1247 2 2 0 86 74 50 535
1248 2 2 0 86 49 73 535
1249 2 2 0 86 73 74 535
1250 2 2 0 86 50 49 535
1251 2 2 0 87 74 51 50
1252 2 2 0 87 74 75 51
1253 2 2 0 88 76 52 51
1254 2 2 0 88 75 76 51
1255 2 2 0 89 52 77 53
1256 2 2 0 89 76 77 52
1257 2 2 0 90 53 78 54
1258 2 2 0 90 77 78 53
1259 2 2 0 91 54 78 536
1260 2 2 0 91 78 79 536
1261 2 2 0 91 79 55 536
1262 2 2 0 91 55 54 536
1263 2 2 0 92 80 56 537
1264 2 2 0 92 79 80 537
1265 2 2 0 92 55 79 537
1266 2 2 0 92 56 55 537
1267 2 2 0 93 80 57 56
1268 2 2 0 93 80 81 57
1269 2 2 0 94 81 58 57
1270 2 2 0 94 81 82 58
1271 2 2 0 95 82 59 58
1272 2 2 0 95 83 59 82
1273 2 2 0 96 84 60 59
1274 2 2 0 96 83 84 59
1275 2 2 0 97 60 84 538
1276 2 2 0 97 85 61 538
1277 2 2 0 97 84 85 538
1278 2 2 0 97 61 60 538
1279 2 2 0 98 86 62 539
1280 2 2 0 98 61 85 539
1281 2 2 0 98 85 86 539
1282 2 2 0 98 62 61 539
1283 2 2 0 99 86 63 62
1284 2 2 0 99 86 87 63
1285 2 2 0 100 88 64 63
1286 2 2 0 100 87 88 63
1287 2 2 0 101 64 89 65
1288 2 2 0 101 88 89 64
1289 2 2 0 102 65 90 66
1290 2 2 0 102 89 90 65
1291 2 2 0 103 66 90 540
1292 2 2 0 103 90 91 540
1293 2 2 0 103 91 67 540
1294 2 2 0 103 67 66 540
1295 2 2 0 104 92 68 541
1296 2 2 0 104 91 92 541
1297 2 2 0 104 67 91 541
1298 2 2 0 104 68 67 541
1299 2 2 0 105 92 69 68
1300 2 2 0 105 92 93 69
1301 2 2 0 106 93 70 69
1302 2 2 0 106 93 94 70
1303 2 2 0 107 94 71 70
1304 2 2 0 107 95 71 94
1305 2 2 0 108 96 72 71
1306 2 2 0 108 95 96 71
1307 2 2 0 109 72 96 542
1308 2 2 0 109 73 49 542
1309 2 2 0 109 96 73 542
1310 2 2 0 109 49 72 542
1311 2 2 0 110 98 74 543
1312 2 2 0 110 73 97 543
1313 2 2 0 110 97 98 543
1314 2 2 0 110 74 73 543
1315 2 2 0 111 98 75 74
1316 2 2 0 111 98 99 75
1317 2 2 0 112 100 76 75
1318 2 2 0 112 99 100 75
1319 2 2 0 113 76 101 77
1320 2 2 0 113 100 101 76
1321 2 2 0 114 77 102 78
1322 2 2 0 114 101 102 77
1323 2 2 0 115 78 102 544
1324 2 2 0 115 103 79 544
1325 2 2 0 115 102 103 544
1326 2 2 0 115 79 78 544
1327 2 2 0 116 104 80 545
1328 2 2 0 116 79 103 545
1329 2 2 0 116 103 104 545
1330 2 2 0 116 80 79 545
1331 2 2 0 117 104 81 80
1332 2 2 0 117 104 105 81
1333 2 2 0 118 105 82 81
1334 2 2 0 118 105 106 82
1335 2 2 0 119 106 83 82
1336 2 2 0 119 107 83 106
1337 2 2 0 120 83 108 84
1338 2 2 0 120 107 108 83
1339 2 2 0 121 84 108 546
1340 2 2 0 121 109 85 546
1341 2 2 0 121 108 109 546
1342 2 2 0 121 85 84 546
1343 2 2 0 122 110 86 547
1344 2 2 0 122 85 109 547
1345 2 2 0 122 109 110 547
1346 2 2 0 122 86 85 547
1347 2 2 0 123 110 87 86
1348 2 2 0 123 110 111 87
1349 2 2 0 124 112 88 87
1350 2 2 0 124 111 112 87
1351 2 2 0 125 88 113 89
1352 2 2 0 125 112 113 88
1353 2 2 0 126 89 114 90
1354 2 2 0 126 113 114 89
1355 2 2 0 127 90 114 548
1356 2 2 0 127 115 91 548
1357 2 2 0 127 114 115 548
1358 2 2 0 127 91 90 548
1359 2 2 0 128 116 92 549
1360 2 2 0 128 91 115 549
1361 2 2 0 128 115 116 549
1362 2 2 0 128 92 91 549
1363 2 2 0 129 116 93 92
1364 2 2 0 129 116 117 93
1365 2 2 0 130 117 94 93
1366 2 2 0 130 117 118 94
1367 2 2 0 131 118 95 94
1368 2 2 0 131 119 95 118
1369 2 2 0 132 95 120 96
1370 2 2 0 132 119 120 95
1371 2 2 0 133 96 120 550
1372 2 2 0 133 97 73 550
1373 2 2 0 133 120 97 550
1374 2 2 0 133 73 96 550
1375 2 2 0 134 122 98 551
1376 2 2 0 134 97 121 551
1377 2 2 0 134 121 122 551
1378 2 2 0 134 98 97 551
1379 2 2 0 135 122 99 98
1380 2 2 0 135 122 123 99
1381 2 2 0 136 124 100 99
1382 2 2 0 136 123 124 99
1383 2 2 0 137 100 125 101
1384 2 2 0 137 124 125 100
1385 2 2 0 138 101 126 102
1386 2 2 0 138 125 126 101
1387 2 2 0 139 126 127 552
1388 2 2 0 139 102 126 552
1389 2 2 0 139 127 103 552
1390 2 2 0 139 103 102 552
1391 2 2 0 140 127 128 553
1392 2 2 0 140 128 104 553
1393 2 2 0 140 103 127 553
1394 2 2 0 140 104 103 553
1395 2 2 0 141 128 105 104
1396 2 2 0 141 128 129 105
1397 2 2 0 142 129 106 105
1398 2 2 0 142 129 130 106
1399 2 2 0 143 130 107 106
1400 2 2 0 143 131 107 130
1401 2 2 0 144 107 132 108
1402 2 2 0 144 131 132 107
1403 2 2 0 145 108 132 554
1404 2 2 0 145 133 109 554
1405 2 2 0 145 132 133 554
1406 2 2 0 145 109 108 554
1407 2 2 0 146 134 110 555
1408 2 2 0 146 109 133 555
1409 2 2 0 146 133 134 555
1410 2 2 0 146 110 109 555
1411 2 2 0 147 134 111 110
1412 2 2 0 147 134 135 111
1413 2 2 0 148 136 112 111
1414 2 2 0 148 135 136 111
1415 2 2 0 149 112 137 113
1416 2 2 0 149 136 137 112
1417 2 2 0 150 113 138 114
1418 2 2 0 150 137 138 113
1419 2 2 0 151 138 139 556
1420 2 2 0 151 114 138 556
1421 2 2 0 151 139 115 556
1422 2 2 0 151 115 114 556
1423 2 2 0 152 139 140 557
1424 2 2 0 152 140 116 557
1425 2 2 0 152 115 139 557
1426 2 2 0 152 116 115 557
1427 2 2 0 153 140 117 116
1428 2 2 0 153 140 141 117
1429 2 2 0 154 141 118 117
1430 2 2 0 154 141 142 118
1431 2 2 0 155 142 119 118
1432 2 2 0 155 143 119 142
1433 2 2 0 156 119 144 120
1434 2 2 0 156 143 144 119
1435 2 2 0 157 120 144 558
1436 2 2 0 157 121 97 558
1437 2 2 0 157 144 121 558
1438 2 2 0 157 97 120 558
1439 2 2 0 158 145 146 559
1440 2 2 0 158 146 122 559
1441 2 2 0 158 121 145 559
1442 2 2 0 158 122 121 559
1443 2 2 0 159 146 123 122
1444 2 2 0 159 146 147 123
1445 2 2 0 160 148 124 123
1446 2 2 0 160 147 148 123
1447 2 2 0 161 124 149 125
1448 2 2 0 161 148 149 124
1449 2 2 0 162 125 150 126
1450 2 2 0 162 149 150 125
1451 2 2 0 163 126 150 560
1452 2 2 0 163 151 127 560
1453 2 2 0 163 127 126 560
1454 2 2 0 163 150 151 560
1455 2 2 0 164 152 128 561
1456 2 2 0 164 127 151 561
1457 2 2 0 164 128 127 561
1458 2 2 0 164 151 152 561
1459 2 2 0 165 152 129 128
1460 2 2 0 165 152 153 129
1461 2 2 0 166 153 130 129
1462 2 2 0 166 153 154 130
1463 2 2 0 167 154 131 130
1464 2 2 0 167 155 131 154
1465 2 2 0 168 131 156 132
1466 2 2 0 168 155 156 131
1467 2 2 0 169 156 157 562
1468 2 2 0 169 132 156 562
1469 2 2 0 169 157 133 562
1470 2 2 0 169 133 132 562
1471 2 2 0 170 157 158 563
1472 2 2 0 170 158 134 563
1473 2 2 0 170 133 157 563
1474 2 2 0 170 134 133 563
1475 2 2 0 171 158 135 134
1476 2 2 0 171 158 159 135
1477 2 2 0 172 160 136 135
1478 2 2 0 172 159 160 135
1479 2 2 0 173 136 161 137
1480 2 2 0 173 160 161 136
1481 2 2 0 174 137 162 138
1482 2 2 0 174 161 162 137
1483 2 2 0 175 138 162 564
1484 2 2 0 175 163 139 564
1485 2 2 0 175 139 138 564
1486 2 2 0 175 162 163 564
1487 2 2 0 176 164 140 565
1488 2 2 0 176 139 163 565
1489 2 2 0 176 140 139 565
1490 2 2 0 176 163 164 565
1491 2 2 0 177 164 141 140
1492 2 2 0 177 164 165 141
1493 2 2 0 178 165 142 141
1494 2 2 0 178 165 166 142
1495 2 2 0 179 166 143 142
1496 2 2 0 179 167 143 166
1497 2 2 0 180 143 168 144
1498 2 2 0 180 167 168 143
1499 2 2 0 181 168 145 566
1500 2 2 0 181 144 168 566
1501 2 2 0 181 145 121 566
1502 2 2 0 181 121 144 566
1503 2 2 0 182 146 313 170
1504 2 2 0 182 313 146 567
1505 2 2 0 182 146 145 567
1506 2 2 0 182 145 169 567
1507 2 2 0 182 169 313 567
1508 2 2 0 183 170 147 146
1509 2 2 0 183 170 171 147
1510 2 2 0 184 172 148 147
1511 2 2 0 184 171 172 147
1512 2 2 0 185 148 173 149
1513 2 2 0 185 172 173 148
1514 2 2 0 186 149 174 150
1515 2 2 0 186 173 174 149
1516 2 2 0 187 175 151 319
1517 2 2 0 187 174 319 150
1518 2 2 0 187 319 151 150
1519 2 2 0 188 175 320 151
1520 2 2 0 188 176 152 320
1521 2 2 0 188 320 152 151
1522 2 2 0 189 176 153 152
1523 2 2 0 189 176 177 153
1524 2 2 0 190 177 154 153
1525 2 2 0 190 177 178 154
1526 2 2 0 191 178 155 154
1527 2 2 0 191 179 155 178
1528 2 2 0 192 155 180 156
1529 2 2 0 192 179 180 155
1530 2 2 0 193 180 326 156
1531 2 2 0 193 156 326 568
1532 2 2 0 193 157 156 568
1533 2 2 0 193 181 157 568
1534 2 2 0 193 326 181 568
1535 2 2 0 194 158 327 182
1536 2 2 0 194 327 158 569
1537 2 2 0 194 158 157 569
1538 2 2 0 194 157 181 569
1539 2 2 0 194 181 327 569
1540 2 2 0 195 182 159 158
1541 2 2 0 195 182 183 159
1542 2 2 0 196 184 160 159
1543 2 2 0 196 183 184 159
1544 2 2 0 197 160 185 161
1545 2 2 0 197 184 185 160
1546 2 2 0 198 161 186 162
1547 2 2 0 198 185 186 161
1548 2 2 0 199 163 333 187
1549 2 2 0 199 186 333 162
1550 2 2 0 199 333 163 162
1551 2 2 0 200 187 334 163
1552 2 2 0 200 164 334 188
1553 2 2 0 200 334 164 163
1554 2 2 0 201 188 165 164
1555 2 2 0 201 188 189 165
1556 2 2 0 202 189 166 165
1557 2 2 0 202 189 190 166
1558 2 2 0 203 190 167 166
1559 2 2 0 203 191 167 190
1560 2 2 0 204 167 192 168
1561 2 2 0 204 191 192 167
1562 2 2 0 205 192 340 168
1563 2 2 0 205 168 340 570
1564 2 2 0 205 145 168 570
1565 2 2 0 205 169 145 570
1566 2 2 0 205 340 169 570
1567 2 2 0 206 314 343 194
1568 2 2 0 206 314 170 571
1569 2 2 0 206 343 314 571
1570 2 2 0 206 342 343 571
1571 2 2 0 206 342 571 572
1572 2 2 0 206 170 313 571
1573 2 2 0 206 571 313 572
1574 2 2 0 206 313 169 572
1575 2 2 0 206 193 342 572
1576 2 2 0 206 169 193 572
1577 2 2 0 207 314 171 170
1578 2 2 0 207 315 171 314
1579 2 2 0 207 195 315 194
1580 2 2 0 207 315 314 194
1581 2 2 0 208 316 172 171
1582 2 2 0 208 315 316 171
1583 2 2 0 208 196 316 315
1584 2 2 0 208 196 315 195
1585 2 2 0 209 317 173 172
1586 2 2 0 209 316 317 172
1587 2 2 0 209 197 316 196
1588 2 2 0 209 197 317 316
1589 2 2 0 210 173 318 174
1590 2 2 0 210 317 318 173
1591 2 2 0 210 197 198 317
1592 2 2 0 210 198 318 317
1593 2 2 0 211 349 318 198
1594 2 2 0 211 174 318 573
1595 2 2 0 211 318 349 573
1596 2 2 0 211 349 350 573
1597 2 2 0 211 319 174 573
1598 2 2 0 211 199 175 574
1599 2 2 0 211 573 350 574
1600 2 2 0 211 319 573 574
1601 2 2 0 211 350 199 574
1602 2 2 0 211 175 319 574
1603 2 2 0 212 321 352 200
1604 2 2 0 212 321 176 575
1605 2 2 0 212 352 321 575
1606 2 2 0 212 351 352 575
1607 2 2 0 212 176 320 575
1608 2 2 0 212 175 199 576
1609 2 2 0 212 351 575 576
1610 2 2 0 212 575 320 576
1611 2 2 0 212 199 351 576
1612 2 2 0 212 320 175 576
1613 2 2 0 213 321 177 176
1614 2 2 0 213 322 177 321
1615 2 2 0 213 200 201 322
1616 2 2 0 213 322 321 200
1617 2 2 0 214 322 178 177
1618 2 2 0 214 323 178 322
1619 2 2 0 214 202 323 201
1620 2 2 0 214 323 322 201
1621 2 2 0 215 323 179 178
1622 2 2 0 215 324 179 323
1623 2 2 0 215 324 323 202
1624 2 2 0 215 203 324 202
1625 2 2 0 216 325 180 179
1626 2 2 0 216 324 325 179
1627 2 2 0 216 204 324 203
1628 2 2 0 216 204 325 324
1629 2 2 0 217 358 325 204
1630 2 2 0 217 180 325 577
1631 2 2 0 217 325 358 577
1632 2 2 0 217 358 359 577
1633 2 2 0 217 577 359 578
1634 2 2 0 217 326 180 577
1635 2 2 0 217 326 577 578
1636 2 2 0 217 181 326 578
1637 2 2 0 217 359 205 578
1638 2 2 0 217 205 181 578
1639 2 2 0 218 328 362 206
1640 2 2 0 218 328 182 579
1641 2 2 0 218 362 328 579
1642 2 2 0 218 361 362 579
1643 2 2 0 218 361 579 580
1644 2 2 0 218 182 327 579
1645 2 2 0 218 579 327 580
1646 2 2 0 218 327 181 580
1647 2 2 0 218 205 361 580
1648 2 2 0 218 181 205 580
1649 2 2 0 219 328 183 182
1650 2 2 0 219 329 183 328
1651 2 2 0 219 207 329 206
1652 2 2 0 219 329 328 206
1653 2 2 0 220 330 184 183
1654 2 2 0 220 329 330 183
1655 2 2 0 220 208 330 329
1656 2 2 0 220 208 329 207
1657 2 2 0 221 331 185 184
1658 2 2 0 221 330 331 184
1659 2 2 0 221 209 330 208
1660 2 2 0 221 209 331 330
1661 2 2 0 222 185 332 186
1662 2 2 0 222 331 332 185
1663 2 2 0 222 209 210 331
1664 2 2 0 222 210 332 331
1665 2 2 0 223 332 210 368
1666 2 2 0 223 186 332 581
1667 2 2 0 223 332 368 581
1668 2 2 0 223 368 369 581
1669 2 2 0 223 333 186 581
1670 2 2 0 223 211 187 582
1671 2 2 0 223 581 369 582
1672 2 2 0 223 333 581 582
1673 2 2 0 223 369 211 582
1674 2 2 0 223 187 333 582
1675 2 2 0 224 335 371 212
1676 2 2 0 224 335 188 583
1677 2 2 0 224 371 335 583
1678 2 2 0 224 370 371 583
1679 2 2 0 224 188 334 583
1680 2 2 0 224 187 211 584
1681 2 2 0 224 370 583 584
1682 2 2 0 224 583 334 584
1683 2 2 0 224 211 370 584
1684 2 2 0 224 334 187 584
1685 2 2 0 225 335 189 188
1686 2 2 0 225 336 189 335
1687 2 2 0 225 212 213 336
1688 2 2 0 225 336 335 212
1689 2 2 0 226 336 190 189
1690 2 2 0 226 337 190 336
1691 2 2 0 226 214 337 213
1692 2 2 0 226 337 336 213
1693 2 2 0 227 337 191 190
1694 2 2 0 227 338 191 337
1695 2 2 0 227 338 337 214
1696 2 2 0 227 215 338 214
1697 2 2 0 228 339 192 191
1698 2 2 0 228 338 339 191
1699 2 2 0 228 216 338 215
1700 2 2 0 228 216 339 338
1701 2 2 0 229 377 339 216
1702 2 2 0 229 192 339 585
1703 2 2 0 229 339 377 585
1704 2 2 0 229 377 378 585
1705 2 2 0 229 585 378 586
1706 2 2 0 229 340 192 585
1707 2 2 0 229 340 585 586
1708 2 2 0 229 169 340 586
1709 2 2 0 229 378 193 586
1710 2 2 0 229 193 169 586
1711 2 2 0 230 193 341 588
1712 2 2 0 230 218 344 380
1713 2 2 0 230 217 379 588
1714 2 2 0 230 341 217 588
1715 2 2 0 230 342 193 588
1716 2 2 0 230 380 587 589
1717 2 2 0 230 379 380 589
1718 2 2 0 230 380 344 587
1719 2 2 0 230 344 194 587
1720 2 2 0 230 343 342 589
1721 2 2 0 230 194 343 587
1722 2 2 0 230 342 588 589
1723 2 2 0 230 587 343 589
1724 2 2 0 230 588 379 589
1725 2 2 0 231 344 195 194
1726 2 2 0 231 345 195 344
1727 2 2 0 231 219 345 218
1728 2 2 0 231 345 344 218
1729 2 2 0 232 346 196 195
1730 2 2 0 232 345 346 195
1731 2 2 0 232 220 345 219
1732 2 2 0 232 220 346 345
1733 2 2 0 233 347 197 196
1734 2 2 0 233 346 347 196
1735 2 2 0 233 221 346 220
1736 2 2 0 233 221 347 346
1737 2 2 0 234 197 348 198
1738 2 2 0 234 347 348 197
1739 2 2 0 234 221 222 347
1740 2 2 0 234 222 348 347
1741 2 2 0 235 386 348 222
1742 2 2 0 235 348 386 590
1743 2 2 0 235 223 199 591
1744 2 2 0 235 198 348 590
1745 2 2 0 235 349 590 592
1746 2 2 0 235 386 387 590
1747 2 2 0 235 349 198 590
1748 2 2 0 235 590 387 592
1749 2 2 0 235 387 388 592
1750 2 2 0 235 388 223 591
1751 2 2 0 235 199 350 591
1752 2 2 0 235 350 349 592
1753 2 2 0 235 591 350 592
1754 2 2 0 235 388 591 592
1755 2 2 0 236 391 224 353
1756 2 2 0 236 391 353 593
1757 2 2 0 236 199 223 594
1758 2 2 0 236 353 200 593
1759 2 2 0 236 593 352 595
1760 2 2 0 236 390 391 593
1761 2 2 0 236 200 352 593
1762 2 2 0 236 390 593 595
1763 2 2 0 236 389 390 595
1764 2 2 0 236 223 389 594
1765 2 2 0 236 351 199 594
1766 2 2 0 236 352 351 595
1767 2 2 0 236 351 594 595
1768 2 2 0 236 594 389 595
1769 2 2 0 237 353 201 200
1770 2 2 0 237 201 353 354
1771 2 2 0 237 224 225 354
1772 2 2 0 237 354 353 224
1773 2 2 0 238 354 202 201
1774 2 2 0 238 202 354 355
1775 2 2 0 238 226 355 225
1776 2 2 0 238 355 354 225
1777 2 2 0 239 355 203 202
1778 2 2 0 239 203 355 356
1779 2 2 0 239 227 356 226
1780 2 2 0 239 356 355 226
1781 2 2 0 240 357 204 203
1782 2 2 0 240 356 357 203
1783 2 2 0 240 228 356 227
1784 2 2 0 240 356 228 357
1785 2 2 0 241 360 205 597
1786 2 2 0 241 397 357 228
1787 2 2 0 241 398 229 597
1788 2 2 0 241 229 360 597
1789 2 2 0 241 205 359 597
1790 2 2 0 241 596 397 598
1791 2 2 0 241 397 398 598
1792 2 2 0 241 357 397 596
1793 2 2 0 241 204 357 596
1794 2 2 0 241 359 358 598
1795 2 2 0 241 358 204 596
1796 2 2 0 241 597 359 598
1797 2 2 0 241 358 596 598
1798 2 2 0 241 398 597 598
1799 2 2 0 242 205 360 600
1800 2 2 0 242 230 363 400
1801 2 2 0 242 229 399 600
1802 2 2 0 242 360 229 600
1803 2 2 0 242 361 205 600
1804 2 2 0 242 400 599 601
1805 2 2 0 242 399 400 601
1806 2 2 0 242 400 363 599
1807 2 2 0 242 363 206 599
1808 2 2 0 242 362 361 601
1809 2 2 0 242 206 362 599
1810 2 2 0 242 361 600 601
1811 2 2 0 242 599 362 601
1812 2 2 0 242 600 399 601
1813 2 2 0 243 363 207 206
1814 2 2 0 243 364 207 363
1815 2 2 0 243 231 364 230
1816 2 2 0 243 364 363 230
1817 2 2 0 244 365 208 207
1818 2 2 0 244 364 365 207
1819 2 2 0 244 232 364 231
1820 2 2 0 244 232 365 364
1821 2 2 0 245 366 209 208
1822 2 2 0 245 365 366 208
1823 2 2 0 245 233 365 232
1824 2 2 0 245 233 366 365
1825 2 2 0 246 209 367 210
1826 2 2 0 246 366 367 209
1827 2 2 0 246 233 234 366
1828 2 2 0 246 234 367 366
1829 2 2 0 247 406 367 234
1830 2 2 0 247 367 406 602
1831 2 2 0 247 235 211 603
1832 2 2 0 247 210 367 602
1833 2 2 0 247 368 602 604
1834 2 2 0 247 406 407 602
1835 2 2 0 247 368 210 602
1836 2 2 0 247 602 407 604
1837 2 2 0 247 407 408 604
1838 2 2 0 247 408 235 603
1839 2 2 0 247 211 369 603
1840 2 2 0 247 369 368 604
1841 2 2 0 247 603 369 604
1842 2 2 0 247 408 603 604
1843 2 2 0 248 372 411 236
1844 2 2 0 248 411 372 605
1845 2 2 0 248 211 235 606
1846 2 2 0 248 372 212 605
1847 2 2 0 248 605 371 607
1848 2 2 0 248 410 411 605
1849 2 2 0 248 212 371 605
1850 2 2 0 248 410 605 607
1851 2 2 0 248 409 410 607
1852 2 2 0 248 235 409 606
1853 2 2 0 248 370 211 606
1854 2 2 0 248 371 370 607
1855 2 2 0 248 370 606 607
1856 2 2 0 248 606 409 607
1857 2 2 0 249 372 213 212
1858 2 2 0 249 373 213 372
1859 2 2 0 249 236 237 373
1860 2 2 0 249 373 372 236
1861 2 2 0 250 373 214 213
1862 2 2 0 250 374 214 373
1863 2 2 0 250 238 374 237
1864 2 2 0 250 374 373 237
1865 2 2 0 251 374 215 214
1866 2 2 0 251 375 215 374
1867 2 2 0 251 239 375 238
1868 2 2 0 251 375 374 238
1869 2 2 0 252 376 216 215
1870 2 2 0 252 375 376 215
1871 2 2 0 252 240 375 239
1872 2 2 0 252 240 376 375
1873 2 2 0 253 341 193 609
1874 2 2 0 253 417 376 240
1875 2 2 0 253 418 217 609
1876 2 2 0 253 217 341 609
1877 2 2 0 253 193 378 609
1878 2 2 0 253 608 417 610
1879 2 2 0 253 417 418 610
1880 2 2 0 253 376 417 608
1881 2 2 0 253 216 376 608
1882 2 2 0 253 378 377 610
1883 2 2 0 253 377 216 608
1884 2 2 0 253 609 378 610
1885 2 2 0 253 377 608 610
1886 2 2 0 253 418 609 610
1887 2 2 0 254 420 379 419
1888 2 2 0 254 379 420 380
1889 2 2 0 254 381 421 242
1890 2 2 0 254 381 218 611
1891 2 2 0 254 421 381 611
1892 2 2 0 254 218 380 611
1893 2 2 0 254 420 421 611
1894 2 2 0 254 380 420 611
1895 2 2 0 254 419 379 612
1896 2 2 0 254 217 241 612
1897 2 2 0 254 379 217 612
1898 2 2 0 254 241 419 612
1899 2 2 0 255 381 219 218
1900 2 2 0 255 382 219 381
1901 2 2 0 255 243 382 242
1902 2 2 0 255 382 381 242
1903 2 2 0 256 383 220 219
1904 2 2 0 256 382 383 219
1905 2 2 0 256 244 382 243
1906 2 2 0 256 244 383 382
1907 2 2 0 257 384 221 220
1908 2 2 0 257 383 384 220
1909 2 2 0 257 245 383 244
1910 2 2 0 257 245 384 383
1911 2 2 0 258 385 222 221
1912 2 2 0 258 384 385 221
1913 2 2 0 258 246 384 245
1914 2 2 0 258 246 385 384
1915 2 2 0 259 423 385 246
1916 2 2 0 259 385 423 613
1917 2 2 0 259 222 385 613
1918 2 2 0 259 423 424 613
1919 2 2 0 259 386 222 613
1920 2 2 0 259 386 613 616
1921 2 2 0 259 613 424 616
1922 2 2 0 259 247 223 614
1923 2 2 0 259 424 425 616
1924 2 2 0 259 425 426 615
1925 2 2 0 259 426 247 614
1926 2 2 0 259 223 388 614
1927 2 2 0 259 388 387 615
1928 2 2 0 259 387 386 616
1929 2 2 0 259 614 388 615
1930 2 2 0 259 615 387 616
1931 2 2 0 259 425 615 616
1932 2 2 0 259 426 614 615
1933 2 2 0 260 430 248 392
1934 2 2 0 260 430 392 617
1935 2 2 0 260 392 224 617
1936 2 2 0 260 429 430 617
1937 2 2 0 260 224 391 617
1938 2 2 0 260 617 391 620
1939 2 2 0 260 429 617 620
1940 2 2 0 260 223 247 618
1941 2 2 0 260 428 429 620
1942 2 2 0 260 427 428 619
1943 2 2 0 260 247 427 618
1944 2 2 0 260 389 223 618
1945 2 2 0 260 390 389 619
1946 2 2 0 260 391 390 620
1947 2 2 0 260 389 618 619
1948 2 2 0 260 390 619 620
1949 2 2 0 260 619 428 620
1950 2 2 0 260 618 427 619
1951 2 2 0 261 392 225 224
1952 2 2 0 261 225 392 393
1953 2 2 0 261 248 249 393
1954 2 2 0 261 392 248 393
1955 2 2 0 262 393 226 225
1956 2 2 0 262 226 393 394
1957 2 2 0 262 249 250 394
1958 2 2 0 262 393 249 394
1959 2 2 0 263 394 227 226
1960 2 2 0 263 227 394 395
1961 2 2 0 263 250 251 395
1962 2 2 0 263 394 250 395
1963 2 2 0 264 396 228 227
1964 2 2 0 264 395 396 227
1965 2 2 0 264 252 395 251
1966 2 2 0 264 395 252 396
1967 2 2 0 265 398 433 434
1968 2 2 0 265 433 398 397
1969 2 2 0 265 432 396 252
1970 2 2 0 265 228 396 621
1971 2 2 0 265 396 432 621
1972 2 2 0 265 397 228 621
1973 2 2 0 265 432 433 621
1974 2 2 0 265 433 397 621
1975 2 2 0 265 398 434 622
1976 2 2 0 265 253 229 622
1977 2 2 0 265 229 398 622
1978 2 2 0 265 434 253 622
1979 2 2 0 266 436 399 435
1980 2 2 0 266 400 399 436
1981 2 2 0 266 254 401 437
1982 2 2 0 266 401 230 623
1983 2 2 0 266 437 401 623
1984 2 2 0 266 230 400 623
1985 2 2 0 266 436 437 623
1986 2 2 0 266 400 436 623
1987 2 2 0 266 435 399 624
1988 2 2 0 266 229 253 624
1989 2 2 0 266 399 229 624
1990 2 2 0 266 253 435 624
1991 2 2 0 267 401 231 230
1992 2 2 0 267 402 231 401
1993 2 2 0 267 255 402 254
1994 2 2 0 267 402 401 254
1995 2 2 0 268 403 232 231
1996 2 2 0 268 402 403 231
1997 2 2 0 268 256 402 255
1998 2 2 0 268 256 403 402
1999 2 2 0 269 404 233 232
2000 2 2 0 269 403 404 232
2001 2 2 0 269 257 403 256
2002 2 2 0 269 257 404 403
2003 2 2 0 270 405 234 233
2004 2 2 0 270 404 405 233
2005 2 2 0 270 258 404 257
2006 2 2 0 270 258 405 404
2007 2 2 0 271 439 405 258
2008 2 2 0 271 405 439 625
2009 2 2 0 271 234 405 625
2010 2 2 0 271 439 440 625
2011 2 2 0 271 406 234 625
2012 2 2 0 271 406 625 628
2013 2 2 0 271 625 440 628
2014 2 2 0 271 259 235 626
2015 2 2 0 271 440 441 628
2016 2 2 0 271 441 442 627
2017 2 2 0 271 442 259 626
2018 2 2 0 271 235 408 626
2019 2 2 0 271 408 407 627
2020 2 2 0 271 407 406 628
2021 2 2 0 271 626 408 627
2022 2 2 0 271 627 407 628
2023 2 2 0 271 441 627 628
2024 2 2 0 271 442 626 627
2025 2 2 0 272 412 446 260
2026 2 2 0 272 446 412 629
2027 2 2 0 272 412 236 629
2028 2 2 0 272 445 446 629
2029 2 2 0 272 236 411 629
2030 2 2 0 272 629 411 632
2031 2 2 0 272 445 629 632
2032 2 2 0 272 235 259 630
2033 2 2 0 272 444 445 632
2034 2 2 0 272 443 444 631
2035 2 2 0 272 259 443 630
2036 2 2 0 272 409 235 630
2037 2 2 0 272 410 409 631
2038 2 2 0 272 411 410 632
2039 2 2 0 272 409 630 631
2040 2 2 0 272 410 631 632
2041 2 2 0 272 631 444 632
2042 2 2 0 272 630 443 631
2043 2 2 0 273 412 237 236
2044 2 2 0 273 413 237 412
2045 2 2 0 273 261 413 260
2046 2 2 0 273 413 412 260
2047 2 2 0 274 413 238 237
2048 2 2 0 274 414 238 413
2049 2 2 0 274 262 414 261
2050 2 2 0 274 414 413 261
2051 2 2 0 275 414 239 238
2052 2 2 0 275 415 239 414
2053 2 2 0 275 263 415 262
2054 2 2 0 275 415 414 262
2055 2 2 0 276 416 240 239
2056 2 2 0 276 415 416 239
2057 2 2 0 276 264 415 263
2058 2 2 0 276 264 416 415
2059 2 2 0 277 450 418 449
2060 2 2 0 277 418 417 449
2061 2 2 0 277 416 264 448
2062 2 2 0 277 240 416 633
2063 2 2 0 277 416 448 633
2064 2 2 0 277 417 240 633
2065 2 2 0 277 448 449 633
2066 2 2 0 277 449 417 633
2067 2 2 0 277 418 450 634
2068 2 2 0 277 241 217 634
2069 2 2 0 277 217 418 634
2070 2 2 0 277 450 241 634
2071 2 2 0 278 420 453 421
2072 2 2 0 278 453 420 452
2073 2 2 0 278 454 242 421
2074 2 2 0 278 453 454 421
2075 2 2 0 278 242 454 266
2076 2 2 0 278 420 419 636
2077 2 2 0 278 419 241 635
2078 2 2 0 278 265 451 635
2079 2 2 0 278 451 452 636
2080 2 2 0 278 419 451 636
2081 2 2 0 278 241 265 635
2082 2 2 0 278 451 419 635
2083 2 2 0 278 452 420 636
2084 2 2 0 279 266 243 242
2085 2 2 0 279 267 243 266
2086 2 2 0 280 268 244 243
2087 2 2 0 280 267 268 243
2088 2 2 0 281 244 269 245
2089 2 2 0 281 268 269 244
2090 2 2 0 282 422 246 245
2091 2 2 0 282 269 422 245
2092 2 2 0 282 270 422 269
2093 2 2 0 283 425 458 426
2094 2 2 0 283 456 423 455
2095 2 2 0 283 422 455 246
2096 2 2 0 283 457 424 456
2097 2 2 0 283 425 424 457
2098 2 2 0 283 247 426 637
2099 2 2 0 283 424 423 456
2100 2 2 0 283 426 458 637
2101 2 2 0 283 271 247 637
2102 2 2 0 283 455 422 270
2103 2 2 0 283 458 271 637
2104 2 2 0 283 455 423 246
2105 2 2 0 283 458 425 457
2106 2 2 0 284 459 428 427
2107 2 2 0 284 462 430 461
2108 2 2 0 284 431 248 462
2109 2 2 0 284 460 461 429
2110 2 2 0 284 428 460 429
2111 2 2 0 284 427 247 638
2112 2 2 0 284 461 430 429
2113 2 2 0 284 459 427 638
2114 2 2 0 284 247 271 638
2115 2 2 0 284 271 459 638
2116 2 2 0 284 431 462 272
2117 2 2 0 284 248 430 462
2118 2 2 0 284 459 460 428
2119 2 2 0 285 431 249 248
2120 2 2 0 285 431 273 249
2121 2 2 0 285 273 431 272
2122 2 2 0 286 273 250 249
2123 2 2 0 286 273 274 250
2124 2 2 0 287 274 251 250
2125 2 2 0 287 275 251 274
2126 2 2 0 288 276 252 251
2127 2 2 0 288 275 276 251
2128 2 2 0 289 464 433 432
2129 2 2 0 289 464 465 433
2130 2 2 0 289 463 432 252
2131 2 2 0 289 463 464 432
2132 2 2 0 289 276 463 252
2133 2 2 0 289 434 433 640
2134 2 2 0 289 253 434 639
2135 2 2 0 289 466 277 639
2136 2 2 0 289 465 466 640
2137 2 2 0 289 466 434 640
2138 2 2 0 289 277 253 639
2139 2 2 0 289 434 466 639
2140 2 2 0 289 433 465 640
2141 2 2 0 290 437 436 469
2142 2 2 0 290 469 436 468
2143 2 2 0 290 254 437 470
2144 2 2 0 290 470 437 469
2145 2 2 0 290 254 470 278
2146 2 2 0 290 436 435 642
2147 2 2 0 290 435 253 641
2148 2 2 0 290 277 467 641
2149 2 2 0 290 467 468 642
2150 2 2 0 290 435 467 642
2151 2 2 0 290 253 277 641
2152 2 2 0 290 467 435 641
2153 2 2 0 290 468 436 642
2154 2 2 0 291 278 255 254
2155 2 2 0 291 279 255 278
2156 2 2 0 292 280 256 255
2157 2 2 0 292 279 280 255
2158 2 2 0 293 256 281 257
2159 2 2 0 293 280 281 256
2160 2 2 0 294 438 258 257
2161 2 2 0 294 281 438 257
2162 2 2 0 294 282 438 281
2163 2 2 0 295 442 441 474
2164 2 2 0 295 471 472 439
2165 2 2 0 295 438 471 258
2166 2 2 0 295 472 473 440
2167 2 2 0 295 473 441 440
2168 2 2 0 295 259 442 643
2169 2 2 0 295 439 472 440
2170 2 2 0 295 442 474 643
2171 2 2 0 295 283 259 643
2172 2 2 0 295 471 438 282
2173 2 2 0 295 474 283 643
2174 2 2 0 295 471 439 258
2175 2 2 0 295 474 441 473
2176 2 2 0 296 444 443 475
2177 2 2 0 296 446 477 478
2178 2 2 0 296 447 260 478
2179 2 2 0 296 477 445 476
2180 2 2 0 296 445 444 476
2181 2 2 0 296 443 259 644
2182 2 2 0 296 446 445 477
2183 2 2 0 296 475 443 644
2184 2 2 0 296 259 283 644
2185 2 2 0 296 283 475 644
2186 2 2 0 296 284 447 478
2187 2 2 0 296 260 446 478
2188 2 2 0 296 476 444 475
2189 2 2 0 297 447 261 260
2190 2 2 0 297 447 285 261
2191 2 2 0 297 285 447 284
2192 2 2 0 298 285 262 261
2193 2 2 0 298 285 286 262
2194 2 2 0 299 286 263 262
2195 2 2 0 299 287 263 286
2196 2 2 0 300 288 264 263
2197 2 2 0 300 287 288 263
2198 2 2 0 301 449 448 480
2199 2 2 0 301 481 449 480
2200 2 2 0 301 479 448 264
2201 2 2 0 301 480 448 479
2202 2 2 0 301 288 479 264
2203 2 2 0 301 450 449 646
2204 2 2 0 301 241 450 645
2205 2 2 0 301 482 265 645
2206 2 2 0 301 481 482 646
2207 2 2 0 301 482 450 646
2208 2 2 0 301 265 241 645
2209 2 2 0 301 450 482 645
2210 2 2 0 301 449 481 646
2211 2 2 0 302 483 451 647
2212 2 2 0 302 265 289 647
2213 2 2 0 302 451 265 647
2214 2 2 0 302 289 483 647
2215 2 2 0 302 290 266 486
2216 2 2 0 302 266 454 486
2217 2 2 0 302 452 451 483
2218 2 2 0 302 453 452 484
2219 2 2 0 302 452 483 484
2220 2 2 0 302 454 453 485
2221 2 2 0 302 485 453 484
2222 2 2 0 302 454 485 486
2223 2 2 0 303 290 267 266
2224 2 2 0 303 291 267 290
2225 2 2 0 304 292 268 267
2226 2 2 0 304 291 292 267
2227 2 2 0 305 293 269 268
2228 2 2 0 305 292 293 268
2229 2 2 0 306 269 294 270
2230 2 2 0 306 293 294 269
2231 2 2 0 307 458 491 648
2232 2 2 0 307 295 271 648
2233 2 2 0 307 294 487 270
2234 2 2 0 307 487 455 270
2235 2 2 0 307 271 458 648
2236 2 2 0 307 491 295 648
2237 2 2 0 307 456 455 488
2238 2 2 0 307 488 455 487
2239 2 2 0 307 457 456 489
2240 2 2 0 307 456 488 489
2241 2 2 0 307 458 457 490
2242 2 2 0 307 490 457 489
2243 2 2 0 307 458 490 491
2244 2 2 0 308 492 459 649
2245 2 2 0 308 271 295 649
2246 2 2 0 308 459 271 649
2247 2 2 0 308 272 496 296
2248 2 2 0 308 462 496 272
2249 2 2 0 308 295 492 649
2250 2 2 0 308 462 461 495
2251 2 2 0 308 460 459 493
2252 2 2 0 308 493 459 492
2253 2 2 0 308 461 460 494
2254 2 2 0 308 494 460 493
2255 2 2 0 308 495 461 494
2256 2 2 0 308 496 462 495
2257 2 2 0 309 296 273 272
2258 2 2 0 309 296 297 273
2259 2 2 0 310 297 274 273
2260 2 2 0 310 298 274 297
2261 2 2 0 311 298 275 274
2262 2 2 0 311 299 275 298
2263 2 2 0 312 300 276 275
2264 2 2 0 312 299 300 275
2265 2 2 0 313 466 500 650
2266 2 2 0 313 301 277 650
2267 2 2 0 313 277 466 650
2268 2 2 0 313 500 301 650
2269 2 2 0 313 300 497 276
2270 2 2 0 313 497 463 276
2271 2 2 0 313 464 463 498
2272 2 2 0 313 498 463 497
2273 2 2 0 313 465 464 499
2274 2 2 0 313 499 464 498
2275 2 2 0 313 466 465 500
2276 2 2 0 313 500 465 499
2277 2 2 0 314 501 467 651
2278 2 2 0 314 277 301 651
2279 2 2 0 314 467 277 651
2280 2 2 0 314 301 501 651
2281 2 2 0 314 278 504 302
2282 2 2 0 314 504 278 470
2283 2 2 0 314 468 467 501
2284 2 2 0 314 469 468 502
2285 2 2 0 314 502 468 501
2286 2 2 0 314 469 503 470
2287 2 2 0 314 503 469 502
2288 2 2 0 314 503 504 470
2289 2 2 0 315 302 279 278
2290 2 2 0 315 303 279 302
2291 2 2 0 316 304 280 279
2292 2 2 0 316 303 304 279
2293 2 2 0 317 305 281 280
2294 2 2 0 317 304 305 280
2295 2 2 0 318 281 306 282
2296 2 2 0 318 305 306 281
2297 2 2 0 319 474 509 652
2298 2 2 0 319 307 283 652
2299 2 2 0 319 306 505 282
2300 2 2 0 319 505 471 282
2301 2 2 0 319 283 474 652
2302 2 2 0 319 509 307 652
2303 2 2 0 319 472 471 506
2304 2 2 0 319 506 471 505
2305 2 2 0 319 473 472 507
2306 2 2 0 319 507 472 506
2307 2 2 0 319 474 473 508
2308 2 2 0 319 508 473 507
2309 2 2 0 319 509 474 508
2310 2 2 0 320 510 475 653
2311 2 2 0 320 283 307 653
2312 2 2 0 320 475 283 653
2313 2 2 0 320 284 514 308
2314 2 2 0 320 514 284 478
2315 2 2 0 320 307 510 653
2316 2 2 0 320 477 513 478
2317 2 2 0 320 475 511 476
2318 2 2 0 320 511 475 510
2319 2 2 0 320 512 477 476
2320 2 2 0 320 511 512 476
2321 2 2 0 320 512 513 477
2322 2 2 0 320 513 514 478
2323 2 2 0 321 308 285 284
2324 2 2 0 321 308 309 285
2325 2 2 0 322 309 286 285
2326 2 2 0 322 310 286 309
2327 2 2 0 323 310 287 286
2328 2 2 0 323 311 287 310
2329 2 2 0 324 312 288 287
2330 2 2 0 324 311 312 287
2331 2 2 0 325 482 518 654
2332 2 2 0 325 289 265 654
2333 2 2 0 325 265 482 654
2334 2 2 0 325 518 289 654
2335 2 2 0 325 312 515 288
2336 2 2 0 325 515 479 288
2337 2 2 0 325 480 479 516
2338 2 2 0 325 516 479 515
2339 2 2 0 325 480 517 481
2340 2 2 0 325 517 480 516
2341 2 2 0 325 518 482 481
2342 2 2 0 325 517 518 481
$EndElements
