$MeshFormat
2.2 0 8
$EndMeshFormat
$Nodes
528
1 12.7 0 0
2 9.634 8.276 0
3 9.612 8.301 0
4 9.59 8.326000000000001 0
5 9.569000000000001 8.35 0
6 9.552 8.369999999999999 0
7 0 12.7 0
8 -9.552 8.369999999999999 0
9 -9.569000000000001 8.35 0
10 -9.59 8.326000000000001 0
11 -9.612 8.301 0
12 -9.634 8.276 0
13 -12.7 0 0
14 -9.634 -8.276 0
15 -9.612 -8.301 0
16 -9.59 -8.326000000000001 0
17 -9.569000000000001 -8.35 0
18 -9.552 -8.369999999999999 0
19 0 -12.7 0
20 9.552 -8.369999999999999 0
21 9.569000000000001 -8.35 0
22 9.59 -8.326000000000001 0
23 9.612 -8.301 0
24 9.634 -8.276 0
25 12.951 0 4.439
26 9.949 8.545999999999999 4.439
27 9.927 8.573 4.439
28 9.904 8.599 4.439
29 9.882999999999999 8.624000000000001 4.439
30 9.865 8.644 4.439
31 0 12.856 4.439
32 -9.865 8.644 4.439
33 -9.882999999999999 8.624000000000001 4.439
34 -9.904 8.599 4.439
35 -9.927 8.573 4.439
36 -9.949 8.545999999999999 4.439
37 -12.951 0 4.439
38 -9.949 -8.545999999999999 4.439
39 -9.927 -8.573 4.439
40 -9.904 -8.599 4.439
41 -9.882999999999999 -8.624000000000001 4.439
42 -9.865 -8.644 4.439
43 0 -12.856 4.439
44 9.865 -8.644 4.439
45 9.882999999999999 -8.624000000000001 4.439
46 9.904 -8.599 4.439
47 9.927 -8.573 4.439
48 9.949 -8.545999999999999 4.439
49 14.569 0 12.398
50 11.891 10.215 12.398
51 11.866 10.247 12.398
52 11.84 10.28 12.398
53 11.815 10.309 12.398
54 11.794 10.334 12.398
55 0 13.889 12.398
56 -11.794 10.334 12.398
57 -11.815 10.309 12.398
58 -11.84 10.28 12.398
59 -11.866 10.247 12.398
60 -11.891 10.215 12.398
61 -14.569 0 12.398
62 -11.891 -10.215 12.398
63 -11.866 -10.247 12.398
64 -11.84 -10.28 12.398
65 -11.815 -10.309 12.398
66 -11.794 -10.334 12.398
67 0 -13.889 12.398
68 11.794 -10.334 12.398
69 11.815 -10.309 12.398
70 11.84 -10.28 12.398
71 11.866 -10.247 12.398
72 11.891 -10.215 12.398
73 19.136 0 24.583
74 16.947 14.559 24.583
75 16.914 14.606 24.583
76 16.877 14.654 24.583
77 16.843 14.697 24.583
78 16.813 14.732 24.583
79 0 17.01 24.583
80 -16.813 14.732 24.583
81 -16.843 14.697 24.583
82 -16.877 14.654 24.583
83 -16.914 14.606 24.583
84 -16.947 14.559 24.583
85 -19.136 0 24.583
86 -16.947 -14.559 24.583
87 -16.914 -14.606 24.583
88 -16.877 -14.654 24.583
89 -16.843 -14.697 24.583
90 -16.813 -14.732 24.583
91 0 -17.01 24.583
92 16.813 -14.732 24.583
93 16.843 -14.697 24.583
94 16.877 -14.654 24.583
95 16.914 -14.606 24.583
96 16.947 -14.559 24.583
97 28.136 0 42.19
98 26.182 22.491 42.19
99 26.131 22.566 42.19
100 26.076 22.64 42.19
101 26.023 22.708 42.19
102 25.977 22.762 42.19
103 0 23.652 42.19
104 -25.977 22.762 42.19
105 -26.023 22.708 42.19
106 -26.076 22.64 42.19
107 -26.131 22.566 42.19
108 -26.182 22.491 42.19
109 -28.136 0 42.19
110 -26.182 -22.491 42.19
111 -26.131 -22.566 42.19
112 -26.076 -22.64 42.19
113 -26.023 -22.708 42.19
114 -25.977 -22.762 42.19
115 0 -23.652 42.19
116 25.977 -22.762 42.19
117 26.023 -22.708 42.19
118 26.076 -22.64 42.19
119 26.131 -22.566 42.19
120 26.182 -22.491 42.19
121 42.04 0 64.90000000000001
122 39.758 34.154 64.90000000000001
123 39.682 34.268 64.90000000000001
124 39.599 34.382 64.90000000000001
125 39.519 34.484 64.90000000000001
126 39.449 34.566 64.90000000000001
127 0 34.547 64.90000000000001
128 -39.449 34.566 64.90000000000001
129 -39.519 34.484 64.90000000000001
130 -39.599 34.382 64.90000000000001
131 -39.682 34.268 64.90000000000001
132 -39.758 34.154 64.90000000000001
133 -42.04 0 64.90000000000001
134 -39.758 -34.154 64.90000000000001
135 -39.682 -34.268 64.90000000000001
136 -39.599 -34.382 64.90000000000001
137 -39.519 -34.484 64.90000000000001
138 -39.449 -34.566 64.90000000000001
139 0 -34.547 64.90000000000001
140 39.449 -34.566 64.90000000000001
141 39.519 -34.484 64.90000000000001
142 39.599 -34.382 64.90000000000001
143 39.682 -34.268 64.90000000000001
144 39.758 -34.154 64.90000000000001
145 61.387 0 91.33
146 58.221 50.014 91.33
147 58.11 50.182 91.33
148 57.988 50.348 91.33
149 57.867 50.495 91.33
150 57.761 50.612 91.33
151 0 50.388 91.33
152 -57.761 50.612 91.33
153 -57.867 50.495 91.33
154 -57.988 50.348 91.33
155 -58.11 50.182 91.33
156 -58.221 50.014 91.33
157 -61.387 0 91.33
158 -58.221 -50.014 91.33
159 -58.11 -50.182 91.33
160 -57.988 -50.348 91.33
161 -57.867 -50.495 91.33
162 -57.761 -50.612 91.33
163 0 -50.388 91.33
164 57.761 -50.612 91.33
165 57.867 -50.495 91.33
166 57.988 -50.348 91.33
167 58.11 -50.182 91.33
168 58.221 -50.014 91.33
169 86.955 0 117.677
170 83.137 71.41800000000001 117.677
171 82.982 71.661 117.677
172 82.803 71.892 117.677
173 82.614 72.09 117.677
174 82.438 72.235 117.677
175 0 72.029 117.677
176 -82.438 72.235 117.677
177 -82.614 72.09 117.677
178 -82.803 71.892 117.677
179 -82.982 71.661 117.677
180 -83.137 71.41800000000001 117.677
181 -86.955 0 117.677
182 -83.137 -71.41800000000001 117.677
183 -82.982 -71.661 117.677
184 -82.803 -71.892 117.677
185 -82.614 -72.09 117.677
186 -82.438 -72.235 117.677
187 0 -72.029 117.677
188 82.438 -72.235 117.677
189 82.614 -72.09 117.677
190 82.803 -71.892 117.677
191 82.982 -71.661 117.677
192 83.137 -71.41800000000001 117.677
193 117.891 0 139.519
194 114.729 98.557 139.519
195 114.526 98.901 139.519
196 114.266 99.20999999999999 139.519
197 113.972 99.452 139.519
198 113.677 99.608 139.519
199 0 98.764 139.519
200 -113.677 99.608 139.519
201 -113.972 99.452 139.519
202 -114.266 99.20999999999999 139.519
203 -114.526 98.901 139.519
204 -114.729 98.557 139.519
205 -117.891 0 139.519
206 -114.729 -98.557 139.519
207 -114.526 -98.901 139.519
208 -114.266 -99.20999999999999 139.519
209 -113.972 -99.452 139.519
210 -113.677 -99.608 139.519
211 0 -98.764 139.519
212 113.677 -99.608 139.519
213 113.972 -99.452 139.519
214 114.266 -99.20999999999999 139.519
215 114.526 -98.901 139.519
216 114.729 -98.557 139.519
217 151.89 0 155.894
218 150.538 129.318 155.894
219 150.285 129.781 155.894
220 149.927 130.173 155.894
221 149.5 130.454 155.894
222 149.047 130.6 155.894
223 0 128.554 155.894
224 -149.047 130.6 155.894
225 -149.5 130.454 155.894
226 -149.927 130.173 155.894
227 -150.285 129.781 155.894
228 -150.538 129.318 155.894
229 -151.89 0 155.894
230 -150.538 -129.318 155.894
231 -150.285 -129.781 155.894
232 -149.927 -130.173 155.894
233 -149.5 -130.454 155.894
234 -149.047 -130.6 155.894
235 0 -128.554 155.894
236 149.047 -130.6 155.894
237 149.5 -130.454 155.894
238 149.927 -130.173 155.894
239 150.285 -129.781 155.894
240 150.538 -129.318 155.894
241 183.47 0 166.687
242 183.808 157.898 166.687
243 183.509 158.473 166.687
244 183.06 158.94 166.687
245 182.504 159.253 166.687
246 181.897 159.384 166.687
247 0 156.626 166.687
248 -181.897 159.384 166.687
249 -182.504 159.253 166.687
250 -183.06 158.94 166.687
251 -183.509 158.473 166.687
252 -183.808 157.898 166.687
253 -183.47 0 166.687
254 -183.808 -157.898 166.687
255 -183.509 -158.473 166.687
256 -183.06 -158.94 166.687
257 -182.504 -159.253 166.687
258 -181.897 -159.384 166.687
259 0 -156.626 166.687
260 181.897 -159.384 166.687
261 182.504 -159.253 166.687
262 183.06 -158.94 166.687
263 183.509 -158.473 166.687
264 183.808 -157.898 166.687
265 209.994 0 173.157
266 210.819 181.102 173.157
267 210.481 181.765 173.157
268 209.958 182.294 173.157
269 209.3 182.636 173.157
270 208.573 182.759 173.157
271 0 180.693 173.157
272 -208.573 182.759 173.157
273 -209.3 182.636 173.157
274 -209.958 182.294 173.157
275 -210.481 181.765 173.157
276 -210.819 181.102 173.157
277 -209.994 0 173.157
278 -210.819 -181.102 173.157
279 -210.481 -181.765 173.157
280 -209.958 -182.294 173.157
281 -209.3 -182.636 173.157
282 -208.573 -182.759 173.157
283 0 -180.693 173.157
284 208.573 -182.759 173.157
285 209.3 -182.636 173.157
286 209.958 -182.294 173.157
287 210.481 -181.765 173.157
288 210.819 -181.102 173.157
289 228.228 0 176.057
290 228.102 195.949 176.057
291 227.737 196.666 176.057
292 227.168 197.236 176.057
293 226.45 197.601 176.057
294 225.655 197.727 176.057
295 0 197.727 176.057
296 -225.655 197.727 176.057
297 -226.45 197.601 176.057
298 -227.168 197.236 176.057
299 -227.737 196.666 176.057
300 -228.102 195.949 176.057
301 -228.228 0 176.057
302 -228.102 -195.949 176.057
303 -227.737 -196.666 176.057
304 -227.168 -197.236 176.057
305 -226.45 -197.601 176.057
306 -225.655 -197.727 176.057
307 0 -197.727 176.057
308 225.655 -197.727 176.057
309 226.45 -197.601 176.057
310 227.168 -197.236 176.057
311 227.737 -196.666 176.057
312 228.102 -195.949 176.057
313 28.88050000007422 50.50000000000029 91.33
314 -28.88049999992435 50.49999999999971 91.33
315 -28.88050000007422 -50.50000000000029 91.33
316 28.88049999992435 -50.49999999999971 91.33
317 85.04600000000453 35.70899999991538 117.677
318 41.21900000011384 72.13200000000029 117.677
319 -41.21899999988939 72.13199999999972 117.677
320 -85.04599999999547 35.70900000008456 117.677
321 -85.04600000000453 -35.70899999991538 117.677
322 -41.21900000011384 -72.13200000000029 117.677
323 41.21899999988939 -72.13199999999972 117.677
324 85.04599999999547 -35.70900000008456 117.677
325 116.3100000000041 49.27849999987102 139.519
326 75.7846666667582 99.32666666666735 139.519
327 37.89233333343135 99.04533333333406 139.519
328 -37.89233333323605 99.04533333333261 139.519
329 -75.78466666656807 99.32666666666593 139.519
330 -116.3099999999958 49.27850000013052 139.519
331 -116.3100000000041 -49.27849999987102 139.519
332 -75.7846666667582 -99.32666666666735 139.519
333 -37.89233333343135 -99.04533333333406 139.519
334 37.89233333323605 -99.04533333333261 139.519
335 75.78466666656807 -99.32666666666593 139.519
336 116.3099999999958 -49.27850000013052 139.519
337 151.4393333333345 43.1059999998914 155.894
338 150.9886666666679 86.21199999988585 155.894
339 99.36466666678692 129.9180000000017 155.894
340 49.68233333346274 129.2360000000018 155.894
341 -49.68233333320921 129.2359999999983 155.894
342 -99.36466666653718 129.9179999999982 155.894
343 -150.9886666666654 86.21200000012024 155.894
344 -151.4393333333321 43.10600000011931 155.894
345 -151.4393333333345 -43.1059999998914 155.894
346 -150.9886666666679 -86.21199999988585 155.894
347 -99.36466666678692 -129.9180000000017 155.894
348 -49.68233333346274 -129.2360000000018 155.894
349 49.68233333320921 -129.2359999999983 155.894
350 99.36466666653718 -129.9179999999982 155.894
351 150.9886666666654 -86.21200000012024 155.894
352 151.4393333333321 -43.10600000011931 155.894
353 183.5544999999998 39.47449999991152 166.687
354 183.6389999999996 78.94899999980309 166.687
355 183.7234999999998 118.4234999999057 166.687
356 136.422750000122 158.6945000000019 166.687
357 90.94850000024122 158.0050000000037 166.687
358 45.47425000012188 157.3155000000019 166.687
359 -45.47424999989242 157.3154999999984 166.687
360 -90.94849999976283 158.0049999999964 166.687
361 -136.4227499998801 158.6944999999982 166.687
362 -183.7235000000002 118.4235000000972 166.687
363 -183.6390000000004 78.94900000019716 166.687
364 -183.5545000000002 39.47450000009442 166.687
365 -183.5544999999998 -39.47449999991152 166.687
366 -183.6389999999996 -78.94899999980309 166.687
367 -183.7234999999998 -118.4234999999057 166.687
368 -136.422750000122 -158.6945000000019 166.687
369 -90.94850000024122 -158.0050000000037 166.687
370 -45.47425000012188 -157.3155000000019 166.687
371 45.47424999989242 -157.3154999999984 166.687
372 90.94849999976283 -158.0049999999964 166.687
373 136.4227499998801 -158.6944999999982 166.687
374 183.7235000000002 -118.4235000000972 166.687
375 183.6390000000004 -78.94900000019716 166.687
376 183.5545000000002 -39.47450000009442 166.687
377 210.2002499999995 45.27549999989353 173.157
378 210.4064999999989 90.55099999976527 173.157
379 210.6127499999995 135.826499999884 173.157
380 166.858400000111 182.3458000000011 173.157
381 125.1438000002275 181.9326000000023 173.157
382 83.42920000022967 181.5194000000023 173.157
383 41.71460000011206 181.1062000000011 173.157
384 -41.71459999990695 181.1061999999991 173.157
385 -83.42919999978433 181.5193999999979 173.157
386 -125.1437999997782 181.9325999999978 173.157
387 -166.8583999998919 182.3457999999989 173.157
388 -210.6127500000004 135.8265000000985 173.157
389 -210.4065000000011 90.5510000002387 173.157
390 -210.2002500000005 45.27550000011797 173.157
391 -210.2002499999995 -45.27549999989353 173.157
392 -210.4064999999989 -90.55099999976527 173.157
393 -210.6127499999995 -135.826499999884 173.157
394 -166.858400000111 -182.3458000000011 173.157
395 -125.1438000002275 -181.9326000000023 173.157
396 -83.42920000022967 -181.5194000000023 173.157
397 -41.71460000011206 -181.1062000000011 173.157
398 41.71459999990695 -181.1061999999991 173.157
399 83.42919999978433 -181.5193999999979 173.157
400 125.1437999997782 -181.9325999999978 173.157
401 166.8583999998919 -182.3457999999989 173.157
402 210.6127500000004 -135.8265000000985 173.157
403 210.4065000000011 -90.5510000002387 173.157
404 210.2002500000005 -45.27550000011797 173.157
405 228.1965000000001 48.98724999988899 176.057
406 228.1650000000002 97.97449999975298 176.057
407 228.1335000000001 146.9617499998723 176.057
408 180.5240000000999 197.727 176.057
409 135.3930000002343 197.727 176.057
410 90.26200000024093 197.727 176.057
411 45.13100000012548 197.727 176.057
412 -45.13099999989988 197.727 176.057
413 -90.26199999976262 197.727 176.057
414 -135.3929999997589 197.727 176.057
415 -180.5239999998744 197.727 176.057
416 -228.1334999999999 146.9617500001096 176.057
417 -228.1649999999998 97.97450000023869 176.057
418 -228.1964999999999 48.98725000012351 176.057
419 -228.1965000000001 -48.98724999988899 176.057
420 -228.1650000000002 -97.97449999975298 176.057
421 -228.1335000000001 -146.9617499998723 176.057
422 -180.5240000000999 -197.727 176.057
423 -135.3930000002343 -197.727 176.057
424 -90.26200000024093 -197.727 176.057
425 -45.13100000012548 -197.727 176.057
426 45.13099999989988 -197.727 176.057
427 90.26199999976262 -197.727 176.057
428 135.3929999997589 -197.727 176.057
429 180.5239999998744 -197.727 176.057
430 228.1334999999999 -146.9617500001096 176.057
431 228.1649999999998 -97.97450000023869 176.057
432 228.1964999999999 -48.98725000012351 176.057
433 11.34374887769189 4.217882065390949 2.217506878057971
434 4.831692200089448 10.58966697623039 2.224351732346221
435 -4.876944991280179 10.69565434211277 2.217631994284841
436 -11.27341701632076 4.193176209103079 2.222739144717533
437 -11.34374887769189 -4.217882065390949 2.217506878057971
438 -4.831692200089448 -10.58966697623039 2.224351732346221
439 4.876944991280179 -10.69565434211277 2.217631994284841
440 11.27341701632076 -4.193176209103079 2.222739144717533
441 12.51151161293977 4.735214082178433 8.383633083335022
442 5.335142292381466 11.16664499194009 8.493873882600498
443 -5.499000632760667 11.71025828770164 8.382222570524462
444 -12.17560571891648 4.647151822345405 8.467649962604559
445 -12.51151161293977 -4.735214082178433 8.383633083335022
446 -5.335142292381466 -11.16664499194009 8.493873882600498
447 5.499000632760667 -11.71025828770164 8.382222570524462
448 12.17560571891648 -4.647151822345405 8.467649962604561
449 15.98233288662825 6.020463817261478 18.58396750501482
450 7.096139499410898 13.58081130535357 18.6615478852287
451 -7.212904847389161 14.44260928408865 18.37489127405493
452 -15.5221188821012 5.978996831306204 18.788558337815
453 -15.98233288662825 -6.020463817261478 18.58396750501482
454 -7.096139499410898 -13.58081130535357 18.6615478852287
455 7.212904847389161 -14.44260928408865 18.37489127405493
456 15.5221188821012 -5.978996831306204 18.788558337815
457 22.97402879238053 8.475098091001884 33.53193088860948
458 10.6856070760118 19.1918736107401 33.55100341689014
459 -10.71024863135846 19.91110246831326 33.24612943178639
460 -22.6287956394557 8.460192700572762 33.72336581323338
461 -22.97402879238053 -8.475098091001884 33.53193088860948
462 -10.6856070760118 -19.1918736107401 33.55100341689014
463 10.71024863135846 -19.91110246831326 33.24612943178639
464 22.6287956394557 -8.460192700572762 33.72336581323338
465 34.1107919080303 14.1667149275085 53.49492361562075
466 16.35658557613896 28.70407141546578 53.63730141479954
467 -16.35641166141496 29.06516414955912 53.45700805110319
468 -33.94864851745193 14.15588131454076 53.59579113630927
469 -34.1107919080303 -14.1667149275085 53.49492361562075
470 -16.35658557613896 -28.70407141546578 53.63730141479954
471 16.35641166141496 -29.06516414955912 53.45700805110319
472 33.94864851745194 -14.15588131454077 53.59579113630929
473 50.37097828001897 21.04323301944536 78.10074172215181
474 17.08247014092342 42.47571681336619 78.12982850141798
475 -17.08227943192885 42.52489333154146 78.10022985187477
476 -50.33210568123399 21.04077229549299 78.12928485436466
477 -50.37097828001897 -21.04323301944536 78.10074172215181
478 -17.08247014092342 -42.47571681336619 78.12982850141798
479 17.08227943192885 -42.52489333154146 78.10022985187477
480 50.33210568123398 -21.040772295493 78.12928485436466
481 16.63155824743699 61.27263601293865 104.4824142380926
482 -16.63160847602094 61.24878397325939 104.5019466677845
483 -16.63155824743699 -61.27263601293865 104.4824142380926
484 16.63160847602094 -61.24878397325939 104.5019466677845
485 101.6139625448004 21.24891106604695 128.5081145826446
486 19.77827771555229 85.4327302154614 128.6723740198257
487 59.33364812746451 85.66479896070976 128.6227913399419
488 -19.77768248694191 85.51290058372359 128.5731313208868
489 -59.33304746090504 85.74570175117117 128.5233939626604
490 -101.3721457158748 21.24115286721291 128.8630792742049
491 -101.6139625448004 -21.24891106604695 128.5081145826446
492 -19.77827771555229 -85.4327302154614 128.6723740198257
493 -59.33364812746451 -85.66479896070976 128.6227913399419
494 19.77768248694191 -85.51290058372359 128.5731313208868
495 59.33304746090504 -85.74570175117117 128.5233939626604
496 101.3721457158748 -21.24115286721291 128.8630792742049
497 134.4327525806702 23.09664951178272 147.6023348555628
498 21.89458324835132 113.8330621984958 147.8308939858765
499 -21.89347649746593 113.9136867744917 147.6812973122365
500 -134.2463735676202 23.09470094770128 148.0070398946599
501 -134.4327525806702 -23.09664951178272 147.6023348555628
502 -21.89458324835132 -113.8330621984958 147.8308939858765
503 21.89347649746593 -113.9136867744917 147.6812973122365
504 134.2463735676202 -23.09470094770128 148.0070398946599
505 167.6026546213252 20.64509461105828 161.2489620796091
506 169.3501027936582 59.24224669237877 161.8179446521332
507 23.78931758376519 142.9215476334755 161.3201863632396
508 69.47369066410683 145.1466569590392 161.9049100902194
509 -23.7891110253883 142.9351706672375 161.2845290956442
510 -69.47350637282521 145.1588114080082 161.8731437698193
511 -167.5236202010425 20.64526379401355 161.4899994839178
512 -169.2789103464918 59.24239908881623 162.0336233734257
513 -167.6026546213252 -20.64509461105828 161.2489620796091
514 -169.3501027936581 -59.24224669237876 161.8179446521332
515 -23.78931758376519 -142.9215476334755 161.3201863632396
516 -69.47369066410683 -145.1466569590392 161.9049100902194
517 23.7891110253883 -142.9351706672375 161.2845290956442
518 69.47350637282521 -145.1588114080082 161.8731437698193
519 167.5236202010425 -20.64526379401355 161.4899994839178
520 169.2789103464917 -59.24239908881623 162.0336233734257
521 196.8060258508174 21.1874939031692 169.9165133822124
522 21.79691132255224 168.9655803707708 169.8133923754881
523 -21.79725240012234 168.9311468786646 169.936983739747
524 -196.7955682846035 21.18754154212719 169.9599219760111
525 -196.8060258508174 -21.1874939031692 169.9165133822124
526 -21.79691132255224 -168.9655803707708 169.8133923754881
527 21.79725240012234 -168.9311468786646 169.936983739747
528 196.7955682846035 -21.18754154212719 169.9599219760111
$EndNodes
$Elements
2012
1 15 2 0 1 1
2 15 2 0 2 2
3 15 2 0 3 3
4 15 2 0 4 4
5 15 2 0 5 5
6 15 2 0 6 6
7 15 2 0 7 7
8 15 2 0 8 8
9 15 2 0 9 9
10 15 2 0 10 10
11 15 2 0 11 11
12 15 2 0 12 12
13 15 2 0 13 13
14 15 2 0 14 14
15 15 2 0 15 15
16 15 2 0 16 16
17 15 2 0 17 17
18 15 2 0 18 18
19 15 2 0 19 19
20 15 2 0 20 20
21 15 2 0 21 21
22 15 2 0 22 22
23 15 2 0 23 23
24 15 2 0 24 24
25 15 2 0 25 25
26 15 2 0 26 26
27 15 2 0 27 27
28 15 2 0 28 28
29 15 2 0 29 29
30 15 2 0 30 30
31 15 2 0 31 31
32 15 2 0 32 32
33 15 2 0 33 33
34 15 2 0 34 34
35 15 2 0 35 35
36 15 2 0 36 36
37 15 2 0 37 37
38 15 2 0 38 38
39 15 2 0 39 39
40 15 2 0 40 40
41 15 2 0 41 41
42 15 2 0 42 42
43 15 2 0 43 43
44 15 2 0 44 44
45 15 2 0 45 45
46 15 2 0 46 46
47 15 2 0 47 47
48 15 2 0 48 48
49 15 2 0 49 49
50 15 2 0 50 50
51 15 2 0 51 51
52 15 2 0 52 52
53 15 2 0 53 53
54 15 2 0 54 54
55 15 2 0 55 55
56 15 2 0 56 56
57 15 2 0 57 57
58 15 2 0 58 58
59 15 2 0 59 59
60 15 2 0 60 60
61 15 2 0 61 61
62 15 2 0 62 62
63 15 2 0 63 63
64 15 2 0 64 64
65 15 2 0 65 65
66 15 2 0 66 66
67 15 2 0 67 67
68 15 2 0 68 68
69 15 2 0 69 69
70 15 2 0 70 70
71 15 2 0 71 71
72 15 2 0 72 72
73 15 2 0 73 73
74 15 2 0 74 74
75 15 2 0 75 75
76 15 2 0 76 76
77 15 2 0 77 77
78 15 2 0 78 78
79 15 2 0 79 79
80 15 2 0 80 80
81 15 2 0 81 81
82 15 2 0 82 82
83 15 2 0 83 83
84 15 2 0 84 84
85 15 2 0 85 85
86 15 2 0 86 86
87 15 2 0 87 87
88 15 2 0 88 88
89 15 2 0 89 89
90 15 2 0 90 90
91 15 2 0 91 91
92 15 2 0 92 92
93 15 2 0 93 93
94 15 2 0 94 94
95 15 2 0 95 95
96 15 2 0 96 96
97 15 2 0 97 97
98 15 2 0 98 98
99 15 2 0 99 99
100 15 2 0 100 100
101 15 2 0 101 101
102 15 2 0 102 102
103 15 2 0 103 103
104 15 2 0 104 104
105 15 2 0 105 105
106 15 2 0 106 106
107 15 2 0 107 107
108 15 2 0 108 108
109 15 2 0 109 109
110 15 2 0 110 110
111 15 2 0 111 111
112 15 2 0 112 112
113 15 2 0 113 113
114 15 2 0 114 114
115 15 2 0 115 115
116 15 2 0 116 116
117 15 2 0 117 117
118 15 2 0 118 118
119 15 2 0 119 119
120 15 2 0 120 120
121 15 2 0 121 121
122 15 2 0 122 122
123 15 2 0 123 123
124 15 2 0 124 124
125 15 2 0 125 125
126 15 2 0 126 126
127 15 2 0 127 127
128 15 2 0 128 128
129 15 2 0 129 129
130 15 2 0 130 130
131 15 2 0 131 131
132 15 2 0 132 132
133 15 2 0 133 133
134 15 2 0 134 134
135 15 2 0 135 135
136 15 2 0 136 136
137 15 2 0 137 137
138 15 2 0 138 138
139 15 2 0 139 139
140 15 2 0 140 140
141 15 2 0 141 141
142 15 2 0 142 142
143 15 2 0 143 143
144 15 2 0 144 144
145 15 2 0 145 145
146 15 2 0 146 146
147 15 2 0 147 147
148 15 2 0 148 148
149 15 2 0 149 149
150 15 2 0 150 150
151 15 2 0 151 151
152 15 2 0 152 152
153 15 2 0 153 153
154 15 2 0 154 154
155 15 2 0 155 155
156 15 2 0 156 156
157 15 2 0 157 157
158 15 2 0 158 158
159 15 2 0 159 159
160 15 2 0 160 160
161 15 2 0 161 161
162 15 2 0 162 162
163 15 2 0 163 163
164 15 2 0 164 164
165 15 2 0 165 165
166 15 2 0 166 166
167 15 2 0 167 167
168 15 2 0 168 168
169 15 2 0 169 169
170 15 2 0 170 170
171 15 2 0 171 171
172 15 2 0 172 172
173 15 2 0 173 173
174 15 2 0 174 174
175 15 2 0 175 175
176 15 2 0 176 176
177 15 2 0 177 177
178 15 2 0 178 178
179 15 2 0 179 179
180 15 2 0 180 180
181 15 2 0 181 181
182 15 2 0 182 182
183 15 2 0 183 183
184 15 2 0 184 184
185 15 2 0 185 185
186 15 2 0 186 186
187 15 2 0 187 187
188 15 2 0 188 188
189 15 2 0 189 189
190 15 2 0 190 190
191 15 2 0 191 191
192 15 2 0 192 192
193 15 2 0 193 193
194 15 2 0 194 194
195 15 2 0 195 195
196 15 2 0 196 196
197 15 2 0 197 197
198 15 2 0 198 198
199 15 2 0 199 199
200 15 2 0 200 200
201 15 2 0 201 201
202 15 2 0 202 202
203 15 2 0 203 203
204 15 2 0 204 204
205 15 2 0 205 205
206 15 2 0 206 206
207 15 2 0 207 207
208 15 2 0 208 208
209 15 2 0 209 209
210 15 2 0 210 210
211 15 2 0 211 211
212 15 2 0 212 212
213 15 2 0 213 213
214 15 2 0 214 214
215 15 2 0 215 215
216 15 2 0 216 216
217 15 2 0 217 217
218 15 2 0 218 218
219 15 2 0 219 219
220 15 2 0 220 220
221 15 2 0 221 221
222 15 2 0 222 222
223 15 2 0 223 223
224 15 2 0 224 224
225 15 2 0 225 225
226 15 2 0 226 226
227 15 2 0 227 227
228 15 2 0 228 228
229 15 2 0 229 229
230 15 2 0 230 230
231 15 2 0 231 231
232 15 2 0 232 232
233 15 2 0 233 233
234 15 2 0 234 234
235 15 2 0 235 235
236 15 2 0 236 236
237 15 2 0 237 237
238 15 2 0 238 238
239 15 2 0 239 239
240 15 2 0 240 240
241 15 2 0 241 241
242 15 2 0 242 242
243 15 2 0 243 243
244 15 2 0 244 244
245 15 2 0 245 245
246 15 2 0 246 246
247 15 2 0 247 247
248 15 2 0 248 248
249 15 2 0 249 249
250 15 2 0 250 250
251 15 2 0 251 251
252 15 2 0 252 252
253 15 2 0 253 253
254 15 2 0 254 254
255 15 2 0 255 255
256 15 2 0 256 256
257 15 2 0 257 257
258 15 2 0 258 258
259 15 2 0 259 259
260 15 2 0 260 260
261 15 2 0 261 261
262 15 2 0 262 262
263 15 2 0 263 263
264 15 2 0 264 264
265 15 2 0 265 265
266 15 2 0 266 266
267 15 2 0 267 267
268 15 2 0 268 268
269 15 2 0 269 269
270 15 2 0 270 270
271 15 2 0 271 271
272 15 2 0 272 272
273 15 2 0 273 273
274 15 2 0 274 274
275 15 2 0 275 275
276 15 2 0 276 276
277 15 2 0 277 277
278 15 2 0 278 278
279 15 2 0 279 279
280 15 2 0 280 280
281 15 2 0 281 281
282 15 2 0 282 282
283 15 2 0 283 283
284 15 2 0 284 284
285 15 2 0 285 285
286 15 2 0 286 286
287 15 2 0 287 287
288 15 2 0 288 288
289 15 2 0 289 289
290 15 2 0 290 290
291 15 2 0 291 291
292 15 2 0 292 292
293 15 2 0 293 293
294 15 2 0 294 294
295 15 2 0 295 295
296 15 2 0 296 296
297 15 2 0 297 297
298 15 2 0 298 298
299 15 2 0 299 299
300 15 2 0 300 300
301 15 2 0 301 301
302 15 2 0 302 302
303 15 2 0 303 303
304 15 2 0 304 304
305 15 2 0 305 305
306 15 2 0 306 306
307 15 2 0 307 307
308 15 2 0 308 308
309 15 2 0 309 309
310 15 2 0 310 310
311 15 2 0 311 311
312 15 2 0 312 312
313 1 2 0 1 1 25
314 1 2 0 2 1 2
315 1 2 0 3 2 26
316 1 2 0 4 2 3
317 1 2 0 5 3 27
318 1 2 0 6 3 4
319 1 2 0 7 4 28
320 1 2 0 8 4 5
321 1 2 0 9 5 29
322 1 2 0 10 5 6
323 1 2 0 11 6 30
324 1 2 0 12 6 7
325 1 2 0 13 7 31
326 1 2 0 14 7 8
327 1 2 0 15 8 32
328 1 2 0 16 8 9
329 1 2 0 17 9 33
330 1 2 0 18 9 10
331 1 2 0 19 10 34
332 1 2 0 20 10 11
333 1 2 0 21 11 35
334 1 2 0 22 11 12
335 1 2 0 23 12 36
336 1 2 0 24 12 13
337 1 2 0 25 13 37
338 1 2 0 26 13 14
339 1 2 0 27 14 38
340 1 2 0 28 14 15
341 1 2 0 29 15 39
342 1 2 0 30 15 16
343 1 2 0 31 16 40
344 1 2 0 32 16 17
345 1 2 0 33 17 41
346 1 2 0 34 17 18
347 1 2 0 35 18 42
348 1 2 0 36 18 19
349 1 2 0 37 19 43
350 1 2 0 38 19 20
351 1 2 0 39 20 44
352 1 2 0 40 20 21
353 1 2 0 41 21 45
354 1 2 0 42 21 22
355 1 2 0 43 22 46
356 1 2 0 44 22 23
357 1 2 0 45 23 47
358 1 2 0 46 23 24
359 1 2 0 47 24 48
360 1 2 0 48 24 1
361 1 2 0 49 25 49
362 1 2 0 50 25 26
363 1 2 0 51 26 50
364 1 2 0 52 26 27
365 1 2 0 53 27 51
366 1 2 0 54 27 28
367 1 2 0 55 28 52
368 1 2 0 56 28 29
369 1 2 0 57 29 53
370 1 2 0 58 29 30
371 1 2 0 59 30 54
372 1 2 0 60 30 31
373 1 2 0 61 31 55
374 1 2 0 62 31 32
375 1 2 0 63 32 56
376 1 2 0 64 32 33
377 1 2 0 65 33 57
378 1 2 0 66 33 34
379 1 2 0 67 34 58
380 1 2 0 68 34 35
381 1 2 0 69 35 59
382 1 2 0 70 35 36
383 1 2 0 71 36 60
384 1 2 0 72 36 37
385 1 2 0 73 37 61
386 1 2 0 74 37 38
387 1 2 0 75 38 62
388 1 2 0 76 38 39
389 1 2 0 77 39 63
390 1 2 0 78 39 40
391 1 2 0 79 40 64
392 1 2 0 80 40 41
393 1 2 0 81 41 65
394 1 2 0 82 41 42
395 1 2 0 83 42 66
396 1 2 0 84 42 43
397 1 2 0 85 43 67
398 1 2 0 86 43 44
399 1 2 0 87 44 68
400 1 2 0 88 44 45
401 1 2 0 89 45 69
402 1 2 0 90 45 46
403 1 2 0 91 46 70
404 1 2 0 92 46 47
405 1 2 0 93 47 71
406 1 2 0 94 47 48
407 1 2 0 95 48 72
408 1 2 0 96 48 25
409 1 2 0 97 49 73
410 1 2 0 98 49 50
411 1 2 0 99 50 74
412 1 2 0 100 50 51
413 1 2 0 101 51 75
414 1 2 0 102 51 52
415 1 2 0 103 52 76
416 1 2 0 104 52 53
417 1 2 0 105 53 77
418 1 2 0 106 53 54
419 1 2 0 107 54 78
420 1 2 0 108 54 55
421 1 2 0 109 55 79
422 1 2 0 110 55 56
423 1 2 0 111 56 80
424 1 2 0 112 56 57
425 1 2 0 113 57 81
426 1 2 0 114 57 58
427 1 2 0 115 58 82
428 1 2 0 116 58 59
429 1 2 0 117 59 83
430 1 2 0 118 59 60
431 1 2 0 119 60 84
432 1 2 0 120 60 61
433 1 2 0 121 61 85
434 1 2 0 122 61 62
435 1 2 0 123 62 86
436 1 2 0 124 62 63
437 1 2 0 125 63 87
438 1 2 0 126 63 64
439 1 2 0 127 64 88
440 1 2 0 128 64 65
441 1 2 0 129 65 89
442 1 2 0 130 65 66
443 1 2 0 131 66 90
444 1 2 0 132 66 67
445 1 2 0 133 67 91
446 1 2 0 134 67 68
447 1 2 0 135 68 92
448 1 2 0 136 68 69
449 1 2 0 137 69 93
450 1 2 0 138 69 70
451 1 2 0 139 70 94
452 1 2 0 140 70 71
453 1 2 0 141 71 95
454 1 2 0 142 71 72
455 1 2 0 143 72 96
456 1 2 0 144 72 49
457 1 2 0 145 73 97
458 1 2 0 146 73 74
459 1 2 0 147 74 98
460 1 2 0 148 74 75
461 1 2 0 149 75 99
462 1 2 0 150 75 76
463 1 2 0 151 76 100
464 1 2 0 152 76 77
465 1 2 0 153 77 101
466 1 2 0 154 77 78
467 1 2 0 155 78 102
468 1 2 0 156 78 79
469 1 2 0 157 79 103
470 1 2 0 158 79 80
471 1 2 0 159 80 104
472 1 2 0 160 80 81
473 1 2 0 161 81 105
474 1 2 0 162 81 82
475 1 2 0 163 82 106
476 1 2 0 164 82 83
477 1 2 0 165 83 107
478 1 2 0 166 83 84
479 1 2 0 167 84 108
480 1 2 0 168 84 85
481 1 2 0 169 85 109
482 1 2 0 170 85 86
483 1 2 0 171 86 110
484 1 2 0 172 86 87
485 1 2 0 173 87 111
486 1 2 0 174 87 88
487 1 2 0 175 88 112
488 1 2 0 176 88 89
489 1 2 0 177 89 113
490 1 2 0 178 89 90
491 1 2 0 179 90 114
492 1 2 0 180 90 91
493 1 2 0 181 91 115
494 1 2 0 182 91 92
495 1 2 0 183 92 116
496 1 2 0 184 92 93
497 1 2 0 185 93 117
498 1 2 0 186 93 94
499 1 2 0 187 94 118
500 1 2 0 188 94 95
501 1 2 0 189 95 119
502 1 2 0 190 95 96
503 1 2 0 191 96 120
504 1 2 0 192 96 73
505 1 2 0 193 97 121
506 1 2 0 194 97 98
507 1 2 0 195 98 122
508 1 2 0 196 98 99
509 1 2 0 197 99 123
510 1 2 0 198 99 100
511 1 2 0 199 100 124
512 1 2 0 200 100 101
513 1 2 0 201 101 125
514 1 2 0 202 101 102
515 1 2 0 203 102 126
516 1 2 0 204 102 103
517 1 2 0 205 103 127
518 1 2 0 206 103 104
519 1 2 0 207 104 128
520 1 2 0 208 104 105
521 1 2 0 209 105 129
522 1 2 0 210 105 106
523 1 2 0 211 106 130
524 1 2 0 212 106 107
525 1 2 0 213 107 131
526 1 2 0 214 107 108
527 1 2 0 215 108 132
528 1 2 0 216 108 109
529 1 2 0 217 109 133
530 1 2 0 218 109 110
531 1 2 0 219 110 134
532 1 2 0 220 110 111
533 1 2 0 221 111 135
534 1 2 0 222 111 112
535 1 2 0 223 112 136
536 1 2 0 224 112 113
537 1 2 0 225 113 137
538 1 2 0 226 113 114
539 1 2 0 227 114 138
540 1 2 0 228 114 115
541 1 2 0 229 115 139
542 1 2 0 230 115 116
543 1 2 0 231 116 140
544 1 2 0 232 116 117
545 1 2 0 233 117 141
546 1 2 0 234 117 118
547 1 2 0 235 118 142
548 1 2 0 236 118 119
549 1 2 0 237 119 143
550 1 2 0 238 119 120
551 1 2 0 239 120 144
552 1 2 0 240 120 97
553 1 2 0 241 121 145
554 1 2 0 242 121 122
555 1 2 0 243 122 146
556 1 2 0 244 122 123
557 1 2 0 245 123 147
558 1 2 0 246 123 124
559 1 2 0 247 124 148
560 1 2 0 248 124 125
561 1 2 0 249 125 149
562 1 2 0 250 125 126
563 1 2 0 251 126 150
564 1 2 0 252 126 127
565 1 2 0 253 127 151
566 1 2 0 254 127 128
567 1 2 0 255 128 152
568 1 2 0 256 128 129
569 1 2 0 257 129 153
570 1 2 0 258 129 130
571 1 2 0 259 130 154
572 1 2 0 260 130 131
573 1 2 0 261 131 155
574 1 2 0 262 131 132
575 1 2 0 263 132 156
576 1 2 0 264 132 133
577 1 2 0 265 133 157
578 1 2 0 266 133 134
579 1 2 0 267 134 158
580 1 2 0 268 134 135
581 1 2 0 269 135 159
582 1 2 0 270 135 136
583 1 2 0 271 136 160
584 1 2 0 272 136 137
585 1 2 0 273 137 161
586 1 2 0 274 137 138
587 1 2 0 275 138 162
588 1 2 0 276 138 139
589 1 2 0 277 139 163
590 1 2 0 278 139 140
591 1 2 0 279 140 164
592 1 2 0 280 140 141
593 1 2 0 281 141 165
594 1 2 0 282 141 142
595 1 2 0 283 142 166
596 1 2 0 284 142 143
597 1 2 0 285 143 167
598 1 2 0 286 143 144
599 1 2 0 287 144 168
600 1 2 0 288 144 121
601 1 2 0 289 145 169
602 1 2 0 290 145 146
603 1 2 0 291 146 170
604 1 2 0 292 146 147
605 1 2 0 293 147 171
606 1 2 0 294 147 148
607 1 2 0 295 148 172
608 1 2 0 296 148 149
609 1 2 0 297 149 173
610 1 2 0 298 149 150
611 1 2 0 299 150 174
612 1 2 0 300 150 313
613 1 2 0 300 313 151
614 1 2 0 301 151 175
615 1 2 0 302 151 314
616 1 2 0 302 314 152
617 1 2 0 303 152 176
618 1 2 0 304 152 153
619 1 2 0 305 153 177
620 1 2 0 306 153 154
621 1 2 0 307 154 178
622 1 2 0 308 154 155
623 1 2 0 309 155 179
624 1 2 0 310 155 156
625 1 2 0 311 156 180
626 1 2 0 312 156 157
627 1 2 0 313 157 181
628 1 2 0 314 157 158
629 1 2 0 315 158 182
630 1 2 0 316 158 159
631 1 2 0 317 159 183
632 1 2 0 318 159 160
633 1 2 0 319 160 184
634 1 2 0 320 160 161
635 1 2 0 321 161 185
636 1 2 0 322 161 162
637 1 2 0 323 162 186
638 1 2 0 324 162 315
639 1 2 0 324 315 163
640 1 2 0 325 163 187
641 1 2 0 326 163 316
642 1 2 0 326 316 164
643 1 2 0 327 164 188
644 1 2 0 328 164 165
645 1 2 0 329 165 189
646 1 2 0 330 165 166
647 1 2 0 331 166 190
648 1 2 0 332 166 167
649 1 2 0 333 167 191
650 1 2 0 334 167 168
651 1 2 0 335 168 192
652 1 2 0 336 168 145
653 1 2 0 337 169 193
654 1 2 0 338 169 317
655 1 2 0 338 317 170
656 1 2 0 339 170 194
657 1 2 0 340 170 171
658 1 2 0 341 171 195
659 1 2 0 342 171 172
660 1 2 0 343 172 196
661 1 2 0 344 172 173
662 1 2 0 345 173 197
663 1 2 0 346 173 174
664 1 2 0 347 174 198
665 1 2 0 348 174 318
666 1 2 0 348 318 175
667 1 2 0 349 175 199
668 1 2 0 350 175 319
669 1 2 0 350 319 176
670 1 2 0 351 176 200
671 1 2 0 352 176 177
672 1 2 0 353 177 201
673 1 2 0 354 177 178
674 1 2 0 355 178 202
675 1 2 0 356 178 179
676 1 2 0 357 179 203
677 1 2 0 358 179 180
678 1 2 0 359 180 204
679 1 2 0 360 180 320
680 1 2 0 360 320 181
681 1 2 0 361 181 205
682 1 2 0 362 181 321
683 1 2 0 362 321 182
684 1 2 0 363 182 206
685 1 2 0 364 182 183
686 1 2 0 365 183 207
687 1 2 0 366 183 184
688 1 2 0 367 184 208
689 1 2 0 368 184 185
690 1 2 0 369 185 209
691 1 2 0 370 185 186
692 1 2 0 371 186 210
693 1 2 0 372 186 322
694 1 2 0 372 322 187
695 1 2 0 373 187 211
696 1 2 0 374 187 323
697 1 2 0 374 323 188
698 1 2 0 375 188 212
699 1 2 0 376 188 189
700 1 2 0 377 189 213
701 1 2 0 378 189 190
702 1 2 0 379 190 214
703 1 2 0 380 190 191
704 1 2 0 381 191 215
705 1 2 0 382 191 192
706 1 2 0 383 192 216
707 1 2 0 384 192 324
708 1 2 0 384 324 169
709 1 2 0 385 193 217
710 1 2 0 386 193 325
711 1 2 0 386 325 194
712 1 2 0 387 194 218
713 1 2 0 388 194 195
714 1 2 0 389 195 219
715 1 2 0 390 195 196
716 1 2 0 391 196 220
717 1 2 0 392 196 197
718 1 2 0 393 197 221
719 1 2 0 394 197 198
720 1 2 0 395 198 222
721 1 2 0 396 198 326
722 1 2 0 396 326 327
723 1 2 0 396 327 199
724 1 2 0 397 199 223
725 1 2 0 398 199 328
726 1 2 0 398 328 329
727 1 2 0 398 329 200
728 1 2 0 399 200 224
729 1 2 0 400 200 201
730 1 2 0 401 201 225
731 1 2 0 402 201 202
732 1 2 0 403 202 226
733 1 2 0 404 202 203
734 1 2 0 405 203 227
735 1 2 0 406 203 204
736 1 2 0 407 204 228
737 1 2 0 408 204 330
738 1 2 0 408 330 205
739 1 2 0 409 205 229
740 1 2 0 410 205 331
741 1 2 0 410 331 206
742 1 2 0 411 206 230
743 1 2 0 412 206 207
744 1 2 0 413 207 231
745 1 2 0 414 207 208
746 1 2 0 415 208 232
747 1 2 0 416 208 209
748 1 2 0 417 209 233
749 1 2 0 418 209 210
750 1 2 0 419 210 234
751 1 2 0 420 210 332
752 1 2 0 420 332 333
753 1 2 0 420 333 211
754 1 2 0 421 211 235
755 1 2 0 422 211 334
756 1 2 0 422 334 335
757 1 2 0 422 335 212
758 1 2 0 423 212 236
759 1 2 0 424 212 213
760 1 2 0 425 213 237
761 1 2 0 426 213 214
762 1 2 0 427 214 238
763 1 2 0 428 214 215
764 1 2 0 429 215 239
765 1 2 0 430 215 216
766 1 2 0 431 216 240
767 1 2 0 432 216 336
768 1 2 0 432 336 193
769 1 2 0 433 217 241
770 1 2 0 434 217 337
771 1 2 0 434 337 338
772 1 2 0 434 338 218
773 1 2 0 435 218 242
774 1 2 0 436 218 219
775 1 2 0 437 219 243
776 1 2 0 438 219 220
777 1 2 0 439 220 244
778 1 2 0 440 220 221
779 1 2 0 441 221 245
780 1 2 0 442 221 222
781 1 2 0 443 222 246
782 1 2 0 444 222 339
783 1 2 0 444 339 340
784 1 2 0 444 340 223
785 1 2 0 445 223 247
786 1 2 0 446 223 341
787 1 2 0 446 341 342
788 1 2 0 446 342 224
789 1 2 0 447 224 248
790 1 2 0 448 224 225
791 1 2 0 449 225 249
792 1 2 0 450 225 226
793 1 2 0 451 226 250
794 1 2 0 452 226 227
795 1 2 0 453 227 251
796 1 2 0 454 227 228
797 1 2 0 455 228 252
798 1 2 0 456 228 343
799 1 2 0 456 343 344
800 1 2 0 456 344 229
801 1 2 0 457 229 253
802 1 2 0 458 229 345
803 1 2 0 458 345 346
804 1 2 0 458 346 230
805 1 2 0 459 230 254
806 1 2 0 460 230 231
807 1 2 0 461 231 255
808 1 2 0 462 231 232
809 1 2 0 463 232 256
810 1 2 0 464 232 233
811 1 2 0 465 233 257
812 1 2 0 466 233 234
813 1 2 0 467 234 258
814 1 2 0 468 234 347
815 1 2 0 468 347 348
816 1 2 0 468 348 235
817 1 2 0 469 235 259
818 1 2 0 470 235 349
819 1 2 0 470 349 350
820 1 2 0 470 350 236
821 1 2 0 471 236 260
822 1 2 0 472 236 237
823 1 2 0 473 237 261
824 1 2 0 474 237 238
825 1 2 0 475 238 262
826 1 2 0 476 238 239
827 1 2 0 477 239 263
828 1 2 0 478 239 240
829 1 2 0 479 240 264
830 1 2 0 480 240 351
831 1 2 0 480 351 352
832 1 2 0 480 352 217
833 1 2 0 481 241 265
834 1 2 0 482 241 353
835 1 2 0 482 353 354
836 1 2 0 482 354 355
837 1 2 0 482 355 242
838 1 2 0 483 242 266
839 1 2 0 484 242 243
840 1 2 0 485 243 267
841 1 2 0 486 243 244
842 1 2 0 487 244 268
843 1 2 0 488 244 245
844 1 2 0 489 245 269
845 1 2 0 490 245 246
846 1 2 0 491 246 270
847 1 2 0 492 246 356
848 1 2 0 492 356 357
849 1 2 0 492 357 358
850 1 2 0 492 358 247
851 1 2 0 493 247 271
852 1 2 0 494 247 359
853 1 2 0 494 359 360
854 1 2 0 494 360 361
855 1 2 0 494 361 248
856 1 2 0 495 248 272
857 1 2 0 496 248 249
858 1 2 0 497 249 273
859 1 2 0 498 249 250
860 1 2 0 499 250 274
861 1 2 0 500 250 251
862 1 2 0 501 251 275
863 1 2 0 502 251 252
864 1 2 0 503 252 276
865 1 2 0 504 252 362
866 1 2 0 504 362 363
867 1 2 0 504 363 364
868 1 2 0 504 364 253
869 1 2 0 505 253 277
870 1 2 0 506 253 365
871 1 2 0 506 365 366
872 1 2 0 506 366 367
873 1 2 0 506 367 254
874 1 2 0 507 254 278
875 1 2 0 508 254 255
876 1 2 0 509 255 279
877 1 2 0 510 255 256
878 1 2 0 511 256 280
879 1 2 0 512 256 257
880 1 2 0 513 257 281
881 1 2 0 514 257 258
882 1 2 0 515 258 282
883 1 2 0 516 258 368
884 1 2 0 516 368 369
885 1 2 0 516 369 370
886 1 2 0 516 370 259
887 1 2 0 517 259 283
888 1 2 0 518 259 371
889 1 2 0 518 371 372
890 1 2 0 518 372 373
891 1 2 0 518 373 260
892 1 2 0 519 260 284
893 1 2 0 520 260 261
894 1 2 0 521 261 285
895 1 2 0 522 261 262
896 1 2 0 523 262 286
897 1 2 0 524 262 263
898 1 2 0 525 263 287
899 1 2 0 526 263 264
900 1 2 0 527 264 288
901 1 2 0 528 264 374
902 1 2 0 528 374 375
903 1 2 0 528 375 376
904 1 2 0 528 376 241
905 1 2 0 529 265 289
906 1 2 0 530 265 377
907 1 2 0 530 377 378
908 1 2 0 530 378 379
909 1 2 0 530 379 266
910 1 2 0 531 266 290
911 1 2 0 532 266 267
912 1 2 0 533 267 291
913 1 2 0 534 267 268
914 1 2 0 535 268 292
915 1 2 0 536 268 269
916 1 2 0 537 269 293
917 1 2 0 538 269 270
918 1 2 0 539 270 294
919 1 2 0 540 270 380
920 1 2 0 540 380 381
921 1 2 0 540 381 382
922 1 2 0 540 382 383
923 1 2 0 540 383 271
924 1 2 0 541 271 295
925 1 2 0 542 271 384
926 1 2 0 542 384 385
927 1 2 0 542 385 386
928 1 2 0 542 386 387
929 1 2 0 542 387 272
930 1 2 0 543 272 296
931 1 2 0 544 272 273
932 1 2 0 545 273 297
933 1 2 0 546 273 274
934 1 2 0 547 274 298
935 1 2 0 548 274 275
936 1 2 0 549 275 299
937 1 2 0 550 275 276
938 1 2 0 551 276 300
939 1 2 0 552 276 388
940 1 2 0 552 388 389
941 1 2 0 552 389 390
942 1 2 0 552 390 277
943 1 2 0 553 277 301
944 1 2 0 554 277 391
945 1 2 0 554 391 392
946 1 2 0 554 392 393
947 1 2 0 554 393 278
948 1 2 0 555 278 302
949 1 2 0 556 278 279
950 1 2 0 557 279 303
951 1 2 0 558 279 280
952 1 2 0 559 280 304
953 1 2 0 560 280 281
954 1 2 0 561 281 305
955 1 2 0 562 281 282
956 1 2 0 563 282 306
957 1 2 0 564 282 394
958 1 2 0 564 394 395
959 1 2 0 564 395 396
960 1 2 0 564 396 397
961 1 2 0 564 397 283
962 1 2 0 565 283 307
963 1 2 0 566 283 398
964 1 2 0 566 398 399
965 1 2 0 566 399 400
966 1 2 0 566 400 401
967 1 2 0 566 401 284
968 1 2 0 567 284 308
969 1 2 0 568 284 285
970 1 2 0 569 285 309
971 1 2 0 570 285 286
972 1 2 0 571 286 310
973 1 2 0 572 286 287
974 1 2 0 573 287 311
975 1 2 0 574 287 288
976 1 2 0 575 288 312
977 1 2 0 576 288 402
978 1 2 0 576 402 403
979 1 2 0 576 403 404
980 1 2 0 576 404 265
981 1 2 0 578 289 405
982 1 2 0 578 405 406
983 1 2 0 578 406 407
984 1 2 0 578 407 290
985 1 2 0 580 290 291
986 1 2 0 582 291 292
987 1 2 0 584 292 293
988 1 2 0 586 293 294
989 1 2 0 588 294 408
990 1 2 0 588 408 409
991 1 2 0 588 409 410
992 1 2 0 588 410 411
993 1 2 0 588 411 295
994 1 2 0 590 295 412
995 1 2 0 590 412 413
996 1 2 0 590 413 414
997 1 2 0 590 414 415
998 1 2 0 590 415 296
999 1 2 0 592 296 297
1000 1 2 0 594 297 298
1001 1 2 0 596 298 299
1002 1 2 0 598 299 300
1003 1 2 0 600 300 416
1004 1 2 0 600 416 417
1005 1 2 0 600 417 418
1006 1 2 0 600 418 301
1007 1 2 0 602 301 419
1008 1 2 0 602 419 420
1009 1 2 0 602 420 421
1010 1 2 0 602 421 302
1011 1 2 0 604 302 303
1012 1 2 0 606 303 304
1013 1 2 0 608 304 305
1014 1 2 0 610 305 306
1015 1 2 0 612 306 422
1016 1 2 0 612 422 423
1017 1 2 0 612 423 424
1018 1 2 0 612 424 425
1019 1 2 0 612 425 307
1020 1 2 0 614 307 426
1021 1 2 0 614 426 427
1022 1 2 0 614 427 428
1023 1 2 0 614 428 429
1024 1 2 0 614 429 308
1025 1 2 0 616 308 309
1026 1 2 0 618 309 310
1027 1 2 0 620 310 311
1028 1 2 0 622 311 312
1029 1 2 0 624 312 430
1030 1 2 0 624 430 431
1031 1 2 0 624 431 432
1032 1 2 0 624 432 289
1033 2 2 0 38 26 2 433
1034 2 2 0 38 1 25 433
1035 2 2 0 38 2 1 433
1036 2 2 0 38 25 26 433
1037 2 2 0 39 3 2 26
1038 2 2 0 39 3 26 27
1039 2 2 0 40 4 3 28
1040 2 2 0 40 28 3 27
1041 2 2 0 41 5 4 28
1042 2 2 0 41 5 28 29
1043 2 2 0 42 6 5 30
1044 2 2 0 42 30 5 29
1045 2 2 0 43 6 30 434
1046 2 2 0 43 31 7 434
1047 2 2 0 43 7 6 434
1048 2 2 0 43 30 31 434
1049 2 2 0 44 32 8 435
1050 2 2 0 44 7 31 435
1051 2 2 0 44 8 7 435
1052 2 2 0 44 31 32 435
1053 2 2 0 45 32 9 8
1054 2 2 0 45 33 9 32
1055 2 2 0 46 34 10 9
1056 2 2 0 46 33 34 9
1057 2 2 0 47 34 11 10
1058 2 2 0 47 35 11 34
1059 2 2 0 48 36 12 11
1060 2 2 0 48 35 36 11
1061 2 2 0 49 12 36 436
1062 2 2 0 49 37 13 436
1063 2 2 0 49 13 12 436
1064 2 2 0 49 36 37 436
1065 2 2 0 50 38 14 437
1066 2 2 0 50 13 37 437
1067 2 2 0 50 14 13 437
1068 2 2 0 50 37 38 437
1069 2 2 0 51 38 15 14
1070 2 2 0 51 39 15 38
1071 2 2 0 52 40 16 15
1072 2 2 0 52 39 40 15
1073 2 2 0 53 40 17 16
1074 2 2 0 53 41 17 40
1075 2 2 0 54 42 18 17
1076 2 2 0 54 41 42 17
1077 2 2 0 55 18 42 438
1078 2 2 0 55 43 19 438
1079 2 2 0 55 19 18 438
1080 2 2 0 55 42 43 438
1081 2 2 0 56 44 20 439
1082 2 2 0 56 19 43 439
1083 2 2 0 56 20 19 439
1084 2 2 0 56 43 44 439
1085 2 2 0 57 21 20 44
1086 2 2 0 57 21 44 45
1087 2 2 0 58 22 21 46
1088 2 2 0 58 46 21 45
1089 2 2 0 59 23 22 46
1090 2 2 0 59 23 46 47
1091 2 2 0 60 24 23 48
1092 2 2 0 60 48 23 47
1093 2 2 0 61 24 48 440
1094 2 2 0 61 25 1 440
1095 2 2 0 61 1 24 440
1096 2 2 0 61 48 25 440
1097 2 2 0 62 49 50 441
1098 2 2 0 62 26 25 441
1099 2 2 0 62 50 26 441
1100 2 2 0 62 25 49 441
1101 2 2 0 63 50 27 26
1102 2 2 0 63 51 27 50
1103 2 2 0 64 52 28 51
1104 2 2 0 64 51 28 27
1105 2 2 0 65 52 29 28
1106 2 2 0 65 53 29 52
1107 2 2 0 66 53 30 29
1108 2 2 0 66 54 30 53
1109 2 2 0 67 31 30 442
1110 2 2 0 67 30 54 442
1111 2 2 0 67 55 31 442
1112 2 2 0 67 54 55 442
1113 2 2 0 68 32 31 443
1114 2 2 0 68 56 32 443
1115 2 2 0 68 31 55 443
1116 2 2 0 68 55 56 443
1117 2 2 0 69 57 33 32
1118 2 2 0 69 56 57 32
1119 2 2 0 70 58 34 33
1120 2 2 0 70 57 58 33
1121 2 2 0 71 58 59 34
1122 2 2 0 71 59 35 34
1123 2 2 0 72 60 36 35
1124 2 2 0 72 59 60 35
1125 2 2 0 73 60 61 444
1126 2 2 0 73 37 36 444
1127 2 2 0 73 36 60 444
1128 2 2 0 73 61 37 444
1129 2 2 0 74 61 62 445
1130 2 2 0 74 38 37 445
1131 2 2 0 74 62 38 445
1132 2 2 0 74 37 61 445
1133 2 2 0 75 62 39 38
1134 2 2 0 75 63 39 62
1135 2 2 0 76 64 40 63
1136 2 2 0 76 63 40 39
1137 2 2 0 77 64 41 40
1138 2 2 0 77 65 41 64
1139 2 2 0 78 65 42 41
1140 2 2 0 78 66 42 65
1141 2 2 0 79 43 42 446
1142 2 2 0 79 42 66 446
1143 2 2 0 79 67 43 446
1144 2 2 0 79 66 67 446
1145 2 2 0 80 44 43 447
1146 2 2 0 80 68 44 447
1147 2 2 0 80 43 67 447
1148 2 2 0 80 67 68 447
1149 2 2 0 81 69 45 44
1150 2 2 0 81 68 69 44
1151 2 2 0 82 70 46 45
1152 2 2 0 82 69 70 45
1153 2 2 0 83 70 71 46
1154 2 2 0 83 71 47 46
1155 2 2 0 84 72 48 47
1156 2 2 0 84 71 72 47
1157 2 2 0 85 72 49 448
1158 2 2 0 85 25 48 448
1159 2 2 0 85 48 72 448
1160 2 2 0 85 49 25 448
1161 2 2 0 86 73 74 449
1162 2 2 0 86 74 50 449
1163 2 2 0 86 49 73 449
1164 2 2 0 86 50 49 449
1165 2 2 0 87 74 51 50
1166 2 2 0 87 75 51 74
1167 2 2 0 88 75 52 51
1168 2 2 0 88 76 52 75
1169 2 2 0 89 77 53 76
1170 2 2 0 89 76 53 52
1171 2 2 0 90 77 54 53
1172 2 2 0 90 78 54 77
1173 2 2 0 91 78 79 450
1174 2 2 0 91 54 78 450
1175 2 2 0 91 79 55 450
1176 2 2 0 91 55 54 450
1177 2 2 0 92 79 80 451
1178 2 2 0 92 80 56 451
1179 2 2 0 92 55 79 451
1180 2 2 0 92 56 55 451
1181 2 2 0 93 81 57 56
1182 2 2 0 93 80 81 56
1183 2 2 0 94 81 82 57
1184 2 2 0 94 82 58 57
1185 2 2 0 95 83 59 58
1186 2 2 0 95 82 83 58
1187 2 2 0 96 84 60 59
1188 2 2 0 96 83 84 59
1189 2 2 0 97 84 85 452
1190 2 2 0 97 60 84 452
1191 2 2 0 97 85 61 452
1192 2 2 0 97 61 60 452
1193 2 2 0 98 85 86 453
1194 2 2 0 98 86 62 453
1195 2 2 0 98 61 85 453
1196 2 2 0 98 62 61 453
1197 2 2 0 99 86 63 62
1198 2 2 0 99 87 63 86
1199 2 2 0 100 87 64 63
1200 2 2 0 100 88 64 87
1201 2 2 0 101 89 65 88
1202 2 2 0 101 88 65 64
1203 2 2 0 102 89 66 65
1204 2 2 0 102 90 66 89
1205 2 2 0 103 90 91 454
1206 2 2 0 103 66 90 454
1207 2 2 0 103 91 67 454
1208 2 2 0 103 67 66 454
1209 2 2 0 104 91 92 455
1210 2 2 0 104 92 68 455
1211 2 2 0 104 67 91 455
1212 2 2 0 104 68 67 455
1213 2 2 0 105 93 69 68
1214 2 2 0 105 92 93 68
1215 2 2 0 106 93 94 69
1216 2 2 0 106 94 70 69
1217 2 2 0 107 95 71 70
1218 2 2 0 107 94 95 70
1219 2 2 0 108 96 72 71
1220 2 2 0 108 95 96 71
1221 2 2 0 109 96 73 456
1222 2 2 0 109 72 96 456
1223 2 2 0 109 73 49 456
1224 2 2 0 109 49 72 456
1225 2 2 0 110 98 74 457
1226 2 2 0 110 73 97 457
1227 2 2 0 110 97 98 457
1228 2 2 0 110 74 73 457
1229 2 2 0 111 98 75 74
1230 2 2 0 111 99 75 98
1231 2 2 0 112 99 76 75
1232 2 2 0 112 100 76 99
1233 2 2 0 113 100 77 76
1234 2 2 0 113 101 77 100
1235 2 2 0 114 101 78 77
1236 2 2 0 114 102 78 101
1237 2 2 0 115 102 103 458
1238 2 2 0 115 78 102 458
1239 2 2 0 115 103 79 458
1240 2 2 0 115 79 78 458
1241 2 2 0 116 103 104 459
1242 2 2 0 116 104 80 459
1243 2 2 0 116 79 103 459
1244 2 2 0 116 80 79 459
1245 2 2 0 117 105 81 80
1246 2 2 0 117 104 105 80
1247 2 2 0 118 106 82 81
1248 2 2 0 118 105 106 81
1249 2 2 0 119 107 83 82
1250 2 2 0 119 106 107 82
1251 2 2 0 120 108 84 83
1252 2 2 0 120 107 108 83
1253 2 2 0 121 84 108 460
1254 2 2 0 121 109 85 460
1255 2 2 0 121 108 109 460
1256 2 2 0 121 85 84 460
1257 2 2 0 122 110 86 461
1258 2 2 0 122 85 109 461
1259 2 2 0 122 109 110 461
1260 2 2 0 122 86 85 461
1261 2 2 0 123 110 87 86
1262 2 2 0 123 111 87 110
1263 2 2 0 124 111 88 87
1264 2 2 0 124 112 88 111
1265 2 2 0 125 112 89 88
1266 2 2 0 125 113 89 112
1267 2 2 0 126 113 90 89
1268 2 2 0 126 114 90 113
1269 2 2 0 127 114 115 462
1270 2 2 0 127 90 114 462
1271 2 2 0 127 115 91 462
1272 2 2 0 127 91 90 462
1273 2 2 0 128 115 116 463
1274 2 2 0 128 116 92 463
1275 2 2 0 128 91 115 463
1276 2 2 0 128 92 91 463
1277 2 2 0 129 117 93 92
1278 2 2 0 129 116 117 92
1279 2 2 0 130 118 94 93
1280 2 2 0 130 117 118 93
1281 2 2 0 131 119 95 94
1282 2 2 0 131 118 119 94
1283 2 2 0 132 120 96 95
1284 2 2 0 132 119 120 95
1285 2 2 0 133 96 120 464
1286 2 2 0 133 97 73 464
1287 2 2 0 133 120 97 464
1288 2 2 0 133 73 96 464
1289 2 2 0 134 121 122 465
1290 2 2 0 134 122 98 465
1291 2 2 0 134 97 121 465
1292 2 2 0 134 98 97 465
1293 2 2 0 135 122 99 98
1294 2 2 0 135 123 99 122
1295 2 2 0 136 123 100 99
1296 2 2 0 136 124 100 123
1297 2 2 0 137 124 101 100
1298 2 2 0 137 125 101 124
1299 2 2 0 138 125 102 101
1300 2 2 0 138 126 102 125
1301 2 2 0 139 102 126 466
1302 2 2 0 139 103 102 466
1303 2 2 0 139 127 103 466
1304 2 2 0 139 126 127 466
1305 2 2 0 140 128 104 467
1306 2 2 0 140 104 103 467
1307 2 2 0 140 103 127 467
1308 2 2 0 140 127 128 467
1309 2 2 0 141 129 105 104
1310 2 2 0 141 128 129 104
1311 2 2 0 142 130 106 105
1312 2 2 0 142 129 130 105
1313 2 2 0 143 131 107 106
1314 2 2 0 143 130 131 106
1315 2 2 0 144 132 108 107
1316 2 2 0 144 131 132 107
1317 2 2 0 145 132 133 468
1318 2 2 0 145 108 132 468
1319 2 2 0 145 133 109 468
1320 2 2 0 145 109 108 468
1321 2 2 0 146 133 134 469
1322 2 2 0 146 134 110 469
1323 2 2 0 146 109 133 469
1324 2 2 0 146 110 109 469
1325 2 2 0 147 134 111 110
1326 2 2 0 147 135 111 134
1327 2 2 0 148 135 112 111
1328 2 2 0 148 136 112 135
1329 2 2 0 149 136 113 112
1330 2 2 0 149 137 113 136
1331 2 2 0 150 137 114 113
1332 2 2 0 150 138 114 137
1333 2 2 0 151 114 138 470
1334 2 2 0 151 115 114 470
1335 2 2 0 151 139 115 470
1336 2 2 0 151 138 139 470
1337 2 2 0 152 140 116 471
1338 2 2 0 152 116 115 471
1339 2 2 0 152 115 139 471
1340 2 2 0 152 139 140 471
1341 2 2 0 153 141 117 116
1342 2 2 0 153 140 141 116
1343 2 2 0 154 142 118 117
1344 2 2 0 154 141 142 117
1345 2 2 0 155 143 119 118
1346 2 2 0 155 142 143 118
1347 2 2 0 156 144 120 119
1348 2 2 0 156 143 144 119
1349 2 2 0 157 144 121 472
1350 2 2 0 157 120 144 472
1351 2 2 0 157 121 97 472
1352 2 2 0 157 97 120 472
1353 2 2 0 158 146 122 473
1354 2 2 0 158 122 121 473
1355 2 2 0 158 121 145 473
1356 2 2 0 158 145 146 473
1357 2 2 0 159 146 123 122
1358 2 2 0 159 147 123 146
1359 2 2 0 160 147 124 123
1360 2 2 0 160 148 124 147
1361 2 2 0 161 148 125 124
1362 2 2 0 161 149 125 148
1363 2 2 0 162 150 126 125
1364 2 2 0 162 149 150 125
1365 2 2 0 163 127 126 474
1366 2 2 0 163 150 313 126
1367 2 2 0 163 126 313 474
1368 2 2 0 163 151 127 474
1369 2 2 0 163 313 151 474
1370 2 2 0 164 128 127 475
1371 2 2 0 164 128 314 152
1372 2 2 0 164 314 128 475
1373 2 2 0 164 127 151 475
1374 2 2 0 164 151 314 475
1375 2 2 0 165 152 129 128
1376 2 2 0 165 153 129 152
1377 2 2 0 166 154 130 129
1378 2 2 0 166 153 154 129
1379 2 2 0 167 155 131 130
1380 2 2 0 167 154 155 130
1381 2 2 0 168 156 132 131
1382 2 2 0 168 155 156 131
1383 2 2 0 169 132 156 476
1384 2 2 0 169 133 132 476
1385 2 2 0 169 157 133 476
1386 2 2 0 169 156 157 476
1387 2 2 0 170 158 134 477
1388 2 2 0 170 134 133 477
1389 2 2 0 170 133 157 477
1390 2 2 0 170 157 158 477
1391 2 2 0 171 158 135 134
1392 2 2 0 171 159 135 158
1393 2 2 0 172 159 136 135
1394 2 2 0 172 160 136 159
1395 2 2 0 173 160 137 136
1396 2 2 0 173 161 137 160
1397 2 2 0 174 162 138 137
1398 2 2 0 174 161 162 137
1399 2 2 0 175 139 138 478
1400 2 2 0 175 162 315 138
1401 2 2 0 175 138 315 478
1402 2 2 0 175 163 139 478
1403 2 2 0 175 315 163 478
1404 2 2 0 176 140 139 479
1405 2 2 0 176 140 316 164
1406 2 2 0 176 316 140 479
1407 2 2 0 176 139 163 479
1408 2 2 0 176 163 316 479
1409 2 2 0 177 164 141 140
1410 2 2 0 177 165 141 164
1411 2 2 0 178 166 142 141
1412 2 2 0 178 165 166 141
1413 2 2 0 179 167 143 142
1414 2 2 0 179 166 167 142
1415 2 2 0 180 168 144 143
1416 2 2 0 180 167 168 143
1417 2 2 0 181 144 168 480
1418 2 2 0 181 121 144 480
1419 2 2 0 181 145 121 480
1420 2 2 0 181 168 145 480
1421 2 2 0 182 169 317 145
1422 2 2 0 182 146 317 170
1423 2 2 0 182 317 146 145
1424 2 2 0 183 170 147 146
1425 2 2 0 183 171 147 170
1426 2 2 0 184 171 148 147
1427 2 2 0 184 172 148 171
1428 2 2 0 185 173 149 148
1429 2 2 0 185 172 173 148
1430 2 2 0 186 174 150 149
1431 2 2 0 186 173 174 149
1432 2 2 0 187 174 318 150
1433 2 2 0 187 318 313 150
1434 2 2 0 187 318 175 481
1435 2 2 0 187 313 318 481
1436 2 2 0 187 175 151 481
1437 2 2 0 187 151 313 481
1438 2 2 0 188 152 319 176
1439 2 2 0 188 152 314 319
1440 2 2 0 188 175 319 482
1441 2 2 0 188 319 314 482
1442 2 2 0 188 151 175 482
1443 2 2 0 188 314 151 482
1444 2 2 0 189 176 153 152
1445 2 2 0 189 177 153 176
1446 2 2 0 190 177 154 153
1447 2 2 0 190 178 154 177
1448 2 2 0 191 179 155 154
1449 2 2 0 191 178 179 154
1450 2 2 0 192 180 156 155
1451 2 2 0 192 179 180 155
1452 2 2 0 193 157 320 181
1453 2 2 0 193 180 320 156
1454 2 2 0 193 320 157 156
1455 2 2 0 194 181 321 157
1456 2 2 0 194 158 321 182
1457 2 2 0 194 321 158 157
1458 2 2 0 195 182 159 158
1459 2 2 0 195 183 159 182
1460 2 2 0 196 183 160 159
1461 2 2 0 196 184 160 183
1462 2 2 0 197 185 161 160
1463 2 2 0 197 184 185 160
1464 2 2 0 198 186 162 161
1465 2 2 0 198 185 186 161
1466 2 2 0 199 186 322 162
1467 2 2 0 199 322 315 162
1468 2 2 0 199 322 187 483
1469 2 2 0 199 315 322 483
1470 2 2 0 199 187 163 483
1471 2 2 0 199 163 315 483
1472 2 2 0 200 164 323 188
1473 2 2 0 200 164 316 323
1474 2 2 0 200 187 323 484
1475 2 2 0 200 323 316 484
1476 2 2 0 200 163 187 484
1477 2 2 0 200 316 163 484
1478 2 2 0 201 188 165 164
1479 2 2 0 201 189 165 188
1480 2 2 0 202 189 166 165
1481 2 2 0 202 190 166 189
1482 2 2 0 203 191 167 166
1483 2 2 0 203 190 191 166
1484 2 2 0 204 192 168 167
1485 2 2 0 204 191 192 167
1486 2 2 0 205 169 145 324
1487 2 2 0 205 192 324 168
1488 2 2 0 205 324 145 168
1489 2 2 0 206 194 170 325
1490 2 2 0 206 193 325 485
1491 2 2 0 206 170 317 325
1492 2 2 0 206 325 317 485
1493 2 2 0 206 169 193 485
1494 2 2 0 206 317 169 485
1495 2 2 0 207 194 171 170
1496 2 2 0 207 195 171 194
1497 2 2 0 208 195 172 171
1498 2 2 0 208 196 172 195
1499 2 2 0 209 197 173 172
1500 2 2 0 209 196 197 172
1501 2 2 0 210 198 174 173
1502 2 2 0 210 197 198 173
1503 2 2 0 211 198 326 174
1504 2 2 0 211 318 174 487
1505 2 2 0 211 175 318 486
1506 2 2 0 211 327 199 486
1507 2 2 0 211 326 327 487
1508 2 2 0 211 327 318 487
1509 2 2 0 211 199 175 486
1510 2 2 0 211 318 327 486
1511 2 2 0 211 174 326 487
1512 2 2 0 212 200 176 329
1513 2 2 0 212 176 319 489
1514 2 2 0 212 319 175 488
1515 2 2 0 212 199 328 488
1516 2 2 0 212 328 329 489
1517 2 2 0 212 319 328 489
1518 2 2 0 212 175 199 488
1519 2 2 0 212 328 319 488
1520 2 2 0 212 329 176 489
1521 2 2 0 213 200 177 176
1522 2 2 0 213 200 201 177
1523 2 2 0 214 201 178 177
1524 2 2 0 214 202 178 201
1525 2 2 0 215 203 179 178
1526 2 2 0 215 202 203 178
1527 2 2 0 216 204 180 179
1528 2 2 0 216 203 204 179
1529 2 2 0 217 204 330 180
1530 2 2 0 217 330 205 490
1531 2 2 0 217 330 320 180
1532 2 2 0 217 320 330 490
1533 2 2 0 217 205 181 490
1534 2 2 0 217 181 320 490
1535 2 2 0 218 182 331 206
1536 2 2 0 218 205 331 491
1537 2 2 0 218 182 321 331
1538 2 2 0 218 331 321 491
1539 2 2 0 218 181 205 491
1540 2 2 0 218 321 181 491
1541 2 2 0 219 206 183 182
1542 2 2 0 219 207 183 206
1543 2 2 0 220 207 184 183
1544 2 2 0 220 208 184 207
1545 2 2 0 221 209 185 184
1546 2 2 0 221 208 209 184
1547 2 2 0 222 210 186 185
1548 2 2 0 222 209 210 185
1549 2 2 0 223 210 332 186
1550 2 2 0 223 322 186 493
1551 2 2 0 223 187 322 492
1552 2 2 0 223 333 211 492
1553 2 2 0 223 332 333 493
1554 2 2 0 223 333 322 493
1555 2 2 0 223 211 187 492
1556 2 2 0 223 322 333 492
1557 2 2 0 223 186 332 493
1558 2 2 0 224 188 335 212
1559 2 2 0 224 188 323 495
1560 2 2 0 224 323 187 494
1561 2 2 0 224 211 334 494
1562 2 2 0 224 334 335 495
1563 2 2 0 224 323 334 495
1564 2 2 0 224 187 211 494
1565 2 2 0 224 334 323 494
1566 2 2 0 224 335 188 495
1567 2 2 0 225 212 189 188
1568 2 2 0 225 212 213 189
1569 2 2 0 226 213 190 189
1570 2 2 0 226 214 190 213
1571 2 2 0 227 215 191 190
1572 2 2 0 227 214 215 190
1573 2 2 0 228 216 192 191
1574 2 2 0 228 215 216 191
1575 2 2 0 229 216 336 192
1576 2 2 0 229 336 193 496
1577 2 2 0 229 336 324 192
1578 2 2 0 229 324 336 496
1579 2 2 0 229 193 169 496
1580 2 2 0 229 169 324 496
1581 2 2 0 230 325 338 194
1582 2 2 0 230 338 325 337
1583 2 2 0 230 325 193 497
1584 2 2 0 230 194 338 218
1585 2 2 0 230 217 337 497
1586 2 2 0 230 337 325 497
1587 2 2 0 230 193 217 497
1588 2 2 0 231 218 195 194
1589 2 2 0 231 219 195 218
1590 2 2 0 232 220 196 195
1591 2 2 0 232 219 220 195
1592 2 2 0 233 221 197 196
1593 2 2 0 233 220 221 196
1594 2 2 0 234 197 222 198
1595 2 2 0 234 221 222 197
1596 2 2 0 235 340 326 339
1597 2 2 0 235 222 339 198
1598 2 2 0 235 340 327 326
1599 2 2 0 235 339 326 198
1600 2 2 0 235 199 327 498
1601 2 2 0 235 327 340 498
1602 2 2 0 235 223 199 498
1603 2 2 0 235 340 223 498
1604 2 2 0 236 329 341 342
1605 2 2 0 236 224 200 342
1606 2 2 0 236 328 341 329
1607 2 2 0 236 200 329 342
1608 2 2 0 236 328 199 499
1609 2 2 0 236 341 328 499
1610 2 2 0 236 199 223 499
1611 2 2 0 236 223 341 499
1612 2 2 0 237 224 201 200
1613 2 2 0 237 224 225 201
1614 2 2 0 238 225 202 201
1615 2 2 0 238 225 226 202
1616 2 2 0 239 226 203 202
1617 2 2 0 239 227 203 226
1618 2 2 0 240 228 204 203
1619 2 2 0 240 227 228 203
1620 2 2 0 241 343 330 204
1621 2 2 0 241 344 330 343
1622 2 2 0 241 205 330 500
1623 2 2 0 241 228 343 204
1624 2 2 0 241 344 229 500
1625 2 2 0 241 330 344 500
1626 2 2 0 241 229 205 500
1627 2 2 0 242 206 331 346
1628 2 2 0 242 331 345 346
1629 2 2 0 242 331 205 501
1630 2 2 0 242 230 206 346
1631 2 2 0 242 229 345 501
1632 2 2 0 242 345 331 501
1633 2 2 0 242 205 229 501
1634 2 2 0 243 230 207 206
1635 2 2 0 243 231 207 230
1636 2 2 0 244 232 208 207
1637 2 2 0 244 231 232 207
1638 2 2 0 245 233 209 208
1639 2 2 0 245 232 233 208
1640 2 2 0 246 209 234 210
1641 2 2 0 246 233 234 209
1642 2 2 0 247 348 332 347
1643 2 2 0 247 234 347 210
1644 2 2 0 247 333 332 348
1645 2 2 0 247 347 332 210
1646 2 2 0 247 211 333 502
1647 2 2 0 247 333 348 502
1648 2 2 0 247 235 211 502
1649 2 2 0 247 348 235 502
1650 2 2 0 248 350 335 349
1651 2 2 0 248 212 350 236
1652 2 2 0 248 335 334 349
1653 2 2 0 248 212 335 350
1654 2 2 0 248 334 211 503
1655 2 2 0 248 349 334 503
1656 2 2 0 248 211 235 503
1657 2 2 0 248 235 349 503
1658 2 2 0 249 236 213 212
1659 2 2 0 249 236 237 213
1660 2 2 0 250 237 214 213
1661 2 2 0 250 237 238 214
1662 2 2 0 251 238 215 214
1663 2 2 0 251 239 215 238
1664 2 2 0 252 240 216 215
1665 2 2 0 252 239 240 215
1666 2 2 0 253 351 336 216
1667 2 2 0 253 352 336 351
1668 2 2 0 253 193 336 504
1669 2 2 0 253 240 351 216
1670 2 2 0 253 352 217 504
1671 2 2 0 253 336 352 504
1672 2 2 0 253 217 193 504
1673 2 2 0 254 218 338 355
1674 2 2 0 254 355 338 354
1675 2 2 0 254 337 217 505
1676 2 2 0 254 218 355 242
1677 2 2 0 254 338 337 506
1678 2 2 0 254 241 353 505
1679 2 2 0 254 353 354 506
1680 2 2 0 254 354 338 506
1681 2 2 0 254 353 337 505
1682 2 2 0 254 217 241 505
1683 2 2 0 254 337 353 506
1684 2 2 0 255 242 219 218
1685 2 2 0 255 243 219 242
1686 2 2 0 256 244 220 219
1687 2 2 0 256 243 244 219
1688 2 2 0 257 220 245 221
1689 2 2 0 257 244 245 220
1690 2 2 0 258 221 246 222
1691 2 2 0 258 245 246 221
1692 2 2 0 259 246 356 222
1693 2 2 0 259 339 357 508
1694 2 2 0 259 247 223 507
1695 2 2 0 259 340 358 507
1696 2 2 0 259 358 340 508
1697 2 2 0 259 223 340 507
1698 2 2 0 259 358 247 507
1699 2 2 0 259 340 339 508
1700 2 2 0 259 357 358 508
1701 2 2 0 259 356 339 222
1702 2 2 0 259 356 357 339
1703 2 2 0 260 224 361 248
1704 2 2 0 260 360 342 510
1705 2 2 0 260 223 247 509
1706 2 2 0 260 359 341 509
1707 2 2 0 260 341 359 510
1708 2 2 0 260 341 223 509
1709 2 2 0 260 247 359 509
1710 2 2 0 260 342 341 510
1711 2 2 0 260 359 360 510
1712 2 2 0 260 224 342 361
1713 2 2 0 260 361 342 360
1714 2 2 0 261 248 225 224
1715 2 2 0 261 248 249 225
1716 2 2 0 262 249 226 225
1717 2 2 0 262 249 250 226
1718 2 2 0 263 250 227 226
1719 2 2 0 263 251 227 250
1720 2 2 0 264 252 228 227
1721 2 2 0 264 251 252 227
1722 2 2 0 265 362 343 228
1723 2 2 0 265 362 363 343
1724 2 2 0 265 229 344 511
1725 2 2 0 265 252 362 228
1726 2 2 0 265 344 343 512
1727 2 2 0 265 364 253 511
1728 2 2 0 265 363 364 512
1729 2 2 0 265 343 363 512
1730 2 2 0 265 344 364 511
1731 2 2 0 265 253 229 511
1732 2 2 0 265 364 344 512
1733 2 2 0 266 367 230 346
1734 2 2 0 266 366 367 346
1735 2 2 0 266 345 229 513
1736 2 2 0 266 230 367 254
1737 2 2 0 266 346 345 514
1738 2 2 0 266 253 365 513
1739 2 2 0 266 365 366 514
1740 2 2 0 266 366 346 514
1741 2 2 0 266 365 345 513
1742 2 2 0 266 229 253 513
1743 2 2 0 266 345 365 514
1744 2 2 0 267 254 231 230
1745 2 2 0 267 255 231 254
1746 2 2 0 268 256 232 231
1747 2 2 0 268 255 256 231
1748 2 2 0 269 232 257 233
1749 2 2 0 269 256 257 232
1750 2 2 0 270 233 258 234
1751 2 2 0 270 257 258 233
1752 2 2 0 271 258 368 234
1753 2 2 0 271 347 369 516
1754 2 2 0 271 259 235 515
1755 2 2 0 271 348 370 515
1756 2 2 0 271 370 348 516
1757 2 2 0 271 235 348 515
1758 2 2 0 271 370 259 515
1759 2 2 0 271 348 347 516
1760 2 2 0 271 369 370 516
1761 2 2 0 271 368 347 234
1762 2 2 0 271 369 347 368
1763 2 2 0 272 236 373 260
1764 2 2 0 272 372 350 518
1765 2 2 0 272 235 259 517
1766 2 2 0 272 371 349 517
1767 2 2 0 272 349 371 518
1768 2 2 0 272 349 235 517
1769 2 2 0 272 259 371 517
1770 2 2 0 272 350 349 518
1771 2 2 0 272 371 372 518
1772 2 2 0 272 373 236 350
1773 2 2 0 272 372 373 350
1774 2 2 0 273 260 237 236
1775 2 2 0 273 260 261 237
1776 2 2 0 274 261 238 237
1777 2 2 0 274 261 262 238
1778 2 2 0 275 262 239 238
1779 2 2 0 275 263 239 262
1780 2 2 0 276 264 240 239
1781 2 2 0 276 263 264 239
1782 2 2 0 277 374 351 240
1783 2 2 0 277 375 351 374
1784 2 2 0 277 217 352 519
1785 2 2 0 277 264 374 240
1786 2 2 0 277 352 351 520
1787 2 2 0 277 376 241 519
1788 2 2 0 277 375 376 520
1789 2 2 0 277 351 375 520
1790 2 2 0 277 352 376 519
1791 2 2 0 277 241 217 519
1792 2 2 0 277 376 352 520
1793 2 2 0 278 355 354 378
1794 2 2 0 278 242 379 266
1795 2 2 0 278 242 355 379
1796 2 2 0 278 377 353 521
1797 2 2 0 278 241 265 521
1798 2 2 0 278 353 241 521
1799 2 2 0 278 265 377 521
1800 2 2 0 278 354 353 377
1801 2 2 0 278 378 354 377
1802 2 2 0 278 379 355 378
1803 2 2 0 279 266 243 242
1804 2 2 0 279 266 267 243
1805 2 2 0 280 268 244 243
1806 2 2 0 280 267 268 243
1807 2 2 0 281 244 269 245
1808 2 2 0 281 268 269 244
1809 2 2 0 282 245 270 246
1810 2 2 0 282 269 270 245
1811 2 2 0 283 270 380 246
1812 2 2 0 283 358 383 522
1813 2 2 0 283 271 247 522
1814 2 2 0 283 247 358 522
1815 2 2 0 283 383 271 522
1816 2 2 0 283 380 356 246
1817 2 2 0 283 357 356 381
1818 2 2 0 283 381 356 380
1819 2 2 0 283 358 357 382
1820 2 2 0 283 382 357 381
1821 2 2 0 283 383 358 382
1822 2 2 0 284 248 387 272
1823 2 2 0 284 384 359 523
1824 2 2 0 284 247 271 523
1825 2 2 0 284 359 247 523
1826 2 2 0 284 271 384 523
1827 2 2 0 284 248 361 387
1828 2 2 0 284 360 359 385
1829 2 2 0 284 385 359 384
1830 2 2 0 284 361 360 386
1831 2 2 0 284 386 360 385
1832 2 2 0 284 387 361 386
1833 2 2 0 285 272 249 248
1834 2 2 0 285 272 273 249
1835 2 2 0 286 273 250 249
1836 2 2 0 286 273 274 250
1837 2 2 0 287 274 251 250
1838 2 2 0 287 275 251 274
1839 2 2 0 288 251 276 252
1840 2 2 0 288 275 276 251
1841 2 2 0 289 389 363 362
1842 2 2 0 289 276 388 252
1843 2 2 0 289 388 362 252
1844 2 2 0 289 364 390 524
1845 2 2 0 289 277 253 524
1846 2 2 0 289 253 364 524
1847 2 2 0 289 390 277 524
1848 2 2 0 289 389 362 388
1849 2 2 0 289 390 364 363
1850 2 2 0 289 390 363 389
1851 2 2 0 290 367 366 392
1852 2 2 0 290 254 393 278
1853 2 2 0 290 254 367 393
1854 2 2 0 290 391 365 525
1855 2 2 0 290 253 277 525
1856 2 2 0 290 365 253 525
1857 2 2 0 290 277 391 525
1858 2 2 0 290 366 365 391
1859 2 2 0 290 392 366 391
1860 2 2 0 290 393 367 392
1861 2 2 0 291 278 255 254
1862 2 2 0 291 278 279 255
1863 2 2 0 292 280 256 255
1864 2 2 0 292 279 280 255
1865 2 2 0 293 256 281 257
1866 2 2 0 293 280 281 256
1867 2 2 0 294 257 282 258
1868 2 2 0 294 281 282 257
1869 2 2 0 295 282 394 258
1870 2 2 0 295 370 397 526
1871 2 2 0 295 283 259 526
1872 2 2 0 295 259 370 526
1873 2 2 0 295 397 283 526
1874 2 2 0 295 394 368 258
1875 2 2 0 295 395 369 368
1876 2 2 0 295 395 368 394
1877 2 2 0 295 396 370 369
1878 2 2 0 295 396 369 395
1879 2 2 0 295 397 370 396
1880 2 2 0 296 260 401 284
1881 2 2 0 296 398 371 527
1882 2 2 0 296 259 283 527
1883 2 2 0 296 371 259 527
1884 2 2 0 296 283 398 527
1885 2 2 0 296 260 373 401
1886 2 2 0 296 371 399 372
1887 2 2 0 296 399 371 398
1888 2 2 0 296 373 372 400
1889 2 2 0 296 372 399 400
1890 2 2 0 296 401 373 400
1891 2 2 0 297 284 261 260
1892 2 2 0 297 284 285 261
1893 2 2 0 298 285 262 261
1894 2 2 0 298 285 286 262
1895 2 2 0 299 286 263 262
1896 2 2 0 299 287 263 286
1897 2 2 0 300 263 288 264
1898 2 2 0 300 287 288 263
1899 2 2 0 301 375 374 403
1900 2 2 0 301 288 402 264
1901 2 2 0 301 402 374 264
1902 2 2 0 301 376 404 528
1903 2 2 0 301 265 241 528
1904 2 2 0 301 241 376 528
1905 2 2 0 301 404 265 528
1906 2 2 0 301 403 374 402
1907 2 2 0 301 375 404 376
1908 2 2 0 301 404 375 403
1909 2 2 0 302 266 407 290
1910 2 2 0 302 266 379 407
1911 2 2 0 302 407 379 406
1912 2 2 0 302 289 377 265
1913 2 2 0 302 405 377 289
1914 2 2 0 302 378 377 405
1915 2 2 0 302 379 378 406
1916 2 2 0 302 378 405 406
1917 2 2 0 303 290 267 266
1918 2 2 0 303 290 291 267
1919 2 2 0 304 292 268 267
1920 2 2 0 304 291 292 267
1921 2 2 0 305 268 293 269
1922 2 2 0 305 292 293 268
1923 2 2 0 306 269 294 270
1924 2 2 0 306 293 294 269
1925 2 2 0 307 294 408 270
1926 2 2 0 307 408 380 270
1927 2 2 0 307 381 380 409
1928 2 2 0 307 409 380 408
1929 2 2 0 307 410 381 409
1930 2 2 0 307 271 383 295
1931 2 2 0 307 295 383 411
1932 2 2 0 307 381 410 382
1933 2 2 0 307 383 382 411
1934 2 2 0 307 382 410 411
1935 2 2 0 308 272 415 296
1936 2 2 0 308 415 272 387
1937 2 2 0 308 387 386 414
1938 2 2 0 308 386 413 414
1939 2 2 0 308 415 387 414
1940 2 2 0 308 295 384 271
1941 2 2 0 308 412 384 295
1942 2 2 0 308 385 384 412
1943 2 2 0 308 385 413 386
1944 2 2 0 308 413 385 412
1945 2 2 0 309 296 273 272
1946 2 2 0 309 296 297 273
1947 2 2 0 310 297 274 273
1948 2 2 0 310 297 298 274
1949 2 2 0 311 298 275 274
1950 2 2 0 311 299 275 298
1951 2 2 0 312 300 276 275
1952 2 2 0 312 299 300 275
1953 2 2 0 313 300 416 276
1954 2 2 0 313 416 388 276
1955 2 2 0 313 388 416 417
1956 2 2 0 313 277 390 301
1957 2 2 0 313 390 418 301
1958 2 2 0 313 389 388 417
1959 2 2 0 313 390 389 418
1960 2 2 0 313 418 389 417
1961 2 2 0 314 278 421 302
1962 2 2 0 314 421 278 393
1963 2 2 0 314 421 393 420
1964 2 2 0 314 301 391 277
1965 2 2 0 314 419 391 301
1966 2 2 0 314 391 419 392
1967 2 2 0 314 393 392 420
1968 2 2 0 314 392 419 420
1969 2 2 0 315 302 279 278
1970 2 2 0 315 302 303 279
1971 2 2 0 316 304 280 279
1972 2 2 0 316 303 304 279
1973 2 2 0 317 280 305 281
1974 2 2 0 317 304 305 280
1975 2 2 0 318 281 306 282
1976 2 2 0 318 305 306 281
1977 2 2 0 319 306 422 282
1978 2 2 0 319 422 394 282
1979 2 2 0 319 395 394 423
1980 2 2 0 319 394 422 423
1981 2 2 0 319 424 395 423
1982 2 2 0 319 307 283 397
1983 2 2 0 319 307 397 425
1984 2 2 0 319 396 395 424
1985 2 2 0 319 397 396 425
1986 2 2 0 319 396 424 425
1987 2 2 0 320 284 429 308
1988 2 2 0 320 401 429 284
1989 2 2 0 320 428 401 400
1990 2 2 0 320 427 428 400
1991 2 2 0 320 428 429 401
1992 2 2 0 320 307 398 283
1993 2 2 0 320 398 307 426
1994 2 2 0 320 399 398 426
1995 2 2 0 320 399 427 400
1996 2 2 0 320 427 399 426
1997 2 2 0 321 308 285 284
1998 2 2 0 321 308 309 285
1999 2 2 0 322 309 286 285
2000 2 2 0 322 309 310 286
2001 2 2 0 323 310 287 286
2002 2 2 0 323 311 287 310
2003 2 2 0 324 312 288 287
2004 2 2 0 324 311 312 287
2005 2 2 0 325 312 430 288
2006 2 2 0 325 430 402 288
2007 2 2 0 325 402 430 431
2008 2 2 0 325 265 404 289
2009 2 2 0 325 404 432 289
2010 2 2 0 325 403 402 431
2011 2 2 0 325 432 404 403
2012 2 2 0 325 432 403 431
$EndElements
