$MeshFormat
2.2 0 8
$EndMeshFormat
$Nodes
396
1 12.7 0 0
2 10.097 7.703 0
3 9.788 8.093 0
4 9.458 8.476000000000001 0
5 0 8.827 0
6 -9.458 8.476000000000001 0
7 -9.788 8.093 0
8 -10.097 7.703 0
9 -12.7 0 0
10 -10.097 -7.703 0
11 -9.788 -8.093 0
12 -9.458 -8.476000000000001 0
13 0 -8.827 0
14 9.458 -8.476000000000001 0
15 9.788 -8.093 0
16 10.097 -7.703 0
17 12.916 0 3.782
18 10.327 7.878 3.782
19 10.044 8.305 3.782
20 9.746 8.734 3.782
21 0 9.119 3.782
22 -9.746 8.734 3.782
23 -10.044 8.305 3.782
24 -10.327 7.878 3.782
25 -12.916 0 3.782
26 -10.327 -7.878 3.782
27 -10.044 -8.305 3.782
28 -9.746 -8.734 3.782
29 0 -9.119 3.782
30 9.746 -8.734 3.782
31 10.044 -8.305 3.782
32 10.327 -7.878 3.782
33 14.296 0 10.563
34 11.77 8.98 10.563
35 11.637 9.622 10.563
36 11.518 10.321 10.563
37 0 10.901 10.563
38 -11.518 10.321 10.563
39 -11.637 9.622 10.563
40 -11.77 8.98 10.563
41 -14.296 0 10.563
42 -11.77 -8.98 10.563
43 -11.637 -9.622 10.563
44 -11.518 -10.321 10.563
45 0 -10.901 10.563
46 11.518 -10.321 10.563
47 11.637 -9.622 10.563
48 11.77 -8.98 10.563
49 18.193 0 20.945
50 15.684 11.966 20.945
51 15.867 13.12 20.945
52 16.109 14.436 20.945
53 0 15.458 20.945
54 -16.109 14.436 20.945
55 -15.867 13.12 20.945
56 -15.684 11.966 20.945
57 -18.193 0 20.945
58 -15.684 -11.966 20.945
59 -15.867 -13.12 20.945
60 -16.109 -14.436 20.945
61 0 -15.458 20.945
62 16.109 -14.436 20.945
63 15.867 -13.12 20.945
64 15.684 -11.966 20.945
65 25.769 0 35.946
66 22.985 17.535 35.946
67 23.607 19.519 35.946
68 24.34 21.811 35.946
69 0 23.54 35.946
70 -24.34 21.811 35.946
71 -23.607 19.519 35.946
72 -22.985 17.535 35.946
73 -25.769 0 35.946
74 -22.985 -17.535 35.946
75 -23.607 -19.519 35.946
76 -24.34 -21.811 35.946
77 0 -23.54 35.946
78 24.34 -21.811 35.946
79 23.607 -19.519 35.946
80 22.985 -17.535 35.946
81 37.078 0 55.294
82 33.597 25.632 55.294
83 34.723 28.711 55.294
84 36.02 32.278 55.294
85 0 34.94 55.294
86 -36.02 32.278 55.294
87 -34.723 28.711 55.294
88 -33.597 25.632 55.294
89 -37.078 0 55.294
90 -33.597 -25.632 55.294
91 -34.723 -28.711 55.294
92 -36.02 -32.278 55.294
93 0 -34.94 55.294
94 36.02 -32.278 55.294
95 34.723 -28.711 55.294
96 33.597 -25.632 55.294
97 52.433 0 77.812
98 47.97 36.597 77.812
99 49.554 40.974 77.812
100 51.343 46.01 77.812
101 0 49.746 77.812
102 -51.343 46.01 77.812
103 -49.554 40.974 77.812
104 -47.97 36.597 77.812
105 -52.433 0 77.812
106 -47.97 -36.597 77.812
107 -49.554 -40.974 77.812
108 -51.343 -46.01 77.812
109 0 -49.746 77.812
110 51.343 -46.01 77.812
111 49.554 -40.974 77.812
112 47.97 -36.597 77.812
113 73.658 0 100.261
114 68.684 52.399 100.261
115 70.279 58.11 100.261
116 71.93899999999999 64.46599999999999 100.261
117 0 69.121 100.261
118 -71.93899999999999 64.46599999999999 100.261
119 -70.279 58.11 100.261
120 -68.684 52.399 100.261
121 -73.658 0 100.261
122 -68.684 -52.399 100.261
123 -70.279 -58.11 100.261
124 -71.93899999999999 -64.46599999999999 100.261
125 0 -69.121 100.261
126 71.93899999999999 -64.46599999999999 100.261
127 70.279 -58.11 100.261
128 68.684 -52.399 100.261
129 101.803 0 118.869
130 97.64100000000001 74.491 118.869
131 98.402 81.36199999999999 118.869
132 98.765 88.504 118.869
133 0 93.59699999999999 118.869
134 -98.765 88.504 118.869
135 -98.402 81.36199999999999 118.869
136 -97.64100000000001 74.491 118.869
137 -101.803 0 118.869
138 -97.64100000000001 -74.491 118.869
139 -98.402 -81.36199999999999 118.869
140 -98.765 -88.504 118.869
141 0 -93.59699999999999 118.869
142 98.765 -88.504 118.869
143 98.402 -81.36199999999999 118.869
144 97.64100000000001 -74.491 118.869
145 135.184 0 132.821
146 132.871 101.368 132.821
147 132.062 109.194 132.821
148 130.125 116.607 132.821
149 0 121.687 132.821
150 -130.125 116.607 132.821
151 -132.062 109.194 132.821
152 -132.871 101.368 132.821
153 -135.184 0 132.821
154 -132.871 -101.368 132.821
155 -132.062 -109.194 132.821
156 -130.125 -116.607 132.821
157 0 -121.687 132.821
158 130.125 -116.607 132.821
159 132.062 -109.194 132.821
160 132.871 -101.368 132.821
161 167.865 0 142.017
162 167.173 127.538 142.017
163 164.626 136.119 142.017
164 160.202 143.559 142.017
165 0 148.458 142.017
166 -160.202 143.559 142.017
167 -164.626 136.119 142.017
168 -167.173 127.538 142.017
169 -167.865 0 142.017
170 -167.173 -127.538 142.017
171 -164.626 -136.119 142.017
172 -160.202 -143.559 142.017
173 0 -148.458 142.017
174 160.202 -143.559 142.017
175 164.626 -136.119 142.017
176 167.173 -127.538 142.017
177 196.772 0 147.529
178 196.394 149.831 147.529
179 192.364 159.054 147.529
180 185.871 166.562 147.529
181 0 171.384 147.529
182 -185.871 166.562 147.529
183 -192.364 159.054 147.529
184 -196.394 149.831 147.529
185 -196.772 0 147.529
186 -196.394 -149.831 147.529
187 -192.364 -159.054 147.529
188 -185.871 -166.562 147.529
189 0 -171.384 147.529
190 185.871 -166.562 147.529
191 192.364 -159.054 147.529
192 196.394 -149.831 147.529
193 218.623 0 150
194 216.91 165.483 150
195 211.939 175.24 150
196 204.196 182.983 150
197 0 187.954 150
198 -204.196 182.983 150
199 -211.939 175.24 150
200 -216.91 165.483 150
201 -218.623 0 150
202 -216.91 -165.483 150
203 -211.939 -175.24 150
204 -204.196 -182.983 150
205 0 -187.954 150
206 204.196 -182.983 150
207 211.939 -175.24 150
208 216.91 -165.483 150
209 25.6715000000667 47.87799999999515 77.812
210 -25.67149999993229 47.87800000000492 77.812
211 -25.6715000000667 -47.87799999999515 77.812
212 25.67149999993229 -47.87800000000492 77.812
213 71.17100000000769 26.19949999991898 100.261
214 35.96950000008865 66.79349999999425 100.261
215 -35.96949999990927 66.79350000000586 100.261
216 -71.17099999999233 26.19950000008083 100.261
217 -71.17100000000769 -26.19949999991898 100.261
218 -35.96950000008865 -66.79349999999425 100.261
219 35.96949999990927 -66.79350000000586 100.261
220 71.17099999999233 -26.19950000008083 100.261
221 99.72200000000593 37.2454999998937 118.869
222 49.38250000012107 91.05049999999376 118.869
223 -49.38249999987411 91.05050000000649 118.869
224 -99.72199999999573 37.24550000007643 118.869
225 -99.72200000000593 -37.2454999998937 118.869
226 -49.38250000012107 -91.05049999999376 118.869
227 49.38249999987411 -91.05050000000649 118.869
228 99.72199999999573 -37.24550000007643 118.869
229 134.4130000000019 33.78933333325246 132.821
230 133.6420000000019 67.57866666658248 132.821
231 86.7500000000377 118.3003333333319 132.821
232 43.37500000014191 119.9936666666611 132.821
233 -43.37499999993783 119.9936666666691 132.821
234 -86.74999999990071 118.3003333333372 132.821
235 -133.641999999998 67.57866666675552 132.821
236 -134.412999999998 33.78933333342313 132.821
237 -134.4130000000019 -33.78933333325246 132.821
238 -133.6420000000019 -67.57866666658248 132.821
239 -86.7500000000377 -118.3003333333319 132.821
240 -43.37500000014191 -119.9936666666611 132.821
241 43.37499999993783 -119.9936666666691 132.821
242 86.74999999990071 -118.3003333333372 132.821
243 133.641999999998 -67.57866666675552 132.821
244 134.412999999998 -33.78933333342313 132.821
245 167.6343333333339 42.5126666665637 142.017
246 167.4036666666673 85.02533333321593 142.017
247 120.1515000001222 144.7837499999963 142.017
248 80.10100000023053 146.0084999999929 142.017
249 40.0505000001167 147.2332499999964 142.017
250 -40.05049999989695 147.2332500000032 142.017
251 -80.10099999978594 146.0085000000065 142.017
252 -120.1514999998915 144.7837500000033 142.017
253 -167.4036666666661 85.02533333344437 142.017
254 -167.6343333333327 42.51266666678602 142.017
255 -167.6343333333339 -42.5126666665637 142.017
256 -167.4036666666673 -85.02533333321593 142.017
257 -120.1515000001222 -144.7837499999963 142.017
258 -80.10100000023053 -146.0084999999929 142.017
259 -40.0505000001167 -147.2332499999964 142.017
260 40.05049999989695 -147.2332500000032 142.017
261 80.10099999978594 -146.0085000000065 142.017
262 120.1514999998915 -144.7837500000033 142.017
263 167.4036666666661 -85.02533333344437 142.017
264 167.6343333333327 -42.51266666678602 142.017
265 196.6460000000003 49.94366666653878 147.529
266 196.5200000000004 99.88733333319375 147.529
267 139.4032500001189 167.7674999999969 147.529
268 92.93550000024129 168.9729999999937 147.529
269 46.46775000011974 170.1784999999969 147.529
270 -46.46774999989033 170.1785000000028 147.529
271 -92.93549999975924 168.9730000000062 147.529
272 -139.4032499998807 167.7675000000031 147.529
273 -196.5199999999997 99.88733333345535 147.529
274 -196.6459999999996 49.94366666680077 147.529
275 -196.6460000000003 -49.94366666653878 147.529
276 -196.5200000000004 -99.88733333319375 147.529
277 -139.4032500001189 -167.7674999999969 147.529
278 -92.93550000024129 -168.9729999999937 147.529
279 -46.46775000011974 -170.1784999999969 147.529
280 46.46774999989033 -170.1785000000028 147.529
281 92.93549999975924 -168.9730000000062 147.529
282 139.4032499998807 -167.7675000000031 147.529
283 196.5199999999997 -99.88733333345535 147.529
284 196.6459999999996 -49.94366666680077 147.529
285 218.194750000001 41.37074999990027 150
286 217.7665000000023 82.74149999978097 150
287 217.3382500000012 124.1122499998893 150
288 163.356800000079 183.9771999999981 150
289 122.517600000206 184.971399999995 150
290 81.67840000022368 185.9655999999946 150
291 40.83920000007652 186.9597999999982 150
292 -40.83919999991303 186.9598000000021 150
293 -81.6783999997965 185.965600000005 150
294 -122.517599999778 184.9714000000054 150
295 -163.3567999999243 183.9772000000019 150
296 -217.3382499999992 124.1122500000807 150
297 -217.7664999999978 82.74150000021378 150
298 -218.1947499999989 41.3707500001082 150
299 -218.194750000001 -41.37074999990027 150
300 -217.7665000000023 -82.74149999978097 150
301 -217.3382500000012 -124.1122499998893 150
302 -163.356800000079 -183.9771999999981 150
303 -122.517600000206 -184.971399999995 150
304 -81.67840000022368 -185.9655999999946 150
305 -40.83920000007652 -186.9597999999982 150
306 40.83919999991303 -186.9598000000021 150
307 81.6783999997965 -185.965600000005 150
308 122.517599999778 -184.9714000000054 150
309 163.3567999999243 -183.9772000000019 150
310 217.3382499999992 -124.1122500000807 150
311 217.7664999999978 -82.74150000021378 150
312 218.1947499999989 -41.3707500001082 150
313 11.52608785762082 3.900537060596634 1.890081179998388
314 -11.49394850372987 3.889974889078018 1.892220250807372
315 -11.52608785762082 -3.900537060596634 1.890081179998388
316 11.49394850372987 -3.889974889078018 1.892220250807372
317 12.41046503198008 4.237907702759653 7.155564924917782
318 5.317251858155879 9.793610176274857 7.166354683320985
319 -5.314757434714787 9.744074367318877 7.178984585966343
320 -12.24588038560696 4.191611398000355 7.193535185514345
321 -12.41046503198008 -4.237907702759653 7.155564924917782
322 -5.317251858155879 -9.793610176274857 7.166354683320985
323 5.314757434714787 -9.744074367318877 7.178984585966343
324 12.24588038560696 -4.191611398000354 7.193535185514343
325 15.2115477553869 5.188946702390794 15.90066595484258
326 6.908768953767343 12.81082321549717 15.74049378265105
327 -6.904752193858832 12.74751011827 15.7678219409597
328 -14.95551732709559 5.145291278577971 16.00878145228804
329 -15.2115477553869 -5.188946702390794 15.90066595484258
330 -6.908768953767343 -12.81082321549717 15.74049378265105
331 6.904752193858832 -12.74751011827 15.7678219409597
332 14.95551732709559 -5.145291278577971 16.00878145228804
333 21.1148892983792 6.84658263364514 28.88291448406634
334 10.11393821777352 18.8350158881478 28.43288956432345
335 -10.11057314590822 18.78764408409826 28.45821801961987
336 -20.89675310126317 6.824677559661648 29.00243028149271
337 -21.1148892983792 -6.84658263364514 28.88291448406634
338 -10.11393821777352 -18.8350158881478 28.43288956432345
339 10.11057314590822 -18.78764408409826 28.45821801961987
340 20.89675310126317 -6.824677559661648 29.00243028149271
341 30.07630969587723 10.49458467637928 45.75352446761031
342 15.09095652649758 28.1551929317967 45.61242061729337
343 -15.08904647099076 28.12934762775629 45.62760218335634
344 -29.93238767171431 10.47606504476637 45.83959229243007
345 -30.07630969587723 -10.49458467637928 45.75352446761031
346 -15.09095652649758 -28.1551929317967 45.61242061729337
347 15.08904647099076 -28.12934762775629 45.62760218335634
348 29.93238767171431 -10.47606504476637 45.83959229243007
349 42.82950246746616 15.56456729410338 66.51208438191924
350 -42.71036703932268 15.55003874215092 66.59425541727197
351 -42.82950246746616 -15.56456729410338 66.51208438191924
352 42.71036703932268 -15.55003874215092 66.59425541727197
353 15.40461398305423 58.29752523074806 89.11327815257161
354 -15.41216320552516 58.41419193773082 89.01098174001147
355 -15.40461398305423 -58.29752523074806 89.11327815257161
356 15.41216320552516 -58.41419193773082 89.01098174001147
357 87.18577021044125 15.0129996168273 109.7594331735148
358 21.33162835213324 80.01693907191168 109.7338028491184
359 -21.34022975555445 80.18374009674065 109.5081242149748
360 -86.90907815922121 15.00518130043373 110.2060652182361
361 -87.18577021044125 -15.0129996168273 109.7594331735148
362 -21.33162835213324 -80.01693907191166 109.7338028491184
363 21.34022975555445 -80.18374009674065 109.5081242149748
364 86.90907815922121 -15.00518130043373 110.2060652182361
365 118.4374377993616 16.52134237424522 125.9791321903319
366 23.18603302763679 106.4964365166012 126.0249430753713
367 -23.19056941630703 106.6126368296747 125.7834017969585
368 -118.2787687051442 16.51772188645549 126.3873442984289
369 -118.4374377993616 -16.52134237424522 125.9791321903319
370 -23.18603302763679 -106.4964365166012 126.0249430753713
371 23.19056941630703 -106.6126368296747 125.7834017969585
372 118.2787687051442 -16.51772188645549 126.3873442984289
373 151.2848624366884 19.0755584855781 137.3806929233662
374 20.85499819330276 134.2979562646705 137.5554579677597
375 -20.85667103011649 134.3526596368332 137.3908186312756
376 -151.2252061172392 19.07523480039778 137.6020716117223
377 -151.2848624366884 -19.0755584855781 137.3806929233662
378 -20.85499819330276 -134.2979562646705 137.5554579677597
379 20.85667103011649 -134.3526596368332 137.3908186312756
380 151.2252061172392 -19.07523480039778 137.6020716117223
381 182.2304157791159 23.11408606411574 144.7673232474187
382 21.62912874180432 159.2967176574899 144.8447962042571
383 -21.62962832334411 159.3159747585416 144.7624468089094
384 -182.2240524693229 23.11407001060904 144.801049552276
385 -182.2304157791159 -23.11408606411574 144.7673232474187
386 -21.62912874180432 -159.2967176574899 144.8447962042571
387 21.62962832334411 -159.3159747585416 144.7624468089094
388 182.2240524693229 -23.11407001060904 144.801049552276
389 207.5577032806141 22.82859139056745 148.7754141755599
390 198.59129993479 170.9585499347899 148.7818676778539
391 -198.5937704895319 170.9610204895319 148.7466349942228
392 -207.5658184380658 22.82867539487097 148.7069183778749
393 -207.5577032806141 -22.82859139056745 148.7754141755599
394 -198.59129993479 -170.9585499347899 148.7818676778539
395 198.5937704895319 -170.9610204895319 148.7466349942228
396 207.5658184380657 -22.82867539487096 148.7069183778749
$EndNodes
$Elements
1444
1 15 2 0 1 1
2 15 2 0 2 2
3 15 2 0 3 3
4 15 2 0 4 4
5 15 2 0 5 5
6 15 2 0 6 6
7 15 2 0 7 7
8 15 2 0 8 8
9 15 2 0 9 9
10 15 2 0 10 10
11 15 2 0 11 11
12 15 2 0 12 12
13 15 2 0 13 13
14 15 2 0 14 14
15 15 2 0 15 15
16 15 2 0 16 16
17 15 2 0 17 17
18 15 2 0 18 18
19 15 2 0 19 19
20 15 2 0 20 20
21 15 2 0 21 21
22 15 2 0 22 22
23 15 2 0 23 23
24 15 2 0 24 24
25 15 2 0 25 25
26 15 2 0 26 26
27 15 2 0 27 27
28 15 2 0 28 28
29 15 2 0 29 29
30 15 2 0 30 30
31 15 2 0 31 31
32 15 2 0 32 32
33 15 2 0 33 33
34 15 2 0 34 34
35 15 2 0 35 35
36 15 2 0 36 36
37 15 2 0 37 37
38 15 2 0 38 38
39 15 2 0 39 39
40 15 2 0 40 40
41 15 2 0 41 41
42 15 2 0 42 42
43 15 2 0 43 43
44 15 2 0 44 44
45 15 2 0 45 45
46 15 2 0 46 46
47 15 2 0 47 47
48 15 2 0 48 48
49 15 2 0 49 49
50 15 2 0 50 50
51 15 2 0 51 51
52 15 2 0 52 52
53 15 2 0 53 53
54 15 2 0 54 54
55 15 2 0 55 55
56 15 2 0 56 56
57 15 2 0 57 57
58 15 2 0 58 58
59 15 2 0 59 59
60 15 2 0 60 60
61 15 2 0 61 61
62 15 2 0 62 62
63 15 2 0 63 63
64 15 2 0 64 64
65 15 2 0 65 65
66 15 2 0 66 66
67 15 2 0 67 67
68 15 2 0 68 68
69 15 2 0 69 69
70 15 2 0 70 70
71 15 2 0 71 71
72 15 2 0 72 72
73 15 2 0 73 73
74 15 2 0 74 74
75 15 2 0 75 75
76 15 2 0 76 76
77 15 2 0 77 77
78 15 2 0 78 78
79 15 2 0 79 79
80 15 2 0 80 80
81 15 2 0 81 81
82 15 2 0 82 82
83 15 2 0 83 83
84 15 2 0 84 84
85 15 2 0 85 85
86 15 2 0 86 86
87 15 2 0 87 87
88 15 2 0 88 88
89 15 2 0 89 89
90 15 2 0 90 90
91 15 2 0 91 91
92 15 2 0 92 92
93 15 2 0 93 93
94 15 2 0 94 94
95 15 2 0 95 95
96 15 2 0 96 96
97 15 2 0 97 97
98 15 2 0 98 98
99 15 2 0 99 99
100 15 2 0 100 100
101 15 2 0 101 101
102 15 2 0 102 102
103 15 2 0 103 103
104 15 2 0 104 104
105 15 2 0 105 105
106 15 2 0 106 106
107 15 2 0 107 107
108 15 2 0 108 108
109 15 2 0 109 109
110 15 2 0 110 110
111 15 2 0 111 111
112 15 2 0 112 112
113 15 2 0 113 113
114 15 2 0 114 114
115 15 2 0 115 115
116 15 2 0 116 116
117 15 2 0 117 117
118 15 2 0 118 118
119 15 2 0 119 119
120 15 2 0 120 120
121 15 2 0 121 121
122 15 2 0 122 122
123 15 2 0 123 123
124 15 2 0 124 124
125 15 2 0 125 125
126 15 2 0 126 126
127 15 2 0 127 127
128 15 2 0 128 128
129 15 2 0 129 129
130 15 2 0 130 130
131 15 2 0 131 131
132 15 2 0 132 132
133 15 2 0 133 133
134 15 2 0 134 134
135 15 2 0 135 135
136 15 2 0 136 136
137 15 2 0 137 137
138 15 2 0 138 138
139 15 2 0 139 139
140 15 2 0 140 140
141 15 2 0 141 141
142 15 2 0 142 142
143 15 2 0 143 143
144 15 2 0 144 144
145 15 2 0 145 145
146 15 2 0 146 146
147 15 2 0 147 147
148 15 2 0 148 148
149 15 2 0 149 149
150 15 2 0 150 150
151 15 2 0 151 151
152 15 2 0 152 152
153 15 2 0 153 153
154 15 2 0 154 154
155 15 2 0 155 155
156 15 2 0 156 156
157 15 2 0 157 157
158 15 2 0 158 158
159 15 2 0 159 159
160 15 2 0 160 160
161 15 2 0 161 161
162 15 2 0 162 162
163 15 2 0 163 163
164 15 2 0 164 164
165 15 2 0 165 165
166 15 2 0 166 166
167 15 2 0 167 167
168 15 2 0 168 168
169 15 2 0 169 169
170 15 2 0 170 170
171 15 2 0 171 171
172 15 2 0 172 172
173 15 2 0 173 173
174 15 2 0 174 174
175 15 2 0 175 175
176 15 2 0 176 176
177 15 2 0 177 177
178 15 2 0 178 178
179 15 2 0 179 179
180 15 2 0 180 180
181 15 2 0 181 181
182 15 2 0 182 182
183 15 2 0 183 183
184 15 2 0 184 184
185 15 2 0 185 185
186 15 2 0 186 186
187 15 2 0 187 187
188 15 2 0 188 188
189 15 2 0 189 189
190 15 2 0 190 190
191 15 2 0 191 191
192 15 2 0 192 192
193 15 2 0 193 193
194 15 2 0 194 194
195 15 2 0 195 195
196 15 2 0 196 196
197 15 2 0 197 197
198 15 2 0 198 198
199 15 2 0 199 199
200 15 2 0 200 200
201 15 2 0 201 201
202 15 2 0 202 202
203 15 2 0 203 203
204 15 2 0 204 204
205 15 2 0 205 205
206 15 2 0 206 206
207 15 2 0 207 207
208 15 2 0 208 208
209 1 2 0 1 1 17
210 1 2 0 2 1 2
211 1 2 0 3 2 18
212 1 2 0 4 2 3
213 1 2 0 5 3 19
214 1 2 0 6 3 4
215 1 2 0 7 4 20
216 1 2 0 8 4 5
217 1 2 0 9 5 21
218 1 2 0 10 5 6
219 1 2 0 11 6 22
220 1 2 0 12 6 7
221 1 2 0 13 7 23
222 1 2 0 14 7 8
223 1 2 0 15 8 24
224 1 2 0 16 8 9
225 1 2 0 17 9 25
226 1 2 0 18 9 10
227 1 2 0 19 10 26
228 1 2 0 20 10 11
229 1 2 0 21 11 27
230 1 2 0 22 11 12
231 1 2 0 23 12 28
232 1 2 0 24 12 13
233 1 2 0 25 13 29
234 1 2 0 26 13 14
235 1 2 0 27 14 30
236 1 2 0 28 14 15
237 1 2 0 29 15 31
238 1 2 0 30 15 16
239 1 2 0 31 16 32
240 1 2 0 32 16 1
241 1 2 0 33 17 33
242 1 2 0 34 17 18
243 1 2 0 35 18 34
244 1 2 0 36 18 19
245 1 2 0 37 19 35
246 1 2 0 38 19 20
247 1 2 0 39 20 36
248 1 2 0 40 20 21
249 1 2 0 41 21 37
250 1 2 0 42 21 22
251 1 2 0 43 22 38
252 1 2 0 44 22 23
253 1 2 0 45 23 39
254 1 2 0 46 23 24
255 1 2 0 47 24 40
256 1 2 0 48 24 25
257 1 2 0 49 25 41
258 1 2 0 50 25 26
259 1 2 0 51 26 42
260 1 2 0 52 26 27
261 1 2 0 53 27 43
262 1 2 0 54 27 28
263 1 2 0 55 28 44
264 1 2 0 56 28 29
265 1 2 0 57 29 45
266 1 2 0 58 29 30
267 1 2 0 59 30 46
268 1 2 0 60 30 31
269 1 2 0 61 31 47
270 1 2 0 62 31 32
271 1 2 0 63 32 48
272 1 2 0 64 32 17
273 1 2 0 65 33 49
274 1 2 0 66 33 34
275 1 2 0 67 34 50
276 1 2 0 68 34 35
277 1 2 0 69 35 51
278 1 2 0 70 35 36
279 1 2 0 71 36 52
280 1 2 0 72 36 37
281 1 2 0 73 37 53
282 1 2 0 74 37 38
283 1 2 0 75 38 54
284 1 2 0 76 38 39
285 1 2 0 77 39 55
286 1 2 0 78 39 40
287 1 2 0 79 40 56
288 1 2 0 80 40 41
289 1 2 0 81 41 57
290 1 2 0 82 41 42
291 1 2 0 83 42 58
292 1 2 0 84 42 43
293 1 2 0 85 43 59
294 1 2 0 86 43 44
295 1 2 0 87 44 60
296 1 2 0 88 44 45
297 1 2 0 89 45 61
298 1 2 0 90 45 46
299 1 2 0 91 46 62
300 1 2 0 92 46 47
301 1 2 0 93 47 63
302 1 2 0 94 47 48
303 1 2 0 95 48 64
304 1 2 0 96 48 33
305 1 2 0 97 49 65
306 1 2 0 98 49 50
307 1 2 0 99 50 66
308 1 2 0 100 50 51
309 1 2 0 101 51 67
310 1 2 0 102 51 52
311 1 2 0 103 52 68
312 1 2 0 104 52 53
313 1 2 0 105 53 69
314 1 2 0 106 53 54
315 1 2 0 107 54 70
316 1 2 0 108 54 55
317 1 2 0 109 55 71
318 1 2 0 110 55 56
319 1 2 0 111 56 72
320 1 2 0 112 56 57
321 1 2 0 113 57 73
322 1 2 0 114 57 58
323 1 2 0 115 58 74
324 1 2 0 116 58 59
325 1 2 0 117 59 75
326 1 2 0 118 59 60
327 1 2 0 119 60 76
328 1 2 0 120 60 61
329 1 2 0 121 61 77
330 1 2 0 122 61 62
331 1 2 0 123 62 78
332 1 2 0 124 62 63
333 1 2 0 125 63 79
334 1 2 0 126 63 64
335 1 2 0 127 64 80
336 1 2 0 128 64 49
337 1 2 0 129 65 81
338 1 2 0 130 65 66
339 1 2 0 131 66 82
340 1 2 0 132 66 67
341 1 2 0 133 67 83
342 1 2 0 134 67 68
343 1 2 0 135 68 84
344 1 2 0 136 68 69
345 1 2 0 137 69 85
346 1 2 0 138 69 70
347 1 2 0 139 70 86
348 1 2 0 140 70 71
349 1 2 0 141 71 87
350 1 2 0 142 71 72
351 1 2 0 143 72 88
352 1 2 0 144 72 73
353 1 2 0 145 73 89
354 1 2 0 146 73 74
355 1 2 0 147 74 90
356 1 2 0 148 74 75
357 1 2 0 149 75 91
358 1 2 0 150 75 76
359 1 2 0 151 76 92
360 1 2 0 152 76 77
361 1 2 0 153 77 93
362 1 2 0 154 77 78
363 1 2 0 155 78 94
364 1 2 0 156 78 79
365 1 2 0 157 79 95
366 1 2 0 158 79 80
367 1 2 0 159 80 96
368 1 2 0 160 80 65
369 1 2 0 161 81 97
370 1 2 0 162 81 82
371 1 2 0 163 82 98
372 1 2 0 164 82 83
373 1 2 0 165 83 99
374 1 2 0 166 83 84
375 1 2 0 167 84 100
376 1 2 0 168 84 85
377 1 2 0 169 85 101
378 1 2 0 170 85 86
379 1 2 0 171 86 102
380 1 2 0 172 86 87
381 1 2 0 173 87 103
382 1 2 0 174 87 88
383 1 2 0 175 88 104
384 1 2 0 176 88 89
385 1 2 0 177 89 105
386 1 2 0 178 89 90
387 1 2 0 179 90 106
388 1 2 0 180 90 91
389 1 2 0 181 91 107
390 1 2 0 182 91 92
391 1 2 0 183 92 108
392 1 2 0 184 92 93
393 1 2 0 185 93 109
394 1 2 0 186 93 94
395 1 2 0 187 94 110
396 1 2 0 188 94 95
397 1 2 0 189 95 111
398 1 2 0 190 95 96
399 1 2 0 191 96 112
400 1 2 0 192 96 81
401 1 2 0 193 97 113
402 1 2 0 194 97 98
403 1 2 0 195 98 114
404 1 2 0 196 98 99
405 1 2 0 197 99 115
406 1 2 0 198 99 100
407 1 2 0 199 100 116
408 1 2 0 200 100 209
409 1 2 0 200 209 101
410 1 2 0 201 101 117
411 1 2 0 202 101 210
412 1 2 0 202 210 102
413 1 2 0 203 102 118
414 1 2 0 204 102 103
415 1 2 0 205 103 119
416 1 2 0 206 103 104
417 1 2 0 207 104 120
418 1 2 0 208 104 105
419 1 2 0 209 105 121
420 1 2 0 210 105 106
421 1 2 0 211 106 122
422 1 2 0 212 106 107
423 1 2 0 213 107 123
424 1 2 0 214 107 108
425 1 2 0 215 108 124
426 1 2 0 216 108 211
427 1 2 0 216 211 109
428 1 2 0 217 109 125
429 1 2 0 218 109 212
430 1 2 0 218 212 110
431 1 2 0 219 110 126
432 1 2 0 220 110 111
433 1 2 0 221 111 127
434 1 2 0 222 111 112
435 1 2 0 223 112 128
436 1 2 0 224 112 97
437 1 2 0 225 113 129
438 1 2 0 226 113 213
439 1 2 0 226 213 114
440 1 2 0 227 114 130
441 1 2 0 228 114 115
442 1 2 0 229 115 131
443 1 2 0 230 115 116
444 1 2 0 231 116 132
445 1 2 0 232 116 214
446 1 2 0 232 214 117
447 1 2 0 233 117 133
448 1 2 0 234 117 215
449 1 2 0 234 215 118
450 1 2 0 235 118 134
451 1 2 0 236 118 119
452 1 2 0 237 119 135
453 1 2 0 238 119 120
454 1 2 0 239 120 136
455 1 2 0 240 120 216
456 1 2 0 240 216 121
457 1 2 0 241 121 137
458 1 2 0 242 121 217
459 1 2 0 242 217 122
460 1 2 0 243 122 138
461 1 2 0 244 122 123
462 1 2 0 245 123 139
463 1 2 0 246 123 124
464 1 2 0 247 124 140
465 1 2 0 248 124 218
466 1 2 0 248 218 125
467 1 2 0 249 125 141
468 1 2 0 250 125 219
469 1 2 0 250 219 126
470 1 2 0 251 126 142
471 1 2 0 252 126 127
472 1 2 0 253 127 143
473 1 2 0 254 127 128
474 1 2 0 255 128 144
475 1 2 0 256 128 220
476 1 2 0 256 220 113
477 1 2 0 257 129 145
478 1 2 0 258 129 221
479 1 2 0 258 221 130
480 1 2 0 259 130 146
481 1 2 0 260 130 131
482 1 2 0 261 131 147
483 1 2 0 262 131 132
484 1 2 0 263 132 148
485 1 2 0 264 132 222
486 1 2 0 264 222 133
487 1 2 0 265 133 149
488 1 2 0 266 133 223
489 1 2 0 266 223 134
490 1 2 0 267 134 150
491 1 2 0 268 134 135
492 1 2 0 269 135 151
493 1 2 0 270 135 136
494 1 2 0 271 136 152
495 1 2 0 272 136 224
496 1 2 0 272 224 137
497 1 2 0 273 137 153
498 1 2 0 274 137 225
499 1 2 0 274 225 138
500 1 2 0 275 138 154
501 1 2 0 276 138 139
502 1 2 0 277 139 155
503 1 2 0 278 139 140
504 1 2 0 279 140 156
505 1 2 0 280 140 226
506 1 2 0 280 226 141
507 1 2 0 281 141 157
508 1 2 0 282 141 227
509 1 2 0 282 227 142
510 1 2 0 283 142 158
511 1 2 0 284 142 143
512 1 2 0 285 143 159
513 1 2 0 286 143 144
514 1 2 0 287 144 160
515 1 2 0 288 144 228
516 1 2 0 288 228 129
517 1 2 0 289 145 161
518 1 2 0 290 145 229
519 1 2 0 290 229 230
520 1 2 0 290 230 146
521 1 2 0 291 146 162
522 1 2 0 292 146 147
523 1 2 0 293 147 163
524 1 2 0 294 147 148
525 1 2 0 295 148 164
526 1 2 0 296 148 231
527 1 2 0 296 231 232
528 1 2 0 296 232 149
529 1 2 0 297 149 165
530 1 2 0 298 149 233
531 1 2 0 298 233 234
532 1 2 0 298 234 150
533 1 2 0 299 150 166
534 1 2 0 300 150 151
535 1 2 0 301 151 167
536 1 2 0 302 151 152
537 1 2 0 303 152 168
538 1 2 0 304 152 235
539 1 2 0 304 235 236
540 1 2 0 304 236 153
541 1 2 0 305 153 169
542 1 2 0 306 153 237
543 1 2 0 306 237 238
544 1 2 0 306 238 154
545 1 2 0 307 154 170
546 1 2 0 308 154 155
547 1 2 0 309 155 171
548 1 2 0 310 155 156
549 1 2 0 311 156 172
550 1 2 0 312 156 239
551 1 2 0 312 239 240
552 1 2 0 312 240 157
553 1 2 0 313 157 173
554 1 2 0 314 157 241
555 1 2 0 314 241 242
556 1 2 0 314 242 158
557 1 2 0 315 158 174
558 1 2 0 316 158 159
559 1 2 0 317 159 175
560 1 2 0 318 159 160
561 1 2 0 319 160 176
562 1 2 0 320 160 243
563 1 2 0 320 243 244
564 1 2 0 320 244 145
565 1 2 0 321 161 177
566 1 2 0 322 161 245
567 1 2 0 322 245 246
568 1 2 0 322 246 162
569 1 2 0 323 162 178
570 1 2 0 324 162 163
571 1 2 0 325 163 179
572 1 2 0 326 163 164
573 1 2 0 327 164 180
574 1 2 0 328 164 247
575 1 2 0 328 247 248
576 1 2 0 328 248 249
577 1 2 0 328 249 165
578 1 2 0 329 165 181
579 1 2 0 330 165 250
580 1 2 0 330 250 251
581 1 2 0 330 251 252
582 1 2 0 330 252 166
583 1 2 0 331 166 182
584 1 2 0 332 166 167
585 1 2 0 333 167 183
586 1 2 0 334 167 168
587 1 2 0 335 168 184
588 1 2 0 336 168 253
589 1 2 0 336 253 254
590 1 2 0 336 254 169
591 1 2 0 337 169 185
592 1 2 0 338 169 255
593 1 2 0 338 255 256
594 1 2 0 338 256 170
595 1 2 0 339 170 186
596 1 2 0 340 170 171
597 1 2 0 341 171 187
598 1 2 0 342 171 172
599 1 2 0 343 172 188
600 1 2 0 344 172 257
601 1 2 0 344 257 258
602 1 2 0 344 258 259
603 1 2 0 344 259 173
604 1 2 0 345 173 189
605 1 2 0 346 173 260
606 1 2 0 346 260 261
607 1 2 0 346 261 262
608 1 2 0 346 262 174
609 1 2 0 347 174 190
610 1 2 0 348 174 175
611 1 2 0 349 175 191
612 1 2 0 350 175 176
613 1 2 0 351 176 192
614 1 2 0 352 176 263
615 1 2 0 352 263 264
616 1 2 0 352 264 161
617 1 2 0 353 177 193
618 1 2 0 354 177 265
619 1 2 0 354 265 266
620 1 2 0 354 266 178
621 1 2 0 355 178 194
622 1 2 0 356 178 179
623 1 2 0 357 179 195
624 1 2 0 358 179 180
625 1 2 0 359 180 196
626 1 2 0 360 180 267
627 1 2 0 360 267 268
628 1 2 0 360 268 269
629 1 2 0 360 269 181
630 1 2 0 361 181 197
631 1 2 0 362 181 270
632 1 2 0 362 270 271
633 1 2 0 362 271 272
634 1 2 0 362 272 182
635 1 2 0 363 182 198
636 1 2 0 364 182 183
637 1 2 0 365 183 199
638 1 2 0 366 183 184
639 1 2 0 367 184 200
640 1 2 0 368 184 273
641 1 2 0 368 273 274
642 1 2 0 368 274 185
643 1 2 0 369 185 201
644 1 2 0 370 185 275
645 1 2 0 370 275 276
646 1 2 0 370 276 186
647 1 2 0 371 186 202
648 1 2 0 372 186 187
649 1 2 0 373 187 203
650 1 2 0 374 187 188
651 1 2 0 375 188 204
652 1 2 0 376 188 277
653 1 2 0 376 277 278
654 1 2 0 376 278 279
655 1 2 0 376 279 189
656 1 2 0 377 189 205
657 1 2 0 378 189 280
658 1 2 0 378 280 281
659 1 2 0 378 281 282
660 1 2 0 378 282 190
661 1 2 0 379 190 206
662 1 2 0 380 190 191
663 1 2 0 381 191 207
664 1 2 0 382 191 192
665 1 2 0 383 192 208
666 1 2 0 384 192 283
667 1 2 0 384 283 284
668 1 2 0 384 284 177
669 1 2 0 386 193 285
670 1 2 0 386 285 286
671 1 2 0 386 286 287
672 1 2 0 386 287 194
673 1 2 0 388 194 195
674 1 2 0 390 195 196
675 1 2 0 392 196 288
676 1 2 0 392 288 289
677 1 2 0 392 289 290
678 1 2 0 392 290 291
679 1 2 0 392 291 197
680 1 2 0 394 197 292
681 1 2 0 394 292 293
682 1 2 0 394 293 294
683 1 2 0 394 294 295
684 1 2 0 394 295 198
685 1 2 0 396 198 199
686 1 2 0 398 199 200
687 1 2 0 400 200 296
688 1 2 0 400 296 297
689 1 2 0 400 297 298
690 1 2 0 400 298 201
691 1 2 0 402 201 299
692 1 2 0 402 299 300
693 1 2 0 402 300 301
694 1 2 0 402 301 202
695 1 2 0 404 202 203
696 1 2 0 406 203 204
697 1 2 0 408 204 302
698 1 2 0 408 302 303
699 1 2 0 408 303 304
700 1 2 0 408 304 305
701 1 2 0 408 305 205
702 1 2 0 410 205 306
703 1 2 0 410 306 307
704 1 2 0 410 307 308
705 1 2 0 410 308 309
706 1 2 0 410 309 206
707 1 2 0 412 206 207
708 1 2 0 414 207 208
709 1 2 0 416 208 310
710 1 2 0 416 310 311
711 1 2 0 416 311 312
712 1 2 0 416 312 193
713 2 2 0 38 18 2 313
714 2 2 0 38 1 17 313
715 2 2 0 38 2 1 313
716 2 2 0 38 17 18 313
717 2 2 0 39 18 3 2
718 2 2 0 39 19 3 18
719 2 2 0 40 19 4 3
720 2 2 0 40 20 4 19
721 2 2 0 41 21 5 4
722 2 2 0 41 20 21 4
723 2 2 0 42 21 6 5
724 2 2 0 42 22 6 21
725 2 2 0 43 23 7 6
726 2 2 0 43 22 23 6
727 2 2 0 44 24 8 7
728 2 2 0 44 23 24 7
729 2 2 0 45 8 24 314
730 2 2 0 45 25 9 314
731 2 2 0 45 9 8 314
732 2 2 0 45 24 25 314
733 2 2 0 46 26 10 315
734 2 2 0 46 9 25 315
735 2 2 0 46 10 9 315
736 2 2 0 46 25 26 315
737 2 2 0 47 26 11 10
738 2 2 0 47 27 11 26
739 2 2 0 48 27 12 11
740 2 2 0 48 28 12 27
741 2 2 0 49 29 13 12
742 2 2 0 49 28 29 12
743 2 2 0 50 29 14 13
744 2 2 0 50 30 14 29
745 2 2 0 51 31 15 14
746 2 2 0 51 30 31 14
747 2 2 0 52 32 16 15
748 2 2 0 52 31 32 15
749 2 2 0 53 16 32 316
750 2 2 0 53 17 1 316
751 2 2 0 53 1 16 316
752 2 2 0 53 32 17 316
753 2 2 0 54 18 17 317
754 2 2 0 54 34 18 317
755 2 2 0 54 17 33 317
756 2 2 0 54 33 34 317
757 2 2 0 55 35 19 34
758 2 2 0 55 34 19 18
759 2 2 0 56 36 20 35
760 2 2 0 56 35 20 19
761 2 2 0 57 20 36 318
762 2 2 0 57 37 21 318
763 2 2 0 57 21 20 318
764 2 2 0 57 36 37 318
765 2 2 0 58 38 22 319
766 2 2 0 58 21 37 319
767 2 2 0 58 22 21 319
768 2 2 0 58 37 38 319
769 2 2 0 59 38 39 22
770 2 2 0 59 39 23 22
771 2 2 0 60 39 40 23
772 2 2 0 60 40 24 23
773 2 2 0 61 25 24 320
774 2 2 0 61 24 40 320
775 2 2 0 61 41 25 320
776 2 2 0 61 40 41 320
777 2 2 0 62 26 25 321
778 2 2 0 62 42 26 321
779 2 2 0 62 25 41 321
780 2 2 0 62 41 42 321
781 2 2 0 63 43 27 42
782 2 2 0 63 42 27 26
783 2 2 0 64 44 28 43
784 2 2 0 64 43 28 27
785 2 2 0 65 28 44 322
786 2 2 0 65 45 29 322
787 2 2 0 65 29 28 322
788 2 2 0 65 44 45 322
789 2 2 0 66 46 30 323
790 2 2 0 66 29 45 323
791 2 2 0 66 30 29 323
792 2 2 0 66 45 46 323
793 2 2 0 67 46 47 30
794 2 2 0 67 47 31 30
795 2 2 0 68 47 48 31
796 2 2 0 68 48 32 31
797 2 2 0 69 17 32 324
798 2 2 0 69 32 48 324
799 2 2 0 69 33 17 324
800 2 2 0 69 48 33 324
801 2 2 0 70 49 50 325
802 2 2 0 70 50 34 325
803 2 2 0 70 33 49 325
804 2 2 0 70 34 33 325
805 2 2 0 71 50 35 34
806 2 2 0 71 50 51 35
807 2 2 0 72 51 36 35
808 2 2 0 72 51 52 36
809 2 2 0 73 36 52 326
810 2 2 0 73 37 36 326
811 2 2 0 73 53 37 326
812 2 2 0 73 52 53 326
813 2 2 0 74 54 38 327
814 2 2 0 74 38 37 327
815 2 2 0 74 37 53 327
816 2 2 0 74 53 54 327
817 2 2 0 75 38 55 39
818 2 2 0 75 54 55 38
819 2 2 0 76 56 40 39
820 2 2 0 76 55 56 39
821 2 2 0 77 56 57 328
822 2 2 0 77 40 56 328
823 2 2 0 77 57 41 328
824 2 2 0 77 41 40 328
825 2 2 0 78 57 58 329
826 2 2 0 78 58 42 329
827 2 2 0 78 41 57 329
828 2 2 0 78 42 41 329
829 2 2 0 79 58 43 42
830 2 2 0 79 58 59 43
831 2 2 0 80 59 44 43
832 2 2 0 80 59 60 44
833 2 2 0 81 44 60 330
834 2 2 0 81 45 44 330
835 2 2 0 81 61 45 330
836 2 2 0 81 60 61 330
837 2 2 0 82 62 46 331
838 2 2 0 82 46 45 331
839 2 2 0 82 45 61 331
840 2 2 0 82 61 62 331
841 2 2 0 83 46 63 47
842 2 2 0 83 62 63 46
843 2 2 0 84 64 48 47
844 2 2 0 84 63 64 47
845 2 2 0 85 64 49 332
846 2 2 0 85 48 64 332
847 2 2 0 85 49 33 332
848 2 2 0 85 33 48 332
849 2 2 0 86 66 50 333
850 2 2 0 86 49 65 333
851 2 2 0 86 65 66 333
852 2 2 0 86 50 49 333
853 2 2 0 87 66 51 50
854 2 2 0 87 66 67 51
855 2 2 0 88 67 52 51
856 2 2 0 88 67 68 52
857 2 2 0 89 52 68 334
858 2 2 0 89 69 53 334
859 2 2 0 89 53 52 334
860 2 2 0 89 68 69 334
861 2 2 0 90 70 54 335
862 2 2 0 90 53 69 335
863 2 2 0 90 54 53 335
864 2 2 0 90 69 70 335
865 2 2 0 91 54 71 55
866 2 2 0 91 70 71 54
867 2 2 0 92 55 72 56
868 2 2 0 92 71 72 55
869 2 2 0 93 56 72 336
870 2 2 0 93 73 57 336
871 2 2 0 93 72 73 336
872 2 2 0 93 57 56 336
873 2 2 0 94 74 58 337
874 2 2 0 94 57 73 337
875 2 2 0 94 73 74 337
876 2 2 0 94 58 57 337
877 2 2 0 95 74 59 58
878 2 2 0 95 74 75 59
879 2 2 0 96 75 60 59
880 2 2 0 96 75 76 60
881 2 2 0 97 60 76 338
882 2 2 0 97 77 61 338
883 2 2 0 97 61 60 338
884 2 2 0 97 76 77 338
885 2 2 0 98 78 62 339
886 2 2 0 98 61 77 339
887 2 2 0 98 62 61 339
888 2 2 0 98 77 78 339
889 2 2 0 99 62 79 63
890 2 2 0 99 78 79 62
891 2 2 0 100 63 80 64
892 2 2 0 100 79 80 63
893 2 2 0 101 64 80 340
894 2 2 0 101 65 49 340
895 2 2 0 101 80 65 340
896 2 2 0 101 49 64 340
897 2 2 0 102 81 82 341
898 2 2 0 102 82 66 341
899 2 2 0 102 65 81 341
900 2 2 0 102 66 65 341
901 2 2 0 103 82 67 66
902 2 2 0 103 82 83 67
903 2 2 0 104 83 68 67
904 2 2 0 104 83 84 68
905 2 2 0 105 68 84 342
906 2 2 0 105 69 68 342
907 2 2 0 105 85 69 342
908 2 2 0 105 84 85 342
909 2 2 0 106 86 70 343
910 2 2 0 106 70 69 343
911 2 2 0 106 69 85 343
912 2 2 0 106 85 86 343
913 2 2 0 107 70 87 71
914 2 2 0 107 86 87 70
915 2 2 0 108 71 88 72
916 2 2 0 108 87 88 71
917 2 2 0 109 88 89 344
918 2 2 0 109 72 88 344
919 2 2 0 109 89 73 344
920 2 2 0 109 73 72 344
921 2 2 0 110 89 90 345
922 2 2 0 110 90 74 345
923 2 2 0 110 73 89 345
924 2 2 0 110 74 73 345
925 2 2 0 111 90 75 74
926 2 2 0 111 90 91 75
927 2 2 0 112 91 76 75
928 2 2 0 112 91 92 76
929 2 2 0 113 76 92 346
930 2 2 0 113 77 76 346
931 2 2 0 113 93 77 346
932 2 2 0 113 92 93 346
933 2 2 0 114 94 78 347
934 2 2 0 114 78 77 347
935 2 2 0 114 77 93 347
936 2 2 0 114 93 94 347
937 2 2 0 115 78 95 79
938 2 2 0 115 94 95 78
939 2 2 0 116 79 96 80
940 2 2 0 116 95 96 79
941 2 2 0 117 96 81 348
942 2 2 0 117 80 96 348
943 2 2 0 117 81 65 348
944 2 2 0 117 65 80 348
945 2 2 0 118 98 82 349
946 2 2 0 118 81 97 349
947 2 2 0 118 82 81 349
948 2 2 0 118 97 98 349
949 2 2 0 119 98 83 82
950 2 2 0 119 98 99 83
951 2 2 0 120 99 84 83
952 2 2 0 120 99 100 84
953 2 2 0 121 85 209 101
954 2 2 0 121 100 209 84
955 2 2 0 121 209 85 84
956 2 2 0 122 101 210 85
957 2 2 0 122 86 210 102
958 2 2 0 122 210 86 85
959 2 2 0 123 86 103 87
960 2 2 0 123 102 103 86
961 2 2 0 124 87 104 88
962 2 2 0 124 103 104 87
963 2 2 0 125 88 104 350
964 2 2 0 125 105 89 350
965 2 2 0 125 89 88 350
966 2 2 0 125 104 105 350
967 2 2 0 126 106 90 351
968 2 2 0 126 89 105 351
969 2 2 0 126 90 89 351
970 2 2 0 126 105 106 351
971 2 2 0 127 106 91 90
972 2 2 0 127 106 107 91
973 2 2 0 128 107 92 91
974 2 2 0 128 107 108 92
975 2 2 0 129 93 211 109
976 2 2 0 129 108 211 92
977 2 2 0 129 211 93 92
978 2 2 0 130 109 212 93
979 2 2 0 130 94 212 110
980 2 2 0 130 212 94 93
981 2 2 0 131 94 111 95
982 2 2 0 131 110 111 94
983 2 2 0 132 95 112 96
984 2 2 0 132 111 112 95
985 2 2 0 133 96 112 352
986 2 2 0 133 97 81 352
987 2 2 0 133 81 96 352
988 2 2 0 133 112 97 352
989 2 2 0 134 113 213 97
990 2 2 0 134 213 98 97
991 2 2 0 134 98 213 114
992 2 2 0 135 114 99 98
993 2 2 0 135 114 115 99
994 2 2 0 136 115 100 99
995 2 2 0 136 115 116 100
996 2 2 0 137 116 214 100
997 2 2 0 137 214 209 100
998 2 2 0 137 214 117 353
999 2 2 0 137 209 214 353
1000 2 2 0 137 117 101 353
1001 2 2 0 137 101 209 353
1002 2 2 0 138 102 215 118
1003 2 2 0 138 102 210 215
1004 2 2 0 138 117 215 354
1005 2 2 0 138 215 210 354
1006 2 2 0 138 101 117 354
1007 2 2 0 138 210 101 354
1008 2 2 0 139 102 119 103
1009 2 2 0 139 118 119 102
1010 2 2 0 140 103 120 104
1011 2 2 0 140 119 120 103
1012 2 2 0 141 105 216 121
1013 2 2 0 141 216 105 104
1014 2 2 0 141 120 216 104
1015 2 2 0 142 121 217 105
1016 2 2 0 142 217 106 105
1017 2 2 0 142 106 217 122
1018 2 2 0 143 122 107 106
1019 2 2 0 143 122 123 107
1020 2 2 0 144 123 108 107
1021 2 2 0 144 123 124 108
1022 2 2 0 145 124 218 108
1023 2 2 0 145 218 211 108
1024 2 2 0 145 218 125 355
1025 2 2 0 145 211 218 355
1026 2 2 0 145 125 109 355
1027 2 2 0 145 109 211 355
1028 2 2 0 146 110 219 126
1029 2 2 0 146 110 212 219
1030 2 2 0 146 125 219 356
1031 2 2 0 146 219 212 356
1032 2 2 0 146 109 125 356
1033 2 2 0 146 212 109 356
1034 2 2 0 147 110 127 111
1035 2 2 0 147 126 127 110
1036 2 2 0 148 111 128 112
1037 2 2 0 148 127 128 111
1038 2 2 0 149 97 220 113
1039 2 2 0 149 220 97 112
1040 2 2 0 149 128 220 112
1041 2 2 0 150 114 213 221
1042 2 2 0 150 114 221 130
1043 2 2 0 150 221 213 357
1044 2 2 0 150 113 129 357
1045 2 2 0 150 129 221 357
1046 2 2 0 150 213 113 357
1047 2 2 0 151 130 115 114
1048 2 2 0 151 130 131 115
1049 2 2 0 152 131 116 115
1050 2 2 0 152 131 132 116
1051 2 2 0 153 132 222 116
1052 2 2 0 153 222 214 116
1053 2 2 0 153 117 214 358
1054 2 2 0 153 214 222 358
1055 2 2 0 153 133 117 358
1056 2 2 0 153 222 133 358
1057 2 2 0 154 118 223 134
1058 2 2 0 154 118 215 223
1059 2 2 0 154 215 117 359
1060 2 2 0 154 223 215 359
1061 2 2 0 154 117 133 359
1062 2 2 0 154 133 223 359
1063 2 2 0 155 118 135 119
1064 2 2 0 155 134 135 118
1065 2 2 0 156 119 136 120
1066 2 2 0 156 135 136 119
1067 2 2 0 157 224 216 120
1068 2 2 0 157 136 224 120
1069 2 2 0 157 216 224 360
1070 2 2 0 157 137 121 360
1071 2 2 0 157 224 137 360
1072 2 2 0 157 121 216 360
1073 2 2 0 158 122 217 225
1074 2 2 0 158 138 122 225
1075 2 2 0 158 225 217 361
1076 2 2 0 158 121 137 361
1077 2 2 0 158 137 225 361
1078 2 2 0 158 217 121 361
1079 2 2 0 159 138 123 122
1080 2 2 0 159 138 139 123
1081 2 2 0 160 139 124 123
1082 2 2 0 160 139 140 124
1083 2 2 0 161 140 226 124
1084 2 2 0 161 226 218 124
1085 2 2 0 161 125 218 362
1086 2 2 0 161 218 226 362
1087 2 2 0 161 141 125 362
1088 2 2 0 161 226 141 362
1089 2 2 0 162 126 227 142
1090 2 2 0 162 227 126 219
1091 2 2 0 162 219 125 363
1092 2 2 0 162 227 219 363
1093 2 2 0 162 125 141 363
1094 2 2 0 162 141 227 363
1095 2 2 0 163 126 143 127
1096 2 2 0 163 142 143 126
1097 2 2 0 164 127 144 128
1098 2 2 0 164 143 144 127
1099 2 2 0 165 228 220 128
1100 2 2 0 165 144 228 128
1101 2 2 0 165 220 228 364
1102 2 2 0 165 129 113 364
1103 2 2 0 165 228 129 364
1104 2 2 0 165 113 220 364
1105 2 2 0 166 230 221 229
1106 2 2 0 166 130 230 146
1107 2 2 0 166 130 221 230
1108 2 2 0 166 229 221 365
1109 2 2 0 166 129 145 365
1110 2 2 0 166 221 129 365
1111 2 2 0 166 145 229 365
1112 2 2 0 167 146 131 130
1113 2 2 0 167 146 147 131
1114 2 2 0 168 147 132 131
1115 2 2 0 168 147 148 132
1116 2 2 0 169 148 231 132
1117 2 2 0 169 222 232 366
1118 2 2 0 169 149 133 366
1119 2 2 0 169 133 222 366
1120 2 2 0 169 232 149 366
1121 2 2 0 169 231 222 132
1122 2 2 0 169 232 222 231
1123 2 2 0 170 134 234 150
1124 2 2 0 170 233 223 367
1125 2 2 0 170 133 149 367
1126 2 2 0 170 223 133 367
1127 2 2 0 170 149 233 367
1128 2 2 0 170 134 223 234
1129 2 2 0 170 234 223 233
1130 2 2 0 171 134 151 135
1131 2 2 0 171 150 151 134
1132 2 2 0 172 135 152 136
1133 2 2 0 172 151 152 135
1134 2 2 0 173 236 224 235
1135 2 2 0 173 152 235 136
1136 2 2 0 173 235 224 136
1137 2 2 0 173 224 236 368
1138 2 2 0 173 153 137 368
1139 2 2 0 173 137 224 368
1140 2 2 0 173 236 153 368
1141 2 2 0 174 238 225 237
1142 2 2 0 174 138 238 154
1143 2 2 0 174 138 225 238
1144 2 2 0 174 237 225 369
1145 2 2 0 174 137 153 369
1146 2 2 0 174 225 137 369
1147 2 2 0 174 153 237 369
1148 2 2 0 175 154 139 138
1149 2 2 0 175 154 155 139
1150 2 2 0 176 155 140 139
1151 2 2 0 176 155 156 140
1152 2 2 0 177 156 239 140
1153 2 2 0 177 226 240 370
1154 2 2 0 177 157 141 370
1155 2 2 0 177 141 226 370
1156 2 2 0 177 240 157 370
1157 2 2 0 177 239 226 140
1158 2 2 0 177 240 226 239
1159 2 2 0 178 142 242 158
1160 2 2 0 178 241 227 371
1161 2 2 0 178 141 157 371
1162 2 2 0 178 227 141 371
1163 2 2 0 178 157 241 371
1164 2 2 0 178 142 227 242
1165 2 2 0 178 242 227 241
1166 2 2 0 179 142 159 143
1167 2 2 0 179 158 159 142
1168 2 2 0 180 143 160 144
1169 2 2 0 180 159 160 143
1170 2 2 0 181 244 228 243
1171 2 2 0 181 160 243 144
1172 2 2 0 181 243 228 144
1173 2 2 0 181 228 244 372
1174 2 2 0 181 145 129 372
1175 2 2 0 181 129 228 372
1176 2 2 0 181 244 145 372
1177 2 2 0 182 246 230 245
1178 2 2 0 182 230 229 245
1179 2 2 0 182 146 246 162
1180 2 2 0 182 161 245 373
1181 2 2 0 182 146 230 246
1182 2 2 0 182 245 229 373
1183 2 2 0 182 145 161 373
1184 2 2 0 182 229 145 373
1185 2 2 0 183 162 147 146
1186 2 2 0 183 163 147 162
1187 2 2 0 184 163 148 147
1188 2 2 0 184 164 148 163
1189 2 2 0 185 164 247 148
1190 2 2 0 185 232 249 374
1191 2 2 0 185 165 149 374
1192 2 2 0 185 149 232 374
1193 2 2 0 185 249 165 374
1194 2 2 0 185 247 231 148
1195 2 2 0 185 232 231 248
1196 2 2 0 185 248 231 247
1197 2 2 0 185 249 232 248
1198 2 2 0 186 150 252 166
1199 2 2 0 186 250 233 375
1200 2 2 0 186 149 165 375
1201 2 2 0 186 233 149 375
1202 2 2 0 186 165 250 375
1203 2 2 0 186 150 234 252
1204 2 2 0 186 234 233 251
1205 2 2 0 186 251 233 250
1206 2 2 0 186 252 234 251
1207 2 2 0 187 167 151 150
1208 2 2 0 187 166 167 150
1209 2 2 0 188 151 168 152
1210 2 2 0 188 167 168 151
1211 2 2 0 189 254 235 253
1212 2 2 0 189 236 235 254
1213 2 2 0 189 168 253 152
1214 2 2 0 189 254 169 376
1215 2 2 0 189 253 235 152
1216 2 2 0 189 236 254 376
1217 2 2 0 189 169 153 376
1218 2 2 0 189 153 236 376
1219 2 2 0 190 256 238 255
1220 2 2 0 190 238 237 255
1221 2 2 0 190 154 256 170
1222 2 2 0 190 169 255 377
1223 2 2 0 190 154 238 256
1224 2 2 0 190 255 237 377
1225 2 2 0 190 153 169 377
1226 2 2 0 190 237 153 377
1227 2 2 0 191 170 155 154
1228 2 2 0 191 171 155 170
1229 2 2 0 192 171 156 155
1230 2 2 0 192 172 156 171
1231 2 2 0 193 172 257 156
1232 2 2 0 193 240 259 378
1233 2 2 0 193 173 157 378
1234 2 2 0 193 157 240 378
1235 2 2 0 193 259 173 378
1236 2 2 0 193 257 239 156
1237 2 2 0 193 240 239 258
1238 2 2 0 193 258 239 257
1239 2 2 0 193 259 240 258
1240 2 2 0 194 158 262 174
1241 2 2 0 194 260 241 379
1242 2 2 0 194 157 173 379
1243 2 2 0 194 241 157 379
1244 2 2 0 194 173 260 379
1245 2 2 0 194 158 242 262
1246 2 2 0 194 242 241 261
1247 2 2 0 194 241 260 261
1248 2 2 0 194 262 242 261
1249 2 2 0 195 175 159 158
1250 2 2 0 195 174 175 158
1251 2 2 0 196 159 176 160
1252 2 2 0 196 175 176 159
1253 2 2 0 197 243 263 264
1254 2 2 0 197 244 243 264
1255 2 2 0 197 176 263 160
1256 2 2 0 197 264 161 380
1257 2 2 0 197 263 243 160
1258 2 2 0 197 244 264 380
1259 2 2 0 197 161 145 380
1260 2 2 0 197 145 244 380
1261 2 2 0 198 162 246 266
1262 2 2 0 198 265 245 381
1263 2 2 0 198 161 177 381
1264 2 2 0 198 245 161 381
1265 2 2 0 198 177 265 381
1266 2 2 0 198 162 266 178
1267 2 2 0 198 246 245 265
1268 2 2 0 198 266 246 265
1269 2 2 0 199 178 163 162
1270 2 2 0 199 179 163 178
1271 2 2 0 200 179 164 163
1272 2 2 0 200 180 164 179
1273 2 2 0 201 267 247 164
1274 2 2 0 201 249 269 382
1275 2 2 0 201 181 165 382
1276 2 2 0 201 165 249 382
1277 2 2 0 201 269 181 382
1278 2 2 0 201 180 267 164
1279 2 2 0 201 248 247 268
1280 2 2 0 201 247 267 268
1281 2 2 0 201 249 248 269
1282 2 2 0 201 269 248 268
1283 2 2 0 202 166 252 272
1284 2 2 0 202 270 250 383
1285 2 2 0 202 165 181 383
1286 2 2 0 202 250 165 383
1287 2 2 0 202 181 270 383
1288 2 2 0 202 182 166 272
1289 2 2 0 202 251 250 270
1290 2 2 0 202 252 251 271
1291 2 2 0 202 271 251 270
1292 2 2 0 202 252 271 272
1293 2 2 0 203 183 167 166
1294 2 2 0 203 182 183 166
1295 2 2 0 204 184 168 167
1296 2 2 0 204 183 184 167
1297 2 2 0 205 273 253 168
1298 2 2 0 205 254 274 384
1299 2 2 0 205 185 169 384
1300 2 2 0 205 169 254 384
1301 2 2 0 205 274 185 384
1302 2 2 0 205 184 273 168
1303 2 2 0 205 254 253 274
1304 2 2 0 205 274 253 273
1305 2 2 0 206 170 256 276
1306 2 2 0 206 275 255 385
1307 2 2 0 206 169 185 385
1308 2 2 0 206 255 169 385
1309 2 2 0 206 185 275 385
1310 2 2 0 206 186 170 276
1311 2 2 0 206 256 255 275
1312 2 2 0 206 256 275 276
1313 2 2 0 207 186 171 170
1314 2 2 0 207 187 171 186
1315 2 2 0 208 187 172 171
1316 2 2 0 208 188 172 187
1317 2 2 0 209 277 257 172
1318 2 2 0 209 259 279 386
1319 2 2 0 209 189 173 386
1320 2 2 0 209 173 259 386
1321 2 2 0 209 279 189 386
1322 2 2 0 209 188 277 172
1323 2 2 0 209 258 257 278
1324 2 2 0 209 278 257 277
1325 2 2 0 209 259 258 279
1326 2 2 0 209 258 278 279
1327 2 2 0 210 174 262 282
1328 2 2 0 210 280 260 387
1329 2 2 0 210 173 189 387
1330 2 2 0 210 260 173 387
1331 2 2 0 210 189 280 387
1332 2 2 0 210 174 282 190
1333 2 2 0 210 261 260 280
1334 2 2 0 210 262 261 281
1335 2 2 0 210 281 261 280
1336 2 2 0 210 282 262 281
1337 2 2 0 211 191 175 174
1338 2 2 0 211 190 191 174
1339 2 2 0 212 192 176 175
1340 2 2 0 212 191 192 175
1341 2 2 0 213 283 263 176
1342 2 2 0 213 264 284 388
1343 2 2 0 213 177 161 388
1344 2 2 0 213 161 264 388
1345 2 2 0 213 284 177 388
1346 2 2 0 213 192 283 176
1347 2 2 0 213 264 263 284
1348 2 2 0 213 284 263 283
1349 2 2 0 214 285 265 389
1350 2 2 0 214 177 193 389
1351 2 2 0 214 265 177 389
1352 2 2 0 214 178 266 287
1353 2 2 0 214 193 285 389
1354 2 2 0 214 266 265 286
1355 2 2 0 214 178 287 194
1356 2 2 0 214 286 265 285
1357 2 2 0 214 287 266 286
1358 2 2 0 215 194 179 178
1359 2 2 0 215 195 179 194
1360 2 2 0 216 195 196 390
1361 2 2 0 216 180 179 390
1362 2 2 0 216 179 195 390
1363 2 2 0 216 196 180 390
1364 2 2 0 217 196 288 180
1365 2 2 0 217 288 267 180
1366 2 2 0 217 268 267 289
1367 2 2 0 217 289 267 288
1368 2 2 0 217 269 268 290
1369 2 2 0 217 290 268 289
1370 2 2 0 217 181 291 197
1371 2 2 0 217 181 269 291
1372 2 2 0 217 291 269 290
1373 2 2 0 218 182 295 198
1374 2 2 0 218 295 182 272
1375 2 2 0 218 271 270 293
1376 2 2 0 218 271 294 272
1377 2 2 0 218 294 271 293
1378 2 2 0 218 294 295 272
1379 2 2 0 218 197 292 181
1380 2 2 0 218 292 270 181
1381 2 2 0 218 293 270 292
1382 2 2 0 219 198 199 391
1383 2 2 0 219 183 182 391
1384 2 2 0 219 182 198 391
1385 2 2 0 219 199 183 391
1386 2 2 0 220 200 184 183
1387 2 2 0 220 199 200 183
1388 2 2 0 221 274 298 392
1389 2 2 0 221 201 185 392
1390 2 2 0 221 296 273 184
1391 2 2 0 221 185 274 392
1392 2 2 0 221 298 201 392
1393 2 2 0 221 274 273 297
1394 2 2 0 221 200 296 184
1395 2 2 0 221 297 273 296
1396 2 2 0 221 298 274 297
1397 2 2 0 222 299 275 393
1398 2 2 0 222 185 201 393
1399 2 2 0 222 275 185 393
1400 2 2 0 222 301 186 276
1401 2 2 0 222 201 299 393
1402 2 2 0 222 275 300 276
1403 2 2 0 222 186 301 202
1404 2 2 0 222 300 275 299
1405 2 2 0 222 300 301 276
1406 2 2 0 223 202 187 186
1407 2 2 0 223 203 187 202
1408 2 2 0 224 203 204 394
1409 2 2 0 224 188 187 394
1410 2 2 0 224 187 203 394
1411 2 2 0 224 204 188 394
1412 2 2 0 225 204 302 188
1413 2 2 0 225 302 277 188
1414 2 2 0 225 278 277 303
1415 2 2 0 225 303 277 302
1416 2 2 0 225 278 304 279
1417 2 2 0 225 304 278 303
1418 2 2 0 225 205 189 305
1419 2 2 0 225 189 279 305
1420 2 2 0 225 279 304 305
1421 2 2 0 226 206 190 309
1422 2 2 0 226 190 282 309
1423 2 2 0 226 307 281 280
1424 2 2 0 226 308 282 281
1425 2 2 0 226 308 281 307
1426 2 2 0 226 282 308 309
1427 2 2 0 226 205 306 189
1428 2 2 0 226 306 280 189
1429 2 2 0 226 307 280 306
1430 2 2 0 227 206 207 395
1431 2 2 0 227 191 190 395
1432 2 2 0 227 190 206 395
1433 2 2 0 227 207 191 395
1434 2 2 0 228 208 192 191
1435 2 2 0 228 207 208 191
1436 2 2 0 229 284 312 396
1437 2 2 0 229 193 177 396
1438 2 2 0 229 177 284 396
1439 2 2 0 229 310 283 192
1440 2 2 0 229 312 193 396
1441 2 2 0 229 311 284 283
1442 2 2 0 229 208 310 192
1443 2 2 0 229 310 311 283
1444 2 2 0 229 284 311 312
$EndElements
