$MeshFormat
2.2 0 8
$EndMeshFormat
$PhysicalNames
4
2 1 "SD1G0"
2 2 "SD1D1001"
2 3 "SD2G0"
2 4 "I1-2"
$EndPhysicalNames
$Nodes
614
1 12.7 0 0
2 9.122999999999999 8.835000000000001 0
3 0 12.7 0
4 12.946 0 4.71
5 9.409000000000001 9.112 4.71
6 0 12.851 4.71
7 14.531 0 13.154
8 11.181 10.827 13.154
9 0 13.858 13.154
10 19.028 0 26.082
11 15.83 15.33 26.082
12 0 16.915 26.082
13 27.944 0 44.762
14 24.39 23.62 44.762
15 0 23.474 44.762
16 41.803 0 68.85599999999999
17 37.061 35.891 68.85599999999999
18 0 34.325 68.85599999999999
19 61.122 0 96.89700000000001
20 54.384 52.667 96.89700000000001
21 0 50.34 96.89700000000001
22 86.306 0 124.851
23 77.751 75.295 124.851
24 0 72.857 124.851
25 116.064 0 148.023
26 107.234 103.847 148.023
27 0 101.569 148.023
28 148.238 0 165.397
29 140.552 136.114 165.397
30 0 134.228 165.397
31 178.07 0 176.848
32 171.561 166.143 176.848
33 0 165.255 176.848
34 203.477 0 183.712
35 196.929 190.71 183.712
36 0 191.797 183.712
37 221.45 0 186.789
38 213.41 206.671 186.789
39 0 210.396 186.789
40 0 0 186.789
41 0 0 0
42 0 0 16.789
43 222 0 186.789
44 232 0 176.789
45 232 0 26.789
46 222 0 16.789
47 0 211 186.789
48 0 221 176.789
49 0 221 26.789
50 0 211 16.789
51 222 211 186.789
52 232 211 176.789
53 232 211 26.789
54 222 211 16.789
55 222 221 176.789
56 222 221 26.789
57 10.82211914036036 4.938263231346855 0
58 5.127570865509479 10.64275831398748 0
59 11.08741840016621 5.082309820310524 4.710000000000001
60 5.295957989301318 10.87739509264676 4.709999999999999
61 12.75928559907045 5.985939328643636 13.154
62 6.329783253285452 12.35966421667797 13.154
63 17.31660422733555 8.396277511704152 26.082
64 9.031429063300223 16.41820075760659 26.082
65 13.40354065618102 12.97974264891012 19.3344701232756
66 16.6808742376522 0 19.33447012327498
67 0 15.31945553581052 19.3344701233099
68 26.02206027174373 12.87725877710393 44.762
69 13.9736162241551 24.26472401121465 44.76200000000001
70 19.89710878142419 19.26882380817833 34.9574196304911
71 23.26425489429648 0 34.95741963049106
72 0 20.03137459082926 34.95741963053676
73 40.08828998923111 13.02903166277937 68.85599999999999
74 38.37407293409918 26.05812872708267 68.85599999999999
75 28.34279615692739 36.99056637242672 68.85599999999999
76 14.17112450722037 35.6607139531256 68.85599999999999
77 30.38123220499187 29.42210010160645 56.15437224742121
78 34.49695455204635 0 56.1543722474208
79 0 28.60468113461447 56.15437224747959
80 58.71650812750858 19.13299707593077 96.89700000000001
81 56.31146928829056 38.26605174332562 96.89700000000001
82 41.51393759740418 54.21609795450799 96.89700000000001
83 20.7565857451851 52.28218225816936 96.89699999999999
84 45.27630563829311 43.84689490203805 82.15423849237298
85 50.96489399215935 0 82.1542384923723
86 0 41.91999623609865 82.15423849244098
87 84.14146738694372 20.57950205062171 124.851
88 81.97834386329778 41.15915253137223 124.851
89 79.81049529000634 61.73830702254382 124.851
90 66.28506001156184 77.90388930224729 124.851
91 44.18742228529337 76.256400235604 124.851
92 22.09439467384819 74.5477723259538 124.851
93 65.56864726677709 63.49792388208294 110.2772212391615
94 73.17635686080754 0 110.2772212391603
95 0 61.11779357672497 110.2772212392312
96 114.1420675507096 28.53230944576183 148.023
97 112.2274234142733 57.06511069726949 148.023
98 110.2884833724164 85.59626789400774 148.023
99 96.47953516932365 107.1105057140451 148.023
100 72.3561691781489 105.7871622485069 148.023
101 48.23728024258239 104.3839399195711 148.023
102 24.11925687779306 102.9658649887741 148.023
103 92.02888919356079 89.12202887272487 136.0726276631683
104 100.7170649059475 0 136.0726276631701
105 0 86.76151292364253 136.0726276632295
106 147.3179750130575 30.08812585508188 165.397
107 146.4156602583805 60.17679175130711 165.397
108 145.5009615700854 90.26508262846977 165.397
109 144.5200809374636 120.3512659423003 165.397
110 125.2930175453473 139.4531734746772 165.397
111 93.96744789601809 138.2036557608651 165.397
112 62.64485598855368 136.8809739096571 165.397
113 31.32284318268757 135.5446537853141 165.397
114 123.5553663221756 119.6535168112624 156.5339375857338
115 131.8249592427431 0 156.5339375857344
116 0 117.5675444119916 156.5339375857786
117 177.8236490887029 30.73842948070668 176.848
118 177.60200797522 61.47705069017723 176.848
119 177.377782660624 92.21565376184869 176.848
120 177.1211615405066 122.9539979631738 176.848
121 176.7495655515388 153.6911060620957 176.848
122 158.398509295984 169.6353783932026 176.848
123 126.7170552822007 168.8251287256635 176.848
124 95.03745773565431 167.944472914955 176.848
125 63.35841933775153 167.0438915210994 176.848
126 31.67942502738053 166.1417700969131 176.848
127 155.8679704062418 150.9459286442334 171.052879813018
128 203.4649268739134 30.32657026456078 183.712
129 203.4802590288731 60.65314392727093 183.712
130 203.4997328334974 90.97971510432296 183.712
131 203.5027991870328 121.306290082277 183.712
132 203.4566007190341 151.6328262042337 183.712
133 203.2466630549064 181.9585305796687 183.712
134 186.4798725130018 194.3048124534807 183.712
135 155.3990342238515 193.9570783298805 183.712
136 124.3189876132373 193.5424488877591 183.712
137 93.23922101281262 193.10742199167 183.712
138 62.15955047412206 192.6656033192367 183.712
139 31.07985400704217 192.2255567882927 183.712
140 184.1522813814441 178.3367089915617 180.2549124646102
141 221.3189191397779 32.90672793528559 186.789
142 221.2186487539084 65.8135692601018 186.789
143 221.1230272078024 98.72042405711667 186.789
144 221.0089425448034 131.6272203825758 186.789
145 220.8394152872812 164.5337686724223 186.789
146 220.4853301816092 197.4386832759673 186.789
147 201.9140182453191 210.3961512632618 186.789
148 168.2617474323337 210.4614878235641 186.789
149 134.6093923661879 210.4645782061037 186.789
150 100.95704277098 210.4486773426997 186.789
151 67.30469705472173 210.4264520626488 186.789
152 33.65234936202405 210.4058768868848 186.789
153 189.8142857143706 0 186.789
154 158.1785714287555 0 186.789
155 126.5428571431308 0 186.789
156 94.90714285741657 0 186.789
157 63.27142857161186 0 186.789
158 31.63571428578655 0 186.789
159 0 30.05657142851269 186.789
160 0 60.11314285699788 186.789
161 0 90.16971428548167 186.789
162 0 120.2262857140507 186.789
163 0 150.282857142701 186.789
164 0 180.3394285713588 186.789
165 6.349999999983785 0 0
166 0 6.350000000015788 0
167 229.0710678378863 0 183.8600677858446
168 232 0 151.7889999999824
169 232 0 126.7889999999648
170 232 0 101.78900000005
171 232 0 76.78900000003514
172 232 0 51.78900000001757
173 229.0710677828832 0 19.71793215915228
174 197.3333333332772 0 16.789
175 172.6666666665544 0 16.789
176 147.9999999999685 0 16.789
177 123.333333333535 0 16.789
178 98.66666666689117 0 16.789
179 74.0000000001684 0 16.789
180 49.33333333344561 0 16.789
181 24.66666666672279 0 16.789
182 0 218.0710678378863 183.8600677858446
183 0 221 151.7889999999824
184 0 221 126.7889999999648
185 0 221 101.78900000005
186 0 221 76.78900000003514
187 0 221 51.78900000001757
188 0 218.0710677828832 19.71793215915228
189 0 187.5555555554538 16.789
190 0 164.1111111111839 16.789
191 0 140.6666666669535 16.789
192 0 117.2222222226521 16.789
193 0 93.77777777818487 16.789
194 0 70.33333333363865 16.789
195 0 46.88888888909244 16.789
196 0 23.44444444454624 16.789
197 24.66666666666061 211 186.789
198 49.33333333330702 211 186.789
199 73.99999999991427 211 186.789
200 98.6666666664768 211 186.789
201 123.3333333331183 211 186.789
202 147.9999999998387 211 186.789
203 172.6666666665591 211 186.789
204 197.3333333332795 211 186.789
205 229.0710678378863 211 183.8600677858446
206 232 211 151.7889999999824
207 232 211 126.7889999999648
208 232 211 101.78900000005
209 232 211 76.78900000003514
210 232 211 51.78900000001757
211 229.0710677828832 211 19.71793215915228
212 197.3333333332772 211 16.789
213 172.6666666665544 211 16.789
214 147.9999999999685 211 16.789
215 123.333333333535 211 16.789
216 98.66666666689117 211 16.789
217 74.0000000001684 211 16.789
218 49.33333333344561 211 16.789
219 24.66666666672279 211 16.789
220 24.66666666666061 221 176.789
221 49.33333333330702 221 176.789
222 73.99999999991427 221 176.789
223 98.6666666664768 221 176.789
224 123.3333333331183 221 176.789
225 147.9999999998387 221 176.789
226 172.6666666665591 221 176.789
227 197.3333333332795 221 176.789
228 222 221 151.7889999999824
229 222 221 126.7889999999648
230 222 221 101.78900000005
231 222 221 76.78900000003514
232 222 221 51.78900000001757
233 197.3333333332772 221 26.789
234 172.6666666665544 221 26.789
235 147.9999999999685 221 26.789
236 123.333333333535 221 26.789
237 98.66666666689117 221 26.789
238 74.0000000001684 221 26.789
239 49.33333333344561 221 26.789
240 24.66666666672279 221 26.789
241 222 218.0710678378863 183.8600677858446
242 229.0710677858446 218.0710678378863 176.789
243 229.0710677858446 218.0710678378863 26.789
244 222 218.0710678231472 19.71793219941627
245 222 23.44444444438818 186.789
246 222 46.88888888875515 186.789
247 222 70.3333333331172 186.789
248 222 93.77777777747923 186.789
249 222 117.2222222219202 186.789
250 222 140.6666666664402 186.789
251 222 164.1111111109601 186.789
252 222 187.5555555554801 186.789
253 232 23.44444444438818 176.789
254 232 46.88888888875515 176.789
255 232 70.3333333331172 176.789
256 232 93.77777777747923 176.789
257 232 117.2222222219202 176.789
258 232 140.6666666664402 176.789
259 232 164.1111111109601 176.789
260 232 187.5555555554801 176.789
261 232 23.44444444438818 26.789
262 232 46.88888888875515 26.789
263 232 70.3333333331172 26.789
264 232 93.77777777747923 26.789
265 232 117.2222222219202 26.789
266 232 140.6666666664402 26.789
267 232 164.1111111109601 26.789
268 232 187.5555555554801 26.789
269 222 23.44444444438818 16.789
270 222 46.88888888875515 16.789
271 222 70.3333333331172 16.789
272 222 93.77777777747923 16.789
273 222 117.2222222219202 16.789
274 222 140.6666666664402 16.789
275 222 164.1111111109601 16.789
276 222 187.5555555554801 16.789
277 10.20092518952121 7.026578250722418 2.354262015056003
278 7.295553966683416 9.952245079742383 2.353547999648624
279 12.10830017918603 5.036997007737123 9.02776384588708
280 5.226581915599589 11.80965582795846 9.01314811088363
281 16.66687801848241 4.589228246377663 22.26372111627311
282 14.41456559319818 6.235500835617971 17.44697502206019
283 15.46947265391794 9.802585285607737 22.20478944494119
284 4.514891522453283 14.03108382427471 17.0807435111461
285 6.047278846931746 15.22599830972278 21.60823900487711
286 9.043302078523949 13.28918322740981 17.12253572531909
287 11.36565501305697 15.22361804235716 23.10709218442302
288 23.58738246387528 8.565071741186093 38.55287324012805
289 20.09019117121279 8.829579511881095 31.67840663408744
290 23.45758921706488 16.25301937302701 40.72712440161617
291 8.887563409945432 20.94736622175073 37.02342443178088
292 16.87593052958578 22.4175707068754 40.01922807176683
293 13.77633682489456 18.37701627188671 30.8912322254814
294 32.45191169816999 9.714743980431573 54.96253443420807
295 32.68192674683822 20.91792211954662 58.00949333973784
296 11.83636070613424 30.89735506331502 59.07698733743791
297 23.50735950951476 33.33663755135417 62.14166167060899
298 20.14578175914922 28.83554961628176 53.36783538534716
299 50.39031796267668 37.88439611726334 88.30615241702193
300 51.94785675898328 25.35810869548304 88.25933374418265
301 44.58582439326851 27.90426236534245 78.12538075838305
302 48.07104915394928 13.9848546652516 80.56393591139215
303 32.63035817423196 46.46840238712649 84.75792014579332
304 16.84753833846604 44.2450841236264 83.45844149542928
305 43.52721849869832 50.14792471332728 89.4847675851655
306 74.05814194526589 56.65299082032938 118.1053494353898
307 70.24486236659854 30.22824781514938 110.835801522908
308 69.88011297954009 14.51927232258832 108.4776813219986
309 67.07344836582898 46.35259518207304 109.4030490004254
310 46.82158295771242 64.81699676218601 109.9757997332529
311 24.35802281341002 64.70635701966441 112.2256385443554
312 59.6793501618406 72.31759334185558 118.3086981537385
313 100.6714109679044 14.80420362864172 136.9873925098291
314 98.81001237687582 35.90805486819756 136.8919967702552
315 95.09217701624829 53.74224559901532 135.2514309746093
316 96.36095775790173 70.93539618839081 137.2108051538331
317 101.6274198208775 87.44854916403065 141.917272877712
318 75.53642310134038 90.22134992789745 134.7858069936673
319 87.4035487667806 99.40175658420888 141.9446372185884
320 60.94139348449141 93.76045715367906 138.545505838992
321 44.39622286636731 90.36674871001098 136.615130066558
322 24.086348040329 87.56710141624578 135.428029384063
323 13.69077395386786 95.65668283272424 142.5781987725185
324 136.362853509009 112.5511993156151 161.2850068690315
325 125.8260737061215 96.94147200107095 155.8272821424422
326 126.6793143954152 72.56507221021006 155.6545716615566
327 129.9920083416112 44.97204431463837 156.669895375926
328 131.4594012774728 18.44685589805747 156.7990128974008
329 42.27808515703759 120.5733908958988 157.0333464110074
330 61.72947569281092 120.30123697071 156.3575695273679
331 81.39538012561947 121.8959765575656 156.7026028478515
332 102.695315877672 121.7218690948999 156.0425392433512
333 116.9600089731498 131.5615125868866 161.1868209772219
334 21.22307772801226 120.0307406622679 157.2995217186708
335 161.0016615529262 131.7303186217031 171.2157907895311
336 161.2586842791584 106.150087494735 171.1225
337 161.7974760602215 76.5845153773557 171.1230034414886
338 162.3063219608066 47.33793860380808 171.1225
339 162.9032824156235 13.53887360098906 171.1225
340 140.3602377596547 154.9010083974935 171.2720192692299
341 49.01552106141726 151.4333824045858 171.1225
342 14.00970216802701 150.2183391998198 171.1225
343 190.106144010888 165.6236734207833 180.3007442178392
344 100.9270040118989 102.8232330694645 186.789
345 155.1595090447227 63.63105533841413 186.789
346 153.362554265243 148.7309936926324 186.789
347 56.58064169997516 58.66537808824904 186.789
348 54.68025538939344 155.0961042452694 186.789
349 109.2758603666213 47.7132385267716 186.789
350 45.40664549179695 102.4859195770025 186.789
351 109.5142690283222 161.5594855445423 186.789
352 194.21656705314 174.7900493824518 186.789
353 177.5499029122894 106.5033930032814 186.789
354 182.5029470663628 46.23427589768871 186.789
355 38.61689234214055 38.76065460893135 186.789
356 36.03405890471346 175.9335636554114 186.789
357 137.2338065962563 97.60792533604192 186.789
358 138.3667386602036 30.70103834185937 186.789
359 28.49383913828937 77.94557023404961 186.789
360 29.91428906447013 133.816577016702 186.789
361 80.79037742966381 31.15312875640441 186.789
362 82.42092275808251 178.3535244299129 186.789
363 140.3588135222631 177.7936344920397 186.789
364 125.5146715542198 131.6284008553379 186.789
365 186.4379078995742 141.5088554468575 186.789
366 74.37239094129468 91.47901721340673 186.789
367 189.8776066504442 77.61290812361828 186.789
368 90.28795468614308 141.3115215770569 186.789
369 119.3474954972741 74.86013468467399 186.789
370 88.93454991370018 67.29167399016647 186.789
371 65.9314232641662 121.1687287831503 186.789
372 171.4463124173916 175.2879645244591 186.789
373 110.1904252082262 21.72581900655755 186.789
374 116.17926573832 187.9195752780905 186.789
375 19.72425506285136 105.1979999997662 186.789
376 200.7795972332677 115.103491286539 186.789
377 155.2415879167943 119.7427910213504 186.789
378 205.1567156617557 193.0186633028091 186.789
379 188.199072161988 192.7908632593092 186.789
380 130.5374008922054 54.22636672292978 186.789
381 54.05088880643974 23.42681159431318 186.789
382 56.54039675406362 187.9147308599999 186.789
383 51.21337931783904 82.64397127817698 186.789
384 166.7390770956134 24.48641871937482 186.789
385 199.3723447180368 22.91284333209447 186.789
386 21.83479773072241 53.91330756993901 186.789
387 23.1243424214261 22.96446159213606 186.789
388 22.23414405444325 158.5241454765433 186.789
389 204.0462763116415 49.30766992102045 186.789
390 20.16514019721849 191.6354625934613 186.789
391 132.187577092512 154.928128646138 186.789
392 161.7727809784957 89.79367356743434 186.789
393 5.215081172727172 5.204131011676034 0
394 228.1887090636773 12.87209378624797 184.643927124115
395 228.2271867050514 198.1363496935333 184.613458175518
396 232 83.2034174857162 102.0797490158742
397 232 147.0126437505779 93.40803050880103
398 232 119.7873680877 129.6497875340173
399 232 43.31659948931978 133.1743151880674
400 232 46.28254958770287 72.30421346696997
401 232 163.0506104823982 134.2204299604416
402 232 112.0330692757483 68.54991024708167
403 232 176.0056685292668 62.60797127912009
404 232 83.27002353102591 140.1950212625295
405 232 76.82275391291682 60.88931701621798
406 232 139.6887545217653 58.53352916261637
407 232 177.8549161610575 102.629926550367
408 232 32.04378177115845 101.789
409 232 108.6788794104726 98.22528147906431
410 232 141.2760164470844 146.9421519608783
411 232 27.01979375801315 149.9432773597788
412 232 31.99229850454275 58.52727447398724
413 232 106.1125420535332 152.8107383020582
414 232 180.401274074138 146.6436712391839
415 232 60.71951620077539 154.375766182772
416 232 143.4992128222412 119.2691467537218
417 232 58.68203517437834 109.71788829179
418 232 56.3430776231606 49.55372454521363
419 232 97.07403544787888 120.772765648237
420 232 67.71256308035099 82.47202367067909
421 232 185.979424866703 125.039908389103
422 232 104.3398211078809 44.94034546835693
423 232 23.41609426244111 123.7665295751847
424 232 23.41609426244111 79.81147042481524
425 232 90.54647332358526 78.776230554115
426 232 190.4979867064991 86.13013067801209
427 232 161.1725181717913 156.8310428751973
428 232 159.7482237711365 48.08191356325351
429 232 130.8601341726168 82.12699350604697
430 232 189.3366025485975 48.61161321491704
431 232 77.07646950459974 121.7673678324317
432 232 167.4423082441656 86.1704992684827
433 232 122.790106758751 45.120356975611
434 232 82.0555555552982 160.4383688383871
435 232 124.667587661738 157.7457489078358
436 232 161.3837665971615 113.1494239133659
437 232 82.30528752803096 42.83158942751779
438 232 131.2902338213691 102.4918518334307
439 232 47.54054934297454 91.49060738590998
440 232 63.68493970907973 134.5315668416105
441 232 153.4596221649215 71.82148954805344
442 232 41.9229109754619 159.6887937112371
443 232 196.1827591789976 65.49075566165524
444 232 94.82815677630673 60.4411018957728
445 232 194.6019047285477 109.0852704094132
446 232 13.41217036529403 138.4801802543148
447 232 13.54813085977686 64.21799143747546
448 232 197.7840586755732 139.8937820810235
449 232 14.26398823751214 161.9053883145226
450 232 18.1151256861483 45.06010004184291
451 232 193.9290369397352 159.436612173977
452 232 39.70588030818205 42.24833433957724
453 232 61.79023605103282 66.30481967477017
454 232 175.0279259689497 41.33883361502062
455 232 101.5609922800345 135.8570781867105
456 232 175.8333333332201 164.7152197236723
457 230.0169982857569 12.75693996325905 20.81173151965139
458 230.0164614771123 198.2435196631293 20.81101159369015
459 116.9597097100175 105.4999999996997 16.789
460 64.11575076401945 145.076220035524 16.789
461 64.56198452631818 66.43383096848284 16.789
462 153.0000159725898 146.7158569983918 16.789
463 161.1671684569464 68.12372501699066 16.789
464 112.3124296981928 48.52190092829092 16.789
465 110.7010729261569 163.7395705685392 16.789
466 177.4926798049775 107.7114782641273 16.789
467 43.07519361462641 103.5473651689109 16.789
468 36.86138749105051 174.568735158703 16.789
469 36.86138749098885 36.43126484142427 16.789
470 184.9543630793845 175.4725578195771 16.789
471 184.9543630794427 35.52744218029824 16.789
472 80.38320816537733 112.6936283407457 16.789
473 79.4660845104753 176.3029599172922 16.789
474 78.68517158743073 34.86513283263537 16.789
475 32.48550267612634 139.4357637945998 16.789
476 31.9462395221188 74.04279858192147 16.789
477 97.15949682198121 78.1240158785653 16.789
478 144.2202894230394 29.01956190072173 16.789
479 145.289721900928 182.7171409477518 16.789
480 189.0529030830883 136.8179938440965 16.789
481 189.7237787085159 75.67639143545941 16.789
482 145.9146288022487 123.5785399346477 16.789
483 135.0269023658111 77.1379518423437 16.789
484 101.5059641598654 134.915213425059 16.789
485 133.4792224202181 143.07666723826 16.789
486 153.2893437593713 87.62780870369095 16.789
487 66.74762655519496 94.33798590737347 16.789
488 110.2047946667218 17.4781792799018 16.789
489 111.2353876719376 187.4286833896113 16.789
490 199.1745122549147 102.4650433737578 16.789
491 89.08514161735104 153.5299995405794 16.789
492 60.63821766147616 189.8681356392898 16.789
493 60.52665867241943 21.15587761071104 16.789
494 165.2592780318227 21.40523764909204 16.789
495 165.4594044677925 190.6697668429405 16.789
496 19.54325431271967 105.1076035105246 16.789
497 201.6209553435514 153.7479809466135 16.789
498 201.7167947186563 57.46550266448772 16.789
499 59.8409270171986 121.4665551573437 16.789
500 87.61627725081618 56.85512716612033 16.789
501 20.29997713331994 153.6200884564207 16.789
502 20.22293953984573 57.73399188339616 16.789
503 170.2352158166851 127.9422402034198 16.789
504 22.02540527085927 189.0804319477739 16.789
505 22.02540527078096 21.91956805214372 16.789
506 135.5714143413889 52.5701658861884 16.789
507 62.07346527802478 165.6416320619918 16.789
508 59.0272685105414 44.90954392955533 16.789
509 135.8979746648183 101.364335281955 16.789
510 82.12150071569246 132.3375410236727 16.789
511 121.6001151829507 124.7557433298958 16.789
512 201.6086086085411 190.7996313848682 16.789
513 201.6086086086728 20.20036861497499 16.789
514 92.89278739441946 96.02308963212462 16.789
515 179.3132583882783 55.74173910630559 16.789
516 177.2654587955625 153.1505857462374 16.789
517 16.89456565714107 129.1171397064115 16.789
518 15.51453455179704 82.05555555591177 16.789
519 43.30076887529727 61.05397177292168 16.789
520 44.36873453109865 152.6530028438141 16.789
521 112.9823982733447 68.04803052866997 16.789
522 86.74873188234776 193.7194195640035 16.789
523 86.51324234815671 16.32776387376104 16.789
524 204.7584162676651 128.373463401195 16.789
525 207.3601558038047 82.0555555552982 16.789
526 46.66326601515524 81.75947493127342 16.789
527 183.9293180119703 15.66342505643522 16.789
528 183.9579075027802 195.4901470138185 16.789
529 173.7205995448314 89.00458036779003 16.789
530 130.2618296951658 192.350239364842 16.789
531 130.0089885235644 16.34441958652667 16.789
532 159.4955603646479 168.6053067401675 16.789
533 161.7476286201531 43.73131195659944 16.789
534 38.70500208471087 195.1034605491534 16.789
535 38.68269028687153 15.9013421008558 16.789
536 113.3757089652159 86.9434371693295 16.789
537 132.4081741328887 166.2409990456414 16.789
538 206.3748482690378 37.35565144304105 16.789
539 206.3678628917977 173.6599085867346 16.789
540 37.03596118697717 122.708334148906 16.789
541 158.0774086787503 105.8696582437261 16.789
542 80.07487312661394 78.10037493059534 16.789
543 97.12799231071941 174.8410650108656 16.789
544 98.8787304243649 36.26629080705375 16.789
545 15.27679337113992 37.66892116123759 16.789
546 15.28240835596901 173.3568864438857 16.789
547 30.34778299737589 91.14089718803022 16.789
548 123.4044489014286 34.54738747823821 16.789
549 188.2328044718658 119.8873223984216 16.789
550 115.4359760479716 146.1746917460036 16.789
551 48.37136055193173 136.6415758702113 16.789
552 97.34134819063121 116.7272216359988 16.789
553 208.460650143744 216.7409855319165 184.9768620605335
554 13.53935002224626 216.7409860122731 184.9768617237277
555 230.2080221354246 216.712125053286 40.52029531606346
556 230.2080220336441 216.7121251995392 163.0577047456837
557 13.53934991015876 219.1878619964324 21.04801437666162
558 208.4606502189868 216.7409855772702 18.60113797126655
559 135.6666666667518 221 101.7889999999893
560 67.83333333337906 221 108.8667777777303
561 175.6984691869629 221 69.35596448345331
562 174.3767996798289 221 130.1752508088673
563 94.65847053624037 221 74.6978447038078
564 44.20655519698867 221 71.06835668324355
565 104.6491924281248 221 133.1137127089615
566 36.63554786546184 221 139.3628967058353
567 135.6666666667518 221 63.27492592593961
568 140.9074501063897 221 141.0366255088828
569 29.80295123033821 221 103.6859524481807
570 74.02707451763746 221 143.305495907567
571 189.6545636170102 221 103.0720672574775
572 71.98720605483715 221 57.59765278168897
573 108.1170210140783 221 104.4224053407378
574 193.8490751040111 221 144.8402967276009
575 194.2038170038274 221 54.39090567990218
576 162.7588095309339 221 104.583884123808
577 160.0868873214903 221 51.2022097125918
578 113.6784383100797 221 51.68281008887328
579 74.34801140023835 221 83.59176528606133
580 160.9424394000253 221 153.554352351579
581 24.64121105398893 221 51.00395184237061
582 151.1761637499281 221 82.53196296296446
583 117.636813691402 221 152.152395621215
584 120.9413450538018 221 82.53196296296446
585 199.9964876029016 221 124.4301712796535
586 198.3383598529481 221 80.23594850876287
587 23.44642746083084 221 83.87852519648627
588 93.6795064878692 221 155.6838342794795
589 125.6633246641506 221 122.9027535561862
590 22.91214164229184 221 153.8512424684924
591 50.8568453969009 221 49.40187029690841
592 46.90122679689453 221 95.15417820632777
593 86.57163960677369 221 118.1869496815962
594 53.34867151565955 221 154.7855754593415
595 20.29791552855631 221 121.6638945220238
596 148.1580658392554 221 120.9996172114299
597 90.89752785935582 221 47.0173080664789
598 58.66535344952088 221 128.7445317064439
599 135.6666666667518 221 42.9474453407914
600 138.1640073061548 221 160.0642746963354
601 86.30569517814195 221 97.95314855798671
602 177.923666674632 221 44.94555269248497
603 179.8783425494353 221 160.1499607482658
604 156.0961887563748 221 136.4414614701898
605 204.8869723416188 221 159.2391714842908
606 207.9908773909172 221 43.39752445872351
607 15.28620412402878 221 138.6430979942849
608 43.3560547006918 221 116.2463718944236
609 14.74554770022665 221 66.66201028470707
610 209.206185271872 221 139.2889999999736
611 209.2061852718727 221 64.28900000002635
612 37.61173893478986 221 161.7900847569368
613 175.5645600626947 221 89.91991812350673
614 12.32696943017793 221 39.09273796059705
$EndNodes
$Elements
1144
1 2 2 1 1 1 4 59
2 2 2 1 1 5 277 59
3 2 2 1 1 59 57 1
4 2 2 1 1 57 277 2
5 2 2 1 1 277 5 2
6 2 2 1 1 277 57 59
7 2 2 1 2 2 278 58
8 2 2 1 2 6 3 58
9 2 2 1 2 60 278 5
10 2 2 1 2 6 58 60
11 2 2 1 2 278 2 5
12 2 2 1 2 278 60 58
13 2 2 1 3 279 59 4
14 2 2 1 3 7 279 4
15 2 2 1 3 279 7 61
16 2 2 1 3 279 61 8
17 2 2 1 3 5 279 8
18 2 2 1 3 59 279 5
19 2 2 1 4 8 62 280
20 2 2 1 4 8 280 5
21 2 2 1 4 60 280 6
22 2 2 1 4 280 9 6
23 2 2 1 4 9 280 62
24 2 2 1 4 280 60 5
25 2 2 1 5 281 283 282
26 2 2 1 5 282 283 65
27 2 2 1 5 66 10 281
28 2 2 1 5 281 10 63
29 2 2 1 5 65 8 282
30 2 2 1 5 282 8 61
31 2 2 1 5 282 66 281
32 2 2 1 5 66 282 7
33 2 2 1 5 11 283 63
34 2 2 1 5 282 61 7
35 2 2 1 5 283 281 63
36 2 2 1 5 283 11 65
37 2 2 1 6 284 286 285
38 2 2 1 6 285 286 65
39 2 2 1 6 287 285 65
40 2 2 1 6 287 11 64
41 2 2 1 6 285 287 64
42 2 2 1 6 284 285 67
43 2 2 1 6 8 286 62
44 2 2 1 6 62 286 284
45 2 2 1 6 67 285 12
46 2 2 1 6 285 64 12
47 2 2 1 6 67 9 284
48 2 2 1 6 11 287 65
49 2 2 1 6 284 9 62
50 2 2 1 6 65 286 8
51 2 2 1 7 70 289 288
52 2 2 1 7 288 290 70
53 2 2 1 7 71 13 288
54 2 2 1 7 288 13 68
55 2 2 1 7 70 11 289
56 2 2 1 7 289 11 63
57 2 2 1 7 289 71 288
58 2 2 1 7 71 289 10
59 2 2 1 7 14 290 68
60 2 2 1 7 289 63 10
61 2 2 1 7 290 288 68
62 2 2 1 7 290 14 70
63 2 2 1 8 72 291 15
64 2 2 1 8 291 69 15
65 2 2 1 8 72 12 64
66 2 2 1 8 291 292 69
67 2 2 1 8 291 70 292
68 2 2 1 8 291 293 70
69 2 2 1 8 11 70 293
70 2 2 1 8 292 14 69
71 2 2 1 8 11 293 64
72 2 2 1 8 291 72 64
73 2 2 1 8 64 293 291
74 2 2 1 8 14 292 70
75 2 2 1 9 73 295 294
76 2 2 1 9 78 16 73
77 2 2 1 9 73 294 78
78 2 2 1 9 77 14 295
79 2 2 1 9 295 14 68
80 2 2 1 9 295 68 294
81 2 2 1 9 295 17 77
82 2 2 1 9 17 295 74
83 2 2 1 9 74 295 73
84 2 2 1 9 13 294 68
85 2 2 1 9 13 78 294
86 2 2 1 10 79 296 18
87 2 2 1 10 296 76 18
88 2 2 1 10 297 76 296
89 2 2 1 10 79 15 69
90 2 2 1 10 297 296 298
91 2 2 1 10 297 77 17
92 2 2 1 10 297 298 77
93 2 2 1 10 297 17 75
94 2 2 1 10 14 77 298
95 2 2 1 10 296 79 69
96 2 2 1 10 14 298 69
97 2 2 1 10 69 298 296
98 2 2 1 10 76 297 75
99 2 2 1 11 299 20 84
100 2 2 1 11 85 19 80
101 2 2 1 11 20 299 81
102 2 2 1 11 299 300 81
103 2 2 1 11 84 17 301
104 2 2 1 11 301 17 74
105 2 2 1 11 80 300 302
106 2 2 1 11 301 299 84
107 2 2 1 11 300 299 301
108 2 2 1 11 80 302 85
109 2 2 1 11 16 85 302
110 2 2 1 11 301 74 73
111 2 2 1 11 16 302 73
112 2 2 1 11 81 300 80
113 2 2 1 11 302 301 73
114 2 2 1 11 301 302 300
115 2 2 1 12 17 84 303
116 2 2 1 12 17 303 75
117 2 2 1 12 21 86 304
118 2 2 1 12 86 18 76
119 2 2 1 12 83 21 304
120 2 2 1 12 303 304 75
121 2 2 1 12 83 304 303
122 2 2 1 12 83 303 82
123 2 2 1 12 303 305 82
124 2 2 1 12 304 86 76
125 2 2 1 12 305 20 82
126 2 2 1 12 75 304 76
127 2 2 1 12 305 303 84
128 2 2 1 12 20 305 84
129 2 2 1 13 306 88 89
130 2 2 1 13 306 23 93
131 2 2 1 13 94 22 87
132 2 2 1 13 23 306 89
133 2 2 1 13 80 308 307
134 2 2 1 13 87 307 308
135 2 2 1 13 307 309 81
136 2 2 1 13 307 81 80
137 2 2 1 13 93 20 309
138 2 2 1 13 309 306 93
139 2 2 1 13 309 20 81
140 2 2 1 13 309 88 306
141 2 2 1 13 88 309 307
142 2 2 1 13 88 307 87
143 2 2 1 13 87 308 94
144 2 2 1 13 308 80 19
145 2 2 1 13 94 308 19
146 2 2 1 14 20 93 310
147 2 2 1 14 20 310 82
148 2 2 1 14 24 95 311
149 2 2 1 14 92 24 311
150 2 2 1 14 311 95 83
151 2 2 1 14 95 21 83
152 2 2 1 14 310 311 82
153 2 2 1 14 82 311 83
154 2 2 1 14 312 91 310
155 2 2 1 14 312 90 91
156 2 2 1 14 92 311 91
157 2 2 1 14 312 23 90
158 2 2 1 14 91 311 310
159 2 2 1 14 310 93 312
160 2 2 1 14 23 312 93
161 2 2 1 15 104 313 22
162 2 2 1 15 313 87 22
163 2 2 1 15 314 87 313
164 2 2 1 15 315 88 314
165 2 2 1 15 88 87 314
166 2 2 1 15 316 89 315
167 2 2 1 15 315 89 88
168 2 2 1 15 97 98 316
169 2 2 1 15 316 315 97
170 2 2 1 15 313 104 25
171 2 2 1 15 96 313 25
172 2 2 1 15 316 98 317
173 2 2 1 15 26 317 98
174 2 2 1 15 103 23 316
175 2 2 1 15 97 315 314
176 2 2 1 15 317 26 103
177 2 2 1 15 314 96 97
178 2 2 1 15 316 23 89
179 2 2 1 15 103 316 317
180 2 2 1 15 314 313 96
181 2 2 1 16 318 319 100
182 2 2 1 16 320 100 101
183 2 2 1 16 23 103 318
184 2 2 1 16 105 24 92
185 2 2 1 16 23 318 90
186 2 2 1 16 90 320 321
187 2 2 1 16 321 91 90
188 2 2 1 16 322 91 321
189 2 2 1 16 322 321 102
190 2 2 1 16 102 321 101
191 2 2 1 16 102 323 322
192 2 2 1 16 322 323 105
193 2 2 1 16 90 318 320
194 2 2 1 16 318 100 320
195 2 2 1 16 318 103 319
196 2 2 1 16 26 319 103
197 2 2 1 16 319 26 99
198 2 2 1 16 101 321 320
199 2 2 1 16 319 99 100
200 2 2 1 16 105 323 27
201 2 2 1 16 323 102 27
202 2 2 1 16 322 105 92
203 2 2 1 16 91 322 92
204 2 2 1 17 324 325 108
205 2 2 1 17 324 108 109
206 2 2 1 17 326 97 327
207 2 2 1 17 326 327 107
208 2 2 1 17 28 328 115
209 2 2 1 17 28 106 328
210 2 2 1 17 107 327 106
211 2 2 1 17 327 328 106
212 2 2 1 17 96 328 327
213 2 2 1 17 115 328 25
214 2 2 1 17 96 25 328
215 2 2 1 17 98 97 326
216 2 2 1 17 98 326 325
217 2 2 1 17 29 324 109
218 2 2 1 17 98 325 26
219 2 2 1 17 325 326 108
220 2 2 1 17 324 29 114
221 2 2 1 17 114 26 325
222 2 2 1 17 327 97 96
223 2 2 1 17 108 326 107
224 2 2 1 17 114 325 324
225 2 2 1 18 329 101 330
226 2 2 1 18 330 101 100
227 2 2 1 18 99 332 331
228 2 2 1 18 99 331 100
229 2 2 1 18 331 332 111
230 2 2 1 18 111 332 333
231 2 2 1 18 111 333 110
232 2 2 1 18 114 332 26
233 2 2 1 18 334 102 329
234 2 2 1 18 334 329 113
235 2 2 1 18 330 100 331
236 2 2 1 18 27 102 116
237 2 2 1 18 116 334 30
238 2 2 1 18 334 113 30
239 2 2 1 18 333 29 110
240 2 2 1 18 113 329 112
241 2 2 1 18 329 330 112
242 2 2 1 18 29 333 114
243 2 2 1 18 334 116 102
244 2 2 1 18 102 101 329
245 2 2 1 18 112 330 331
246 2 2 1 18 331 111 112
247 2 2 1 18 332 114 333
248 2 2 1 18 26 332 99
249 2 2 1 19 127 29 335
250 2 2 1 19 32 127 121
251 2 2 1 19 335 29 109
252 2 2 1 19 120 335 336
253 2 2 1 19 336 335 109
254 2 2 1 19 119 336 337
255 2 2 1 19 337 336 108
256 2 2 1 19 118 337 338
257 2 2 1 19 338 337 107
258 2 2 1 19 28 339 106
259 2 2 1 19 117 339 31
260 2 2 1 19 339 117 106
261 2 2 1 19 339 28 31
262 2 2 1 19 117 338 106
263 2 2 1 19 338 117 118
264 2 2 1 19 338 107 106
265 2 2 1 19 337 118 119
266 2 2 1 19 335 121 127
267 2 2 1 19 121 335 120
268 2 2 1 19 337 108 107
269 2 2 1 19 108 336 109
270 2 2 1 19 120 336 119
271 2 2 1 20 29 127 340
272 2 2 1 20 32 122 127
273 2 2 1 20 29 340 110
274 2 2 1 20 341 112 125
275 2 2 1 20 341 126 113
276 2 2 1 20 126 341 125
277 2 2 1 20 112 341 113
278 2 2 1 20 30 342 33
279 2 2 1 20 126 342 113
280 2 2 1 20 342 126 33
281 2 2 1 20 342 30 113
282 2 2 1 20 340 122 123
283 2 2 1 20 111 125 112
284 2 2 1 20 111 124 125
285 2 2 1 20 110 124 111
286 2 2 1 20 110 123 124
287 2 2 1 20 122 340 127
288 2 2 1 20 110 340 123
289 2 2 1 21 140 32 343
290 2 2 1 21 120 132 121
291 2 2 1 21 131 132 120
292 2 2 1 21 129 118 117
293 2 2 1 21 130 131 119
294 2 2 1 21 343 32 121
295 2 2 1 21 119 118 130
296 2 2 1 21 119 131 120
297 2 2 1 21 129 117 128
298 2 2 1 21 128 117 31
299 2 2 1 21 130 118 129
300 2 2 1 21 343 132 133
301 2 2 1 21 140 133 35
302 2 2 1 21 128 31 34
303 2 2 1 21 132 343 121
304 2 2 1 21 140 343 133
305 2 2 1 22 137 124 136
306 2 2 1 22 35 134 140
307 2 2 1 22 139 36 33
308 2 2 1 22 32 134 122
309 2 2 1 22 32 140 134
310 2 2 1 22 138 139 126
311 2 2 1 22 138 126 125
312 2 2 1 22 138 125 137
313 2 2 1 22 136 124 123
314 2 2 1 22 126 139 33
315 2 2 1 22 134 135 122
316 2 2 1 22 122 135 123
317 2 2 1 22 123 135 136
318 2 2 1 22 137 125 124
319 2 2 1 23 128 34 37
320 2 2 1 23 38 35 146
321 2 2 1 23 146 35 133
322 2 2 1 23 145 146 133
323 2 2 1 23 144 145 132
324 2 2 1 23 132 145 133
325 2 2 1 23 143 130 142
326 2 2 1 23 131 144 132
327 2 2 1 23 131 130 143
328 2 2 1 23 142 130 129
329 2 2 1 23 131 143 144
330 2 2 1 23 128 37 141
331 2 2 1 23 142 129 141
332 2 2 1 23 141 129 128
333 2 2 1 24 151 138 137
334 2 2 1 24 36 139 152
335 2 2 1 24 134 35 38
336 2 2 1 24 151 152 138
337 2 2 1 24 150 137 136
338 2 2 1 24 152 39 36
339 2 2 1 24 136 149 150
340 2 2 1 24 148 149 135
341 2 2 1 24 151 137 150
342 2 2 1 24 135 149 136
343 2 2 1 24 138 152 139
344 2 2 1 24 134 147 148
345 2 2 1 24 38 147 134
346 2 2 1 24 134 148 135
347 2 2 4 25 365 353 377
348 2 2 4 25 146 145 378
349 2 2 4 25 348 362 368
350 2 2 4 25 362 351 368
351 2 2 4 25 360 348 371
352 2 2 4 25 346 365 377
353 2 2 4 25 143 367 376
354 2 2 4 25 350 360 371
355 2 2 4 25 345 354 384
356 2 2 4 25 353 365 376
357 2 2 4 25 358 345 384
358 2 2 4 25 363 148 372
359 2 2 4 25 148 147 379
360 2 2 4 25 149 148 363
361 2 2 4 25 367 353 376
362 2 2 4 25 347 355 386
363 2 2 4 25 359 347 386
364 2 2 4 25 357 345 369
365 2 2 4 25 354 345 367
366 2 2 4 25 143 142 367
367 2 2 4 25 348 360 388
368 2 2 4 25 356 348 388
369 2 2 4 25 366 344 370
370 2 2 4 25 344 369 370
371 2 2 4 25 355 347 381
372 2 2 4 25 357 344 364
373 2 2 4 25 369 345 380
374 2 2 4 25 154 155 358
375 2 2 4 25 347 361 381
376 2 2 4 25 361 347 370
377 2 2 4 25 348 356 382
378 2 2 4 25 156 157 361
379 2 2 4 25 349 361 370
380 2 2 4 25 160 161 359
381 2 2 4 25 151 150 362
382 2 2 4 25 162 163 360
383 2 2 4 25 362 150 374
384 2 2 4 25 372 148 379
385 2 2 4 25 362 348 382
386 2 2 4 25 344 366 371
387 2 2 4 25 368 344 371
388 2 2 4 25 364 344 368
389 2 2 4 25 351 364 368
390 2 2 4 25 145 144 365
391 2 2 4 25 349 358 373
392 2 2 4 25 351 362 374
393 2 2 4 25 344 357 369
394 2 2 4 25 381 158 387
395 2 2 4 25 355 381 387
396 2 2 4 25 358 155 373
397 2 2 4 25 156 361 373
398 2 2 4 25 153 384 385
399 2 2 4 25 388 164 390
400 2 2 4 25 159 386 387
401 2 2 4 25 352 145 365
402 2 2 4 25 345 357 392
403 2 2 4 25 361 349 373
404 2 2 4 25 359 161 375
405 2 2 4 25 162 360 375
406 2 2 4 25 358 349 380
407 2 2 4 25 350 359 375
408 2 2 4 25 360 350 375
409 2 2 4 25 152 356 390
410 2 2 4 25 356 388 390
411 2 2 4 25 357 364 377
412 2 2 4 25 154 358 384
413 2 2 4 25 386 355 387
414 2 2 4 25 356 152 382
415 2 2 4 25 384 354 385
416 2 2 4 25 153 154 384
417 2 2 4 25 365 346 372
418 2 2 4 25 354 367 389
419 2 2 4 25 157 158 381
420 2 2 4 25 352 365 372
421 2 2 4 25 365 144 376
422 2 2 4 25 345 358 380
423 2 2 4 25 159 160 386
424 2 2 4 25 145 352 378
425 2 2 4 25 163 164 388
426 2 2 4 25 348 368 371
427 2 2 4 25 361 157 381
428 2 2 4 25 347 359 383
429 2 2 4 25 160 359 386
430 2 2 4 25 360 163 388
431 2 2 4 25 347 366 370
432 2 2 4 25 364 346 377
433 2 2 4 25 366 350 371
434 2 2 4 25 369 349 370
435 2 2 4 25 346 363 372
436 2 2 4 25 359 350 383
437 2 2 4 25 149 363 374
438 2 2 4 25 152 151 382
439 2 2 4 25 367 345 392
440 2 2 4 25 147 38 378
441 2 2 4 25 39 152 390
442 2 2 4 25 363 351 374
443 2 2 4 25 353 367 392
444 2 2 4 25 141 37 385
445 2 2 4 25 158 40 387
446 2 2 4 25 37 153 385
447 2 2 4 25 351 363 391
448 2 2 4 25 367 142 389
449 2 2 4 25 150 149 374
450 2 2 4 25 363 346 391
451 2 2 4 25 155 156 373
452 2 2 4 25 40 159 387
453 2 2 4 25 350 366 383
454 2 2 4 25 366 347 383
455 2 2 4 25 151 362 382
456 2 2 4 25 346 364 391
457 2 2 4 25 364 351 391
458 2 2 4 25 161 162 375
459 2 2 4 25 164 39 390
460 2 2 4 25 144 143 376
461 2 2 4 25 352 372 379
462 2 2 4 25 38 146 378
463 2 2 4 25 349 369 380
464 2 2 4 25 142 141 389
465 2 2 4 25 357 377 392
466 2 2 4 25 377 353 392
467 2 2 4 25 147 378 379
468 2 2 4 25 385 354 389
469 2 2 4 25 141 385 389
470 2 2 4 25 378 352 379
471 2 2 2 26 57 165 1
472 2 2 2 26 166 58 3
473 2 2 2 26 165 57 393
474 2 2 2 26 57 2 393
475 2 2 2 26 41 165 393
476 2 2 2 26 58 166 393
477 2 2 2 26 166 41 393
478 2 2 2 26 2 58 393
479 2 2 3 27 38 146 51
480 2 2 3 27 141 37 245
481 2 2 3 27 147 38 51
482 2 2 3 27 39 152 197
483 2 2 3 27 51 146 252
484 2 2 3 27 204 147 51
485 2 2 3 27 246 142 141
486 2 2 3 27 246 141 245
487 2 2 3 27 143 142 247
488 2 2 3 27 142 246 247
489 2 2 3 27 249 144 143
490 2 2 3 27 143 247 248
491 2 2 3 27 143 248 249
492 2 2 3 27 250 145 144
493 2 2 3 27 250 144 249
494 2 2 3 27 252 146 145
495 2 2 3 27 145 250 251
496 2 2 3 27 145 251 252
497 2 2 3 27 203 148 147
498 2 2 3 27 204 203 147
499 2 2 3 27 202 149 148
500 2 2 3 27 148 203 202
501 2 2 3 27 201 150 149
502 2 2 3 27 149 202 201
503 2 2 3 27 199 151 150
504 2 2 3 27 200 199 150
505 2 2 3 27 201 200 150
506 2 2 3 27 198 152 151
507 2 2 3 27 151 199 198
508 2 2 3 27 152 198 197
509 2 2 3 27 37 43 245
510 2 2 3 27 47 39 197
511 2 2 3 28 253 394 44
512 2 2 3 28 394 167 44
513 2 2 3 28 395 260 52
514 2 2 3 28 205 395 52
515 2 2 3 28 257 258 249
516 2 2 3 28 250 249 258
517 2 2 3 28 258 259 250
518 2 2 3 28 253 254 246
519 2 2 3 28 252 395 51
520 2 2 3 28 395 252 260
521 2 2 3 28 395 205 51
522 2 2 3 28 394 245 43
523 2 2 3 28 245 394 253
524 2 2 3 28 167 394 43
525 2 2 3 28 259 260 252
526 2 2 3 28 259 252 251
527 2 2 3 28 257 249 256
528 2 2 3 28 256 249 248
529 2 2 3 28 254 255 247
530 2 2 3 28 254 247 246
531 2 2 3 28 256 248 255
532 2 2 3 28 255 248 247
533 2 2 3 28 246 245 253
534 2 2 3 28 251 250 259
535 2 2 3 29 406 266 428
536 2 2 3 29 408 170 424
537 2 2 3 29 170 408 423
538 2 2 3 29 406 402 433
539 2 2 3 29 410 398 416
540 2 2 3 29 402 406 429
541 2 2 3 29 266 406 433
542 2 2 3 29 401 410 416
543 2 2 3 29 429 406 441
544 2 2 3 29 409 396 425
545 2 2 3 29 397 429 441
546 2 2 3 29 402 409 425
547 2 2 3 29 399 408 417
548 2 2 3 29 396 409 419
549 2 2 3 29 258 410 427
550 2 2 3 29 409 398 419
551 2 2 3 29 398 409 438
552 2 2 3 29 408 399 423
553 2 2 3 29 259 258 427
554 2 2 3 29 170 171 424
555 2 2 3 29 169 170 423
556 2 2 3 29 409 402 429
557 2 2 3 29 268 53 430
558 2 2 3 29 398 410 435
559 2 2 3 29 400 412 418
560 2 2 3 29 53 210 430
561 2 2 3 29 418 263 437
562 2 2 3 29 413 398 435
563 2 2 3 29 416 398 438
564 2 2 3 29 257 256 413
565 2 2 3 29 396 417 420
566 2 2 3 29 418 412 452
567 2 2 3 29 262 263 418
568 2 2 3 29 411 399 442
569 2 2 3 29 397 432 436
570 2 2 3 29 399 415 442
571 2 2 3 29 255 254 415
572 2 2 3 29 266 267 428
573 2 2 3 29 399 417 440
574 2 2 3 29 417 431 440
575 2 2 3 29 399 411 423
576 2 2 3 29 412 400 424
577 2 2 3 29 209 208 426
578 2 2 3 29 402 422 433
579 2 2 3 29 426 208 445
580 2 2 3 29 405 418 437
581 2 2 3 29 414 401 421
582 2 2 3 29 410 258 435
583 2 2 3 29 410 401 427
584 2 2 3 29 413 256 434
585 2 2 3 29 432 407 436
586 2 2 3 29 415 404 434
587 2 2 3 29 404 413 434
588 2 2 3 29 421 401 436
589 2 2 3 29 253 411 442
590 2 2 3 29 407 421 436
591 2 2 3 29 401 414 427
592 2 2 3 29 255 415 434
593 2 2 3 29 420 417 439
594 2 2 3 29 416 397 436
595 2 2 3 29 420 405 425
596 2 2 3 29 404 415 440
597 2 2 3 29 411 253 449
598 2 2 3 29 398 413 455
599 2 2 3 29 264 265 422
600 2 2 3 29 424 400 439
601 2 2 3 29 396 419 431
602 2 2 3 29 396 420 425
603 2 2 3 29 408 424 439
604 2 2 3 29 419 404 431
605 2 2 3 29 417 396 431
606 2 2 3 29 407 426 445
607 2 2 3 29 257 413 435
608 2 2 3 29 413 404 455
609 2 2 3 29 265 266 433
610 2 2 3 29 254 253 442
611 2 2 3 29 258 257 435
612 2 2 3 29 415 254 442
613 2 2 3 29 415 399 440
614 2 2 3 29 450 261 452
615 2 2 3 29 264 422 437
616 2 2 3 29 401 416 436
617 2 2 3 29 423 411 446
618 2 2 3 29 412 424 447
619 2 2 3 29 397 416 438
620 2 2 3 29 437 422 444
621 2 2 3 29 417 408 439
622 2 2 3 29 425 405 444
623 2 2 3 29 400 420 439
624 2 2 3 29 412 450 452
625 2 2 3 29 208 207 445
626 2 2 3 29 422 265 433
627 2 2 3 29 256 255 434
628 2 2 3 29 207 421 445
629 2 2 3 29 403 426 432
630 2 2 3 29 432 397 441
631 2 2 3 29 261 262 452
632 2 2 3 29 426 407 432
633 2 2 3 29 404 419 455
634 2 2 3 29 403 428 454
635 2 2 3 29 44 168 449
636 2 2 3 29 172 45 450
637 2 2 3 29 206 52 451
638 2 2 3 29 262 418 452
639 2 2 3 29 430 403 454
640 2 2 3 29 418 405 453
641 2 2 3 29 400 418 453
642 2 2 3 29 263 264 437
643 2 2 3 29 419 398 455
644 2 2 3 29 414 421 448
645 2 2 3 29 253 44 449
646 2 2 3 29 45 261 450
647 2 2 3 29 52 260 451
648 2 2 3 29 210 209 443
649 2 2 3 29 426 403 443
650 2 2 3 29 405 420 453
651 2 2 3 29 420 400 453
652 2 2 3 29 402 425 444
653 2 2 3 29 168 169 446
654 2 2 3 29 171 172 447
655 2 2 3 29 207 206 448
656 2 2 3 29 267 268 454
657 2 2 3 29 403 430 443
658 2 2 3 29 406 428 441
659 2 2 3 29 260 259 456
660 2 2 3 29 421 407 445
661 2 2 3 29 428 403 441
662 2 2 3 29 405 437 444
663 2 2 3 29 421 207 448
664 2 2 3 29 422 402 444
665 2 2 3 29 409 429 438
666 2 2 3 29 429 397 438
667 2 2 3 29 446 411 449
668 2 2 3 29 412 447 450
669 2 2 3 29 431 404 440
670 2 2 3 29 168 446 449
671 2 2 3 29 447 172 450
672 2 2 3 29 169 423 446
673 2 2 3 29 424 171 447
674 2 2 3 29 414 448 451
675 2 2 3 29 427 414 456
676 2 2 3 29 209 426 443
677 2 2 3 29 430 210 443
678 2 2 3 29 448 206 451
679 2 2 3 29 259 427 456
680 2 2 3 29 268 430 454
681 2 2 3 29 428 267 454
682 2 2 3 29 403 432 441
683 2 2 3 29 451 260 456
684 2 2 3 29 414 451 456
685 2 2 3 30 262 270 271
686 2 2 3 30 262 271 263
687 2 2 3 30 269 457 46
688 2 2 3 30 457 173 46
689 2 2 3 30 458 276 54
690 2 2 3 30 211 458 54
691 2 2 3 30 264 263 272
692 2 2 3 30 274 266 265
693 2 2 3 30 264 273 265
694 2 2 3 30 272 273 264
695 2 2 3 30 268 458 53
696 2 2 3 30 458 268 276
697 2 2 3 30 458 211 53
698 2 2 3 30 457 261 45
699 2 2 3 30 261 457 269
700 2 2 3 30 173 457 45
701 2 2 3 30 274 275 267
702 2 2 3 30 274 267 266
703 2 2 3 30 268 267 276
704 2 2 3 30 272 263 271
705 2 2 3 30 275 276 267
706 2 2 3 30 262 261 269
707 2 2 3 30 269 270 262
708 2 2 3 30 273 274 265
709 2 2 3 31 462 482 485
710 2 2 3 31 176 478 494
711 2 2 3 31 479 214 495
712 2 2 3 31 463 483 486
713 2 2 3 31 490 481 529
714 2 2 3 31 473 491 507
715 2 2 3 31 491 460 507
716 2 2 3 31 214 479 530
717 2 2 3 31 478 176 531
718 2 2 3 31 487 467 499
719 2 2 3 31 481 463 529
720 2 2 3 31 472 487 499
721 2 2 3 31 463 481 515
722 2 2 3 31 482 462 503
723 2 2 3 31 466 490 529
724 2 2 3 31 483 463 506
725 2 2 3 31 461 519 526
726 2 2 3 31 489 530 537
727 2 2 3 31 481 490 525
728 2 2 3 31 487 514 542
729 2 2 3 31 487 472 514
730 2 2 3 31 532 462 537
731 2 2 3 31 480 503 516
732 2 2 3 31 519 476 526
733 2 2 3 31 462 485 537
734 2 2 3 31 465 489 537
735 2 2 3 31 503 462 516
736 2 2 3 31 189 50 504
737 2 2 3 31 42 196 505
738 2 2 3 31 500 474 508
739 2 2 3 31 461 500 508
740 2 2 3 31 50 219 504
741 2 2 3 31 181 42 505
742 2 2 3 31 191 501 517
743 2 2 3 31 502 194 518
744 2 2 3 31 530 479 537
745 2 2 3 31 175 176 494
746 2 2 3 31 214 213 495
747 2 2 3 31 497 274 524
748 2 2 3 31 271 498 525
749 2 2 3 31 506 464 521
750 2 2 3 31 463 486 529
751 2 2 3 31 492 217 522
752 2 2 3 31 179 493 523
753 2 2 3 31 54 276 512
754 2 2 3 31 269 46 513
755 2 2 3 31 179 180 493
756 2 2 3 31 218 217 492
757 2 2 3 31 191 190 501
758 2 2 3 31 195 194 502
759 2 2 3 31 482 509 511
760 2 2 3 31 476 502 518
761 2 2 3 31 501 475 517
762 2 2 3 31 212 54 512
763 2 2 3 31 46 174 513
764 2 2 3 31 515 471 533
765 2 2 3 31 470 516 532
766 2 2 3 31 275 274 497
767 2 2 3 31 271 270 498
768 2 2 3 31 471 494 533
769 2 2 3 31 495 470 532
770 2 2 3 31 487 461 526
771 2 2 3 31 473 492 522
772 2 2 3 31 493 474 523
773 2 2 3 31 509 459 511
774 2 2 3 31 177 178 488
775 2 2 3 31 216 215 489
776 2 2 3 31 480 497 524
777 2 2 3 31 498 481 525
778 2 2 3 31 483 506 521
779 2 2 3 31 464 500 521
780 2 2 3 31 509 483 536
781 2 2 3 31 486 483 509
782 2 2 3 31 479 532 537
783 2 2 3 31 499 540 551
784 2 2 3 31 273 272 490
785 2 2 3 31 485 482 511
786 2 2 3 31 514 477 542
787 2 2 3 31 499 467 540
788 2 2 3 31 491 465 550
789 2 2 3 31 484 491 550
790 2 2 3 31 500 477 521
791 2 2 3 31 193 192 496
792 2 2 3 31 464 506 548
793 2 2 3 31 511 459 552
794 2 2 3 31 459 509 536
795 2 2 3 31 474 493 508
796 2 2 3 31 492 473 507
797 2 2 3 31 488 178 523
798 2 2 3 31 216 489 522
799 2 2 3 31 490 272 525
800 2 2 3 31 273 490 524
801 2 2 3 31 484 511 552
802 2 2 3 31 176 177 531
803 2 2 3 31 215 214 530
804 2 2 3 31 496 192 517
805 2 2 3 31 193 496 518
806 2 2 3 31 499 460 510
807 2 2 3 31 472 499 510
808 2 2 3 31 488 523 544
809 2 2 3 31 522 489 543
810 2 2 3 31 500 464 544
811 2 2 3 31 497 480 516
812 2 2 3 31 481 498 515
813 2 2 3 31 468 492 507
814 2 2 3 31 493 469 508
815 2 2 3 31 540 475 551
816 2 2 3 31 467 487 526
817 2 2 3 31 460 491 510
818 2 2 3 31 491 484 510
819 2 2 3 31 461 487 542
820 2 2 3 31 465 491 543
821 2 2 3 31 491 473 543
822 2 2 3 31 507 460 520
823 2 2 3 31 461 508 519
824 2 2 3 31 219 218 534
825 2 2 3 31 180 181 535
826 2 2 3 31 524 490 549
827 2 2 3 31 489 465 543
828 2 2 3 31 177 488 531
829 2 2 3 31 489 215 530
830 2 2 3 31 492 468 534
831 2 2 3 31 469 493 535
832 2 2 3 31 174 175 527
833 2 2 3 31 213 212 528
834 2 2 3 31 506 478 548
835 2 2 3 31 466 529 541
836 2 2 3 31 474 500 544
837 2 2 3 31 500 461 542
838 2 2 3 31 503 466 541
839 2 2 3 31 270 269 538
840 2 2 3 31 276 275 539
841 2 2 3 31 544 464 548
842 2 2 3 31 529 486 541
843 2 2 3 31 477 500 542
844 2 2 3 31 468 501 546
845 2 2 3 31 502 469 545
846 2 2 3 31 488 544 548
847 2 2 3 31 506 463 533
848 2 2 3 31 482 503 541
849 2 2 3 31 494 471 527
850 2 2 3 31 470 495 528
851 2 2 3 31 192 191 517
852 2 2 3 31 194 193 518
853 2 2 3 31 478 506 533
854 2 2 3 31 498 471 515
855 2 2 3 31 470 497 516
856 2 2 3 31 494 478 533
857 2 2 3 31 479 495 532
858 2 2 3 31 196 195 545
859 2 2 3 31 190 189 546
860 2 2 3 31 175 494 527
861 2 2 3 31 495 213 528
862 2 2 3 31 218 492 534
863 2 2 3 31 493 180 535
864 2 2 3 31 496 517 540
865 2 2 3 31 475 501 520
866 2 2 3 31 502 476 519
867 2 2 3 31 217 216 522
868 2 2 3 31 178 179 523
869 2 2 3 31 504 219 534
870 2 2 3 31 181 505 535
871 2 2 3 31 501 468 520
872 2 2 3 31 469 502 519
873 2 2 3 31 520 460 551
874 2 2 3 31 463 515 533
875 2 2 3 31 516 462 532
876 2 2 3 31 274 273 524
877 2 2 3 31 272 271 525
878 2 2 3 31 504 468 546
879 2 2 3 31 469 505 545
880 2 2 3 31 490 466 549
881 2 2 3 31 503 480 549
882 2 2 3 31 523 474 544
883 2 2 3 31 473 522 543
884 2 2 3 31 496 467 547
885 2 2 3 31 518 496 547
886 2 2 3 31 466 503 549
887 2 2 3 31 467 496 540
888 2 2 3 31 498 270 538
889 2 2 3 31 275 497 539
890 2 2 3 31 497 470 539
891 2 2 3 31 471 498 538
892 2 2 3 31 189 504 546
893 2 2 3 31 505 196 545
894 2 2 3 31 468 504 534
895 2 2 3 31 505 469 535
896 2 2 3 31 501 190 546
897 2 2 3 31 195 502 545
898 2 2 3 31 460 499 551
899 2 2 3 31 212 512 528
900 2 2 3 31 513 174 527
901 2 2 3 31 472 510 552
902 2 2 3 31 512 276 539
903 2 2 3 31 269 513 538
904 2 2 3 31 510 484 552
905 2 2 3 31 508 469 519
906 2 2 3 31 468 507 520
907 2 2 3 31 459 514 552
908 2 2 3 31 465 537 550
909 2 2 3 31 537 485 550
910 2 2 3 31 486 509 541
911 2 2 3 31 509 482 541
912 2 2 3 31 480 524 549
913 2 2 3 31 477 514 536
914 2 2 3 31 514 459 536
915 2 2 3 31 485 511 550
916 2 2 3 31 511 484 550
917 2 2 3 31 512 470 528
918 2 2 3 31 471 513 527
919 2 2 3 31 483 521 536
920 2 2 3 31 470 512 539
921 2 2 3 31 513 471 538
922 2 2 3 31 517 475 540
923 2 2 3 31 467 526 547
924 2 2 3 31 521 477 536
925 2 2 3 31 475 520 551
926 2 2 3 31 514 472 552
927 2 2 3 31 476 518 547
928 2 2 3 31 531 488 548
929 2 2 3 31 526 476 547
930 2 2 3 31 478 531 548
931 2 2 3 32 199 222 221
932 2 2 3 32 199 221 198
933 2 2 3 32 222 199 223
934 2 2 3 32 223 199 200
935 2 2 3 32 553 241 55
936 2 2 3 32 227 553 55
937 2 2 3 32 554 220 48
938 2 2 3 32 182 554 48
939 2 2 3 32 224 200 201
940 2 2 3 32 223 200 224
941 2 2 3 32 201 225 224
942 2 2 3 32 202 225 201
943 2 2 3 32 204 553 227
944 2 2 3 32 241 553 51
945 2 2 3 32 553 204 51
946 2 2 3 32 197 554 47
947 2 2 3 32 554 197 220
948 2 2 3 32 554 182 47
949 2 2 3 32 204 227 203
950 2 2 3 32 203 227 226
951 2 2 3 32 197 198 220
952 2 2 3 32 203 226 202
953 2 2 3 32 202 226 225
954 2 2 3 32 221 220 198
955 2 2 3 33 241 51 205
956 2 2 3 33 205 52 242
957 2 2 3 33 241 205 242
958 2 2 3 33 242 55 241
959 2 2 3 34 555 243 56
960 2 2 3 34 232 555 56
961 2 2 3 34 242 556 55
962 2 2 3 34 556 228 55
963 2 2 3 34 231 208 209
964 2 2 3 34 230 208 231
965 2 2 3 34 230 207 208
966 2 2 3 34 230 229 207
967 2 2 3 34 210 555 232
968 2 2 3 34 243 555 53
969 2 2 3 34 555 210 53
970 2 2 3 34 556 206 228
971 2 2 3 34 556 242 52
972 2 2 3 34 206 556 52
973 2 2 3 34 232 231 210
974 2 2 3 34 210 231 209
975 2 2 3 34 229 228 206
976 2 2 3 34 229 206 207
977 2 2 3 35 243 53 211
978 2 2 3 35 211 54 244
979 2 2 3 35 243 211 244
980 2 2 3 35 244 56 243
981 2 2 3 36 215 236 235
982 2 2 3 36 215 235 214
983 2 2 3 36 557 219 50
984 2 2 3 36 188 557 50
985 2 2 3 36 244 558 56
986 2 2 3 36 558 233 56
987 2 2 3 36 240 557 49
988 2 2 3 36 557 240 219
989 2 2 3 36 557 188 49
990 2 2 3 36 237 236 216
991 2 2 3 36 236 215 216
992 2 2 3 36 234 213 235
993 2 2 3 36 214 235 213
994 2 2 3 36 558 212 233
995 2 2 3 36 558 244 54
996 2 2 3 36 212 558 54
997 2 2 3 36 240 239 219
998 2 2 3 36 218 219 239
999 2 2 3 36 234 233 212
1000 2 2 3 36 234 212 213
1001 2 2 3 36 239 238 218
1002 2 2 3 36 217 218 238
1003 2 2 3 36 237 216 238
1004 2 2 3 36 238 216 217
1005 2 2 3 37 572 564 579
1006 2 2 3 37 239 240 591
1007 2 2 3 37 185 569 587
1008 2 2 3 37 240 581 591
1009 2 2 3 37 570 222 588
1010 2 2 3 37 571 230 586
1011 2 2 3 37 230 571 585
1012 2 2 3 37 569 185 595
1013 2 2 3 37 222 570 594
1014 2 2 3 37 570 565 593
1015 2 2 3 37 572 238 591
1016 2 2 3 37 565 570 588
1017 2 2 3 37 562 571 576
1018 2 2 3 37 577 567 582
1019 2 2 3 37 567 578 584
1020 2 2 3 37 561 577 582
1021 2 2 3 37 578 563 584
1022 2 2 3 37 570 593 598
1023 2 2 3 37 230 231 586
1024 2 2 3 37 229 230 585
1025 2 2 3 37 579 564 592
1026 2 2 3 37 48 220 590
1027 2 2 3 37 238 239 591
1028 2 2 3 37 183 48 590
1029 2 2 3 37 563 572 579
1030 2 2 3 37 593 560 598
1031 2 2 3 37 559 573 589
1032 2 2 3 37 573 565 589
1033 2 2 3 37 223 224 583
1034 2 2 3 37 223 583 588
1035 2 2 3 37 571 562 585
1036 2 2 3 37 560 592 608
1037 2 2 3 37 572 563 597
1038 2 2 3 37 574 562 603
1039 2 2 3 37 238 572 597
1040 2 2 3 37 564 587 592
1041 2 2 3 37 587 569 592
1042 2 2 3 37 573 559 584
1043 2 2 3 37 563 573 584
1044 2 2 3 37 562 580 603
1045 2 2 3 37 565 583 589
1046 2 2 3 37 583 568 589
1047 2 2 3 37 582 567 584
1048 2 2 3 37 559 582 584
1049 2 2 3 37 564 572 591
1050 2 2 3 37 222 223 588
1051 2 2 3 37 573 563 601
1052 2 2 3 37 186 185 587
1053 2 2 3 37 225 226 580
1054 2 2 3 37 221 222 594
1055 2 2 3 37 234 235 577
1056 2 2 3 37 185 184 595
1057 2 2 3 37 236 237 578
1058 2 2 3 37 592 569 608
1059 2 2 3 37 561 575 602
1060 2 2 3 37 565 573 593
1061 2 2 3 37 562 576 596
1062 2 2 3 37 577 561 602
1063 2 2 3 37 225 580 600
1064 2 2 3 37 564 581 609
1065 2 2 3 37 559 576 582
1066 2 2 3 37 562 574 585
1067 2 2 3 37 575 561 586
1068 2 2 3 37 587 564 609
1069 2 2 3 37 563 578 597
1070 2 2 3 37 575 233 602
1071 2 2 3 37 562 596 604
1072 2 2 3 37 580 568 600
1073 2 2 3 37 577 235 599
1074 2 2 3 37 567 577 599
1075 2 2 3 37 563 579 601
1076 2 2 3 37 233 575 606
1077 2 2 3 37 581 564 591
1078 2 2 3 37 237 238 597
1079 2 2 3 37 583 565 588
1080 2 2 3 37 576 559 596
1081 2 2 3 37 598 560 608
1082 2 2 3 37 578 237 597
1083 2 2 3 37 594 570 598
1084 2 2 3 37 236 578 599
1085 2 2 3 37 578 567 599
1086 2 2 3 37 566 594 598
1087 2 2 3 37 576 571 613
1088 2 2 3 37 233 234 602
1089 2 2 3 37 603 227 605
1090 2 2 3 37 560 579 592
1091 2 2 3 37 234 577 602
1092 2 2 3 37 574 603 605
1093 2 2 3 37 582 576 613
1094 2 2 3 37 561 582 613
1095 2 2 3 37 586 561 613
1096 2 2 3 37 571 586 613
1097 2 2 3 37 579 560 601
1098 2 2 3 37 566 590 612
1099 2 2 3 37 226 227 603
1100 2 2 3 37 594 566 612
1101 2 2 3 37 590 566 607
1102 2 2 3 37 559 589 596
1103 2 2 3 37 589 568 596
1104 2 2 3 37 566 595 607
1105 2 2 3 37 581 240 614
1106 2 2 3 37 581 187 609
1107 2 2 3 37 580 226 603
1108 2 2 3 37 568 580 604
1109 2 2 3 37 580 562 604
1110 2 2 3 37 187 581 614
1111 2 2 3 37 224 225 600
1112 2 2 3 37 235 236 599
1113 2 2 3 37 583 224 600
1114 2 2 3 37 55 228 605
1115 2 2 3 37 232 56 606
1116 2 2 3 37 227 55 605
1117 2 2 3 37 56 233 606
1118 2 2 3 37 187 186 609
1119 2 2 3 37 568 583 600
1120 2 2 3 37 49 187 614
1121 2 2 3 37 184 183 607
1122 2 2 3 37 220 221 612
1123 2 2 3 37 240 49 614
1124 2 2 3 37 228 229 610
1125 2 2 3 37 231 232 611
1126 2 2 3 37 585 574 610
1127 2 2 3 37 575 586 611
1128 2 2 3 37 560 593 601
1129 2 2 3 37 229 585 610
1130 2 2 3 37 586 231 611
1131 2 2 3 37 186 587 609
1132 2 2 3 37 593 573 601
1133 2 2 3 37 590 220 612
1134 2 2 3 37 183 590 607
1135 2 2 3 37 595 566 608
1136 2 2 3 37 569 595 608
1137 2 2 3 37 596 568 604
1138 2 2 3 37 574 605 610
1139 2 2 3 37 606 575 611
1140 2 2 3 37 221 594 612
1141 2 2 3 37 595 184 607
1142 2 2 3 37 605 228 610
1143 2 2 3 37 232 606 611
1144 2 2 3 37 566 598 608
$EndElements
