$MeshFormat
2.2 0 8
$EndMeshFormat
$PhysicalNames
4
2 1 "SD1G0"
2 2 "SD1D1001"
2 3 "SD2G0"
2 4 "I1-2"
$EndPhysicalNames
$Nodes
685
1 12.7 0 0
2 9.192 8.763 0
3 0 12.7 0
4 12.942 0 4.901
5 9.468 9.026 4.901
6 0 12.848 4.901
7 14.504 0 13.688
8 11.182 10.661 13.688
9 0 13.837 13.688
10 18.953 0 27.142
11 15.721 14.987 27.142
12 0 16.849 27.142
13 27.809 0 46.581
14 24.142 23.016 46.581
15 0 23.348 46.581
16 41.651 0 71.655
17 36.697 34.986 71.655
18 0 34.175 71.655
19 61.409 0 100.836
20 54.203 51.675 100.836
21 0 50.498 100.836
22 89.12 0 129.926
23 79.11 75.42100000000001 129.926
24 0 74.764 129.926
25 125.04 0 154.041
26 112.492 107.246 154.041
27 0 107.701 154.041
28 166.326 0 172.12
29 151.63 144.558 172.12
30 0 146.594 172.12
31 205.339 0 184.036
32 188.535 179.742 184.036
33 0 183.919 184.036
34 237.916 0 191.18
35 218.549 208.356 191.18
36 0 215.43 191.18
37 259.748 0 194.382
38 237.579 226.498 194.382
39 0 236.769 194.382
40 0 0 194.382
41 0 0 0
42 0 0 34.382
43 260 0 194.382
44 270 0 184.382
45 270 0 44.382
46 260 0 34.382
47 0 237 194.382
48 0 247 184.382
49 0 247 44.382
50 0 237 34.382
51 260 237 194.382
52 270 237 184.382
53 270 237 44.382
54 260 237 34.382
55 260 247 184.382
56 260 247 44.382
57 11.09735964762769 4.724375201960273 0
58 5.019385863320133 10.83722999715596 0
59 11.32995225508422 4.825089356907304 4.901
60 5.164086481152375 11.06272571985639 4.901000000000001
61 12.80514783874871 5.517288092459689 13.688
62 6.080519536255093 12.49480555464717 13.688
63 16.90454551671296 7.621175960644326 27.14199999999999
64 8.55298433103507 16.47009731611385 27.142
65 13.34620455329364 12.72364571437504 20.10289492399486
66 16.62529236783515 0 20.10289492399509
67 0 15.2731278066876 20.10289492402886
68 24.97120242520705 11.69199110661427 46.581
69 13.15472604086361 24.25875129063711 46.581
70 19.72206577667911 18.80181500070734 36.37804294417114
71 23.16074712246412 0 36.3780429441712
72 0 19.93686681899643 36.37804294421782
73 38.88741358010164 11.85529196584944 71.65500000000002
74 36.16837903299464 23.72075381338562 71.65499999999999
75 26.66969554065336 37.06048355282451 71.655
76 13.33459541344062 35.62007333874031 71.65499999999999
77 30.07838389500976 28.67577819380859 58.43674590071484
78 34.35391643765263 0 58.43674590071535
79 0 28.46733320841091 58.43674590077541
80 57.53914369550972 17.50227082677867 100.836
81 53.72560325100787 35.01675692551661 100.836
82 39.28759487969739 54.68015523329434 100.836
83 19.64341803187693 52.59265203157997 100.836
84 44.99909204548717 42.90063579042244 85.49387512734839
85 51.02108652089156 0 85.49387512734775
86 0 41.91606297607591 85.49387512741967
87 84.58498348550941 25.52844737450948 129.926
88 80.08987364229992 51.06389831437789 129.926
89 63.88376359527236 80.22516601504917 129.926
90 42.58709241858026 78.42933124115 129.926
91 21.29391638135082 76.59235208958243 129.926
92 66.12477042297652 63.04105614742846 114.75996922971
93 74.67290894893374 0 114.7599692297096
94 0 62.11295487555554 114.7599692297828
95 121.963837769231 27.39241665754096 154.041
96 118.8834316134111 54.78435784284577 154.041
97 115.8256895821251 82.17883373369304 154.041
98 95.68116608495129 113.6354837426708 154.041
99 71.75719874349346 112.2124222406384 154.041
100 47.83785421617061 110.7130311072813 154.041
101 23.91942611327043 109.1990647196298 154.041
102 95.27607865751366 90.83306198775904 141.604299287818
103 106.5151694139919 0 141.6042992878177
104 0 90.71457614119315 141.6042992878791
105 164.6186805669475 30.11476588469926 172.12
106 162.940450919081 60.23117371993026 172.12
107 161.233892518318 90.34598533797677 172.12
108 159.3779966955265 120.4518348808669 172.12
109 127.8537627997254 152.0578747679762 172.12
110 95.88679525302469 150.7772037877718 172.12
111 63.92425989741918 149.3889680637317 172.12
112 31.96262083562109 147.9802054955028 172.12
113 131.6643883521625 125.5238924369126 162.8972933470986
114 145.2646212250957 0 162.8972933471033
115 0 126.7533711018768 162.8972933471532
116 204.5742358097141 31.76793407461853 184.036
117 203.8694416796527 63.53727217628003 184.036
118 203.151495120804 95.30631334046512 184.036
119 202.3333455502357 127.0728967029079 184.036
120 201.1157467996876 158.8257434102718 184.036
121 164.9437793111339 188.3462091317941 184.0360000000001
122 131.9512848043936 187.6140821452399 184.036
123 98.96268865949087 186.7183064550084 184.036
124 65.97527859519639 185.7797248852922 184.036
125 32.98801705119649 184.8358985478826 184.036
126 169.8444572383594 161.9230579453851 178.0011400203845
127 185.5808603235331 0 178.0011400203835
128 0 165.0157481757225 178.0011400204128
129 237.573462247009 31.93041216547337 191.18
130 237.3065107396818 63.86156631686936 191.18
131 237.0458674653373 95.79277236625511 191.18
132 236.7266676726929 127.7234361261211 191.1799999999999
133 236.2338358968981 159.6518017531365 191.18
134 235.0415403560446 191.5585097141557 191.18
135 196.4276694630595 217.8299763630733 191.18
136 163.6877650441234 217.6569613899247 191.18
137 130.9495133077673 217.2659015073706 191.18
138 98.21203334669849 216.8139988048932 191.18
139 65.47484394496138 216.341482586252 191.18
140 32.73761593243518 215.8717308580946 191.18
141 203.4434154776828 193.9550139427739 187.5845346895638
142 259.3719347318347 34.88940559199764 194.382
143 259.0841618630782 69.77967536085811 194.382
144 258.803651872932 104.670004819746 194.382
145 258.4544774459038 139.5597016733089 194.382
146 257.9014746330544 174.4466517983579 194.382
147 256.5175434647344 209.3063035924786 194.382
148 218.0280026724918 236.5808038350242 194.382
149 186.8828714218257 236.9054772923984 194.382
150 155.7357605202381 236.9633371942338 194.382
151 124.58858572588 236.9463157858561 194.382
152 93.44143972135767 236.8988235574848 194.382
153 62.29431032051018 236.8419861076092 194.382
154 31.14716952324403 236.7921078498697 194.382
155 227.2795000001013 0 194.382
156 194.8110000001859 0 194.382
157 162.3425000002761 0 194.382
158 129.8740000003941 0 194.382
159 97.40550000030112 0 194.382
160 64.93700000021371 0 194.382
161 32.46850000012628 0 194.382
162 0 33.82414285708256 194.382
163 0 67.64828571412441 194.382
164 0 101.4724285711732 194.382
165 0 135.2965714283231 194.382
166 0 169.120714285558 194.382
167 0 202.9448571427889 194.382
168 6.349999999983785 0 0
169 0 6.350000000015788 0
170 267.0710678303063 0 191.4530677934246
171 270 0 161.0486666666436
172 270 0 137.7153333332871
173 270 0 114.3820000000666
174 270 0 91.04866666671293
175 270 0 67.71533333335645
176 267.0710677865382 0 37.31093216280723
177 236.3636363636091 0 34.382
178 212.7272727272515 0 34.382
179 189.0909090908939 0 34.382
180 165.4545454545364 0 34.382
181 141.8181818181788 0 34.382
182 118.1818181818212 0 34.382
183 94.54545454546363 0 34.382
184 70.90909090910606 0 34.382
185 47.27272727274845 0 34.382
186 23.63636363639085 0 34.382
187 0 244.0710678378863 191.4530677858446
188 0 247 161.0486666666436
189 0 247 137.7153333332871
190 0 247 114.3820000000666
191 0 247 91.04866666671293
192 0 247 67.71533333335645
193 0 244.0710677754003 37.31093215166938
194 0 213.3000000001504 34.382
195 0 189.6000000001565 34.382
196 0 165.9000000001294 34.382
197 0 142.2000000001021 34.382
198 0 118.5000000001332 34.382
199 0 94.80000000010884 34.382
200 0 71.10000000008162 34.382
201 0 47.40000000005443 34.382
202 0 23.70000000002722 34.382
203 23.63636363637201 237 194.382
204 47.27272727274114 237 194.382
205 70.90909090909953 237 194.382
206 94.54545454545793 237 194.382
207 118.1818181818163 237 194.382
208 141.8181818181747 237 194.382
209 165.4545454545331 237 194.382
210 189.0909090908915 237 194.382
211 212.7272727272499 237 194.382
212 236.3636363636083 237 194.382
213 267.0710678303063 237 191.4530677934246
214 270 237 161.0486666666436
215 270 237 137.7153333332871
216 270 237 114.3820000000666
217 270 237 91.04866666671293
218 270 237 67.71533333335645
219 267.0710677865382 237 37.31093216280723
220 236.3636363636091 237 34.382
221 212.7272727272515 237 34.382
222 189.0909090908939 237 34.382
223 165.4545454545364 237 34.382
224 141.8181818181788 237 34.382
225 118.1818181818212 237 34.382
226 94.54545454546363 237 34.382
227 70.90909090910606 237 34.382
228 47.27272727274845 237 34.382
229 23.63636363639085 237 34.382
230 23.63636363637201 247 184.382
231 47.27272727274114 247 184.382
232 70.90909090909953 247 184.382
233 94.54545454545793 247 184.382
234 118.1818181818163 247 184.382
235 141.8181818181747 247 184.382
236 165.4545454545331 247 184.382
237 189.0909090908915 247 184.382
238 212.7272727272499 247 184.382
239 236.3636363636083 247 184.382
240 260 247 161.0486666666436
241 260 247 137.7153333332871
242 260 247 114.3820000000666
243 260 247 91.04866666671293
244 260 247 67.71533333335645
245 236.3636363636091 247 44.382
246 212.7272727272515 247 44.382
247 189.0909090908939 247 44.382
248 165.4545454545364 247 44.382
249 141.8181818181788 247 44.382
250 118.1818181818212 247 44.382
251 94.54545454546363 247 44.382
252 70.90909090910606 247 44.382
253 47.27272727274845 247 44.382
254 23.63636363639085 247 44.382
255 260 244.0710678378863 191.4530677858446
256 267.0710677943634 244.0710678293676 184.382
257 267.0710677943634 244.0710678293676 44.382
258 260 244.0710678213272 37.31093219759627
259 260 23.69999999992186 194.382
260 260 47.39999999984789 194.382
261 260 71.09999999977811 194.382
262 260 94.79999999970829 194.382
263 260 118.4999999996413 194.382
264 260 142.1999999997108 194.382
265 260 165.8999999997831 194.382
266 260 189.5999999998554 194.382
267 260 213.2999999999277 194.382
268 270 23.69999999992186 184.382
269 270 47.39999999984789 184.382
270 270 71.09999999977811 184.382
271 270 94.79999999970829 184.382
272 270 118.4999999996413 184.382
273 270 142.1999999997108 184.382
274 270 165.8999999997831 184.382
275 270 189.5999999998554 184.382
276 270 213.2999999999277 184.382
277 270 23.69999999992186 44.382
278 270 47.39999999984789 44.382
279 270 71.09999999977811 44.382
280 270 94.79999999970829 44.382
281 270 118.4999999996413 44.382
282 270 142.1999999997108 44.382
283 270 165.8999999997831 44.382
284 270 189.5999999998554 44.382
285 270 213.2999999999277 44.382
286 260 23.69999999992186 34.382
287 260 47.39999999984789 34.382
288 260 71.09999999977811 34.382
289 260 94.79999999970829 34.382
290 260 118.4999999996413 34.382
291 260 142.1999999997108 34.382
292 260 165.8999999997831 34.382
293 260 189.5999999998554 34.382
294 260 213.2999999999277 34.382
295 10.4875975844061 6.907476140154579 2.449704665301626
296 7.308992342097604 10.14853938134668 2.448638607188373
297 12.14654545867963 4.980712204892369 9.388621261940944
298 5.281542932721678 11.88622530052523 9.364393744460186
299 15.14458249685736 4.896985469780945 19.87600544545352
300 13.21022556221772 8.569016520484315 17.40203871721138
301 6.394822052156574 13.72263097865548 17.63369902954985
302 7.295921279728615 15.29561727862639 23.02665642103557
303 18.92070964543623 12.07719354845961 33.85772871785537
304 21.85181785605132 6.504343474001123 37.11305177195902
305 21.55304319827974 14.44671656685306 40.66916948529867
306 9.128523933633446 18.67500206063001 32.64566137939676
307 9.712738886461302 21.31319367918331 39.3971227581934
308 16.94918585311423 22.51745980466149 41.64891668141718
309 31.77170124327152 12.99181168977326 59.33849825864831
310 27.56522947970954 18.30238836052511 53.99345029635968
311 10.09665936105605 31.90083961623282 64.05980889081562
312 22.65479323501882 33.39626581207411 64.59218849598784
313 16.44632670269431 28.77295618651763 55.80763233710589
314 43.44468235742568 14.23408576318458 79.12175533480577
315 43.96414175373742 28.98547880419783 84.68789217458439
316 49.96707102308955 19.08197028558277 90.26910509471871
317 32.66127739282786 48.70612132324604 91.38562224736395
318 19.01360063880759 42.44493247627082 82.78193800315707
319 31.83111864473698 41.87291815793898 79.30157622859366
320 13.98803973751287 47.23977981022091 92.33782516754954
321 67.55560235215815 37.89909015347427 115.0553416318503
322 69.92948442067669 16.55502871543251 113.2192627293209
323 17.99318921115792 58.90821426955378 108.7770219162772
324 48.82937967440897 65.61594329966579 113.3656854347638
325 33.38510827248643 65.79209203809961 115.3891296688367
326 14.47075598098765 67.93461390833566 120.1594997781353
327 60.00035636384681 73.65645898525359 122.1590889507423
328 98.40155147574347 67.8547451277415 142.4017606587315
329 100.6523179534769 44.33158513170154 141.8151128248122
330 102.2717170467328 21.30112944349892 140.7824232565122
331 59.4635382117442 96.16516270657705 142.4581995073472
332 40.05225005513574 96.3354800605245 143.6367419517218
333 78.28357647955602 96.19373969493529 141.4705791174702
334 24.04855889191228 90.84107857404867 140.3969607248195
335 13.18716069788406 100.9184538286756 148.4336053320084
336 144.4059387585712 18.80968306785587 163.1787531595014
337 143.4583514302676 67.63401240772063 164.3566094127532
338 132.9022063944884 84.93288704109196 160.7315877807993
339 142.3288860531962 44.84465564240046 163.1731205122535
340 140.0945687354342 105.971774210997 164.2165217102112
341 18.58904060750377 127.4672772736912 162.7824299271964
342 41.74857347734797 127.9251153384258 162.4224889235794
343 83.65660214028419 132.1823552029898 163.4175729945632
344 107.1284340970001 132.0782584765075 162.8075279723022
345 64.3207833780273 127.7242862659555 161.7524074483453
346 181.5212735408159 110.9346544834041 178.0542829329235
347 185.9685386955264 86.74005144362745 179.0470643712881
348 178.6725154405783 138.058326493217 177.6325544481989
349 185.1545966681534 20.69540486596179 178.1160686739373
350 184.0294329173205 49.97597762056064 178.1046343868837
351 179.4384462918154 70.43357568759301 176.9995566218007
352 52.05073508272778 167.1724108206417 178.1080399812036
353 21.97052325763241 166.1151749507799 178.1101734455882
354 81.92093867327011 168.0429750564206 178.0459233855759
355 113.2092403811952 168.8314619848829 177.9481259021771
356 143.6304861777015 168.6437003092854 177.5671766052581
357 220.8388594213147 49.33368422335468 187.6099166357392
358 220.4009741804554 78.93602780448808 187.608
359 218.0880071892963 175.1848779143107 187.608
360 219.9003668345895 111.0302990759636 187.608
361 219.2645383377545 143.0901160126146 187.608
362 221.2839271387445 20.65791721836841 187.6117465007725
363 14.85457335206449 199.9676497863341 187.6079999999999
364 143.0414842507961 118.6653455164156 194.382
365 78.00367245988355 162.4529140315291 194.382
366 75.44133171895446 77.96316506807621 194.382
367 203.9457502070791 181.0659077521267 194.382
368 189.9953291193418 68.05836435801054 194.382
369 144.0455984830109 174.4933239045006 194.382
370 132.6147689196864 56.3321002509819 194.382
371 198.9012666505946 126.0980474874313 194.382
372 49.14392066051177 119.7426963589516 194.382
373 45.95049198072608 193.9144689009586 194.382
374 95.43513100976608 119.3293849237789 194.382
375 44.29670798846247 43.84980998557611 194.382
376 102.345295883034 196.2288293292446 194.382
377 96.55837302273517 40.11897353970948 194.382
378 218.51670926415 40.26485291770963 194.382
379 165.65271459016 146.2964630561466 194.382
380 165.6187768218148 38.72843805539469 194.382
381 38.78986888773557 81.83272271990106 194.382
382 171.4150675038778 202.8771764460684 194.382
383 223.2064698363156 93.58849401874927 194.382
384 39.74230289663696 155.9459678242645 194.382
385 110.3562086982418 149.7077864807684 194.382
386 156.5182754111339 85.81752563974932 194.382
387 120.1504713430042 95.46619259225783 194.382
388 229.7062489239216 198.5713931287139 194.382
389 220.2153365646314 149.7408663977258 194.382
390 203.5625961937347 211.6791919771981 194.382
391 131.8966893274397 206.1140457640442 194.382
392 75.68918215806993 212.2921465947024 194.382
393 169.7815840155516 112.8770364927342 194.382
394 120.8217336942765 23.43925843239263 194.382
395 232.1284996232922 122.6842150243449 194.382
396 193.6688948357207 155.1157703572207 194.382
397 69.41841211660254 27.30583003430236 194.382
398 192.3860235311418 28.53842048279036 194.382
399 71.30892672861458 104.0918568232562 194.382
400 175.356548357681 172.7747835359498 194.382
401 230.2164517037086 66.8207548473829 194.382
402 98.96064764740549 68.73516169190489 194.382
403 72.37735983219513 135.4505675671695 194.382
404 192.7852801482206 97.12641587108975 194.382
405 24.51419285623916 212.1390518033584 194.382
406 139.2072746374945 144.961695815868 194.382
407 23.08542260811213 118.5570865087768 194.382
408 22.12062377313334 185.1283861238064 194.382
409 25.16937942731968 25.48908847331349 194.382
410 146.2499273401733 21.51436169084752 194.382
411 20.05992179113546 50.53603913713149 194.382
412 116.1041837681474 176.2846752432591 194.382
413 220.9424381473956 218.2355005162848 194.382
414 119.7134871595292 126.8219014456238 194.382
415 109.04233340789 219.0046624451472 194.382
416 68.92895981475759 184.9048098204451 194.382
417 67.93900471658235 54.13801052989988 194.382
418 237.0544221558112 23.21324854220525 194.382
419 157.6100594088792 61.58852498363657 194.382
420 233.8574698964225 171.3035188012275 194.382
421 47.91906936775788 218.3959522512997 194.382
422 47.25799990654494 19.32894569863839 194.382
423 92.25930168954898 93.1171522198548 194.382
424 5.219719523785082 5.286271339562102 0
425 250.0920359656685 224.6208607184812 194.3820000000001
426 266.2272087580953 13.00029160198897 192.2064406242938
427 266.2272764758359 224.000436292639 192.2063867295463
428 270 82.53700434106179 114.5608052268603
429 270 154.9593501860492 114.7130126897268
430 270 43.26457001992054 140.8036304062509
431 270 193.7354299799064 140.8036304060997
432 270 43.29102393043418 88.17733873948282
433 270 193.7089760694182 88.17733873942259
434 270 118.4999999997451 88.40916071428666
435 270 118.499999999745 140.3548392857134
436 270 82.94999999974323 78.37898214286308
437 270 82.9499999997432 150.3850178571369
438 270 154.049999999747 78.37898214285102
439 270 153.9907912919078 149.7425313253634
440 270 29.42302974945669 114.382
441 270 207.5769702505741 114.3819999999999
442 270 110.1003605620891 114.0666011182139
443 270 181.5901036790529 114.5778100894713
444 270 55.49262207530644 114.5524421791302
445 270 210.6287540668199 157.9658963926267
446 270 26.37124593308644 157.965896392739
447 270 210.6287540668199 70.79810360737343
448 270 26.37124593308641 70.79810360726101
449 270 60.85340428789881 161.3666310628342
450 270 60.86882930860648 67.45887388234959
451 270 176.1422802082708 161.3198025983266
452 270 176.1311706910648 67.45887388238152
453 270 104.2311376770294 67.94003265416616
454 270 104.2311376770293 160.8239673458339
455 270 131.6811740840157 67.11215679054796
456 270 132.7470487095525 161.3214110075627
457 270 134.1034304170908 120.2766564659753
458 270 140.5264664037993 95.93254565997174
459 270 67.31264089228051 94.94722968028039
460 270 168.9429606096399 94.49408451143006
461 270 21.41556453375596 135.7865196845549
462 270 21.4167122287491 92.98689345692556
463 270 215.584435466266 135.7865196845087
464 270 215.5832877712741 92.98689345696255
465 270 97.19126258895913 132.8452896471171
466 270 97.19126258895921 95.91871035288287
467 270 169.8725364808933 134.443649021655
468 270 67.12746351868499 134.4436490219069
469 270 137.9328868756406 140.2585527340179
470 270 82.94999999974321 169.448729003237
471 270 82.90834896820164 59.62584647029303
472 270 154.049999999747 59.31527099673154
473 270 154.1032157585291 169.0044214168917
474 270 194.9269754042514 167.0444749505248
475 270 194.9269754042514 61.71952504947514
476 270 42.07302459553727 167.0444749506162
477 270 42.07302459553726 61.71952504938386
478 270 125.8075643456811 104.6712409896119
479 270 150.9273738947942 131.8121754716672
480 270 223.6011785074942 168.7392646345452
481 270 13.39882149243521 168.7392646345724
482 270 223.6011785074941 60.02473536545482
483 270 13.3988214924352 60.02473536542762
484 270 12.00198845060279 149.3819999999653
485 270 224.9980115493827 149.3819999999653
486 270 12.0019884506028 79.38200000003469
487 270 224.9980115493827 79.38200000003469
488 268.0153746186829 224.1066404481173 38.40255439675451
489 268.015374230928 12.89335900599437 38.40255387697367
490 129.9999999999999 118.5000000000001 34.382
491 186.9104602424983 74.38236664590002 34.382
492 73.08953975750303 162.6176333541004 34.382
493 72.42846387409546 75.06063607560677 34.382
494 187.5715361259058 161.9393639243936 34.382
495 127.5995434111445 58.84543278046529 34.382
496 132.4004565888551 178.154567219536 34.382
497 208.5884385452134 120.6681242789562 34.382
498 51.41156145480488 116.3318757210413 34.382
499 221.0685943481314 42.83939084597855 34.382
500 38.93140565186093 194.1606091540268 34.382
501 38.93140565183727 42.83939084596923 34.382
502 221.0685943481766 194.1606091540349 34.382
503 169.3630610091414 110.8720569221822 34.382
504 90.63693899085882 126.1279430778184 34.382
505 166.0169622706933 39.29403764988654 34.382
506 92.19459794530516 41.11084916718522 34.382
507 93.98303772930699 197.7059623501142 34.382
508 167.805402054695 195.8891508328148 34.382
509 223.7180237957006 82.36109532791158 34.382
510 223.7867197230068 153.1757750233731 34.382
511 36.2132802770256 83.82422497662395 34.382
512 36.28197620429336 154.6389046720678 34.382
513 107.5270674538963 88.15823805446139 34.382
514 152.4729325461017 148.8417619455396 34.382
515 144.2900503437477 87.20826519446237 34.382
516 115.7099496562526 149.7917348055386 34.382
517 130.0000000000004 23.03435175280377 34.382
518 129.9999999999995 213.965648247197 34.382
519 185.5929615880646 135.7453080071807 34.382
520 74.40703841193636 101.2546919928201 34.382
521 190.936641821392 28.80766249404003 34.382
522 68.98576725364018 28.88648431816794 34.382
523 69.06335817860835 208.1923375059602 34.382
524 191.0142327463628 208.1135156818301 34.382
525 234.6526940554272 128.7165900585423 34.382
526 25.34730594461846 108.2834099414433 34.382
527 161.1616987957988 65.98782765632353 34.382
528 98.83830120420227 171.0121723436777 34.382
529 193.0025940683858 98.25643199066511 34.382
530 66.99740593161489 138.7435680093361 34.382
531 236.4814427708731 60.87533773834407 34.382
532 23.72759873415675 60.48561521912058 34.382
533 23.51855722909288 176.124662261669 34.382
534 236.2724012658981 176.5143847809051 34.382
535 106.1157208230588 65.40499572098356 34.382
536 153.8842791769399 171.5950042790173 34.382
537 24.96141024291345 212.0420621770897 34.382
538 235.0385897570841 24.95793782290892 34.382
539 24.96141024291743 24.95793782290479 34.382
540 235.0385897570819 212.0420621770971 34.382
541 234.75044792847 103.8902763492102 34.382
542 25.24955207153084 133.1097236507071 34.382
543 208.2330093200558 62.39389643672072 34.382
544 51.76699067993847 174.6061035632793 34.382
545 51.86261992942726 63.51791087630127 34.382
546 208.1373800705906 173.482089123702 34.382
547 149.8872800180306 126.3664142828597 34.382
548 110.1127199819689 110.6335857171408 34.382
549 152.0706569648301 20.74541137260722 34.382
550 107.9293430351718 20.74541137260638 34.382
551 107.9293430351701 216.2545886273932 34.382
552 152.0706569648277 216.2545886273941 34.382
553 185.6371923382328 52.35139009992955 34.382
554 74.36280766176682 184.6486099000709 34.382
555 72.04995992937309 52.41798882866795 34.382
556 187.950040070631 184.5820111713316 34.382
557 167.5475377811504 89.67185195201091 34.382
558 92.45246221885057 147.3281480479899 34.382
559 203.7663383830538 147.4959129024235 34.382
560 56.23366161696595 89.50408709757656 34.382
561 212.4499996417782 21.60278819599769 34.382
562 47.55000035822211 215.3972118040024 34.382
563 47.55000035821167 21.60278819600134 34.382
564 212.4499996417931 215.3972118039972 34.382
565 172.7139431204691 17.76942230330675 34.382
566 86.91285073773736 18.14854897159191 34.382
567 173.0871492622632 218.8514510284078 34.382
568 87.28605687953102 219.2305776966935 34.382
569 142.1794047784776 45.84100178233676 34.382
570 116.5622685984386 42.6250474120194 34.382
571 117.8205952215227 191.1589982176642 34.382
572 143.4377314015611 194.3749525879817 34.382
573 127.1232058579947 98.25507552576336 34.382
574 132.8767941420044 138.7449244742373 34.382
575 125.4048098785349 77.80103374352066 34.382
576 134.5951901214629 159.19896625648 34.382
577 243.3808657617041 82.77415402180812 34.382
578 16.61913423827401 154.2258459780848 34.382
579 16.81601630499869 83.48475001965267 34.382
580 243.183983695028 153.5152499802583 34.382
581 88.84597522880436 84.57449773649518 34.382
582 171.1540247711945 152.4255022635055 34.382
583 212.5627226891651 98.8032306548271 34.382
584 47.43727731082438 138.1967693451787 34.382
585 145.7127944453885 107.3523554199704 34.382
586 114.2872055546116 129.6476445800304 34.382
587 217.1521972846609 136.3529722352431 34.382
588 42.84780271537698 100.647027764756 34.382
589 204.0435280547428 82.89000765781446 34.382
590 55.95647194525888 154.1099923421854 34.382
591 241.8296263244766 42.50736020646103 34.382
592 18.17037367550383 194.4926397935598 34.382
593 18.17037367543757 42.507360206407 34.382
594 241.8296263246001 194.4926397936168 34.382
595 187.2830439052457 116.1444059967263 34.382
596 72.71695609475414 120.8555940032747 34.382
597 140.9474578766524 68.01808831476723 34.382
598 119.0525421233478 168.9819116852338 34.382
599 86.32694356012738 63.71379350578773 34.382
600 173.6730564398732 173.2862064942126 34.382
601 90.70778269370312 105.2674250970017 34.382
602 169.2922173062964 131.7325749029989 34.382
603 202.7791715182153 42.06860392943992 34.382
604 57.61946138198465 42.5335511944248 34.382
605 57.22082848178292 194.931396070561 34.382
606 202.3805386180216 194.4664488055731 34.382
607 246.9522133852952 13.07630321090778 34.382
608 13.04778661473509 223.9236967890944 34.382
609 13.04778661465857 13.07630321090896 34.382
610 246.9522133853612 223.9236967890906 34.382
611 12.85902170213366 242.9797440761082 192.3971519501659
612 247.1409782796313 242.9797442775134 192.3971517999065
613 268.0889014303588 242.8795980857485 57.07929750937691
614 268.0889014299169 242.8795980863566 171.6847024635066
615 12.85902177712128 245.0151519194298 38.40225588269364
616 247.1409782867567 242.9797444993302 36.36684836558098
617 178.3347253998394 247 114.5087966865026
618 81.66527460016032 247 114.5087966865022
619 130 247 91.66748247049762
620 129.9999999999971 247 136.6413895227635
621 214.5455183921798 247 139.3705936956232
622 45.45448160781964 247 139.3705936956238
623 214.3285950029932 247 89.77052817606446
624 45.67140499700668 247 89.77052817606432
625 163.7571890975988 247 78.84663176150289
626 96.2428109024013 247 78.84663176150219
627 165.7005072461031 247 148.8955279297455
628 94.29949275389021 247 148.8955279297468
629 230.5633520411419 247 114.382
630 29.43664795885798 247 114.3819999999998
631 151.9577008374245 247 117.7541006745503
632 108.0422991625737 247 117.7541006745497
633 189.7020842075646 247 74.74710822700277
634 70.2979157924354 247 74.7471082270027
635 191.4580143832162 247 155.982207265746
636 68.54198561677954 247 155.9822072657472
637 56.08196034307142 247 115.0176563313785
638 203.9180396569285 247 115.017656331379
639 233.6697535125581 247 158.014800291745
640 26.3302464874427 247 158.0148002917465
641 233.6697535125581 247 70.74919970825485
642 26.33024648744181 247 70.74919970825484
643 130 247 67.96660612681359
644 141.4799127628071 247 158.5662023574211
645 117.187183505264 247 159.2223662616828
646 191.8008895989981 247 98.13366877113933
647 68.19911040100183 247 98.13366877113904
648 73.67380270305455 247 133.7588103542798
649 186.3261972969435 247 133.7588103542794
650 238.4765348152309 247 135.7415616465152
651 21.52346518476971 247 135.7415616465159
652 238.8369463976275 247 93.07355935101128
653 21.16305360237244 247 93.07355935101111
654 212.2121012813934 247 66.29169596495005
655 47.78789871860651 247 66.29169596495018
656 212.7255269436127 247 162.8800988401366
657 47.27447305638534 247 162.880098840139
658 151.4209272680858 247 63.52185509128324
659 108.5790727319142 247 63.52185509128309
660 149.1854374913255 247 96.43616990865446
661 110.8145625086744 247 96.43616990865341
662 172.3955872780008 247 61.69073278291827
663 87.6044127219992 247 61.69073278291814
664 174.2664944905266 247 167.447150876883
665 85.73350550946705 247 167.4471508768836
666 93.80202090068411 247 130.8750887345597
667 166.1979790993124 247 130.8750887345581
668 150.3825184825924 247 138.8069607534949
669 109.4270666985561 247 138.900698454106
670 129.9999999999993 247 110.4660950818674
671 171.3414804260888 247 96.70531984199368
672 88.65851957391092 247 96.70531984199323
673 144.872710771402 247 79.68774907175036
674 115.127289228598 247 79.68774907174998
675 129.6667740670155 247 171.638142154776
676 246.6317891860494 247 168.7514420071762
677 246.6317891860496 247 60.01255799282391
678 13.36821081395045 247 60.01255799282394
679 13.36821081394825 247 168.7514420071731
680 248.0043658125818 247 149.3819999999653
681 11.99563418741923 247 149.3819999999653
682 248.0043658125818 247 79.38200000003469
683 11.9956341874183 247 79.38200000003468
684 157.7439283544289 247 168.7345762328099
685 101.9894908991791 247 168.8658090136627
$EndNodes
$Elements
1281
1 2 2 1 1 1 4 59
2 2 2 1 1 5 295 59
3 2 2 1 1 59 57 1
4 2 2 1 1 57 295 2
5 2 2 1 1 295 5 2
6 2 2 1 1 295 57 59
7 2 2 1 2 2 296 58
8 2 2 1 2 6 3 58
9 2 2 1 2 60 296 5
10 2 2 1 2 6 58 60
11 2 2 1 2 296 2 5
12 2 2 1 2 296 60 58
13 2 2 1 3 297 59 4
14 2 2 1 3 7 297 4
15 2 2 1 3 297 61 8
16 2 2 1 3 5 297 8
17 2 2 1 3 59 297 5
18 2 2 1 3 61 297 7
19 2 2 1 4 8 62 298
20 2 2 1 4 5 8 298
21 2 2 1 4 60 298 6
22 2 2 1 4 298 9 6
23 2 2 1 4 298 60 5
24 2 2 1 4 298 62 9
25 2 2 1 5 66 299 7
26 2 2 1 5 63 11 65
27 2 2 1 5 65 299 63
28 2 2 1 5 299 300 61
29 2 2 1 5 299 61 7
30 2 2 1 5 66 10 299
31 2 2 1 5 299 10 63
32 2 2 1 5 65 300 299
33 2 2 1 5 300 65 8
34 2 2 1 5 61 300 8
35 2 2 1 6 301 65 302
36 2 2 1 6 11 302 65
37 2 2 1 6 302 11 64
38 2 2 1 6 67 302 12
39 2 2 1 6 302 64 12
40 2 2 1 6 301 9 62
41 2 2 1 6 67 9 301
42 2 2 1 6 67 301 302
43 2 2 1 6 301 62 8
44 2 2 1 6 65 301 8
45 2 2 1 7 303 63 304
46 2 2 1 7 304 63 10
47 2 2 1 7 14 70 305
48 2 2 1 7 14 305 68
49 2 2 1 7 71 13 304
50 2 2 1 7 304 13 68
51 2 2 1 7 305 304 68
52 2 2 1 7 304 10 71
53 2 2 1 7 303 11 63
54 2 2 1 7 304 305 303
55 2 2 1 7 305 70 303
56 2 2 1 7 11 303 70
57 2 2 1 8 306 70 307
58 2 2 1 8 69 307 308
59 2 2 1 8 308 307 70
60 2 2 1 8 72 307 15
61 2 2 1 8 307 69 15
62 2 2 1 8 306 12 64
63 2 2 1 8 72 12 306
64 2 2 1 8 72 306 307
65 2 2 1 8 308 14 69
66 2 2 1 8 70 306 11
67 2 2 1 8 306 64 11
68 2 2 1 8 14 308 70
69 2 2 1 9 78 16 73
70 2 2 1 9 74 17 77
71 2 2 1 9 77 310 309
72 2 2 1 9 74 309 73
73 2 2 1 9 309 74 77
74 2 2 1 9 73 309 78
75 2 2 1 9 309 68 13
76 2 2 1 9 68 309 310
77 2 2 1 9 78 309 13
78 2 2 1 9 310 14 68
79 2 2 1 9 14 310 77
80 2 2 1 10 311 312 76
81 2 2 1 10 76 312 75
82 2 2 1 10 312 311 313
83 2 2 1 10 79 15 69
84 2 2 1 10 313 311 79
85 2 2 1 10 79 311 18
86 2 2 1 10 311 76 18
87 2 2 1 10 77 312 313
88 2 2 1 10 313 79 69
89 2 2 1 10 312 17 75
90 2 2 1 10 77 313 14
91 2 2 1 10 313 69 14
92 2 2 1 10 17 312 77
93 2 2 1 11 85 314 16
94 2 2 1 11 85 19 80
95 2 2 1 11 81 20 84
96 2 2 1 11 314 73 16
97 2 2 1 11 74 314 315
98 2 2 1 11 314 74 73
99 2 2 1 11 315 314 316
100 2 2 1 11 316 80 81
101 2 2 1 11 314 85 316
102 2 2 1 11 316 81 315
103 2 2 1 11 315 17 74
104 2 2 1 11 316 85 80
105 2 2 1 11 81 84 315
106 2 2 1 11 17 315 84
107 2 2 1 12 317 84 20
108 2 2 1 12 317 20 82
109 2 2 1 12 318 319 317
110 2 2 1 12 86 18 76
111 2 2 1 12 318 317 320
112 2 2 1 12 83 320 317
113 2 2 1 12 318 320 86
114 2 2 1 12 317 319 84
115 2 2 1 12 319 318 75
116 2 2 1 12 84 319 17
117 2 2 1 12 319 75 17
118 2 2 1 12 83 317 82
119 2 2 1 12 320 83 21
120 2 2 1 12 86 320 21
121 2 2 1 12 318 86 76
122 2 2 1 12 75 318 76
123 2 2 1 13 321 322 87
124 2 2 1 13 93 22 87
125 2 2 1 13 88 23 92
126 2 2 1 13 87 322 93
127 2 2 1 13 321 87 88
128 2 2 1 13 321 92 20
129 2 2 1 13 92 321 88
130 2 2 1 13 321 20 81
131 2 2 1 13 321 81 80
132 2 2 1 13 80 322 321
133 2 2 1 13 322 80 19
134 2 2 1 13 93 322 19
135 2 2 1 14 94 21 323
136 2 2 1 14 323 21 83
137 2 2 1 14 324 82 20
138 2 2 1 14 325 82 324
139 2 2 1 14 325 323 82
140 2 2 1 14 91 326 325
141 2 2 1 14 91 325 90
142 2 2 1 14 20 92 324
143 2 2 1 14 94 326 24
144 2 2 1 14 326 91 24
145 2 2 1 14 323 325 326
146 2 2 1 14 327 23 89
147 2 2 1 14 323 326 94
148 2 2 1 14 325 324 90
149 2 2 1 14 23 327 92
150 2 2 1 14 90 324 327
151 2 2 1 14 90 327 89
152 2 2 1 14 82 323 83
153 2 2 1 14 324 92 327
154 2 2 1 15 328 96 97
155 2 2 1 15 103 25 95
156 2 2 1 15 328 102 23
157 2 2 1 15 97 26 102
158 2 2 1 15 102 328 97
159 2 2 1 15 87 330 329
160 2 2 1 15 329 88 87
161 2 2 1 15 330 22 103
162 2 2 1 15 22 330 87
163 2 2 1 15 329 330 95
164 2 2 1 15 95 96 329
165 2 2 1 15 328 329 96
166 2 2 1 15 330 103 95
167 2 2 1 15 88 329 328
168 2 2 1 15 328 23 88
169 2 2 1 16 100 332 331
170 2 2 1 16 333 99 331
171 2 2 1 16 99 100 331
172 2 2 1 16 104 24 91
173 2 2 1 16 98 99 333
174 2 2 1 16 102 333 23
175 2 2 1 16 98 102 26
176 2 2 1 16 89 333 331
177 2 2 1 16 333 89 23
178 2 2 1 16 334 332 101
179 2 2 1 16 101 332 100
180 2 2 1 16 102 98 333
181 2 2 1 16 332 90 331
182 2 2 1 16 334 90 332
183 2 2 1 16 89 331 90
184 2 2 1 16 101 335 334
185 2 2 1 16 334 335 104
186 2 2 1 16 104 335 27
187 2 2 1 16 335 101 27
188 2 2 1 16 334 104 91
189 2 2 1 16 90 334 91
190 2 2 1 17 114 28 336
191 2 2 1 17 336 28 105
192 2 2 1 17 114 336 25
193 2 2 1 17 108 29 113
194 2 2 1 17 336 95 25
195 2 2 1 17 107 337 106
196 2 2 1 17 337 107 338
197 2 2 1 17 96 337 338
198 2 2 1 17 96 338 97
199 2 2 1 17 339 95 336
200 2 2 1 17 337 96 339
201 2 2 1 17 96 95 339
202 2 2 1 17 339 105 106
203 2 2 1 17 113 340 108
204 2 2 1 17 337 339 106
205 2 2 1 17 339 336 105
206 2 2 1 17 340 113 26
207 2 2 1 17 338 26 97
208 2 2 1 17 338 107 340
209 2 2 1 17 340 107 108
210 2 2 1 17 26 338 340
211 2 2 1 18 341 101 342
212 2 2 1 18 342 101 100
213 2 2 1 18 98 344 343
214 2 2 1 18 98 343 99
215 2 2 1 18 341 30 115
216 2 2 1 18 109 113 29
217 2 2 1 18 112 30 341
218 2 2 1 18 343 344 110
219 2 2 1 18 344 113 109
220 2 2 1 18 344 109 110
221 2 2 1 18 342 100 345
222 2 2 1 18 341 342 112
223 2 2 1 18 111 345 343
224 2 2 1 18 112 342 111
225 2 2 1 18 26 344 98
226 2 2 1 18 342 345 111
227 2 2 1 18 343 110 111
228 2 2 1 18 344 26 113
229 2 2 1 18 99 345 100
230 2 2 1 18 99 343 345
231 2 2 1 18 101 341 27
232 2 2 1 18 27 341 115
233 2 2 1 19 346 118 119
234 2 2 1 19 32 126 120
235 2 2 1 19 346 347 118
236 2 2 1 19 346 348 108
237 2 2 1 19 108 348 29
238 2 2 1 19 349 127 31
239 2 2 1 19 116 349 31
240 2 2 1 19 105 349 350
241 2 2 1 19 350 116 117
242 2 2 1 19 350 349 116
243 2 2 1 19 351 350 117
244 2 2 1 19 351 117 347
245 2 2 1 19 119 348 346
246 2 2 1 19 348 119 120
247 2 2 1 19 107 347 346
248 2 2 1 19 126 348 120
249 2 2 1 19 351 347 107
250 2 2 1 19 127 349 28
251 2 2 1 19 348 126 29
252 2 2 1 19 349 105 28
253 2 2 1 19 346 108 107
254 2 2 1 19 106 351 107
255 2 2 1 19 105 350 106
256 2 2 1 19 351 106 350
257 2 2 1 19 118 347 117
258 2 2 1 20 32 121 126
259 2 2 1 20 352 125 353
260 2 2 1 20 125 352 124
261 2 2 1 20 352 353 112
262 2 2 1 20 112 353 30
263 2 2 1 20 110 355 354
264 2 2 1 20 110 354 111
265 2 2 1 20 356 122 355
266 2 2 1 20 109 355 110
267 2 2 1 20 356 355 109
268 2 2 1 20 356 29 126
269 2 2 1 20 124 352 354
270 2 2 1 20 352 111 354
271 2 2 1 20 30 353 128
272 2 2 1 20 123 355 122
273 2 2 1 20 352 112 111
274 2 2 1 20 122 356 121
275 2 2 1 20 109 29 356
276 2 2 1 20 123 354 355
277 2 2 1 20 356 126 121
278 2 2 1 20 353 125 33
279 2 2 1 20 128 353 33
280 2 2 1 20 354 123 124
281 2 2 1 21 130 358 357
282 2 2 1 21 35 141 134
283 2 2 1 21 357 358 117
284 2 2 1 21 141 32 359
285 2 2 1 21 359 32 120
286 2 2 1 21 132 361 360
287 2 2 1 21 360 361 119
288 2 2 1 21 133 359 361
289 2 2 1 21 361 359 120
290 2 2 1 21 129 357 362
291 2 2 1 21 362 357 116
292 2 2 1 21 131 360 358
293 2 2 1 21 358 360 118
294 2 2 1 21 31 362 116
295 2 2 1 21 129 362 34
296 2 2 1 21 359 134 141
297 2 2 1 21 134 359 133
298 2 2 1 21 362 31 34
299 2 2 1 21 119 361 120
300 2 2 1 21 133 361 132
301 2 2 1 21 130 357 129
302 2 2 1 21 116 357 117
303 2 2 1 21 131 358 130
304 2 2 1 21 117 358 118
305 2 2 1 21 132 360 131
306 2 2 1 21 118 360 119
307 2 2 1 22 138 124 123
308 2 2 1 22 33 363 36
309 2 2 1 22 140 363 125
310 2 2 1 22 135 141 35
311 2 2 1 22 363 140 36
312 2 2 1 22 138 139 124
313 2 2 1 22 363 33 125
314 2 2 1 22 136 137 122
315 2 2 1 22 123 137 138
316 2 2 1 22 141 135 32
317 2 2 1 22 32 135 121
318 2 2 1 22 122 137 123
319 2 2 1 22 136 122 121
320 2 2 1 22 121 135 136
321 2 2 1 22 124 140 125
322 2 2 1 22 139 140 124
323 2 2 1 23 129 34 37
324 2 2 1 23 38 35 147
325 2 2 1 23 145 146 133
326 2 2 1 23 147 35 134
327 2 2 1 23 133 146 134
328 2 2 1 23 134 146 147
329 2 2 1 23 143 130 142
330 2 2 1 23 132 145 133
331 2 2 1 23 131 130 143
332 2 2 1 23 142 130 129
333 2 2 1 23 132 131 144
334 2 2 1 23 129 37 142
335 2 2 1 23 131 143 144
336 2 2 1 23 144 145 132
337 2 2 1 24 154 140 153
338 2 2 1 24 35 38 148
339 2 2 1 24 140 139 153
340 2 2 1 24 135 35 148
341 2 2 1 24 152 139 138
342 2 2 1 24 152 138 151
343 2 2 1 24 151 138 137
344 2 2 1 24 149 150 136
345 2 2 1 24 154 39 36
346 2 2 1 24 136 150 137
347 2 2 1 24 148 149 135
348 2 2 1 24 137 150 151
349 2 2 1 24 154 36 140
350 2 2 1 24 135 149 136
351 2 2 1 24 153 139 152
352 2 2 4 25 365 385 403
353 2 2 4 25 385 374 403
354 2 2 4 25 378 155 398
355 2 2 4 25 155 156 398
356 2 2 4 25 383 143 401
357 2 2 4 25 144 143 383
358 2 2 4 25 376 391 412
359 2 2 4 25 364 386 387
360 2 2 4 25 163 164 381
361 2 2 4 25 365 376 412
362 2 2 4 25 365 384 416
363 2 2 4 25 165 166 384
364 2 2 4 25 386 370 387
365 2 2 4 25 165 384 407
366 2 2 4 25 384 365 403
367 2 2 4 25 147 146 388
368 2 2 4 25 150 149 382
369 2 2 4 25 368 378 398
370 2 2 4 25 377 159 397
371 2 2 4 25 159 377 394
372 2 2 4 25 384 373 416
373 2 2 4 25 391 369 412
374 2 2 4 25 142 378 401
375 2 2 4 25 155 378 418
376 2 2 4 25 382 149 390
377 2 2 4 25 157 380 398
378 2 2 4 25 378 368 401
379 2 2 4 25 380 368 398
380 2 2 4 25 381 164 407
381 2 2 4 25 376 365 416
382 2 2 4 25 38 147 388
383 2 2 4 25 372 384 403
384 2 2 4 25 384 372 407
385 2 2 4 25 366 381 399
386 2 2 4 25 385 365 412
387 2 2 4 25 378 142 418
388 2 2 4 25 368 383 401
389 2 2 4 25 370 380 410
390 2 2 4 25 381 366 417
391 2 2 4 25 381 372 399
392 2 2 4 25 375 381 417
393 2 2 4 25 364 379 393
394 2 2 4 25 391 376 415
395 2 2 4 25 156 157 398
396 2 2 4 25 145 389 420
397 2 2 4 25 367 382 390
398 2 2 4 25 379 371 393
399 2 2 4 25 149 148 390
400 2 2 4 25 372 381 407
401 2 2 4 25 143 142 401
402 2 2 4 25 379 369 400
403 2 2 4 25 159 160 397
404 2 2 4 25 394 370 410
405 2 2 4 25 146 145 420
406 2 2 4 25 377 370 394
407 2 2 4 25 369 379 406
408 2 2 4 25 150 382 391
409 2 2 4 25 370 377 402
410 2 2 4 25 158 159 394
411 2 2 4 25 383 371 395
412 2 2 4 25 382 369 391
413 2 2 4 25 163 381 411
414 2 2 4 25 369 382 400
415 2 2 4 25 380 370 419
416 2 2 4 25 368 386 404
417 2 2 4 25 379 364 406
418 2 2 4 25 381 375 411
419 2 2 4 25 385 369 406
420 2 2 4 25 380 157 410
421 2 2 4 25 364 387 414
422 2 2 4 25 371 379 396
423 2 2 4 25 371 389 395
424 2 2 4 25 369 385 412
425 2 2 4 25 368 380 419
426 2 2 4 25 387 374 414
427 2 2 4 25 373 384 408
428 2 2 4 25 392 152 415
429 2 2 4 25 371 383 404
430 2 2 4 25 383 368 404
431 2 2 4 25 402 377 417
432 2 2 4 25 388 146 420
433 2 2 4 25 153 152 392
434 2 2 4 25 374 385 414
435 2 2 4 25 144 383 395
436 2 2 4 25 38 388 413
437 2 2 4 25 382 367 400
438 2 2 4 25 39 154 405
439 2 2 4 25 386 364 393
440 2 2 4 25 384 166 408
441 2 2 4 25 366 402 417
442 2 2 4 25 386 393 404
443 2 2 4 25 167 39 405
444 2 2 4 25 376 392 415
445 2 2 4 25 386 368 419
446 2 2 4 25 367 389 396
447 2 2 4 25 389 371 396
448 2 2 4 25 151 150 391
449 2 2 4 25 390 148 413
450 2 2 4 25 387 370 402
451 2 2 4 25 389 367 420
452 2 2 4 25 161 40 409
453 2 2 4 25 40 162 409
454 2 2 4 25 370 386 419
455 2 2 4 25 392 376 416
456 2 2 4 25 389 145 395
457 2 2 4 25 374 387 423
458 2 2 4 25 388 367 390
459 2 2 4 25 151 391 415
460 2 2 4 25 145 144 395
461 2 2 4 25 367 388 420
462 2 2 4 25 142 37 418
463 2 2 4 25 37 155 418
464 2 2 4 25 166 167 408
465 2 2 4 25 374 399 403
466 2 2 4 25 399 372 403
467 2 2 4 25 164 165 407
468 2 2 4 25 388 390 413
469 2 2 4 25 157 158 410
470 2 2 4 25 393 371 404
471 2 2 4 25 153 392 421
472 2 2 4 25 367 396 400
473 2 2 4 25 377 397 417
474 2 2 4 25 162 163 411
475 2 2 4 25 392 373 421
476 2 2 4 25 154 153 421
477 2 2 4 25 152 151 415
478 2 2 4 25 396 379 400
479 2 2 4 25 160 161 422
480 2 2 4 25 148 38 413
481 2 2 4 25 158 394 410
482 2 2 4 25 373 392 416
483 2 2 4 25 167 405 408
484 2 2 4 25 405 373 408
485 2 2 4 25 406 364 414
486 2 2 4 25 385 406 414
487 2 2 4 25 399 374 423
488 2 2 4 25 375 397 422
489 2 2 4 25 387 402 423
490 2 2 4 25 402 366 423
491 2 2 4 25 397 160 422
492 2 2 4 25 397 375 417
493 2 2 4 25 405 154 421
494 2 2 4 25 375 409 411
495 2 2 4 25 366 399 423
496 2 2 4 25 409 162 411
497 2 2 4 25 409 375 422
498 2 2 4 25 373 405 421
499 2 2 4 25 161 409 422
500 2 2 2 26 57 168 1
501 2 2 2 26 168 57 424
502 2 2 2 26 169 58 3
503 2 2 2 26 41 168 424
504 2 2 2 26 57 2 424
505 2 2 2 26 169 41 424
506 2 2 2 26 58 169 424
507 2 2 2 26 2 58 424
508 2 2 3 27 51 212 425
509 2 2 3 27 147 267 425
510 2 2 3 27 259 142 37
511 2 2 3 27 38 147 425
512 2 2 3 27 212 148 38
513 2 2 3 27 203 39 154
514 2 2 3 27 267 51 425
515 2 2 3 27 260 143 142
516 2 2 3 27 260 142 259
517 2 2 3 27 144 143 262
518 2 2 3 27 143 260 261
519 2 2 3 27 143 261 262
520 2 2 3 27 145 144 263
521 2 2 3 27 144 262 263
522 2 2 3 27 265 146 145
523 2 2 3 27 264 145 263
524 2 2 3 27 264 265 145
525 2 2 3 27 266 147 146
526 2 2 3 27 266 146 265
527 2 2 3 27 266 267 147
528 2 2 3 27 210 149 148
529 2 2 3 27 211 210 148
530 2 2 3 27 148 212 211
531 2 2 3 27 209 150 149
532 2 2 3 27 149 210 209
533 2 2 3 27 208 151 150
534 2 2 3 27 150 209 208
535 2 2 3 27 207 152 151
536 2 2 3 27 151 208 207
537 2 2 3 27 205 153 152
538 2 2 3 27 152 206 205
539 2 2 3 27 152 207 206
540 2 2 3 27 204 154 153
541 2 2 3 27 153 205 204
542 2 2 3 27 154 204 203
543 2 2 3 27 43 259 37
544 2 2 3 27 212 38 425
545 2 2 3 27 39 203 47
546 2 2 3 28 266 275 276
547 2 2 3 28 266 276 267
548 2 2 3 28 268 426 44
549 2 2 3 28 426 170 44
550 2 2 3 28 427 276 52
551 2 2 3 28 213 427 52
552 2 2 3 28 272 273 264
553 2 2 3 28 270 261 260
554 2 2 3 28 264 263 272
555 2 2 3 28 269 270 260
556 2 2 3 28 267 427 51
557 2 2 3 28 427 267 276
558 2 2 3 28 427 213 51
559 2 2 3 28 426 259 43
560 2 2 3 28 259 426 268
561 2 2 3 28 170 426 43
562 2 2 3 28 275 266 265
563 2 2 3 28 268 269 259
564 2 2 3 28 264 273 274
565 2 2 3 28 264 274 265
566 2 2 3 28 271 262 270
567 2 2 3 28 270 262 261
568 2 2 3 28 260 259 269
569 2 2 3 28 272 263 271
570 2 2 3 28 274 275 265
571 2 2 3 28 263 262 271
572 2 2 3 29 440 173 462
573 2 2 3 29 173 440 461
574 2 2 3 29 216 441 464
575 2 2 3 29 441 216 463
576 2 2 3 29 440 432 444
577 2 2 3 29 433 441 443
578 2 2 3 29 441 431 443
579 2 2 3 29 430 440 444
580 2 2 3 29 173 174 462
581 2 2 3 29 172 173 461
582 2 2 3 29 217 216 464
583 2 2 3 29 216 215 463
584 2 2 3 29 428 465 468
585 2 2 3 29 434 455 458
586 2 2 3 29 455 438 458
587 2 2 3 29 428 459 466
588 2 2 3 29 454 437 465
589 2 2 3 29 436 453 466
590 2 2 3 29 435 454 465
591 2 2 3 29 453 434 466
592 2 2 3 29 429 458 460
593 2 2 3 29 272 454 456
594 2 2 3 29 453 281 455
595 2 2 3 29 465 437 468
596 2 2 3 29 432 450 459
597 2 2 3 29 452 433 460
598 2 2 3 29 450 436 459
599 2 2 3 29 438 452 460
600 2 2 3 29 459 436 466
601 2 2 3 29 458 438 460
602 2 2 3 29 440 430 461
603 2 2 3 29 432 440 462
604 2 2 3 29 431 441 463
605 2 2 3 29 441 433 464
606 2 2 3 29 431 451 467
607 2 2 3 29 449 430 468
608 2 2 3 29 451 439 467
609 2 2 3 29 437 449 468
610 2 2 3 29 454 435 456
611 2 2 3 29 434 453 455
612 2 2 3 29 270 269 449
613 2 2 3 29 278 279 450
614 2 2 3 29 275 274 451
615 2 2 3 29 283 284 452
616 2 2 3 29 446 430 476
617 2 2 3 29 431 445 474
618 2 2 3 29 432 448 477
619 2 2 3 29 447 433 475
620 2 2 3 29 444 428 468
621 2 2 3 29 429 443 467
622 2 2 3 29 273 272 456
623 2 2 3 29 281 282 455
624 2 2 3 29 280 281 453
625 2 2 3 29 272 271 454
626 2 2 3 29 443 429 460
627 2 2 3 29 428 444 459
628 2 2 3 29 430 449 476
629 2 2 3 29 450 432 477
630 2 2 3 29 451 431 474
631 2 2 3 29 433 452 475
632 2 2 3 29 444 432 459
633 2 2 3 29 433 443 460
634 2 2 3 29 435 442 457
635 2 2 3 29 442 428 466
636 2 2 3 29 428 442 465
637 2 2 3 29 442 435 465
638 2 2 3 29 434 442 466
639 2 2 3 29 445 431 463
640 2 2 3 29 430 446 461
641 2 2 3 29 433 447 464
642 2 2 3 29 448 432 462
643 2 2 3 29 429 457 458
644 2 2 3 29 443 431 467
645 2 2 3 29 430 444 468
646 2 2 3 29 442 434 478
647 2 2 3 29 268 446 476
648 2 2 3 29 448 277 477
649 2 2 3 29 445 276 474
650 2 2 3 29 285 447 475
651 2 2 3 29 451 274 473
652 2 2 3 29 283 452 472
653 2 2 3 29 270 449 470
654 2 2 3 29 450 279 471
655 2 2 3 29 449 437 470
656 2 2 3 29 439 451 473
657 2 2 3 29 436 450 471
658 2 2 3 29 452 438 472
659 2 2 3 29 446 268 481
660 2 2 3 29 276 445 480
661 2 2 3 29 277 448 483
662 2 2 3 29 447 285 482
663 2 2 3 29 458 457 478
664 2 2 3 29 280 453 471
665 2 2 3 29 453 436 471
666 2 2 3 29 437 454 470
667 2 2 3 29 454 271 470
668 2 2 3 29 455 282 472
669 2 2 3 29 273 456 473
670 2 2 3 29 438 455 472
671 2 2 3 29 456 439 473
672 2 2 3 29 269 268 476
673 2 2 3 29 277 278 477
674 2 2 3 29 276 275 474
675 2 2 3 29 284 285 475
676 2 2 3 29 456 435 469
677 2 2 3 29 439 456 469
678 2 2 3 29 449 269 476
679 2 2 3 29 278 450 477
680 2 2 3 29 275 451 474
681 2 2 3 29 452 284 475
682 2 2 3 29 429 467 479
683 2 2 3 29 457 429 479
684 2 2 3 29 52 276 480
685 2 2 3 29 285 53 482
686 2 2 3 29 268 44 481
687 2 2 3 29 45 277 483
688 2 2 3 29 279 280 471
689 2 2 3 29 271 270 470
690 2 2 3 29 274 273 473
691 2 2 3 29 282 283 472
692 2 2 3 29 214 52 480
693 2 2 3 29 53 218 482
694 2 2 3 29 44 171 481
695 2 2 3 29 175 45 483
696 2 2 3 29 435 457 469
697 2 2 3 29 171 172 484
698 2 2 3 29 215 214 485
699 2 2 3 29 174 175 486
700 2 2 3 29 218 217 487
701 2 2 3 29 469 457 479
702 2 2 3 29 457 442 478
703 2 2 3 29 467 439 479
704 2 2 3 29 434 458 478
705 2 2 3 29 172 461 484
706 2 2 3 29 463 215 485
707 2 2 3 29 462 174 486
708 2 2 3 29 217 464 487
709 2 2 3 29 461 446 484
710 2 2 3 29 448 462 486
711 2 2 3 29 445 463 485
712 2 2 3 29 464 447 487
713 2 2 3 29 481 171 484
714 2 2 3 29 175 483 486
715 2 2 3 29 214 480 485
716 2 2 3 29 482 218 487
717 2 2 3 29 446 481 484
718 2 2 3 29 483 448 486
719 2 2 3 29 480 445 485
720 2 2 3 29 447 482 487
721 2 2 3 29 439 469 479
722 2 2 3 30 284 293 294
723 2 2 3 30 284 294 285
724 2 2 3 30 290 281 289
725 2 2 3 30 289 281 280
726 2 2 3 30 287 288 278
727 2 2 3 30 278 288 279
728 2 2 3 30 488 294 54
729 2 2 3 30 219 488 54
730 2 2 3 30 286 489 46
731 2 2 3 30 489 176 46
732 2 2 3 30 280 279 288
733 2 2 3 30 278 277 287
734 2 2 3 30 288 289 280
735 2 2 3 30 286 287 277
736 2 2 3 30 285 488 53
737 2 2 3 30 488 285 294
738 2 2 3 30 488 219 53
739 2 2 3 30 489 277 45
740 2 2 3 30 277 489 286
741 2 2 3 30 176 489 45
742 2 2 3 30 292 293 284
743 2 2 3 30 292 284 283
744 2 2 3 30 283 282 292
745 2 2 3 30 291 292 282
746 2 2 3 30 281 290 291
747 2 2 3 30 281 291 282
748 2 2 3 31 181 182 517
749 2 2 3 31 225 224 518
750 2 2 3 31 179 521 561
751 2 2 3 31 522 184 563
752 2 2 3 31 524 222 564
753 2 2 3 31 227 523 562
754 2 2 3 31 497 525 541
755 2 2 3 31 498 526 542
756 2 2 3 31 538 177 561
757 2 2 3 31 537 229 562
758 2 2 3 31 186 539 563
759 2 2 3 31 220 540 564
760 2 2 3 31 177 178 561
761 2 2 3 31 229 228 562
762 2 2 3 31 185 186 563
763 2 2 3 31 221 220 564
764 2 2 3 31 497 519 559
765 2 2 3 31 498 520 560
766 2 2 3 31 222 221 564
767 2 2 3 31 184 185 563
768 2 2 3 31 178 179 561
769 2 2 3 31 228 227 562
770 2 2 3 31 498 560 588
771 2 2 3 31 497 559 587
772 2 2 3 31 503 557 585
773 2 2 3 31 504 558 586
774 2 2 3 31 557 515 585
775 2 2 3 31 558 516 586
776 2 2 3 31 497 541 583
777 2 2 3 31 498 542 584
778 2 2 3 31 505 527 553
779 2 2 3 31 507 528 554
780 2 2 3 31 527 491 553
781 2 2 3 31 528 492 554
782 2 2 3 31 199 198 526
783 2 2 3 31 291 290 525
784 2 2 3 31 526 198 542
785 2 2 3 31 525 290 541
786 2 2 3 31 181 517 549
787 2 2 3 31 517 182 550
788 2 2 3 31 225 518 551
789 2 2 3 31 518 224 552
790 2 2 3 31 527 505 569
791 2 2 3 31 528 507 571
792 2 2 3 31 513 535 581
793 2 2 3 31 514 536 582
794 2 2 3 31 199 526 579
795 2 2 3 31 291 525 580
796 2 2 3 31 502 534 546
797 2 2 3 31 501 532 545
798 2 2 3 31 531 499 543
799 2 2 3 31 533 500 544
800 2 2 3 31 532 511 545
801 2 2 3 31 534 510 546
802 2 2 3 31 509 531 543
803 2 2 3 31 512 533 544
804 2 2 3 31 521 179 565
805 2 2 3 31 184 522 566
806 2 2 3 31 523 227 568
807 2 2 3 31 222 524 567
808 2 2 3 31 527 569 597
809 2 2 3 31 528 571 598
810 2 2 3 31 288 287 531
811 2 2 3 31 196 195 533
812 2 2 3 31 201 200 532
813 2 2 3 31 293 292 534
814 2 2 3 31 520 493 560
815 2 2 3 31 519 494 559
816 2 2 3 31 581 535 599
817 2 2 3 31 582 536 600
818 2 2 3 31 493 520 581
819 2 2 3 31 494 519 582
820 2 2 3 31 521 505 553
821 2 2 3 31 506 522 555
822 2 2 3 31 523 507 554
823 2 2 3 31 508 524 556
824 2 2 3 31 519 497 595
825 2 2 3 31 520 498 596
826 2 2 3 31 527 515 557
827 2 2 3 31 528 516 558
828 2 2 3 31 569 517 570
829 2 2 3 31 571 518 572
830 2 2 3 31 495 569 570
831 2 2 3 31 496 571 572
832 2 2 3 31 198 197 542
833 2 2 3 31 290 289 541
834 2 2 3 31 526 511 579
835 2 2 3 31 525 510 580
836 2 2 3 31 505 521 565
837 2 2 3 31 522 506 566
838 2 2 3 31 507 523 568
839 2 2 3 31 524 508 567
840 2 2 3 31 491 543 553
841 2 2 3 31 492 544 554
842 2 2 3 31 545 493 555
843 2 2 3 31 546 494 556
844 2 2 3 31 503 529 557
845 2 2 3 31 504 530 558
846 2 2 3 31 529 491 557
847 2 2 3 31 530 492 558
848 2 2 3 31 491 527 557
849 2 2 3 31 492 528 558
850 2 2 3 31 553 543 603
851 2 2 3 31 554 544 605
852 2 2 3 31 545 555 604
853 2 2 3 31 546 556 606
854 2 2 3 31 180 181 549
855 2 2 3 31 182 183 550
856 2 2 3 31 226 225 551
857 2 2 3 31 224 223 552
858 2 2 3 31 515 527 597
859 2 2 3 31 516 528 598
860 2 2 3 31 535 513 575
861 2 2 3 31 536 514 576
862 2 2 3 31 495 535 575
863 2 2 3 31 496 536 576
864 2 2 3 31 569 495 597
865 2 2 3 31 571 496 598
866 2 2 3 31 194 537 592
867 2 2 3 31 286 538 591
868 2 2 3 31 539 202 593
869 2 2 3 31 540 294 594
870 2 2 3 31 595 503 602
871 2 2 3 31 596 504 601
872 2 2 3 31 525 497 587
873 2 2 3 31 526 498 588
874 2 2 3 31 510 525 587
875 2 2 3 31 511 526 588
876 2 2 3 31 493 545 560
877 2 2 3 31 494 546 559
878 2 2 3 31 545 511 560
879 2 2 3 31 546 510 559
880 2 2 3 31 510 534 580
881 2 2 3 31 511 532 579
882 2 2 3 31 533 512 578
883 2 2 3 31 531 509 577
884 2 2 3 31 534 292 580
885 2 2 3 31 532 200 579
886 2 2 3 31 288 531 577
887 2 2 3 31 196 533 578
888 2 2 3 31 499 531 591
889 2 2 3 31 532 501 593
890 2 2 3 31 500 533 592
891 2 2 3 31 534 502 594
892 2 2 3 31 179 180 565
893 2 2 3 31 183 184 566
894 2 2 3 31 227 226 568
895 2 2 3 31 223 222 567
896 2 2 3 31 531 287 591
897 2 2 3 31 533 195 592
898 2 2 3 31 201 532 593
899 2 2 3 31 293 534 594
900 2 2 3 31 195 194 592
901 2 2 3 31 287 286 591
902 2 2 3 31 202 201 593
903 2 2 3 31 294 293 594
904 2 2 3 31 541 509 583
905 2 2 3 31 542 512 584
906 2 2 3 31 499 538 561
907 2 2 3 31 500 537 562
908 2 2 3 31 539 501 563
909 2 2 3 31 540 502 564
910 2 2 3 31 506 535 570
911 2 2 3 31 508 536 572
912 2 2 3 31 535 495 570
913 2 2 3 31 536 496 572
914 2 2 3 31 538 499 591
915 2 2 3 31 537 500 592
916 2 2 3 31 501 539 593
917 2 2 3 31 502 540 594
918 2 2 3 31 535 506 599
919 2 2 3 31 536 508 600
920 2 2 3 31 497 529 595
921 2 2 3 31 498 530 596
922 2 2 3 31 519 595 602
923 2 2 3 31 520 596 601
924 2 2 3 31 529 497 583
925 2 2 3 31 530 498 584
926 2 2 3 31 509 541 577
927 2 2 3 31 512 542 578
928 2 2 3 31 541 289 577
929 2 2 3 31 542 197 578
930 2 2 3 31 491 529 589
931 2 2 3 31 492 530 590
932 2 2 3 31 549 517 569
933 2 2 3 31 517 550 570
934 2 2 3 31 551 518 571
935 2 2 3 31 518 552 572
936 2 2 3 31 505 549 569
937 2 2 3 31 550 506 570
938 2 2 3 31 507 551 571
939 2 2 3 31 552 508 572
940 2 2 3 31 529 503 595
941 2 2 3 31 530 504 596
942 2 2 3 31 180 549 565
943 2 2 3 31 550 183 566
944 2 2 3 31 552 223 567
945 2 2 3 31 226 551 568
946 2 2 3 31 547 503 585
947 2 2 3 31 548 504 586
948 2 2 3 31 548 490 573
949 2 2 3 31 547 490 574
950 2 2 3 31 513 548 573
951 2 2 3 31 514 547 574
952 2 2 3 31 503 547 602
953 2 2 3 31 504 548 601
954 2 2 3 31 549 505 565
955 2 2 3 31 506 550 566
956 2 2 3 31 551 507 568
957 2 2 3 31 508 552 567
958 2 2 3 31 506 555 599
959 2 2 3 31 508 556 600
960 2 2 3 31 561 521 603
961 2 2 3 31 522 563 604
962 2 2 3 31 562 523 605
963 2 2 3 31 524 564 606
964 2 2 3 31 499 561 603
965 2 2 3 31 563 501 604
966 2 2 3 31 500 562 605
967 2 2 3 31 564 502 606
968 2 2 3 31 229 537 608
969 2 2 3 31 177 538 607
970 2 2 3 31 539 186 609
971 2 2 3 31 540 220 610
972 2 2 3 31 537 194 608
973 2 2 3 31 538 286 607
974 2 2 3 31 202 539 609
975 2 2 3 31 294 540 610
976 2 2 3 31 543 499 603
977 2 2 3 31 544 500 605
978 2 2 3 31 501 545 604
979 2 2 3 31 502 546 606
980 2 2 3 31 289 288 577
981 2 2 3 31 197 196 578
982 2 2 3 31 200 199 579
983 2 2 3 31 292 291 580
984 2 2 3 31 509 543 589
985 2 2 3 31 512 544 590
986 2 2 3 31 493 581 599
987 2 2 3 31 494 582 600
988 2 2 3 31 548 513 601
989 2 2 3 31 547 514 602
990 2 2 3 31 490 547 585
991 2 2 3 31 490 548 586
992 2 2 3 31 573 515 575
993 2 2 3 31 574 516 576
994 2 2 3 31 543 491 589
995 2 2 3 31 544 492 590
996 2 2 3 31 573 490 585
997 2 2 3 31 574 490 586
998 2 2 3 31 515 573 585
999 2 2 3 31 516 574 586
1000 2 2 3 31 54 294 610
1001 2 2 3 31 42 202 609
1002 2 2 3 31 286 46 607
1003 2 2 3 31 194 50 608
1004 2 2 3 31 50 229 608
1005 2 2 3 31 46 177 607
1006 2 2 3 31 186 42 609
1007 2 2 3 31 220 54 610
1008 2 2 3 31 513 573 575
1009 2 2 3 31 514 574 576
1010 2 2 3 31 559 510 587
1011 2 2 3 31 560 511 588
1012 2 2 3 31 555 493 599
1013 2 2 3 31 556 494 600
1014 2 2 3 31 575 515 597
1015 2 2 3 31 576 516 598
1016 2 2 3 31 513 581 601
1017 2 2 3 31 514 582 602
1018 2 2 3 31 521 553 603
1019 2 2 3 31 523 554 605
1020 2 2 3 31 555 522 604
1021 2 2 3 31 556 524 606
1022 2 2 3 31 583 509 589
1023 2 2 3 31 584 512 590
1024 2 2 3 31 495 575 597
1025 2 2 3 31 496 576 598
1026 2 2 3 31 529 583 589
1027 2 2 3 31 530 584 590
1028 2 2 3 31 581 520 601
1029 2 2 3 31 582 519 602
1030 2 2 3 32 205 232 231
1031 2 2 3 32 205 231 204
1032 2 2 3 32 611 230 48
1033 2 2 3 32 187 611 48
1034 2 2 3 32 612 255 55
1035 2 2 3 32 239 612 55
1036 2 2 3 32 207 208 234
1037 2 2 3 32 235 208 209
1038 2 2 3 32 234 208 235
1039 2 2 3 32 207 233 206
1040 2 2 3 32 212 612 239
1041 2 2 3 32 255 612 51
1042 2 2 3 32 612 212 51
1043 2 2 3 32 203 611 47
1044 2 2 3 32 611 203 230
1045 2 2 3 32 611 187 47
1046 2 2 3 32 238 211 239
1047 2 2 3 32 239 211 212
1048 2 2 3 32 204 231 230
1049 2 2 3 32 204 230 203
1050 2 2 3 32 206 233 232
1051 2 2 3 32 206 232 205
1052 2 2 3 32 211 238 237
1053 2 2 3 32 236 210 237
1054 2 2 3 32 237 210 211
1055 2 2 3 32 235 209 236
1056 2 2 3 32 236 209 210
1057 2 2 3 32 207 234 233
1058 2 2 3 33 255 51 213
1059 2 2 3 33 213 52 256
1060 2 2 3 33 255 213 256
1061 2 2 3 33 256 55 255
1062 2 2 3 34 613 257 56
1063 2 2 3 34 244 613 56
1064 2 2 3 34 256 614 55
1065 2 2 3 34 614 240 55
1066 2 2 3 34 242 217 243
1067 2 2 3 34 241 215 242
1068 2 2 3 34 240 215 241
1069 2 2 3 34 242 215 216
1070 2 2 3 34 218 613 244
1071 2 2 3 34 257 613 53
1072 2 2 3 34 613 218 53
1073 2 2 3 34 614 214 240
1074 2 2 3 34 614 256 52
1075 2 2 3 34 214 614 52
1076 2 2 3 34 217 242 216
1077 2 2 3 34 243 217 244
1078 2 2 3 34 244 217 218
1079 2 2 3 34 240 214 215
1080 2 2 3 35 257 53 219
1081 2 2 3 35 219 54 258
1082 2 2 3 35 257 219 258
1083 2 2 3 35 257 258 56
1084 2 2 3 36 247 246 222
1085 2 2 3 36 222 246 221
1086 2 2 3 36 224 249 248
1087 2 2 3 36 224 248 223
1088 2 2 3 36 225 250 249
1089 2 2 3 36 225 249 224
1090 2 2 3 36 615 229 50
1091 2 2 3 36 193 615 50
1092 2 2 3 36 258 616 56
1093 2 2 3 36 616 245 56
1094 2 2 3 36 254 615 49
1095 2 2 3 36 615 254 229
1096 2 2 3 36 615 193 49
1097 2 2 3 36 251 250 225
1098 2 2 3 36 225 226 251
1099 2 2 3 36 245 221 246
1100 2 2 3 36 245 220 221
1101 2 2 3 36 616 220 245
1102 2 2 3 36 616 258 54
1103 2 2 3 36 220 616 54
1104 2 2 3 36 253 228 254
1105 2 2 3 36 254 228 229
1106 2 2 3 36 223 248 247
1107 2 2 3 36 223 247 222
1108 2 2 3 36 227 228 253
1109 2 2 3 36 252 251 227
1110 2 2 3 36 227 251 226
1111 2 2 3 36 253 252 227
1112 2 2 3 37 629 242 652
1113 2 2 3 37 190 630 653
1114 2 2 3 37 630 190 651
1115 2 2 3 37 242 629 650
1116 2 2 3 37 254 642 655
1117 2 2 3 37 641 245 654
1118 2 2 3 37 634 252 655
1119 2 2 3 37 247 633 654
1120 2 2 3 37 635 237 656
1121 2 2 3 37 232 636 657
1122 2 2 3 37 253 254 655
1123 2 2 3 37 245 246 654
1124 2 2 3 37 629 623 638
1125 2 2 3 37 624 630 637
1126 2 2 3 37 631 617 671
1127 2 2 3 37 618 632 672
1128 2 2 3 37 640 230 657
1129 2 2 3 37 239 639 656
1130 2 2 3 37 660 631 671
1131 2 2 3 37 632 661 672
1132 2 2 3 37 630 622 637
1133 2 2 3 37 621 629 638
1134 2 2 3 37 230 231 657
1135 2 2 3 37 238 239 656
1136 2 2 3 37 237 238 656
1137 2 2 3 37 231 232 657
1138 2 2 3 37 252 253 655
1139 2 2 3 37 246 247 654
1140 2 2 3 37 191 190 653
1141 2 2 3 37 242 243 652
1142 2 2 3 37 190 189 651
1143 2 2 3 37 241 242 650
1144 2 2 3 37 627 635 649
1145 2 2 3 37 636 628 648
1146 2 2 3 37 633 625 671
1147 2 2 3 37 626 634 672
1148 2 2 3 37 646 633 671
1149 2 2 3 37 634 647 672
1150 2 2 3 37 629 621 650
1151 2 2 3 37 622 630 651
1152 2 2 3 37 623 629 652
1153 2 2 3 37 630 624 653
1154 2 2 3 37 620 631 670
1155 2 2 3 37 632 620 670
1156 2 2 3 37 634 624 647
1157 2 2 3 37 623 633 646
1158 2 2 3 37 627 649 667
1159 2 2 3 37 648 628 666
1160 2 2 3 37 635 621 649
1161 2 2 3 37 622 636 648
1162 2 2 3 37 644 620 645
1163 2 2 3 37 249 250 643
1164 2 2 3 37 638 623 646
1165 2 2 3 37 624 637 647
1166 2 2 3 37 617 631 667
1167 2 2 3 37 632 618 666
1168 2 2 3 37 624 634 655
1169 2 2 3 37 633 623 654
1170 2 2 3 37 631 620 668
1171 2 2 3 37 620 632 669
1172 2 2 3 37 633 247 662
1173 2 2 3 37 252 634 663
1174 2 2 3 37 637 622 648
1175 2 2 3 37 621 638 649
1176 2 2 3 37 621 635 656
1177 2 2 3 37 636 622 657
1178 2 2 3 37 634 626 663
1179 2 2 3 37 625 633 662
1180 2 2 3 37 237 635 664
1181 2 2 3 37 636 232 665
1182 2 2 3 37 644 645 675
1183 2 2 3 37 635 627 664
1184 2 2 3 37 628 636 665
1185 2 2 3 37 617 638 646
1186 2 2 3 37 637 618 647
1187 2 2 3 37 618 637 648
1188 2 2 3 37 638 617 649
1189 2 2 3 37 621 639 650
1190 2 2 3 37 640 622 651
1191 2 2 3 37 641 623 652
1192 2 2 3 37 624 642 653
1193 2 2 3 37 623 641 654
1194 2 2 3 37 642 624 655
1195 2 2 3 37 639 621 656
1196 2 2 3 37 622 640 657
1197 2 2 3 37 618 648 666
1198 2 2 3 37 649 617 667
1199 2 2 3 37 639 239 676
1200 2 2 3 37 230 640 679
1201 2 2 3 37 642 254 678
1202 2 2 3 37 245 641 677
1203 2 2 3 37 249 643 658
1204 2 2 3 37 643 250 659
1205 2 2 3 37 248 249 658
1206 2 2 3 37 250 251 659
1207 2 2 3 37 619 661 670
1208 2 2 3 37 660 619 670
1209 2 2 3 37 631 660 670
1210 2 2 3 37 661 632 670
1211 2 2 3 37 247 248 662
1212 2 2 3 37 251 252 663
1213 2 2 3 37 643 619 673
1214 2 2 3 37 619 643 674
1215 2 2 3 37 659 251 663
1216 2 2 3 37 248 658 662
1217 2 2 3 37 232 233 665
1218 2 2 3 37 236 237 664
1219 2 2 3 37 620 644 668
1220 2 2 3 37 644 627 668
1221 2 2 3 37 645 620 669
1222 2 2 3 37 628 645 669
1223 2 2 3 37 644 235 684
1224 2 2 3 37 234 645 685
1225 2 2 3 37 627 644 684
1226 2 2 3 37 645 628 685
1227 2 2 3 37 626 659 663
1228 2 2 3 37 658 625 662
1229 2 2 3 37 235 236 684
1230 2 2 3 37 233 234 685
1231 2 2 3 37 235 644 675
1232 2 2 3 37 645 234 675
1233 2 2 3 37 239 55 676
1234 2 2 3 37 254 49 678
1235 2 2 3 37 56 245 677
1236 2 2 3 37 48 230 679
1237 2 2 3 37 55 240 676
1238 2 2 3 37 49 192 678
1239 2 2 3 37 244 56 677
1240 2 2 3 37 188 48 679
1241 2 2 3 37 234 235 675
1242 2 2 3 37 625 660 671
1243 2 2 3 37 661 626 672
1244 2 2 3 37 240 241 680
1245 2 2 3 37 189 188 681
1246 2 2 3 37 192 191 683
1247 2 2 3 37 243 244 682
1248 2 2 3 37 617 646 671
1249 2 2 3 37 647 618 672
1250 2 2 3 37 632 666 669
1251 2 2 3 37 667 631 668
1252 2 2 3 37 664 627 684
1253 2 2 3 37 628 665 685
1254 2 2 3 37 625 658 673
1255 2 2 3 37 659 626 674
1256 2 2 3 37 241 650 680
1257 2 2 3 37 651 189 681
1258 2 2 3 37 652 243 682
1259 2 2 3 37 191 653 683
1260 2 2 3 37 650 639 680
1261 2 2 3 37 640 651 681
1262 2 2 3 37 641 652 682
1263 2 2 3 37 653 642 683
1264 2 2 3 37 660 625 673
1265 2 2 3 37 626 661 674
1266 2 2 3 37 619 660 673
1267 2 2 3 37 661 619 674
1268 2 2 3 37 658 643 673
1269 2 2 3 37 643 659 674
1270 2 2 3 37 627 667 668
1271 2 2 3 37 666 628 669
1272 2 2 3 37 676 240 680
1273 2 2 3 37 188 679 681
1274 2 2 3 37 244 677 682
1275 2 2 3 37 678 192 683
1276 2 2 3 37 639 676 680
1277 2 2 3 37 679 640 681
1278 2 2 3 37 677 641 682
1279 2 2 3 37 642 678 683
1280 2 2 3 37 236 664 684
1281 2 2 3 37 665 233 685
$EndElements
