$MeshFormat
2.2 0 8
$EndMeshFormat
$Nodes
632
1 12.7 0 0
2 9.994 7.837 0
3 9.738 8.151999999999999 0
4 9.468 8.464 0
5 9.202999999999999 8.752000000000001 0
6 8.965999999999999 8.994999999999999 0
7 0 12.7 0
8 -8.965999999999999 8.994999999999999 0
9 -9.202999999999999 8.752000000000001 0
10 -9.468 8.464 0
11 -9.738 8.151999999999999 0
12 -9.994 7.837 0
13 -12.7 0 0
14 -9.994 -7.837 0
15 -9.738 -8.151999999999999 0
16 -9.468 -8.464 0
17 -9.202999999999999 -8.752000000000001 0
18 -8.965999999999999 -8.994999999999999 0
19 0 -12.7 0
20 8.965999999999999 -8.994999999999999 0
21 9.202999999999999 -8.752000000000001 0
22 9.468 -8.464 0
23 9.738 -8.151999999999999 0
24 9.994 -7.837 0
25 12.938 0 5.101
26 10.251 8.039 5.101
27 10.024 8.391 5.101
28 9.765000000000001 8.73 5.101
29 9.473000000000001 9.007999999999999 5.101
30 9.182 9.212 5.101
31 0 12.845 5.101
32 -9.182 9.212 5.101
33 -9.473000000000001 9.007999999999999 5.101
34 -9.765000000000001 8.73 5.101
35 -10.024 8.391 5.101
36 -10.251 8.039 5.101
37 -12.938 0 5.101
38 -10.251 -8.039 5.101
39 -10.024 -8.391 5.101
40 -9.765000000000001 -8.73 5.101
41 -9.473000000000001 -9.007999999999999 5.101
42 -9.182 -9.212 5.101
43 0 -12.845 5.101
44 9.182 -9.212 5.101
45 9.473000000000001 -9.007999999999999 5.101
46 9.765000000000001 -8.73 5.101
47 10.024 -8.391 5.101
48 10.251 -8.039 5.101
49 14.477 0 14.247
50 11.873 9.311 14.247
51 11.803 9.881 14.247
52 11.606 10.376 14.247
53 11.156 10.608 14.247
54 10.555 10.589 14.247
55 0 13.814 14.247
56 -10.555 10.589 14.247
57 -11.156 10.608 14.247
58 -11.606 10.376 14.247
59 -11.803 9.881 14.247
60 -11.873 9.311 14.247
61 -14.477 0 14.247
62 -11.873 -9.311 14.247
63 -11.803 -9.881 14.247
64 -11.606 -10.376 14.247
65 -11.156 -10.608 14.247
66 -10.555 -10.589 14.247
67 0 -13.814 14.247
68 10.555 -10.589 14.247
69 11.156 -10.608 14.247
70 11.606 -10.376 14.247
71 11.803 -9.881 14.247
72 11.873 -9.311 14.247
73 18.874 0 28.25
74 16.283 12.77 28.25
75 16.537 13.844 28.25
76 16.446 14.702 28.25
77 15.63 14.864 28.25
78 14.326 14.372 28.25
79 0 16.781 28.25
80 -14.326 14.372 28.25
81 -15.63 14.864 28.25
82 -16.446 14.702 28.25
83 -16.537 13.844 28.25
84 -16.283 12.77 28.25
85 -18.874 0 28.25
86 -16.283 -12.77 28.25
87 -16.537 -13.844 28.25
88 -16.446 -14.702 28.25
89 -15.63 -14.864 28.25
90 -14.326 -14.372 28.25
91 0 -16.781 28.25
92 14.326 -14.372 28.25
93 15.63 -14.864 28.25
94 16.446 -14.702 28.25
95 16.537 -13.844 28.25
96 16.283 -12.77 28.25
97 27.668 0 48.483
98 24.671 19.347 48.483
99 25.364 21.233 48.483
100 25.379 22.689 48.483
101 23.974 22.798 48.483
102 21.568 21.637 48.483
103 0 23.217 48.483
104 -21.568 21.637 48.483
105 -23.974 22.798 48.483
106 -25.379 22.689 48.483
107 -25.364 21.233 48.483
108 -24.671 19.347 48.483
109 -27.668 0 48.483
110 -24.671 -19.347 48.483
111 -25.364 -21.233 48.483
112 -25.379 -22.689 48.483
113 -23.974 -22.798 48.483
114 -21.568 -21.637 48.483
115 0 -23.217 48.483
116 21.568 -21.637 48.483
117 23.974 -22.798 48.483
118 25.379 -22.689 48.483
119 25.364 -21.233 48.483
120 24.671 -19.347 48.483
121 41.488 0 74.58
122 37.406 29.334 74.58
123 38.591 32.306 74.58
124 38.677 34.577 74.58
125 36.475 34.686 74.58
126 32.639 32.743 74.58
127 0 34.013 74.58
128 -32.639 32.743 74.58
129 -36.475 34.686 74.58
130 -38.677 34.577 74.58
131 -38.591 32.306 74.58
132 -37.406 29.334 74.58
133 -41.488 0 74.58
134 -37.406 -29.334 74.58
135 -38.591 -32.306 74.58
136 -38.677 -34.577 74.58
137 -36.475 -34.686 74.58
138 -32.639 -32.743 74.58
139 0 -34.013 74.58
140 32.639 -32.743 74.58
141 36.475 -34.686 74.58
142 38.677 -34.577 74.58
143 38.591 -32.306 74.58
144 37.406 -29.334 74.58
145 61.574 0 104.952
146 55.8 43.759 104.952
147 57.403 48.055 104.952
148 57.427 51.34 104.952
149 54.218 51.559 104.952
150 48.693 48.849 104.952
151 0 50.509 104.952
152 -48.693 48.849 104.952
153 -54.218 51.559 104.952
154 -57.427 51.34 104.952
155 -57.403 48.055 104.952
156 -55.8 43.759 104.952
157 -61.574 0 104.952
158 -55.8 -43.759 104.952
159 -57.403 -48.055 104.952
160 -57.427 -51.34 104.952
161 -54.218 -51.559 104.952
162 -48.693 -48.849 104.952
163 0 -50.509 104.952
164 48.693 -48.849 104.952
165 54.218 -51.559 104.952
166 57.427 -51.34 104.952
167 57.403 -48.055 104.952
168 55.8 -43.759 104.952
169 91.131 0 135.23
170 84.108 65.958 135.23
171 85.64 71.693 135.23
172 85.123 76.101 135.23
173 80.67 76.71299999999999 135.23
174 73.42 73.65600000000001 135.23
175 0 75.693 135.23
176 -73.42 73.65600000000001 135.23
177 -80.67 76.71299999999999 135.23
178 -85.123 76.101 135.23
179 -85.64 71.693 135.23
180 -84.108 65.958 135.23
181 -91.131 0 135.23
182 -84.108 -65.958 135.23
183 -85.64 -71.693 135.23
184 -85.123 -76.101 135.23
185 -80.67 -76.71299999999999 135.23
186 -73.42 -73.65600000000001 135.23
187 0 -75.693 135.23
188 73.42 -73.65600000000001 135.23
189 80.67 -76.71299999999999 135.23
190 85.123 -76.101 135.23
191 85.64 -71.693 135.23
192 84.108 -65.958 135.23
193 131.504 0 160.33
194 125.042 98.059 160.33
195 125.618 105.161 160.33
196 123.77 110.651 160.33
197 117.863 112.083 160.33
198 109.136 109.486 160.33
199 0 110.768 160.33
200 -109.136 109.486 160.33
201 -117.863 112.083 160.33
202 -123.77 110.651 160.33
203 -125.618 105.161 160.33
204 -125.042 98.059 160.33
205 -131.504 0 160.33
206 -125.042 -98.059 160.33
207 -125.618 -105.161 160.33
208 -123.77 -110.651 160.33
209 -117.863 -112.083 160.33
210 -109.136 -109.486 160.33
211 0 -110.768 160.33
212 109.136 -109.486 160.33
213 117.863 -112.083 160.33
214 123.77 -110.651 160.33
215 125.618 -105.161 160.33
216 125.042 -98.059 160.33
217 179.36 0 179.147
218 175.07 137.291 179.147
219 173.94 145.614 179.147
220 170.121 152.089 179.147
221 162.656 154.679 179.147
222 152.761 153.251 179.147
223 0 152.791 179.147
224 -152.761 153.251 179.147
225 -162.656 154.679 179.147
226 -170.121 152.089 179.147
227 -173.94 145.614 179.147
228 -175.07 137.291 179.147
229 -179.36 0 179.147
230 -175.07 -137.291 179.147
231 -173.94 -145.614 179.147
232 -170.121 -152.089 179.147
233 -162.656 -154.679 179.147
234 -152.761 -153.251 179.147
235 0 -152.791 179.147
236 152.761 -153.251 179.147
237 162.656 -154.679 179.147
238 170.121 -152.089 179.147
239 173.94 -145.614 179.147
240 175.07 -137.291 179.147
241 225.01 0 191.55
242 222.94 174.832 191.55
243 219.966 184.144 191.55
244 214.132 191.435 191.55
245 205.275 195.208 191.55
246 194.533 195.157 191.55
247 0 193.308 191.55
248 -194.533 195.157 191.55
249 -205.275 195.208 191.55
250 -214.132 191.435 191.55
251 -219.966 184.144 191.55
252 -222.94 174.832 191.55
253 -225.01 0 191.55
254 -222.94 -174.832 191.55
255 -219.966 -184.144 191.55
256 -214.132 -191.435 191.55
257 -205.275 -195.208 191.55
258 -194.533 -195.157 191.55
259 0 -193.308 191.55
260 194.533 -195.157 191.55
261 205.275 -195.208 191.55
262 214.132 -191.435 191.55
263 219.966 -184.144 191.55
264 222.94 -174.832 191.55
265 262.821 0 198.986
266 261.688 205.218 198.986
267 257.186 215.303 198.986
268 249.723 223.254 198.986
269 239.78 228.021 198.986
270 228.424 229.156 198.986
271 0 227.422 198.986
272 -228.424 229.156 198.986
273 -239.78 228.021 198.986
274 -249.723 223.254 198.986
275 -257.186 215.303 198.986
276 -261.688 205.218 198.986
277 -262.821 0 198.986
278 -261.688 -205.218 198.986
279 -257.186 -215.303 198.986
280 -249.723 -223.254 198.986
281 -239.78 -228.021 198.986
282 -228.424 -229.156 198.986
283 0 -227.422 198.986
284 228.424 -229.156 198.986
285 239.78 -228.021 198.986
286 249.723 -223.254 198.986
287 257.186 -215.303 198.986
288 261.688 -205.218 198.986
289 287.539 0 202.318
290 285.677 224.031 202.318
291 280.275 234.632 202.318
292 271.862 243.046 202.318
293 261.26 248.448 202.318
294 249.508 250.309 202.318
295 0 250.309 202.318
296 -249.508 250.309 202.318
297 -261.26 248.448 202.318
298 -271.862 243.046 202.318
299 -280.275 234.632 202.318
300 -285.677 224.031 202.318
301 -287.539 0 202.318
302 -285.677 -224.031 202.318
303 -280.275 -234.632 202.318
304 -271.862 -243.046 202.318
305 -261.26 -248.448 202.318
306 -249.508 -250.309 202.318
307 0 -250.309 202.318
308 249.508 -250.309 202.318
309 261.26 -248.448 202.318
310 271.862 -243.046 202.318
311 280.275 -234.632 202.318
312 285.677 -224.031 202.318
313 87.61950000000947 32.9789999999111 135.23
314 104.5749999999509 82.00849999996147 147.7799999999699
315 105.6289999999551 88.4269999999624 147.7799999999718
316 104.4464999999564 93.375999999961 147.7799999999717
317 99.26649999995581 94.39799999995796 147.7799999999702
318 91.27799999995597 91.57099999995583 147.779999999969
319 36.71000000009728 74.67449999999731 135.23
320 -36.70999999990316 74.67450000000269 135.23
321 -91.27799999995597 91.57099999995583 147.779999999969
322 -99.26649999995581 94.39799999995796 147.7799999999702
323 -104.4464999999564 93.375999999961 147.7799999999717
324 -105.6289999999551 88.4269999999624 147.7799999999718
325 -104.5749999999509 82.00849999996147 147.7799999999699
326 -87.61949999999055 32.97900000008869 135.23
327 -87.61950000000947 -32.9789999999111 135.23
328 -104.5749999999509 -82.00849999996147 147.7799999999699
329 -105.6289999999551 -88.4269999999624 147.7799999999718
330 -104.4464999999564 -93.375999999961 147.7799999999717
331 -99.26649999995581 -94.39799999995796 147.7799999999702
332 -91.27799999995597 -91.57099999995583 147.779999999969
333 -36.71000000009728 -74.67449999999731 135.23
334 36.70999999990316 -74.67450000000269 135.23
335 91.27799999995597 -91.57099999995583 147.779999999969
336 99.26649999995581 -94.39799999995796 147.7799999999702
337 104.4464999999564 -93.375999999961 147.7799999999717
338 105.6289999999551 -88.4269999999624 147.7799999999718
339 104.5749999999509 -82.00849999996147 147.7799999999699
340 87.61949999999055 -32.97900000008869 135.23
341 155.4319999999358 0 169.7384999999747
342 128.2730000000084 49.02949999987232 160.33
343 150.0559999999677 117.6749999999747 169.7384999999879
344 149.7789999999482 125.3874999999566 169.7384999999798
345 146.9454999999297 131.3699999999371 169.7384999999715
346 140.2594999999344 133.3809999999376 169.7384999999724
347 130.9484999999744 131.3684999999743 169.738499999989
348 72.75733333341469 109.9133333333324 160.33
349 36.37866666675822 110.3406666666656 160.33
350 -36.37866666657963 110.3406666666677 160.33
351 -72.75733333323971 109.9133333333344 160.33
352 -130.9484999999744 131.3684999999743 169.738499999989
353 -140.2594999999344 133.3809999999376 169.7384999999724
354 -146.9454999999297 131.3699999999371 169.7384999999715
355 -149.7789999999482 125.3874999999566 169.7384999999798
356 -150.0559999999677 117.6749999999747 169.7384999999879
357 -128.2729999999916 49.02950000012779 160.33
358 -155.4319999999358 0 169.7384999999747
359 -128.2730000000084 -49.02949999987232 160.33
360 -150.0559999999677 -117.6749999999747 169.7384999999879
361 -149.7789999999482 -125.3874999999566 169.7384999999798
362 -146.9454999999297 -131.3699999999371 169.7384999999715
363 -140.2594999999344 -133.3809999999376 169.7384999999724
364 -130.9484999999744 -131.3684999999743 169.738499999989
365 -72.75733333341469 -109.9133333333324 160.33
366 -36.37866666675822 -110.3406666666656 160.33
367 36.37866666657963 -110.3406666666677 160.33
368 72.75733333323971 -109.9133333333344 160.33
369 130.9484999999744 -131.3684999999743 169.738499999989
370 140.2594999999344 -133.3809999999376 169.7384999999724
371 146.9454999999297 -131.3699999999371 169.7384999999715
372 149.7789999999482 -125.3874999999566 169.7384999999798
373 150.0559999999677 -117.6749999999747 169.7384999999879
374 128.2729999999916 -49.02950000012779 160.33
375 177.9300000000036 45.76366666655154 179.147
376 176.5000000000038 91.52733333321214 179.147
377 199.0049999999404 156.0614999999532 185.3484999999846
378 196.9529999999367 164.878999999947 185.3484999999829
379 192.1264999999576 171.761999999962 185.348499999988
380 183.9654999999619 174.9434999999638 185.3484999999889
381 173.6469999999575 174.2039999999574 185.3484999999874
382 114.5707500000889 153.1360000000003 179.147
383 76.38050000019435 153.0210000000006 179.147
384 38.19025000009441 152.9060000000003 179.147
385 -38.19024999991075 152.9059999999997 179.147
386 -76.38049999980163 153.0209999999994 179.147
387 -114.5707499999036 153.1359999999997 179.147
388 -173.6469999999575 174.2039999999574 185.3484999999874
389 -183.9654999999619 174.9434999999638 185.3484999999889
390 -192.1264999999576 171.761999999962 185.348499999988
391 -196.9529999999367 164.878999999947 185.3484999999829
392 -199.0049999999404 156.0614999999532 185.3484999999846
393 -176.4999999999963 91.52733333345151 179.147
394 -177.9299999999962 45.76366666678801 179.147
395 -177.9300000000036 -45.76366666655154 179.147
396 -176.5000000000038 -91.52733333321214 179.147
397 -199.0049999999404 -156.0614999999532 185.3484999999846
398 -196.9529999999367 -164.878999999947 185.3484999999829
399 -192.1264999999576 -171.761999999962 185.348499999988
400 -183.9654999999619 -174.9434999999638 185.3484999999889
401 -173.6469999999575 -174.2039999999574 185.3484999999874
402 -114.5707500000889 -153.1360000000003 179.147
403 -76.38050000019435 -153.0210000000006 179.147
404 -38.19025000009441 -152.9060000000003 179.147
405 38.19024999991075 -152.9059999999997 179.147
406 76.38049999980163 -153.0209999999994 179.147
407 114.5707499999036 -153.1359999999997 179.147
408 173.6469999999575 -174.2039999999574 185.3484999999874
409 183.9654999999619 -174.9434999999638 185.3484999999889
410 192.1264999999576 -171.761999999962 185.348499999988
411 196.9529999999367 -164.878999999947 185.3484999999829
412 199.0049999999404 -156.0614999999532 185.3484999999846
413 176.4999999999963 -91.52733333345151 179.147
414 177.9299999999962 -45.76366666678801 179.147
415 224.4925000000012 43.70799999989685 191.55
416 223.9750000000028 87.41599999976744 191.55
417 223.4575000000013 131.123999999885 191.55
418 145.8997500001096 194.6947500000011 191.55
419 97.26650000026376 194.2325000000025 191.55
420 48.63325000011798 193.7702500000011 191.55
421 -48.63324999988419 193.7702499999989 191.55
422 -97.26649999973957 194.2324999999975 191.55
423 -145.8997499998837 194.6947499999989 191.55
424 -223.4574999999988 131.1240000000972 191.55
425 -223.9749999999973 87.41600000023045 191.55
426 -224.4924999999986 43.70800000011391 191.55
427 -224.4925000000012 -43.70799999989685 191.55
428 -223.9750000000028 -87.41599999976744 191.55
429 -223.4575000000013 -131.123999999885 191.55
430 -145.8997500001096 -194.6947500000011 191.55
431 -97.26650000026376 -194.2325000000025 191.55
432 -48.63325000011798 -193.7702500000011 191.55
433 48.63324999988419 -193.7702499999989 191.55
434 97.26649999973957 -194.2324999999975 191.55
435 145.8997499998837 -194.6947499999989 191.55
436 223.4574999999988 -131.1240000000972 191.55
437 223.9749999999973 -87.41600000023045 191.55
438 224.4924999999986 -43.70800000011391 191.55
439 262.5944000000005 41.04359999991081 198.986
440 262.3678000000011 82.08719999979454 198.986
441 262.1412000000012 123.1307999997887 198.986
442 261.9146000000005 164.1743999999037 198.986
443 182.7392000001011 228.8092000000008 198.986
444 137.0544000002177 228.4624000000017 198.986
445 91.36960000023896 228.1156000000018 198.986
446 45.68480000012792 227.768800000001 198.986
447 -45.68479999989471 227.7687999999992 198.986
448 -91.36959999977047 228.1155999999983 198.986
449 -137.0543999997631 228.4623999999982 198.986
450 -182.7391999998731 228.809199999999 198.986
451 -261.9145999999995 164.1744000000865 198.986
452 -262.1411999999989 123.130800000203 198.986
453 -262.3677999999989 82.08720000020961 198.986
454 -262.5943999999995 41.04360000009544 198.986
455 -262.5944000000005 -41.04359999991081 198.986
456 -262.3678000000011 -82.08719999979454 198.986
457 -262.1412000000012 -123.1307999997887 198.986
458 -261.9146000000005 -164.1743999999037 198.986
459 -182.7392000001011 -228.8092000000008 198.986
460 -137.0544000002177 -228.4624000000017 198.986
461 -91.36960000023896 -228.1156000000018 198.986
462 -45.68480000012792 -227.768800000001 198.986
463 45.68479999989471 -227.7687999999992 198.986
464 91.36959999977047 -228.1155999999983 198.986
465 137.0543999997631 -228.4623999999982 198.986
466 182.7391999998731 -228.809199999999 198.986
467 261.9145999999995 -164.1744000000865 198.986
468 262.1411999999989 -123.130800000203 198.986
469 262.3677999999989 -82.08720000020961 198.986
470 262.5943999999995 -41.04360000009544 198.986
471 287.1666000000008 44.80619999990738 202.318
472 286.7942000000019 89.61239999977141 202.318
473 286.421800000002 134.4185999997598 202.318
474 286.049400000001 179.2247999998854 202.318
475 199.6064000001288 250.309 202.318
476 149.7048000002642 250.309 202.318
477 99.80320000027757 250.309 202.318
478 49.90160000013881 250.309 202.318
479 -49.90159999988748 250.309 202.318
480 -99.80319999974256 250.309 202.318
481 -149.7047999997336 250.309 202.318
482 -199.6063999998668 250.309 202.318
483 -286.0493999999991 179.2248000001044 202.318
484 -286.421799999998 134.4186000002353 202.318
485 -286.7941999999979 89.61240000024875 202.318
486 -287.166599999999 44.80620000011888 202.318
487 -287.1666000000008 -44.80619999990738 202.318
488 -286.7942000000019 -89.61239999977141 202.318
489 -286.421800000002 -134.4185999997598 202.318
490 -286.049400000001 -179.2247999998854 202.318
491 -199.6064000001288 -250.309 202.318
492 -149.7048000002642 -250.309 202.318
493 -99.80320000027757 -250.309 202.318
494 -49.90160000013881 -250.309 202.318
495 49.90159999988748 -250.309 202.318
496 99.80319999974256 -250.309 202.318
497 149.7047999997336 -250.309 202.318
498 199.6063999998668 -250.309 202.318
499 286.0493999999991 -179.2248000001044 202.318
500 286.421799999998 -134.4186000002353 202.318
501 286.7941999999979 -89.61240000024875 202.318
502 287.166599999999 -44.80620000011888 202.318
503 11.49016777395743 3.975490304593059 2.549594014859465
504 4.523573414607664 10.90406581143066 2.552512127301371
505 -4.550457999531532 10.97201358428256 2.549533136694575
506 -11.45136477639662 3.962520575218027 2.551733257453837
507 -11.49016777395743 -3.975490304593059 2.549594014859465
508 -4.523573414607664 -10.90406581143066 2.552512127301371
509 4.550457999531532 -10.97201358428256 2.549533136694575
510 11.45136477639662 -3.962520575218027 2.551733257453837
511 12.50746562623758 4.344075922530585 9.762369145226414
512 4.878407933688321 11.43223627599387 9.709899497594837
513 -4.991475154125359 11.80229038815292 9.654156966310936
514 -12.31443830505424 4.295544493775409 9.801817867310712
515 -12.50746562623758 -4.344075922530585 9.762369145226414
516 -4.878407933688321 -11.43223627599387 9.709899497594837
517 4.991475154125359 -11.80229038815292 9.654156966310936
518 12.31443830505424 -4.295544493775409 9.801817867310712
519 15.69021903251499 5.334854996929397 21.55788230479409
520 5.829400851023648 13.71871651125989 21.64959553987241
521 -5.84331499136537 14.35713010374723 21.44774855260886
522 -15.39520455364534 5.299786595121642 21.66605330337117
523 -15.69021903251499 -5.334854996929397 21.55788230479409
524 -5.829400851023648 -13.71871651125989 21.64959553987241
525 5.84331499136537 -14.35713010374723 21.44774855260886
526 15.39520455364534 -5.299786595121642 21.66605330337117
527 22.31542530529842 7.333986356668964 38.78182762641259
528 7.77768719386532 18.89947733918574 38.75583841616255
529 -7.761546237508831 19.48266020324964 38.53074469588719
530 -22.07702319603357 7.309595921121627 38.89292951247372
531 -22.31542530529842 -7.333986356668964 38.78182762641259
532 -7.77768719386532 -18.89947733918574 38.75583841616255
533 7.761546237508831 -19.48266020324964 38.53074469588719
534 22.07702319603357 -7.309595921121627 38.89292951247372
535 33.40508722321015 10.79250186933734 62.15263095663241
536 12.05375027203585 27.86791048369721 61.74032776382416
537 -12.0587864949756 28.17640875944957 61.60552266050406
538 -33.29432285412171 10.77901917197012 62.21264355988587
539 -33.40508722321015 -10.79250186933734 62.15263095663241
540 -12.05375027203585 -27.86791048369721 61.74032776382416
541 12.0587864949756 -28.17640875944957 61.60552266050406
542 33.29432285412171 -10.77901917197012 62.21264355988587
543 49.37356846712724 17.66769714209436 90.02883451103918
544 20.33197017968266 41.49829214414915 89.78256329717203
545 -20.33403431148021 41.55883959572682 89.74952159979222
546 -49.30253442573406 17.6584832934051 90.07613463995615
547 -49.37356846712724 -17.66769714209436 90.02883451103918
548 -20.33197017968266 -41.49829214414915 89.78256329717203
549 20.33403431148021 -41.55883959572682 89.74952159979222
550 49.30253442573406 -17.6584832934051 90.07613463995615
551 21.34949623972837 62.38618546591525 120.129048038274
552 -21.35201641435068 62.47702062759227 120.0530338369355
553 -75.27499428720098 14.98814920300754 121.152917739388
554 -21.34949623972836 -62.38618546591525 120.129048038274
555 21.35201641435068 -62.47702062759227 120.0530338369355
556 75.27499428720098 -14.98814920300754 121.152917739388
557 109.4002115446495 24.43927049517879 147.5892849572411
558 103.0932210875311 50.90249722268945 144.7524014325292
559 54.754090028922 92.15589651787752 147.887918905777
560 21.85238505249872 92.78755539059875 148.0576792430468
561 -54.75638965541275 92.35166254618007 147.6113849080628
562 -21.85462849303433 92.97853833631005 147.7834066826636
563 -109.0516445440539 24.42249414341873 148.1775114515705
564 -102.6576020215995 50.87502909779128 145.4658333115463
565 -109.4002115446495 -24.43927049517879 147.5892849572411
566 -103.0932210875311 -50.90249722268945 144.7524014325292
567 -54.754090028922 -92.15589651787752 147.887918905777
568 -21.85238505249872 -92.78755539059875 148.0576792430468
569 54.75638965541275 -92.35166254618007 147.6113849080628
570 21.85462849303433 -92.97853833631005 147.7834066826636
571 109.0516445440539 -24.42249414341873 148.1775114515705
572 102.6576020215995 -50.87502909779128 145.4658333115463
573 151.8428973895889 72.19164475489229 169.2142480365958
574 154.0948940296398 27.83198653148632 169.5547078633077
575 93.1012439575026 131.2936072850984 169.7553508512893
576 23.75215578313174 131.5185894171372 169.942430875134
577 56.20414462343899 131.3036938102183 169.8076151197253
578 -93.10052848727655 131.4269762099682 169.4551135508317
579 -23.75095808263646 131.6467232362332 169.6470203578781
580 -56.20307725443371 131.4349690270509 169.508443932534
581 -151.6198555959927 72.18463943993426 169.7907781741906
582 -153.8852939038554 27.82543108287543 170.1136070959505
583 -151.8428973895889 -72.19164475489229 169.2142480365958
584 -154.0948940296398 -27.83198653148632 169.5547078633077
585 -93.1012439575026 -131.2936072850984 169.7553508512893
586 -23.75215578313174 -131.5185894171372 169.942430875134
587 -56.20414462343899 -131.3036938102183 169.8076151197253
588 93.10052848727655 -131.4269762099682 169.4551135508317
589 23.75095808263646 -131.6467232362332 169.6470203578781
590 56.20307725443371 -131.4349690270509 169.508443932534
591 151.6198555959927 -72.18463943993426 169.7907781741906
592 153.8852939038554 -27.82543108287543 170.1136070959505
593 197.7643611636409 116.5330334426399 184.5222958303944
594 202.0679051398657 24.02512157550433 185.3939716216305
595 201.8006269023391 63.5266078137434 185.4484244327357
596 133.6105997264845 171.5717339937566 184.6756772541693
597 21.70621309887387 173.1582411760941 185.4675461046258
598 -133.6099093943897 171.6187016159699 184.5217550458623
599 -21.70582451127845 173.1991244050802 185.3311475483229
600 -197.6665813026129 116.5330199257182 184.8847634030964
601 -201.985935855746 24.02415106440303 185.7124232547834
602 -201.7180156929822 63.52562970248366 185.76370824746
603 -197.7643611636409 -116.5330334426399 184.5222958303944
604 -202.0679051398657 -24.02512157550433 185.3939716216305
605 -201.8006269023391 -63.5266078137434 185.4484244327357
606 -133.6105997264845 -171.5717339937566 184.6756772541693
607 -21.70621309887387 -173.1582411760941 185.4675461046258
608 133.6099093943898 -171.6187016159699 184.5217550458623
609 21.70582451127845 -173.1991244050802 185.3311475483229
610 197.6665813026129 -116.5330199257182 184.8847634030964
611 201.985935855746 -24.02415106440302 185.7124232547834
612 201.7180156929822 -63.52562970248365 185.76370824746
613 243.7320460451716 21.18791419458484 195.2549266018067
614 23.57945523471578 210.5748062020326 195.2337695608445
615 68.643960559563 212.5610500486101 195.5961078063364
616 -23.579520511191 210.5662071592176 195.2728415674336
617 -68.64401948859377 212.553287139119 195.6314080368057
618 -243.7124495286353 21.18780600313659 195.3571015538872
619 -243.7320460451716 -21.18791419458484 195.2549266018067
620 -23.57945523471578 -210.5748062020326 195.2337695608445
621 -68.643960559563 -212.5610500486101 195.5961078063364
622 23.579520511191 -210.5662071592176 195.2728415674336
623 68.64401948859377 -212.553287139119 195.6314080368057
624 243.7124495286353 -21.18780600313659 195.3571015538872
625 275.0297390097701 21.46244575293601 200.6557907132387
626 23.89660000006668 238.9710922353861 200.5320637889805
627 -23.89659999994555 238.9504005379648 200.6643602303709
628 -275.0350655120565 21.46249002345859 200.6171043580282
629 -275.0297390097701 -21.46244575293601 200.6557907132387
630 -23.89660000006668 -238.9710922353862 200.5320637889805
631 23.89659999994555 -238.9504005379648 200.6643602303709
632 275.0350655120565 -21.46249002345859 200.6171043580282
$EndNodes
$Elements
2286
1 15 2 0 1 1
2 15 2 0 2 2
3 15 2 0 3 3
4 15 2 0 4 4
5 15 2 0 5 5
6 15 2 0 6 6
7 15 2 0 7 7
8 15 2 0 8 8
9 15 2 0 9 9
10 15 2 0 10 10
11 15 2 0 11 11
12 15 2 0 12 12
13 15 2 0 13 13
14 15 2 0 14 14
15 15 2 0 15 15
16 15 2 0 16 16
17 15 2 0 17 17
18 15 2 0 18 18
19 15 2 0 19 19
20 15 2 0 20 20
21 15 2 0 21 21
22 15 2 0 22 22
23 15 2 0 23 23
24 15 2 0 24 24
25 15 2 0 25 25
26 15 2 0 26 26
27 15 2 0 27 27
28 15 2 0 28 28
29 15 2 0 29 29
30 15 2 0 30 30
31 15 2 0 31 31
32 15 2 0 32 32
33 15 2 0 33 33
34 15 2 0 34 34
35 15 2 0 35 35
36 15 2 0 36 36
37 15 2 0 37 37
38 15 2 0 38 38
39 15 2 0 39 39
40 15 2 0 40 40
41 15 2 0 41 41
42 15 2 0 42 42
43 15 2 0 43 43
44 15 2 0 44 44
45 15 2 0 45 45
46 15 2 0 46 46
47 15 2 0 47 47
48 15 2 0 48 48
49 15 2 0 49 49
50 15 2 0 50 50
51 15 2 0 51 51
52 15 2 0 52 52
53 15 2 0 53 53
54 15 2 0 54 54
55 15 2 0 55 55
56 15 2 0 56 56
57 15 2 0 57 57
58 15 2 0 58 58
59 15 2 0 59 59
60 15 2 0 60 60
61 15 2 0 61 61
62 15 2 0 62 62
63 15 2 0 63 63
64 15 2 0 64 64
65 15 2 0 65 65
66 15 2 0 66 66
67 15 2 0 67 67
68 15 2 0 68 68
69 15 2 0 69 69
70 15 2 0 70 70
71 15 2 0 71 71
72 15 2 0 72 72
73 15 2 0 73 73
74 15 2 0 74 74
75 15 2 0 75 75
76 15 2 0 76 76
77 15 2 0 77 77
78 15 2 0 78 78
79 15 2 0 79 79
80 15 2 0 80 80
81 15 2 0 81 81
82 15 2 0 82 82
83 15 2 0 83 83
84 15 2 0 84 84
85 15 2 0 85 85
86 15 2 0 86 86
87 15 2 0 87 87
88 15 2 0 88 88
89 15 2 0 89 89
90 15 2 0 90 90
91 15 2 0 91 91
92 15 2 0 92 92
93 15 2 0 93 93
94 15 2 0 94 94
95 15 2 0 95 95
96 15 2 0 96 96
97 15 2 0 97 97
98 15 2 0 98 98
99 15 2 0 99 99
100 15 2 0 100 100
101 15 2 0 101 101
102 15 2 0 102 102
103 15 2 0 103 103
104 15 2 0 104 104
105 15 2 0 105 105
106 15 2 0 106 106
107 15 2 0 107 107
108 15 2 0 108 108
109 15 2 0 109 109
110 15 2 0 110 110
111 15 2 0 111 111
112 15 2 0 112 112
113 15 2 0 113 113
114 15 2 0 114 114
115 15 2 0 115 115
116 15 2 0 116 116
117 15 2 0 117 117
118 15 2 0 118 118
119 15 2 0 119 119
120 15 2 0 120 120
121 15 2 0 121 121
122 15 2 0 122 122
123 15 2 0 123 123
124 15 2 0 124 124
125 15 2 0 125 125
126 15 2 0 126 126
127 15 2 0 127 127
128 15 2 0 128 128
129 15 2 0 129 129
130 15 2 0 130 130
131 15 2 0 131 131
132 15 2 0 132 132
133 15 2 0 133 133
134 15 2 0 134 134
135 15 2 0 135 135
136 15 2 0 136 136
137 15 2 0 137 137
138 15 2 0 138 138
139 15 2 0 139 139
140 15 2 0 140 140
141 15 2 0 141 141
142 15 2 0 142 142
143 15 2 0 143 143
144 15 2 0 144 144
145 15 2 0 145 145
146 15 2 0 146 146
147 15 2 0 147 147
148 15 2 0 148 148
149 15 2 0 149 149
150 15 2 0 150 150
151 15 2 0 151 151
152 15 2 0 152 152
153 15 2 0 153 153
154 15 2 0 154 154
155 15 2 0 155 155
156 15 2 0 156 156
157 15 2 0 157 157
158 15 2 0 158 158
159 15 2 0 159 159
160 15 2 0 160 160
161 15 2 0 161 161
162 15 2 0 162 162
163 15 2 0 163 163
164 15 2 0 164 164
165 15 2 0 165 165
166 15 2 0 166 166
167 15 2 0 167 167
168 15 2 0 168 168
169 15 2 0 169 169
170 15 2 0 170 170
171 15 2 0 171 171
172 15 2 0 172 172
173 15 2 0 173 173
174 15 2 0 174 174
175 15 2 0 175 175
176 15 2 0 176 176
177 15 2 0 177 177
178 15 2 0 178 178
179 15 2 0 179 179
180 15 2 0 180 180
181 15 2 0 181 181
182 15 2 0 182 182
183 15 2 0 183 183
184 15 2 0 184 184
185 15 2 0 185 185
186 15 2 0 186 186
187 15 2 0 187 187
188 15 2 0 188 188
189 15 2 0 189 189
190 15 2 0 190 190
191 15 2 0 191 191
192 15 2 0 192 192
193 15 2 0 193 193
194 15 2 0 194 194
195 15 2 0 195 195
196 15 2 0 196 196
197 15 2 0 197 197
198 15 2 0 198 198
199 15 2 0 199 199
200 15 2 0 200 200
201 15 2 0 201 201
202 15 2 0 202 202
203 15 2 0 203 203
204 15 2 0 204 204
205 15 2 0 205 205
206 15 2 0 206 206
207 15 2 0 207 207
208 15 2 0 208 208
209 15 2 0 209 209
210 15 2 0 210 210
211 15 2 0 211 211
212 15 2 0 212 212
213 15 2 0 213 213
214 15 2 0 214 214
215 15 2 0 215 215
216 15 2 0 216 216
217 15 2 0 217 217
218 15 2 0 218 218
219 15 2 0 219 219
220 15 2 0 220 220
221 15 2 0 221 221
222 15 2 0 222 222
223 15 2 0 223 223
224 15 2 0 224 224
225 15 2 0 225 225
226 15 2 0 226 226
227 15 2 0 227 227
228 15 2 0 228 228
229 15 2 0 229 229
230 15 2 0 230 230
231 15 2 0 231 231
232 15 2 0 232 232
233 15 2 0 233 233
234 15 2 0 234 234
235 15 2 0 235 235
236 15 2 0 236 236
237 15 2 0 237 237
238 15 2 0 238 238
239 15 2 0 239 239
240 15 2 0 240 240
241 15 2 0 241 241
242 15 2 0 242 242
243 15 2 0 243 243
244 15 2 0 244 244
245 15 2 0 245 245
246 15 2 0 246 246
247 15 2 0 247 247
248 15 2 0 248 248
249 15 2 0 249 249
250 15 2 0 250 250
251 15 2 0 251 251
252 15 2 0 252 252
253 15 2 0 253 253
254 15 2 0 254 254
255 15 2 0 255 255
256 15 2 0 256 256
257 15 2 0 257 257
258 15 2 0 258 258
259 15 2 0 259 259
260 15 2 0 260 260
261 15 2 0 261 261
262 15 2 0 262 262
263 15 2 0 263 263
264 15 2 0 264 264
265 15 2 0 265 265
266 15 2 0 266 266
267 15 2 0 267 267
268 15 2 0 268 268
269 15 2 0 269 269
270 15 2 0 270 270
271 15 2 0 271 271
272 15 2 0 272 272
273 15 2 0 273 273
274 15 2 0 274 274
275 15 2 0 275 275
276 15 2 0 276 276
277 15 2 0 277 277
278 15 2 0 278 278
279 15 2 0 279 279
280 15 2 0 280 280
281 15 2 0 281 281
282 15 2 0 282 282
283 15 2 0 283 283
284 15 2 0 284 284
285 15 2 0 285 285
286 15 2 0 286 286
287 15 2 0 287 287
288 15 2 0 288 288
289 15 2 0 289 289
290 15 2 0 290 290
291 15 2 0 291 291
292 15 2 0 292 292
293 15 2 0 293 293
294 15 2 0 294 294
295 15 2 0 295 295
296 15 2 0 296 296
297 15 2 0 297 297
298 15 2 0 298 298
299 15 2 0 299 299
300 15 2 0 300 300
301 15 2 0 301 301
302 15 2 0 302 302
303 15 2 0 303 303
304 15 2 0 304 304
305 15 2 0 305 305
306 15 2 0 306 306
307 15 2 0 307 307
308 15 2 0 308 308
309 15 2 0 309 309
310 15 2 0 310 310
311 15 2 0 311 311
312 15 2 0 312 312
313 1 2 0 1 1 25
314 1 2 0 2 1 2
315 1 2 0 3 2 26
316 1 2 0 4 2 3
317 1 2 0 5 3 27
318 1 2 0 6 3 4
319 1 2 0 7 4 28
320 1 2 0 8 4 5
321 1 2 0 9 5 29
322 1 2 0 10 5 6
323 1 2 0 11 6 30
324 1 2 0 12 6 7
325 1 2 0 13 7 31
326 1 2 0 14 7 8
327 1 2 0 15 8 32
328 1 2 0 16 8 9
329 1 2 0 17 9 33
330 1 2 0 18 9 10
331 1 2 0 19 10 34
332 1 2 0 20 10 11
333 1 2 0 21 11 35
334 1 2 0 22 11 12
335 1 2 0 23 12 36
336 1 2 0 24 12 13
337 1 2 0 25 13 37
338 1 2 0 26 13 14
339 1 2 0 27 14 38
340 1 2 0 28 14 15
341 1 2 0 29 15 39
342 1 2 0 30 15 16
343 1 2 0 31 16 40
344 1 2 0 32 16 17
345 1 2 0 33 17 41
346 1 2 0 34 17 18
347 1 2 0 35 18 42
348 1 2 0 36 18 19
349 1 2 0 37 19 43
350 1 2 0 38 19 20
351 1 2 0 39 20 44
352 1 2 0 40 20 21
353 1 2 0 41 21 45
354 1 2 0 42 21 22
355 1 2 0 43 22 46
356 1 2 0 44 22 23
357 1 2 0 45 23 47
358 1 2 0 46 23 24
359 1 2 0 47 24 48
360 1 2 0 48 24 1
361 1 2 0 49 25 49
362 1 2 0 50 25 26
363 1 2 0 51 26 50
364 1 2 0 52 26 27
365 1 2 0 53 27 51
366 1 2 0 54 27 28
367 1 2 0 55 28 52
368 1 2 0 56 28 29
369 1 2 0 57 29 53
370 1 2 0 58 29 30
371 1 2 0 59 30 54
372 1 2 0 60 30 31
373 1 2 0 61 31 55
374 1 2 0 62 31 32
375 1 2 0 63 32 56
376 1 2 0 64 32 33
377 1 2 0 65 33 57
378 1 2 0 66 33 34
379 1 2 0 67 34 58
380 1 2 0 68 34 35
381 1 2 0 69 35 59
382 1 2 0 70 35 36
383 1 2 0 71 36 60
384 1 2 0 72 36 37
385 1 2 0 73 37 61
386 1 2 0 74 37 38
387 1 2 0 75 38 62
388 1 2 0 76 38 39
389 1 2 0 77 39 63
390 1 2 0 78 39 40
391 1 2 0 79 40 64
392 1 2 0 80 40 41
393 1 2 0 81 41 65
394 1 2 0 82 41 42
395 1 2 0 83 42 66
396 1 2 0 84 42 43
397 1 2 0 85 43 67
398 1 2 0 86 43 44
399 1 2 0 87 44 68
400 1 2 0 88 44 45
401 1 2 0 89 45 69
402 1 2 0 90 45 46
403 1 2 0 91 46 70
404 1 2 0 92 46 47
405 1 2 0 93 47 71
406 1 2 0 94 47 48
407 1 2 0 95 48 72
408 1 2 0 96 48 25
409 1 2 0 97 49 73
410 1 2 0 98 49 50
411 1 2 0 99 50 74
412 1 2 0 100 50 51
413 1 2 0 101 51 75
414 1 2 0 102 51 52
415 1 2 0 103 52 76
416 1 2 0 104 52 53
417 1 2 0 105 53 77
418 1 2 0 106 53 54
419 1 2 0 107 54 78
420 1 2 0 108 54 55
421 1 2 0 109 55 79
422 1 2 0 110 55 56
423 1 2 0 111 56 80
424 1 2 0 112 56 57
425 1 2 0 113 57 81
426 1 2 0 114 57 58
427 1 2 0 115 58 82
428 1 2 0 116 58 59
429 1 2 0 117 59 83
430 1 2 0 118 59 60
431 1 2 0 119 60 84
432 1 2 0 120 60 61
433 1 2 0 121 61 85
434 1 2 0 122 61 62
435 1 2 0 123 62 86
436 1 2 0 124 62 63
437 1 2 0 125 63 87
438 1 2 0 126 63 64
439 1 2 0 127 64 88
440 1 2 0 128 64 65
441 1 2 0 129 65 89
442 1 2 0 130 65 66
443 1 2 0 131 66 90
444 1 2 0 132 66 67
445 1 2 0 133 67 91
446 1 2 0 134 67 68
447 1 2 0 135 68 92
448 1 2 0 136 68 69
449 1 2 0 137 69 93
450 1 2 0 138 69 70
451 1 2 0 139 70 94
452 1 2 0 140 70 71
453 1 2 0 141 71 95
454 1 2 0 142 71 72
455 1 2 0 143 72 96
456 1 2 0 144 72 49
457 1 2 0 145 73 97
458 1 2 0 146 73 74
459 1 2 0 147 74 98
460 1 2 0 148 74 75
461 1 2 0 149 75 99
462 1 2 0 150 75 76
463 1 2 0 151 76 100
464 1 2 0 152 76 77
465 1 2 0 153 77 101
466 1 2 0 154 77 78
467 1 2 0 155 78 102
468 1 2 0 156 78 79
469 1 2 0 157 79 103
470 1 2 0 158 79 80
471 1 2 0 159 80 104
472 1 2 0 160 80 81
473 1 2 0 161 81 105
474 1 2 0 162 81 82
475 1 2 0 163 82 106
476 1 2 0 164 82 83
477 1 2 0 165 83 107
478 1 2 0 166 83 84
479 1 2 0 167 84 108
480 1 2 0 168 84 85
481 1 2 0 169 85 109
482 1 2 0 170 85 86
483 1 2 0 171 86 110
484 1 2 0 172 86 87
485 1 2 0 173 87 111
486 1 2 0 174 87 88
487 1 2 0 175 88 112
488 1 2 0 176 88 89
489 1 2 0 177 89 113
490 1 2 0 178 89 90
491 1 2 0 179 90 114
492 1 2 0 180 90 91
493 1 2 0 181 91 115
494 1 2 0 182 91 92
495 1 2 0 183 92 116
496 1 2 0 184 92 93
497 1 2 0 185 93 117
498 1 2 0 186 93 94
499 1 2 0 187 94 118
500 1 2 0 188 94 95
501 1 2 0 189 95 119
502 1 2 0 190 95 96
503 1 2 0 191 96 120
504 1 2 0 192 96 73
505 1 2 0 193 97 121
506 1 2 0 194 97 98
507 1 2 0 195 98 122
508 1 2 0 196 98 99
509 1 2 0 197 99 123
510 1 2 0 198 99 100
511 1 2 0 199 100 124
512 1 2 0 200 100 101
513 1 2 0 201 101 125
514 1 2 0 202 101 102
515 1 2 0 203 102 126
516 1 2 0 204 102 103
517 1 2 0 205 103 127
518 1 2 0 206 103 104
519 1 2 0 207 104 128
520 1 2 0 208 104 105
521 1 2 0 209 105 129
522 1 2 0 210 105 106
523 1 2 0 211 106 130
524 1 2 0 212 106 107
525 1 2 0 213 107 131
526 1 2 0 214 107 108
527 1 2 0 215 108 132
528 1 2 0 216 108 109
529 1 2 0 217 109 133
530 1 2 0 218 109 110
531 1 2 0 219 110 134
532 1 2 0 220 110 111
533 1 2 0 221 111 135
534 1 2 0 222 111 112
535 1 2 0 223 112 136
536 1 2 0 224 112 113
537 1 2 0 225 113 137
538 1 2 0 226 113 114
539 1 2 0 227 114 138
540 1 2 0 228 114 115
541 1 2 0 229 115 139
542 1 2 0 230 115 116
543 1 2 0 231 116 140
544 1 2 0 232 116 117
545 1 2 0 233 117 141
546 1 2 0 234 117 118
547 1 2 0 235 118 142
548 1 2 0 236 118 119
549 1 2 0 237 119 143
550 1 2 0 238 119 120
551 1 2 0 239 120 144
552 1 2 0 240 120 97
553 1 2 0 241 121 145
554 1 2 0 242 121 122
555 1 2 0 243 122 146
556 1 2 0 244 122 123
557 1 2 0 245 123 147
558 1 2 0 246 123 124
559 1 2 0 247 124 148
560 1 2 0 248 124 125
561 1 2 0 249 125 149
562 1 2 0 250 125 126
563 1 2 0 251 126 150
564 1 2 0 252 126 127
565 1 2 0 253 127 151
566 1 2 0 254 127 128
567 1 2 0 255 128 152
568 1 2 0 256 128 129
569 1 2 0 257 129 153
570 1 2 0 258 129 130
571 1 2 0 259 130 154
572 1 2 0 260 130 131
573 1 2 0 261 131 155
574 1 2 0 262 131 132
575 1 2 0 263 132 156
576 1 2 0 264 132 133
577 1 2 0 265 133 157
578 1 2 0 266 133 134
579 1 2 0 267 134 158
580 1 2 0 268 134 135
581 1 2 0 269 135 159
582 1 2 0 270 135 136
583 1 2 0 271 136 160
584 1 2 0 272 136 137
585 1 2 0 273 137 161
586 1 2 0 274 137 138
587 1 2 0 275 138 162
588 1 2 0 276 138 139
589 1 2 0 277 139 163
590 1 2 0 278 139 140
591 1 2 0 279 140 164
592 1 2 0 280 140 141
593 1 2 0 281 141 165
594 1 2 0 282 141 142
595 1 2 0 283 142 166
596 1 2 0 284 142 143
597 1 2 0 285 143 167
598 1 2 0 286 143 144
599 1 2 0 287 144 168
600 1 2 0 288 144 121
601 1 2 0 289 145 169
602 1 2 0 290 145 146
603 1 2 0 291 146 170
604 1 2 0 292 146 147
605 1 2 0 293 147 171
606 1 2 0 294 147 148
607 1 2 0 295 148 172
608 1 2 0 296 148 149
609 1 2 0 297 149 173
610 1 2 0 298 149 150
611 1 2 0 299 150 174
612 1 2 0 300 150 151
613 1 2 0 301 151 175
614 1 2 0 302 151 152
615 1 2 0 303 152 176
616 1 2 0 304 152 153
617 1 2 0 305 153 177
618 1 2 0 306 153 154
619 1 2 0 307 154 178
620 1 2 0 308 154 155
621 1 2 0 309 155 179
622 1 2 0 310 155 156
623 1 2 0 311 156 180
624 1 2 0 312 156 157
625 1 2 0 313 157 181
626 1 2 0 314 157 158
627 1 2 0 315 158 182
628 1 2 0 316 158 159
629 1 2 0 317 159 183
630 1 2 0 318 159 160
631 1 2 0 319 160 184
632 1 2 0 320 160 161
633 1 2 0 321 161 185
634 1 2 0 322 161 162
635 1 2 0 323 162 186
636 1 2 0 324 162 163
637 1 2 0 325 163 187
638 1 2 0 326 163 164
639 1 2 0 327 164 188
640 1 2 0 328 164 165
641 1 2 0 329 165 189
642 1 2 0 330 165 166
643 1 2 0 331 166 190
644 1 2 0 332 166 167
645 1 2 0 333 167 191
646 1 2 0 334 167 168
647 1 2 0 335 168 192
648 1 2 0 336 168 145
649 1 2 0 337 169 193
650 1 2 0 338 169 313
651 1 2 0 338 313 170
652 1 2 0 339 170 314
653 1 2 0 339 314 194
654 1 2 0 340 170 171
655 1 2 0 341 171 315
656 1 2 0 341 315 195
657 1 2 0 342 171 172
658 1 2 0 343 172 316
659 1 2 0 343 316 196
660 1 2 0 344 172 173
661 1 2 0 345 173 317
662 1 2 0 345 317 197
663 1 2 0 346 173 174
664 1 2 0 347 174 318
665 1 2 0 347 318 198
666 1 2 0 348 174 319
667 1 2 0 348 319 175
668 1 2 0 349 175 199
669 1 2 0 350 175 320
670 1 2 0 350 320 176
671 1 2 0 351 176 321
672 1 2 0 351 321 200
673 1 2 0 352 176 177
674 1 2 0 353 177 322
675 1 2 0 353 322 201
676 1 2 0 354 177 178
677 1 2 0 355 178 323
678 1 2 0 355 323 202
679 1 2 0 356 178 179
680 1 2 0 357 179 324
681 1 2 0 357 324 203
682 1 2 0 358 179 180
683 1 2 0 359 180 325
684 1 2 0 359 325 204
685 1 2 0 360 180 326
686 1 2 0 360 326 181
687 1 2 0 361 181 205
688 1 2 0 362 181 327
689 1 2 0 362 327 182
690 1 2 0 363 182 328
691 1 2 0 363 328 206
692 1 2 0 364 182 183
693 1 2 0 365 183 329
694 1 2 0 365 329 207
695 1 2 0 366 183 184
696 1 2 0 367 184 330
697 1 2 0 367 330 208
698 1 2 0 368 184 185
699 1 2 0 369 185 331
700 1 2 0 369 331 209
701 1 2 0 370 185 186
702 1 2 0 371 186 332
703 1 2 0 371 332 210
704 1 2 0 372 186 333
705 1 2 0 372 333 187
706 1 2 0 373 187 211
707 1 2 0 374 187 334
708 1 2 0 374 334 188
709 1 2 0 375 188 335
710 1 2 0 375 335 212
711 1 2 0 376 188 189
712 1 2 0 377 189 336
713 1 2 0 377 336 213
714 1 2 0 378 189 190
715 1 2 0 379 190 337
716 1 2 0 379 337 214
717 1 2 0 380 190 191
718 1 2 0 381 191 338
719 1 2 0 381 338 215
720 1 2 0 382 191 192
721 1 2 0 383 192 339
722 1 2 0 383 339 216
723 1 2 0 384 192 340
724 1 2 0 384 340 169
725 1 2 0 385 193 341
726 1 2 0 385 341 217
727 1 2 0 386 193 342
728 1 2 0 386 342 194
729 1 2 0 387 194 343
730 1 2 0 387 343 218
731 1 2 0 388 194 195
732 1 2 0 389 195 344
733 1 2 0 389 344 219
734 1 2 0 390 195 196
735 1 2 0 391 196 345
736 1 2 0 391 345 220
737 1 2 0 392 196 197
738 1 2 0 393 197 346
739 1 2 0 393 346 221
740 1 2 0 394 197 198
741 1 2 0 395 198 347
742 1 2 0 395 347 222
743 1 2 0 396 198 348
744 1 2 0 396 348 349
745 1 2 0 396 349 199
746 1 2 0 397 199 223
747 1 2 0 398 199 350
748 1 2 0 398 350 351
749 1 2 0 398 351 200
750 1 2 0 399 200 352
751 1 2 0 399 352 224
752 1 2 0 400 200 201
753 1 2 0 401 201 353
754 1 2 0 401 353 225
755 1 2 0 402 201 202
756 1 2 0 403 202 354
757 1 2 0 403 354 226
758 1 2 0 404 202 203
759 1 2 0 405 203 355
760 1 2 0 405 355 227
761 1 2 0 406 203 204
762 1 2 0 407 204 356
763 1 2 0 407 356 228
764 1 2 0 408 204 357
765 1 2 0 408 357 205
766 1 2 0 409 205 358
767 1 2 0 409 358 229
768 1 2 0 410 205 359
769 1 2 0 410 359 206
770 1 2 0 411 206 360
771 1 2 0 411 360 230
772 1 2 0 412 206 207
773 1 2 0 413 207 361
774 1 2 0 413 361 231
775 1 2 0 414 207 208
776 1 2 0 415 208 362
777 1 2 0 415 362 232
778 1 2 0 416 208 209
779 1 2 0 417 209 363
780 1 2 0 417 363 233
781 1 2 0 418 209 210
782 1 2 0 419 210 364
783 1 2 0 419 364 234
784 1 2 0 420 210 365
785 1 2 0 420 365 366
786 1 2 0 420 366 211
787 1 2 0 421 211 235
788 1 2 0 422 211 367
789 1 2 0 422 367 368
790 1 2 0 422 368 212
791 1 2 0 423 212 369
792 1 2 0 423 369 236
793 1 2 0 424 212 213
794 1 2 0 425 213 370
795 1 2 0 425 370 237
796 1 2 0 426 213 214
797 1 2 0 427 214 371
798 1 2 0 427 371 238
799 1 2 0 428 214 215
800 1 2 0 429 215 372
801 1 2 0 429 372 239
802 1 2 0 430 215 216
803 1 2 0 431 216 373
804 1 2 0 431 373 240
805 1 2 0 432 216 374
806 1 2 0 432 374 193
807 1 2 0 433 217 241
808 1 2 0 434 217 375
809 1 2 0 434 375 376
810 1 2 0 434 376 218
811 1 2 0 435 218 377
812 1 2 0 435 377 242
813 1 2 0 436 218 219
814 1 2 0 437 219 378
815 1 2 0 437 378 243
816 1 2 0 438 219 220
817 1 2 0 439 220 379
818 1 2 0 439 379 244
819 1 2 0 440 220 221
820 1 2 0 441 221 380
821 1 2 0 441 380 245
822 1 2 0 442 221 222
823 1 2 0 443 222 381
824 1 2 0 443 381 246
825 1 2 0 444 222 382
826 1 2 0 444 382 383
827 1 2 0 444 383 384
828 1 2 0 444 384 223
829 1 2 0 445 223 247
830 1 2 0 446 223 385
831 1 2 0 446 385 386
832 1 2 0 446 386 387
833 1 2 0 446 387 224
834 1 2 0 447 224 388
835 1 2 0 447 388 248
836 1 2 0 448 224 225
837 1 2 0 449 225 389
838 1 2 0 449 389 249
839 1 2 0 450 225 226
840 1 2 0 451 226 390
841 1 2 0 451 390 250
842 1 2 0 452 226 227
843 1 2 0 453 227 391
844 1 2 0 453 391 251
845 1 2 0 454 227 228
846 1 2 0 455 228 392
847 1 2 0 455 392 252
848 1 2 0 456 228 393
849 1 2 0 456 393 394
850 1 2 0 456 394 229
851 1 2 0 457 229 253
852 1 2 0 458 229 395
853 1 2 0 458 395 396
854 1 2 0 458 396 230
855 1 2 0 459 230 397
856 1 2 0 459 397 254
857 1 2 0 460 230 231
858 1 2 0 461 231 398
859 1 2 0 461 398 255
860 1 2 0 462 231 232
861 1 2 0 463 232 399
862 1 2 0 463 399 256
863 1 2 0 464 232 233
864 1 2 0 465 233 400
865 1 2 0 465 400 257
866 1 2 0 466 233 234
867 1 2 0 467 234 401
868 1 2 0 467 401 258
869 1 2 0 468 234 402
870 1 2 0 468 402 403
871 1 2 0 468 403 404
872 1 2 0 468 404 235
873 1 2 0 469 235 259
874 1 2 0 470 235 405
875 1 2 0 470 405 406
876 1 2 0 470 406 407
877 1 2 0 470 407 236
878 1 2 0 471 236 408
879 1 2 0 471 408 260
880 1 2 0 472 236 237
881 1 2 0 473 237 409
882 1 2 0 473 409 261
883 1 2 0 474 237 238
884 1 2 0 475 238 410
885 1 2 0 475 410 262
886 1 2 0 476 238 239
887 1 2 0 477 239 411
888 1 2 0 477 411 263
889 1 2 0 478 239 240
890 1 2 0 479 240 412
891 1 2 0 479 412 264
892 1 2 0 480 240 413
893 1 2 0 480 413 414
894 1 2 0 480 414 217
895 1 2 0 481 241 265
896 1 2 0 482 241 415
897 1 2 0 482 415 416
898 1 2 0 482 416 417
899 1 2 0 482 417 242
900 1 2 0 483 242 266
901 1 2 0 484 242 243
902 1 2 0 485 243 267
903 1 2 0 486 243 244
904 1 2 0 487 244 268
905 1 2 0 488 244 245
906 1 2 0 489 245 269
907 1 2 0 490 245 246
908 1 2 0 491 246 270
909 1 2 0 492 246 418
910 1 2 0 492 418 419
911 1 2 0 492 419 420
912 1 2 0 492 420 247
913 1 2 0 493 247 271
914 1 2 0 494 247 421
915 1 2 0 494 421 422
916 1 2 0 494 422 423
917 1 2 0 494 423 248
918 1 2 0 495 248 272
919 1 2 0 496 248 249
920 1 2 0 497 249 273
921 1 2 0 498 249 250
922 1 2 0 499 250 274
923 1 2 0 500 250 251
924 1 2 0 501 251 275
925 1 2 0 502 251 252
926 1 2 0 503 252 276
927 1 2 0 504 252 424
928 1 2 0 504 424 425
929 1 2 0 504 425 426
930 1 2 0 504 426 253
931 1 2 0 505 253 277
932 1 2 0 506 253 427
933 1 2 0 506 427 428
934 1 2 0 506 428 429
935 1 2 0 506 429 254
936 1 2 0 507 254 278
937 1 2 0 508 254 255
938 1 2 0 509 255 279
939 1 2 0 510 255 256
940 1 2 0 511 256 280
941 1 2 0 512 256 257
942 1 2 0 513 257 281
943 1 2 0 514 257 258
944 1 2 0 515 258 282
945 1 2 0 516 258 430
946 1 2 0 516 430 431
947 1 2 0 516 431 432
948 1 2 0 516 432 259
949 1 2 0 517 259 283
950 1 2 0 518 259 433
951 1 2 0 518 433 434
952 1 2 0 518 434 435
953 1 2 0 518 435 260
954 1 2 0 519 260 284
955 1 2 0 520 260 261
956 1 2 0 521 261 285
957 1 2 0 522 261 262
958 1 2 0 523 262 286
959 1 2 0 524 262 263
960 1 2 0 525 263 287
961 1 2 0 526 263 264
962 1 2 0 527 264 288
963 1 2 0 528 264 436
964 1 2 0 528 436 437
965 1 2 0 528 437 438
966 1 2 0 528 438 241
967 1 2 0 529 265 289
968 1 2 0 530 265 439
969 1 2 0 530 439 440
970 1 2 0 530 440 441
971 1 2 0 530 441 442
972 1 2 0 530 442 266
973 1 2 0 531 266 290
974 1 2 0 532 266 267
975 1 2 0 533 267 291
976 1 2 0 534 267 268
977 1 2 0 535 268 292
978 1 2 0 536 268 269
979 1 2 0 537 269 293
980 1 2 0 538 269 270
981 1 2 0 539 270 294
982 1 2 0 540 270 443
983 1 2 0 540 443 444
984 1 2 0 540 444 445
985 1 2 0 540 445 446
986 1 2 0 540 446 271
987 1 2 0 541 271 295
988 1 2 0 542 271 447
989 1 2 0 542 447 448
990 1 2 0 542 448 449
991 1 2 0 542 449 450
992 1 2 0 542 450 272
993 1 2 0 543 272 296
994 1 2 0 544 272 273
995 1 2 0 545 273 297
996 1 2 0 546 273 274
997 1 2 0 547 274 298
998 1 2 0 548 274 275
999 1 2 0 549 275 299
1000 1 2 0 550 275 276
1001 1 2 0 551 276 300
1002 1 2 0 552 276 451
1003 1 2 0 552 451 452
1004 1 2 0 552 452 453
1005 1 2 0 552 453 454
1006 1 2 0 552 454 277
1007 1 2 0 553 277 301
1008 1 2 0 554 277 455
1009 1 2 0 554 455 456
1010 1 2 0 554 456 457
1011 1 2 0 554 457 458
1012 1 2 0 554 458 278
1013 1 2 0 555 278 302
1014 1 2 0 556 278 279
1015 1 2 0 557 279 303
1016 1 2 0 558 279 280
1017 1 2 0 559 280 304
1018 1 2 0 560 280 281
1019 1 2 0 561 281 305
1020 1 2 0 562 281 282
1021 1 2 0 563 282 306
1022 1 2 0 564 282 459
1023 1 2 0 564 459 460
1024 1 2 0 564 460 461
1025 1 2 0 564 461 462
1026 1 2 0 564 462 283
1027 1 2 0 565 283 307
1028 1 2 0 566 283 463
1029 1 2 0 566 463 464
1030 1 2 0 566 464 465
1031 1 2 0 566 465 466
1032 1 2 0 566 466 284
1033 1 2 0 567 284 308
1034 1 2 0 568 284 285
1035 1 2 0 569 285 309
1036 1 2 0 570 285 286
1037 1 2 0 571 286 310
1038 1 2 0 572 286 287
1039 1 2 0 573 287 311
1040 1 2 0 574 287 288
1041 1 2 0 575 288 312
1042 1 2 0 576 288 467
1043 1 2 0 576 467 468
1044 1 2 0 576 468 469
1045 1 2 0 576 469 470
1046 1 2 0 576 470 265
1047 1 2 0 578 289 471
1048 1 2 0 578 471 472
1049 1 2 0 578 472 473
1050 1 2 0 578 473 474
1051 1 2 0 578 474 290
1052 1 2 0 580 290 291
1053 1 2 0 582 291 292
1054 1 2 0 584 292 293
1055 1 2 0 586 293 294
1056 1 2 0 588 294 475
1057 1 2 0 588 475 476
1058 1 2 0 588 476 477
1059 1 2 0 588 477 478
1060 1 2 0 588 478 295
1061 1 2 0 590 295 479
1062 1 2 0 590 479 480
1063 1 2 0 590 480 481
1064 1 2 0 590 481 482
1065 1 2 0 590 482 296
1066 1 2 0 592 296 297
1067 1 2 0 594 297 298
1068 1 2 0 596 298 299
1069 1 2 0 598 299 300
1070 1 2 0 600 300 483
1071 1 2 0 600 483 484
1072 1 2 0 600 484 485
1073 1 2 0 600 485 486
1074 1 2 0 600 486 301
1075 1 2 0 602 301 487
1076 1 2 0 602 487 488
1077 1 2 0 602 488 489
1078 1 2 0 602 489 490
1079 1 2 0 602 490 302
1080 1 2 0 604 302 303
1081 1 2 0 606 303 304
1082 1 2 0 608 304 305
1083 1 2 0 610 305 306
1084 1 2 0 612 306 491
1085 1 2 0 612 491 492
1086 1 2 0 612 492 493
1087 1 2 0 612 493 494
1088 1 2 0 612 494 307
1089 1 2 0 614 307 495
1090 1 2 0 614 495 496
1091 1 2 0 614 496 497
1092 1 2 0 614 497 498
1093 1 2 0 614 498 308
1094 1 2 0 616 308 309
1095 1 2 0 618 309 310
1096 1 2 0 620 310 311
1097 1 2 0 622 311 312
1098 1 2 0 624 312 499
1099 1 2 0 624 499 500
1100 1 2 0 624 500 501
1101 1 2 0 624 501 502
1102 1 2 0 624 502 289
1103 2 2 0 38 26 2 503
1104 2 2 0 38 1 25 503
1105 2 2 0 38 2 1 503
1106 2 2 0 38 25 26 503
1107 2 2 0 39 26 3 2
1108 2 2 0 39 27 3 26
1109 2 2 0 40 27 4 3
1110 2 2 0 40 28 4 27
1111 2 2 0 41 29 5 4
1112 2 2 0 41 28 29 4
1113 2 2 0 42 30 6 5
1114 2 2 0 42 29 30 5
1115 2 2 0 43 6 30 504
1116 2 2 0 43 31 7 504
1117 2 2 0 43 7 6 504
1118 2 2 0 43 30 31 504
1119 2 2 0 44 32 8 505
1120 2 2 0 44 7 31 505
1121 2 2 0 44 8 7 505
1122 2 2 0 44 31 32 505
1123 2 2 0 45 32 9 8
1124 2 2 0 45 33 9 32
1125 2 2 0 46 33 10 9
1126 2 2 0 46 34 10 33
1127 2 2 0 47 35 11 10
1128 2 2 0 47 34 35 10
1129 2 2 0 48 36 12 11
1130 2 2 0 48 35 36 11
1131 2 2 0 49 12 36 506
1132 2 2 0 49 37 13 506
1133 2 2 0 49 13 12 506
1134 2 2 0 49 36 37 506
1135 2 2 0 50 38 14 507
1136 2 2 0 50 13 37 507
1137 2 2 0 50 14 13 507
1138 2 2 0 50 37 38 507
1139 2 2 0 51 38 15 14
1140 2 2 0 51 39 15 38
1141 2 2 0 52 39 16 15
1142 2 2 0 52 40 16 39
1143 2 2 0 53 41 17 16
1144 2 2 0 53 40 41 16
1145 2 2 0 54 42 18 17
1146 2 2 0 54 41 42 17
1147 2 2 0 55 18 42 508
1148 2 2 0 55 43 19 508
1149 2 2 0 55 19 18 508
1150 2 2 0 55 42 43 508
1151 2 2 0 56 44 20 509
1152 2 2 0 56 19 43 509
1153 2 2 0 56 20 19 509
1154 2 2 0 56 43 44 509
1155 2 2 0 57 44 21 20
1156 2 2 0 57 45 21 44
1157 2 2 0 58 45 22 21
1158 2 2 0 58 46 22 45
1159 2 2 0 59 47 23 22
1160 2 2 0 59 46 47 22
1161 2 2 0 60 48 24 23
1162 2 2 0 60 47 48 23
1163 2 2 0 61 24 48 510
1164 2 2 0 61 25 1 510
1165 2 2 0 61 1 24 510
1166 2 2 0 61 48 25 510
1167 2 2 0 62 49 50 511
1168 2 2 0 62 50 26 511
1169 2 2 0 62 25 49 511
1170 2 2 0 62 26 25 511
1171 2 2 0 63 51 27 50
1172 2 2 0 63 50 27 26
1173 2 2 0 64 52 28 51
1174 2 2 0 64 51 28 27
1175 2 2 0 65 52 53 28
1176 2 2 0 65 53 29 28
1177 2 2 0 66 53 54 29
1178 2 2 0 66 54 30 29
1179 2 2 0 67 54 55 512
1180 2 2 0 67 31 30 512
1181 2 2 0 67 30 54 512
1182 2 2 0 67 55 31 512
1183 2 2 0 68 55 56 513
1184 2 2 0 68 32 31 513
1185 2 2 0 68 56 32 513
1186 2 2 0 68 31 55 513
1187 2 2 0 69 56 33 32
1188 2 2 0 69 57 33 56
1189 2 2 0 70 58 34 57
1190 2 2 0 70 57 34 33
1191 2 2 0 71 58 59 34
1192 2 2 0 71 59 35 34
1193 2 2 0 72 59 60 35
1194 2 2 0 72 60 36 35
1195 2 2 0 73 60 61 514
1196 2 2 0 73 36 60 514
1197 2 2 0 73 61 37 514
1198 2 2 0 73 37 36 514
1199 2 2 0 74 61 62 515
1200 2 2 0 74 62 38 515
1201 2 2 0 74 37 61 515
1202 2 2 0 74 38 37 515
1203 2 2 0 75 63 39 62
1204 2 2 0 75 62 39 38
1205 2 2 0 76 64 40 63
1206 2 2 0 76 63 40 39
1207 2 2 0 77 64 65 40
1208 2 2 0 77 65 41 40
1209 2 2 0 78 65 66 41
1210 2 2 0 78 66 42 41
1211 2 2 0 79 66 67 516
1212 2 2 0 79 43 42 516
1213 2 2 0 79 42 66 516
1214 2 2 0 79 67 43 516
1215 2 2 0 80 67 68 517
1216 2 2 0 80 44 43 517
1217 2 2 0 80 68 44 517
1218 2 2 0 80 43 67 517
1219 2 2 0 81 68 45 44
1220 2 2 0 81 69 45 68
1221 2 2 0 82 70 46 69
1222 2 2 0 82 69 46 45
1223 2 2 0 83 70 71 46
1224 2 2 0 83 71 47 46
1225 2 2 0 84 71 72 47
1226 2 2 0 84 72 48 47
1227 2 2 0 85 72 49 518
1228 2 2 0 85 48 72 518
1229 2 2 0 85 49 25 518
1230 2 2 0 85 25 48 518
1231 2 2 0 86 74 50 519
1232 2 2 0 86 49 73 519
1233 2 2 0 86 50 49 519
1234 2 2 0 86 73 74 519
1235 2 2 0 87 74 51 50
1236 2 2 0 87 74 75 51
1237 2 2 0 88 75 52 51
1238 2 2 0 88 76 52 75
1239 2 2 0 89 77 53 52
1240 2 2 0 89 76 77 52
1241 2 2 0 90 53 78 54
1242 2 2 0 90 77 78 53
1243 2 2 0 91 54 78 520
1244 2 2 0 91 79 55 520
1245 2 2 0 91 78 79 520
1246 2 2 0 91 55 54 520
1247 2 2 0 92 80 56 521
1248 2 2 0 92 55 79 521
1249 2 2 0 92 79 80 521
1250 2 2 0 92 56 55 521
1251 2 2 0 93 80 57 56
1252 2 2 0 93 80 81 57
1253 2 2 0 94 81 58 57
1254 2 2 0 94 81 82 58
1255 2 2 0 95 83 59 58
1256 2 2 0 95 82 83 58
1257 2 2 0 96 84 60 59
1258 2 2 0 96 83 84 59
1259 2 2 0 97 60 84 522
1260 2 2 0 97 85 61 522
1261 2 2 0 97 61 60 522
1262 2 2 0 97 84 85 522
1263 2 2 0 98 86 62 523
1264 2 2 0 98 61 85 523
1265 2 2 0 98 62 61 523
1266 2 2 0 98 85 86 523
1267 2 2 0 99 86 63 62
1268 2 2 0 99 86 87 63
1269 2 2 0 100 87 64 63
1270 2 2 0 100 88 64 87
1271 2 2 0 101 89 65 64
1272 2 2 0 101 88 89 64
1273 2 2 0 102 65 90 66
1274 2 2 0 102 89 90 65
1275 2 2 0 103 66 90 524
1276 2 2 0 103 91 67 524
1277 2 2 0 103 90 91 524
1278 2 2 0 103 67 66 524
1279 2 2 0 104 92 68 525
1280 2 2 0 104 67 91 525
1281 2 2 0 104 91 92 525
1282 2 2 0 104 68 67 525
1283 2 2 0 105 92 69 68
1284 2 2 0 105 92 93 69
1285 2 2 0 106 93 70 69
1286 2 2 0 106 93 94 70
1287 2 2 0 107 95 71 70
1288 2 2 0 107 94 95 70
1289 2 2 0 108 96 72 71
1290 2 2 0 108 95 96 71
1291 2 2 0 109 72 96 526
1292 2 2 0 109 73 49 526
1293 2 2 0 109 49 72 526
1294 2 2 0 109 96 73 526
1295 2 2 0 110 74 73 527
1296 2 2 0 110 97 98 527
1297 2 2 0 110 73 97 527
1298 2 2 0 110 98 74 527
1299 2 2 0 111 98 75 74
1300 2 2 0 111 98 99 75
1301 2 2 0 112 99 76 75
1302 2 2 0 112 99 100 76
1303 2 2 0 113 76 101 77
1304 2 2 0 113 100 101 76
1305 2 2 0 114 77 102 78
1306 2 2 0 114 101 102 77
1307 2 2 0 115 78 102 528
1308 2 2 0 115 103 79 528
1309 2 2 0 115 102 103 528
1310 2 2 0 115 79 78 528
1311 2 2 0 116 104 80 529
1312 2 2 0 116 79 103 529
1313 2 2 0 116 103 104 529
1314 2 2 0 116 80 79 529
1315 2 2 0 117 104 81 80
1316 2 2 0 117 104 105 81
1317 2 2 0 118 105 82 81
1318 2 2 0 118 105 106 82
1319 2 2 0 119 82 107 83
1320 2 2 0 119 106 107 82
1321 2 2 0 120 83 108 84
1322 2 2 0 120 107 108 83
1323 2 2 0 121 85 84 530
1324 2 2 0 121 108 109 530
1325 2 2 0 121 84 108 530
1326 2 2 0 121 109 85 530
1327 2 2 0 122 86 85 531
1328 2 2 0 122 109 110 531
1329 2 2 0 122 85 109 531
1330 2 2 0 122 110 86 531
1331 2 2 0 123 110 87 86
1332 2 2 0 123 110 111 87
1333 2 2 0 124 111 88 87
1334 2 2 0 124 111 112 88
1335 2 2 0 125 88 113 89
1336 2 2 0 125 112 113 88
1337 2 2 0 126 89 114 90
1338 2 2 0 126 113 114 89
1339 2 2 0 127 90 114 532
1340 2 2 0 127 115 91 532
1341 2 2 0 127 114 115 532
1342 2 2 0 127 91 90 532
1343 2 2 0 128 116 92 533
1344 2 2 0 128 91 115 533
1345 2 2 0 128 115 116 533
1346 2 2 0 128 92 91 533
1347 2 2 0 129 116 93 92
1348 2 2 0 129 116 117 93
1349 2 2 0 130 117 94 93
1350 2 2 0 130 117 118 94
1351 2 2 0 131 94 119 95
1352 2 2 0 131 118 119 94
1353 2 2 0 132 95 120 96
1354 2 2 0 132 119 120 95
1355 2 2 0 133 73 96 534
1356 2 2 0 133 120 97 534
1357 2 2 0 133 97 73 534
1358 2 2 0 133 96 120 534
1359 2 2 0 134 97 121 535
1360 2 2 0 134 122 98 535
1361 2 2 0 134 121 122 535
1362 2 2 0 134 98 97 535
1363 2 2 0 135 122 99 98
1364 2 2 0 135 122 123 99
1365 2 2 0 136 123 100 99
1366 2 2 0 136 123 124 100
1367 2 2 0 137 100 125 101
1368 2 2 0 137 124 125 100
1369 2 2 0 138 101 126 102
1370 2 2 0 138 125 126 101
1371 2 2 0 139 102 126 536
1372 2 2 0 139 126 127 536
1373 2 2 0 139 127 103 536
1374 2 2 0 139 103 102 536
1375 2 2 0 140 128 104 537
1376 2 2 0 140 127 128 537
1377 2 2 0 140 103 127 537
1378 2 2 0 140 104 103 537
1379 2 2 0 141 128 105 104
1380 2 2 0 141 128 129 105
1381 2 2 0 142 129 106 105
1382 2 2 0 142 129 130 106
1383 2 2 0 143 106 131 107
1384 2 2 0 143 130 131 106
1385 2 2 0 144 107 132 108
1386 2 2 0 144 131 132 107
1387 2 2 0 145 133 109 538
1388 2 2 0 145 108 132 538
1389 2 2 0 145 132 133 538
1390 2 2 0 145 109 108 538
1391 2 2 0 146 109 133 539
1392 2 2 0 146 134 110 539
1393 2 2 0 146 133 134 539
1394 2 2 0 146 110 109 539
1395 2 2 0 147 134 111 110
1396 2 2 0 147 134 135 111
1397 2 2 0 148 135 112 111
1398 2 2 0 148 135 136 112
1399 2 2 0 149 112 137 113
1400 2 2 0 149 136 137 112
1401 2 2 0 150 113 138 114
1402 2 2 0 150 137 138 113
1403 2 2 0 151 114 138 540
1404 2 2 0 151 138 139 540
1405 2 2 0 151 139 115 540
1406 2 2 0 151 115 114 540
1407 2 2 0 152 140 116 541
1408 2 2 0 152 139 140 541
1409 2 2 0 152 115 139 541
1410 2 2 0 152 116 115 541
1411 2 2 0 153 140 117 116
1412 2 2 0 153 140 141 117
1413 2 2 0 154 141 118 117
1414 2 2 0 154 141 142 118
1415 2 2 0 155 118 143 119
1416 2 2 0 155 142 143 118
1417 2 2 0 156 119 144 120
1418 2 2 0 156 143 144 119
1419 2 2 0 157 121 97 542
1420 2 2 0 157 120 144 542
1421 2 2 0 157 144 121 542
1422 2 2 0 157 97 120 542
1423 2 2 0 158 145 146 543
1424 2 2 0 158 146 122 543
1425 2 2 0 158 121 145 543
1426 2 2 0 158 122 121 543
1427 2 2 0 159 146 123 122
1428 2 2 0 159 146 147 123
1429 2 2 0 160 147 124 123
1430 2 2 0 160 147 148 124
1431 2 2 0 161 124 149 125
1432 2 2 0 161 148 149 124
1433 2 2 0 162 125 150 126
1434 2 2 0 162 149 150 125
1435 2 2 0 163 126 150 544
1436 2 2 0 163 151 127 544
1437 2 2 0 163 127 126 544
1438 2 2 0 163 150 151 544
1439 2 2 0 164 152 128 545
1440 2 2 0 164 127 151 545
1441 2 2 0 164 128 127 545
1442 2 2 0 164 151 152 545
1443 2 2 0 165 152 129 128
1444 2 2 0 165 152 153 129
1445 2 2 0 166 153 130 129
1446 2 2 0 166 153 154 130
1447 2 2 0 167 130 155 131
1448 2 2 0 167 154 155 130
1449 2 2 0 168 131 156 132
1450 2 2 0 168 155 156 131
1451 2 2 0 169 156 157 546
1452 2 2 0 169 132 156 546
1453 2 2 0 169 157 133 546
1454 2 2 0 169 133 132 546
1455 2 2 0 170 157 158 547
1456 2 2 0 170 158 134 547
1457 2 2 0 170 133 157 547
1458 2 2 0 170 134 133 547
1459 2 2 0 171 158 135 134
1460 2 2 0 171 158 159 135
1461 2 2 0 172 159 136 135
1462 2 2 0 172 159 160 136
1463 2 2 0 173 136 161 137
1464 2 2 0 173 160 161 136
1465 2 2 0 174 137 162 138
1466 2 2 0 174 161 162 137
1467 2 2 0 175 138 162 548
1468 2 2 0 175 163 139 548
1469 2 2 0 175 139 138 548
1470 2 2 0 175 162 163 548
1471 2 2 0 176 164 140 549
1472 2 2 0 176 139 163 549
1473 2 2 0 176 140 139 549
1474 2 2 0 176 163 164 549
1475 2 2 0 177 164 141 140
1476 2 2 0 177 164 165 141
1477 2 2 0 178 165 142 141
1478 2 2 0 178 165 166 142
1479 2 2 0 179 142 167 143
1480 2 2 0 179 166 167 142
1481 2 2 0 180 143 168 144
1482 2 2 0 180 167 168 143
1483 2 2 0 181 168 145 550
1484 2 2 0 181 144 168 550
1485 2 2 0 181 145 121 550
1486 2 2 0 181 121 144 550
1487 2 2 0 182 313 146 145
1488 2 2 0 182 146 313 170
1489 2 2 0 182 169 313 145
1490 2 2 0 183 170 147 146
1491 2 2 0 183 170 171 147
1492 2 2 0 184 171 148 147
1493 2 2 0 184 171 172 148
1494 2 2 0 185 148 173 149
1495 2 2 0 185 172 173 148
1496 2 2 0 186 149 174 150
1497 2 2 0 186 173 174 149
1498 2 2 0 187 174 319 150
1499 2 2 0 187 151 150 551
1500 2 2 0 187 150 319 551
1501 2 2 0 187 175 151 551
1502 2 2 0 187 319 175 551
1503 2 2 0 188 176 152 320
1504 2 2 0 188 152 151 552
1505 2 2 0 188 320 152 552
1506 2 2 0 188 151 175 552
1507 2 2 0 188 175 320 552
1508 2 2 0 189 176 153 152
1509 2 2 0 189 176 177 153
1510 2 2 0 190 177 154 153
1511 2 2 0 190 177 178 154
1512 2 2 0 191 154 179 155
1513 2 2 0 191 178 179 154
1514 2 2 0 192 155 180 156
1515 2 2 0 192 179 180 155
1516 2 2 0 193 180 326 156
1517 2 2 0 193 181 157 553
1518 2 2 0 193 156 326 553
1519 2 2 0 193 157 156 553
1520 2 2 0 193 326 181 553
1521 2 2 0 194 327 158 157
1522 2 2 0 194 158 327 182
1523 2 2 0 194 181 327 157
1524 2 2 0 195 182 159 158
1525 2 2 0 195 182 183 159
1526 2 2 0 196 183 160 159
1527 2 2 0 196 183 184 160
1528 2 2 0 197 160 185 161
1529 2 2 0 197 184 185 160
1530 2 2 0 198 161 186 162
1531 2 2 0 198 185 186 161
1532 2 2 0 199 186 333 162
1533 2 2 0 199 163 162 554
1534 2 2 0 199 162 333 554
1535 2 2 0 199 187 163 554
1536 2 2 0 199 333 187 554
1537 2 2 0 200 164 334 188
1538 2 2 0 200 164 163 555
1539 2 2 0 200 334 164 555
1540 2 2 0 200 163 187 555
1541 2 2 0 200 187 334 555
1542 2 2 0 201 188 165 164
1543 2 2 0 201 188 189 165
1544 2 2 0 202 189 166 165
1545 2 2 0 202 189 190 166
1546 2 2 0 203 166 191 167
1547 2 2 0 203 190 191 166
1548 2 2 0 204 167 192 168
1549 2 2 0 204 191 192 167
1550 2 2 0 205 192 340 168
1551 2 2 0 205 169 145 556
1552 2 2 0 205 168 340 556
1553 2 2 0 205 145 168 556
1554 2 2 0 205 340 169 556
1555 2 2 0 206 169 193 557
1556 2 2 0 206 342 314 558
1557 2 2 0 206 193 342 557
1558 2 2 0 206 314 170 558
1559 2 2 0 206 170 313 558
1560 2 2 0 206 313 169 557
1561 2 2 0 206 313 557 558
1562 2 2 0 206 557 342 558
1563 2 2 0 206 314 342 194
1564 2 2 0 207 314 171 170
1565 2 2 0 207 315 171 314
1566 2 2 0 207 195 315 194
1567 2 2 0 207 315 314 194
1568 2 2 0 208 315 172 171
1569 2 2 0 208 316 172 315
1570 2 2 0 208 196 316 195
1571 2 2 0 208 316 315 195
1572 2 2 0 209 317 173 172
1573 2 2 0 209 316 317 172
1574 2 2 0 209 197 316 196
1575 2 2 0 209 197 317 316
1576 2 2 0 210 173 318 174
1577 2 2 0 210 317 318 173
1578 2 2 0 210 198 317 197
1579 2 2 0 210 198 318 317
1580 2 2 0 211 348 318 198
1581 2 2 0 211 174 318 559
1582 2 2 0 211 318 348 559
1583 2 2 0 211 199 175 560
1584 2 2 0 211 319 174 559
1585 2 2 0 211 348 349 559
1586 2 2 0 211 559 349 560
1587 2 2 0 211 319 559 560
1588 2 2 0 211 175 319 560
1589 2 2 0 211 349 199 560
1590 2 2 0 212 321 351 200
1591 2 2 0 212 321 176 561
1592 2 2 0 212 351 321 561
1593 2 2 0 212 175 199 562
1594 2 2 0 212 176 320 561
1595 2 2 0 212 350 351 561
1596 2 2 0 212 350 561 562
1597 2 2 0 212 561 320 562
1598 2 2 0 212 320 175 562
1599 2 2 0 212 199 350 562
1600 2 2 0 213 321 177 176
1601 2 2 0 213 322 177 321
1602 2 2 0 213 201 322 200
1603 2 2 0 213 322 321 200
1604 2 2 0 214 322 178 177
1605 2 2 0 214 323 178 322
1606 2 2 0 214 202 323 201
1607 2 2 0 214 323 322 201
1608 2 2 0 215 324 179 178
1609 2 2 0 215 323 324 178
1610 2 2 0 215 203 323 202
1611 2 2 0 215 203 324 323
1612 2 2 0 216 325 180 179
1613 2 2 0 216 324 325 179
1614 2 2 0 216 204 324 203
1615 2 2 0 216 204 325 324
1616 2 2 0 217 205 181 563
1617 2 2 0 217 325 357 564
1618 2 2 0 217 357 205 563
1619 2 2 0 217 180 325 564
1620 2 2 0 217 326 180 564
1621 2 2 0 217 181 326 563
1622 2 2 0 217 563 326 564
1623 2 2 0 217 357 563 564
1624 2 2 0 217 357 325 204
1625 2 2 0 218 181 205 565
1626 2 2 0 218 359 328 566
1627 2 2 0 218 205 359 565
1628 2 2 0 218 328 182 566
1629 2 2 0 218 182 327 566
1630 2 2 0 218 327 181 565
1631 2 2 0 218 327 565 566
1632 2 2 0 218 565 359 566
1633 2 2 0 218 328 359 206
1634 2 2 0 219 328 183 182
1635 2 2 0 219 329 183 328
1636 2 2 0 219 207 329 206
1637 2 2 0 219 329 328 206
1638 2 2 0 220 329 184 183
1639 2 2 0 220 330 184 329
1640 2 2 0 220 208 330 207
1641 2 2 0 220 330 329 207
1642 2 2 0 221 331 185 184
1643 2 2 0 221 330 331 184
1644 2 2 0 221 209 330 208
1645 2 2 0 221 209 331 330
1646 2 2 0 222 185 332 186
1647 2 2 0 222 331 332 185
1648 2 2 0 222 210 331 209
1649 2 2 0 222 210 332 331
1650 2 2 0 223 365 332 210
1651 2 2 0 223 186 332 567
1652 2 2 0 223 332 365 567
1653 2 2 0 223 211 187 568
1654 2 2 0 223 333 186 567
1655 2 2 0 223 365 366 567
1656 2 2 0 223 567 366 568
1657 2 2 0 223 333 567 568
1658 2 2 0 223 187 333 568
1659 2 2 0 223 366 211 568
1660 2 2 0 224 335 368 212
1661 2 2 0 224 335 188 569
1662 2 2 0 224 368 335 569
1663 2 2 0 224 187 211 570
1664 2 2 0 224 188 334 569
1665 2 2 0 224 367 368 569
1666 2 2 0 224 367 569 570
1667 2 2 0 224 569 334 570
1668 2 2 0 224 334 187 570
1669 2 2 0 224 211 367 570
1670 2 2 0 225 335 189 188
1671 2 2 0 225 336 189 335
1672 2 2 0 225 213 336 212
1673 2 2 0 225 336 335 212
1674 2 2 0 226 336 190 189
1675 2 2 0 226 337 190 336
1676 2 2 0 226 214 337 213
1677 2 2 0 226 337 336 213
1678 2 2 0 227 338 191 190
1679 2 2 0 227 337 338 190
1680 2 2 0 227 215 337 214
1681 2 2 0 227 215 338 337
1682 2 2 0 228 339 192 191
1683 2 2 0 228 338 339 191
1684 2 2 0 228 216 338 215
1685 2 2 0 228 216 339 338
1686 2 2 0 229 193 169 571
1687 2 2 0 229 339 374 572
1688 2 2 0 229 374 193 571
1689 2 2 0 229 192 339 572
1690 2 2 0 229 340 192 572
1691 2 2 0 229 169 340 571
1692 2 2 0 229 571 340 572
1693 2 2 0 229 374 571 572
1694 2 2 0 229 339 216 374
1695 2 2 0 230 341 217 574
1696 2 2 0 230 343 376 218
1697 2 2 0 230 342 193 574
1698 2 2 0 230 217 375 574
1699 2 2 0 230 193 341 574
1700 2 2 0 230 343 194 573
1701 2 2 0 230 194 342 573
1702 2 2 0 230 376 343 573
1703 2 2 0 230 375 376 573
1704 2 2 0 230 375 573 574
1705 2 2 0 230 573 342 574
1706 2 2 0 231 343 195 194
1707 2 2 0 231 344 195 343
1708 2 2 0 231 219 344 218
1709 2 2 0 231 344 343 218
1710 2 2 0 232 344 196 195
1711 2 2 0 232 345 196 344
1712 2 2 0 232 345 344 219
1713 2 2 0 232 220 345 219
1714 2 2 0 233 346 197 196
1715 2 2 0 233 345 346 196
1716 2 2 0 233 221 345 220
1717 2 2 0 233 221 346 345
1718 2 2 0 234 197 347 198
1719 2 2 0 234 346 347 197
1720 2 2 0 234 222 346 221
1721 2 2 0 234 222 347 346
1722 2 2 0 235 382 347 222
1723 2 2 0 235 223 199 576
1724 2 2 0 235 347 382 575
1725 2 2 0 235 198 347 575
1726 2 2 0 235 348 575 577
1727 2 2 0 235 382 383 575
1728 2 2 0 235 348 198 575
1729 2 2 0 235 575 383 577
1730 2 2 0 235 383 384 577
1731 2 2 0 235 384 223 576
1732 2 2 0 235 199 349 576
1733 2 2 0 235 349 348 577
1734 2 2 0 235 576 349 577
1735 2 2 0 235 384 576 577
1736 2 2 0 236 352 387 224
1737 2 2 0 236 199 223 579
1738 2 2 0 236 387 352 578
1739 2 2 0 236 352 200 578
1740 2 2 0 236 578 351 580
1741 2 2 0 236 386 387 578
1742 2 2 0 236 200 351 578
1743 2 2 0 236 386 578 580
1744 2 2 0 236 385 386 580
1745 2 2 0 236 223 385 579
1746 2 2 0 236 350 199 579
1747 2 2 0 236 351 350 580
1748 2 2 0 236 350 579 580
1749 2 2 0 236 579 385 580
1750 2 2 0 237 352 201 200
1751 2 2 0 237 353 201 352
1752 2 2 0 237 225 353 224
1753 2 2 0 237 353 352 224
1754 2 2 0 238 353 202 201
1755 2 2 0 238 354 202 353
1756 2 2 0 238 226 354 225
1757 2 2 0 238 354 353 225
1758 2 2 0 239 355 203 202
1759 2 2 0 239 354 355 202
1760 2 2 0 239 227 355 354
1761 2 2 0 239 227 354 226
1762 2 2 0 240 356 204 203
1763 2 2 0 240 355 356 203
1764 2 2 0 240 228 355 227
1765 2 2 0 240 228 356 355
1766 2 2 0 241 229 358 582
1767 2 2 0 241 393 356 228
1768 2 2 0 241 205 357 582
1769 2 2 0 241 394 229 582
1770 2 2 0 241 358 205 582
1771 2 2 0 241 204 356 581
1772 2 2 0 241 357 204 581
1773 2 2 0 241 356 393 581
1774 2 2 0 241 393 394 581
1775 2 2 0 241 581 394 582
1776 2 2 0 241 357 581 582
1777 2 2 0 242 358 229 584
1778 2 2 0 242 360 396 230
1779 2 2 0 242 359 205 584
1780 2 2 0 242 229 395 584
1781 2 2 0 242 205 358 584
1782 2 2 0 242 360 206 583
1783 2 2 0 242 206 359 583
1784 2 2 0 242 396 360 583
1785 2 2 0 242 395 396 583
1786 2 2 0 242 395 583 584
1787 2 2 0 242 583 359 584
1788 2 2 0 243 360 207 206
1789 2 2 0 243 361 207 360
1790 2 2 0 243 231 361 230
1791 2 2 0 243 361 360 230
1792 2 2 0 244 361 208 207
1793 2 2 0 244 362 208 361
1794 2 2 0 244 362 361 231
1795 2 2 0 244 232 362 231
1796 2 2 0 245 363 209 208
1797 2 2 0 245 362 363 208
1798 2 2 0 245 233 362 232
1799 2 2 0 245 233 363 362
1800 2 2 0 246 209 364 210
1801 2 2 0 246 363 364 209
1802 2 2 0 246 234 363 233
1803 2 2 0 246 234 364 363
1804 2 2 0 247 402 364 234
1805 2 2 0 247 235 211 586
1806 2 2 0 247 364 402 585
1807 2 2 0 247 210 364 585
1808 2 2 0 247 365 585 587
1809 2 2 0 247 402 403 585
1810 2 2 0 247 365 210 585
1811 2 2 0 247 585 403 587
1812 2 2 0 247 403 404 587
1813 2 2 0 247 404 235 586
1814 2 2 0 247 211 366 586
1815 2 2 0 247 366 365 587
1816 2 2 0 247 586 366 587
1817 2 2 0 247 404 586 587
1818 2 2 0 248 369 407 236
1819 2 2 0 248 211 235 589
1820 2 2 0 248 407 369 588
1821 2 2 0 248 369 212 588
1822 2 2 0 248 588 368 590
1823 2 2 0 248 406 407 588
1824 2 2 0 248 212 368 588
1825 2 2 0 248 406 588 590
1826 2 2 0 248 405 406 590
1827 2 2 0 248 235 405 589
1828 2 2 0 248 367 211 589
1829 2 2 0 248 368 367 590
1830 2 2 0 248 367 589 590
1831 2 2 0 248 589 405 590
1832 2 2 0 249 369 213 212
1833 2 2 0 249 370 213 369
1834 2 2 0 249 237 370 236
1835 2 2 0 249 370 369 236
1836 2 2 0 250 370 214 213
1837 2 2 0 250 371 214 370
1838 2 2 0 250 238 371 237
1839 2 2 0 250 371 370 237
1840 2 2 0 251 372 215 214
1841 2 2 0 251 371 372 214
1842 2 2 0 251 239 372 371
1843 2 2 0 251 239 371 238
1844 2 2 0 252 373 216 215
1845 2 2 0 252 372 373 215
1846 2 2 0 252 240 372 239
1847 2 2 0 252 240 373 372
1848 2 2 0 253 217 341 592
1849 2 2 0 253 413 373 240
1850 2 2 0 253 193 374 592
1851 2 2 0 253 414 217 592
1852 2 2 0 253 341 193 592
1853 2 2 0 253 216 373 591
1854 2 2 0 253 374 216 591
1855 2 2 0 253 373 413 591
1856 2 2 0 253 413 414 591
1857 2 2 0 253 591 414 592
1858 2 2 0 253 374 591 592
1859 2 2 0 254 377 417 242
1860 2 2 0 254 377 218 593
1861 2 2 0 254 417 377 593
1862 2 2 0 254 218 376 593
1863 2 2 0 254 376 416 593
1864 2 2 0 254 416 417 593
1865 2 2 0 254 416 376 595
1866 2 2 0 254 217 241 594
1867 2 2 0 254 376 375 595
1868 2 2 0 254 375 217 594
1869 2 2 0 254 241 415 594
1870 2 2 0 254 415 416 595
1871 2 2 0 254 594 415 595
1872 2 2 0 254 375 594 595
1873 2 2 0 255 377 219 218
1874 2 2 0 255 378 219 377
1875 2 2 0 255 243 378 242
1876 2 2 0 255 378 377 242
1877 2 2 0 256 378 220 219
1878 2 2 0 256 379 220 378
1879 2 2 0 256 244 379 243
1880 2 2 0 256 379 378 243
1881 2 2 0 257 380 221 220
1882 2 2 0 257 379 380 220
1883 2 2 0 257 245 379 244
1884 2 2 0 257 245 380 379
1885 2 2 0 258 381 222 221
1886 2 2 0 258 380 381 221
1887 2 2 0 258 246 380 245
1888 2 2 0 258 246 381 380
1889 2 2 0 259 383 419 420
1890 2 2 0 259 384 383 420
1891 2 2 0 259 383 382 419
1892 2 2 0 259 418 419 596
1893 2 2 0 259 222 381 596
1894 2 2 0 259 381 418 596
1895 2 2 0 259 419 382 596
1896 2 2 0 259 420 247 597
1897 2 2 0 259 382 222 596
1898 2 2 0 259 384 420 597
1899 2 2 0 259 247 223 597
1900 2 2 0 259 223 384 597
1901 2 2 0 259 418 381 246
1902 2 2 0 260 422 386 421
1903 2 2 0 260 386 385 421
1904 2 2 0 260 387 386 422
1905 2 2 0 260 422 423 598
1906 2 2 0 260 388 224 598
1907 2 2 0 260 423 388 598
1908 2 2 0 260 387 422 598
1909 2 2 0 260 247 421 599
1910 2 2 0 260 224 387 598
1911 2 2 0 260 421 385 599
1912 2 2 0 260 223 247 599
1913 2 2 0 260 385 223 599
1914 2 2 0 260 388 423 248
1915 2 2 0 261 388 225 224
1916 2 2 0 261 389 225 388
1917 2 2 0 261 249 389 248
1918 2 2 0 261 389 388 248
1919 2 2 0 262 389 226 225
1920 2 2 0 262 390 226 389
1921 2 2 0 262 250 390 249
1922 2 2 0 262 390 389 249
1923 2 2 0 263 391 227 226
1924 2 2 0 263 390 391 226
1925 2 2 0 263 251 390 250
1926 2 2 0 263 251 391 390
1927 2 2 0 264 392 228 227
1928 2 2 0 264 391 392 227
1929 2 2 0 264 252 391 251
1930 2 2 0 264 252 392 391
1931 2 2 0 265 424 392 252
1932 2 2 0 265 228 392 600
1933 2 2 0 265 392 424 600
1934 2 2 0 265 393 228 600
1935 2 2 0 265 425 393 600
1936 2 2 0 265 424 425 600
1937 2 2 0 265 393 425 602
1938 2 2 0 265 253 229 601
1939 2 2 0 265 394 393 602
1940 2 2 0 265 229 394 601
1941 2 2 0 265 426 253 601
1942 2 2 0 265 425 426 602
1943 2 2 0 265 426 601 602
1944 2 2 0 265 601 394 602
1945 2 2 0 266 397 429 254
1946 2 2 0 266 397 230 603
1947 2 2 0 266 429 397 603
1948 2 2 0 266 230 396 603
1949 2 2 0 266 396 428 603
1950 2 2 0 266 428 429 603
1951 2 2 0 266 428 396 605
1952 2 2 0 266 229 253 604
1953 2 2 0 266 396 395 605
1954 2 2 0 266 395 229 604
1955 2 2 0 266 253 427 604
1956 2 2 0 266 427 428 605
1957 2 2 0 266 604 427 605
1958 2 2 0 266 395 604 605
1959 2 2 0 267 397 231 230
1960 2 2 0 267 398 231 397
1961 2 2 0 267 255 398 254
1962 2 2 0 267 398 397 254
1963 2 2 0 268 398 232 231
1964 2 2 0 268 399 232 398
1965 2 2 0 268 256 399 255
1966 2 2 0 268 399 398 255
1967 2 2 0 269 400 233 232
1968 2 2 0 269 399 400 232
1969 2 2 0 269 257 399 256
1970 2 2 0 269 257 400 399
1971 2 2 0 270 401 234 233
1972 2 2 0 270 400 401 233
1973 2 2 0 270 258 400 257
1974 2 2 0 270 258 401 400
1975 2 2 0 271 431 432 403
1976 2 2 0 271 432 404 403
1977 2 2 0 271 402 431 403
1978 2 2 0 271 430 431 606
1979 2 2 0 271 234 401 606
1980 2 2 0 271 401 430 606
1981 2 2 0 271 431 402 606
1982 2 2 0 271 432 259 607
1983 2 2 0 271 402 234 606
1984 2 2 0 271 404 432 607
1985 2 2 0 271 259 235 607
1986 2 2 0 271 235 404 607
1987 2 2 0 271 430 401 258
1988 2 2 0 272 434 406 433
1989 2 2 0 272 406 405 433
1990 2 2 0 272 406 434 407
1991 2 2 0 272 434 435 608
1992 2 2 0 272 408 236 608
1993 2 2 0 272 435 408 608
1994 2 2 0 272 407 434 608
1995 2 2 0 272 259 433 609
1996 2 2 0 272 236 407 608
1997 2 2 0 272 433 405 609
1998 2 2 0 272 235 259 609
1999 2 2 0 272 405 235 609
2000 2 2 0 272 408 435 260
2001 2 2 0 273 408 237 236
2002 2 2 0 273 409 237 408
2003 2 2 0 273 261 409 260
2004 2 2 0 273 409 408 260
2005 2 2 0 274 409 238 237
2006 2 2 0 274 410 238 409
2007 2 2 0 274 262 410 261
2008 2 2 0 274 410 409 261
2009 2 2 0 275 411 239 238
2010 2 2 0 275 410 411 238
2011 2 2 0 275 263 410 262
2012 2 2 0 275 263 411 410
2013 2 2 0 276 412 240 239
2014 2 2 0 276 411 412 239
2015 2 2 0 276 264 411 263
2016 2 2 0 276 264 412 411
2017 2 2 0 277 436 412 264
2018 2 2 0 277 240 412 610
2019 2 2 0 277 412 436 610
2020 2 2 0 277 413 240 610
2021 2 2 0 277 437 413 610
2022 2 2 0 277 436 437 610
2023 2 2 0 277 413 437 612
2024 2 2 0 277 241 217 611
2025 2 2 0 277 414 413 612
2026 2 2 0 277 217 414 611
2027 2 2 0 277 438 241 611
2028 2 2 0 277 437 438 612
2029 2 2 0 277 438 611 612
2030 2 2 0 277 611 414 612
2031 2 2 0 278 416 415 440
2032 2 2 0 278 440 415 439
2033 2 2 0 278 417 416 441
2034 2 2 0 278 441 416 440
2035 2 2 0 278 242 417 442
2036 2 2 0 278 442 417 441
2037 2 2 0 278 242 442 266
2038 2 2 0 278 415 241 613
2039 2 2 0 278 265 439 613
2040 2 2 0 278 439 415 613
2041 2 2 0 278 241 265 613
2042 2 2 0 279 266 243 242
2043 2 2 0 279 267 243 266
2044 2 2 0 280 268 244 243
2045 2 2 0 280 267 268 243
2046 2 2 0 281 244 269 245
2047 2 2 0 281 268 269 244
2048 2 2 0 282 245 270 246
2049 2 2 0 282 269 270 245
2050 2 2 0 283 445 446 615
2051 2 2 0 283 446 271 614
2052 2 2 0 283 270 443 246
2053 2 2 0 283 419 445 615
2054 2 2 0 283 271 247 614
2055 2 2 0 283 420 446 614
2056 2 2 0 283 446 420 615
2057 2 2 0 283 247 420 614
2058 2 2 0 283 420 419 615
2059 2 2 0 283 443 418 246
2060 2 2 0 283 419 418 444
2061 2 2 0 283 444 418 443
2062 2 2 0 283 445 419 444
2063 2 2 0 284 447 448 617
2064 2 2 0 284 271 447 616
2065 2 2 0 284 248 450 272
2066 2 2 0 284 448 422 617
2067 2 2 0 284 247 271 616
2068 2 2 0 284 447 421 616
2069 2 2 0 284 421 447 617
2070 2 2 0 284 421 247 616
2071 2 2 0 284 422 421 617
2072 2 2 0 284 450 248 423
2073 2 2 0 284 449 423 422
2074 2 2 0 284 449 422 448
2075 2 2 0 284 450 423 449
2076 2 2 0 285 272 249 248
2077 2 2 0 285 272 273 249
2078 2 2 0 286 273 250 249
2079 2 2 0 286 274 250 273
2080 2 2 0 287 274 251 250
2081 2 2 0 287 275 251 274
2082 2 2 0 288 276 252 251
2083 2 2 0 288 275 276 251
2084 2 2 0 289 453 426 425
2085 2 2 0 289 453 454 426
2086 2 2 0 289 424 452 425
2087 2 2 0 289 452 453 425
2088 2 2 0 289 451 424 252
2089 2 2 0 289 452 424 451
2090 2 2 0 289 276 451 252
2091 2 2 0 289 253 426 618
2092 2 2 0 289 454 277 618
2093 2 2 0 289 426 454 618
2094 2 2 0 289 277 253 618
2095 2 2 0 290 428 427 456
2096 2 2 0 290 456 427 455
2097 2 2 0 290 428 457 429
2098 2 2 0 290 457 428 456
2099 2 2 0 290 458 254 429
2100 2 2 0 290 457 458 429
2101 2 2 0 290 254 458 278
2102 2 2 0 290 427 253 619
2103 2 2 0 290 277 455 619
2104 2 2 0 290 455 427 619
2105 2 2 0 290 253 277 619
2106 2 2 0 291 278 255 254
2107 2 2 0 291 279 255 278
2108 2 2 0 292 280 256 255
2109 2 2 0 292 279 280 255
2110 2 2 0 293 256 281 257
2111 2 2 0 293 280 281 256
2112 2 2 0 294 257 282 258
2113 2 2 0 294 281 282 257
2114 2 2 0 295 461 462 621
2115 2 2 0 295 462 283 620
2116 2 2 0 295 282 459 258
2117 2 2 0 295 431 461 621
2118 2 2 0 295 283 259 620
2119 2 2 0 295 432 462 620
2120 2 2 0 295 462 432 621
2121 2 2 0 295 259 432 620
2122 2 2 0 295 432 431 621
2123 2 2 0 295 459 430 258
2124 2 2 0 295 431 430 460
2125 2 2 0 295 460 430 459
2126 2 2 0 295 461 431 460
2127 2 2 0 296 463 464 623
2128 2 2 0 296 283 463 622
2129 2 2 0 296 260 466 284
2130 2 2 0 296 464 434 623
2131 2 2 0 296 259 283 622
2132 2 2 0 296 463 433 622
2133 2 2 0 296 433 463 623
2134 2 2 0 296 433 259 622
2135 2 2 0 296 434 433 623
2136 2 2 0 296 260 435 466
2137 2 2 0 296 435 434 465
2138 2 2 0 296 434 464 465
2139 2 2 0 296 466 435 465
2140 2 2 0 297 284 261 260
2141 2 2 0 297 284 285 261
2142 2 2 0 298 285 262 261
2143 2 2 0 298 286 262 285
2144 2 2 0 299 286 263 262
2145 2 2 0 299 287 263 286
2146 2 2 0 300 288 264 263
2147 2 2 0 300 287 288 263
2148 2 2 0 301 438 437 469
2149 2 2 0 301 438 469 470
2150 2 2 0 301 437 436 468
2151 2 2 0 301 469 437 468
2152 2 2 0 301 467 436 264
2153 2 2 0 301 468 436 467
2154 2 2 0 301 288 467 264
2155 2 2 0 301 241 438 624
2156 2 2 0 301 470 265 624
2157 2 2 0 301 438 470 624
2158 2 2 0 301 265 241 624
2159 2 2 0 302 471 439 625
2160 2 2 0 302 265 289 625
2161 2 2 0 302 439 265 625
2162 2 2 0 302 289 471 625
2163 2 2 0 302 266 474 290
2164 2 2 0 302 266 442 474
2165 2 2 0 302 440 439 471
2166 2 2 0 302 441 440 472
2167 2 2 0 302 472 440 471
2168 2 2 0 302 442 441 473
2169 2 2 0 302 441 472 473
2170 2 2 0 302 474 442 473
2171 2 2 0 303 290 267 266
2172 2 2 0 303 291 267 290
2173 2 2 0 304 292 268 267
2174 2 2 0 304 291 292 267
2175 2 2 0 305 293 269 268
2176 2 2 0 305 292 293 268
2177 2 2 0 306 269 294 270
2178 2 2 0 306 293 294 269
2179 2 2 0 307 446 478 626
2180 2 2 0 307 295 271 626
2181 2 2 0 307 294 475 270
2182 2 2 0 307 475 443 270
2183 2 2 0 307 271 446 626
2184 2 2 0 307 478 295 626
2185 2 2 0 307 443 475 476
2186 2 2 0 307 444 443 476
2187 2 2 0 307 445 444 477
2188 2 2 0 307 477 444 476
2189 2 2 0 307 446 445 478
2190 2 2 0 307 445 477 478
2191 2 2 0 308 479 447 627
2192 2 2 0 308 271 295 627
2193 2 2 0 308 447 271 627
2194 2 2 0 308 272 482 296
2195 2 2 0 308 450 482 272
2196 2 2 0 308 295 479 627
2197 2 2 0 308 482 450 481
2198 2 2 0 308 448 447 479
2199 2 2 0 308 449 448 480
2200 2 2 0 308 480 448 479
2201 2 2 0 308 450 449 481
2202 2 2 0 308 481 449 480
2203 2 2 0 309 296 273 272
2204 2 2 0 309 296 297 273
2205 2 2 0 310 297 274 273
2206 2 2 0 310 298 274 297
2207 2 2 0 311 298 275 274
2208 2 2 0 311 299 275 298
2209 2 2 0 312 300 276 275
2210 2 2 0 312 299 300 275
2211 2 2 0 313 454 486 628
2212 2 2 0 313 301 277 628
2213 2 2 0 313 277 454 628
2214 2 2 0 313 486 301 628
2215 2 2 0 313 300 483 276
2216 2 2 0 313 483 451 276
2217 2 2 0 313 452 451 484
2218 2 2 0 313 451 483 484
2219 2 2 0 313 453 452 485
2220 2 2 0 313 485 452 484
2221 2 2 0 313 454 453 486
2222 2 2 0 313 486 453 485
2223 2 2 0 314 487 455 629
2224 2 2 0 314 277 301 629
2225 2 2 0 314 455 277 629
2226 2 2 0 314 301 487 629
2227 2 2 0 314 278 490 302
2228 2 2 0 314 490 278 458
2229 2 2 0 314 456 455 487
2230 2 2 0 314 456 488 457
2231 2 2 0 314 488 456 487
2232 2 2 0 314 489 458 457
2233 2 2 0 314 488 489 457
2234 2 2 0 314 489 490 458
2235 2 2 0 315 302 279 278
2236 2 2 0 315 303 279 302
2237 2 2 0 316 304 280 279
2238 2 2 0 316 303 304 279
2239 2 2 0 317 305 281 280
2240 2 2 0 317 304 305 280
2241 2 2 0 318 281 306 282
2242 2 2 0 318 305 306 281
2243 2 2 0 319 462 494 630
2244 2 2 0 319 307 283 630
2245 2 2 0 319 306 491 282
2246 2 2 0 319 491 459 282
2247 2 2 0 319 283 462 630
2248 2 2 0 319 494 307 630
2249 2 2 0 319 492 459 491
2250 2 2 0 319 460 459 492
2251 2 2 0 319 461 460 493
2252 2 2 0 319 493 460 492
2253 2 2 0 319 461 494 462
2254 2 2 0 319 494 461 493
2255 2 2 0 320 495 463 631
2256 2 2 0 320 283 307 631
2257 2 2 0 320 463 283 631
2258 2 2 0 320 284 498 308
2259 2 2 0 320 284 466 498
2260 2 2 0 320 307 495 631
2261 2 2 0 320 498 466 497
2262 2 2 0 320 495 464 463
2263 2 2 0 320 464 496 465
2264 2 2 0 320 495 496 464
2265 2 2 0 320 497 466 465
2266 2 2 0 320 496 497 465
2267 2 2 0 321 308 285 284
2268 2 2 0 321 308 309 285
2269 2 2 0 322 309 286 285
2270 2 2 0 322 310 286 309
2271 2 2 0 323 310 287 286
2272 2 2 0 323 311 287 310
2273 2 2 0 324 312 288 287
2274 2 2 0 324 311 312 287
2275 2 2 0 325 470 502 632
2276 2 2 0 325 289 265 632
2277 2 2 0 325 265 470 632
2278 2 2 0 325 502 289 632
2279 2 2 0 325 312 499 288
2280 2 2 0 325 499 467 288
2281 2 2 0 325 467 500 468
2282 2 2 0 325 500 467 499
2283 2 2 0 325 501 469 468
2284 2 2 0 325 500 501 468
2285 2 2 0 325 469 502 470
2286 2 2 0 325 502 469 501
$EndElements
