$MeshFormat
2.2 0 8
$EndMeshFormat
$PhysicalNames
4
2 1 "SD1G0"
2 2 "SD1D1001"
2 3 "SD2G0"
2 4 "I1-2"
$EndPhysicalNames
$Nodes
802
1 12.7 0 0
2 9.468 8.464 0
3 0 12.7 0
4 12.938 0 5.101
5 9.765000000000001 8.73 5.101
6 0 12.845 5.101
7 14.477 0 14.247
8 11.606 10.376 14.247
9 0 13.814 14.247
10 18.874 0 28.25
11 16.446 14.702 28.25
12 0 16.781 28.25
13 27.668 0 48.483
14 25.379 22.689 48.483
15 0 23.217 48.483
16 41.488 0 74.58
17 38.677 34.577 74.58
18 0 34.013 74.58
19 61.574 0 104.952
20 57.427 51.34 104.952
21 0 50.509 104.952
22 91.131 0 135.23
23 85.123 76.101 135.23
24 0 75.693 135.23
25 131.504 0 160.33
26 123.77 110.651 160.33
27 0 110.768 160.33
28 179.36 0 179.147
29 170.121 152.089 179.147
30 0 152.791 179.147
31 225.01 0 191.55
32 214.132 191.435 191.55
33 0 193.308 191.55
34 262.821 0 198.986
35 249.723 223.254 198.986
36 0 227.422 198.986
37 287.539 0 202.318
38 271.862 243.046 202.318
39 0 250.309 202.318
40 0 0 202.318
41 0 0 0
42 0 0 32.318
43 288 0 202.318
44 298 0 192.318
45 298 0 42.318
46 288 0 32.318
47 0 251 202.318
48 0 261 192.318
49 0 261 42.318
50 0 251 32.318
51 288 251 202.318
52 298 251 192.318
53 298 251 42.318
54 288 251 32.318
55 288 261 192.318
56 288 261 42.318
57 11.1076721291055 4.639723406300492 0
58 5.279380974684038 10.52791071353739 0
59 11.35612639281538 4.754208361504286 5.101
60 5.398740280123362 10.7147183123479 5.101
61 12.92998194614749 5.510499866543157 14.247
62 6.216222844289895 11.90137111395661 14.247
63 10.65577558908331 9.526424019354225 9.526330547395954
64 17.28471287462671 7.677022651307059 28.25
65 8.605502751885075 15.28624916135364 28.25
66 13.91985174788533 12.44412451680825 20.94139380695005
67 16.57906738335793 0 20.94139380695045
68 0 15.23242936694475 20.94139380698594
69 25.77365368781889 11.79696142169445 48.483
70 13.18777959667649 22.15977410531831 48.483
71 20.68262419084937 18.48996791809178 37.84583759693891
72 23.04470112328742 0 37.8458375969382
73 0 19.83338030812117 37.84583759698813
74 39.752390408248 11.97773350472823 74.58
75 38.04215741439079 23.95906215981243 74.58
76 26.75874262600396 32.82646230654662 74.58
77 13.37861670051982 33.40165205588948 74.57999999999998
78 31.66893357696431 28.31200574243884 60.82684092029159
79 34.20483877527776 0 60.82684092029115
80 0 28.32349141955703 60.82684092035753
81 59.13416569553953 17.7871371551043 104.952
82 56.72675427605257 35.5786273168731 104.952
83 39.73221778800855 48.95180276507752 104.952
84 19.86524424387217 49.7068927774213 104.952
85 47.58207320850148 42.53837291701922 89.00479378605904
86 51.02758935817921 0 89.00479378605094
87 0 41.84756467456489 89.004793786123
88 88.96150831538058 19.82217910145011 135.23
89 86.76643423593688 39.6415562517602 135.23
90 84.68382311212156 59.47294517140344 135.23
91 66.39551919265513 73.67979219156447 135.23
92 44.26078054105935 74.24576063997486 135.23
93 22.13101204499914 74.98887504752481 135.23
94 70.67051558183346 63.18007399342065 119.4301616401918
95 75.70739796549192 0 119.4301616401923
96 0 62.55134172496483 119.430161640267
97 129.5587691048452 29.09233779066835 160.33
98 127.6006042104818 58.18381117146379 160.33
99 125.6928363394648 87.27861555877753 160.33
100 103.7426309077015 109.4571730300923 160.33
101 77.80566382542071 109.654688289784 160.33
102 51.87032265261062 110.0175935037646 160.33
103 25.93543713012358 110.4122883057258 160.33
104 97.49940832133174 87.16537517794426 143.2680844273922
105 110.3750314076918 98.67604295639379 151.6303930016059
106 110.7189922424953 0 147.4079061572494
107 0 92.71053220988368 147.4079061573223
108 178.5257208142304 27.08463221932019 179.147
109 177.7028641480573 54.16961569606364 179.147
110 176.878409533288 81.25455038128953 179.147
111 176.0377632599277 108.3389867093887 179.147
112 175.1386031510186 135.4215260985355 179.147
113 150.2598528467592 153.2241856066081 179.147
114 120.2082553355224 153.0514181028872 179.147
115 90.15622907812704 152.9704000002757 179.147
116 60.10414196013958 152.9150719794037 179.147
117 30.05205119970073 152.8622120822815 179.147
118 138.7874252656327 124.076644930148 166.4265867235531
119 154.2336807269378 137.8856659610979 172.697264573338
120 154.9268072995207 0 169.539858010596
121 0 131.3358834660957 169.5398580106495
122 224.6898303399115 29.62246836467996 191.55
123 224.4024521310105 59.24527706967256 191.55
124 224.1193254470037 88.86812765752414 191.55
125 223.8147327731359 118.4907635598475 191.55
126 223.4463112739038 148.1126615958143 191.55
127 222.8561943469803 177.7306899078001 191.55
128 196.5588735013488 195.176492796006 191.55
129 163.7990275377029 194.8683085211508 191.55
130 131.0392126401516 194.5571982655137 191.55
131 98.27940780274977 194.2449901655483 191.55
132 65.51960737137081 193.9324128194316 191.55
133 32.75980501022987 193.6199155338919 191.55
134 191.8589203957015 171.5227828245046 185.2730918104084
135 201.9074555466363 0 185.2730918104037
136 0 172.8031633381773 185.2730918104354
137 262.6904141597602 30.48248746423376 198.986
138 262.6038241429305 60.96513967938148 198.986
139 262.5295264669089 91.44782502692955 198.986
140 262.4419391623296 121.9304743569694 198.986
141 262.3088214056187 152.4129531858597 198.986
142 262.065196908512 182.8947168953395 198.986
143 261.4207613022997 213.3696551698274 198.986
144 235.6515468328653 229.1714450771867 198.986
145 201.9864195028972 229.0272408006772 198.986
146 168.3217832742172 228.7902148956789 198.986
147 134.6573645461397 228.5244268737061 198.986
148 100.9930391921218 228.2466789222649 198.986
149 67.32874382458476 227.9655062011873 198.986
150 33.66441846215594 227.6877666893219 198.986
151 231.8102548177725 207.2396806790116 195.243504055097
152 243.7909416120839 0 195.2435040551019
153 0 210.2526204056399 195.2435040551192
154 287.3073049430967 33.30638103709502 202.318
155 287.1282240736151 66.61309484716159 202.318
156 286.9638046045981 99.9198847508932 202.318
157 286.7834186327923 133.2265921499024 202.318
158 286.5484075240066 166.5329506980698 202.318
159 286.1805974840842 199.8380654848739 202.318
160 285.3246681013829 233.1328344688456 202.318
161 261.5449548713513 250.1998676226143 202.318
162 228.8524560015943 250.4003374630435 202.318
163 196.1592727590905 250.4443899347037 202.318
164 163.4660497958387 250.4414595898851 202.318
165 130.772836936175 250.4175614361134 202.318
166 98.07963081243305 250.3844669494403 202.318
167 65.38642664922803 250.3500341344649 202.318
168 32.69321730129016 250.3216385090334 202.318
169 255.5902222222764 0 202.318
170 223.6414444446004 0 202.318
171 191.6926666669144 0 202.318
172 159.7438888892286 0 202.318
173 127.7951111114533 0 202.318
174 95.84633333359227 0 202.318
175 63.89755555573186 0 202.318
176 31.94877777787144 0 202.318
177 0 31.28862499994286 202.318
178 0 62.57724999985125 202.318
179 0 93.86587499976036 202.318
180 0 125.1544999996667 202.318
181 0 156.4431249997507 202.318
182 0 187.731749999843 202.318
183 0 219.0203749999132 202.318
184 6.349999999983785 0 0
185 0 6.350000000015788 0
186 295.0710678214817 0 199.3890678022492
187 298 0 167.3179999999824
188 298 0 142.3179999999649
189 298 0 117.31800000005
190 298 0 92.31800000003517
191 298 0 67.31800000001759
192 295.0710677963052 0 35.24693217257425
193 264.0000000000916 0 32.318
194 240.0000000001832 0 32.318
195 216.0000000002748 0 32.318
196 192.0000000003664 0 32.318
197 168.0000000004579 0 32.318
198 144.000000000544 0 32.318
199 120.0000000004043 0 32.318
200 96.00000000025906 0 32.318
201 72.00000000011377 0 32.318
202 47.99999999996854 0 32.318
203 23.99999999990843 0 32.318
204 0 258.0710678086445 199.3890678150865
205 0 261 167.3179999999824
206 0 261 142.3179999999649
207 0 261 117.31800000005
208 0 261 92.31800000003517
209 0 261 67.31800000001759
210 0 258.0710677732849 35.24693214955391
211 0 228.1818181818197 32.318
212 0 205.3636363636394 32.318
213 0 182.5454545454591 32.318
214 0 159.7272727272788 32.318
215 0 136.9090909090985 32.318
216 0 114.0909090909015 32.318
217 0 91.27272727272123 32.318
218 0 68.45454545454095 32.318
219 0 45.63636363636061 32.318
220 0 22.81818181818034 32.318
221 23.99999999994312 251 202.318
222 47.99999999987528 251 202.318
223 71.99999999977784 251 202.318
224 95.9999999996804 251 202.318
225 119.999999999583 251 202.318
226 143.9999999994911 251 202.318
227 167.9999999996249 251 202.318
228 191.9999999997643 251 202.318
229 215.9999999999038 251 202.318
230 240.0000000000432 251 202.318
231 264.0000000000974 251 202.318
232 295.0710678214817 251 199.3890678022492
233 298 251 167.3179999999824
234 298 251 142.3179999999649
235 298 251 117.31800000005
236 298 251 92.31800000003517
237 298 251 67.31800000001759
238 295.0710677963052 251 35.24693217257425
239 264.0000000000916 251 32.318
240 240.0000000001832 251 32.318
241 216.0000000002748 251 32.318
242 192.0000000003664 251 32.318
243 168.0000000004579 251 32.318
244 144.000000000544 251 32.318
245 120.0000000004043 251 32.318
246 96.00000000025906 251 32.318
247 72.00000000011377 251 32.318
248 47.99999999996854 251 32.318
249 23.99999999990843 251 32.318
250 23.99999999994312 261 192.318
251 47.99999999987528 261 192.318
252 71.99999999977784 261 192.318
253 95.9999999996804 261 192.318
254 119.999999999583 261 192.318
255 143.9999999994911 261 192.318
256 167.9999999996249 261 192.318
257 191.9999999997643 261 192.318
258 215.9999999999038 261 192.318
259 240.0000000000432 261 192.318
260 264.0000000000974 261 192.318
261 288 261 167.3179999999824
262 288 261 142.3179999999649
263 288 261 117.31800000005
264 288 261 92.31800000003517
265 288 261 67.31800000001759
266 264.0000000000916 261 42.318
267 240.0000000001832 261 42.318
268 216.0000000002748 261 42.318
269 192.0000000003664 261 42.318
270 168.0000000004579 261 42.318
271 144.000000000544 261 42.318
272 120.0000000004043 261 42.318
273 96.00000000025906 261 42.318
274 72.00000000011377 261 42.318
275 47.99999999996854 261 42.318
276 23.99999999990843 261 42.318
277 288 258.0710678086445 199.3890678150865
278 295.0710678147806 258.0710678089503 192.318
279 295.0710678147806 258.0710678089503 42.318
280 288 258.0710678078863 35.24693218415537
281 288 22.81818181819043 202.318
282 288 45.63636363638063 202.318
283 288 68.4545454545587 202.318
284 288 91.27272727273679 202.318
285 288 114.0909090909148 202.318
286 288 136.9090909091096 202.318
287 288 159.7272727272877 202.318
288 288 182.5454545454658 202.318
289 288 205.3636363636438 202.318
290 288 228.1818181818219 202.318
291 298 22.81818181819043 192.318
292 298 45.63636363638063 192.318
293 298 68.4545454545587 192.318
294 298 91.27272727273679 192.318
295 298 114.0909090909148 192.318
296 298 136.9090909091096 192.318
297 298 159.7272727272877 192.318
298 298 182.5454545454658 192.318
299 298 205.3636363636438 192.318
300 298 228.1818181818219 192.318
301 298 22.81818181819043 42.318
302 298 45.63636363638063 42.318
303 298 68.4545454545587 42.318
304 298 91.27272727273679 42.318
305 298 114.0909090909148 42.318
306 298 136.9090909091096 42.318
307 298 159.7272727272877 42.318
308 298 182.5454545454658 42.318
309 298 205.3636363636438 42.318
310 298 228.1818181818219 42.318
311 288 22.81818181819043 32.318
312 288 45.63636363638063 32.318
313 288 68.4545454545587 32.318
314 288 91.27272727273679 32.318
315 288 114.0909090909148 32.318
316 288 136.9090909091096 32.318
317 288 159.7272727272877 32.318
318 288 182.5454545454658 32.318
319 288 205.3636363636438 32.318
320 288 228.1818181818219 32.318
321 12.04348592123182 2.292664308870048 2.550500000000001
322 10.55357544570761 6.695016040145067 2.554548530063316
323 7.558021832603139 9.724450977596065 2.549871229561766
324 12.30026778919182 5.417619326894533 10.90609757515279
325 11.11507305735105 7.019388128158694 7.51929742098001
326 4.778480690481361 11.61547941447055 9.341622987079642
327 15.7787944550393 3.474589585393011 21.03523586445748
328 14.41706249842337 7.905454283387321 20.18631964669678
329 4.407934897603624 14.3134742424929 21.36951056052484
330 9.992349912922649 13.11446959162173 21.6214607709943
331 21.71708726845634 13.71259857727053 40.27334682623399
332 20.0993163753836 7.365668434821719 34.26995131726164
333 23.87409961677686 6.396858838593844 42.26528126367815
334 13.00002564200059 20.18127097250897 42.9711296046292
335 6.078978344962247 18.84057123600832 37.07001569537218
336 13.91727366653221 17.0759193599173 34.9578047604546
337 29.79042877643629 13.01088651930901 56.28897290155234
338 34.37915255982154 15.30873402560619 65.47107653454299
339 14.68761425472357 29.66986898199787 66.01310879430457
340 9.227233172122007 25.86981059724038 56.36887741541312
341 20.24526039988294 25.37625048175611 56.85780855674255
342 53.2897172341053 16.04662456545769 95.795747026127
343 45.38562337694057 13.77476133228339 83.43078546410288
344 46.48869425416459 28.84958008155678 88.23869053366897
345 19.54910890090054 45.18368848147151 96.64497123825389
346 33.61430383683491 41.22385405527328 90.40145879535922
347 21.24422746903154 38.38161372868878 84.34111006780947
348 68.70303932267407 26.624237381013 115.6668552225516
349 73.71607469278447 44.18375502766914 122.7369384729234
350 79.60546642126641 20.37787780142045 125.8426052465602
351 69.05252892678253 12.31752212925659 114.1935031114132
352 18.51507028101239 57.07909191727219 113.67191042506
353 52.48234715853148 62.0381951581786 120.9552579767106
354 35.55871271909555 63.45962095297551 122.0378657829776
355 15.21661545148809 66.93116126302903 125.3011507066746
356 114.2223219614088 49.36985545923147 151.9765958184681
357 104.4748651927866 33.78667826294785 145.3822042966491
358 105.5607250334055 15.36179231174311 145.0431411707193
359 110.9342950866363 72.14530285200252 151.071635332784
360 99.5508283989769 54.30343064151066 143.558543810166
361 96.17585320533921 69.94854349223576 142.3884669535768
362 87.92917850378682 98.31613254686383 152.506212009624
363 65.78330789143432 98.25111830449876 152.2568438005667
364 17.48577869111588 93.38642515692395 148.1440707689389
365 41.7578169983371 97.98084593785549 151.7494978247156
366 57.83523618572994 85.95196081180988 143.5967697728138
367 36.02105444501485 85.90677306888732 143.1857791198993
368 76.62706750121936 86.37084354479205 144.1224846273347
369 155.5947157760002 15.29435860949787 170.073738658189
370 154.4669226664864 45.03698475947644 170.1554315955052
371 152.0791703164713 69.84064408669259 169.6797522565352
372 158.6677355079217 116.460359580582 172.8567355428576
373 140.8897135582155 105.1049538699166 166.1940225019343
374 156.0645775186291 93.07060277328286 171.5415193744257
375 121.2616039404609 139.8442396759724 173.4265065241707
376 89.53604101410625 132.4368323770799 170.2096985968216
377 113.2044526409146 124.6634548369969 166.8786785287907
378 43.22696603223189 131.8501028792757 169.8578106655524
379 18.12094273176704 132.1161838580499 169.9203815385298
380 68.0173333172721 127.4214037370274 167.9827982014733
381 212.6475214564038 13.06382240134461 188.2467246399623
382 196.577393079542 26.47391250961518 183.9820318894156
383 192.7988908415078 70.08528310269297 183.2299133948594
384 205.9905217248751 48.67150240834092 186.6110441734874
385 210.7475121059045 70.32987502016071 187.9625193663106
386 202.6419520720145 109.1556206806233 186.0078994458754
387 197.3566585699761 88.42076468279717 184.5266957835397
388 194.4716582169231 135.3547631808208 184.0516613390145
389 209.6239567242359 150.8595331163609 188.0144746692184
390 170.8198048375077 175.1109458954383 185.6278434398107
391 148.1643365893139 177.2300302066369 186.3160284106669
392 130.0418522104828 169.8808214461259 184.1571410521054
393 107.1684880407828 173.855862458266 185.3904425322343
394 78.51330106951229 174.0271928061148 185.4959361689849
395 16.95305154299291 172.5207335705256 185.1535091243411
396 45.67842266627794 173.6320120630706 185.437688694395
397 244.0833746064087 162.4086814814228 195.5155086970184
398 243.0800290863745 141.4832823938646 195.2845118855817
399 246.0822861082157 187.2113078246642 195.9657776672233
400 243.5071295086662 69.75977655826107 195.2767146947166
401 243.3347387069848 99.68055321190087 195.2768363522489
402 238.0567276889504 200.1451733242276 195.2348345701315
403 244.7608436446699 48.57553988007436 195.497589176642
404 243.9290485464875 20.03480479706315 195.3004592847359
405 46.64447430034063 210.8421711883989 195.2836039836941
406 21.03681076655244 210.615158172051 195.2831268375447
407 225.213574055914 214.5364021700705 195.8811977460281
408 148.492994523183 208.606540602178 194.5963382552458
409 205.8470482543913 209.5656840083764 194.7056289927048
410 186.9114570762644 212.6155322743693 195.4063161402697
411 125.2815499852184 125.2563737117464 202.318
412 203.5590483276915 86.97444775353945 202.3180000000001
413 195.0428546721647 170.2269171923679 202.318
414 73.00167514760345 73.20768968258261 202.318
415 80.16617335344731 179.8283021018921 202.318
416 135.7378918404839 70.01481914047925 202.318
417 135.3916852909071 189.6852377603321 202.318
418 244.9840855608067 215.3000245878428 202.3180000000001
419 53.29707801601177 125.8285507720501 202.318
420 234.673726596883 126.8541771102519 202.3180000000001
421 234.7756149852438 46.28000399184379 202.3180000000001
422 175.9104995493559 124.0283934477137 202.318
423 184.5688982248219 45.34841757483908 202.318
424 40.14755321249569 41.56967418009735 202.318
425 177.0584936291057 204.0587424007624 202.318
426 44.3755635953137 209.6620144119394 202.318
427 102.9817549414787 41.83666997536065 202.318
428 235.5132734339224 163.9365919195398 202.3180000000001
429 100.2030624521629 207.9879011316058 202.318
430 248.0922678206761 93.54836160754115 202.3180000000001
431 110.295221348898 88.02888060866779 202.318
432 37.66757199046867 92.03851526608224 202.318
433 92.95095124307151 140.6079124018425 202.318
434 38.38326627113727 159.9102297581772 202.318
435 150.2451369607082 159.8555655592115 202.318
436 211.1435448273761 201.2523460439752 202.3180000000001
437 144.419661727848 102.6450733103168 202.318
438 267.3502167285732 220.1443285693165 202.3180000000001
439 143.5185723951685 21.9169086359398 202.318
440 83.94086999971569 107.8941788300848 202.318
441 105.795910932068 171.4901124518277 202.318
442 150.8588490421687 225.5583831268014 202.318
443 75.1002435173445 34.80104360355212 202.318
444 208.1532532172968 27.44324477891607 202.3180000000001
445 171.6313017033395 74.61634852158613 202.318
446 204.2828005311738 115.7904306104443 202.3180000000001
447 69.69845492680622 216.5141371328135 202.318
448 260.6807020836219 149.8045830883602 202.3180000000001
449 167.0732155098694 176.914300464859 202.318
450 262.7568718312763 119.5871939561107 202.3180000000001
451 24.85014436524136 116.2313332756263 202.318
452 258.7345491680292 28.76071399492895 202.3180000000001
453 209.9763959791473 58.79383687326939 202.3180000000001
454 27.22203819214992 65.30390122718104 202.318
455 24.84086459092798 188.5600607640154 202.318
456 63.80608194016036 153.6053547896636 202.318
457 254.9187426324651 235.8181116485634 202.3180000000001
458 259.4224983537572 189.8746702408407 202.3180000000001
459 207.5980389911134 145.6932258757844 202.3180000000001
460 209.3432063695313 227.0032913805165 202.3180000000001
461 259.8550385906006 66.14643098415101 202.3180000000001
462 124.4517325166683 151.9911083962874 202.318
463 21.65082803548238 139.7296864237852 202.318
464 123.0612129067693 224.8067100808586 202.318
465 175.7881314020198 151.092926319628 202.318
466 179.7093752270996 99.49699325966739 202.318
467 22.92776970807992 22.82186253958621 202.318
468 175.4061159147182 20.92430275555429 202.318
469 25.11938988462672 224.9093119723071 202.318
470 62.81413324289523 96.1543302959294 202.318
471 98.92884919289335 64.68947957631046 202.318
472 223.0948010093017 99.90607108563891 202.3180000000001
473 111.8207222225227 19.09398601729428 202.318
474 48.19155428589264 18.71184259036266 202.318
475 48.31395207504791 231.1340382812919 202.318
476 235.1790354572073 21.71234152123012 202.3180000000001
477 179.8143383210934 231.7325119373666 202.318
478 149.3494520236364 135.8115734574839 202.318
479 50.94331118173655 64.43991685277862 202.318
480 52.23563056068149 185.2302735828764 202.318
481 156.2431722098026 46.33071887667817 202.318
482 229.8921944521102 75.27485871599728 202.3180000000001
483 125.9678180321209 44.73236274634733 202.318
484 108.3549670988619 111.3936985057846 202.318
485 216.6292962554982 178.593371143469 202.3180000000001
486 233.5385396862721 189.7914007871335 202.3180000000001
487 18.05947222254511 44.71226258933174 202.318
488 5.315165642639508 5.100125897727796 0
489 294.243285097807 12.52372202916458 200.1296189863242
490 294.2432438690132 238.4774006239101 200.1296519374604
491 298 128.7153274250747 115.7697731542642
492 298 61.65596882529385 104.2119494523594
493 298 189.344031174718 104.2119494523498
494 298 161.982956083593 143.1257257763122
495 298 89.0170439164315 143.1257257763137
496 298 47.73069948650495 144.8167100869834
497 298 203.2693005135072 144.8167100869842
498 298 99.13184478157015 82.33852279863865
499 298 155.6576113792016 81.0503248225299
500 298 125.5000000000123 155.8410890720813
501 298 34.31560758808621 77.53876375436738
502 298 216.6843924119176 77.53876375436512
503 298 69.69220566955104 73.62066076651473
504 298 181.4721987522609 73.564772682721
505 298 153.6886550538151 117.6150085304629
506 298 93.76276348745829 120.520485200359
507 298 31.53217279490974 118.9575404303157
508 298 219.4678272050941 118.9575404303164
509 298 124.3991909040012 68.80898861416317
510 298 65.19629376471447 165.1728189922644
511 298 185.8037062353022 165.1728189922673
512 298 149.019011875367 168.0170355373002
513 298 101.980988124658 168.0170355373007
514 298 186.0117606072814 132.2445801219348
515 298 64.98823939274259 132.2445801219412
516 298 25.81335914295212 166.6708315392752
517 298 225.1866408570546 166.6708315392828
518 298 140.4601839447154 136.5018911845735
519 298 111.4086861549765 135.648582700935
520 298 122.1673285976484 93.4887496010553
521 298 102.6818181818258 61.76145092825776
522 298 146.6457684730883 63.11953375444543
523 298 22.78545322993469 138.6379982617446
524 298 228.2145467700696 138.637998261748
525 298 229.94984263487 97.47970930942942
526 298 21.05015736513062 97.47970930942923
527 298 80.64700646499119 98.60997788764624
528 298 170.4274313954775 97.12133710301617
529 298 50.41813969948598 63.14919531317187
530 298 200.5818603005224 63.14919531316774
531 298 46.50405288582565 172.2054787896608
532 298 204.4959471141861 172.2054787896647
533 298 143.208332560129 99.1372453716222
534 298 229.9076188465785 63.65620309573725
535 298 21.09238115342509 63.65620309573973
536 298 125.5000000000123 175.6545751696955
537 298 42.13350352983844 100.3589804466075
538 298 208.8664964701675 100.3589804466014
539 298 85.26258898884777 60.43873343566032
540 298 165.2096611754608 60.47412625193927
541 298 82.34972361711527 171.2113437286197
542 298 168.6502763829061 171.2113437286209
543 298 52.51602085223305 119.9515176867401
544 298 198.4839791477772 119.9515176867311
545 298 76.36829522524032 117.9880463818059
546 298 174.6317047747832 117.9880463818043
547 298 109.3732005454237 107.7610340847186
548 298 56.47707196287445 86.24825460344449
549 298 194.5627350841773 85.99083312537022
550 298 236.0040461415637 79.96373514698078
551 298 14.99595385843633 79.96373514698084
552 298 137.4351576162263 81.90487439822462
553 298 238.850296906781 153.7362074502445
554 298 12.1497030932217 153.7362074502417
555 298 106.9766795490196 150.6581082716577
556 298 143.5665907487692 151.4897681748639
557 298 180.1203396716085 148.7959189322282
558 298 70.87966032841751 148.7959189322298
559 298 239.5909090909109 179.8179999999911
560 298 11.40909090909522 179.8179999999911
561 298 35.34165132333676 56.38864540507271
562 298 215.6583486766711 56.38864540507566
563 296.021706709673 12.42145626091812 36.34705187897377
564 296.0218916667573 238.5792135930581 36.34730036873314
565 162.5959647489374 125.0355554571258 32.318
566 86.20019313816749 85.81505283345187 32.318
567 81.61432350474723 167.0631502594306 32.318
568 214.420877623932 72.77969735345853 32.318
569 214.7219797336132 177.5639728889622 32.318
570 144.0354623974126 186.8297385912018 32.318
571 144.8663545561793 65.80988662306891 32.318
572 233.7534596126564 125.5000000000122 32.318
573 48.29158134409241 127.327052106365 32.318
574 50.23699290799494 50.41406280507567 32.318
575 113.2990777441102 126.6142705046175 32.318
576 45.53706822870362 205.5477599705526 32.318
577 107.0833087499632 47.25053222509757 32.318
578 104.4852185187648 209.5360789282685 32.318
579 183.0059425963983 209.7247076885943 32.318
580 248.4889670287899 40.85068144337916 32.318
581 248.3267642667231 210.083216832046 32.318
582 183.6155357822106 40.83419581912261 32.318
583 42.02705738560668 165.1719639965857 32.318
584 37.51680336235177 88.57753220931517 32.318
585 176.7434883016019 164.1522302631483 32.318
586 177.8540903333023 87.53929865961298 32.318
587 249.9240466360503 87.67513106175373 32.318
588 249.4375317273413 160.7435331139711 32.318
589 121.709873947979 90.4895858978943 32.318
590 199.5631650250073 137.5573906723128 32.318
591 116.5991272497571 164.5202697631469 32.318
592 136.9907850431095 32.13100133023359 32.318
593 136.7714859516337 215.9537328733314 32.318
594 213.8289056622273 218.2993130365342 32.318
595 82.83344378668203 118.5853245328286 32.318
596 214.5672898518021 32.20014023165375 32.318
597 73.83646138119403 30.07808400622775 32.318
598 210.7144571794648 102.728922432531 32.318
599 70.6354663246277 217.2495752182193 32.318
600 147.1466770855007 152.8520875113251 32.318
601 33.33641431512159 29.80754431957701 32.318
602 262.0765054458676 125.5000000000122 32.318
603 27.98029964255933 222.7829445266392 32.318
604 146.126510998742 101.2997181834518 32.318
605 29.84047675857092 140.9792677458726 32.318
606 74.21883773369868 60.03496575185427 32.318
607 222.430394829349 149.646050685373 32.318
608 260.7510182019743 65.26243564098002 32.318
609 259.9914296376484 185.4755069842738 32.318
610 26.76899642643783 64.03042037687499 32.318
611 28.63410560238434 113.1085738327176 32.318
612 73.29820288883012 139.009895179964 32.318
613 27.21835372709943 186.2947544074421 32.318
614 62.38437716147912 95.79485895227251 32.318
615 162.407396196231 26.48039525637513 32.318
616 157.8892851843089 228.0419010914979 32.318
617 107.960603393771 70.79125465996158 32.318
618 70.24895075726064 190.9191355255317 32.318
619 137.4729580679555 121.248073231919 32.318
620 263.6138521300682 225.2944700569828 32.318
621 263.6445950075521 25.68173960284301 32.318
622 98.10641323443355 148.2341311464373 32.318
623 187.6107161010572 113.3540555790112 32.318
624 190.5402798113322 66.88860389608192 32.318
625 190.6585826540337 184.2226813492215 32.318
626 49.22945672835802 228.2414490289494 32.318
627 100.5886917536611 183.7447317433313 32.318
628 53.16512983023908 24.85162811305836 32.318
629 238.49111568631 66.58200847187175 32.318
630 238.3143012976921 183.8488919493096 32.318
631 59.23741996140955 74.99173700063066 32.318
632 100.3869056434033 106.4662704032006 32.318
633 107.655617104967 21.56583013816901 32.318
634 167.6112626532002 186.8868191104521 32.318
635 268.060949215854 101.8956638450221 32.318
636 267.5692046480112 148.5539086275005 32.318
637 109.0122666659607 231.9307105290766 32.318
638 199.0773296637816 159.6366236087748 32.318
639 60.19211002511314 174.0342778537066 32.318
640 229.0490952099328 229.1994449763082 32.318
641 168.3767679171851 62.04671204010955 32.318
642 229.3353934518055 21.64887407581598 32.318
643 193.6810784313935 228.62249239284 32.318
644 126.3001008556553 54.01562103645681 32.318
645 194.5111577944728 22.07649818914651 32.318
646 122.4252308538396 193.4880511772793 32.318
647 231.8552308653 104.6159740223729 32.318
648 205.9111371487116 52.28979444870962 32.318
649 179.7637765962335 141.7353153609202 32.318
650 205.7208293716202 198.4145144169945 32.318
651 127.3198143864887 144.3944273678383 32.318
652 18.97893496384862 165.6194448979978 32.318
653 267.2057648257555 45.49487429063787 32.318
654 267.2057648257593 205.5051257093685 32.318
655 19.08246654126193 83.25054510114755 32.318
656 51.74776557554073 146.4753807833666 32.318
657 197.4201221909539 87.84323500494816 32.318
658 247.9149825292621 140.3094694099377 32.318
659 157.8626877565907 205.4873798710155 32.318
660 156.4204341949297 169.2670468586993 32.318
661 270.9472028107757 82.91210065501028 32.318
662 270.5996332026002 167.4091351996998 32.318
663 158.4493537036713 81.12687247043046 32.318
664 153.3852963062172 46.16483667716054 32.318
665 18.79707337136354 205.191646847658 32.318
666 249.489723118708 109.3036244897052 32.318
667 18.74603591929284 44.2835505548652 32.318
668 47.05667360642624 107.6400026677231 32.318
669 229.0811455982114 86.87634666839757 32.318
670 224.9936459236347 202.9015590166925 32.318
671 225.2024634652252 47.72519933748146 32.318
672 231.0946889815934 167.3243309519048 32.318
673 139.2846513386275 82.19414608502484 32.318
674 214.5473299859287 123.4373801947761 32.318
675 136.1775393592524 168.9789489936827 32.318
676 87.20532180468268 229.9014026122883 32.318
677 14.37580285101077 125.5447265134326 32.318
678 86.67411918131263 18.20007007877867 32.318
679 122.1378060867299 110.7265194912247 32.318
680 45.93907993979378 184.4478283330898 32.318
681 129.3874822258888 17.34878226543717 32.318
682 131.5106654684192 234.7108607250503 32.318
683 168.4913287473031 104.1933249511947 32.318
684 18.68040837237688 18.32730241231731 32.318
685 86.48467777461163 205.1501850541873 32.318
686 177.9554359538906 16.32133052411334 32.318
687 44.20626468394654 67.05191299760736 32.318
688 92.73585811109659 61.43160607880884 32.318
689 94.97901506283203 130.50158813432 32.318
690 12.94172469767029 148.3181818181887 32.318
691 177.7904873488022 234.4073687212596 32.318
692 16.77386174713371 236.8905259614978 32.318
693 14.83851004743908 99.86233568381653 32.318
694 35.71244413442033 13.84165879541868 32.318
695 148.0437777869712 136.6446455813743 32.318
696 99.22713893564975 165.8905707280865 32.318
697 35.99999999993848 238.3034623672092 32.318
698 209.1976262344054 235.029213371916 32.318
699 65.65439496521614 116.1524718574823 32.318
700 249.6016340938878 236.722474472001 32.318
701 250.0299405225791 13.88666239845712 32.318
702 120.1872434976259 34.29630466418764 32.318
703 66.95611452348243 44.75636867282991 32.318
704 126.5327424562094 72.71229001687746 32.318
705 66.75278549473775 234.8027522995348 32.318
706 162.4825936274835 149.317612293816 32.318
707 119.162919493254 217.1714696568156 32.318
708 63.54673098988025 157.9007083448519 32.318
709 274.4566938656197 237.9676707662615 32.318
710 274.4566938656221 13.03232923374108 32.318
711 67.77584434498834 16.03873436733099 32.318
712 104.0643940308302 88.39054094862709 32.318
713 209.8498540847278 15.85829951399045 32.318
714 87.02290239795921 40.47392242168086 32.318
715 79.67457567613874 102.9279281210727 32.318
716 148.4923192815673 15.72125493210807 32.318
717 274.8230914297429 259.1874343010128 198.059595559302
718 13.17690864192707 259.187434319395 198.0595955330893
719 293.8757938815382 259.0916652341577 56.03035020577269
720 293.8757938849163 259.0916652317047 178.6056497931961
721 13.17690869213175 259.187434282469 36.57640441425468
722 274.8230914691227 259.1874342295908 36.57640433885121
723 85.6906589547617 261 121.6578439285876
724 200.3209645191125 261 119.7695195612845
725 146.2886179881122 261 129.6982756841261
726 167.9397353876907 261 83.93483736589636
727 126.6168489584333 261 90.60712420024274
728 44.4463582930199 261 143.12326223222
729 241.3194444445657 261 89.09133333322406
730 239.9045883044751 261 147.5934053353671
731 45.45958469443427 261 84.48310519515566
732 108.2542365270545 261 153.4834979169205
733 180.2808609958973 261 151.9829377591916
734 205.3057019975839 261 78.70063526572289
735 83.27269142146383 261 78.65981385188121
736 76.67125311646369 261 159.286566613054
737 213.620278015177 261 158.0791839593956
738 152.1215863667058 261 156.8344055604125
739 256.1257116301099 261 117.3179999999982
740 31.87428836988603 261 117.3180000000019
741 114.2388721571646 261 118.8030045278771
742 173.0065981027565 261 119.6528804556913
743 142.6446908312283 261 70.3428912533936
744 142.8386048961762 261 103.5219719949029
745 29.90315717335447 261 161.7975558269105
746 256.4743753071809 261 161.2354940884813
747 27.36742729242098 261 69.57073020071022
748 260.5600893869986 261 69.98942550569288
749 182.812427697382 261 66.43905474056618
750 226.6363138572551 261 65.8415924479114
751 60.00000000004115 261 65.95943967941835
752 57.93714418480549 261 121.6433964122009
753 229.6899497050215 261 113.440119126384
754 104.7983304463667 261 67.38884903430727
755 131.2876868237279 261 171.017785473606
756 186.317689416626 261 96.15589782734043
757 219.8337263053341 261 134.7719501779908
758 69.07806958846419 261 98.26280387155325
759 56.68743198978741 261 168.263380346038
760 232.3588137398925 261 172.6141298848414
761 97.87501373423372 261 97.72102303308395
762 22.28353170352315 261 139.5261102885178
763 264.1289839890138 261 139.2592615876184
764 264.3627762663202 261 95.00061775970363
765 23.5647852316613 261 95.53277069044692
766 89.66919068988108 261 146.5633465748282
767 95.45624235873036 261 170.2900160449852
768 193.5401855320255 261 164.6630482103698
769 127.0927512233199 261 140.2320844211326
770 197.9765243489506 261 144.0450305851505
771 214.1989353187127 261 98.08799999998119
772 173.3717325294263 261 172.755241859941
773 164.6797469096041 261 138.6956274106938
774 66.99114188834481 261 140.5088322854182
775 204.2007611921033 261 58.80192248137324
776 160.3422267222532 261 62.24994570397682
777 84.00000000018642 261 58.51499578851351
778 125.8237590095866 261 61.58298636642952
779 244.8321120128992 261 60.09633904928132
780 42.80461420187543 261 59.8213107225023
781 160.7114815240223 261 105.7019847052173
782 104.9891419104364 261 136.1479554738692
783 241.3795573251132 261 128.5288293272825
784 45.97050837664536 261 104.5268627115167
785 224.4906250682557 261 83.73655716135028
786 132.5066474065432 261 117.634299124982
787 111.4550455849301 261 177.1514387475246
788 14.59990888737295 261 177.3220874680935
789 270.5270037210153 261 174.5490435937345
790 273.8294580869522 261 58.14020578876718
791 14.59990888737754 261 57.31391253192391
792 13.32405814878748 261 155.0541676859233
793 274.3592488473298 261 154.8666440336066
794 274.687647018743 261 80.49757803155171
795 13.31235298125473 261 80.49757803154637
796 153.7562011437952 261 177.0486865787919
797 79.36298549288794 261 176.4951926008155
798 209.5038554573526 261 175.9984724109214
799 149.6548855273928 261 86.78176133608233
800 35.64548615415676 261 179.5596033206352
801 252.0000000000703 261 179.9663455054935
802 183.2529389752642 261 134.8291991544023
$EndNodes
$Elements
1511
1 2 2 1 1 59 322 321
2 2 2 1 1 321 322 57
3 2 2 1 1 321 1 4
4 2 2 1 1 59 321 4
5 2 2 1 1 322 5 2
6 2 2 1 1 1 321 57
7 2 2 1 1 57 322 2
8 2 2 1 1 5 322 59
9 2 2 1 2 5 323 2
10 2 2 1 2 6 3 60
11 2 2 1 2 58 323 60
12 2 2 1 2 60 3 58
13 2 2 1 2 323 5 60
14 2 2 1 2 323 58 2
15 2 2 1 3 8 63 324
16 2 2 1 3 8 324 61
17 2 2 1 3 325 59 324
18 2 2 1 3 325 63 5
19 2 2 1 3 63 325 324
20 2 2 1 3 59 325 5
21 2 2 1 3 61 324 7
22 2 2 1 3 59 4 324
23 2 2 1 3 4 7 324
24 2 2 1 4 326 9 6
25 2 2 1 4 63 326 5
26 2 2 1 4 326 62 9
27 2 2 1 4 63 8 62
28 2 2 1 4 326 60 5
29 2 2 1 4 62 326 63
30 2 2 1 4 60 326 6
31 2 2 1 5 67 327 7
32 2 2 1 5 64 11 66
33 2 2 1 5 328 61 327
34 2 2 1 5 327 61 7
35 2 2 1 5 328 8 61
36 2 2 1 5 67 10 327
37 2 2 1 5 327 10 64
38 2 2 1 5 328 66 8
39 2 2 1 5 328 327 64
40 2 2 1 5 66 328 64
41 2 2 1 6 62 329 9
42 2 2 1 6 330 62 8
43 2 2 1 6 62 330 329
44 2 2 1 6 8 66 330
45 2 2 1 6 12 68 329
46 2 2 1 6 12 329 65
47 2 2 1 6 66 11 330
48 2 2 1 6 330 11 65
49 2 2 1 6 68 9 329
50 2 2 1 6 329 330 65
51 2 2 1 7 11 331 71
52 2 2 1 7 331 11 332
53 2 2 1 7 72 13 333
54 2 2 1 7 333 13 69
55 2 2 1 7 14 71 331
56 2 2 1 7 332 11 64
57 2 2 1 7 14 331 69
58 2 2 1 7 331 333 69
59 2 2 1 7 10 72 332
60 2 2 1 7 10 332 64
61 2 2 1 7 333 332 72
62 2 2 1 7 332 333 331
63 2 2 1 8 334 15 335
64 2 2 1 8 335 15 73
65 2 2 1 8 71 334 336
66 2 2 1 8 335 336 334
67 2 2 1 8 71 14 334
68 2 2 1 8 334 14 70
69 2 2 1 8 73 12 335
70 2 2 1 8 335 12 65
71 2 2 1 8 11 336 65
72 2 2 1 8 336 335 65
73 2 2 1 8 70 15 334
74 2 2 1 8 336 11 71
75 2 2 1 9 14 337 78
76 2 2 1 9 79 16 74
77 2 2 1 9 338 337 79
78 2 2 1 9 75 17 78
79 2 2 1 9 13 79 337
80 2 2 1 9 13 337 69
81 2 2 1 9 337 14 69
82 2 2 1 9 338 78 337
83 2 2 1 9 75 338 74
84 2 2 1 9 338 79 74
85 2 2 1 9 338 75 78
86 2 2 1 10 18 80 339
87 2 2 1 10 76 78 17
88 2 2 1 10 340 339 80
89 2 2 1 10 80 15 340
90 2 2 1 10 340 15 70
91 2 2 1 10 77 18 339
92 2 2 1 10 339 78 76
93 2 2 1 10 341 78 339
94 2 2 1 10 341 339 340
95 2 2 1 10 14 341 70
96 2 2 1 10 341 340 70
97 2 2 1 10 339 76 77
98 2 2 1 10 341 14 78
99 2 2 1 11 342 344 343
100 2 2 1 11 342 343 86
101 2 2 1 11 86 19 342
102 2 2 1 11 82 20 85
103 2 2 1 11 343 16 86
104 2 2 1 11 74 16 343
105 2 2 1 11 75 343 344
106 2 2 1 11 17 344 85
107 2 2 1 11 344 17 75
108 2 2 1 11 342 82 344
109 2 2 1 11 85 344 82
110 2 2 1 11 343 75 74
111 2 2 1 11 342 19 81
112 2 2 1 11 82 342 81
113 2 2 1 12 87 345 21
114 2 2 1 12 83 85 20
115 2 2 1 12 345 84 21
116 2 2 1 12 87 18 77
117 2 2 1 12 346 347 17
118 2 2 1 12 85 346 17
119 2 2 1 12 17 347 76
120 2 2 1 12 346 345 347
121 2 2 1 12 84 345 83
122 2 2 1 12 345 346 83
123 2 2 1 12 345 87 347
124 2 2 1 12 347 87 77
125 2 2 1 12 76 347 77
126 2 2 1 12 346 85 83
127 2 2 1 13 348 349 82
128 2 2 1 13 20 349 94
129 2 2 1 13 90 23 94
130 2 2 1 13 349 20 82
131 2 2 1 13 94 349 90
132 2 2 1 13 90 349 89
133 2 2 1 13 349 348 350
134 2 2 1 13 350 89 349
135 2 2 1 13 348 351 350
136 2 2 1 13 350 351 95
137 2 2 1 13 81 351 348
138 2 2 1 13 348 82 81
139 2 2 1 13 95 351 19
140 2 2 1 13 95 22 350
141 2 2 1 13 350 22 88
142 2 2 1 13 351 81 19
143 2 2 1 13 89 350 88
144 2 2 1 14 96 21 352
145 2 2 1 14 352 21 84
146 2 2 1 14 353 354 83
147 2 2 1 14 353 20 94
148 2 2 1 14 20 353 83
149 2 2 1 14 96 355 24
150 2 2 1 14 355 93 24
151 2 2 1 14 93 355 354
152 2 2 1 14 94 23 91
153 2 2 1 14 92 354 353
154 2 2 1 14 93 354 92
155 2 2 1 14 91 92 353
156 2 2 1 14 354 352 83
157 2 2 1 14 352 354 355
158 2 2 1 14 352 355 96
159 2 2 1 14 353 94 91
160 2 2 1 14 83 352 84
161 2 2 1 15 356 357 97
162 2 2 1 15 106 25 97
163 2 2 1 15 356 97 98
164 2 2 1 15 99 26 105
165 2 2 1 15 97 357 358
166 2 2 1 15 97 358 106
167 2 2 1 15 359 98 99
168 2 2 1 15 105 359 99
169 2 2 1 15 359 105 104
170 2 2 1 15 359 360 356
171 2 2 1 15 360 359 361
172 2 2 1 15 360 361 90
173 2 2 1 15 23 361 104
174 2 2 1 15 88 358 357
175 2 2 1 15 357 89 88
176 2 2 1 15 89 357 360
177 2 2 1 15 359 356 98
178 2 2 1 15 356 360 357
179 2 2 1 15 106 358 22
180 2 2 1 15 358 88 22
181 2 2 1 15 360 90 89
182 2 2 1 15 361 23 90
183 2 2 1 15 361 359 104
184 2 2 1 16 362 101 363
185 2 2 1 16 363 101 102
186 2 2 1 16 26 100 105
187 2 2 1 16 107 24 364
188 2 2 1 16 364 24 93
189 2 2 1 16 364 27 107
190 2 2 1 16 103 27 364
191 2 2 1 16 365 366 363
192 2 2 1 16 367 92 366
193 2 2 1 16 368 366 91
194 2 2 1 16 91 366 92
195 2 2 1 16 364 365 103
196 2 2 1 16 364 367 365
197 2 2 1 16 367 366 365
198 2 2 1 16 364 93 367
199 2 2 1 16 367 93 92
200 2 2 1 16 362 363 368
201 2 2 1 16 368 104 362
202 2 2 1 16 23 368 91
203 2 2 1 16 363 366 368
204 2 2 1 16 362 105 100
205 2 2 1 16 368 23 104
206 2 2 1 16 105 362 104
207 2 2 1 16 365 363 102
208 2 2 1 16 362 100 101
209 2 2 1 16 103 365 102
210 2 2 1 17 369 370 97
211 2 2 1 17 371 98 370
212 2 2 1 17 118 373 372
213 2 2 1 17 29 119 112
214 2 2 1 17 118 372 119
215 2 2 1 17 110 374 371
216 2 2 1 17 110 371 109
217 2 2 1 17 120 369 25
218 2 2 1 17 369 97 25
219 2 2 1 17 373 99 374
220 2 2 1 17 373 26 99
221 2 2 1 17 99 371 374
222 2 2 1 17 370 109 371
223 2 2 1 17 370 98 97
224 2 2 1 17 374 372 373
225 2 2 1 17 370 108 109
226 2 2 1 17 119 372 112
227 2 2 1 17 118 26 373
228 2 2 1 17 371 99 98
229 2 2 1 17 111 372 374
230 2 2 1 17 374 110 111
231 2 2 1 17 370 369 108
232 2 2 1 17 108 369 28
233 2 2 1 17 111 112 372
234 2 2 1 17 28 369 120
235 2 2 1 18 375 119 113
236 2 2 1 18 119 375 118
237 2 2 1 18 100 377 376
238 2 2 1 18 100 376 101
239 2 2 1 18 375 376 377
240 2 2 1 18 118 375 377
241 2 2 1 18 378 379 103
242 2 2 1 18 103 379 27
243 2 2 1 18 27 379 121
244 2 2 1 18 378 103 102
245 2 2 1 18 29 113 119
246 2 2 1 18 380 378 102
247 2 2 1 18 378 380 116
248 2 2 1 18 117 378 116
249 2 2 1 18 115 116 376
250 2 2 1 18 115 376 375
251 2 2 1 18 380 102 101
252 2 2 1 18 114 375 113
253 2 2 1 18 121 379 30
254 2 2 1 18 379 117 30
255 2 2 1 18 26 377 100
256 2 2 1 18 101 376 380
257 2 2 1 18 114 115 375
258 2 2 1 18 377 26 118
259 2 2 1 18 380 376 116
260 2 2 1 18 379 378 117
261 2 2 1 19 381 382 135
262 2 2 1 19 135 382 28
263 2 2 1 19 32 134 127
264 2 2 1 19 382 108 28
265 2 2 1 19 109 384 383
266 2 2 1 19 384 385 383
267 2 2 1 19 382 384 109
268 2 2 1 19 108 382 109
269 2 2 1 19 386 124 125
270 2 2 1 19 386 387 124
271 2 2 1 19 388 125 389
272 2 2 1 19 388 386 125
273 2 2 1 19 126 389 125
274 2 2 1 19 389 134 388
275 2 2 1 19 383 385 387
276 2 2 1 19 382 122 384
277 2 2 1 19 124 387 385
278 2 2 1 19 122 381 31
279 2 2 1 19 385 384 123
280 2 2 1 19 384 122 123
281 2 2 1 19 383 110 109
282 2 2 1 19 388 29 112
283 2 2 1 19 383 387 110
284 2 2 1 19 387 111 110
285 2 2 1 19 29 388 134
286 2 2 1 19 381 122 382
287 2 2 1 19 111 386 388
288 2 2 1 19 111 387 386
289 2 2 1 19 111 388 112
290 2 2 1 19 381 135 31
291 2 2 1 19 124 385 123
292 2 2 1 19 134 389 127
293 2 2 1 19 389 126 127
294 2 2 1 20 390 129 391
295 2 2 1 20 391 129 130
296 2 2 1 20 128 134 32
297 2 2 1 20 391 392 113
298 2 2 1 20 131 394 393
299 2 2 1 20 136 395 33
300 2 2 1 20 395 133 33
301 2 2 1 20 396 395 117
302 2 2 1 20 395 396 133
303 2 2 1 20 393 130 131
304 2 2 1 20 394 115 393
305 2 2 1 20 115 394 116
306 2 2 1 20 394 396 116
307 2 2 1 20 394 132 396
308 2 2 1 20 133 396 132
309 2 2 1 20 393 392 130
310 2 2 1 20 394 131 132
311 2 2 1 20 130 392 391
312 2 2 1 20 396 117 116
313 2 2 1 20 395 136 30
314 2 2 1 20 117 395 30
315 2 2 1 20 115 114 393
316 2 2 1 20 390 29 134
317 2 2 1 20 390 134 128
318 2 2 1 20 392 393 114
319 2 2 1 20 391 113 390
320 2 2 1 20 113 392 114
321 2 2 1 20 113 29 390
322 2 2 1 20 129 390 128
323 2 2 1 21 126 398 397
324 2 2 1 21 397 142 399
325 2 2 1 21 139 401 400
326 2 2 1 21 400 401 124
327 2 2 1 21 126 397 127
328 2 2 1 21 401 140 125
329 2 2 1 21 140 398 125
330 2 2 1 21 126 125 398
331 2 2 1 21 142 397 141
332 2 2 1 21 397 398 141
333 2 2 1 21 35 402 143
334 2 2 1 21 122 403 123
335 2 2 1 21 403 400 123
336 2 2 1 21 401 139 140
337 2 2 1 21 141 398 140
338 2 2 1 21 400 138 139
339 2 2 1 21 35 151 402
340 2 2 1 21 404 403 122
341 2 2 1 21 403 404 137
342 2 2 1 21 400 124 123
343 2 2 1 21 402 151 32
344 2 2 1 21 400 403 138
345 2 2 1 21 404 152 34
346 2 2 1 21 137 404 34
347 2 2 1 21 401 125 124
348 2 2 1 21 397 399 127
349 2 2 1 21 402 32 127
350 2 2 1 21 404 122 31
351 2 2 1 21 402 127 399
352 2 2 1 21 403 137 138
353 2 2 1 21 152 404 31
354 2 2 1 21 399 142 143
355 2 2 1 21 402 399 143
356 2 2 1 22 405 150 406
357 2 2 1 22 151 35 407
358 2 2 1 22 405 406 133
359 2 2 1 22 147 130 408
360 2 2 1 22 148 130 147
361 2 2 1 22 148 131 130
362 2 2 1 22 131 148 149
363 2 2 1 22 149 132 131
364 2 2 1 22 32 151 407
365 2 2 1 22 149 405 132
366 2 2 1 22 407 35 144
367 2 2 1 22 145 409 407
368 2 2 1 22 128 32 409
369 2 2 1 22 145 407 144
370 2 2 1 22 146 129 410
371 2 2 1 22 410 129 128
372 2 2 1 22 408 129 146
373 2 2 1 22 147 408 146
374 2 2 1 22 129 408 130
375 2 2 1 22 128 409 410
376 2 2 1 22 406 150 36
377 2 2 1 22 153 33 406
378 2 2 1 22 33 133 406
379 2 2 1 22 405 133 132
380 2 2 1 22 153 406 36
381 2 2 1 22 150 405 149
382 2 2 1 22 145 146 410
383 2 2 1 22 407 409 32
384 2 2 1 22 410 409 145
385 2 2 1 23 143 159 160
386 2 2 1 23 139 138 155
387 2 2 1 23 155 138 154
388 2 2 1 23 154 137 37
389 2 2 1 23 38 35 160
390 2 2 1 23 141 158 142
391 2 2 1 23 140 139 156
392 2 2 1 23 140 157 141
393 2 2 1 23 158 159 142
394 2 2 1 23 142 159 143
395 2 2 1 23 156 139 155
396 2 2 1 23 154 138 137
397 2 2 1 23 140 156 157
398 2 2 1 23 37 137 34
399 2 2 1 23 160 35 143
400 2 2 1 23 157 158 141
401 2 2 1 24 166 148 165
402 2 2 1 24 168 39 36
403 2 2 1 24 150 149 167
404 2 2 1 24 167 149 166
405 2 2 1 24 165 148 147
406 2 2 1 24 161 162 144
407 2 2 1 24 164 146 163
408 2 2 1 24 38 161 35
409 2 2 1 24 145 162 163
410 2 2 1 24 166 149 148
411 2 2 1 24 144 162 145
412 2 2 1 24 147 146 164
413 2 2 1 24 36 150 168
414 2 2 1 24 168 150 167
415 2 2 1 24 165 147 164
416 2 2 1 24 35 161 144
417 2 2 1 24 163 146 145
418 2 2 4 25 413 425 436
419 2 2 4 25 455 183 469
420 2 2 4 25 429 415 447
421 2 2 4 25 431 416 471
422 2 2 4 25 416 431 437
423 2 2 4 25 182 183 455
424 2 2 4 25 471 416 483
425 2 2 4 25 443 414 471
426 2 2 4 25 425 417 442
427 2 2 4 25 437 431 484
428 2 2 4 25 425 413 449
429 2 2 4 25 166 429 447
430 2 2 4 25 417 425 449
431 2 2 4 25 417 429 464
432 2 2 4 25 411 437 484
433 2 2 4 25 415 429 441
434 2 2 4 25 428 420 459
435 2 2 4 25 430 156 461
436 2 2 4 25 429 417 441
437 2 2 4 25 158 448 458
438 2 2 4 25 427 443 471
439 2 2 4 25 431 414 440
440 2 2 4 25 447 415 480
441 2 2 4 25 414 443 479
442 2 2 4 25 160 159 438
443 2 2 4 25 426 455 469
444 2 2 4 25 423 445 453
445 2 2 4 25 448 428 458
446 2 2 4 25 436 425 460
447 2 2 4 25 418 162 457
448 2 2 4 25 179 432 454
449 2 2 4 25 460 425 477
450 2 2 4 25 154 452 461
451 2 2 4 25 445 412 453
452 2 2 4 25 420 428 448
453 2 2 4 25 434 181 455
454 2 2 4 25 174 443 473
455 2 2 4 25 442 417 464
456 2 2 4 25 414 431 471
457 2 2 4 25 156 155 461
458 2 2 4 25 38 160 438
459 2 2 4 25 155 154 461
460 2 2 4 25 419 433 440
461 2 2 4 25 432 179 451
462 2 2 4 25 434 419 463
463 2 2 4 25 167 166 447
464 2 2 4 25 433 415 441
465 2 2 4 25 443 427 473
466 2 2 4 25 429 166 464
467 2 2 4 25 37 169 452
468 2 2 4 25 420 430 472
469 2 2 4 25 459 422 465
470 2 2 4 25 174 175 443
471 2 2 4 25 178 179 454
472 2 2 4 25 430 420 450
473 2 2 4 25 154 37 452
474 2 2 4 25 156 430 450
475 2 2 4 25 181 182 455
476 2 2 4 25 446 422 459
477 2 2 4 25 443 424 479
478 2 2 4 25 428 459 485
479 2 2 4 25 444 171 468
480 2 2 4 25 181 434 463
481 2 2 4 25 411 433 462
482 2 2 4 25 417 435 462
483 2 2 4 25 433 411 484
484 2 2 4 25 426 447 480
485 2 2 4 25 419 432 451
486 2 2 4 25 433 419 456
487 2 2 4 25 170 171 444
488 2 2 4 25 162 418 460
489 2 2 4 25 415 433 456
490 2 2 4 25 432 419 470
491 2 2 4 25 165 164 442
492 2 2 4 25 419 434 456
493 2 2 4 25 435 417 449
494 2 2 4 25 416 437 445
495 2 2 4 25 442 164 477
496 2 2 4 25 419 451 463
497 2 2 4 25 441 417 462
498 2 2 4 25 179 180 451
499 2 2 4 25 423 444 468
500 2 2 4 25 172 173 439
501 2 2 4 25 440 414 470
502 2 2 4 25 418 436 460
503 2 2 4 25 456 434 480
504 2 2 4 25 425 442 477
505 2 2 4 25 415 456 480
506 2 2 4 25 159 158 458
507 2 2 4 25 413 436 485
508 2 2 4 25 427 471 483
509 2 2 4 25 452 421 461
510 2 2 4 25 436 418 486
511 2 2 4 25 440 433 484
512 2 2 4 25 433 441 462
513 2 2 4 25 158 157 448
514 2 2 4 25 40 177 467
515 2 2 4 25 176 40 467
516 2 2 4 25 437 422 466
517 2 2 4 25 183 39 469
518 2 2 4 25 39 168 469
519 2 2 4 25 437 411 478
520 2 2 4 25 172 439 468
521 2 2 4 25 439 173 473
522 2 2 4 25 422 437 478
523 2 2 4 25 444 423 453
524 2 2 4 25 438 159 458
525 2 2 4 25 157 156 450
526 2 2 4 25 432 470 479
527 2 2 4 25 38 438 457
528 2 2 4 25 468 439 481
529 2 2 4 25 419 440 470
530 2 2 4 25 420 448 450
531 2 2 4 25 413 459 465
532 2 2 4 25 448 157 450
533 2 2 4 25 411 462 478
534 2 2 4 25 459 413 485
535 2 2 4 25 439 473 483
536 2 2 4 25 462 435 478
537 2 2 4 25 166 165 464
538 2 2 4 25 445 437 466
539 2 2 4 25 421 444 453
540 2 2 4 25 470 414 479
541 2 2 4 25 435 465 478
542 2 2 4 25 465 422 478
543 2 2 4 25 169 170 476
544 2 2 4 25 424 443 474
545 2 2 4 25 443 175 474
546 2 2 4 25 422 446 466
547 2 2 4 25 446 420 472
548 2 2 4 25 416 445 481
549 2 2 4 25 446 412 466
550 2 2 4 25 445 423 481
551 2 2 4 25 165 442 464
552 2 2 4 25 431 440 484
553 2 2 4 25 418 438 458
554 2 2 4 25 163 162 460
555 2 2 4 25 412 472 482
556 2 2 4 25 180 181 463
557 2 2 4 25 444 421 476
558 2 2 4 25 163 460 477
559 2 2 4 25 420 446 459
560 2 2 4 25 481 439 483
561 2 2 4 25 453 412 482
562 2 2 4 25 416 481 483
563 2 2 4 25 171 172 468
564 2 2 4 25 412 445 466
565 2 2 4 25 170 444 476
566 2 2 4 25 173 174 473
567 2 2 4 25 175 176 474
568 2 2 4 25 168 167 475
569 2 2 4 25 164 163 477
570 2 2 4 25 435 449 465
571 2 2 4 25 449 413 465
572 2 2 4 25 423 468 481
573 2 2 4 25 177 178 487
574 2 2 4 25 452 169 476
575 2 2 4 25 412 446 472
576 2 2 4 25 451 180 463
577 2 2 4 25 161 38 457
578 2 2 4 25 447 426 475
579 2 2 4 25 454 432 479
580 2 2 4 25 167 447 475
581 2 2 4 25 434 455 480
582 2 2 4 25 421 452 476
583 2 2 4 25 473 427 483
584 2 2 4 25 461 421 482
585 2 2 4 25 430 461 482
586 2 2 4 25 472 430 482
587 2 2 4 25 454 424 487
588 2 2 4 25 178 454 487
589 2 2 4 25 424 454 479
590 2 2 4 25 458 428 486
591 2 2 4 25 418 458 486
592 2 2 4 25 455 426 480
593 2 2 4 25 421 453 482
594 2 2 4 25 438 418 457
595 2 2 4 25 176 467 474
596 2 2 4 25 467 424 474
597 2 2 4 25 426 469 475
598 2 2 4 25 469 168 475
599 2 2 4 25 424 467 487
600 2 2 4 25 467 177 487
601 2 2 4 25 485 436 486
602 2 2 4 25 428 485 486
603 2 2 4 25 162 161 457
604 2 2 2 26 57 184 1
605 2 2 2 26 57 2 488
606 2 2 2 26 185 58 3
607 2 2 2 26 184 57 488
608 2 2 2 26 58 185 488
609 2 2 2 26 185 41 488
610 2 2 2 26 41 184 488
611 2 2 2 26 2 58 488
612 2 2 3 27 38 160 51
613 2 2 3 27 231 161 38
614 2 2 3 27 281 154 37
615 2 2 3 27 231 38 51
616 2 2 3 27 221 39 168
617 2 2 3 27 160 290 51
618 2 2 3 27 154 282 155
619 2 2 3 27 282 154 281
620 2 2 3 27 284 156 155
621 2 2 3 27 282 283 155
622 2 2 3 27 283 284 155
623 2 2 3 27 157 156 285
624 2 2 3 27 156 284 285
625 2 2 3 27 158 157 287
626 2 2 3 27 157 285 286
627 2 2 3 27 157 286 287
628 2 2 3 27 288 159 158
629 2 2 3 27 288 158 287
630 2 2 3 27 160 159 289
631 2 2 3 27 159 288 289
632 2 2 3 27 290 160 289
633 2 2 3 27 230 162 161
634 2 2 3 27 161 231 230
635 2 2 3 27 229 163 162
636 2 2 3 27 162 230 229
637 2 2 3 27 227 164 163
638 2 2 3 27 227 163 228
639 2 2 3 27 163 229 228
640 2 2 3 27 226 165 164
641 2 2 3 27 226 164 227
642 2 2 3 27 225 166 165
643 2 2 3 27 165 226 225
644 2 2 3 27 166 223 167
645 2 2 3 27 166 224 223
646 2 2 3 27 166 225 224
647 2 2 3 27 167 222 168
648 2 2 3 27 223 222 167
649 2 2 3 27 222 221 168
650 2 2 3 27 281 37 43
651 2 2 3 27 221 47 39
652 2 2 3 28 299 300 290
653 2 2 3 28 299 290 289
654 2 2 3 28 297 298 288
655 2 2 3 28 297 288 287
656 2 2 3 28 283 293 294
657 2 2 3 28 283 294 284
658 2 2 3 28 292 293 283
659 2 2 3 28 292 283 282
660 2 2 3 28 291 489 44
661 2 2 3 28 489 186 44
662 2 2 3 28 490 300 52
663 2 2 3 28 232 490 52
664 2 2 3 28 295 286 285
665 2 2 3 28 295 296 286
666 2 2 3 28 296 297 286
667 2 2 3 28 287 286 297
668 2 2 3 28 290 490 51
669 2 2 3 28 490 290 300
670 2 2 3 28 490 232 51
671 2 2 3 28 489 281 43
672 2 2 3 28 281 489 291
673 2 2 3 28 186 489 43
674 2 2 3 28 299 289 288
675 2 2 3 28 295 285 294
676 2 2 3 28 294 285 284
677 2 2 3 28 298 299 288
678 2 2 3 28 291 292 281
679 2 2 3 28 281 292 282
680 2 2 3 29 305 306 509
681 2 2 3 29 491 505 518
682 2 2 3 29 498 503 539
683 2 2 3 29 504 499 540
684 2 2 3 29 505 494 518
685 2 2 3 29 495 506 519
686 2 2 3 29 303 503 529
687 2 2 3 29 504 308 530
688 2 2 3 29 503 303 539
689 2 2 3 29 308 504 540
690 2 2 3 29 300 299 532
691 2 2 3 29 292 291 531
692 2 2 3 29 503 498 527
693 2 2 3 29 499 504 528
694 2 2 3 29 189 507 523
695 2 2 3 29 508 235 524
696 2 2 3 29 494 505 546
697 2 2 3 29 506 495 545
698 2 2 3 29 517 300 532
699 2 2 3 29 291 516 531
700 2 2 3 29 507 189 526
701 2 2 3 29 235 508 525
702 2 2 3 29 505 491 533
703 2 2 3 29 510 293 531
704 2 2 3 29 298 511 532
705 2 2 3 29 503 527 548
706 2 2 3 29 528 504 549
707 2 2 3 29 508 497 544
708 2 2 3 29 496 507 543
709 2 2 3 29 527 492 548
710 2 2 3 29 493 528 549
711 2 2 3 29 491 518 519
712 2 2 3 29 518 500 519
713 2 2 3 29 507 496 523
714 2 2 3 29 497 508 524
715 2 2 3 29 498 509 520
716 2 2 3 29 527 498 547
717 2 2 3 29 305 509 521
718 2 2 3 29 509 306 522
719 2 2 3 29 506 527 547
720 2 2 3 29 509 498 521
721 2 2 3 29 293 292 531
722 2 2 3 29 299 298 532
723 2 2 3 29 542 494 557
724 2 2 3 29 495 541 558
725 2 2 3 29 511 542 557
726 2 2 3 29 541 510 558
727 2 2 3 29 512 494 542
728 2 2 3 29 495 513 541
729 2 2 3 29 297 296 512
730 2 2 3 29 295 294 513
731 2 2 3 29 310 53 534
732 2 2 3 29 45 301 535
733 2 2 3 29 514 494 546
734 2 2 3 29 495 515 545
735 2 2 3 29 519 506 547
736 2 2 3 29 53 237 534
737 2 2 3 29 191 45 535
738 2 2 3 29 188 189 523
739 2 2 3 29 235 234 524
740 2 2 3 29 491 519 547
741 2 2 3 29 499 522 540
742 2 2 3 29 521 498 539
743 2 2 3 29 517 497 524
744 2 2 3 29 496 516 523
745 2 2 3 29 497 514 544
746 2 2 3 29 515 496 543
747 2 2 3 29 510 496 558
748 2 2 3 29 497 511 557
749 2 2 3 29 189 190 526
750 2 2 3 29 236 235 525
751 2 2 3 29 512 296 536
752 2 2 3 29 295 513 536
753 2 2 3 29 499 528 533
754 2 2 3 29 528 505 533
755 2 2 3 29 293 510 541
756 2 2 3 29 511 298 542
757 2 2 3 29 302 303 529
758 2 2 3 29 308 309 530
759 2 2 3 29 500 512 536
760 2 2 3 29 513 500 536
761 2 2 3 29 496 510 531
762 2 2 3 29 511 497 532
763 2 2 3 29 512 500 556
764 2 2 3 29 500 513 555
765 2 2 3 29 517 524 553
766 2 2 3 29 523 516 554
767 2 2 3 29 496 515 558
768 2 2 3 29 514 497 557
769 2 2 3 29 498 520 547
770 2 2 3 29 494 514 557
771 2 2 3 29 515 495 558
772 2 2 3 29 509 522 552
773 2 2 3 29 513 294 541
774 2 2 3 29 297 512 542
775 2 2 3 29 494 512 556
776 2 2 3 29 513 495 555
777 2 2 3 29 516 496 531
778 2 2 3 29 497 517 532
779 2 2 3 29 304 305 521
780 2 2 3 29 306 307 522
781 2 2 3 29 522 499 552
782 2 2 3 29 491 520 533
783 2 2 3 29 294 293 541
784 2 2 3 29 298 297 542
785 2 2 3 29 303 304 539
786 2 2 3 29 307 308 540
787 2 2 3 29 300 517 559
788 2 2 3 29 516 291 560
789 2 2 3 29 518 494 556
790 2 2 3 29 495 519 555
791 2 2 3 29 515 543 545
792 2 2 3 29 544 514 546
793 2 2 3 29 543 492 545
794 2 2 3 29 493 544 546
795 2 2 3 29 296 295 536
796 2 2 3 29 500 518 556
797 2 2 3 29 519 500 555
798 2 2 3 29 187 516 560
799 2 2 3 29 517 233 559
800 2 2 3 29 516 187 554
801 2 2 3 29 233 517 553
802 2 2 3 29 520 491 547
803 2 2 3 29 304 521 539
804 2 2 3 29 522 307 540
805 2 2 3 29 520 509 552
806 2 2 3 29 233 52 559
807 2 2 3 29 44 187 560
808 2 2 3 29 525 508 538
809 2 2 3 29 507 526 537
810 2 2 3 29 492 537 548
811 2 2 3 29 538 493 549
812 2 2 3 29 526 501 537
813 2 2 3 29 502 525 538
814 2 2 3 29 529 501 561
815 2 2 3 29 502 530 562
816 2 2 3 29 538 508 544
817 2 2 3 29 507 537 543
818 2 2 3 29 505 528 546
819 2 2 3 29 527 506 545
820 2 2 3 29 501 535 561
821 2 2 3 29 534 502 562
822 2 2 3 29 237 236 550
823 2 2 3 29 190 191 551
824 2 2 3 29 537 492 543
825 2 2 3 29 493 538 544
826 2 2 3 29 234 233 553
827 2 2 3 29 187 188 554
828 2 2 3 29 501 526 551
829 2 2 3 29 525 502 550
830 2 2 3 29 528 493 546
831 2 2 3 29 492 527 545
832 2 2 3 29 301 302 561
833 2 2 3 29 309 310 562
834 2 2 3 29 529 503 548
835 2 2 3 29 504 530 549
836 2 2 3 29 535 501 551
837 2 2 3 29 502 534 550
838 2 2 3 29 291 44 560
839 2 2 3 29 52 300 559
840 2 2 3 29 501 529 548
841 2 2 3 29 530 502 549
842 2 2 3 29 533 520 552
843 2 2 3 29 499 533 552
844 2 2 3 29 236 525 550
845 2 2 3 29 526 190 551
846 2 2 3 29 188 523 554
847 2 2 3 29 524 234 553
848 2 2 3 29 310 534 562
849 2 2 3 29 535 301 561
850 2 2 3 29 534 237 550
851 2 2 3 29 191 535 551
852 2 2 3 29 302 529 561
853 2 2 3 29 530 309 562
854 2 2 3 29 537 501 548
855 2 2 3 29 502 538 549
856 2 2 3 30 312 302 311
857 2 2 3 30 311 302 301
858 2 2 3 30 315 305 314
859 2 2 3 30 314 305 304
860 2 2 3 30 311 563 46
861 2 2 3 30 563 192 46
862 2 2 3 30 564 320 54
863 2 2 3 30 238 564 54
864 2 2 3 30 312 313 302
865 2 2 3 30 315 306 305
866 2 2 3 30 315 316 306
867 2 2 3 30 313 303 302
868 2 2 3 30 310 564 53
869 2 2 3 30 564 310 320
870 2 2 3 30 564 238 53
871 2 2 3 30 563 301 45
872 2 2 3 30 301 563 311
873 2 2 3 30 192 563 45
874 2 2 3 30 308 318 319
875 2 2 3 30 308 319 309
876 2 2 3 30 319 320 310
877 2 2 3 30 310 309 319
878 2 2 3 30 317 318 308
879 2 2 3 30 317 308 307
880 2 2 3 30 314 304 313
881 2 2 3 30 313 304 303
882 2 2 3 30 316 317 307
883 2 2 3 30 316 307 306
884 2 2 3 31 593 570 646
885 2 2 3 31 570 593 659
886 2 2 3 31 244 616 682
887 2 2 3 31 576 599 618
888 2 2 3 31 579 594 650
889 2 2 3 31 574 601 667
890 2 2 3 31 594 579 643
891 2 2 3 31 605 573 611
892 2 2 3 31 608 313 653
893 2 2 3 31 318 609 654
894 2 2 3 31 568 598 669
895 2 2 3 31 604 589 679
896 2 2 3 31 220 667 684
897 2 2 3 31 567 618 627
898 2 2 3 31 596 582 648
899 2 2 3 31 244 243 616
900 2 2 3 31 599 576 626
901 2 2 3 31 610 574 667
902 2 2 3 31 582 596 645
903 2 2 3 31 607 588 658
904 2 2 3 31 316 315 602
905 2 2 3 31 313 312 653
906 2 2 3 31 319 318 654
907 2 2 3 31 619 604 679
908 2 2 3 31 211 603 665
909 2 2 3 31 616 593 682
910 2 2 3 31 598 623 674
911 2 2 3 31 598 568 657
912 2 2 3 31 320 319 654
913 2 2 3 31 312 311 653
914 2 2 3 31 623 590 674
915 2 2 3 31 601 574 628
916 2 2 3 31 620 320 654
917 2 2 3 31 311 621 653
918 2 2 3 31 582 615 664
919 2 2 3 31 667 601 684
920 2 2 3 31 583 605 652
921 2 2 3 31 588 607 672
922 2 2 3 31 652 605 690
923 2 2 3 31 641 582 664
924 2 2 3 31 627 618 685
925 2 2 3 31 220 219 667
926 2 2 3 31 613 213 665
927 2 2 3 31 566 606 631
928 2 2 3 31 218 610 667
929 2 2 3 31 587 608 629
930 2 2 3 31 609 588 630
931 2 2 3 31 212 211 665
932 2 2 3 31 591 646 675
933 2 2 3 31 213 212 665
934 2 2 3 31 603 576 665
935 2 2 3 31 614 566 631
936 2 2 3 31 565 604 619
937 2 2 3 31 606 574 631
938 2 2 3 31 572 607 658
939 2 2 3 31 622 591 651
940 2 2 3 31 603 211 692
941 2 2 3 31 575 622 651
942 2 2 3 31 586 624 641
943 2 2 3 31 591 627 646
944 2 2 3 31 219 218 667
945 2 2 3 31 676 578 685
946 2 2 3 31 576 613 665
947 2 2 3 31 623 598 657
948 2 2 3 31 590 623 649
949 2 2 3 31 602 315 635
950 2 2 3 31 316 602 636
951 2 2 3 31 576 603 626
952 2 2 3 31 623 565 649
953 2 2 3 31 616 579 659
954 2 2 3 31 574 606 703
955 2 2 3 31 592 644 664
956 2 2 3 31 633 678 714
957 2 2 3 31 612 567 622
958 2 2 3 31 607 590 638
959 2 2 3 31 576 618 680
960 2 2 3 31 637 578 676
961 2 2 3 31 607 572 674
962 2 2 3 31 638 590 649
963 2 2 3 31 577 633 714
964 2 2 3 31 586 641 663
965 2 2 3 31 586 623 657
966 2 2 3 31 194 195 642
967 2 2 3 31 590 607 674
968 2 2 3 31 606 566 688
969 2 2 3 31 580 621 701
970 2 2 3 31 241 240 640
971 2 2 3 31 625 585 634
972 2 2 3 31 608 580 629
973 2 2 3 31 581 609 630
974 2 2 3 31 644 571 664
975 2 2 3 31 605 583 656
976 2 2 3 31 573 605 656
977 2 2 3 31 598 647 669
978 2 2 3 31 642 580 701
979 2 2 3 31 618 639 680
980 2 2 3 31 573 612 699
981 2 2 3 31 642 195 713
982 2 2 3 31 612 595 699
983 2 2 3 31 620 581 700
984 2 2 3 31 579 634 659
985 2 2 3 31 611 584 693
986 2 2 3 31 569 607 638
987 2 2 3 31 610 218 655
988 2 2 3 31 241 640 698
989 2 2 3 31 584 614 631
990 2 2 3 31 585 638 649
991 2 2 3 31 572 602 666
992 2 2 3 31 213 613 652
993 2 2 3 31 566 617 688
994 2 2 3 31 575 632 689
995 2 2 3 31 581 640 700
996 2 2 3 31 602 572 658
997 2 2 3 31 615 582 686
998 2 2 3 31 579 616 691
999 2 2 3 31 313 608 661
1000 2 2 3 31 609 318 662
1001 2 2 3 31 589 604 673
1002 2 2 3 31 604 565 683
1003 2 2 3 31 611 573 668
1004 2 2 3 31 625 569 638
1005 2 2 3 31 585 625 638
1006 2 2 3 31 595 612 689
1007 2 2 3 31 580 608 653
1008 2 2 3 31 609 581 654
1009 2 2 3 31 593 646 707
1010 2 2 3 31 630 588 672
1011 2 2 3 31 587 629 669
1012 2 2 3 31 608 587 661
1013 2 2 3 31 588 609 662
1014 2 2 3 31 625 579 650
1015 2 2 3 31 642 596 671
1016 2 2 3 31 580 642 671
1017 2 2 3 31 630 569 670
1018 2 2 3 31 568 629 671
1019 2 2 3 31 607 569 672
1020 2 2 3 31 594 640 670
1021 2 2 3 31 640 581 670
1022 2 2 3 31 584 610 655
1023 2 2 3 31 612 573 656
1024 2 2 3 31 599 676 685
1025 2 2 3 31 574 610 687
1026 2 2 3 31 618 567 639
1027 2 2 3 31 646 570 675
1028 2 2 3 31 619 575 651
1029 2 2 3 31 632 595 689
1030 2 2 3 31 631 574 687
1031 2 2 3 31 628 574 703
1032 2 2 3 31 634 585 660
1033 2 2 3 31 566 614 715
1034 2 2 3 31 582 624 648
1035 2 2 3 31 613 583 652
1036 2 2 3 31 577 617 644
1037 2 2 3 31 643 579 691
1038 2 2 3 31 578 627 685
1039 2 2 3 31 584 655 693
1040 2 2 3 31 610 584 687
1041 2 2 3 31 605 611 677
1042 2 2 3 31 579 625 634
1043 2 2 3 31 582 645 686
1044 2 2 3 31 648 568 671
1045 2 2 3 31 584 611 668
1046 2 2 3 31 569 650 670
1047 2 2 3 31 567 612 708
1048 2 2 3 31 615 197 716
1049 2 2 3 31 583 613 680
1050 2 2 3 31 593 616 659
1051 2 2 3 31 199 200 633
1052 2 2 3 31 214 213 652
1053 2 2 3 31 612 622 689
1054 2 2 3 31 613 576 680
1055 2 2 3 31 617 566 712
1056 2 2 3 31 624 582 641
1057 2 2 3 31 315 314 635
1058 2 2 3 31 317 316 636
1059 2 2 3 31 632 575 679
1060 2 2 3 31 572 647 674
1061 2 2 3 31 614 584 668
1062 2 2 3 31 218 217 655
1063 2 2 3 31 246 245 637
1064 2 2 3 31 647 598 674
1065 2 2 3 31 615 592 664
1066 2 2 3 31 621 580 653
1067 2 2 3 31 581 620 654
1068 2 2 3 31 197 615 686
1069 2 2 3 31 597 628 703
1070 2 2 3 31 592 615 716
1071 2 2 3 31 616 243 691
1072 2 2 3 31 216 677 693
1073 2 2 3 31 202 628 711
1074 2 2 3 31 627 578 646
1075 2 2 3 31 624 568 648
1076 2 2 3 31 565 695 706
1077 2 2 3 31 201 202 711
1078 2 2 3 31 617 577 688
1079 2 2 3 31 651 591 675
1080 2 2 3 31 600 651 675
1081 2 2 3 31 677 611 693
1082 2 2 3 31 626 248 705
1083 2 2 3 31 640 594 698
1084 2 2 3 31 569 625 650
1085 2 2 3 31 589 617 712
1086 2 2 3 31 314 313 661
1087 2 2 3 31 318 317 662
1088 2 2 3 31 568 624 657
1089 2 2 3 31 649 565 706
1090 2 2 3 31 617 589 704
1091 2 2 3 31 596 642 713
1092 2 2 3 31 618 599 685
1093 2 2 3 31 624 586 657
1094 2 2 3 31 636 602 658
1095 2 2 3 31 200 201 678
1096 2 2 3 31 247 246 676
1097 2 2 3 31 199 633 681
1098 2 2 3 31 583 639 708
1099 2 2 3 31 248 247 705
1100 2 2 3 31 644 592 702
1101 2 2 3 31 203 42 684
1102 2 2 3 31 320 620 709
1103 2 2 3 31 621 311 710
1104 2 2 3 31 637 245 682
1105 2 2 3 31 197 198 716
1106 2 2 3 31 586 663 683
1107 2 2 3 31 663 604 683
1108 2 2 3 31 681 633 702
1109 2 2 3 31 42 220 684
1110 2 2 3 31 619 651 695
1111 2 2 3 31 637 682 707
1112 2 2 3 31 565 623 683
1113 2 2 3 31 575 619 679
1114 2 2 3 31 588 636 658
1115 2 2 3 31 656 583 708
1116 2 2 3 31 565 619 695
1117 2 2 3 31 587 635 661
1118 2 2 3 31 636 588 662
1119 2 2 3 31 50 249 692
1120 2 2 3 31 591 622 696
1121 2 2 3 31 641 571 663
1122 2 2 3 31 678 597 714
1123 2 2 3 31 195 196 713
1124 2 2 3 31 570 634 660
1125 2 2 3 31 242 241 698
1126 2 2 3 31 647 572 666
1127 2 2 3 31 634 570 659
1128 2 2 3 31 211 50 692
1129 2 2 3 31 571 641 664
1130 2 2 3 31 620 700 709
1131 2 2 3 31 623 586 683
1132 2 2 3 31 584 631 687
1133 2 2 3 31 602 635 666
1134 2 2 3 31 622 575 689
1135 2 2 3 31 622 567 696
1136 2 2 3 31 700 239 709
1137 2 2 3 31 635 314 661
1138 2 2 3 31 317 636 662
1139 2 2 3 31 247 676 705
1140 2 2 3 31 629 568 669
1141 2 2 3 31 646 578 707
1142 2 2 3 31 678 201 711
1143 2 2 3 31 569 630 672
1144 2 2 3 31 243 242 691
1145 2 2 3 31 601 628 694
1146 2 2 3 31 581 630 670
1147 2 2 3 31 629 580 671
1148 2 2 3 31 632 566 715
1149 2 2 3 31 595 632 715
1150 2 2 3 31 196 645 713
1151 2 2 3 31 589 632 679
1152 2 2 3 31 196 197 686
1153 2 2 3 31 639 583 680
1154 2 2 3 31 643 242 698
1155 2 2 3 31 626 603 697
1156 2 2 3 31 248 626 697
1157 2 2 3 31 701 621 710
1158 2 2 3 31 628 202 694
1159 2 2 3 31 217 216 693
1160 2 2 3 31 193 701 710
1161 2 2 3 31 635 587 666
1162 2 2 3 31 571 644 704
1163 2 2 3 31 239 54 709
1164 2 2 3 31 46 193 710
1165 2 2 3 31 567 627 696
1166 2 2 3 31 627 591 696
1167 2 2 3 31 628 597 711
1168 2 2 3 31 242 643 691
1169 2 2 3 31 633 200 678
1170 2 2 3 31 216 215 677
1171 2 2 3 31 577 644 702
1172 2 2 3 31 599 626 705
1173 2 2 3 31 240 239 700
1174 2 2 3 31 632 589 712
1175 2 2 3 31 246 637 676
1176 2 2 3 31 193 194 701
1177 2 2 3 31 639 567 708
1178 2 2 3 31 587 647 666
1179 2 2 3 31 645 196 686
1180 2 2 3 31 605 677 690
1181 2 2 3 31 651 600 695
1182 2 2 3 31 198 199 681
1183 2 2 3 31 677 215 690
1184 2 2 3 31 245 244 682
1185 2 2 3 31 647 587 669
1186 2 2 3 31 54 320 709
1187 2 2 3 31 311 46 710
1188 2 2 3 31 202 203 694
1189 2 2 3 31 596 648 671
1190 2 2 3 31 215 214 690
1191 2 2 3 31 592 681 702
1192 2 2 3 31 249 248 697
1193 2 2 3 31 633 577 702
1194 2 2 3 31 682 593 707
1195 2 2 3 31 566 632 712
1196 2 2 3 31 650 594 670
1197 2 2 3 31 660 600 675
1198 2 2 3 31 570 660 675
1199 2 2 3 31 673 571 704
1200 2 2 3 31 578 637 707
1201 2 2 3 31 214 652 690
1202 2 2 3 31 668 573 699
1203 2 2 3 31 604 663 673
1204 2 2 3 31 614 668 699
1205 2 2 3 31 695 600 706
1206 2 2 3 31 640 240 700
1207 2 2 3 31 703 606 714
1208 2 2 3 31 594 643 698
1209 2 2 3 31 663 571 673
1210 2 2 3 31 194 642 701
1211 2 2 3 31 644 617 704
1212 2 2 3 31 645 596 713
1213 2 2 3 31 676 599 705
1214 2 2 3 31 660 585 706
1215 2 2 3 31 600 660 706
1216 2 2 3 31 655 217 693
1217 2 2 3 31 597 678 711
1218 2 2 3 31 597 703 714
1219 2 2 3 31 585 649 706
1220 2 2 3 31 589 673 704
1221 2 2 3 31 612 656 708
1222 2 2 3 31 603 692 697
1223 2 2 3 31 681 592 716
1224 2 2 3 31 614 699 715
1225 2 2 3 31 684 601 694
1226 2 2 3 31 699 595 715
1227 2 2 3 31 692 249 697
1228 2 2 3 31 203 684 694
1229 2 2 3 31 606 688 714
1230 2 2 3 31 198 681 716
1231 2 2 3 31 688 577 714
1232 2 2 3 32 231 260 259
1233 2 2 3 32 231 259 230
1234 2 2 3 32 257 228 258
1235 2 2 3 32 258 228 229
1236 2 2 3 32 223 252 251
1237 2 2 3 32 223 251 222
1238 2 2 3 32 277 717 51
1239 2 2 3 32 717 231 51
1240 2 2 3 32 221 718 47
1241 2 2 3 32 718 204 47
1242 2 2 3 32 255 225 226
1243 2 2 3 32 255 254 225
1244 2 2 3 32 254 224 225
1245 2 2 3 32 254 253 224
1246 2 2 3 32 717 260 231
1247 2 2 3 32 717 277 55
1248 2 2 3 32 260 717 55
1249 2 2 3 32 718 250 48
1250 2 2 3 32 250 718 221
1251 2 2 3 32 204 718 48
1252 2 2 3 32 230 259 258
1253 2 2 3 32 230 258 229
1254 2 2 3 32 256 227 257
1255 2 2 3 32 257 227 228
1256 2 2 3 32 221 222 250
1257 2 2 3 32 251 250 222
1258 2 2 3 32 255 226 256
1259 2 2 3 32 256 226 227
1260 2 2 3 32 253 252 223
1261 2 2 3 32 253 223 224
1262 2 2 3 33 277 51 232
1263 2 2 3 33 232 52 278
1264 2 2 3 33 277 232 278
1265 2 2 3 33 278 55 277
1266 2 2 3 34 279 719 53
1267 2 2 3 34 719 237 53
1268 2 2 3 34 720 278 52
1269 2 2 3 34 233 720 52
1270 2 2 3 34 234 263 262
1271 2 2 3 34 236 264 263
1272 2 2 3 34 237 264 236
1273 2 2 3 34 236 263 235
1274 2 2 3 34 719 265 237
1275 2 2 3 34 719 279 56
1276 2 2 3 34 265 719 56
1277 2 2 3 34 261 720 233
1278 2 2 3 34 278 720 55
1279 2 2 3 34 720 261 55
1280 2 2 3 34 263 234 235
1281 2 2 3 34 234 262 261
1282 2 2 3 34 234 261 233
1283 2 2 3 34 237 265 264
1284 2 2 3 35 279 53 238
1285 2 2 3 35 238 54 280
1286 2 2 3 35 279 238 280
1287 2 2 3 35 280 56 279
1288 2 2 3 36 721 249 50
1289 2 2 3 36 210 721 50
1290 2 2 3 36 722 280 54
1291 2 2 3 36 239 722 54
1292 2 2 3 36 276 721 49
1293 2 2 3 36 721 276 249
1294 2 2 3 36 721 210 49
1295 2 2 3 36 269 243 270
1296 2 2 3 36 245 271 244
1297 2 2 3 36 272 271 245
1298 2 2 3 36 271 243 244
1299 2 2 3 36 266 722 239
1300 2 2 3 36 280 722 56
1301 2 2 3 36 722 266 56
1302 2 2 3 36 275 248 276
1303 2 2 3 36 276 248 249
1304 2 2 3 36 266 239 267
1305 2 2 3 36 275 274 248
1306 2 2 3 36 247 248 274
1307 2 2 3 36 241 268 267
1308 2 2 3 36 241 267 240
1309 2 2 3 36 267 239 240
1310 2 2 3 36 274 273 247
1311 2 2 3 36 246 247 273
1312 2 2 3 36 241 269 268
1313 2 2 3 36 269 241 242
1314 2 2 3 36 273 272 246
1315 2 2 3 36 269 242 243
1316 2 2 3 36 245 246 272
1317 2 2 3 36 271 270 243
1318 2 2 3 37 735 751 758
1319 2 2 3 37 207 740 765
1320 2 2 3 37 739 263 764
1321 2 2 3 37 740 207 762
1322 2 2 3 37 263 739 763
1323 2 2 3 37 751 731 758
1324 2 2 3 37 734 749 756
1325 2 2 3 37 749 726 756
1326 2 2 3 37 727 754 761
1327 2 2 3 37 754 735 761
1328 2 2 3 37 733 768 770
1329 2 2 3 37 727 741 786
1330 2 2 3 37 768 737 770
1331 2 2 3 37 740 728 752
1332 2 2 3 37 739 729 753
1333 2 2 3 37 737 730 757
1334 2 2 3 37 730 737 760
1335 2 2 3 37 723 741 761
1336 2 2 3 37 741 727 761
1337 2 2 3 37 742 724 756
1338 2 2 3 37 725 742 781
1339 2 2 3 37 738 725 769
1340 2 2 3 37 744 727 786
1341 2 2 3 37 725 738 773
1342 2 2 3 37 738 733 773
1343 2 2 3 37 724 742 802
1344 2 2 3 37 207 206 762
1345 2 2 3 37 208 207 765
1346 2 2 3 37 263 264 764
1347 2 2 3 37 262 263 763
1348 2 2 3 37 733 738 772
1349 2 2 3 37 741 769 786
1350 2 2 3 37 728 740 762
1351 2 2 3 37 729 739 764
1352 2 2 3 37 741 723 782
1353 2 2 3 37 759 736 774
1354 2 2 3 37 742 725 773
1355 2 2 3 37 732 766 767
1356 2 2 3 37 766 736 767
1357 2 2 3 37 728 759 774
1358 2 2 3 37 755 255 796
1359 2 2 3 37 256 257 772
1360 2 2 3 37 257 768 772
1361 2 2 3 37 769 741 782
1362 2 2 3 37 254 255 755
1363 2 2 3 37 251 252 759
1364 2 2 3 37 258 259 760
1365 2 2 3 37 743 727 799
1366 2 2 3 37 727 743 778
1367 2 2 3 37 759 252 797
1368 2 2 3 37 258 760 798
1369 2 2 3 37 726 776 799
1370 2 2 3 37 744 725 781
1371 2 2 3 37 269 270 749
1372 2 2 3 37 272 273 754
1373 2 2 3 37 742 756 781
1374 2 2 3 37 758 723 761
1375 2 2 3 37 267 268 750
1376 2 2 3 37 743 271 778
1377 2 2 3 37 735 758 761
1378 2 2 3 37 770 724 802
1379 2 2 3 37 726 749 776
1380 2 2 3 37 747 731 780
1381 2 2 3 37 771 729 785
1382 2 2 3 37 728 745 759
1383 2 2 3 37 746 730 760
1384 2 2 3 37 723 752 774
1385 2 2 3 37 753 729 771
1386 2 2 3 37 731 751 780
1387 2 2 3 37 727 744 799
1388 2 2 3 37 274 275 751
1389 2 2 3 37 729 748 779
1390 2 2 3 37 738 755 796
1391 2 2 3 37 756 726 781
1392 2 2 3 37 271 743 776
1393 2 2 3 37 750 729 779
1394 2 2 3 37 753 724 757
1395 2 2 3 37 776 743 799
1396 2 2 3 37 752 723 758
1397 2 2 3 37 769 725 786
1398 2 2 3 37 745 728 762
1399 2 2 3 37 730 746 763
1400 2 2 3 37 748 729 764
1401 2 2 3 37 731 747 765
1402 2 2 3 37 766 723 774
1403 2 2 3 37 754 727 778
1404 2 2 3 37 748 266 779
1405 2 2 3 37 755 738 769
1406 2 2 3 37 269 749 775
1407 2 2 3 37 749 734 775
1408 2 2 3 37 276 747 780
1409 2 2 3 37 737 757 770
1410 2 2 3 37 274 751 777
1411 2 2 3 37 725 744 786
1412 2 2 3 37 751 735 777
1413 2 2 3 37 750 268 775
1414 2 2 3 37 734 750 775
1415 2 2 3 37 747 276 791
1416 2 2 3 37 266 748 790
1417 2 2 3 37 272 754 778
1418 2 2 3 37 271 272 778
1419 2 2 3 37 734 756 771
1420 2 2 3 37 756 724 771
1421 2 2 3 37 736 759 797
1422 2 2 3 37 760 737 798
1423 2 2 3 37 754 273 777
1424 2 2 3 37 735 754 777
1425 2 2 3 37 724 753 771
1426 2 2 3 37 723 766 782
1427 2 2 3 37 749 270 776
1428 2 2 3 37 732 769 782
1429 2 2 3 37 267 750 779
1430 2 2 3 37 266 267 779
1431 2 2 3 37 270 271 776
1432 2 2 3 37 755 732 787
1433 2 2 3 37 753 757 783
1434 2 2 3 37 275 276 780
1435 2 2 3 37 752 728 774
1436 2 2 3 37 729 750 785
1437 2 2 3 37 730 763 783
1438 2 2 3 37 731 765 784
1439 2 2 3 37 732 755 769
1440 2 2 3 37 752 758 784
1441 2 2 3 37 750 734 785
1442 2 2 3 37 763 739 783
1443 2 2 3 37 765 740 784
1444 2 2 3 37 751 275 780
1445 2 2 3 37 757 724 770
1446 2 2 3 37 759 745 800
1447 2 2 3 37 746 760 801
1448 2 2 3 37 740 752 784
1449 2 2 3 37 739 753 783
1450 2 2 3 37 732 767 787
1451 2 2 3 37 757 730 783
1452 2 2 3 37 758 731 784
1453 2 2 3 37 768 733 772
1454 2 2 3 37 257 258 798
1455 2 2 3 37 252 253 797
1456 2 2 3 37 736 766 774
1457 2 2 3 37 268 269 775
1458 2 2 3 37 763 746 793
1459 2 2 3 37 745 762 792
1460 2 2 3 37 748 764 794
1461 2 2 3 37 765 747 795
1462 2 2 3 37 273 274 777
1463 2 2 3 37 55 261 789
1464 2 2 3 37 49 209 791
1465 2 2 3 37 265 56 790
1466 2 2 3 37 205 48 788
1467 2 2 3 37 254 755 787
1468 2 2 3 37 253 254 787
1469 2 2 3 37 251 759 800
1470 2 2 3 37 760 259 801
1471 2 2 3 37 276 49 791
1472 2 2 3 37 260 55 789
1473 2 2 3 37 48 250 788
1474 2 2 3 37 56 266 790
1475 2 2 3 37 255 256 796
1476 2 2 3 37 768 257 798
1477 2 2 3 37 253 767 797
1478 2 2 3 37 206 205 792
1479 2 2 3 37 261 262 793
1480 2 2 3 37 264 265 794
1481 2 2 3 37 209 208 795
1482 2 2 3 37 259 260 801
1483 2 2 3 37 250 251 800
1484 2 2 3 37 767 253 787
1485 2 2 3 37 766 732 782
1486 2 2 3 37 734 771 785
1487 2 2 3 37 762 206 792
1488 2 2 3 37 262 763 793
1489 2 2 3 37 208 765 795
1490 2 2 3 37 764 264 794
1491 2 2 3 37 788 745 792
1492 2 2 3 37 746 789 793
1493 2 2 3 37 790 748 794
1494 2 2 3 37 747 791 795
1495 2 2 3 37 205 788 792
1496 2 2 3 37 789 261 793
1497 2 2 3 37 265 790 794
1498 2 2 3 37 791 209 795
1499 2 2 3 37 256 772 796
1500 2 2 3 37 781 726 799
1501 2 2 3 37 744 781 799
1502 2 2 3 37 767 736 797
1503 2 2 3 37 737 768 798
1504 2 2 3 37 733 770 802
1505 2 2 3 37 772 738 796
1506 2 2 3 37 260 789 801
1507 2 2 3 37 788 250 800
1508 2 2 3 37 789 746 801
1509 2 2 3 37 745 788 800
1510 2 2 3 37 742 773 802
1511 2 2 3 37 773 733 802
$EndElements
