$MeshFormat
2.2 0 8
$EndMeshFormat
$PhysicalNames
4
2 1 "SD1G0"
2 2 "SD1D1001"
2 3 "SD2G0"
2 4 "I1-2"
$EndPhysicalNames
$Nodes
611
1 12.7 0 0
2 9.058999999999999 8.9 0
3 0 12.7 0
4 12.947 0 4.65
5 9.339 9.175000000000001 4.65
6 0 12.852 4.65
7 14.539 0 12.987
8 11.072 10.877 12.987
9 0 13.865 12.987
10 19.052 0 25.751
11 15.632 15.358 25.751
12 0 16.936 25.751
13 27.987 0 44.193
14 24.043 23.622 44.193
15 0 23.513 44.193
16 41.856 0 67.982
17 36.508 35.868 67.982
18 0 34.377 67.982
19 61.202 0 95.667
20 53.64 52.699 95.667
21 0 50.461 95.667
22 86.596 0 123.266
23 77.185 75.831 123.266
24 0 73.43899999999999 123.266
25 116.929 0 146.144
26 107.591 105.704 146.144
27 0 103.35 146.144
28 149.972 0 163.297
29 142.456 139.957 163.297
30 0 137.807 163.297
31 180.659 0 174.603
32 175.046 171.976 174.603
33 0 170.616 174.603
34 206.669 0 181.38
35 201.587 198.05 181.38
36 0 198.473 181.38
37 224.881 0 184.418
38 218.593 214.758 184.418
39 0 217.672 184.418
40 0 0 184.418
41 0 0 0
42 0 0 14.418
43 225 0 184.418
44 235 0 174.418
45 235 0 24.418
46 225 0 14.418
47 0 218 184.418
48 0 228 174.418
49 0 228 24.418
50 0 218 14.418
51 225 218 184.418
52 235 218 174.418
53 235 218 24.418
54 225 218 14.418
55 225 228 174.418
56 225 228 24.418
57 10.74508874525072 5.00784983594257 0
58 5.116718307710409 10.64139108545163 0
59 11.00650667862597 5.153488811762678 4.65
60 5.281822144616455 10.87471335477075 4.65
61 12.65514940219981 6.061746233089489 12.987
62 6.305294111235982 12.34684426666336 12.987
63 17.15515821416142 8.488450903088157 25.751
64 8.987402656219945 16.38338650931474 25.751
65 13.2510586876485 13.01830745161249 19.08645287042664
66 16.69559909152592 0 19.08645287042695
67 0 15.33251956793952 19.08645287045914
68 25.75672024104642 13.00444528154084 44.193
69 13.89818443343286 24.19402756067089 44.19299999999999
70 19.61213396981083 19.26857271745532 34.47786133292727
71 23.280093808139 0 34.47786133292663
72 0 20.04827453567709 34.477861332972
73 39.82474923609443 13.15022952822441 67.982
74 37.79434674865701 26.3005901033216 67.982
75 28.1808033732904 36.80889642524267 67.98199999999999
76 14.09019423963035 35.59536876919977 67.982
77 29.94758207825243 29.42284333175125 55.46168055030462
78 34.55664691883512 0 55.46168055030418
79 0 28.6591997351364 55.46168055036448
80 58.35454559202775 19.33326725327338 95.667
81 55.50811501858544 38.66668543070668 95.66699999999999
82 41.32233295537882 54.01150809616999 95.66699999999999
83 20.66087702130034 52.23964341814644 95.66700000000003
84 44.63272528980085 43.84997824846124 81.11140810460755
85 51.03069854403968 0 81.11140810460761
86 0 42.00471897979573 81.11140810467825
87 84.04640117189156 20.92056629682195 123.266
88 81.49622753644202 41.84106364594975 123.266
89 78.94790678299044 62.76178670404976 123.266
90 66.38306056461192 78.06073250146788 123.266
91 44.25332523173983 76.54990773309736 123.266
92 22.12721702098025 74.98652927420608 123.266
93 64.89861403719803 63.76012804877745 108.8641326741401
94 73.34475832918139 0 108.8641326741387
95 0 61.4484892056936 108.8641326742074
96 114.6587161638739 29.29487265021739 146.144
97 112.3926799312135 58.59007528222559 146.144
98 110.1130646297086 87.88422410598548 146.144
99 97.63666495531507 108.4625283095073 146.144
100 73.22481962679277 107.2366680881269 146.144
101 48.81642888657445 105.9432974032221 146.144
102 24.40870232188059 104.6374271283459 146.144
103 91.92439655497499 90.31202326142103 134.3561767540853
104 101.3000095935709 0 134.3561767540868
105 0 87.93844387154451 134.3561767541438
106 148.8673963965767 31.18356879706126 163.297
107 147.7754820728418 62.36758691651613 163.297
108 146.6750501345452 93.55130439667182 163.297
109 145.5288592765664 124.7333647240297 163.297
110 128.1046064376186 142.7009883048084 163.297
111 96.07670246059244 141.5242766233549 163.297
112 64.05106015772809 140.2870811675936 163.297
113 32.02585263243829 139.0386644629644 163.297
114 124.6701895318649 122.4833913390211 154.5466771272072
115 133.115653081934 0 154.5466771272104
116 0 120.2293240700697 154.5466771272573
117 180.3491903398508 32.05330615856444 174.603
118 180.0581083824838 64.10679171370053 174.603
119 179.7653033437005 96.16026030270319 174.603
120 179.4486607908988 128.2135001063356 174.603
121 179.0482862860925 160.265776949838 174.603
122 163.0755677877788 174.7903660648944 174.603
123 130.4591493918624 174.008068857381 174.603
124 97.84411721556248 173.1694889136685 174.603
125 65.2295005796319 172.3148593840689 174.603
126 32.6149148991206 171.4590917146823 174.603
127 158.5528581876208 155.7718297732259 168.8812613890531
128 0 154.01202670391 168.8812613890825
129 206.6616236953894 31.71615751422832 181.38
130 206.67544009389 63.43231688071337 181.38
131 206.6926177637485 95.14847460215231 181.38
132 206.6975137608361 126.8646360393091 181.38
133 206.6654011804657 158.5807773331132 181.38
134 206.5126497162079 190.2964998514782 181.38
135 160.5302614917786 200.548483178512 181.38
136 128.4240380579796 200.1468300273245 181.38
137 96.31801494700828 199.7292992031548 181.38
138 64.21206201707396 199.3065000272853 181.38
139 32.10608916139607 198.8851701856229 181.38
140 188.2194941321962 184.9177009910284 177.9667304447419
141 224.7791314107176 34.43048483541957 184.418
142 224.7012578543421 68.86103719127325 184.418
143 224.6271851306427 103.2915972084193 184.418
144 224.5391956547733 137.7221229168382 184.418
145 224.4092674682791 172.1525139788895 184.418
146 224.142453851013 206.5820342489435 184.418
147 173.9206980222212 217.7236034610881 184.418
148 139.136556905724 217.7254917446388 184.418
149 104.352415602868 217.7129608314073 184.418
150 69.56827803649755 217.6956448275279 184.418
151 34.78413905964109 217.6796631781988 184.418
152 192.7551428571801 0 184.418
153 160.6292857144269 0 184.418
154 128.5034285716736 0 184.418
155 96.37757142881964 0 184.418
156 64.25171428590932 0 184.418
157 32.12585714295466 0 184.418
158 0 31.09599999994136 184.418
159 0 62.19199999985164 184.418
160 0 93.28799999976191 184.418
161 0 124.3839999997571 184.418
162 0 155.4799999998399 184.418
163 0 186.5759999999144 184.418
164 6.349999999983785 0 0
165 0 6.350000000015788 0
166 232.0710678378863 0 181.4890677858446
167 235 0 149.4179999999824
168 235 0 124.4179999999648
169 235 0 99.41800000004997
170 235 0 74.41800000003516
171 235 0 49.41800000001759
172 232.0710677833379 0 17.34693215960698
173 200.0000000000105 0 14.418
174 175.000000000021 0 14.418
175 150.0000000000314 0 14.418
176 125.0000000000419 0 14.418
177 99.9999999999735 0 14.418
178 74.99999999996857 0 14.418
179 49.99999999997902 0 14.418
180 24.99999999998951 0 14.418
181 0 225.0710678378863 181.4890677858446
182 0 228 149.4179999999824
183 0 228 124.4179999999648
184 0 228 99.41800000004997
185 0 228 74.41800000003516
186 0 228 49.41800000001759
187 0 225.0710677833379 17.34693215960698
188 0 193.7777777779357 14.418
189 0 169.5555555558714 14.418
190 0 145.333333333807 14.418
191 0 121.111111111694 14.418
192 0 96.88888888947176 14.418
193 0 72.66666666714036 14.418
194 0 48.44444444476025 14.418
195 0 24.22222222238014 14.418
196 25.00000000002578 218 184.418
197 50.00000000001508 218 184.418
198 74.99999999999945 218 184.418
199 99.99999999998381 218 184.418
200 125.0000000000471 218 184.418
201 150.0000000000469 218 184.418
202 175.0000000000313 218 184.418
203 200.0000000000157 218 184.418
204 232.0710678378863 218 181.4890677858446
205 235 218 149.4179999999824
206 235 218 124.4179999999648
207 235 218 99.41800000004997
208 235 218 74.41800000003516
209 235 218 49.41800000001759
210 232.0710677833379 218 17.34693215960698
211 200.0000000000105 218 14.418
212 175.000000000021 218 14.418
213 150.0000000000314 218 14.418
214 125.0000000000419 218 14.418
215 99.9999999999735 218 14.418
216 74.99999999996857 218 14.418
217 49.99999999997902 218 14.418
218 24.99999999998951 218 14.418
219 25.00000000002578 228 174.418
220 50.00000000001508 228 174.418
221 74.99999999999945 228 174.418
222 99.99999999998381 228 174.418
223 125.0000000000471 228 174.418
224 150.0000000000469 228 174.418
225 175.0000000000313 228 174.418
226 200.0000000000157 228 174.418
227 225 228 149.4179999999824
228 225 228 124.4179999999648
229 225 228 99.41800000004997
230 225 228 74.41800000003516
231 225 228 49.41800000001759
232 200.0000000000105 228 24.418
233 175.000000000021 228 24.418
234 150.0000000000314 228 24.418
235 125.0000000000419 228 24.418
236 99.9999999999735 228 24.418
237 74.99999999996857 228 24.418
238 49.99999999997902 228 24.418
239 24.99999999998951 228 24.418
240 225 225.0710678378863 181.4890677858446
241 232.0710677858446 225.0710678378863 174.418
242 232.0710677858446 225.0710678378863 24.418
243 225 225.0710678236433 17.34693219991237
244 225 24.22222222212896 184.418
245 225 48.4444444442315 184.418
246 225 72.66666666635778 184.418
247 225 96.88888888853435 184.418
248 225 121.1111111107109 184.418
249 225 145.3333333329966 184.418
250 225 169.5555555553311 184.418
251 225 193.7777777776655 184.418
252 235 24.22222222212896 174.418
253 235 48.4444444442315 174.418
254 235 72.66666666635778 174.418
255 235 96.88888888853435 174.418
256 235 121.1111111107109 174.418
257 235 145.3333333329966 174.418
258 235 169.5555555553311 174.418
259 235 193.7777777776655 174.418
260 235 24.22222222212896 24.418
261 235 48.4444444442315 24.418
262 235 72.66666666635778 24.418
263 235 96.88888888853435 24.418
264 235 121.1111111107109 24.418
265 235 145.3333333329966 24.418
266 235 169.5555555553311 24.418
267 235 193.7777777776655 24.418
268 225 24.22222222212896 14.418
269 225 48.4444444442315 14.418
270 225 72.66666666635778 14.418
271 225 96.88888888853435 14.418
272 225 121.1111111107109 14.418
273 225 145.3333333329966 14.418
274 225 169.5555555553311 14.418
275 225 193.7777777776655 14.418
276 10.10600004685244 7.085020640976421 2.324334283688603
277 7.241501955088389 9.96393832826497 2.323609733223359
278 12.04087951119078 5.056497282471382 8.914621977365991
279 5.172294456452695 11.81436850158489 8.899888976693475
280 16.5980904271867 4.609953960467313 21.98635907198429
281 14.32095949560186 6.248662561244545 17.22947957487441
282 15.30292628365322 9.826528030980302 21.92660497212701
283 4.485629324975793 14.02695938779527 16.87128468367899
284 5.978773514204184 15.21740468262125 21.34418982560661
285 8.94495778922572 13.27752881626243 16.91976204238681
286 11.23893020099781 15.18796599095315 22.82285794057305
287 21.08374474374668 14.13951958092689 35.50649585613677
288 22.40542355175489 6.353298477496818 35.1828862550957
289 8.786074416214449 20.91035356113492 36.54655683954174
290 16.66950107313848 22.32413934862046 39.51501579913777
291 13.71320547380308 18.30556769779923 30.48955242908356
292 32.26808279609498 9.748273329279396 54.25344173654733
293 32.2673943322519 20.93784503612736 57.29591813692488
294 11.68329965617978 30.84454077918735 58.33388336998638
295 23.20682143997339 33.19672176212288 61.38765139711083
296 19.91106027999297 28.72920990502683 52.73020404923744
297 50.79953364863189 33.53000334671765 87.91930354959793
298 43.74703498105457 31.35025121954416 77.47606263951161
299 48.42534266196186 18.66083844623278 81.39714856856023
300 16.68380040886878 41.07429402109018 77.03068329612259
301 12.95063458137391 46.37225404201045 86.71508538730875
302 29.01245300237552 44.57271345200398 81.21884714138932
303 37.74645972701867 50.07291060322584 89.40977558094872
304 68.66725190253615 51.50474666383951 111.1030678984232
305 69.00644818763938 30.51586355555315 108.5634166944958
306 69.84564180842608 14.05477820733624 107.1139393163059
307 46.18515930035287 64.5081863985499 108.2463825161723
308 58.49762990216729 71.8064453997178 116.1832122158752
309 24.17974030691206 64.90967557554058 110.8163132355449
310 96.0928903610573 72.09448856538265 135.5611427810727
311 94.53885991125739 54.60413168837016 133.3179753475393
312 100.9440041902922 15.65332852421019 135.2100607084558
313 98.17192202191924 36.17453245827642 134.6190640668324
314 101.439540965901 89.03220708787146 140.2642353900038
315 75.59761005421137 91.06778288145887 133.2251343688962
316 87.71833876521609 100.5706297563524 140.2663595992138
317 61.24705804364429 94.76505763490397 136.8227314178216
318 44.5745248663235 91.32320633259042 134.8928163397125
319 24.15170541042399 88.58212734746658 133.7270510796178
320 13.7985295911733 97.1051640396808 140.7815373541571
321 137.433048531126 115.7842521902473 159.3851252950997
322 126.5055307349455 99.49866030543213 153.9727452871547
323 127.3659968776049 75.04973146671152 153.7338329093717
324 130.9014734329951 46.48064614983127 154.686700854192
325 132.6216030961769 19.05616714635443 154.8179213851171
326 104.1222980604706 124.3146805819618 154.2493065126062
327 118.9297287327235 134.8050982961193 159.382543824464
328 17.54340407749066 122.0480571448852 155.0667215806646
329 83.10630338744841 124.3702538707569 154.7506988724913
330 62.81417468428288 122.835425837875 154.4303907648014
331 41.35829550842794 123.0391547820538 155.0278341324358
332 163.0870787952661 136.1837991990848 169.1728470307842
333 163.2597060049005 109.4253899906476 169.0307204170617
334 163.7582564244863 79.1805934786285 168.9836503096217
335 164.2806471487527 49.22421313884434 168.95
336 165.0134462904681 14.07649366048665 168.95
337 110.3716661385298 157.8004289356129 168.9814023514619
338 79.97177932093804 156.9785689408948 169.0300421940358
339 135.6866251407093 157.0844046630091 168.443339227452
340 151.1212022228547 166.9308519194096 171.8599273888651
341 48.26839986473247 156.1223115560638 169.0843696242014
342 18.05487915071227 154.9535054320082 169.0111449876172
343 193.5033549725015 172.4395713593108 178.1618101779245
344 103.1908723703631 105.8560395054644 184.418
345 157.9272657509474 65.08523296473919 184.418
346 58.27834171451342 60.54642664655293 184.418
347 163.8852572450748 153.4186182260715 184.418
348 56.22507715977819 160.5874318327961 184.418
349 111.4663010375322 48.10092621037347 184.418
350 46.96492440437087 106.032905219076 184.418
351 112.0231531446751 166.5839885353022 184.418
352 179.3609344210511 107.149664171747 184.418
353 194.6847060367889 192.5588608970349 184.418
354 39.65104662377718 39.9788297946967 184.418
355 185.3209278053796 43.65846483278069 184.418
356 39.31196569924146 178.9576501196593 184.418
357 140.6228170564471 31.16537281505332 184.418
358 29.44964590725676 80.62350257178991 184.418
359 30.93085799571714 138.4493121951731 184.418
360 82.21023586405231 31.82886938018644 184.418
361 141.5494066867824 99.38173839357886 184.418
362 76.93180406963857 94.65470888246135 184.418
363 84.45928825458414 184.655544371772 184.418
364 129.0144915307127 136.9854488977246 184.418
365 197.3445860327604 159.5560032380319 184.418
366 188.0074006613084 75.67197752514947 184.418
367 158.4619971914534 188.4000800797756 184.418
368 92.99200629232747 144.2967842647245 184.418
369 122.0663771040898 75.3498599980868 184.418
370 91.62261923861773 68.79971921635585 184.418
371 67.87259038203256 124.9795303166159 184.418
372 122.1145724846569 193.3828627721105 184.418
373 112.1321177509906 21.80723776236713 184.418
374 156.6927614186432 123.1290406864441 184.418
375 20.39848476285136 108.8359999997595 184.418
376 197.0910036134717 127.1687294310173 184.418
377 138.0409367394455 168.370168991422 184.418
378 133.0206902372542 54.9253479970632 184.418
379 57.02453011647931 23.29205915912508 184.418
380 52.90617902394491 85.46438582997006 184.418
381 55.85418426913767 194.5966571581037 184.418
382 22.60607996140833 55.74311157565225 184.418
383 166.9644402467863 23.38552536254096 184.418
384 23.93762822989499 23.67987295753704 184.418
385 200.9012592546659 24.94987876216696 184.418
386 23.07464463232746 163.8792525941299 184.418
387 203.9141310907171 54.17731305834709 184.418
388 178.5941366265194 173.4833906102284 184.418
389 24.17729471860446 194.6618743203798 184.418
390 202.7575563361632 96.42860110552125 184.418
391 164.6512328756922 89.27202038590113 184.418
392 5.195961580258136 5.220778179995159 0
393 231.240915300234 13.28524378241848 182.2315124121809
394 231.2408764620261 204.7148389714111 182.2315434334064
395 235 84.13055799448854 100.2233144151656
396 235 151.0371098148293 92.98365102382455
397 235 44.91356183293097 128.716667360134
398 235 47.04016963624994 66.54945709988939
399 235 125.7666270229352 126.5459647516608
400 235 174.2078050484934 132.3209640253228
401 235 114.6845449022486 67.60542644416947
402 235 179.6964464655336 63.06124544915905
403 235 84.77777777744608 137.8958600823008
404 235 80.22805622060685 59.09509296153165
405 235 144.8061965973263 57.60218923446548
406 235 184.3648553942464 98.02499501952002
407 235 31.81126655718976 99.41799999999998
408 235 111.93414372164 96.51509447623965
409 235 147.1784296577373 144.322502810897
410 235 27.50754970665484 147.0005617163315
411 235 27.76197381716187 54.58658242530161
412 235 62.49195043341438 150.3435447666193
413 235 106.6134644495633 149.5893127149786
414 235 146.8087289060629 117.5917921989314
415 235 58.03728776158587 103.3074153505554
416 235 190.4155239175242 149.662122598462
417 235 59.90109790321698 46.92123722426449
418 235 98.60049145585424 119.9685410669389
419 235 67.67347218631097 80.12902614461909
420 235 101.8189657982729 48.29317140084891
421 235 23.73186010810894 121.8764875124245
422 235 23.76837662916897 77.51532863070402
423 235 93.84368785219218 77.9769425679676
424 235 125.6607726435676 45.25033801140599
425 235 194.4842065516235 117.854218943372
426 235 168.4303946909022 151.8877361977732
427 235 199.0786769820509 43.63710394429131
428 235 68.60790528090403 122.766397735138
429 235 195.8975280685433 78.69159533089119
430 235 135.2876773621505 81.74762625680783
431 235 163.9269989152601 46.50034094776684
432 235 128.8710584803178 154.8024076758507
433 235 167.5801272022222 109.0567205153716
434 235 171.3517410788713 84.04685432459966
435 235 84.74496869057184 157.8617810168948
436 235 134.5585023596051 102.0384046597586
437 235 82.30073509539776 40.629100317329
438 235 43.46987146544844 156.513970245448
439 235 45.97201793113109 86.5342404308203
440 235 40.14834153376415 41.17325357511077
441 235 204.2741955722657 62.72228200039159
442 235 156.8332774404024 71.77622468123306
443 235 14.73510499529648 159.375641481058
444 235 15.47246046535558 40.31910671254479
445 235 203.5416811836618 134.8619475105824
446 235 13.27384104139841 136.2938825235107
447 235 13.2738410413984 62.54211747648918
448 235 180.7236420768408 37.78509621617977
449 235 63.71069898659619 63.17370335757616
450 235 204.5607268747017 160.6311585818502
451 233.2226413885572 204.683754884887 18.72693958956801
452 233.2221115132537 13.31588902510562 18.72617408351071
453 118.9354677606142 109.8321401083044 14.418
454 65.8699781201399 149.9438587649304 14.418
455 67.0005590384924 65.59100412314727 14.418
456 160.4819811895004 154.6948081199507 14.418
457 163.1553174167642 66.63728568355758 14.418
458 113.4090452731803 47.75472344494271 14.418
459 114.6351381005007 168.0410760792213 14.418
460 177.8959863650132 108.9999999996226 14.418
461 46.06099220693344 109.0000000005829 14.418
462 38.0791862587279 180.2786176484215 14.418
463 38.07918625846133 37.72138235144317 14.418
464 187.1673264742131 181.4253535832943 14.418
465 187.1673264742737 36.57464641652701 14.418
466 81.1946936343963 98.97414566264402 14.418
467 80.36665365831973 183.0635982245611 14.418
468 79.77867331422857 35.08771863043245 14.418
469 97.68353849576738 138.2125687511048 14.418
470 33.41844418237984 141.1625740802058 14.418
471 34.37863838754645 76.98422394887365 14.418
472 146.0185424313025 188.4078055870853 14.418
473 145.9508248900028 29.63212600426806 14.418
474 141.1515039850997 124.0262603996457 14.418
475 190.9742837759392 141.3582235132142 14.418
476 187.3319432521187 74.81559769138045 14.418
477 130.7736267699503 78.12463618467395 14.418
478 100.8610672464037 77.99422148973322 14.418
479 127.5204211198454 146.1121882137915 14.418
480 155.9906300145286 91.03518000349843 14.418
481 71.09953031003263 123.892652984067 14.418
482 112.2835199109427 22.51409048843938 14.418
483 112.5000000000077 195.166083533417 14.418
484 203.339619378993 108.9803962820981 14.418
485 20.98581004182099 109.0260796342579 14.418
486 61.92201954667421 196.610152514904 14.418
487 61.8380223544652 21.41146417865583 14.418
488 167.3967085536963 21.81749957700744 14.418
489 167.4047701657624 196.1872541838714 14.418
490 204.0138561078094 158.8542665531397 14.418
491 203.4935217473145 58.88485076142339 14.418
492 21.29582249588666 59.74061741972015 14.418
493 21.15865189525946 158.2803537277373 14.418
494 57.40113475993901 87.0114077102703 14.418
495 88.68905700114219 160.6896932449986 14.418
496 168.7320601227739 132.6443905949328 14.418
497 90.01138768858448 56.65337139334383 14.418
498 138.693701670693 55.90871458113596 14.418
499 140.2884179529668 165.3627079657465 14.418
500 22.18291465347092 195.8950549575668 14.418
501 22.18291465332883 22.10494504231414 14.418
502 94.7800450835983 119.2897386496242 14.418
503 45.309235186249 58.4390458735773 14.418
504 45.20564428354416 157.9990161969658 14.418
505 137.3855187079361 100.5977088895364 14.418
506 203.8906790122359 197.0031218143452 14.418
507 203.8906790124431 20.99687818541364 14.418
508 63.35542314475801 171.4308227657969 14.418
509 63.66951064008015 45.81733109176663 14.418
510 180.5729491288782 56.01981020872093 14.418
511 181.1950642683847 162.101461790366 14.418
512 49.8404468608971 128.7276975049499 14.418
513 16.2490714825985 133.1566649691228 14.418
514 16.62727749407939 84.9046491029744 14.418
515 163.1757179395484 174.7299264347982 14.418
516 163.2210424218709 44.07596329153999 14.418
517 81.48633180613906 79.35089316993584 14.418
518 100.1061365995891 96.12844996308655 14.418
519 174.8062664204048 89.89450965616187 14.418
520 87.89234092931197 200.6216774533457 14.418
521 87.81679181150963 17.3658316937934 14.418
522 208.6477156341365 133.1113442109743 14.418
523 206.0086484588332 84.63978763874094 14.418
524 131.8942590685447 200.3617776500929 14.418
525 131.8374195424378 17.58224347254096 14.418
526 146.1988216849976 143.5818237612438 14.418
527 186.2270030102972 16.06203465678463 14.418
528 186.2281546691047 201.938644451862 14.418
529 39.43682409176832 201.7567650241785 14.418
530 39.42002465324478 16.24755831448263 14.418
531 114.5678963311672 129.8509813460908 14.418
532 208.8782826908651 38.58199997068375 14.418
533 208.9162079357549 179.3989852560565 14.418
534 159.1876143551661 109.4744750262324 14.418
535 64.39038232894939 106.6592472911967 14.418
536 33.74963118998915 95.44899959971244 14.418
537 15.91896292735084 38.89419975957563 14.418
538 15.90896507006938 179.107328749983 14.418
539 98.29024684532206 181.6315575282766 14.418
540 98.21027014218024 36.0580204499617 14.418
541 80.52505539237744 139.4372219076117 14.418
542 116.4480684508747 66.82559257776921 14.418
543 33.31095295492598 124.2146032378239 14.418
544 190.2563996015356 123.0178699242304 14.418
545 127.2191556388647 35.21060226197085 14.418
546 128.1774090537145 183.1156355822125 14.418
547 109.4423713889529 150.4031908820164 14.418
548 118.2742693622578 91.09356161486369 14.418
549 148.2440184847376 75.08361576451388 14.418
550 190.4508680892155 94.07642033618673 14.418
551 211.2793955565498 223.7406975963318 182.6060639413398
552 13.7206042624068 223.7406973205239 182.6060641347103
553 233.2080225898328 223.7121244003256 38.14929519710211
554 233.2080220421882 223.712125187262 160.6867047118987
555 13.72060422975579 226.1880643676402 18.67730301170844
556 211.279395737552 223.7406970945237 16.22993570683977
557 112.6950761006875 228 101.1757890437636
558 58.51551875098787 228 115.6330558738424
559 166.4891081850543 228 115.6259464691424
560 151.6035353535559 228 72.09476767677076
561 73.3964646464829 228 72.09476767676749
562 91.74678309888839 228 135.474470604468
563 132.8779076768163 228 135.7528549355257
564 112.5000000000077 228 60.87633333332787
565 39.39088743829953 228 57.33531058223929
566 185.6091125617179 228 57.33531058224457
567 30.71300173372207 228 139.9250169103929
568 194.2869982662814 228 139.9250169103962
569 192.1778539983534 228 94.95043043373514
570 32.82214600165326 228 94.95043043372246
571 68.2745413247291 228 150.1185212615917
572 156.6845393842921 228 150.2391580059404
573 81.87710036868249 228 99.47828606963984
574 143.3276528946061 228 99.43089144709684
575 134.9972382678381 228 50.23834916732105
576 90.00276173218204 228 50.2383491673211
577 59.75524672820479 228 49.2098669706903
578 165.2447532718204 228 49.20986697069311
579 112.5838310063104 228 150.8257561551722
580 56.75245034334433 228 94.25527781517707
581 168.2824463565584 228 94.24619381064463
582 200.9144990395072 228 120.0376204315999
583 24.08550096049593 228 120.0376204315966
584 128.1323792494014 228 80.14716666666102
585 96.86762075062926 228 80.14716666666736
586 112.6422029001565 228 125.3315340289758
587 88.23652736369081 228 156.4637701580636
588 21.51746442247284 228 45.93546442247675
589 203.482535577533 228 45.9354644224709
590 136.7453555443092 228 156.9394230378454
591 21.12640066558614 228 74.61202598226502
592 203.8735993344202 228 74.61202598227396
593 76.08467638377024 228 122.9348470574088
594 149.0220146469377 228 122.8812629292799
595 112.5000000000082 228 41.28670585532497
596 177.798550146071 228 73.74143257606035
597 47.20726597059515 228 73.74294657681027
598 19.36823411722431 228 155.0963574969576
599 205.6317658827834 228 155.0963574969579
600 39.13271971778914 228 40.26332839508127
601 185.8672802822205 228 40.26332839508171
602 95.009167770437 228 116.8789853608512
603 40.55071604443 228 154.6255626057271
604 184.4424640737589 228 154.6456687297874
605 210.3882479291357 228 136.7494056776221
606 14.61175207086198 228 136.7494056776255
607 130.1129708438408 228 116.9144664769284
608 49.15314076640742 228 132.1635786838327
609 175.851493256483 228 132.1694131835159
610 42.42281412137424 228 111.2204093266707
611 182.581691762182 228 111.2193522950859
$EndNodes
$Elements
1136
1 2 2 1 1 1 4 59
2 2 2 1 1 5 276 59
3 2 2 1 1 59 57 1
4 2 2 1 1 57 276 2
5 2 2 1 1 276 5 2
6 2 2 1 1 276 57 59
7 2 2 1 2 2 277 58
8 2 2 1 2 6 3 58
9 2 2 1 2 60 277 5
10 2 2 1 2 6 58 60
11 2 2 1 2 277 2 5
12 2 2 1 2 277 60 58
13 2 2 1 3 278 59 4
14 2 2 1 3 7 278 4
15 2 2 1 3 278 7 61
16 2 2 1 3 278 61 8
17 2 2 1 3 5 278 8
18 2 2 1 3 59 278 5
19 2 2 1 4 8 62 279
20 2 2 1 4 8 279 5
21 2 2 1 4 60 279 6
22 2 2 1 4 279 9 6
23 2 2 1 4 9 279 62
24 2 2 1 4 279 60 5
25 2 2 1 5 280 282 281
26 2 2 1 5 281 282 65
27 2 2 1 5 66 10 280
28 2 2 1 5 280 10 63
29 2 2 1 5 65 8 281
30 2 2 1 5 281 8 61
31 2 2 1 5 281 66 280
32 2 2 1 5 66 281 7
33 2 2 1 5 11 282 63
34 2 2 1 5 281 61 7
35 2 2 1 5 282 280 63
36 2 2 1 5 282 11 65
37 2 2 1 6 283 285 284
38 2 2 1 6 284 285 65
39 2 2 1 6 286 284 65
40 2 2 1 6 286 11 64
41 2 2 1 6 284 286 64
42 2 2 1 6 283 284 67
43 2 2 1 6 8 285 62
44 2 2 1 6 62 285 283
45 2 2 1 6 67 284 12
46 2 2 1 6 284 64 12
47 2 2 1 6 67 9 283
48 2 2 1 6 11 286 65
49 2 2 1 6 283 9 62
50 2 2 1 6 65 285 8
51 2 2 1 7 287 288 68
52 2 2 1 7 288 13 68
53 2 2 1 7 10 71 288
54 2 2 1 7 10 288 63
55 2 2 1 7 71 13 288
56 2 2 1 7 287 14 70
57 2 2 1 7 14 287 68
58 2 2 1 7 70 11 287
59 2 2 1 7 287 11 63
60 2 2 1 7 287 63 288
61 2 2 1 8 72 289 15
62 2 2 1 8 289 69 15
63 2 2 1 8 72 12 64
64 2 2 1 8 289 290 69
65 2 2 1 8 289 70 290
66 2 2 1 8 289 291 70
67 2 2 1 8 11 70 291
68 2 2 1 8 290 14 69
69 2 2 1 8 11 291 64
70 2 2 1 8 289 72 64
71 2 2 1 8 64 291 289
72 2 2 1 8 14 290 70
73 2 2 1 9 73 293 292
74 2 2 1 9 78 16 73
75 2 2 1 9 73 292 78
76 2 2 1 9 77 14 293
77 2 2 1 9 293 14 68
78 2 2 1 9 293 68 292
79 2 2 1 9 293 17 77
80 2 2 1 9 17 293 74
81 2 2 1 9 74 293 73
82 2 2 1 9 13 292 68
83 2 2 1 9 13 78 292
84 2 2 1 10 79 294 18
85 2 2 1 10 294 76 18
86 2 2 1 10 295 76 294
87 2 2 1 10 79 15 69
88 2 2 1 10 295 294 296
89 2 2 1 10 295 77 17
90 2 2 1 10 295 296 77
91 2 2 1 10 295 17 75
92 2 2 1 10 14 77 296
93 2 2 1 10 294 79 69
94 2 2 1 10 14 296 69
95 2 2 1 10 69 296 294
96 2 2 1 10 76 295 75
97 2 2 1 11 85 19 80
98 2 2 1 11 84 297 20
99 2 2 1 11 20 297 81
100 2 2 1 11 298 297 84
101 2 2 1 11 80 297 299
102 2 2 1 11 80 299 85
103 2 2 1 11 16 85 73
104 2 2 1 11 297 80 81
105 2 2 1 11 299 297 298
106 2 2 1 11 298 17 74
107 2 2 1 11 299 298 74
108 2 2 1 11 85 299 73
109 2 2 1 11 299 74 73
110 2 2 1 11 84 17 298
111 2 2 1 12 300 302 301
112 2 2 1 12 83 303 82
113 2 2 1 12 83 301 302
114 2 2 1 12 86 18 76
115 2 2 1 12 302 303 83
116 2 2 1 12 302 84 303
117 2 2 1 12 302 300 75
118 2 2 1 12 302 17 84
119 2 2 1 12 300 301 86
120 2 2 1 12 17 302 75
121 2 2 1 12 303 20 82
122 2 2 1 12 86 301 21
123 2 2 1 12 301 83 21
124 2 2 1 12 20 303 84
125 2 2 1 12 300 86 76
126 2 2 1 12 75 300 76
127 2 2 1 13 304 88 89
128 2 2 1 13 304 23 93
129 2 2 1 13 94 22 87
130 2 2 1 13 23 304 89
131 2 2 1 13 304 20 81
132 2 2 1 13 87 88 305
133 2 2 1 13 304 81 305
134 2 2 1 13 87 305 306
135 2 2 1 13 87 306 94
136 2 2 1 13 304 305 88
137 2 2 1 13 306 80 19
138 2 2 1 13 94 306 19
139 2 2 1 13 80 306 305
140 2 2 1 13 305 81 80
141 2 2 1 13 304 93 20
142 2 2 1 14 307 20 93
143 2 2 1 14 308 91 307
144 2 2 1 14 24 95 309
145 2 2 1 14 92 24 309
146 2 2 1 14 309 95 83
147 2 2 1 14 95 21 83
148 2 2 1 14 307 93 308
149 2 2 1 14 82 309 83
150 2 2 1 14 91 309 307
151 2 2 1 14 307 309 82
152 2 2 1 14 92 309 91
153 2 2 1 14 308 23 90
154 2 2 1 14 308 90 91
155 2 2 1 14 20 307 82
156 2 2 1 14 23 308 93
157 2 2 1 15 310 89 311
158 2 2 1 15 311 89 88
159 2 2 1 15 104 312 22
160 2 2 1 15 312 87 22
161 2 2 1 15 311 88 313
162 2 2 1 15 312 104 25
163 2 2 1 15 96 312 25
164 2 2 1 15 97 310 311
165 2 2 1 15 313 96 97
166 2 2 1 15 313 97 311
167 2 2 1 15 313 312 96
168 2 2 1 15 98 310 97
169 2 2 1 15 26 314 98
170 2 2 1 15 310 23 89
171 2 2 1 15 103 310 314
172 2 2 1 15 314 26 103
173 2 2 1 15 314 310 98
174 2 2 1 15 310 103 23
175 2 2 1 15 313 87 312
176 2 2 1 15 88 87 313
177 2 2 1 16 315 316 100
178 2 2 1 16 317 100 101
179 2 2 1 16 23 103 315
180 2 2 1 16 105 24 92
181 2 2 1 16 23 315 90
182 2 2 1 16 90 317 318
183 2 2 1 16 318 91 90
184 2 2 1 16 319 91 318
185 2 2 1 16 319 318 102
186 2 2 1 16 102 318 101
187 2 2 1 16 102 320 319
188 2 2 1 16 319 320 105
189 2 2 1 16 90 315 317
190 2 2 1 16 101 318 317
191 2 2 1 16 315 100 317
192 2 2 1 16 315 103 316
193 2 2 1 16 26 316 103
194 2 2 1 16 316 26 99
195 2 2 1 16 316 99 100
196 2 2 1 16 105 320 27
197 2 2 1 16 320 102 27
198 2 2 1 16 319 105 92
199 2 2 1 16 91 319 92
200 2 2 1 17 321 322 108
201 2 2 1 17 26 322 114
202 2 2 1 17 321 108 109
203 2 2 1 17 323 97 324
204 2 2 1 17 323 324 107
205 2 2 1 17 28 325 115
206 2 2 1 17 28 106 325
207 2 2 1 17 107 324 106
208 2 2 1 17 324 325 106
209 2 2 1 17 96 325 324
210 2 2 1 17 115 325 25
211 2 2 1 17 96 25 325
212 2 2 1 17 98 97 323
213 2 2 1 17 29 321 109
214 2 2 1 17 322 323 108
215 2 2 1 17 98 323 322
216 2 2 1 17 321 29 114
217 2 2 1 17 324 97 96
218 2 2 1 17 322 26 98
219 2 2 1 17 108 323 107
220 2 2 1 17 114 322 321
221 2 2 1 18 326 327 111
222 2 2 1 18 111 327 110
223 2 2 1 18 116 27 328
224 2 2 1 18 328 27 102
225 2 2 1 18 26 114 326
226 2 2 1 18 26 326 99
227 2 2 1 18 328 30 116
228 2 2 1 18 113 30 328
229 2 2 1 18 329 99 326
230 2 2 1 18 330 100 329
231 2 2 1 18 99 329 100
232 2 2 1 18 330 331 101
233 2 2 1 18 100 330 101
234 2 2 1 18 329 326 111
235 2 2 1 18 326 114 327
236 2 2 1 18 113 331 112
237 2 2 1 18 327 29 110
238 2 2 1 18 328 331 113
239 2 2 1 18 331 330 112
240 2 2 1 18 112 330 329
241 2 2 1 18 111 112 329
242 2 2 1 18 327 114 29
243 2 2 1 18 331 328 102
244 2 2 1 18 102 101 331
245 2 2 1 19 127 29 332
246 2 2 1 19 32 127 121
247 2 2 1 19 332 29 109
248 2 2 1 19 120 332 333
249 2 2 1 19 333 332 109
250 2 2 1 19 119 333 334
251 2 2 1 19 334 333 108
252 2 2 1 19 118 334 335
253 2 2 1 19 335 334 107
254 2 2 1 19 28 336 106
255 2 2 1 19 117 336 31
256 2 2 1 19 336 117 106
257 2 2 1 19 336 28 31
258 2 2 1 19 117 335 106
259 2 2 1 19 335 117 118
260 2 2 1 19 335 107 106
261 2 2 1 19 334 118 119
262 2 2 1 19 334 108 107
263 2 2 1 19 333 119 120
264 2 2 1 19 332 121 127
265 2 2 1 19 121 332 120
266 2 2 1 19 333 109 108
267 2 2 1 20 337 124 338
268 2 2 1 20 337 338 111
269 2 2 1 20 339 123 337
270 2 2 1 20 337 123 124
271 2 2 1 20 339 340 123
272 2 2 1 20 123 340 122
273 2 2 1 20 338 125 341
274 2 2 1 20 338 341 112
275 2 2 1 20 126 342 341
276 2 2 1 20 341 342 113
277 2 2 1 20 110 339 337
278 2 2 1 20 338 112 111
279 2 2 1 20 339 110 29
280 2 2 1 20 339 127 340
281 2 2 1 20 29 127 339
282 2 2 1 20 342 128 30
283 2 2 1 20 30 113 342
284 2 2 1 20 340 32 122
285 2 2 1 20 340 127 32
286 2 2 1 20 338 124 125
287 2 2 1 20 342 126 33
288 2 2 1 20 128 342 33
289 2 2 1 20 337 111 110
290 2 2 1 20 112 341 113
291 2 2 1 20 126 341 125
292 2 2 1 21 140 32 343
293 2 2 1 21 35 140 134
294 2 2 1 21 343 32 121
295 2 2 1 21 119 132 120
296 2 2 1 21 131 132 119
297 2 2 1 21 120 133 121
298 2 2 1 21 130 118 117
299 2 2 1 21 120 132 133
300 2 2 1 21 131 118 130
301 2 2 1 21 119 118 131
302 2 2 1 21 130 117 129
303 2 2 1 21 129 31 34
304 2 2 1 21 343 133 134
305 2 2 1 21 129 117 31
306 2 2 1 21 133 343 121
307 2 2 1 21 140 343 134
308 2 2 1 22 139 36 33
309 2 2 1 22 32 140 122
310 2 2 1 22 140 35 122
311 2 2 1 22 137 138 125
312 2 2 1 22 126 138 139
313 2 2 1 22 125 138 126
314 2 2 1 22 136 137 124
315 2 2 1 22 135 136 123
316 2 2 1 22 33 126 139
317 2 2 1 22 124 137 125
318 2 2 1 22 122 35 135
319 2 2 1 22 123 136 124
320 2 2 1 22 123 122 135
321 2 2 1 23 129 34 37
322 2 2 1 23 38 35 146
323 2 2 1 23 144 145 133
324 2 2 1 23 146 35 134
325 2 2 1 23 133 145 134
326 2 2 1 23 134 145 146
327 2 2 1 23 142 130 141
328 2 2 1 23 132 144 133
329 2 2 1 23 131 130 142
330 2 2 1 23 141 130 129
331 2 2 1 23 132 131 143
332 2 2 1 23 129 37 141
333 2 2 1 23 131 142 143
334 2 2 1 23 143 144 132
335 2 2 1 24 35 38 147
336 2 2 1 24 138 150 151
337 2 2 1 24 149 150 137
338 2 2 1 24 139 138 151
339 2 2 1 24 135 35 147
340 2 2 1 24 137 150 138
341 2 2 1 24 151 36 139
342 2 2 1 24 148 149 136
343 2 2 1 24 147 148 135
344 2 2 1 24 136 149 137
345 2 2 1 24 151 39 36
346 2 2 1 24 135 148 136
347 2 2 4 25 374 347 376
348 2 2 4 25 348 363 368
349 2 2 4 25 363 351 368
350 2 2 4 25 146 145 353
351 2 2 4 25 347 365 376
352 2 2 4 25 359 348 371
353 2 2 4 25 350 359 371
354 2 2 4 25 352 374 376
355 2 2 4 25 38 146 353
356 2 2 4 25 345 355 383
357 2 2 4 25 357 345 383
358 2 2 4 25 362 344 370
359 2 2 4 25 346 354 382
360 2 2 4 25 344 369 370
361 2 2 4 25 358 346 382
362 2 2 4 25 369 345 378
363 2 2 4 25 355 345 366
364 2 2 4 25 361 345 369
365 2 2 4 25 361 344 364
366 2 2 4 25 348 359 386
367 2 2 4 25 354 346 379
368 2 2 4 25 356 348 386
369 2 2 4 25 363 149 372
370 2 2 4 25 346 360 379
371 2 2 4 25 348 356 381
372 2 2 4 25 153 154 357
373 2 2 4 25 351 363 372
374 2 2 4 25 360 346 370
375 2 2 4 25 155 156 360
376 2 2 4 25 150 149 363
377 2 2 4 25 349 360 370
378 2 2 4 25 159 160 358
379 2 2 4 25 161 162 359
380 2 2 4 25 363 348 381
381 2 2 4 25 361 364 374
382 2 2 4 25 353 145 365
383 2 2 4 25 344 362 371
384 2 2 4 25 368 344 371
385 2 2 4 25 355 366 387
386 2 2 4 25 147 353 367
387 2 2 4 25 155 360 373
388 2 2 4 25 357 154 373
389 2 2 4 25 364 344 368
390 2 2 4 25 379 157 384
391 2 2 4 25 349 357 373
392 2 2 4 25 145 144 365
393 2 2 4 25 152 383 385
394 2 2 4 25 386 163 389
395 2 2 4 25 351 364 368
396 2 2 4 25 158 382 384
397 2 2 4 25 148 147 367
398 2 2 4 25 360 349 373
399 2 2 4 25 142 366 390
400 2 2 4 25 358 160 375
401 2 2 4 25 344 361 369
402 2 2 4 25 354 379 384
403 2 2 4 25 143 142 390
404 2 2 4 25 161 359 375
405 2 2 4 25 350 358 375
406 2 2 4 25 359 350 375
407 2 2 4 25 356 386 389
408 2 2 4 25 367 353 388
409 2 2 4 25 382 354 384
410 2 2 4 25 383 355 385
411 2 2 4 25 153 357 383
412 2 2 4 25 148 367 372
413 2 2 4 25 381 356 389
414 2 2 4 25 152 153 383
415 2 2 4 25 357 349 378
416 2 2 4 25 158 159 382
417 2 2 4 25 156 157 379
418 2 2 4 25 348 368 371
419 2 2 4 25 144 143 376
420 2 2 4 25 346 358 380
421 2 2 4 25 162 163 386
422 2 2 4 25 353 365 388
423 2 2 4 25 360 156 379
424 2 2 4 25 151 381 389
425 2 2 4 25 159 358 382
426 2 2 4 25 345 357 378
427 2 2 4 25 346 362 370
428 2 2 4 25 345 361 391
429 2 2 4 25 359 162 386
430 2 2 4 25 361 374 391
431 2 2 4 25 362 350 371
432 2 2 4 25 374 352 391
433 2 2 4 25 364 351 377
434 2 2 4 25 347 364 377
435 2 2 4 25 358 350 380
436 2 2 4 25 372 367 377
437 2 2 4 25 364 347 374
438 2 2 4 25 39 151 389
439 2 2 4 25 141 37 385
440 2 2 4 25 151 150 381
441 2 2 4 25 157 40 384
442 2 2 4 25 350 362 380
443 2 2 4 25 362 346 380
444 2 2 4 25 369 349 370
445 2 2 4 25 37 152 385
446 2 2 4 25 40 158 384
447 2 2 4 25 365 144 376
448 2 2 4 25 149 148 372
449 2 2 4 25 366 345 391
450 2 2 4 25 154 155 373
451 2 2 4 25 376 143 390
452 2 2 4 25 365 347 388
453 2 2 4 25 141 385 387
454 2 2 4 25 347 367 388
455 2 2 4 25 352 366 391
456 2 2 4 25 142 141 387
457 2 2 4 25 367 347 377
458 2 2 4 25 160 161 375
459 2 2 4 25 163 39 389
460 2 2 4 25 150 363 381
461 2 2 4 25 385 355 387
462 2 2 4 25 366 352 390
463 2 2 4 25 366 142 387
464 2 2 4 25 349 369 378
465 2 2 4 25 351 372 377
466 2 2 4 25 352 376 390
467 2 2 4 25 147 38 353
468 2 2 2 26 57 164 1
469 2 2 2 26 58 3 165
470 2 2 2 26 164 57 392
471 2 2 2 26 57 2 392
472 2 2 2 26 58 165 392
473 2 2 2 26 41 164 392
474 2 2 2 26 165 41 392
475 2 2 2 26 2 58 392
476 2 2 3 27 38 146 51
477 2 2 3 27 244 141 37
478 2 2 3 27 203 38 51
479 2 2 3 27 147 38 203
480 2 2 3 27 196 39 151
481 2 2 3 27 51 146 251
482 2 2 3 27 245 142 141
483 2 2 3 27 245 141 244
484 2 2 3 27 247 143 142
485 2 2 3 27 246 142 245
486 2 2 3 27 246 247 142
487 2 2 3 27 248 144 143
488 2 2 3 27 248 143 247
489 2 2 3 27 249 145 144
490 2 2 3 27 249 144 248
491 2 2 3 27 251 146 145
492 2 2 3 27 145 249 250
493 2 2 3 27 145 250 251
494 2 2 3 27 201 148 147
495 2 2 3 27 202 201 147
496 2 2 3 27 202 147 203
497 2 2 3 27 200 149 148
498 2 2 3 27 148 201 200
499 2 2 3 27 198 150 149
500 2 2 3 27 199 198 149
501 2 2 3 27 149 200 199
502 2 2 3 27 197 151 150
503 2 2 3 27 150 198 197
504 2 2 3 27 151 197 196
505 2 2 3 27 37 43 244
506 2 2 3 27 47 39 196
507 2 2 3 28 245 253 254
508 2 2 3 28 245 254 246
509 2 2 3 28 254 255 247
510 2 2 3 28 254 247 246
511 2 2 3 28 252 393 44
512 2 2 3 28 393 166 44
513 2 2 3 28 394 259 52
514 2 2 3 28 204 394 52
515 2 2 3 28 250 249 257
516 2 2 3 28 257 258 250
517 2 2 3 28 248 247 256
518 2 2 3 28 248 257 249
519 2 2 3 28 251 394 51
520 2 2 3 28 394 251 259
521 2 2 3 28 394 204 51
522 2 2 3 28 393 244 43
523 2 2 3 28 244 393 252
524 2 2 3 28 166 393 43
525 2 2 3 28 250 258 259
526 2 2 3 28 250 259 251
527 2 2 3 28 252 253 245
528 2 2 3 28 252 245 244
529 2 2 3 28 256 247 255
530 2 2 3 28 248 256 257
531 2 2 3 29 265 405 424
532 2 2 3 29 407 169 422
533 2 2 3 29 169 407 421
534 2 2 3 29 405 265 431
535 2 2 3 29 259 258 426
536 2 2 3 29 406 207 425
537 2 2 3 29 416 259 426
538 2 2 3 29 401 405 430
539 2 2 3 29 207 406 429
540 2 2 3 29 257 409 426
541 2 2 3 29 413 403 418
542 2 2 3 29 405 401 424
543 2 2 3 29 399 413 418
544 2 2 3 29 400 409 414
545 2 2 3 29 397 407 415
546 2 2 3 29 395 418 428
547 2 2 3 29 408 395 423
548 2 2 3 29 401 408 423
549 2 2 3 29 258 257 426
550 2 2 3 29 409 399 414
551 2 2 3 29 168 169 421
552 2 2 3 29 169 170 422
553 2 2 3 29 267 53 427
554 2 2 3 29 53 209 427
555 2 2 3 29 395 408 418
556 2 2 3 29 407 397 421
557 2 2 3 29 408 399 418
558 2 2 3 29 418 403 428
559 2 2 3 29 399 408 436
560 2 2 3 29 263 264 420
561 2 2 3 29 420 401 423
562 2 2 3 29 404 420 423
563 2 2 3 29 420 264 424
564 2 2 3 29 399 409 432
565 2 2 3 29 398 411 440
566 2 2 3 29 417 398 440
567 2 2 3 29 431 402 442
568 2 2 3 29 264 265 424
569 2 2 3 29 409 257 432
570 2 2 3 29 207 206 425
571 2 2 3 29 408 401 430
572 2 2 3 29 261 262 417
573 2 2 3 29 254 253 412
574 2 2 3 29 403 412 428
575 2 2 3 29 256 255 413
576 2 2 3 29 409 400 426
577 2 2 3 29 265 266 431
578 2 2 3 29 412 397 428
579 2 2 3 29 415 395 428
580 2 2 3 29 208 207 429
581 2 2 3 29 410 397 438
582 2 2 3 29 416 400 445
583 2 2 3 29 397 412 438
584 2 2 3 29 417 262 437
585 2 2 3 29 400 425 445
586 2 2 3 29 413 399 432
587 2 2 3 29 425 400 433
588 2 2 3 29 405 431 442
589 2 2 3 29 414 399 436
590 2 2 3 29 406 425 433
591 2 2 3 29 397 410 421
592 2 2 3 29 411 398 422
593 2 2 3 29 400 414 433
594 2 2 3 29 395 415 419
595 2 2 3 29 430 405 442
596 2 2 3 29 252 410 438
597 2 2 3 29 404 417 437
598 2 2 3 29 433 396 434
599 2 2 3 29 254 412 435
600 2 2 3 29 412 403 435
601 2 2 3 29 403 413 435
602 2 2 3 29 413 255 435
603 2 2 3 29 410 252 443
604 2 2 3 29 414 396 433
605 2 2 3 29 406 433 434
606 2 2 3 29 395 419 423
607 2 2 3 29 400 416 426
608 2 2 3 29 419 404 423
609 2 2 3 29 256 413 432
610 2 2 3 29 401 420 424
611 2 2 3 29 397 415 428
612 2 2 3 29 257 256 432
613 2 2 3 29 253 252 438
614 2 2 3 29 412 253 438
615 2 2 3 29 260 440 444
616 2 2 3 29 402 434 442
617 2 2 3 29 422 398 439
618 2 2 3 29 396 414 436
619 2 2 3 29 415 407 439
620 2 2 3 29 407 422 439
621 2 2 3 29 402 429 434
622 2 2 3 29 429 406 434
623 2 2 3 29 440 411 444
624 2 2 3 29 419 415 439
625 2 2 3 29 259 416 450
626 2 2 3 29 398 419 439
627 2 2 3 29 260 261 440
628 2 2 3 29 427 402 448
629 2 2 3 29 396 430 442
630 2 2 3 29 402 431 448
631 2 2 3 29 416 445 450
632 2 2 3 29 417 404 449
633 2 2 3 29 261 417 440
634 2 2 3 29 445 205 450
635 2 2 3 29 255 254 435
636 2 2 3 29 398 417 449
637 2 2 3 29 402 427 441
638 2 2 3 29 429 402 441
639 2 2 3 29 262 263 437
640 2 2 3 29 44 167 443
641 2 2 3 29 171 45 444
642 2 2 3 29 421 410 446
643 2 2 3 29 411 422 447
644 2 2 3 29 263 420 437
645 2 2 3 29 252 44 443
646 2 2 3 29 45 260 444
647 2 2 3 29 205 52 450
648 2 2 3 29 206 205 445
649 2 2 3 29 420 404 437
650 2 2 3 29 209 208 441
651 2 2 3 29 167 168 446
652 2 2 3 29 170 171 447
653 2 2 3 29 52 259 450
654 2 2 3 29 266 267 448
655 2 2 3 29 419 398 449
656 2 2 3 29 404 419 449
657 2 2 3 29 408 430 436
658 2 2 3 29 430 396 436
659 2 2 3 29 168 421 446
660 2 2 3 29 422 170 447
661 2 2 3 29 425 206 445
662 2 2 3 29 443 167 446
663 2 2 3 29 171 444 447
664 2 2 3 29 410 443 446
665 2 2 3 29 444 411 447
666 2 2 3 29 267 427 448
667 2 2 3 29 427 209 441
668 2 2 3 29 208 429 441
669 2 2 3 29 431 266 448
670 2 2 3 29 434 396 442
671 2 2 3 30 451 275 54
672 2 2 3 30 210 451 54
673 2 2 3 30 268 452 46
674 2 2 3 30 452 172 46
675 2 2 3 30 272 264 263
676 2 2 3 30 273 274 265
677 2 2 3 30 272 263 271
678 2 2 3 30 272 265 264
679 2 2 3 30 267 451 53
680 2 2 3 30 451 267 275
681 2 2 3 30 451 210 53
682 2 2 3 30 452 260 45
683 2 2 3 30 260 452 268
684 2 2 3 30 172 452 45
685 2 2 3 30 274 275 267
686 2 2 3 30 274 267 266
687 2 2 3 30 270 262 269
688 2 2 3 30 269 262 261
689 2 2 3 30 274 266 265
690 2 2 3 30 269 261 260
691 2 2 3 30 268 269 260
692 2 2 3 30 271 263 270
693 2 2 3 30 270 263 262
694 2 2 3 30 272 273 265
695 2 2 3 31 474 453 531
696 2 2 3 31 175 473 488
697 2 2 3 31 472 213 489
698 2 2 3 31 453 474 505
699 2 2 3 31 213 472 524
700 2 2 3 31 473 175 525
701 2 2 3 31 476 457 519
702 2 2 3 31 457 476 510
703 2 2 3 31 471 494 503
704 2 2 3 31 494 455 503
705 2 2 3 31 475 496 511
706 2 2 3 31 479 474 531
707 2 2 3 31 496 456 511
708 2 2 3 31 504 454 512
709 2 2 3 31 188 50 500
710 2 2 3 31 42 195 501
711 2 2 3 31 50 218 500
712 2 2 3 31 180 42 501
713 2 2 3 31 470 504 512
714 2 2 3 31 492 193 514
715 2 2 3 31 190 493 513
716 2 2 3 31 457 480 519
717 2 2 3 31 490 273 522
718 2 2 3 31 270 491 523
719 2 2 3 31 178 487 521
720 2 2 3 31 486 216 520
721 2 2 3 31 174 175 488
722 2 2 3 31 213 212 489
723 2 2 3 31 479 459 499
724 2 2 3 31 458 497 542
725 2 2 3 31 54 275 506
726 2 2 3 31 268 46 507
727 2 2 3 31 497 478 542
728 2 2 3 31 211 54 506
729 2 2 3 31 46 173 507
730 2 2 3 31 454 481 512
731 2 2 3 31 178 179 487
732 2 2 3 31 217 216 486
733 2 2 3 31 194 193 492
734 2 2 3 31 190 189 493
735 2 2 3 31 471 492 514
736 2 2 3 31 493 470 513
737 2 2 3 31 274 273 490
738 2 2 3 31 270 269 491
739 2 2 3 31 467 495 508
740 2 2 3 31 466 481 502
741 2 2 3 31 495 454 508
742 2 2 3 31 480 477 505
743 2 2 3 31 487 468 521
744 2 2 3 31 467 486 520
745 2 2 3 31 459 479 547
746 2 2 3 31 475 490 522
747 2 2 3 31 491 476 523
748 2 2 3 31 480 457 549
749 2 2 3 31 502 481 541
750 2 2 3 31 477 480 549
751 2 2 3 31 176 177 482
752 2 2 3 31 215 214 483
753 2 2 3 31 494 471 536
754 2 2 3 31 272 271 484
755 2 2 3 31 497 468 509
756 2 2 3 31 455 497 509
757 2 2 3 31 465 488 516
758 2 2 3 31 489 464 515
759 2 2 3 31 192 191 485
760 2 2 3 31 474 479 526
761 2 2 3 31 510 465 516
762 2 2 3 31 464 511 515
763 2 2 3 31 481 454 541
764 2 2 3 31 469 502 541
765 2 2 3 31 481 466 535
766 2 2 3 31 456 496 526
767 2 2 3 31 482 177 521
768 2 2 3 31 215 483 520
769 2 2 3 31 499 459 546
770 2 2 3 31 498 458 542
771 2 2 3 31 272 484 522
772 2 2 3 31 484 271 523
773 2 2 3 31 458 498 545
774 2 2 3 31 496 474 526
775 2 2 3 31 462 486 508
776 2 2 3 31 487 463 509
777 2 2 3 31 497 458 540
778 2 2 3 31 485 191 513
779 2 2 3 31 192 485 514
780 2 2 3 31 461 494 536
781 2 2 3 31 175 176 525
782 2 2 3 31 214 213 524
783 2 2 3 31 490 475 511
784 2 2 3 31 476 491 510
785 2 2 3 31 498 457 516
786 2 2 3 31 473 498 516
787 2 2 3 31 459 495 539
788 2 2 3 31 482 521 540
789 2 2 3 31 520 483 539
790 2 2 3 31 505 477 548
791 2 2 3 31 456 499 515
792 2 2 3 31 499 472 515
793 2 2 3 31 470 493 504
794 2 2 3 31 492 471 503
795 2 2 3 31 493 462 504
796 2 2 3 31 463 492 503
797 2 2 3 31 495 459 547
798 2 2 3 31 461 512 535
799 2 2 3 31 468 487 509
800 2 2 3 31 486 467 508
801 2 2 3 31 512 481 535
802 2 2 3 31 517 466 518
803 2 2 3 31 478 517 518
804 2 2 3 31 504 462 508
805 2 2 3 31 463 503 509
806 2 2 3 31 455 494 517
807 2 2 3 31 494 466 517
808 2 2 3 31 522 484 544
809 2 2 3 31 218 217 529
810 2 2 3 31 179 180 530
811 2 2 3 31 460 519 534
812 2 2 3 31 496 460 534
813 2 2 3 31 519 480 534
814 2 2 3 31 477 498 542
815 2 2 3 31 176 482 525
816 2 2 3 31 483 214 524
817 2 2 3 31 474 496 534
818 2 2 3 31 458 482 540
819 2 2 3 31 483 459 539
820 2 2 3 31 482 458 545
821 2 2 3 31 459 483 546
822 2 2 3 31 495 467 539
823 2 2 3 31 173 174 527
824 2 2 3 31 212 211 528
825 2 2 3 31 491 465 510
826 2 2 3 31 464 490 511
827 2 2 3 31 484 523 550
828 2 2 3 31 269 268 532
829 2 2 3 31 275 274 533
830 2 2 3 31 514 485 536
831 2 2 3 31 498 473 545
832 2 2 3 31 486 462 529
833 2 2 3 31 463 487 530
834 2 2 3 31 472 499 546
835 2 2 3 31 497 455 517
836 2 2 3 31 478 497 517
837 2 2 3 31 195 194 537
838 2 2 3 31 189 188 538
839 2 2 3 31 488 473 516
840 2 2 3 31 472 489 515
841 2 2 3 31 468 497 540
842 2 2 3 31 542 478 548
843 2 2 3 31 488 465 527
844 2 2 3 31 464 489 528
845 2 2 3 31 485 513 543
846 2 2 3 31 191 190 513
847 2 2 3 31 193 192 514
848 2 2 3 31 462 493 538
849 2 2 3 31 492 463 537
850 2 2 3 31 469 495 547
851 2 2 3 31 454 495 541
852 2 2 3 31 496 475 544
853 2 2 3 31 460 484 550
854 2 2 3 31 495 469 541
855 2 2 3 31 460 496 544
856 2 2 3 31 484 460 544
857 2 2 3 31 216 215 520
858 2 2 3 31 177 178 521
859 2 2 3 31 273 272 522
860 2 2 3 31 271 270 523
861 2 2 3 31 174 488 527
862 2 2 3 31 489 212 528
863 2 2 3 31 487 179 530
864 2 2 3 31 217 486 529
865 2 2 3 31 461 485 543
866 2 2 3 31 500 218 529
867 2 2 3 31 180 501 530
868 2 2 3 31 485 461 536
869 2 2 3 31 454 504 508
870 2 2 3 31 503 455 509
871 2 2 3 31 457 510 516
872 2 2 3 31 511 456 515
873 2 2 3 31 490 464 533
874 2 2 3 31 465 491 532
875 2 2 3 31 491 269 532
876 2 2 3 31 274 490 533
877 2 2 3 31 500 462 538
878 2 2 3 31 463 501 537
879 2 2 3 31 453 505 548
880 2 2 3 31 502 469 531
881 2 2 3 31 521 468 540
882 2 2 3 31 467 520 539
883 2 2 3 31 453 502 531
884 2 2 3 31 194 492 537
885 2 2 3 31 493 189 538
886 2 2 3 31 188 500 538
887 2 2 3 31 501 195 537
888 2 2 3 31 494 461 535
889 2 2 3 31 480 505 534
890 2 2 3 31 466 494 535
891 2 2 3 31 505 474 534
892 2 2 3 31 477 542 548
893 2 2 3 31 211 506 528
894 2 2 3 31 507 173 527
895 2 2 3 31 268 507 532
896 2 2 3 31 506 275 533
897 2 2 3 31 462 500 529
898 2 2 3 31 501 463 530
899 2 2 3 31 466 502 518
900 2 2 3 31 502 453 518
901 2 2 3 31 457 498 549
902 2 2 3 31 479 499 526
903 2 2 3 31 498 477 549
904 2 2 3 31 499 456 526
905 2 2 3 31 479 531 547
906 2 2 3 31 531 469 547
907 2 2 3 31 478 518 548
908 2 2 3 31 475 522 544
909 2 2 3 31 506 464 528
910 2 2 3 31 465 507 527
911 2 2 3 31 464 506 533
912 2 2 3 31 507 465 532
913 2 2 3 31 471 514 536
914 2 2 3 31 523 476 550
915 2 2 3 31 513 470 543
916 2 2 3 31 512 461 543
917 2 2 3 31 519 460 550
918 2 2 3 31 470 512 543
919 2 2 3 31 483 524 546
920 2 2 3 31 525 482 545
921 2 2 3 31 524 472 546
922 2 2 3 31 473 525 545
923 2 2 3 31 518 453 548
924 2 2 3 31 476 519 550
925 2 2 3 32 551 240 55
926 2 2 3 32 226 551 55
927 2 2 3 32 552 219 48
928 2 2 3 32 181 552 48
929 2 2 3 32 200 222 199
930 2 2 3 32 200 224 223
931 2 2 3 32 200 223 222
932 2 2 3 32 198 199 222
933 2 2 3 32 203 551 226
934 2 2 3 32 240 551 51
935 2 2 3 32 551 203 51
936 2 2 3 32 196 552 47
937 2 2 3 32 552 196 219
938 2 2 3 32 552 181 47
939 2 2 3 32 203 226 202
940 2 2 3 32 225 224 202
941 2 2 3 32 202 224 201
942 2 2 3 32 202 226 225
943 2 2 3 32 221 220 197
944 2 2 3 32 221 197 198
945 2 2 3 32 196 197 219
946 2 2 3 32 220 219 197
947 2 2 3 32 222 221 198
948 2 2 3 32 201 224 200
949 2 2 3 33 240 51 204
950 2 2 3 33 204 52 241
951 2 2 3 33 240 204 241
952 2 2 3 33 241 55 240
953 2 2 3 34 553 242 56
954 2 2 3 34 231 553 56
955 2 2 3 34 241 554 55
956 2 2 3 34 554 227 55
957 2 2 3 34 228 205 206
958 2 2 3 34 228 206 207
959 2 2 3 34 230 207 208
960 2 2 3 34 229 207 230
961 2 2 3 34 209 553 231
962 2 2 3 34 242 553 53
963 2 2 3 34 553 209 53
964 2 2 3 34 554 205 227
965 2 2 3 34 554 241 52
966 2 2 3 34 205 554 52
967 2 2 3 34 228 207 229
968 2 2 3 34 209 231 230
969 2 2 3 34 209 230 208
970 2 2 3 34 227 205 228
971 2 2 3 35 242 53 210
972 2 2 3 35 210 54 243
973 2 2 3 35 242 210 243
974 2 2 3 35 243 56 242
975 2 2 3 36 555 218 50
976 2 2 3 36 187 555 50
977 2 2 3 36 243 556 56
978 2 2 3 36 556 232 56
979 2 2 3 36 236 235 215
980 2 2 3 36 235 214 215
981 2 2 3 36 215 216 236
982 2 2 3 36 237 236 216
983 2 2 3 36 239 555 49
984 2 2 3 36 555 239 218
985 2 2 3 36 555 187 49
986 2 2 3 36 556 211 232
987 2 2 3 36 556 243 54
988 2 2 3 36 211 556 54
989 2 2 3 36 239 238 218
990 2 2 3 36 232 211 212
991 2 2 3 36 217 218 238
992 2 2 3 36 233 232 212
993 2 2 3 36 233 212 213
994 2 2 3 36 238 237 217
995 2 2 3 36 216 217 237
996 2 2 3 36 214 235 234
997 2 2 3 36 214 234 213
998 2 2 3 36 233 213 234
999 2 2 3 37 231 589 592
1000 2 2 3 37 588 186 591
1001 2 2 3 37 230 231 592
1002 2 2 3 37 186 185 591
1003 2 2 3 37 229 569 582
1004 2 2 3 37 570 184 583
1005 2 2 3 37 184 570 591
1006 2 2 3 37 569 229 592
1007 2 2 3 37 591 570 597
1008 2 2 3 37 569 592 596
1009 2 2 3 37 565 591 597
1010 2 2 3 37 592 566 596
1011 2 2 3 37 571 562 593
1012 2 2 3 37 576 561 585
1013 2 2 3 37 560 575 584
1014 2 2 3 37 564 576 585
1015 2 2 3 37 575 564 584
1016 2 2 3 37 220 221 571
1017 2 2 3 37 224 225 572
1018 2 2 3 37 562 571 587
1019 2 2 3 37 234 575 578
1020 2 2 3 37 576 237 577
1021 2 2 3 37 563 572 594
1022 2 2 3 37 557 584 585
1023 2 2 3 37 584 564 585
1024 2 2 3 37 594 572 609
1025 2 2 3 37 571 593 608
1026 2 2 3 37 572 563 590
1027 2 2 3 37 558 573 580
1028 2 2 3 37 573 561 580
1029 2 2 3 37 574 559 581
1030 2 2 3 37 560 574 581
1031 2 2 3 37 572 225 604
1032 2 2 3 37 220 571 603
1033 2 2 3 37 575 560 578
1034 2 2 3 37 561 576 577
1035 2 2 3 37 559 594 609
1036 2 2 3 37 593 558 608
1037 2 2 3 37 228 229 582
1038 2 2 3 37 184 183 583
1039 2 2 3 37 233 234 578
1040 2 2 3 37 237 238 577
1041 2 2 3 37 561 573 585
1042 2 2 3 37 574 560 584
1043 2 2 3 37 573 557 585
1044 2 2 3 37 557 574 584
1045 2 2 3 37 185 184 591
1046 2 2 3 37 229 230 592
1047 2 2 3 37 571 221 587
1048 2 2 3 37 589 566 592
1049 2 2 3 37 565 588 591
1050 2 2 3 37 224 572 590
1051 2 2 3 37 234 235 575
1052 2 2 3 37 236 237 576
1053 2 2 3 37 239 49 588
1054 2 2 3 37 49 186 588
1055 2 2 3 37 56 232 589
1056 2 2 3 37 231 56 589
1057 2 2 3 37 570 580 597
1058 2 2 3 37 581 569 596
1059 2 2 3 37 579 563 586
1060 2 2 3 37 562 579 586
1061 2 2 3 37 583 567 608
1062 2 2 3 37 568 582 609
1063 2 2 3 37 583 608 610
1064 2 2 3 37 609 582 611
1065 2 2 3 37 559 574 594
1066 2 2 3 37 574 557 607
1067 2 2 3 37 573 558 593
1068 2 2 3 37 557 573 602
1069 2 2 3 37 222 223 579
1070 2 2 3 37 226 599 604
1071 2 2 3 37 598 219 603
1072 2 2 3 37 575 235 595
1073 2 2 3 37 564 575 595
1074 2 2 3 37 576 564 595
1075 2 2 3 37 236 576 595
1076 2 2 3 37 225 226 604
1077 2 2 3 37 219 220 603
1078 2 2 3 37 222 579 587
1079 2 2 3 37 579 562 587
1080 2 2 3 37 48 219 598
1081 2 2 3 37 226 55 599
1082 2 2 3 37 55 227 599
1083 2 2 3 37 182 48 598
1084 2 2 3 37 563 579 590
1085 2 2 3 37 579 223 590
1086 2 2 3 37 578 560 596
1087 2 2 3 37 561 577 597
1088 2 2 3 37 566 578 596
1089 2 2 3 37 577 565 597
1090 2 2 3 37 580 570 610
1091 2 2 3 37 558 580 610
1092 2 2 3 37 569 581 611
1093 2 2 3 37 581 559 611
1094 2 2 3 37 599 568 604
1095 2 2 3 37 567 598 603
1096 2 2 3 37 238 239 600
1097 2 2 3 37 232 233 601
1098 2 2 3 37 565 577 600
1099 2 2 3 37 578 566 601
1100 2 2 3 37 221 222 587
1101 2 2 3 37 577 238 600
1102 2 2 3 37 233 578 601
1103 2 2 3 37 223 224 590
1104 2 2 3 37 235 236 595
1105 2 2 3 37 580 561 597
1106 2 2 3 37 560 581 596
1107 2 2 3 37 228 582 605
1108 2 2 3 37 583 183 606
1109 2 2 3 37 582 568 605
1110 2 2 3 37 567 583 606
1111 2 2 3 37 239 588 600
1112 2 2 3 37 589 232 601
1113 2 2 3 37 227 228 605
1114 2 2 3 37 183 182 606
1115 2 2 3 37 557 586 607
1116 2 2 3 37 586 557 602
1117 2 2 3 37 582 569 611
1118 2 2 3 37 570 583 610
1119 2 2 3 37 586 563 607
1120 2 2 3 37 559 609 611
1121 2 2 3 37 608 558 610
1122 2 2 3 37 562 586 602
1123 2 2 3 37 566 589 601
1124 2 2 3 37 588 565 600
1125 2 2 3 37 563 594 607
1126 2 2 3 37 593 562 602
1127 2 2 3 37 603 571 608
1128 2 2 3 37 567 603 608
1129 2 2 3 37 572 604 609
1130 2 2 3 37 604 568 609
1131 2 2 3 37 573 593 602
1132 2 2 3 37 182 598 606
1133 2 2 3 37 599 227 605
1134 2 2 3 37 598 567 606
1135 2 2 3 37 568 599 605
1136 2 2 3 37 594 574 607
$EndElements
