$MeshFormat
2.2 0 8
$EndMeshFormat
$Nodes
554
1 12.7 0 0
2 9.327 8.619 0
3 9.196999999999999 8.757999999999999 0
4 9.058999999999999 8.9 0
5 8.926 9.034000000000001 0
6 8.81 9.148 0
7 0 12.7 0
8 -8.81 9.148 0
9 -8.926 9.034000000000001 0
10 -9.058999999999999 8.9 0
11 -9.196999999999999 8.757999999999999 0
12 -9.327 8.619 0
13 -12.7 0 0
14 -9.327 -8.619 0
15 -9.196999999999999 -8.757999999999999 0
16 -9.058999999999999 -8.9 0
17 -8.926 -9.034000000000001 0
18 -8.81 -9.148 0
19 0 -12.7 0
20 8.81 -9.148 0
21 8.926 -9.034000000000001 0
22 9.058999999999999 -8.9 0
23 9.196999999999999 -8.757999999999999 0
24 9.327 -8.619 0
25 12.947 0 4.65
26 9.599 8.871 4.65
27 9.473000000000001 9.021000000000001 4.65
28 9.339 9.175000000000001 4.65
29 9.207000000000001 9.318 4.65
30 9.090999999999999 9.44 4.65
31 0 12.852 4.65
32 -9.090999999999999 9.44 4.65
33 -9.207000000000001 9.318 4.65
34 -9.339 9.175000000000001 4.65
35 -9.473000000000001 9.021000000000001 4.65
36 -9.599 8.871 4.65
37 -12.947 0 4.65
38 -9.599 -8.871 4.65
39 -9.473000000000001 -9.021000000000001 4.65
40 -9.339 -9.175000000000001 4.65
41 -9.207000000000001 -9.318 4.65
42 -9.090999999999999 -9.44 4.65
43 0 -12.852 4.65
44 9.090999999999999 -9.44 4.65
45 9.207000000000001 -9.318 4.65
46 9.339 -9.175000000000001 4.65
47 9.473000000000001 -9.021000000000001 4.65
48 9.599 -8.871 4.65
49 14.539 0 12.987
50 11.292 10.436 12.987
51 11.19 10.656 12.987
52 11.072 10.877 12.987
53 10.946 11.078 12.987
54 10.827 11.243 12.987
55 0 13.865 12.987
56 -10.827 11.243 12.987
57 -10.946 11.078 12.987
58 -11.072 10.877 12.987
59 -11.19 10.656 12.987
60 -11.292 10.436 12.987
61 -14.539 0 12.987
62 -11.292 -10.436 12.987
63 -11.19 -10.656 12.987
64 -11.072 -10.877 12.987
65 -10.946 -11.078 12.987
66 -10.827 -11.243 12.987
67 0 -13.865 12.987
68 10.827 -11.243 12.987
69 10.946 -11.078 12.987
70 11.072 -10.877 12.987
71 11.19 -10.656 12.987
72 11.292 -10.436 12.987
73 19.052 0 25.751
74 15.793 14.595 25.751
75 15.729 14.979 25.751
76 15.632 15.358 25.751
77 15.507 15.694 25.751
78 15.372 15.962 25.751
79 0 16.936 25.751
80 -15.372 15.962 25.751
81 -15.507 15.694 25.751
82 -15.632 15.358 25.751
83 -15.729 14.979 25.751
84 -15.793 14.595 25.751
85 -19.052 0 25.751
86 -15.793 -14.595 25.751
87 -15.729 -14.979 25.751
88 -15.632 -15.358 25.751
89 -15.507 -15.694 25.751
90 -15.372 -15.962 25.751
91 0 -16.936 25.751
92 15.372 -15.962 25.751
93 15.507 -15.694 25.751
94 15.632 -15.358 25.751
95 15.729 -14.979 25.751
96 15.793 -14.595 25.751
97 27.987 0 44.193
98 24.166 22.332 44.193
99 24.135 22.984 44.193
100 24.043 23.622 44.193
101 23.895 24.183 44.193
102 23.714 24.625 44.193
103 0 23.513 44.193
104 -23.714 24.625 44.193
105 -23.895 24.183 44.193
106 -24.043 23.622 44.193
107 -24.135 22.984 44.193
108 -24.166 22.332 44.193
109 -27.987 0 44.193
110 -24.166 -22.332 44.193
111 -24.135 -22.984 44.193
112 -24.043 -23.622 44.193
113 -23.895 -24.183 44.193
114 -23.714 -24.625 44.193
115 0 -23.513 44.193
116 23.714 -24.625 44.193
117 23.895 -24.183 44.193
118 24.043 -23.622 44.193
119 24.135 -22.984 44.193
120 24.166 -22.332 44.193
121 41.856 0 67.982
122 36.64 33.86 67.982
123 36.622 34.876 67.982
124 36.508 35.868 67.982
125 36.301 36.739 67.982
126 36.037 37.421 67.982
127 0 34.377 67.982
128 -36.037 37.421 67.982
129 -36.301 36.739 67.982
130 -36.508 35.868 67.982
131 -36.622 34.876 67.982
132 -36.64 33.86 67.982
133 -41.856 0 67.982
134 -36.64 -33.86 67.982
135 -36.622 -34.876 67.982
136 -36.508 -35.868 67.982
137 -36.301 -36.739 67.982
138 -36.037 -37.421 67.982
139 0 -34.377 67.982
140 36.037 -37.421 67.982
141 36.301 -36.739 67.982
142 36.508 -35.868 67.982
143 36.622 -34.876 67.982
144 36.64 -33.86 67.982
145 61.202 0 95.667
146 53.885 49.797 95.667
147 53.837 51.269 95.667
148 53.64 52.699 95.667
149 53.303 53.946 95.667
150 52.881 54.911 95.667
151 0 50.461 95.667
152 -52.881 54.911 95.667
153 -53.303 53.946 95.667
154 -53.64 52.699 95.667
155 -53.837 51.269 95.667
156 -53.885 49.797 95.667
157 -61.202 0 95.667
158 -53.885 -49.797 95.667
159 -53.837 -51.269 95.667
160 -53.64 -52.699 95.667
161 -53.303 -53.946 95.667
162 -52.881 -54.911 95.667
163 0 -50.461 95.667
164 52.881 -54.911 95.667
165 53.303 -53.946 95.667
166 53.64 -52.699 95.667
167 53.837 -51.269 95.667
168 53.885 -49.797 95.667
169 86.596 0 123.266
170 77.834 71.929 123.266
171 77.63500000000001 73.93300000000001 123.266
172 77.185 75.831 123.266
173 76.515 77.438 123.266
174 75.718 78.624 123.266
175 0 73.43899999999999 123.266
176 -75.718 78.624 123.266
177 -76.515 77.438 123.266
178 -77.185 75.831 123.266
179 -77.63500000000001 73.93300000000001 123.266
180 -77.834 71.929 123.266
181 -86.596 0 123.266
182 -77.834 -71.929 123.266
183 -77.63500000000001 -73.93300000000001 123.266
184 -77.185 -75.831 123.266
185 -76.515 -77.438 123.266
186 -75.718 -78.624 123.266
187 0 -73.43899999999999 123.266
188 75.718 -78.624 123.266
189 76.515 -77.438 123.266
190 77.185 -75.831 123.266
191 77.63500000000001 -73.93300000000001 123.266
192 77.834 -71.929 123.266
193 116.929 0 146.144
194 109.087 100.811 146.144
195 108.557 103.381 146.144
196 107.591 105.704 146.144
197 106.272 107.554 146.144
198 104.754 108.774 146.144
199 0 103.35 146.144
200 -104.754 108.774 146.144
201 -106.272 107.554 146.144
202 -107.591 105.704 146.144
203 -108.557 103.381 146.144
204 -109.087 100.811 146.144
205 -116.929 0 146.144
206 -109.087 -100.811 146.144
207 -108.557 -103.381 146.144
208 -107.591 -105.704 146.144
209 -106.272 -107.554 146.144
210 -104.754 -108.774 146.144
211 0 -103.35 146.144
212 104.754 -108.774 146.144
213 106.272 -107.554 146.144
214 107.591 -105.704 146.144
215 108.557 -103.381 146.144
216 109.087 -100.811 146.144
217 149.972 0 163.297
218 145.151 134.139 163.297
219 144.147 137.273 163.297
220 142.456 139.957 163.297
221 140.238 141.929 163.297
222 137.726 143.012 163.297
223 0 137.807 163.297
224 -137.726 143.012 163.297
225 -140.238 141.929 163.297
226 -142.456 139.957 163.297
227 -144.147 137.273 163.297
228 -145.151 134.139 163.297
229 -149.972 0 163.297
230 -145.151 -134.139 163.297
231 -144.147 -137.273 163.297
232 -142.456 -139.957 163.297
233 -140.238 -141.929 163.297
234 -137.726 -143.012 163.297
235 0 -137.807 163.297
236 137.726 -143.012 163.297
237 140.238 -141.929 163.297
238 142.456 -139.957 163.297
239 144.147 -137.273 163.297
240 145.151 -134.139 163.297
241 180.659 0 174.603
242 178.96 165.383 174.603
243 177.467 169.004 174.603
244 175.046 171.976 174.603
245 171.931 174.004 174.603
246 168.437 174.902 174.603
247 0 170.616 174.603
248 -168.437 174.902 174.603
249 -171.931 174.004 174.603
250 -175.046 171.976 174.603
251 -177.467 169.004 174.603
252 -178.96 165.383 174.603
253 -180.659 0 174.603
254 -178.96 -165.383 174.603
255 -177.467 -169.004 174.603
256 -175.046 -171.976 174.603
257 -171.931 -174.004 174.603
258 -168.437 -174.902 174.603
259 0 -170.616 174.603
260 168.437 -174.902 174.603
261 171.931 -174.004 174.603
262 175.046 -171.976 174.603
263 177.467 -169.004 174.603
264 178.96 -165.383 174.603
265 206.669 0 181.38
266 206.507 190.84 181.38
267 204.603 194.846 181.38
268 201.587 198.05 181.38
269 197.753 200.137 181.38
270 193.481 200.906 181.38
271 0 198.473 181.38
272 -193.481 200.906 181.38
273 -197.753 200.137 181.38
274 -201.587 198.05 181.38
275 -204.603 194.846 181.38
276 -206.507 190.84 181.38
277 -206.669 0 181.38
278 -206.507 -190.84 181.38
279 -204.603 -194.846 181.38
280 -201.587 -198.05 181.38
281 -197.753 -200.137 181.38
282 -193.481 -200.906 181.38
283 0 -198.473 181.38
284 193.481 -200.906 181.38
285 197.753 -200.137 181.38
286 201.587 -198.05 181.38
287 204.603 -194.846 181.38
288 206.507 -190.84 181.38
289 224.881 0 184.418
290 224.135 207.131 184.418
291 221.968 211.383 184.418
292 218.593 214.758 184.418
293 214.34 216.925 184.418
294 209.626 217.672 184.418
295 0 217.672 184.418
296 -209.626 217.672 184.418
297 -214.34 216.925 184.418
298 -218.593 214.758 184.418
299 -221.968 211.383 184.418
300 -224.135 207.131 184.418
301 -224.881 0 184.418
302 -224.135 -207.131 184.418
303 -221.968 -211.383 184.418
304 -218.593 -214.758 184.418
305 -214.34 -216.925 184.418
306 -209.626 -217.672 184.418
307 0 -217.672 184.418
308 209.626 -217.672 184.418
309 214.34 -216.925 184.418
310 218.593 -214.758 184.418
311 221.968 -211.383 184.418
312 224.135 -207.131 184.418
313 26.44050000007766 52.68600000000654 95.667
314 -26.44049999992779 52.68599999999392 95.667
315 -26.44050000007766 -52.68600000000654 95.667
316 26.44049999992779 -52.68599999999392 95.667
317 82.21500000001119 35.96449999990819 123.266
318 37.85900000009554 76.03150000000653 123.266
319 -37.85899999990272 76.03149999999333 123.266
320 -82.21499999998893 35.9645000000909 123.266
321 -82.21500000001119 -35.96449999990819 123.266
322 -37.85900000009554 -76.03150000000653 123.266
323 37.85899999990272 -76.03149999999333 123.266
324 82.21499999998893 -35.9645000000909 123.266
325 114.3150000000067 33.60366666658047 146.144
326 111.7010000000073 67.2073333332394 146.144
327 127.1189999999499 117.4749999999537 154.7204999999762
328 126.3519999999556 120.3269999999577 154.7204999999786
329 125.0234999999503 122.8304999999511 154.7204999999755
330 123.2549999998535 124.7414999998518 154.720499999926
331 121.2399999999615 125.89299999996 154.7204999999799
332 69.83600000008158 106.9660000000042 146.144
333 34.91800000008561 105.1580000000044 146.144
334 -34.91799999991954 105.1579999999958 146.144
335 -69.83599999991517 106.9659999999956 146.144
336 -121.2399999999615 125.89299999996 154.7204999999799
337 -123.2549999998535 124.7414999998518 154.720499999926
338 -125.0234999999503 122.8304999999511 154.7204999999755
339 -126.3519999999556 120.3269999999577 154.7204999999786
340 -127.1189999999499 117.4749999999537 154.7204999999762
341 -111.7009999999939 67.20733333341212 146.144
342 -114.3149999999931 33.60366666675559 146.144
343 -114.3150000000067 -33.60366666658047 146.144
344 -111.7010000000073 -67.2073333332394 146.144
345 -127.1189999999499 -117.4749999999537 154.7204999999762
346 -126.3519999999556 -120.3269999999577 154.7204999999786
347 -125.0234999999503 -122.8304999999511 154.7204999999755
348 -123.2549999998535 -124.7414999998518 154.720499999926
349 -121.2399999999615 -125.89299999996 154.7204999999799
350 -69.83600000008158 -106.9660000000042 146.144
351 -34.91800000008561 -105.1580000000044 146.144
352 34.91799999991954 -105.1579999999958 146.144
353 69.83599999991517 -106.9659999999956 146.144
354 121.2399999999615 -125.89299999996 154.7204999999799
355 123.2549999998535 -124.7414999998518 154.720499999926
356 125.0234999999503 -122.8304999999511 154.7204999999755
357 126.3519999999556 -120.3269999999577 154.7204999999786
358 127.1189999999499 -117.4749999999537 154.7204999999762
359 111.7009999999939 -67.20733333341212 146.144
360 114.3149999999931 -33.60366666675559 146.144
361 148.3650000000042 44.71299999988445 163.297
362 146.7580000000045 89.4259999998753 163.297
363 91.81733333343291 141.2770000000038 163.297
364 45.90866666676331 139.5420000000036 163.297
365 -45.90866666656183 139.541999999996 163.297
366 -91.81733333322822 141.276999999996 163.297
367 -146.7579999999959 89.42600000011356 163.297
368 -148.3649999999956 44.71300000012225 163.297
369 -148.3650000000042 -44.71299999988445 163.297
370 -146.7580000000045 -89.4259999998753 163.297
371 -91.81733333343291 -141.2770000000038 163.297
372 -45.90866666676331 -139.5420000000036 163.297
373 45.90866666656183 -139.541999999996 163.297
374 91.81733333322822 -141.276999999996 163.297
375 146.7579999999959 -89.42600000011356 163.297
376 148.3649999999956 -44.71300000012225 163.297
377 180.2342500000009 41.34574999990845 174.603
378 179.8095000000021 82.69149999979447 174.603
379 179.384750000001 124.0372499999054 174.603
380 126.327750000104 173.8305000000026 174.603
381 84.21850000023007 172.7590000000058 174.603
382 42.10925000011775 171.687500000003 174.603
383 -42.10924999989718 171.6874999999974 174.603
384 -84.21849999977221 172.7589999999942 174.603
385 -126.3277499998837 173.830499999997 174.603
386 -179.3847499999992 124.0372500000817 174.603
387 -179.809499999998 82.69150000019708 174.603
388 -180.2342499999991 41.34575000009032 174.603
389 -180.2342500000009 -41.34574999990845 174.603
390 -179.8095000000021 -82.69149999979447 174.603
391 -179.384750000001 -124.0372499999054 174.603
392 -126.327750000104 -173.8305000000026 174.603
393 -84.21850000023007 -172.7590000000058 174.603
394 -42.10925000011775 -171.687500000003 174.603
395 42.10924999989718 -171.6874999999974 174.603
396 84.21849999977221 -172.7589999999942 174.603
397 126.3277499998837 -173.830499999997 174.603
398 179.3847499999992 -124.0372500000817 174.603
399 179.809499999998 -82.69150000019708 174.603
400 180.2342499999991 -41.34575000009032 174.603
401 206.6285000000001 47.70999999988612 181.38
402 206.5880000000002 95.41999999975856 181.38
403 206.5475000000001 143.1299999998724 181.38
404 145.1107500001124 200.2977500000014 181.38
405 96.74050000027199 199.6895000000034 181.38
406 48.37025000013185 199.0812500000017 181.38
407 -48.3702499998897 199.0812499999986 181.38
408 -96.74049999974793 199.6894999999968 181.38
409 -145.1107499998781 200.2977499999985 181.38
410 -206.5474999999999 143.1300000001054 181.38
411 -206.5879999999998 95.42000000025246 181.38
412 -206.6284999999999 47.71000000013316 181.38
413 -206.6285000000001 -47.70999999988612 181.38
414 -206.5880000000002 -95.41999999975856 181.38
415 -206.5475000000001 -143.1299999998724 181.38
416 -145.1107500001124 -200.2977500000014 181.38
417 -96.74050000027199 -199.6895000000034 181.38
418 -48.37025000013185 -199.0812500000017 181.38
419 48.3702499998897 -199.0812499999986 181.38
420 96.74049999974793 -199.6894999999968 181.38
421 145.1107499998781 -200.2977499999985 181.38
422 206.5474999999999 -143.1300000001054 181.38
423 206.5879999999998 -95.42000000025246 181.38
424 206.6284999999999 -47.71000000013316 181.38
425 224.7318000000003 41.42619999991472 184.418
426 224.5826000000008 82.8523999997845 184.418
427 224.4334000000008 124.2785999997874 184.418
428 224.2842000000004 165.7047999998937 184.418
429 167.7008000000933 217.672 184.418
430 125.7756000002198 217.672 184.418
431 83.85040000022262 217.672 184.418
432 41.92520000010774 217.672 184.418
433 -41.92519999990552 217.672 184.418
434 -83.85039999978092 217.672 184.418
435 -125.7755999997779 217.672 184.418
436 -167.7007999998926 217.672 184.418
437 -224.2841999999997 165.7048000000955 184.418
438 -224.4333999999992 124.2786000002131 184.418
439 -224.5825999999992 82.85240000021099 184.418
440 -224.7317999999996 41.4262000001055 184.418
441 -224.7318000000003 -41.42619999991472 184.418
442 -224.5826000000008 -82.8523999997845 184.418
443 -224.4334000000008 -124.2785999997874 184.418
444 -224.2842000000004 -165.7047999998937 184.418
445 -167.7008000000933 -217.672 184.418
446 -125.7756000002198 -217.672 184.418
447 -83.85040000022262 -217.672 184.418
448 -41.92520000010774 -217.672 184.418
449 41.92519999990552 -217.672 184.418
450 83.85039999978092 -217.672 184.418
451 125.7755999997779 -217.672 184.418
452 167.7007999998926 -217.672 184.418
453 224.2841999999997 -165.7048000000955 184.418
454 224.4333999999992 -124.2786000002131 184.418
455 224.5825999999992 -82.85240000021099 184.418
456 224.7317999999996 -41.4262000001055 184.418
457 11.16946833789561 4.382395050758033 2.323607326997803
458 4.455190535559928 10.98155316787084 2.329568426771909
459 -4.495419036631191 11.08873877843322 2.323243377565194
460 -11.11710952256143 4.362634334520989 2.327063732809462
461 -11.16946833789561 -4.382395050758033 2.323607326997803
462 -4.455190535559928 -10.98155316787084 2.329568426771909
463 4.495419036631191 -11.08873877843322 2.323243377565194
464 11.11710952256143 -4.362634334520988 2.327063732809462
465 12.22394683413857 4.867103164090451 8.793733614015999
466 4.914635562301185 11.58215588597823 8.889931882143024
467 -5.047770225019378 12.13190759965096 8.784246383777568
468 -11.96810460420207 4.787501811023775 8.851483995542008
469 -12.22394683413857 -4.867103164090451 8.793733614015999
470 -4.914635562301185 -11.58215588597823 8.889931882143024
471 5.047770225019378 -12.13190759965096 8.784246383777568
472 11.96810460420207 -4.787501811023775 8.851483995542006
473 15.48000949735927 6.163140804046328 19.54071023219397
474 6.363899971078983 14.12137514630374 19.60377070782508
475 -6.371855692112335 14.98372096890701 19.31477778832661
476 -15.11220532793443 6.09859603481623 19.69067745677252
477 -15.48000949735927 -6.163140804046328 19.54071023219397
478 -6.363899971078983 -14.12137514630374 19.60377070782508
479 6.371855692112335 -14.98372096890701 19.31477778832661
480 15.11220532793443 -6.09859603481623 19.69067745677252
481 22.23863021440075 8.611230535300557 35.36934357927638
482 8.901766898364579 19.87487410881033 35.15117165447066
483 -8.827857959816765 20.5937343341307 34.84659681199823
484 -21.95742720926231 8.575365193774589 35.51606577609239
485 -22.23863021440075 -8.611230535300557 35.36934357927638
486 -8.901766898364579 -19.87487410881033 35.15117165447066
487 8.827857959816765 -20.5937343341307 34.84659681199823
488 21.95742720926231 -8.575365193774589 35.51606577609239
489 32.73207208502772 14.05875581794166 56.04679368627311
490 14.95278812963976 29.80596810846653 56.17547264334408
491 -14.92227130021606 30.16724766889421 56.00381415045328
492 -32.59338357933693 14.03739139839992 56.1287516579342
493 -32.73207208502772 -14.05875581794166 56.04679368627311
494 -14.95278812963976 -29.80596810846653 56.17547264334408
495 14.92227130021606 -30.16724766889421 56.00381415045328
496 32.59338357933693 -14.03739139839992 56.1287516579342
497 48.43560832718789 20.92010664558174 81.79664740120003
498 15.13272805020931 43.61284416444552 81.67754542120684
499 -15.13308996804298 43.6085433600573 81.68004290450089
500 -48.35621187252367 20.90844040346317 81.85247264035893
501 -48.43560832718789 -20.92010664558174 81.79664740120003
502 -15.13272805020931 -43.61284416444552 81.67754542120684
503 15.13308996804298 -43.6085433600573 81.68004290450089
504 48.35621187252367 -20.90844040346317 81.85247264035893
505 100.8009196223305 18.63903461228837 135.0733151430048
506 98.43746074379141 47.9161759883832 135.0084398253971
507 18.22333956944843 89.34663918096149 134.2069291042856
508 -18.23613199960378 89.09957829648499 134.5220736005533
509 -100.3116880677495 18.6009777153084 135.7836865348047
510 -97.9291906915039 47.87663810328929 135.7118631749506
511 -100.8009196223305 -18.63903461228837 135.0733151430048
512 -98.43746074379141 -47.9161759883832 135.0084398253971
513 -18.22333956944843 -89.34663918096149 134.2069291042856
514 18.23613199960378 -89.09957829648499 134.5220736005533
515 100.3116880677495 -18.6009777153084 135.7836865348047
516 97.9291906915039 -47.87663810328929 135.7118631749506
517 126.0082053764262 85.19255944515588 152.4465603419958
518 132.4698582947344 19.58184811339085 154.5767769263209
519 86.6013172313678 121.2811629227344 153.0033458089921
520 -86.60631949036413 121.1050473937352 153.3532601224096
521 -125.5036095936256 85.18967411591599 153.4427257219512
522 -132.0879495518821 19.56812218703523 155.3880551670109
523 -126.0082053764262 -85.19255944515588 152.4465603419958
524 -132.4698582947344 -19.58184811339085 154.5767769263209
525 -86.6013172313678 -121.2811629227344 153.0033458089921
526 86.60631949036413 -121.1050473937352 153.3532601224096
527 125.5036095936256 -85.18967411591599 153.4427257219512
528 132.0879495518821 -19.56812218703523 155.3880551670109
529 164.8418532494647 21.51503977305573 168.8569272750058
530 166.1068460523796 61.87567418760354 169.4757500008629
531 22.0023757900854 154.9957863276369 168.7225567894521
532 66.01217547415507 156.3659717965852 168.8135340736714
533 -22.00486187674594 154.8980847418633 168.9936454828544
534 -66.0145856302584 156.2712542255908 169.0809364485634
535 -164.6657075184044 21.51323020629424 169.3782245497013
536 -165.9476004376494 61.87403823801318 169.9402204704911
537 -164.8418532494647 -21.51503977305573 168.8569272750058
538 -166.1068460523796 -61.87567418760354 169.4757500008629
539 -22.0023757900854 -154.9957863276369 168.7225567894521
540 -66.01217547415507 -156.3659717965852 168.8135340736714
541 22.00486187674594 -154.8980847418633 168.9936454828544
542 66.0145856302584 -156.2712542255908 169.0809364485634
543 164.6657075184044 -21.51323020629424 169.3782245497013
544 165.9476004376494 -61.87403823801318 169.9402204704911
545 193.5538802836792 22.26394275687044 177.9677322113783
546 22.61909896675839 185.0261504879555 177.757569121927
547 -22.61997020478729 184.9568664651611 178.0226208967802
548 -193.5088296184819 22.26390451443019 178.149572565626
549 -193.5538802836792 -22.26394275687044 177.9677322113783
550 -22.61909896675839 -185.0261504879555 177.757569121927
551 22.61997020478729 -184.9568664651611 178.0226208967802
552 193.5088296184819 -22.26390451443019 178.149572565626
553 22.5738625000599 208.2584006400699 182.7122553468049
554 -22.5738625000599 -208.2584006400699 182.7122553468049
$EndNodes
$Elements
2084
1 15 2 0 1 1
2 15 2 0 2 2
3 15 2 0 3 3
4 15 2 0 4 4
5 15 2 0 5 5
6 15 2 0 6 6
7 15 2 0 7 7
8 15 2 0 8 8
9 15 2 0 9 9
10 15 2 0 10 10
11 15 2 0 11 11
12 15 2 0 12 12
13 15 2 0 13 13
14 15 2 0 14 14
15 15 2 0 15 15
16 15 2 0 16 16
17 15 2 0 17 17
18 15 2 0 18 18
19 15 2 0 19 19
20 15 2 0 20 20
21 15 2 0 21 21
22 15 2 0 22 22
23 15 2 0 23 23
24 15 2 0 24 24
25 15 2 0 25 25
26 15 2 0 26 26
27 15 2 0 27 27
28 15 2 0 28 28
29 15 2 0 29 29
30 15 2 0 30 30
31 15 2 0 31 31
32 15 2 0 32 32
33 15 2 0 33 33
34 15 2 0 34 34
35 15 2 0 35 35
36 15 2 0 36 36
37 15 2 0 37 37
38 15 2 0 38 38
39 15 2 0 39 39
40 15 2 0 40 40
41 15 2 0 41 41
42 15 2 0 42 42
43 15 2 0 43 43
44 15 2 0 44 44
45 15 2 0 45 45
46 15 2 0 46 46
47 15 2 0 47 47
48 15 2 0 48 48
49 15 2 0 49 49
50 15 2 0 50 50
51 15 2 0 51 51
52 15 2 0 52 52
53 15 2 0 53 53
54 15 2 0 54 54
55 15 2 0 55 55
56 15 2 0 56 56
57 15 2 0 57 57
58 15 2 0 58 58
59 15 2 0 59 59
60 15 2 0 60 60
61 15 2 0 61 61
62 15 2 0 62 62
63 15 2 0 63 63
64 15 2 0 64 64
65 15 2 0 65 65
66 15 2 0 66 66
67 15 2 0 67 67
68 15 2 0 68 68
69 15 2 0 69 69
70 15 2 0 70 70
71 15 2 0 71 71
72 15 2 0 72 72
73 15 2 0 73 73
74 15 2 0 74 74
75 15 2 0 75 75
76 15 2 0 76 76
77 15 2 0 77 77
78 15 2 0 78 78
79 15 2 0 79 79
80 15 2 0 80 80
81 15 2 0 81 81
82 15 2 0 82 82
83 15 2 0 83 83
84 15 2 0 84 84
85 15 2 0 85 85
86 15 2 0 86 86
87 15 2 0 87 87
88 15 2 0 88 88
89 15 2 0 89 89
90 15 2 0 90 90
91 15 2 0 91 91
92 15 2 0 92 92
93 15 2 0 93 93
94 15 2 0 94 94
95 15 2 0 95 95
96 15 2 0 96 96
97 15 2 0 97 97
98 15 2 0 98 98
99 15 2 0 99 99
100 15 2 0 100 100
101 15 2 0 101 101
102 15 2 0 102 102
103 15 2 0 103 103
104 15 2 0 104 104
105 15 2 0 105 105
106 15 2 0 106 106
107 15 2 0 107 107
108 15 2 0 108 108
109 15 2 0 109 109
110 15 2 0 110 110
111 15 2 0 111 111
112 15 2 0 112 112
113 15 2 0 113 113
114 15 2 0 114 114
115 15 2 0 115 115
116 15 2 0 116 116
117 15 2 0 117 117
118 15 2 0 118 118
119 15 2 0 119 119
120 15 2 0 120 120
121 15 2 0 121 121
122 15 2 0 122 122
123 15 2 0 123 123
124 15 2 0 124 124
125 15 2 0 125 125
126 15 2 0 126 126
127 15 2 0 127 127
128 15 2 0 128 128
129 15 2 0 129 129
130 15 2 0 130 130
131 15 2 0 131 131
132 15 2 0 132 132
133 15 2 0 133 133
134 15 2 0 134 134
135 15 2 0 135 135
136 15 2 0 136 136
137 15 2 0 137 137
138 15 2 0 138 138
139 15 2 0 139 139
140 15 2 0 140 140
141 15 2 0 141 141
142 15 2 0 142 142
143 15 2 0 143 143
144 15 2 0 144 144
145 15 2 0 145 145
146 15 2 0 146 146
147 15 2 0 147 147
148 15 2 0 148 148
149 15 2 0 149 149
150 15 2 0 150 150
151 15 2 0 151 151
152 15 2 0 152 152
153 15 2 0 153 153
154 15 2 0 154 154
155 15 2 0 155 155
156 15 2 0 156 156
157 15 2 0 157 157
158 15 2 0 158 158
159 15 2 0 159 159
160 15 2 0 160 160
161 15 2 0 161 161
162 15 2 0 162 162
163 15 2 0 163 163
164 15 2 0 164 164
165 15 2 0 165 165
166 15 2 0 166 166
167 15 2 0 167 167
168 15 2 0 168 168
169 15 2 0 169 169
170 15 2 0 170 170
171 15 2 0 171 171
172 15 2 0 172 172
173 15 2 0 173 173
174 15 2 0 174 174
175 15 2 0 175 175
176 15 2 0 176 176
177 15 2 0 177 177
178 15 2 0 178 178
179 15 2 0 179 179
180 15 2 0 180 180
181 15 2 0 181 181
182 15 2 0 182 182
183 15 2 0 183 183
184 15 2 0 184 184
185 15 2 0 185 185
186 15 2 0 186 186
187 15 2 0 187 187
188 15 2 0 188 188
189 15 2 0 189 189
190 15 2 0 190 190
191 15 2 0 191 191
192 15 2 0 192 192
193 15 2 0 193 193
194 15 2 0 194 194
195 15 2 0 195 195
196 15 2 0 196 196
197 15 2 0 197 197
198 15 2 0 198 198
199 15 2 0 199 199
200 15 2 0 200 200
201 15 2 0 201 201
202 15 2 0 202 202
203 15 2 0 203 203
204 15 2 0 204 204
205 15 2 0 205 205
206 15 2 0 206 206
207 15 2 0 207 207
208 15 2 0 208 208
209 15 2 0 209 209
210 15 2 0 210 210
211 15 2 0 211 211
212 15 2 0 212 212
213 15 2 0 213 213
214 15 2 0 214 214
215 15 2 0 215 215
216 15 2 0 216 216
217 15 2 0 217 217
218 15 2 0 218 218
219 15 2 0 219 219
220 15 2 0 220 220
221 15 2 0 221 221
222 15 2 0 222 222
223 15 2 0 223 223
224 15 2 0 224 224
225 15 2 0 225 225
226 15 2 0 226 226
227 15 2 0 227 227
228 15 2 0 228 228
229 15 2 0 229 229
230 15 2 0 230 230
231 15 2 0 231 231
232 15 2 0 232 232
233 15 2 0 233 233
234 15 2 0 234 234
235 15 2 0 235 235
236 15 2 0 236 236
237 15 2 0 237 237
238 15 2 0 238 238
239 15 2 0 239 239
240 15 2 0 240 240
241 15 2 0 241 241
242 15 2 0 242 242
243 15 2 0 243 243
244 15 2 0 244 244
245 15 2 0 245 245
246 15 2 0 246 246
247 15 2 0 247 247
248 15 2 0 248 248
249 15 2 0 249 249
250 15 2 0 250 250
251 15 2 0 251 251
252 15 2 0 252 252
253 15 2 0 253 253
254 15 2 0 254 254
255 15 2 0 255 255
256 15 2 0 256 256
257 15 2 0 257 257
258 15 2 0 258 258
259 15 2 0 259 259
260 15 2 0 260 260
261 15 2 0 261 261
262 15 2 0 262 262
263 15 2 0 263 263
264 15 2 0 264 264
265 15 2 0 265 265
266 15 2 0 266 266
267 15 2 0 267 267
268 15 2 0 268 268
269 15 2 0 269 269
270 15 2 0 270 270
271 15 2 0 271 271
272 15 2 0 272 272
273 15 2 0 273 273
274 15 2 0 274 274
275 15 2 0 275 275
276 15 2 0 276 276
277 15 2 0 277 277
278 15 2 0 278 278
279 15 2 0 279 279
280 15 2 0 280 280
281 15 2 0 281 281
282 15 2 0 282 282
283 15 2 0 283 283
284 15 2 0 284 284
285 15 2 0 285 285
286 15 2 0 286 286
287 15 2 0 287 287
288 15 2 0 288 288
289 15 2 0 289 289
290 15 2 0 290 290
291 15 2 0 291 291
292 15 2 0 292 292
293 15 2 0 293 293
294 15 2 0 294 294
295 15 2 0 295 295
296 15 2 0 296 296
297 15 2 0 297 297
298 15 2 0 298 298
299 15 2 0 299 299
300 15 2 0 300 300
301 15 2 0 301 301
302 15 2 0 302 302
303 15 2 0 303 303
304 15 2 0 304 304
305 15 2 0 305 305
306 15 2 0 306 306
307 15 2 0 307 307
308 15 2 0 308 308
309 15 2 0 309 309
310 15 2 0 310 310
311 15 2 0 311 311
312 15 2 0 312 312
313 1 2 0 1 1 25
314 1 2 0 2 1 2
315 1 2 0 3 2 26
316 1 2 0 4 2 3
317 1 2 0 5 3 27
318 1 2 0 6 3 4
319 1 2 0 7 4 28
320 1 2 0 8 4 5
321 1 2 0 9 5 29
322 1 2 0 10 5 6
323 1 2 0 11 6 30
324 1 2 0 12 6 7
325 1 2 0 13 7 31
326 1 2 0 14 7 8
327 1 2 0 15 8 32
328 1 2 0 16 8 9
329 1 2 0 17 9 33
330 1 2 0 18 9 10
331 1 2 0 19 10 34
332 1 2 0 20 10 11
333 1 2 0 21 11 35
334 1 2 0 22 11 12
335 1 2 0 23 12 36
336 1 2 0 24 12 13
337 1 2 0 25 13 37
338 1 2 0 26 13 14
339 1 2 0 27 14 38
340 1 2 0 28 14 15
341 1 2 0 29 15 39
342 1 2 0 30 15 16
343 1 2 0 31 16 40
344 1 2 0 32 16 17
345 1 2 0 33 17 41
346 1 2 0 34 17 18
347 1 2 0 35 18 42
348 1 2 0 36 18 19
349 1 2 0 37 19 43
350 1 2 0 38 19 20
351 1 2 0 39 20 44
352 1 2 0 40 20 21
353 1 2 0 41 21 45
354 1 2 0 42 21 22
355 1 2 0 43 22 46
356 1 2 0 44 22 23
357 1 2 0 45 23 47
358 1 2 0 46 23 24
359 1 2 0 47 24 48
360 1 2 0 48 24 1
361 1 2 0 49 25 49
362 1 2 0 50 25 26
363 1 2 0 51 26 50
364 1 2 0 52 26 27
365 1 2 0 53 27 51
366 1 2 0 54 27 28
367 1 2 0 55 28 52
368 1 2 0 56 28 29
369 1 2 0 57 29 53
370 1 2 0 58 29 30
371 1 2 0 59 30 54
372 1 2 0 60 30 31
373 1 2 0 61 31 55
374 1 2 0 62 31 32
375 1 2 0 63 32 56
376 1 2 0 64 32 33
377 1 2 0 65 33 57
378 1 2 0 66 33 34
379 1 2 0 67 34 58
380 1 2 0 68 34 35
381 1 2 0 69 35 59
382 1 2 0 70 35 36
383 1 2 0 71 36 60
384 1 2 0 72 36 37
385 1 2 0 73 37 61
386 1 2 0 74 37 38
387 1 2 0 75 38 62
388 1 2 0 76 38 39
389 1 2 0 77 39 63
390 1 2 0 78 39 40
391 1 2 0 79 40 64
392 1 2 0 80 40 41
393 1 2 0 81 41 65
394 1 2 0 82 41 42
395 1 2 0 83 42 66
396 1 2 0 84 42 43
397 1 2 0 85 43 67
398 1 2 0 86 43 44
399 1 2 0 87 44 68
400 1 2 0 88 44 45
401 1 2 0 89 45 69
402 1 2 0 90 45 46
403 1 2 0 91 46 70
404 1 2 0 92 46 47
405 1 2 0 93 47 71
406 1 2 0 94 47 48
407 1 2 0 95 48 72
408 1 2 0 96 48 25
409 1 2 0 97 49 73
410 1 2 0 98 49 50
411 1 2 0 99 50 74
412 1 2 0 100 50 51
413 1 2 0 101 51 75
414 1 2 0 102 51 52
415 1 2 0 103 52 76
416 1 2 0 104 52 53
417 1 2 0 105 53 77
418 1 2 0 106 53 54
419 1 2 0 107 54 78
420 1 2 0 108 54 55
421 1 2 0 109 55 79
422 1 2 0 110 55 56
423 1 2 0 111 56 80
424 1 2 0 112 56 57
425 1 2 0 113 57 81
426 1 2 0 114 57 58
427 1 2 0 115 58 82
428 1 2 0 116 58 59
429 1 2 0 117 59 83
430 1 2 0 118 59 60
431 1 2 0 119 60 84
432 1 2 0 120 60 61
433 1 2 0 121 61 85
434 1 2 0 122 61 62
435 1 2 0 123 62 86
436 1 2 0 124 62 63
437 1 2 0 125 63 87
438 1 2 0 126 63 64
439 1 2 0 127 64 88
440 1 2 0 128 64 65
441 1 2 0 129 65 89
442 1 2 0 130 65 66
443 1 2 0 131 66 90
444 1 2 0 132 66 67
445 1 2 0 133 67 91
446 1 2 0 134 67 68
447 1 2 0 135 68 92
448 1 2 0 136 68 69
449 1 2 0 137 69 93
450 1 2 0 138 69 70
451 1 2 0 139 70 94
452 1 2 0 140 70 71
453 1 2 0 141 71 95
454 1 2 0 142 71 72
455 1 2 0 143 72 96
456 1 2 0 144 72 49
457 1 2 0 145 73 97
458 1 2 0 146 73 74
459 1 2 0 147 74 98
460 1 2 0 148 74 75
461 1 2 0 149 75 99
462 1 2 0 150 75 76
463 1 2 0 151 76 100
464 1 2 0 152 76 77
465 1 2 0 153 77 101
466 1 2 0 154 77 78
467 1 2 0 155 78 102
468 1 2 0 156 78 79
469 1 2 0 157 79 103
470 1 2 0 158 79 80
471 1 2 0 159 80 104
472 1 2 0 160 80 81
473 1 2 0 161 81 105
474 1 2 0 162 81 82
475 1 2 0 163 82 106
476 1 2 0 164 82 83
477 1 2 0 165 83 107
478 1 2 0 166 83 84
479 1 2 0 167 84 108
480 1 2 0 168 84 85
481 1 2 0 169 85 109
482 1 2 0 170 85 86
483 1 2 0 171 86 110
484 1 2 0 172 86 87
485 1 2 0 173 87 111
486 1 2 0 174 87 88
487 1 2 0 175 88 112
488 1 2 0 176 88 89
489 1 2 0 177 89 113
490 1 2 0 178 89 90
491 1 2 0 179 90 114
492 1 2 0 180 90 91
493 1 2 0 181 91 115
494 1 2 0 182 91 92
495 1 2 0 183 92 116
496 1 2 0 184 92 93
497 1 2 0 185 93 117
498 1 2 0 186 93 94
499 1 2 0 187 94 118
500 1 2 0 188 94 95
501 1 2 0 189 95 119
502 1 2 0 190 95 96
503 1 2 0 191 96 120
504 1 2 0 192 96 73
505 1 2 0 193 97 121
506 1 2 0 194 97 98
507 1 2 0 195 98 122
508 1 2 0 196 98 99
509 1 2 0 197 99 123
510 1 2 0 198 99 100
511 1 2 0 199 100 124
512 1 2 0 200 100 101
513 1 2 0 201 101 125
514 1 2 0 202 101 102
515 1 2 0 203 102 126
516 1 2 0 204 102 103
517 1 2 0 205 103 127
518 1 2 0 206 103 104
519 1 2 0 207 104 128
520 1 2 0 208 104 105
521 1 2 0 209 105 129
522 1 2 0 210 105 106
523 1 2 0 211 106 130
524 1 2 0 212 106 107
525 1 2 0 213 107 131
526 1 2 0 214 107 108
527 1 2 0 215 108 132
528 1 2 0 216 108 109
529 1 2 0 217 109 133
530 1 2 0 218 109 110
531 1 2 0 219 110 134
532 1 2 0 220 110 111
533 1 2 0 221 111 135
534 1 2 0 222 111 112
535 1 2 0 223 112 136
536 1 2 0 224 112 113
537 1 2 0 225 113 137
538 1 2 0 226 113 114
539 1 2 0 227 114 138
540 1 2 0 228 114 115
541 1 2 0 229 115 139
542 1 2 0 230 115 116
543 1 2 0 231 116 140
544 1 2 0 232 116 117
545 1 2 0 233 117 141
546 1 2 0 234 117 118
547 1 2 0 235 118 142
548 1 2 0 236 118 119
549 1 2 0 237 119 143
550 1 2 0 238 119 120
551 1 2 0 239 120 144
552 1 2 0 240 120 97
553 1 2 0 241 121 145
554 1 2 0 242 121 122
555 1 2 0 243 122 146
556 1 2 0 244 122 123
557 1 2 0 245 123 147
558 1 2 0 246 123 124
559 1 2 0 247 124 148
560 1 2 0 248 124 125
561 1 2 0 249 125 149
562 1 2 0 250 125 126
563 1 2 0 251 126 150
564 1 2 0 252 126 127
565 1 2 0 253 127 151
566 1 2 0 254 127 128
567 1 2 0 255 128 152
568 1 2 0 256 128 129
569 1 2 0 257 129 153
570 1 2 0 258 129 130
571 1 2 0 259 130 154
572 1 2 0 260 130 131
573 1 2 0 261 131 155
574 1 2 0 262 131 132
575 1 2 0 263 132 156
576 1 2 0 264 132 133
577 1 2 0 265 133 157
578 1 2 0 266 133 134
579 1 2 0 267 134 158
580 1 2 0 268 134 135
581 1 2 0 269 135 159
582 1 2 0 270 135 136
583 1 2 0 271 136 160
584 1 2 0 272 136 137
585 1 2 0 273 137 161
586 1 2 0 274 137 138
587 1 2 0 275 138 162
588 1 2 0 276 138 139
589 1 2 0 277 139 163
590 1 2 0 278 139 140
591 1 2 0 279 140 164
592 1 2 0 280 140 141
593 1 2 0 281 141 165
594 1 2 0 282 141 142
595 1 2 0 283 142 166
596 1 2 0 284 142 143
597 1 2 0 285 143 167
598 1 2 0 286 143 144
599 1 2 0 287 144 168
600 1 2 0 288 144 121
601 1 2 0 289 145 169
602 1 2 0 290 145 146
603 1 2 0 291 146 170
604 1 2 0 292 146 147
605 1 2 0 293 147 171
606 1 2 0 294 147 148
607 1 2 0 295 148 172
608 1 2 0 296 148 149
609 1 2 0 297 149 173
610 1 2 0 298 149 150
611 1 2 0 299 150 174
612 1 2 0 300 150 313
613 1 2 0 300 313 151
614 1 2 0 301 151 175
615 1 2 0 302 151 314
616 1 2 0 302 314 152
617 1 2 0 303 152 176
618 1 2 0 304 152 153
619 1 2 0 305 153 177
620 1 2 0 306 153 154
621 1 2 0 307 154 178
622 1 2 0 308 154 155
623 1 2 0 309 155 179
624 1 2 0 310 155 156
625 1 2 0 311 156 180
626 1 2 0 312 156 157
627 1 2 0 313 157 181
628 1 2 0 314 157 158
629 1 2 0 315 158 182
630 1 2 0 316 158 159
631 1 2 0 317 159 183
632 1 2 0 318 159 160
633 1 2 0 319 160 184
634 1 2 0 320 160 161
635 1 2 0 321 161 185
636 1 2 0 322 161 162
637 1 2 0 323 162 186
638 1 2 0 324 162 315
639 1 2 0 324 315 163
640 1 2 0 325 163 187
641 1 2 0 326 163 316
642 1 2 0 326 316 164
643 1 2 0 327 164 188
644 1 2 0 328 164 165
645 1 2 0 329 165 189
646 1 2 0 330 165 166
647 1 2 0 331 166 190
648 1 2 0 332 166 167
649 1 2 0 333 167 191
650 1 2 0 334 167 168
651 1 2 0 335 168 192
652 1 2 0 336 168 145
653 1 2 0 337 169 193
654 1 2 0 338 169 317
655 1 2 0 338 317 170
656 1 2 0 339 170 194
657 1 2 0 340 170 171
658 1 2 0 341 171 195
659 1 2 0 342 171 172
660 1 2 0 343 172 196
661 1 2 0 344 172 173
662 1 2 0 345 173 197
663 1 2 0 346 173 174
664 1 2 0 347 174 198
665 1 2 0 348 174 318
666 1 2 0 348 318 175
667 1 2 0 349 175 199
668 1 2 0 350 175 319
669 1 2 0 350 319 176
670 1 2 0 351 176 200
671 1 2 0 352 176 177
672 1 2 0 353 177 201
673 1 2 0 354 177 178
674 1 2 0 355 178 202
675 1 2 0 356 178 179
676 1 2 0 357 179 203
677 1 2 0 358 179 180
678 1 2 0 359 180 204
679 1 2 0 360 180 320
680 1 2 0 360 320 181
681 1 2 0 361 181 205
682 1 2 0 362 181 321
683 1 2 0 362 321 182
684 1 2 0 363 182 206
685 1 2 0 364 182 183
686 1 2 0 365 183 207
687 1 2 0 366 183 184
688 1 2 0 367 184 208
689 1 2 0 368 184 185
690 1 2 0 369 185 209
691 1 2 0 370 185 186
692 1 2 0 371 186 210
693 1 2 0 372 186 322
694 1 2 0 372 322 187
695 1 2 0 373 187 211
696 1 2 0 374 187 323
697 1 2 0 374 323 188
698 1 2 0 375 188 212
699 1 2 0 376 188 189
700 1 2 0 377 189 213
701 1 2 0 378 189 190
702 1 2 0 379 190 214
703 1 2 0 380 190 191
704 1 2 0 381 191 215
705 1 2 0 382 191 192
706 1 2 0 383 192 216
707 1 2 0 384 192 324
708 1 2 0 384 324 169
709 1 2 0 385 193 217
710 1 2 0 386 193 325
711 1 2 0 386 325 326
712 1 2 0 386 326 194
713 1 2 0 387 194 327
714 1 2 0 387 327 218
715 1 2 0 388 194 195
716 1 2 0 389 195 328
717 1 2 0 389 328 219
718 1 2 0 390 195 196
719 1 2 0 391 196 329
720 1 2 0 391 329 220
721 1 2 0 392 196 197
722 1 2 0 393 197 330
723 1 2 0 393 330 221
724 1 2 0 394 197 198
725 1 2 0 395 198 331
726 1 2 0 395 331 222
727 1 2 0 396 198 332
728 1 2 0 396 332 333
729 1 2 0 396 333 199
730 1 2 0 397 199 223
731 1 2 0 398 199 334
732 1 2 0 398 334 335
733 1 2 0 398 335 200
734 1 2 0 399 200 336
735 1 2 0 399 336 224
736 1 2 0 400 200 201
737 1 2 0 401 201 337
738 1 2 0 401 337 225
739 1 2 0 402 201 202
740 1 2 0 403 202 338
741 1 2 0 403 338 226
742 1 2 0 404 202 203
743 1 2 0 405 203 339
744 1 2 0 405 339 227
745 1 2 0 406 203 204
746 1 2 0 407 204 340
747 1 2 0 407 340 228
748 1 2 0 408 204 341
749 1 2 0 408 341 342
750 1 2 0 408 342 205
751 1 2 0 409 205 229
752 1 2 0 410 205 343
753 1 2 0 410 343 344
754 1 2 0 410 344 206
755 1 2 0 411 206 345
756 1 2 0 411 345 230
757 1 2 0 412 206 207
758 1 2 0 413 207 346
759 1 2 0 413 346 231
760 1 2 0 414 207 208
761 1 2 0 415 208 347
762 1 2 0 415 347 232
763 1 2 0 416 208 209
764 1 2 0 417 209 348
765 1 2 0 417 348 233
766 1 2 0 418 209 210
767 1 2 0 419 210 349
768 1 2 0 419 349 234
769 1 2 0 420 210 350
770 1 2 0 420 350 351
771 1 2 0 420 351 211
772 1 2 0 421 211 235
773 1 2 0 422 211 352
774 1 2 0 422 352 353
775 1 2 0 422 353 212
776 1 2 0 423 212 354
777 1 2 0 423 354 236
778 1 2 0 424 212 213
779 1 2 0 425 213 355
780 1 2 0 425 355 237
781 1 2 0 426 213 214
782 1 2 0 427 214 356
783 1 2 0 427 356 238
784 1 2 0 428 214 215
785 1 2 0 429 215 357
786 1 2 0 429 357 239
787 1 2 0 430 215 216
788 1 2 0 431 216 358
789 1 2 0 431 358 240
790 1 2 0 432 216 359
791 1 2 0 432 359 360
792 1 2 0 432 360 193
793 1 2 0 433 217 241
794 1 2 0 434 217 361
795 1 2 0 434 361 362
796 1 2 0 434 362 218
797 1 2 0 435 218 242
798 1 2 0 436 218 219
799 1 2 0 437 219 243
800 1 2 0 438 219 220
801 1 2 0 439 220 244
802 1 2 0 440 220 221
803 1 2 0 441 221 245
804 1 2 0 442 221 222
805 1 2 0 443 222 246
806 1 2 0 444 222 363
807 1 2 0 444 363 364
808 1 2 0 444 364 223
809 1 2 0 445 223 247
810 1 2 0 446 223 365
811 1 2 0 446 365 366
812 1 2 0 446 366 224
813 1 2 0 447 224 248
814 1 2 0 448 224 225
815 1 2 0 449 225 249
816 1 2 0 450 225 226
817 1 2 0 451 226 250
818 1 2 0 452 226 227
819 1 2 0 453 227 251
820 1 2 0 454 227 228
821 1 2 0 455 228 252
822 1 2 0 456 228 367
823 1 2 0 456 367 368
824 1 2 0 456 368 229
825 1 2 0 457 229 253
826 1 2 0 458 229 369
827 1 2 0 458 369 370
828 1 2 0 458 370 230
829 1 2 0 459 230 254
830 1 2 0 460 230 231
831 1 2 0 461 231 255
832 1 2 0 462 231 232
833 1 2 0 463 232 256
834 1 2 0 464 232 233
835 1 2 0 465 233 257
836 1 2 0 466 233 234
837 1 2 0 467 234 258
838 1 2 0 468 234 371
839 1 2 0 468 371 372
840 1 2 0 468 372 235
841 1 2 0 469 235 259
842 1 2 0 470 235 373
843 1 2 0 470 373 374
844 1 2 0 470 374 236
845 1 2 0 471 236 260
846 1 2 0 472 236 237
847 1 2 0 473 237 261
848 1 2 0 474 237 238
849 1 2 0 475 238 262
850 1 2 0 476 238 239
851 1 2 0 477 239 263
852 1 2 0 478 239 240
853 1 2 0 479 240 264
854 1 2 0 480 240 375
855 1 2 0 480 375 376
856 1 2 0 480 376 217
857 1 2 0 481 241 265
858 1 2 0 482 241 377
859 1 2 0 482 377 378
860 1 2 0 482 378 379
861 1 2 0 482 379 242
862 1 2 0 483 242 266
863 1 2 0 484 242 243
864 1 2 0 485 243 267
865 1 2 0 486 243 244
866 1 2 0 487 244 268
867 1 2 0 488 244 245
868 1 2 0 489 245 269
869 1 2 0 490 245 246
870 1 2 0 491 246 270
871 1 2 0 492 246 380
872 1 2 0 492 380 381
873 1 2 0 492 381 382
874 1 2 0 492 382 247
875 1 2 0 493 247 271
876 1 2 0 494 247 383
877 1 2 0 494 383 384
878 1 2 0 494 384 385
879 1 2 0 494 385 248
880 1 2 0 495 248 272
881 1 2 0 496 248 249
882 1 2 0 497 249 273
883 1 2 0 498 249 250
884 1 2 0 499 250 274
885 1 2 0 500 250 251
886 1 2 0 501 251 275
887 1 2 0 502 251 252
888 1 2 0 503 252 276
889 1 2 0 504 252 386
890 1 2 0 504 386 387
891 1 2 0 504 387 388
892 1 2 0 504 388 253
893 1 2 0 505 253 277
894 1 2 0 506 253 389
895 1 2 0 506 389 390
896 1 2 0 506 390 391
897 1 2 0 506 391 254
898 1 2 0 507 254 278
899 1 2 0 508 254 255
900 1 2 0 509 255 279
901 1 2 0 510 255 256
902 1 2 0 511 256 280
903 1 2 0 512 256 257
904 1 2 0 513 257 281
905 1 2 0 514 257 258
906 1 2 0 515 258 282
907 1 2 0 516 258 392
908 1 2 0 516 392 393
909 1 2 0 516 393 394
910 1 2 0 516 394 259
911 1 2 0 517 259 283
912 1 2 0 518 259 395
913 1 2 0 518 395 396
914 1 2 0 518 396 397
915 1 2 0 518 397 260
916 1 2 0 519 260 284
917 1 2 0 520 260 261
918 1 2 0 521 261 285
919 1 2 0 522 261 262
920 1 2 0 523 262 286
921 1 2 0 524 262 263
922 1 2 0 525 263 287
923 1 2 0 526 263 264
924 1 2 0 527 264 288
925 1 2 0 528 264 398
926 1 2 0 528 398 399
927 1 2 0 528 399 400
928 1 2 0 528 400 241
929 1 2 0 529 265 289
930 1 2 0 530 265 401
931 1 2 0 530 401 402
932 1 2 0 530 402 403
933 1 2 0 530 403 266
934 1 2 0 531 266 290
935 1 2 0 532 266 267
936 1 2 0 533 267 291
937 1 2 0 534 267 268
938 1 2 0 535 268 292
939 1 2 0 536 268 269
940 1 2 0 537 269 293
941 1 2 0 538 269 270
942 1 2 0 539 270 294
943 1 2 0 540 270 404
944 1 2 0 540 404 405
945 1 2 0 540 405 406
946 1 2 0 540 406 271
947 1 2 0 541 271 295
948 1 2 0 542 271 407
949 1 2 0 542 407 408
950 1 2 0 542 408 409
951 1 2 0 542 409 272
952 1 2 0 543 272 296
953 1 2 0 544 272 273
954 1 2 0 545 273 297
955 1 2 0 546 273 274
956 1 2 0 547 274 298
957 1 2 0 548 274 275
958 1 2 0 549 275 299
959 1 2 0 550 275 276
960 1 2 0 551 276 300
961 1 2 0 552 276 410
962 1 2 0 552 410 411
963 1 2 0 552 411 412
964 1 2 0 552 412 277
965 1 2 0 553 277 301
966 1 2 0 554 277 413
967 1 2 0 554 413 414
968 1 2 0 554 414 415
969 1 2 0 554 415 278
970 1 2 0 555 278 302
971 1 2 0 556 278 279
972 1 2 0 557 279 303
973 1 2 0 558 279 280
974 1 2 0 559 280 304
975 1 2 0 560 280 281
976 1 2 0 561 281 305
977 1 2 0 562 281 282
978 1 2 0 563 282 306
979 1 2 0 564 282 416
980 1 2 0 564 416 417
981 1 2 0 564 417 418
982 1 2 0 564 418 283
983 1 2 0 565 283 307
984 1 2 0 566 283 419
985 1 2 0 566 419 420
986 1 2 0 566 420 421
987 1 2 0 566 421 284
988 1 2 0 567 284 308
989 1 2 0 568 284 285
990 1 2 0 569 285 309
991 1 2 0 570 285 286
992 1 2 0 571 286 310
993 1 2 0 572 286 287
994 1 2 0 573 287 311
995 1 2 0 574 287 288
996 1 2 0 575 288 312
997 1 2 0 576 288 422
998 1 2 0 576 422 423
999 1 2 0 576 423 424
1000 1 2 0 576 424 265
1001 1 2 0 578 289 425
1002 1 2 0 578 425 426
1003 1 2 0 578 426 427
1004 1 2 0 578 427 428
1005 1 2 0 578 428 290
1006 1 2 0 580 290 291
1007 1 2 0 582 291 292
1008 1 2 0 584 292 293
1009 1 2 0 586 293 294
1010 1 2 0 588 294 429
1011 1 2 0 588 429 430
1012 1 2 0 588 430 431
1013 1 2 0 588 431 432
1014 1 2 0 588 432 295
1015 1 2 0 590 295 433
1016 1 2 0 590 433 434
1017 1 2 0 590 434 435
1018 1 2 0 590 435 436
1019 1 2 0 590 436 296
1020 1 2 0 592 296 297
1021 1 2 0 594 297 298
1022 1 2 0 596 298 299
1023 1 2 0 598 299 300
1024 1 2 0 600 300 437
1025 1 2 0 600 437 438
1026 1 2 0 600 438 439
1027 1 2 0 600 439 440
1028 1 2 0 600 440 301
1029 1 2 0 602 301 441
1030 1 2 0 602 441 442
1031 1 2 0 602 442 443
1032 1 2 0 602 443 444
1033 1 2 0 602 444 302
1034 1 2 0 604 302 303
1035 1 2 0 606 303 304
1036 1 2 0 608 304 305
1037 1 2 0 610 305 306
1038 1 2 0 612 306 445
1039 1 2 0 612 445 446
1040 1 2 0 612 446 447
1041 1 2 0 612 447 448
1042 1 2 0 612 448 307
1043 1 2 0 614 307 449
1044 1 2 0 614 449 450
1045 1 2 0 614 450 451
1046 1 2 0 614 451 452
1047 1 2 0 614 452 308
1048 1 2 0 616 308 309
1049 1 2 0 618 309 310
1050 1 2 0 620 310 311
1051 1 2 0 622 311 312
1052 1 2 0 624 312 453
1053 1 2 0 624 453 454
1054 1 2 0 624 454 455
1055 1 2 0 624 455 456
1056 1 2 0 624 456 289
1057 2 2 0 38 26 2 457
1058 2 2 0 38 1 25 457
1059 2 2 0 38 2 1 457
1060 2 2 0 38 25 26 457
1061 2 2 0 39 26 3 2
1062 2 2 0 39 27 3 26
1063 2 2 0 40 27 4 3
1064 2 2 0 40 28 4 27
1065 2 2 0 41 28 5 4
1066 2 2 0 41 29 5 28
1067 2 2 0 42 29 6 5
1068 2 2 0 42 30 6 29
1069 2 2 0 43 6 30 458
1070 2 2 0 43 31 7 458
1071 2 2 0 43 7 6 458
1072 2 2 0 43 30 31 458
1073 2 2 0 44 32 8 459
1074 2 2 0 44 7 31 459
1075 2 2 0 44 8 7 459
1076 2 2 0 44 31 32 459
1077 2 2 0 45 33 9 8
1078 2 2 0 45 32 33 8
1079 2 2 0 46 34 10 9
1080 2 2 0 46 33 34 9
1081 2 2 0 47 35 11 10
1082 2 2 0 47 34 35 10
1083 2 2 0 48 36 12 11
1084 2 2 0 48 35 36 11
1085 2 2 0 49 12 36 460
1086 2 2 0 49 37 13 460
1087 2 2 0 49 13 12 460
1088 2 2 0 49 36 37 460
1089 2 2 0 50 38 14 461
1090 2 2 0 50 13 37 461
1091 2 2 0 50 14 13 461
1092 2 2 0 50 37 38 461
1093 2 2 0 51 38 15 14
1094 2 2 0 51 39 15 38
1095 2 2 0 52 39 16 15
1096 2 2 0 52 40 16 39
1097 2 2 0 53 40 17 16
1098 2 2 0 53 41 17 40
1099 2 2 0 54 41 18 17
1100 2 2 0 54 42 18 41
1101 2 2 0 55 18 42 462
1102 2 2 0 55 43 19 462
1103 2 2 0 55 19 18 462
1104 2 2 0 55 42 43 462
1105 2 2 0 56 44 20 463
1106 2 2 0 56 19 43 463
1107 2 2 0 56 20 19 463
1108 2 2 0 56 43 44 463
1109 2 2 0 57 45 21 20
1110 2 2 0 57 44 45 20
1111 2 2 0 58 46 22 21
1112 2 2 0 58 45 46 21
1113 2 2 0 59 47 23 22
1114 2 2 0 59 46 47 22
1115 2 2 0 60 48 24 23
1116 2 2 0 60 47 48 23
1117 2 2 0 61 24 48 464
1118 2 2 0 61 25 1 464
1119 2 2 0 61 1 24 464
1120 2 2 0 61 48 25 464
1121 2 2 0 62 49 50 465
1122 2 2 0 62 26 25 465
1123 2 2 0 62 50 26 465
1124 2 2 0 62 25 49 465
1125 2 2 0 63 51 27 50
1126 2 2 0 63 50 27 26
1127 2 2 0 64 52 28 51
1128 2 2 0 64 51 28 27
1129 2 2 0 65 53 29 52
1130 2 2 0 65 52 29 28
1131 2 2 0 66 54 30 53
1132 2 2 0 66 53 30 29
1133 2 2 0 67 54 55 466
1134 2 2 0 67 31 30 466
1135 2 2 0 67 30 54 466
1136 2 2 0 67 55 31 466
1137 2 2 0 68 55 56 467
1138 2 2 0 68 32 31 467
1139 2 2 0 68 56 32 467
1140 2 2 0 68 31 55 467
1141 2 2 0 69 56 57 32
1142 2 2 0 69 57 33 32
1143 2 2 0 70 57 58 33
1144 2 2 0 70 58 34 33
1145 2 2 0 71 58 59 34
1146 2 2 0 71 59 35 34
1147 2 2 0 72 59 60 35
1148 2 2 0 72 60 36 35
1149 2 2 0 73 60 61 468
1150 2 2 0 73 37 36 468
1151 2 2 0 73 36 60 468
1152 2 2 0 73 61 37 468
1153 2 2 0 74 61 62 469
1154 2 2 0 74 38 37 469
1155 2 2 0 74 62 38 469
1156 2 2 0 74 37 61 469
1157 2 2 0 75 63 39 62
1158 2 2 0 75 62 39 38
1159 2 2 0 76 64 40 63
1160 2 2 0 76 63 40 39
1161 2 2 0 77 65 41 64
1162 2 2 0 77 64 41 40
1163 2 2 0 78 66 42 65
1164 2 2 0 78 65 42 41
1165 2 2 0 79 66 67 470
1166 2 2 0 79 43 42 470
1167 2 2 0 79 42 66 470
1168 2 2 0 79 67 43 470
1169 2 2 0 80 67 68 471
1170 2 2 0 80 44 43 471
1171 2 2 0 80 68 44 471
1172 2 2 0 80 43 67 471
1173 2 2 0 81 68 69 44
1174 2 2 0 81 69 45 44
1175 2 2 0 82 69 70 45
1176 2 2 0 82 70 46 45
1177 2 2 0 83 70 71 46
1178 2 2 0 83 71 47 46
1179 2 2 0 84 71 72 47
1180 2 2 0 84 72 48 47
1181 2 2 0 85 72 49 472
1182 2 2 0 85 25 48 472
1183 2 2 0 85 48 72 472
1184 2 2 0 85 49 25 472
1185 2 2 0 86 74 50 473
1186 2 2 0 86 73 74 473
1187 2 2 0 86 49 73 473
1188 2 2 0 86 50 49 473
1189 2 2 0 87 74 51 50
1190 2 2 0 87 74 75 51
1191 2 2 0 88 75 52 51
1192 2 2 0 88 76 52 75
1193 2 2 0 89 76 53 52
1194 2 2 0 89 77 53 76
1195 2 2 0 90 77 54 53
1196 2 2 0 90 78 54 77
1197 2 2 0 91 78 79 474
1198 2 2 0 91 54 78 474
1199 2 2 0 91 79 55 474
1200 2 2 0 91 55 54 474
1201 2 2 0 92 79 80 475
1202 2 2 0 92 80 56 475
1203 2 2 0 92 55 79 475
1204 2 2 0 92 56 55 475
1205 2 2 0 93 81 57 56
1206 2 2 0 93 80 81 56
1207 2 2 0 94 82 58 57
1208 2 2 0 94 81 82 57
1209 2 2 0 95 83 59 58
1210 2 2 0 95 82 83 58
1211 2 2 0 96 84 60 59
1212 2 2 0 96 83 84 59
1213 2 2 0 97 84 85 476
1214 2 2 0 97 60 84 476
1215 2 2 0 97 85 61 476
1216 2 2 0 97 61 60 476
1217 2 2 0 98 86 62 477
1218 2 2 0 98 85 86 477
1219 2 2 0 98 61 85 477
1220 2 2 0 98 62 61 477
1221 2 2 0 99 86 63 62
1222 2 2 0 99 86 87 63
1223 2 2 0 100 87 64 63
1224 2 2 0 100 88 64 87
1225 2 2 0 101 88 65 64
1226 2 2 0 101 89 65 88
1227 2 2 0 102 89 66 65
1228 2 2 0 102 90 66 89
1229 2 2 0 103 90 91 478
1230 2 2 0 103 66 90 478
1231 2 2 0 103 91 67 478
1232 2 2 0 103 67 66 478
1233 2 2 0 104 91 92 479
1234 2 2 0 104 92 68 479
1235 2 2 0 104 67 91 479
1236 2 2 0 104 68 67 479
1237 2 2 0 105 93 69 68
1238 2 2 0 105 92 93 68
1239 2 2 0 106 94 70 69
1240 2 2 0 106 93 94 69
1241 2 2 0 107 95 71 70
1242 2 2 0 107 94 95 70
1243 2 2 0 108 96 72 71
1244 2 2 0 108 95 96 71
1245 2 2 0 109 96 73 480
1246 2 2 0 109 72 96 480
1247 2 2 0 109 73 49 480
1248 2 2 0 109 49 72 480
1249 2 2 0 110 98 74 481
1250 2 2 0 110 73 97 481
1251 2 2 0 110 97 98 481
1252 2 2 0 110 74 73 481
1253 2 2 0 111 98 75 74
1254 2 2 0 111 98 99 75
1255 2 2 0 112 99 76 75
1256 2 2 0 112 99 100 76
1257 2 2 0 113 100 77 76
1258 2 2 0 113 100 101 77
1259 2 2 0 114 101 78 77
1260 2 2 0 114 102 78 101
1261 2 2 0 115 102 103 482
1262 2 2 0 115 78 102 482
1263 2 2 0 115 103 79 482
1264 2 2 0 115 79 78 482
1265 2 2 0 116 103 104 483
1266 2 2 0 116 104 80 483
1267 2 2 0 116 79 103 483
1268 2 2 0 116 80 79 483
1269 2 2 0 117 105 81 80
1270 2 2 0 117 104 105 80
1271 2 2 0 118 81 106 82
1272 2 2 0 118 105 106 81
1273 2 2 0 119 82 107 83
1274 2 2 0 119 106 107 82
1275 2 2 0 120 83 108 84
1276 2 2 0 120 107 108 83
1277 2 2 0 121 84 108 484
1278 2 2 0 121 109 85 484
1279 2 2 0 121 108 109 484
1280 2 2 0 121 85 84 484
1281 2 2 0 122 110 86 485
1282 2 2 0 122 85 109 485
1283 2 2 0 122 109 110 485
1284 2 2 0 122 86 85 485
1285 2 2 0 123 110 87 86
1286 2 2 0 123 110 111 87
1287 2 2 0 124 111 88 87
1288 2 2 0 124 111 112 88
1289 2 2 0 125 112 89 88
1290 2 2 0 125 112 113 89
1291 2 2 0 126 113 90 89
1292 2 2 0 126 114 90 113
1293 2 2 0 127 114 115 486
1294 2 2 0 127 90 114 486
1295 2 2 0 127 115 91 486
1296 2 2 0 127 91 90 486
1297 2 2 0 128 115 116 487
1298 2 2 0 128 116 92 487
1299 2 2 0 128 91 115 487
1300 2 2 0 128 92 91 487
1301 2 2 0 129 117 93 92
1302 2 2 0 129 116 117 92
1303 2 2 0 130 93 118 94
1304 2 2 0 130 117 118 93
1305 2 2 0 131 94 119 95
1306 2 2 0 131 118 119 94
1307 2 2 0 132 95 120 96
1308 2 2 0 132 119 120 95
1309 2 2 0 133 96 120 488
1310 2 2 0 133 97 73 488
1311 2 2 0 133 120 97 488
1312 2 2 0 133 73 96 488
1313 2 2 0 134 121 122 489
1314 2 2 0 134 122 98 489
1315 2 2 0 134 97 121 489
1316 2 2 0 134 98 97 489
1317 2 2 0 135 122 99 98
1318 2 2 0 135 122 123 99
1319 2 2 0 136 123 100 99
1320 2 2 0 136 123 124 100
1321 2 2 0 137 124 101 100
1322 2 2 0 137 124 125 101
1323 2 2 0 138 125 102 101
1324 2 2 0 138 125 126 102
1325 2 2 0 139 126 127 490
1326 2 2 0 139 102 126 490
1327 2 2 0 139 127 103 490
1328 2 2 0 139 103 102 490
1329 2 2 0 140 127 128 491
1330 2 2 0 140 128 104 491
1331 2 2 0 140 103 127 491
1332 2 2 0 140 104 103 491
1333 2 2 0 141 104 129 105
1334 2 2 0 141 128 129 104
1335 2 2 0 142 105 130 106
1336 2 2 0 142 129 130 105
1337 2 2 0 143 106 131 107
1338 2 2 0 143 130 131 106
1339 2 2 0 144 107 132 108
1340 2 2 0 144 131 132 107
1341 2 2 0 145 132 133 492
1342 2 2 0 145 108 132 492
1343 2 2 0 145 133 109 492
1344 2 2 0 145 109 108 492
1345 2 2 0 146 133 134 493
1346 2 2 0 146 134 110 493
1347 2 2 0 146 109 133 493
1348 2 2 0 146 110 109 493
1349 2 2 0 147 134 111 110
1350 2 2 0 147 134 135 111
1351 2 2 0 148 135 112 111
1352 2 2 0 148 135 136 112
1353 2 2 0 149 136 113 112
1354 2 2 0 149 136 137 113
1355 2 2 0 150 137 114 113
1356 2 2 0 150 137 138 114
1357 2 2 0 151 138 139 494
1358 2 2 0 151 114 138 494
1359 2 2 0 151 139 115 494
1360 2 2 0 151 115 114 494
1361 2 2 0 152 139 140 495
1362 2 2 0 152 140 116 495
1363 2 2 0 152 115 139 495
1364 2 2 0 152 116 115 495
1365 2 2 0 153 116 141 117
1366 2 2 0 153 140 141 116
1367 2 2 0 154 117 142 118
1368 2 2 0 154 141 142 117
1369 2 2 0 155 118 143 119
1370 2 2 0 155 142 143 118
1371 2 2 0 156 119 144 120
1372 2 2 0 156 143 144 119
1373 2 2 0 157 144 121 496
1374 2 2 0 157 120 144 496
1375 2 2 0 157 121 97 496
1376 2 2 0 157 97 120 496
1377 2 2 0 158 146 122 497
1378 2 2 0 158 122 121 497
1379 2 2 0 158 121 145 497
1380 2 2 0 158 145 146 497
1381 2 2 0 159 146 123 122
1382 2 2 0 159 146 147 123
1383 2 2 0 160 147 124 123
1384 2 2 0 160 147 148 124
1385 2 2 0 161 148 125 124
1386 2 2 0 161 148 149 125
1387 2 2 0 162 149 126 125
1388 2 2 0 162 149 150 126
1389 2 2 0 163 150 313 126
1390 2 2 0 163 127 126 498
1391 2 2 0 163 126 313 498
1392 2 2 0 163 151 127 498
1393 2 2 0 163 313 151 498
1394 2 2 0 164 128 314 152
1395 2 2 0 164 128 127 499
1396 2 2 0 164 314 128 499
1397 2 2 0 164 127 151 499
1398 2 2 0 164 151 314 499
1399 2 2 0 165 128 153 129
1400 2 2 0 165 152 153 128
1401 2 2 0 166 129 154 130
1402 2 2 0 166 153 154 129
1403 2 2 0 167 130 155 131
1404 2 2 0 167 154 155 130
1405 2 2 0 168 131 156 132
1406 2 2 0 168 155 156 131
1407 2 2 0 169 132 156 500
1408 2 2 0 169 133 132 500
1409 2 2 0 169 157 133 500
1410 2 2 0 169 156 157 500
1411 2 2 0 170 158 134 501
1412 2 2 0 170 134 133 501
1413 2 2 0 170 133 157 501
1414 2 2 0 170 157 158 501
1415 2 2 0 171 158 135 134
1416 2 2 0 171 158 159 135
1417 2 2 0 172 159 136 135
1418 2 2 0 172 159 160 136
1419 2 2 0 173 160 137 136
1420 2 2 0 173 160 161 137
1421 2 2 0 174 161 138 137
1422 2 2 0 174 161 162 138
1423 2 2 0 175 162 315 138
1424 2 2 0 175 139 138 502
1425 2 2 0 175 138 315 502
1426 2 2 0 175 163 139 502
1427 2 2 0 175 315 163 502
1428 2 2 0 176 140 316 164
1429 2 2 0 176 140 139 503
1430 2 2 0 176 316 140 503
1431 2 2 0 176 139 163 503
1432 2 2 0 176 163 316 503
1433 2 2 0 177 140 165 141
1434 2 2 0 177 164 165 140
1435 2 2 0 178 141 166 142
1436 2 2 0 178 165 166 141
1437 2 2 0 179 142 167 143
1438 2 2 0 179 166 167 142
1439 2 2 0 180 143 168 144
1440 2 2 0 180 167 168 143
1441 2 2 0 181 144 168 504
1442 2 2 0 181 121 144 504
1443 2 2 0 181 145 121 504
1444 2 2 0 181 168 145 504
1445 2 2 0 182 169 317 145
1446 2 2 0 182 146 317 170
1447 2 2 0 182 317 146 145
1448 2 2 0 183 170 147 146
1449 2 2 0 183 170 171 147
1450 2 2 0 184 171 148 147
1451 2 2 0 184 171 172 148
1452 2 2 0 185 172 149 148
1453 2 2 0 185 172 173 149
1454 2 2 0 186 173 150 149
1455 2 2 0 186 174 150 173
1456 2 2 0 187 313 318 175
1457 2 2 0 187 174 318 150
1458 2 2 0 187 318 313 150
1459 2 2 0 187 151 313 175
1460 2 2 0 188 319 314 175
1461 2 2 0 188 152 319 176
1462 2 2 0 188 152 314 319
1463 2 2 0 188 175 314 151
1464 2 2 0 189 177 153 152
1465 2 2 0 189 176 177 152
1466 2 2 0 190 153 178 154
1467 2 2 0 190 177 178 153
1468 2 2 0 191 154 179 155
1469 2 2 0 191 178 179 154
1470 2 2 0 192 155 180 156
1471 2 2 0 192 179 180 155
1472 2 2 0 193 157 320 181
1473 2 2 0 193 180 320 156
1474 2 2 0 193 320 157 156
1475 2 2 0 194 181 321 157
1476 2 2 0 194 158 321 182
1477 2 2 0 194 321 158 157
1478 2 2 0 195 182 159 158
1479 2 2 0 195 182 183 159
1480 2 2 0 196 183 160 159
1481 2 2 0 196 183 184 160
1482 2 2 0 197 184 161 160
1483 2 2 0 197 184 185 161
1484 2 2 0 198 185 162 161
1485 2 2 0 198 186 162 185
1486 2 2 0 199 315 322 187
1487 2 2 0 199 186 322 162
1488 2 2 0 199 322 315 162
1489 2 2 0 199 163 315 187
1490 2 2 0 200 323 316 187
1491 2 2 0 200 164 323 188
1492 2 2 0 200 164 316 323
1493 2 2 0 200 187 316 163
1494 2 2 0 201 189 165 164
1495 2 2 0 201 188 189 164
1496 2 2 0 202 165 190 166
1497 2 2 0 202 189 190 165
1498 2 2 0 203 166 191 167
1499 2 2 0 203 190 191 166
1500 2 2 0 204 167 192 168
1501 2 2 0 204 191 192 167
1502 2 2 0 205 169 145 324
1503 2 2 0 205 192 324 168
1504 2 2 0 205 324 145 168
1505 2 2 0 206 326 170 506
1506 2 2 0 206 169 193 505
1507 2 2 0 206 170 317 506
1508 2 2 0 206 317 169 505
1509 2 2 0 206 193 325 505
1510 2 2 0 206 325 326 506
1511 2 2 0 206 317 505 506
1512 2 2 0 206 505 325 506
1513 2 2 0 206 170 326 194
1514 2 2 0 207 194 171 170
1515 2 2 0 207 194 195 171
1516 2 2 0 208 195 172 171
1517 2 2 0 208 195 196 172
1518 2 2 0 209 196 173 172
1519 2 2 0 209 197 173 196
1520 2 2 0 210 197 174 173
1521 2 2 0 210 198 174 197
1522 2 2 0 211 333 318 332
1523 2 2 0 211 332 318 174
1524 2 2 0 211 198 332 174
1525 2 2 0 211 199 175 507
1526 2 2 0 211 318 333 507
1527 2 2 0 211 175 318 507
1528 2 2 0 211 333 199 507
1529 2 2 0 212 335 319 334
1530 2 2 0 212 176 319 335
1531 2 2 0 212 176 335 200
1532 2 2 0 212 175 199 508
1533 2 2 0 212 334 319 508
1534 2 2 0 212 319 175 508
1535 2 2 0 212 199 334 508
1536 2 2 0 213 201 177 176
1537 2 2 0 213 200 201 176
1538 2 2 0 214 202 178 177
1539 2 2 0 214 201 202 177
1540 2 2 0 215 178 203 179
1541 2 2 0 215 202 203 178
1542 2 2 0 216 179 204 180
1543 2 2 0 216 203 204 179
1544 2 2 0 217 180 341 510
1545 2 2 0 217 205 181 509
1546 2 2 0 217 320 180 510
1547 2 2 0 217 181 320 509
1548 2 2 0 217 342 205 509
1549 2 2 0 217 341 342 510
1550 2 2 0 217 509 320 510
1551 2 2 0 217 342 509 510
1552 2 2 0 217 204 341 180
1553 2 2 0 218 344 182 512
1554 2 2 0 218 181 205 511
1555 2 2 0 218 182 321 512
1556 2 2 0 218 321 181 511
1557 2 2 0 218 205 343 511
1558 2 2 0 218 343 344 512
1559 2 2 0 218 321 511 512
1560 2 2 0 218 511 343 512
1561 2 2 0 218 182 344 206
1562 2 2 0 219 206 183 182
1563 2 2 0 219 206 207 183
1564 2 2 0 220 207 184 183
1565 2 2 0 220 207 208 184
1566 2 2 0 221 208 185 184
1567 2 2 0 221 209 185 208
1568 2 2 0 222 209 186 185
1569 2 2 0 222 210 186 209
1570 2 2 0 223 351 322 350
1571 2 2 0 223 350 322 186
1572 2 2 0 223 210 350 186
1573 2 2 0 223 211 187 513
1574 2 2 0 223 322 351 513
1575 2 2 0 223 187 322 513
1576 2 2 0 223 351 211 513
1577 2 2 0 224 353 323 352
1578 2 2 0 224 188 323 353
1579 2 2 0 224 188 353 212
1580 2 2 0 224 187 211 514
1581 2 2 0 224 352 323 514
1582 2 2 0 224 323 187 514
1583 2 2 0 224 211 352 514
1584 2 2 0 225 213 189 188
1585 2 2 0 225 212 213 188
1586 2 2 0 226 214 190 189
1587 2 2 0 226 213 214 189
1588 2 2 0 227 190 215 191
1589 2 2 0 227 214 215 190
1590 2 2 0 228 191 216 192
1591 2 2 0 228 215 216 191
1592 2 2 0 229 192 359 516
1593 2 2 0 229 193 169 515
1594 2 2 0 229 324 192 516
1595 2 2 0 229 169 324 515
1596 2 2 0 229 360 193 515
1597 2 2 0 229 359 360 516
1598 2 2 0 229 515 324 516
1599 2 2 0 229 360 515 516
1600 2 2 0 229 216 359 192
1601 2 2 0 230 326 361 517
1602 2 2 0 230 361 362 517
1603 2 2 0 230 326 325 361
1604 2 2 0 230 217 361 518
1605 2 2 0 230 327 194 517
1606 2 2 0 230 362 327 517
1607 2 2 0 230 194 326 517
1608 2 2 0 230 361 325 518
1609 2 2 0 230 193 217 518
1610 2 2 0 230 325 193 518
1611 2 2 0 230 218 327 362
1612 2 2 0 231 327 195 194
1613 2 2 0 231 328 195 327
1614 2 2 0 231 219 328 218
1615 2 2 0 231 328 327 218
1616 2 2 0 232 328 196 195
1617 2 2 0 232 329 196 328
1618 2 2 0 232 220 329 219
1619 2 2 0 232 329 328 219
1620 2 2 0 233 329 197 196
1621 2 2 0 233 330 197 329
1622 2 2 0 233 221 329 220
1623 2 2 0 233 221 330 329
1624 2 2 0 234 331 198 197
1625 2 2 0 234 330 331 197
1626 2 2 0 234 222 330 221
1627 2 2 0 234 222 331 330
1628 2 2 0 235 333 364 223
1629 2 2 0 235 199 333 223
1630 2 2 0 235 363 364 519
1631 2 2 0 235 364 332 519
1632 2 2 0 235 198 331 519
1633 2 2 0 235 333 332 364
1634 2 2 0 235 331 363 519
1635 2 2 0 235 332 198 519
1636 2 2 0 235 363 331 222
1637 2 2 0 236 365 334 223
1638 2 2 0 236 223 334 199
1639 2 2 0 236 365 366 520
1640 2 2 0 236 335 365 520
1641 2 2 0 236 336 200 520
1642 2 2 0 236 335 334 365
1643 2 2 0 236 366 336 520
1644 2 2 0 236 200 335 520
1645 2 2 0 236 224 336 366
1646 2 2 0 237 336 201 200
1647 2 2 0 237 337 201 336
1648 2 2 0 237 225 337 224
1649 2 2 0 237 337 336 224
1650 2 2 0 238 338 202 201
1651 2 2 0 238 337 338 201
1652 2 2 0 238 226 338 225
1653 2 2 0 238 338 337 225
1654 2 2 0 239 339 203 202
1655 2 2 0 239 338 339 202
1656 2 2 0 239 227 338 226
1657 2 2 0 239 227 339 338
1658 2 2 0 240 340 204 203
1659 2 2 0 240 339 340 203
1660 2 2 0 240 228 339 227
1661 2 2 0 240 228 340 339
1662 2 2 0 241 368 341 521
1663 2 2 0 241 367 368 521
1664 2 2 0 241 368 342 341
1665 2 2 0 241 368 229 522
1666 2 2 0 241 204 340 521
1667 2 2 0 241 340 367 521
1668 2 2 0 241 341 204 521
1669 2 2 0 241 342 368 522
1670 2 2 0 241 229 205 522
1671 2 2 0 241 205 342 522
1672 2 2 0 241 367 340 228
1673 2 2 0 242 344 369 523
1674 2 2 0 242 369 370 523
1675 2 2 0 242 344 343 369
1676 2 2 0 242 229 369 524
1677 2 2 0 242 345 206 523
1678 2 2 0 242 370 345 523
1679 2 2 0 242 206 344 523
1680 2 2 0 242 369 343 524
1681 2 2 0 242 205 229 524
1682 2 2 0 242 343 205 524
1683 2 2 0 242 345 370 230
1684 2 2 0 243 345 207 206
1685 2 2 0 243 346 207 345
1686 2 2 0 243 231 346 230
1687 2 2 0 243 346 345 230
1688 2 2 0 244 346 208 207
1689 2 2 0 244 347 208 346
1690 2 2 0 244 232 347 231
1691 2 2 0 244 347 346 231
1692 2 2 0 245 347 209 208
1693 2 2 0 245 348 209 347
1694 2 2 0 245 233 347 232
1695 2 2 0 245 233 348 347
1696 2 2 0 246 349 210 209
1697 2 2 0 246 348 349 209
1698 2 2 0 246 234 348 233
1699 2 2 0 246 234 349 348
1700 2 2 0 247 372 235 351
1701 2 2 0 247 235 211 351
1702 2 2 0 247 371 372 525
1703 2 2 0 247 372 350 525
1704 2 2 0 247 210 349 525
1705 2 2 0 247 350 372 351
1706 2 2 0 247 349 371 525
1707 2 2 0 247 350 210 525
1708 2 2 0 247 371 349 234
1709 2 2 0 248 373 352 235
1710 2 2 0 248 235 352 211
1711 2 2 0 248 373 374 526
1712 2 2 0 248 353 373 526
1713 2 2 0 248 354 212 526
1714 2 2 0 248 373 353 352
1715 2 2 0 248 374 354 526
1716 2 2 0 248 212 353 526
1717 2 2 0 248 374 236 354
1718 2 2 0 249 354 213 212
1719 2 2 0 249 213 354 355
1720 2 2 0 249 236 237 355
1721 2 2 0 249 354 236 355
1722 2 2 0 250 356 214 213
1723 2 2 0 250 355 356 213
1724 2 2 0 250 237 238 356
1725 2 2 0 250 355 237 356
1726 2 2 0 251 357 215 214
1727 2 2 0 251 356 357 214
1728 2 2 0 251 239 356 238
1729 2 2 0 251 356 239 357
1730 2 2 0 252 358 216 215
1731 2 2 0 252 357 358 215
1732 2 2 0 252 240 357 239
1733 2 2 0 252 357 240 358
1734 2 2 0 253 376 359 527
1735 2 2 0 253 375 376 527
1736 2 2 0 253 376 360 359
1737 2 2 0 253 376 217 528
1738 2 2 0 253 216 358 527
1739 2 2 0 253 358 375 527
1740 2 2 0 253 359 216 527
1741 2 2 0 253 360 376 528
1742 2 2 0 253 217 193 528
1743 2 2 0 253 193 360 528
1744 2 2 0 253 375 358 240
1745 2 2 0 254 218 362 379
1746 2 2 0 254 361 217 529
1747 2 2 0 254 379 362 378
1748 2 2 0 254 362 361 530
1749 2 2 0 254 241 377 529
1750 2 2 0 254 218 379 242
1751 2 2 0 254 377 378 530
1752 2 2 0 254 378 362 530
1753 2 2 0 254 377 361 529
1754 2 2 0 254 217 241 529
1755 2 2 0 254 361 377 530
1756 2 2 0 255 242 219 218
1757 2 2 0 255 242 243 219
1758 2 2 0 256 243 220 219
1759 2 2 0 256 244 220 243
1760 2 2 0 257 244 245 220
1761 2 2 0 257 245 221 220
1762 2 2 0 258 221 246 222
1763 2 2 0 258 245 246 221
1764 2 2 0 259 364 363 532
1765 2 2 0 259 381 382 532
1766 2 2 0 259 246 380 222
1767 2 2 0 259 382 247 531
1768 2 2 0 259 363 381 532
1769 2 2 0 259 247 223 531
1770 2 2 0 259 364 382 531
1771 2 2 0 259 382 364 532
1772 2 2 0 259 223 364 531
1773 2 2 0 259 380 363 222
1774 2 2 0 259 380 381 363
1775 2 2 0 260 366 365 534
1776 2 2 0 260 383 384 534
1777 2 2 0 260 224 385 248
1778 2 2 0 260 247 383 533
1779 2 2 0 260 384 366 534
1780 2 2 0 260 223 247 533
1781 2 2 0 260 383 365 533
1782 2 2 0 260 365 383 534
1783 2 2 0 260 365 223 533
1784 2 2 0 260 385 224 366
1785 2 2 0 260 384 385 366
1786 2 2 0 261 248 225 224
1787 2 2 0 261 248 249 225
1788 2 2 0 262 250 226 249
1789 2 2 0 262 249 226 225
1790 2 2 0 263 251 227 226
1791 2 2 0 263 250 251 226
1792 2 2 0 264 227 252 228
1793 2 2 0 264 251 252 227
1794 2 2 0 265 386 367 228
1795 2 2 0 265 229 368 535
1796 2 2 0 265 387 367 386
1797 2 2 0 265 368 367 536
1798 2 2 0 265 388 253 535
1799 2 2 0 265 252 386 228
1800 2 2 0 265 387 388 536
1801 2 2 0 265 367 387 536
1802 2 2 0 265 368 388 535
1803 2 2 0 265 253 229 535
1804 2 2 0 265 388 368 536
1805 2 2 0 266 391 230 370
1806 2 2 0 266 369 229 537
1807 2 2 0 266 390 391 370
1808 2 2 0 266 370 369 538
1809 2 2 0 266 253 389 537
1810 2 2 0 266 230 391 254
1811 2 2 0 266 389 390 538
1812 2 2 0 266 390 370 538
1813 2 2 0 266 389 369 537
1814 2 2 0 266 229 253 537
1815 2 2 0 266 369 389 538
1816 2 2 0 267 254 231 230
1817 2 2 0 267 254 255 231
1818 2 2 0 268 255 232 231
1819 2 2 0 268 256 232 255
1820 2 2 0 269 256 257 232
1821 2 2 0 269 257 233 232
1822 2 2 0 270 233 258 234
1823 2 2 0 270 257 258 233
1824 2 2 0 271 372 371 540
1825 2 2 0 271 393 394 540
1826 2 2 0 271 258 392 234
1827 2 2 0 271 394 259 539
1828 2 2 0 271 371 393 540
1829 2 2 0 271 259 235 539
1830 2 2 0 271 372 394 539
1831 2 2 0 271 394 372 540
1832 2 2 0 271 235 372 539
1833 2 2 0 271 392 371 234
1834 2 2 0 271 393 371 392
1835 2 2 0 272 374 373 542
1836 2 2 0 272 395 396 542
1837 2 2 0 272 236 397 260
1838 2 2 0 272 259 395 541
1839 2 2 0 272 396 374 542
1840 2 2 0 272 235 259 541
1841 2 2 0 272 395 373 541
1842 2 2 0 272 373 395 542
1843 2 2 0 272 373 235 541
1844 2 2 0 272 236 374 397
1845 2 2 0 272 397 374 396
1846 2 2 0 273 260 237 236
1847 2 2 0 273 260 261 237
1848 2 2 0 274 262 238 261
1849 2 2 0 274 261 238 237
1850 2 2 0 275 263 239 238
1851 2 2 0 275 262 263 238
1852 2 2 0 276 239 264 240
1853 2 2 0 276 263 264 239
1854 2 2 0 277 398 375 240
1855 2 2 0 277 217 376 543
1856 2 2 0 277 399 375 398
1857 2 2 0 277 376 375 544
1858 2 2 0 277 400 241 543
1859 2 2 0 277 264 398 240
1860 2 2 0 277 399 400 544
1861 2 2 0 277 375 399 544
1862 2 2 0 277 376 400 543
1863 2 2 0 277 241 217 543
1864 2 2 0 277 400 376 544
1865 2 2 0 278 379 378 402
1866 2 2 0 278 242 403 266
1867 2 2 0 278 242 379 403
1868 2 2 0 278 401 377 545
1869 2 2 0 278 241 265 545
1870 2 2 0 278 377 241 545
1871 2 2 0 278 265 401 545
1872 2 2 0 278 378 377 401
1873 2 2 0 278 402 378 401
1874 2 2 0 278 403 379 402
1875 2 2 0 279 266 243 242
1876 2 2 0 279 266 267 243
1877 2 2 0 280 267 244 243
1878 2 2 0 280 268 244 267
1879 2 2 0 281 269 245 244
1880 2 2 0 281 268 269 244
1881 2 2 0 282 245 270 246
1882 2 2 0 282 269 270 245
1883 2 2 0 283 381 380 405
1884 2 2 0 283 270 404 246
1885 2 2 0 283 404 380 246
1886 2 2 0 283 382 406 546
1887 2 2 0 283 271 247 546
1888 2 2 0 283 247 382 546
1889 2 2 0 283 406 271 546
1890 2 2 0 283 405 380 404
1891 2 2 0 283 382 381 406
1892 2 2 0 283 406 381 405
1893 2 2 0 284 385 384 408
1894 2 2 0 284 248 409 272
1895 2 2 0 284 248 385 409
1896 2 2 0 284 407 383 547
1897 2 2 0 284 247 271 547
1898 2 2 0 284 383 247 547
1899 2 2 0 284 271 407 547
1900 2 2 0 284 384 383 407
1901 2 2 0 284 408 384 407
1902 2 2 0 284 409 385 408
1903 2 2 0 285 272 249 248
1904 2 2 0 285 272 273 249
1905 2 2 0 286 273 250 249
1906 2 2 0 286 273 274 250
1907 2 2 0 287 275 251 250
1908 2 2 0 287 274 275 250
1909 2 2 0 288 251 276 252
1910 2 2 0 288 275 276 251
1911 2 2 0 289 387 386 411
1912 2 2 0 289 276 410 252
1913 2 2 0 289 410 386 252
1914 2 2 0 289 388 412 548
1915 2 2 0 289 277 253 548
1916 2 2 0 289 253 388 548
1917 2 2 0 289 412 277 548
1918 2 2 0 289 411 386 410
1919 2 2 0 289 388 387 412
1920 2 2 0 289 412 387 411
1921 2 2 0 290 391 390 414
1922 2 2 0 290 254 415 278
1923 2 2 0 290 254 391 415
1924 2 2 0 290 413 389 549
1925 2 2 0 290 253 277 549
1926 2 2 0 290 389 253 549
1927 2 2 0 290 277 413 549
1928 2 2 0 290 390 389 413
1929 2 2 0 290 414 390 413
1930 2 2 0 290 415 391 414
1931 2 2 0 291 278 255 254
1932 2 2 0 291 278 279 255
1933 2 2 0 292 279 256 255
1934 2 2 0 292 280 256 279
1935 2 2 0 293 281 257 256
1936 2 2 0 293 280 281 256
1937 2 2 0 294 257 282 258
1938 2 2 0 294 281 282 257
1939 2 2 0 295 393 392 417
1940 2 2 0 295 282 416 258
1941 2 2 0 295 416 392 258
1942 2 2 0 295 394 418 550
1943 2 2 0 295 283 259 550
1944 2 2 0 295 259 394 550
1945 2 2 0 295 418 283 550
1946 2 2 0 295 417 392 416
1947 2 2 0 295 394 393 418
1948 2 2 0 295 418 393 417
1949 2 2 0 296 397 396 420
1950 2 2 0 296 260 421 284
1951 2 2 0 296 260 397 421
1952 2 2 0 296 419 395 551
1953 2 2 0 296 259 283 551
1954 2 2 0 296 395 259 551
1955 2 2 0 296 283 419 551
1956 2 2 0 296 396 395 419
1957 2 2 0 296 420 396 419
1958 2 2 0 296 421 397 420
1959 2 2 0 297 284 261 260
1960 2 2 0 297 284 285 261
1961 2 2 0 298 285 262 261
1962 2 2 0 298 285 286 262
1963 2 2 0 299 287 263 262
1964 2 2 0 299 286 287 262
1965 2 2 0 300 263 288 264
1966 2 2 0 300 287 288 263
1967 2 2 0 301 399 398 423
1968 2 2 0 301 288 422 264
1969 2 2 0 301 422 398 264
1970 2 2 0 301 400 424 552
1971 2 2 0 301 265 241 552
1972 2 2 0 301 241 400 552
1973 2 2 0 301 424 265 552
1974 2 2 0 301 423 398 422
1975 2 2 0 301 400 399 424
1976 2 2 0 301 424 399 423
1977 2 2 0 302 266 428 290
1978 2 2 0 302 266 403 428
1979 2 2 0 302 402 401 426
1980 2 2 0 302 403 402 427
1981 2 2 0 302 427 402 426
1982 2 2 0 302 428 403 427
1983 2 2 0 302 289 425 265
1984 2 2 0 302 425 401 265
1985 2 2 0 302 426 401 425
1986 2 2 0 303 290 267 266
1987 2 2 0 303 291 267 290
1988 2 2 0 304 292 268 267
1989 2 2 0 304 291 292 267
1990 2 2 0 305 293 269 268
1991 2 2 0 305 292 293 268
1992 2 2 0 306 269 294 270
1993 2 2 0 306 293 294 269
1994 2 2 0 307 406 432 553
1995 2 2 0 307 295 271 553
1996 2 2 0 307 294 429 270
1997 2 2 0 307 429 404 270
1998 2 2 0 307 271 406 553
1999 2 2 0 307 432 295 553
2000 2 2 0 307 405 404 430
2001 2 2 0 307 430 404 429
2002 2 2 0 307 406 405 431
2003 2 2 0 307 431 405 430
2004 2 2 0 307 432 406 431
2005 2 2 0 308 272 436 296
2006 2 2 0 308 436 272 409
2007 2 2 0 308 434 408 407
2008 2 2 0 308 435 409 408
2009 2 2 0 308 435 408 434
2010 2 2 0 308 436 409 435
2011 2 2 0 308 295 433 271
2012 2 2 0 308 433 407 271
2013 2 2 0 308 434 407 433
2014 2 2 0 309 296 273 272
2015 2 2 0 309 296 297 273
2016 2 2 0 310 297 274 273
2017 2 2 0 310 298 274 297
2018 2 2 0 311 298 275 274
2019 2 2 0 311 299 275 298
2020 2 2 0 312 300 276 275
2021 2 2 0 312 299 300 275
2022 2 2 0 313 300 437 276
2023 2 2 0 313 437 410 276
2024 2 2 0 313 410 438 411
2025 2 2 0 313 438 410 437
2026 2 2 0 313 439 412 411
2027 2 2 0 313 438 439 411
2028 2 2 0 313 277 440 301
2029 2 2 0 313 440 277 412
2030 2 2 0 313 439 440 412
2031 2 2 0 314 302 278 444
2032 2 2 0 314 278 415 444
2033 2 2 0 314 414 413 442
2034 2 2 0 314 414 443 415
2035 2 2 0 314 443 414 442
2036 2 2 0 314 415 443 444
2037 2 2 0 314 301 441 277
2038 2 2 0 314 441 413 277
2039 2 2 0 314 442 413 441
2040 2 2 0 315 302 279 278
2041 2 2 0 315 303 279 302
2042 2 2 0 316 304 280 279
2043 2 2 0 316 303 304 279
2044 2 2 0 317 305 281 280
2045 2 2 0 317 304 305 280
2046 2 2 0 318 281 306 282
2047 2 2 0 318 305 306 281
2048 2 2 0 319 418 448 554
2049 2 2 0 319 307 283 554
2050 2 2 0 319 306 445 282
2051 2 2 0 319 445 416 282
2052 2 2 0 319 283 418 554
2053 2 2 0 319 448 307 554
2054 2 2 0 319 417 416 446
2055 2 2 0 319 446 416 445
2056 2 2 0 319 418 417 447
2057 2 2 0 319 447 417 446
2058 2 2 0 319 448 418 447
2059 2 2 0 320 308 284 452
2060 2 2 0 320 284 421 452
2061 2 2 0 320 420 419 450
2062 2 2 0 320 421 420 451
2063 2 2 0 320 451 420 450
2064 2 2 0 320 421 451 452
2065 2 2 0 320 307 449 283
2066 2 2 0 320 449 419 283
2067 2 2 0 320 419 449 450
2068 2 2 0 321 308 285 284
2069 2 2 0 321 308 309 285
2070 2 2 0 322 309 286 285
2071 2 2 0 322 310 286 309
2072 2 2 0 323 310 287 286
2073 2 2 0 323 311 287 310
2074 2 2 0 324 312 288 287
2075 2 2 0 324 311 312 287
2076 2 2 0 325 312 453 288
2077 2 2 0 325 453 422 288
2078 2 2 0 325 423 422 454
2079 2 2 0 325 454 422 453
2080 2 2 0 325 424 423 455
2081 2 2 0 325 423 454 455
2082 2 2 0 325 265 456 289
2083 2 2 0 325 265 424 456
2084 2 2 0 325 456 424 455
$EndElements
