$MeshFormat
2.2 0 8
$EndMeshFormat
$Nodes
580
1 12.7 0 0
2 10.083 7.721 0
3 9.673999999999999 8.228999999999999 0
4 9.231 8.722 0
5 8.782 9.173999999999999 0
6 8.359999999999999 9.561 0
7 0 12.7 0
8 -8.359999999999999 9.561 0
9 -8.782 9.173999999999999 0
10 -9.231 8.722 0
11 -9.673999999999999 8.228999999999999 0
12 -10.083 7.721 0
13 -12.7 0 0
14 -10.083 -7.721 0
15 -9.673999999999999 -8.228999999999999 0
16 -9.231 -8.722 0
17 -8.782 -9.173999999999999 0
18 -8.359999999999999 -9.561 0
19 0 -12.7 0
20 8.359999999999999 -9.561 0
21 8.782 -9.173999999999999 0
22 9.231 -8.722 0
23 9.673999999999999 -8.228999999999999 0
24 10.083 -7.721 0
25 12.947 0 4.676
26 10.308 7.893 4.676
27 9.923999999999999 8.441000000000001 4.676
28 9.51 8.986000000000001 4.676
29 9.065 9.470000000000001 4.676
30 8.598000000000001 9.833 4.676
31 0 12.852 4.676
32 -8.598000000000001 9.833 4.676
33 -9.065 9.470000000000001 4.676
34 -9.51 8.986000000000001 4.676
35 -9.923999999999999 8.441000000000001 4.676
36 -10.308 7.893 4.676
37 -12.947 0 4.676
38 -10.308 -7.893 4.676
39 -9.923999999999999 -8.441000000000001 4.676
40 -9.51 -8.986000000000001 4.676
41 -9.065 -9.470000000000001 4.676
42 -8.598000000000001 -9.833 4.676
43 0 -12.852 4.676
44 8.598000000000001 -9.833 4.676
45 9.065 -9.470000000000001 4.676
46 9.51 -8.986000000000001 4.676
47 9.923999999999999 -8.441000000000001 4.676
48 10.308 -7.893 4.676
49 14.536 0 13.058
50 11.742 8.991 13.058
51 11.498 9.781000000000001 13.058
52 11.243 10.623 13.058
53 10.813 11.296 13.058
54 10.086 11.535 13.058
55 0 13.862 13.058
56 -10.086 11.535 13.058
57 -10.813 11.296 13.058
58 -11.243 10.623 13.058
59 -11.498 9.781000000000001 13.058
60 -11.742 8.991 13.058
61 -14.536 0 13.058
62 -11.742 -8.991 13.058
63 -11.498 -9.781000000000001 13.058
64 -11.243 -10.623 13.058
65 -10.813 -11.296 13.058
66 -10.086 -11.535 13.058
67 0 -13.862 13.058
68 10.086 -11.535 13.058
69 10.813 -11.296 13.058
70 11.243 -10.623 13.058
71 11.498 -9.781000000000001 13.058
72 11.742 -8.991 13.058
73 19.042 0 25.893
74 15.722 12.039 25.893
75 15.768 13.412 25.893
76 15.82 14.949 25.893
77 15.378 16.065 25.893
78 14.056 16.075 25.893
79 0 16.927 25.893
80 -14.056 16.075 25.893
81 -15.378 16.065 25.893
82 -15.82 14.949 25.893
83 -15.768 13.412 25.893
84 -15.722 12.039 25.893
85 -19.042 0 25.893
86 -15.722 -12.039 25.893
87 -15.768 -13.412 25.893
88 -15.82 -14.949 25.893
89 -15.378 -16.065 25.893
90 -14.056 -16.075 25.893
91 0 -16.927 25.893
92 14.056 -16.075 25.893
93 15.378 -16.065 25.893
94 15.82 -14.949 25.893
95 15.768 -13.412 25.893
96 15.722 -12.039 25.893
97 27.969 0 44.437
98 23.436 17.945 44.437
99 23.855 20.292 44.437
100 24.291 22.953 44.437
101 23.747 24.808 44.437
102 21.466 24.549 44.437
103 0 23.496 44.437
104 -21.466 24.549 44.437
105 -23.747 24.808 44.437
106 -24.291 22.953 44.437
107 -23.855 20.292 44.437
108 -23.436 17.945 44.437
109 -27.969 0 44.437
110 -23.436 -17.945 44.437
111 -23.855 -20.292 44.437
112 -24.291 -22.953 44.437
113 -23.747 -24.808 44.437
114 -21.466 -24.549 44.437
115 0 -23.496 44.437
116 21.466 -24.549 44.437
117 23.747 -24.808 44.437
118 24.291 -22.953 44.437
119 23.855 -20.292 44.437
120 23.436 -17.945 44.437
121 41.847 0 68.35599999999999
122 35.259 26.998 68.35599999999999
123 36.06 30.673 68.35599999999999
124 36.877 34.845 68.35599999999999
125 36.107 37.72 68.35599999999999
126 32.534 37.208 68.35599999999999
127 0 34.363 68.35599999999999
128 -32.534 37.208 68.35599999999999
129 -36.107 37.72 68.35599999999999
130 -36.877 34.845 68.35599999999999
131 -36.06 30.673 68.35599999999999
132 -35.259 26.998 68.35599999999999
133 -41.847 0 68.35599999999999
134 -35.259 -26.998 68.35599999999999
135 -36.06 -30.673 68.35599999999999
136 -36.877 -34.845 68.35599999999999
137 -36.107 -37.72 68.35599999999999
138 -32.534 -37.208 68.35599999999999
139 0 -34.363 68.35599999999999
140 32.534 -37.208 68.35599999999999
141 36.107 -37.72 68.35599999999999
142 36.877 -34.845 68.35599999999999
143 36.06 -30.673 68.35599999999999
144 35.259 -26.998 68.35599999999999
145 61.599 0 96.194
146 52.324 40.065 96.194
147 53.375 45.402 96.194
148 54.393 51.396 96.194
149 53.144 55.517 96.194
150 47.945 54.833 96.194
151 0 50.658 96.194
152 -47.945 54.833 96.194
153 -53.144 55.517 96.194
154 -54.393 51.396 96.194
155 -53.375 45.402 96.194
156 -52.324 40.065 96.194
157 -61.599 0 96.194
158 -52.324 -40.065 96.194
159 -53.375 -45.402 96.194
160 -54.393 -51.396 96.194
161 -53.144 -55.517 96.194
162 -47.945 -54.833 96.194
163 0 -50.658 96.194
164 47.945 -54.833 96.194
165 53.144 -55.517 96.194
166 54.393 -51.396 96.194
167 53.375 -45.402 96.194
168 52.324 -40.065 96.194
169 89.44799999999999 0 123.945
170 78.282 59.942 123.945
171 79.01300000000001 67.20999999999999 123.945
172 79.422 75.04600000000001 123.945
173 76.965 80.402 123.945
174 69.76300000000001 79.785 123.945
175 0 74.907 123.945
176 -69.76300000000001 79.785 123.945
177 -76.965 80.402 123.945
178 -79.422 75.04600000000001 123.945
179 -79.01300000000001 67.20999999999999 123.945
180 -78.282 59.942 123.945
181 -89.44799999999999 0 123.945
182 -78.282 -59.942 123.945
183 -79.01300000000001 -67.20999999999999 123.945
184 -79.422 -75.04600000000001 123.945
185 -76.965 -80.402 123.945
186 -69.76300000000001 -79.785 123.945
187 0 -74.907 123.945
188 69.76300000000001 -79.785 123.945
189 76.965 -80.402 123.945
190 79.422 -75.04600000000001 123.945
191 79.01300000000001 -67.20999999999999 123.945
192 78.282 -59.942 123.945
193 125.897 0 146.95
194 115.362 88.334 146.95
195 114.799 97.651 146.95
196 113.209 106.971 146.95
197 108.397 113.239 146.95
198 98.85299999999999 113.055 146.95
199 0 107.976 146.95
200 -98.85299999999999 113.055 146.95
201 -108.397 113.239 146.95
202 -113.209 106.971 146.95
203 -114.799 97.651 146.95
204 -115.362 88.334 146.95
205 -125.897 0 146.95
206 -115.362 -88.334 146.95
207 -114.799 -97.651 146.95
208 -113.209 -106.971 146.95
209 -108.397 -113.239 146.95
210 -98.85299999999999 -113.055 146.95
211 0 -107.976 146.95
212 98.85299999999999 -113.055 146.95
213 108.397 -113.239 146.95
214 113.209 -106.971 146.95
215 114.799 -97.651 146.95
216 115.362 -88.334 146.95
217 168.031 0 164.197
218 160.384 122.808 164.197
219 157.721 134.161 164.197
220 152.98 144.551 164.197
221 144.911 151.383 164.197
222 132.853 151.94 164.197
223 0 147.124 164.197
224 -132.853 151.94 164.197
225 -144.911 151.383 164.197
226 -152.98 144.551 164.197
227 -157.721 134.161 164.197
228 -160.384 122.808 164.197
229 -168.031 0 164.197
230 -160.384 -122.808 164.197
231 -157.721 -134.161 164.197
232 -152.98 -144.551 164.197
233 -144.911 -151.383 164.197
234 -132.853 -151.94 164.197
235 0 -147.124 164.197
236 132.853 -151.94 164.197
237 144.911 -151.383 164.197
238 152.98 -144.551 164.197
239 157.721 -134.161 164.197
240 160.384 -122.808 164.197
241 207.826 0 175.565
242 203.377 155.729 175.565
243 198.49 168.841 175.565
244 190.473 179.977 175.565
245 179.163 187.165 175.565
246 164.866 188.552 175.565
247 0 184.637 175.565
248 -164.866 188.552 175.565
249 -179.163 187.165 175.565
250 -190.473 179.977 175.565
251 -198.49 168.841 175.565
252 -203.377 155.729 175.565
253 -207.826 0 175.565
254 -203.377 -155.729 175.565
255 -198.49 -168.841 175.565
256 -190.473 -179.977 175.565
257 -179.163 -187.165 175.565
258 -164.866 -188.552 175.565
259 0 -184.637 175.565
260 164.866 -188.552 175.565
261 179.163 -187.165 175.565
262 190.473 -179.977 175.565
263 198.49 -168.841 175.565
264 203.377 -155.729 175.565
265 240.82 0 182.38
266 238.223 182.411 182.38
267 231.492 196.913 182.38
268 220.815 208.648 182.38
269 206.916 216.158 182.38
270 190.885 218.309 182.38
271 0 216.11 182.38
272 -190.885 218.309 182.38
273 -206.916 216.158 182.38
274 -220.815 208.648 182.38
275 -231.492 196.913 182.38
276 -238.223 182.411 182.38
277 -240.82 0 182.38
278 -238.223 -182.411 182.38
279 -231.492 -196.913 182.38
280 -220.815 -208.648 182.38
281 -206.916 -216.158 182.38
282 -190.885 -218.309 182.38
283 0 -216.11 182.38
284 190.885 -218.309 182.38
285 206.916 -216.158 182.38
286 220.815 -208.648 182.38
287 231.492 -196.913 182.38
288 238.223 -182.411 182.38
289 262.607 0 185.434
290 259.904 199.013 185.434
291 252.06 214.408 185.434
292 239.842 226.626 185.434
293 224.446 234.471 185.434
294 207.38 237.174 185.434
295 0 237.174 185.434
296 -207.38 237.174 185.434
297 -224.446 234.471 185.434
298 -239.842 226.626 185.434
299 -252.06 214.408 185.434
300 -259.904 199.013 185.434
301 -262.607 0 185.434
302 -259.904 -199.013 185.434
303 -252.06 -214.408 185.434
304 -239.842 -226.626 185.434
305 -224.446 -234.471 185.434
306 -207.38 -237.174 185.434
307 0 -237.174 185.434
308 207.38 -237.174 185.434
309 224.446 -234.471 185.434
310 239.842 -226.626 185.434
311 252.06 -214.408 185.434
312 259.904 -199.013 185.434
313 83.86500000001423 29.97099999992355 123.945
314 96.82199999995568 74.13799999996607 135.4474999999725
315 96.90599999995551 82.43049999996215 135.4474999999714
316 96.31549999996083 91.00849999996299 135.4474999999733
317 92.68099999995856 96.82049999995671 135.4474999999697
318 34.88150000008726 77.3460000000061 123.945
319 -34.88149999991077 77.34599999999375 123.945
320 -92.68099999995856 96.82049999995671 135.4474999999697
321 -96.31549999996083 91.00849999996299 135.4474999999733
322 -96.90599999995551 82.43049999996215 135.4474999999714
323 -96.82199999995568 74.13799999996607 135.4474999999725
324 -83.86499999998546 29.97100000007806 123.945
325 -83.86500000001423 -29.97099999992355 123.945
326 -96.82199999995568 -74.13799999996607 135.4474999999725
327 -96.90599999995551 -82.43049999996215 135.4474999999714
328 -96.31549999996083 -91.00849999996299 135.4474999999733
329 -92.68099999995856 -96.82049999995671 135.4474999999697
330 -34.88150000008726 -77.3460000000061 123.945
331 34.88149999991077 -77.34599999999375 123.945
332 92.68099999995856 -96.82049999995671 135.4474999999697
333 96.31549999996083 -91.00849999996299 135.4474999999733
334 96.90599999995551 -82.43049999996215 135.4474999999714
335 96.82199999995568 -74.13799999996607 135.4474999999725
336 83.86499999998546 -29.97100000007806 123.945
337 120.629500000014 44.16699999988295 146.95
338 137.872999999945 105.5709999999579 155.5734999999789
339 136.2599999999416 115.9059999999503 155.5734999999765
340 133.0944999999508 125.7609999999536 155.5734999999787
341 126.6539999999726 132.3109999999714 155.573499999987
342 115.8529999999359 132.4974999999267 155.5734999999675
343 49.42650000012766 110.5155000000066 146.95
344 -49.42649999986596 110.5154999999931 146.95
345 -115.8529999999359 132.4974999999267 155.5734999999675
346 -126.6539999999726 132.3109999999714 155.573499999987
347 -133.0944999999508 125.7609999999536 155.5734999999787
348 -136.2599999999416 115.9059999999503 155.5734999999765
349 -137.872999999945 105.5709999999579 155.5734999999789
350 -120.6294999999856 44.16700000012042 146.95
351 -120.629500000014 -44.16699999988295 146.95
352 -137.872999999945 -105.5709999999579 155.5734999999789
353 -136.2599999999416 -115.9059999999503 155.5734999999765
354 -133.0944999999508 -125.7609999999536 155.5734999999787
355 -126.6539999999726 -132.3109999999714 155.573499999987
356 -115.8529999999359 -132.4974999999267 155.5734999999675
357 -49.42650000012766 -110.5155000000066 146.95
358 49.42649999986596 -110.5154999999931 146.95
359 115.8529999999359 -132.4974999999267 155.5734999999675
360 126.6539999999726 -132.3109999999714 155.573499999987
361 133.0944999999508 -125.7609999999536 155.5734999999787
362 136.2599999999416 -115.9059999999503 155.5734999999765
363 137.872999999945 -105.5709999999579 155.5734999999789
364 120.6294999999856 -44.16700000012042 146.95
365 165.482000000006 40.93599999990422 164.197
366 162.933000000006 81.8719999999027 164.197
367 181.8804999999331 139.2684999999488 169.8809999999823
368 178.10549999995 151.5009999999575 169.8809999999861
369 171.7264999999495 162.2639999999523 169.8809999999847
370 162.0369999999519 169.2739999999498 169.880999999984
371 88.56866666677314 150.3346666666705 164.197
372 44.28433333344789 148.7293333333375 164.197
373 -44.2843333332204 148.7293333333292 164.197
374 -88.56866666654822 150.3346666666624 164.197
375 -162.0369999999519 169.2739999999498 169.880999999984
376 -171.7264999999495 162.2639999999523 169.8809999999847
377 -178.10549999995 151.5009999999575 169.8809999999861
378 -181.8804999999331 139.2684999999488 169.8809999999823
379 -162.9329999999939 81.87200000009872 164.197
380 -165.4819999999939 40.9360000000982 164.197
381 -165.482000000006 -40.93599999990422 164.197
382 -162.933000000006 -81.8719999999027 164.197
383 -181.8804999999331 -139.2684999999488 169.8809999999823
384 -178.10549999995 -151.5009999999575 169.8809999999861
385 -171.7264999999495 -162.2639999999523 169.8809999999847
386 -162.0369999999519 -169.2739999999498 169.880999999984
387 -88.56866666677314 -150.3346666666705 164.197
388 -44.28433333344789 -148.7293333333375 164.197
389 44.2843333332204 -148.7293333333292 164.197
390 88.56866666654822 -150.3346666666624 164.197
391 162.0369999999519 -169.2739999999498 169.880999999984
392 171.7264999999495 -162.2639999999523 169.8809999999847
393 178.10549999995 -151.5009999999575 169.8809999999861
394 181.8804999999331 -139.2684999999488 169.8809999999823
395 162.9329999999939 -81.87200000009872 164.197
396 165.4819999999939 -40.9360000000982 164.197
397 206.7137500000026 38.93224999990721 175.565
398 205.6015000000056 77.86449999980228 175.565
399 204.4892500000027 116.7967499999056 175.565
400 123.6495000000694 187.5732500000017 175.565
401 82.43300000018613 186.5945000000044 175.565
402 41.21650000008333 185.615750000002 175.565
403 -41.21649999990861 185.6157499999978 175.565
404 -82.43299999979921 186.5944999999952 175.565
405 -123.6494999999094 187.5732499999978 175.565
406 -204.4892499999975 116.7967500000877 175.565
407 -205.6014999999946 77.86450000018881 175.565
408 -206.7137499999974 38.93225000008997 175.565
409 -206.7137500000026 -38.93224999990721 175.565
410 -205.6015000000056 -77.86449999980228 175.565
411 -204.4892500000027 -116.7967499999056 175.565
412 -123.6495000000694 -187.5732500000017 175.565
413 -82.43300000018613 -186.5945000000044 175.565
414 -41.21650000008333 -185.615750000002 175.565
415 41.21649999990861 -185.6157499999978 175.565
416 82.43299999979921 -186.5944999999952 175.565
417 123.6494999999094 -187.5732499999978 175.565
418 204.4892499999975 -116.7967500000877 175.565
419 205.6014999999946 -77.86450000018881 175.565
420 206.7137499999974 -38.93225000008997 175.565
421 240.1707500000016 45.60274999989005 182.38
422 239.5215000000035 91.20549999975194 182.38
423 238.8722500000017 136.8082499998774 182.38
424 143.1637500001082 217.7592500000013 182.38
425 95.44250000024697 217.2095000000029 182.38
426 47.72125000012485 216.6597500000015 182.38
427 -47.72124999989003 216.6597499999988 182.38
428 -95.44249999975368 217.2094999999972 182.38
429 -143.1637499998756 217.7592499999986 182.38
430 -238.872249999998 136.8082500001373 182.38
431 -239.5214999999961 91.20550000027188 182.38
432 -240.1707499999981 45.60275000013456 182.38
433 -240.1707500000016 -45.60274999989005 182.38
434 -239.5215000000035 -91.20549999975194 182.38
435 -238.8722500000017 -136.8082499998774 182.38
436 -143.1637500001082 -217.7592500000013 182.38
437 -95.44250000024697 -217.2095000000029 182.38
438 -47.72125000012485 -216.6597500000015 182.38
439 47.72124999989003 -216.6597499999988 182.38
440 95.44249999975368 -217.2094999999972 182.38
441 143.1637499998756 -217.7592499999986 182.38
442 238.872249999998 -136.8082500001373 182.38
443 239.5214999999961 -91.20550000027188 182.38
444 240.1707499999981 -45.60275000013456 182.38
445 261.9312500000016 49.75324999988096 185.434
446 261.2555000000036 99.5064999997374 185.434
447 260.5797500000019 149.2597499998603 185.434
448 165.9040000000999 237.174 185.434
449 124.4280000002198 237.174 185.434
450 82.95200000022317 237.174 185.434
451 41.47600000010883 237.174 185.434
452 -41.47599999990597 237.174 185.434
453 -82.95199999978895 237.174 185.434
454 -124.4279999997827 237.174 185.434
455 -165.9039999998941 237.174 185.434
456 -260.5797499999983 149.2597500001219 185.434
457 -261.2554999999965 99.50650000026089 185.434
458 -261.9312499999982 49.75325000013899 185.434
459 -261.9312500000016 -49.75324999988096 185.434
460 -261.2555000000036 -99.5064999997374 185.434
461 -260.5797500000019 -149.2597499998603 185.434
462 -165.9040000000999 -237.174 185.434
463 -124.4280000002198 -237.174 185.434
464 -82.95200000022317 -237.174 185.434
465 -41.47600000010883 -237.174 185.434
466 41.47599999990597 -237.174 185.434
467 82.95199999978895 -237.174 185.434
468 124.4279999997827 -237.174 185.434
469 165.9039999998941 -237.174 185.434
470 260.5797499999983 -149.2597500001219 185.434
471 261.2554999999965 -99.50650000026089 185.434
472 261.9312499999982 -49.75325000013899 185.434
473 11.51746437344532 3.906162863489447 2.337579298494227
474 4.223673162323151 11.19142575344632 2.341427498381028
475 -4.255393357299135 11.28176369197018 2.336528639610892
476 -11.50154176631674 3.9008391893209 2.338480808814272
477 -11.51746437344532 -3.906162863489447 2.337579298494227
478 -4.223673162323151 -11.19142575344632 2.341427498381028
479 4.255393357299135 -11.28176369197018 2.336528639610892
480 11.50154176631674 -3.9008391893209 2.338480808814272
481 12.4243555433704 4.233773761336548 8.859207503171609
482 4.617336396093338 11.78790390674578 8.923756143322812
483 -4.726926362719572 12.2629036503608 8.837791256637507
484 -12.34246555831756 4.208326022682599 8.875637666006577
485 -12.4243555433704 -4.233773761336548 8.859207503171609
486 -4.617336396093338 -11.78790390674578 8.923756143322812
487 4.726926362719572 -12.2629036503608 8.837791256637507
488 12.34246555831756 -4.208326022682599 8.875637666006577
489 15.5058555658078 5.22642483140725 19.92597517105337
490 5.547664742915679 14.33227507653771 19.82952987022643
491 -5.455269057696279 15.08166988737359 19.5502038796416
492 -15.38466419788971 5.197872541867908 19.97168877127694
493 -15.5058555658078 -5.22642483140725 19.92597517105337
494 -5.547664742915679 -14.33227507653771 19.82952987022643
495 5.455269057696279 -15.08166988737359 19.5502038796416
496 15.38466419788971 -5.197872541867908 19.97168877127694
497 22.00980898016199 7.29321946664616 35.88501907539335
498 7.303305607573747 19.8746663491488 35.33799353661687
499 -7.196981236146865 20.52518078751409 35.05388216710633
500 -21.91117803827082 7.270978639658769 35.93410010829103
501 -22.00980898016199 -7.29321946664616 35.88501907539335
502 -7.303305607573747 -19.8746663491488 35.33799353661687
503 7.196981236146865 -20.52518078751409 35.05388216710633
504 21.91117803827082 -7.270978639658769 35.93410010829103
505 32.93646199456529 10.799362414817 57.54040252265659
506 12.64875154169355 29.6268267638972 56.40325166264565
507 -12.61572266168007 29.96304789952583 56.24317599774817
508 -32.8867468973679 10.78774933590289 57.56960124609462
509 -32.93646199456529 -10.799362414817 57.54040252265659
510 -12.64875154169355 -29.6268267638972 56.40325166264565
511 12.61572266168007 -29.96304789952583 56.24317599774817
512 32.8867468973679 -10.78774933590289 57.56960124609462
513 47.81151919326913 16.77831325390169 82.23649417682839
514 -47.70357978587467 16.75332540905996 82.313732464037
515 -47.81151919326913 -16.77831325390169 82.23649417682839
516 47.70357978587467 -16.75332540905996 82.313732464037
517 20.69825297197141 64.55573304487267 109.9684255152023
518 -20.71475595267342 64.31971470829845 110.1711108262201
519 -20.69825297197141 -64.55573304487267 109.9684255152023
520 20.71475595267342 -64.31971470829845 110.1711108262201
521 106.2178749568149 20.25382130701157 136.0539849433212
522 97.61917939856171 45.74873690303355 132.5459644636379
523 -105.7524536006629 20.22854177395899 136.8693397598012
524 -96.97241137898955 45.67764687273642 133.6033632037909
525 -106.2178749568149 -20.25382130701157 136.0539849433212
526 -97.61917939856171 -45.74873690303355 132.5459644636379
527 105.7524536006629 -20.22854177395899 136.8693397598012
528 96.97241137898955 -45.67764687273642 133.6033632037909
529 138.798958531493 69.88918676449804 154.0126221651737
530 74.64555388878856 129.7929071192608 155.0188846762525
531 23.42418332558887 128.6834483378874 155.3612122217423
532 94.48005513887441 131.4200184464645 155.434846169055
533 -74.65014130693783 129.6627113524873 155.312072117082
534 -23.42880960569659 128.5558289011297 155.6424565728417
535 -94.48450581063049 131.2963312081661 155.7150127477882
536 -138.4182113469541 69.87600315259637 154.9601506300824
537 -138.798958531493 -69.88918676449804 154.0126221651737
538 -74.64555388878856 -129.7929071192608 155.0188846762525
539 -23.42418332558887 -128.6834483378874 155.3612122217423
540 -94.48005513887441 -131.4200184464645 155.434846169055
541 74.65014130693783 -129.6627113524873 155.312072117082
542 23.42880960569659 -128.5558289011297 155.6424565728417
543 94.48450581063049 -131.2963312081661 155.7150127477882
544 138.4182113469541 -69.87600315259637 154.9601506300824
545 181.2421077709865 104.6058683884148 168.8246367573835
546 187.887735474313 18.91239936921177 170.0237009412135
547 21.37370682326452 166.5897514762879 169.6815865186151
548 64.12472409405167 167.8565008857754 169.7613519111692
549 -21.37548481613412 166.5148777626152 169.9194206994887
550 -64.12645444842468 167.7836332878466 169.9962620984663
551 -181.0752431850261 104.6043812179218 169.4163876675806
552 -187.7614666692899 18.90879201348934 170.5129892706194
553 -181.2421077709865 -104.6058683884148 168.8246367573835
554 -187.887735474313 -18.91239936921177 170.0237009412135
555 -21.37370682326452 -166.5897514762879 169.6815865186151
556 -64.12472409405167 -167.8565008857754 169.7613519111692
557 21.37548481613412 -166.5148777626152 169.9194206994887
558 64.1264544484247 -167.7836332878466 169.9962620984663
559 181.0752431850261 -104.6043812179218 169.4163876675806
560 187.7614666692899 -18.90879201348934 170.5129892706194
561 223.8883327301986 21.13383126136075 178.9448667131127
562 22.23392136230027 200.8004285264885 178.7788405503258
563 -22.23450250105961 200.749982554854 178.9985579128473
564 -223.847396488078 21.13324844891361 179.1545917261888
565 -223.8883327301986 -21.13383126136075 178.9448667131127
566 -22.23392136230027 -200.8004285264885 178.7788405503258
567 22.23450250105961 -200.749982554854 178.9985579128473
568 223.847396488078 -21.13324844891361 179.1545917261888
569 251.3823939123903 23.83900195456476 183.9059733401345
570 235.9456875526094 211.689543819776 183.9229452909983
571 22.29931250005842 226.8040067883921 183.755231949735
572 -22.299312499949 226.7766078880324 183.926516354446
573 -235.9489501195823 211.6931358539537 183.880308838351
574 -251.3812533638911 23.83898646372955 183.9141489187147
575 -251.3823939123903 -23.83900195456476 183.9059733401345
576 -235.9456875526094 -211.689543819776 183.9229452909983
577 -22.29931250005842 -226.8040067883921 183.755231949735
578 22.299312499949 -226.7766078880324 183.926516354446
579 235.9489501195823 -211.6931358539537 183.880308838351
580 251.3812533638911 -23.83898646372955 183.9141489187147
$EndNodes
$Elements
2156
1 15 2 0 1 1
2 15 2 0 2 2
3 15 2 0 3 3
4 15 2 0 4 4
5 15 2 0 5 5
6 15 2 0 6 6
7 15 2 0 7 7
8 15 2 0 8 8
9 15 2 0 9 9
10 15 2 0 10 10
11 15 2 0 11 11
12 15 2 0 12 12
13 15 2 0 13 13
14 15 2 0 14 14
15 15 2 0 15 15
16 15 2 0 16 16
17 15 2 0 17 17
18 15 2 0 18 18
19 15 2 0 19 19
20 15 2 0 20 20
21 15 2 0 21 21
22 15 2 0 22 22
23 15 2 0 23 23
24 15 2 0 24 24
25 15 2 0 25 25
26 15 2 0 26 26
27 15 2 0 27 27
28 15 2 0 28 28
29 15 2 0 29 29
30 15 2 0 30 30
31 15 2 0 31 31
32 15 2 0 32 32
33 15 2 0 33 33
34 15 2 0 34 34
35 15 2 0 35 35
36 15 2 0 36 36
37 15 2 0 37 37
38 15 2 0 38 38
39 15 2 0 39 39
40 15 2 0 40 40
41 15 2 0 41 41
42 15 2 0 42 42
43 15 2 0 43 43
44 15 2 0 44 44
45 15 2 0 45 45
46 15 2 0 46 46
47 15 2 0 47 47
48 15 2 0 48 48
49 15 2 0 49 49
50 15 2 0 50 50
51 15 2 0 51 51
52 15 2 0 52 52
53 15 2 0 53 53
54 15 2 0 54 54
55 15 2 0 55 55
56 15 2 0 56 56
57 15 2 0 57 57
58 15 2 0 58 58
59 15 2 0 59 59
60 15 2 0 60 60
61 15 2 0 61 61
62 15 2 0 62 62
63 15 2 0 63 63
64 15 2 0 64 64
65 15 2 0 65 65
66 15 2 0 66 66
67 15 2 0 67 67
68 15 2 0 68 68
69 15 2 0 69 69
70 15 2 0 70 70
71 15 2 0 71 71
72 15 2 0 72 72
73 15 2 0 73 73
74 15 2 0 74 74
75 15 2 0 75 75
76 15 2 0 76 76
77 15 2 0 77 77
78 15 2 0 78 78
79 15 2 0 79 79
80 15 2 0 80 80
81 15 2 0 81 81
82 15 2 0 82 82
83 15 2 0 83 83
84 15 2 0 84 84
85 15 2 0 85 85
86 15 2 0 86 86
87 15 2 0 87 87
88 15 2 0 88 88
89 15 2 0 89 89
90 15 2 0 90 90
91 15 2 0 91 91
92 15 2 0 92 92
93 15 2 0 93 93
94 15 2 0 94 94
95 15 2 0 95 95
96 15 2 0 96 96
97 15 2 0 97 97
98 15 2 0 98 98
99 15 2 0 99 99
100 15 2 0 100 100
101 15 2 0 101 101
102 15 2 0 102 102
103 15 2 0 103 103
104 15 2 0 104 104
105 15 2 0 105 105
106 15 2 0 106 106
107 15 2 0 107 107
108 15 2 0 108 108
109 15 2 0 109 109
110 15 2 0 110 110
111 15 2 0 111 111
112 15 2 0 112 112
113 15 2 0 113 113
114 15 2 0 114 114
115 15 2 0 115 115
116 15 2 0 116 116
117 15 2 0 117 117
118 15 2 0 118 118
119 15 2 0 119 119
120 15 2 0 120 120
121 15 2 0 121 121
122 15 2 0 122 122
123 15 2 0 123 123
124 15 2 0 124 124
125 15 2 0 125 125
126 15 2 0 126 126
127 15 2 0 127 127
128 15 2 0 128 128
129 15 2 0 129 129
130 15 2 0 130 130
131 15 2 0 131 131
132 15 2 0 132 132
133 15 2 0 133 133
134 15 2 0 134 134
135 15 2 0 135 135
136 15 2 0 136 136
137 15 2 0 137 137
138 15 2 0 138 138
139 15 2 0 139 139
140 15 2 0 140 140
141 15 2 0 141 141
142 15 2 0 142 142
143 15 2 0 143 143
144 15 2 0 144 144
145 15 2 0 145 145
146 15 2 0 146 146
147 15 2 0 147 147
148 15 2 0 148 148
149 15 2 0 149 149
150 15 2 0 150 150
151 15 2 0 151 151
152 15 2 0 152 152
153 15 2 0 153 153
154 15 2 0 154 154
155 15 2 0 155 155
156 15 2 0 156 156
157 15 2 0 157 157
158 15 2 0 158 158
159 15 2 0 159 159
160 15 2 0 160 160
161 15 2 0 161 161
162 15 2 0 162 162
163 15 2 0 163 163
164 15 2 0 164 164
165 15 2 0 165 165
166 15 2 0 166 166
167 15 2 0 167 167
168 15 2 0 168 168
169 15 2 0 169 169
170 15 2 0 170 170
171 15 2 0 171 171
172 15 2 0 172 172
173 15 2 0 173 173
174 15 2 0 174 174
175 15 2 0 175 175
176 15 2 0 176 176
177 15 2 0 177 177
178 15 2 0 178 178
179 15 2 0 179 179
180 15 2 0 180 180
181 15 2 0 181 181
182 15 2 0 182 182
183 15 2 0 183 183
184 15 2 0 184 184
185 15 2 0 185 185
186 15 2 0 186 186
187 15 2 0 187 187
188 15 2 0 188 188
189 15 2 0 189 189
190 15 2 0 190 190
191 15 2 0 191 191
192 15 2 0 192 192
193 15 2 0 193 193
194 15 2 0 194 194
195 15 2 0 195 195
196 15 2 0 196 196
197 15 2 0 197 197
198 15 2 0 198 198
199 15 2 0 199 199
200 15 2 0 200 200
201 15 2 0 201 201
202 15 2 0 202 202
203 15 2 0 203 203
204 15 2 0 204 204
205 15 2 0 205 205
206 15 2 0 206 206
207 15 2 0 207 207
208 15 2 0 208 208
209 15 2 0 209 209
210 15 2 0 210 210
211 15 2 0 211 211
212 15 2 0 212 212
213 15 2 0 213 213
214 15 2 0 214 214
215 15 2 0 215 215
216 15 2 0 216 216
217 15 2 0 217 217
218 15 2 0 218 218
219 15 2 0 219 219
220 15 2 0 220 220
221 15 2 0 221 221
222 15 2 0 222 222
223 15 2 0 223 223
224 15 2 0 224 224
225 15 2 0 225 225
226 15 2 0 226 226
227 15 2 0 227 227
228 15 2 0 228 228
229 15 2 0 229 229
230 15 2 0 230 230
231 15 2 0 231 231
232 15 2 0 232 232
233 15 2 0 233 233
234 15 2 0 234 234
235 15 2 0 235 235
236 15 2 0 236 236
237 15 2 0 237 237
238 15 2 0 238 238
239 15 2 0 239 239
240 15 2 0 240 240
241 15 2 0 241 241
242 15 2 0 242 242
243 15 2 0 243 243
244 15 2 0 244 244
245 15 2 0 245 245
246 15 2 0 246 246
247 15 2 0 247 247
248 15 2 0 248 248
249 15 2 0 249 249
250 15 2 0 250 250
251 15 2 0 251 251
252 15 2 0 252 252
253 15 2 0 253 253
254 15 2 0 254 254
255 15 2 0 255 255
256 15 2 0 256 256
257 15 2 0 257 257
258 15 2 0 258 258
259 15 2 0 259 259
260 15 2 0 260 260
261 15 2 0 261 261
262 15 2 0 262 262
263 15 2 0 263 263
264 15 2 0 264 264
265 15 2 0 265 265
266 15 2 0 266 266
267 15 2 0 267 267
268 15 2 0 268 268
269 15 2 0 269 269
270 15 2 0 270 270
271 15 2 0 271 271
272 15 2 0 272 272
273 15 2 0 273 273
274 15 2 0 274 274
275 15 2 0 275 275
276 15 2 0 276 276
277 15 2 0 277 277
278 15 2 0 278 278
279 15 2 0 279 279
280 15 2 0 280 280
281 15 2 0 281 281
282 15 2 0 282 282
283 15 2 0 283 283
284 15 2 0 284 284
285 15 2 0 285 285
286 15 2 0 286 286
287 15 2 0 287 287
288 15 2 0 288 288
289 15 2 0 289 289
290 15 2 0 290 290
291 15 2 0 291 291
292 15 2 0 292 292
293 15 2 0 293 293
294 15 2 0 294 294
295 15 2 0 295 295
296 15 2 0 296 296
297 15 2 0 297 297
298 15 2 0 298 298
299 15 2 0 299 299
300 15 2 0 300 300
301 15 2 0 301 301
302 15 2 0 302 302
303 15 2 0 303 303
304 15 2 0 304 304
305 15 2 0 305 305
306 15 2 0 306 306
307 15 2 0 307 307
308 15 2 0 308 308
309 15 2 0 309 309
310 15 2 0 310 310
311 15 2 0 311 311
312 15 2 0 312 312
313 1 2 0 1 1 25
314 1 2 0 2 1 2
315 1 2 0 3 2 26
316 1 2 0 4 2 3
317 1 2 0 5 3 27
318 1 2 0 6 3 4
319 1 2 0 7 4 28
320 1 2 0 8 4 5
321 1 2 0 9 5 29
322 1 2 0 10 5 6
323 1 2 0 11 6 30
324 1 2 0 12 6 7
325 1 2 0 13 7 31
326 1 2 0 14 7 8
327 1 2 0 15 8 32
328 1 2 0 16 8 9
329 1 2 0 17 9 33
330 1 2 0 18 9 10
331 1 2 0 19 10 34
332 1 2 0 20 10 11
333 1 2 0 21 11 35
334 1 2 0 22 11 12
335 1 2 0 23 12 36
336 1 2 0 24 12 13
337 1 2 0 25 13 37
338 1 2 0 26 13 14
339 1 2 0 27 14 38
340 1 2 0 28 14 15
341 1 2 0 29 15 39
342 1 2 0 30 15 16
343 1 2 0 31 16 40
344 1 2 0 32 16 17
345 1 2 0 33 17 41
346 1 2 0 34 17 18
347 1 2 0 35 18 42
348 1 2 0 36 18 19
349 1 2 0 37 19 43
350 1 2 0 38 19 20
351 1 2 0 39 20 44
352 1 2 0 40 20 21
353 1 2 0 41 21 45
354 1 2 0 42 21 22
355 1 2 0 43 22 46
356 1 2 0 44 22 23
357 1 2 0 45 23 47
358 1 2 0 46 23 24
359 1 2 0 47 24 48
360 1 2 0 48 24 1
361 1 2 0 49 25 49
362 1 2 0 50 25 26
363 1 2 0 51 26 50
364 1 2 0 52 26 27
365 1 2 0 53 27 51
366 1 2 0 54 27 28
367 1 2 0 55 28 52
368 1 2 0 56 28 29
369 1 2 0 57 29 53
370 1 2 0 58 29 30
371 1 2 0 59 30 54
372 1 2 0 60 30 31
373 1 2 0 61 31 55
374 1 2 0 62 31 32
375 1 2 0 63 32 56
376 1 2 0 64 32 33
377 1 2 0 65 33 57
378 1 2 0 66 33 34
379 1 2 0 67 34 58
380 1 2 0 68 34 35
381 1 2 0 69 35 59
382 1 2 0 70 35 36
383 1 2 0 71 36 60
384 1 2 0 72 36 37
385 1 2 0 73 37 61
386 1 2 0 74 37 38
387 1 2 0 75 38 62
388 1 2 0 76 38 39
389 1 2 0 77 39 63
390 1 2 0 78 39 40
391 1 2 0 79 40 64
392 1 2 0 80 40 41
393 1 2 0 81 41 65
394 1 2 0 82 41 42
395 1 2 0 83 42 66
396 1 2 0 84 42 43
397 1 2 0 85 43 67
398 1 2 0 86 43 44
399 1 2 0 87 44 68
400 1 2 0 88 44 45
401 1 2 0 89 45 69
402 1 2 0 90 45 46
403 1 2 0 91 46 70
404 1 2 0 92 46 47
405 1 2 0 93 47 71
406 1 2 0 94 47 48
407 1 2 0 95 48 72
408 1 2 0 96 48 25
409 1 2 0 97 49 73
410 1 2 0 98 49 50
411 1 2 0 99 50 74
412 1 2 0 100 50 51
413 1 2 0 101 51 75
414 1 2 0 102 51 52
415 1 2 0 103 52 76
416 1 2 0 104 52 53
417 1 2 0 105 53 77
418 1 2 0 106 53 54
419 1 2 0 107 54 78
420 1 2 0 108 54 55
421 1 2 0 109 55 79
422 1 2 0 110 55 56
423 1 2 0 111 56 80
424 1 2 0 112 56 57
425 1 2 0 113 57 81
426 1 2 0 114 57 58
427 1 2 0 115 58 82
428 1 2 0 116 58 59
429 1 2 0 117 59 83
430 1 2 0 118 59 60
431 1 2 0 119 60 84
432 1 2 0 120 60 61
433 1 2 0 121 61 85
434 1 2 0 122 61 62
435 1 2 0 123 62 86
436 1 2 0 124 62 63
437 1 2 0 125 63 87
438 1 2 0 126 63 64
439 1 2 0 127 64 88
440 1 2 0 128 64 65
441 1 2 0 129 65 89
442 1 2 0 130 65 66
443 1 2 0 131 66 90
444 1 2 0 132 66 67
445 1 2 0 133 67 91
446 1 2 0 134 67 68
447 1 2 0 135 68 92
448 1 2 0 136 68 69
449 1 2 0 137 69 93
450 1 2 0 138 69 70
451 1 2 0 139 70 94
452 1 2 0 140 70 71
453 1 2 0 141 71 95
454 1 2 0 142 71 72
455 1 2 0 143 72 96
456 1 2 0 144 72 49
457 1 2 0 145 73 97
458 1 2 0 146 73 74
459 1 2 0 147 74 98
460 1 2 0 148 74 75
461 1 2 0 149 75 99
462 1 2 0 150 75 76
463 1 2 0 151 76 100
464 1 2 0 152 76 77
465 1 2 0 153 77 101
466 1 2 0 154 77 78
467 1 2 0 155 78 102
468 1 2 0 156 78 79
469 1 2 0 157 79 103
470 1 2 0 158 79 80
471 1 2 0 159 80 104
472 1 2 0 160 80 81
473 1 2 0 161 81 105
474 1 2 0 162 81 82
475 1 2 0 163 82 106
476 1 2 0 164 82 83
477 1 2 0 165 83 107
478 1 2 0 166 83 84
479 1 2 0 167 84 108
480 1 2 0 168 84 85
481 1 2 0 169 85 109
482 1 2 0 170 85 86
483 1 2 0 171 86 110
484 1 2 0 172 86 87
485 1 2 0 173 87 111
486 1 2 0 174 87 88
487 1 2 0 175 88 112
488 1 2 0 176 88 89
489 1 2 0 177 89 113
490 1 2 0 178 89 90
491 1 2 0 179 90 114
492 1 2 0 180 90 91
493 1 2 0 181 91 115
494 1 2 0 182 91 92
495 1 2 0 183 92 116
496 1 2 0 184 92 93
497 1 2 0 185 93 117
498 1 2 0 186 93 94
499 1 2 0 187 94 118
500 1 2 0 188 94 95
501 1 2 0 189 95 119
502 1 2 0 190 95 96
503 1 2 0 191 96 120
504 1 2 0 192 96 73
505 1 2 0 193 97 121
506 1 2 0 194 97 98
507 1 2 0 195 98 122
508 1 2 0 196 98 99
509 1 2 0 197 99 123
510 1 2 0 198 99 100
511 1 2 0 199 100 124
512 1 2 0 200 100 101
513 1 2 0 201 101 125
514 1 2 0 202 101 102
515 1 2 0 203 102 126
516 1 2 0 204 102 103
517 1 2 0 205 103 127
518 1 2 0 206 103 104
519 1 2 0 207 104 128
520 1 2 0 208 104 105
521 1 2 0 209 105 129
522 1 2 0 210 105 106
523 1 2 0 211 106 130
524 1 2 0 212 106 107
525 1 2 0 213 107 131
526 1 2 0 214 107 108
527 1 2 0 215 108 132
528 1 2 0 216 108 109
529 1 2 0 217 109 133
530 1 2 0 218 109 110
531 1 2 0 219 110 134
532 1 2 0 220 110 111
533 1 2 0 221 111 135
534 1 2 0 222 111 112
535 1 2 0 223 112 136
536 1 2 0 224 112 113
537 1 2 0 225 113 137
538 1 2 0 226 113 114
539 1 2 0 227 114 138
540 1 2 0 228 114 115
541 1 2 0 229 115 139
542 1 2 0 230 115 116
543 1 2 0 231 116 140
544 1 2 0 232 116 117
545 1 2 0 233 117 141
546 1 2 0 234 117 118
547 1 2 0 235 118 142
548 1 2 0 236 118 119
549 1 2 0 237 119 143
550 1 2 0 238 119 120
551 1 2 0 239 120 144
552 1 2 0 240 120 97
553 1 2 0 241 121 145
554 1 2 0 242 121 122
555 1 2 0 243 122 146
556 1 2 0 244 122 123
557 1 2 0 245 123 147
558 1 2 0 246 123 124
559 1 2 0 247 124 148
560 1 2 0 248 124 125
561 1 2 0 249 125 149
562 1 2 0 250 125 126
563 1 2 0 251 126 150
564 1 2 0 252 126 127
565 1 2 0 253 127 151
566 1 2 0 254 127 128
567 1 2 0 255 128 152
568 1 2 0 256 128 129
569 1 2 0 257 129 153
570 1 2 0 258 129 130
571 1 2 0 259 130 154
572 1 2 0 260 130 131
573 1 2 0 261 131 155
574 1 2 0 262 131 132
575 1 2 0 263 132 156
576 1 2 0 264 132 133
577 1 2 0 265 133 157
578 1 2 0 266 133 134
579 1 2 0 267 134 158
580 1 2 0 268 134 135
581 1 2 0 269 135 159
582 1 2 0 270 135 136
583 1 2 0 271 136 160
584 1 2 0 272 136 137
585 1 2 0 273 137 161
586 1 2 0 274 137 138
587 1 2 0 275 138 162
588 1 2 0 276 138 139
589 1 2 0 277 139 163
590 1 2 0 278 139 140
591 1 2 0 279 140 164
592 1 2 0 280 140 141
593 1 2 0 281 141 165
594 1 2 0 282 141 142
595 1 2 0 283 142 166
596 1 2 0 284 142 143
597 1 2 0 285 143 167
598 1 2 0 286 143 144
599 1 2 0 287 144 168
600 1 2 0 288 144 121
601 1 2 0 289 145 169
602 1 2 0 290 145 146
603 1 2 0 291 146 170
604 1 2 0 292 146 147
605 1 2 0 293 147 171
606 1 2 0 294 147 148
607 1 2 0 295 148 172
608 1 2 0 296 148 149
609 1 2 0 297 149 173
610 1 2 0 298 149 150
611 1 2 0 299 150 174
612 1 2 0 300 150 151
613 1 2 0 301 151 175
614 1 2 0 302 151 152
615 1 2 0 303 152 176
616 1 2 0 304 152 153
617 1 2 0 305 153 177
618 1 2 0 306 153 154
619 1 2 0 307 154 178
620 1 2 0 308 154 155
621 1 2 0 309 155 179
622 1 2 0 310 155 156
623 1 2 0 311 156 180
624 1 2 0 312 156 157
625 1 2 0 313 157 181
626 1 2 0 314 157 158
627 1 2 0 315 158 182
628 1 2 0 316 158 159
629 1 2 0 317 159 183
630 1 2 0 318 159 160
631 1 2 0 319 160 184
632 1 2 0 320 160 161
633 1 2 0 321 161 185
634 1 2 0 322 161 162
635 1 2 0 323 162 186
636 1 2 0 324 162 163
637 1 2 0 325 163 187
638 1 2 0 326 163 164
639 1 2 0 327 164 188
640 1 2 0 328 164 165
641 1 2 0 329 165 189
642 1 2 0 330 165 166
643 1 2 0 331 166 190
644 1 2 0 332 166 167
645 1 2 0 333 167 191
646 1 2 0 334 167 168
647 1 2 0 335 168 192
648 1 2 0 336 168 145
649 1 2 0 337 169 193
650 1 2 0 338 169 313
651 1 2 0 338 313 170
652 1 2 0 339 170 314
653 1 2 0 339 314 194
654 1 2 0 340 170 171
655 1 2 0 341 171 315
656 1 2 0 341 315 195
657 1 2 0 342 171 172
658 1 2 0 343 172 316
659 1 2 0 343 316 196
660 1 2 0 344 172 173
661 1 2 0 345 173 317
662 1 2 0 345 317 197
663 1 2 0 346 173 174
664 1 2 0 347 174 198
665 1 2 0 348 174 318
666 1 2 0 348 318 175
667 1 2 0 349 175 199
668 1 2 0 350 175 319
669 1 2 0 350 319 176
670 1 2 0 351 176 200
671 1 2 0 352 176 177
672 1 2 0 353 177 320
673 1 2 0 353 320 201
674 1 2 0 354 177 178
675 1 2 0 355 178 321
676 1 2 0 355 321 202
677 1 2 0 356 178 179
678 1 2 0 357 179 322
679 1 2 0 357 322 203
680 1 2 0 358 179 180
681 1 2 0 359 180 323
682 1 2 0 359 323 204
683 1 2 0 360 180 324
684 1 2 0 360 324 181
685 1 2 0 361 181 205
686 1 2 0 362 181 325
687 1 2 0 362 325 182
688 1 2 0 363 182 326
689 1 2 0 363 326 206
690 1 2 0 364 182 183
691 1 2 0 365 183 327
692 1 2 0 365 327 207
693 1 2 0 366 183 184
694 1 2 0 367 184 328
695 1 2 0 367 328 208
696 1 2 0 368 184 185
697 1 2 0 369 185 329
698 1 2 0 369 329 209
699 1 2 0 370 185 186
700 1 2 0 371 186 210
701 1 2 0 372 186 330
702 1 2 0 372 330 187
703 1 2 0 373 187 211
704 1 2 0 374 187 331
705 1 2 0 374 331 188
706 1 2 0 375 188 212
707 1 2 0 376 188 189
708 1 2 0 377 189 332
709 1 2 0 377 332 213
710 1 2 0 378 189 190
711 1 2 0 379 190 333
712 1 2 0 379 333 214
713 1 2 0 380 190 191
714 1 2 0 381 191 334
715 1 2 0 381 334 215
716 1 2 0 382 191 192
717 1 2 0 383 192 335
718 1 2 0 383 335 216
719 1 2 0 384 192 336
720 1 2 0 384 336 169
721 1 2 0 385 193 217
722 1 2 0 386 193 337
723 1 2 0 386 337 194
724 1 2 0 387 194 338
725 1 2 0 387 338 218
726 1 2 0 388 194 195
727 1 2 0 389 195 339
728 1 2 0 389 339 219
729 1 2 0 390 195 196
730 1 2 0 391 196 340
731 1 2 0 391 340 220
732 1 2 0 392 196 197
733 1 2 0 393 197 341
734 1 2 0 393 341 221
735 1 2 0 394 197 198
736 1 2 0 395 198 342
737 1 2 0 395 342 222
738 1 2 0 396 198 343
739 1 2 0 396 343 199
740 1 2 0 397 199 223
741 1 2 0 398 199 344
742 1 2 0 398 344 200
743 1 2 0 399 200 345
744 1 2 0 399 345 224
745 1 2 0 400 200 201
746 1 2 0 401 201 346
747 1 2 0 401 346 225
748 1 2 0 402 201 202
749 1 2 0 403 202 347
750 1 2 0 403 347 226
751 1 2 0 404 202 203
752 1 2 0 405 203 348
753 1 2 0 405 348 227
754 1 2 0 406 203 204
755 1 2 0 407 204 349
756 1 2 0 407 349 228
757 1 2 0 408 204 350
758 1 2 0 408 350 205
759 1 2 0 409 205 229
760 1 2 0 410 205 351
761 1 2 0 410 351 206
762 1 2 0 411 206 352
763 1 2 0 411 352 230
764 1 2 0 412 206 207
765 1 2 0 413 207 353
766 1 2 0 413 353 231
767 1 2 0 414 207 208
768 1 2 0 415 208 354
769 1 2 0 415 354 232
770 1 2 0 416 208 209
771 1 2 0 417 209 355
772 1 2 0 417 355 233
773 1 2 0 418 209 210
774 1 2 0 419 210 356
775 1 2 0 419 356 234
776 1 2 0 420 210 357
777 1 2 0 420 357 211
778 1 2 0 421 211 235
779 1 2 0 422 211 358
780 1 2 0 422 358 212
781 1 2 0 423 212 359
782 1 2 0 423 359 236
783 1 2 0 424 212 213
784 1 2 0 425 213 360
785 1 2 0 425 360 237
786 1 2 0 426 213 214
787 1 2 0 427 214 361
788 1 2 0 427 361 238
789 1 2 0 428 214 215
790 1 2 0 429 215 362
791 1 2 0 429 362 239
792 1 2 0 430 215 216
793 1 2 0 431 216 363
794 1 2 0 431 363 240
795 1 2 0 432 216 364
796 1 2 0 432 364 193
797 1 2 0 433 217 241
798 1 2 0 434 217 365
799 1 2 0 434 365 366
800 1 2 0 434 366 218
801 1 2 0 435 218 367
802 1 2 0 435 367 242
803 1 2 0 436 218 219
804 1 2 0 437 219 368
805 1 2 0 437 368 243
806 1 2 0 438 219 220
807 1 2 0 439 220 369
808 1 2 0 439 369 244
809 1 2 0 440 220 221
810 1 2 0 441 221 370
811 1 2 0 441 370 245
812 1 2 0 442 221 222
813 1 2 0 443 222 246
814 1 2 0 444 222 371
815 1 2 0 444 371 372
816 1 2 0 444 372 223
817 1 2 0 445 223 247
818 1 2 0 446 223 373
819 1 2 0 446 373 374
820 1 2 0 446 374 224
821 1 2 0 447 224 248
822 1 2 0 448 224 225
823 1 2 0 449 225 375
824 1 2 0 449 375 249
825 1 2 0 450 225 226
826 1 2 0 451 226 376
827 1 2 0 451 376 250
828 1 2 0 452 226 227
829 1 2 0 453 227 377
830 1 2 0 453 377 251
831 1 2 0 454 227 228
832 1 2 0 455 228 378
833 1 2 0 455 378 252
834 1 2 0 456 228 379
835 1 2 0 456 379 380
836 1 2 0 456 380 229
837 1 2 0 457 229 253
838 1 2 0 458 229 381
839 1 2 0 458 381 382
840 1 2 0 458 382 230
841 1 2 0 459 230 383
842 1 2 0 459 383 254
843 1 2 0 460 230 231
844 1 2 0 461 231 384
845 1 2 0 461 384 255
846 1 2 0 462 231 232
847 1 2 0 463 232 385
848 1 2 0 463 385 256
849 1 2 0 464 232 233
850 1 2 0 465 233 386
851 1 2 0 465 386 257
852 1 2 0 466 233 234
853 1 2 0 467 234 258
854 1 2 0 468 234 387
855 1 2 0 468 387 388
856 1 2 0 468 388 235
857 1 2 0 469 235 259
858 1 2 0 470 235 389
859 1 2 0 470 389 390
860 1 2 0 470 390 236
861 1 2 0 471 236 260
862 1 2 0 472 236 237
863 1 2 0 473 237 391
864 1 2 0 473 391 261
865 1 2 0 474 237 238
866 1 2 0 475 238 392
867 1 2 0 475 392 262
868 1 2 0 476 238 239
869 1 2 0 477 239 393
870 1 2 0 477 393 263
871 1 2 0 478 239 240
872 1 2 0 479 240 394
873 1 2 0 479 394 264
874 1 2 0 480 240 395
875 1 2 0 480 395 396
876 1 2 0 480 396 217
877 1 2 0 481 241 265
878 1 2 0 482 241 397
879 1 2 0 482 397 398
880 1 2 0 482 398 399
881 1 2 0 482 399 242
882 1 2 0 483 242 266
883 1 2 0 484 242 243
884 1 2 0 485 243 267
885 1 2 0 486 243 244
886 1 2 0 487 244 268
887 1 2 0 488 244 245
888 1 2 0 489 245 269
889 1 2 0 490 245 246
890 1 2 0 491 246 270
891 1 2 0 492 246 400
892 1 2 0 492 400 401
893 1 2 0 492 401 402
894 1 2 0 492 402 247
895 1 2 0 493 247 271
896 1 2 0 494 247 403
897 1 2 0 494 403 404
898 1 2 0 494 404 405
899 1 2 0 494 405 248
900 1 2 0 495 248 272
901 1 2 0 496 248 249
902 1 2 0 497 249 273
903 1 2 0 498 249 250
904 1 2 0 499 250 274
905 1 2 0 500 250 251
906 1 2 0 501 251 275
907 1 2 0 502 251 252
908 1 2 0 503 252 276
909 1 2 0 504 252 406
910 1 2 0 504 406 407
911 1 2 0 504 407 408
912 1 2 0 504 408 253
913 1 2 0 505 253 277
914 1 2 0 506 253 409
915 1 2 0 506 409 410
916 1 2 0 506 410 411
917 1 2 0 506 411 254
918 1 2 0 507 254 278
919 1 2 0 508 254 255
920 1 2 0 509 255 279
921 1 2 0 510 255 256
922 1 2 0 511 256 280
923 1 2 0 512 256 257
924 1 2 0 513 257 281
925 1 2 0 514 257 258
926 1 2 0 515 258 282
927 1 2 0 516 258 412
928 1 2 0 516 412 413
929 1 2 0 516 413 414
930 1 2 0 516 414 259
931 1 2 0 517 259 283
932 1 2 0 518 259 415
933 1 2 0 518 415 416
934 1 2 0 518 416 417
935 1 2 0 518 417 260
936 1 2 0 519 260 284
937 1 2 0 520 260 261
938 1 2 0 521 261 285
939 1 2 0 522 261 262
940 1 2 0 523 262 286
941 1 2 0 524 262 263
942 1 2 0 525 263 287
943 1 2 0 526 263 264
944 1 2 0 527 264 288
945 1 2 0 528 264 418
946 1 2 0 528 418 419
947 1 2 0 528 419 420
948 1 2 0 528 420 241
949 1 2 0 529 265 289
950 1 2 0 530 265 421
951 1 2 0 530 421 422
952 1 2 0 530 422 423
953 1 2 0 530 423 266
954 1 2 0 531 266 290
955 1 2 0 532 266 267
956 1 2 0 533 267 291
957 1 2 0 534 267 268
958 1 2 0 535 268 292
959 1 2 0 536 268 269
960 1 2 0 537 269 293
961 1 2 0 538 269 270
962 1 2 0 539 270 294
963 1 2 0 540 270 424
964 1 2 0 540 424 425
965 1 2 0 540 425 426
966 1 2 0 540 426 271
967 1 2 0 541 271 295
968 1 2 0 542 271 427
969 1 2 0 542 427 428
970 1 2 0 542 428 429
971 1 2 0 542 429 272
972 1 2 0 543 272 296
973 1 2 0 544 272 273
974 1 2 0 545 273 297
975 1 2 0 546 273 274
976 1 2 0 547 274 298
977 1 2 0 548 274 275
978 1 2 0 549 275 299
979 1 2 0 550 275 276
980 1 2 0 551 276 300
981 1 2 0 552 276 430
982 1 2 0 552 430 431
983 1 2 0 552 431 432
984 1 2 0 552 432 277
985 1 2 0 553 277 301
986 1 2 0 554 277 433
987 1 2 0 554 433 434
988 1 2 0 554 434 435
989 1 2 0 554 435 278
990 1 2 0 555 278 302
991 1 2 0 556 278 279
992 1 2 0 557 279 303
993 1 2 0 558 279 280
994 1 2 0 559 280 304
995 1 2 0 560 280 281
996 1 2 0 561 281 305
997 1 2 0 562 281 282
998 1 2 0 563 282 306
999 1 2 0 564 282 436
1000 1 2 0 564 436 437
1001 1 2 0 564 437 438
1002 1 2 0 564 438 283
1003 1 2 0 565 283 307
1004 1 2 0 566 283 439
1005 1 2 0 566 439 440
1006 1 2 0 566 440 441
1007 1 2 0 566 441 284
1008 1 2 0 567 284 308
1009 1 2 0 568 284 285
1010 1 2 0 569 285 309
1011 1 2 0 570 285 286
1012 1 2 0 571 286 310
1013 1 2 0 572 286 287
1014 1 2 0 573 287 311
1015 1 2 0 574 287 288
1016 1 2 0 575 288 312
1017 1 2 0 576 288 442
1018 1 2 0 576 442 443
1019 1 2 0 576 443 444
1020 1 2 0 576 444 265
1021 1 2 0 578 289 445
1022 1 2 0 578 445 446
1023 1 2 0 578 446 447
1024 1 2 0 578 447 290
1025 1 2 0 580 290 291
1026 1 2 0 582 291 292
1027 1 2 0 584 292 293
1028 1 2 0 586 293 294
1029 1 2 0 588 294 448
1030 1 2 0 588 448 449
1031 1 2 0 588 449 450
1032 1 2 0 588 450 451
1033 1 2 0 588 451 295
1034 1 2 0 590 295 452
1035 1 2 0 590 452 453
1036 1 2 0 590 453 454
1037 1 2 0 590 454 455
1038 1 2 0 590 455 296
1039 1 2 0 592 296 297
1040 1 2 0 594 297 298
1041 1 2 0 596 298 299
1042 1 2 0 598 299 300
1043 1 2 0 600 300 456
1044 1 2 0 600 456 457
1045 1 2 0 600 457 458
1046 1 2 0 600 458 301
1047 1 2 0 602 301 459
1048 1 2 0 602 459 460
1049 1 2 0 602 460 461
1050 1 2 0 602 461 302
1051 1 2 0 604 302 303
1052 1 2 0 606 303 304
1053 1 2 0 608 304 305
1054 1 2 0 610 305 306
1055 1 2 0 612 306 462
1056 1 2 0 612 462 463
1057 1 2 0 612 463 464
1058 1 2 0 612 464 465
1059 1 2 0 612 465 307
1060 1 2 0 614 307 466
1061 1 2 0 614 466 467
1062 1 2 0 614 467 468
1063 1 2 0 614 468 469
1064 1 2 0 614 469 308
1065 1 2 0 616 308 309
1066 1 2 0 618 309 310
1067 1 2 0 620 310 311
1068 1 2 0 622 311 312
1069 1 2 0 624 312 470
1070 1 2 0 624 470 471
1071 1 2 0 624 471 472
1072 1 2 0 624 472 289
1073 2 2 0 38 26 2 473
1074 2 2 0 38 1 25 473
1075 2 2 0 38 2 1 473
1076 2 2 0 38 25 26 473
1077 2 2 0 39 26 3 2
1078 2 2 0 39 27 3 26
1079 2 2 0 40 27 4 3
1080 2 2 0 40 28 4 27
1081 2 2 0 41 28 5 4
1082 2 2 0 41 29 5 28
1083 2 2 0 42 30 6 5
1084 2 2 0 42 29 30 5
1085 2 2 0 43 6 30 474
1086 2 2 0 43 31 7 474
1087 2 2 0 43 7 6 474
1088 2 2 0 43 30 31 474
1089 2 2 0 44 32 8 475
1090 2 2 0 44 7 31 475
1091 2 2 0 44 8 7 475
1092 2 2 0 44 31 32 475
1093 2 2 0 45 32 9 8
1094 2 2 0 45 33 9 32
1095 2 2 0 46 34 10 9
1096 2 2 0 46 33 34 9
1097 2 2 0 47 35 11 10
1098 2 2 0 47 34 35 10
1099 2 2 0 48 36 12 11
1100 2 2 0 48 35 36 11
1101 2 2 0 49 12 36 476
1102 2 2 0 49 37 13 476
1103 2 2 0 49 13 12 476
1104 2 2 0 49 36 37 476
1105 2 2 0 50 38 14 477
1106 2 2 0 50 13 37 477
1107 2 2 0 50 14 13 477
1108 2 2 0 50 37 38 477
1109 2 2 0 51 38 15 14
1110 2 2 0 51 39 15 38
1111 2 2 0 52 39 16 15
1112 2 2 0 52 40 16 39
1113 2 2 0 53 40 17 16
1114 2 2 0 53 41 17 40
1115 2 2 0 54 42 18 17
1116 2 2 0 54 41 42 17
1117 2 2 0 55 18 42 478
1118 2 2 0 55 43 19 478
1119 2 2 0 55 19 18 478
1120 2 2 0 55 42 43 478
1121 2 2 0 56 44 20 479
1122 2 2 0 56 19 43 479
1123 2 2 0 56 20 19 479
1124 2 2 0 56 43 44 479
1125 2 2 0 57 44 21 20
1126 2 2 0 57 45 21 44
1127 2 2 0 58 46 22 21
1128 2 2 0 58 45 46 21
1129 2 2 0 59 47 23 22
1130 2 2 0 59 46 47 22
1131 2 2 0 60 48 24 23
1132 2 2 0 60 47 48 23
1133 2 2 0 61 24 48 480
1134 2 2 0 61 25 1 480
1135 2 2 0 61 1 24 480
1136 2 2 0 61 48 25 480
1137 2 2 0 62 49 50 481
1138 2 2 0 62 50 26 481
1139 2 2 0 62 25 49 481
1140 2 2 0 62 26 25 481
1141 2 2 0 63 50 27 26
1142 2 2 0 63 51 27 50
1143 2 2 0 64 52 28 51
1144 2 2 0 64 51 28 27
1145 2 2 0 65 52 29 28
1146 2 2 0 65 53 29 52
1147 2 2 0 66 53 54 29
1148 2 2 0 66 54 30 29
1149 2 2 0 67 54 55 482
1150 2 2 0 67 31 30 482
1151 2 2 0 67 30 54 482
1152 2 2 0 67 55 31 482
1153 2 2 0 68 55 56 483
1154 2 2 0 68 32 31 483
1155 2 2 0 68 56 32 483
1156 2 2 0 68 31 55 483
1157 2 2 0 69 57 33 56
1158 2 2 0 69 56 33 32
1159 2 2 0 70 58 34 33
1160 2 2 0 70 57 58 33
1161 2 2 0 71 58 59 34
1162 2 2 0 71 59 35 34
1163 2 2 0 72 60 36 35
1164 2 2 0 72 59 60 35
1165 2 2 0 73 60 61 484
1166 2 2 0 73 36 60 484
1167 2 2 0 73 61 37 484
1168 2 2 0 73 37 36 484
1169 2 2 0 74 61 62 485
1170 2 2 0 74 62 38 485
1171 2 2 0 74 37 61 485
1172 2 2 0 74 38 37 485
1173 2 2 0 75 62 39 38
1174 2 2 0 75 63 39 62
1175 2 2 0 76 64 40 63
1176 2 2 0 76 63 40 39
1177 2 2 0 77 64 41 40
1178 2 2 0 77 65 41 64
1179 2 2 0 78 65 66 41
1180 2 2 0 78 66 42 41
1181 2 2 0 79 66 67 486
1182 2 2 0 79 43 42 486
1183 2 2 0 79 42 66 486
1184 2 2 0 79 67 43 486
1185 2 2 0 80 67 68 487
1186 2 2 0 80 44 43 487
1187 2 2 0 80 68 44 487
1188 2 2 0 80 43 67 487
1189 2 2 0 81 69 45 68
1190 2 2 0 81 68 45 44
1191 2 2 0 82 70 46 45
1192 2 2 0 82 69 70 45
1193 2 2 0 83 70 71 46
1194 2 2 0 83 71 47 46
1195 2 2 0 84 72 48 47
1196 2 2 0 84 71 72 47
1197 2 2 0 85 72 49 488
1198 2 2 0 85 48 72 488
1199 2 2 0 85 49 25 488
1200 2 2 0 85 25 48 488
1201 2 2 0 86 74 50 489
1202 2 2 0 86 49 73 489
1203 2 2 0 86 73 74 489
1204 2 2 0 86 50 49 489
1205 2 2 0 87 74 51 50
1206 2 2 0 87 75 51 74
1207 2 2 0 88 75 52 51
1208 2 2 0 88 75 76 52
1209 2 2 0 89 76 53 52
1210 2 2 0 89 77 53 76
1211 2 2 0 90 78 54 53
1212 2 2 0 90 77 78 53
1213 2 2 0 91 54 78 490
1214 2 2 0 91 79 55 490
1215 2 2 0 91 78 79 490
1216 2 2 0 91 55 54 490
1217 2 2 0 92 80 56 491
1218 2 2 0 92 55 79 491
1219 2 2 0 92 79 80 491
1220 2 2 0 92 56 55 491
1221 2 2 0 93 80 57 56
1222 2 2 0 93 80 81 57
1223 2 2 0 94 82 58 57
1224 2 2 0 94 81 82 57
1225 2 2 0 95 83 59 58
1226 2 2 0 95 82 83 58
1227 2 2 0 96 84 60 59
1228 2 2 0 96 83 84 59
1229 2 2 0 97 60 84 492
1230 2 2 0 97 85 61 492
1231 2 2 0 97 84 85 492
1232 2 2 0 97 61 60 492
1233 2 2 0 98 86 62 493
1234 2 2 0 98 61 85 493
1235 2 2 0 98 85 86 493
1236 2 2 0 98 62 61 493
1237 2 2 0 99 86 63 62
1238 2 2 0 99 87 63 86
1239 2 2 0 100 87 64 63
1240 2 2 0 100 87 88 64
1241 2 2 0 101 88 65 64
1242 2 2 0 101 89 65 88
1243 2 2 0 102 90 66 65
1244 2 2 0 102 89 90 65
1245 2 2 0 103 66 90 494
1246 2 2 0 103 91 67 494
1247 2 2 0 103 90 91 494
1248 2 2 0 103 67 66 494
1249 2 2 0 104 92 68 495
1250 2 2 0 104 67 91 495
1251 2 2 0 104 91 92 495
1252 2 2 0 104 68 67 495
1253 2 2 0 105 92 69 68
1254 2 2 0 105 92 93 69
1255 2 2 0 106 94 70 69
1256 2 2 0 106 93 94 69
1257 2 2 0 107 95 71 70
1258 2 2 0 107 94 95 70
1259 2 2 0 108 96 72 71
1260 2 2 0 108 95 96 71
1261 2 2 0 109 72 96 496
1262 2 2 0 109 73 49 496
1263 2 2 0 109 96 73 496
1264 2 2 0 109 49 72 496
1265 2 2 0 110 73 97 497
1266 2 2 0 110 98 74 497
1267 2 2 0 110 74 73 497
1268 2 2 0 110 97 98 497
1269 2 2 0 111 98 75 74
1270 2 2 0 111 98 99 75
1271 2 2 0 112 99 76 75
1272 2 2 0 112 99 100 76
1273 2 2 0 113 100 77 76
1274 2 2 0 113 100 101 77
1275 2 2 0 114 77 102 78
1276 2 2 0 114 101 102 77
1277 2 2 0 115 78 102 498
1278 2 2 0 115 103 79 498
1279 2 2 0 115 102 103 498
1280 2 2 0 115 79 78 498
1281 2 2 0 116 104 80 499
1282 2 2 0 116 79 103 499
1283 2 2 0 116 103 104 499
1284 2 2 0 116 80 79 499
1285 2 2 0 117 104 81 80
1286 2 2 0 117 104 105 81
1287 2 2 0 118 106 82 81
1288 2 2 0 118 105 106 81
1289 2 2 0 119 82 107 83
1290 2 2 0 119 106 107 82
1291 2 2 0 120 83 108 84
1292 2 2 0 120 107 108 83
1293 2 2 0 121 109 85 500
1294 2 2 0 121 84 108 500
1295 2 2 0 121 85 84 500
1296 2 2 0 121 108 109 500
1297 2 2 0 122 85 109 501
1298 2 2 0 122 110 86 501
1299 2 2 0 122 86 85 501
1300 2 2 0 122 109 110 501
1301 2 2 0 123 110 87 86
1302 2 2 0 123 110 111 87
1303 2 2 0 124 111 88 87
1304 2 2 0 124 111 112 88
1305 2 2 0 125 112 89 88
1306 2 2 0 125 112 113 89
1307 2 2 0 126 89 114 90
1308 2 2 0 126 113 114 89
1309 2 2 0 127 90 114 502
1310 2 2 0 127 115 91 502
1311 2 2 0 127 114 115 502
1312 2 2 0 127 91 90 502
1313 2 2 0 128 116 92 503
1314 2 2 0 128 91 115 503
1315 2 2 0 128 115 116 503
1316 2 2 0 128 92 91 503
1317 2 2 0 129 116 93 92
1318 2 2 0 129 116 117 93
1319 2 2 0 130 118 94 93
1320 2 2 0 130 117 118 93
1321 2 2 0 131 94 119 95
1322 2 2 0 131 118 119 94
1323 2 2 0 132 95 120 96
1324 2 2 0 132 119 120 95
1325 2 2 0 133 97 73 504
1326 2 2 0 133 96 120 504
1327 2 2 0 133 73 96 504
1328 2 2 0 133 120 97 504
1329 2 2 0 134 122 98 505
1330 2 2 0 134 97 121 505
1331 2 2 0 134 121 122 505
1332 2 2 0 134 98 97 505
1333 2 2 0 135 122 99 98
1334 2 2 0 135 122 123 99
1335 2 2 0 136 123 100 99
1336 2 2 0 136 123 124 100
1337 2 2 0 137 124 101 100
1338 2 2 0 137 124 125 101
1339 2 2 0 138 101 126 102
1340 2 2 0 138 125 126 101
1341 2 2 0 139 126 127 506
1342 2 2 0 139 102 126 506
1343 2 2 0 139 127 103 506
1344 2 2 0 139 103 102 506
1345 2 2 0 140 127 128 507
1346 2 2 0 140 128 104 507
1347 2 2 0 140 103 127 507
1348 2 2 0 140 104 103 507
1349 2 2 0 141 128 105 104
1350 2 2 0 141 128 129 105
1351 2 2 0 142 105 130 106
1352 2 2 0 142 129 130 105
1353 2 2 0 143 106 131 107
1354 2 2 0 143 130 131 106
1355 2 2 0 144 107 132 108
1356 2 2 0 144 131 132 107
1357 2 2 0 145 108 132 508
1358 2 2 0 145 133 109 508
1359 2 2 0 145 132 133 508
1360 2 2 0 145 109 108 508
1361 2 2 0 146 134 110 509
1362 2 2 0 146 109 133 509
1363 2 2 0 146 133 134 509
1364 2 2 0 146 110 109 509
1365 2 2 0 147 134 111 110
1366 2 2 0 147 134 135 111
1367 2 2 0 148 135 112 111
1368 2 2 0 148 135 136 112
1369 2 2 0 149 136 113 112
1370 2 2 0 149 136 137 113
1371 2 2 0 150 113 138 114
1372 2 2 0 150 137 138 113
1373 2 2 0 151 138 139 510
1374 2 2 0 151 114 138 510
1375 2 2 0 151 139 115 510
1376 2 2 0 151 115 114 510
1377 2 2 0 152 139 140 511
1378 2 2 0 152 140 116 511
1379 2 2 0 152 115 139 511
1380 2 2 0 152 116 115 511
1381 2 2 0 153 140 117 116
1382 2 2 0 153 140 141 117
1383 2 2 0 154 117 142 118
1384 2 2 0 154 141 142 117
1385 2 2 0 155 118 143 119
1386 2 2 0 155 142 143 118
1387 2 2 0 156 119 144 120
1388 2 2 0 156 143 144 119
1389 2 2 0 157 120 144 512
1390 2 2 0 157 121 97 512
1391 2 2 0 157 144 121 512
1392 2 2 0 157 97 120 512
1393 2 2 0 158 145 146 513
1394 2 2 0 158 146 122 513
1395 2 2 0 158 121 145 513
1396 2 2 0 158 122 121 513
1397 2 2 0 159 146 123 122
1398 2 2 0 159 146 147 123
1399 2 2 0 160 147 124 123
1400 2 2 0 160 147 148 124
1401 2 2 0 161 148 125 124
1402 2 2 0 161 148 149 125
1403 2 2 0 162 125 150 126
1404 2 2 0 162 149 150 125
1405 2 2 0 163 151 127 126
1406 2 2 0 163 150 151 126
1407 2 2 0 164 151 128 127
1408 2 2 0 164 152 128 151
1409 2 2 0 165 152 129 128
1410 2 2 0 165 152 153 129
1411 2 2 0 166 129 154 130
1412 2 2 0 166 153 154 129
1413 2 2 0 167 130 155 131
1414 2 2 0 167 154 155 130
1415 2 2 0 168 131 156 132
1416 2 2 0 168 155 156 131
1417 2 2 0 169 156 157 514
1418 2 2 0 169 132 156 514
1419 2 2 0 169 157 133 514
1420 2 2 0 169 133 132 514
1421 2 2 0 170 157 158 515
1422 2 2 0 170 158 134 515
1423 2 2 0 170 133 157 515
1424 2 2 0 170 134 133 515
1425 2 2 0 171 158 135 134
1426 2 2 0 171 158 159 135
1427 2 2 0 172 159 136 135
1428 2 2 0 172 159 160 136
1429 2 2 0 173 160 137 136
1430 2 2 0 173 160 161 137
1431 2 2 0 174 137 162 138
1432 2 2 0 174 161 162 137
1433 2 2 0 175 163 139 138
1434 2 2 0 175 162 163 138
1435 2 2 0 176 163 140 139
1436 2 2 0 176 164 140 163
1437 2 2 0 177 164 141 140
1438 2 2 0 177 164 165 141
1439 2 2 0 178 141 166 142
1440 2 2 0 178 165 166 141
1441 2 2 0 179 142 167 143
1442 2 2 0 179 166 167 142
1443 2 2 0 180 143 168 144
1444 2 2 0 180 167 168 143
1445 2 2 0 181 168 145 516
1446 2 2 0 181 144 168 516
1447 2 2 0 181 145 121 516
1448 2 2 0 181 121 144 516
1449 2 2 0 182 169 313 145
1450 2 2 0 182 313 146 145
1451 2 2 0 182 146 313 170
1452 2 2 0 183 170 147 146
1453 2 2 0 183 170 171 147
1454 2 2 0 184 171 148 147
1455 2 2 0 184 171 172 148
1456 2 2 0 185 172 149 148
1457 2 2 0 185 173 149 172
1458 2 2 0 186 149 174 150
1459 2 2 0 186 173 174 149
1460 2 2 0 187 151 150 517
1461 2 2 0 187 174 318 150
1462 2 2 0 187 150 318 517
1463 2 2 0 187 175 151 517
1464 2 2 0 187 318 175 517
1465 2 2 0 188 152 151 518
1466 2 2 0 188 152 319 176
1467 2 2 0 188 319 152 518
1468 2 2 0 188 151 175 518
1469 2 2 0 188 175 319 518
1470 2 2 0 189 176 153 152
1471 2 2 0 189 176 177 153
1472 2 2 0 190 153 178 154
1473 2 2 0 190 177 178 153
1474 2 2 0 191 154 179 155
1475 2 2 0 191 178 179 154
1476 2 2 0 192 155 180 156
1477 2 2 0 192 179 180 155
1478 2 2 0 193 157 324 181
1479 2 2 0 193 324 157 156
1480 2 2 0 193 180 324 156
1481 2 2 0 194 181 325 157
1482 2 2 0 194 325 158 157
1483 2 2 0 194 158 325 182
1484 2 2 0 195 182 159 158
1485 2 2 0 195 182 183 159
1486 2 2 0 196 183 160 159
1487 2 2 0 196 183 184 160
1488 2 2 0 197 184 161 160
1489 2 2 0 197 185 161 184
1490 2 2 0 198 161 186 162
1491 2 2 0 198 185 186 161
1492 2 2 0 199 163 162 519
1493 2 2 0 199 186 330 162
1494 2 2 0 199 162 330 519
1495 2 2 0 199 187 163 519
1496 2 2 0 199 330 187 519
1497 2 2 0 200 164 163 520
1498 2 2 0 200 164 331 188
1499 2 2 0 200 331 164 520
1500 2 2 0 200 163 187 520
1501 2 2 0 200 187 331 520
1502 2 2 0 201 188 165 164
1503 2 2 0 201 188 189 165
1504 2 2 0 202 165 190 166
1505 2 2 0 202 189 190 165
1506 2 2 0 203 166 191 167
1507 2 2 0 203 190 191 166
1508 2 2 0 204 167 192 168
1509 2 2 0 204 191 192 167
1510 2 2 0 205 145 336 169
1511 2 2 0 205 336 145 168
1512 2 2 0 205 192 336 168
1513 2 2 0 206 337 314 522
1514 2 2 0 206 169 193 521
1515 2 2 0 206 193 337 521
1516 2 2 0 206 170 313 522
1517 2 2 0 206 314 170 522
1518 2 2 0 206 313 169 521
1519 2 2 0 206 313 521 522
1520 2 2 0 206 521 337 522
1521 2 2 0 206 314 337 194
1522 2 2 0 207 314 171 170
1523 2 2 0 207 315 171 314
1524 2 2 0 207 195 315 194
1525 2 2 0 207 315 314 194
1526 2 2 0 208 315 172 171
1527 2 2 0 208 316 172 315
1528 2 2 0 208 196 316 195
1529 2 2 0 208 316 315 195
1530 2 2 0 209 316 173 172
1531 2 2 0 209 317 173 316
1532 2 2 0 209 197 317 196
1533 2 2 0 209 317 316 196
1534 2 2 0 210 198 317 197
1535 2 2 0 210 317 174 173
1536 2 2 0 210 317 198 174
1537 2 2 0 211 175 318 199
1538 2 2 0 211 198 343 174
1539 2 2 0 211 343 318 174
1540 2 2 0 211 199 318 343
1541 2 2 0 212 199 319 175
1542 2 2 0 212 200 176 344
1543 2 2 0 212 176 319 344
1544 2 2 0 212 319 199 344
1545 2 2 0 213 201 320 200
1546 2 2 0 213 320 177 176
1547 2 2 0 213 200 320 176
1548 2 2 0 214 321 178 177
1549 2 2 0 214 320 321 177
1550 2 2 0 214 201 202 320
1551 2 2 0 214 202 321 320
1552 2 2 0 215 322 179 178
1553 2 2 0 215 321 322 178
1554 2 2 0 215 202 203 321
1555 2 2 0 215 203 322 321
1556 2 2 0 216 323 180 179
1557 2 2 0 216 322 323 179
1558 2 2 0 216 203 204 322
1559 2 2 0 216 204 323 322
1560 2 2 0 217 323 350 524
1561 2 2 0 217 205 181 523
1562 2 2 0 217 350 205 523
1563 2 2 0 217 324 180 524
1564 2 2 0 217 180 323 524
1565 2 2 0 217 181 324 523
1566 2 2 0 217 523 324 524
1567 2 2 0 217 350 523 524
1568 2 2 0 217 204 350 323
1569 2 2 0 218 351 326 526
1570 2 2 0 218 181 205 525
1571 2 2 0 218 205 351 525
1572 2 2 0 218 182 325 526
1573 2 2 0 218 326 182 526
1574 2 2 0 218 325 181 525
1575 2 2 0 218 325 525 526
1576 2 2 0 218 525 351 526
1577 2 2 0 218 326 351 206
1578 2 2 0 219 326 183 182
1579 2 2 0 219 327 183 326
1580 2 2 0 219 207 327 206
1581 2 2 0 219 327 326 206
1582 2 2 0 220 327 184 183
1583 2 2 0 220 328 184 327
1584 2 2 0 220 208 328 207
1585 2 2 0 220 328 327 207
1586 2 2 0 221 328 185 184
1587 2 2 0 221 329 185 328
1588 2 2 0 221 209 329 208
1589 2 2 0 221 329 328 208
1590 2 2 0 222 210 329 209
1591 2 2 0 222 329 186 185
1592 2 2 0 222 329 210 186
1593 2 2 0 223 187 330 211
1594 2 2 0 223 210 357 186
1595 2 2 0 223 357 330 186
1596 2 2 0 223 330 357 211
1597 2 2 0 224 211 331 187
1598 2 2 0 224 188 358 212
1599 2 2 0 224 188 331 358
1600 2 2 0 224 358 331 211
1601 2 2 0 225 213 332 212
1602 2 2 0 225 332 189 188
1603 2 2 0 225 212 332 188
1604 2 2 0 226 333 190 189
1605 2 2 0 226 332 333 189
1606 2 2 0 226 213 214 332
1607 2 2 0 226 214 333 332
1608 2 2 0 227 334 191 190
1609 2 2 0 227 333 334 190
1610 2 2 0 227 214 215 333
1611 2 2 0 227 215 334 333
1612 2 2 0 228 335 192 191
1613 2 2 0 228 334 335 191
1614 2 2 0 228 215 216 334
1615 2 2 0 228 216 335 334
1616 2 2 0 229 335 364 528
1617 2 2 0 229 193 169 527
1618 2 2 0 229 364 193 527
1619 2 2 0 229 336 192 528
1620 2 2 0 229 192 335 528
1621 2 2 0 229 169 336 527
1622 2 2 0 229 527 336 528
1623 2 2 0 229 364 527 528
1624 2 2 0 229 216 364 335
1625 2 2 0 230 217 365 193
1626 2 2 0 230 365 337 193
1627 2 2 0 230 338 366 218
1628 2 2 0 230 194 337 529
1629 2 2 0 230 338 194 529
1630 2 2 0 230 337 365 529
1631 2 2 0 230 366 338 529
1632 2 2 0 230 365 366 529
1633 2 2 0 231 338 195 194
1634 2 2 0 231 339 195 338
1635 2 2 0 231 219 339 218
1636 2 2 0 231 339 338 218
1637 2 2 0 232 339 196 195
1638 2 2 0 232 340 196 339
1639 2 2 0 232 340 339 219
1640 2 2 0 232 220 340 219
1641 2 2 0 233 340 197 196
1642 2 2 0 233 341 197 340
1643 2 2 0 233 221 340 220
1644 2 2 0 233 221 341 340
1645 2 2 0 234 342 198 197
1646 2 2 0 234 341 342 197
1647 2 2 0 234 222 341 221
1648 2 2 0 234 222 342 341
1649 2 2 0 235 199 343 531
1650 2 2 0 235 371 372 530
1651 2 2 0 235 342 371 532
1652 2 2 0 235 372 343 530
1653 2 2 0 235 372 223 531
1654 2 2 0 235 223 199 531
1655 2 2 0 235 343 372 531
1656 2 2 0 235 198 342 532
1657 2 2 0 235 530 198 532
1658 2 2 0 235 371 530 532
1659 2 2 0 235 343 198 530
1660 2 2 0 235 371 342 222
1661 2 2 0 236 344 199 534
1662 2 2 0 236 373 374 533
1663 2 2 0 236 374 345 535
1664 2 2 0 236 344 373 533
1665 2 2 0 236 223 373 534
1666 2 2 0 236 199 223 534
1667 2 2 0 236 373 344 534
1668 2 2 0 236 345 200 535
1669 2 2 0 236 200 533 535
1670 2 2 0 236 533 374 535
1671 2 2 0 236 200 344 533
1672 2 2 0 236 345 374 224
1673 2 2 0 237 345 201 200
1674 2 2 0 237 346 201 345
1675 2 2 0 237 225 346 224
1676 2 2 0 237 346 345 224
1677 2 2 0 238 347 202 201
1678 2 2 0 238 346 347 201
1679 2 2 0 238 226 347 225
1680 2 2 0 238 347 346 225
1681 2 2 0 239 348 203 202
1682 2 2 0 239 347 348 202
1683 2 2 0 239 227 348 347
1684 2 2 0 239 227 347 226
1685 2 2 0 240 349 204 203
1686 2 2 0 240 348 349 203
1687 2 2 0 240 228 348 227
1688 2 2 0 240 228 349 348
1689 2 2 0 241 205 380 229
1690 2 2 0 241 205 350 380
1691 2 2 0 241 379 349 228
1692 2 2 0 241 350 204 536
1693 2 2 0 241 204 349 536
1694 2 2 0 241 380 350 536
1695 2 2 0 241 349 379 536
1696 2 2 0 241 379 380 536
1697 2 2 0 242 229 381 205
1698 2 2 0 242 381 351 205
1699 2 2 0 242 352 382 230
1700 2 2 0 242 206 351 537
1701 2 2 0 242 352 206 537
1702 2 2 0 242 351 381 537
1703 2 2 0 242 382 352 537
1704 2 2 0 242 381 382 537
1705 2 2 0 243 352 207 206
1706 2 2 0 243 353 207 352
1707 2 2 0 243 231 353 230
1708 2 2 0 243 353 352 230
1709 2 2 0 244 353 208 207
1710 2 2 0 244 354 208 353
1711 2 2 0 244 354 353 231
1712 2 2 0 244 232 354 231
1713 2 2 0 245 354 209 208
1714 2 2 0 245 355 209 354
1715 2 2 0 245 233 354 232
1716 2 2 0 245 233 355 354
1717 2 2 0 246 356 210 209
1718 2 2 0 246 355 356 209
1719 2 2 0 246 234 355 233
1720 2 2 0 246 234 356 355
1721 2 2 0 247 211 357 539
1722 2 2 0 247 387 388 538
1723 2 2 0 247 356 387 540
1724 2 2 0 247 388 357 538
1725 2 2 0 247 388 235 539
1726 2 2 0 247 235 211 539
1727 2 2 0 247 357 388 539
1728 2 2 0 247 210 356 540
1729 2 2 0 247 538 210 540
1730 2 2 0 247 387 538 540
1731 2 2 0 247 357 210 538
1732 2 2 0 247 387 356 234
1733 2 2 0 248 358 211 542
1734 2 2 0 248 389 390 541
1735 2 2 0 248 390 359 543
1736 2 2 0 248 358 389 541
1737 2 2 0 248 235 389 542
1738 2 2 0 248 211 235 542
1739 2 2 0 248 389 358 542
1740 2 2 0 248 359 212 543
1741 2 2 0 248 212 541 543
1742 2 2 0 248 541 390 543
1743 2 2 0 248 212 358 541
1744 2 2 0 248 359 390 236
1745 2 2 0 249 359 213 212
1746 2 2 0 249 360 213 359
1747 2 2 0 249 237 360 236
1748 2 2 0 249 360 359 236
1749 2 2 0 250 361 214 213
1750 2 2 0 250 360 361 213
1751 2 2 0 250 238 361 237
1752 2 2 0 250 361 360 237
1753 2 2 0 251 362 215 214
1754 2 2 0 251 361 362 214
1755 2 2 0 251 239 362 361
1756 2 2 0 251 239 361 238
1757 2 2 0 252 363 216 215
1758 2 2 0 252 362 363 215
1759 2 2 0 252 240 362 239
1760 2 2 0 252 240 363 362
1761 2 2 0 253 217 193 396
1762 2 2 0 253 193 364 396
1763 2 2 0 253 395 363 240
1764 2 2 0 253 364 216 544
1765 2 2 0 253 216 363 544
1766 2 2 0 253 396 364 544
1767 2 2 0 253 363 395 544
1768 2 2 0 253 395 396 544
1769 2 2 0 254 398 365 397
1770 2 2 0 254 366 365 398
1771 2 2 0 254 242 367 399
1772 2 2 0 254 367 218 545
1773 2 2 0 254 218 366 545
1774 2 2 0 254 399 367 545
1775 2 2 0 254 366 398 545
1776 2 2 0 254 398 399 545
1777 2 2 0 254 397 365 546
1778 2 2 0 254 217 241 546
1779 2 2 0 254 365 217 546
1780 2 2 0 254 241 397 546
1781 2 2 0 255 367 219 218
1782 2 2 0 255 368 219 367
1783 2 2 0 255 243 368 242
1784 2 2 0 255 368 367 242
1785 2 2 0 256 368 220 219
1786 2 2 0 256 369 220 368
1787 2 2 0 256 244 369 243
1788 2 2 0 256 369 368 243
1789 2 2 0 257 370 221 220
1790 2 2 0 257 369 370 220
1791 2 2 0 257 245 369 244
1792 2 2 0 257 245 370 369
1793 2 2 0 258 246 370 245
1794 2 2 0 258 370 222 221
1795 2 2 0 258 370 246 222
1796 2 2 0 259 400 371 222
1797 2 2 0 259 401 371 400
1798 2 2 0 259 246 400 222
1799 2 2 0 259 372 371 548
1800 2 2 0 259 223 372 547
1801 2 2 0 259 401 402 548
1802 2 2 0 259 402 247 547
1803 2 2 0 259 402 372 548
1804 2 2 0 259 247 223 547
1805 2 2 0 259 372 402 547
1806 2 2 0 259 371 401 548
1807 2 2 0 260 224 374 405
1808 2 2 0 260 374 404 405
1809 2 2 0 260 248 224 405
1810 2 2 0 260 374 373 550
1811 2 2 0 260 373 223 549
1812 2 2 0 260 403 404 550
1813 2 2 0 260 247 403 549
1814 2 2 0 260 373 403 550
1815 2 2 0 260 223 247 549
1816 2 2 0 260 403 373 549
1817 2 2 0 260 404 374 550
1818 2 2 0 261 249 375 248
1819 2 2 0 261 375 225 224
1820 2 2 0 261 248 375 224
1821 2 2 0 262 375 226 225
1822 2 2 0 262 376 226 375
1823 2 2 0 262 250 376 249
1824 2 2 0 262 376 375 249
1825 2 2 0 263 377 227 226
1826 2 2 0 263 376 377 226
1827 2 2 0 263 251 376 250
1828 2 2 0 263 251 377 376
1829 2 2 0 264 378 228 227
1830 2 2 0 264 377 378 227
1831 2 2 0 264 252 377 251
1832 2 2 0 264 252 378 377
1833 2 2 0 265 380 407 408
1834 2 2 0 265 379 407 380
1835 2 2 0 265 406 378 252
1836 2 2 0 265 228 378 551
1837 2 2 0 265 379 228 551
1838 2 2 0 265 378 406 551
1839 2 2 0 265 407 379 551
1840 2 2 0 265 406 407 551
1841 2 2 0 265 380 408 552
1842 2 2 0 265 253 229 552
1843 2 2 0 265 229 380 552
1844 2 2 0 265 408 253 552
1845 2 2 0 266 410 381 409
1846 2 2 0 266 382 381 410
1847 2 2 0 266 254 383 411
1848 2 2 0 266 383 230 553
1849 2 2 0 266 230 382 553
1850 2 2 0 266 411 383 553
1851 2 2 0 266 382 410 553
1852 2 2 0 266 410 411 553
1853 2 2 0 266 409 381 554
1854 2 2 0 266 229 253 554
1855 2 2 0 266 381 229 554
1856 2 2 0 266 253 409 554
1857 2 2 0 267 383 231 230
1858 2 2 0 267 231 383 384
1859 2 2 0 267 255 384 254
1860 2 2 0 267 384 383 254
1861 2 2 0 268 384 232 231
1862 2 2 0 268 232 384 385
1863 2 2 0 268 256 385 255
1864 2 2 0 268 385 384 255
1865 2 2 0 269 386 233 232
1866 2 2 0 269 385 386 232
1867 2 2 0 269 257 385 256
1868 2 2 0 269 385 257 386
1869 2 2 0 270 258 386 257
1870 2 2 0 270 386 234 233
1871 2 2 0 270 386 258 234
1872 2 2 0 271 412 387 234
1873 2 2 0 271 413 387 412
1874 2 2 0 271 258 412 234
1875 2 2 0 271 388 387 556
1876 2 2 0 271 235 388 555
1877 2 2 0 271 413 414 556
1878 2 2 0 271 414 259 555
1879 2 2 0 271 414 388 556
1880 2 2 0 271 259 235 555
1881 2 2 0 271 388 414 555
1882 2 2 0 271 387 413 556
1883 2 2 0 272 236 390 417
1884 2 2 0 272 390 416 417
1885 2 2 0 272 260 236 417
1886 2 2 0 272 390 389 558
1887 2 2 0 272 389 235 557
1888 2 2 0 272 415 416 558
1889 2 2 0 272 259 415 557
1890 2 2 0 272 389 415 558
1891 2 2 0 272 235 259 557
1892 2 2 0 272 415 389 557
1893 2 2 0 272 416 390 558
1894 2 2 0 273 261 391 260
1895 2 2 0 273 391 237 236
1896 2 2 0 273 260 391 236
1897 2 2 0 274 391 238 237
1898 2 2 0 274 392 238 391
1899 2 2 0 274 262 392 261
1900 2 2 0 274 392 391 261
1901 2 2 0 275 393 239 238
1902 2 2 0 275 392 393 238
1903 2 2 0 275 263 392 262
1904 2 2 0 275 263 393 392
1905 2 2 0 276 394 240 239
1906 2 2 0 276 393 394 239
1907 2 2 0 276 264 393 263
1908 2 2 0 276 264 394 393
1909 2 2 0 277 419 420 396
1910 2 2 0 277 395 419 396
1911 2 2 0 277 418 394 264
1912 2 2 0 277 240 394 559
1913 2 2 0 277 395 240 559
1914 2 2 0 277 394 418 559
1915 2 2 0 277 419 395 559
1916 2 2 0 277 418 419 559
1917 2 2 0 277 396 420 560
1918 2 2 0 277 241 217 560
1919 2 2 0 277 217 396 560
1920 2 2 0 277 420 241 560
1921 2 2 0 278 422 398 421
1922 2 2 0 278 265 421 561
1923 2 2 0 278 421 398 397
1924 2 2 0 278 399 422 423
1925 2 2 0 278 399 398 422
1926 2 2 0 278 266 242 423
1927 2 2 0 278 242 399 423
1928 2 2 0 278 397 241 561
1929 2 2 0 278 421 397 561
1930 2 2 0 278 241 265 561
1931 2 2 0 279 266 243 242
1932 2 2 0 279 267 243 266
1933 2 2 0 280 267 244 243
1934 2 2 0 280 268 244 267
1935 2 2 0 281 269 245 244
1936 2 2 0 281 268 269 244
1937 2 2 0 282 245 270 246
1938 2 2 0 282 269 270 245
1939 2 2 0 283 424 425 400
1940 2 2 0 283 247 402 562
1941 2 2 0 283 425 401 400
1942 2 2 0 283 270 424 246
1943 2 2 0 283 424 400 246
1944 2 2 0 283 402 426 562
1945 2 2 0 283 271 247 562
1946 2 2 0 283 426 271 562
1947 2 2 0 283 401 426 402
1948 2 2 0 283 401 425 426
1949 2 2 0 284 405 428 429
1950 2 2 0 284 403 247 563
1951 2 2 0 284 405 404 428
1952 2 2 0 284 272 248 429
1953 2 2 0 284 248 405 429
1954 2 2 0 284 427 403 563
1955 2 2 0 284 247 271 563
1956 2 2 0 284 271 427 563
1957 2 2 0 284 427 404 403
1958 2 2 0 284 428 404 427
1959 2 2 0 285 272 249 248
1960 2 2 0 285 272 273 249
1961 2 2 0 286 273 250 249
1962 2 2 0 286 274 250 273
1963 2 2 0 287 275 251 250
1964 2 2 0 287 274 275 250
1965 2 2 0 288 276 252 251
1966 2 2 0 288 275 276 251
1967 2 2 0 289 407 431 432
1968 2 2 0 289 432 277 564
1969 2 2 0 289 407 432 408
1970 2 2 0 289 430 431 406
1971 2 2 0 289 431 407 406
1972 2 2 0 289 276 430 252
1973 2 2 0 289 430 406 252
1974 2 2 0 289 253 408 564
1975 2 2 0 289 408 432 564
1976 2 2 0 289 277 253 564
1977 2 2 0 290 434 410 433
1978 2 2 0 290 277 433 565
1979 2 2 0 290 433 410 409
1980 2 2 0 290 411 434 435
1981 2 2 0 290 411 410 434
1982 2 2 0 290 278 254 435
1983 2 2 0 290 254 411 435
1984 2 2 0 290 409 253 565
1985 2 2 0 290 433 409 565
1986 2 2 0 290 253 277 565
1987 2 2 0 291 278 255 254
1988 2 2 0 291 279 255 278
1989 2 2 0 292 279 256 255
1990 2 2 0 292 280 256 279
1991 2 2 0 293 281 257 256
1992 2 2 0 293 280 281 256
1993 2 2 0 294 257 282 258
1994 2 2 0 294 281 282 257
1995 2 2 0 295 436 437 412
1996 2 2 0 295 259 414 566
1997 2 2 0 295 437 413 412
1998 2 2 0 295 282 436 258
1999 2 2 0 295 436 412 258
2000 2 2 0 295 414 438 566
2001 2 2 0 295 283 259 566
2002 2 2 0 295 438 283 566
2003 2 2 0 295 413 438 414
2004 2 2 0 295 413 437 438
2005 2 2 0 296 417 440 441
2006 2 2 0 296 415 259 567
2007 2 2 0 296 417 416 440
2008 2 2 0 296 284 260 441
2009 2 2 0 296 260 417 441
2010 2 2 0 296 439 415 567
2011 2 2 0 296 259 283 567
2012 2 2 0 296 283 439 567
2013 2 2 0 296 439 416 415
2014 2 2 0 296 440 416 439
2015 2 2 0 297 284 261 260
2016 2 2 0 297 284 285 261
2017 2 2 0 298 285 262 261
2018 2 2 0 298 286 262 285
2019 2 2 0 299 287 263 262
2020 2 2 0 299 286 287 262
2021 2 2 0 300 288 264 263
2022 2 2 0 300 287 288 263
2023 2 2 0 301 419 443 444
2024 2 2 0 301 444 265 568
2025 2 2 0 301 419 444 420
2026 2 2 0 301 442 443 418
2027 2 2 0 301 443 419 418
2028 2 2 0 301 288 442 264
2029 2 2 0 301 442 418 264
2030 2 2 0 301 241 420 568
2031 2 2 0 301 420 444 568
2032 2 2 0 301 265 241 568
2033 2 2 0 302 445 421 569
2034 2 2 0 302 265 289 569
2035 2 2 0 302 421 265 569
2036 2 2 0 302 290 266 447
2037 2 2 0 302 289 445 569
2038 2 2 0 302 266 423 447
2039 2 2 0 302 445 422 421
2040 2 2 0 302 423 422 446
2041 2 2 0 302 446 422 445
2042 2 2 0 302 423 446 447
2043 2 2 0 303 290 267 266
2044 2 2 0 303 291 267 290
2045 2 2 0 304 268 267 570
2046 2 2 0 304 291 292 570
2047 2 2 0 304 267 291 570
2048 2 2 0 304 292 268 570
2049 2 2 0 305 293 269 268
2050 2 2 0 305 292 293 268
2051 2 2 0 306 294 270 269
2052 2 2 0 306 293 294 269
2053 2 2 0 307 426 451 571
2054 2 2 0 307 295 271 571
2055 2 2 0 307 294 448 270
2056 2 2 0 307 448 424 270
2057 2 2 0 307 271 426 571
2058 2 2 0 307 451 295 571
2059 2 2 0 307 449 425 424
2060 2 2 0 307 448 449 424
2061 2 2 0 307 425 450 426
2062 2 2 0 307 425 449 450
2063 2 2 0 307 450 451 426
2064 2 2 0 308 452 427 572
2065 2 2 0 308 271 295 572
2066 2 2 0 308 427 271 572
2067 2 2 0 308 272 455 296
2068 2 2 0 308 429 455 272
2069 2 2 0 308 295 452 572
2070 2 2 0 308 428 427 453
2071 2 2 0 308 429 428 454
2072 2 2 0 308 455 429 454
2073 2 2 0 308 427 452 453
2074 2 2 0 308 454 428 453
2075 2 2 0 309 296 273 272
2076 2 2 0 309 297 273 296
2077 2 2 0 310 297 274 273
2078 2 2 0 310 298 274 297
2079 2 2 0 311 275 274 573
2080 2 2 0 311 298 299 573
2081 2 2 0 311 274 298 573
2082 2 2 0 311 299 275 573
2083 2 2 0 312 300 276 275
2084 2 2 0 312 299 300 275
2085 2 2 0 313 432 458 574
2086 2 2 0 313 301 277 574
2087 2 2 0 313 300 456 276
2088 2 2 0 313 277 432 574
2089 2 2 0 313 458 301 574
2090 2 2 0 313 456 430 276
2091 2 2 0 313 457 431 430
2092 2 2 0 313 457 430 456
2093 2 2 0 313 432 431 458
2094 2 2 0 313 431 457 458
2095 2 2 0 314 459 433 575
2096 2 2 0 314 277 301 575
2097 2 2 0 314 433 277 575
2098 2 2 0 314 278 461 302
2099 2 2 0 314 301 459 575
2100 2 2 0 314 435 461 278
2101 2 2 0 314 434 433 459
2102 2 2 0 314 435 434 460
2103 2 2 0 314 460 434 459
2104 2 2 0 314 461 435 460
2105 2 2 0 315 302 279 278
2106 2 2 0 315 303 279 302
2107 2 2 0 316 280 279 576
2108 2 2 0 316 303 304 576
2109 2 2 0 316 279 303 576
2110 2 2 0 316 304 280 576
2111 2 2 0 317 305 281 280
2112 2 2 0 317 304 305 280
2113 2 2 0 318 306 282 281
2114 2 2 0 318 305 306 281
2115 2 2 0 319 438 465 577
2116 2 2 0 319 307 283 577
2117 2 2 0 319 306 462 282
2118 2 2 0 319 462 436 282
2119 2 2 0 319 283 438 577
2120 2 2 0 319 465 307 577
2121 2 2 0 319 463 437 436
2122 2 2 0 319 463 436 462
2123 2 2 0 319 438 437 464
2124 2 2 0 319 437 463 464
2125 2 2 0 319 465 438 464
2126 2 2 0 320 466 439 578
2127 2 2 0 320 283 307 578
2128 2 2 0 320 439 283 578
2129 2 2 0 320 284 469 308
2130 2 2 0 320 441 469 284
2131 2 2 0 320 307 466 578
2132 2 2 0 320 467 440 439
2133 2 2 0 320 468 441 440
2134 2 2 0 320 468 469 441
2135 2 2 0 320 466 467 439
2136 2 2 0 320 467 468 440
2137 2 2 0 321 308 285 284
2138 2 2 0 321 309 285 308
2139 2 2 0 322 309 286 285
2140 2 2 0 322 310 286 309
2141 2 2 0 323 287 286 579
2142 2 2 0 323 310 311 579
2143 2 2 0 323 286 310 579
2144 2 2 0 323 311 287 579
2145 2 2 0 324 312 288 287
2146 2 2 0 324 311 312 287
2147 2 2 0 325 444 472 580
2148 2 2 0 325 289 265 580
2149 2 2 0 325 265 444 580
2150 2 2 0 325 312 470 288
2151 2 2 0 325 472 289 580
2152 2 2 0 325 470 442 288
2153 2 2 0 325 471 443 442
2154 2 2 0 325 471 442 470
2155 2 2 0 325 443 472 444
2156 2 2 0 325 472 443 471
$EndElements
