$MeshFormat
2.2 0 8
$EndMeshFormat
$Nodes
608
1 12.7 0 0
2 9.747 8.141 0
3 9.488 8.443 0
4 9.212 8.743 0
5 8.94 9.021000000000001 0
6 8.694000000000001 9.257999999999999 0
7 0 12.7 0
8 -8.694000000000001 9.257999999999999 0
9 -8.94 9.021000000000001 0
10 -9.212 8.743 0
11 -9.488 8.443 0
12 -9.747 8.141 0
13 -12.7 0 0
14 -9.747 -8.141 0
15 -9.488 -8.443 0
16 -9.212 -8.743 0
17 -8.94 -9.021000000000001 0
18 -8.694000000000001 -9.257999999999999 0
19 0 -12.7 0
20 8.694000000000001 -9.257999999999999 0
21 8.94 -9.021000000000001 0
22 9.212 -8.743 0
23 9.488 -8.443 0
24 9.747 -8.141 0
25 12.943 0 4.838
26 9.981 8.337 4.838
27 9.739000000000001 8.666 4.838
28 9.48 8.997 4.838
29 9.218 9.302 4.838
30 8.972 9.553000000000001 4.838
31 0 12.849 4.838
32 -8.972 9.553000000000001 4.838
33 -9.218 9.302 4.838
34 -9.48 8.997 4.838
35 -9.739000000000001 8.666 4.838
36 -9.981 8.337 4.838
37 -12.943 0 4.838
38 -9.981 -8.337 4.838
39 -9.739000000000001 -8.666 4.838
40 -9.48 -8.997 4.838
41 -9.218 -9.302 4.838
42 -8.972 -9.553000000000001 4.838
43 0 -12.849 4.838
44 8.972 -9.553000000000001 4.838
45 9.218 -9.302 4.838
46 9.48 -8.997 4.838
47 9.739000000000001 -8.666 4.838
48 9.981 -8.337 4.838
49 14.513 0 13.512
50 11.465 9.576000000000001 13.512
51 11.317 10.071 13.512
52 11.151 10.584 13.512
53 10.945 11.045 13.512
54 10.688 11.381 13.512
55 0 13.844 13.512
56 -10.688 11.381 13.512
57 -10.945 11.045 13.512
58 -11.151 10.584 13.512
59 -11.317 10.071 13.512
60 -11.465 9.576000000000001 13.512
61 -14.513 0 13.512
62 -11.465 -9.576000000000001 13.512
63 -11.317 -10.071 13.512
64 -11.151 -10.584 13.512
65 -10.945 -11.045 13.512
66 -10.688 -11.381 13.512
67 0 -13.844 13.512
68 10.688 -11.381 13.512
69 10.945 -11.045 13.512
70 11.151 -10.584 13.512
71 11.317 -10.071 13.512
72 11.465 -9.576000000000001 13.512
73 18.978 0 26.791
74 15.539 12.979 26.791
75 15.585 13.868 26.791
76 15.598 14.804 26.791
77 15.486 15.626 26.791
78 15.182 16.166 26.791
79 0 16.871 26.791
80 -15.182 16.166 26.791
81 -15.486 15.626 26.791
82 -15.598 14.804 26.791
83 -15.585 13.868 26.791
84 -15.539 12.979 26.791
85 -18.978 0 26.791
86 -15.539 -12.979 26.791
87 -15.585 -13.868 26.791
88 -15.598 -14.804 26.791
89 -15.486 -15.626 26.791
90 -15.182 -16.166 26.791
91 0 -16.871 26.791
92 15.182 -16.166 26.791
93 15.486 -15.626 26.791
94 15.598 -14.804 26.791
95 15.585 -13.868 26.791
96 15.539 -12.979 26.791
97 27.854 0 45.979
98 23.354 19.507 45.979
99 23.65 21.045 45.979
100 23.882 22.666 45.979
101 23.859 24.076 45.979
102 23.44 24.96 45.979
103 0 23.389 45.979
104 -23.44 24.96 45.979
105 -23.859 24.076 45.979
106 -23.882 22.666 45.979
107 -23.65 21.045 45.979
108 -23.354 19.507 45.979
109 -27.854 0 45.979
110 -23.354 -19.507 45.979
111 -23.65 -21.045 45.979
112 -23.882 -22.666 45.979
113 -23.859 -24.076 45.979
114 -23.44 -24.96 45.979
115 0 -23.389 45.979
116 23.44 -24.96 45.979
117 23.859 -24.076 45.979
118 23.882 -22.666 45.979
119 23.65 -21.045 45.979
120 23.354 -19.507 45.979
121 41.707 0 70.729
122 35.266 29.456 70.729
123 35.816 31.871 70.729
124 36.262 34.416 70.729
125 36.289 36.619 70.729
126 35.671 37.984 70.729
127 0 34.23 70.729
128 -35.671 37.984 70.729
129 -36.289 36.619 70.729
130 -36.262 34.416 70.729
131 -35.816 31.871 70.729
132 -35.266 29.456 70.729
133 -41.707 0 70.729
134 -35.266 -29.456 70.729
135 -35.816 -31.871 70.729
136 -36.262 -34.416 70.729
137 -36.289 -36.619 70.729
138 -35.671 -37.984 70.729
139 0 -34.23 70.729
140 35.671 -37.984 70.729
141 36.289 -36.619 70.729
142 36.262 -34.416 70.729
143 35.816 -31.871 70.729
144 35.266 -29.456 70.729
145 61.488 0 99.533
146 52.418 43.782 99.533
147 53.14 47.287 99.533
148 53.681 50.949 99.533
149 53.611 54.098 99.533
150 52.625 56.037 99.533
151 0 50.604 99.533
152 -52.625 56.037 99.533
153 -53.611 54.098 99.533
154 -53.681 50.949 99.533
155 -53.14 47.287 99.533
156 -52.418 43.782 99.533
157 -61.488 0 99.533
158 -52.418 -43.782 99.533
159 -53.14 -47.287 99.533
160 -53.681 -50.949 99.533
161 -53.611 -54.098 99.533
162 -52.625 -56.037 99.533
163 0 -50.604 99.533
164 52.625 -56.037 99.533
165 53.611 -54.098 99.533
166 53.681 -50.949 99.533
167 53.14 -47.287 99.533
168 52.418 -43.782 99.533
169 89.39 0 128.247
170 78.505 65.572 128.247
171 79.03 70.325 128.247
172 79.164 75.134 128.247
173 78.45 79.16200000000001 128.247
174 76.59399999999999 81.56 128.247
175 0 75.22799999999999 128.247
176 -76.59399999999999 81.56 128.247
177 -78.45 79.16200000000001 128.247
178 -79.164 75.134 128.247
179 -79.03 70.325 128.247
180 -78.505 65.572 128.247
181 -89.39 0 128.247
182 -78.505 -65.572 128.247
183 -79.03 -70.325 128.247
184 -79.164 -75.134 128.247
185 -78.45 -79.16200000000001 128.247
186 -76.59399999999999 -81.56 128.247
187 0 -75.22799999999999 128.247
188 76.59399999999999 -81.56 128.247
189 78.45 -79.16200000000001 128.247
190 79.164 -75.134 128.247
191 79.03 -70.325 128.247
192 78.505 -65.572 128.247
193 125.838 0 152.05
194 115.794 96.717 152.05
195 115.492 102.771 152.05
196 114.359 108.537 152.05
197 112.092 113.109 152.05
198 108.571 115.611 152.05
199 0 109.108 152.05
200 -108.571 115.611 152.05
201 -112.092 113.109 152.05
202 -114.359 108.537 152.05
203 -115.492 102.771 152.05
204 -115.794 96.717 152.05
205 -125.838 0 152.05
206 -115.794 -96.717 152.05
207 -115.492 -102.771 152.05
208 -114.359 -108.537 152.05
209 -112.092 -113.109 152.05
210 -108.571 -115.611 152.05
211 0 -109.108 152.05
212 108.571 -115.611 152.05
213 112.092 -113.109 152.05
214 114.359 -108.537 152.05
215 115.492 -102.771 152.05
216 115.794 -96.717 152.05
217 167.928 0 169.896
218 161.09 134.551 169.896
219 159.436 141.875 169.896
220 156.329 148.371 169.896
221 151.771 153.149 169.896
222 145.96 155.424 169.896
223 0 149.42 169.896
224 -145.96 155.424 169.896
225 -151.771 153.149 169.896
226 -156.329 148.371 169.896
227 -159.436 141.875 169.896
228 -161.09 134.551 169.896
229 -167.928 0 169.896
230 -161.09 -134.551 169.896
231 -159.436 -141.875 169.896
232 -156.329 -148.371 169.896
233 -151.771 -153.149 169.896
234 -145.96 -155.424 169.896
235 0 -149.42 169.896
236 145.96 -155.424 169.896
237 151.771 -153.149 169.896
238 156.329 -148.371 169.896
239 159.436 -141.875 169.896
240 161.09 -134.551 169.896
241 207.727 0 181.658
242 204.345 170.68 181.658
243 201.258 179.09 181.658
244 196.102 186.12 181.658
245 189.218 190.936 181.658
246 181.142 192.887 181.658
247 0 188.146 181.658
248 -181.142 192.887 181.658
249 -189.218 190.936 181.658
250 -196.102 186.12 181.658
251 -201.258 179.09 181.658
252 -204.345 170.68 181.658
253 -207.727 0 181.658
254 -204.345 -170.68 181.658
255 -201.258 -179.09 181.658
256 -196.102 -186.12 181.658
257 -189.218 -190.936 181.658
258 -181.142 -192.887 181.658
259 0 -188.146 181.658
260 181.142 -192.887 181.658
261 189.218 -190.936 181.658
262 196.102 -186.12 181.658
263 201.258 -179.09 181.658
264 204.345 -170.68 181.658
265 240.853 0 188.71
266 239.389 199.951 188.71
267 235.111 209.214 188.71
268 228.291 216.67 188.71
269 219.544 221.537 188.71
270 209.679 223.275 188.71
271 0 220.677 188.71
272 -209.679 223.275 188.71
273 -219.544 221.537 188.71
274 -228.291 216.67 188.71
275 -235.111 209.214 188.71
276 -239.389 199.951 188.71
277 -240.853 0 188.71
278 -239.389 -199.951 188.71
279 -235.111 -209.214 188.71
280 -228.291 -216.67 188.71
281 -219.544 -221.537 188.71
282 -209.679 -223.275 188.71
283 0 -220.677 188.71
284 209.679 -223.275 188.71
285 219.544 -221.537 188.71
286 228.291 -216.67 188.71
287 235.111 -209.214 188.71
288 239.389 -199.951 188.71
289 262.893 0 191.87
290 261.17 218.144 191.87
291 256.171 227.955 191.87
292 248.385 235.741 191.87
293 238.574 240.74 191.87
294 227.699 242.463 191.87
295 0 242.463 191.87
296 -227.699 242.463 191.87
297 -238.574 240.74 191.87
298 -248.385 235.741 191.87
299 -256.171 227.955 191.87
300 -261.17 218.144 191.87
301 -262.893 0 191.87
302 -261.17 -218.144 191.87
303 -256.171 -227.955 191.87
304 -248.385 -235.741 191.87
305 -238.574 -240.74 191.87
306 -227.699 -242.463 191.87
307 0 -242.463 191.87
308 227.699 -242.463 191.87
309 238.574 -240.74 191.87
310 248.385 -235.741 191.87
311 256.171 -227.955 191.87
312 261.17 -218.144 191.87
313 26.31250000001869 53.32050000000193 99.533
314 -26.31249999998044 53.32049999999798 99.533
315 -26.31250000001869 -53.32050000000193 99.533
316 26.31249999998044 -53.32049999999798 99.533
317 83.94750000001424 32.78599999991416 128.247
318 97.14949999995375 81.14449999996137 140.1484999999705
319 97.26099999995176 86.54799999995709 140.1484999999685
320 96.76149999995181 91.83549999995427 140.1484999999674
321 95.27099999995343 96.13549999995301 140.1484999999671
322 92.58249999995806 98.58549999995535 140.1484999999688
323 38.2970000000875 78.39400000000724 128.247
324 -38.2969999999081 78.3939999999924 128.247
325 -92.58249999995806 98.58549999995535 140.1484999999688
326 -95.27099999995343 96.13549999995301 140.1484999999671
327 -96.76149999995181 91.83549999995427 140.1484999999674
328 -97.26099999995176 86.54799999995709 140.1484999999685
329 -97.14949999995375 81.14449999996137 140.1484999999705
330 -83.94749999998595 32.78600000008466 128.247
331 -83.94750000001424 -32.78599999991416 128.247
332 -97.14949999995375 -81.14449999996137 140.1484999999705
333 -97.26099999995176 -86.54799999995709 140.1484999999685
334 -96.76149999995181 -91.83549999995427 140.1484999999674
335 -95.27099999995343 -96.13549999995301 140.1484999999671
336 -92.58249999995806 -98.58549999995535 140.1484999999688
337 -38.2970000000875 -78.39400000000724 128.247
338 38.2969999999081 -78.3939999999924 128.247
339 92.58249999995806 -98.58549999995535 140.1484999999688
340 95.27099999995343 -96.13549999995301 140.1484999999671
341 96.76149999995181 -91.83549999995427 140.1484999999674
342 97.26099999995176 -86.54799999995709 140.1484999999685
343 97.14949999995375 -81.14449999996137 140.1484999999705
344 83.94749999998595 -32.78600000008466 128.247
345 120.8160000000132 48.35849999987327 152.05
346 138.4419999999263 115.6339999999385 160.972999999971
347 137.4639999999337 122.322999999941 160.9729999999731
348 135.3439999999456 128.4539999999483 160.9729999999768
349 131.9314999999508 133.1289999999503 160.9729999999779
350 127.2654999999582 135.5174999999555 160.9729999999801
351 72.38066666675063 113.4433333333384 152.05
352 36.19033333343845 111.275666666673 152.05
353 -36.19033333324519 111.2756666666614 152.05
354 -72.38066666657191 113.4433333333277 152.05
355 -127.2654999999582 135.5174999999555 160.9729999999801
356 -131.9314999999508 133.1289999999503 160.9729999999779
357 -135.3439999999456 128.4539999999483 160.9729999999768
358 -137.4639999999337 122.322999999941 160.9729999999731
359 -138.4419999999263 115.6339999999385 160.972999999971
360 -120.8159999999867 48.35850000012815 152.05
361 -120.8160000000132 -48.35849999987327 152.05
362 -138.4419999999263 -115.6339999999385 160.972999999971
363 -137.4639999999337 -122.322999999941 160.9729999999731
364 -135.3439999999456 -128.4539999999483 160.9729999999768
365 -131.9314999999508 -133.1289999999503 160.9729999999779
366 -127.2654999999582 -135.5174999999555 160.9729999999801
367 -72.38066666675063 -113.4433333333384 152.05
368 -36.19033333343845 -111.275666666673 152.05
369 36.19033333324519 -111.2756666666614 152.05
370 72.38066666657191 -113.4433333333277 152.05
371 127.2654999999582 -135.5174999999555 160.9729999999801
372 131.9314999999508 -133.1289999999503 160.9729999999779
373 135.3439999999456 -128.4539999999483 160.9729999999768
374 137.4639999999337 -122.322999999941 160.9729999999731
375 138.4419999999263 -115.6339999999385 160.972999999971
376 120.8159999999867 -48.35850000012815 152.05
377 165.6486666666726 44.85033333321619 169.896
378 163.3693333333395 89.7006666665458 169.896
379 182.7174999999425 152.615499999952 175.7769999999844
380 180.3469999999489 160.4824999999545 175.7769999999856
381 176.215499999951 167.2454999999535 175.7769999999855
382 170.4944999999526 172.0424999999521 175.7769999999851
383 163.550999999959 174.1554999999564 175.7769999999863
384 97.30666666680493 153.4226666666723 169.896
385 48.6533333334616 151.4213333333386 169.896
386 -48.65333333319648 151.4213333333277 169.896
387 -97.306666666537 153.4226666666613 169.896
388 -163.550999999959 174.1554999999564 175.7769999999863
389 -170.4944999999526 172.0424999999521 175.7769999999851
390 -176.215499999951 167.2454999999535 175.7769999999855
391 -180.3469999999489 160.4824999999545 175.7769999999856
392 -182.7174999999425 152.615499999952 175.7769999999844
393 -163.369333333327 89.70066666679134 169.896
394 -165.6486666666604 44.85033333345727 169.896
395 -165.6486666666726 -44.85033333321619 169.896
396 -163.3693333333395 -89.7006666665458 169.896
397 -182.7174999999425 -152.615499999952 175.7769999999844
398 -180.3469999999489 -160.4824999999545 175.7769999999856
399 -176.215499999951 -167.2454999999535 175.7769999999855
400 -170.4944999999526 -172.0424999999521 175.7769999999851
401 -163.550999999959 -174.1554999999564 175.7769999999863
402 -97.30666666680493 -153.4226666666723 169.896
403 -48.6533333334616 -151.4213333333386 169.896
404 48.65333333319648 -151.4213333333277 169.896
405 97.306666666537 -153.4226666666613 169.896
406 163.550999999959 -174.1554999999564 175.7769999999863
407 170.4944999999526 -172.0424999999521 175.7769999999851
408 176.215499999951 -167.2454999999535 175.7769999999855
409 180.3469999999489 -160.4824999999545 175.7769999999856
410 182.7174999999425 -152.615499999952 175.7769999999844
411 163.369333333327 -89.70066666679134 169.896
412 165.6486666666604 -44.85033333345727 169.896
413 206.881500000002 42.66999999989715 181.658
414 206.0360000000044 85.33999999977691 181.658
415 205.1905000000022 128.0099999998897 181.658
416 135.8565000000724 191.7017500000019 181.658
417 90.5710000002223 190.5165000000058 181.658
418 45.28550000010563 189.3312500000028 181.658
419 -45.28549999989291 189.3312499999972 181.658
420 -90.57099999976013 190.5164999999937 181.658
421 -135.8564999998853 191.701749999997 181.658
422 -205.1904999999975 128.0100000001236 181.658
423 -206.0359999999952 85.34000000024434 181.658
424 -206.8814999999976 42.67000000012087 181.658
425 -206.881500000002 -42.66999999989715 181.658
426 -206.0360000000044 -85.33999999977691 181.658
427 -205.1905000000022 -128.0099999998897 181.658
428 -135.8565000000724 -191.7017500000019 181.658
429 -90.5710000002223 -190.5165000000058 181.658
430 -45.28550000010563 -189.3312500000028 181.658
431 45.28549999989291 -189.3312499999972 181.658
432 90.57099999976013 -190.5164999999937 181.658
433 135.8564999998853 -191.701749999997 181.658
434 205.1904999999975 -128.0100000001236 181.658
435 206.0359999999952 -85.34000000024434 181.658
436 206.8814999999976 -42.67000000012087 181.658
437 240.4870000000009 49.98774999988323 188.71
438 240.121000000002 99.97549999973049 188.71
439 239.755000000001 149.9632499998611 188.71
440 167.7432000001101 222.7554000000014 188.71
441 125.8074000002115 222.2358000000026 188.71
442 83.87160000020698 221.7162000000026 188.71
443 41.93580000014421 221.1966000000018 188.71
444 -41.93579999990785 221.1965999999989 188.71
445 -83.87159999980337 221.7161999999976 188.71
446 -125.807399999803 222.2357999999976 188.71
447 -167.7431999998608 222.7553999999983 188.71
448 -239.7549999999992 149.9632500001111 188.71
449 -240.120999999998 99.97550000026943 188.71
450 -240.486999999999 49.98775000013887 188.71
451 -240.4870000000009 -49.98774999988323 188.71
452 -240.121000000002 -99.97549999973049 188.71
453 -239.755000000001 -149.9632499998611 188.71
454 -167.7432000001101 -222.7554000000014 188.71
455 -125.8074000002115 -222.2358000000026 188.71
456 -83.87160000020698 -221.7162000000026 188.71
457 -41.93580000014421 -221.1966000000018 188.71
458 41.93579999990785 -221.1965999999989 188.71
459 83.87159999980337 -221.7161999999976 188.71
460 125.807399999803 -222.2357999999976 188.71
461 167.7431999998608 -222.7553999999983 188.71
462 239.7549999999992 -149.9632500001111 188.71
463 240.120999999998 -99.97550000026943 188.71
464 240.486999999999 -49.98775000013887 188.71
465 262.5484000000008 43.62879999989871 191.87
466 262.2038000000018 87.25759999976944 191.87
467 261.8592000000019 130.886399999763 191.87
468 261.5146000000008 174.5151999998959 191.87
469 182.1592000001077 242.463 191.87
470 136.6194000002398 242.463 191.87
471 91.07960000024207 242.463 191.87
472 45.53980000012547 242.463 191.87
473 -45.53979999989992 242.463 191.87
474 -91.07959999976794 242.463 191.87
475 -136.6193999997606 242.463 191.87
476 -182.1591999998759 242.463 191.87
477 -261.5145999999993 174.5152000000899 191.87
478 -261.8591999999984 130.8864000002008 191.87
479 -262.2037999999983 87.25760000021094 191.87
480 -262.5483999999993 43.62880000009099 191.87
481 -262.5484000000008 -43.62879999989871 191.87
482 -262.2038000000018 -87.25759999976944 191.87
483 -261.8592000000019 -130.886399999763 191.87
484 -261.5146000000008 -174.5151999998959 191.87
485 -182.1592000001077 -242.463 191.87
486 -136.6194000002398 -242.463 191.87
487 -91.07960000024207 -242.463 191.87
488 -45.53980000012547 -242.463 191.87
489 45.53979999989992 -242.463 191.87
490 91.07959999976794 -242.463 191.87
491 136.6193999997606 -242.463 191.87
492 182.1591999998759 -242.463 191.87
493 261.5145999999993 -174.5152000000899 191.87
494 261.8591999999984 -130.8864000002008 191.87
495 262.2037999999983 -87.25760000021094 191.87
496 262.5483999999993 -43.62880000009099 191.87
497 11.3561798204008 4.124271395949044 2.418325455486276
498 4.396539899518499 11.0356668624029 2.423459938719512
499 -4.436561832509163 11.1446100610656 2.417318127511621
500 -11.32933700719501 4.114734582621041 2.419841806970368
501 -11.3561798204008 -4.124271395949044 2.418325455486276
502 -4.396539899518499 -11.0356668624029 2.423459938719512
503 4.436561832509163 -11.1446100610656 2.417318127511621
504 11.32933700719501 -4.114734582621041 2.419841806970368
505 12.29347805446593 4.499887125105698 9.162695925119722
506 4.851743353568438 11.63225262401116 9.245363109128911
507 -4.981374130077654 12.19477545768168 9.141960418446706
508 -12.15835869096629 4.456879207400299 9.189539556679394
509 -12.29347805446593 -4.499887125105698 9.162695925119722
510 -4.851743353568438 -11.63225262401116 9.245363109128911
511 4.981374130077654 -12.19477545768168 9.141960418446706
512 12.15835869096629 -4.4568792074003 9.189539556679394
513 15.42394764305977 5.551525402653899 20.595865635495
514 6.026484825576529 14.21613580429286 20.4754600579269
515 -6.017124728657952 15.07763017727849 20.14950314313086
516 -15.2246289152563 5.510839307850681 20.67099707595885
517 -15.42394764305977 -5.551525402653899 20.595865635495
518 -6.026484825576529 -14.21613580429286 20.4754600579269
519 6.017124728657952 -15.07763017727849 20.14950314313086
520 15.2246289152563 -5.510839307850681 20.67099707595885
521 21.94786747894463 7.726007240944721 37.06412988622514
522 8.310318787468514 19.89282534660394 36.54127672920047
523 -8.197082334442593 20.6283810453223 36.23484810762091
524 -21.78647586609851 7.695177170736483 37.14278774275516
525 -21.94786747894463 -7.726007240944721 37.06412988622514
526 -8.310318787468514 -19.89282534660394 36.54127672920047
527 8.197082334442593 -20.6283810453223 36.23484810762091
528 21.78647586609851 -7.695177170736483 37.14278774275516
529 32.67193837394822 11.64373393120616 59.13567503593409
530 14.79681929756639 29.9595510352982 58.43992722172693
531 -14.75815729286863 30.32692247098631 58.27245269664795
532 -32.59171002973362 11.62702086613915 59.1812846376811
533 -32.67193837394822 -11.64373393120616 59.13567503593409
534 -14.79681929756639 -29.9595510352982 58.43992722172693
535 14.75815729286863 -30.32692247098631 58.27245269664795
536 32.59171002973362 -11.62702086613915 59.1812846376811
537 47.77567702080143 18.32108599604104 85.0925924038858
538 14.56104291892419 43.72485525984062 84.72270374922303
539 -14.56388409726285 43.69733510322308 84.7382936677637
540 -47.66441827393541 18.29803732686022 85.16964963271975
541 -47.77567702080143 -18.32108599604104 85.0925924038858
542 -14.56104291892419 -43.72485525984062 84.72270374922303
543 14.56388409726285 -43.69733510322308 84.7382936677637
544 47.66441827393541 -18.29803732686022 85.16964963271975
545 97.96958137734538 49.57250501954523 137.2120837607965
546 105.3236951363563 23.01801411865112 140.2138730350727
547 56.00255228638139 95.90095824998322 139.782934560734
548 20.89940747299291 93.93390375420027 139.8832950581155
549 -56.01729995713735 95.60227214320801 140.2040336020588
550 -20.91721289923118 93.63390134525086 140.2981735977331
551 -97.28392451613398 49.50885293303836 138.2976850685426
552 -104.7981116245058 22.98270032882181 141.0933419717589
553 -97.96958137734538 -49.57250501954523 137.2120837607965
554 -105.3236951363563 -23.01801411865112 140.2138730350727
555 -56.00255228638139 -95.90095824998322 139.782934560734
556 -20.89940747299293 -93.93390375420029 139.8832950581155
557 56.01729995713735 -95.60227214320801 140.2040336020588
558 20.91721289923118 -93.63390134525086 140.2981735977331
559 97.28392451613398 -49.50885293303836 138.2976850685426
560 104.7981116245058 -22.98270032882181 141.0933419717589
561 138.6086633158196 75.70623374449957 159.0960199667421
562 89.48244436579867 131.1313015331818 159.6525555936702
563 19.11608715776326 130.0205424229867 160.4842323081825
564 -89.48766872944343 130.9379878562131 160.0844860370046
565 -18.50000669581156 129.7062880385293 160.8319117919187
566 -138.1871696999914 75.69692597535692 160.1096014452845
567 -138.6086633158196 -75.7062337444996 159.0960199667421
568 -89.48244436579867 -131.1313015331818 159.6525555936702
569 -19.11608715776327 -130.0205424229867 160.4842323081825
570 89.48766872944343 -130.9379878562131 160.0844860370046
571 18.50000669581156 -129.7062880385293 160.8319117919187
572 138.1871696999914 -75.69692597535692 160.1096014452845
573 180.8290336874437 113.0624111282001 174.3707996396474
574 117.4230945537402 172.7833122608137 175.7239262348991
575 23.4824727682182 169.6650613040538 175.511631174495
576 70.45278366104445 171.2241867824359 175.6177787046972
577 -117.4255529145512 172.6893843056141 176.0300091896773
578 -23.48511058287347 169.5642768611215 175.8276018379353
579 -70.45533174865 171.1268305833657 175.9288055138061
580 -180.64219939267 113.0630139935957 175.0122240131313
581 -180.8290336874437 -113.0624111282001 174.3707996396474
582 -117.4230945537402 -172.7833122608137 175.7239262348991
583 -23.4824727682182 -169.6650613040539 175.5116311744951
584 -70.45278366104445 -171.2241867824359 175.6177787046972
585 117.4255529145512 -172.6893843056141 176.0300091896773
586 23.48511058287347 -169.5642768611215 175.8276018379353
587 70.45533174865 -171.1268305833657 175.9288055138061
588 180.64219939267 -113.0630139935957 175.0122240131313
589 223.9929028746418 23.16447980435205 185.1568590647535
590 21.80461789279886 204.8947816085175 184.940943087122
591 63.07947102880622 207.27029780129 185.378630053814
592 -21.80541177473804 204.8307090932469 185.2163068384931
593 -63.08016985345044 207.2138971393751 185.6220669651211
594 -223.951241457644 23.16417476816557 185.3634091440329
595 -223.9929028746418 -23.16447980435205 185.1568590647535
596 -21.80461789279886 -204.8947816085175 184.940943087122
597 -63.07947102880622 -207.27029780129 185.378630053814
598 21.80541177473804 -204.8307090932469 185.2163068384931
599 63.08016985345044 -207.2138971393751 185.6220669651211
600 223.951241457644 -23.16417476816557 185.3634091440329
601 251.6952048437672 23.40413635343588 190.2910124187909
602 21.86890000006742 231.7307705636135 190.1025492485418
603 -21.86889999995194 231.6972233837577 190.3084534055207
604 -251.6963765910637 23.40414560853812 190.2828773108996
605 -251.6952048437672 -23.40413635343588 190.2910124187909
606 -21.86890000006742 -231.7307705636135 190.1025492485418
607 21.86889999995194 -231.6972233837577 190.3084534055207
608 251.6963765910637 -23.40414560853812 190.2828773108996
$EndNodes
$Elements
2232
1 15 2 0 1 1
2 15 2 0 2 2
3 15 2 0 3 3
4 15 2 0 4 4
5 15 2 0 5 5
6 15 2 0 6 6
7 15 2 0 7 7
8 15 2 0 8 8
9 15 2 0 9 9
10 15 2 0 10 10
11 15 2 0 11 11
12 15 2 0 12 12
13 15 2 0 13 13
14 15 2 0 14 14
15 15 2 0 15 15
16 15 2 0 16 16
17 15 2 0 17 17
18 15 2 0 18 18
19 15 2 0 19 19
20 15 2 0 20 20
21 15 2 0 21 21
22 15 2 0 22 22
23 15 2 0 23 23
24 15 2 0 24 24
25 15 2 0 25 25
26 15 2 0 26 26
27 15 2 0 27 27
28 15 2 0 28 28
29 15 2 0 29 29
30 15 2 0 30 30
31 15 2 0 31 31
32 15 2 0 32 32
33 15 2 0 33 33
34 15 2 0 34 34
35 15 2 0 35 35
36 15 2 0 36 36
37 15 2 0 37 37
38 15 2 0 38 38
39 15 2 0 39 39
40 15 2 0 40 40
41 15 2 0 41 41
42 15 2 0 42 42
43 15 2 0 43 43
44 15 2 0 44 44
45 15 2 0 45 45
46 15 2 0 46 46
47 15 2 0 47 47
48 15 2 0 48 48
49 15 2 0 49 49
50 15 2 0 50 50
51 15 2 0 51 51
52 15 2 0 52 52
53 15 2 0 53 53
54 15 2 0 54 54
55 15 2 0 55 55
56 15 2 0 56 56
57 15 2 0 57 57
58 15 2 0 58 58
59 15 2 0 59 59
60 15 2 0 60 60
61 15 2 0 61 61
62 15 2 0 62 62
63 15 2 0 63 63
64 15 2 0 64 64
65 15 2 0 65 65
66 15 2 0 66 66
67 15 2 0 67 67
68 15 2 0 68 68
69 15 2 0 69 69
70 15 2 0 70 70
71 15 2 0 71 71
72 15 2 0 72 72
73 15 2 0 73 73
74 15 2 0 74 74
75 15 2 0 75 75
76 15 2 0 76 76
77 15 2 0 77 77
78 15 2 0 78 78
79 15 2 0 79 79
80 15 2 0 80 80
81 15 2 0 81 81
82 15 2 0 82 82
83 15 2 0 83 83
84 15 2 0 84 84
85 15 2 0 85 85
86 15 2 0 86 86
87 15 2 0 87 87
88 15 2 0 88 88
89 15 2 0 89 89
90 15 2 0 90 90
91 15 2 0 91 91
92 15 2 0 92 92
93 15 2 0 93 93
94 15 2 0 94 94
95 15 2 0 95 95
96 15 2 0 96 96
97 15 2 0 97 97
98 15 2 0 98 98
99 15 2 0 99 99
100 15 2 0 100 100
101 15 2 0 101 101
102 15 2 0 102 102
103 15 2 0 103 103
104 15 2 0 104 104
105 15 2 0 105 105
106 15 2 0 106 106
107 15 2 0 107 107
108 15 2 0 108 108
109 15 2 0 109 109
110 15 2 0 110 110
111 15 2 0 111 111
112 15 2 0 112 112
113 15 2 0 113 113
114 15 2 0 114 114
115 15 2 0 115 115
116 15 2 0 116 116
117 15 2 0 117 117
118 15 2 0 118 118
119 15 2 0 119 119
120 15 2 0 120 120
121 15 2 0 121 121
122 15 2 0 122 122
123 15 2 0 123 123
124 15 2 0 124 124
125 15 2 0 125 125
126 15 2 0 126 126
127 15 2 0 127 127
128 15 2 0 128 128
129 15 2 0 129 129
130 15 2 0 130 130
131 15 2 0 131 131
132 15 2 0 132 132
133 15 2 0 133 133
134 15 2 0 134 134
135 15 2 0 135 135
136 15 2 0 136 136
137 15 2 0 137 137
138 15 2 0 138 138
139 15 2 0 139 139
140 15 2 0 140 140
141 15 2 0 141 141
142 15 2 0 142 142
143 15 2 0 143 143
144 15 2 0 144 144
145 15 2 0 145 145
146 15 2 0 146 146
147 15 2 0 147 147
148 15 2 0 148 148
149 15 2 0 149 149
150 15 2 0 150 150
151 15 2 0 151 151
152 15 2 0 152 152
153 15 2 0 153 153
154 15 2 0 154 154
155 15 2 0 155 155
156 15 2 0 156 156
157 15 2 0 157 157
158 15 2 0 158 158
159 15 2 0 159 159
160 15 2 0 160 160
161 15 2 0 161 161
162 15 2 0 162 162
163 15 2 0 163 163
164 15 2 0 164 164
165 15 2 0 165 165
166 15 2 0 166 166
167 15 2 0 167 167
168 15 2 0 168 168
169 15 2 0 169 169
170 15 2 0 170 170
171 15 2 0 171 171
172 15 2 0 172 172
173 15 2 0 173 173
174 15 2 0 174 174
175 15 2 0 175 175
176 15 2 0 176 176
177 15 2 0 177 177
178 15 2 0 178 178
179 15 2 0 179 179
180 15 2 0 180 180
181 15 2 0 181 181
182 15 2 0 182 182
183 15 2 0 183 183
184 15 2 0 184 184
185 15 2 0 185 185
186 15 2 0 186 186
187 15 2 0 187 187
188 15 2 0 188 188
189 15 2 0 189 189
190 15 2 0 190 190
191 15 2 0 191 191
192 15 2 0 192 192
193 15 2 0 193 193
194 15 2 0 194 194
195 15 2 0 195 195
196 15 2 0 196 196
197 15 2 0 197 197
198 15 2 0 198 198
199 15 2 0 199 199
200 15 2 0 200 200
201 15 2 0 201 201
202 15 2 0 202 202
203 15 2 0 203 203
204 15 2 0 204 204
205 15 2 0 205 205
206 15 2 0 206 206
207 15 2 0 207 207
208 15 2 0 208 208
209 15 2 0 209 209
210 15 2 0 210 210
211 15 2 0 211 211
212 15 2 0 212 212
213 15 2 0 213 213
214 15 2 0 214 214
215 15 2 0 215 215
216 15 2 0 216 216
217 15 2 0 217 217
218 15 2 0 218 218
219 15 2 0 219 219
220 15 2 0 220 220
221 15 2 0 221 221
222 15 2 0 222 222
223 15 2 0 223 223
224 15 2 0 224 224
225 15 2 0 225 225
226 15 2 0 226 226
227 15 2 0 227 227
228 15 2 0 228 228
229 15 2 0 229 229
230 15 2 0 230 230
231 15 2 0 231 231
232 15 2 0 232 232
233 15 2 0 233 233
234 15 2 0 234 234
235 15 2 0 235 235
236 15 2 0 236 236
237 15 2 0 237 237
238 15 2 0 238 238
239 15 2 0 239 239
240 15 2 0 240 240
241 15 2 0 241 241
242 15 2 0 242 242
243 15 2 0 243 243
244 15 2 0 244 244
245 15 2 0 245 245
246 15 2 0 246 246
247 15 2 0 247 247
248 15 2 0 248 248
249 15 2 0 249 249
250 15 2 0 250 250
251 15 2 0 251 251
252 15 2 0 252 252
253 15 2 0 253 253
254 15 2 0 254 254
255 15 2 0 255 255
256 15 2 0 256 256
257 15 2 0 257 257
258 15 2 0 258 258
259 15 2 0 259 259
260 15 2 0 260 260
261 15 2 0 261 261
262 15 2 0 262 262
263 15 2 0 263 263
264 15 2 0 264 264
265 15 2 0 265 265
266 15 2 0 266 266
267 15 2 0 267 267
268 15 2 0 268 268
269 15 2 0 269 269
270 15 2 0 270 270
271 15 2 0 271 271
272 15 2 0 272 272
273 15 2 0 273 273
274 15 2 0 274 274
275 15 2 0 275 275
276 15 2 0 276 276
277 15 2 0 277 277
278 15 2 0 278 278
279 15 2 0 279 279
280 15 2 0 280 280
281 15 2 0 281 281
282 15 2 0 282 282
283 15 2 0 283 283
284 15 2 0 284 284
285 15 2 0 285 285
286 15 2 0 286 286
287 15 2 0 287 287
288 15 2 0 288 288
289 15 2 0 289 289
290 15 2 0 290 290
291 15 2 0 291 291
292 15 2 0 292 292
293 15 2 0 293 293
294 15 2 0 294 294
295 15 2 0 295 295
296 15 2 0 296 296
297 15 2 0 297 297
298 15 2 0 298 298
299 15 2 0 299 299
300 15 2 0 300 300
301 15 2 0 301 301
302 15 2 0 302 302
303 15 2 0 303 303
304 15 2 0 304 304
305 15 2 0 305 305
306 15 2 0 306 306
307 15 2 0 307 307
308 15 2 0 308 308
309 15 2 0 309 309
310 15 2 0 310 310
311 15 2 0 311 311
312 15 2 0 312 312
313 1 2 0 1 1 25
314 1 2 0 2 1 2
315 1 2 0 3 2 26
316 1 2 0 4 2 3
317 1 2 0 5 3 27
318 1 2 0 6 3 4
319 1 2 0 7 4 28
320 1 2 0 8 4 5
321 1 2 0 9 5 29
322 1 2 0 10 5 6
323 1 2 0 11 6 30
324 1 2 0 12 6 7
325 1 2 0 13 7 31
326 1 2 0 14 7 8
327 1 2 0 15 8 32
328 1 2 0 16 8 9
329 1 2 0 17 9 33
330 1 2 0 18 9 10
331 1 2 0 19 10 34
332 1 2 0 20 10 11
333 1 2 0 21 11 35
334 1 2 0 22 11 12
335 1 2 0 23 12 36
336 1 2 0 24 12 13
337 1 2 0 25 13 37
338 1 2 0 26 13 14
339 1 2 0 27 14 38
340 1 2 0 28 14 15
341 1 2 0 29 15 39
342 1 2 0 30 15 16
343 1 2 0 31 16 40
344 1 2 0 32 16 17
345 1 2 0 33 17 41
346 1 2 0 34 17 18
347 1 2 0 35 18 42
348 1 2 0 36 18 19
349 1 2 0 37 19 43
350 1 2 0 38 19 20
351 1 2 0 39 20 44
352 1 2 0 40 20 21
353 1 2 0 41 21 45
354 1 2 0 42 21 22
355 1 2 0 43 22 46
356 1 2 0 44 22 23
357 1 2 0 45 23 47
358 1 2 0 46 23 24
359 1 2 0 47 24 48
360 1 2 0 48 24 1
361 1 2 0 49 25 49
362 1 2 0 50 25 26
363 1 2 0 51 26 50
364 1 2 0 52 26 27
365 1 2 0 53 27 51
366 1 2 0 54 27 28
367 1 2 0 55 28 52
368 1 2 0 56 28 29
369 1 2 0 57 29 53
370 1 2 0 58 29 30
371 1 2 0 59 30 54
372 1 2 0 60 30 31
373 1 2 0 61 31 55
374 1 2 0 62 31 32
375 1 2 0 63 32 56
376 1 2 0 64 32 33
377 1 2 0 65 33 57
378 1 2 0 66 33 34
379 1 2 0 67 34 58
380 1 2 0 68 34 35
381 1 2 0 69 35 59
382 1 2 0 70 35 36
383 1 2 0 71 36 60
384 1 2 0 72 36 37
385 1 2 0 73 37 61
386 1 2 0 74 37 38
387 1 2 0 75 38 62
388 1 2 0 76 38 39
389 1 2 0 77 39 63
390 1 2 0 78 39 40
391 1 2 0 79 40 64
392 1 2 0 80 40 41
393 1 2 0 81 41 65
394 1 2 0 82 41 42
395 1 2 0 83 42 66
396 1 2 0 84 42 43
397 1 2 0 85 43 67
398 1 2 0 86 43 44
399 1 2 0 87 44 68
400 1 2 0 88 44 45
401 1 2 0 89 45 69
402 1 2 0 90 45 46
403 1 2 0 91 46 70
404 1 2 0 92 46 47
405 1 2 0 93 47 71
406 1 2 0 94 47 48
407 1 2 0 95 48 72
408 1 2 0 96 48 25
409 1 2 0 97 49 73
410 1 2 0 98 49 50
411 1 2 0 99 50 74
412 1 2 0 100 50 51
413 1 2 0 101 51 75
414 1 2 0 102 51 52
415 1 2 0 103 52 76
416 1 2 0 104 52 53
417 1 2 0 105 53 77
418 1 2 0 106 53 54
419 1 2 0 107 54 78
420 1 2 0 108 54 55
421 1 2 0 109 55 79
422 1 2 0 110 55 56
423 1 2 0 111 56 80
424 1 2 0 112 56 57
425 1 2 0 113 57 81
426 1 2 0 114 57 58
427 1 2 0 115 58 82
428 1 2 0 116 58 59
429 1 2 0 117 59 83
430 1 2 0 118 59 60
431 1 2 0 119 60 84
432 1 2 0 120 60 61
433 1 2 0 121 61 85
434 1 2 0 122 61 62
435 1 2 0 123 62 86
436 1 2 0 124 62 63
437 1 2 0 125 63 87
438 1 2 0 126 63 64
439 1 2 0 127 64 88
440 1 2 0 128 64 65
441 1 2 0 129 65 89
442 1 2 0 130 65 66
443 1 2 0 131 66 90
444 1 2 0 132 66 67
445 1 2 0 133 67 91
446 1 2 0 134 67 68
447 1 2 0 135 68 92
448 1 2 0 136 68 69
449 1 2 0 137 69 93
450 1 2 0 138 69 70
451 1 2 0 139 70 94
452 1 2 0 140 70 71
453 1 2 0 141 71 95
454 1 2 0 142 71 72
455 1 2 0 143 72 96
456 1 2 0 144 72 49
457 1 2 0 145 73 97
458 1 2 0 146 73 74
459 1 2 0 147 74 98
460 1 2 0 148 74 75
461 1 2 0 149 75 99
462 1 2 0 150 75 76
463 1 2 0 151 76 100
464 1 2 0 152 76 77
465 1 2 0 153 77 101
466 1 2 0 154 77 78
467 1 2 0 155 78 102
468 1 2 0 156 78 79
469 1 2 0 157 79 103
470 1 2 0 158 79 80
471 1 2 0 159 80 104
472 1 2 0 160 80 81
473 1 2 0 161 81 105
474 1 2 0 162 81 82
475 1 2 0 163 82 106
476 1 2 0 164 82 83
477 1 2 0 165 83 107
478 1 2 0 166 83 84
479 1 2 0 167 84 108
480 1 2 0 168 84 85
481 1 2 0 169 85 109
482 1 2 0 170 85 86
483 1 2 0 171 86 110
484 1 2 0 172 86 87
485 1 2 0 173 87 111
486 1 2 0 174 87 88
487 1 2 0 175 88 112
488 1 2 0 176 88 89
489 1 2 0 177 89 113
490 1 2 0 178 89 90
491 1 2 0 179 90 114
492 1 2 0 180 90 91
493 1 2 0 181 91 115
494 1 2 0 182 91 92
495 1 2 0 183 92 116
496 1 2 0 184 92 93
497 1 2 0 185 93 117
498 1 2 0 186 93 94
499 1 2 0 187 94 118
500 1 2 0 188 94 95
501 1 2 0 189 95 119
502 1 2 0 190 95 96
503 1 2 0 191 96 120
504 1 2 0 192 96 73
505 1 2 0 193 97 121
506 1 2 0 194 97 98
507 1 2 0 195 98 122
508 1 2 0 196 98 99
509 1 2 0 197 99 123
510 1 2 0 198 99 100
511 1 2 0 199 100 124
512 1 2 0 200 100 101
513 1 2 0 201 101 125
514 1 2 0 202 101 102
515 1 2 0 203 102 126
516 1 2 0 204 102 103
517 1 2 0 205 103 127
518 1 2 0 206 103 104
519 1 2 0 207 104 128
520 1 2 0 208 104 105
521 1 2 0 209 105 129
522 1 2 0 210 105 106
523 1 2 0 211 106 130
524 1 2 0 212 106 107
525 1 2 0 213 107 131
526 1 2 0 214 107 108
527 1 2 0 215 108 132
528 1 2 0 216 108 109
529 1 2 0 217 109 133
530 1 2 0 218 109 110
531 1 2 0 219 110 134
532 1 2 0 220 110 111
533 1 2 0 221 111 135
534 1 2 0 222 111 112
535 1 2 0 223 112 136
536 1 2 0 224 112 113
537 1 2 0 225 113 137
538 1 2 0 226 113 114
539 1 2 0 227 114 138
540 1 2 0 228 114 115
541 1 2 0 229 115 139
542 1 2 0 230 115 116
543 1 2 0 231 116 140
544 1 2 0 232 116 117
545 1 2 0 233 117 141
546 1 2 0 234 117 118
547 1 2 0 235 118 142
548 1 2 0 236 118 119
549 1 2 0 237 119 143
550 1 2 0 238 119 120
551 1 2 0 239 120 144
552 1 2 0 240 120 97
553 1 2 0 241 121 145
554 1 2 0 242 121 122
555 1 2 0 243 122 146
556 1 2 0 244 122 123
557 1 2 0 245 123 147
558 1 2 0 246 123 124
559 1 2 0 247 124 148
560 1 2 0 248 124 125
561 1 2 0 249 125 149
562 1 2 0 250 125 126
563 1 2 0 251 126 150
564 1 2 0 252 126 127
565 1 2 0 253 127 151
566 1 2 0 254 127 128
567 1 2 0 255 128 152
568 1 2 0 256 128 129
569 1 2 0 257 129 153
570 1 2 0 258 129 130
571 1 2 0 259 130 154
572 1 2 0 260 130 131
573 1 2 0 261 131 155
574 1 2 0 262 131 132
575 1 2 0 263 132 156
576 1 2 0 264 132 133
577 1 2 0 265 133 157
578 1 2 0 266 133 134
579 1 2 0 267 134 158
580 1 2 0 268 134 135
581 1 2 0 269 135 159
582 1 2 0 270 135 136
583 1 2 0 271 136 160
584 1 2 0 272 136 137
585 1 2 0 273 137 161
586 1 2 0 274 137 138
587 1 2 0 275 138 162
588 1 2 0 276 138 139
589 1 2 0 277 139 163
590 1 2 0 278 139 140
591 1 2 0 279 140 164
592 1 2 0 280 140 141
593 1 2 0 281 141 165
594 1 2 0 282 141 142
595 1 2 0 283 142 166
596 1 2 0 284 142 143
597 1 2 0 285 143 167
598 1 2 0 286 143 144
599 1 2 0 287 144 168
600 1 2 0 288 144 121
601 1 2 0 289 145 169
602 1 2 0 290 145 146
603 1 2 0 291 146 170
604 1 2 0 292 146 147
605 1 2 0 293 147 171
606 1 2 0 294 147 148
607 1 2 0 295 148 172
608 1 2 0 296 148 149
609 1 2 0 297 149 173
610 1 2 0 298 149 150
611 1 2 0 299 150 174
612 1 2 0 300 150 313
613 1 2 0 300 313 151
614 1 2 0 301 151 175
615 1 2 0 302 151 314
616 1 2 0 302 314 152
617 1 2 0 303 152 176
618 1 2 0 304 152 153
619 1 2 0 305 153 177
620 1 2 0 306 153 154
621 1 2 0 307 154 178
622 1 2 0 308 154 155
623 1 2 0 309 155 179
624 1 2 0 310 155 156
625 1 2 0 311 156 180
626 1 2 0 312 156 157
627 1 2 0 313 157 181
628 1 2 0 314 157 158
629 1 2 0 315 158 182
630 1 2 0 316 158 159
631 1 2 0 317 159 183
632 1 2 0 318 159 160
633 1 2 0 319 160 184
634 1 2 0 320 160 161
635 1 2 0 321 161 185
636 1 2 0 322 161 162
637 1 2 0 323 162 186
638 1 2 0 324 162 315
639 1 2 0 324 315 163
640 1 2 0 325 163 187
641 1 2 0 326 163 316
642 1 2 0 326 316 164
643 1 2 0 327 164 188
644 1 2 0 328 164 165
645 1 2 0 329 165 189
646 1 2 0 330 165 166
647 1 2 0 331 166 190
648 1 2 0 332 166 167
649 1 2 0 333 167 191
650 1 2 0 334 167 168
651 1 2 0 335 168 192
652 1 2 0 336 168 145
653 1 2 0 337 169 193
654 1 2 0 338 169 317
655 1 2 0 338 317 170
656 1 2 0 339 170 318
657 1 2 0 339 318 194
658 1 2 0 340 170 171
659 1 2 0 341 171 319
660 1 2 0 341 319 195
661 1 2 0 342 171 172
662 1 2 0 343 172 320
663 1 2 0 343 320 196
664 1 2 0 344 172 173
665 1 2 0 345 173 321
666 1 2 0 345 321 197
667 1 2 0 346 173 174
668 1 2 0 347 174 322
669 1 2 0 347 322 198
670 1 2 0 348 174 323
671 1 2 0 348 323 175
672 1 2 0 349 175 199
673 1 2 0 350 175 324
674 1 2 0 350 324 176
675 1 2 0 351 176 325
676 1 2 0 351 325 200
677 1 2 0 352 176 177
678 1 2 0 353 177 326
679 1 2 0 353 326 201
680 1 2 0 354 177 178
681 1 2 0 355 178 327
682 1 2 0 355 327 202
683 1 2 0 356 178 179
684 1 2 0 357 179 328
685 1 2 0 357 328 203
686 1 2 0 358 179 180
687 1 2 0 359 180 329
688 1 2 0 359 329 204
689 1 2 0 360 180 330
690 1 2 0 360 330 181
691 1 2 0 361 181 205
692 1 2 0 362 181 331
693 1 2 0 362 331 182
694 1 2 0 363 182 332
695 1 2 0 363 332 206
696 1 2 0 364 182 183
697 1 2 0 365 183 333
698 1 2 0 365 333 207
699 1 2 0 366 183 184
700 1 2 0 367 184 334
701 1 2 0 367 334 208
702 1 2 0 368 184 185
703 1 2 0 369 185 335
704 1 2 0 369 335 209
705 1 2 0 370 185 186
706 1 2 0 371 186 336
707 1 2 0 371 336 210
708 1 2 0 372 186 337
709 1 2 0 372 337 187
710 1 2 0 373 187 211
711 1 2 0 374 187 338
712 1 2 0 374 338 188
713 1 2 0 375 188 339
714 1 2 0 375 339 212
715 1 2 0 376 188 189
716 1 2 0 377 189 340
717 1 2 0 377 340 213
718 1 2 0 378 189 190
719 1 2 0 379 190 341
720 1 2 0 379 341 214
721 1 2 0 380 190 191
722 1 2 0 381 191 342
723 1 2 0 381 342 215
724 1 2 0 382 191 192
725 1 2 0 383 192 343
726 1 2 0 383 343 216
727 1 2 0 384 192 344
728 1 2 0 384 344 169
729 1 2 0 385 193 217
730 1 2 0 386 193 345
731 1 2 0 386 345 194
732 1 2 0 387 194 346
733 1 2 0 387 346 218
734 1 2 0 388 194 195
735 1 2 0 389 195 347
736 1 2 0 389 347 219
737 1 2 0 390 195 196
738 1 2 0 391 196 348
739 1 2 0 391 348 220
740 1 2 0 392 196 197
741 1 2 0 393 197 349
742 1 2 0 393 349 221
743 1 2 0 394 197 198
744 1 2 0 395 198 350
745 1 2 0 395 350 222
746 1 2 0 396 198 351
747 1 2 0 396 351 352
748 1 2 0 396 352 199
749 1 2 0 397 199 223
750 1 2 0 398 199 353
751 1 2 0 398 353 354
752 1 2 0 398 354 200
753 1 2 0 399 200 355
754 1 2 0 399 355 224
755 1 2 0 400 200 201
756 1 2 0 401 201 356
757 1 2 0 401 356 225
758 1 2 0 402 201 202
759 1 2 0 403 202 357
760 1 2 0 403 357 226
761 1 2 0 404 202 203
762 1 2 0 405 203 358
763 1 2 0 405 358 227
764 1 2 0 406 203 204
765 1 2 0 407 204 359
766 1 2 0 407 359 228
767 1 2 0 408 204 360
768 1 2 0 408 360 205
769 1 2 0 409 205 229
770 1 2 0 410 205 361
771 1 2 0 410 361 206
772 1 2 0 411 206 362
773 1 2 0 411 362 230
774 1 2 0 412 206 207
775 1 2 0 413 207 363
776 1 2 0 413 363 231
777 1 2 0 414 207 208
778 1 2 0 415 208 364
779 1 2 0 415 364 232
780 1 2 0 416 208 209
781 1 2 0 417 209 365
782 1 2 0 417 365 233
783 1 2 0 418 209 210
784 1 2 0 419 210 366
785 1 2 0 419 366 234
786 1 2 0 420 210 367
787 1 2 0 420 367 368
788 1 2 0 420 368 211
789 1 2 0 421 211 235
790 1 2 0 422 211 369
791 1 2 0 422 369 370
792 1 2 0 422 370 212
793 1 2 0 423 212 371
794 1 2 0 423 371 236
795 1 2 0 424 212 213
796 1 2 0 425 213 372
797 1 2 0 425 372 237
798 1 2 0 426 213 214
799 1 2 0 427 214 373
800 1 2 0 427 373 238
801 1 2 0 428 214 215
802 1 2 0 429 215 374
803 1 2 0 429 374 239
804 1 2 0 430 215 216
805 1 2 0 431 216 375
806 1 2 0 431 375 240
807 1 2 0 432 216 376
808 1 2 0 432 376 193
809 1 2 0 433 217 241
810 1 2 0 434 217 377
811 1 2 0 434 377 378
812 1 2 0 434 378 218
813 1 2 0 435 218 379
814 1 2 0 435 379 242
815 1 2 0 436 218 219
816 1 2 0 437 219 380
817 1 2 0 437 380 243
818 1 2 0 438 219 220
819 1 2 0 439 220 381
820 1 2 0 439 381 244
821 1 2 0 440 220 221
822 1 2 0 441 221 382
823 1 2 0 441 382 245
824 1 2 0 442 221 222
825 1 2 0 443 222 383
826 1 2 0 443 383 246
827 1 2 0 444 222 384
828 1 2 0 444 384 385
829 1 2 0 444 385 223
830 1 2 0 445 223 247
831 1 2 0 446 223 386
832 1 2 0 446 386 387
833 1 2 0 446 387 224
834 1 2 0 447 224 388
835 1 2 0 447 388 248
836 1 2 0 448 224 225
837 1 2 0 449 225 389
838 1 2 0 449 389 249
839 1 2 0 450 225 226
840 1 2 0 451 226 390
841 1 2 0 451 390 250
842 1 2 0 452 226 227
843 1 2 0 453 227 391
844 1 2 0 453 391 251
845 1 2 0 454 227 228
846 1 2 0 455 228 392
847 1 2 0 455 392 252
848 1 2 0 456 228 393
849 1 2 0 456 393 394
850 1 2 0 456 394 229
851 1 2 0 457 229 253
852 1 2 0 458 229 395
853 1 2 0 458 395 396
854 1 2 0 458 396 230
855 1 2 0 459 230 397
856 1 2 0 459 397 254
857 1 2 0 460 230 231
858 1 2 0 461 231 398
859 1 2 0 461 398 255
860 1 2 0 462 231 232
861 1 2 0 463 232 399
862 1 2 0 463 399 256
863 1 2 0 464 232 233
864 1 2 0 465 233 400
865 1 2 0 465 400 257
866 1 2 0 466 233 234
867 1 2 0 467 234 401
868 1 2 0 467 401 258
869 1 2 0 468 234 402
870 1 2 0 468 402 403
871 1 2 0 468 403 235
872 1 2 0 469 235 259
873 1 2 0 470 235 404
874 1 2 0 470 404 405
875 1 2 0 470 405 236
876 1 2 0 471 236 406
877 1 2 0 471 406 260
878 1 2 0 472 236 237
879 1 2 0 473 237 407
880 1 2 0 473 407 261
881 1 2 0 474 237 238
882 1 2 0 475 238 408
883 1 2 0 475 408 262
884 1 2 0 476 238 239
885 1 2 0 477 239 409
886 1 2 0 477 409 263
887 1 2 0 478 239 240
888 1 2 0 479 240 410
889 1 2 0 479 410 264
890 1 2 0 480 240 411
891 1 2 0 480 411 412
892 1 2 0 480 412 217
893 1 2 0 481 241 265
894 1 2 0 482 241 413
895 1 2 0 482 413 414
896 1 2 0 482 414 415
897 1 2 0 482 415 242
898 1 2 0 483 242 266
899 1 2 0 484 242 243
900 1 2 0 485 243 267
901 1 2 0 486 243 244
902 1 2 0 487 244 268
903 1 2 0 488 244 245
904 1 2 0 489 245 269
905 1 2 0 490 245 246
906 1 2 0 491 246 270
907 1 2 0 492 246 416
908 1 2 0 492 416 417
909 1 2 0 492 417 418
910 1 2 0 492 418 247
911 1 2 0 493 247 271
912 1 2 0 494 247 419
913 1 2 0 494 419 420
914 1 2 0 494 420 421
915 1 2 0 494 421 248
916 1 2 0 495 248 272
917 1 2 0 496 248 249
918 1 2 0 497 249 273
919 1 2 0 498 249 250
920 1 2 0 499 250 274
921 1 2 0 500 250 251
922 1 2 0 501 251 275
923 1 2 0 502 251 252
924 1 2 0 503 252 276
925 1 2 0 504 252 422
926 1 2 0 504 422 423
927 1 2 0 504 423 424
928 1 2 0 504 424 253
929 1 2 0 505 253 277
930 1 2 0 506 253 425
931 1 2 0 506 425 426
932 1 2 0 506 426 427
933 1 2 0 506 427 254
934 1 2 0 507 254 278
935 1 2 0 508 254 255
936 1 2 0 509 255 279
937 1 2 0 510 255 256
938 1 2 0 511 256 280
939 1 2 0 512 256 257
940 1 2 0 513 257 281
941 1 2 0 514 257 258
942 1 2 0 515 258 282
943 1 2 0 516 258 428
944 1 2 0 516 428 429
945 1 2 0 516 429 430
946 1 2 0 516 430 259
947 1 2 0 517 259 283
948 1 2 0 518 259 431
949 1 2 0 518 431 432
950 1 2 0 518 432 433
951 1 2 0 518 433 260
952 1 2 0 519 260 284
953 1 2 0 520 260 261
954 1 2 0 521 261 285
955 1 2 0 522 261 262
956 1 2 0 523 262 286
957 1 2 0 524 262 263
958 1 2 0 525 263 287
959 1 2 0 526 263 264
960 1 2 0 527 264 288
961 1 2 0 528 264 434
962 1 2 0 528 434 435
963 1 2 0 528 435 436
964 1 2 0 528 436 241
965 1 2 0 529 265 289
966 1 2 0 530 265 437
967 1 2 0 530 437 438
968 1 2 0 530 438 439
969 1 2 0 530 439 266
970 1 2 0 531 266 290
971 1 2 0 532 266 267
972 1 2 0 533 267 291
973 1 2 0 534 267 268
974 1 2 0 535 268 292
975 1 2 0 536 268 269
976 1 2 0 537 269 293
977 1 2 0 538 269 270
978 1 2 0 539 270 294
979 1 2 0 540 270 440
980 1 2 0 540 440 441
981 1 2 0 540 441 442
982 1 2 0 540 442 443
983 1 2 0 540 443 271
984 1 2 0 541 271 295
985 1 2 0 542 271 444
986 1 2 0 542 444 445
987 1 2 0 542 445 446
988 1 2 0 542 446 447
989 1 2 0 542 447 272
990 1 2 0 543 272 296
991 1 2 0 544 272 273
992 1 2 0 545 273 297
993 1 2 0 546 273 274
994 1 2 0 547 274 298
995 1 2 0 548 274 275
996 1 2 0 549 275 299
997 1 2 0 550 275 276
998 1 2 0 551 276 300
999 1 2 0 552 276 448
1000 1 2 0 552 448 449
1001 1 2 0 552 449 450
1002 1 2 0 552 450 277
1003 1 2 0 553 277 301
1004 1 2 0 554 277 451
1005 1 2 0 554 451 452
1006 1 2 0 554 452 453
1007 1 2 0 554 453 278
1008 1 2 0 555 278 302
1009 1 2 0 556 278 279
1010 1 2 0 557 279 303
1011 1 2 0 558 279 280
1012 1 2 0 559 280 304
1013 1 2 0 560 280 281
1014 1 2 0 561 281 305
1015 1 2 0 562 281 282
1016 1 2 0 563 282 306
1017 1 2 0 564 282 454
1018 1 2 0 564 454 455
1019 1 2 0 564 455 456
1020 1 2 0 564 456 457
1021 1 2 0 564 457 283
1022 1 2 0 565 283 307
1023 1 2 0 566 283 458
1024 1 2 0 566 458 459
1025 1 2 0 566 459 460
1026 1 2 0 566 460 461
1027 1 2 0 566 461 284
1028 1 2 0 567 284 308
1029 1 2 0 568 284 285
1030 1 2 0 569 285 309
1031 1 2 0 570 285 286
1032 1 2 0 571 286 310
1033 1 2 0 572 286 287
1034 1 2 0 573 287 311
1035 1 2 0 574 287 288
1036 1 2 0 575 288 312
1037 1 2 0 576 288 462
1038 1 2 0 576 462 463
1039 1 2 0 576 463 464
1040 1 2 0 576 464 265
1041 1 2 0 578 289 465
1042 1 2 0 578 465 466
1043 1 2 0 578 466 467
1044 1 2 0 578 467 468
1045 1 2 0 578 468 290
1046 1 2 0 580 290 291
1047 1 2 0 582 291 292
1048 1 2 0 584 292 293
1049 1 2 0 586 293 294
1050 1 2 0 588 294 469
1051 1 2 0 588 469 470
1052 1 2 0 588 470 471
1053 1 2 0 588 471 472
1054 1 2 0 588 472 295
1055 1 2 0 590 295 473
1056 1 2 0 590 473 474
1057 1 2 0 590 474 475
1058 1 2 0 590 475 476
1059 1 2 0 590 476 296
1060 1 2 0 592 296 297
1061 1 2 0 594 297 298
1062 1 2 0 596 298 299
1063 1 2 0 598 299 300
1064 1 2 0 600 300 477
1065 1 2 0 600 477 478
1066 1 2 0 600 478 479
1067 1 2 0 600 479 480
1068 1 2 0 600 480 301
1069 1 2 0 602 301 481
1070 1 2 0 602 481 482
1071 1 2 0 602 482 483
1072 1 2 0 602 483 484
1073 1 2 0 602 484 302
1074 1 2 0 604 302 303
1075 1 2 0 606 303 304
1076 1 2 0 608 304 305
1077 1 2 0 610 305 306
1078 1 2 0 612 306 485
1079 1 2 0 612 485 486
1080 1 2 0 612 486 487
1081 1 2 0 612 487 488
1082 1 2 0 612 488 307
1083 1 2 0 614 307 489
1084 1 2 0 614 489 490
1085 1 2 0 614 490 491
1086 1 2 0 614 491 492
1087 1 2 0 614 492 308
1088 1 2 0 616 308 309
1089 1 2 0 618 309 310
1090 1 2 0 620 310 311
1091 1 2 0 622 311 312
1092 1 2 0 624 312 493
1093 1 2 0 624 493 494
1094 1 2 0 624 494 495
1095 1 2 0 624 495 496
1096 1 2 0 624 496 289
1097 2 2 0 38 26 2 497
1098 2 2 0 38 1 25 497
1099 2 2 0 38 2 1 497
1100 2 2 0 38 25 26 497
1101 2 2 0 39 26 3 2
1102 2 2 0 39 27 3 26
1103 2 2 0 40 27 4 3
1104 2 2 0 40 28 4 27
1105 2 2 0 41 28 5 4
1106 2 2 0 41 29 5 28
1107 2 2 0 42 29 6 5
1108 2 2 0 42 30 6 29
1109 2 2 0 43 6 30 498
1110 2 2 0 43 31 7 498
1111 2 2 0 43 7 6 498
1112 2 2 0 43 30 31 498
1113 2 2 0 44 32 8 499
1114 2 2 0 44 7 31 499
1115 2 2 0 44 8 7 499
1116 2 2 0 44 31 32 499
1117 2 2 0 45 33 9 8
1118 2 2 0 45 32 33 8
1119 2 2 0 46 34 10 9
1120 2 2 0 46 33 34 9
1121 2 2 0 47 35 11 10
1122 2 2 0 47 34 35 10
1123 2 2 0 48 36 12 11
1124 2 2 0 48 35 36 11
1125 2 2 0 49 12 36 500
1126 2 2 0 49 37 13 500
1127 2 2 0 49 13 12 500
1128 2 2 0 49 36 37 500
1129 2 2 0 50 38 14 501
1130 2 2 0 50 13 37 501
1131 2 2 0 50 14 13 501
1132 2 2 0 50 37 38 501
1133 2 2 0 51 38 15 14
1134 2 2 0 51 39 15 38
1135 2 2 0 52 39 16 15
1136 2 2 0 52 40 16 39
1137 2 2 0 53 40 17 16
1138 2 2 0 53 41 17 40
1139 2 2 0 54 41 18 17
1140 2 2 0 54 42 18 41
1141 2 2 0 55 18 42 502
1142 2 2 0 55 43 19 502
1143 2 2 0 55 19 18 502
1144 2 2 0 55 42 43 502
1145 2 2 0 56 44 20 503
1146 2 2 0 56 19 43 503
1147 2 2 0 56 20 19 503
1148 2 2 0 56 43 44 503
1149 2 2 0 57 45 21 20
1150 2 2 0 57 44 45 20
1151 2 2 0 58 46 22 21
1152 2 2 0 58 45 46 21
1153 2 2 0 59 47 23 22
1154 2 2 0 59 46 47 22
1155 2 2 0 60 48 24 23
1156 2 2 0 60 47 48 23
1157 2 2 0 61 24 48 504
1158 2 2 0 61 25 1 504
1159 2 2 0 61 1 24 504
1160 2 2 0 61 48 25 504
1161 2 2 0 62 49 50 505
1162 2 2 0 62 50 26 505
1163 2 2 0 62 26 25 505
1164 2 2 0 62 25 49 505
1165 2 2 0 63 51 27 50
1166 2 2 0 63 50 27 26
1167 2 2 0 64 52 28 51
1168 2 2 0 64 51 28 27
1169 2 2 0 65 53 29 52
1170 2 2 0 65 52 29 28
1171 2 2 0 66 53 30 29
1172 2 2 0 66 54 30 53
1173 2 2 0 67 54 55 506
1174 2 2 0 67 31 30 506
1175 2 2 0 67 30 54 506
1176 2 2 0 67 55 31 506
1177 2 2 0 68 55 56 507
1178 2 2 0 68 32 31 507
1179 2 2 0 68 56 32 507
1180 2 2 0 68 31 55 507
1181 2 2 0 69 57 33 32
1182 2 2 0 69 56 57 32
1183 2 2 0 70 57 58 33
1184 2 2 0 70 58 34 33
1185 2 2 0 71 58 59 34
1186 2 2 0 71 59 35 34
1187 2 2 0 72 59 60 35
1188 2 2 0 72 60 36 35
1189 2 2 0 73 60 61 508
1190 2 2 0 73 36 60 508
1191 2 2 0 73 37 36 508
1192 2 2 0 73 61 37 508
1193 2 2 0 74 61 62 509
1194 2 2 0 74 62 38 509
1195 2 2 0 74 38 37 509
1196 2 2 0 74 37 61 509
1197 2 2 0 75 63 39 62
1198 2 2 0 75 62 39 38
1199 2 2 0 76 64 40 63
1200 2 2 0 76 63 40 39
1201 2 2 0 77 65 41 64
1202 2 2 0 77 64 41 40
1203 2 2 0 78 65 42 41
1204 2 2 0 78 66 42 65
1205 2 2 0 79 66 67 510
1206 2 2 0 79 43 42 510
1207 2 2 0 79 42 66 510
1208 2 2 0 79 67 43 510
1209 2 2 0 80 67 68 511
1210 2 2 0 80 44 43 511
1211 2 2 0 80 68 44 511
1212 2 2 0 80 43 67 511
1213 2 2 0 81 69 45 44
1214 2 2 0 81 68 69 44
1215 2 2 0 82 69 70 45
1216 2 2 0 82 70 46 45
1217 2 2 0 83 70 71 46
1218 2 2 0 83 71 47 46
1219 2 2 0 84 71 72 47
1220 2 2 0 84 72 48 47
1221 2 2 0 85 72 49 512
1222 2 2 0 85 48 72 512
1223 2 2 0 85 25 48 512
1224 2 2 0 85 49 25 512
1225 2 2 0 86 74 50 513
1226 2 2 0 86 49 73 513
1227 2 2 0 86 73 74 513
1228 2 2 0 86 50 49 513
1229 2 2 0 87 74 51 50
1230 2 2 0 87 74 75 51
1231 2 2 0 88 75 52 51
1232 2 2 0 88 75 76 52
1233 2 2 0 89 76 53 52
1234 2 2 0 89 76 77 53
1235 2 2 0 90 77 54 53
1236 2 2 0 90 78 54 77
1237 2 2 0 91 54 78 514
1238 2 2 0 91 78 79 514
1239 2 2 0 91 79 55 514
1240 2 2 0 91 55 54 514
1241 2 2 0 92 80 56 515
1242 2 2 0 92 79 80 515
1243 2 2 0 92 55 79 515
1244 2 2 0 92 56 55 515
1245 2 2 0 93 81 57 56
1246 2 2 0 93 80 81 56
1247 2 2 0 94 82 58 57
1248 2 2 0 94 81 82 57
1249 2 2 0 95 83 59 58
1250 2 2 0 95 82 83 58
1251 2 2 0 96 84 60 59
1252 2 2 0 96 83 84 59
1253 2 2 0 97 60 84 516
1254 2 2 0 97 85 61 516
1255 2 2 0 97 84 85 516
1256 2 2 0 97 61 60 516
1257 2 2 0 98 86 62 517
1258 2 2 0 98 61 85 517
1259 2 2 0 98 85 86 517
1260 2 2 0 98 62 61 517
1261 2 2 0 99 86 63 62
1262 2 2 0 99 86 87 63
1263 2 2 0 100 87 64 63
1264 2 2 0 100 87 88 64
1265 2 2 0 101 88 65 64
1266 2 2 0 101 88 89 65
1267 2 2 0 102 89 66 65
1268 2 2 0 102 90 66 89
1269 2 2 0 103 66 90 518
1270 2 2 0 103 90 91 518
1271 2 2 0 103 91 67 518
1272 2 2 0 103 67 66 518
1273 2 2 0 104 92 68 519
1274 2 2 0 104 91 92 519
1275 2 2 0 104 67 91 519
1276 2 2 0 104 68 67 519
1277 2 2 0 105 93 69 68
1278 2 2 0 105 92 93 68
1279 2 2 0 106 94 70 69
1280 2 2 0 106 93 94 69
1281 2 2 0 107 95 71 70
1282 2 2 0 107 94 95 70
1283 2 2 0 108 96 72 71
1284 2 2 0 108 95 96 71
1285 2 2 0 109 72 96 520
1286 2 2 0 109 73 49 520
1287 2 2 0 109 96 73 520
1288 2 2 0 109 49 72 520
1289 2 2 0 110 98 74 521
1290 2 2 0 110 73 97 521
1291 2 2 0 110 97 98 521
1292 2 2 0 110 74 73 521
1293 2 2 0 111 98 75 74
1294 2 2 0 111 98 99 75
1295 2 2 0 112 99 76 75
1296 2 2 0 112 99 100 76
1297 2 2 0 113 100 77 76
1298 2 2 0 113 100 101 77
1299 2 2 0 114 101 78 77
1300 2 2 0 114 102 78 101
1301 2 2 0 115 78 102 522
1302 2 2 0 115 103 79 522
1303 2 2 0 115 102 103 522
1304 2 2 0 115 79 78 522
1305 2 2 0 116 104 80 523
1306 2 2 0 116 79 103 523
1307 2 2 0 116 103 104 523
1308 2 2 0 116 80 79 523
1309 2 2 0 117 105 81 80
1310 2 2 0 117 104 105 80
1311 2 2 0 118 81 106 82
1312 2 2 0 118 105 106 81
1313 2 2 0 119 82 107 83
1314 2 2 0 119 106 107 82
1315 2 2 0 120 83 108 84
1316 2 2 0 120 107 108 83
1317 2 2 0 121 84 108 524
1318 2 2 0 121 109 85 524
1319 2 2 0 121 108 109 524
1320 2 2 0 121 85 84 524
1321 2 2 0 122 110 86 525
1322 2 2 0 122 85 109 525
1323 2 2 0 122 109 110 525
1324 2 2 0 122 86 85 525
1325 2 2 0 123 110 87 86
1326 2 2 0 123 110 111 87
1327 2 2 0 124 111 88 87
1328 2 2 0 124 111 112 88
1329 2 2 0 125 112 89 88
1330 2 2 0 125 112 113 89
1331 2 2 0 126 113 90 89
1332 2 2 0 126 114 90 113
1333 2 2 0 127 90 114 526
1334 2 2 0 127 115 91 526
1335 2 2 0 127 114 115 526
1336 2 2 0 127 91 90 526
1337 2 2 0 128 116 92 527
1338 2 2 0 128 91 115 527
1339 2 2 0 128 115 116 527
1340 2 2 0 128 92 91 527
1341 2 2 0 129 117 93 92
1342 2 2 0 129 116 117 92
1343 2 2 0 130 93 118 94
1344 2 2 0 130 117 118 93
1345 2 2 0 131 94 119 95
1346 2 2 0 131 118 119 94
1347 2 2 0 132 95 120 96
1348 2 2 0 132 119 120 95
1349 2 2 0 133 96 120 528
1350 2 2 0 133 97 73 528
1351 2 2 0 133 120 97 528
1352 2 2 0 133 73 96 528
1353 2 2 0 134 122 98 529
1354 2 2 0 134 97 121 529
1355 2 2 0 134 121 122 529
1356 2 2 0 134 98 97 529
1357 2 2 0 135 122 99 98
1358 2 2 0 135 122 123 99
1359 2 2 0 136 123 100 99
1360 2 2 0 136 123 124 100
1361 2 2 0 137 124 101 100
1362 2 2 0 137 124 125 101
1363 2 2 0 138 125 102 101
1364 2 2 0 138 126 102 125
1365 2 2 0 139 126 127 530
1366 2 2 0 139 102 126 530
1367 2 2 0 139 127 103 530
1368 2 2 0 139 103 102 530
1369 2 2 0 140 127 128 531
1370 2 2 0 140 128 104 531
1371 2 2 0 140 103 127 531
1372 2 2 0 140 104 103 531
1373 2 2 0 141 129 105 104
1374 2 2 0 141 128 129 104
1375 2 2 0 142 105 130 106
1376 2 2 0 142 129 130 105
1377 2 2 0 143 106 131 107
1378 2 2 0 143 130 131 106
1379 2 2 0 144 107 132 108
1380 2 2 0 144 131 132 107
1381 2 2 0 145 108 132 532
1382 2 2 0 145 133 109 532
1383 2 2 0 145 132 133 532
1384 2 2 0 145 109 108 532
1385 2 2 0 146 134 110 533
1386 2 2 0 146 109 133 533
1387 2 2 0 146 133 134 533
1388 2 2 0 146 110 109 533
1389 2 2 0 147 134 111 110
1390 2 2 0 147 134 135 111
1391 2 2 0 148 135 112 111
1392 2 2 0 148 135 136 112
1393 2 2 0 149 136 113 112
1394 2 2 0 149 136 137 113
1395 2 2 0 150 137 114 113
1396 2 2 0 150 138 114 137
1397 2 2 0 151 138 139 534
1398 2 2 0 151 114 138 534
1399 2 2 0 151 139 115 534
1400 2 2 0 151 115 114 534
1401 2 2 0 152 139 140 535
1402 2 2 0 152 140 116 535
1403 2 2 0 152 115 139 535
1404 2 2 0 152 116 115 535
1405 2 2 0 153 141 117 116
1406 2 2 0 153 140 141 116
1407 2 2 0 154 117 142 118
1408 2 2 0 154 141 142 117
1409 2 2 0 155 118 143 119
1410 2 2 0 155 142 143 118
1411 2 2 0 156 119 144 120
1412 2 2 0 156 143 144 119
1413 2 2 0 157 120 144 536
1414 2 2 0 157 121 97 536
1415 2 2 0 157 144 121 536
1416 2 2 0 157 97 120 536
1417 2 2 0 158 145 146 537
1418 2 2 0 158 146 122 537
1419 2 2 0 158 121 145 537
1420 2 2 0 158 122 121 537
1421 2 2 0 159 146 123 122
1422 2 2 0 159 146 147 123
1423 2 2 0 160 147 124 123
1424 2 2 0 160 147 148 124
1425 2 2 0 161 148 125 124
1426 2 2 0 161 148 149 125
1427 2 2 0 162 149 126 125
1428 2 2 0 162 150 126 149
1429 2 2 0 163 150 313 126
1430 2 2 0 163 126 313 538
1431 2 2 0 163 151 127 538
1432 2 2 0 163 127 126 538
1433 2 2 0 163 313 151 538
1434 2 2 0 164 128 314 152
1435 2 2 0 164 314 128 539
1436 2 2 0 164 127 151 539
1437 2 2 0 164 128 127 539
1438 2 2 0 164 151 314 539
1439 2 2 0 165 153 129 128
1440 2 2 0 165 152 153 128
1441 2 2 0 166 129 154 130
1442 2 2 0 166 153 154 129
1443 2 2 0 167 130 155 131
1444 2 2 0 167 154 155 130
1445 2 2 0 168 131 156 132
1446 2 2 0 168 155 156 131
1447 2 2 0 169 156 157 540
1448 2 2 0 169 132 156 540
1449 2 2 0 169 157 133 540
1450 2 2 0 169 133 132 540
1451 2 2 0 170 157 158 541
1452 2 2 0 170 158 134 541
1453 2 2 0 170 133 157 541
1454 2 2 0 170 134 133 541
1455 2 2 0 171 158 135 134
1456 2 2 0 171 158 159 135
1457 2 2 0 172 159 136 135
1458 2 2 0 172 159 160 136
1459 2 2 0 173 160 137 136
1460 2 2 0 173 160 161 137
1461 2 2 0 174 161 138 137
1462 2 2 0 174 162 138 161
1463 2 2 0 175 162 315 138
1464 2 2 0 175 138 315 542
1465 2 2 0 175 163 139 542
1466 2 2 0 175 139 138 542
1467 2 2 0 175 315 163 542
1468 2 2 0 176 140 316 164
1469 2 2 0 176 316 140 543
1470 2 2 0 176 139 163 543
1471 2 2 0 176 140 139 543
1472 2 2 0 176 163 316 543
1473 2 2 0 177 165 141 140
1474 2 2 0 177 164 165 140
1475 2 2 0 178 141 166 142
1476 2 2 0 178 165 166 141
1477 2 2 0 179 142 167 143
1478 2 2 0 179 166 167 142
1479 2 2 0 180 143 168 144
1480 2 2 0 180 167 168 143
1481 2 2 0 181 168 145 544
1482 2 2 0 181 144 168 544
1483 2 2 0 181 145 121 544
1484 2 2 0 181 121 144 544
1485 2 2 0 182 169 317 145
1486 2 2 0 182 317 146 145
1487 2 2 0 182 146 317 170
1488 2 2 0 183 170 147 146
1489 2 2 0 183 170 171 147
1490 2 2 0 184 171 148 147
1491 2 2 0 184 171 172 148
1492 2 2 0 185 172 149 148
1493 2 2 0 185 172 173 149
1494 2 2 0 186 173 150 149
1495 2 2 0 186 174 150 173
1496 2 2 0 187 313 323 175
1497 2 2 0 187 174 323 150
1498 2 2 0 187 323 313 150
1499 2 2 0 187 151 313 175
1500 2 2 0 188 324 314 175
1501 2 2 0 188 152 324 176
1502 2 2 0 188 152 314 324
1503 2 2 0 188 175 314 151
1504 2 2 0 189 177 153 152
1505 2 2 0 189 176 177 152
1506 2 2 0 190 153 178 154
1507 2 2 0 190 177 178 153
1508 2 2 0 191 154 179 155
1509 2 2 0 191 178 179 154
1510 2 2 0 192 155 180 156
1511 2 2 0 192 179 180 155
1512 2 2 0 193 157 330 181
1513 2 2 0 193 330 157 156
1514 2 2 0 193 180 330 156
1515 2 2 0 194 181 331 157
1516 2 2 0 194 331 158 157
1517 2 2 0 194 158 331 182
1518 2 2 0 195 182 159 158
1519 2 2 0 195 182 183 159
1520 2 2 0 196 183 160 159
1521 2 2 0 196 183 184 160
1522 2 2 0 197 184 161 160
1523 2 2 0 197 184 185 161
1524 2 2 0 198 185 162 161
1525 2 2 0 198 186 162 185
1526 2 2 0 199 315 337 187
1527 2 2 0 199 186 337 162
1528 2 2 0 199 337 315 162
1529 2 2 0 199 163 315 187
1530 2 2 0 200 338 316 187
1531 2 2 0 200 164 338 188
1532 2 2 0 200 164 316 338
1533 2 2 0 200 187 316 163
1534 2 2 0 201 189 165 164
1535 2 2 0 201 188 189 164
1536 2 2 0 202 165 190 166
1537 2 2 0 202 189 190 165
1538 2 2 0 203 166 191 167
1539 2 2 0 203 190 191 166
1540 2 2 0 204 167 192 168
1541 2 2 0 204 191 192 167
1542 2 2 0 205 145 344 169
1543 2 2 0 205 344 145 168
1544 2 2 0 205 192 344 168
1545 2 2 0 206 345 318 545
1546 2 2 0 206 193 345 546
1547 2 2 0 206 169 193 546
1548 2 2 0 206 170 317 545
1549 2 2 0 206 545 317 546
1550 2 2 0 206 318 170 545
1551 2 2 0 206 317 169 546
1552 2 2 0 206 345 545 546
1553 2 2 0 206 318 345 194
1554 2 2 0 207 318 171 170
1555 2 2 0 207 319 171 318
1556 2 2 0 207 195 319 194
1557 2 2 0 207 319 318 194
1558 2 2 0 208 319 172 171
1559 2 2 0 208 320 172 319
1560 2 2 0 208 196 320 195
1561 2 2 0 208 320 319 195
1562 2 2 0 209 320 173 172
1563 2 2 0 209 321 173 320
1564 2 2 0 209 197 321 196
1565 2 2 0 209 321 320 196
1566 2 2 0 210 321 174 173
1567 2 2 0 210 322 174 321
1568 2 2 0 210 198 321 197
1569 2 2 0 210 198 322 321
1570 2 2 0 211 351 322 198
1571 2 2 0 211 174 322 547
1572 2 2 0 211 322 351 547
1573 2 2 0 211 323 174 547
1574 2 2 0 211 351 352 547
1575 2 2 0 211 199 175 548
1576 2 2 0 211 547 352 548
1577 2 2 0 211 323 547 548
1578 2 2 0 211 175 323 548
1579 2 2 0 211 352 199 548
1580 2 2 0 212 325 354 200
1581 2 2 0 212 325 176 549
1582 2 2 0 212 354 325 549
1583 2 2 0 212 176 324 549
1584 2 2 0 212 353 354 549
1585 2 2 0 212 175 199 550
1586 2 2 0 212 353 549 550
1587 2 2 0 212 549 324 550
1588 2 2 0 212 324 175 550
1589 2 2 0 212 199 353 550
1590 2 2 0 213 326 177 176
1591 2 2 0 213 325 326 176
1592 2 2 0 213 201 326 200
1593 2 2 0 213 326 325 200
1594 2 2 0 214 327 178 177
1595 2 2 0 214 326 327 177
1596 2 2 0 214 202 326 201
1597 2 2 0 214 202 327 326
1598 2 2 0 215 328 179 178
1599 2 2 0 215 327 328 178
1600 2 2 0 215 203 327 202
1601 2 2 0 215 203 328 327
1602 2 2 0 216 329 180 179
1603 2 2 0 216 328 329 179
1604 2 2 0 216 204 328 203
1605 2 2 0 216 204 329 328
1606 2 2 0 217 329 360 551
1607 2 2 0 217 360 205 552
1608 2 2 0 217 205 181 552
1609 2 2 0 217 330 180 551
1610 2 2 0 217 330 551 552
1611 2 2 0 217 180 329 551
1612 2 2 0 217 181 330 552
1613 2 2 0 217 551 360 552
1614 2 2 0 217 360 329 204
1615 2 2 0 218 361 332 553
1616 2 2 0 218 205 361 554
1617 2 2 0 218 181 205 554
1618 2 2 0 218 182 331 553
1619 2 2 0 218 553 331 554
1620 2 2 0 218 332 182 553
1621 2 2 0 218 331 181 554
1622 2 2 0 218 361 553 554
1623 2 2 0 218 206 332 361
1624 2 2 0 219 332 183 182
1625 2 2 0 219 333 183 332
1626 2 2 0 219 207 333 206
1627 2 2 0 219 333 332 206
1628 2 2 0 220 333 184 183
1629 2 2 0 220 334 184 333
1630 2 2 0 220 208 334 207
1631 2 2 0 220 334 333 207
1632 2 2 0 221 334 185 184
1633 2 2 0 221 335 185 334
1634 2 2 0 221 209 335 208
1635 2 2 0 221 335 334 208
1636 2 2 0 222 335 186 185
1637 2 2 0 222 336 186 335
1638 2 2 0 222 210 335 209
1639 2 2 0 222 210 336 335
1640 2 2 0 223 367 336 210
1641 2 2 0 223 186 336 555
1642 2 2 0 223 336 367 555
1643 2 2 0 223 337 186 555
1644 2 2 0 223 367 368 555
1645 2 2 0 223 211 187 556
1646 2 2 0 223 555 368 556
1647 2 2 0 223 337 555 556
1648 2 2 0 223 187 337 556
1649 2 2 0 223 368 211 556
1650 2 2 0 224 339 370 212
1651 2 2 0 224 339 188 557
1652 2 2 0 224 370 339 557
1653 2 2 0 224 188 338 557
1654 2 2 0 224 369 370 557
1655 2 2 0 224 187 211 558
1656 2 2 0 224 369 557 558
1657 2 2 0 224 557 338 558
1658 2 2 0 224 338 187 558
1659 2 2 0 224 211 369 558
1660 2 2 0 225 340 189 188
1661 2 2 0 225 339 340 188
1662 2 2 0 225 213 340 212
1663 2 2 0 225 340 339 212
1664 2 2 0 226 341 190 189
1665 2 2 0 226 340 341 189
1666 2 2 0 226 214 340 213
1667 2 2 0 226 214 341 340
1668 2 2 0 227 342 191 190
1669 2 2 0 227 341 342 190
1670 2 2 0 227 215 341 214
1671 2 2 0 227 215 342 341
1672 2 2 0 228 343 192 191
1673 2 2 0 228 342 343 191
1674 2 2 0 228 216 342 215
1675 2 2 0 228 216 343 342
1676 2 2 0 229 343 376 559
1677 2 2 0 229 376 193 560
1678 2 2 0 229 193 169 560
1679 2 2 0 229 344 192 559
1680 2 2 0 229 344 559 560
1681 2 2 0 229 192 343 559
1682 2 2 0 229 169 344 560
1683 2 2 0 229 559 376 560
1684 2 2 0 229 376 343 216
1685 2 2 0 230 217 377 193
1686 2 2 0 230 346 378 218
1687 2 2 0 230 377 345 193
1688 2 2 0 230 194 345 561
1689 2 2 0 230 346 194 561
1690 2 2 0 230 378 346 561
1691 2 2 0 230 377 378 561
1692 2 2 0 230 345 377 561
1693 2 2 0 231 346 195 194
1694 2 2 0 231 347 195 346
1695 2 2 0 231 219 347 218
1696 2 2 0 231 347 346 218
1697 2 2 0 232 347 196 195
1698 2 2 0 232 348 196 347
1699 2 2 0 232 220 348 219
1700 2 2 0 232 348 347 219
1701 2 2 0 233 348 197 196
1702 2 2 0 233 349 197 348
1703 2 2 0 233 221 349 220
1704 2 2 0 233 349 348 220
1705 2 2 0 234 349 350 197
1706 2 2 0 234 222 349 221
1707 2 2 0 234 222 350 349
1708 2 2 0 234 350 198 197
1709 2 2 0 235 351 385 352
1710 2 2 0 235 384 385 562
1711 2 2 0 235 385 351 562
1712 2 2 0 235 198 350 562
1713 2 2 0 235 350 384 562
1714 2 2 0 235 223 199 563
1715 2 2 0 235 352 385 563
1716 2 2 0 235 385 223 563
1717 2 2 0 235 351 198 562
1718 2 2 0 235 199 352 563
1719 2 2 0 235 384 350 222
1720 2 2 0 236 386 354 353
1721 2 2 0 236 386 387 564
1722 2 2 0 236 354 386 564
1723 2 2 0 236 355 200 564
1724 2 2 0 236 387 355 564
1725 2 2 0 236 199 223 565
1726 2 2 0 236 386 353 565
1727 2 2 0 236 223 386 565
1728 2 2 0 236 200 354 564
1729 2 2 0 236 353 199 565
1730 2 2 0 236 387 224 355
1731 2 2 0 237 201 355 356
1732 2 2 0 237 224 225 356
1733 2 2 0 237 355 224 356
1734 2 2 0 237 355 201 200
1735 2 2 0 238 357 202 201
1736 2 2 0 238 356 357 201
1737 2 2 0 238 226 356 225
1738 2 2 0 238 356 226 357
1739 2 2 0 239 358 203 202
1740 2 2 0 239 357 358 202
1741 2 2 0 239 227 357 226
1742 2 2 0 239 357 227 358
1743 2 2 0 240 359 204 203
1744 2 2 0 240 358 359 203
1745 2 2 0 240 228 358 227
1746 2 2 0 240 358 228 359
1747 2 2 0 241 205 394 229
1748 2 2 0 241 393 359 228
1749 2 2 0 241 394 205 360
1750 2 2 0 241 360 204 566
1751 2 2 0 241 204 359 566
1752 2 2 0 241 359 393 566
1753 2 2 0 241 393 394 566
1754 2 2 0 241 394 360 566
1755 2 2 0 242 229 395 205
1756 2 2 0 242 362 396 230
1757 2 2 0 242 395 361 205
1758 2 2 0 242 206 361 567
1759 2 2 0 242 362 206 567
1760 2 2 0 242 396 362 567
1761 2 2 0 242 395 396 567
1762 2 2 0 242 361 395 567
1763 2 2 0 243 362 207 206
1764 2 2 0 243 363 207 362
1765 2 2 0 243 231 363 230
1766 2 2 0 243 230 363 362
1767 2 2 0 244 363 208 207
1768 2 2 0 244 364 208 363
1769 2 2 0 244 232 364 231
1770 2 2 0 244 231 364 363
1771 2 2 0 245 364 209 208
1772 2 2 0 245 365 209 364
1773 2 2 0 245 233 365 232
1774 2 2 0 245 232 365 364
1775 2 2 0 246 365 366 209
1776 2 2 0 246 233 234 365
1777 2 2 0 246 234 366 365
1778 2 2 0 246 366 210 209
1779 2 2 0 247 368 367 403
1780 2 2 0 247 402 403 568
1781 2 2 0 247 403 367 568
1782 2 2 0 247 210 366 568
1783 2 2 0 247 366 402 568
1784 2 2 0 247 235 211 569
1785 2 2 0 247 368 403 569
1786 2 2 0 247 403 235 569
1787 2 2 0 247 367 210 568
1788 2 2 0 247 211 368 569
1789 2 2 0 247 234 402 366
1790 2 2 0 248 370 369 404
1791 2 2 0 248 404 405 570
1792 2 2 0 248 370 404 570
1793 2 2 0 248 371 212 570
1794 2 2 0 248 405 371 570
1795 2 2 0 248 211 235 571
1796 2 2 0 248 404 369 571
1797 2 2 0 248 235 404 571
1798 2 2 0 248 212 370 570
1799 2 2 0 248 369 211 571
1800 2 2 0 248 371 405 236
1801 2 2 0 249 372 213 371
1802 2 2 0 249 237 372 236
1803 2 2 0 249 372 371 236
1804 2 2 0 249 371 213 212
1805 2 2 0 250 373 214 213
1806 2 2 0 250 372 373 213
1807 2 2 0 250 238 372 237
1808 2 2 0 250 238 373 372
1809 2 2 0 251 374 215 214
1810 2 2 0 251 373 374 214
1811 2 2 0 251 239 373 238
1812 2 2 0 251 239 374 373
1813 2 2 0 252 375 216 215
1814 2 2 0 252 374 375 215
1815 2 2 0 252 240 374 239
1816 2 2 0 252 240 375 374
1817 2 2 0 253 412 217 193
1818 2 2 0 253 375 240 411
1819 2 2 0 253 376 412 193
1820 2 2 0 253 376 216 572
1821 2 2 0 253 216 375 572
1822 2 2 0 253 375 411 572
1823 2 2 0 253 411 412 572
1824 2 2 0 253 412 376 572
1825 2 2 0 254 241 413 217
1826 2 2 0 254 379 415 242
1827 2 2 0 254 413 377 217
1828 2 2 0 254 414 377 413
1829 2 2 0 254 378 377 414
1830 2 2 0 254 379 218 573
1831 2 2 0 254 218 378 573
1832 2 2 0 254 415 379 573
1833 2 2 0 254 414 415 573
1834 2 2 0 254 378 414 573
1835 2 2 0 255 379 219 218
1836 2 2 0 255 380 219 379
1837 2 2 0 255 243 380 242
1838 2 2 0 255 380 379 242
1839 2 2 0 256 380 220 219
1840 2 2 0 256 381 220 380
1841 2 2 0 256 244 381 243
1842 2 2 0 256 381 380 243
1843 2 2 0 257 382 221 220
1844 2 2 0 257 381 382 220
1845 2 2 0 257 245 381 244
1846 2 2 0 257 245 382 381
1847 2 2 0 258 383 222 221
1848 2 2 0 258 382 383 221
1849 2 2 0 258 246 382 245
1850 2 2 0 258 246 383 382
1851 2 2 0 259 383 416 222
1852 2 2 0 259 385 384 576
1853 2 2 0 259 416 417 574
1854 2 2 0 259 222 416 574
1855 2 2 0 259 223 385 575
1856 2 2 0 259 417 418 576
1857 2 2 0 259 418 247 575
1858 2 2 0 259 417 384 574
1859 2 2 0 259 418 385 576
1860 2 2 0 259 247 223 575
1861 2 2 0 259 385 418 575
1862 2 2 0 259 384 417 576
1863 2 2 0 259 384 222 574
1864 2 2 0 259 416 383 246
1865 2 2 0 260 421 388 224
1866 2 2 0 260 387 386 579
1867 2 2 0 260 420 421 577
1868 2 2 0 260 421 224 577
1869 2 2 0 260 386 223 578
1870 2 2 0 260 419 420 579
1871 2 2 0 260 247 419 578
1872 2 2 0 260 387 420 577
1873 2 2 0 260 386 419 579
1874 2 2 0 260 223 247 578
1875 2 2 0 260 419 386 578
1876 2 2 0 260 420 387 579
1877 2 2 0 260 224 387 577
1878 2 2 0 260 388 421 248
1879 2 2 0 261 388 225 224
1880 2 2 0 261 389 225 388
1881 2 2 0 261 249 389 248
1882 2 2 0 261 389 388 248
1883 2 2 0 262 389 226 225
1884 2 2 0 262 390 226 389
1885 2 2 0 262 250 390 249
1886 2 2 0 262 390 389 249
1887 2 2 0 263 391 227 226
1888 2 2 0 263 390 391 226
1889 2 2 0 263 251 390 250
1890 2 2 0 263 251 391 390
1891 2 2 0 264 392 228 227
1892 2 2 0 264 391 392 227
1893 2 2 0 264 252 391 251
1894 2 2 0 264 252 392 391
1895 2 2 0 265 229 424 253
1896 2 2 0 265 422 392 252
1897 2 2 0 265 229 394 424
1898 2 2 0 265 424 394 423
1899 2 2 0 265 394 393 423
1900 2 2 0 265 228 392 580
1901 2 2 0 265 393 228 580
1902 2 2 0 265 392 422 580
1903 2 2 0 265 422 423 580
1904 2 2 0 265 423 393 580
1905 2 2 0 266 253 425 229
1906 2 2 0 266 397 427 254
1907 2 2 0 266 425 395 229
1908 2 2 0 266 426 395 425
1909 2 2 0 266 395 426 396
1910 2 2 0 266 397 230 581
1911 2 2 0 266 230 396 581
1912 2 2 0 266 427 397 581
1913 2 2 0 266 426 427 581
1914 2 2 0 266 396 426 581
1915 2 2 0 267 397 231 230
1916 2 2 0 267 398 231 397
1917 2 2 0 267 255 398 254
1918 2 2 0 267 398 397 254
1919 2 2 0 268 398 232 231
1920 2 2 0 268 399 232 398
1921 2 2 0 268 256 399 255
1922 2 2 0 268 399 398 255
1923 2 2 0 269 400 233 232
1924 2 2 0 269 399 400 232
1925 2 2 0 269 257 399 256
1926 2 2 0 269 257 400 399
1927 2 2 0 270 401 234 233
1928 2 2 0 270 400 401 233
1929 2 2 0 270 258 400 257
1930 2 2 0 270 258 401 400
1931 2 2 0 271 401 428 234
1932 2 2 0 271 403 402 584
1933 2 2 0 271 428 429 582
1934 2 2 0 271 234 428 582
1935 2 2 0 271 235 403 583
1936 2 2 0 271 429 430 584
1937 2 2 0 271 430 259 583
1938 2 2 0 271 429 402 582
1939 2 2 0 271 430 403 584
1940 2 2 0 271 259 235 583
1941 2 2 0 271 403 430 583
1942 2 2 0 271 402 429 584
1943 2 2 0 271 402 234 582
1944 2 2 0 271 428 401 258
1945 2 2 0 272 433 406 236
1946 2 2 0 272 405 404 587
1947 2 2 0 272 432 433 585
1948 2 2 0 272 433 236 585
1949 2 2 0 272 404 235 586
1950 2 2 0 272 431 432 587
1951 2 2 0 272 259 431 586
1952 2 2 0 272 405 432 585
1953 2 2 0 272 404 431 587
1954 2 2 0 272 235 259 586
1955 2 2 0 272 431 404 586
1956 2 2 0 272 432 405 587
1957 2 2 0 272 236 405 585
1958 2 2 0 272 406 433 260
1959 2 2 0 273 406 237 236
1960 2 2 0 273 407 237 406
1961 2 2 0 273 261 407 260
1962 2 2 0 273 407 406 260
1963 2 2 0 274 407 238 237
1964 2 2 0 274 408 238 407
1965 2 2 0 274 262 408 261
1966 2 2 0 274 408 407 261
1967 2 2 0 275 409 239 238
1968 2 2 0 275 408 409 238
1969 2 2 0 275 263 408 262
1970 2 2 0 275 263 409 408
1971 2 2 0 276 410 240 239
1972 2 2 0 276 409 410 239
1973 2 2 0 276 264 409 263
1974 2 2 0 276 264 410 409
1975 2 2 0 277 217 436 241
1976 2 2 0 277 434 410 264
1977 2 2 0 277 217 412 436
1978 2 2 0 277 436 412 435
1979 2 2 0 277 412 411 435
1980 2 2 0 277 240 410 588
1981 2 2 0 277 411 240 588
1982 2 2 0 277 410 434 588
1983 2 2 0 277 434 435 588
1984 2 2 0 277 435 411 588
1985 2 2 0 278 414 413 437
1986 2 2 0 278 439 415 438
1987 2 2 0 278 413 241 589
1988 2 2 0 278 415 414 438
1989 2 2 0 278 242 439 266
1990 2 2 0 278 415 439 242
1991 2 2 0 278 437 413 589
1992 2 2 0 278 241 265 589
1993 2 2 0 278 265 437 589
1994 2 2 0 278 438 414 437
1995 2 2 0 279 266 243 242
1996 2 2 0 279 267 243 266
1997 2 2 0 280 267 244 243
1998 2 2 0 280 268 244 267
1999 2 2 0 281 268 269 244
2000 2 2 0 281 269 245 244
2001 2 2 0 282 245 270 246
2002 2 2 0 282 269 270 245
2003 2 2 0 283 442 443 591
2004 2 2 0 283 443 271 590
2005 2 2 0 283 270 440 246
2006 2 2 0 283 417 442 591
2007 2 2 0 283 271 247 590
2008 2 2 0 283 418 443 590
2009 2 2 0 283 443 418 591
2010 2 2 0 283 247 418 590
2011 2 2 0 283 418 417 591
2012 2 2 0 283 440 416 246
2013 2 2 0 283 417 416 441
2014 2 2 0 283 416 440 441
2015 2 2 0 283 442 417 441
2016 2 2 0 284 444 445 593
2017 2 2 0 284 271 444 592
2018 2 2 0 284 248 447 272
2019 2 2 0 284 445 420 593
2020 2 2 0 284 247 271 592
2021 2 2 0 284 444 419 592
2022 2 2 0 284 419 444 593
2023 2 2 0 284 419 247 592
2024 2 2 0 284 420 419 593
2025 2 2 0 284 248 421 447
2026 2 2 0 284 421 420 446
2027 2 2 0 284 446 420 445
2028 2 2 0 284 447 421 446
2029 2 2 0 285 272 249 248
2030 2 2 0 285 272 273 249
2031 2 2 0 286 274 250 273
2032 2 2 0 286 273 250 249
2033 2 2 0 287 275 251 250
2034 2 2 0 287 274 275 250
2035 2 2 0 288 276 252 251
2036 2 2 0 288 275 276 251
2037 2 2 0 289 450 424 423
2038 2 2 0 289 449 422 448
2039 2 2 0 289 253 424 594
2040 2 2 0 289 449 423 422
2041 2 2 0 289 276 448 252
2042 2 2 0 289 448 422 252
2043 2 2 0 289 424 450 594
2044 2 2 0 289 277 253 594
2045 2 2 0 289 450 277 594
2046 2 2 0 289 450 423 449
2047 2 2 0 290 426 425 451
2048 2 2 0 290 453 427 452
2049 2 2 0 290 425 253 595
2050 2 2 0 290 427 426 452
2051 2 2 0 290 254 453 278
2052 2 2 0 290 254 427 453
2053 2 2 0 290 451 425 595
2054 2 2 0 290 253 277 595
2055 2 2 0 290 277 451 595
2056 2 2 0 290 452 426 451
2057 2 2 0 291 278 255 254
2058 2 2 0 291 279 255 278
2059 2 2 0 292 279 256 255
2060 2 2 0 292 280 256 279
2061 2 2 0 293 280 281 256
2062 2 2 0 293 281 257 256
2063 2 2 0 294 257 282 258
2064 2 2 0 294 281 282 257
2065 2 2 0 295 456 457 597
2066 2 2 0 295 457 283 596
2067 2 2 0 295 282 454 258
2068 2 2 0 295 429 456 597
2069 2 2 0 295 283 259 596
2070 2 2 0 295 430 457 596
2071 2 2 0 295 457 430 597
2072 2 2 0 295 259 430 596
2073 2 2 0 295 430 429 597
2074 2 2 0 295 454 428 258
2075 2 2 0 295 455 429 428
2076 2 2 0 295 455 428 454
2077 2 2 0 295 456 429 455
2078 2 2 0 296 458 459 599
2079 2 2 0 296 283 458 598
2080 2 2 0 296 260 461 284
2081 2 2 0 296 459 432 599
2082 2 2 0 296 259 283 598
2083 2 2 0 296 458 431 598
2084 2 2 0 296 431 458 599
2085 2 2 0 296 431 259 598
2086 2 2 0 296 432 431 599
2087 2 2 0 296 461 260 433
2088 2 2 0 296 460 433 432
2089 2 2 0 296 459 460 432
2090 2 2 0 296 460 461 433
2091 2 2 0 297 284 261 260
2092 2 2 0 297 284 285 261
2093 2 2 0 298 286 262 285
2094 2 2 0 298 285 262 261
2095 2 2 0 299 287 263 262
2096 2 2 0 299 286 287 262
2097 2 2 0 300 288 264 263
2098 2 2 0 300 287 288 263
2099 2 2 0 301 435 464 436
2100 2 2 0 301 462 463 434
2101 2 2 0 301 241 436 600
2102 2 2 0 301 463 435 434
2103 2 2 0 301 288 462 264
2104 2 2 0 301 462 434 264
2105 2 2 0 301 436 464 600
2106 2 2 0 301 265 241 600
2107 2 2 0 301 464 265 600
2108 2 2 0 301 464 435 463
2109 2 2 0 302 465 437 601
2110 2 2 0 302 265 289 601
2111 2 2 0 302 437 265 601
2112 2 2 0 302 468 266 439
2113 2 2 0 302 289 465 601
2114 2 2 0 302 438 467 439
2115 2 2 0 302 266 468 290
2116 2 2 0 302 438 437 466
2117 2 2 0 302 466 437 465
2118 2 2 0 302 467 438 466
2119 2 2 0 302 467 468 439
2120 2 2 0 303 290 267 266
2121 2 2 0 303 291 267 290
2122 2 2 0 304 292 268 267
2123 2 2 0 304 291 292 267
2124 2 2 0 305 293 269 268
2125 2 2 0 305 292 293 268
2126 2 2 0 306 269 294 270
2127 2 2 0 306 293 294 269
2128 2 2 0 307 443 472 602
2129 2 2 0 307 295 271 602
2130 2 2 0 307 294 469 270
2131 2 2 0 307 469 440 270
2132 2 2 0 307 271 443 602
2133 2 2 0 307 472 295 602
2134 2 2 0 307 470 440 469
2135 2 2 0 307 441 440 470
2136 2 2 0 307 442 441 471
2137 2 2 0 307 471 441 470
2138 2 2 0 307 442 472 443
2139 2 2 0 307 472 442 471
2140 2 2 0 308 473 444 603
2141 2 2 0 308 271 295 603
2142 2 2 0 308 444 271 603
2143 2 2 0 308 272 476 296
2144 2 2 0 308 476 272 447
2145 2 2 0 308 295 473 603
2146 2 2 0 308 475 476 447
2147 2 2 0 308 445 444 473
2148 2 2 0 308 446 445 474
2149 2 2 0 308 474 445 473
2150 2 2 0 308 446 475 447
2151 2 2 0 308 475 446 474
2152 2 2 0 309 296 273 272
2153 2 2 0 309 296 297 273
2154 2 2 0 310 297 274 273
2155 2 2 0 310 298 274 297
2156 2 2 0 311 298 275 274
2157 2 2 0 311 299 275 298
2158 2 2 0 312 300 276 275
2159 2 2 0 312 299 300 275
2160 2 2 0 313 450 480 604
2161 2 2 0 313 301 277 604
2162 2 2 0 313 477 448 276
2163 2 2 0 313 277 450 604
2164 2 2 0 313 480 301 604
2165 2 2 0 313 449 448 478
2166 2 2 0 313 300 477 276
2167 2 2 0 313 478 448 477
2168 2 2 0 313 450 449 479
2169 2 2 0 313 479 449 478
2170 2 2 0 313 480 450 479
2171 2 2 0 314 481 451 605
2172 2 2 0 314 277 301 605
2173 2 2 0 314 451 277 605
2174 2 2 0 314 278 453 484
2175 2 2 0 314 301 481 605
2176 2 2 0 314 453 452 483
2177 2 2 0 314 278 484 302
2178 2 2 0 314 452 451 482
2179 2 2 0 314 482 451 481
2180 2 2 0 314 452 482 483
2181 2 2 0 314 484 453 483
2182 2 2 0 315 302 279 278
2183 2 2 0 315 303 279 302
2184 2 2 0 316 304 280 279
2185 2 2 0 316 303 304 279
2186 2 2 0 317 305 281 280
2187 2 2 0 317 304 305 280
2188 2 2 0 318 281 306 282
2189 2 2 0 318 305 306 281
2190 2 2 0 319 457 488 606
2191 2 2 0 319 307 283 606
2192 2 2 0 319 306 485 282
2193 2 2 0 319 485 454 282
2194 2 2 0 319 283 457 606
2195 2 2 0 319 488 307 606
2196 2 2 0 319 486 454 485
2197 2 2 0 319 455 454 486
2198 2 2 0 319 456 455 487
2199 2 2 0 319 487 455 486
2200 2 2 0 319 457 456 488
2201 2 2 0 319 456 487 488
2202 2 2 0 320 489 458 607
2203 2 2 0 320 283 307 607
2204 2 2 0 320 458 283 607
2205 2 2 0 320 284 492 308
2206 2 2 0 320 284 461 492
2207 2 2 0 320 307 489 607
2208 2 2 0 320 492 461 491
2209 2 2 0 320 459 458 489
2210 2 2 0 320 460 459 490
2211 2 2 0 320 490 459 489
2212 2 2 0 320 461 460 491
2213 2 2 0 320 460 490 491
2214 2 2 0 321 308 285 284
2215 2 2 0 321 308 309 285
2216 2 2 0 322 309 286 285
2217 2 2 0 322 310 286 309
2218 2 2 0 323 310 287 286
2219 2 2 0 323 311 287 310
2220 2 2 0 324 312 288 287
2221 2 2 0 324 311 312 287
2222 2 2 0 325 464 496 608
2223 2 2 0 325 289 265 608
2224 2 2 0 325 265 464 608
2225 2 2 0 325 493 462 288
2226 2 2 0 325 496 289 608
2227 2 2 0 325 463 462 494
2228 2 2 0 325 312 493 288
2229 2 2 0 325 462 493 494
2230 2 2 0 325 464 463 495
2231 2 2 0 325 495 463 494
2232 2 2 0 325 464 495 496
$EndElements
