$MeshFormat
2.2 0 8
$EndMeshFormat
$PhysicalNames
4
2 1 "SD1G0"
2 2 "SD1D1001"
2 3 "SD2G0"
2 4 "I1-2"
$EndPhysicalNames
$Nodes
699
1 12.7 0 0
2 9.492000000000001 8.436999999999999 0
3 0 12.7 0
4 12.952 0 4.419
5 9.785 8.698 4.419
6 0 12.856 4.419
7 14.572 0 12.341
8 11.602 10.313 12.341
9 0 13.892 12.341
10 19.144 0 24.471
11 16.377 14.558 24.471
12 0 17.017 24.471
13 28.151 0 41.997
14 25.17 22.373 41.997
15 0 23.666 41.997
16 42.069 0 64.604
17 38.17 33.929 64.604
18 0 34.573 64.604
19 61.782 0 90.913
20 56.181 49.939 90.913
21 0 50.722 90.913
22 89.595 0 117.141
23 81.908 72.807 117.141
24 0 74.248 117.141
25 126.159 0 138.882
26 116.725 103.756 138.882
27 0 105.712 138.882
28 168.534 0 155.183
29 157.765 140.236 155.183
30 0 142.541 155.183
31 208.495 0 165.927
32 196.398 174.577 165.927
33 0 177.654 165.927
34 241.407 0 172.367
35 227.503 202.225 172.367
36 0 207.085 172.367
37 262.864 0 175.254
38 246.802 219.381 175.254
39 0 226.822 175.254
40 0 0 175.254
41 0 0 0
42 0 0 5.254
43 263 0 175.254
44 273 0 165.254
45 273 0 15.254
46 263 0 5.254
47 0 227 175.254
48 0 237 165.254
49 0 237 15.254
50 0 227 5.254
51 263 227 175.254
52 273 227 165.254
53 273 227 15.254
54 263 227 5.254
55 263 237 165.254
56 263 237 15.254
57 11.15222161137442 4.597930834901235 0
58 5.27462254625037 10.54584373880342 0
59 11.44553728430707 4.746573748516564 4.419
60 5.384621318960936 10.72780584516495 4.419
61 13.28341263660693 5.671275219377129 12.341
62 6.168547045525421 11.87539522465999 12.341
63 18.22924835848079 8.106898441169829 24.471
64 8.523375750185174 15.15697520375245 24.471
65 13.88984784912517 12.34690871613327 18.15285223243735
66 16.76258436988479 0 18.15285223243712
67 0 15.38928262378065 18.15285223246699
68 27.55662757090077 12.5563548138785 41.997
69 13.0456985909318 21.84246395922161 41.997
70 20.54548383964 18.26284490012358 32.7795235725612
71 23.41393448693717 0 32.77952357256143
72 0 20.16908109290497 32.77952357260528
73 41.73068834568704 12.72379556073611 64.604
74 41.38393490604975 25.44735934124337 64.60399999999998
75 26.37248435115484 31.74546678910036 64.604
76 13.18353464186876 33.13323156742992 64.604
77 31.31679336003071 27.83702646680884 52.68627365309341
78 34.73185153729705 0 52.68627365308767
79 0 28.82315962908644 52.68627365313625
80 61.31885421916089 18.69522119480462 90.913
81 60.84320965263906 37.39011912069397 90.913
82 38.79866642676276 46.929580282285 90.913
83 19.39611120032762 48.79183997112494 90.913
84 46.71158458992568 41.52162502274777 77.08085020134109
85 51.41774560108831 0 77.08085020134085
86 0 42.23154475284267 77.080850201408
87 89.1349900502282 20.30429990060321 117.141
88 88.69291089076152 40.60900585208586 117.141
89 88.17135073420947 60.91176611420529 117.141
90 63.62773816269671 69.41162467536226 117.141
91 42.40947729002448 70.8994896630529 117.141
92 21.20605514637013 72.59060609136702 117.141
93 68.48299037311617 60.87389003196721 103.4545557004738
94 75.08146197564525 0 103.4545557004719
95 0 61.97152872544243 103.45455570054
96 125.7706898319405 28.68192941439723 138.882
97 125.4101380351954 57.36423379211975 138.882
98 124.9304332927442 86.04469683962246 138.882
99 97.1147976463662 101.5949520312867 138.882
100 72.83058823840911 102.4841988961768 138.882
101 48.55326542633244 103.5497784427462 138.882
102 24.27742776712465 104.6488711465806 138.882
103 98.81512220935764 87.83582285255505 127.6984214881709
104 107.3504647575338 0 127.6984214881726
105 0 89.52690675078397 127.6984215506228
106 168.3983420603502 30.80247239152571 155.183
107 168.3100493658049 61.60513250451944 155.183
108 168.1814038805543 92.40763956408287 155.183
109 167.8384972465045 123.2082672574788 155.183
110 138.0875417923915 140.6773744306327 155.183
111 110.4690538188322 140.9681850124114 155.183
112 82.8515789068116 141.3463364976257 155.183
113 55.23443619298418 141.7481592449808 155.183
114 27.61733103633701 142.1525551847497 155.183
115 136.794347917706 121.5954203712942 146.8535019592233
116 146.8811885480551 0 146.8535019592176
117 0 123.7220880717579 146.8535019592638
118 208.4844611365629 31.82963085125823 165.927
119 208.5301371329417 63.65924515707733 165.927
120 208.5664663240289 95.48887023622902 165.927
121 208.5183022282856 127.3184524312226 165.927
122 208.1500147168211 159.1453993811466 165.927
123 178.732244702241 177.9849209342472 165.927
124 148.9435138175565 177.9438009204774 165.927
125 119.1548014075155 177.8895777050021 165.927
126 89.36610053158137 177.8310793155458 165.927
127 59.57740158538898 177.7711393073044 165.927
128 29.78870164508493 177.7114780387502 165.927
129 176.8609666093982 157.2104671481206 160.4936687353137
130 188.2863858276346 0 160.4936687353196
131 0 159.8970602479659 160.4936687353443
132 241.3407748037946 31.54019634263729 172.367
133 241.3323284836559 63.08047212067198 172.367
134 241.3306049645897 94.62074999768734 172.367
135 241.2891090125095 126.16099625887 172.367
136 241.1293530286179 157.7008233916301 172.367
137 240.5364547261837 189.2343855973298 172.367
138 213.0565891472051 208.1271549004447 172.367
139 182.6195857155327 208.0969044780527 172.367
140 152.182815555688 207.9621618162419 172.367
141 121.7462008317546 207.7955669126634 172.367
142 91.30966250486372 207.6157761209396 172.367
143 60.87314665735303 207.4321475438971 172.367
144 30.436608505164 207.2521410329252 172.367
145 211.8252597615973 188.2896789226376 169.1210701772926
146 262.5967528576041 34.18912301542874 175.254
147 262.3923098320921 68.37869053872053 175.254
148 262.1951893765835 102.5683025780521 175.254
149 261.9548762231743 136.7576317163822 175.254
150 261.5861305102492 170.9457763564224 175.254
151 260.7468939530555 205.1244051735815 175.254
152 232.0987657505289 226.7440016950678 175.254
153 198.9423450864927 226.9321403554713 175.254
154 165.785295781504 226.9632462108744 175.254
155 132.6282242746447 226.9478638100927 175.254
156 99.47117057016088 226.9132303457616 175.254
157 66.31412113183509 226.8730083957719 175.254
158 33.15706570502014 226.8380939548716 175.254
159 230.0060000000486 0 175.254
160 197.1480000001694 0 175.254
161 164.2900000002845 0 175.254
162 131.4320000003664 0 175.254
163 98.57400000027619 0 175.254
164 65.71600000018597 0 175.254
165 32.85800000009579 0 175.254
166 0 32.40314285707653 175.254
167 0 64.80628571411711 175.254
168 0 97.20942857116086 175.254
169 0 129.6125714283015 175.254
170 0 162.0157142855455 175.254
171 0 194.4188571427561 175.254
172 6.349999999983785 0 0
173 0 6.350000000015788 0
174 270.0710678214817 0 172.3250678022492
175 273 0 140.2539999999824
176 273 0 115.2539999999648
177 273 0 90.25400000004996
178 273 0 65.25400000003515
179 273 0 40.25400000001757
180 270.0710677919001 0 8.182932168169106
181 239.0909090910312 0 5.254
182 215.1818181820624 0 5.254
183 191.2727272730937 0 5.254
184 167.3636363641249 0 5.254
185 143.4545454551561 0 5.254
186 119.5454545460581 0 5.254
187 95.63636363683094 0 5.254
188 71.72727272760378 0 5.254
189 47.81818181837659 0 5.254
190 23.90909090914943 0 5.254
191 0 234.0710678290617 172.3250677946692
192 0 237 140.2539999999824
193 0 237 115.2539999999648
194 0 237 90.25400000004996
195 0 237 65.25400000003515
196 0 237 40.25400000001757
197 0 234.0710677833813 8.182932159650331
198 0 204.3000000001421 5.254
199 0 181.6000000002842 5.254
200 0 158.9000000004263 5.254
201 0 136.2000000005684 5.254
202 0 113.5000000006162 5.254
203 0 90.80000000056847 5.254
204 0 68.10000000042635 5.254
205 0 45.40000000028425 5.254
206 0 22.7000000001421 5.254
207 23.90909090900988 227 175.254
208 47.81818181800585 227 175.254
209 71.72727272700726 227 175.254
210 95.63636363605434 227 175.254
211 119.5454545451014 227 175.254
212 143.4545454541964 227 175.254
213 167.3636363633727 227 175.254
214 191.2727272725489 227 175.254
215 215.1818181817252 227 175.254
216 239.0909090909014 227 175.254
217 270.0710678214817 227 172.3250678022492
218 273 227 140.2539999999824
219 273 227 115.2539999999648
220 273 227 90.25400000004996
221 273 227 65.25400000003515
222 273 227 40.25400000001757
223 270.0710677919001 227 8.182932168169106
224 239.0909090910312 227 5.254
225 215.1818181820624 227 5.254
226 191.2727272730937 227 5.254
227 167.3636363641249 227 5.254
228 143.4545454551561 227 5.254
229 119.5454545460581 227 5.254
230 95.63636363683094 227 5.254
231 71.72727272760378 227 5.254
232 47.81818181837659 227 5.254
233 23.90909090914943 227 5.254
234 23.90909090900988 237 165.254
235 47.81818181800585 237 165.254
236 71.72727272700726 237 165.254
237 95.63636363605434 237 165.254
238 119.5454545451014 237 165.254
239 143.4545454541964 237 165.254
240 167.3636363633727 237 165.254
241 191.2727272725489 237 165.254
242 215.1818181817252 237 165.254
243 239.0909090909014 237 165.254
244 263 237 140.2539999999824
245 263 237 115.2539999999648
246 263 237 90.25400000004996
247 263 237 65.25400000003515
248 263 237 40.25400000001757
249 239.0909090910312 237 15.254
250 215.1818181820624 237 15.254
251 191.2727272730937 237 15.254
252 167.3636363641249 237 15.254
253 143.4545454551561 237 15.254
254 119.5454545460581 237 15.254
255 95.63636363683094 237 15.254
256 71.72727272760378 237 15.254
257 47.81818181837659 237 15.254
258 23.90909090914943 237 15.254
259 263 234.0710678290617 172.3250677946692
260 270.0710677943634 234.0710678293676 165.254
261 270.0710677943634 234.0710678293676 15.254
262 263 234.0710678253504 8.182932201619423
263 263 22.69999999991173 175.254
264 263 45.39999999980453 175.254
265 263 68.09999999969901 175.254
266 263 90.79999999965398 175.254
267 263 113.4999999996089 175.254
268 263 136.1999999996117 175.254
269 263 158.8999999997088 175.254
270 263 181.5999999998058 175.254
271 263 204.2999999999029 175.254
272 273 22.69999999991173 165.254
273 273 45.39999999980453 165.254
274 273 68.09999999969901 165.254
275 273 90.79999999965398 165.254
276 273 113.4999999996089 165.254
277 273 136.1999999996117 165.254
278 273 158.8999999997088 165.254
279 273 181.5999999998058 165.254
280 273 204.2999999999029 165.254
281 273 22.69999999991173 15.254
282 273 45.39999999980453 15.254
283 273 68.09999999969901 15.254
284 273 90.79999999965398 15.254
285 273 113.4999999996089 15.254
286 273 136.1999999996117 15.254
287 273 158.8999999997088 15.254
288 273 181.5999999998058 15.254
289 273 204.2999999999029 15.254
290 263 22.69999999991173 5.254
291 263 45.39999999980453 5.254
292 263 68.09999999969901 5.254
293 263 90.79999999965398 5.254
294 263 113.4999999996089 5.254
295 263 136.1999999996117 5.254
296 263 158.8999999997088 5.254
297 263 181.5999999998058 5.254
298 263 204.2999999999029 5.254
299 10.64084504932443 6.670539701638471 2.207769962298777
300 12.47871502972995 4.849845373684555 8.450342208600691
301 2.807024039657333 12.36665561267391 8.379999999999997
302 14.85565431894761 5.845390190543351 15.9511350998511
303 16.8808136178275 5.777100182466332 20.6283256581212
304 16.66317375779612 10.48102910858442 21.61105889110548
305 9.93862927827788 12.95312128351689 18.76189144743645
306 4.398183594697121 14.33318669749898 18.54728704283741
307 24.21136463983325 9.135659863760175 35.49500499768329
308 20.92461905707391 8.492601459833713 29.39350102998265
309 24.86855147928659 15.89494795165844 37.46710525855272
310 5.899878580587327 19.18721396635364 32.87012388195033
311 13.32726817278383 17.42917709739006 31.76663020990129
312 36.86493806280508 20.12199341801688 57.18722715476838
313 37.59062791628104 8.280248466069899 57.75393944228129
314 32.86566021169842 10.02527992871583 50.26922756736323
315 31.40267252252037 19.10694985527831 48.51454721237722
316 9.241432786735851 26.22028728310046 49.70562169378274
317 11.62774855272041 30.11502005473064 58.14850148394467
318 20.24629392281564 26.17327432559161 52.29542131089764
319 55.70394891511253 33.57347620764818 83.9392657215931
320 50.57325339703119 20.55070779999332 76.6512846724318
321 56.38629050766401 8.260976106946885 83.99692510067044
322 30.80137907302646 40.10667890802411 78.74268774254469
323 16.48513581551007 39.86493633196162 76.02200026644418
324 72.62723747479238 45.4824092784641 102.1667693641209
325 77.67144632066748 13.8747206849966 106.2071234169124
326 75.27559307452078 29.72887263680386 104.2872421576917
327 80.6394663660713 55.53081626313897 109.9439066214897
328 14.45918047916246 59.15583647348461 101.7299113584513
329 30.28053661242006 58.68480307930466 102.7729725855737
330 49.54125883129056 58.97572632685693 104.8017039286963
331 104.2484409355129 65.10029468707586 126.5524166596746
332 106.2928447617375 41.39291306348346 127.4894426270535
333 114.3561670465441 79.31214016365738 132.6348916730126
334 110.7079843393427 17.8779974546848 129.8752335971624
335 37.8834493920696 86.86390836782036 127.4115365452191
336 62.3695891269461 86.17815622893829 127.8963962495291
337 16.81060493430985 86.04458780918593 125.9931092866034
338 85.55963917728916 90.56208450198582 131.4377274205759
339 155.4997005132804 115.672287347485 150.5245392301406
340 142.2446950344012 99.68429900304704 145.4524690811517
341 147.3612254934939 20.3211745565872 147.1062686980911
342 145.3940400395742 73.6990883626971 146.5085057321373
343 146.977593629616 49.75984403368052 147.0382638258084
344 13.99566065931684 124.0083165674049 147.1404558777283
345 32.16192907592242 120.0947466273196 145.6632356882997
346 94.26112420494177 120.4886863312716 146.5716390685155
347 69.94379970573438 122.1631036773705 147.0024625981223
348 118.2081698589902 124.9167377796309 148.5957365396394
349 46.6391069292233 125.5750233841995 148.1872227636449
350 195.6656645092905 150.9364704876983 162.6200026923961
351 183.7738227230872 134.4036096228654 159.4135675718927
352 188.4597169859463 75.00477978765586 160.564181675774
353 188.215986338573 107.0464241305634 160.5183070274122
354 188.5045311776105 20.72615294912171 160.5670203972829
355 187.8134680318225 50.082621521448 160.3880733387944
356 70.89947382587684 159.9477005603846 160.6207946430055
357 44.50940543871755 160.0628836169418 160.6137711146594
358 17.14567760416178 160.1699597508053 160.6032570783153
359 156.7148184174185 160.1855416816702 160.8014630544838
360 136.3715533311827 162.6276564107511 161.4876580692228
361 119.849966982916 156.4461950926928 159.6773290418371
362 97.76581944487532 159.6884764745945 160.5855797386528
363 223.2036877356866 172.4187926384919 168.9142285673722
364 224.9281583973872 110.7767338886907 169.1454511760211
365 224.7440048653182 142.5456925111745 169.129933420041
366 224.9267618426892 79.97887166204167 169.1444954161553
367 224.9070759624776 20.51217956320702 169.1455478124525
368 224.9043368565706 49.01689372187786 169.1445521085338
369 13.76590553107553 192.4210840604379 169.147
370 195.8427087141824 193.0601161254784 169.147
371 110.5798994711686 111.3153826282662 175.254
372 183.8828138768023 77.97327667468159 175.254
373 182.2449964522541 156.4739326715848 175.254
374 61.58445912757698 60.24838712403391 175.254
375 62.11092788491045 162.9668450668018 175.254
376 220.2980932777607 184.8171476576196 175.254
377 129.6580953250428 54.18631913657852 175.254
378 126.5908573635282 171.596903158657 175.254
379 47.87469642926083 113.4109999997312 175.254
380 214.8507382545829 116.3428238013706 175.254
381 217.7979923399974 43.31980303906579 175.254
382 156.2348878429329 115.1001891050613 175.254
383 184.3503574907008 191.6677036348307 175.254
384 165.6736690110937 40.40609642789882 175.254
385 94.88764664455003 39.21593693092443 175.254
386 39.59313972478876 36.93806662451944 175.254
387 39.45464373836977 189.7542989600242 175.254
388 93.42057460033821 187.0584938535881 175.254
389 232.5335582680319 145.0579783256704 175.254
390 32.74873923987236 82.48776970048965 175.254
391 30.91152795331407 142.6338870908303 175.254
392 229.0814778751336 81.09650047833347 175.254
393 101.2617343451944 75.28768622058756 175.254
394 230.2280717114258 204.6463973371594 175.254
395 81.09255682573263 129.988578816619 175.254
396 148.4289408263148 198.4627339766107 175.254
397 153.0432646226173 143.1330540413161 175.254
398 136.2351306318481 91.13884083398098 175.254
399 72.52368090646762 95.45646741495459 175.254
400 96.84960797251576 157.201342285391 175.254
401 140.4101880164567 24.89097672044092 175.254
402 245.7573307691029 187.6567271838008 175.254
403 66.50350472320234 27.82653185451262 175.254
404 120.1079535269973 202.195845028942 175.254
405 183.1182447057999 122.1126338569286 175.254
406 192.571860488714 27.31256423523177 175.254
407 160.4857607100881 68.46291735158005 175.254
408 208.3970488246572 204.5994284035967 175.254
409 119.9099774914148 139.9792170878706 175.254
410 64.25352227051489 199.0635644043801 175.254
411 206.2446734790581 163.1151279028164 175.254
412 160.0848188796582 172.3974199055078 175.254
413 21.6008243780127 113.2870682790211 175.254
414 238.3119592329989 24.53888866690036 175.254
415 115.7928094333771 22.11340068307529 175.254
416 245.4988749052405 204.1580645375197 175.254
417 240.5024217314203 117.2656052418847 175.254
418 242.2600023225837 51.76635465919958 175.254
419 56.16030827342469 137.2391427226568 175.254
420 193.3096506931167 56.1581307529104 175.254
421 202.0146281402341 92.41804982227697 175.254
422 206.0000743855701 139.4475523896683 175.254
423 217.4165578432762 215.7304919478239 175.254
424 23.40451681140478 57.81581459563179 175.254
425 23.3951945582935 168.9987423036166 175.254
426 20.72900370224374 22.91223120656704 175.254
427 20.75035242891763 203.9639195921214 175.254
428 233.2839572608405 170.318551485266 175.254
429 170.3285776512842 94.53431794075158 175.254
430 215.1671624123856 19.03425118823958 175.254
431 135.2006320119963 120.133336739299 175.254
432 5.312918215883206 5.099453869560237 0
433 269.2400864172484 12.45701922383111 173.0681743969066
434 269.240089122088 214.5429758332745 173.0681722369293
435 273 80.12575309937239 90.531724312644
436 273 153.2249999998387 88.82430000016944
437 273 117.2743161455284 120.2240612579226
438 273 115.7946103645131 61.52510310563376
439 273 42.55792114340775 122.1553045899333
440 273 46.84327786721295 54.69029128792467
441 273 185.1069225394439 124.6752309705226
442 273 185.2961994956109 58.78907530594583
443 273 81.20693379037023 129.2337591827027
444 273 83.44498148340118 52.5452802687719
445 273 149.1654068430171 50.37425157402421
446 273 149.6174127194046 131.344888615516
447 273 194.5206743061406 89.05185115932576
448 273 32.29741716567052 90.254
449 273 107.0211833564922 86.91702262474365
450 273 103.5685129907108 141.3861683632544
451 273 26.56040312047588 138.9429539666225
452 273 26.56040312047587 41.56504603337753
453 273 103.4880383806217 38.94294595123561
454 273 59.06990922768021 143.2479615826924
455 273 57.07869459756103 35.75230085112257
456 273 201.2234014250389 139.6546484939239
457 273 168.8541892276651 37.74860784783808
458 273 128.6409689322817 39.10813983364218
459 273 169.6826159239731 143.7436124212605
460 273 58.16125922240982 98.23041145721133
461 273 201.7535073663431 40.37201531137024
462 273 128.2786820512067 142.5105260427131
463 273 93.63626327988123 70.8468539384064
464 273 139.4857550337698 109.071951167389
465 273 95.09034896542519 109.0840138861322
466 273 131.5116861707861 83.22679284933891
467 273 67.19437307892287 70.41078515527695
468 273 163.6548339107447 109.9849922928541
469 273 163.1116819868072 66.96232411876987
470 273 23.15366363627957 111.8036782235097
471 273 24.17309560023088 67.86007126440198
472 273 204.4794920909453 108.8949625060081
473 273 204.4012676337898 69.4705321578882
474 273 75.42829275731781 110.4602838325653
475 273 79.44999999967649 148.9892272181533
476 273 173.4643341506596 86.08907478453767
477 273 78.60568012512212 33.21327707042737
478 273 148.3521130004569 31.54779985110089
479 273 46.94055964270405 77.14576841900256
480 273 148.0529296624769 149.8734254654773
481 273 134.788726938939 61.71480487585652
482 273 62.9284414229021 122.897037775608
483 273 118.0766579344004 101.7047683571053
484 273 183.3116410582236 103.5057033390815
485 273 133.6640414874774 125.7878567708852
486 273 186.7686034065679 31.75107527478023
487 273 40.71308678999171 31.798428562041
488 273 40.71308678999166 148.709571437959
489 273 65.27455198485322 51.3181462731495
490 273 13.55332376601617 126.7922483546749
491 273 13.55332376601617 53.71575164532514
492 273 100.6627991808981 124.623204614641
493 273 187.177952733346 149.2089085923129
494 273 210.9702561115062 126.0400067731384
495 273 99.40067393138139 55.80158045100508
496 273 210.2665323686609 54.59123641411298
497 273 167.0154462733916 127.4371810750383
498 273 13.81891428491592 150.5122258292578
499 273 13.8189142849159 29.9957741707422
500 273 215.6499999999514 152.7539999999913
501 273 215.6499999999514 27.75400000000877
502 273 146.9903913555326 72.34289974482104
503 271.0499094494983 214.6386561965428 9.321129037735924
504 271.0500259272407 12.41718382746759 9.321287081717985
505 146.6185375278143 113.3802131625884 5.254
506 75.66107205357373 146.5487676670435 5.254
507 73.63293367055292 73.8310380124646 5.254
508 194.860880249649 64.3832506388645 5.254
509 194.6638587129067 160.8934987782895 5.254
510 131.4651302411628 53.20815258840163 5.254
511 134.0928577187402 174.4189310670776 5.254
512 216.6309537228141 110.7517121548346 5.254
513 46.93831032752186 112.4535334423815 5.254
514 43.40859567567236 181.9485255149928 5.254
515 102.8736206917872 110.0313741530241 5.254
516 40.39728630430636 40.59700649487795 5.254
517 92.25045095077834 187.6126101201396 5.254
518 164.6694113214476 40.67399769700911 5.254
519 226.9120888996375 41.27099502281774 5.254
520 227.0269020055397 185.7852660810242 5.254
521 92.24485609871256 40.56576884792658 5.254
522 165.0447321572075 186.817470849087 5.254
523 34.40610208579471 77.89727479732773 5.254
524 35.72806379339324 147.309411468754 5.254
525 158.7681191192403 77.16818221304069 5.254
526 161.4983602777806 148.626449114788 5.254
527 229.4005322898153 79.44999999967649 5.254
528 228.0409230035806 146.2664823451698 5.254
529 111.6668227232173 142.4048225473859 5.254
530 182.5161390857039 102.9998645889995 5.254
531 105.1825593939122 77.31659290470077 5.254
532 193.5076089669044 26.84760885125966 5.254
533 131.5000000006071 27.70354752209705 5.254
534 193.8253060261663 200.30096762203 5.254
535 138.9167131246731 92.21502248079599 5.254
536 131.5488424191527 200.1065156154106 5.254
537 75.59621474617269 118.197639638642 5.254
538 191.8387295443798 134.8049037322712 5.254
539 65.4872875255528 31.27650846359854 5.254
540 68.92047830359554 197.0411627178936 5.254
541 27.76324840127668 200.9148842613066 5.254
542 238.1937850467 104.0793229137832 5.254
543 23.3227989221678 101.3555711658434 5.254
544 21.88969707265635 167.915797931771 5.254
545 135.6457783733356 135.8974600764134 5.254
546 70.85424803916668 172.5652505104282 5.254
547 21.25168531121334 58.20105281640137 5.254
548 25.17990868902962 25.27979788012063 5.254
549 241.1687710517199 169.6078905230122 5.254
550 241.3355274863135 57.58506027729281 5.254
551 205.2647421480641 88.9325377001495 5.254
552 56.69127467368141 135.1908235966966 5.254
553 21.86899801471225 126.1706944481162 5.254
554 63.94869447434545 93.21363224602661 5.254
555 96.51874438714964 160.7149871039385 5.254
556 107.671314638559 205.630548782144 5.254
557 244.2389017782766 128.7365744472385 5.254
558 124.8884797745408 111.6864975700683 5.254
559 65.04117883495383 53.7417795458999 5.254
560 107.930240626799 21.37966288662242 5.254
561 154.7193536367845 206.1464569666635 5.254
562 88.67441837598561 90.91918063900523 5.254
563 240.3771337372031 22.58655735911799 5.254
564 240.3771337372145 204.413442640893 5.254
565 169.6045689244892 124.6824122782008 5.254
566 154.8911131073217 21.33008443773836 5.254
567 218.0146480139576 166.964500733188 5.254
568 218.014648013698 60.03549926656389 5.254
569 54.26181264359271 157.482194345693 5.254
570 173.4469325483015 166.2102144492151 5.254
571 173.5344811946711 61.16427241902538 5.254
572 152.8036084895668 57.29100359412126 5.254
573 92.88521023377542 131.5936358882336 5.254
574 47.7874502309167 206.5043381540324 5.254
575 211.7595320379677 133.3545138568037 5.254
576 45.87346324246773 20.78458168676527 5.254
577 179.5363828197529 82.1527240926342 5.254
578 113.0560488978128 181.4532191658203 5.254
579 175.4491841184642 20.29106935944488 5.254
580 176.3687136218315 207.2941155895768 5.254
581 90.28097454556504 62.88027828784966 5.254
582 154.0019945613127 170.4481202678136 5.254
583 82.36575248182595 17.73478377047139 5.254
584 114.4944467484677 40.44777604127287 5.254
585 53.75164418306944 75.29662262818729 5.254
586 214.9533361034319 20.06052219624104 5.254
587 87.2411760514735 208.8568643240355 5.254
588 215.2031963346867 207.0266079527425 5.254
589 15.56238633699206 79.45000000049738 5.254
590 162.2739351211891 98.26823699572567 5.254
591 15.78617255902931 147.3708434072329 5.254
592 205.5691127214383 183.7524278423725 5.254
593 205.4915417185418 42.97904681369333 5.254
594 247.5400893096935 79.73207991719926 5.254
595 247.8897191667154 147.9421894629482 5.254
596 45.87919913463405 93.05820306635208 5.254
597 147.0658526320212 40.04135716787349 5.254
598 179.5701319847308 147.7035342406509 5.254
599 114.7800211020851 93.73567290785105 5.254
600 146.9070999443135 188.5714793049138 5.254
601 141.3968800359584 157.0690460931959 5.254
602 122.0628553560356 158.6597443423052 5.254
603 40.30666170232719 130.2811157389871 5.254
604 246.0514109864268 187.4166564786949 5.254
605 246.0514109866069 39.58334352103261 5.254
606 109.3459638246319 59.03718332540538 5.254
607 184.6419277974963 43.97375323471402 5.254
608 184.819775964642 184.2114491884285 5.254
609 140.9198698014095 70.76243922447338 5.254
610 222.7927139402913 95.74931723593849 5.254
611 16.58962118441348 40.34537777255769 5.254
612 196.2691109105697 115.9209907185432 5.254
613 122.6457780324044 73.92983524600733 5.254
614 16.55062790428957 186.2132644829514 5.254
615 41.86600656818324 60.72786476431841 5.254
616 15.06637684332569 212.3724202834166 5.254
617 110.4962078275494 124.859242639737 5.254
618 39.18915908243968 165.3536182624548 5.254
619 209.4069992285176 149.3978372404481 5.254
620 13.69694495864241 13.1852065261746 5.254
621 226.4545752806506 124.7287841388467 5.254
622 61.16849427545669 13.1867624246808 5.254
623 13.12749183463916 232.7416834904612 173.4413726368942
624 249.8725081032791 232.7416834385437 173.4413726733032
625 270.7742384354688 231.4475395968784 169.7015395762914
626 271.208023423077 232.7121232029972 28.98529695851676
627 271.2080233577286 232.7121232968993 151.5227043951542
628 13.12749188372572 235.1873728796359 9.512316855677019
629 249.8725081931419 232.7416836999356 7.066627510007113
630 176.1368786600513 237 91.54465860407581
631 84.13905286507412 237 91.43791820268748
632 133.7746193189912 237 107.1571115660802
633 131.5000000004022 237 55.78806970707957
634 43.91497234524043 237 121.1923266607965
635 219.0850276547959 237 59.31567333917798
636 217.5176287150431 237 123.0787249269211
637 45.48237128500586 237 57.42927507309997
638 179.3181818186092 237 51.80125895315553
639 83.68181818153079 237 128.7067410468528
640 177.0998083605215 237 125.9643255581579
641 85.75795810858389 237 53.95946007642071
642 231.0991417138227 237 90.25399999999887
643 31.90085828616558 237 90.25400000000134
644 107.2038830069322 237 88.64646288180381
645 152.0802223160598 237 91.86808859909229
646 108.1198079670554 237 136.5557168886247
647 152.142194039567 237 132.0373971029494
648 107.3069385252548 237 38.87016946395392
649 155.9896528936993 237 38.56185501781709
650 27.3102766897531 237 138.0683370368868
651 235.6897233102714 237 42.43966296308423
652 235.6897233102656 237 138.0683370368925
653 27.31027668975958 237 42.43966296313847
654 202.6884013207757 237 141.2911675907466
655 201.1441082001816 237 38.02161522429594
656 61.85589179989975 237 142.4863847756914
657 60.31159867933464 237 39.21683240928287
658 58.66885888061739 237 97.23125606556204
659 204.0531749485108 237 83.52925177183046
660 102.7164306390819 237 113.1734405415725
661 161.2923210415589 237 109.3650668507412
662 159.4467335674649 237 67.28729608390358
663 106.9681856648639 237 65.62873161744147
664 194.0102085032213 237 109.4803705236344
665 67.91541587481326 237 70.65241010988902
666 23.59953444316738 237 112.5145209677556
667 239.4153494002944 237 112.1820920223744
668 239.4004655568487 237 67.99347903226894
669 23.58465059971199 237 68.32590797763457
670 131.5593182841141 237 32.74561883777012
671 130.6627244391005 237 147.8645254907647
672 78.53055276320941 237 110.886218203341
673 185.2958339448356 237 70.40628417228935
674 179.3181818186092 237 31.5724738627668
675 88.10201056702087 237 148.5195405986993
676 176.7728389062096 237 148.0042450411281
677 83.85171911272181 237 31.91446312191989
678 131.6678268602072 237 80.76848492279071
679 219.9554031646411 237 147.5269725424106
680 43.04459683542828 237 32.98102745762012
681 43.04459683514915 237 147.5269725425304
682 219.9554031649058 237 32.98102745744442
683 217.2191006561785 237 103.7048878489519
684 45.51043098526281 237 76.77856984523737
685 87.73573978245268 237 73.01469201322013
686 176.9592039735738 237 108.6686666098492
687 198.906847392812 237 58.07981872194574
688 64.13312494958129 237 122.5037651128066
689 14.54473411274211 237 150.2768377559418
690 248.4552658872817 237 30.23116224405083
691 248.4552658872659 237 150.2768377559827
692 14.54473411275927 237 30.23116224402234
693 13.3283455087438 237 127.0523612478298
694 249.6716544912517 237 127.0523612478157
695 249.6716544912491 237 53.45563875217962
696 13.32834550874104 237 53.45563875217518
697 108.4132722308665 237 152.6895565956177
698 154.7305689351645 237 152.2596012106951
699 126.9005824420632 237 128.7643931082889
$EndNodes
$Elements
1309
1 2 2 1 1 1 4 57
2 2 2 1 1 2 299 5
3 2 2 1 1 57 4 59
4 2 2 1 1 59 299 57
5 2 2 1 1 299 2 57
6 2 2 1 1 299 59 5
7 2 2 1 2 58 2 5
8 2 2 1 2 6 3 60
9 2 2 1 2 60 58 5
10 2 2 1 2 60 3 58
11 2 2 1 3 61 8 300
12 2 2 1 3 8 5 300
13 2 2 1 3 59 4 300
14 2 2 1 3 4 7 300
15 2 2 1 3 59 300 5
16 2 2 1 3 61 300 7
17 2 2 1 4 60 5 62
18 2 2 1 4 301 9 6
19 2 2 1 4 62 5 8
20 2 2 1 4 301 60 62
21 2 2 1 4 9 301 62
22 2 2 1 4 60 301 6
23 2 2 1 5 65 8 302
24 2 2 1 5 8 61 302
25 2 2 1 5 66 10 303
26 2 2 1 5 303 10 63
27 2 2 1 5 65 302 303
28 2 2 1 5 303 304 65
29 2 2 1 5 302 66 303
30 2 2 1 5 304 303 63
31 2 2 1 5 11 304 63
32 2 2 1 5 302 61 7
33 2 2 1 5 66 302 7
34 2 2 1 5 304 11 65
35 2 2 1 6 8 65 305
36 2 2 1 6 305 306 62
37 2 2 1 6 12 67 306
38 2 2 1 6 12 306 64
39 2 2 1 6 65 11 305
40 2 2 1 6 305 11 64
41 2 2 1 6 8 305 62
42 2 2 1 6 306 67 9
43 2 2 1 6 62 306 9
44 2 2 1 6 306 305 64
45 2 2 1 7 70 308 307
46 2 2 1 7 307 68 309
47 2 2 1 7 307 309 70
48 2 2 1 7 307 71 13
49 2 2 1 7 68 307 13
50 2 2 1 7 10 308 63
51 2 2 1 7 10 71 308
52 2 2 1 7 308 71 307
53 2 2 1 7 14 309 68
54 2 2 1 7 308 70 11
55 2 2 1 7 63 308 11
56 2 2 1 7 309 14 70
57 2 2 1 8 15 310 69
58 2 2 1 8 310 311 69
59 2 2 1 8 72 12 310
60 2 2 1 8 70 14 69
61 2 2 1 8 310 12 64
62 2 2 1 8 15 72 310
63 2 2 1 8 311 310 64
64 2 2 1 8 311 70 69
65 2 2 1 8 11 311 64
66 2 2 1 8 311 11 70
67 2 2 1 9 312 314 313
68 2 2 1 9 313 73 312
69 2 2 1 9 77 312 17
70 2 2 1 9 17 312 74
71 2 2 1 9 312 73 74
72 2 2 1 9 314 312 315
73 2 2 1 9 313 314 78
74 2 2 1 9 315 68 314
75 2 2 1 9 77 315 312
76 2 2 1 9 73 313 16
77 2 2 1 9 13 78 314
78 2 2 1 9 13 314 68
79 2 2 1 9 315 77 14
80 2 2 1 9 68 315 14
81 2 2 1 9 313 78 16
82 2 2 1 10 79 15 316
83 2 2 1 10 316 15 69
84 2 2 1 10 18 79 317
85 2 2 1 10 318 316 69
86 2 2 1 10 77 17 75
87 2 2 1 10 18 317 76
88 2 2 1 10 75 317 318
89 2 2 1 10 318 77 75
90 2 2 1 10 316 318 317
91 2 2 1 10 14 318 69
92 2 2 1 10 79 316 317
93 2 2 1 10 317 75 76
94 2 2 1 10 318 14 77
95 2 2 1 11 84 320 319
96 2 2 1 11 84 74 320
97 2 2 1 11 321 320 85
98 2 2 1 11 85 320 73
99 2 2 1 11 84 17 74
100 2 2 1 11 320 74 73
101 2 2 1 11 16 85 73
102 2 2 1 11 84 319 20
103 2 2 1 11 20 319 81
104 2 2 1 11 320 80 319
105 2 2 1 11 319 80 81
106 2 2 1 11 321 80 320
107 2 2 1 11 321 85 19
108 2 2 1 11 80 321 19
109 2 2 1 12 84 322 17
110 2 2 1 12 322 84 82
111 2 2 1 12 17 322 75
112 2 2 1 12 86 18 76
113 2 2 1 12 83 323 322
114 2 2 1 12 84 20 82
115 2 2 1 12 83 322 82
116 2 2 1 12 83 21 86
117 2 2 1 12 323 86 76
118 2 2 1 12 322 323 75
119 2 2 1 12 75 323 76
120 2 2 1 12 86 323 83
121 2 2 1 13 93 20 324
122 2 2 1 13 324 20 81
123 2 2 1 13 325 326 80
124 2 2 1 13 326 324 81
125 2 2 1 13 326 81 80
126 2 2 1 13 93 324 327
127 2 2 1 13 80 19 94
128 2 2 1 13 325 80 94
129 2 2 1 13 88 326 87
130 2 2 1 13 326 88 324
131 2 2 1 13 325 87 326
132 2 2 1 13 23 327 89
133 2 2 1 13 88 327 324
134 2 2 1 13 327 88 89
135 2 2 1 13 327 23 93
136 2 2 1 13 325 94 22
137 2 2 1 13 87 325 22
138 2 2 1 14 328 329 92
139 2 2 1 14 328 92 95
140 2 2 1 14 95 92 24
141 2 2 1 14 91 329 330
142 2 2 1 14 329 91 92
143 2 2 1 14 330 329 82
144 2 2 1 14 82 329 83
145 2 2 1 14 328 83 329
146 2 2 1 14 93 23 90
147 2 2 1 14 91 330 90
148 2 2 1 14 93 330 20
149 2 2 1 14 330 93 90
150 2 2 1 14 328 95 21
151 2 2 1 14 83 328 21
152 2 2 1 14 20 330 82
153 2 2 1 15 331 89 332
154 2 2 1 15 332 89 88
155 2 2 1 15 103 23 331
156 2 2 1 15 331 23 89
157 2 2 1 15 88 87 332
158 2 2 1 15 87 22 104
159 2 2 1 15 333 331 97
160 2 2 1 15 332 97 331
161 2 2 1 15 103 333 26
162 2 2 1 15 26 333 98
163 2 2 1 15 332 96 97
164 2 2 1 15 331 333 103
165 2 2 1 15 334 332 87
166 2 2 1 15 334 87 104
167 2 2 1 15 334 104 25
168 2 2 1 15 96 334 25
169 2 2 1 15 332 334 96
170 2 2 1 15 97 98 333
171 2 2 1 16 335 91 336
172 2 2 1 16 336 91 90
173 2 2 1 16 337 92 335
174 2 2 1 16 335 92 91
175 2 2 1 16 105 102 27
176 2 2 1 16 338 336 23
177 2 2 1 16 338 23 103
178 2 2 1 16 336 90 23
179 2 2 1 16 103 26 338
180 2 2 1 16 337 105 24
181 2 2 1 16 92 337 24
182 2 2 1 16 335 336 101
183 2 2 1 16 102 335 101
184 2 2 1 16 337 335 102
185 2 2 1 16 336 338 100
186 2 2 1 16 338 99 100
187 2 2 1 16 105 337 102
188 2 2 1 16 336 100 101
189 2 2 1 16 338 26 99
190 2 2 1 17 339 340 108
191 2 2 1 17 339 108 109
192 2 2 1 17 116 341 25
193 2 2 1 17 341 116 28
194 2 2 1 17 106 341 28
195 2 2 1 17 115 26 340
196 2 2 1 17 340 98 342
197 2 2 1 17 340 26 98
198 2 2 1 17 342 97 343
199 2 2 1 17 98 97 342
200 2 2 1 17 343 107 342
201 2 2 1 17 343 106 107
202 2 2 1 17 343 341 106
203 2 2 1 17 29 339 109
204 2 2 1 17 343 96 341
205 2 2 1 17 341 96 25
206 2 2 1 17 339 29 115
207 2 2 1 17 97 96 343
208 2 2 1 17 342 108 340
209 2 2 1 17 108 342 107
210 2 2 1 17 115 340 339
211 2 2 1 18 117 344 30
212 2 2 1 18 29 110 115
213 2 2 1 18 114 344 345
214 2 2 1 18 344 114 30
215 2 2 1 18 112 347 346
216 2 2 1 18 346 26 348
217 2 2 1 18 345 101 349
218 2 2 1 18 101 345 102
219 2 2 1 18 347 112 113
220 2 2 1 18 349 347 113
221 2 2 1 18 112 346 111
222 2 2 1 18 111 346 348
223 2 2 1 18 114 345 349
224 2 2 1 18 114 349 113
225 2 2 1 18 347 349 101
226 2 2 1 18 347 101 100
227 2 2 1 18 100 346 347
228 2 2 1 18 99 346 100
229 2 2 1 18 344 117 27
230 2 2 1 18 348 110 111
231 2 2 1 18 99 26 346
232 2 2 1 18 344 102 345
233 2 2 1 18 115 348 26
234 2 2 1 18 102 344 27
235 2 2 1 18 110 348 115
236 2 2 1 19 350 351 121
237 2 2 1 19 350 121 122
238 2 2 1 19 120 353 352
239 2 2 1 19 352 108 107
240 2 2 1 19 351 109 353
241 2 2 1 19 121 351 353
242 2 2 1 19 354 130 31
243 2 2 1 19 354 118 355
244 2 2 1 19 118 354 31
245 2 2 1 19 353 109 108
246 2 2 1 19 355 119 352
247 2 2 1 19 355 118 119
248 2 2 1 19 352 353 108
249 2 2 1 19 121 353 120
250 2 2 1 19 352 119 120
251 2 2 1 19 130 354 28
252 2 2 1 19 354 106 28
253 2 2 1 19 106 355 107
254 2 2 1 19 352 107 355
255 2 2 1 19 106 354 355
256 2 2 1 19 129 29 351
257 2 2 1 19 351 29 109
258 2 2 1 19 351 350 129
259 2 2 1 19 32 350 122
260 2 2 1 19 32 129 350
261 2 2 1 20 129 32 123
262 2 2 1 20 356 127 357
263 2 2 1 20 357 127 128
264 2 2 1 20 357 128 358
265 2 2 1 20 357 358 114
266 2 2 1 20 357 113 356
267 2 2 1 20 356 113 112
268 2 2 1 20 359 124 360
269 2 2 1 20 360 124 125
270 2 2 1 20 360 361 110
271 2 2 1 20 362 361 125
272 2 2 1 20 131 358 33
273 2 2 1 20 358 128 33
274 2 2 1 20 362 125 126
275 2 2 1 20 125 361 360
276 2 2 1 20 357 114 113
277 2 2 1 20 356 112 362
278 2 2 1 20 362 111 361
279 2 2 1 20 362 126 356
280 2 2 1 20 356 126 127
281 2 2 1 20 359 29 129
282 2 2 1 20 359 129 123
283 2 2 1 20 358 131 30
284 2 2 1 20 114 358 30
285 2 2 1 20 112 111 362
286 2 2 1 20 360 110 359
287 2 2 1 20 110 29 359
288 2 2 1 20 361 111 110
289 2 2 1 20 124 359 123
290 2 2 1 21 35 145 363
291 2 2 1 21 35 363 137
292 2 2 1 21 145 32 363
293 2 2 1 21 363 32 122
294 2 2 1 21 364 135 365
295 2 2 1 21 364 365 121
296 2 2 1 21 366 134 364
297 2 2 1 21 366 364 120
298 2 2 1 21 365 136 363
299 2 2 1 21 365 363 122
300 2 2 1 21 132 368 367
301 2 2 1 21 367 368 118
302 2 2 1 21 368 133 366
303 2 2 1 21 368 366 119
304 2 2 1 21 137 363 136
305 2 2 1 21 31 367 118
306 2 2 1 21 133 368 132
307 2 2 1 21 118 368 119
308 2 2 1 21 119 366 120
309 2 2 1 21 134 366 133
310 2 2 1 21 132 367 34
311 2 2 1 21 367 31 34
312 2 2 1 21 120 364 121
313 2 2 1 21 135 364 134
314 2 2 1 21 136 365 135
315 2 2 1 21 121 365 122
316 2 2 1 22 33 369 36
317 2 2 1 22 144 369 128
318 2 2 1 22 369 144 36
319 2 2 1 22 369 33 128
320 2 2 1 22 145 138 370
321 2 2 1 22 138 145 35
322 2 2 1 22 32 145 370
323 2 2 1 22 140 141 124
324 2 2 1 22 124 141 125
325 2 2 1 22 370 123 32
326 2 2 1 22 370 138 139
327 2 2 1 22 123 370 139
328 2 2 1 22 125 141 142
329 2 2 1 22 125 142 126
330 2 2 1 22 139 140 123
331 2 2 1 22 123 140 124
332 2 2 1 22 127 144 128
333 2 2 1 22 127 143 144
334 2 2 1 22 126 143 127
335 2 2 1 22 142 143 126
336 2 2 1 23 147 148 134
337 2 2 1 23 38 35 137
338 2 2 1 23 147 134 133
339 2 2 1 23 146 132 34
340 2 2 1 23 149 135 148
341 2 2 1 23 148 135 134
342 2 2 1 23 146 147 133
343 2 2 1 23 146 133 132
344 2 2 1 23 137 151 38
345 2 2 1 23 149 150 136
346 2 2 1 23 149 136 135
347 2 2 1 23 151 137 150
348 2 2 1 23 146 34 37
349 2 2 1 23 150 137 136
350 2 2 1 24 153 154 139
351 2 2 1 24 158 39 36
352 2 2 1 24 35 38 138
353 2 2 1 24 36 144 158
354 2 2 1 24 139 154 140
355 2 2 1 24 143 157 158
356 2 2 1 24 143 158 144
357 2 2 1 24 152 153 138
358 2 2 1 24 138 153 139
359 2 2 1 24 154 155 140
360 2 2 1 24 138 38 152
361 2 2 1 24 140 155 141
362 2 2 1 24 141 155 156
363 2 2 1 24 141 156 142
364 2 2 1 24 156 157 142
365 2 2 1 24 142 157 143
366 2 2 4 25 165 386 403
367 2 2 4 25 164 165 403
368 2 2 4 25 390 379 399
369 2 2 4 25 374 390 399
370 2 2 4 25 385 374 393
371 2 2 4 25 156 388 410
372 2 2 4 25 377 385 393
373 2 2 4 25 157 156 410
374 2 2 4 25 385 163 403
375 2 2 4 25 374 386 424
376 2 2 4 25 383 376 411
377 2 2 4 25 387 375 425
378 2 2 4 25 390 374 424
379 2 2 4 25 375 391 425
380 2 2 4 25 405 421 429
381 2 2 4 25 382 397 405
382 2 2 4 25 150 389 428
383 2 2 4 25 397 373 405
384 2 2 4 25 163 164 403
385 2 2 4 25 371 393 399
386 2 2 4 25 161 384 406
387 2 2 4 25 395 371 399
388 2 2 4 25 392 420 421
389 2 2 4 25 387 158 410
390 2 2 4 25 152 38 394
391 2 2 4 25 371 395 409
392 2 2 4 25 384 161 401
393 2 2 4 25 376 383 408
394 2 2 4 25 154 153 383
395 2 2 4 25 154 383 396
396 2 2 4 25 395 400 409
397 2 2 4 25 392 381 420
398 2 2 4 25 148 147 392
399 2 2 4 25 421 372 429
400 2 2 4 25 148 392 417
401 2 2 4 25 150 149 389
402 2 2 4 25 385 377 415
403 2 2 4 25 375 387 410
404 2 2 4 25 373 383 411
405 2 2 4 25 158 157 410
406 2 2 4 25 374 385 403
407 2 2 4 25 386 374 403
408 2 2 4 25 377 393 398
409 2 2 4 25 169 170 391
410 2 2 4 25 167 168 390
411 2 2 4 25 393 371 398
412 2 2 4 25 386 165 426
413 2 2 4 25 151 150 402
414 2 2 4 25 388 375 410
415 2 2 4 25 160 161 406
416 2 2 4 25 158 387 427
417 2 2 4 25 420 372 421
418 2 2 4 25 392 380 417
419 2 2 4 25 377 384 401
420 2 2 4 25 375 388 400
421 2 2 4 25 388 378 400
422 2 2 4 25 384 377 407
423 2 2 4 25 378 396 412
424 2 2 4 25 397 378 412
425 2 2 4 25 383 153 408
426 2 2 4 25 155 154 396
427 2 2 4 25 161 162 401
428 2 2 4 25 377 401 415
429 2 2 4 25 163 385 415
430 2 2 4 25 384 407 420
431 2 2 4 25 407 372 420
432 2 2 4 25 169 391 413
433 2 2 4 25 390 168 413
434 2 2 4 25 388 156 404
435 2 2 4 25 382 405 429
436 2 2 4 25 378 388 404
437 2 2 4 25 391 379 413
438 2 2 4 25 379 390 413
439 2 2 4 25 383 373 412
440 2 2 4 25 393 374 399
441 2 2 4 25 379 395 399
442 2 2 4 25 166 424 426
443 2 2 4 25 425 171 427
444 2 2 4 25 37 159 414
445 2 2 4 25 146 37 414
446 2 2 4 25 395 375 400
447 2 2 4 25 380 389 417
448 2 2 4 25 381 392 418
449 2 2 4 25 389 149 417
450 2 2 4 25 396 378 404
451 2 2 4 25 392 147 418
452 2 2 4 25 394 38 416
453 2 2 4 25 387 425 427
454 2 2 4 25 167 390 424
455 2 2 4 25 424 386 426
456 2 2 4 25 391 170 425
457 2 2 4 25 389 380 422
458 2 2 4 25 155 396 404
459 2 2 4 25 380 392 421
460 2 2 4 25 379 391 419
461 2 2 4 25 166 167 424
462 2 2 4 25 170 171 425
463 2 2 4 25 391 375 419
464 2 2 4 25 156 155 404
465 2 2 4 25 396 383 412
466 2 2 4 25 395 379 419
467 2 2 4 25 405 380 421
468 2 2 4 25 375 395 419
469 2 2 4 25 152 394 423
470 2 2 4 25 378 397 409
471 2 2 4 25 376 394 402
472 2 2 4 25 377 398 407
473 2 2 4 25 373 397 412
474 2 2 4 25 39 158 427
475 2 2 4 25 165 40 426
476 2 2 4 25 38 151 416
477 2 2 4 25 40 166 426
478 2 2 4 25 171 39 427
479 2 2 4 25 398 371 431
480 2 2 4 25 382 398 431
481 2 2 4 25 397 382 431
482 2 2 4 25 400 378 409
483 2 2 4 25 168 169 413
484 2 2 4 25 411 376 428
485 2 2 4 25 162 163 415
486 2 2 4 25 149 148 417
487 2 2 4 25 147 146 418
488 2 2 4 25 394 376 408
489 2 2 4 25 398 382 429
490 2 2 4 25 159 160 430
491 2 2 4 25 151 402 416
492 2 2 4 25 389 411 428
493 2 2 4 25 401 162 415
494 2 2 4 25 406 384 420
495 2 2 4 25 402 394 416
496 2 2 4 25 405 373 422
497 2 2 4 25 409 397 431
498 2 2 4 25 373 411 422
499 2 2 4 25 407 398 429
500 2 2 4 25 394 408 423
501 2 2 4 25 376 402 428
502 2 2 4 25 406 381 430
503 2 2 4 25 381 406 420
504 2 2 4 25 380 405 422
505 2 2 4 25 160 406 430
506 2 2 4 25 146 414 418
507 2 2 4 25 414 381 418
508 2 2 4 25 411 389 422
509 2 2 4 25 402 150 428
510 2 2 4 25 372 407 429
511 2 2 4 25 381 414 430
512 2 2 4 25 371 409 431
513 2 2 4 25 414 159 430
514 2 2 4 25 408 153 423
515 2 2 4 25 153 152 423
516 2 2 2 26 57 172 1
517 2 2 2 26 57 2 432
518 2 2 2 26 173 58 3
519 2 2 2 26 172 57 432
520 2 2 2 26 173 41 432
521 2 2 2 26 58 173 432
522 2 2 2 26 41 172 432
523 2 2 2 26 2 58 432
524 2 2 3 27 263 146 37
525 2 2 3 27 216 38 51
526 2 2 3 27 216 152 38
527 2 2 3 27 207 39 158
528 2 2 3 27 151 271 51
529 2 2 3 27 264 147 146
530 2 2 3 27 264 146 263
531 2 2 3 27 266 148 147
532 2 2 3 27 264 265 147
533 2 2 3 27 147 265 266
534 2 2 3 27 267 149 148
535 2 2 3 27 267 148 266
536 2 2 3 27 269 150 149
537 2 2 3 27 268 149 267
538 2 2 3 27 268 269 149
539 2 2 3 27 270 151 150
540 2 2 3 27 270 150 269
541 2 2 3 27 270 271 151
542 2 2 3 27 215 153 152
543 2 2 3 27 152 216 215
544 2 2 3 27 153 214 154
545 2 2 3 27 153 215 214
546 2 2 3 27 212 155 154
547 2 2 3 27 154 213 212
548 2 2 3 27 214 213 154
549 2 2 3 27 211 156 155
550 2 2 3 27 155 212 211
551 2 2 3 27 209 157 156
552 2 2 3 27 210 209 156
553 2 2 3 27 156 211 210
554 2 2 3 27 208 158 157
555 2 2 3 27 157 209 208
556 2 2 3 27 158 208 207
557 2 2 3 27 37 43 263
558 2 2 3 27 38 151 51
559 2 2 3 27 39 207 47
560 2 2 3 28 267 276 277
561 2 2 3 28 267 277 268
562 2 2 3 28 275 266 274
563 2 2 3 28 274 266 265
564 2 2 3 28 272 433 44
565 2 2 3 28 433 174 44
566 2 2 3 28 434 280 52
567 2 2 3 28 217 434 52
568 2 2 3 28 267 266 275
569 2 2 3 28 273 265 264
570 2 2 3 28 273 274 265
571 2 2 3 28 263 273 264
572 2 2 3 28 271 434 51
573 2 2 3 28 434 271 280
574 2 2 3 28 434 217 51
575 2 2 3 28 433 263 43
576 2 2 3 28 263 433 272
577 2 2 3 28 174 433 43
578 2 2 3 28 278 279 270
579 2 2 3 28 278 270 269
580 2 2 3 28 271 270 280
581 2 2 3 28 279 280 270
582 2 2 3 28 277 278 269
583 2 2 3 28 276 267 275
584 2 2 3 28 277 269 268
585 2 2 3 28 272 273 263
586 2 2 3 29 448 177 471
587 2 2 3 29 177 448 470
588 2 2 3 29 447 220 472
589 2 2 3 29 220 447 473
590 2 2 3 29 442 447 476
591 2 2 3 29 439 448 460
592 2 2 3 29 445 457 469
593 2 2 3 29 457 442 469
594 2 2 3 29 447 442 473
595 2 2 3 29 448 439 470
596 2 2 3 29 449 435 463
597 2 2 3 29 435 460 467
598 2 2 3 29 438 449 463
599 2 2 3 29 435 449 465
600 2 2 3 29 449 438 466
601 2 2 3 29 436 464 466
602 2 2 3 29 453 285 458
603 2 2 3 29 467 460 479
604 2 2 3 29 276 450 462
605 2 2 3 29 276 275 450
606 2 2 3 29 466 464 483
607 2 2 3 29 177 178 471
608 2 2 3 29 176 177 470
609 2 2 3 29 465 449 483
610 2 2 3 29 437 465 483
611 2 2 3 29 450 437 462
612 2 2 3 29 284 285 453
613 2 2 3 29 438 453 458
614 2 2 3 29 450 275 475
615 2 2 3 29 285 286 458
616 2 2 3 29 220 219 472
617 2 2 3 29 456 441 494
618 2 2 3 29 440 452 487
619 2 2 3 29 451 439 488
620 2 2 3 29 455 440 487
621 2 2 3 29 439 454 488
622 2 2 3 29 439 451 470
623 2 2 3 29 452 440 471
624 2 2 3 29 277 276 462
625 2 2 3 29 221 220 473
626 2 2 3 29 463 435 467
627 2 2 3 29 441 472 494
628 2 2 3 29 444 463 467
629 2 2 3 29 282 283 455
630 2 2 3 29 274 273 454
631 2 2 3 29 469 442 476
632 2 2 3 29 279 278 459
633 2 2 3 29 439 460 482
634 2 2 3 29 284 453 477
635 2 2 3 29 454 443 475
636 2 2 3 29 442 461 496
637 2 2 3 29 460 474 482
638 2 2 3 29 448 471 479
639 2 2 3 29 471 440 479
640 2 2 3 29 443 450 475
641 2 2 3 29 459 441 493
642 2 2 3 29 441 456 493
643 2 2 3 29 473 442 496
644 2 2 3 29 443 454 482
645 2 2 3 29 287 288 457
646 2 2 3 29 453 444 477
647 2 2 3 29 446 464 468
648 2 2 3 29 459 278 480
649 2 2 3 29 442 457 486
650 2 2 3 29 455 477 489
651 2 2 3 29 438 458 481
652 2 2 3 29 477 444 489
653 2 2 3 29 452 281 487
654 2 2 3 29 272 451 488
655 2 2 3 29 274 454 475
656 2 2 3 29 461 442 486
657 2 2 3 29 455 283 477
658 2 2 3 29 462 437 485
659 2 2 3 29 446 459 480
660 2 2 3 29 451 272 498
661 2 2 3 29 281 452 499
662 2 2 3 29 464 436 468
663 2 2 3 29 470 451 490
664 2 2 3 29 452 471 491
665 2 2 3 29 468 436 476
666 2 2 3 29 458 445 481
667 2 2 3 29 437 450 492
668 2 2 3 29 287 457 478
669 2 2 3 29 456 280 493
670 2 2 3 29 453 438 495
671 2 2 3 29 289 461 486
672 2 2 3 29 457 445 478
673 2 2 3 29 460 435 474
674 2 2 3 29 450 443 492
675 2 2 3 29 435 465 474
676 2 2 3 29 444 453 495
677 2 2 3 29 465 443 474
678 2 2 3 29 281 282 487
679 2 2 3 29 273 272 488
680 2 2 3 29 282 455 487
681 2 2 3 29 454 273 488
682 2 2 3 29 468 476 484
683 2 2 3 29 458 286 478
684 2 2 3 29 288 289 486
685 2 2 3 29 280 456 500
686 2 2 3 29 440 455 489
687 2 2 3 29 445 458 478
688 2 2 3 29 454 439 482
689 2 2 3 29 449 466 483
690 2 2 3 29 277 462 480
691 2 2 3 29 280 279 493
692 2 2 3 29 460 448 479
693 2 2 3 29 462 446 480
694 2 2 3 29 472 441 484
695 2 2 3 29 461 289 501
696 2 2 3 29 447 472 484
697 2 2 3 29 279 459 493
698 2 2 3 29 446 468 497
699 2 2 3 29 465 437 492
700 2 2 3 29 456 218 500
701 2 2 3 29 275 274 475
702 2 2 3 29 459 446 497
703 2 2 3 29 445 469 502
704 2 2 3 29 463 444 495
705 2 2 3 29 457 288 486
706 2 2 3 29 218 456 494
707 2 2 3 29 443 465 492
708 2 2 3 29 464 437 483
709 2 2 3 29 44 175 498
710 2 2 3 29 179 45 499
711 2 2 3 29 466 438 481
712 2 2 3 29 437 464 485
713 2 2 3 29 283 284 477
714 2 2 3 29 218 52 500
715 2 2 3 29 53 222 501
716 2 2 3 29 464 446 485
717 2 2 3 29 440 467 479
718 2 2 3 29 441 459 497
719 2 2 3 29 438 463 495
720 2 2 3 29 436 469 476
721 2 2 3 29 286 287 478
722 2 2 3 29 446 462 485
723 2 2 3 29 467 440 489
724 2 2 3 29 222 461 501
725 2 2 3 29 461 222 496
726 2 2 3 29 278 277 480
727 2 2 3 29 444 467 489
728 2 2 3 29 272 44 498
729 2 2 3 29 45 281 499
730 2 2 3 29 436 466 502
731 2 2 3 29 481 445 502
732 2 2 3 29 219 218 494
733 2 2 3 29 222 221 496
734 2 2 3 29 175 176 490
735 2 2 3 29 178 179 491
736 2 2 3 29 441 468 484
737 2 2 3 29 490 451 498
738 2 2 3 29 452 491 499
739 2 2 3 29 468 441 497
740 2 2 3 29 289 53 501
741 2 2 3 29 52 280 500
742 2 2 3 29 175 490 498
743 2 2 3 29 491 179 499
744 2 2 3 29 474 443 482
745 2 2 3 29 469 436 502
746 2 2 3 29 176 470 490
747 2 2 3 29 471 178 491
748 2 2 3 29 472 219 494
749 2 2 3 29 221 473 496
750 2 2 3 29 476 447 484
751 2 2 3 29 466 481 502
752 2 2 3 30 291 292 283
753 2 2 3 30 291 283 282
754 2 2 3 30 293 294 284
755 2 2 3 30 284 294 285
756 2 2 3 30 503 298 54
757 2 2 3 30 223 503 54
758 2 2 3 30 290 504 46
759 2 2 3 30 504 180 46
760 2 2 3 30 285 295 286
761 2 2 3 30 285 294 295
762 2 2 3 30 295 296 286
763 2 2 3 30 290 291 282
764 2 2 3 30 289 503 53
765 2 2 3 30 503 289 298
766 2 2 3 30 503 223 53
767 2 2 3 30 504 281 45
768 2 2 3 30 281 504 290
769 2 2 3 30 180 504 45
770 2 2 3 30 289 288 298
771 2 2 3 30 296 297 288
772 2 2 3 30 296 288 287
773 2 2 3 30 293 284 292
774 2 2 3 30 292 284 283
775 2 2 3 30 297 298 288
776 2 2 3 30 296 287 286
777 2 2 3 30 282 281 290
778 2 2 3 31 563 181 586
779 2 2 3 31 521 539 559
780 2 2 3 31 290 46 563
781 2 2 3 31 54 298 564
782 2 2 3 31 545 526 565
783 2 2 3 31 505 545 565
784 2 2 3 31 181 182 586
785 2 2 3 31 231 540 574
786 2 2 3 31 541 233 574
787 2 2 3 31 224 564 588
788 2 2 3 31 185 186 533
789 2 2 3 31 46 181 563
790 2 2 3 31 224 54 564
791 2 2 3 31 229 228 536
792 2 2 3 31 521 559 581
793 2 2 3 31 551 527 568
794 2 2 3 31 233 232 574
795 2 2 3 31 505 535 558
796 2 2 3 31 183 532 586
797 2 2 3 31 225 224 588
798 2 2 3 31 525 535 590
799 2 2 3 31 508 551 568
800 2 2 3 31 534 226 588
801 2 2 3 31 535 505 590
802 2 2 3 31 232 231 574
803 2 2 3 31 601 545 602
804 2 2 3 31 537 515 562
805 2 2 3 31 190 548 576
806 2 2 3 31 540 517 546
807 2 2 3 31 545 529 602
808 2 2 3 31 294 293 542
809 2 2 3 31 514 540 546
810 2 2 3 31 537 513 552
811 2 2 3 31 507 562 581
812 2 2 3 31 506 537 552
813 2 2 3 31 513 543 553
814 2 2 3 31 562 531 581
815 2 2 3 31 189 190 576
816 2 2 3 31 546 517 555
817 2 2 3 31 506 546 555
818 2 2 3 31 541 514 614
819 2 2 3 31 506 555 573
820 2 2 3 31 514 544 614
821 2 2 3 31 513 537 554
822 2 2 3 31 532 183 579
823 2 2 3 31 555 529 573
824 2 2 3 31 229 536 556
825 2 2 3 31 542 293 594
826 2 2 3 31 226 225 588
827 2 2 3 31 551 530 612
828 2 2 3 31 533 186 560
829 2 2 3 31 554 585 596
830 2 2 3 31 535 525 609
831 2 2 3 31 530 551 577
832 2 2 3 31 554 507 585
833 2 2 3 31 185 533 566
834 2 2 3 31 294 542 557
835 2 2 3 31 515 537 573
836 2 2 3 31 226 534 580
837 2 2 3 31 182 183 586
838 2 2 3 31 538 509 619
839 2 2 3 31 513 553 603
840 2 2 3 31 529 545 617
841 2 2 3 31 536 228 561
842 2 2 3 31 533 510 597
843 2 2 3 31 545 558 617
844 2 2 3 31 543 202 553
845 2 2 3 31 554 537 562
846 2 2 3 31 588 520 592
847 2 2 3 31 510 533 584
848 2 2 3 31 203 202 543
849 2 2 3 31 539 516 559
850 2 2 3 31 536 511 578
851 2 2 3 31 511 536 600
852 2 2 3 31 534 588 592
853 2 2 3 31 519 586 593
854 2 2 3 31 537 506 573
855 2 2 3 31 540 514 574
856 2 2 3 31 558 535 599
857 2 2 3 31 200 199 544
858 2 2 3 31 555 517 578
859 2 2 3 31 586 532 593
860 2 2 3 31 509 538 598
861 2 2 3 31 527 542 594
862 2 2 3 31 516 539 576
863 2 2 3 31 540 231 587
864 2 2 3 31 530 565 612
865 2 2 3 31 546 506 569
866 2 2 3 31 205 204 547
867 2 2 3 31 565 538 612
868 2 2 3 31 565 530 590
869 2 2 3 31 517 540 587
870 2 2 3 31 555 578 602
871 2 2 3 31 297 296 549
872 2 2 3 31 292 291 550
873 2 2 3 31 514 541 574
874 2 2 3 31 202 201 553
875 2 2 3 31 295 294 557
876 2 2 3 31 539 521 583
877 2 2 3 31 512 551 612
878 2 2 3 31 514 546 569
879 2 2 3 31 506 552 569
880 2 2 3 31 511 601 602
881 2 2 3 31 505 565 590
882 2 2 3 31 559 507 581
883 2 2 3 31 545 505 558
884 2 2 3 31 575 538 619
885 2 2 3 31 233 541 616
886 2 2 3 31 523 543 596
887 2 2 3 31 543 523 589
888 2 2 3 31 544 524 591
889 2 2 3 31 547 516 611
890 2 2 3 31 516 548 611
891 2 2 3 31 527 550 568
892 2 2 3 31 549 528 567
893 2 2 3 31 203 543 589
894 2 2 3 31 519 563 586
895 2 2 3 31 543 513 596
896 2 2 3 31 551 508 577
897 2 2 3 31 200 544 591
898 2 2 3 31 230 229 556
899 2 2 3 31 614 198 616
900 2 2 3 31 550 519 568
901 2 2 3 31 520 549 567
902 2 2 3 31 583 188 622
903 2 2 3 31 186 187 560
904 2 2 3 31 559 516 615
905 2 2 3 31 542 512 621
906 2 2 3 31 562 515 599
907 2 2 3 31 564 520 588
908 2 2 3 31 531 562 599
909 2 2 3 31 228 227 561
910 2 2 3 31 184 185 566
911 2 2 3 31 183 184 579
912 2 2 3 31 528 549 595
913 2 2 3 31 550 527 594
914 2 2 3 31 542 527 610
915 2 2 3 31 547 204 589
916 2 2 3 31 552 524 569
917 2 2 3 31 585 559 615
918 2 2 3 31 580 534 608
919 2 2 3 31 549 296 595
920 2 2 3 31 292 550 594
921 2 2 3 31 507 554 562
922 2 2 3 31 523 547 589
923 2 2 3 31 548 206 611
924 2 2 3 31 524 544 618
925 2 2 3 31 187 188 583
926 2 2 3 31 512 542 610
927 2 2 3 31 522 580 608
928 2 2 3 31 541 614 616
929 2 2 3 31 539 583 622
930 2 2 3 31 227 226 580
931 2 2 3 31 579 518 607
932 2 2 3 31 548 516 576
933 2 2 3 31 532 579 607
934 2 2 3 31 515 558 599
935 2 2 3 31 231 230 587
936 2 2 3 31 538 565 598
937 2 2 3 31 517 556 578
938 2 2 3 31 561 227 580
939 2 2 3 31 565 526 598
940 2 2 3 31 544 199 614
941 2 2 3 31 556 536 578
942 2 2 3 31 553 201 591
943 2 2 3 31 184 566 579
944 2 2 3 31 575 512 612
945 2 2 3 31 570 526 582
946 2 2 3 31 199 198 614
947 2 2 3 31 556 517 587
948 2 2 3 31 538 575 612
949 2 2 3 31 526 545 601
950 2 2 3 31 544 514 618
951 2 2 3 31 524 553 591
952 2 2 3 31 530 577 590
953 2 2 3 31 206 205 611
954 2 2 3 31 298 297 604
955 2 2 3 31 291 290 605
956 2 2 3 31 577 525 590
957 2 2 3 31 585 523 596
958 2 2 3 31 206 548 620
959 2 2 3 31 508 571 577
960 2 2 3 31 571 525 577
961 2 2 3 31 519 550 605
962 2 2 3 31 549 520 604
963 2 2 3 31 560 187 583
964 2 2 3 31 557 542 621
965 2 2 3 31 290 563 605
966 2 2 3 31 564 298 604
967 2 2 3 31 522 561 580
968 2 2 3 31 510 572 597
969 2 2 3 31 525 571 572
970 2 2 3 31 548 190 620
971 2 2 3 31 205 547 611
972 2 2 3 31 571 518 572
973 2 2 3 31 560 521 584
974 2 2 3 31 520 567 592
975 2 2 3 31 533 560 584
976 2 2 3 31 230 556 587
977 2 2 3 31 568 519 593
978 2 2 3 31 551 512 610
979 2 2 3 31 297 549 604
980 2 2 3 31 550 291 605
981 2 2 3 31 566 518 579
982 2 2 3 31 516 547 615
983 2 2 3 31 547 523 615
984 2 2 3 31 527 551 610
985 2 2 3 31 528 557 621
986 2 2 3 31 295 557 595
987 2 2 3 31 521 560 583
988 2 2 3 31 571 508 607
989 2 2 3 31 509 570 608
990 2 2 3 31 507 559 585
991 2 2 3 31 524 552 603
992 2 2 3 31 552 513 603
993 2 2 3 31 557 528 595
994 2 2 3 31 514 569 618
995 2 2 3 31 521 581 606
996 2 2 3 31 522 570 582
997 2 2 3 31 584 521 606
998 2 2 3 31 513 554 596
999 2 2 3 31 515 573 617
1000 2 2 3 31 582 511 600
1001 2 2 3 31 578 511 602
1002 2 2 3 31 50 233 616
1003 2 2 3 31 553 524 603
1004 2 2 3 31 582 526 601
1005 2 2 3 31 204 203 589
1006 2 2 3 31 201 200 591
1007 2 2 3 31 563 519 605
1008 2 2 3 31 520 564 604
1009 2 2 3 31 508 593 607
1010 2 2 3 31 198 50 616
1011 2 2 3 31 575 528 621
1012 2 2 3 31 592 509 608
1013 2 2 3 31 529 555 602
1014 2 2 3 31 296 295 595
1015 2 2 3 31 293 292 594
1016 2 2 3 31 190 42 620
1017 2 2 3 31 561 522 600
1018 2 2 3 31 567 509 592
1019 2 2 3 31 508 568 593
1020 2 2 3 31 518 566 597
1021 2 2 3 31 566 533 597
1022 2 2 3 31 42 206 620
1023 2 2 3 31 188 189 622
1024 2 2 3 31 570 509 598
1025 2 2 3 31 536 561 600
1026 2 2 3 31 558 515 617
1027 2 2 3 31 525 572 609
1028 2 2 3 31 569 524 618
1029 2 2 3 31 572 518 597
1030 2 2 3 31 526 570 598
1031 2 2 3 31 522 582 600
1032 2 2 3 31 567 528 619
1033 2 2 3 31 510 584 606
1034 2 2 3 31 518 571 607
1035 2 2 3 31 570 522 608
1036 2 2 3 31 572 510 609
1037 2 2 3 31 509 567 619
1038 2 2 3 31 528 575 619
1039 2 2 3 31 511 582 601
1040 2 2 3 31 576 539 622
1041 2 2 3 31 573 529 617
1042 2 2 3 31 581 531 606
1043 2 2 3 31 510 606 613
1044 2 2 3 31 523 585 615
1045 2 2 3 31 531 599 613
1046 2 2 3 31 599 535 613
1047 2 2 3 31 189 576 622
1048 2 2 3 31 512 575 621
1049 2 2 3 31 534 592 608
1050 2 2 3 31 593 532 607
1051 2 2 3 31 606 531 613
1052 2 2 3 31 535 609 613
1053 2 2 3 31 609 510 613
1054 2 2 3 32 208 235 234
1055 2 2 3 32 208 234 207
1056 2 2 3 32 211 238 237
1057 2 2 3 32 211 237 210
1058 2 2 3 32 623 234 48
1059 2 2 3 32 191 623 48
1060 2 2 3 32 624 259 55
1061 2 2 3 32 243 624 55
1062 2 2 3 32 212 238 211
1063 2 2 3 32 212 239 238
1064 2 2 3 32 241 240 214
1065 2 2 3 32 240 213 214
1066 2 2 3 32 216 624 243
1067 2 2 3 32 259 624 51
1068 2 2 3 32 624 216 51
1069 2 2 3 32 207 623 47
1070 2 2 3 32 623 207 234
1071 2 2 3 32 623 191 47
1072 2 2 3 32 208 236 235
1073 2 2 3 32 241 214 242
1074 2 2 3 32 242 214 215
1075 2 2 3 32 216 243 242
1076 2 2 3 32 242 215 216
1077 2 2 3 32 209 237 236
1078 2 2 3 32 209 236 208
1079 2 2 3 32 210 237 209
1080 2 2 3 32 213 239 212
1081 2 2 3 32 239 213 240
1082 2 2 3 33 55 259 260
1083 2 2 3 33 259 51 217
1084 2 2 3 33 625 52 260
1085 2 2 3 33 625 259 217
1086 2 2 3 33 52 625 217
1087 2 2 3 33 259 625 260
1088 2 2 3 34 626 261 56
1089 2 2 3 34 248 626 56
1090 2 2 3 34 260 627 55
1091 2 2 3 34 627 244 55
1092 2 2 3 34 245 219 220
1093 2 2 3 34 245 220 246
1094 2 2 3 34 222 248 221
1095 2 2 3 34 221 248 247
1096 2 2 3 34 222 626 248
1097 2 2 3 34 261 626 53
1098 2 2 3 34 626 222 53
1099 2 2 3 34 627 218 244
1100 2 2 3 34 627 260 52
1101 2 2 3 34 218 627 52
1102 2 2 3 34 245 244 218
1103 2 2 3 34 245 218 219
1104 2 2 3 34 246 220 247
1105 2 2 3 34 247 220 221
1106 2 2 3 35 56 261 262
1107 2 2 3 35 261 53 223
1108 2 2 3 35 262 261 223
1109 2 2 3 35 223 54 262
1110 2 2 3 36 227 252 251
1111 2 2 3 36 227 251 226
1112 2 2 3 36 250 225 251
1113 2 2 3 36 251 225 226
1114 2 2 3 36 628 233 50
1115 2 2 3 36 197 628 50
1116 2 2 3 36 262 629 56
1117 2 2 3 36 629 249 56
1118 2 2 3 36 254 228 229
1119 2 2 3 36 254 253 228
1120 2 2 3 36 252 228 253
1121 2 2 3 36 229 230 254
1122 2 2 3 36 258 628 49
1123 2 2 3 36 628 258 233
1124 2 2 3 36 628 197 49
1125 2 2 3 36 629 224 249
1126 2 2 3 36 629 262 54
1127 2 2 3 36 224 629 54
1128 2 2 3 36 258 257 233
1129 2 2 3 36 233 257 232
1130 2 2 3 36 225 250 249
1131 2 2 3 36 225 249 224
1132 2 2 3 36 232 257 231
1133 2 2 3 36 257 256 231
1134 2 2 3 36 230 231 256
1135 2 2 3 36 252 227 228
1136 2 2 3 36 256 255 230
1137 2 2 3 36 255 254 230
1138 2 2 3 37 645 630 662
1139 2 2 3 37 642 246 668
1140 2 2 3 37 246 642 667
1141 2 2 3 37 194 643 669
1142 2 2 3 37 643 194 666
1143 2 2 3 37 640 654 664
1144 2 2 3 37 641 657 665
1145 2 2 3 37 630 645 661
1146 2 2 3 37 644 631 660
1147 2 2 3 37 252 253 649
1148 2 2 3 37 254 255 648
1149 2 2 3 37 654 636 664
1150 2 2 3 37 657 637 665
1151 2 2 3 37 252 649 674
1152 2 2 3 37 648 255 677
1153 2 2 3 37 662 630 673
1154 2 2 3 37 632 644 660
1155 2 2 3 37 645 632 661
1156 2 2 3 37 642 635 659
1157 2 2 3 37 643 634 658
1158 2 2 3 37 646 639 675
1159 2 2 3 37 640 647 676
1160 2 2 3 37 631 644 685
1161 2 2 3 37 644 632 678
1162 2 2 3 37 632 645 678
1163 2 2 3 37 632 647 661
1164 2 2 3 37 662 633 678
1165 2 2 3 37 633 663 678
1166 2 2 3 37 645 662 678
1167 2 2 3 37 663 644 678
1168 2 2 3 37 630 661 686
1169 2 2 3 37 660 631 672
1170 2 2 3 37 648 633 670
1171 2 2 3 37 633 649 670
1172 2 2 3 37 646 675 697
1173 2 2 3 37 676 647 698
1174 2 2 3 37 644 663 685
1175 2 2 3 37 633 648 663
1176 2 2 3 37 649 633 662
1177 2 2 3 37 639 646 660
1178 2 2 3 37 647 640 661
1179 2 2 3 37 195 194 669
1180 2 2 3 37 194 193 666
1181 2 2 3 37 245 246 667
1182 2 2 3 37 246 247 668
1183 2 2 3 37 635 642 668
1184 2 2 3 37 634 643 666
1185 2 2 3 37 649 638 674
1186 2 2 3 37 641 648 677
1187 2 2 3 37 632 660 699
1188 2 2 3 37 660 646 699
1189 2 2 3 37 639 660 672
1190 2 2 3 37 638 662 673
1191 2 2 3 37 638 649 662
1192 2 2 3 37 648 641 663
1193 2 2 3 37 647 632 699
1194 2 2 3 37 235 236 656
1195 2 2 3 37 250 251 655
1196 2 2 3 37 241 242 654
1197 2 2 3 37 256 257 657
1198 2 2 3 37 672 658 688
1199 2 2 3 37 673 659 687
1200 2 2 3 37 634 650 681
1201 2 2 3 37 635 651 682
1202 2 2 3 37 652 636 679
1203 2 2 3 37 653 637 680
1204 2 2 3 37 658 634 688
1205 2 2 3 37 659 635 687
1206 2 2 3 37 659 630 664
1207 2 2 3 37 658 631 665
1208 2 2 3 37 656 634 681
1209 2 2 3 37 655 635 682
1210 2 2 3 37 636 654 679
1211 2 2 3 37 637 657 680
1212 2 2 3 37 649 253 670
1213 2 2 3 37 254 648 670
1214 2 2 3 37 650 634 666
1215 2 2 3 37 651 635 668
1216 2 2 3 37 636 652 667
1217 2 2 3 37 637 653 669
1218 2 2 3 37 650 234 681
1219 2 2 3 37 651 249 682
1220 2 2 3 37 243 652 679
1221 2 2 3 37 258 653 680
1222 2 2 3 37 656 236 675
1223 2 2 3 37 655 251 674
1224 2 2 3 37 654 640 676
1225 2 2 3 37 657 641 677
1226 2 2 3 37 638 655 674
1227 2 2 3 37 241 654 676
1228 2 2 3 37 639 656 675
1229 2 2 3 37 256 657 677
1230 2 2 3 37 234 650 689
1231 2 2 3 37 249 651 690
1232 2 2 3 37 652 243 691
1233 2 2 3 37 653 258 692
1234 2 2 3 37 631 658 672
1235 2 2 3 37 630 659 673
1236 2 2 3 37 235 656 681
1237 2 2 3 37 250 655 682
1238 2 2 3 37 654 242 679
1239 2 2 3 37 657 257 680
1240 2 2 3 37 242 243 679
1241 2 2 3 37 257 258 680
1242 2 2 3 37 234 235 681
1243 2 2 3 37 249 250 682
1244 2 2 3 37 659 664 683
1245 2 2 3 37 658 665 684
1246 2 2 3 37 636 667 683
1247 2 2 3 37 637 669 684
1248 2 2 3 37 634 656 688
1249 2 2 3 37 635 655 687
1250 2 2 3 37 667 642 683
1251 2 2 3 37 669 643 684
1252 2 2 3 37 655 638 687
1253 2 2 3 37 656 639 688
1254 2 2 3 37 253 254 670
1255 2 2 3 37 238 239 671
1256 2 2 3 37 661 640 686
1257 2 2 3 37 643 658 684
1258 2 2 3 37 642 659 683
1259 2 2 3 37 665 637 684
1260 2 2 3 37 664 636 683
1261 2 2 3 37 238 671 697
1262 2 2 3 37 671 646 697
1263 2 2 3 37 671 239 698
1264 2 2 3 37 647 671 698
1265 2 2 3 37 651 668 695
1266 2 2 3 37 650 666 693
1267 2 2 3 37 667 652 694
1268 2 2 3 37 669 653 696
1269 2 2 3 37 663 641 685
1270 2 2 3 37 251 252 674
1271 2 2 3 37 236 237 675
1272 2 2 3 37 240 241 676
1273 2 2 3 37 255 256 677
1274 2 2 3 37 641 665 685
1275 2 2 3 37 640 664 686
1276 2 2 3 37 248 56 690
1277 2 2 3 37 192 48 689
1278 2 2 3 37 55 244 691
1279 2 2 3 37 49 196 692
1280 2 2 3 37 240 676 698
1281 2 2 3 37 675 237 697
1282 2 2 3 37 48 234 689
1283 2 2 3 37 56 249 690
1284 2 2 3 37 243 55 691
1285 2 2 3 37 258 49 692
1286 2 2 3 37 671 647 699
1287 2 2 3 37 665 631 685
1288 2 2 3 37 664 630 686
1289 2 2 3 37 193 192 693
1290 2 2 3 37 244 245 694
1291 2 2 3 37 247 248 695
1292 2 2 3 37 196 195 696
1293 2 2 3 37 239 240 698
1294 2 2 3 37 237 238 697
1295 2 2 3 37 639 672 688
1296 2 2 3 37 638 673 687
1297 2 2 3 37 666 193 693
1298 2 2 3 37 245 667 694
1299 2 2 3 37 668 247 695
1300 2 2 3 37 195 669 696
1301 2 2 3 37 652 691 694
1302 2 2 3 37 690 651 695
1303 2 2 3 37 689 650 693
1304 2 2 3 37 653 692 696
1305 2 2 3 37 691 244 694
1306 2 2 3 37 248 690 695
1307 2 2 3 37 192 689 693
1308 2 2 3 37 692 196 696
1309 2 2 3 37 646 671 699
$EndElements
