$MeshFormat
2.2 0 8
$EndMeshFormat
$PhysicalNames
4
2 1 "SD1G0"
2 2 "SD1D1001"
2 3 "SD2G0"
2 4 "I1-2"
$EndPhysicalNames
$Nodes
696
1 12.7 0 0
2 9.234 8.718999999999999 0
3 0 12.7 0
4 12.942 0 4.896
5 9.491 8.961 4.896
6 0 12.848 4.896
7 14.505 0 13.673
8 11.095 10.475 13.673
9 0 13.837 13.673
10 18.955 0 27.112
11 15.399 14.539 27.112
12 0 16.851 27.112
13 27.813 0 46.529
14 23.478 22.167 46.529
15 0 23.352 46.529
16 41.657 0 71.574
17 35.618 33.629 71.574
18 0 34.182 71.574
19 61.472 0 100.723
20 52.839 49.889 100.723
21 0 50.582 100.723
22 89.533 0 129.78
23 78.425 74.04600000000001 129.78
24 0 75.322 129.78
25 126.332 0 153.868
26 114.275 107.894 153.868
27 0 109.449 153.868
28 168.928 0 171.927
29 157.365 148.577 171.927
30 0 150.112 171.927
31 209.25 0 183.83
32 198.328 187.253 183.83
33 0 189.208 183.83
34 242.824 0 190.966
35 231.486 218.558 190.966
36 0 222.068 190.966
37 265.156 0 194.164
38 252.133 238.053 194.164
39 0 244.086 194.164
40 0 0 194.164
41 0 0 0
42 0 0 34.164
43 266 0 194.164
44 276 0 184.164
45 276 0 44.164
46 266 0 34.164
47 0 245 194.164
48 0 255 184.164
49 0 255 44.164
50 0 245 34.164
51 266 245 194.164
52 276 245 184.164
53 276 245 44.164
54 266 245 34.164
55 266 255 184.164
56 266 255 44.164
57 10.94795189741936 4.81894725419082 0
58 5.154275611319151 10.63932048696648 0
59 11.182878207454 4.929811381455903 4.895999999999999
60 5.320504165973754 10.86729216478718 4.896
61 12.67447693529142 5.655843902507788 13.673
62 6.365073870413574 12.31148928019804 13.673
63 16.82839063306615 7.727148239627618 27.112
64 9.132909378989954 16.3062488337137 27.11199999999999
65 13.14715606904088 12.41272357448469 20.08074289308557
66 16.62676916989581 0 20.08074289308534
67 0 15.27408141080893 20.08074289311919
68 24.95908882182816 11.71065367338784 46.52900000000001
69 14.19596797941599 24.09496114426696 46.529
70 19.23757147723374 18.16328805896014 36.33759009449777
71 23.16369738152442 0 36.3375900944976
72 0 19.93981707805825 36.3375900945481
73 38.90927712331965 11.82825476572593 71.574
74 36.17156532315568 23.65882108875739 71.57399999999998
75 28.86972283884608 36.75821084619457 71.574
76 14.43397626424841 35.48021698305075 71.57400000000001
77 29.21815933774714 27.58658042250887 58.37103382321886
78 34.35886209816906 0 58.37103382321904
79 0 28.47275169918717 58.37103382328188
80 57.61380182388609 17.55925948075745 100.723
81 53.76846469302769 35.12132805540546 100.723
82 42.54203178939672 54.31717036988284 100.723
83 21.26982349860658 52.46341975686001 100.723
84 43.78493288674233 41.34018568831254 85.3976993621539
85 51.05411835263932 0 85.3976993621541
86 0 41.95957966106685 85.3976993622218
87 86.11217244208591 19.62088266134857 129.78
88 82.67960607586136 39.23971872830346 129.78
89 79.29402655197711 58.86669593445053 129.78
90 69.30773222244802 80.10130358853125 129.78
91 46.19963465766382 78.5907963945117 129.78
92 23.10100783402684 76.93941643759062 129.78
93 65.0857747236621 61.45178187287992 114.6311737335046
94 74.90343693897759 0 114.6311737335046
95 0 62.42383563921707 114.6311737335784
96 123.2331702155081 28.84043650906933 153.868
97 120.1329862505339 57.68072898633734 153.868
98 117.0378146220051 86.52155921966735 153.868
99 104.2705489730255 114.6774041881302 153.868
100 78.19648979009314 113.5056914073915 153.868
101 52.13059794001744 112.1610064369562 153.868
102 26.0663725292961 110.7842383618636 153.868
103 95.81662466227525 90.46641036453815 141.4656193825631
104 107.3850054657433 0 141.46561938256
105 0 91.87775941011314 141.4656193826239
106 167.5546923390513 26.80053459620128 171.927
107 166.1981112736097 53.60192428295087 171.927
108 164.839413012039 80.4032060953504 171.927
109 163.457673384939 107.2033077798932 171.927
110 161.9931037463219 133.9989721281629 171.927
111 145.9247237461125 155.2965595724458 171.927
112 116.7346354159292 154.4166380106636 171.927
113 87.54994338471322 153.368762188156 171.927
114 58.36694242410972 152.2746403465496 171.927
115 29.18409584646991 151.176386063467 171.927
116 128.2494164320049 121.0878079299897 159.724671764808
117 142.6092125401814 134.6454682936226 165.7428559819711
118 147.1955270199273 0 162.7133008370003
119 0 129.3657433377795 162.7133008370499
120 208.7044744915203 29.23932583656218 183.83
121 208.1895855697465 58.47921294322222 183.83
122 207.6789389669006 87.71917386014987 183.83
123 207.148941813611 116.9587903453104 183.83
124 206.5611982961477 146.1972921884369 183.83
125 205.7761539515088 175.430940656038 183.83
126 186.6372503557246 193.5908831065198 183.83
127 155.5277499028224 193.0183511949101 183.83
128 124.4212781190406 192.2947858685101 183.83
129 93.31587099136063 191.5265288954992 183.83
130 62.21083581110778 190.7433302913066 183.83
131 31.10571508267375 189.963593115504 183.83
132 177.580668397226 167.6640100073508 177.8012548380778
133 188.8273282013945 0 177.8012548380834
134 0 169.4062843947629 177.8012548381129
135 242.638789725397 34.33974056192817 190.966
136 242.4968989676721 68.67969419799158 190.966
137 242.3609561091329 103.0196719727597 190.966
138 242.197535594879 137.3595283556388 190.966
139 241.9520573550958 171.6988773739481 190.966
140 241.4238403305794 206.0346484300116 190.966
141 220.9622729744027 224.5883579917593 190.966
142 189.3948937257705 224.3786962999703 190.966
143 157.8285889002022 224.0357643185519 190.966
144 126.2627358217563 223.6529520072513 190.966
145 94.69709089806867 223.2535442136203 190.966
146 63.13150440246289 222.8494421193888 190.966
147 31.56585501951595 222.4502548905885 190.966
148 214.7854539346188 202.7907464088076 187.3718418263297
149 264.9646800637782 32.81788577132478 194.164
150 264.8167596647195 65.63600256943347 194.164
151 264.6812302529137 98.45417367650464 194.164
152 264.5332246854449 131.2722909784019 194.164
153 264.3416888924386 164.0901773321568 194.164
154 264.0449137063859 196.9072555212407 194.164
155 263.3752979616979 229.7180618427033 194.164
156 240.1635027416531 244.0385336340449 194.164
157 205.8547243319692 244.1783309221003 194.164
158 171.5456028157815 244.200510789369 194.164
159 137.2364761290843 244.1871797483944 194.164
160 102.9273578115478 244.1590663269981 194.164
161 68.61824296429653 244.1267695662258 194.164
162 34.30912394570619 244.0988475355865 194.164
163 232.0115000000569 0 194.164
164 198.8670000001583 0 194.164
165 165.7225000002652 0 194.164
166 132.5780000003444 0 194.164
167 99.433500000268 0 194.164
168 66.28900000018052 0 194.164
169 33.14450000009305 0 194.164
170 0 34.86942857135872 194.164
171 0 69.73885714267941 194.164
172 0 104.6082857140011 194.164
173 0 139.4777142854254 194.164
174 0 174.3471428569596 194.164
175 0 209.2165714284786 194.164
176 6.349999999983785 0 0
177 0 6.350000000015788 0
178 273.0710678303063 0 191.2350677934246
179 276 0 160.8306666666435
180 276 0 137.4973333332871
181 276 0 114.1640000000666
182 276 0 90.83066666671292
183 276 0 67.49733333335644
184 273.0710677963052 0 37.09293217257425
185 241.8181818181818 0 34.164
186 217.6363636363636 0 34.164
187 193.4545454545454 0 34.164
188 169.2727272727273 0 34.164
189 145.0909090909091 0 34.164
190 120.9090909090909 0 34.164
191 96.72727272727272 0 34.164
192 72.54545454545453 0 34.164
193 48.36363636363632 0 34.164
194 24.18181818181813 0 34.164
195 0 252.0710678378863 191.2350677858446
196 0 255 160.8306666666435
197 0 255 137.4973333332871
198 0 255 114.1640000000666
199 0 255 90.83066666671292
200 0 255 67.49733333335644
201 0 252.0710677851673 37.09293216143639
202 0 220.5000000001449 34.164
203 0 196.0000000002898 34.164
204 0 171.5000000004347 34.164
205 0 147.0000000005795 34.164
206 0 122.5000000006939 34.164
207 0 98.00000000055735 34.164
208 0 73.50000000041803 34.164
209 0 49.00000000027867 34.164
210 0 24.50000000013935 34.164
211 24.18181818179863 245 194.164
212 48.36363636356673 245 194.164
213 72.54545454531063 245 194.164
214 96.7272727270545 245 194.164
215 120.9090909087984 245 194.164
216 145.0909090906347 245 194.164
217 169.2727272725077 245 194.164
218 193.4545454543808 245 194.164
219 217.6363636362539 245 194.164
220 241.8181818181269 245 194.164
221 273.0710678303063 245 191.2350677934246
222 276 245 160.8306666666435
223 276 245 137.4973333332871
224 276 245 114.1640000000666
225 276 245 90.83066666671292
226 276 245 67.49733333335644
227 273.0710677963052 245 37.09293217257425
228 241.8181818181818 245 34.164
229 217.6363636363636 245 34.164
230 193.4545454545454 245 34.164
231 169.2727272727273 245 34.164
232 145.0909090909091 245 34.164
233 120.9090909090909 245 34.164
234 96.72727272727272 245 34.164
235 72.54545454545453 245 34.164
236 48.36363636363632 245 34.164
237 24.18181818181813 245 34.164
238 24.18181818179863 255 184.164
239 48.36363636356673 255 184.164
240 72.54545454531063 255 184.164
241 96.7272727270545 255 184.164
242 120.9090909087984 255 184.164
243 145.0909090906347 255 184.164
244 169.2727272725077 255 184.164
245 193.4545454543808 255 184.164
246 217.6363636362539 255 184.164
247 241.8181818181269 255 184.164
248 266 255 160.8306666666435
249 266 255 137.4973333332871
250 266 255 114.1640000000666
251 266 255 90.83066666671292
252 266 255 67.49733333335644
253 241.8181818181818 255 44.164
254 217.6363636363636 255 44.164
255 193.4545454545454 255 44.164
256 169.2727272727273 255 44.164
257 145.0909090909091 255 44.164
258 120.9090909090909 255 44.164
259 96.72727272727272 255 44.164
260 72.54545454545453 255 44.164
261 48.36363636363632 255 44.164
262 24.18181818181813 255 44.164
263 266 252.0710678378863 191.2350677858446
264 273.0710677943634 252.0710678293676 184.164
265 273.0710677943634 252.0710678293676 44.164
266 266 252.0710678283036 37.09293220457262
267 266 24.49999999990228 194.164
268 266 48.9999999997838 194.164
269 266 73.49999999968361 194.164
270 266 97.99999999962731 194.164
271 266 122.4999999995738 194.164
272 266 146.9999999996568 194.164
273 266 171.4999999997426 194.164
274 266 195.9999999998284 194.164
275 266 220.4999999999142 194.164
276 276 24.49999999990228 184.164
277 276 48.9999999997838 184.164
278 276 73.49999999968361 184.164
279 276 97.99999999962731 184.164
280 276 122.4999999995738 184.164
281 276 146.9999999996568 184.164
282 276 171.4999999997426 184.164
283 276 195.9999999998284 184.164
284 276 220.4999999999142 184.164
285 276 24.49999999990228 44.164
286 276 48.9999999997838 44.164
287 276 73.49999999968361 44.164
288 276 97.99999999962731 44.164
289 276 122.4999999995738 44.164
290 276 146.9999999996568 44.164
291 276 171.4999999997426 44.164
292 276 195.9999999998284 44.164
293 276 220.4999999999142 44.164
294 266 24.49999999990228 34.164
295 266 48.9999999997838 34.164
296 266 73.49999999968361 34.164
297 266 97.99999999962731 34.164
298 266 122.4999999995738 34.164
299 266 146.9999999996568 34.164
300 266 171.4999999997426 34.164
301 266 195.9999999998284 34.164
302 266 220.4999999999142 34.164
303 10.33240977216672 6.901417362595756 2.448792962674513
304 7.382368019486054 9.922436350467525 2.446384564638139
305 12.08120164007736 4.897692725567044 9.379170236055234
306 5.256535724093682 11.77727805851891 9.3536447644357
307 16.40621610828168 4.297470764495688 23.1338721978767
308 14.17930296248337 5.9379966181904 18.14398051847279
309 14.92371713025947 9.454894769881717 23.11890133857098
310 6.484461305105667 13.72048034548841 17.99355771384516
311 4.820263665316756 15.47346488259092 23.14559190469345
312 10.08446099633908 14.84825252119325 22.86941875583283
313 19.39847049189461 6.533298495179779 31.87664060079703
314 20.98492742925732 11.89069756741608 38.1838817447683
315 8.975008067759232 18.52124744716647 32.57081976415772
316 9.902595426709174 21.13798530962161 39.29137207274233
317 16.97169349993669 22.17326635030575 41.45782398082351
318 28.35077222759156 18.20703543085707 55.34481520889364
319 29.88288833965859 9.074693854197228 54.1978499764227
320 33.15590842668096 14.80766280989887 62.50552491058196
321 21.33489785720412 30.9389639652812 60.2911380485561
322 9.905473490574863 30.45336223671946 61.1769761323323
323 43.4902922586446 14.85176820643612 79.25296249902399
324 49.24086676371269 22.1582845289899 90.01407120111197
325 41.96353482669051 27.81116931466886 81.28970904026164
326 37.67013550950865 49.97270062718671 93.72628570798381
327 28.97822867653413 45.16347648937366 86.4956540795468
328 15.59167000109246 43.80602212072375 86.21857784936964
329 67.24660941832579 30.48098161286013 112.9003237827459
330 61.93821273184722 43.97394131619156 110.3068578320691
331 71.14882313400108 46.05957043577286 119.6243459249902
332 78.15659423161753 17.52209571968936 121.3377900686661
333 68.20443472656649 13.76511452189473 110.5410237518121
334 25.02417828658237 66.38260379595481 117.0279070143721
335 45.03621158754174 66.22335141993834 114.9671695113524
336 59.74858498390853 72.95797565494709 121.8667210601549
337 97.1275042234586 52.43086969414221 139.5813422975811
338 97.27512513808644 68.85117524591708 141.000409177754
339 100.8937464350918 35.01627663482826 140.3894894122135
340 102.6535965135483 16.83615413203997 139.9063689528305
341 108.3534758141212 81.25619058075353 148.3976127933288
342 44.14712294036978 93.70867337636136 140.8743685067575
343 69.7316702341721 96.91052275964739 142.1030219476567
344 91.0436671689462 104.674995023074 146.9848976146491
345 19.84719904916198 96.86091471785628 144.1858265131925
346 147.4859109686317 113.5986107337948 166.0093367713655
347 150.6966021785329 94.4184318373625 166.7436680899668
348 133.8936087989138 98.56304105186997 160.5101694038469
349 145.9507602111176 18.44004435342587 162.7727147142257
350 142.0948266401617 72.74036893326071 162.8516099868721
351 143.9845040508812 44.24877771879031 162.7577690988094
352 97.65238097643621 134.362038151034 163.062273835395
353 71.24627826575922 133.2938215826146 163.0851860657525
354 48.83691329001348 134.7881279024603 164.2046382502467
355 121.6564135003065 136.9598577761495 163.8444023746296
356 26.37547574616552 131.4869374806823 163.1578491280486
357 188.5714057942701 16.79729082331585 177.8904751437719
358 187.7805350111751 42.71025705740737 177.9039034316957
359 187.0297353842881 67.75372492983684 177.917640572841
360 182.6986401624947 89.88714305215737 176.9224011304822
361 188.2995611306364 107.9953344359752 178.6172656047649
362 180.1401827628507 133.1087721374224 176.6642246451987
363 193.9878784981131 148.4108082369131 180.4821803963976
364 47.2651457506547 171.5753189998048 178.0319049861784
365 18.2964136479912 170.4391839826751 177.9523182950242
366 103.4674927600048 173.102433454999 177.9738793857601
367 74.4381888263668 172.5649640787535 178.0809775243468
368 160.7524408636475 174.0471986732677 177.7819342268007
369 133.7189876853272 173.8422861486365 177.9306983573273
370 217.1511012178354 193.2794605316918 186.6894467023437
371 225.8520039870197 15.45474048900933 187.3980000000001
372 228.0132620417441 186.1748627611918 188.2389194005864
373 203.7381203534966 209.098363259057 187.398
374 79.83736248999475 207.0889721733372 187.3980000000001
375 51.55910589717878 206.6158217023378 187.4092887760466
376 14.32784196529223 205.8883588156575 187.398
377 142.8129286625258 122.695707842176 194.164
378 76.85421291708933 79.5364405881422 194.164
379 78.59964840482228 165.4002751018174 194.164
380 187.8138320916201 68.54962069079301 194.164
381 192.9445903012573 173.3502123836125 194.164
382 134.6737822957852 58.56642062586795 194.164
383 136.0702323614616 187.337498363228 194.164
384 231.1035571884155 205.2163222695521 194.164
385 211.2598436797874 128.3599082493459 194.164
386 49.7177055702889 121.8966145090146 194.164
387 101.6070747657634 118.264421285262 194.164
388 45.13947740975479 44.0930375111943 194.164
389 44.30755149108195 194.8343710239584 194.164
390 222.4484122422888 38.91561542322153 194.164
391 98.64726850846863 41.00462253872627 194.164
392 99.40668409989306 203.7330502865388 194.164
393 168.2566574225808 40.70899336271795 194.164
394 169.7699512220788 203.3704968495315 194.164
395 39.35473147477156 83.73984071261793 194.164
396 238.6766337120798 82.89549264783788 194.164
397 39.58416719246473 159.7047969849986 194.164
398 224.8078580662597 159.7760859340876 194.164
399 176.9977050233717 105.8012910586287 194.164
400 158.6526201088507 156.5886251463988 194.164
401 115.0062243836252 151.6369680287183 194.164
402 120.3612548239589 93.02911540116953 194.164
403 162.194650171858 75.72501687674244 194.164
404 199.8305221861613 213.1626568002164 194.164
405 181.6425845642983 138.659071796182 194.164
406 123.2558277386286 24.18752652084579 194.164
407 246.2967411361714 221.7465739574527 194.164
408 126.2368453435639 214.9018775402918 194.164
409 238.4744514149766 113.1289029632257 194.164
410 70.91114732447788 27.82420766963729 194.164
411 196.768456735797 30.21812483037301 194.164
412 67.72528633938124 216.5595832968564 194.164
413 239.6732482899018 182.9759632705676 194.164
414 102.9580615804715 69.38745556457735 194.164
415 75.39585893436789 137.2734913972731 194.164
416 103.361405218925 176.6845243965209 194.164
417 73.0714546806562 105.9998609498932 194.164
418 210.0214527003423 94.23775199484844 194.164
419 22.82492059881989 122.0019885569546 194.164
420 25.62190134434476 26.03669548442796 194.164
421 27.69435237201892 216.7628717379332 194.164
422 216.6423176034307 187.4658844642339 194.164
423 149.3719225413494 22.2323741809539 194.164
424 224.1648879145046 226.9732142022378 194.164
425 240.9303680968306 24.29014414018345 194.164
426 20.46181957224285 52.14572683958794 194.164
427 20.4731168861735 191.5713442480259 194.164
428 241.2227824818007 51.36108646915899 194.164
429 146.1352556867569 94.73746294593553 194.164
430 164.3593484984121 180.1617081856927 194.164
431 150.5349525309701 222.4838444939718 194.164
432 69.42708606655552 55.18020770244701 194.164
433 203.1787492572246 150.8997036983607 194.164
434 95.12147823017882 93.82771545759176 194.164
435 68.48302906304602 189.6098829561233 194.164
436 48.2212052157702 19.59078813305191 194.164
437 241.5906907589077 138.6230655597854 194.164
438 217.8212539813486 18.72984500123248 194.164
439 215.4998411111079 63.6113782629529 194.164
440 5.226661330085079 5.230427322426666 0
441 272.2454942018759 13.4375977349276 191.9738528906973
442 272.2510063870955 231.5629647708603 191.9694416369921
443 276 70.56617525156844 114.1408760979688
444 276 175.8585744979118 112.9381378026544
445 276 123.0270702658771 129.1137986926152
446 276 109.4927926977042 85.95150808817243
447 276 40.94541116004055 143.5629849485807
448 276 41.53098410279984 83.42531829029427
449 276 204.0545888399347 143.5629849486216
450 276 204.091503245989 84.16835247894592
451 276 148.0939110509229 80.59717610513434
452 276 86.16431042598002 148.6526235858442
453 276 156.1581712822528 147.249649658248
454 276 75.82424115338925 77.38804031027938
455 276 31.02700570206137 114.164
456 276 213.9729942979032 114.164
457 276 173.6071990371194 73.84453779210365
458 276 146.0284167704928 110.2554993017461
459 276 99.36964727656419 114.8861051202045
460 276 133.0432070414023 156.4333837370575
461 276 63.49532529710128 159.836325838003
462 276 181.3869529420133 160.2187741867579
463 276 125.2089993719263 70.11517394691523
464 276 22.99161515482247 159.3218735527285
465 276 22.81075584716276 68.72959512503868
466 276 222.0083848451726 159.3218735527373
467 276 221.7828854547229 69.02095343637511
468 276 121.3544850548984 105.6240013898698
469 276 94.97769496722117 67.42299548841108
470 276 105.5721787962005 163.96634440025
471 276 64.58812824875952 136.1294810932554
472 276 179.1481486787903 135.8341164300767
473 276 58.74955111075598 66.22852143863456
474 276 21.4757990858266 133.7589037784188
475 276 223.5242009141535 133.7589037784306
476 276 21.47579908582656 94.56909622158106
477 276 223.5242009141536 94.56909622156927
478 276 85.09458490087374 96.11758961196394
479 276 155.7641969899523 61.63029163017726
480 276 49.06735522830827 104.2671706948541
481 276 200.1946174072434 102.9183881878016
482 276 166.0276737219721 93.19717797682502
483 276 194.8210162642464 65.49734943562179
484 276 43.06509174795051 164.4465535001891
485 276 201.9287794639896 164.4664643888376
486 276 85.34636290371854 168.1566587648194
487 276 157.8176662530136 166.4459615164127
488 276 159.7666413176377 128.0560282959246
489 276 143.0433281993064 134.1591194656267
490 276 84.7557894526157 129.8306500730262
491 276 107.9755553109643 142.7741383819818
492 276 46.27831244609412 124.3372361021796
493 276 197.1701642340889 123.3202037411534
494 276 63.47214862461591 90.26125274066584
495 276 111.009577880392 58.48044674264613
496 276 128.8544982638538 87.91309574661081
497 276 185.7667640290803 88.76065727899204
498 276 39.12133396987787 60.50317897979327
499 276 79.04456823875651 60.68367966302748
500 276 12.12614623200209 172.399145526554
501 276 11.82768896176626 56.13873211459876
502 276 232.8738537679897 172.3991455265546
503 276 232.9306459701236 56.02500596553264
504 276 139.7134214824064 60.13412833644536
505 274.2962276855368 231.5436022140875 38.58075666035126
506 274.248011217253 13.4602413373251 38.5097705246365
507 133 122.5 34.164
508 74.90196631569758 168.5184905975114 34.164
509 191.098033684301 76.48150940248826 34.164
510 191.7896718197581 171.2095183132832 34.164
511 74.21032818024079 73.79048168671662 34.164
512 136.5084823055404 184.2470237692739 34.164
513 129.4915176944595 60.7529762307248 34.164
514 52.56196922847111 122.4999999999945 34.164
515 213.4380307715291 122.5000000000038 34.164
516 44.10667150462771 201.3319912090108 34.164
517 221.8933284953798 43.6680087909892 34.164
518 221.8933284954165 201.331991209008 34.164
519 44.10667150457316 43.6680087909926 34.164
520 92.90080486990389 130.6584411895185 34.164
521 173.0991951300957 114.3415588104809 34.164
522 96.07593429038572 204.7840928093466 34.164
523 169.9240657096141 40.21590719065288 34.164
524 171.7761119551561 202.9212112149598 34.164
525 94.22388804484345 42.07878878504038 34.164
526 37.08567768958177 159.8162806453699 34.164
527 37.34927109678954 87.04513129887364 34.164
528 228.6507289031728 157.9548687011419 34.164
529 228.9143223104253 85.18371935465527 34.164
530 155.447108956091 154.2732344161261 34.164
531 110.5528910439107 90.72676558387293 34.164
532 119.5935326797135 154.2732344161261 34.164
533 146.406467320286 90.72676558387289 34.164
534 132.9999999999992 221.4981760340331 34.164
535 133.0000000000007 23.50182396596622 34.164
536 76.28124232561049 106.1453656649037 34.164
537 189.7187576743877 138.8546343350956 34.164
538 70.04568147758464 215.5535463114512 34.164
539 195.9543185224181 29.4464536885501 34.164
540 195.8823864074097 215.3538075584166 34.164
541 70.11761359258659 29.64619244158517 34.164
542 101.7306159737415 177.2133288287135 34.164
543 164.2693840262573 67.78667117128548 34.164
544 25.93786388930292 111.1938507100718 34.164
545 240.0621361106516 133.8061492899681 34.164
546 69.24930289074176 143.8060375369912 34.164
547 196.7506971092582 101.1939624630071 34.164
548 24.48241059863047 181.9759636941629 34.164
549 241.5175894014105 63.02403630583046 34.164
550 241.507787183492 181.90674357964 34.164
551 24.49221281645626 63.09325642035589 34.164
552 157.4009179510997 177.9162592680593 34.164
553 108.599082048901 67.08374073193971 34.164
554 25.656043298937 219.3610363660956 34.164
555 240.3439567010624 25.63896363390282 34.164
556 240.3439567010614 219.3610363661048 34.164
557 25.65604329893898 25.63896363389314 34.164
558 25.84780481337311 137.7673692819743 34.164
559 240.1521951866293 107.2326307181235 34.164
560 112.8167916785525 114.2141912505901 34.164
561 153.1832083214478 130.7858087494095 34.164
562 52.2949791779736 177.4180207149725 34.164
563 213.7050208220342 67.58197928503024 34.164
564 213.3328724106391 176.4512832719995 34.164
565 52.66712758934027 68.5487167280026 34.164
566 110.3505945216376 223.7718180005095 34.164
567 155.6494054783622 21.22818199949014 34.164
568 155.6494054783591 223.7718180005109 34.164
569 110.3505945216412 21.22818199948865 34.164
570 74.6604214856722 192.0389244768158 34.164
571 191.3395785143285 52.96107552318431 34.164
572 195.2236403297783 191.3734293513083 34.164
573 70.77635967021587 53.62657064869236 34.164
574 95.80668628618849 151.4512077916248 34.164
575 170.1933137138109 93.54879220837424 34.164
576 61.11010986770509 93.06253170648651 34.164
577 204.8898901322796 151.9374682935156 34.164
578 48.4903640988653 222.8272146467429 34.164
579 217.5096359011389 22.17278535325839 34.164
580 217.5096359011594 222.8272146467347 34.164
581 48.4903640988344 22.17278535326718 34.164
582 89.14898751246704 226.8218914242615 34.164
583 176.8510124875334 18.17810857573862 34.164
584 177.2070353136395 226.4093673547775 34.164
585 88.79296468635971 18.59063264522284 34.164
586 120.8644355347246 197.9393069350191 34.164
587 145.135564465275 47.06069306498002 34.164
588 146.9136252194435 201.3933148073036 34.164
589 119.0863747805566 43.60668519269534 34.164
590 136.3400994911253 143.450915703878 34.164
591 129.6599005088751 101.5490842961214 34.164
592 137.6118739504563 164.4694312137116 34.164
593 128.3881260495439 80.53056878628736 34.164
594 16.99844500999655 159.3818960369492 34.164
595 249.0015549900313 85.61810396318627 34.164
596 248.4441304394633 158.4335523140298 34.164
597 17.55586956050974 86.56644768605535 34.164
598 176.9928196825532 157.7511649754964 34.164
599 89.00718031744657 87.24883502450325 34.164
600 116.4638949873327 134.2377141808884 34.164
601 149.536105012667 110.7622858191108 34.164
602 48.3497089131175 144.6857990182766 34.164
603 217.6502910868833 100.314200981747 34.164
604 74.40152261552578 125.0364712226616 34.164
605 191.5984773844742 119.9635287773375 34.164
606 44.45820935205722 104.1674769916401 34.164
607 221.5417906479036 140.8325230083653 34.164
608 18.89924973174843 201.0128477888821 34.164
609 247.1007502682859 43.98715221109454 34.164
610 247.1007502684388 201.0128477889964 34.164
611 18.89924973151799 43.98715221097737 34.164
612 56.77512268904751 159.2877107158181 34.164
613 209.2248773109499 85.71228928418459 34.164
614 122.4387350117875 174.7791663686367 34.164
615 143.5612649882119 70.22083363136223 34.164
616 178.074014788418 180.4453017433532 34.164
617 87.92598521158139 64.55469825664656 34.164
618 173.3399278581749 135.994988343991 34.164
619 92.66007214182498 109.0050116560083 34.164
620 252.6577075625505 13.48513161472322 34.164
621 13.3422924374702 231.5148683852775 34.164
622 252.6577075626325 231.5148683852753 34.164
623 13.3422924373436 13.48513161472531 34.164
624 252.7242531851907 250.7414241477983 192.3515545039455
625 13.27574749477653 250.7414249930135 192.3515539112484
626 274.0889014210675 250.8795980985312 56.86129750531998
627 274.0889014299444 250.8795980863188 171.4667025578039
628 270.4475395733235 249.4475395967546 36.38976156276244
629 13.27574723113273 253.1875543953765 38.42257569737687
630 252.7242525936182 250.7414244713965 35.97644572297386
631 83.36717028730583 255 114.2619457417144
632 182.6481535393326 255 114.2978180469583
633 132.2229495419095 255 96.47869478027991
634 45.79275208215692 255 138.4338806244926
635 220.2072479177704 255 138.4338806244272
636 219.7693782776037 255 89.86383028456831
637 46.23062172232581 255 89.86383028452539
638 133.0597031949469 255 143.2994997021096
639 95.24266842831268 255 80.15850699890419
640 167.2654321389694 255 78.96634092479476
641 96.43349283130857 255 147.6507243917425
642 170.1355469238804 255 147.4710238993957
643 29.32782074296475 255 114.1639999999992
644 236.6721792570451 255 114.1640000000017
645 194.3314031672954 255 74.70292545405293
646 70.53483689721398 255 73.67815864017784
647 154.5739724844555 255 115.2454450451858
648 114.8590119057423 255 117.3618481979186
649 195.8447054827527 255 155.0699864609938
650 70.25013447626026 255 155.0999365431072
651 26.68305454125609 255 157.3745644120701
652 239.3169454587091 255 70.95343558796802
653 239.3169454587084 255 157.3745644120253
654 26.68305454125793 255 70.95343558793385
655 57.63252465008296 255 114.164000000003
656 208.3674753497317 255 114.1639999999973
657 132.7610600390235 255 67.72642714693757
658 118.7287757015021 255 159.970794610577
659 147.2712242980097 255 159.9707946105553
660 21.08425365454649 255 135.3151660076608
661 244.9157463454586 255 135.3151660076432
662 21.11084923521639 255 93.01099427593766
663 244.8891507647851 255 93.0109942759516
664 75.22619104998563 255 133.0137368480066
665 191.1067547509189 255 133.0691153947348
666 217.0487815874382 255 66.80724913960363
667 48.9512184124795 255 66.80724913955908
668 73.44922514253936 255 95.86916678217241
669 196.3030285357198 255 97.88089480142926
670 217.6377927220613 255 161.9974351883108
671 48.36220727775561 255 161.9974351884379
672 108.762838143235 255 63.52662977489499
673 154.5357547954893 255 63.46555659271493
674 154.9047980837169 255 94.42379561545974
675 101.8870773519376 255 101.8664094899441
676 88.63716575725391 255 61.69459784892237
677 176.316110467074 255 61.66195892859027
678 87.23245597790354 255 165.8231360601752
679 178.7675440217475 255 165.8231360601269
680 97.8186115179392 255 127.6809960794075
681 151.5258529463873 255 136.3055517635217
682 114.1753187008837 255 81.95133363819217
683 133.3858816639355 255 124.5228632928511
684 169.437399292046 255 128.9779833366364
685 114.6716301673596 255 137.8272071209861
686 175.6873712801524 255 96.14306166361575
687 147.4333849616692 255 80.2028931711435
688 132.9999999997362 255 172.067397305283
689 13.63164779220398 255 168.4275828555946
690 252.3683522077667 255 168.4275828555866
691 252.3683522077749 255 59.90041714442082
692 13.63164779220775 255 59.90041714440363
693 12.05423568562899 255 149.1639999999652
694 253.9457643143654 255 149.1639999999653
695 253.9457643143636 255 79.16400000003468
696 12.05423568562878 255 79.16400000003468
$EndNodes
$Elements
1304
1 2 2 1 1 1 4 59
2 2 2 1 1 5 303 59
3 2 2 1 1 59 57 1
4 2 2 1 1 57 303 2
5 2 2 1 1 303 5 2
6 2 2 1 1 303 57 59
7 2 2 1 2 2 304 58
8 2 2 1 2 6 3 58
9 2 2 1 2 60 304 5
10 2 2 1 2 6 58 60
11 2 2 1 2 304 2 5
12 2 2 1 2 304 60 58
13 2 2 1 3 61 8 305
14 2 2 1 3 8 5 305
15 2 2 1 3 305 59 4
16 2 2 1 3 7 305 4
17 2 2 1 3 59 305 5
18 2 2 1 3 61 305 7
19 2 2 1 4 8 62 306
20 2 2 1 4 8 306 5
21 2 2 1 4 60 306 6
22 2 2 1 4 306 9 6
23 2 2 1 4 9 306 62
24 2 2 1 4 306 60 5
25 2 2 1 5 307 309 308
26 2 2 1 5 308 309 65
27 2 2 1 5 66 10 307
28 2 2 1 5 307 10 63
29 2 2 1 5 65 8 308
30 2 2 1 5 308 8 61
31 2 2 1 5 308 66 307
32 2 2 1 5 66 308 7
33 2 2 1 5 11 309 63
34 2 2 1 5 308 61 7
35 2 2 1 5 309 307 63
36 2 2 1 5 309 11 65
37 2 2 1 6 310 9 62
38 2 2 1 6 67 310 311
39 2 2 1 6 67 9 310
40 2 2 1 6 311 310 312
41 2 2 1 6 312 310 65
42 2 2 1 6 8 310 62
43 2 2 1 6 8 65 310
44 2 2 1 6 311 312 64
45 2 2 1 6 312 11 64
46 2 2 1 6 11 312 65
47 2 2 1 6 67 311 12
48 2 2 1 6 311 64 12
49 2 2 1 7 71 314 313
50 2 2 1 7 71 13 68
51 2 2 1 7 71 313 10
52 2 2 1 7 313 63 10
53 2 2 1 7 68 314 71
54 2 2 1 7 313 314 11
55 2 2 1 7 313 11 63
56 2 2 1 7 70 11 314
57 2 2 1 7 314 14 70
58 2 2 1 7 14 314 68
59 2 2 1 8 315 70 316
60 2 2 1 8 69 316 317
61 2 2 1 8 317 316 70
62 2 2 1 8 72 316 15
63 2 2 1 8 316 69 15
64 2 2 1 8 70 315 11
65 2 2 1 8 315 64 11
66 2 2 1 8 315 12 64
67 2 2 1 8 317 14 69
68 2 2 1 8 72 12 315
69 2 2 1 8 72 315 316
70 2 2 1 8 14 317 70
71 2 2 1 9 78 16 73
72 2 2 1 9 74 17 77
73 2 2 1 9 68 319 318
74 2 2 1 9 68 318 14
75 2 2 1 9 14 318 77
76 2 2 1 9 77 320 74
77 2 2 1 9 320 77 318
78 2 2 1 9 318 319 320
79 2 2 1 9 320 78 73
80 2 2 1 9 319 78 320
81 2 2 1 9 74 320 73
82 2 2 1 9 78 319 13
83 2 2 1 9 319 68 13
84 2 2 1 10 14 77 321
85 2 2 1 10 14 321 69
86 2 2 1 10 79 322 18
87 2 2 1 10 79 15 69
88 2 2 1 10 322 76 18
89 2 2 1 10 69 321 322
90 2 2 1 10 76 321 75
91 2 2 1 10 321 76 322
92 2 2 1 10 17 321 77
93 2 2 1 10 321 17 75
94 2 2 1 10 322 79 69
95 2 2 1 11 85 19 80
96 2 2 1 11 81 20 84
97 2 2 1 11 323 16 85
98 2 2 1 11 324 323 85
99 2 2 1 11 73 16 323
100 2 2 1 11 74 323 325
101 2 2 1 11 323 74 73
102 2 2 1 11 324 84 325
103 2 2 1 11 84 324 81
104 2 2 1 11 325 323 324
105 2 2 1 11 325 17 74
106 2 2 1 11 324 85 80
107 2 2 1 11 81 324 80
108 2 2 1 11 17 325 84
109 2 2 1 12 326 83 327
110 2 2 1 12 83 326 82
111 2 2 1 12 75 17 84
112 2 2 1 12 86 18 76
113 2 2 1 12 328 327 83
114 2 2 1 12 328 21 86
115 2 2 1 12 327 328 75
116 2 2 1 12 327 84 326
117 2 2 1 12 328 83 21
118 2 2 1 12 327 75 84
119 2 2 1 12 326 20 82
120 2 2 1 12 75 328 76
121 2 2 1 12 328 86 76
122 2 2 1 12 20 326 84
123 2 2 1 13 329 331 330
124 2 2 1 13 330 331 93
125 2 2 1 13 88 329 332
126 2 2 1 13 89 23 93
127 2 2 1 13 88 332 87
128 2 2 1 13 94 22 332
129 2 2 1 13 332 22 87
130 2 2 1 13 332 329 333
131 2 2 1 13 80 333 329
132 2 2 1 13 332 333 94
133 2 2 1 13 329 330 81
134 2 2 1 13 330 20 81
135 2 2 1 13 329 81 80
136 2 2 1 13 330 93 20
137 2 2 1 13 331 89 93
138 2 2 1 13 331 329 88
139 2 2 1 13 94 333 19
140 2 2 1 13 333 80 19
141 2 2 1 13 89 331 88
142 2 2 1 14 24 95 334
143 2 2 1 14 82 20 93
144 2 2 1 14 92 24 334
145 2 2 1 14 334 95 83
146 2 2 1 14 335 334 82
147 2 2 1 14 95 21 83
148 2 2 1 14 82 334 83
149 2 2 1 14 91 334 335
150 2 2 1 14 92 334 91
151 2 2 1 14 336 91 335
152 2 2 1 14 335 93 336
153 2 2 1 14 23 336 93
154 2 2 1 14 336 23 90
155 2 2 1 14 335 82 93
156 2 2 1 14 336 90 91
157 2 2 1 15 104 25 96
158 2 2 1 15 337 97 338
159 2 2 1 15 97 339 96
160 2 2 1 15 339 340 96
161 2 2 1 15 96 340 104
162 2 2 1 15 341 26 103
163 2 2 1 15 26 341 98
164 2 2 1 15 87 339 88
165 2 2 1 15 97 337 339
166 2 2 1 15 88 339 337
167 2 2 1 15 338 97 341
168 2 2 1 15 23 338 103
169 2 2 1 15 98 341 97
170 2 2 1 15 87 340 339
171 2 2 1 15 337 89 88
172 2 2 1 15 341 103 338
173 2 2 1 15 337 338 89
174 2 2 1 15 340 87 22
175 2 2 1 15 338 23 89
176 2 2 1 15 104 340 22
177 2 2 1 16 90 23 103
178 2 2 1 16 90 343 342
179 2 2 1 16 90 342 91
180 2 2 1 16 105 24 92
181 2 2 1 16 344 100 343
182 2 2 1 16 343 100 101
183 2 2 1 16 102 342 101
184 2 2 1 16 342 345 92
185 2 2 1 16 345 342 102
186 2 2 1 16 105 345 27
187 2 2 1 16 345 102 27
188 2 2 1 16 101 342 343
189 2 2 1 16 343 103 344
190 2 2 1 16 343 90 103
191 2 2 1 16 26 344 103
192 2 2 1 16 344 26 99
193 2 2 1 16 92 345 105
194 2 2 1 16 342 92 91
195 2 2 1 16 344 99 100
196 2 2 1 17 346 347 109
197 2 2 1 17 109 347 108
198 2 2 1 17 29 117 110
199 2 2 1 17 116 348 346
200 2 2 1 17 116 346 117
201 2 2 1 17 118 349 25
202 2 2 1 17 349 96 25
203 2 2 1 17 348 98 350
204 2 2 1 17 106 107 351
205 2 2 1 17 348 26 98
206 2 2 1 17 349 106 351
207 2 2 1 17 350 98 97
208 2 2 1 17 346 109 110
209 2 2 1 17 97 351 350
210 2 2 1 17 347 346 348
211 2 2 1 17 347 348 350
212 2 2 1 17 350 351 107
213 2 2 1 17 28 349 118
214 2 2 1 17 106 349 28
215 2 2 1 17 116 26 348
216 2 2 1 17 117 346 110
217 2 2 1 17 108 347 350
218 2 2 1 17 108 350 107
219 2 2 1 17 351 96 349
220 2 2 1 17 97 96 351
221 2 2 1 18 352 113 353
222 2 2 1 18 29 111 117
223 2 2 1 18 353 113 114
224 2 2 1 18 100 353 101
225 2 2 1 18 116 99 26
226 2 2 1 18 354 101 353
227 2 2 1 18 354 353 114
228 2 2 1 18 99 355 352
229 2 2 1 18 116 355 99
230 2 2 1 18 355 116 117
231 2 2 1 18 355 117 111
232 2 2 1 18 356 30 119
233 2 2 1 18 30 356 115
234 2 2 1 18 27 102 119
235 2 2 1 18 353 100 352
236 2 2 1 18 352 112 113
237 2 2 1 18 355 112 352
238 2 2 1 18 356 101 354
239 2 2 1 18 115 356 354
240 2 2 1 18 101 356 102
241 2 2 1 18 352 100 99
242 2 2 1 18 356 119 102
243 2 2 1 18 111 112 355
244 2 2 1 18 115 354 114
245 2 2 1 19 357 133 31
246 2 2 1 19 32 132 125
247 2 2 1 19 357 120 358
248 2 2 1 19 120 357 31
249 2 2 1 19 107 359 108
250 2 2 1 19 107 358 359
251 2 2 1 19 108 359 360
252 2 2 1 19 108 360 109
253 2 2 1 19 358 120 121
254 2 2 1 19 359 358 121
255 2 2 1 19 106 357 358
256 2 2 1 19 122 361 360
257 2 2 1 19 123 361 122
258 2 2 1 19 106 358 107
259 2 2 1 19 122 359 121
260 2 2 1 19 122 360 359
261 2 2 1 19 362 123 363
262 2 2 1 19 362 29 110
263 2 2 1 19 362 361 123
264 2 2 1 19 363 123 124
265 2 2 1 19 29 362 132
266 2 2 1 19 363 132 362
267 2 2 1 19 361 109 360
268 2 2 1 19 357 106 28
269 2 2 1 19 109 361 362
270 2 2 1 19 363 124 125
271 2 2 1 19 109 362 110
272 2 2 1 19 132 363 125
273 2 2 1 19 133 357 28
274 2 2 1 20 364 131 365
275 2 2 1 20 365 131 33
276 2 2 1 20 126 132 32
277 2 2 1 20 366 129 367
278 2 2 1 20 367 114 113
279 2 2 1 20 368 29 132
280 2 2 1 20 134 30 365
281 2 2 1 20 365 30 115
282 2 2 1 20 365 33 134
283 2 2 1 20 369 366 112
284 2 2 1 20 366 367 113
285 2 2 1 20 112 366 113
286 2 2 1 20 367 129 130
287 2 2 1 20 367 364 114
288 2 2 1 20 367 130 364
289 2 2 1 20 131 364 130
290 2 2 1 20 364 115 114
291 2 2 1 20 128 369 127
292 2 2 1 20 368 132 126
293 2 2 1 20 366 369 128
294 2 2 1 20 369 111 368
295 2 2 1 20 369 368 127
296 2 2 1 20 368 111 29
297 2 2 1 20 111 369 112
298 2 2 1 20 127 368 126
299 2 2 1 20 366 128 129
300 2 2 1 20 364 365 115
301 2 2 1 21 122 121 136
302 2 2 1 21 148 32 370
303 2 2 1 21 370 32 125
304 2 2 1 21 136 121 135
305 2 2 1 21 34 371 31
306 2 2 1 21 120 371 135
307 2 2 1 21 138 139 124
308 2 2 1 21 123 138 124
309 2 2 1 21 140 35 148
310 2 2 1 21 122 137 123
311 2 2 1 21 137 138 123
312 2 2 1 21 135 121 120
313 2 2 1 21 371 120 31
314 2 2 1 21 124 139 125
315 2 2 1 21 122 136 137
316 2 2 1 21 372 139 140
317 2 2 1 21 370 140 148
318 2 2 1 21 372 370 125
319 2 2 1 21 371 34 135
320 2 2 1 21 139 372 125
321 2 2 1 21 370 372 140
322 2 2 1 22 32 148 373
323 2 2 1 22 141 148 35
324 2 2 1 22 32 373 126
325 2 2 1 22 146 375 374
326 2 2 1 22 374 375 130
327 2 2 1 22 374 129 145
328 2 2 1 22 146 374 145
329 2 2 1 22 129 374 130
330 2 2 1 22 33 376 36
331 2 2 1 22 147 376 131
332 2 2 1 22 376 147 36
333 2 2 1 22 376 33 131
334 2 2 1 22 375 147 131
335 2 2 1 22 147 375 146
336 2 2 1 22 130 375 131
337 2 2 1 22 126 373 142
338 2 2 1 22 141 373 148
339 2 2 1 22 373 141 142
340 2 2 1 22 142 143 126
341 2 2 1 22 126 143 127
342 2 2 1 22 128 145 129
343 2 2 1 22 144 145 128
344 2 2 1 22 127 144 128
345 2 2 1 22 143 144 127
346 2 2 1 23 149 135 34
347 2 2 1 23 154 155 140
348 2 2 1 23 153 154 139
349 2 2 1 23 35 155 38
350 2 2 1 23 153 139 138
351 2 2 1 23 139 154 140
352 2 2 1 23 152 153 138
353 2 2 1 23 137 152 138
354 2 2 1 23 151 152 137
355 2 2 1 23 150 151 136
356 2 2 1 23 136 135 150
357 2 2 1 23 149 34 37
358 2 2 1 23 140 155 35
359 2 2 1 23 136 151 137
360 2 2 1 23 150 135 149
361 2 2 1 24 160 145 144
362 2 2 1 24 162 39 147
363 2 2 1 24 35 38 141
364 2 2 1 24 147 146 162
365 2 2 1 24 160 144 159
366 2 2 1 24 162 146 161
367 2 2 1 24 159 144 143
368 2 2 1 24 161 145 160
369 2 2 1 24 159 143 158
370 2 2 1 24 142 157 158
371 2 2 1 24 156 157 141
372 2 2 1 24 147 39 36
373 2 2 1 24 143 142 158
374 2 2 1 24 161 146 145
375 2 2 1 24 141 157 142
376 2 2 1 24 141 38 156
377 2 2 4 25 377 387 401
378 2 2 4 25 156 38 407
379 2 2 4 25 387 377 402
380 2 2 4 25 379 401 415
381 2 2 4 25 162 412 421
382 2 2 4 25 401 387 415
383 2 2 4 25 162 161 412
384 2 2 4 25 400 377 401
385 2 2 4 25 165 393 411
386 2 2 4 25 160 392 412
387 2 2 4 25 412 389 421
388 2 2 4 25 155 154 407
389 2 2 4 25 383 400 401
390 2 2 4 25 393 380 411
391 2 2 4 25 399 377 405
392 2 2 4 25 167 391 406
393 2 2 4 25 391 167 410
394 2 2 4 25 377 400 405
395 2 2 4 25 171 172 395
396 2 2 4 25 173 174 397
397 2 2 4 25 397 379 415
398 2 2 4 25 395 378 432
399 2 2 4 25 164 165 411
400 2 2 4 25 411 380 439
401 2 2 4 25 394 158 404
402 2 2 4 25 380 393 403
403 2 2 4 25 379 397 435
404 2 2 4 25 382 393 423
405 2 2 4 25 151 150 396
406 2 2 4 25 381 394 404
407 2 2 4 25 393 382 403
408 2 2 4 25 395 172 419
409 2 2 4 25 157 156 424
410 2 2 4 25 161 160 412
411 2 2 4 25 388 395 432
412 2 2 4 25 401 379 416
413 2 2 4 25 386 397 415
414 2 2 4 25 378 395 417
415 2 2 4 25 173 397 419
416 2 2 4 25 397 389 435
417 2 2 4 25 392 160 408
418 2 2 4 25 395 386 417
419 2 2 4 25 386 395 419
420 2 2 4 25 397 386 419
421 2 2 4 25 167 168 410
422 2 2 4 25 394 383 431
423 2 2 4 25 406 382 423
424 2 2 4 25 166 167 406
425 2 2 4 25 400 381 405
426 2 2 4 25 391 382 406
427 2 2 4 25 158 157 404
428 2 2 4 25 382 391 414
429 2 2 4 25 383 392 408
430 2 2 4 25 393 165 423
431 2 2 4 25 392 383 416
432 2 2 4 25 151 396 409
433 2 2 4 25 381 404 422
434 2 2 4 25 394 381 430
435 2 2 4 25 383 408 431
436 2 2 4 25 409 396 418
437 2 2 4 25 399 380 403
438 2 2 4 25 395 388 426
439 2 2 4 25 382 402 429
440 2 2 4 25 414 391 432
441 2 2 4 25 154 384 407
442 2 2 4 25 156 407 424
443 2 2 4 25 389 397 427
444 2 2 4 25 390 411 439
445 2 2 4 25 171 395 426
446 2 2 4 25 397 174 427
447 2 2 4 25 396 150 428
448 2 2 4 25 383 394 430
449 2 2 4 25 385 399 405
450 2 2 4 25 378 414 432
451 2 2 4 25 398 381 422
452 2 2 4 25 405 381 433
453 2 2 4 25 153 398 413
454 2 2 4 25 398 153 437
455 2 2 4 25 160 159 408
456 2 2 4 25 385 409 418
457 2 2 4 25 149 425 428
458 2 2 4 25 385 398 437
459 2 2 4 25 403 382 429
460 2 2 4 25 158 394 431
461 2 2 4 25 380 399 418
462 2 2 4 25 399 385 418
463 2 2 4 25 381 398 433
464 2 2 4 25 392 416 435
465 2 2 4 25 377 399 429
466 2 2 4 25 400 383 430
467 2 2 4 25 398 385 433
468 2 2 4 25 169 40 420
469 2 2 4 25 38 155 407
470 2 2 4 25 40 170 420
471 2 2 4 25 416 379 435
472 2 2 4 25 381 400 430
473 2 2 4 25 383 401 416
474 2 2 4 25 150 149 428
475 2 2 4 25 402 382 414
476 2 2 4 25 175 39 421
477 2 2 4 25 39 162 421
478 2 2 4 25 384 154 413
479 2 2 4 25 37 163 425
480 2 2 4 25 149 37 425
481 2 2 4 25 153 152 437
482 2 2 4 25 425 390 428
483 2 2 4 25 402 377 429
484 2 2 4 25 152 151 409
485 2 2 4 25 154 153 413
486 2 2 4 25 387 402 434
487 2 2 4 25 409 385 437
488 2 2 4 25 413 398 422
489 2 2 4 25 399 403 429
490 2 2 4 25 159 158 431
491 2 2 4 25 165 166 423
492 2 2 4 25 172 173 419
493 2 2 4 25 415 387 417
494 2 2 4 25 386 415 417
495 2 2 4 25 418 396 439
496 2 2 4 25 170 171 426
497 2 2 4 25 380 418 439
498 2 2 4 25 391 410 432
499 2 2 4 25 174 175 427
500 2 2 4 25 163 164 438
501 2 2 4 25 384 404 424
502 2 2 4 25 168 169 436
503 2 2 4 25 404 384 422
504 2 2 4 25 404 157 424
505 2 2 4 25 385 405 433
506 2 2 4 25 166 406 423
507 2 2 4 25 412 392 435
508 2 2 4 25 408 159 431
509 2 2 4 25 384 413 422
510 2 2 4 25 402 414 434
511 2 2 4 25 164 411 438
512 2 2 4 25 414 378 434
513 2 2 4 25 410 168 436
514 2 2 4 25 388 410 436
515 2 2 4 25 152 409 437
516 2 2 4 25 410 388 432
517 2 2 4 25 407 384 424
518 2 2 4 25 411 390 438
519 2 2 4 25 388 420 426
520 2 2 4 25 389 412 435
521 2 2 4 25 421 389 427
522 2 2 4 25 420 170 426
523 2 2 4 25 175 421 427
524 2 2 4 25 378 417 434
525 2 2 4 25 417 387 434
526 2 2 4 25 420 388 436
527 2 2 4 25 169 420 436
528 2 2 4 25 396 428 439
529 2 2 4 25 428 390 439
530 2 2 4 25 390 425 438
531 2 2 4 25 425 163 438
532 2 2 2 26 57 176 1
533 2 2 2 26 58 3 177
534 2 2 2 26 176 57 440
535 2 2 2 26 57 2 440
536 2 2 2 26 41 176 440
537 2 2 2 26 177 41 440
538 2 2 2 26 58 177 440
539 2 2 2 26 2 58 440
540 2 2 3 27 38 155 51
541 2 2 3 27 220 156 38
542 2 2 3 27 267 149 37
543 2 2 3 27 220 38 51
544 2 2 3 27 39 162 211
545 2 2 3 27 155 275 51
546 2 2 3 27 150 149 268
547 2 2 3 27 149 267 268
548 2 2 3 27 151 150 269
549 2 2 3 27 150 268 269
550 2 2 3 27 152 151 271
551 2 2 3 27 151 269 270
552 2 2 3 27 151 270 271
553 2 2 3 27 152 272 153
554 2 2 3 27 272 152 271
555 2 2 3 27 273 154 153
556 2 2 3 27 272 273 153
557 2 2 3 27 275 155 154
558 2 2 3 27 274 154 273
559 2 2 3 27 274 275 154
560 2 2 3 27 219 157 156
561 2 2 3 27 156 220 219
562 2 2 3 27 218 158 157
563 2 2 3 27 218 157 219
564 2 2 3 27 216 159 158
565 2 2 3 27 158 217 216
566 2 2 3 27 218 217 158
567 2 2 3 27 215 160 159
568 2 2 3 27 159 216 215
569 2 2 3 27 161 160 214
570 2 2 3 27 160 215 214
571 2 2 3 27 162 161 212
572 2 2 3 27 161 213 212
573 2 2 3 27 213 161 214
574 2 2 3 27 211 162 212
575 2 2 3 27 267 37 43
576 2 2 3 27 47 39 211
577 2 2 3 28 279 270 278
578 2 2 3 28 278 270 269
579 2 2 3 28 277 268 276
580 2 2 3 28 276 268 267
581 2 2 3 28 268 277 278
582 2 2 3 28 268 278 269
583 2 2 3 28 276 441 44
584 2 2 3 28 441 178 44
585 2 2 3 28 442 284 52
586 2 2 3 28 221 442 52
587 2 2 3 28 280 281 272
588 2 2 3 28 282 283 273
589 2 2 3 28 272 271 280
590 2 2 3 28 281 273 272
591 2 2 3 28 275 442 51
592 2 2 3 28 442 275 284
593 2 2 3 28 442 221 51
594 2 2 3 28 441 267 43
595 2 2 3 28 267 441 276
596 2 2 3 28 178 441 43
597 2 2 3 28 275 274 284
598 2 2 3 28 283 284 274
599 2 2 3 28 283 274 273
600 2 2 3 28 280 271 279
601 2 2 3 28 281 282 273
602 2 2 3 28 271 270 279
603 2 2 3 29 179 180 464
604 2 2 3 29 223 222 466
605 2 2 3 29 182 183 465
606 2 2 3 29 226 225 467
607 2 2 3 29 464 180 474
608 2 2 3 29 223 466 475
609 2 2 3 29 182 465 476
610 2 2 3 29 467 225 477
611 2 2 3 29 293 467 483
612 2 2 3 29 281 460 487
613 2 2 3 29 292 293 483
614 2 2 3 29 455 181 476
615 2 2 3 29 181 455 474
616 2 2 3 29 224 456 477
617 2 2 3 29 456 224 475
618 2 2 3 29 281 280 460
619 2 2 3 29 457 291 483
620 2 2 3 29 448 473 494
621 2 2 3 29 460 453 487
622 2 2 3 29 469 446 478
623 2 2 3 29 454 469 478
624 2 2 3 29 278 277 461
625 2 2 3 29 283 282 462
626 2 2 3 29 291 292 483
627 2 2 3 29 451 458 496
628 2 2 3 29 455 476 480
629 2 2 3 29 477 456 481
630 2 2 3 29 473 454 494
631 2 2 3 29 476 448 480
632 2 2 3 29 450 477 481
633 2 2 3 29 291 457 479
634 2 2 3 29 458 468 496
635 2 2 3 29 452 461 471
636 2 2 3 29 462 453 472
637 2 2 3 29 445 459 468
638 2 2 3 29 181 182 476
639 2 2 3 29 180 181 474
640 2 2 3 29 225 224 477
641 2 2 3 29 224 223 475
642 2 2 3 29 459 446 468
643 2 2 3 29 444 458 482
644 2 2 3 29 490 459 491
645 2 2 3 29 458 451 482
646 2 2 3 29 459 445 491
647 2 2 3 29 457 451 479
648 2 2 3 29 451 457 482
649 2 2 3 29 460 280 470
650 2 2 3 29 286 287 473
651 2 2 3 29 463 446 495
652 2 2 3 29 458 445 468
653 2 2 3 29 446 469 495
654 2 2 3 29 461 277 484
655 2 2 3 29 283 462 485
656 2 2 3 29 473 287 499
657 2 2 3 29 447 474 492
658 2 2 3 29 475 449 493
659 2 2 3 29 460 445 489
660 2 2 3 29 445 460 491
661 2 2 3 29 453 460 489
662 2 2 3 29 472 453 488
663 2 2 3 29 277 276 484
664 2 2 3 29 284 283 485
665 2 2 3 29 276 464 484
666 2 2 3 29 466 284 485
667 2 2 3 29 446 459 478
668 2 2 3 29 474 455 492
669 2 2 3 29 456 475 493
670 2 2 3 29 452 471 490
671 2 2 3 29 280 279 470
672 2 2 3 29 459 443 478
673 2 2 3 29 461 447 471
674 2 2 3 29 449 462 472
675 2 2 3 29 447 464 474
676 2 2 3 29 465 448 476
677 2 2 3 29 466 449 475
678 2 2 3 29 450 467 477
679 2 2 3 29 458 444 488
680 2 2 3 29 445 458 489
681 2 2 3 29 444 482 497
682 2 2 3 29 481 444 497
683 2 2 3 29 467 450 483
684 2 2 3 29 453 462 487
685 2 2 3 29 461 452 486
686 2 2 3 29 452 490 491
687 2 2 3 29 278 461 486
688 2 2 3 29 462 282 487
689 2 2 3 29 443 459 490
690 2 2 3 29 290 291 479
691 2 2 3 29 447 461 484
692 2 2 3 29 462 449 485
693 2 2 3 29 451 463 504
694 2 2 3 29 480 448 494
695 2 2 3 29 448 465 498
696 2 2 3 29 473 448 498
697 2 2 3 29 460 470 491
698 2 2 3 29 287 288 499
699 2 2 3 29 479 451 504
700 2 2 3 29 446 463 496
701 2 2 3 29 288 469 499
702 2 2 3 29 463 289 504
703 2 2 3 29 463 451 496
704 2 2 3 29 289 463 495
705 2 2 3 29 443 471 492
706 2 2 3 29 472 444 493
707 2 2 3 29 454 473 499
708 2 2 3 29 444 472 488
709 2 2 3 29 464 447 484
710 2 2 3 29 449 466 485
711 2 2 3 29 279 278 486
712 2 2 3 29 282 281 487
713 2 2 3 29 480 443 492
714 2 2 3 29 444 481 493
715 2 2 3 29 468 446 496
716 2 2 3 29 452 470 486
717 2 2 3 29 470 279 486
718 2 2 3 29 289 290 504
719 2 2 3 29 483 450 497
720 2 2 3 29 471 443 490
721 2 2 3 29 457 483 497
722 2 2 3 29 52 284 502
723 2 2 3 29 293 53 503
724 2 2 3 29 276 44 500
725 2 2 3 29 45 285 501
726 2 2 3 29 285 286 498
727 2 2 3 29 471 447 492
728 2 2 3 29 449 472 493
729 2 2 3 29 288 289 495
730 2 2 3 29 179 464 500
731 2 2 3 29 465 183 501
732 2 2 3 29 466 222 502
733 2 2 3 29 226 467 503
734 2 2 3 29 465 285 498
735 2 2 3 29 470 452 491
736 2 2 3 29 44 179 500
737 2 2 3 29 183 45 501
738 2 2 3 29 222 52 502
739 2 2 3 29 53 226 503
740 2 2 3 29 464 276 500
741 2 2 3 29 285 465 501
742 2 2 3 29 284 466 502
743 2 2 3 29 467 293 503
744 2 2 3 29 469 288 495
745 2 2 3 29 455 480 492
746 2 2 3 29 481 456 493
747 2 2 3 29 482 457 497
748 2 2 3 29 469 454 499
749 2 2 3 29 478 443 494
750 2 2 3 29 443 480 494
751 2 2 3 29 458 488 489
752 2 2 3 29 454 478 494
753 2 2 3 29 286 473 498
754 2 2 3 29 450 481 497
755 2 2 3 29 488 453 489
756 2 2 3 29 290 479 504
757 2 2 3 30 295 286 294
758 2 2 3 30 294 286 285
759 2 2 3 30 286 295 296
760 2 2 3 30 286 296 287
761 2 2 3 30 505 302 54
762 2 2 3 30 227 505 54
763 2 2 3 30 294 506 46
764 2 2 3 30 506 184 46
765 2 2 3 30 289 288 297
766 2 2 3 30 288 287 297
767 2 2 3 30 298 289 297
768 2 2 3 30 290 300 291
769 2 2 3 30 293 505 53
770 2 2 3 30 505 293 302
771 2 2 3 30 505 227 53
772 2 2 3 30 506 285 45
773 2 2 3 30 285 506 294
774 2 2 3 30 184 506 45
775 2 2 3 30 293 292 302
776 2 2 3 30 291 300 301
777 2 2 3 30 291 301 292
778 2 2 3 30 297 287 296
779 2 2 3 30 301 302 292
780 2 2 3 30 289 298 290
781 2 2 3 30 290 299 300
782 2 2 3 30 298 299 290
783 2 2 3 31 516 538 570
784 2 2 3 31 517 539 571
785 2 2 3 31 540 518 572
786 2 2 3 31 541 519 573
787 2 2 3 31 562 516 570
788 2 2 3 31 563 517 571
789 2 2 3 31 518 564 572
790 2 2 3 31 519 565 573
791 2 2 3 31 514 544 558
792 2 2 3 31 515 545 559
793 2 2 3 31 235 538 578
794 2 2 3 31 187 539 579
795 2 2 3 31 540 230 580
796 2 2 3 31 541 192 581
797 2 2 3 31 233 232 534
798 2 2 3 31 189 190 535
799 2 2 3 31 515 537 577
800 2 2 3 31 514 536 576
801 2 2 3 31 554 237 578
802 2 2 3 31 555 185 579
803 2 2 3 31 228 556 580
804 2 2 3 31 194 557 581
805 2 2 3 31 237 236 578
806 2 2 3 31 185 186 579
807 2 2 3 31 229 228 580
808 2 2 3 31 193 194 581
809 2 2 3 31 192 193 581
810 2 2 3 31 230 229 580
811 2 2 3 31 186 187 579
812 2 2 3 31 236 235 578
813 2 2 3 31 514 558 602
814 2 2 3 31 515 559 603
815 2 2 3 31 522 542 570
816 2 2 3 31 523 543 571
817 2 2 3 31 542 508 570
818 2 2 3 31 543 509 571
819 2 2 3 31 515 577 607
820 2 2 3 31 514 576 606
821 2 2 3 31 574 532 600
822 2 2 3 31 575 533 601
823 2 2 3 31 520 574 600
824 2 2 3 31 521 575 601
825 2 2 3 31 299 298 545
826 2 2 3 31 207 206 544
827 2 2 3 31 544 206 558
828 2 2 3 31 545 298 559
829 2 2 3 31 233 534 566
830 2 2 3 31 189 535 567
831 2 2 3 31 534 232 568
832 2 2 3 31 535 190 569
833 2 2 3 31 542 522 586
834 2 2 3 31 543 523 587
835 2 2 3 31 299 545 596
836 2 2 3 31 207 544 597
837 2 2 3 31 536 514 604
838 2 2 3 31 537 515 605
839 2 2 3 31 542 586 614
840 2 2 3 31 543 587 615
841 2 2 3 31 511 576 599
842 2 2 3 31 510 577 598
843 2 2 3 31 576 536 599
844 2 2 3 31 577 537 598
845 2 2 3 31 204 203 548
846 2 2 3 31 296 295 549
847 2 2 3 31 301 300 550
848 2 2 3 31 209 208 551
849 2 2 3 31 519 551 565
850 2 2 3 31 518 550 564
851 2 2 3 31 548 516 562
852 2 2 3 31 549 517 563
853 2 2 3 31 530 552 598
854 2 2 3 31 531 553 599
855 2 2 3 31 538 235 582
856 2 2 3 31 539 187 583
857 2 2 3 31 230 540 584
858 2 2 3 31 192 541 585
859 2 2 3 31 526 548 562
860 2 2 3 31 550 528 564
861 2 2 3 31 529 549 563
862 2 2 3 31 551 527 565
863 2 2 3 31 542 532 574
864 2 2 3 31 543 533 575
865 2 2 3 31 604 520 619
866 2 2 3 31 605 521 618
867 2 2 3 31 538 522 570
868 2 2 3 31 539 523 571
869 2 2 3 31 524 540 572
870 2 2 3 31 525 541 573
871 2 2 3 31 545 528 596
872 2 2 3 31 544 527 597
873 2 2 3 31 586 534 588
874 2 2 3 31 587 535 589
875 2 2 3 31 512 586 588
876 2 2 3 31 513 587 589
877 2 2 3 31 298 297 559
878 2 2 3 31 206 205 558
879 2 2 3 31 520 546 574
880 2 2 3 31 521 547 575
881 2 2 3 31 546 508 574
882 2 2 3 31 547 509 575
883 2 2 3 31 598 552 616
884 2 2 3 31 599 553 617
885 2 2 3 31 508 562 570
886 2 2 3 31 509 563 571
887 2 2 3 31 564 510 572
888 2 2 3 31 565 511 573
889 2 2 3 31 538 516 578
890 2 2 3 31 539 517 579
891 2 2 3 31 518 540 580
892 2 2 3 31 519 541 581
893 2 2 3 31 522 538 582
894 2 2 3 31 523 539 583
895 2 2 3 31 540 524 584
896 2 2 3 31 541 525 585
897 2 2 3 31 536 604 619
898 2 2 3 31 537 605 618
899 2 2 3 31 508 542 574
900 2 2 3 31 509 543 575
901 2 2 3 31 586 512 614
902 2 2 3 31 587 513 615
903 2 2 3 31 532 542 614
904 2 2 3 31 533 543 615
905 2 2 3 31 552 530 592
906 2 2 3 31 553 531 593
907 2 2 3 31 512 552 592
908 2 2 3 31 513 553 593
909 2 2 3 31 510 564 577
910 2 2 3 31 511 565 576
911 2 2 3 31 564 528 577
912 2 2 3 31 565 527 576
913 2 2 3 31 202 554 608
914 2 2 3 31 294 555 609
915 2 2 3 31 556 302 610
916 2 2 3 31 557 210 611
917 2 2 3 31 234 233 566
918 2 2 3 31 188 189 567
919 2 2 3 31 232 231 568
920 2 2 3 31 190 191 569
921 2 2 3 31 544 514 606
922 2 2 3 31 545 515 607
923 2 2 3 31 527 544 606
924 2 2 3 31 528 545 607
925 2 2 3 31 527 551 597
926 2 2 3 31 528 550 596
927 2 2 3 31 549 529 595
928 2 2 3 31 548 526 594
929 2 2 3 31 548 203 608
930 2 2 3 31 549 295 609
931 2 2 3 31 301 550 610
932 2 2 3 31 209 551 611
933 2 2 3 31 551 208 597
934 2 2 3 31 550 300 596
935 2 2 3 31 296 549 595
936 2 2 3 31 204 548 594
937 2 2 3 31 516 548 608
938 2 2 3 31 517 549 609
939 2 2 3 31 550 518 610
940 2 2 3 31 551 519 611
941 2 2 3 31 203 202 608
942 2 2 3 31 295 294 609
943 2 2 3 31 302 301 610
944 2 2 3 31 210 209 611
945 2 2 3 31 520 560 619
946 2 2 3 31 521 561 618
947 2 2 3 31 235 234 582
948 2 2 3 31 187 188 583
949 2 2 3 31 231 230 584
950 2 2 3 31 191 192 585
951 2 2 3 31 524 552 588
952 2 2 3 31 525 553 589
953 2 2 3 31 552 512 588
954 2 2 3 31 553 513 589
955 2 2 3 31 558 526 602
956 2 2 3 31 559 529 603
957 2 2 3 31 516 554 578
958 2 2 3 31 517 555 579
959 2 2 3 31 556 518 580
960 2 2 3 31 557 519 581
961 2 2 3 31 554 516 608
962 2 2 3 31 555 517 609
963 2 2 3 31 518 556 610
964 2 2 3 31 519 557 611
965 2 2 3 31 552 524 616
966 2 2 3 31 553 525 617
967 2 2 3 31 514 546 604
968 2 2 3 31 515 547 605
969 2 2 3 31 508 546 612
970 2 2 3 31 509 547 613
971 2 2 3 31 546 520 604
972 2 2 3 31 547 521 605
973 2 2 3 31 546 514 602
974 2 2 3 31 547 515 603
975 2 2 3 31 526 558 594
976 2 2 3 31 529 559 595
977 2 2 3 31 234 566 582
978 2 2 3 31 188 567 583
979 2 2 3 31 568 231 584
980 2 2 3 31 569 191 585
981 2 2 3 31 558 205 594
982 2 2 3 31 559 297 595
983 2 2 3 31 566 534 586
984 2 2 3 31 567 535 587
985 2 2 3 31 534 568 588
986 2 2 3 31 535 569 589
987 2 2 3 31 522 566 586
988 2 2 3 31 523 567 587
989 2 2 3 31 568 524 588
990 2 2 3 31 569 525 589
991 2 2 3 31 560 520 600
992 2 2 3 31 561 521 601
993 2 2 3 31 561 507 590
994 2 2 3 31 560 507 591
995 2 2 3 31 530 561 590
996 2 2 3 31 531 560 591
997 2 2 3 31 566 522 582
998 2 2 3 31 567 523 583
999 2 2 3 31 524 568 584
1000 2 2 3 31 525 569 585
1001 2 2 3 31 524 572 616
1002 2 2 3 31 525 573 617
1003 2 2 3 31 237 554 621
1004 2 2 3 31 185 555 620
1005 2 2 3 31 556 228 622
1006 2 2 3 31 557 194 623
1007 2 2 3 31 554 202 621
1008 2 2 3 31 555 294 620
1009 2 2 3 31 302 556 622
1010 2 2 3 31 210 557 623
1011 2 2 3 31 205 204 594
1012 2 2 3 31 297 296 595
1013 2 2 3 31 300 299 596
1014 2 2 3 31 208 207 597
1015 2 2 3 31 507 560 600
1016 2 2 3 31 507 561 601
1017 2 2 3 31 562 508 612
1018 2 2 3 31 563 509 613
1019 2 2 3 31 510 598 616
1020 2 2 3 31 511 599 617
1021 2 2 3 31 561 530 618
1022 2 2 3 31 560 531 619
1023 2 2 3 31 530 590 592
1024 2 2 3 31 531 591 593
1025 2 2 3 31 590 532 592
1026 2 2 3 31 591 533 593
1027 2 2 3 31 590 507 600
1028 2 2 3 31 591 507 601
1029 2 2 3 31 526 562 612
1030 2 2 3 31 529 563 613
1031 2 2 3 31 532 590 600
1032 2 2 3 31 533 591 601
1033 2 2 3 31 42 210 623
1034 2 2 3 31 54 302 622
1035 2 2 3 31 294 46 620
1036 2 2 3 31 202 50 621
1037 2 2 3 31 50 237 621
1038 2 2 3 31 46 185 620
1039 2 2 3 31 228 54 622
1040 2 2 3 31 194 42 623
1041 2 2 3 31 576 527 606
1042 2 2 3 31 577 528 607
1043 2 2 3 31 572 510 616
1044 2 2 3 31 573 511 617
1045 2 2 3 31 530 598 618
1046 2 2 3 31 531 599 619
1047 2 2 3 31 602 526 612
1048 2 2 3 31 603 529 613
1049 2 2 3 31 592 532 614
1050 2 2 3 31 593 533 615
1051 2 2 3 31 512 592 614
1052 2 2 3 31 513 593 615
1053 2 2 3 31 546 602 612
1054 2 2 3 31 547 603 613
1055 2 2 3 31 598 537 618
1056 2 2 3 31 599 536 619
1057 2 2 3 32 214 241 240
1058 2 2 3 32 214 240 213
1059 2 2 3 32 624 263 55
1060 2 2 3 32 247 624 55
1061 2 2 3 32 625 238 48
1062 2 2 3 32 195 625 48
1063 2 2 3 32 243 242 215
1064 2 2 3 32 244 217 218
1065 2 2 3 32 215 216 243
1066 2 2 3 32 243 217 244
1067 2 2 3 32 220 624 247
1068 2 2 3 32 263 624 51
1069 2 2 3 32 624 220 51
1070 2 2 3 32 211 625 47
1071 2 2 3 32 625 211 238
1072 2 2 3 32 625 195 47
1073 2 2 3 32 212 239 238
1074 2 2 3 32 212 238 211
1075 2 2 3 32 213 240 239
1076 2 2 3 32 213 239 212
1077 2 2 3 32 220 247 246
1078 2 2 3 32 245 219 246
1079 2 2 3 32 246 219 220
1080 2 2 3 32 244 218 245
1081 2 2 3 32 245 218 219
1082 2 2 3 32 215 242 241
1083 2 2 3 32 217 243 216
1084 2 2 3 32 215 241 214
1085 2 2 3 33 263 51 221
1086 2 2 3 33 264 55 263
1087 2 2 3 33 221 52 264
1088 2 2 3 33 263 221 264
1089 2 2 3 34 626 265 56
1090 2 2 3 34 252 626 56
1091 2 2 3 34 264 627 55
1092 2 2 3 34 627 248 55
1093 2 2 3 34 249 223 250
1094 2 2 3 34 250 223 224
1095 2 2 3 34 248 223 249
1096 2 2 3 34 226 251 225
1097 2 2 3 34 226 626 252
1098 2 2 3 34 265 626 53
1099 2 2 3 34 626 226 53
1100 2 2 3 34 627 222 248
1101 2 2 3 34 627 264 52
1102 2 2 3 34 222 627 52
1103 2 2 3 34 225 250 224
1104 2 2 3 34 248 222 223
1105 2 2 3 34 225 251 250
1106 2 2 3 34 252 251 226
1107 2 2 3 35 265 53 227
1108 2 2 3 35 54 628 227
1109 2 2 3 35 265 628 266
1110 2 2 3 35 265 266 56
1111 2 2 3 35 628 54 266
1112 2 2 3 35 628 265 227
1113 2 2 3 36 629 237 50
1114 2 2 3 36 201 629 50
1115 2 2 3 36 266 630 56
1116 2 2 3 36 630 253 56
1117 2 2 3 36 258 257 233
1118 2 2 3 36 257 232 233
1119 2 2 3 36 233 234 258
1120 2 2 3 36 256 232 257
1121 2 2 3 36 262 629 49
1122 2 2 3 36 629 262 237
1123 2 2 3 36 629 201 49
1124 2 2 3 36 630 228 253
1125 2 2 3 36 630 266 54
1126 2 2 3 36 228 630 54
1127 2 2 3 36 261 236 262
1128 2 2 3 36 262 236 237
1129 2 2 3 36 255 254 229
1130 2 2 3 36 255 229 230
1131 2 2 3 36 253 228 254
1132 2 2 3 36 254 228 229
1133 2 2 3 36 261 260 236
1134 2 2 3 36 236 260 235
1135 2 2 3 36 255 230 231
1136 2 2 3 36 256 255 231
1137 2 2 3 36 256 231 232
1138 2 2 3 36 234 235 260
1139 2 2 3 36 260 259 234
1140 2 2 3 36 259 258 234
1141 2 2 3 37 241 658 678
1142 2 2 3 37 659 244 679
1143 2 2 3 37 652 253 666
1144 2 2 3 37 262 654 667
1145 2 2 3 37 646 260 667
1146 2 2 3 37 255 645 666
1147 2 2 3 37 253 254 666
1148 2 2 3 37 261 262 667
1149 2 2 3 37 649 245 670
1150 2 2 3 37 240 650 671
1151 2 2 3 37 639 646 668
1152 2 2 3 37 198 643 662
1153 2 2 3 37 643 198 660
1154 2 2 3 37 644 250 663
1155 2 2 3 37 250 644 661
1156 2 2 3 37 648 633 675
1157 2 2 3 37 247 653 670
1158 2 2 3 37 651 238 671
1159 2 2 3 37 639 668 675
1160 2 2 3 37 635 644 656
1161 2 2 3 37 643 634 655
1162 2 2 3 37 644 636 656
1163 2 2 3 37 637 643 655
1164 2 2 3 37 245 246 670
1165 2 2 3 37 239 240 671
1166 2 2 3 37 246 247 670
1167 2 2 3 37 238 239 671
1168 2 2 3 37 241 242 658
1169 2 2 3 37 243 244 659
1170 2 2 3 37 260 261 667
1171 2 2 3 37 254 255 666
1172 2 2 3 37 647 632 686
1173 2 2 3 37 675 633 682
1174 2 2 3 37 674 647 686
1175 2 2 3 37 642 649 665
1176 2 2 3 37 650 641 664
1177 2 2 3 37 642 659 679
1178 2 2 3 37 658 641 678
1179 2 2 3 37 199 198 662
1180 2 2 3 37 198 197 660
1181 2 2 3 37 250 251 663
1182 2 2 3 37 249 250 661
1183 2 2 3 37 645 640 686
1184 2 2 3 37 664 641 680
1185 2 2 3 37 636 645 669
1186 2 2 3 37 646 637 668
1187 2 2 3 37 642 665 684
1188 2 2 3 37 649 635 665
1189 2 2 3 37 634 650 664
1190 2 2 3 37 634 643 660
1191 2 2 3 37 644 635 661
1192 2 2 3 37 643 637 662
1193 2 2 3 37 636 644 663
1194 2 2 3 37 668 631 675
1195 2 2 3 37 645 636 666
1196 2 2 3 37 637 646 667
1197 2 2 3 37 647 633 683
1198 2 2 3 37 633 648 683
1199 2 2 3 37 645 255 677
1200 2 2 3 37 260 646 676
1201 2 2 3 37 638 658 659
1202 2 2 3 37 257 258 657
1203 2 2 3 37 635 649 670
1204 2 2 3 37 650 634 671
1205 2 2 3 37 669 645 686
1206 2 2 3 37 632 647 684
1207 2 2 3 37 640 645 677
1208 2 2 3 37 646 639 676
1209 2 2 3 37 655 634 664
1210 2 2 3 37 635 656 665
1211 2 2 3 37 633 647 674
1212 2 2 3 37 637 655 668
1213 2 2 3 37 656 636 669
1214 2 2 3 37 659 658 688
1215 2 2 3 37 245 649 679
1216 2 2 3 37 650 240 678
1217 2 2 3 37 649 642 679
1218 2 2 3 37 641 650 678
1219 2 2 3 37 651 634 660
1220 2 2 3 37 635 653 661
1221 2 2 3 37 652 636 663
1222 2 2 3 37 637 654 662
1223 2 2 3 37 636 652 666
1224 2 2 3 37 654 637 667
1225 2 2 3 37 634 651 671
1226 2 2 3 37 653 635 670
1227 2 2 3 37 631 655 664
1228 2 2 3 37 656 632 665
1229 2 2 3 37 655 631 668
1230 2 2 3 37 632 656 669
1231 2 2 3 37 238 651 689
1232 2 2 3 37 253 652 691
1233 2 2 3 37 653 247 690
1234 2 2 3 37 654 262 692
1235 2 2 3 37 631 664 680
1236 2 2 3 37 657 258 672
1237 2 2 3 37 257 657 673
1238 2 2 3 37 675 631 680
1239 2 2 3 37 648 675 680
1240 2 2 3 37 258 259 672
1241 2 2 3 37 256 257 673
1242 2 2 3 37 255 256 677
1243 2 2 3 37 259 260 676
1244 2 2 3 37 672 259 676
1245 2 2 3 37 256 673 677
1246 2 2 3 37 633 657 682
1247 2 2 3 37 657 633 687
1248 2 2 3 37 665 632 684
1249 2 2 3 37 639 675 682
1250 2 2 3 37 240 241 678
1251 2 2 3 37 244 245 679
1252 2 2 3 37 638 659 681
1253 2 2 3 37 659 642 681
1254 2 2 3 37 683 648 685
1255 2 2 3 37 638 683 685
1256 2 2 3 37 639 672 676
1257 2 2 3 37 673 640 677
1258 2 2 3 37 641 658 685
1259 2 2 3 37 658 638 685
1260 2 2 3 37 638 681 683
1261 2 2 3 37 681 647 683
1262 2 2 3 37 247 55 690
1263 2 2 3 37 48 238 689
1264 2 2 3 37 56 253 691
1265 2 2 3 37 262 49 692
1266 2 2 3 37 252 56 691
1267 2 2 3 37 196 48 689
1268 2 2 3 37 55 248 690
1269 2 2 3 37 49 200 692
1270 2 2 3 37 658 242 688
1271 2 2 3 37 243 659 688
1272 2 2 3 37 242 243 688
1273 2 2 3 37 197 196 693
1274 2 2 3 37 248 249 694
1275 2 2 3 37 200 199 696
1276 2 2 3 37 251 252 695
1277 2 2 3 37 640 674 686
1278 2 2 3 37 657 672 682
1279 2 2 3 37 632 669 686
1280 2 2 3 37 660 197 693
1281 2 2 3 37 249 661 694
1282 2 2 3 37 199 662 696
1283 2 2 3 37 663 251 695
1284 2 2 3 37 672 639 682
1285 2 2 3 37 640 673 687
1286 2 2 3 37 651 660 693
1287 2 2 3 37 661 653 694
1288 2 2 3 37 662 654 696
1289 2 2 3 37 652 663 695
1290 2 2 3 37 648 680 685
1291 2 2 3 37 647 681 684
1292 2 2 3 37 674 640 687
1293 2 2 3 37 633 674 687
1294 2 2 3 37 673 657 687
1295 2 2 3 37 681 642 684
1296 2 2 3 37 680 641 685
1297 2 2 3 37 196 689 693
1298 2 2 3 37 690 248 694
1299 2 2 3 37 692 200 696
1300 2 2 3 37 252 691 695
1301 2 2 3 37 689 651 693
1302 2 2 3 37 653 690 694
1303 2 2 3 37 654 692 696
1304 2 2 3 37 691 652 695
$EndElements
