$MeshFormat
2.2 0 8
$EndMeshFormat
$PhysicalNames
4
2 1 "SD1G0"
2 2 "SD1D1001"
2 3 "SD2G0"
2 4 "I1-2"
$EndPhysicalNames
$Nodes
789
1 12.7 0 0
2 9.574999999999999 8.343 0
3 0 12.7 0
4 12.942 0 4.915
5 9.875 8.603999999999999 4.915
6 0 12.848 4.915
7 14.502 0 13.727
8 11.729 10.22 13.727
9 0 13.835 13.727
10 18.947 0 27.218
11 16.604 14.468 27.218
12 0 16.845 27.218
13 27.799 0 46.711
14 25.596 22.302 46.711
15 0 23.339 46.711
16 41.65 0 71.855
17 38.961 33.948 71.855
18 0 34.168 71.855
19 61.762 0 101.118
20 57.853 50.408 101.118
21 0 50.638 101.118
22 91.617 0 130.289
23 86.16800000000001 75.07899999999999 130.289
24 0 75.78700000000001 130.289
25 132.886 0 154.472
26 126.331 110.074 154.472
27 0 110.923 154.472
28 182.124 0 172.602
29 174.922 152.413 172.602
30 0 153.083 172.602
31 229.102 0 184.552
32 221.134 192.678 184.552
33 0 193.682 184.552
34 267.778 0 191.715
35 258.324 225.082 191.715
36 0 227.707 191.715
37 292.724 0 194.926
38 281.163 244.982 194.926
39 0 250.339 194.926
40 0 0 194.926
41 0 0 0
42 0 0 34.926
43 293 0 194.926
44 303 0 184.926
45 303 0 44.926
46 293 0 34.926
47 0 251 194.926
48 0 261 184.926
49 0 261 44.926
50 0 251 34.926
51 293 251 194.926
52 303 251 184.926
53 303 251 44.926
54 293 251 34.926
55 293 261 184.926
56 293 261 44.926
57 11.09616807079479 4.623949076173444 0
58 5.387679045421439 10.38698236420057 0
59 11.37011116668067 4.759528087356451 4.915000000000001
60 5.512087079357204 10.57025881818028 4.915
61 13.09361125978958 5.611015389097309 13.727
62 6.360534076784242 11.73344236235839 13.727
63 17.79207549822212 7.883245658944005 27.218
64 8.810014207286297 15.05683941921249 27.218
65 14.05341004567253 12.24545515364449 20.1595366002396
66 16.62138515959318 0 20.15953660024107
67 0 15.27017420256632 20.15953660027317
68 26.77063822358021 12.1079866766299 46.711
69 13.4762075562722 21.80103668198216 46.711
70 20.87636473861738 18.19016474225184 36.47969993881989
71 23.15284660434176 0 36.47969993881991
72 0 19.93049117134382 36.47969993886744
73 40.84795675163827 12.27546838645133 71.85500000000002
74 40.04889799337723 24.55113183471142 71.855
75 27.30044448091471 31.98530020065189 71.855
76 13.64907667597562 33.0619045156215 71.85499999999999
77 31.91537640436548 27.80858119006662 58.59984401880776
78 34.34817190997884 0 58.5998440188079
79 0 28.45927886892855 58.59984401886965
80 60.63071874132721 18.24129227230478 101.118
81 59.50323255213043 36.48281885781169 101.118
82 40.55677210503303 47.69836337119956 101.118
83 20.27703665964054 49.14902091702718 101.118
84 47.8990806799094 41.73546601690179 85.69975200805571
85 51.16528046974184 0 85.69975200805764
86 0 41.96019716275993 85.69975200812652
87 90.57268141434437 20.44267204181922 130.289
88 89.52411935279891 40.8851281970684 130.289
89 88.49017918651532 61.32832601260477 130.289
90 68.21518380861087 71.9626421497375 130.289
91 45.47197310628112 73.14787901846736 130.289
92 22.73700452539382 74.48518644524208 130.289
93 71.42447910539175 62.23289708667208 115.0997629165948
94 76.07160652274328 0 115.099762916595
95 0 62.6920041682243 115.0997629166675
96 132.162136000171 24.10401768238666 154.472
97 131.4433275613074 48.20818780815499 154.472
98 130.7208746908507 72.31224925302926 154.472
99 129.9790993946202 96.41571990651899 154.472
100 107.6530096289533 107.8344015916637 154.472
101 80.73678704120096 108.4947996949165 154.472
102 53.82433120340094 109.297831936553 154.472
103 26.91269147843979 110.1279868415129 154.472
104 99.01500930808135 86.27291207669512 138.0244586584003
105 112.3952975503873 97.93148307586092 146.0810159515229
106 111.6222672639383 0 142.0117792833318
107 0 92.81927775302167 142.0117792833938
108 181.8092662952189 27.96260403240149 172.602
109 181.5132565181162 55.92541548431874 172.602
110 181.2150979741357 83.88820425469912 172.602
111 180.8918201647201 111.8507102051821 172.602
112 180.479010985334 139.8119966548294 172.602
113 157.1447205502924 152.1989693286588 172.602
114 125.7154366397836 152.2985012574452 172.602
115 94.28649007715359 152.4804923508975 172.602
116 62.85768771976844 152.6858101197003 172.602
117 31.42889810046385 152.8931172358007 172.602
118 142.0922659929605 123.8073300585696 160.3527547169718
119 158.2853285466121 137.9168992269146 166.39461893252
120 157.0060382667537 0 163.3532765298397
121 0 131.5757643960239 163.3532765298841
122 229.0553017312816 30.41229804119069 184.552
123 229.0375021990119 60.82463200210537 184.552
124 229.0238847414681 91.23696741849751 184.552
125 228.9924830262564 121.6492891983763 184.552
126 228.9078628970441 152.0615031371505 184.552
127 228.6440121106489 182.472517178672 184.552
128 210.7115771464358 194.8715016548227 184.552
129 180.610000438514 194.6888242073671 184.552
130 150.5083476033716 194.5181130242547 184.552
131 120.4066821390591 194.3501586738228 184.552
132 90.30500931167562 194.1833573525316 184.552
133 60.2033353164648 194.0168772992518 184.552
134 30.10166275870532 193.8500414221112 184.552
135 197.7299256983873 172.2857847365525 178.4999207153062
136 205.3099848839881 0 178.4999207153063
137 0 173.1206303867759 178.4999207153371
138 267.7672389510862 31.1528545302351 191.715
139 267.7900196742491 62.30570806381874 191.715
140 267.8225443495955 93.45855267444406 191.715
141 267.8458133692899 124.6114058879191 191.715
142 267.8362874269128 155.7642646480391 191.715
143 267.7477986866638 186.9169812858627 191.715
144 267.3877146748627 218.0673260741882 191.715
145 220.2769197464866 229.1454431953085 191.715
146 188.8086381666201 228.964137332491 191.7149999999999
147 157.3404765326564 228.7628872924761 191.715
148 125.8723738102435 228.5526312655705 191.715
149 94.40429840871087 228.3384417440761 191.715
150 62.93622652299319 228.1237556393543 191.715
151 31.46813640047181 227.9118332553447 191.715
152 239.6068450594731 208.7735652408488 188.1099722818232
153 248.3129641172393 0 188.109972281823
154 0 210.5827408752882 188.1099722818424
155 292.5551063987645 33.93859804997325 194.926
156 292.4245589237495 67.87737246172622 194.926
157 292.3051430995168 101.8161870066009 194.926
158 292.1751319952311 135.7549633205216 194.926
159 292.0075954554129 169.6935694468503 194.926
160 291.749660553901 203.631591048735 194.926
161 291.1792718478338 237.5652871804001 194.926
162 240.5514590768479 250.4106363770742 194.926
163 206.1869728600393 250.4394685330237 194.926
164 171.8224726924013 250.4360751660523 194.926
165 137.4579768317782 250.418140744985 194.926
166 103.0934844457699 250.3938581686256 194.926
167 68.72899232988573 250.3687767021688 194.926
168 34.36449808737228 250.34816107708 194.926
169 260.1991111111592 0 194.926
170 227.6742222223689 0 194.926
171 195.1493333335663 0 194.926
172 162.6244444447879 0 194.926
173 130.0995555559039 0 194.926
174 97.5746666669182 0 194.926
175 65.04977777793562 0 194.926
176 32.52488888896789 0 194.926
177 0 31.29237499994177 194.926
178 0 62.58474999984927 194.926
179 0 93.87712499975611 194.926
180 0 125.1694999996657 194.926
181 0 156.4618749997667 194.926
182 0 187.7542499998316 194.926
183 0 219.0466249998964 194.926
184 6.349999999983785 0 0
185 0 6.350000000015788 0
186 300.0710678303063 0 191.9970677934246
187 303 0 161.5926666666454
188 303 0 138.2593333332908
189 303 0 114.9260000000611
190 303 0 91.59266666670922
191 303 0 68.25933333335458
192 300.0710677963052 0 37.85493217257425
193 268.5833333333333 0 34.926
194 244.1666666666667 0 34.926
195 219.75 0 34.926
196 195.3333333333333 0 34.926
197 170.9166666666667 0 34.926
198 146.5 0 34.926
199 122.0833333333333 0 34.926
200 97.66666666666669 0 34.926
201 73.25 0 34.926
202 48.83333333333331 0 34.926
203 24.41666666666669 0 34.926
204 0 258.0710678174691 191.9970678062619
205 0 261 161.5926666666454
206 0 261 138.2593333332908
207 0 261 114.9260000000611
208 0 261 91.59266666670922
209 0 261 68.25933333335458
210 0 258.0710677732849 37.85493214955392
211 0 228.1818181818197 34.926
212 0 205.3636363636394 34.926
213 0 182.5454545454591 34.926
214 0 159.7272727272788 34.926
215 0 136.9090909090985 34.926
216 0 114.0909090909015 34.926
217 0 91.27272727272123 34.926
218 0 68.45454545454095 34.926
219 0 45.63636363636061 34.926
220 0 22.81818181818034 34.926
221 24.41666666664603 251 194.926
222 48.83333333326831 251 194.926
223 73.24999999986099 251 194.926
224 97.66666666645368 251 194.926
225 122.0833333330464 251 194.926
226 146.4999999997334 251 194.926
227 170.9166666664445 251 194.926
228 195.3333333331556 251 194.926
229 219.7499999998667 251 194.926
230 244.1666666665778 251 194.926
231 268.5833333332889 251 194.926
232 300.0710678303063 251 191.9970677934246
233 303 251 161.5926666666454
234 303 251 138.2593333332908
235 303 251 114.9260000000611
236 303 251 91.59266666670922
237 303 251 68.25933333335458
238 300.0710677963052 251 37.85493217257425
239 268.5833333333333 251 34.926
240 244.1666666666667 251 34.926
241 219.75 251 34.926
242 195.3333333333333 251 34.926
243 170.9166666666667 251 34.926
244 146.5 251 34.926
245 122.0833333333333 251 34.926
246 97.66666666666669 251 34.926
247 73.25 251 34.926
248 48.83333333333331 251 34.926
249 24.41666666666669 251 34.926
250 24.41666666664603 261 184.926
251 48.83333333326831 261 184.926
252 73.24999999986099 261 184.926
253 97.66666666645368 261 184.926
254 122.0833333330464 261 184.926
255 146.4999999997334 261 184.926
256 170.9166666664445 261 184.926
257 195.3333333331556 261 184.926
258 219.7499999998667 261 184.926
259 244.1666666665778 261 184.926
260 268.5833333332889 261 184.926
261 293 261 161.5926666666454
262 293 261 138.2593333332908
263 293 261 114.9260000000611
264 293 261 91.59266666670922
265 293 261 68.25933333335458
266 268.5833333333333 261 44.926
267 244.1666666666667 261 44.926
268 219.75 261 44.926
269 195.3333333333333 261 44.926
270 170.9166666666667 261 44.926
271 146.5 261 44.926
272 122.0833333333333 261 44.926
273 97.66666666666669 261 44.926
274 73.25 261 44.926
275 48.83333333333331 261 44.926
276 24.41666666666669 261 44.926
277 293 258.0710678174691 191.9970678062619
278 300.0710678147806 258.0710678089503 184.926
279 300.0710678147806 258.0710678089503 44.926
280 293 258.0710678078863 37.85493218415537
281 293 22.81818181819043 194.926
282 293 45.63636363638063 194.926
283 293 68.4545454545587 194.926
284 293 91.27272727273679 194.926
285 293 114.0909090909148 194.926
286 293 136.9090909091096 194.926
287 293 159.7272727272877 194.926
288 293 182.5454545454658 194.926
289 293 205.3636363636438 194.926
290 293 228.1818181818219 194.926
291 303 22.81818181819043 184.926
292 303 45.63636363638063 184.926
293 303 68.4545454545587 184.926
294 303 91.27272727273679 184.926
295 303 114.0909090909148 184.926
296 303 136.9090909091096 184.926
297 303 159.7272727272877 184.926
298 303 182.5454545454658 184.926
299 303 205.3636363636438 184.926
300 303 228.1818181818219 184.926
301 303 22.81818181819043 44.926
302 303 45.63636363638063 44.926
303 303 68.4545454545587 44.926
304 303 91.27272727273679 44.926
305 303 114.0909090909148 44.926
306 303 136.9090909091096 44.926
307 303 159.7272727272877 44.926
308 303 182.5454545454658 44.926
309 303 205.3636363636438 44.926
310 303 228.1818181818219 44.926
311 293 22.81818181819043 34.926
312 293 45.63636363638063 34.926
313 293 68.4545454545587 34.926
314 293 91.27272727273679 34.926
315 293 114.0909090909148 34.926
316 293 136.9090909091096 34.926
317 293 159.7272727272877 34.926
318 293 182.5454545454658 34.926
319 293 205.3636363636438 34.926
320 293 228.1818181818219 34.926
321 12.04592165835881 2.288285325203153 2.4575
322 10.79967482637726 5.970096515205462 2.45807853705574
323 7.640091951442768 9.554453788142204 2.456851937067071
324 12.37559111060875 4.760175028519902 9.419216368480933
325 4.163988650459236 11.75266167266111 8.973568397641758
326 14.727991418643 9.043976578320652 19.77300531792208
327 14.99059492787156 4.70552664626292 18.18405964269709
328 16.70824683362298 5.939063251783889 23.46924563793172
329 4.357181001981489 14.23911521081809 20.53890754500199
330 10.05778162755283 12.86734812125493 20.81396772078661
331 24.35736843755725 10.20024422203577 41.31610537296598
332 20.88074454589523 9.862987784181659 34.05228825221038
333 11.3540063328155 19.85372028057143 40.81832858020553
334 9.600873567697908 16.80485346689884 32.09334080816205
335 36.08310683063131 10.62884467121698 63.10751218758735
336 31.16201508450127 17.72345944481078 55.26903913726235
337 36.37873117633506 21.35497900286084 64.96697143288058
338 31.87371780914212 8.2301117744748 55.24643525454835
339 20.71075800737339 26.32792670156163 58.21944990039836
340 9.548735762033377 26.15908595697004 55.45263745190981
341 11.97812897029521 30.05166403806532 64.73803097280548
342 54.50914018478436 12.7865321833339 91.73142086653344
343 51.35874052675047 29.81663444111086 88.71788067176924
344 47.57228384774659 16.2223644476314 81.98089345785581
345 32.91130865742718 37.25708672825377 81.80600694795683
346 18.33473838361642 40.04032122494706 84.80026821335777
347 31.79342176210216 43.0471206406387 91.87677314624875
348 76.26164814260775 13.02918842220868 115.9883033294961
349 80.38903738643381 52.22863525044009 122.0383932977537
350 75.96370317881774 31.76340766753858 116.7078038036605
351 70.45338105469907 43.50169903434151 112.0248058352034
352 28.37880186836943 59.57364627073857 113.6318732990079
353 47.88448693178861 65.67781898587722 121.9538697498741
354 49.35868376303909 56.41779322501826 111.5540304090501
355 114.3642674718241 58.81553369630939 144.8759556740792
356 114.8386316206758 79.81090513794408 145.5794330554907
357 101.1468822229329 69.67926009066868 137.6214735192431
358 118.4142938956444 16.63332089727373 146.3370554908965
359 102.353101284727 19.03855167248778 137.0641344143926
360 112.8506835036727 37.2360880720132 143.5508178647133
361 101.1623986573105 52.32507061593976 137.20955523476
362 40.08626126553384 91.54566699551029 142.2747596493398
363 16.59378498833406 93.03239385446244 142.612524866688
364 90.49560480606453 96.90075944509658 147.0273719547458
365 67.39154477467468 96.21263037304448 146.0817254697603
366 78.43729254335544 85.07278043745387 139.0519673636385
367 59.02046079342653 83.74998406473489 137.6723107206233
368 147.9170862759118 83.62912524551089 160.6825655772224
369 165.9480480675655 74.74061625037362 167.0699685635354
370 152.4559847245252 61.79325746335438 162.1394877336834
371 162.7934411763192 95.17764872399914 166.0602856684036
372 162.7213348099983 118.7202929378064 166.1883826466186
373 157.6707443857446 16.71379526549983 163.7153491163457
374 146.4433318140483 104.8981844913692 160.3375147048773
375 156.9505567363877 39.70478869906151 163.6086951167044
376 134.5024352738035 138.3717125886785 166.9412228731706
377 106.8615407359745 135.772940487051 165.7729709725363
378 96.75466918500268 121.2160068395546 159.7802323146723
379 119.1582341145314 123.9759853022845 161.0459644588641
380 47.37938743156381 131.6321194107338 163.7007907230028
381 19.56180776656094 132.1251216140109 163.7179817895918
382 76.16112547589356 130.0492569823126 163.2421097350672
383 205.3316116130803 71.4905323662436 178.6014634656972
384 201.3300482874338 93.55844635793605 177.6313803342672
385 205.0647583549359 46.26319025157431 178.5033738076097
386 205.7283260513199 19.21479171513076 178.63560023909
387 209.501512525024 110.7471887077336 179.6900704246528
388 211.8441623348509 156.9253765350826 180.3493813913074
389 209.6067464462402 134.0351711613516 179.7497441591345
390 193.9422231212615 144.1272576651266 175.9140320621731
391 171.0023809317345 174.6230619830444 178.8987183493271
392 147.2211034524802 169.977833652108 177.5986224630429
393 105.4275015420291 173.1580940118535 178.5034252428468
394 129.4211994932477 176.7128458941821 179.5101827142212
395 77.24714660362265 170.8064894156329 177.8280927257723
396 47.5065790711149 172.1814134847056 178.2223562665256
397 17.19909463696091 173.3770552026259 178.5723770389042
398 248.5369634050101 77.85110533060801 188.1545597718451
399 248.5691588042653 107.4730739243913 188.1591817484024
400 249.9353633518637 140.7604016187508 188.4146145423421
401 249.4087622735616 169.3464932972782 188.3319080412604
402 249.1823688112127 196.1008789803013 188.3313609404858
403 249.6644001480466 49.70533527071205 188.3648856389839
404 248.5795286774137 20.49184339232139 188.1636399703928
405 103.8513017548193 211.437740917998 188.1548359212108
406 77.6499733910332 211.2316854203165 188.1458688669389
407 229.577790418431 206.7559921876824 187.0195713523464
408 206.7052973525904 211.7118835033641 188.0831998027778
409 47.47910703501165 211.0790000959701 188.1532414131457
410 19.39667924439969 210.9174698814383 188.155678149566
411 255.0581605082445 232.5218758505044 192.335045589257
412 125.5340679071732 125.4513370194107 194.926
413 205.9812481664354 89.73643688302805 194.926
414 195.0637954313908 169.1009818042561 194.926
415 73.07339379806437 73.43796531658509 194.926
416 69.51066229335399 171.5029073714192 194.926
417 144.7182616777581 64.58279485421015 194.926
418 138.0002467901663 190.4655695640621 194.926
419 52.79611274913852 122.2709750687764 194.926
420 239.1854540691314 134.3227005483074 194.926
421 238.1663618602973 48.16162798857376 194.926
422 238.3151229338624 195.9258877533362 194.926
423 173.3041205981781 126.2606766257849 194.926
424 188.4651695374128 46.06674392274513 194.926
425 39.87960214426803 204.5933089055098 194.926
426 44.60141251628231 39.51517056046137 194.926
427 105.4760396349473 43.44234269552625 194.926
428 178.0281567457695 204.6478433951058 194.926
429 93.15421620882915 199.7192354072981 194.926
430 255.7503828657037 94.39752790194409 194.926
431 114.7460450245014 88.87350092303456 194.926
432 26.35203797902707 80.75349391416255 194.926
433 89.92575419901675 137.8592508591115 194.926
434 37.77520554020581 154.5003996333278 194.926
435 159.41866048511 159.1460159716172 194.926
436 274.9326217141812 220.6561815332015 194.926
437 254.9937180381715 166.4443386156605 194.926
438 152.2634406358355 102.2877439283814 194.926
439 206.8726005076385 214.0681889922872 194.926
440 139.9287204971457 32.17447922195974 194.926
441 77.46779811943364 36.12776988562339 194.926
442 104.0164325454848 169.2648083127221 194.926
443 82.74369604953861 102.4096841870414 194.926
444 211.8401748223627 28.06831936823697 194.926
445 176.0474849076154 74.81393208399024 194.926
446 206.6487205104527 120.3974040624575 194.926
447 118.3776122293332 224.8791457125009 194.926
448 26.50955579393721 108.8150811664458 194.926
449 262.5132480600877 118.9408881264548 194.926
450 220.2491491145811 159.6113364751842 194.926
451 60.82595196387594 221.9399345057468 194.926
452 263.3194246677258 29.41808562988832 194.926
453 214.864679092844 59.9832572650683 194.926
454 129.4019036226435 154.0313195328803 194.926
455 266.4063839549306 193.1424244478817 194.926
456 32.59522333948987 181.9973776450606 194.926
457 264.4005516043352 68.08148887511591 194.926
458 244.1647922142406 223.9596049889907 194.926
459 153.8941483246345 225.2383828700436 194.926
460 52.24183011117471 91.8924734552696 194.926
461 62.19419561986236 146.8628719884305 194.926
462 25.37746048392843 224.9445778313494 194.926
463 177.424194914578 24.13696566176799 194.926
464 24.94765358331383 24.71392676931674 194.926
465 23.41617481665631 133.4435661735965 194.926
466 205.3431839062901 187.5750454122888 194.926
467 233.3860831323675 106.1287292180916 194.926
468 182.6997592641415 101.5952336736295 194.926
469 149.9317270596036 134.915020968412 194.926
470 111.1744289567387 21.52976632291341 194.926
471 192.7383841687944 143.9931462457421 194.926
472 48.55814591419232 18.75102107596808 194.926
473 24.46200314393128 52.79373129442955 194.926
474 97.06345135780917 66.85390201482112 194.926
475 184.6952752279124 228.4149439331266 194.926
476 239.6745688208725 21.76373180382502 194.926
477 172.3582162081916 180.7905061694609 194.926
478 103.8456369155681 112.9015799178112 194.926
479 61.45268294535123 195.8613669737161 194.926
480 163.0268613131547 47.23407001203746 194.926
481 120.663220646258 61.37967113388325 194.926
482 19.57045719353727 203.6672278763295 194.926
483 235.4248844536638 77.74817802197028 194.926
484 268.8862910559913 144.4343554761786 194.926
485 88.83605143553878 229.4601900992681 194.926
486 50.35015690256373 62.7765408351413 194.926
487 5.425007985395282 5.152371598599451 0
488 299.2481039241308 12.52347629337337 192.7337651958329
489 299.2543207261153 238.475299372905 192.7287861853881
490 303 125.5000000000122 114.926
491 303 63.55112328484121 109.8647779933219
492 303 187.4488767151777 109.8647779933158
493 303 87.23980819596569 140.2297149123389
494 303 163.7601918040583 140.2297149123386
495 303 209.5941962560433 145.5044512064429
496 303 41.4058037439677 145.5044512064405
497 303 96.33132137362874 83.51999535786412
498 303 155.262295885773 84.09304407626384
499 303 36.13829507165289 81.28536616433111
500 303 214.8617049283556 81.28536616432773
501 303 125.5000000000122 150.8557668240861
502 303 68.65080798587476 75.83826494895807
503 303 182.3749459213376 75.8631264961577
504 303 31.60412701448585 113.3955401708907
505 303 219.3958729855188 113.3955401708948
506 303 125.6765982208073 74.68514359680893
507 303 66.65353387940421 156.5016730396019
508 303 184.3464661206079 156.5016730396081
509 303 151.7340126119082 112.5514616400876
510 303 99.94440711312241 111.8965488190588
511 303 105.0489511785815 161.7220214250956
512 303 145.9510488214422 161.7220214250959
513 303 183.0391255243488 131.8990130925986
514 303 67.96087447568138 131.8990130925991
515 303 227.7388389675571 162.1021787156905
516 303 23.26116103244715 162.1021787156904
517 303 111.7438015934823 132.8908834120431
518 303 139.2561984065422 132.890883412043
519 303 105.8915520877151 61.3609723371946
520 303 145.2662501958031 61.45648045692732
521 303 117.0330800425766 96.6570423855454
522 303 22.11487120689213 131.9567304206375
523 303 228.8851287931115 131.9567304206405
524 303 233.2059572799609 62.91757666148472
525 303 17.79404272004344 62.91757666148422
526 303 46.87950125312015 163.8628919800443
527 303 204.1204987468936 163.8628919800452
528 303 77.98337208532257 98.37243975555573
529 303 173.2329263966299 98.58124360332343
530 303 20.64578609290902 95.47293605794879
531 303 230.3542139070925 95.47293605795201
532 303 50.90319367255434 65.6563468900404
533 303 200.0989962855538 65.65846096718104
534 303 136.3498713863853 97.40293955488599
535 303 47.93091256199757 123.7978247306204
536 303 203.0690874380197 123.7978247306227
537 303 86.12019083490281 62.11424652880336
538 303 165.0352438551334 62.25293020586978
539 303 84.02629572066034 166.3284717563464
540 303 166.9737042793572 166.3284717563502
541 303 44.17767069849197 100.7630647385842
542 303 206.8223293015209 100.7630647385825
543 303 125.5000000000121 169.305856430331
544 303 171.8430266104246 118.6252422483328
545 303 79.33591703098665 118.4524989145749
546 303 125.5000000000122 56.97373740582971
547 303 57.77719801703607 89.4086817994684
548 303 193.2518784528874 89.43675078423973
549 303 238.2579620222871 80.66123401929022
550 303 12.74203797771143 80.66123401928944
551 303 237.370679186908 147.856969808222
552 303 13.62932081309424 147.8569698082192
553 303 35.06574145270584 57.44752645193017
554 303 215.934258547301 57.44752645193577
555 303 239.4801642873447 173.386711345584
556 303 11.5198357126594 173.386711345584
557 301.0219080414618 12.42072342781982 38.95532236891574
558 301.0219105453366 238.5792836083446 38.95532573299998
559 125.6301643543208 121.8674294824226 34.926
560 204.9854371432919 86.69965486676648 34.926
561 211.6115523664132 169.4391862333963 34.926
562 73.35177221962981 177.8279893617577 34.926
563 73.85155014791481 72.79653343746492 34.926
564 150.0335010483203 192.5982532264975 34.926
565 144.1987522847635 63.79398655371212 34.926
566 53.16727685833357 125.565042298693 34.926
567 244.0083629302295 127.1744125913585 34.926
568 245.3706595995804 50.87096352000962 34.926
569 177.0757972064675 129.7915185677459 34.926
570 247.588373112608 205.7472528058007 34.926
571 186.8988169369037 43.9572564800166 34.926
572 111.3027573016807 208.5538775878366 34.926
573 187.7897330581587 208.6229522306456 34.926
574 106.1503184036146 40.82700769158206 34.926
575 39.78140544648354 40.88484180422105 34.926
576 40.98047428718795 209.3359724578803 34.926
577 253.1041007247 163.9197995827664 34.926
578 114.1083954205598 164.5629354276459 34.926
579 111.2274156366313 86.67550342659393 34.926
580 254.0905803121454 89.7609986554816 34.926
581 38.55697422793093 160.7334638329386 34.926
582 38.37651156918628 87.53021286450965 34.926
583 168.9599467974387 93.81023856764281 34.926
584 89.63210616478921 136.3662889815828 34.926
585 177.0713707079042 165.9484777274381 34.926
586 76.61311453433433 217.4651913936541 34.926
587 208.5542172251659 120.6866000015401 34.926
588 147.1573165262021 150.8805465060411 34.926
589 154.3932845734382 33.90436626001239 34.926
590 155.9789193271243 218.1648405267362 34.926
591 75.84581297997948 33.27417755693158 34.926
592 78.41416886031715 102.2729830453945 34.926
593 218.222736637218 30.67816699604155 34.926
594 222.1098035878556 217.1111221572622 34.926
595 260.9045711208689 32.7341386501314 34.926
596 25.92504552730724 125.5 34.926
597 146.9098396824817 101.4471280254887 34.926
598 213.5570759594767 61.92020002388224 34.926
599 265.3283364104707 223.0443242915325 34.926
600 263.4775763760437 140.9003286158644 34.926
601 28.22872841814189 185.370836088785 34.926
602 27.27517163930064 65.22483154813136 34.926
603 271.2381988943256 54.35257827159297 34.926
604 229.4536574270954 98.03056904939898 34.926
605 64.28263495620584 149.1328352725429 34.926
606 265.7838997927012 113.5339985862517 34.926
607 265.9699524627418 186.3093839198732 34.926
608 132.6002582229357 23.03492154862302 34.926
609 219.5405200825126 141.9014905440972 34.926
610 135.1307523779219 229.2427014879655 34.926
611 182.0793397838068 72.12193482562994 34.926
612 151.5444112778833 127.8273943960767 34.926
613 195.0392009045667 148.8284141486281 34.926
614 223.15599540453 191.4761020004907 34.926
615 25.03369696410255 25.13291128823089 34.926
616 25.03369696410251 225.867088711769 34.926
617 100.0326930872679 113.0113589321622 34.926
618 232.2951909955637 73.20671673264185 34.926
619 97.23532711861969 66.82311818512871 34.926
620 100.2039113869769 183.4984165249764 34.926
621 124.4051246353666 187.0686211183763 34.926
622 239.145754770762 27.31974859240066 34.926
623 190.1912768622987 108.5475669077124 34.926
624 243.4325722158667 228.2961249826467 34.926
625 182.1351494291131 19.8284218479935 34.926
626 50.02334789096872 66.05869124612076 34.926
627 51.02430783078027 185.9332422819879 34.926
628 120.8919925236937 62.29804858704643 34.926
629 90.21988158557168 159.8980786552 34.926
630 19.88353003512277 102.285088148971 34.926
631 20.43256001695682 148.5549142475748 34.926
632 193.8836834571615 184.37047868259 34.926
633 177.4694669240739 229.6327296580401 34.926
634 58.21408530623216 228.2706801561008 34.926
635 96.44183135119221 226.7423598995591 34.926
636 59.61771518028782 21.89515139293728 34.926
637 56.90966096452324 104.336403402133 34.926
638 273.555464361409 78.79015742545388 34.926
639 164.6605370588766 54.22872099898387 34.926
640 95.08313848620995 22.53892000712896 34.926
641 171.6973709372734 190.2866066710564 34.926
642 233.0793066815672 166.3407522047393 34.926
643 111.0017578869233 142.9105283788286 34.926
644 274.2217874574988 165.4878870814984 34.926
645 20.78455205054618 45.47909288417061 34.926
646 20.78455205054616 205.5209071158293 34.926
647 135.9355568412025 206.3334069983337 34.926
648 82.94971342248721 52.47123749257995 34.926
649 92.15223097015017 88.31589940534884 34.926
650 242.6419733590106 148.0473567077652 34.926
651 40.08727823409664 140.3036817175181 34.926
652 64.85996134762811 203.5384924522429 34.926
653 17.10704264872194 82.95348105777484 34.926
654 17.44365253260593 167.3863882884072 34.926
655 136.0690480873663 168.1131668253727 34.926
656 253.722310520507 69.04600273888147 34.926
657 38.71602982562603 109.8896615206795 34.926
658 133.4589508269836 81.47133164531095 34.926
659 137.7367848110673 45.84391447495532 34.926
660 167.5572618845171 148.5947210972269 34.926
661 274.2192670459922 205.2816450814004 34.926
662 246.2519437268705 107.7578455605982 34.926
663 73.73975681523947 121.780818655418 34.926
664 156.7112277390584 77.81222343612805 34.926
665 62.69244573222897 48.25852485875686 34.926
666 59.51504788658204 86.59896479912459 34.926
667 203.6097990680925 230.9422393794026 34.926
668 88.49519275217497 202.5384044008058 34.926
669 157.4554746840784 168.2919752374311 34.926
670 204.3839445725552 22.28625135176245 34.926
671 167.9982993971354 113.196969360089 34.926
672 55.909038077867 167.8326394137702 34.926
673 278.9792606625905 128.178827451061 34.926
674 276.2774909681722 97.64261789755092 34.926
675 245.6630535300754 183.4572329226772 34.926
676 275.7995943949612 16.75087342294001 34.926
677 111.3545531623286 17.03485511163607 34.926
678 206.1098029151597 206.5045788900782 34.926
679 129.5803650857659 143.5191504023247 34.926
680 159.0185227962585 15.23975348648579 34.926
681 157.6303531374934 236.1881025521196 34.926
682 121.3165166161673 102.5355256806725 34.926
683 113.458040546599 234.0586509085815 34.926
684 280.1210564386682 148.3181818181986 34.926
685 257.7199840573185 15.36095213309441 34.926
686 279.156734256312 34.39238303625807 34.926
687 196.4663964538429 60.47925793256275 34.926
688 226.6256603587504 116.559992292317 34.926
689 80.44826816227796 234.5026556177243 34.926
690 211.9496310861941 104.4066621565963 34.926
691 276.2425936650413 237.0839634368944 34.926
692 39.37577933250717 236.1208397581088 34.926
693 256.3750000000001 238.2541332599157 34.926
694 186.554000146709 90.29484879193791 34.926
695 194.0290204070726 130.9599829094439 34.926
696 225.4911226717095 48.14485636579833 34.926
697 38.97340254489747 15.4278543099097 34.926
698 207.503348871951 44.57766485834399 34.926
699 194.4014518590114 167.1466391980131 34.926
700 79.660110893298 16.01050490857401 34.926
701 12.20833333333334 11.40909090909017 34.926
702 12.20833333333334 239.5909090909098 34.926
703 170.6455767809245 208.9032481590093 34.926
704 171.6032463997283 34.5033565419137 34.926
705 223.992257603662 16.66657180847139 34.926
706 225.6054294615122 235.002563125718 34.926
707 13.40342407288717 256.7412071081175 193.1137066961207
708 279.5965759602701 256.7412068893694 193.1137068495065
709 298.8754534989048 259.0919123933842 57.73432013456851
710 298.8754537132661 259.0919122377388 172.1176838053013
711 13.40342401041369 259.1877068655832 39.18479313355796
712 279.5965758988846 259.1877066635385 39.18479284541604
713 69.453268368606 261 114.7069709523043
714 222.9279010238879 261 114.926000000003
715 144.5355743903986 261 114.739820388955
716 182.2540319125222 261 90.83702983400008
717 182.4145958817637 261 138.9491571603303
718 107.352575092086 261 141.2722508453891
719 108.1933290864712 261 88.21626238817169
720 41.43283556905617 261 145.7150243263523
721 251.9696966838249 261 147.0732323291766
722 40.49488353296696 261 82.60322550033091
723 252.2077215944007 261 87.0869111992084
724 216.2501107786308 261 80.63534880901378
725 215.6283736899466 261 148.4685406310329
726 145.7627608400725 261 150.979283948576
727 145.6311168670194 261 78.88854109740754
728 75.16077704297426 261 152.0466000485929
729 73.44885461156649 261 78.24799810171648
730 31.01190870341196 261 114.9259999999948
731 261.9880912965812 261 114.9260000000069
732 96.47489662096604 261 114.7456666909447
733 171.3766950663386 261 114.9377130792492
734 195.50252231241 261 114.9457120009705
735 124.9819974286009 261 158.7992185746825
736 124.9837607731483 261 70.99252657568235
737 185.0040081486569 261 64.96082379115599
738 185.2259367133209 261 164.8878677833458
739 22.79271512505215 261 160.3690753571866
740 22.75783560922154 261 69.42588924932353
741 270.1611847116537 261 69.66566080054633
742 270.1555042871928 261 160.3498579728706
743 233.2042368143813 261 67.73764817485902
744 232.7585111579685 261 162.238633052036
745 128.4110145284013 261 94.18387250520793
746 129.8252010522258 261 135.6264177234765
747 93.65806784545106 261 161.0085350864867
748 93.61789427513551 261 68.844011238973
749 58.3270600000062 261 163.0454782978343
750 57.49498286194914 261 66.75892774289196
751 21.46736795959901 261 134.5158730045664
752 271.5326320403955 261 134.5158730045811
753 21.46736795960026 261 95.33612699542311
754 271.5326320403975 261 95.33612699543292
755 231.3126103526556 261 94.47664264579726
756 232.117180935999 261 134.5271406388156
757 84.1617333937464 261 133.7179884133964
758 83.80462408112919 261 96.5782985015569
759 49.24138174845589 261 124.6805260852536
760 61.12513917635575 261 91.80460349813771
761 119.1320984617581 261 114.7973817570241
762 161.8788534338508 261 67.64248564727352
763 161.9859869176431 261 162.2406005678467
764 207.6456609531464 261 133.4331507615684
765 207.4663769955321 261 95.92941644939307
766 207.6632577948549 261 165.7048992674455
767 160.0669448170008 261 95.04775031725283
768 207.6133311792592 261 62.5987873026439
769 159.7712223906486 261 135.1841584044691
770 241.7341863816289 261 112.1893733797904
771 197.7050528707224 261 79.47752773553435
772 140.7085058423644 261 167.6730572614736
773 140.4605284874896 261 61.87541397242386
774 62.96284268714081 261 138.9854313539556
775 198.1697523456202 261 149.3313224263363
776 109.891506934496 261 169.7617202800962
777 110.0981556156009 261 58.76555449401773
778 252.8053146561741 261 60.87522070801632
779 253.2151556718407 261 168.4724297968896
780 44.15247511884321 261 102.9975647607686
781 38.91878423321037 261 168.6947506634163
782 38.49122552301618 261 59.93770934720491
783 251.8683574676859 261 128.6463238704741
784 281.1847094051204 261 172.948631159879
785 11.80234544792454 261 172.953435505958
786 11.79362556897206 261 56.88430564566953
787 281.1861295112467 261 56.94424853347522
788 78.09539346221601 261 168.2933232980693
789 78.09539346223403 261 61.55867670195023
$EndNodes
$Elements
1484
1 2 2 1 1 59 322 321
2 2 2 1 1 321 322 57
3 2 2 1 1 321 1 4
4 2 2 1 1 59 321 4
5 2 2 1 1 322 5 2
6 2 2 1 1 1 321 57
7 2 2 1 1 57 322 2
8 2 2 1 1 5 322 59
9 2 2 1 2 5 323 2
10 2 2 1 2 6 3 60
11 2 2 1 2 58 323 60
12 2 2 1 2 60 3 58
13 2 2 1 2 323 5 60
14 2 2 1 2 323 58 2
15 2 2 1 3 61 324 7
16 2 2 1 3 324 59 4
17 2 2 1 3 324 4 7
18 2 2 1 3 324 61 8
19 2 2 1 3 59 324 5
20 2 2 1 3 324 8 5
21 2 2 1 4 60 325 6
22 2 2 1 4 62 325 5
23 2 2 1 4 62 5 8
24 2 2 1 4 325 9 6
25 2 2 1 4 9 325 62
26 2 2 1 4 325 60 5
27 2 2 1 5 65 8 326
28 2 2 1 5 326 8 61
29 2 2 1 5 7 66 327
30 2 2 1 5 7 327 61
31 2 2 1 5 66 10 328
32 2 2 1 5 328 10 63
33 2 2 1 5 326 61 327
34 2 2 1 5 328 11 326
35 2 2 1 5 65 326 11
36 2 2 1 5 11 328 63
37 2 2 1 5 327 66 328
38 2 2 1 5 326 327 328
39 2 2 1 6 329 330 64
40 2 2 1 6 12 329 64
41 2 2 1 6 12 67 329
42 2 2 1 6 11 330 65
43 2 2 1 6 67 9 329
44 2 2 1 6 329 9 62
45 2 2 1 6 330 11 64
46 2 2 1 6 8 330 62
47 2 2 1 6 62 330 329
48 2 2 1 6 8 65 330
49 2 2 1 7 70 332 331
50 2 2 1 7 70 331 14
51 2 2 1 7 71 13 331
52 2 2 1 7 63 10 71
53 2 2 1 7 331 13 68
54 2 2 1 7 332 71 331
55 2 2 1 7 70 11 332
56 2 2 1 7 71 332 63
57 2 2 1 7 332 11 63
58 2 2 1 7 14 331 68
59 2 2 1 8 72 333 15
60 2 2 1 8 334 12 64
61 2 2 1 8 69 15 333
62 2 2 1 8 11 334 64
63 2 2 1 8 70 14 333
64 2 2 1 8 333 14 69
65 2 2 1 8 334 72 12
66 2 2 1 8 334 333 72
67 2 2 1 8 333 334 70
68 2 2 1 8 11 70 334
69 2 2 1 9 335 337 336
70 2 2 1 9 335 73 337
71 2 2 1 9 74 337 73
72 2 2 1 9 335 338 78
73 2 2 1 9 336 338 335
74 2 2 1 9 336 14 68
75 2 2 1 9 77 336 337
76 2 2 1 9 13 78 338
77 2 2 1 9 13 338 68
78 2 2 1 9 17 337 74
79 2 2 1 9 336 68 338
80 2 2 1 9 77 14 336
81 2 2 1 9 337 17 77
82 2 2 1 9 73 335 16
83 2 2 1 9 335 78 16
84 2 2 1 10 339 341 340
85 2 2 1 10 340 341 79
86 2 2 1 10 79 15 340
87 2 2 1 10 340 15 69
88 2 2 1 10 77 17 75
89 2 2 1 10 18 79 341
90 2 2 1 10 18 341 76
91 2 2 1 10 341 339 75
92 2 2 1 10 339 77 75
93 2 2 1 10 339 340 69
94 2 2 1 10 339 14 77
95 2 2 1 10 14 339 69
96 2 2 1 10 341 75 76
97 2 2 1 11 85 19 342
98 2 2 1 11 342 19 80
99 2 2 1 11 343 20 84
100 2 2 1 11 20 343 81
101 2 2 1 11 343 84 17
102 2 2 1 11 343 74 344
103 2 2 1 11 16 85 73
104 2 2 1 11 74 343 17
105 2 2 1 11 343 80 81
106 2 2 1 11 342 80 343
107 2 2 1 11 342 343 344
108 2 2 1 11 342 344 85
109 2 2 1 11 85 344 73
110 2 2 1 11 344 74 73
111 2 2 1 12 345 347 346
112 2 2 1 12 345 346 75
113 2 2 1 12 347 83 346
114 2 2 1 12 86 18 76
115 2 2 1 12 346 83 86
116 2 2 1 12 84 20 82
117 2 2 1 12 347 84 82
118 2 2 1 12 83 21 86
119 2 2 1 12 84 347 345
120 2 2 1 12 346 86 76
121 2 2 1 12 17 345 75
122 2 2 1 12 75 346 76
123 2 2 1 12 347 82 83
124 2 2 1 12 345 17 84
125 2 2 1 13 19 94 348
126 2 2 1 13 93 349 23
127 2 2 1 13 23 349 89
128 2 2 1 13 19 348 80
129 2 2 1 13 350 81 80
130 2 2 1 13 351 81 350
131 2 2 1 13 94 22 348
132 2 2 1 13 88 349 350
133 2 2 1 13 349 351 350
134 2 2 1 13 88 350 87
135 2 2 1 13 351 20 81
136 2 2 1 13 351 349 93
137 2 2 1 13 93 20 351
138 2 2 1 13 348 22 87
139 2 2 1 13 89 349 88
140 2 2 1 13 350 348 87
141 2 2 1 13 348 350 80
142 2 2 1 14 352 353 92
143 2 2 1 14 95 352 92
144 2 2 1 14 95 92 24
145 2 2 1 14 353 352 354
146 2 2 1 14 91 92 353
147 2 2 1 14 95 21 83
148 2 2 1 14 90 353 93
149 2 2 1 14 353 354 93
150 2 2 1 14 93 23 90
151 2 2 1 14 353 90 91
152 2 2 1 14 354 352 82
153 2 2 1 14 20 354 82
154 2 2 1 14 352 95 83
155 2 2 1 14 82 352 83
156 2 2 1 14 354 20 93
157 2 2 1 15 98 356 355
158 2 2 1 15 99 26 105
159 2 2 1 15 355 97 98
160 2 2 1 15 357 355 356
161 2 2 1 15 358 359 106
162 2 2 1 15 357 356 104
163 2 2 1 15 104 356 105
164 2 2 1 15 360 96 97
165 2 2 1 15 355 360 97
166 2 2 1 15 106 359 22
167 2 2 1 15 359 87 22
168 2 2 1 15 355 361 360
169 2 2 1 15 357 361 355
170 2 2 1 15 361 357 89
171 2 2 1 15 105 356 99
172 2 2 1 15 360 358 96
173 2 2 1 15 104 23 357
174 2 2 1 15 96 358 25
175 2 2 1 15 360 359 358
176 2 2 1 15 88 359 360
177 2 2 1 15 357 23 89
178 2 2 1 15 88 360 361
179 2 2 1 15 99 356 98
180 2 2 1 15 359 88 87
181 2 2 1 15 25 358 106
182 2 2 1 15 361 89 88
183 2 2 1 16 103 363 362
184 2 2 1 16 26 100 105
185 2 2 1 16 103 362 102
186 2 2 1 16 364 101 365
187 2 2 1 16 365 101 102
188 2 2 1 16 107 24 363
189 2 2 1 16 24 92 363
190 2 2 1 16 363 27 107
191 2 2 1 16 103 27 363
192 2 2 1 16 363 92 362
193 2 2 1 16 362 92 91
194 2 2 1 16 364 365 366
195 2 2 1 16 366 365 367
196 2 2 1 16 366 367 90
197 2 2 1 16 367 362 91
198 2 2 1 16 365 102 362
199 2 2 1 16 366 104 364
200 2 2 1 16 364 105 100
201 2 2 1 16 23 366 90
202 2 2 1 16 105 364 104
203 2 2 1 16 364 100 101
204 2 2 1 16 366 23 104
205 2 2 1 16 90 367 91
206 2 2 1 16 362 367 365
207 2 2 1 17 368 370 369
208 2 2 1 17 368 369 371
209 2 2 1 17 111 372 371
210 2 2 1 17 29 119 112
211 2 2 1 17 111 371 110
212 2 2 1 17 120 373 25
213 2 2 1 17 373 96 25
214 2 2 1 17 374 368 371
215 2 2 1 17 99 368 374
216 2 2 1 17 28 373 120
217 2 2 1 17 370 375 109
218 2 2 1 17 108 109 375
219 2 2 1 17 370 109 369
220 2 2 1 17 372 111 112
221 2 2 1 17 28 108 373
222 2 2 1 17 375 370 97
223 2 2 1 17 98 370 368
224 2 2 1 17 374 371 372
225 2 2 1 17 370 98 97
226 2 2 1 17 373 375 96
227 2 2 1 17 96 375 97
228 2 2 1 17 374 372 118
229 2 2 1 17 118 372 119
230 2 2 1 17 118 26 374
231 2 2 1 17 119 372 112
232 2 2 1 17 368 99 98
233 2 2 1 17 375 373 108
234 2 2 1 17 369 110 371
235 2 2 1 17 110 369 109
236 2 2 1 17 374 26 99
237 2 2 1 18 376 114 377
238 2 2 1 18 377 114 115
239 2 2 1 18 378 100 379
240 2 2 1 18 379 100 26
241 2 2 1 18 117 381 380
242 2 2 1 18 380 382 116
243 2 2 1 18 117 380 116
244 2 2 1 18 382 378 377
245 2 2 1 18 379 377 378
246 2 2 1 18 379 118 376
247 2 2 1 18 29 113 119
248 2 2 1 18 376 119 113
249 2 2 1 18 119 376 118
250 2 2 1 18 378 382 101
251 2 2 1 18 102 101 382
252 2 2 1 18 114 376 113
253 2 2 1 18 382 380 102
254 2 2 1 18 382 115 116
255 2 2 1 18 115 382 377
256 2 2 1 18 381 121 27
257 2 2 1 18 380 381 103
258 2 2 1 18 380 103 102
259 2 2 1 18 376 377 379
260 2 2 1 18 379 26 118
261 2 2 1 18 100 378 101
262 2 2 1 18 103 381 27
263 2 2 1 18 121 381 30
264 2 2 1 18 381 117 30
265 2 2 1 19 383 384 110
266 2 2 1 19 110 384 111
267 2 2 1 19 123 385 122
268 2 2 1 19 385 386 122
269 2 2 1 19 387 111 384
270 2 2 1 19 383 123 124
271 2 2 1 19 384 383 124
272 2 2 1 19 384 124 387
273 2 2 1 19 386 136 31
274 2 2 1 19 388 389 126
275 2 2 1 19 390 389 388
276 2 2 1 19 390 388 135
277 2 2 1 19 122 386 31
278 2 2 1 19 136 386 28
279 2 2 1 19 135 127 32
280 2 2 1 19 386 108 28
281 2 2 1 19 123 383 385
282 2 2 1 19 125 387 124
283 2 2 1 19 109 385 383
284 2 2 1 19 110 109 383
285 2 2 1 19 108 385 109
286 2 2 1 19 135 29 390
287 2 2 1 19 390 111 389
288 2 2 1 19 389 111 387
289 2 2 1 19 390 112 111
290 2 2 1 19 390 29 112
291 2 2 1 19 125 389 387
292 2 2 1 19 125 126 389
293 2 2 1 19 108 386 385
294 2 2 1 19 126 127 388
295 2 2 1 19 135 388 127
296 2 2 1 20 130 392 391
297 2 2 1 20 130 391 129
298 2 2 1 20 128 135 32
299 2 2 1 20 392 114 113
300 2 2 1 20 392 113 391
301 2 2 1 20 114 394 393
302 2 2 1 20 392 394 114
303 2 2 1 20 393 132 395
304 2 2 1 20 132 393 131
305 2 2 1 20 130 394 392
306 2 2 1 20 394 131 393
307 2 2 1 20 396 397 117
308 2 2 1 20 134 396 133
309 2 2 1 20 397 396 134
310 2 2 1 20 396 116 395
311 2 2 1 20 396 395 133
312 2 2 1 20 395 132 133
313 2 2 1 20 137 397 33
314 2 2 1 20 397 134 33
315 2 2 1 20 128 129 135
316 2 2 1 20 131 394 130
317 2 2 1 20 396 117 116
318 2 2 1 20 29 391 113
319 2 2 1 20 129 391 135
320 2 2 1 20 115 114 393
321 2 2 1 20 391 29 135
322 2 2 1 20 395 115 393
323 2 2 1 20 115 395 116
324 2 2 1 20 117 397 30
325 2 2 1 20 397 137 30
326 2 2 1 21 398 140 399
327 2 2 1 21 398 399 124
328 2 2 1 21 141 400 399
329 2 2 1 21 399 400 125
330 2 2 1 21 400 401 126
331 2 2 1 21 142 401 400
332 2 2 1 21 127 126 401
333 2 2 1 21 125 124 399
334 2 2 1 21 400 126 125
335 2 2 1 21 141 142 400
336 2 2 1 21 398 139 140
337 2 2 1 21 35 152 402
338 2 2 1 21 35 402 144
339 2 2 1 21 122 403 123
340 2 2 1 21 403 398 123
341 2 2 1 21 402 143 144
342 2 2 1 21 127 401 402
343 2 2 1 21 152 32 402
344 2 2 1 21 404 403 122
345 2 2 1 21 403 404 138
346 2 2 1 21 402 32 127
347 2 2 1 21 398 124 123
348 2 2 1 21 398 403 139
349 2 2 1 21 399 140 141
350 2 2 1 21 404 122 31
351 2 2 1 21 153 404 31
352 2 2 1 21 404 153 34
353 2 2 1 21 138 404 34
354 2 2 1 21 142 143 401
355 2 2 1 21 401 143 402
356 2 2 1 21 403 138 139
357 2 2 1 22 149 406 405
358 2 2 1 22 406 149 150
359 2 2 1 22 407 128 32
360 2 2 1 22 408 146 129
361 2 2 1 22 150 409 406
362 2 2 1 22 406 409 133
363 2 2 1 22 408 129 128
364 2 2 1 22 131 130 148
365 2 2 1 22 130 147 148
366 2 2 1 22 147 130 129
367 2 2 1 22 147 129 146
368 2 2 1 22 405 406 132
369 2 2 1 22 146 408 145
370 2 2 1 22 405 131 148
371 2 2 1 22 32 152 407
372 2 2 1 22 149 405 148
373 2 2 1 22 406 133 132
374 2 2 1 22 131 405 132
375 2 2 1 22 410 154 33
376 2 2 1 22 410 151 36
377 2 2 1 22 154 410 36
378 2 2 1 22 410 33 134
379 2 2 1 22 407 152 35
380 2 2 1 22 408 407 145
381 2 2 1 22 145 407 35
382 2 2 1 22 151 409 150
383 2 2 1 22 407 408 128
384 2 2 1 22 409 134 133
385 2 2 1 22 410 134 409
386 2 2 1 22 151 410 409
387 2 2 1 23 140 139 156
388 2 2 1 23 38 35 161
389 2 2 1 23 156 139 155
390 2 2 1 23 155 138 37
391 2 2 1 23 160 161 144
392 2 2 1 23 142 159 143
393 2 2 1 23 159 160 143
394 2 2 1 23 142 158 159
395 2 2 1 23 157 158 141
396 2 2 1 23 140 157 141
397 2 2 1 23 143 160 144
398 2 2 1 23 141 158 142
399 2 2 1 23 155 139 138
400 2 2 1 23 161 35 144
401 2 2 1 23 156 157 140
402 2 2 1 23 37 138 34
403 2 2 1 24 145 162 411
404 2 2 1 24 162 38 411
405 2 2 1 24 38 35 411
406 2 2 1 24 411 35 145
407 2 2 1 24 165 148 166
408 2 2 1 24 148 149 166
409 2 2 1 24 150 168 167
410 2 2 1 24 168 36 39
411 2 2 1 24 150 151 168
412 2 2 1 24 145 163 162
413 2 2 1 24 145 146 163
414 2 2 1 24 147 165 164
415 2 2 1 24 147 148 165
416 2 2 1 24 163 146 164
417 2 2 1 24 146 147 164
418 2 2 1 24 36 168 151
419 2 2 1 24 149 150 167
420 2 2 1 24 166 149 167
421 2 2 4 25 439 163 458
422 2 2 4 25 416 434 456
423 2 2 4 25 416 429 442
424 2 2 4 25 416 456 479
425 2 2 4 25 428 466 477
426 2 2 4 25 429 418 442
427 2 2 4 25 163 162 458
428 2 2 4 25 428 439 466
429 2 2 4 25 417 431 438
430 2 2 4 25 431 412 438
431 2 2 4 25 428 418 459
432 2 2 4 25 430 157 457
433 2 2 4 25 440 427 481
434 2 2 4 25 178 179 432
435 2 2 4 25 412 433 454
436 2 2 4 25 155 452 457
437 2 2 4 25 441 415 474
438 2 2 4 25 450 446 471
439 2 2 4 25 418 428 477
440 2 2 4 25 420 446 450
441 2 2 4 25 178 432 473
442 2 2 4 25 174 441 470
443 2 2 4 25 433 442 454
444 2 2 4 25 412 431 478
445 2 2 4 25 427 440 470
446 2 2 4 25 161 160 436
447 2 2 4 25 168 451 462
448 2 2 4 25 466 414 477
449 2 2 4 25 429 416 479
450 2 2 4 25 156 155 457
451 2 2 4 25 431 417 481
452 2 2 4 25 424 445 453
453 2 2 4 25 157 156 457
454 2 2 4 25 415 441 486
455 2 2 4 25 456 425 479
456 2 2 4 25 445 413 453
457 2 2 4 25 418 429 447
458 2 2 4 25 441 427 470
459 2 2 4 25 415 443 474
460 2 2 4 25 168 167 451
461 2 2 4 25 443 431 474
462 2 2 4 25 427 441 474
463 2 2 4 25 37 169 452
464 2 2 4 25 418 447 459
465 2 2 4 25 174 175 441
466 2 2 4 25 157 430 449
467 2 2 4 25 38 161 436
468 2 2 4 25 155 37 452
469 2 2 4 25 435 418 477
470 2 2 4 25 417 440 481
471 2 2 4 25 420 449 467
472 2 2 4 25 449 430 467
473 2 2 4 25 433 416 442
474 2 2 4 25 419 433 443
475 2 2 4 25 444 171 463
476 2 2 4 25 432 179 448
477 2 2 4 25 423 435 471
478 2 2 4 25 434 181 456
479 2 2 4 25 435 414 471
480 2 2 4 25 422 437 450
481 2 2 4 25 170 171 444
482 2 2 4 25 451 425 462
483 2 2 4 25 464 177 473
484 2 2 4 25 417 438 445
485 2 2 4 25 424 444 463
486 2 2 4 25 436 455 458
487 2 2 4 25 441 426 486
488 2 2 4 25 433 419 461
489 2 2 4 25 422 439 458
490 2 2 4 25 416 433 461
491 2 2 4 25 181 434 465
492 2 2 4 25 418 435 454
493 2 2 4 25 172 173 440
494 2 2 4 25 166 447 485
495 2 2 4 25 433 412 478
496 2 2 4 25 434 419 465
497 2 2 4 25 166 165 447
498 2 2 4 25 177 178 473
499 2 2 4 25 181 182 456
500 2 2 4 25 159 437 455
501 2 2 4 25 452 421 457
502 2 2 4 25 447 429 485
503 2 2 4 25 183 39 462
504 2 2 4 25 438 412 469
505 2 2 4 25 423 438 469
506 2 2 4 25 39 168 462
507 2 2 4 25 422 450 466
508 2 2 4 25 435 423 469
509 2 2 4 25 414 435 477
510 2 2 4 25 419 434 461
511 2 2 4 25 434 416 461
512 2 2 4 25 40 177 464
513 2 2 4 25 176 40 464
514 2 2 4 25 437 420 450
515 2 2 4 25 455 422 458
516 2 2 4 25 420 437 484
517 2 2 4 25 172 440 463
518 2 2 4 25 440 173 470
519 2 2 4 25 437 159 484
520 2 2 4 25 438 423 468
521 2 2 4 25 179 180 448
522 2 2 4 25 442 418 454
523 2 2 4 25 432 448 460
524 2 2 4 25 158 157 449
525 2 2 4 25 457 421 483
526 2 2 4 25 437 422 455
527 2 2 4 25 160 159 455
528 2 2 4 25 414 450 471
529 2 2 4 25 445 438 468
530 2 2 4 25 180 181 465
531 2 2 4 25 448 419 460
532 2 2 4 25 444 424 453
533 2 2 4 25 431 443 478
534 2 2 4 25 163 439 475
535 2 2 4 25 426 464 473
536 2 2 4 25 159 158 484
537 2 2 4 25 439 422 466
538 2 2 4 25 463 440 480
539 2 2 4 25 430 457 483
540 2 2 4 25 439 428 475
541 2 2 4 25 165 164 459
542 2 2 4 25 443 433 478
543 2 2 4 25 421 444 453
544 2 2 4 25 419 448 465
545 2 2 4 25 426 441 472
546 2 2 4 25 441 175 472
547 2 2 4 25 443 415 460
548 2 2 4 25 446 413 468
549 2 2 4 25 446 420 467
550 2 2 4 25 423 446 468
551 2 2 4 25 449 420 484
552 2 2 4 25 169 170 476
553 2 2 4 25 419 443 460
554 2 2 4 25 164 163 475
555 2 2 4 25 445 424 480
556 2 2 4 25 459 164 475
557 2 2 4 25 417 445 480
558 2 2 4 25 460 415 486
559 2 2 4 25 432 460 486
560 2 2 4 25 440 417 480
561 2 2 4 25 444 421 476
562 2 2 4 25 171 172 463
563 2 2 4 25 451 429 479
564 2 2 4 25 173 174 470
565 2 2 4 25 447 165 459
566 2 2 4 25 175 176 472
567 2 2 4 25 428 459 475
568 2 2 4 25 167 166 485
569 2 2 4 25 170 444 476
570 2 2 4 25 413 446 467
571 2 2 4 25 413 445 468
572 2 2 4 25 446 423 471
573 2 2 4 25 182 183 482
574 2 2 4 25 452 169 476
575 2 2 4 25 448 180 465
576 2 2 4 25 421 453 483
577 2 2 4 25 450 414 466
578 2 2 4 25 436 160 455
579 2 2 4 25 424 463 480
580 2 2 4 25 421 452 476
581 2 2 4 25 412 454 469
582 2 2 4 25 454 435 469
583 2 2 4 25 425 451 479
584 2 2 4 25 158 449 484
585 2 2 4 25 453 413 483
586 2 2 4 25 451 167 485
587 2 2 4 25 473 432 486
588 2 2 4 25 426 473 486
589 2 2 4 25 429 451 485
590 2 2 4 25 456 182 482
591 2 2 4 25 425 456 482
592 2 2 4 25 464 426 472
593 2 2 4 25 176 464 472
594 2 2 4 25 413 467 483
595 2 2 4 25 474 431 481
596 2 2 4 25 183 462 482
597 2 2 4 25 462 425 482
598 2 2 4 25 467 430 483
599 2 2 4 25 427 474 481
600 2 2 4 25 162 38 458
601 2 2 4 25 38 436 458
602 2 2 2 26 57 184 1
603 2 2 2 26 58 3 185
604 2 2 2 26 57 2 487
605 2 2 2 26 184 57 487
606 2 2 2 26 185 41 487
607 2 2 2 26 58 185 487
608 2 2 2 26 41 184 487
609 2 2 2 26 2 58 487
610 2 2 3 27 38 161 51
611 2 2 3 27 281 155 37
612 2 2 3 27 38 51 231
613 2 2 3 27 230 162 38
614 2 2 3 27 231 230 38
615 2 2 3 27 168 221 39
616 2 2 3 27 51 161 290
617 2 2 3 27 282 156 155
618 2 2 3 27 282 155 281
619 2 2 3 27 284 157 156
620 2 2 3 27 283 156 282
621 2 2 3 27 284 156 283
622 2 2 3 27 285 158 157
623 2 2 3 27 285 157 284
624 2 2 3 27 287 159 158
625 2 2 3 27 286 158 285
626 2 2 3 27 158 286 287
627 2 2 3 27 288 160 159
628 2 2 3 27 159 287 288
629 2 2 3 27 290 161 160
630 2 2 3 27 289 160 288
631 2 2 3 27 160 289 290
632 2 2 3 27 229 163 162
633 2 2 3 27 162 230 229
634 2 2 3 27 228 164 163
635 2 2 3 27 163 229 228
636 2 2 3 27 226 165 164
637 2 2 3 27 164 227 226
638 2 2 3 27 227 164 228
639 2 2 3 27 225 166 165
640 2 2 3 27 165 226 225
641 2 2 3 27 166 224 167
642 2 2 3 27 166 225 224
643 2 2 3 27 222 168 167
644 2 2 3 27 223 222 167
645 2 2 3 27 224 223 167
646 2 2 3 27 168 222 221
647 2 2 3 27 281 37 43
648 2 2 3 27 39 221 47
649 2 2 3 28 292 282 291
650 2 2 3 28 291 282 281
651 2 2 3 28 291 488 44
652 2 2 3 28 488 186 44
653 2 2 3 28 489 300 52
654 2 2 3 28 232 489 52
655 2 2 3 28 286 295 296
656 2 2 3 28 286 297 287
657 2 2 3 28 296 297 286
658 2 2 3 28 285 295 286
659 2 2 3 28 290 489 51
660 2 2 3 28 489 290 300
661 2 2 3 28 489 232 51
662 2 2 3 28 488 281 43
663 2 2 3 28 281 488 291
664 2 2 3 28 186 488 43
665 2 2 3 28 299 300 290
666 2 2 3 28 299 290 289
667 2 2 3 28 289 288 299
668 2 2 3 28 292 293 282
669 2 2 3 28 298 299 288
670 2 2 3 28 287 297 298
671 2 2 3 28 287 298 288
672 2 2 3 28 283 282 293
673 2 2 3 28 284 283 293
674 2 2 3 28 293 294 284
675 2 2 3 28 285 284 294
676 2 2 3 28 294 295 285
677 2 2 3 29 300 299 527
678 2 2 3 29 292 291 526
679 2 2 3 29 189 504 522
680 2 2 3 29 505 235 523
681 2 2 3 29 515 300 527
682 2 2 3 29 291 516 526
683 2 2 3 29 303 502 532
684 2 2 3 29 503 308 533
685 2 2 3 29 502 497 528
686 2 2 3 29 498 503 529
687 2 2 3 29 504 189 530
688 2 2 3 29 235 505 531
689 2 2 3 29 507 496 514
690 2 2 3 29 495 508 513
691 2 2 3 29 497 502 537
692 2 2 3 29 503 498 538
693 2 2 3 29 506 498 534
694 2 2 3 29 507 293 526
695 2 2 3 29 298 508 527
696 2 2 3 29 502 303 537
697 2 2 3 29 308 503 538
698 2 2 3 29 506 497 519
699 2 2 3 29 498 506 520
700 2 2 3 29 512 501 518
701 2 2 3 29 501 511 517
702 2 2 3 29 511 493 517
703 2 2 3 29 494 512 518
704 2 2 3 29 497 506 521
705 2 2 3 29 490 510 521
706 2 2 3 29 510 497 521
707 2 2 3 29 293 292 526
708 2 2 3 29 299 298 527
709 2 2 3 29 493 507 514
710 2 2 3 29 508 494 513
711 2 2 3 29 310 53 524
712 2 2 3 29 45 301 525
713 2 2 3 29 53 237 524
714 2 2 3 29 191 45 525
715 2 2 3 29 507 493 539
716 2 2 3 29 494 508 540
717 2 2 3 29 490 509 518
718 2 2 3 29 510 490 517
719 2 2 3 29 509 494 518
720 2 2 3 29 493 510 517
721 2 2 3 29 499 532 547
722 2 2 3 29 533 500 548
723 2 2 3 29 494 509 544
724 2 2 3 29 510 493 545
725 2 2 3 29 293 507 539
726 2 2 3 29 508 298 540
727 2 2 3 29 514 496 535
728 2 2 3 29 495 513 536
729 2 2 3 29 509 490 534
730 2 2 3 29 235 234 523
731 2 2 3 29 188 189 522
732 2 2 3 29 498 509 534
733 2 2 3 29 501 517 518
734 2 2 3 29 517 490 518
735 2 2 3 29 496 507 526
736 2 2 3 29 508 495 527
737 2 2 3 29 496 522 535
738 2 2 3 29 523 495 536
739 2 2 3 29 522 504 535
740 2 2 3 29 505 523 536
741 2 2 3 29 302 303 532
742 2 2 3 29 308 309 533
743 2 2 3 29 189 190 530
744 2 2 3 29 236 235 531
745 2 2 3 29 509 498 529
746 2 2 3 29 497 510 528
747 2 2 3 29 295 294 511
748 2 2 3 29 297 296 512
749 2 2 3 29 532 502 547
750 2 2 3 29 503 533 548
751 2 2 3 29 521 506 534
752 2 2 3 29 515 495 551
753 2 2 3 29 496 516 552
754 2 2 3 29 502 528 547
755 2 2 3 29 529 503 548
756 2 2 3 29 495 523 551
757 2 2 3 29 522 496 552
758 2 2 3 29 493 511 539
759 2 2 3 29 512 494 540
760 2 2 3 29 519 497 537
761 2 2 3 29 498 520 538
762 2 2 3 29 513 494 544
763 2 2 3 29 493 514 545
764 2 2 3 29 536 492 542
765 2 2 3 29 491 535 541
766 2 2 3 29 516 496 526
767 2 2 3 29 495 515 527
768 2 2 3 29 295 511 543
769 2 2 3 29 512 296 543
770 2 2 3 29 511 501 543
771 2 2 3 29 501 512 543
772 2 2 3 29 294 293 539
773 2 2 3 29 298 297 540
774 2 2 3 29 511 294 539
775 2 2 3 29 297 512 540
776 2 2 3 29 505 536 542
777 2 2 3 29 535 504 541
778 2 2 3 29 304 305 519
779 2 2 3 29 306 307 520
780 2 2 3 29 520 506 546
781 2 2 3 29 506 519 546
782 2 2 3 29 513 492 536
783 2 2 3 29 491 514 535
784 2 2 3 29 541 499 547
785 2 2 3 29 500 542 548
786 2 2 3 29 303 304 537
787 2 2 3 29 307 308 538
788 2 2 3 29 530 499 541
789 2 2 3 29 500 531 542
790 2 2 3 29 504 530 541
791 2 2 3 29 531 505 542
792 2 2 3 29 519 305 546
793 2 2 3 29 306 520 546
794 2 2 3 29 492 513 544
795 2 2 3 29 514 491 545
796 2 2 3 29 490 521 534
797 2 2 3 29 499 525 553
798 2 2 3 29 524 500 554
799 2 2 3 29 300 515 555
800 2 2 3 29 516 291 556
801 2 2 3 29 304 519 537
802 2 2 3 29 520 307 538
803 2 2 3 29 532 499 553
804 2 2 3 29 500 533 554
805 2 2 3 29 515 233 555
806 2 2 3 29 187 516 556
807 2 2 3 29 233 515 551
808 2 2 3 29 516 187 552
809 2 2 3 29 525 499 550
810 2 2 3 29 500 524 549
811 2 2 3 29 528 491 547
812 2 2 3 29 492 529 548
813 2 2 3 29 499 530 550
814 2 2 3 29 531 500 549
815 2 2 3 29 296 295 543
816 2 2 3 29 187 188 552
817 2 2 3 29 234 233 551
818 2 2 3 29 233 52 555
819 2 2 3 29 44 187 556
820 2 2 3 29 237 236 549
821 2 2 3 29 190 191 550
822 2 2 3 29 52 300 555
823 2 2 3 29 291 44 556
824 2 2 3 29 301 302 553
825 2 2 3 29 309 310 554
826 2 2 3 29 305 306 546
827 2 2 3 29 491 528 545
828 2 2 3 29 529 492 544
829 2 2 3 29 509 529 544
830 2 2 3 29 528 510 545
831 2 2 3 29 188 522 552
832 2 2 3 29 523 234 551
833 2 2 3 29 310 524 554
834 2 2 3 29 525 301 553
835 2 2 3 29 524 237 549
836 2 2 3 29 191 525 550
837 2 2 3 29 236 531 549
838 2 2 3 29 530 190 550
839 2 2 3 29 302 532 553
840 2 2 3 29 533 309 554
841 2 2 3 29 491 541 547
842 2 2 3 29 542 492 548
843 2 2 3 30 312 313 303
844 2 2 3 30 312 303 302
845 2 2 3 30 315 305 314
846 2 2 3 30 314 305 304
847 2 2 3 30 311 557 46
848 2 2 3 30 557 192 46
849 2 2 3 30 558 320 54
850 2 2 3 30 238 558 54
851 2 2 3 30 304 303 314
852 2 2 3 30 316 317 306
853 2 2 3 30 307 306 317
854 2 2 3 30 315 306 305
855 2 2 3 30 310 558 53
856 2 2 3 30 558 310 320
857 2 2 3 30 558 238 53
858 2 2 3 30 557 301 45
859 2 2 3 30 301 557 311
860 2 2 3 30 192 557 45
861 2 2 3 30 308 318 319
862 2 2 3 30 308 319 309
863 2 2 3 30 319 320 310
864 2 2 3 30 310 309 319
865 2 2 3 30 317 318 308
866 2 2 3 30 317 308 307
867 2 2 3 30 311 312 301
868 2 2 3 30 301 312 302
869 2 2 3 30 314 303 313
870 2 2 3 30 315 316 306
871 2 2 3 31 592 563 666
872 2 2 3 31 576 634 652
873 2 2 3 31 198 608 680
874 2 2 3 31 595 568 603
875 2 2 3 31 658 597 664
876 2 2 3 31 564 590 703
877 2 2 3 31 609 642 650
878 2 2 3 31 634 586 652
879 2 2 3 31 583 597 671
880 2 2 3 31 597 583 664
881 2 2 3 31 590 564 647
882 2 2 3 31 597 612 671
883 2 2 3 31 574 628 659
884 2 2 3 31 563 592 649
885 2 2 3 31 584 617 663
886 2 2 3 31 608 574 659
887 2 2 3 31 198 199 608
888 2 2 3 31 617 584 643
889 2 2 3 31 574 591 648
890 2 2 3 31 594 570 614
891 2 2 3 31 617 592 663
892 2 2 3 31 609 561 642
893 2 2 3 31 218 602 645
894 2 2 3 31 601 213 646
895 2 2 3 31 591 574 640
896 2 2 3 31 610 244 681
897 2 2 3 31 598 560 618
898 2 2 3 31 567 600 606
899 2 2 3 31 608 589 680
900 2 2 3 31 568 595 622
901 2 2 3 31 560 604 618
902 2 2 3 31 216 215 596
903 2 2 3 31 219 218 645
904 2 2 3 31 213 212 646
905 2 2 3 31 245 244 610
906 2 2 3 31 570 594 624
907 2 2 3 31 637 592 666
908 2 2 3 31 212 211 646
909 2 2 3 31 220 219 645
910 2 2 3 31 559 617 643
911 2 2 3 31 641 564 703
912 2 2 3 31 599 320 661
913 2 2 3 31 615 220 645
914 2 2 3 31 211 616 646
915 2 2 3 31 612 588 660
916 2 2 3 31 318 607 661
917 2 2 3 31 600 577 644
918 2 2 3 31 597 559 612
919 2 2 3 31 590 610 681
920 2 2 3 31 588 612 679
921 2 2 3 31 581 601 627
922 2 2 3 31 602 582 626
923 2 2 3 31 609 587 695
924 2 2 3 31 320 319 661
925 2 2 3 31 313 312 603
926 2 2 3 31 319 318 661
927 2 2 3 31 600 644 684
928 2 2 3 31 613 609 695
929 2 2 3 31 618 568 696
930 2 2 3 31 614 561 632
931 2 2 3 31 670 571 698
932 2 2 3 31 598 618 696
933 2 2 3 31 584 605 629
934 2 2 3 31 625 571 670
935 2 2 3 31 605 584 663
936 2 2 3 31 570 599 661
937 2 2 3 31 561 609 613
938 2 2 3 31 569 612 660
939 2 2 3 31 642 577 650
940 2 2 3 31 596 215 631
941 2 2 3 31 216 596 630
942 2 2 3 31 613 569 660
943 2 2 3 31 585 613 660
944 2 2 3 31 565 658 664
945 2 2 3 31 566 605 663
946 2 2 3 31 572 610 647
947 2 2 3 31 573 667 678
948 2 2 3 31 605 562 629
949 2 2 3 31 560 598 687
950 2 2 3 31 612 559 679
951 2 2 3 31 320 599 691
952 2 2 3 31 599 570 624
953 2 2 3 31 604 580 618
954 2 2 3 31 607 570 661
955 2 2 3 31 581 605 651
956 2 2 3 31 614 632 678
957 2 2 3 31 201 202 636
958 2 2 3 31 605 566 651
959 2 2 3 31 248 247 634
960 2 2 3 31 639 589 659
961 2 2 3 31 575 602 626
962 2 2 3 31 601 576 627
963 2 2 3 31 620 562 668
964 2 2 3 31 313 603 638
965 2 2 3 31 621 572 647
966 2 2 3 31 611 560 687
967 2 2 3 31 592 617 649
968 2 2 3 31 617 579 649
969 2 2 3 31 201 636 700
970 2 2 3 31 562 652 668
971 2 2 3 31 578 620 621
972 2 2 3 31 620 572 621
973 2 2 3 31 573 633 667
974 2 2 3 31 615 575 697
975 2 2 3 31 607 318 644
976 2 2 3 31 574 608 677
977 2 2 3 31 610 572 683
978 2 2 3 31 614 570 675
979 2 2 3 31 559 597 682
980 2 2 3 31 603 312 686
981 2 2 3 31 565 639 659
982 2 2 3 31 596 566 657
983 2 2 3 31 600 567 650
984 2 2 3 31 577 600 650
985 2 2 3 31 213 601 654
986 2 2 3 31 602 218 653
987 2 2 3 31 634 247 689
988 2 2 3 31 566 596 651
989 2 2 3 31 633 590 681
990 2 2 3 31 595 603 686
991 2 2 3 31 619 579 628
992 2 2 3 31 568 622 696
993 2 2 3 31 609 567 688
994 2 2 3 31 575 636 697
995 2 2 3 31 590 633 703
996 2 2 3 31 604 560 690
997 2 2 3 31 581 627 672
998 2 2 3 31 587 609 688
999 2 2 3 31 576 616 692
1000 2 2 3 31 567 606 662
1001 2 2 3 31 584 629 643
1002 2 2 3 31 626 582 666
1003 2 2 3 31 576 601 646
1004 2 2 3 31 602 575 645
1005 2 2 3 31 629 578 643
1006 2 2 3 31 582 602 653
1007 2 2 3 31 601 581 654
1008 2 2 3 31 578 655 679
1009 2 2 3 31 642 614 675
1010 2 2 3 31 562 620 629
1011 2 2 3 31 627 576 652
1012 2 2 3 31 619 574 648
1013 2 2 3 31 606 315 674
1014 2 2 3 31 620 578 629
1015 2 2 3 31 641 585 669
1016 2 2 3 31 580 604 662
1017 2 2 3 31 580 606 674
1018 2 2 3 31 623 569 695
1019 2 2 3 31 667 594 678
1020 2 2 3 31 605 581 672
1021 2 2 3 31 611 571 639
1022 2 2 3 31 634 576 692
1023 2 2 3 31 610 590 647
1024 2 2 3 31 626 563 665
1025 2 2 3 31 572 635 683
1026 2 2 3 31 315 606 673
1027 2 2 3 31 577 607 644
1028 2 2 3 31 632 585 641
1029 2 2 3 31 562 605 672
1030 2 2 3 31 603 568 656
1031 2 2 3 31 574 619 628
1032 2 2 3 31 636 575 665
1033 2 2 3 31 591 636 665
1034 2 2 3 31 637 566 663
1035 2 2 3 31 640 574 677
1036 2 2 3 31 567 609 650
1037 2 2 3 31 569 623 671
1038 2 2 3 31 606 600 673
1039 2 2 3 31 196 197 625
1040 2 2 3 31 592 637 663
1041 2 2 3 31 560 611 694
1042 2 2 3 31 318 317 644
1043 2 2 3 31 622 593 696
1044 2 2 3 31 606 580 662
1045 2 2 3 31 608 199 677
1046 2 2 3 31 589 608 659
1047 2 2 3 31 607 577 675
1048 2 2 3 31 563 648 665
1049 2 2 3 31 561 614 642
1050 2 2 3 31 217 216 630
1051 2 2 3 31 215 214 631
1052 2 2 3 31 638 603 656
1053 2 2 3 31 245 610 683
1054 2 2 3 31 568 618 656
1055 2 2 3 31 243 242 633
1056 2 2 3 31 570 607 675
1057 2 2 3 31 643 578 679
1058 2 2 3 31 571 611 687
1059 2 2 3 31 564 641 669
1060 2 2 3 31 583 611 664
1061 2 2 3 31 586 635 668
1062 2 2 3 31 635 572 668
1063 2 2 3 31 575 615 645
1064 2 2 3 31 616 576 646
1065 2 2 3 31 611 583 694
1066 2 2 3 31 628 565 659
1067 2 2 3 31 628 579 658
1068 2 2 3 31 314 313 638
1069 2 2 3 31 622 194 705
1070 2 2 3 31 580 638 656
1071 2 2 3 31 625 680 704
1072 2 2 3 31 218 217 653
1073 2 2 3 31 214 213 654
1074 2 2 3 31 593 670 698
1075 2 2 3 31 194 195 705
1076 2 2 3 31 587 623 695
1077 2 2 3 31 46 193 676
1078 2 2 3 31 195 196 670
1079 2 2 3 31 242 241 667
1080 2 2 3 31 586 634 689
1081 2 2 3 31 573 632 641
1082 2 2 3 31 625 197 680
1083 2 2 3 31 311 46 676
1084 2 2 3 31 612 569 671
1085 2 2 3 31 596 631 651
1086 2 2 3 31 636 591 700
1087 2 2 3 31 621 564 655
1088 2 2 3 31 315 314 674
1089 2 2 3 31 563 619 648
1090 2 2 3 31 569 613 695
1091 2 2 3 31 243 633 681
1092 2 2 3 31 561 613 699
1093 2 2 3 31 579 619 649
1094 2 2 3 31 613 585 699
1095 2 2 3 31 619 563 649
1096 2 2 3 31 240 624 706
1097 2 2 3 31 241 240 706
1098 2 2 3 31 564 621 647
1099 2 2 3 31 618 580 656
1100 2 2 3 31 632 573 678
1101 2 2 3 31 638 580 674
1102 2 2 3 31 631 581 651
1103 2 2 3 31 220 615 701
1104 2 2 3 31 616 211 702
1105 2 2 3 31 658 579 682
1106 2 2 3 31 617 559 682
1107 2 2 3 31 633 573 703
1108 2 2 3 31 560 623 690
1109 2 2 3 31 200 201 700
1110 2 2 3 31 623 587 690
1111 2 2 3 31 594 614 678
1112 2 2 3 31 630 596 657
1113 2 2 3 31 581 631 654
1114 2 2 3 31 630 582 653
1115 2 2 3 31 578 621 655
1116 2 2 3 31 589 639 704
1117 2 2 3 31 597 658 682
1118 2 2 3 31 247 246 689
1119 2 2 3 31 655 588 679
1120 2 2 3 31 655 564 669
1121 2 2 3 31 239 54 691
1122 2 2 3 31 562 627 652
1123 2 2 3 31 616 249 692
1124 2 2 3 31 246 245 683
1125 2 2 3 31 623 583 671
1126 2 2 3 31 566 637 657
1127 2 2 3 31 567 662 688
1128 2 2 3 31 599 624 693
1129 2 2 3 31 640 200 700
1130 2 2 3 31 246 635 689
1131 2 2 3 31 203 615 697
1132 2 2 3 31 54 320 691
1133 2 2 3 31 199 200 677
1134 2 2 3 31 249 616 702
1135 2 2 3 31 615 203 701
1136 2 2 3 31 662 604 688
1137 2 2 3 31 217 630 653
1138 2 2 3 31 631 214 654
1139 2 2 3 31 195 670 705
1140 2 2 3 31 572 620 668
1141 2 2 3 31 667 241 706
1142 2 2 3 31 582 630 657
1143 2 2 3 31 622 595 685
1144 2 2 3 31 635 246 683
1145 2 2 3 31 565 628 658
1146 2 2 3 31 680 589 704
1147 2 2 3 31 579 617 682
1148 2 2 3 31 588 655 669
1149 2 2 3 31 203 42 701
1150 2 2 3 31 50 249 702
1151 2 2 3 31 575 626 665
1152 2 2 3 31 194 622 685
1153 2 2 3 31 563 626 666
1154 2 2 3 31 583 623 694
1155 2 2 3 31 611 639 664
1156 2 2 3 31 637 582 657
1157 2 2 3 31 627 562 672
1158 2 2 3 31 249 248 692
1159 2 2 3 31 196 625 670
1160 2 2 3 31 577 642 675
1161 2 2 3 31 200 640 677
1162 2 2 3 31 593 622 705
1163 2 2 3 31 633 242 667
1164 2 2 3 31 316 315 673
1165 2 2 3 31 623 560 694
1166 2 2 3 31 202 203 697
1167 2 2 3 31 673 600 684
1168 2 2 3 31 582 637 666
1169 2 2 3 31 624 240 693
1170 2 2 3 31 639 565 664
1171 2 2 3 31 197 198 680
1172 2 2 3 31 316 673 684
1173 2 2 3 31 193 194 685
1174 2 2 3 31 244 243 681
1175 2 2 3 31 571 625 704
1176 2 2 3 31 240 239 693
1177 2 2 3 31 317 316 684
1178 2 2 3 31 639 571 704
1179 2 2 3 31 312 311 686
1180 2 2 3 31 624 594 706
1181 2 2 3 31 652 586 668
1182 2 2 3 31 42 220 701
1183 2 2 3 31 211 50 702
1184 2 2 3 31 632 561 699
1185 2 2 3 31 585 632 699
1186 2 2 3 31 314 638 674
1187 2 2 3 31 644 317 684
1188 2 2 3 31 635 586 689
1189 2 2 3 31 648 591 665
1190 2 2 3 31 248 634 692
1191 2 2 3 31 585 660 669
1192 2 2 3 31 660 588 669
1193 2 2 3 31 636 202 697
1194 2 2 3 31 591 640 700
1195 2 2 3 31 594 667 706
1196 2 2 3 31 559 643 679
1197 2 2 3 31 573 641 703
1198 2 2 3 31 670 593 705
1199 2 2 3 31 691 599 693
1200 2 2 3 31 598 696 698
1201 2 2 3 31 239 691 693
1202 2 2 3 31 595 676 685
1203 2 2 3 31 696 593 698
1204 2 2 3 31 676 193 685
1205 2 2 3 31 688 604 690
1206 2 2 3 31 587 688 690
1207 2 2 3 31 311 676 686
1208 2 2 3 31 676 595 686
1209 2 2 3 31 687 598 698
1210 2 2 3 31 571 687 698
1211 2 2 3 32 226 255 254
1212 2 2 3 32 226 254 225
1213 2 2 3 32 707 250 48
1214 2 2 3 32 204 707 48
1215 2 2 3 32 708 277 55
1216 2 2 3 32 260 708 55
1217 2 2 3 32 224 253 223
1218 2 2 3 32 227 256 255
1219 2 2 3 32 228 256 227
1220 2 2 3 32 227 255 226
1221 2 2 3 32 231 708 260
1222 2 2 3 32 277 708 51
1223 2 2 3 32 708 231 51
1224 2 2 3 32 221 707 47
1225 2 2 3 32 707 221 250
1226 2 2 3 32 707 204 47
1227 2 2 3 32 231 260 259
1228 2 2 3 32 231 259 230
1229 2 2 3 32 230 259 258
1230 2 2 3 32 230 258 229
1231 2 2 3 32 257 228 258
1232 2 2 3 32 258 228 229
1233 2 2 3 32 222 252 251
1234 2 2 3 32 222 251 221
1235 2 2 3 32 251 250 221
1236 2 2 3 32 225 254 253
1237 2 2 3 32 225 253 224
1238 2 2 3 32 222 223 252
1239 2 2 3 32 253 252 223
1240 2 2 3 32 228 257 256
1241 2 2 3 33 277 51 232
1242 2 2 3 33 232 52 278
1243 2 2 3 33 277 232 278
1244 2 2 3 33 278 55 277
1245 2 2 3 34 235 263 262
1246 2 2 3 34 235 262 234
1247 2 2 3 34 279 709 53
1248 2 2 3 34 709 237 53
1249 2 2 3 34 710 278 52
1250 2 2 3 34 233 710 52
1251 2 2 3 34 261 234 262
1252 2 2 3 34 261 233 234
1253 2 2 3 34 265 236 237
1254 2 2 3 34 264 236 265
1255 2 2 3 34 709 265 237
1256 2 2 3 34 709 279 56
1257 2 2 3 34 265 709 56
1258 2 2 3 34 261 710 233
1259 2 2 3 34 236 263 235
1260 2 2 3 34 278 710 55
1261 2 2 3 34 236 264 263
1262 2 2 3 34 710 261 55
1263 2 2 3 35 279 53 238
1264 2 2 3 35 238 54 280
1265 2 2 3 35 279 238 280
1266 2 2 3 35 280 56 279
1267 2 2 3 36 244 271 270
1268 2 2 3 36 244 270 243
1269 2 2 3 36 711 249 50
1270 2 2 3 36 210 711 50
1271 2 2 3 36 712 280 54
1272 2 2 3 36 239 712 54
1273 2 2 3 36 276 711 49
1274 2 2 3 36 711 276 249
1275 2 2 3 36 711 210 49
1276 2 2 3 36 270 242 243
1277 2 2 3 36 246 247 273
1278 2 2 3 36 273 245 246
1279 2 2 3 36 272 245 273
1280 2 2 3 36 266 712 239
1281 2 2 3 36 280 712 56
1282 2 2 3 36 712 266 56
1283 2 2 3 36 241 268 267
1284 2 2 3 36 241 267 240
1285 2 2 3 36 266 239 267
1286 2 2 3 36 276 275 248
1287 2 2 3 36 276 248 249
1288 2 2 3 36 274 248 275
1289 2 2 3 36 240 267 239
1290 2 2 3 36 241 269 268
1291 2 2 3 36 247 248 274
1292 2 2 3 36 274 273 247
1293 2 2 3 36 242 270 269
1294 2 2 3 36 271 244 245
1295 2 2 3 36 242 269 241
1296 2 2 3 36 272 271 245
1297 2 2 3 37 715 746 769
1298 2 2 3 37 716 762 767
1299 2 2 3 37 206 205 739
1300 2 2 3 37 261 262 742
1301 2 2 3 37 209 208 740
1302 2 2 3 37 264 265 741
1303 2 2 3 37 763 717 769
1304 2 2 3 37 206 739 751
1305 2 2 3 37 742 262 752
1306 2 2 3 37 740 208 753
1307 2 2 3 37 264 741 754
1308 2 2 3 37 745 715 767
1309 2 2 3 37 746 726 769
1310 2 2 3 37 258 744 766
1311 2 2 3 37 738 717 763
1312 2 2 3 37 716 737 762
1313 2 2 3 37 727 745 767
1314 2 2 3 37 730 207 751
1315 2 2 3 37 207 730 753
1316 2 2 3 37 263 731 752
1317 2 2 3 37 731 263 754
1318 2 2 3 37 744 725 766
1319 2 2 3 37 731 723 770
1320 2 2 3 37 732 718 761
1321 2 2 3 37 716 733 734
1322 2 2 3 37 733 717 734
1323 2 2 3 37 747 718 757
1324 2 2 3 37 719 748 758
1325 2 2 3 37 723 731 754
1326 2 2 3 37 718 746 761
1327 2 2 3 37 728 747 757
1328 2 2 3 37 748 729 758
1329 2 2 3 37 720 749 774
1330 2 2 3 37 762 727 767
1331 2 2 3 37 730 751 759
1332 2 2 3 37 751 720 759
1333 2 2 3 37 726 763 769
1334 2 2 3 37 208 207 753
1335 2 2 3 37 207 206 751
1336 2 2 3 37 262 263 752
1337 2 2 3 37 263 264 754
1338 2 2 3 37 749 728 774
1339 2 2 3 37 743 268 768
1340 2 2 3 37 733 715 769
1341 2 2 3 37 719 732 761
1342 2 2 3 37 716 734 765
1343 2 2 3 37 715 733 767
1344 2 2 3 37 734 717 764
1345 2 2 3 37 251 252 749
1346 2 2 3 37 274 275 750
1347 2 2 3 37 719 736 777
1348 2 2 3 37 735 718 776
1349 2 2 3 37 748 719 777
1350 2 2 3 37 718 747 776
1351 2 2 3 37 750 722 760
1352 2 2 3 37 729 750 760
1353 2 2 3 37 258 259 744
1354 2 2 3 37 267 268 743
1355 2 2 3 37 749 252 788
1356 2 2 3 37 274 750 789
1357 2 2 3 37 724 743 768
1358 2 2 3 37 759 713 780
1359 2 2 3 37 745 719 761
1360 2 2 3 37 744 721 756
1361 2 2 3 37 723 743 755
1362 2 2 3 37 716 765 771
1363 2 2 3 37 725 744 756
1364 2 2 3 37 743 724 755
1365 2 2 3 37 713 760 780
1366 2 2 3 37 739 720 751
1367 2 2 3 37 721 742 752
1368 2 2 3 37 722 740 753
1369 2 2 3 37 741 723 754
1370 2 2 3 37 764 717 775
1371 2 2 3 37 718 732 757
1372 2 2 3 37 732 719 758
1373 2 2 3 37 735 726 746
1374 2 2 3 37 269 270 737
1375 2 2 3 37 718 735 746
1376 2 2 3 37 256 257 738
1377 2 2 3 37 727 736 745
1378 2 2 3 37 736 719 745
1379 2 2 3 37 732 713 757
1380 2 2 3 37 713 732 758
1381 2 2 3 37 723 755 770
1382 2 2 3 37 735 254 772
1383 2 2 3 37 272 736 773
1384 2 2 3 37 720 739 781
1385 2 2 3 37 740 722 782
1386 2 2 3 37 733 716 767
1387 2 2 3 37 717 733 769
1388 2 2 3 37 714 734 764
1389 2 2 3 37 734 714 765
1390 2 2 3 37 254 255 772
1391 2 2 3 37 269 737 768
1392 2 2 3 37 271 272 773
1393 2 2 3 37 270 271 762
1394 2 2 3 37 749 720 781
1395 2 2 3 37 722 750 782
1396 2 2 3 37 255 256 763
1397 2 2 3 37 257 258 766
1398 2 2 3 37 759 720 774
1399 2 2 3 37 746 715 761
1400 2 2 3 37 273 274 789
1401 2 2 3 37 252 253 788
1402 2 2 3 37 714 756 770
1403 2 2 3 37 742 721 779
1404 2 2 3 37 723 741 778
1405 2 2 3 37 721 744 779
1406 2 2 3 37 743 723 778
1407 2 2 3 37 748 273 789
1408 2 2 3 37 253 747 788
1409 2 2 3 37 758 729 760
1410 2 2 3 37 737 270 762
1411 2 2 3 37 713 758 760
1412 2 2 3 37 256 738 763
1413 2 2 3 37 726 735 772
1414 2 2 3 37 770 756 783
1415 2 2 3 37 254 735 776
1416 2 2 3 37 736 727 773
1417 2 2 3 37 736 272 777
1418 2 2 3 37 715 745 761
1419 2 2 3 37 728 749 788
1420 2 2 3 37 750 729 789
1421 2 2 3 37 768 737 771
1422 2 2 3 37 738 257 766
1423 2 2 3 37 266 267 778
1424 2 2 3 37 756 714 764
1425 2 2 3 37 725 756 764
1426 2 2 3 37 714 755 765
1427 2 2 3 37 259 260 779
1428 2 2 3 37 755 724 765
1429 2 2 3 37 753 730 780
1430 2 2 3 37 268 269 768
1431 2 2 3 37 741 266 778
1432 2 2 3 37 722 753 780
1433 2 2 3 37 260 742 779
1434 2 2 3 37 762 271 773
1435 2 2 3 37 255 763 772
1436 2 2 3 37 717 738 775
1437 2 2 3 37 737 716 771
1438 2 2 3 37 260 55 784
1439 2 2 3 37 48 250 785
1440 2 2 3 37 56 266 787
1441 2 2 3 37 276 49 786
1442 2 2 3 37 752 731 783
1443 2 2 3 37 250 251 781
1444 2 2 3 37 275 276 782
1445 2 2 3 37 721 752 783
1446 2 2 3 37 730 759 780
1447 2 2 3 37 765 724 771
1448 2 2 3 37 253 254 776
1449 2 2 3 37 272 273 777
1450 2 2 3 37 739 205 785
1451 2 2 3 37 209 740 786
1452 2 2 3 37 741 265 787
1453 2 2 3 37 261 742 784
1454 2 2 3 37 739 250 781
1455 2 2 3 37 276 740 782
1456 2 2 3 37 267 743 778
1457 2 2 3 37 744 259 779
1458 2 2 3 37 205 48 785
1459 2 2 3 37 49 209 786
1460 2 2 3 37 265 56 787
1461 2 2 3 37 55 261 784
1462 2 2 3 37 250 739 785
1463 2 2 3 37 740 276 786
1464 2 2 3 37 266 741 787
1465 2 2 3 37 742 260 784
1466 2 2 3 37 755 714 770
1467 2 2 3 37 747 253 776
1468 2 2 3 37 273 748 777
1469 2 2 3 37 757 713 774
1470 2 2 3 37 725 764 775
1471 2 2 3 37 713 759 774
1472 2 2 3 37 727 762 773
1473 2 2 3 37 763 726 772
1474 2 2 3 37 724 768 771
1475 2 2 3 37 747 728 788
1476 2 2 3 37 729 748 789
1477 2 2 3 37 756 721 783
1478 2 2 3 37 728 757 774
1479 2 2 3 37 251 749 781
1480 2 2 3 37 750 275 782
1481 2 2 3 37 738 766 775
1482 2 2 3 37 760 722 780
1483 2 2 3 37 766 725 775
1484 2 2 3 37 731 770 783
$EndElements
