$MeshFormat
2.2 0 8
$EndMeshFormat
$PhysicalNames
4
2 1 "SD1G0"
2 2 "SD1D1001"
2 3 "SD2G0"
2 4 "I1-2"
$EndPhysicalNames
$Nodes
684
1 12.7 0 0
2 9.231 8.722 0
3 0 12.7 0
4 12.947 0 4.676
5 9.51 8.986000000000001 4.676
6 0 12.852 4.676
7 14.536 0 13.058
8 11.243 10.623 13.058
9 0 13.862 13.058
10 19.042 0 25.893
11 15.82 14.949 25.893
12 0 16.927 25.893
13 27.969 0 44.437
14 24.291 22.953 44.437
15 0 23.496 44.437
16 41.847 0 68.35599999999999
17 36.877 34.845 68.35599999999999
18 0 34.363 68.35599999999999
19 61.599 0 96.194
20 54.393 51.396 96.194
21 0 50.658 96.194
22 89.44799999999999 0 123.945
23 79.422 75.04600000000001 123.945
24 0 74.907 123.945
25 125.897 0 146.95
26 113.209 106.971 146.95
27 0 107.976 146.95
28 168.031 0 164.197
29 152.98 144.551 164.197
30 0 147.124 164.197
31 207.826 0 175.565
32 190.473 179.977 175.565
33 0 184.637 175.565
34 240.82 0 182.38
35 220.815 208.648 182.38
36 0 216.11 182.38
37 262.607 0 185.434
38 239.842 226.626 185.434
39 0 237.174 185.434
40 0 0 185.434
41 0 0 0
42 0 0 25.434
43 263 0 185.434
44 273 0 175.434
45 273 0 35.434
46 263 0 25.434
47 0 238 185.434
48 0 248 175.434
49 0 248 35.434
50 0 238 25.434
51 263 238 185.434
52 273 238 175.434
53 273 238 35.434
54 263 238 25.434
55 263 248 175.434
56 263 248 35.434
57 11.12508314911782 4.693714993223865 0
58 5.039772016935686 10.82298441829587 0
59 11.35820912079883 4.792463345566002 4.676000000000001
60 5.180157699120834 11.04643123441865 4.676000000000001
61 12.8340164321794 5.476600560246432 13.058
62 6.081731504450127 12.46363311560366 13.058
63 16.92022729610679 7.586626411626765 25.893
64 8.552569891690322 16.40383530701809 25.893
65 13.43598002208292 12.69571828174147 19.20763919236055
66 16.694961760871 0 19.20763919236113
67 0 15.33053479740425 19.20763919239267
68 24.95327270063384 11.65333685931759 44.437
69 13.15322787702323 24.13118529766474 44.437
70 19.82852631771089 18.73653920988761 34.6681283243573
71 23.26630816175239 0 34.66812832435715
72 0 20.03548888929006 34.66812832440171
73 38.8856087805013 11.80607622276172 68.35599999999999
74 35.98021464632447 23.62586592102776 68.35599999999999
75 26.63245680165286 36.67802555796366 68.35599999999999
76 13.31637390830239 35.51884496029543 68.35599999999999
77 30.24415867045212 28.57789773629561 55.75065026525854
78 34.53327268620132 0 55.75065026525792
79 0 28.63607431051497 55.75065026531772
80 57.46284260736896 17.40284977099145 96.19400000000002
81 53.39765499197269 34.82220086847552 96.19399999999999
82 39.16886655586689 54.05262631381128 96.19399999999999
83 19.58459645290193 52.35343143426588 96.19400000000002
84 45.18609624563453 42.69632746982742 81.56156184551119
85 51.21679156449914 0 81.56156184551068
86 0 42.09288829203805 81.56156184558178
87 84.62805649242004 25.36753338412582 123.945
88 79.85833585852338 50.74447554776415 123.945
89 63.70292245152082 79.35564575467914 123.945
90 42.46888963872641 77.86883236462715 123.945
91 21.23439853186267 76.38857504877978 123.945
92 66.38733080972005 62.7294900974821 109.4927604099461
93 74.94472370929103 0 109.4927604099442
94 0 62.27854128436466 109.4927604100129
95 122.6332563718825 27.23415326605609 146.95
96 119.3634356891138 54.46757914539072 146.95
97 116.127828346597 81.70508333570712 146.95
98 95.6954332976738 112.9001257613855 146.95
99 71.77069966092066 111.6862148318553 146.95
100 47.84706697128014 110.4507564509547 146.95
101 23.92364740163814 109.2111621672268 146.95
102 95.8128179209032 90.53352070692382 135.1052322274951
103 107.1302127563505 0 135.1052322274916
104 0 90.94950030571309 135.1052322275524
105 166.2008060563755 30.01511143665153 164.197
106 164.398874984024 60.03193963504754 164.197
107 162.5688495589176 90.04706299102331 164.197
108 160.5904991121589 120.0526485275717 164.197
109 128.3987170708229 151.8034648494679 164.197
110 96.29708902848647 150.6884231604973 164.197
111 64.19790925531613 149.5043033465187 164.197
112 32.09922001052039 148.3069580685929 164.197
113 132.657782554458 125.3483414899432 155.3841141212626
114 146.5013349211614 0 155.3841141212624
115 0 127.1201235937265 155.3841141213089
116 206.9854387853348 31.7396668686786 175.565
117 206.2058150518191 63.48090536518718 175.565
118 205.4123978072378 95.22180014286933 175.565
119 204.5157734024768 126.9599107614725 175.565
120 203.204500071415 158.6825749800996 175.565
121 166.1569323900775 188.5701459413264 175.565
122 132.9226882480977 187.91617361172 175.565
123 99.69142330321176 187.1206719743874 175.565
124 66.46106299105166 186.2881246201808 175.565
125 33.23081684265011 185.4509872076925 175.565
126 171.4985487581664 162.0486157764597 169.8118844393043
127 187.6865529787144 0 169.811884439302
128 0 165.6524271615725 169.8118844393345
129 240.4392565802335 31.93098505949984 182.38
130 240.1361081101534 63.86282264199375 182.38
131 239.8391199527339 95.79471906992634 182.38
132 239.4811846952444 127.7259769347765 182.38
133 238.9425039868625 159.6546027638679 182.38
134 237.6661514412991 191.5586352373808 182.38
135 198.1161180046778 218.2998966649125 182.38
136 165.0950725099115 218.1585331520679 182.38
137 132.07542906224 217.8025664977922 182.38
138 99.05647894771661 217.3865053918692 182.38
139 66.03779133795305 216.9500752001556 182.38
140 33.01906797527701 216.5162978403477 182.38
141 205.533101690173 194.2077091015408 178.9475915568693
142 262.2199022416744 34.87456202694838 185.434
143 261.9236607297555 69.75003843994686 185.434
144 261.6345121247993 104.6255766917897 185.434
145 261.2736977013685 139.500429510444 185.434
146 260.7000915218488 174.3723120760054 185.434
147 259.2467222723436 209.2137899565273 185.434
148 219.8278159376369 236.9744984703846 185.434
149 188.4257057427543 237.3129815881974 185.434
150 157.0214607672289 237.3735057982122 185.434
151 125.6171429426708 237.356334343148 185.434
152 94.21285946054313 237.3075899150875 185.434
153 62.80859050192032 237.249131648971 185.434
154 31.40430922834056 237.1977928346893 185.434
155 229.7811250000291 0 185.434
156 196.9552500001636 0 185.434
157 164.1293750002704 0 185.434
158 131.3035000003495 0 185.434
159 98.47762500030646 0 185.434
160 65.65175000019138 0 185.434
161 32.82587500007625 0 185.434
162 0 33.88199999993456 185.434
163 0 67.7639999998398 185.434
164 0 101.6459999997542 185.434
165 0 135.5279999997318 185.434
166 0 169.4099999998236 185.434
167 0 203.2919999999035 185.434
168 6.349999999983785 0 0
169 0 6.350000000015788 0
170 270.0710678214817 0 182.5050678022492
171 273 0 152.1006666665769
172 273 0 128.7673333334462
173 273 0 105.4340000002665
174 273 0 82.10066666684615
175 273 0 58.76733333342307
176 270.0710677920426 0 28.36293216831162
177 239.0909090910312 0 25.434
178 215.1818181820624 0 25.434
179 191.2727272730937 0 25.434
180 167.3636363641249 0 25.434
181 143.4545454551561 0 25.434
182 119.5454545460581 0 25.434
183 95.63636363683094 0 25.434
184 71.72727272760378 0 25.434
185 47.81818181837659 0 25.434
186 23.90909090914943 0 25.434
187 0 245.0710678290617 182.5050677946692
188 0 248 152.1006666665769
189 0 248 128.7673333334462
190 0 248 105.4340000002665
191 0 248 82.10066666684615
192 0 248 58.76733333342307
193 0 245.0710677809047 28.36293215717376
194 0 214.1999999998984 25.434
195 0 190.40000000001 25.434
196 0 166.6000000001926 25.434
197 0 142.8000000003753 25.434
198 0 119.0000000005052 25.434
199 0 95.20000000040636 25.434
200 0 71.40000000030477 25.434
201 0 47.60000000020318 25.434
202 0 23.80000000010162 25.434
203 23.90909090900988 238 185.434
204 47.81818181800585 238 185.434
205 71.72727272700726 238 185.434
206 95.63636363605434 238 185.434
207 119.5454545451014 238 185.434
208 143.4545454541964 238 185.434
209 167.3636363633727 238 185.434
210 191.2727272725489 238 185.434
211 215.1818181817252 238 185.434
212 239.0909090909014 238 185.434
213 270.0710678214817 238 182.5050678022492
214 273 238 152.1006666665769
215 273 238 128.7673333334462
216 273 238 105.4340000002665
217 273 238 82.10066666684615
218 273 238 58.76733333342307
219 270.0710677920426 238 28.36293216831162
220 239.0909090910312 238 25.434
221 215.1818181820624 238 25.434
222 191.2727272730937 238 25.434
223 167.3636363641249 238 25.434
224 143.4545454551561 238 25.434
225 119.5454545460581 238 25.434
226 95.63636363683094 238 25.434
227 71.72727272760378 238 25.434
228 47.81818181837659 238 25.434
229 23.90909090914943 238 25.434
230 23.90909090900988 248 175.434
231 47.81818181800585 248 175.434
232 71.72727272700726 248 175.434
233 95.63636363605434 248 175.434
234 119.5454545451014 248 175.434
235 143.4545454541964 248 175.434
236 167.3636363633727 248 175.434
237 191.2727272725489 248 175.434
238 215.1818181817252 248 175.434
239 239.0909090909014 248 175.434
240 263 248 152.1006666665769
241 263 248 128.7673333334462
242 263 248 105.4340000002665
243 263 248 82.10066666684615
244 263 248 58.76733333342307
245 239.0909090910312 248 35.434
246 215.1818181820624 248 35.434
247 191.2727272730937 248 35.434
248 167.3636363641249 248 35.434
249 143.4545454551561 248 35.434
250 119.5454545460581 248 35.434
251 95.63636363683094 248 35.434
252 71.72727272760378 248 35.434
253 47.81818181837659 248 35.434
254 23.90909090914943 248 35.434
255 263 245.0710678290617 182.5050677946692
256 270.0710677943634 245.0710678293676 175.434
257 270.0710677943634 245.0710678293676 35.434
258 263 245.0710678278554 28.36293220412445
259 263 23.79999999995193 185.434
260 263 47.59999999988621 185.434
261 263 71.39999999981161 185.434
262 263 95.19999999973703 185.434
263 263 118.9999999996652 185.434
264 263 142.7999999997299 185.434
265 263 166.5999999997975 185.434
266 263 190.399999999865 185.434
267 263 214.1999999999325 185.434
268 273 23.79999999995193 175.434
269 273 47.59999999988621 175.434
270 273 71.39999999981161 175.434
271 273 95.19999999973703 175.434
272 273 118.9999999996652 175.434
273 273 142.7999999997299 175.434
274 273 166.5999999997975 175.434
275 273 190.399999999865 175.434
276 273 214.1999999999325 175.434
277 273 23.79999999995193 35.434
278 273 47.59999999988621 35.434
279 273 71.39999999981161 35.434
280 273 95.19999999973703 35.434
281 273 118.9999999996652 35.434
282 273 142.7999999997299 35.434
283 273 166.5999999997975 35.434
284 273 190.399999999865 35.434
285 273 214.1999999999325 35.434
286 263 23.79999999995193 25.434
287 263 47.59999999988621 25.434
288 263 71.39999999981161 25.434
289 263 95.19999999973703 25.434
290 263 118.9999999996652 25.434
291 263 142.7999999997299 25.434
292 263 166.5999999997975 25.434
293 263 190.399999999865 25.434
294 263 214.1999999999325 25.434
295 10.52283379803353 6.873164526710147 2.337145759847894
296 7.340208236187353 10.12386380816113 2.33618016288791
297 12.57901152503069 3.665565161895213 8.929585325257847
298 10.73584764156747 9.111968223150663 8.867000000000001
299 5.309080323910967 11.85898720590892 8.93252605917135
300 15.69769027720668 3.499888719369625 19.28955831669175
301 14.08480126506707 7.992859477850499 18.4910246140293
302 7.402042249639268 15.28586573191012 22.12172250011431
303 7.511690482675082 13.69206145787023 17.38184052419247
304 18.9142120423464 12.0240549648646 32.34383971066247
305 21.89547475379898 6.491471901509593 35.4182859092254
306 21.51876216787802 14.38417247722621 38.83914254856313
307 9.540139682442428 18.95934206159504 32.01311655880319
308 15.35747615122821 21.82494081534144 38.69759285243157
309 7.348279597034677 21.70716747562831 38.88160196398329
310 31.5853438046302 8.426571454518255 54.36433294079143
311 30.51859968133608 17.77488243964705 56.57926956195192
312 22.00264643915592 33.45133575322441 62.47411214904312
313 16.47306136484713 28.66923289567241 53.4080044984287
314 9.74188928712783 31.90232988863487 61.25721816357473
315 50.32137213462639 18.8462215592726 86.7095368823732
316 43.90783714132423 28.67912467702645 81.01244880024927
317 44.12451596838285 13.98148806415497 76.41240541419376
318 15.52191967783517 44.10148958642949 82.6946880408868
319 31.83992528325404 45.68532231766824 82.98139288729141
320 42.43623154033294 49.77972188382202 88.38292401032204
321 64.41484890382426 46.48248368434723 108.6471578364594
322 67.83999464680053 31.99749346120224 109.132475747258
323 70.22940431021499 15.10175279746737 107.9843216266272
324 45.72426683913083 64.83113938439639 108.3493261090123
325 23.98858552836282 65.62166085398398 111.2341785836823
326 58.86301041169125 72.56878846665012 116.3280918227544
327 98.59460732946181 67.50556226578556 135.9375623587496
328 100.9287051706892 44.1085050103346 135.3297626335654
329 102.6830011870388 21.17225133498465 134.3199309986916
330 83.05917514004145 97.2095048251484 136.074731870195
331 61.36584543926453 96.18727410883275 136.2489144017597
332 39.89180359997351 96.06141934898884 137.0523366207322
333 23.98818909252227 90.70607600682192 133.9289666135026
334 13.20908819804679 101.0280339071759 141.6133056844028
335 145.5969390648337 18.73724145784324 155.6685489120766
336 144.4634550869999 67.3650136648947 156.7932999038226
337 133.6618426643423 84.59624695620178 153.3570041558399
338 143.3803163984952 44.66386249364675 155.6621535544315
339 141.0487768889612 105.62742778933 156.7141599865172
340 18.63827986686405 127.7022022245758 155.2850802240381
341 41.85040881227037 127.9570118141939 154.9452978119926
342 83.94908395256624 131.8920716400988 155.8956517779
343 107.6618117616791 131.6529903472838 155.3339331020848
344 64.50257372035961 127.5353215621704 154.305055980266
345 185.8815392929051 46.10752278710787 169.8403564006797
346 187.2269346050477 19.59102732705292 169.9158798632897
347 186.5177676585517 75.26665755215106 170.3266594016966
348 187.4316095567847 100.4924785000634 170.8344377597529
349 179.3140810161385 116.1131275216325 168.9011855384522
350 180.2773013930922 140.4892524992244 169.4986952618
351 145.2877267865413 168.4512537729467 169.3379230659872
352 113.9683392635374 169.3394281649165 169.886263384477
353 82.01353555288516 168.3028187084751 169.8602059707869
354 50.33068172394788 167.422003594972 169.8874277691528
355 21.02389026149734 166.6073449450963 169.91142571351
356 223.4813540451634 46.90351360279038 178.9728717134394
357 222.9610464059556 78.90544910791812 178.9725000000001
358 220.4451372705533 175.1189210814612 178.9724999999999
359 222.4046294806166 110.9871499884521 178.9725000000001
360 221.70811587238 143.0345114427004 178.9725
361 223.9566678561612 19.9753068604043 178.9763213274121
362 14.97561612601353 200.6370513752761 178.9725
363 144.224478868351 119.1399648291771 185.434
364 78.64984837267366 162.5401125662509 185.434
365 75.71101767843358 78.54448485893323 185.434
366 205.6175849344734 180.7058289605101 185.434
367 192.3779350466842 68.15981617176125 185.434
368 145.1633346931296 174.674286582081 185.434
369 134.2477918347608 57.84279887500901 185.434
370 198.7375840451676 126.2383263684771 185.434
371 49.2532438517627 120.1262530018425 185.434
372 46.27105665166994 194.1391787240415 185.434
373 96.10106716123536 119.0517777782403 185.434
374 44.55365780562981 43.46010698095006 185.434
375 103.2035356889444 196.4326855608004 185.434
376 98.13545956579622 40.75326774478371 185.434
377 221.0714045924376 40.6252371512614 185.434
378 166.4540512984088 146.579189878741 185.434
379 166.8303212281756 39.37728899537596 185.434
380 172.9196508600438 203.0435164256285 185.434
381 220.2035181453183 97.13886096589258 185.434
382 38.90157695976166 82.08155774307546 185.434
383 40.02638579880131 156.1182442711427 185.434
384 111.2460333936259 149.6128002339084 185.434
385 231.8906261350565 198.1710452174039 185.434
386 159.1275030641985 86.88001101947707 185.434
387 222.0207588149877 149.516061749658 185.434
388 121.37916211058 96.07677856813399 185.434
389 205.2357393332938 211.4552792341651 185.434
390 132.9927542956162 206.361788956163 185.434
391 76.28746220008269 212.5864915441377 185.434
392 122.3899815385099 23.87224148306326 185.434
393 171.4574461020774 114.7523510827292 185.434
394 70.28420046006306 28.13778112955708 185.434
395 236.0258792417289 122.5857783399258 185.434
396 194.2015520297853 29.10525800769895 185.434
397 194.2990315017089 154.8805127678953 185.434
398 232.6427087529415 67.60796405847643 185.434
399 190.9836846054918 98.39677264459684 185.434
400 100.9688518550201 69.2466162380726 185.434
401 71.35183841674872 104.584942996629 185.434
402 72.46653130423782 135.4315351914455 185.434
403 176.4825113244036 172.8245441442186 185.434
404 24.71460703109109 212.443484606789 185.434
405 23.15812454979152 118.7739573624858 185.434
406 22.35933016730448 185.2893331817356 185.434
407 140.1911174713781 145.0478188177304 185.434
408 24.24115110135659 24.43202663408144 185.434
409 20.2701002311688 50.61368854463168 185.434
410 147.596997264032 22.02364118734796 185.434
411 117.0812295277998 176.3109115737875 185.434
412 222.8593954509253 218.3094812883288 185.434
413 120.5875595106089 126.7132814692043 185.434
414 109.9429255894967 219.3412824094837 185.434
415 69.41029858837824 185.0398777129431 185.434
416 236.2180700558827 171.4608739064205 185.434
417 239.6344275436093 23.35873310228424 185.434
418 159.3806988801656 62.52155840594862 185.434
419 68.31022494317062 54.63318010134177 185.434
420 48.29720512262092 218.7232158717256 185.434
421 93.10238744440356 93.50092008800182 185.434
422 48.5250126436161 18.47022306735803 185.434
423 5.233419934619475 5.267580248908876 0
424 252.835926272649 225.2079579912919 185.4340000000001
425 269.2263003638178 13.05487663284177 183.2591634985807
426 269.2419031235008 224.9667284391559 183.2467233022059
427 273 82.84296822333397 105.4922117554772
428 273 154.6999999997638 105.434
429 273 43.38350476938715 131.7514219922495
430 273 194.6164952304558 131.7514219921117
431 273 43.39218220273177 79.18715307368934
432 273 194.607817797135 79.18715307363199
433 273 118.9999999997691 131.3305000000027
434 273 118.9999999997691 79.53749999999732
435 273 83.29999999977433 69.42250000000632
436 273 83.29999999977433 141.4454999999937
437 273 154.6546860232127 140.7287927079806
438 273 154.6999999997637 69.42249999999427
439 273 29.40212126468908 105.4340000000033
440 273 208.5978787353384 105.4340000000033
441 273 110.5629487654284 105.0964552708275
442 273 182.2710402560091 105.479848444891
443 273 55.65278778102985 105.4895504042638
444 273 211.5642385770984 148.9408566819782
445 273 26.43576142281572 148.9408566820789
446 273 211.5642385770992 61.92714331802095
447 273 26.43576142281489 61.92714331792028
448 273 61.08883198223661 152.3559569325095
449 273 176.9078652494847 152.3037187916103
450 273 61.09389171013151 58.53209340787846
451 273 176.9061082895739 58.5320934079041
452 273 104.2391339433842 59.3244004929483
453 273 104.2391339433842 151.5435995070517
454 273 132.2398178615387 58.20876892390569
455 273 133.2510086508992 152.2915710976663
456 273 134.5497150249369 111.2732353125411
457 273 140.8981296562523 87.0910835030099
458 273 67.47834612971562 85.75116186163868
459 273 169.6953129694918 85.34506836127132
460 273 21.40058637532418 126.8069594045224
461 273 216.5994136246951 126.8069594044814
462 273 21.40096284319008 84.06410247364197
463 273 216.5990371568302 84.06410247367457
464 273 170.5823959032943 125.3213537422928
465 273 67.41760409632153 125.321353742525
466 273 97.63411974343094 123.9790108599627
467 273 97.6341197434309 86.88898914003732
468 273 138.3632405907698 131.0471508552887
469 273 83.29999999977434 50.3450453866915
470 273 83.29999999977434 160.5229546133086
471 273 154.6999999997637 50.34504538665986
472 273 154.7520087406023 160.0548284858297
473 273 195.7819852883793 158.0332637977097
474 273 42.21801471143004 158.0332637977947
475 273 195.7819852883805 52.83473620228965
476 273 42.21801471142881 52.83473620220453
477 273 126.2526983615967 95.74956852159393
478 273 151.4057170302193 122.738362155034
479 273 13.44699090998326 159.7720362421778
480 273 224.5530090899551 159.7720362421497
481 273 13.44699090998104 51.09596375783671
482 273 224.5530090899573 51.0959637578648
483 273 12.01223167637576 140.4340000000115
484 273 225.9877683236098 140.4340000000116
485 273 12.01223167635809 70.43400000013459
486 273 225.9877683236275 70.4340000001346
487 271.0253479717306 12.94481255108067 29.46794687145367
488 271.0253480107016 225.0551888067407 29.46794692387611
489 131.5000000003718 119.0000000000499 25.434
490 73.81135103223706 163.0284559301599 25.434
491 189.1886489681634 74.97154406953918 25.434
492 74.41678480050241 75.40097307736313 25.434
493 188.5832151996831 162.5990269229239 25.434
494 131.5000000001366 179.3796299988404 25.434
495 131.5000000001468 58.62037000115708 25.434
496 213.2517069685601 118.0827541344331 25.434
497 49.74829303138563 119.917245865559 25.434
498 39.28784348522726 194.884325929192 25.434
499 223.7121565149357 43.11567407070881 25.434
500 39.28784348523246 43.11567407091766 25.434
501 223.712156514937 194.8843259292105 25.434
502 90.00940521701344 126.248872843121 25.434
503 172.9905947833661 111.7511271569174 25.434
504 168.1695279830419 39.5707921922635 25.434
505 168.7647685146402 198.7931163451065 25.434
506 94.83047201716803 198.4292078076611 25.434
507 94.23523148561765 39.20688365496513 25.434
508 36.67024349128056 154.7012315140753 25.434
509 226.3297565088964 83.29876848597964 25.434
510 36.80683393217932 82.92893549682199 25.434
511 226.1931660679658 155.0710645033133 25.434
512 108.0759629996272 87.88991578493474 25.434
513 154.9240370008997 150.1100842154003 25.434
514 116.6215271398761 149.1898149993042 25.434
515 146.3784728603913 88.81018500046511 25.434
516 131.500000000463 214.6551675591429 25.434
517 131.5000000004662 23.34483244085611 25.434
518 193.1209462716068 29.158362437915 25.434
519 193.1467706039878 208.8574256250953 25.434
520 69.87905372857057 208.8416375620905 25.434
521 69.85322939619238 29.14257437489769 25.434
522 189.5474173984446 141.2864980180458 25.434
523 73.45258260146679 96.713501982293 25.434
524 25.2573313562381 130.5531072077137 25.434
525 237.742668643769 107.446892792435 25.434
526 163.63734038284 66.40914074993876 25.434
527 99.36265961750806 171.5908592499334 25.434
528 67.76883000739002 138.9108728238682 25.434
529 195.2311699932311 99.08912717559184 25.434
530 23.71753840875772 177.4561306129795 25.434
531 239.2824615911688 177.4561306126656 25.434
532 239.2824615912603 60.54386938703063 25.434
533 23.71753840889695 60.5438693874349 25.434
534 96.1371386106357 64.34471934127335 25.434
535 166.8628613896698 173.6552806588738 25.434
536 25.16853935310552 212.8254377566058 25.434
537 237.83146064703 25.17456224325712 25.434
538 25.16853935310358 25.17456224339213 25.434
539 237.831460647028 212.8254377567476 25.434
540 25.19340725989476 104.1619847646821 25.434
541 237.8065927401191 133.8380152354436 25.434
542 210.4103664710096 175.5190433981782 25.434
543 52.3557604225052 175.1969152534267 25.434
544 52.58963352913788 62.48095660197409 25.434
545 210.6442395776801 62.80308474651427 25.434
546 153.5074399408857 126.3283973243092 25.434
547 109.4925600597982 111.6716026759784 25.434
548 109.2209587489868 217.0169801733475 25.434
549 109.2209587489913 20.98301982665021 25.434
550 153.7790412518181 20.98301982647788 25.434
551 153.7790412518135 217.0169801735238 25.434
552 75.05339515193064 185.2087725433735 25.434
553 74.55218198594613 52.40175793225394 25.434
554 187.9466048483209 52.79122745654877 25.434
555 188.4478180142649 185.5982420678389 25.434
556 92.90058433084599 146.7130415592579 25.434
557 170.0994156695113 91.28695844055594 25.434
558 209.6840302235192 139.9421117724421 25.434
559 53.31596977632064 98.05788822774429 25.434
560 214.7973489900916 21.80451387939035 25.434
561 214.7973489900982 216.1954861206047 25.434
562 48.20265100993265 216.1954861205272 25.434
563 48.20265100992719 21.80451387947726 25.434
564 88.25882417183203 220.0575651086199 25.434
565 88.13461119904719 17.8664955713026 25.434
566 174.7411758287371 17.94243489133128 25.434
567 174.865388801532 220.1335044287451 25.434
568 118.1163382470241 192.6571221483882 25.434
569 117.759413967176 45.1592953824219 25.434
570 145.4298955859606 192.5568363710606 25.434
571 144.4919153758501 46.39535112163683 25.434
572 135.6091166303695 158.5933375869104 25.434
573 127.3908833698926 79.40666241301648 25.434
574 129.3346910531928 98.91149872755466 25.434
575 133.6653089472423 139.0885012725224 25.434
576 16.88975857216602 154.5014956194149 25.434
577 246.1102414278905 83.49850438064895 25.434
578 16.60207852959419 83.13489720501099 25.434
579 246.3979214704734 154.8651027951086 25.434
580 88.99150445240849 85.81341474399214 25.434
581 174.0084955477918 152.1865852564999 25.434
582 47.74349492960191 139.0385982816636 25.434
583 215.2565050708029 98.96140171843669 25.434
584 153.1702670290761 106.6906264908834 25.434
585 109.8297329710512 131.3093735091606 25.434
586 206.5550819392235 83.42241117881127 25.434
587 56.44491806114285 154.5775888211274 25.434
588 244.8803050301061 195.4001949203374 25.434
589 244.8803050302122 42.59980507949235 25.434
590 18.11969496991385 42.59980507976741 25.434
591 18.11969496974263 195.4001949204714 25.434
592 192.7243977917136 120.8128457256773 25.434
593 70.27560220811912 117.1871542743082 25.434
594 118.7546901429941 168.3994971347633 25.434
595 143.8642260619732 69.27609633941418 25.434
596 90.85687444499739 104.386616046007 25.434
597 172.1431255552059 133.6133839545551 25.434
598 146.8651821214072 170.8590337662171 25.434
599 116.1726797894956 67.08419258456071 25.434
600 205.1513068594032 42.47739195390302 25.434
601 205.1931874867852 195.6265202935199 25.434
602 57.84869314076518 195.5226080460784 25.434
603 57.80681251337397 42.37347970651732 25.434
604 204.8748054507521 155.5771696589684 25.434
605 58.1251945493667 82.42283034127726 25.434
606 13.20320785757725 224.8456141634745 25.434
607 249.7967921424866 13.15438583647575 25.434
608 13.20320785757547 13.15438583652369 25.434
609 249.7967921425368 224.845614163523 25.434
610 13.12749185632636 243.7416835817114 183.6213725729018
611 249.8725083178684 243.7416837545757 183.6213724516746
612 270.7742384354686 242.4475395968785 179.8815395762915
613 271.0889014275298 243.8795980896406 48.13129749284766
614 271.0889014287891 243.8795980879081 162.7367024800896
615 13.12749190009995 246.1873725872072 29.69231643868751
616 249.872508142981 243.7416837405729 27.24662753850541
617 182.0290085876794 248 105.1849106043104
618 82.24262235885402 248 105.2980692986592
619 132.2670225200331 248 123.3719179337036
620 45.62932021651342 248 130.0121131690258
621 217.3706797835214 248 130.0121131690607
622 217.3070510075371 248 80.77625620649765
623 45.69294899259675 248 80.77625620658758
624 131.5000000005218 248 77.46627206636194
625 97.50623006632794 248 140.7946134877976
626 169.0274844455615 248 139.6160880531964
627 94.72151145252187 248 70.61445370710391
628 168.2784885483836 248 70.61445370693447
629 233.6200024241995 248 105.434000000007
630 29.37999757579264 248 105.4339999999987
631 110.1733991317701 248 104.5060456915128
632 149.3998683939161 248 102.5662922459682
633 71.20417129418229 248 144.7865267654919
634 193.4087178589174 248 146.3630880363194
635 69.40682119008434 248 64.10143860069729
636 193.5931788104196 248 64.10143860055757
637 206.3480221033313 248 105.4339999999903
638 56.6519778968132 248 105.434000000011
639 26.50626271714474 248 148.8565477227174
640 236.4937372828761 248 148.8565477227288
641 236.4937372828813 248 62.01145227725137
642 26.50626271714916 248 62.01145227730268
643 131.7546772862469 248 151.9742278600316
644 143.272592504194 248 60.7607225013921
645 118.8406732608297 248 60.5569295682635
646 189.2604893632533 248 86.07881200649206
647 72.87014881715069 248 86.31448017649757
648 21.11684625466373 248 126.672126412746
649 241.8831537453389 248 126.6721264127536
650 241.8792890237451 248 84.19103693615742
651 21.12071097624954 248 84.19103693617782
652 189.77606616283 248 124.026972399204
653 68.85432171006005 248 121.738768640024
654 48.36986766707587 248 153.158090681673
655 214.6301323330057 248 153.1580906817177
656 47.8182195359397 248 57.26755388785701
657 215.1817804644144 248 57.2675538875884
658 155.5373613299445 248 156.1705882112523
659 110.028749667445 248 156.2182232307019
660 109.7583637973261 248 125.3243143322046
661 162.5749842368051 248 117.8112459136348
662 175.4229299908401 248 158.053391554367
663 88.67888638936731 248 158.003334294781
664 86.61444087774453 248 52.43468825065459
665 176.3855591230143 248 52.43468825055627
666 149.2587872663634 248 83.19992367688754
667 112.2434681395535 248 82.77733419989764
668 150.2323059637182 248 137.7888135943637
669 130.807090908693 248 95.6479643023886
670 94.99281287911701 248 90.36181292120857
671 166.8002710660668 248 94.24260635903791
672 89.26443580221084 248 123.4581624035051
673 117.1466870608397 248 139.5463990513186
674 131.2783164415595 248 48.0464130174139
675 13.49963170560267 248 159.7509311106592
676 249.5003682943957 248 159.7509311106823
677 249.5003682944187 248 51.1170688893481
678 13.499631705623 248 51.11706888933848
679 12.02376527133945 248 140.4340000000116
680 250.9762347286683 248 140.4340000000115
681 250.9762347286828 248 70.4340000001346
682 12.02376527131755 248 70.4340000001346
683 159.7509643989746 248 50.93557289177657
684 103.071688754797 248 50.8948143052044
$EndNodes
$Elements
1279
1 2 2 1 1 1 4 59
2 2 2 1 1 5 295 59
3 2 2 1 1 59 57 1
4 2 2 1 1 57 295 2
5 2 2 1 1 295 5 2
6 2 2 1 1 295 57 59
7 2 2 1 2 5 296 2
8 2 2 1 2 6 3 60
9 2 2 1 2 58 296 60
10 2 2 1 2 60 3 58
11 2 2 1 2 296 5 60
12 2 2 1 2 296 58 2
13 2 2 1 3 61 298 297
14 2 2 1 3 59 298 5
15 2 2 1 3 298 61 8
16 2 2 1 3 61 297 7
17 2 2 1 3 5 298 8
18 2 2 1 3 59 297 298
19 2 2 1 3 7 297 4
20 2 2 1 3 297 59 4
21 2 2 1 4 60 299 6
22 2 2 1 4 299 9 6
23 2 2 1 4 9 299 62
24 2 2 1 4 62 299 8
25 2 2 1 4 299 5 8
26 2 2 1 4 299 60 5
27 2 2 1 5 66 300 7
28 2 2 1 5 63 11 65
29 2 2 1 5 300 63 301
30 2 2 1 5 300 301 61
31 2 2 1 5 300 61 7
32 2 2 1 5 66 10 300
33 2 2 1 5 300 10 63
34 2 2 1 5 301 63 65
35 2 2 1 5 301 65 8
36 2 2 1 5 61 301 8
37 2 2 1 6 11 302 65
38 2 2 1 6 302 11 64
39 2 2 1 6 65 302 303
40 2 2 1 6 303 302 67
41 2 2 1 6 67 9 62
42 2 2 1 6 303 67 62
43 2 2 1 6 67 302 12
44 2 2 1 6 302 64 12
45 2 2 1 6 65 303 8
46 2 2 1 6 303 62 8
47 2 2 1 7 304 63 305
48 2 2 1 7 305 63 10
49 2 2 1 7 71 13 305
50 2 2 1 7 305 13 68
51 2 2 1 7 14 70 306
52 2 2 1 7 14 306 68
53 2 2 1 7 306 305 68
54 2 2 1 7 305 10 71
55 2 2 1 7 304 11 63
56 2 2 1 7 305 306 304
57 2 2 1 7 306 70 304
58 2 2 1 7 11 304 70
59 2 2 1 8 307 12 64
60 2 2 1 8 69 309 308
61 2 2 1 8 72 12 307
62 2 2 1 8 72 307 309
63 2 2 1 8 11 70 307
64 2 2 1 8 307 64 11
65 2 2 1 8 308 309 307
66 2 2 1 8 307 70 308
67 2 2 1 8 308 14 69
68 2 2 1 8 72 309 15
69 2 2 1 8 309 69 15
70 2 2 1 8 14 308 70
71 2 2 1 9 73 311 310
72 2 2 1 9 78 16 73
73 2 2 1 9 74 17 77
74 2 2 1 9 74 311 73
75 2 2 1 9 311 74 77
76 2 2 1 9 73 310 78
77 2 2 1 9 310 68 13
78 2 2 1 9 68 310 311
79 2 2 1 9 78 310 13
80 2 2 1 9 14 311 77
81 2 2 1 9 311 14 68
82 2 2 1 10 17 312 77
83 2 2 1 10 312 17 75
84 2 2 1 10 312 314 313
85 2 2 1 10 79 15 69
86 2 2 1 10 313 314 79
87 2 2 1 10 313 79 69
88 2 2 1 10 76 314 312
89 2 2 1 10 313 77 312
90 2 2 1 10 77 313 14
91 2 2 1 10 313 69 14
92 2 2 1 10 76 312 75
93 2 2 1 10 314 76 18
94 2 2 1 10 79 314 18
95 2 2 1 11 315 81 316
96 2 2 1 11 85 19 80
97 2 2 1 11 81 20 84
98 2 2 1 11 84 316 81
99 2 2 1 11 85 317 16
100 2 2 1 11 317 73 16
101 2 2 1 11 74 317 316
102 2 2 1 11 317 74 73
103 2 2 1 11 316 317 315
104 2 2 1 11 317 85 315
105 2 2 1 11 316 17 74
106 2 2 1 11 315 85 80
107 2 2 1 11 81 315 80
108 2 2 1 11 17 316 84
109 2 2 1 12 318 21 86
110 2 2 1 12 83 21 318
111 2 2 1 12 318 86 76
112 2 2 1 12 86 18 76
113 2 2 1 12 319 318 75
114 2 2 1 12 75 318 76
115 2 2 1 12 84 319 17
116 2 2 1 12 319 75 17
117 2 2 1 12 83 318 319
118 2 2 1 12 83 319 82
119 2 2 1 12 320 20 82
120 2 2 1 12 319 320 82
121 2 2 1 12 319 84 320
122 2 2 1 12 20 320 84
123 2 2 1 13 321 81 322
124 2 2 1 13 93 22 87
125 2 2 1 13 88 23 92
126 2 2 1 13 322 81 80
127 2 2 1 13 80 323 322
128 2 2 1 13 87 322 323
129 2 2 1 13 321 92 20
130 2 2 1 13 92 321 88
131 2 2 1 13 321 20 81
132 2 2 1 13 321 322 88
133 2 2 1 13 323 80 19
134 2 2 1 13 93 323 19
135 2 2 1 13 87 323 93
136 2 2 1 13 88 322 87
137 2 2 1 14 90 325 324
138 2 2 1 14 324 326 90
139 2 2 1 14 91 325 90
140 2 2 1 14 94 21 83
141 2 2 1 14 325 94 83
142 2 2 1 14 324 325 82
143 2 2 1 14 82 325 83
144 2 2 1 14 23 326 92
145 2 2 1 14 326 23 89
146 2 2 1 14 325 91 24
147 2 2 1 14 94 325 24
148 2 2 1 14 324 92 326
149 2 2 1 14 92 324 20
150 2 2 1 14 324 82 20
151 2 2 1 14 89 90 326
152 2 2 1 15 327 96 97
153 2 2 1 15 103 25 95
154 2 2 1 15 327 102 23
155 2 2 1 15 97 26 102
156 2 2 1 15 102 327 97
157 2 2 1 15 87 329 328
158 2 2 1 15 328 88 87
159 2 2 1 15 329 22 103
160 2 2 1 15 22 329 87
161 2 2 1 15 328 329 95
162 2 2 1 15 95 96 328
163 2 2 1 15 327 328 96
164 2 2 1 15 88 328 327
165 2 2 1 15 329 103 95
166 2 2 1 15 327 23 88
167 2 2 1 16 330 26 98
168 2 2 1 16 102 26 330
169 2 2 1 16 100 332 331
170 2 2 1 16 104 24 91
171 2 2 1 16 330 99 331
172 2 2 1 16 99 100 331
173 2 2 1 16 102 330 23
174 2 2 1 16 89 330 331
175 2 2 1 16 330 89 23
176 2 2 1 16 333 332 101
177 2 2 1 16 101 332 100
178 2 2 1 16 330 98 99
179 2 2 1 16 332 90 331
180 2 2 1 16 333 90 332
181 2 2 1 16 101 334 333
182 2 2 1 16 333 334 104
183 2 2 1 16 89 331 90
184 2 2 1 16 104 334 27
185 2 2 1 16 334 101 27
186 2 2 1 16 333 104 91
187 2 2 1 16 90 333 91
188 2 2 1 17 114 28 335
189 2 2 1 17 335 28 105
190 2 2 1 17 114 335 25
191 2 2 1 17 108 29 113
192 2 2 1 17 335 95 25
193 2 2 1 17 107 336 106
194 2 2 1 17 336 107 337
195 2 2 1 17 96 336 337
196 2 2 1 17 96 337 97
197 2 2 1 17 338 95 335
198 2 2 1 17 336 96 338
199 2 2 1 17 96 95 338
200 2 2 1 17 338 105 106
201 2 2 1 17 113 339 108
202 2 2 1 17 336 338 106
203 2 2 1 17 338 335 105
204 2 2 1 17 339 113 26
205 2 2 1 17 337 26 97
206 2 2 1 17 337 107 339
207 2 2 1 17 339 107 108
208 2 2 1 17 26 337 339
209 2 2 1 18 340 101 341
210 2 2 1 18 341 101 100
211 2 2 1 18 98 343 342
212 2 2 1 18 98 342 99
213 2 2 1 18 340 30 115
214 2 2 1 18 109 113 29
215 2 2 1 18 112 30 340
216 2 2 1 18 342 343 110
217 2 2 1 18 343 113 109
218 2 2 1 18 343 109 110
219 2 2 1 18 341 100 344
220 2 2 1 18 340 341 112
221 2 2 1 18 111 344 342
222 2 2 1 18 112 341 111
223 2 2 1 18 26 343 98
224 2 2 1 18 341 344 111
225 2 2 1 18 342 110 111
226 2 2 1 18 343 26 113
227 2 2 1 18 99 344 100
228 2 2 1 18 99 342 344
229 2 2 1 18 101 340 27
230 2 2 1 18 27 340 115
231 2 2 1 19 105 346 345
232 2 2 1 19 32 126 120
233 2 2 1 19 345 346 116
234 2 2 1 19 345 347 106
235 2 2 1 19 106 347 107
236 2 2 1 19 107 347 348
237 2 2 1 19 107 348 349
238 2 2 1 19 349 108 107
239 2 2 1 19 116 346 31
240 2 2 1 19 346 127 31
241 2 2 1 19 348 119 349
242 2 2 1 19 349 119 350
243 2 2 1 19 108 349 350
244 2 2 1 19 108 350 29
245 2 2 1 19 350 119 120
246 2 2 1 19 126 350 120
247 2 2 1 19 118 347 117
248 2 2 1 19 347 118 348
249 2 2 1 19 350 126 29
250 2 2 1 19 345 116 117
251 2 2 1 19 347 345 117
252 2 2 1 19 346 105 28
253 2 2 1 19 127 346 28
254 2 2 1 19 105 345 106
255 2 2 1 19 348 118 119
256 2 2 1 20 32 121 126
257 2 2 1 20 122 352 351
258 2 2 1 20 351 352 109
259 2 2 1 20 123 353 352
260 2 2 1 20 124 354 353
261 2 2 1 20 111 353 354
262 2 2 1 20 128 355 33
263 2 2 1 20 355 125 33
264 2 2 1 20 125 354 124
265 2 2 1 20 354 355 112
266 2 2 1 20 355 354 125
267 2 2 1 20 352 353 110
268 2 2 1 20 109 29 351
269 2 2 1 20 352 122 123
270 2 2 1 20 355 128 30
271 2 2 1 20 351 126 121
272 2 2 1 20 112 355 30
273 2 2 1 20 354 112 111
274 2 2 1 20 126 351 29
275 2 2 1 20 109 352 110
276 2 2 1 20 122 351 121
277 2 2 1 20 353 123 124
278 2 2 1 20 353 111 110
279 2 2 1 21 130 357 356
280 2 2 1 21 35 141 134
281 2 2 1 21 356 357 117
282 2 2 1 21 141 32 358
283 2 2 1 21 358 32 120
284 2 2 1 21 132 360 359
285 2 2 1 21 359 360 119
286 2 2 1 21 133 358 360
287 2 2 1 21 360 358 120
288 2 2 1 21 129 356 361
289 2 2 1 21 361 356 116
290 2 2 1 21 131 359 357
291 2 2 1 21 357 359 118
292 2 2 1 21 31 361 116
293 2 2 1 21 129 361 34
294 2 2 1 21 358 134 141
295 2 2 1 21 134 358 133
296 2 2 1 21 361 31 34
297 2 2 1 21 119 360 120
298 2 2 1 21 133 360 132
299 2 2 1 21 130 356 129
300 2 2 1 21 116 356 117
301 2 2 1 21 131 357 130
302 2 2 1 21 117 357 118
303 2 2 1 21 132 359 131
304 2 2 1 21 118 359 119
305 2 2 1 22 138 124 123
306 2 2 1 22 33 362 36
307 2 2 1 22 140 362 125
308 2 2 1 22 135 141 35
309 2 2 1 22 362 140 36
310 2 2 1 22 138 139 124
311 2 2 1 22 362 33 125
312 2 2 1 22 136 137 122
313 2 2 1 22 123 137 138
314 2 2 1 22 141 135 32
315 2 2 1 22 32 135 121
316 2 2 1 22 122 137 123
317 2 2 1 22 136 122 121
318 2 2 1 22 121 135 136
319 2 2 1 22 124 140 125
320 2 2 1 22 139 140 124
321 2 2 1 23 129 34 37
322 2 2 1 23 38 35 147
323 2 2 1 23 145 146 133
324 2 2 1 23 147 35 134
325 2 2 1 23 133 146 134
326 2 2 1 23 134 146 147
327 2 2 1 23 143 130 142
328 2 2 1 23 132 145 133
329 2 2 1 23 131 130 143
330 2 2 1 23 142 130 129
331 2 2 1 23 132 131 144
332 2 2 1 23 129 37 142
333 2 2 1 23 131 143 144
334 2 2 1 23 144 145 132
335 2 2 1 24 154 140 153
336 2 2 1 24 35 38 148
337 2 2 1 24 140 139 153
338 2 2 1 24 135 35 148
339 2 2 1 24 152 139 138
340 2 2 1 24 152 138 151
341 2 2 1 24 151 138 137
342 2 2 1 24 149 150 136
343 2 2 1 24 154 39 36
344 2 2 1 24 136 150 137
345 2 2 1 24 148 149 135
346 2 2 1 24 137 150 151
347 2 2 1 24 154 36 140
348 2 2 1 24 135 149 136
349 2 2 1 24 153 139 152
350 2 2 4 25 377 155 396
351 2 2 4 25 364 384 402
352 2 2 4 25 384 373 402
353 2 2 4 25 155 156 396
354 2 2 4 25 381 144 398
355 2 2 4 25 144 143 398
356 2 2 4 25 375 390 411
357 2 2 4 25 363 386 388
358 2 2 4 25 364 383 415
359 2 2 4 25 159 376 392
360 2 2 4 25 383 364 402
361 2 2 4 25 364 375 411
362 2 2 4 25 165 166 383
363 2 2 4 25 386 369 388
364 2 2 4 25 142 377 398
365 2 2 4 25 165 383 405
366 2 2 4 25 376 159 394
367 2 2 4 25 147 146 385
368 2 2 4 25 150 149 380
369 2 2 4 25 367 377 396
370 2 2 4 25 390 368 411
371 2 2 4 25 369 379 410
372 2 2 4 25 155 377 417
373 2 2 4 25 392 369 410
374 2 2 4 25 157 379 396
375 2 2 4 25 365 382 401
376 2 2 4 25 383 372 415
377 2 2 4 25 382 365 419
378 2 2 4 25 163 164 382
379 2 2 4 25 377 367 398
380 2 2 4 25 380 149 389
381 2 2 4 25 38 147 385
382 2 2 4 25 379 367 396
383 2 2 4 25 371 383 402
384 2 2 4 25 382 371 401
385 2 2 4 25 375 364 415
386 2 2 4 25 374 382 419
387 2 2 4 25 377 142 417
388 2 2 4 25 383 371 405
389 2 2 4 25 384 364 411
390 2 2 4 25 367 381 398
391 2 2 4 25 390 375 414
392 2 2 4 25 143 142 398
393 2 2 4 25 156 157 396
394 2 2 4 25 158 159 392
395 2 2 4 25 149 148 389
396 2 2 4 25 366 380 389
397 2 2 4 25 381 370 395
398 2 2 4 25 382 164 405
399 2 2 4 25 145 387 416
400 2 2 4 25 376 369 392
401 2 2 4 25 363 378 393
402 2 2 4 25 159 160 394
403 2 2 4 25 371 382 405
404 2 2 4 25 379 369 418
405 2 2 4 25 369 376 400
406 2 2 4 25 150 380 390
407 2 2 4 25 378 370 393
408 2 2 4 25 380 368 390
409 2 2 4 25 378 368 403
410 2 2 4 25 370 387 395
411 2 2 4 25 146 145 416
412 2 2 4 25 368 378 407
413 2 2 4 25 379 157 410
414 2 2 4 25 368 380 403
415 2 2 4 25 382 374 409
416 2 2 4 25 384 368 407
417 2 2 4 25 378 363 407
418 2 2 4 25 400 376 419
419 2 2 4 25 368 384 411
420 2 2 4 25 367 379 418
421 2 2 4 25 163 382 409
422 2 2 4 25 367 386 399
423 2 2 4 25 370 381 399
424 2 2 4 25 381 367 399
425 2 2 4 25 365 400 419
426 2 2 4 25 391 152 414
427 2 2 4 25 370 378 397
428 2 2 4 25 373 384 413
429 2 2 4 25 372 383 406
430 2 2 4 25 38 385 412
431 2 2 4 25 153 152 391
432 2 2 4 25 385 146 416
433 2 2 4 25 380 366 403
434 2 2 4 25 144 381 395
435 2 2 4 25 39 154 404
436 2 2 4 25 383 166 406
437 2 2 4 25 167 39 404
438 2 2 4 25 366 387 397
439 2 2 4 25 363 388 413
440 2 2 4 25 387 370 397
441 2 2 4 25 375 391 414
442 2 2 4 25 386 363 393
443 2 2 4 25 387 366 416
444 2 2 4 25 388 373 413
445 2 2 4 25 386 367 418
446 2 2 4 25 389 148 412
447 2 2 4 25 151 150 390
448 2 2 4 25 161 40 408
449 2 2 4 25 40 162 408
450 2 2 4 25 391 375 415
451 2 2 4 25 386 393 399
452 2 2 4 25 385 366 389
453 2 2 4 25 387 145 395
454 2 2 4 25 369 386 418
455 2 2 4 25 388 369 400
456 2 2 4 25 366 385 416
457 2 2 4 25 151 390 414
458 2 2 4 25 373 388 421
459 2 2 4 25 142 37 417
460 2 2 4 25 145 144 395
461 2 2 4 25 37 155 417
462 2 2 4 25 166 167 406
463 2 2 4 25 385 389 412
464 2 2 4 25 376 394 419
465 2 2 4 25 164 165 405
466 2 2 4 25 373 401 402
467 2 2 4 25 157 158 410
468 2 2 4 25 401 371 402
469 2 2 4 25 153 391 420
470 2 2 4 25 162 163 409
471 2 2 4 25 366 397 403
472 2 2 4 25 391 372 420
473 2 2 4 25 154 153 420
474 2 2 4 25 152 151 414
475 2 2 4 25 160 161 422
476 2 2 4 25 393 370 399
477 2 2 4 25 397 378 403
478 2 2 4 25 158 392 410
479 2 2 4 25 148 38 412
480 2 2 4 25 372 391 415
481 2 2 4 25 167 404 406
482 2 2 4 25 404 372 406
483 2 2 4 25 374 394 422
484 2 2 4 25 407 363 413
485 2 2 4 25 384 407 413
486 2 2 4 25 394 160 422
487 2 2 4 25 394 374 419
488 2 2 4 25 388 400 421
489 2 2 4 25 400 365 421
490 2 2 4 25 401 373 421
491 2 2 4 25 404 154 420
492 2 2 4 25 374 408 409
493 2 2 4 25 365 401 421
494 2 2 4 25 408 162 409
495 2 2 4 25 408 374 422
496 2 2 4 25 372 404 420
497 2 2 4 25 161 408 422
498 2 2 2 26 57 168 1
499 2 2 2 26 168 57 423
500 2 2 2 26 169 58 3
501 2 2 2 26 57 2 423
502 2 2 2 26 41 168 423
503 2 2 2 26 169 41 423
504 2 2 2 26 58 169 423
505 2 2 2 26 2 58 423
506 2 2 3 27 51 212 424
507 2 2 3 27 147 267 424
508 2 2 3 27 259 142 37
509 2 2 3 27 38 147 424
510 2 2 3 27 212 148 38
511 2 2 3 27 39 154 203
512 2 2 3 27 267 51 424
513 2 2 3 27 142 260 143
514 2 2 3 27 142 259 260
515 2 2 3 27 144 143 262
516 2 2 3 27 143 260 261
517 2 2 3 27 143 261 262
518 2 2 3 27 145 144 263
519 2 2 3 27 144 262 263
520 2 2 3 27 265 146 145
521 2 2 3 27 264 145 263
522 2 2 3 27 264 265 145
523 2 2 3 27 266 147 146
524 2 2 3 27 266 146 265
525 2 2 3 27 266 267 147
526 2 2 3 27 211 149 148
527 2 2 3 27 212 211 148
528 2 2 3 27 209 150 149
529 2 2 3 27 149 210 209
530 2 2 3 27 149 211 210
531 2 2 3 27 208 151 150
532 2 2 3 27 150 209 208
533 2 2 3 27 152 151 207
534 2 2 3 27 151 208 207
535 2 2 3 27 153 152 205
536 2 2 3 27 205 152 206
537 2 2 3 27 152 207 206
538 2 2 3 27 154 153 204
539 2 2 3 27 153 205 204
540 2 2 3 27 203 154 204
541 2 2 3 27 43 259 37
542 2 2 3 27 212 38 424
543 2 2 3 27 39 203 47
544 2 2 3 28 275 276 267
545 2 2 3 28 275 267 266
546 2 2 3 28 269 260 268
547 2 2 3 28 268 260 259
548 2 2 3 28 270 261 269
549 2 2 3 28 269 261 260
550 2 2 3 28 271 262 270
551 2 2 3 28 270 262 261
552 2 2 3 28 268 425 44
553 2 2 3 28 425 170 44
554 2 2 3 28 426 276 52
555 2 2 3 28 213 426 52
556 2 2 3 28 272 273 264
557 2 2 3 28 262 272 263
558 2 2 3 28 264 263 272
559 2 2 3 28 271 272 262
560 2 2 3 28 267 426 51
561 2 2 3 28 426 267 276
562 2 2 3 28 426 213 51
563 2 2 3 28 425 259 43
564 2 2 3 28 259 425 268
565 2 2 3 28 170 425 43
566 2 2 3 28 275 266 265
567 2 2 3 28 264 273 274
568 2 2 3 28 264 274 265
569 2 2 3 28 274 275 265
570 2 2 3 29 439 173 462
571 2 2 3 29 216 440 463
572 2 2 3 29 173 439 460
573 2 2 3 29 440 216 461
574 2 2 3 29 439 431 443
575 2 2 3 29 432 440 442
576 2 2 3 29 440 430 442
577 2 2 3 29 429 439 443
578 2 2 3 29 173 174 462
579 2 2 3 29 217 216 463
580 2 2 3 29 172 173 460
581 2 2 3 29 216 215 461
582 2 2 3 29 465 427 466
583 2 2 3 29 427 458 467
584 2 2 3 29 434 454 457
585 2 2 3 29 454 438 457
586 2 2 3 29 428 457 459
587 2 2 3 29 453 436 466
588 2 2 3 29 435 452 467
589 2 2 3 29 433 453 466
590 2 2 3 29 452 434 467
591 2 2 3 29 452 281 454
592 2 2 3 29 272 453 455
593 2 2 3 29 436 465 466
594 2 2 3 29 458 435 467
595 2 2 3 29 457 438 459
596 2 2 3 29 439 429 460
597 2 2 3 29 430 440 461
598 2 2 3 29 431 439 462
599 2 2 3 29 440 432 463
600 2 2 3 29 431 450 458
601 2 2 3 29 451 432 459
602 2 2 3 29 450 435 458
603 2 2 3 29 438 451 459
604 2 2 3 29 430 449 464
605 2 2 3 29 448 429 465
606 2 2 3 29 449 437 464
607 2 2 3 29 436 448 465
608 2 2 3 29 453 433 455
609 2 2 3 29 434 452 454
610 2 2 3 29 270 269 448
611 2 2 3 29 278 279 450
612 2 2 3 29 275 274 449
613 2 2 3 29 283 284 451
614 2 2 3 29 445 429 474
615 2 2 3 29 430 444 473
616 2 2 3 29 431 447 476
617 2 2 3 29 446 432 475
618 2 2 3 29 443 427 465
619 2 2 3 29 428 442 464
620 2 2 3 29 442 428 459
621 2 2 3 29 427 443 458
622 2 2 3 29 281 282 454
623 2 2 3 29 273 272 455
624 2 2 3 29 280 281 452
625 2 2 3 29 272 271 453
626 2 2 3 29 429 448 474
627 2 2 3 29 449 430 473
628 2 2 3 29 450 431 476
629 2 2 3 29 432 451 475
630 2 2 3 29 433 441 456
631 2 2 3 29 427 441 466
632 2 2 3 29 441 427 467
633 2 2 3 29 443 431 458
634 2 2 3 29 432 442 459
635 2 2 3 29 444 430 461
636 2 2 3 29 429 445 460
637 2 2 3 29 432 446 463
638 2 2 3 29 447 431 462
639 2 2 3 29 434 441 467
640 2 2 3 29 441 433 466
641 2 2 3 29 442 430 464
642 2 2 3 29 429 443 465
643 2 2 3 29 428 456 457
644 2 2 3 29 268 445 474
645 2 2 3 29 444 276 473
646 2 2 3 29 447 277 476
647 2 2 3 29 285 446 475
648 2 2 3 29 441 434 477
649 2 2 3 29 270 448 470
650 2 2 3 29 449 274 472
651 2 2 3 29 450 279 469
652 2 2 3 29 283 451 471
653 2 2 3 29 448 436 470
654 2 2 3 29 435 450 469
655 2 2 3 29 437 449 472
656 2 2 3 29 451 438 471
657 2 2 3 29 276 444 480
658 2 2 3 29 445 268 479
659 2 2 3 29 446 285 482
660 2 2 3 29 277 447 481
661 2 2 3 29 436 453 470
662 2 2 3 29 452 435 469
663 2 2 3 29 280 452 469
664 2 2 3 29 453 271 470
665 2 2 3 29 454 282 471
666 2 2 3 29 273 455 472
667 2 2 3 29 438 454 471
668 2 2 3 29 455 437 472
669 2 2 3 29 269 268 474
670 2 2 3 29 276 275 473
671 2 2 3 29 277 278 476
672 2 2 3 29 284 285 475
673 2 2 3 29 457 456 477
674 2 2 3 29 455 433 468
675 2 2 3 29 437 455 468
676 2 2 3 29 448 269 474
677 2 2 3 29 278 450 476
678 2 2 3 29 275 449 473
679 2 2 3 29 451 284 475
680 2 2 3 29 428 464 478
681 2 2 3 29 456 428 478
682 2 2 3 29 52 276 480
683 2 2 3 29 268 44 479
684 2 2 3 29 285 53 482
685 2 2 3 29 45 277 481
686 2 2 3 29 271 270 470
687 2 2 3 29 279 280 469
688 2 2 3 29 282 283 471
689 2 2 3 29 274 273 472
690 2 2 3 29 214 52 480
691 2 2 3 29 44 171 479
692 2 2 3 29 53 218 482
693 2 2 3 29 175 45 481
694 2 2 3 29 433 456 468
695 2 2 3 29 174 175 485
696 2 2 3 29 218 217 486
697 2 2 3 29 171 172 483
698 2 2 3 29 215 214 484
699 2 2 3 29 468 456 478
700 2 2 3 29 456 441 477
701 2 2 3 29 464 437 478
702 2 2 3 29 434 457 477
703 2 2 3 29 172 460 483
704 2 2 3 29 461 215 484
705 2 2 3 29 462 174 485
706 2 2 3 29 217 463 486
707 2 2 3 29 460 445 483
708 2 2 3 29 444 461 484
709 2 2 3 29 447 462 485
710 2 2 3 29 463 446 486
711 2 2 3 29 479 171 483
712 2 2 3 29 214 480 484
713 2 2 3 29 175 481 485
714 2 2 3 29 482 218 486
715 2 2 3 29 445 479 483
716 2 2 3 29 481 447 485
717 2 2 3 29 480 444 484
718 2 2 3 29 446 482 486
719 2 2 3 29 437 468 478
720 2 2 3 30 286 487 46
721 2 2 3 30 487 176 46
722 2 2 3 30 488 294 54
723 2 2 3 30 219 488 54
724 2 2 3 30 280 279 288
725 2 2 3 30 287 288 279
726 2 2 3 30 288 289 280
727 2 2 3 30 279 278 287
728 2 2 3 30 285 488 53
729 2 2 3 30 488 285 294
730 2 2 3 30 488 219 53
731 2 2 3 30 487 277 45
732 2 2 3 30 277 487 286
733 2 2 3 30 176 487 45
734 2 2 3 30 292 293 284
735 2 2 3 30 292 284 283
736 2 2 3 30 285 284 294
737 2 2 3 30 293 294 284
738 2 2 3 30 291 292 283
739 2 2 3 30 291 283 282
740 2 2 3 30 281 290 291
741 2 2 3 30 281 291 282
742 2 2 3 30 289 290 280
743 2 2 3 30 280 290 281
744 2 2 3 30 286 287 277
745 2 2 3 30 278 277 287
746 2 2 3 31 541 496 558
747 2 2 3 31 540 497 559
748 2 2 3 31 225 224 516
749 2 2 3 31 181 182 517
750 2 2 3 31 227 520 562
751 2 2 3 31 521 184 563
752 2 2 3 31 179 518 560
753 2 2 3 31 519 222 561
754 2 2 3 31 537 177 560
755 2 2 3 31 220 539 561
756 2 2 3 31 536 229 562
757 2 2 3 31 186 538 563
758 2 2 3 31 525 496 541
759 2 2 3 31 524 497 540
760 2 2 3 31 177 178 560
761 2 2 3 31 221 220 561
762 2 2 3 31 229 228 562
763 2 2 3 31 185 186 563
764 2 2 3 31 228 227 562
765 2 2 3 31 184 185 563
766 2 2 3 31 178 179 560
767 2 2 3 31 222 221 561
768 2 2 3 31 511 541 558
769 2 2 3 31 510 540 559
770 2 2 3 31 198 197 524
771 2 2 3 31 290 289 525
772 2 2 3 31 527 490 552
773 2 2 3 31 526 491 554
774 2 2 3 31 506 527 552
775 2 2 3 31 504 526 554
776 2 2 3 31 198 524 540
777 2 2 3 31 290 525 541
778 2 2 3 31 225 516 548
779 2 2 3 31 517 182 549
780 2 2 3 31 516 224 551
781 2 2 3 31 181 517 550
782 2 2 3 31 527 506 568
783 2 2 3 31 526 504 571
784 2 2 3 31 508 530 543
785 2 2 3 31 509 532 545
786 2 2 3 31 533 510 544
787 2 2 3 31 531 511 542
788 2 2 3 31 530 498 543
789 2 2 3 31 532 499 545
790 2 2 3 31 500 533 544
791 2 2 3 31 501 531 542
792 2 2 3 31 518 179 566
793 2 2 3 31 222 519 567
794 2 2 3 31 520 227 564
795 2 2 3 31 184 521 565
796 2 2 3 31 507 534 569
797 2 2 3 31 505 535 570
798 2 2 3 31 522 493 604
799 2 2 3 31 523 492 605
800 2 2 3 31 524 197 576
801 2 2 3 31 525 289 577
802 2 2 3 31 527 568 594
803 2 2 3 31 526 571 595
804 2 2 3 31 196 195 530
805 2 2 3 31 288 287 532
806 2 2 3 31 201 200 533
807 2 2 3 31 293 292 531
808 2 2 3 31 518 504 554
809 2 2 3 31 505 519 555
810 2 2 3 31 520 506 552
811 2 2 3 31 507 521 553
812 2 2 3 31 199 198 540
813 2 2 3 31 291 290 541
814 2 2 3 31 494 568 570
815 2 2 3 31 569 495 571
816 2 2 3 31 568 516 570
817 2 2 3 31 517 569 571
818 2 2 3 31 504 518 566
819 2 2 3 31 519 505 567
820 2 2 3 31 506 520 564
821 2 2 3 31 521 507 565
822 2 2 3 31 509 525 577
823 2 2 3 31 508 524 576
824 2 2 3 31 526 515 557
825 2 2 3 31 527 514 556
826 2 2 3 31 493 522 581
827 2 2 3 31 492 523 580
828 2 2 3 31 569 534 599
829 2 2 3 31 570 535 598
830 2 2 3 31 575 489 585
831 2 2 3 31 574 489 584
832 2 2 3 31 542 493 555
833 2 2 3 31 491 545 554
834 2 2 3 31 544 492 553
835 2 2 3 31 490 543 552
836 2 2 3 31 592 503 597
837 2 2 3 31 593 502 596
838 2 2 3 31 492 534 553
839 2 2 3 31 493 535 555
840 2 2 3 31 534 507 553
841 2 2 3 31 535 505 555
842 2 2 3 31 528 490 556
843 2 2 3 31 529 491 557
844 2 2 3 31 522 592 597
845 2 2 3 31 523 593 596
846 2 2 3 31 502 528 556
847 2 2 3 31 503 529 557
848 2 2 3 31 514 575 585
849 2 2 3 31 515 574 584
850 2 2 3 31 490 527 556
851 2 2 3 31 491 526 557
852 2 2 3 31 524 508 582
853 2 2 3 31 525 509 583
854 2 2 3 31 497 524 582
855 2 2 3 31 496 525 583
856 2 2 3 31 558 496 592
857 2 2 3 31 559 497 593
858 2 2 3 31 522 558 592
859 2 2 3 31 523 559 593
860 2 2 3 31 542 555 601
861 2 2 3 31 554 545 600
862 2 2 3 31 544 553 603
863 2 2 3 31 552 543 602
864 2 2 3 31 557 515 584
865 2 2 3 31 556 514 585
866 2 2 3 31 558 522 604
867 2 2 3 31 559 523 605
868 2 2 3 31 226 225 548
869 2 2 3 31 182 183 549
870 2 2 3 31 180 181 550
871 2 2 3 31 224 223 551
872 2 2 3 31 286 537 589
873 2 2 3 31 194 536 591
874 2 2 3 31 538 202 590
875 2 2 3 31 539 294 588
876 2 2 3 31 196 530 576
877 2 2 3 31 288 532 577
878 2 2 3 31 531 292 579
879 2 2 3 31 533 200 578
880 2 2 3 31 498 530 591
881 2 2 3 31 499 532 589
882 2 2 3 31 533 500 590
883 2 2 3 31 531 501 588
884 2 2 3 31 514 527 594
885 2 2 3 31 515 526 595
886 2 2 3 31 530 508 576
887 2 2 3 31 511 531 579
888 2 2 3 31 510 533 578
889 2 2 3 31 532 509 577
890 2 2 3 31 179 180 566
891 2 2 3 31 223 222 567
892 2 2 3 31 227 226 564
893 2 2 3 31 183 184 565
894 2 2 3 31 568 494 594
895 2 2 3 31 571 495 595
896 2 2 3 31 499 537 560
897 2 2 3 31 498 536 562
898 2 2 3 31 539 501 561
899 2 2 3 31 538 500 563
900 2 2 3 31 287 286 589
901 2 2 3 31 294 293 588
902 2 2 3 31 202 201 590
903 2 2 3 31 195 194 591
904 2 2 3 31 534 492 580
905 2 2 3 31 535 493 581
906 2 2 3 31 512 534 580
907 2 2 3 31 513 535 581
908 2 2 3 31 530 195 591
909 2 2 3 31 532 287 589
910 2 2 3 31 201 533 590
911 2 2 3 31 293 531 588
912 2 2 3 31 536 498 591
913 2 2 3 31 537 499 589
914 2 2 3 31 500 538 590
915 2 2 3 31 501 539 588
916 2 2 3 31 503 557 584
917 2 2 3 31 502 556 585
918 2 2 3 31 528 502 593
919 2 2 3 31 529 503 592
920 2 2 3 31 534 512 599
921 2 2 3 31 535 513 598
922 2 2 3 31 199 540 578
923 2 2 3 31 291 541 579
924 2 2 3 31 541 511 579
925 2 2 3 31 540 510 578
926 2 2 3 31 528 497 582
927 2 2 3 31 529 496 583
928 2 2 3 31 489 547 585
929 2 2 3 31 489 546 584
930 2 2 3 31 504 550 571
931 2 2 3 31 551 505 570
932 2 2 3 31 506 548 568
933 2 2 3 31 549 507 569
934 2 2 3 31 516 551 570
935 2 2 3 31 550 517 571
936 2 2 3 31 548 516 568
937 2 2 3 31 517 549 569
938 2 2 3 31 226 548 564
939 2 2 3 31 180 550 566
940 2 2 3 31 551 223 567
941 2 2 3 31 549 183 565
942 2 2 3 31 490 528 587
943 2 2 3 31 491 529 586
944 2 2 3 31 497 528 593
945 2 2 3 31 496 529 592
946 2 2 3 31 548 506 564
947 2 2 3 31 507 549 565
948 2 2 3 31 550 504 566
949 2 2 3 31 505 551 567
950 2 2 3 31 499 560 600
951 2 2 3 31 561 501 601
952 2 2 3 31 498 562 602
953 2 2 3 31 563 500 603
954 2 2 3 31 560 518 600
955 2 2 3 31 519 561 601
956 2 2 3 31 562 520 602
957 2 2 3 31 521 563 603
958 2 2 3 31 536 194 606
959 2 2 3 31 537 286 607
960 2 2 3 31 202 538 608
961 2 2 3 31 294 539 609
962 2 2 3 31 229 536 606
963 2 2 3 31 177 537 607
964 2 2 3 31 538 186 608
965 2 2 3 31 539 220 609
966 2 2 3 31 514 572 575
967 2 2 3 31 515 573 574
968 2 2 3 31 197 196 576
969 2 2 3 31 289 288 577
970 2 2 3 31 200 199 578
971 2 2 3 31 292 291 579
972 2 2 3 31 501 542 601
973 2 2 3 31 500 544 603
974 2 2 3 31 545 499 600
975 2 2 3 31 543 498 602
976 2 2 3 31 513 546 575
977 2 2 3 31 512 547 574
978 2 2 3 31 503 546 597
979 2 2 3 31 502 547 596
980 2 2 3 31 546 489 575
981 2 2 3 31 547 489 574
982 2 2 3 31 547 512 596
983 2 2 3 31 546 513 597
984 2 2 3 31 508 543 587
985 2 2 3 31 509 545 586
986 2 2 3 31 544 510 605
987 2 2 3 31 542 511 604
988 2 2 3 31 512 573 599
989 2 2 3 31 513 572 598
990 2 2 3 31 545 491 586
991 2 2 3 31 543 490 587
992 2 2 3 31 495 569 599
993 2 2 3 31 494 570 598
994 2 2 3 31 546 503 584
995 2 2 3 31 547 502 585
996 2 2 3 31 50 229 606
997 2 2 3 31 186 42 608
998 2 2 3 31 46 177 607
999 2 2 3 31 220 54 609
1000 2 2 3 31 194 50 606
1001 2 2 3 31 286 46 607
1002 2 2 3 31 54 294 609
1003 2 2 3 31 42 202 608
1004 2 2 3 31 511 558 604
1005 2 2 3 31 510 559 605
1006 2 2 3 31 573 512 574
1007 2 2 3 31 572 513 575
1008 2 2 3 31 493 542 604
1009 2 2 3 31 492 544 605
1010 2 2 3 31 512 580 596
1011 2 2 3 31 513 581 597
1012 2 2 3 31 520 552 602
1013 2 2 3 31 518 554 600
1014 2 2 3 31 555 519 601
1015 2 2 3 31 553 521 603
1016 2 2 3 31 582 508 587
1017 2 2 3 31 583 509 586
1018 2 2 3 31 495 573 595
1019 2 2 3 31 494 572 594
1020 2 2 3 31 573 515 595
1021 2 2 3 31 572 514 594
1022 2 2 3 31 528 582 587
1023 2 2 3 31 529 583 586
1024 2 2 3 31 572 494 598
1025 2 2 3 31 573 495 599
1026 2 2 3 31 580 523 596
1027 2 2 3 31 581 522 597
1028 2 2 3 32 232 205 233
1029 2 2 3 32 233 205 206
1030 2 2 3 32 204 231 230
1031 2 2 3 32 204 230 203
1032 2 2 3 32 208 235 234
1033 2 2 3 32 208 234 207
1034 2 2 3 32 207 234 233
1035 2 2 3 32 207 233 206
1036 2 2 3 32 610 230 48
1037 2 2 3 32 187 610 48
1038 2 2 3 32 611 255 55
1039 2 2 3 32 239 611 55
1040 2 2 3 32 235 208 209
1041 2 2 3 32 236 209 210
1042 2 2 3 32 235 209 236
1043 2 2 3 32 236 210 237
1044 2 2 3 32 212 611 239
1045 2 2 3 32 255 611 51
1046 2 2 3 32 611 212 51
1047 2 2 3 32 203 610 47
1048 2 2 3 32 610 203 230
1049 2 2 3 32 610 187 47
1050 2 2 3 32 212 239 238
1051 2 2 3 32 204 232 231
1052 2 2 3 32 237 210 238
1053 2 2 3 32 238 210 211
1054 2 2 3 32 212 238 211
1055 2 2 3 32 205 232 204
1056 2 2 3 33 255 51 213
1057 2 2 3 33 52 612 213
1058 2 2 3 33 255 612 256
1059 2 2 3 33 256 55 255
1060 2 2 3 33 612 52 256
1061 2 2 3 33 612 255 213
1062 2 2 3 34 613 257 56
1063 2 2 3 34 244 613 56
1064 2 2 3 34 256 614 55
1065 2 2 3 34 614 240 55
1066 2 2 3 34 242 217 243
1067 2 2 3 34 241 215 242
1068 2 2 3 34 240 215 241
1069 2 2 3 34 242 215 216
1070 2 2 3 34 218 613 244
1071 2 2 3 34 257 613 53
1072 2 2 3 34 613 218 53
1073 2 2 3 34 614 214 240
1074 2 2 3 34 614 256 52
1075 2 2 3 34 214 614 52
1076 2 2 3 34 217 242 216
1077 2 2 3 34 243 217 244
1078 2 2 3 34 244 217 218
1079 2 2 3 34 240 214 215
1080 2 2 3 35 257 53 219
1081 2 2 3 35 219 54 258
1082 2 2 3 35 257 219 258
1083 2 2 3 35 257 258 56
1084 2 2 3 36 248 223 249
1085 2 2 3 36 249 223 224
1086 2 2 3 36 223 248 247
1087 2 2 3 36 223 247 222
1088 2 2 3 36 615 229 50
1089 2 2 3 36 193 615 50
1090 2 2 3 36 258 616 56
1091 2 2 3 36 616 245 56
1092 2 2 3 36 224 250 249
1093 2 2 3 36 252 251 226
1094 2 2 3 36 226 250 225
1095 2 2 3 36 251 250 226
1096 2 2 3 36 254 615 49
1097 2 2 3 36 615 254 229
1098 2 2 3 36 615 193 49
1099 2 2 3 36 616 220 245
1100 2 2 3 36 616 258 54
1101 2 2 3 36 220 616 54
1102 2 2 3 36 253 252 228
1103 2 2 3 36 228 252 227
1104 2 2 3 36 254 253 229
1105 2 2 3 36 228 229 253
1106 2 2 3 36 246 245 220
1107 2 2 3 36 246 220 221
1108 2 2 3 36 247 246 222
1109 2 2 3 36 222 246 221
1110 2 2 3 36 226 227 252
1111 2 2 3 36 224 225 250
1112 2 2 3 37 639 230 654
1113 2 2 3 37 239 640 655
1114 2 2 3 37 634 237 655
1115 2 2 3 37 232 633 654
1116 2 2 3 37 230 231 654
1117 2 2 3 37 238 239 655
1118 2 2 3 37 635 252 656
1119 2 2 3 37 247 636 657
1120 2 2 3 37 629 242 650
1121 2 2 3 37 190 630 651
1122 2 2 3 37 242 629 649
1123 2 2 3 37 630 190 648
1124 2 2 3 37 632 619 661
1125 2 2 3 37 626 634 652
1126 2 2 3 37 626 652 661
1127 2 2 3 37 254 642 656
1128 2 2 3 37 641 245 657
1129 2 2 3 37 630 620 638
1130 2 2 3 37 621 629 637
1131 2 2 3 37 629 622 637
1132 2 2 3 37 623 630 638
1133 2 2 3 37 631 618 672
1134 2 2 3 37 253 254 656
1135 2 2 3 37 245 246 657
1136 2 2 3 37 252 253 656
1137 2 2 3 37 246 247 657
1138 2 2 3 37 237 238 655
1139 2 2 3 37 231 232 654
1140 2 2 3 37 661 619 668
1141 2 2 3 37 660 631 672
1142 2 2 3 37 627 635 647
1143 2 2 3 37 636 628 646
1144 2 2 3 37 242 243 650
1145 2 2 3 37 191 190 651
1146 2 2 3 37 241 242 649
1147 2 2 3 37 190 189 648
1148 2 2 3 37 633 625 672
1149 2 2 3 37 620 633 653
1150 2 2 3 37 634 621 652
1151 2 2 3 37 627 647 670
1152 2 2 3 37 646 628 671
1153 2 2 3 37 635 623 647
1154 2 2 3 37 622 636 646
1155 2 2 3 37 629 621 649
1156 2 2 3 37 620 630 648
1157 2 2 3 37 622 629 650
1158 2 2 3 37 630 623 651
1159 2 2 3 37 652 617 661
1160 2 2 3 37 653 633 672
1161 2 2 3 37 631 619 669
1162 2 2 3 37 619 632 669
1163 2 2 3 37 633 620 654
1164 2 2 3 37 621 634 655
1165 2 2 3 37 624 644 645
1166 2 2 3 37 234 235 643
1167 2 2 3 37 633 232 663
1168 2 2 3 37 237 634 662
1169 2 2 3 37 623 635 656
1170 2 2 3 37 636 622 657
1171 2 2 3 37 618 631 670
1172 2 2 3 37 619 631 660
1173 2 2 3 37 637 622 646
1174 2 2 3 37 623 638 647
1175 2 2 3 37 621 637 652
1176 2 2 3 37 638 620 653
1177 2 2 3 37 625 633 663
1178 2 2 3 37 634 626 662
1179 2 2 3 37 252 635 664
1180 2 2 3 37 636 247 665
1181 2 2 3 37 645 644 674
1182 2 2 3 37 635 627 664
1183 2 2 3 37 628 636 665
1184 2 2 3 37 632 661 671
1185 2 2 3 37 639 620 648
1186 2 2 3 37 621 640 649
1187 2 2 3 37 641 622 650
1188 2 2 3 37 623 642 651
1189 2 2 3 37 617 637 646
1190 2 2 3 37 638 618 647
1191 2 2 3 37 661 617 671
1192 2 2 3 37 620 639 654
1193 2 2 3 37 640 621 655
1194 2 2 3 37 622 641 657
1195 2 2 3 37 642 623 656
1196 2 2 3 37 637 617 652
1197 2 2 3 37 618 638 653
1198 2 2 3 37 230 639 675
1199 2 2 3 37 245 641 677
1200 2 2 3 37 640 239 676
1201 2 2 3 37 642 254 678
1202 2 2 3 37 643 235 658
1203 2 2 3 37 234 643 659
1204 2 2 3 37 235 236 658
1205 2 2 3 37 233 234 659
1206 2 2 3 37 232 233 663
1207 2 2 3 37 236 237 662
1208 2 2 3 37 619 643 668
1209 2 2 3 37 643 619 673
1210 2 2 3 37 658 236 662
1211 2 2 3 37 233 659 663
1212 2 2 3 37 626 661 668
1213 2 2 3 37 628 644 666
1214 2 2 3 37 644 624 666
1215 2 2 3 37 624 645 667
1216 2 2 3 37 645 627 667
1217 2 2 3 37 647 618 670
1218 2 2 3 37 617 646 671
1219 2 2 3 37 247 248 665
1220 2 2 3 37 251 252 664
1221 2 2 3 37 645 250 684
1222 2 2 3 37 249 644 683
1223 2 2 3 37 626 658 662
1224 2 2 3 37 659 625 663
1225 2 2 3 37 666 624 669
1226 2 2 3 37 632 666 669
1227 2 2 3 37 624 667 669
1228 2 2 3 37 667 631 669
1229 2 2 3 37 644 628 683
1230 2 2 3 37 627 645 684
1231 2 2 3 37 250 251 684
1232 2 2 3 37 248 249 683
1233 2 2 3 37 239 55 676
1234 2 2 3 37 48 230 675
1235 2 2 3 37 254 49 678
1236 2 2 3 37 56 245 677
1237 2 2 3 37 188 48 675
1238 2 2 3 37 55 240 676
1239 2 2 3 37 244 56 677
1240 2 2 3 37 49 192 678
1241 2 2 3 37 250 645 674
1242 2 2 3 37 644 249 674
1243 2 2 3 37 249 250 674
1244 2 2 3 37 625 660 672
1245 2 2 3 37 243 244 681
1246 2 2 3 37 192 191 682
1247 2 2 3 37 189 188 679
1248 2 2 3 37 240 241 680
1249 2 2 3 37 618 653 672
1250 2 2 3 37 643 658 668
1251 2 2 3 37 628 665 683
1252 2 2 3 37 664 627 684
1253 2 2 3 37 666 632 671
1254 2 2 3 37 631 667 670
1255 2 2 3 37 658 626 668
1256 2 2 3 37 625 659 673
1257 2 2 3 37 648 189 679
1258 2 2 3 37 241 649 680
1259 2 2 3 37 650 243 681
1260 2 2 3 37 191 651 682
1261 2 2 3 37 639 648 679
1262 2 2 3 37 649 640 680
1263 2 2 3 37 641 650 681
1264 2 2 3 37 651 642 682
1265 2 2 3 37 660 625 673
1266 2 2 3 37 619 660 673
1267 2 2 3 37 659 643 673
1268 2 2 3 37 667 627 670
1269 2 2 3 37 628 666 671
1270 2 2 3 37 676 240 680
1271 2 2 3 37 188 675 679
1272 2 2 3 37 244 677 681
1273 2 2 3 37 678 192 682
1274 2 2 3 37 640 676 680
1275 2 2 3 37 675 639 679
1276 2 2 3 37 677 641 681
1277 2 2 3 37 642 678 682
1278 2 2 3 37 665 248 683
1279 2 2 3 37 251 664 684
$EndElements
