$MeshFormat
2.2 0 8
$EndMeshFormat
$Nodes
572
1 12.7 0 0
2 10.032 7.788 0
3 9.628 8.282 0
4 9.192 8.763 0
5 8.75 9.204000000000001 0
6 8.335000000000001 9.582000000000001 0
7 0 12.7 0
8 -8.335000000000001 9.582000000000001 0
9 -8.75 9.204000000000001 0
10 -9.192 8.763 0
11 -9.628 8.282 0
12 -10.032 7.788 0
13 -12.7 0 0
14 -10.032 -7.788 0
15 -9.628 -8.282 0
16 -9.192 -8.763 0
17 -8.75 -9.204000000000001 0
18 -8.335000000000001 -9.582000000000001 0
19 0 -12.7 0
20 8.335000000000001 -9.582000000000001 0
21 8.75 -9.204000000000001 0
22 9.192 -8.763 0
23 9.628 -8.282 0
24 10.032 -7.788 0
25 12.942 0 4.901
26 10.259 7.964 4.901
27 9.879 8.497999999999999 4.901
28 9.468 9.026 4.901
29 9.029 9.497 4.901
30 8.577 9.859999999999999 4.901
31 0 12.848 4.901
32 -8.577 9.859999999999999 4.901
33 -9.029 9.497 4.901
34 -9.468 9.026 4.901
35 -9.879 8.497999999999999 4.901
36 -10.259 7.964 4.901
37 -12.942 0 4.901
38 -10.259 -7.964 4.901
39 -9.879 -8.497999999999999 4.901
40 -9.468 -9.026 4.901
41 -9.029 -9.497 4.901
42 -8.577 -9.859999999999999 4.901
43 0 -12.848 4.901
44 8.577 -9.859999999999999 4.901
45 9.029 -9.497 4.901
46 9.468 -9.026 4.901
47 9.879 -8.497999999999999 4.901
48 10.259 -7.964 4.901
49 14.504 0 13.688
50 11.705 9.087 13.688
51 11.459 9.856999999999999 13.688
52 11.182 10.661 13.688
53 10.749 11.307 13.688
54 10.086 11.595 13.688
55 0 13.837 13.688
56 -10.086 11.595 13.688
57 -10.749 11.307 13.688
58 -11.182 10.661 13.688
59 -11.459 9.856999999999999 13.688
60 -11.705 9.087 13.688
61 -14.504 0 13.688
62 -11.705 -9.087 13.688
63 -11.459 -9.856999999999999 13.688
64 -11.182 -10.661 13.688
65 -10.749 -11.307 13.688
66 -10.086 -11.595 13.688
67 0 -13.837 13.688
68 10.086 -11.595 13.688
69 10.749 -11.307 13.688
70 11.182 -10.661 13.688
71 11.459 -9.856999999999999 13.688
72 11.705 -9.087 13.688
73 18.953 0 27.142
74 15.716 12.201 27.142
75 15.743 13.542 27.142
76 15.721 14.987 27.142
77 15.258 16.05 27.142
78 14.103 16.212 27.142
79 0 16.849 27.142
80 -14.103 16.212 27.142
81 -15.258 16.05 27.142
82 -15.721 14.987 27.142
83 -15.743 13.542 27.142
84 -15.716 12.201 27.142
85 -18.953 0 27.142
86 -15.716 -12.201 27.142
87 -15.743 -13.542 27.142
88 -15.721 -14.987 27.142
89 -15.258 -16.05 27.142
90 -14.103 -16.212 27.142
91 0 -16.849 27.142
92 14.103 -16.212 27.142
93 15.258 -16.05 27.142
94 15.721 -14.987 27.142
95 15.743 -13.542 27.142
96 15.716 -12.201 27.142
97 27.809 0 46.581
98 23.485 18.232 46.581
99 23.86 20.524 46.581
100 24.142 23.016 46.581
101 23.555 24.777 46.581
102 21.594 24.823 46.581
103 0 23.348 46.581
104 -21.594 24.823 46.581
105 -23.555 24.777 46.581
106 -24.142 23.016 46.581
107 -23.86 20.524 46.581
108 -23.485 18.232 46.581
109 -27.809 0 46.581
110 -23.485 -18.232 46.581
111 -23.86 -20.524 46.581
112 -24.142 -23.016 46.581
113 -23.555 -24.777 46.581
114 -21.594 -24.823 46.581
115 0 -23.348 46.581
116 21.594 -24.823 46.581
117 23.555 -24.777 46.581
118 24.142 -23.016 46.581
119 23.86 -20.524 46.581
120 23.485 -18.232 46.581
121 41.651 0 71.655
122 35.409 27.489 71.655
123 36.132 31.08 71.655
124 36.697 34.986 71.655
125 35.853 37.714 71.655
126 32.792 37.696 71.655
127 0 34.175 71.655
128 -32.792 37.696 71.655
129 -35.853 37.714 71.655
130 -36.697 34.986 71.655
131 -36.132 31.08 71.655
132 -35.409 27.489 71.655
133 -41.651 0 71.655
134 -35.409 -27.489 71.655
135 -36.132 -31.08 71.655
136 -36.697 -34.986 71.655
137 -35.853 -37.714 71.655
138 -32.792 -37.696 71.655
139 0 -34.175 71.655
140 32.792 -37.696 71.655
141 35.853 -37.714 71.655
142 36.697 -34.986 71.655
143 36.132 -31.08 71.655
144 35.409 -27.489 71.655
145 61.409 0 100.836
146 52.602 40.836 100.836
147 53.54 46.055 100.836
148 54.203 51.675 100.836
149 52.851 55.593 100.836
150 48.371 55.605 100.836
151 0 50.498 100.836
152 -48.371 55.605 100.836
153 -52.851 55.593 100.836
154 -54.203 51.675 100.836
155 -53.54 46.055 100.836
156 -52.602 40.836 100.836
157 -61.409 0 100.836
158 -52.602 -40.836 100.836
159 -53.54 -46.055 100.836
160 -54.203 -51.675 100.836
161 -52.851 -55.593 100.836
162 -48.371 -55.605 100.836
163 0 -50.498 100.836
164 48.371 -55.605 100.836
165 52.851 -55.593 100.836
166 54.203 -51.675 100.836
167 53.54 -46.055 100.836
168 52.602 -40.836 100.836
169 89.12 0 129.926
170 78.492 60.936 129.926
171 79.09999999999999 68.042 129.926
172 79.11 75.42100000000001 129.926
173 76.55500000000001 80.52800000000001 129.926
174 70.224 80.726 129.926
175 0 74.764 129.926
176 -70.224 80.726 129.926
177 -76.55500000000001 80.52800000000001 129.926
178 -79.11 75.42100000000001 129.926
179 -79.09999999999999 68.042 129.926
180 -78.492 60.936 129.926
181 -89.12 0 129.926
182 -78.492 -60.936 129.926
183 -79.09999999999999 -68.042 129.926
184 -79.11 -75.42100000000001 129.926
185 -76.55500000000001 -80.52800000000001 129.926
186 -70.224 -80.726 129.926
187 0 -74.764 129.926
188 70.224 -80.726 129.926
189 76.55500000000001 -80.52800000000001 129.926
190 79.11 -75.42100000000001 129.926
191 79.09999999999999 -68.042 129.926
192 78.492 -60.936 129.926
193 125.04 0 154.041
194 115.045 89.313 154.041
195 114.403 98.40900000000001 154.041
196 112.492 107.246 154.041
197 107.658 113.245 154.041
198 99.006 113.813 154.041
199 0 107.701 154.041
200 -99.006 113.813 154.041
201 -107.658 113.245 154.041
202 -112.492 107.246 154.041
203 -114.403 98.40900000000001 154.041
204 -115.045 89.313 154.041
205 -125.04 0 154.041
206 -115.045 -89.313 154.041
207 -114.403 -98.40900000000001 154.041
208 -112.492 -107.246 154.041
209 -107.658 -113.245 154.041
210 -99.006 -113.813 154.041
211 0 -107.701 154.041
212 99.006 -113.813 154.041
213 107.658 -113.245 154.041
214 112.492 -107.246 154.041
215 114.403 -98.40900000000001 154.041
216 115.045 -89.313 154.041
217 166.326 0 172.12
218 159.158 123.559 172.12
219 156.503 134.623 172.12
220 151.63 144.558 172.12
221 143.672 151.128 172.12
222 132.409 152.211 172.12
223 0 146.594 172.12
224 -132.409 152.211 172.12
225 -143.672 151.128 172.12
226 -151.63 144.558 172.12
227 -156.503 134.623 172.12
228 -159.158 123.559 172.12
229 -166.326 0 172.12
230 -159.158 -123.559 172.12
231 -156.503 -134.623 172.12
232 -151.63 -144.558 172.12
233 -143.672 -151.128 172.12
234 -132.409 -152.211 172.12
235 0 -146.594 172.12
236 132.409 -152.211 172.12
237 143.672 -151.128 172.12
238 151.63 -144.558 172.12
239 156.503 -134.623 172.12
240 159.158 -123.559 172.12
241 205.339 0 184.036
242 201.258 156.243 184.036
243 196.475 169.007 184.036
244 188.535 179.742 184.036
245 177.475 186.685 184.036
246 163.828 188.329 184.036
247 0 183.919 184.036
248 -163.828 188.329 184.036
249 -177.475 186.685 184.036
250 -188.535 179.742 184.036
251 -196.475 169.007 184.036
252 -201.258 156.243 184.036
253 -205.339 0 184.036
254 -201.258 -156.243 184.036
255 -196.475 -169.007 184.036
256 -188.535 -179.742 184.036
257 -177.475 -186.685 184.036
258 -163.828 -188.329 184.036
259 0 -183.919 184.036
260 163.828 -188.329 184.036
261 177.475 -186.685 184.036
262 188.535 -179.742 184.036
263 196.475 -169.007 184.036
264 201.258 -156.243 184.036
265 237.916 0 191.18
266 235.543 182.859 191.18
267 228.986 196.973 191.18
268 218.549 208.356 191.18
269 205.006 215.645 191.18
270 189.495 217.834 191.18
271 0 215.43 191.18
272 -189.495 217.834 191.18
273 -205.006 215.645 191.18
274 -218.549 208.356 191.18
275 -228.986 196.973 191.18
276 -235.543 182.859 191.18
277 -237.916 0 191.18
278 -235.543 -182.859 191.18
279 -228.986 -196.973 191.18
280 -218.549 -208.356 191.18
281 -205.006 -215.645 191.18
282 -189.495 -217.834 191.18
283 0 -215.43 191.18
284 189.495 -217.834 191.18
285 205.006 -215.645 191.18
286 218.549 -208.356 191.18
287 228.986 -196.973 191.18
288 235.543 -182.859 191.18
289 259.748 0 194.382
290 257.116 199.607 194.382
291 249.477 214.6 194.382
292 237.579 226.498 194.382
293 222.586 234.137 194.382
294 205.967 236.769 194.382
295 0 236.769 194.382
296 -205.967 236.769 194.382
297 -222.586 234.137 194.382
298 -237.579 226.498 194.382
299 -249.477 214.6 194.382
300 -257.116 199.607 194.382
301 -259.748 0 194.382
302 -257.116 -199.607 194.382
303 -249.477 -214.6 194.382
304 -237.579 -226.498 194.382
305 -222.586 -234.137 194.382
306 -205.967 -236.769 194.382
307 0 -236.769 194.382
308 205.967 -236.769 194.382
309 222.586 -234.137 194.382
310 237.579 -226.498 194.382
311 249.477 -214.6 194.382
312 257.116 -199.607 194.382
313 83.80600000001378 30.46799999992103 129.926
314 96.76849999995167 75.12449999996247 141.9834999999681
315 96.75149999994844 83.22549999995566 141.9834999999648
316 95.80099999994873 91.33349999995112 141.983499999963
317 92.10649999996399 96.88649999996213 141.9834999999721
318 35.11200000008704 77.74500000000739 129.926
319 -35.11199999990816 77.7449999999922 129.926
320 -92.10649999996399 96.88649999996213 141.9834999999721
321 -95.80099999994873 91.33349999995112 141.983499999963
322 -96.75149999994844 83.22549999995566 141.9834999999648
323 -96.76849999995167 75.12449999996247 141.9834999999681
324 -83.80599999998573 30.46800000008184 129.926
325 -83.80600000001378 -30.46799999992103 129.926
326 -96.76849999995167 -75.12449999996247 141.9834999999681
327 -96.75149999994844 -83.22549999995566 141.9834999999648
328 -95.80099999994873 -91.33349999995112 141.983499999963
329 -92.10649999996399 -96.88649999996213 141.9834999999721
330 -35.11200000008704 -77.74500000000739 129.926
331 35.11199999990816 -77.7449999999922 129.926
332 92.10649999996399 -96.88649999996213 141.9834999999721
333 95.80099999994873 -91.33349999995112 141.983499999963
334 96.75149999994844 -83.22549999995566 141.9834999999648
335 96.76849999995167 -75.12449999996247 141.9834999999681
336 83.80599999998573 -30.46800000008184 129.926
337 120.0425000000129 44.65649999988467 154.041
338 137.1014999998916 106.4359999999159 163.0804999999556
339 135.4529999999387 116.5159999999473 163.0804999999737
340 132.0609999999429 125.9019999999456 163.0804999999736
341 125.6649999999481 132.1864999999454 163.0804999999739
342 115.7074999999567 133.0119999999503 163.0804999999766
343 49.50300000013622 110.7570000000084 154.041
344 -49.50299999986993 110.756999999992 154.041
345 -115.7074999999567 133.0119999999503 163.0804999999766
346 -125.6649999999481 132.1864999999454 163.0804999999739
347 -132.0609999999429 125.9019999999456 163.0804999999736
348 -135.4529999999387 116.5159999999473 163.0804999999737
349 -137.1014999998916 106.4359999999159 163.0804999999556
350 -120.0424999999874 44.65650000011288 154.041
351 -120.0425000000129 -44.65649999988467 154.041
352 -137.1014999998916 -106.4359999999159 163.0804999999556
353 -135.4529999999387 -116.5159999999473 163.0804999999737
354 -132.0609999999429 -125.9019999999456 163.0804999999736
355 -125.6649999999481 -132.1864999999454 163.0804999999739
356 -115.7074999999567 -133.0119999999503 163.0804999999766
357 -49.50300000013622 -110.7570000000084 154.041
358 49.50299999986993 -110.756999999992 154.041
359 115.7074999999567 -133.0119999999503 163.0804999999766
360 125.6649999999481 -132.1864999999454 163.0804999999739
361 132.0609999999429 -125.9019999999456 163.0804999999736
362 135.4529999999387 -116.5159999999473 163.0804999999737
363 137.1014999998916 -106.4359999999159 163.0804999999556
364 120.0424999999874 -44.65650000011288 154.041
365 163.9366666666725 41.18633333323201 172.12
366 161.5473333333398 82.37266666655442 172.12
367 180.2079999999459 139.900999999958 178.0779999999847
368 176.4889999998907 151.814999999906 178.0779999999674
369 170.0824999999532 162.1499999999554 178.0779999999849
370 88.27266666676817 150.338666666671 172.12
371 44.13633333344215 148.466333333338 172.12
372 -44.13633333322702 148.4663333333288 172.12
373 -88.27266666655983 150.3386666666621 172.12
374 -170.0824999999532 162.1499999999554 178.0779999999849
375 -176.4889999998907 151.814999999906 178.0779999999674
376 -180.2079999999459 139.900999999958 178.0779999999847
377 -161.5473333333276 82.37266666676501 172.12
378 -163.9366666666604 41.18633333344182 172.12
379 -163.9366666666725 -41.18633333323201 172.12
380 -161.5473333333398 -82.37266666655442 172.12
381 -180.2079999999459 -139.900999999958 178.0779999999847
382 -176.4889999998907 -151.814999999906 178.0779999999674
383 -170.0824999999532 -162.1499999999554 178.0779999999849
384 -88.27266666676817 -150.338666666671 172.12
385 -44.13633333344215 -148.466333333338 172.12
386 44.13633333322702 -148.4663333333288 172.12
387 88.27266666655983 -150.3386666666621 172.12
388 170.0824999999532 -162.1499999999554 178.0779999999849
389 176.4889999998907 -151.814999999906 178.0779999999674
390 180.2079999999459 -139.900999999958 178.0779999999847
391 161.5473333333276 -82.37266666676501 172.12
392 163.9366666666604 -41.18633333344182 172.12
393 204.3187500000023 39.06074999991107 184.036
394 203.2985000000052 78.12149999980265 184.036
395 202.2782500000026 117.1822499998997 184.036
396 122.8710000000953 187.2265000000026 184.036
397 81.9140000002136 186.1240000000058 184.036
398 40.95700000010467 185.0215000000028 184.036
399 -40.95699999990629 185.0214999999975 184.036
400 -81.91399999978913 186.1239999999943 184.036
401 -122.870999999897 187.2264999999972 184.036
402 -202.278249999998 117.1822500000762 184.036
403 -203.2984999999951 78.12150000018906 184.036
404 -204.3187499999975 39.06075000009621 184.036
405 -204.3187500000023 -39.06074999991107 184.036
406 -203.2985000000052 -78.12149999980265 184.036
407 -202.2782500000026 -117.1822499998997 184.036
408 -122.8710000000953 -187.2265000000026 184.036
409 -81.9140000002136 -186.1240000000058 184.036
410 -40.95700000010467 -185.0215000000028 184.036
411 40.95699999990629 -185.0214999999975 184.036
412 81.91399999978913 -186.1239999999943 184.036
413 122.870999999897 -187.2264999999972 184.036
414 202.278249999998 -117.1822500000762 184.036
415 203.2984999999951 -78.12150000018906 184.036
416 204.3187499999975 -39.06075000009621 184.036
417 237.3227500000015 45.71474999988725 191.18
418 236.7295000000033 91.42949999974623 191.18
419 236.1362500000014 137.1442499998884 191.18
420 142.1212500001109 217.2330000000014 191.18
421 94.74750000024133 216.6320000000031 191.18
422 47.37375000012204 216.0310000000015 191.18
423 -47.37374999988805 216.0309999999986 191.18
424 -94.74749999975245 216.6319999999969 191.18
425 -142.1212499998748 217.2329999999984 191.18
426 -236.1362499999985 137.1442500001152 191.18
427 -236.7294999999967 91.42950000025536 191.18
428 -237.3227499999985 45.71475000011245 191.18
429 -237.3227500000015 -45.71474999988725 191.18
430 -236.7295000000033 -91.42949999974623 191.18
431 -236.1362500000014 -137.1442499998884 191.18
432 -142.1212500001109 -217.2330000000014 191.18
433 -94.74750000024133 -216.6320000000031 191.18
434 -47.37375000012204 -216.0310000000015 191.18
435 47.37374999988805 -216.0309999999986 191.18
436 94.74749999975245 -216.6319999999969 191.18
437 142.1212499998748 -217.2329999999984 191.18
438 236.1362499999985 -137.1442500001152 191.18
439 236.7294999999967 -91.42950000025536 191.18
440 237.3227499999985 -45.71475000011245 191.18
441 259.0900000000016 49.90174999987821 194.382
442 258.4320000000041 99.80349999969012 194.382
443 257.774000000002 149.7052499998439 194.382
444 164.7736000001066 236.769 194.382
445 123.5802000002215 236.769 194.382
446 82.38680000022153 236.769 194.382
447 41.1934000001188 236.769 194.382
448 -41.19339999990908 236.769 194.382
449 -82.38679999978881 236.769 194.382
450 -123.5801999997854 236.769 194.382
451 -164.7735999998846 236.769 194.382
452 -257.7739999999995 149.705250000032 194.382
453 -258.4319999999966 99.80350000025547 194.382
454 -259.0899999999983 49.90175000012906 194.382
455 -259.0900000000016 -49.90174999987821 194.382
456 -258.4320000000041 -99.80349999969012 194.382
457 -257.774000000002 -149.7052499998439 194.382
458 -164.7736000001066 -236.769 194.382
459 -123.5802000002215 -236.769 194.382
460 -82.38680000022153 -236.769 194.382
461 -41.1934000001188 -236.769 194.382
462 41.19339999990908 -236.769 194.382
463 82.38679999978881 -236.769 194.382
464 123.5801999997854 -236.769 194.382
465 164.7735999998846 -236.769 194.382
466 257.7739999999995 -149.705250000032 194.382
467 258.4319999999966 -99.80350000025547 194.382
468 259.0899999999983 -49.90175000012906 194.382
469 11.49317281561752 3.941342907370896 2.450010034405337
470 4.211436111308329 11.19995365685795 2.454014863182386
471 -4.244631087158109 11.29523923512554 2.449058374454482
472 -11.47333583916529 3.934660008347625 2.451079137531176
473 -11.49317281561752 -3.941342907370896 2.450010034405337
474 -4.211436111308329 -11.19995365685795 2.454014863182386
475 4.244631087158109 -11.29523923512554 2.449058374454482
476 11.47333583916529 -3.934660008347625 2.451079137531176
477 12.40352393010919 4.278466515943173 9.285429853325306
478 4.611359740657544 11.79031661207492 9.352153417480116
479 -4.722334696624444 12.28955541933726 9.265849116908553
480 -12.30192444818224 4.247171594636524 9.304813735877051
481 -12.40352393010919 -4.278466515943173 9.285429853325306
482 -4.611359740657544 -11.79031661207492 9.352153417480116
483 4.722334696624444 -12.28955541933726 9.265849116908553
484 12.30192444818224 -4.247171594636524 9.304813735877053
485 15.46937433330675 5.264907016859897 20.83137060287783
486 5.539387631944076 14.31881514658357 20.74931684819666
487 -5.424720765196855 15.1096721527103 20.4672360246794
488 -15.31604533745574 5.231616330575946 20.88674137729035
489 -15.46937433330675 -5.264907016859897 20.83137060287783
490 -5.539387631944076 -14.31881514658357 20.74931684819666
491 5.424720765196855 -15.1096721527103 20.4672360246794
492 15.31604533745574 -5.231616330575946 20.88674137729035
493 21.94344515336048 7.319458783889829 37.51641978609187
494 7.278629871336876 19.85300528100682 36.99948276095476
495 -7.151175880134322 20.53785889453081 36.71461006453235
496 -21.81768621302392 7.293690348435291 37.5760814376851
497 -21.94344515336048 -7.319458783889829 37.51641978609187
498 -7.278629871336876 -19.85300528100682 36.99948276095476
499 7.151175880134322 -20.53785889453081 36.71461006453235
500 21.81768621302392 -7.293690348435291 37.5760814376851
501 32.84646057865687 10.82277847311438 60.15780029792739
502 12.06519628794966 29.5989416642703 59.0401623656741
503 -12.02100649330069 29.94954271794267 58.88016447328064
504 -32.78451693477869 10.80945277694856 60.19249088267271
505 -32.84646057865687 -10.82277847311438 60.15780029792739
506 -12.06519628794966 -29.5989416642703 59.0401623656741
507 12.02100649330069 -29.94954271794267 58.88016447328064
508 32.78451693477869 -10.80945277694856 60.19249088267271
509 48.19741936371842 16.82402113922156 86.68239494622998
510 -48.09713399892239 16.80276908877471 86.75100907055682
511 -48.19741936371842 -16.82402113922156 86.68239494622998
512 48.09713399892239 -16.80276908877471 86.75100907055682
513 20.85785783104129 64.8048516730117 115.2595516222431
514 -20.88321683357683 64.50615818136123 115.5034910130987
515 -20.85785783104129 -64.8048516730117 115.2595516222431
516 20.88321683357683 -64.50615818136123 115.5034910130987
517 105.3562302120209 20.91592366750278 142.3976758326738
518 97.3645289734544 46.472948294144 138.9525475080802
519 -105.1738131892712 20.25660424661986 143.3583730992457
520 -96.7543624597288 46.27688364782581 140.0153460309261
521 -105.3562302120209 -20.91592366750278 142.3976758326738
522 -97.3645289734544 -46.472948294144 138.9525475080802
523 105.1738131892712 -20.25660424661986 143.3583730992457
524 96.7543624597288 -46.27688364782581 140.0153460309261
525 137.5081427216385 70.06276363690672 161.2806037869133
526 74.60217228323209 130.0124038424574 162.4665526004246
527 23.40396818752214 128.5178418520882 162.7976891622631
528 94.39708473748927 131.7940176272697 162.9270131501003
529 -74.60970049340379 129.8294955817271 162.8559517043431
530 -23.41163424808446 128.3371305419633 163.1718278618635
531 -94.40436953441079 131.6209321879839 163.2983465116715
532 -137.0919311700601 70.05096805087136 162.2489527021975
533 -137.5081427216385 -70.06276363690672 161.2806037869133
534 -74.60217228323209 -130.0124038424574 162.4665526004246
535 -23.40396818752213 -128.5178418520882 162.7976891622631
536 -94.39708473748927 -131.7940176272697 162.9270131501003
537 74.60970049340379 -129.8294955817271 162.8559517043431
538 23.41163424808446 -128.3371305419633 163.1718278618635
539 94.40436953441079 -131.6209321879839 163.2983465116715
540 137.0919311700601 -70.05096805087136 162.2489527021975
541 179.4062333622271 105.1166622618662 176.9537901363261
542 21.27097501338619 166.0878180496721 177.8186687077411
543 63.81858500813186 167.5401908298065 177.9224012246448
544 -21.27375921364518 165.9843872158896 178.1275571675498
545 -63.8212776409561 167.4401616476696 178.2266715026494
546 -179.2255011203914 105.1152604475709 177.5533839094892
547 -179.4062333622271 -105.1166622618662 176.9537901363261
548 -21.2709750133862 -166.0878180496721 177.8186687077411
549 -63.81858500813186 -167.5401908298065 177.9224012246448
550 21.27375921364518 -165.9843872158896 178.1275571675498
551 63.82127764095611 -167.4401616476697 178.2266715026495
552 179.2255011203914 -105.1152604475709 177.5533839094892
553 221.2300136046428 21.19395141762011 187.5811476660949
554 22.08195565793618 200.1580623638208 187.3723782925821
555 -22.08277787778849 200.0932509780472 187.6394228801407
556 -221.1874544772673 21.19339911890635 187.7857596478772
557 -221.2300136046428 -21.19395141762011 187.5811476660949
558 -22.08195565793618 -200.1580623638208 187.3723782925821
559 22.08277787778849 -200.0932509780472 187.6394228801407
560 221.1874544772673 -21.19339911890635 187.7857596478772
561 248.5191372742452 23.90412433766905 192.7813424511854
562 233.5682783532959 211.6504975556737 192.7978656398689
563 22.14178750006021 226.2789901460983 192.6080886426094
564 -22.14178749994928 226.2464414414526 192.8030491351765
565 -233.571473558681 211.653988155241 192.7581265040347
566 -248.5195402866002 23.90412965187285 192.7785988213933
567 -248.5191372742452 -23.90412433766905 192.7813424511854
568 -233.5682783532959 -211.6504975556737 192.7978656398689
569 -22.14178750006021 -226.2789901460983 192.6080886426094
570 22.14178749994928 -226.2464414414526 192.8030491351765
571 233.571473558681 -211.653988155241 192.7581265040347
572 248.5195402866002 -23.90412965187285 192.7785988213933
$EndNodes
$Elements
2136
1 15 2 0 1 1
2 15 2 0 2 2
3 15 2 0 3 3
4 15 2 0 4 4
5 15 2 0 5 5
6 15 2 0 6 6
7 15 2 0 7 7
8 15 2 0 8 8
9 15 2 0 9 9
10 15 2 0 10 10
11 15 2 0 11 11
12 15 2 0 12 12
13 15 2 0 13 13
14 15 2 0 14 14
15 15 2 0 15 15
16 15 2 0 16 16
17 15 2 0 17 17
18 15 2 0 18 18
19 15 2 0 19 19
20 15 2 0 20 20
21 15 2 0 21 21
22 15 2 0 22 22
23 15 2 0 23 23
24 15 2 0 24 24
25 15 2 0 25 25
26 15 2 0 26 26
27 15 2 0 27 27
28 15 2 0 28 28
29 15 2 0 29 29
30 15 2 0 30 30
31 15 2 0 31 31
32 15 2 0 32 32
33 15 2 0 33 33
34 15 2 0 34 34
35 15 2 0 35 35
36 15 2 0 36 36
37 15 2 0 37 37
38 15 2 0 38 38
39 15 2 0 39 39
40 15 2 0 40 40
41 15 2 0 41 41
42 15 2 0 42 42
43 15 2 0 43 43
44 15 2 0 44 44
45 15 2 0 45 45
46 15 2 0 46 46
47 15 2 0 47 47
48 15 2 0 48 48
49 15 2 0 49 49
50 15 2 0 50 50
51 15 2 0 51 51
52 15 2 0 52 52
53 15 2 0 53 53
54 15 2 0 54 54
55 15 2 0 55 55
56 15 2 0 56 56
57 15 2 0 57 57
58 15 2 0 58 58
59 15 2 0 59 59
60 15 2 0 60 60
61 15 2 0 61 61
62 15 2 0 62 62
63 15 2 0 63 63
64 15 2 0 64 64
65 15 2 0 65 65
66 15 2 0 66 66
67 15 2 0 67 67
68 15 2 0 68 68
69 15 2 0 69 69
70 15 2 0 70 70
71 15 2 0 71 71
72 15 2 0 72 72
73 15 2 0 73 73
74 15 2 0 74 74
75 15 2 0 75 75
76 15 2 0 76 76
77 15 2 0 77 77
78 15 2 0 78 78
79 15 2 0 79 79
80 15 2 0 80 80
81 15 2 0 81 81
82 15 2 0 82 82
83 15 2 0 83 83
84 15 2 0 84 84
85 15 2 0 85 85
86 15 2 0 86 86
87 15 2 0 87 87
88 15 2 0 88 88
89 15 2 0 89 89
90 15 2 0 90 90
91 15 2 0 91 91
92 15 2 0 92 92
93 15 2 0 93 93
94 15 2 0 94 94
95 15 2 0 95 95
96 15 2 0 96 96
97 15 2 0 97 97
98 15 2 0 98 98
99 15 2 0 99 99
100 15 2 0 100 100
101 15 2 0 101 101
102 15 2 0 102 102
103 15 2 0 103 103
104 15 2 0 104 104
105 15 2 0 105 105
106 15 2 0 106 106
107 15 2 0 107 107
108 15 2 0 108 108
109 15 2 0 109 109
110 15 2 0 110 110
111 15 2 0 111 111
112 15 2 0 112 112
113 15 2 0 113 113
114 15 2 0 114 114
115 15 2 0 115 115
116 15 2 0 116 116
117 15 2 0 117 117
118 15 2 0 118 118
119 15 2 0 119 119
120 15 2 0 120 120
121 15 2 0 121 121
122 15 2 0 122 122
123 15 2 0 123 123
124 15 2 0 124 124
125 15 2 0 125 125
126 15 2 0 126 126
127 15 2 0 127 127
128 15 2 0 128 128
129 15 2 0 129 129
130 15 2 0 130 130
131 15 2 0 131 131
132 15 2 0 132 132
133 15 2 0 133 133
134 15 2 0 134 134
135 15 2 0 135 135
136 15 2 0 136 136
137 15 2 0 137 137
138 15 2 0 138 138
139 15 2 0 139 139
140 15 2 0 140 140
141 15 2 0 141 141
142 15 2 0 142 142
143 15 2 0 143 143
144 15 2 0 144 144
145 15 2 0 145 145
146 15 2 0 146 146
147 15 2 0 147 147
148 15 2 0 148 148
149 15 2 0 149 149
150 15 2 0 150 150
151 15 2 0 151 151
152 15 2 0 152 152
153 15 2 0 153 153
154 15 2 0 154 154
155 15 2 0 155 155
156 15 2 0 156 156
157 15 2 0 157 157
158 15 2 0 158 158
159 15 2 0 159 159
160 15 2 0 160 160
161 15 2 0 161 161
162 15 2 0 162 162
163 15 2 0 163 163
164 15 2 0 164 164
165 15 2 0 165 165
166 15 2 0 166 166
167 15 2 0 167 167
168 15 2 0 168 168
169 15 2 0 169 169
170 15 2 0 170 170
171 15 2 0 171 171
172 15 2 0 172 172
173 15 2 0 173 173
174 15 2 0 174 174
175 15 2 0 175 175
176 15 2 0 176 176
177 15 2 0 177 177
178 15 2 0 178 178
179 15 2 0 179 179
180 15 2 0 180 180
181 15 2 0 181 181
182 15 2 0 182 182
183 15 2 0 183 183
184 15 2 0 184 184
185 15 2 0 185 185
186 15 2 0 186 186
187 15 2 0 187 187
188 15 2 0 188 188
189 15 2 0 189 189
190 15 2 0 190 190
191 15 2 0 191 191
192 15 2 0 192 192
193 15 2 0 193 193
194 15 2 0 194 194
195 15 2 0 195 195
196 15 2 0 196 196
197 15 2 0 197 197
198 15 2 0 198 198
199 15 2 0 199 199
200 15 2 0 200 200
201 15 2 0 201 201
202 15 2 0 202 202
203 15 2 0 203 203
204 15 2 0 204 204
205 15 2 0 205 205
206 15 2 0 206 206
207 15 2 0 207 207
208 15 2 0 208 208
209 15 2 0 209 209
210 15 2 0 210 210
211 15 2 0 211 211
212 15 2 0 212 212
213 15 2 0 213 213
214 15 2 0 214 214
215 15 2 0 215 215
216 15 2 0 216 216
217 15 2 0 217 217
218 15 2 0 218 218
219 15 2 0 219 219
220 15 2 0 220 220
221 15 2 0 221 221
222 15 2 0 222 222
223 15 2 0 223 223
224 15 2 0 224 224
225 15 2 0 225 225
226 15 2 0 226 226
227 15 2 0 227 227
228 15 2 0 228 228
229 15 2 0 229 229
230 15 2 0 230 230
231 15 2 0 231 231
232 15 2 0 232 232
233 15 2 0 233 233
234 15 2 0 234 234
235 15 2 0 235 235
236 15 2 0 236 236
237 15 2 0 237 237
238 15 2 0 238 238
239 15 2 0 239 239
240 15 2 0 240 240
241 15 2 0 241 241
242 15 2 0 242 242
243 15 2 0 243 243
244 15 2 0 244 244
245 15 2 0 245 245
246 15 2 0 246 246
247 15 2 0 247 247
248 15 2 0 248 248
249 15 2 0 249 249
250 15 2 0 250 250
251 15 2 0 251 251
252 15 2 0 252 252
253 15 2 0 253 253
254 15 2 0 254 254
255 15 2 0 255 255
256 15 2 0 256 256
257 15 2 0 257 257
258 15 2 0 258 258
259 15 2 0 259 259
260 15 2 0 260 260
261 15 2 0 261 261
262 15 2 0 262 262
263 15 2 0 263 263
264 15 2 0 264 264
265 15 2 0 265 265
266 15 2 0 266 266
267 15 2 0 267 267
268 15 2 0 268 268
269 15 2 0 269 269
270 15 2 0 270 270
271 15 2 0 271 271
272 15 2 0 272 272
273 15 2 0 273 273
274 15 2 0 274 274
275 15 2 0 275 275
276 15 2 0 276 276
277 15 2 0 277 277
278 15 2 0 278 278
279 15 2 0 279 279
280 15 2 0 280 280
281 15 2 0 281 281
282 15 2 0 282 282
283 15 2 0 283 283
284 15 2 0 284 284
285 15 2 0 285 285
286 15 2 0 286 286
287 15 2 0 287 287
288 15 2 0 288 288
289 15 2 0 289 289
290 15 2 0 290 290
291 15 2 0 291 291
292 15 2 0 292 292
293 15 2 0 293 293
294 15 2 0 294 294
295 15 2 0 295 295
296 15 2 0 296 296
297 15 2 0 297 297
298 15 2 0 298 298
299 15 2 0 299 299
300 15 2 0 300 300
301 15 2 0 301 301
302 15 2 0 302 302
303 15 2 0 303 303
304 15 2 0 304 304
305 15 2 0 305 305
306 15 2 0 306 306
307 15 2 0 307 307
308 15 2 0 308 308
309 15 2 0 309 309
310 15 2 0 310 310
311 15 2 0 311 311
312 15 2 0 312 312
313 1 2 0 1 1 25
314 1 2 0 2 1 2
315 1 2 0 3 2 26
316 1 2 0 4 2 3
317 1 2 0 5 3 27
318 1 2 0 6 3 4
319 1 2 0 7 4 28
320 1 2 0 8 4 5
321 1 2 0 9 5 29
322 1 2 0 10 5 6
323 1 2 0 11 6 30
324 1 2 0 12 6 7
325 1 2 0 13 7 31
326 1 2 0 14 7 8
327 1 2 0 15 8 32
328 1 2 0 16 8 9
329 1 2 0 17 9 33
330 1 2 0 18 9 10
331 1 2 0 19 10 34
332 1 2 0 20 10 11
333 1 2 0 21 11 35
334 1 2 0 22 11 12
335 1 2 0 23 12 36
336 1 2 0 24 12 13
337 1 2 0 25 13 37
338 1 2 0 26 13 14
339 1 2 0 27 14 38
340 1 2 0 28 14 15
341 1 2 0 29 15 39
342 1 2 0 30 15 16
343 1 2 0 31 16 40
344 1 2 0 32 16 17
345 1 2 0 33 17 41
346 1 2 0 34 17 18
347 1 2 0 35 18 42
348 1 2 0 36 18 19
349 1 2 0 37 19 43
350 1 2 0 38 19 20
351 1 2 0 39 20 44
352 1 2 0 40 20 21
353 1 2 0 41 21 45
354 1 2 0 42 21 22
355 1 2 0 43 22 46
356 1 2 0 44 22 23
357 1 2 0 45 23 47
358 1 2 0 46 23 24
359 1 2 0 47 24 48
360 1 2 0 48 24 1
361 1 2 0 49 25 49
362 1 2 0 50 25 26
363 1 2 0 51 26 50
364 1 2 0 52 26 27
365 1 2 0 53 27 51
366 1 2 0 54 27 28
367 1 2 0 55 28 52
368 1 2 0 56 28 29
369 1 2 0 57 29 53
370 1 2 0 58 29 30
371 1 2 0 59 30 54
372 1 2 0 60 30 31
373 1 2 0 61 31 55
374 1 2 0 62 31 32
375 1 2 0 63 32 56
376 1 2 0 64 32 33
377 1 2 0 65 33 57
378 1 2 0 66 33 34
379 1 2 0 67 34 58
380 1 2 0 68 34 35
381 1 2 0 69 35 59
382 1 2 0 70 35 36
383 1 2 0 71 36 60
384 1 2 0 72 36 37
385 1 2 0 73 37 61
386 1 2 0 74 37 38
387 1 2 0 75 38 62
388 1 2 0 76 38 39
389 1 2 0 77 39 63
390 1 2 0 78 39 40
391 1 2 0 79 40 64
392 1 2 0 80 40 41
393 1 2 0 81 41 65
394 1 2 0 82 41 42
395 1 2 0 83 42 66
396 1 2 0 84 42 43
397 1 2 0 85 43 67
398 1 2 0 86 43 44
399 1 2 0 87 44 68
400 1 2 0 88 44 45
401 1 2 0 89 45 69
402 1 2 0 90 45 46
403 1 2 0 91 46 70
404 1 2 0 92 46 47
405 1 2 0 93 47 71
406 1 2 0 94 47 48
407 1 2 0 95 48 72
408 1 2 0 96 48 25
409 1 2 0 97 49 73
410 1 2 0 98 49 50
411 1 2 0 99 50 74
412 1 2 0 100 50 51
413 1 2 0 101 51 75
414 1 2 0 102 51 52
415 1 2 0 103 52 76
416 1 2 0 104 52 53
417 1 2 0 105 53 77
418 1 2 0 106 53 54
419 1 2 0 107 54 78
420 1 2 0 108 54 55
421 1 2 0 109 55 79
422 1 2 0 110 55 56
423 1 2 0 111 56 80
424 1 2 0 112 56 57
425 1 2 0 113 57 81
426 1 2 0 114 57 58
427 1 2 0 115 58 82
428 1 2 0 116 58 59
429 1 2 0 117 59 83
430 1 2 0 118 59 60
431 1 2 0 119 60 84
432 1 2 0 120 60 61
433 1 2 0 121 61 85
434 1 2 0 122 61 62
435 1 2 0 123 62 86
436 1 2 0 124 62 63
437 1 2 0 125 63 87
438 1 2 0 126 63 64
439 1 2 0 127 64 88
440 1 2 0 128 64 65
441 1 2 0 129 65 89
442 1 2 0 130 65 66
443 1 2 0 131 66 90
444 1 2 0 132 66 67
445 1 2 0 133 67 91
446 1 2 0 134 67 68
447 1 2 0 135 68 92
448 1 2 0 136 68 69
449 1 2 0 137 69 93
450 1 2 0 138 69 70
451 1 2 0 139 70 94
452 1 2 0 140 70 71
453 1 2 0 141 71 95
454 1 2 0 142 71 72
455 1 2 0 143 72 96
456 1 2 0 144 72 49
457 1 2 0 145 73 97
458 1 2 0 146 73 74
459 1 2 0 147 74 98
460 1 2 0 148 74 75
461 1 2 0 149 75 99
462 1 2 0 150 75 76
463 1 2 0 151 76 100
464 1 2 0 152 76 77
465 1 2 0 153 77 101
466 1 2 0 154 77 78
467 1 2 0 155 78 102
468 1 2 0 156 78 79
469 1 2 0 157 79 103
470 1 2 0 158 79 80
471 1 2 0 159 80 104
472 1 2 0 160 80 81
473 1 2 0 161 81 105
474 1 2 0 162 81 82
475 1 2 0 163 82 106
476 1 2 0 164 82 83
477 1 2 0 165 83 107
478 1 2 0 166 83 84
479 1 2 0 167 84 108
480 1 2 0 168 84 85
481 1 2 0 169 85 109
482 1 2 0 170 85 86
483 1 2 0 171 86 110
484 1 2 0 172 86 87
485 1 2 0 173 87 111
486 1 2 0 174 87 88
487 1 2 0 175 88 112
488 1 2 0 176 88 89
489 1 2 0 177 89 113
490 1 2 0 178 89 90
491 1 2 0 179 90 114
492 1 2 0 180 90 91
493 1 2 0 181 91 115
494 1 2 0 182 91 92
495 1 2 0 183 92 116
496 1 2 0 184 92 93
497 1 2 0 185 93 117
498 1 2 0 186 93 94
499 1 2 0 187 94 118
500 1 2 0 188 94 95
501 1 2 0 189 95 119
502 1 2 0 190 95 96
503 1 2 0 191 96 120
504 1 2 0 192 96 73
505 1 2 0 193 97 121
506 1 2 0 194 97 98
507 1 2 0 195 98 122
508 1 2 0 196 98 99
509 1 2 0 197 99 123
510 1 2 0 198 99 100
511 1 2 0 199 100 124
512 1 2 0 200 100 101
513 1 2 0 201 101 125
514 1 2 0 202 101 102
515 1 2 0 203 102 126
516 1 2 0 204 102 103
517 1 2 0 205 103 127
518 1 2 0 206 103 104
519 1 2 0 207 104 128
520 1 2 0 208 104 105
521 1 2 0 209 105 129
522 1 2 0 210 105 106
523 1 2 0 211 106 130
524 1 2 0 212 106 107
525 1 2 0 213 107 131
526 1 2 0 214 107 108
527 1 2 0 215 108 132
528 1 2 0 216 108 109
529 1 2 0 217 109 133
530 1 2 0 218 109 110
531 1 2 0 219 110 134
532 1 2 0 220 110 111
533 1 2 0 221 111 135
534 1 2 0 222 111 112
535 1 2 0 223 112 136
536 1 2 0 224 112 113
537 1 2 0 225 113 137
538 1 2 0 226 113 114
539 1 2 0 227 114 138
540 1 2 0 228 114 115
541 1 2 0 229 115 139
542 1 2 0 230 115 116
543 1 2 0 231 116 140
544 1 2 0 232 116 117
545 1 2 0 233 117 141
546 1 2 0 234 117 118
547 1 2 0 235 118 142
548 1 2 0 236 118 119
549 1 2 0 237 119 143
550 1 2 0 238 119 120
551 1 2 0 239 120 144
552 1 2 0 240 120 97
553 1 2 0 241 121 145
554 1 2 0 242 121 122
555 1 2 0 243 122 146
556 1 2 0 244 122 123
557 1 2 0 245 123 147
558 1 2 0 246 123 124
559 1 2 0 247 124 148
560 1 2 0 248 124 125
561 1 2 0 249 125 149
562 1 2 0 250 125 126
563 1 2 0 251 126 150
564 1 2 0 252 126 127
565 1 2 0 253 127 151
566 1 2 0 254 127 128
567 1 2 0 255 128 152
568 1 2 0 256 128 129
569 1 2 0 257 129 153
570 1 2 0 258 129 130
571 1 2 0 259 130 154
572 1 2 0 260 130 131
573 1 2 0 261 131 155
574 1 2 0 262 131 132
575 1 2 0 263 132 156
576 1 2 0 264 132 133
577 1 2 0 265 133 157
578 1 2 0 266 133 134
579 1 2 0 267 134 158
580 1 2 0 268 134 135
581 1 2 0 269 135 159
582 1 2 0 270 135 136
583 1 2 0 271 136 160
584 1 2 0 272 136 137
585 1 2 0 273 137 161
586 1 2 0 274 137 138
587 1 2 0 275 138 162
588 1 2 0 276 138 139
589 1 2 0 277 139 163
590 1 2 0 278 139 140
591 1 2 0 279 140 164
592 1 2 0 280 140 141
593 1 2 0 281 141 165
594 1 2 0 282 141 142
595 1 2 0 283 142 166
596 1 2 0 284 142 143
597 1 2 0 285 143 167
598 1 2 0 286 143 144
599 1 2 0 287 144 168
600 1 2 0 288 144 121
601 1 2 0 289 145 169
602 1 2 0 290 145 146
603 1 2 0 291 146 170
604 1 2 0 292 146 147
605 1 2 0 293 147 171
606 1 2 0 294 147 148
607 1 2 0 295 148 172
608 1 2 0 296 148 149
609 1 2 0 297 149 173
610 1 2 0 298 149 150
611 1 2 0 299 150 174
612 1 2 0 300 150 151
613 1 2 0 301 151 175
614 1 2 0 302 151 152
615 1 2 0 303 152 176
616 1 2 0 304 152 153
617 1 2 0 305 153 177
618 1 2 0 306 153 154
619 1 2 0 307 154 178
620 1 2 0 308 154 155
621 1 2 0 309 155 179
622 1 2 0 310 155 156
623 1 2 0 311 156 180
624 1 2 0 312 156 157
625 1 2 0 313 157 181
626 1 2 0 314 157 158
627 1 2 0 315 158 182
628 1 2 0 316 158 159
629 1 2 0 317 159 183
630 1 2 0 318 159 160
631 1 2 0 319 160 184
632 1 2 0 320 160 161
633 1 2 0 321 161 185
634 1 2 0 322 161 162
635 1 2 0 323 162 186
636 1 2 0 324 162 163
637 1 2 0 325 163 187
638 1 2 0 326 163 164
639 1 2 0 327 164 188
640 1 2 0 328 164 165
641 1 2 0 329 165 189
642 1 2 0 330 165 166
643 1 2 0 331 166 190
644 1 2 0 332 166 167
645 1 2 0 333 167 191
646 1 2 0 334 167 168
647 1 2 0 335 168 192
648 1 2 0 336 168 145
649 1 2 0 337 169 193
650 1 2 0 338 169 313
651 1 2 0 338 313 170
652 1 2 0 339 170 314
653 1 2 0 339 314 194
654 1 2 0 340 170 171
655 1 2 0 341 171 315
656 1 2 0 341 315 195
657 1 2 0 342 171 172
658 1 2 0 343 172 316
659 1 2 0 343 316 196
660 1 2 0 344 172 173
661 1 2 0 345 173 317
662 1 2 0 345 317 197
663 1 2 0 346 173 174
664 1 2 0 347 174 198
665 1 2 0 348 174 318
666 1 2 0 348 318 175
667 1 2 0 349 175 199
668 1 2 0 350 175 319
669 1 2 0 350 319 176
670 1 2 0 351 176 200
671 1 2 0 352 176 177
672 1 2 0 353 177 320
673 1 2 0 353 320 201
674 1 2 0 354 177 178
675 1 2 0 355 178 321
676 1 2 0 355 321 202
677 1 2 0 356 178 179
678 1 2 0 357 179 322
679 1 2 0 357 322 203
680 1 2 0 358 179 180
681 1 2 0 359 180 323
682 1 2 0 359 323 204
683 1 2 0 360 180 324
684 1 2 0 360 324 181
685 1 2 0 361 181 205
686 1 2 0 362 181 325
687 1 2 0 362 325 182
688 1 2 0 363 182 326
689 1 2 0 363 326 206
690 1 2 0 364 182 183
691 1 2 0 365 183 327
692 1 2 0 365 327 207
693 1 2 0 366 183 184
694 1 2 0 367 184 328
695 1 2 0 367 328 208
696 1 2 0 368 184 185
697 1 2 0 369 185 329
698 1 2 0 369 329 209
699 1 2 0 370 185 186
700 1 2 0 371 186 210
701 1 2 0 372 186 330
702 1 2 0 372 330 187
703 1 2 0 373 187 211
704 1 2 0 374 187 331
705 1 2 0 374 331 188
706 1 2 0 375 188 212
707 1 2 0 376 188 189
708 1 2 0 377 189 332
709 1 2 0 377 332 213
710 1 2 0 378 189 190
711 1 2 0 379 190 333
712 1 2 0 379 333 214
713 1 2 0 380 190 191
714 1 2 0 381 191 334
715 1 2 0 381 334 215
716 1 2 0 382 191 192
717 1 2 0 383 192 335
718 1 2 0 383 335 216
719 1 2 0 384 192 336
720 1 2 0 384 336 169
721 1 2 0 385 193 217
722 1 2 0 386 193 337
723 1 2 0 386 337 194
724 1 2 0 387 194 338
725 1 2 0 387 338 218
726 1 2 0 388 194 195
727 1 2 0 389 195 339
728 1 2 0 389 339 219
729 1 2 0 390 195 196
730 1 2 0 391 196 340
731 1 2 0 391 340 220
732 1 2 0 392 196 197
733 1 2 0 393 197 341
734 1 2 0 393 341 221
735 1 2 0 394 197 198
736 1 2 0 395 198 342
737 1 2 0 395 342 222
738 1 2 0 396 198 343
739 1 2 0 396 343 199
740 1 2 0 397 199 223
741 1 2 0 398 199 344
742 1 2 0 398 344 200
743 1 2 0 399 200 345
744 1 2 0 399 345 224
745 1 2 0 400 200 201
746 1 2 0 401 201 346
747 1 2 0 401 346 225
748 1 2 0 402 201 202
749 1 2 0 403 202 347
750 1 2 0 403 347 226
751 1 2 0 404 202 203
752 1 2 0 405 203 348
753 1 2 0 405 348 227
754 1 2 0 406 203 204
755 1 2 0 407 204 349
756 1 2 0 407 349 228
757 1 2 0 408 204 350
758 1 2 0 408 350 205
759 1 2 0 409 205 229
760 1 2 0 410 205 351
761 1 2 0 410 351 206
762 1 2 0 411 206 352
763 1 2 0 411 352 230
764 1 2 0 412 206 207
765 1 2 0 413 207 353
766 1 2 0 413 353 231
767 1 2 0 414 207 208
768 1 2 0 415 208 354
769 1 2 0 415 354 232
770 1 2 0 416 208 209
771 1 2 0 417 209 355
772 1 2 0 417 355 233
773 1 2 0 418 209 210
774 1 2 0 419 210 356
775 1 2 0 419 356 234
776 1 2 0 420 210 357
777 1 2 0 420 357 211
778 1 2 0 421 211 235
779 1 2 0 422 211 358
780 1 2 0 422 358 212
781 1 2 0 423 212 359
782 1 2 0 423 359 236
783 1 2 0 424 212 213
784 1 2 0 425 213 360
785 1 2 0 425 360 237
786 1 2 0 426 213 214
787 1 2 0 427 214 361
788 1 2 0 427 361 238
789 1 2 0 428 214 215
790 1 2 0 429 215 362
791 1 2 0 429 362 239
792 1 2 0 430 215 216
793 1 2 0 431 216 363
794 1 2 0 431 363 240
795 1 2 0 432 216 364
796 1 2 0 432 364 193
797 1 2 0 433 217 241
798 1 2 0 434 217 365
799 1 2 0 434 365 366
800 1 2 0 434 366 218
801 1 2 0 435 218 367
802 1 2 0 435 367 242
803 1 2 0 436 218 219
804 1 2 0 437 219 368
805 1 2 0 437 368 243
806 1 2 0 438 219 220
807 1 2 0 439 220 369
808 1 2 0 439 369 244
809 1 2 0 440 220 221
810 1 2 0 441 221 245
811 1 2 0 442 221 222
812 1 2 0 443 222 246
813 1 2 0 444 222 370
814 1 2 0 444 370 371
815 1 2 0 444 371 223
816 1 2 0 445 223 247
817 1 2 0 446 223 372
818 1 2 0 446 372 373
819 1 2 0 446 373 224
820 1 2 0 447 224 248
821 1 2 0 448 224 225
822 1 2 0 449 225 249
823 1 2 0 450 225 226
824 1 2 0 451 226 374
825 1 2 0 451 374 250
826 1 2 0 452 226 227
827 1 2 0 453 227 375
828 1 2 0 453 375 251
829 1 2 0 454 227 228
830 1 2 0 455 228 376
831 1 2 0 455 376 252
832 1 2 0 456 228 377
833 1 2 0 456 377 378
834 1 2 0 456 378 229
835 1 2 0 457 229 253
836 1 2 0 458 229 379
837 1 2 0 458 379 380
838 1 2 0 458 380 230
839 1 2 0 459 230 381
840 1 2 0 459 381 254
841 1 2 0 460 230 231
842 1 2 0 461 231 382
843 1 2 0 461 382 255
844 1 2 0 462 231 232
845 1 2 0 463 232 383
846 1 2 0 463 383 256
847 1 2 0 464 232 233
848 1 2 0 465 233 257
849 1 2 0 466 233 234
850 1 2 0 467 234 258
851 1 2 0 468 234 384
852 1 2 0 468 384 385
853 1 2 0 468 385 235
854 1 2 0 469 235 259
855 1 2 0 470 235 386
856 1 2 0 470 386 387
857 1 2 0 470 387 236
858 1 2 0 471 236 260
859 1 2 0 472 236 237
860 1 2 0 473 237 261
861 1 2 0 474 237 238
862 1 2 0 475 238 388
863 1 2 0 475 388 262
864 1 2 0 476 238 239
865 1 2 0 477 239 389
866 1 2 0 477 389 263
867 1 2 0 478 239 240
868 1 2 0 479 240 390
869 1 2 0 479 390 264
870 1 2 0 480 240 391
871 1 2 0 480 391 392
872 1 2 0 480 392 217
873 1 2 0 481 241 265
874 1 2 0 482 241 393
875 1 2 0 482 393 394
876 1 2 0 482 394 395
877 1 2 0 482 395 242
878 1 2 0 483 242 266
879 1 2 0 484 242 243
880 1 2 0 485 243 267
881 1 2 0 486 243 244
882 1 2 0 487 244 268
883 1 2 0 488 244 245
884 1 2 0 489 245 269
885 1 2 0 490 245 246
886 1 2 0 491 246 270
887 1 2 0 492 246 396
888 1 2 0 492 396 397
889 1 2 0 492 397 398
890 1 2 0 492 398 247
891 1 2 0 493 247 271
892 1 2 0 494 247 399
893 1 2 0 494 399 400
894 1 2 0 494 400 401
895 1 2 0 494 401 248
896 1 2 0 495 248 272
897 1 2 0 496 248 249
898 1 2 0 497 249 273
899 1 2 0 498 249 250
900 1 2 0 499 250 274
901 1 2 0 500 250 251
902 1 2 0 501 251 275
903 1 2 0 502 251 252
904 1 2 0 503 252 276
905 1 2 0 504 252 402
906 1 2 0 504 402 403
907 1 2 0 504 403 404
908 1 2 0 504 404 253
909 1 2 0 505 253 277
910 1 2 0 506 253 405
911 1 2 0 506 405 406
912 1 2 0 506 406 407
913 1 2 0 506 407 254
914 1 2 0 507 254 278
915 1 2 0 508 254 255
916 1 2 0 509 255 279
917 1 2 0 510 255 256
918 1 2 0 511 256 280
919 1 2 0 512 256 257
920 1 2 0 513 257 281
921 1 2 0 514 257 258
922 1 2 0 515 258 282
923 1 2 0 516 258 408
924 1 2 0 516 408 409
925 1 2 0 516 409 410
926 1 2 0 516 410 259
927 1 2 0 517 259 283
928 1 2 0 518 259 411
929 1 2 0 518 411 412
930 1 2 0 518 412 413
931 1 2 0 518 413 260
932 1 2 0 519 260 284
933 1 2 0 520 260 261
934 1 2 0 521 261 285
935 1 2 0 522 261 262
936 1 2 0 523 262 286
937 1 2 0 524 262 263
938 1 2 0 525 263 287
939 1 2 0 526 263 264
940 1 2 0 527 264 288
941 1 2 0 528 264 414
942 1 2 0 528 414 415
943 1 2 0 528 415 416
944 1 2 0 528 416 241
945 1 2 0 529 265 289
946 1 2 0 530 265 417
947 1 2 0 530 417 418
948 1 2 0 530 418 419
949 1 2 0 530 419 266
950 1 2 0 531 266 290
951 1 2 0 532 266 267
952 1 2 0 533 267 291
953 1 2 0 534 267 268
954 1 2 0 535 268 292
955 1 2 0 536 268 269
956 1 2 0 537 269 293
957 1 2 0 538 269 270
958 1 2 0 539 270 294
959 1 2 0 540 270 420
960 1 2 0 540 420 421
961 1 2 0 540 421 422
962 1 2 0 540 422 271
963 1 2 0 541 271 295
964 1 2 0 542 271 423
965 1 2 0 542 423 424
966 1 2 0 542 424 425
967 1 2 0 542 425 272
968 1 2 0 543 272 296
969 1 2 0 544 272 273
970 1 2 0 545 273 297
971 1 2 0 546 273 274
972 1 2 0 547 274 298
973 1 2 0 548 274 275
974 1 2 0 549 275 299
975 1 2 0 550 275 276
976 1 2 0 551 276 300
977 1 2 0 552 276 426
978 1 2 0 552 426 427
979 1 2 0 552 427 428
980 1 2 0 552 428 277
981 1 2 0 553 277 301
982 1 2 0 554 277 429
983 1 2 0 554 429 430
984 1 2 0 554 430 431
985 1 2 0 554 431 278
986 1 2 0 555 278 302
987 1 2 0 556 278 279
988 1 2 0 557 279 303
989 1 2 0 558 279 280
990 1 2 0 559 280 304
991 1 2 0 560 280 281
992 1 2 0 561 281 305
993 1 2 0 562 281 282
994 1 2 0 563 282 306
995 1 2 0 564 282 432
996 1 2 0 564 432 433
997 1 2 0 564 433 434
998 1 2 0 564 434 283
999 1 2 0 565 283 307
1000 1 2 0 566 283 435
1001 1 2 0 566 435 436
1002 1 2 0 566 436 437
1003 1 2 0 566 437 284
1004 1 2 0 567 284 308
1005 1 2 0 568 284 285
1006 1 2 0 569 285 309
1007 1 2 0 570 285 286
1008 1 2 0 571 286 310
1009 1 2 0 572 286 287
1010 1 2 0 573 287 311
1011 1 2 0 574 287 288
1012 1 2 0 575 288 312
1013 1 2 0 576 288 438
1014 1 2 0 576 438 439
1015 1 2 0 576 439 440
1016 1 2 0 576 440 265
1017 1 2 0 578 289 441
1018 1 2 0 578 441 442
1019 1 2 0 578 442 443
1020 1 2 0 578 443 290
1021 1 2 0 580 290 291
1022 1 2 0 582 291 292
1023 1 2 0 584 292 293
1024 1 2 0 586 293 294
1025 1 2 0 588 294 444
1026 1 2 0 588 444 445
1027 1 2 0 588 445 446
1028 1 2 0 588 446 447
1029 1 2 0 588 447 295
1030 1 2 0 590 295 448
1031 1 2 0 590 448 449
1032 1 2 0 590 449 450
1033 1 2 0 590 450 451
1034 1 2 0 590 451 296
1035 1 2 0 592 296 297
1036 1 2 0 594 297 298
1037 1 2 0 596 298 299
1038 1 2 0 598 299 300
1039 1 2 0 600 300 452
1040 1 2 0 600 452 453
1041 1 2 0 600 453 454
1042 1 2 0 600 454 301
1043 1 2 0 602 301 455
1044 1 2 0 602 455 456
1045 1 2 0 602 456 457
1046 1 2 0 602 457 302
1047 1 2 0 604 302 303
1048 1 2 0 606 303 304
1049 1 2 0 608 304 305
1050 1 2 0 610 305 306
1051 1 2 0 612 306 458
1052 1 2 0 612 458 459
1053 1 2 0 612 459 460
1054 1 2 0 612 460 461
1055 1 2 0 612 461 307
1056 1 2 0 614 307 462
1057 1 2 0 614 462 463
1058 1 2 0 614 463 464
1059 1 2 0 614 464 465
1060 1 2 0 614 465 308
1061 1 2 0 616 308 309
1062 1 2 0 618 309 310
1063 1 2 0 620 310 311
1064 1 2 0 622 311 312
1065 1 2 0 624 312 466
1066 1 2 0 624 466 467
1067 1 2 0 624 467 468
1068 1 2 0 624 468 289
1069 2 2 0 38 26 2 469
1070 2 2 0 38 1 25 469
1071 2 2 0 38 2 1 469
1072 2 2 0 38 25 26 469
1073 2 2 0 39 26 3 2
1074 2 2 0 39 27 3 26
1075 2 2 0 40 27 4 3
1076 2 2 0 40 28 4 27
1077 2 2 0 41 28 5 4
1078 2 2 0 41 29 5 28
1079 2 2 0 42 30 6 5
1080 2 2 0 42 29 30 5
1081 2 2 0 43 6 30 470
1082 2 2 0 43 31 7 470
1083 2 2 0 43 7 6 470
1084 2 2 0 43 30 31 470
1085 2 2 0 44 32 8 471
1086 2 2 0 44 7 31 471
1087 2 2 0 44 8 7 471
1088 2 2 0 44 31 32 471
1089 2 2 0 45 32 9 8
1090 2 2 0 45 33 9 32
1091 2 2 0 46 34 10 9
1092 2 2 0 46 33 34 9
1093 2 2 0 47 35 11 10
1094 2 2 0 47 34 35 10
1095 2 2 0 48 36 12 11
1096 2 2 0 48 35 36 11
1097 2 2 0 49 12 36 472
1098 2 2 0 49 37 13 472
1099 2 2 0 49 13 12 472
1100 2 2 0 49 36 37 472
1101 2 2 0 50 38 14 473
1102 2 2 0 50 13 37 473
1103 2 2 0 50 14 13 473
1104 2 2 0 50 37 38 473
1105 2 2 0 51 38 15 14
1106 2 2 0 51 39 15 38
1107 2 2 0 52 39 16 15
1108 2 2 0 52 40 16 39
1109 2 2 0 53 40 17 16
1110 2 2 0 53 41 17 40
1111 2 2 0 54 42 18 17
1112 2 2 0 54 41 42 17
1113 2 2 0 55 18 42 474
1114 2 2 0 55 43 19 474
1115 2 2 0 55 19 18 474
1116 2 2 0 55 42 43 474
1117 2 2 0 56 44 20 475
1118 2 2 0 56 19 43 475
1119 2 2 0 56 20 19 475
1120 2 2 0 56 43 44 475
1121 2 2 0 57 44 21 20
1122 2 2 0 57 45 21 44
1123 2 2 0 58 46 22 21
1124 2 2 0 58 45 46 21
1125 2 2 0 59 47 23 22
1126 2 2 0 59 46 47 22
1127 2 2 0 60 48 24 23
1128 2 2 0 60 47 48 23
1129 2 2 0 61 24 48 476
1130 2 2 0 61 25 1 476
1131 2 2 0 61 1 24 476
1132 2 2 0 61 48 25 476
1133 2 2 0 62 49 50 477
1134 2 2 0 62 50 26 477
1135 2 2 0 62 25 49 477
1136 2 2 0 62 26 25 477
1137 2 2 0 63 51 27 50
1138 2 2 0 63 50 27 26
1139 2 2 0 64 52 28 51
1140 2 2 0 64 51 28 27
1141 2 2 0 65 52 29 28
1142 2 2 0 65 53 29 52
1143 2 2 0 66 53 54 29
1144 2 2 0 66 54 30 29
1145 2 2 0 67 54 55 478
1146 2 2 0 67 31 30 478
1147 2 2 0 67 30 54 478
1148 2 2 0 67 55 31 478
1149 2 2 0 68 55 56 479
1150 2 2 0 68 32 31 479
1151 2 2 0 68 56 32 479
1152 2 2 0 68 31 55 479
1153 2 2 0 69 57 33 56
1154 2 2 0 69 56 33 32
1155 2 2 0 70 58 34 33
1156 2 2 0 70 57 58 33
1157 2 2 0 71 58 59 34
1158 2 2 0 71 59 35 34
1159 2 2 0 72 59 60 35
1160 2 2 0 72 60 36 35
1161 2 2 0 73 60 61 480
1162 2 2 0 73 36 60 480
1163 2 2 0 73 61 37 480
1164 2 2 0 73 37 36 480
1165 2 2 0 74 61 62 481
1166 2 2 0 74 62 38 481
1167 2 2 0 74 37 61 481
1168 2 2 0 74 38 37 481
1169 2 2 0 75 63 39 62
1170 2 2 0 75 62 39 38
1171 2 2 0 76 64 40 63
1172 2 2 0 76 63 40 39
1173 2 2 0 77 64 41 40
1174 2 2 0 77 65 41 64
1175 2 2 0 78 65 66 41
1176 2 2 0 78 66 42 41
1177 2 2 0 79 66 67 482
1178 2 2 0 79 43 42 482
1179 2 2 0 79 42 66 482
1180 2 2 0 79 67 43 482
1181 2 2 0 80 67 68 483
1182 2 2 0 80 44 43 483
1183 2 2 0 80 68 44 483
1184 2 2 0 80 43 67 483
1185 2 2 0 81 69 45 68
1186 2 2 0 81 68 45 44
1187 2 2 0 82 70 46 45
1188 2 2 0 82 69 70 45
1189 2 2 0 83 70 71 46
1190 2 2 0 83 71 47 46
1191 2 2 0 84 71 72 47
1192 2 2 0 84 72 48 47
1193 2 2 0 85 72 49 484
1194 2 2 0 85 48 72 484
1195 2 2 0 85 49 25 484
1196 2 2 0 85 25 48 484
1197 2 2 0 86 74 50 485
1198 2 2 0 86 49 73 485
1199 2 2 0 86 50 49 485
1200 2 2 0 86 73 74 485
1201 2 2 0 87 74 51 50
1202 2 2 0 87 75 51 74
1203 2 2 0 88 75 52 51
1204 2 2 0 88 75 76 52
1205 2 2 0 89 76 53 52
1206 2 2 0 89 77 53 76
1207 2 2 0 90 78 54 53
1208 2 2 0 90 77 78 53
1209 2 2 0 91 54 78 486
1210 2 2 0 91 79 55 486
1211 2 2 0 91 78 79 486
1212 2 2 0 91 55 54 486
1213 2 2 0 92 80 56 487
1214 2 2 0 92 55 79 487
1215 2 2 0 92 79 80 487
1216 2 2 0 92 56 55 487
1217 2 2 0 93 80 57 56
1218 2 2 0 93 81 57 80
1219 2 2 0 94 82 58 57
1220 2 2 0 94 81 82 57
1221 2 2 0 95 83 59 58
1222 2 2 0 95 82 83 58
1223 2 2 0 96 84 60 59
1224 2 2 0 96 83 84 59
1225 2 2 0 97 60 84 488
1226 2 2 0 97 85 61 488
1227 2 2 0 97 61 60 488
1228 2 2 0 97 84 85 488
1229 2 2 0 98 86 62 489
1230 2 2 0 98 61 85 489
1231 2 2 0 98 62 61 489
1232 2 2 0 98 85 86 489
1233 2 2 0 99 86 63 62
1234 2 2 0 99 87 63 86
1235 2 2 0 100 87 64 63
1236 2 2 0 100 87 88 64
1237 2 2 0 101 88 65 64
1238 2 2 0 101 89 65 88
1239 2 2 0 102 90 66 65
1240 2 2 0 102 89 90 65
1241 2 2 0 103 66 90 490
1242 2 2 0 103 91 67 490
1243 2 2 0 103 90 91 490
1244 2 2 0 103 67 66 490
1245 2 2 0 104 92 68 491
1246 2 2 0 104 67 91 491
1247 2 2 0 104 91 92 491
1248 2 2 0 104 68 67 491
1249 2 2 0 105 92 69 68
1250 2 2 0 105 93 69 92
1251 2 2 0 106 94 70 69
1252 2 2 0 106 93 94 69
1253 2 2 0 107 95 71 70
1254 2 2 0 107 94 95 70
1255 2 2 0 108 96 72 71
1256 2 2 0 108 95 96 71
1257 2 2 0 109 72 96 492
1258 2 2 0 109 73 49 492
1259 2 2 0 109 49 72 492
1260 2 2 0 109 96 73 492
1261 2 2 0 110 74 73 493
1262 2 2 0 110 97 98 493
1263 2 2 0 110 73 97 493
1264 2 2 0 110 98 74 493
1265 2 2 0 111 98 75 74
1266 2 2 0 111 98 99 75
1267 2 2 0 112 99 76 75
1268 2 2 0 112 99 100 76
1269 2 2 0 113 100 77 76
1270 2 2 0 113 101 77 100
1271 2 2 0 114 77 102 78
1272 2 2 0 114 101 102 77
1273 2 2 0 115 78 102 494
1274 2 2 0 115 103 79 494
1275 2 2 0 115 102 103 494
1276 2 2 0 115 79 78 494
1277 2 2 0 116 104 80 495
1278 2 2 0 116 79 103 495
1279 2 2 0 116 103 104 495
1280 2 2 0 116 80 79 495
1281 2 2 0 117 104 81 80
1282 2 2 0 117 104 105 81
1283 2 2 0 118 106 82 81
1284 2 2 0 118 105 106 81
1285 2 2 0 119 82 107 83
1286 2 2 0 119 106 107 82
1287 2 2 0 120 83 108 84
1288 2 2 0 120 107 108 83
1289 2 2 0 121 85 84 496
1290 2 2 0 121 108 109 496
1291 2 2 0 121 84 108 496
1292 2 2 0 121 109 85 496
1293 2 2 0 122 86 85 497
1294 2 2 0 122 109 110 497
1295 2 2 0 122 85 109 497
1296 2 2 0 122 110 86 497
1297 2 2 0 123 110 87 86
1298 2 2 0 123 110 111 87
1299 2 2 0 124 111 88 87
1300 2 2 0 124 111 112 88
1301 2 2 0 125 112 89 88
1302 2 2 0 125 113 89 112
1303 2 2 0 126 89 114 90
1304 2 2 0 126 113 114 89
1305 2 2 0 127 90 114 498
1306 2 2 0 127 115 91 498
1307 2 2 0 127 114 115 498
1308 2 2 0 127 91 90 498
1309 2 2 0 128 116 92 499
1310 2 2 0 128 91 115 499
1311 2 2 0 128 115 116 499
1312 2 2 0 128 92 91 499
1313 2 2 0 129 116 93 92
1314 2 2 0 129 116 117 93
1315 2 2 0 130 118 94 93
1316 2 2 0 130 117 118 93
1317 2 2 0 131 94 119 95
1318 2 2 0 131 118 119 94
1319 2 2 0 132 95 120 96
1320 2 2 0 132 119 120 95
1321 2 2 0 133 73 96 500
1322 2 2 0 133 120 97 500
1323 2 2 0 133 97 73 500
1324 2 2 0 133 96 120 500
1325 2 2 0 134 97 121 501
1326 2 2 0 134 122 98 501
1327 2 2 0 134 121 122 501
1328 2 2 0 134 98 97 501
1329 2 2 0 135 122 99 98
1330 2 2 0 135 122 123 99
1331 2 2 0 136 123 100 99
1332 2 2 0 136 123 124 100
1333 2 2 0 137 124 101 100
1334 2 2 0 137 124 125 101
1335 2 2 0 138 101 126 102
1336 2 2 0 138 125 126 101
1337 2 2 0 139 126 127 502
1338 2 2 0 139 102 126 502
1339 2 2 0 139 127 103 502
1340 2 2 0 139 103 102 502
1341 2 2 0 140 127 128 503
1342 2 2 0 140 128 104 503
1343 2 2 0 140 103 127 503
1344 2 2 0 140 104 103 503
1345 2 2 0 141 128 105 104
1346 2 2 0 141 128 129 105
1347 2 2 0 142 130 106 105
1348 2 2 0 142 129 130 105
1349 2 2 0 143 106 131 107
1350 2 2 0 143 130 131 106
1351 2 2 0 144 107 132 108
1352 2 2 0 144 131 132 107
1353 2 2 0 145 133 109 504
1354 2 2 0 145 108 132 504
1355 2 2 0 145 132 133 504
1356 2 2 0 145 109 108 504
1357 2 2 0 146 109 133 505
1358 2 2 0 146 134 110 505
1359 2 2 0 146 133 134 505
1360 2 2 0 146 110 109 505
1361 2 2 0 147 134 111 110
1362 2 2 0 147 134 135 111
1363 2 2 0 148 135 112 111
1364 2 2 0 148 135 136 112
1365 2 2 0 149 136 113 112
1366 2 2 0 149 136 137 113
1367 2 2 0 150 113 138 114
1368 2 2 0 150 137 138 113
1369 2 2 0 151 138 139 506
1370 2 2 0 151 114 138 506
1371 2 2 0 151 139 115 506
1372 2 2 0 151 115 114 506
1373 2 2 0 152 139 140 507
1374 2 2 0 152 140 116 507
1375 2 2 0 152 115 139 507
1376 2 2 0 152 116 115 507
1377 2 2 0 153 140 117 116
1378 2 2 0 153 140 141 117
1379 2 2 0 154 142 118 117
1380 2 2 0 154 141 142 117
1381 2 2 0 155 118 143 119
1382 2 2 0 155 142 143 118
1383 2 2 0 156 119 144 120
1384 2 2 0 156 143 144 119
1385 2 2 0 157 121 97 508
1386 2 2 0 157 120 144 508
1387 2 2 0 157 144 121 508
1388 2 2 0 157 97 120 508
1389 2 2 0 158 145 146 509
1390 2 2 0 158 146 122 509
1391 2 2 0 158 121 145 509
1392 2 2 0 158 122 121 509
1393 2 2 0 159 146 123 122
1394 2 2 0 159 146 147 123
1395 2 2 0 160 147 124 123
1396 2 2 0 160 147 148 124
1397 2 2 0 161 148 125 124
1398 2 2 0 161 148 149 125
1399 2 2 0 162 125 150 126
1400 2 2 0 162 149 150 125
1401 2 2 0 163 151 127 126
1402 2 2 0 163 150 151 126
1403 2 2 0 164 151 128 127
1404 2 2 0 164 152 128 151
1405 2 2 0 165 152 129 128
1406 2 2 0 165 152 153 129
1407 2 2 0 166 129 154 130
1408 2 2 0 166 153 154 129
1409 2 2 0 167 130 155 131
1410 2 2 0 167 154 155 130
1411 2 2 0 168 131 156 132
1412 2 2 0 168 155 156 131
1413 2 2 0 169 156 157 510
1414 2 2 0 169 132 156 510
1415 2 2 0 169 157 133 510
1416 2 2 0 169 133 132 510
1417 2 2 0 170 157 158 511
1418 2 2 0 170 158 134 511
1419 2 2 0 170 133 157 511
1420 2 2 0 170 134 133 511
1421 2 2 0 171 158 135 134
1422 2 2 0 171 158 159 135
1423 2 2 0 172 159 136 135
1424 2 2 0 172 159 160 136
1425 2 2 0 173 160 137 136
1426 2 2 0 173 160 161 137
1427 2 2 0 174 137 162 138
1428 2 2 0 174 161 162 137
1429 2 2 0 175 163 139 138
1430 2 2 0 175 162 163 138
1431 2 2 0 176 163 140 139
1432 2 2 0 176 164 140 163
1433 2 2 0 177 164 141 140
1434 2 2 0 177 164 165 141
1435 2 2 0 178 141 166 142
1436 2 2 0 178 165 166 141
1437 2 2 0 179 142 167 143
1438 2 2 0 179 166 167 142
1439 2 2 0 180 143 168 144
1440 2 2 0 180 167 168 143
1441 2 2 0 181 168 145 512
1442 2 2 0 181 144 168 512
1443 2 2 0 181 145 121 512
1444 2 2 0 181 121 144 512
1445 2 2 0 182 169 313 145
1446 2 2 0 182 313 146 145
1447 2 2 0 182 146 313 170
1448 2 2 0 183 170 147 146
1449 2 2 0 183 170 171 147
1450 2 2 0 184 171 148 147
1451 2 2 0 184 171 172 148
1452 2 2 0 185 172 149 148
1453 2 2 0 185 173 149 172
1454 2 2 0 186 149 174 150
1455 2 2 0 186 173 174 149
1456 2 2 0 187 151 150 513
1457 2 2 0 187 174 318 150
1458 2 2 0 187 150 318 513
1459 2 2 0 187 175 151 513
1460 2 2 0 187 318 175 513
1461 2 2 0 188 152 151 514
1462 2 2 0 188 152 319 176
1463 2 2 0 188 319 152 514
1464 2 2 0 188 151 175 514
1465 2 2 0 188 175 319 514
1466 2 2 0 189 176 153 152
1467 2 2 0 189 176 177 153
1468 2 2 0 190 153 178 154
1469 2 2 0 190 177 178 153
1470 2 2 0 191 154 179 155
1471 2 2 0 191 178 179 154
1472 2 2 0 192 155 180 156
1473 2 2 0 192 179 180 155
1474 2 2 0 193 157 324 181
1475 2 2 0 193 324 157 156
1476 2 2 0 193 180 324 156
1477 2 2 0 194 181 325 157
1478 2 2 0 194 325 158 157
1479 2 2 0 194 158 325 182
1480 2 2 0 195 182 159 158
1481 2 2 0 195 182 183 159
1482 2 2 0 196 183 160 159
1483 2 2 0 196 183 184 160
1484 2 2 0 197 184 161 160
1485 2 2 0 197 185 161 184
1486 2 2 0 198 161 186 162
1487 2 2 0 198 185 186 161
1488 2 2 0 199 163 162 515
1489 2 2 0 199 186 330 162
1490 2 2 0 199 162 330 515
1491 2 2 0 199 187 163 515
1492 2 2 0 199 330 187 515
1493 2 2 0 200 164 163 516
1494 2 2 0 200 164 331 188
1495 2 2 0 200 331 164 516
1496 2 2 0 200 163 187 516
1497 2 2 0 200 187 331 516
1498 2 2 0 201 188 165 164
1499 2 2 0 201 188 189 165
1500 2 2 0 202 165 190 166
1501 2 2 0 202 189 190 165
1502 2 2 0 203 166 191 167
1503 2 2 0 203 190 191 166
1504 2 2 0 204 167 192 168
1505 2 2 0 204 191 192 167
1506 2 2 0 205 145 336 169
1507 2 2 0 205 336 145 168
1508 2 2 0 205 192 336 168
1509 2 2 0 206 337 314 518
1510 2 2 0 206 169 193 517
1511 2 2 0 206 193 337 517
1512 2 2 0 206 170 313 518
1513 2 2 0 206 314 170 518
1514 2 2 0 206 313 169 517
1515 2 2 0 206 313 517 518
1516 2 2 0 206 517 337 518
1517 2 2 0 206 314 337 194
1518 2 2 0 207 314 171 170
1519 2 2 0 207 315 171 314
1520 2 2 0 207 195 315 194
1521 2 2 0 207 315 314 194
1522 2 2 0 208 315 172 171
1523 2 2 0 208 316 172 315
1524 2 2 0 208 196 316 195
1525 2 2 0 208 316 315 195
1526 2 2 0 209 316 173 172
1527 2 2 0 209 317 173 316
1528 2 2 0 209 197 317 196
1529 2 2 0 209 317 316 196
1530 2 2 0 210 198 317 197
1531 2 2 0 210 317 174 173
1532 2 2 0 210 317 198 174
1533 2 2 0 211 199 318 343
1534 2 2 0 211 175 318 199
1535 2 2 0 211 198 343 174
1536 2 2 0 211 343 318 174
1537 2 2 0 212 319 199 344
1538 2 2 0 212 199 319 175
1539 2 2 0 212 200 176 344
1540 2 2 0 212 176 319 344
1541 2 2 0 213 201 320 200
1542 2 2 0 213 320 177 176
1543 2 2 0 213 200 320 176
1544 2 2 0 214 321 178 177
1545 2 2 0 214 320 321 177
1546 2 2 0 214 201 202 320
1547 2 2 0 214 202 321 320
1548 2 2 0 215 322 179 178
1549 2 2 0 215 321 322 178
1550 2 2 0 215 202 203 321
1551 2 2 0 215 203 322 321
1552 2 2 0 216 323 180 179
1553 2 2 0 216 322 323 179
1554 2 2 0 216 203 204 322
1555 2 2 0 216 204 323 322
1556 2 2 0 217 323 350 520
1557 2 2 0 217 205 181 519
1558 2 2 0 217 350 205 519
1559 2 2 0 217 324 180 520
1560 2 2 0 217 180 323 520
1561 2 2 0 217 181 324 519
1562 2 2 0 217 519 324 520
1563 2 2 0 217 350 519 520
1564 2 2 0 217 204 350 323
1565 2 2 0 218 351 326 522
1566 2 2 0 218 181 205 521
1567 2 2 0 218 205 351 521
1568 2 2 0 218 182 325 522
1569 2 2 0 218 326 182 522
1570 2 2 0 218 325 181 521
1571 2 2 0 218 325 521 522
1572 2 2 0 218 521 351 522
1573 2 2 0 218 326 351 206
1574 2 2 0 219 326 183 182
1575 2 2 0 219 327 183 326
1576 2 2 0 219 207 327 206
1577 2 2 0 219 327 326 206
1578 2 2 0 220 327 184 183
1579 2 2 0 220 328 184 327
1580 2 2 0 220 208 328 207
1581 2 2 0 220 328 327 207
1582 2 2 0 221 328 185 184
1583 2 2 0 221 329 185 328
1584 2 2 0 221 209 329 208
1585 2 2 0 221 329 328 208
1586 2 2 0 222 210 329 209
1587 2 2 0 222 329 186 185
1588 2 2 0 222 329 210 186
1589 2 2 0 223 330 357 211
1590 2 2 0 223 187 330 211
1591 2 2 0 223 210 357 186
1592 2 2 0 223 357 330 186
1593 2 2 0 224 358 331 211
1594 2 2 0 224 211 331 187
1595 2 2 0 224 188 358 212
1596 2 2 0 224 188 331 358
1597 2 2 0 225 213 332 212
1598 2 2 0 225 332 189 188
1599 2 2 0 225 212 332 188
1600 2 2 0 226 333 190 189
1601 2 2 0 226 332 333 189
1602 2 2 0 226 213 214 332
1603 2 2 0 226 214 333 332
1604 2 2 0 227 334 191 190
1605 2 2 0 227 333 334 190
1606 2 2 0 227 214 215 333
1607 2 2 0 227 215 334 333
1608 2 2 0 228 335 192 191
1609 2 2 0 228 334 335 191
1610 2 2 0 228 215 216 334
1611 2 2 0 228 216 335 334
1612 2 2 0 229 335 364 524
1613 2 2 0 229 193 169 523
1614 2 2 0 229 364 193 523
1615 2 2 0 229 336 192 524
1616 2 2 0 229 192 335 524
1617 2 2 0 229 169 336 523
1618 2 2 0 229 523 336 524
1619 2 2 0 229 364 523 524
1620 2 2 0 229 216 364 335
1621 2 2 0 230 217 365 193
1622 2 2 0 230 365 337 193
1623 2 2 0 230 338 366 218
1624 2 2 0 230 194 337 525
1625 2 2 0 230 338 194 525
1626 2 2 0 230 366 338 525
1627 2 2 0 230 337 365 525
1628 2 2 0 230 365 366 525
1629 2 2 0 231 338 195 194
1630 2 2 0 231 339 195 338
1631 2 2 0 231 219 339 218
1632 2 2 0 231 339 338 218
1633 2 2 0 232 339 196 195
1634 2 2 0 232 340 196 339
1635 2 2 0 232 220 340 219
1636 2 2 0 232 340 339 219
1637 2 2 0 233 340 197 196
1638 2 2 0 233 341 197 340
1639 2 2 0 233 221 340 220
1640 2 2 0 233 221 341 340
1641 2 2 0 234 342 198 197
1642 2 2 0 234 341 342 197
1643 2 2 0 234 222 341 221
1644 2 2 0 234 222 342 341
1645 2 2 0 235 199 343 527
1646 2 2 0 235 370 371 526
1647 2 2 0 235 342 370 528
1648 2 2 0 235 371 343 526
1649 2 2 0 235 371 223 527
1650 2 2 0 235 223 199 527
1651 2 2 0 235 343 371 527
1652 2 2 0 235 198 342 528
1653 2 2 0 235 526 198 528
1654 2 2 0 235 370 526 528
1655 2 2 0 235 343 198 526
1656 2 2 0 235 370 342 222
1657 2 2 0 236 344 199 530
1658 2 2 0 236 372 373 529
1659 2 2 0 236 373 345 531
1660 2 2 0 236 344 372 529
1661 2 2 0 236 223 372 530
1662 2 2 0 236 199 223 530
1663 2 2 0 236 372 344 530
1664 2 2 0 236 345 200 531
1665 2 2 0 236 200 529 531
1666 2 2 0 236 529 373 531
1667 2 2 0 236 200 344 529
1668 2 2 0 236 345 373 224
1669 2 2 0 237 345 201 200
1670 2 2 0 237 346 201 345
1671 2 2 0 237 225 346 224
1672 2 2 0 237 346 345 224
1673 2 2 0 238 347 202 201
1674 2 2 0 238 346 347 201
1675 2 2 0 238 226 347 225
1676 2 2 0 238 347 346 225
1677 2 2 0 239 348 203 202
1678 2 2 0 239 347 348 202
1679 2 2 0 239 227 347 226
1680 2 2 0 239 227 348 347
1681 2 2 0 240 349 204 203
1682 2 2 0 240 348 349 203
1683 2 2 0 240 228 348 227
1684 2 2 0 240 228 349 348
1685 2 2 0 241 205 378 229
1686 2 2 0 241 205 350 378
1687 2 2 0 241 377 349 228
1688 2 2 0 241 350 204 532
1689 2 2 0 241 204 349 532
1690 2 2 0 241 349 377 532
1691 2 2 0 241 378 350 532
1692 2 2 0 241 377 378 532
1693 2 2 0 242 229 379 205
1694 2 2 0 242 379 351 205
1695 2 2 0 242 352 380 230
1696 2 2 0 242 206 351 533
1697 2 2 0 242 352 206 533
1698 2 2 0 242 380 352 533
1699 2 2 0 242 351 379 533
1700 2 2 0 242 379 380 533
1701 2 2 0 243 352 207 206
1702 2 2 0 243 353 207 352
1703 2 2 0 243 231 353 230
1704 2 2 0 243 353 352 230
1705 2 2 0 244 353 208 207
1706 2 2 0 244 354 208 353
1707 2 2 0 244 232 354 231
1708 2 2 0 244 354 353 231
1709 2 2 0 245 354 209 208
1710 2 2 0 245 355 209 354
1711 2 2 0 245 233 354 232
1712 2 2 0 245 233 355 354
1713 2 2 0 246 356 210 209
1714 2 2 0 246 355 356 209
1715 2 2 0 246 234 355 233
1716 2 2 0 246 234 356 355
1717 2 2 0 247 211 357 535
1718 2 2 0 247 384 385 534
1719 2 2 0 247 356 384 536
1720 2 2 0 247 385 357 534
1721 2 2 0 247 385 235 535
1722 2 2 0 247 235 211 535
1723 2 2 0 247 357 385 535
1724 2 2 0 247 210 356 536
1725 2 2 0 247 534 210 536
1726 2 2 0 247 384 534 536
1727 2 2 0 247 357 210 534
1728 2 2 0 247 384 356 234
1729 2 2 0 248 358 211 538
1730 2 2 0 248 386 387 537
1731 2 2 0 248 387 359 539
1732 2 2 0 248 358 386 537
1733 2 2 0 248 235 386 538
1734 2 2 0 248 211 235 538
1735 2 2 0 248 386 358 538
1736 2 2 0 248 359 212 539
1737 2 2 0 248 212 537 539
1738 2 2 0 248 537 387 539
1739 2 2 0 248 212 358 537
1740 2 2 0 248 359 387 236
1741 2 2 0 249 359 213 212
1742 2 2 0 249 360 213 359
1743 2 2 0 249 237 360 236
1744 2 2 0 249 360 359 236
1745 2 2 0 250 361 214 213
1746 2 2 0 250 360 361 213
1747 2 2 0 250 238 361 237
1748 2 2 0 250 361 360 237
1749 2 2 0 251 362 215 214
1750 2 2 0 251 361 362 214
1751 2 2 0 251 239 361 238
1752 2 2 0 251 239 362 361
1753 2 2 0 252 363 216 215
1754 2 2 0 252 362 363 215
1755 2 2 0 252 240 362 239
1756 2 2 0 252 240 363 362
1757 2 2 0 253 193 392 217
1758 2 2 0 253 193 364 392
1759 2 2 0 253 391 363 240
1760 2 2 0 253 364 216 540
1761 2 2 0 253 216 363 540
1762 2 2 0 253 363 391 540
1763 2 2 0 253 392 364 540
1764 2 2 0 253 391 392 540
1765 2 2 0 254 241 393 217
1766 2 2 0 254 394 365 393
1767 2 2 0 254 393 365 217
1768 2 2 0 254 366 365 394
1769 2 2 0 254 367 395 242
1770 2 2 0 254 367 218 541
1771 2 2 0 254 218 366 541
1772 2 2 0 254 395 367 541
1773 2 2 0 254 394 395 541
1774 2 2 0 254 366 394 541
1775 2 2 0 255 367 219 218
1776 2 2 0 255 368 219 367
1777 2 2 0 255 243 368 242
1778 2 2 0 255 368 367 242
1779 2 2 0 256 368 220 219
1780 2 2 0 256 369 220 368
1781 2 2 0 256 244 369 243
1782 2 2 0 256 369 368 243
1783 2 2 0 257 369 221 220
1784 2 2 0 257 245 369 244
1785 2 2 0 257 369 245 221
1786 2 2 0 258 221 246 222
1787 2 2 0 258 245 246 221
1788 2 2 0 259 396 370 222
1789 2 2 0 259 397 370 396
1790 2 2 0 259 246 396 222
1791 2 2 0 259 371 370 543
1792 2 2 0 259 223 371 542
1793 2 2 0 259 397 398 543
1794 2 2 0 259 398 247 542
1795 2 2 0 259 398 371 543
1796 2 2 0 259 247 223 542
1797 2 2 0 259 371 398 542
1798 2 2 0 259 370 397 543
1799 2 2 0 260 401 224 373
1800 2 2 0 260 400 401 373
1801 2 2 0 260 224 401 248
1802 2 2 0 260 373 372 545
1803 2 2 0 260 372 223 544
1804 2 2 0 260 399 400 545
1805 2 2 0 260 247 399 544
1806 2 2 0 260 372 399 545
1807 2 2 0 260 223 247 544
1808 2 2 0 260 399 372 544
1809 2 2 0 260 400 373 545
1810 2 2 0 261 248 225 224
1811 2 2 0 261 248 249 225
1812 2 2 0 262 374 226 225
1813 2 2 0 262 250 374 249
1814 2 2 0 262 249 374 225
1815 2 2 0 263 375 227 226
1816 2 2 0 263 374 375 226
1817 2 2 0 263 251 374 250
1818 2 2 0 263 251 375 374
1819 2 2 0 264 376 228 227
1820 2 2 0 264 375 376 227
1821 2 2 0 264 252 375 251
1822 2 2 0 264 252 376 375
1823 2 2 0 265 229 404 253
1824 2 2 0 265 404 378 403
1825 2 2 0 265 229 378 404
1826 2 2 0 265 378 377 403
1827 2 2 0 265 402 376 252
1828 2 2 0 265 228 376 546
1829 2 2 0 265 377 228 546
1830 2 2 0 265 376 402 546
1831 2 2 0 265 402 403 546
1832 2 2 0 265 403 377 546
1833 2 2 0 266 253 405 229
1834 2 2 0 266 406 379 405
1835 2 2 0 266 405 379 229
1836 2 2 0 266 406 380 379
1837 2 2 0 266 381 407 254
1838 2 2 0 266 381 230 547
1839 2 2 0 266 230 380 547
1840 2 2 0 266 407 381 547
1841 2 2 0 266 406 407 547
1842 2 2 0 266 380 406 547
1843 2 2 0 267 381 231 230
1844 2 2 0 267 382 231 381
1845 2 2 0 267 255 382 254
1846 2 2 0 267 382 381 254
1847 2 2 0 268 382 232 231
1848 2 2 0 268 383 232 382
1849 2 2 0 268 256 383 255
1850 2 2 0 268 383 382 255
1851 2 2 0 269 383 233 232
1852 2 2 0 269 257 383 256
1853 2 2 0 269 383 257 233
1854 2 2 0 270 233 258 234
1855 2 2 0 270 257 258 233
1856 2 2 0 271 408 384 234
1857 2 2 0 271 409 384 408
1858 2 2 0 271 258 408 234
1859 2 2 0 271 385 384 549
1860 2 2 0 271 235 385 548
1861 2 2 0 271 409 410 549
1862 2 2 0 271 410 259 548
1863 2 2 0 271 410 385 549
1864 2 2 0 271 259 235 548
1865 2 2 0 271 385 410 548
1866 2 2 0 271 384 409 549
1867 2 2 0 272 236 387 413
1868 2 2 0 272 413 387 412
1869 2 2 0 272 236 413 260
1870 2 2 0 272 387 386 551
1871 2 2 0 272 386 235 550
1872 2 2 0 272 411 412 551
1873 2 2 0 272 259 411 550
1874 2 2 0 272 386 411 551
1875 2 2 0 272 235 259 550
1876 2 2 0 272 411 386 550
1877 2 2 0 272 412 387 551
1878 2 2 0 273 260 237 236
1879 2 2 0 273 260 261 237
1880 2 2 0 274 388 238 237
1881 2 2 0 274 262 388 261
1882 2 2 0 274 261 388 237
1883 2 2 0 275 389 239 238
1884 2 2 0 275 388 389 238
1885 2 2 0 275 263 388 262
1886 2 2 0 275 263 389 388
1887 2 2 0 276 390 240 239
1888 2 2 0 276 389 390 239
1889 2 2 0 276 264 389 263
1890 2 2 0 276 264 390 389
1891 2 2 0 277 241 217 416
1892 2 2 0 277 392 415 416
1893 2 2 0 277 217 392 416
1894 2 2 0 277 392 391 415
1895 2 2 0 277 414 390 264
1896 2 2 0 277 240 390 552
1897 2 2 0 277 391 240 552
1898 2 2 0 277 390 414 552
1899 2 2 0 277 414 415 552
1900 2 2 0 277 415 391 552
1901 2 2 0 278 418 394 417
1902 2 2 0 278 394 393 417
1903 2 2 0 278 418 419 395
1904 2 2 0 278 394 418 395
1905 2 2 0 278 242 419 266
1906 2 2 0 278 419 242 395
1907 2 2 0 278 393 241 553
1908 2 2 0 278 417 393 553
1909 2 2 0 278 241 265 553
1910 2 2 0 278 265 417 553
1911 2 2 0 279 266 243 242
1912 2 2 0 279 267 243 266
1913 2 2 0 280 267 244 243
1914 2 2 0 280 268 244 267
1915 2 2 0 281 269 245 244
1916 2 2 0 281 268 269 244
1917 2 2 0 282 245 270 246
1918 2 2 0 282 269 270 245
1919 2 2 0 283 421 396 420
1920 2 2 0 283 247 398 554
1921 2 2 0 283 397 396 421
1922 2 2 0 283 270 420 246
1923 2 2 0 283 420 396 246
1924 2 2 0 283 398 422 554
1925 2 2 0 283 271 247 554
1926 2 2 0 283 422 271 554
1927 2 2 0 283 398 397 422
1928 2 2 0 283 422 397 421
1929 2 2 0 284 424 425 401
1930 2 2 0 284 399 247 555
1931 2 2 0 284 400 424 401
1932 2 2 0 284 248 425 272
1933 2 2 0 284 425 248 401
1934 2 2 0 284 423 399 555
1935 2 2 0 284 247 271 555
1936 2 2 0 284 271 423 555
1937 2 2 0 284 400 399 423
1938 2 2 0 284 424 400 423
1939 2 2 0 285 272 249 248
1940 2 2 0 285 272 273 249
1941 2 2 0 286 273 250 249
1942 2 2 0 286 274 250 273
1943 2 2 0 287 275 251 250
1944 2 2 0 287 274 275 250
1945 2 2 0 288 276 252 251
1946 2 2 0 288 275 276 251
1947 2 2 0 289 428 403 427
1948 2 2 0 289 404 403 428
1949 2 2 0 289 427 402 426
1950 2 2 0 289 403 402 427
1951 2 2 0 289 276 426 252
1952 2 2 0 289 426 402 252
1953 2 2 0 289 253 404 556
1954 2 2 0 289 404 428 556
1955 2 2 0 289 277 253 556
1956 2 2 0 289 428 277 556
1957 2 2 0 290 430 406 429
1958 2 2 0 290 406 405 429
1959 2 2 0 290 430 431 407
1960 2 2 0 290 406 430 407
1961 2 2 0 290 254 431 278
1962 2 2 0 290 431 254 407
1963 2 2 0 290 405 253 557
1964 2 2 0 290 429 405 557
1965 2 2 0 290 253 277 557
1966 2 2 0 290 277 429 557
1967 2 2 0 291 278 255 254
1968 2 2 0 291 279 255 278
1969 2 2 0 292 279 256 255
1970 2 2 0 292 280 256 279
1971 2 2 0 293 281 257 256
1972 2 2 0 293 280 281 256
1973 2 2 0 294 257 282 258
1974 2 2 0 294 281 282 257
1975 2 2 0 295 433 408 432
1976 2 2 0 295 259 410 558
1977 2 2 0 295 409 408 433
1978 2 2 0 295 282 432 258
1979 2 2 0 295 432 408 258
1980 2 2 0 295 410 434 558
1981 2 2 0 295 283 259 558
1982 2 2 0 295 434 283 558
1983 2 2 0 295 410 409 434
1984 2 2 0 295 434 409 433
1985 2 2 0 296 436 437 413
1986 2 2 0 296 411 259 559
1987 2 2 0 296 412 436 413
1988 2 2 0 296 260 437 284
1989 2 2 0 296 437 260 413
1990 2 2 0 296 435 411 559
1991 2 2 0 296 259 283 559
1992 2 2 0 296 283 435 559
1993 2 2 0 296 412 411 435
1994 2 2 0 296 436 412 435
1995 2 2 0 297 284 261 260
1996 2 2 0 297 284 285 261
1997 2 2 0 298 285 262 261
1998 2 2 0 298 286 262 285
1999 2 2 0 299 287 263 262
2000 2 2 0 299 286 287 262
2001 2 2 0 300 288 264 263
2002 2 2 0 300 287 288 263
2003 2 2 0 301 440 415 439
2004 2 2 0 301 416 415 440
2005 2 2 0 301 439 414 438
2006 2 2 0 301 415 414 439
2007 2 2 0 301 288 438 264
2008 2 2 0 301 438 414 264
2009 2 2 0 301 241 416 560
2010 2 2 0 301 416 440 560
2011 2 2 0 301 265 241 560
2012 2 2 0 301 440 265 560
2013 2 2 0 302 441 417 561
2014 2 2 0 302 265 289 561
2015 2 2 0 302 417 265 561
2016 2 2 0 302 266 443 290
2017 2 2 0 302 289 441 561
2018 2 2 0 302 443 266 419
2019 2 2 0 302 418 417 441
2020 2 2 0 302 418 442 419
2021 2 2 0 302 442 418 441
2022 2 2 0 302 442 443 419
2023 2 2 0 303 290 267 266
2024 2 2 0 303 291 267 290
2025 2 2 0 304 268 267 562
2026 2 2 0 304 291 292 562
2027 2 2 0 304 267 291 562
2028 2 2 0 304 292 268 562
2029 2 2 0 305 293 269 268
2030 2 2 0 305 292 293 268
2031 2 2 0 306 294 270 269
2032 2 2 0 306 293 294 269
2033 2 2 0 307 422 447 563
2034 2 2 0 307 295 271 563
2035 2 2 0 307 294 444 270
2036 2 2 0 307 444 420 270
2037 2 2 0 307 271 422 563
2038 2 2 0 307 447 295 563
2039 2 2 0 307 421 420 445
2040 2 2 0 307 445 420 444
2041 2 2 0 307 422 421 446
2042 2 2 0 307 446 421 445
2043 2 2 0 307 447 422 446
2044 2 2 0 308 448 423 564
2045 2 2 0 308 271 295 564
2046 2 2 0 308 423 271 564
2047 2 2 0 308 296 272 451
2048 2 2 0 308 272 425 451
2049 2 2 0 308 295 448 564
2050 2 2 0 308 424 423 449
2051 2 2 0 308 424 450 425
2052 2 2 0 308 425 450 451
2053 2 2 0 308 449 423 448
2054 2 2 0 308 450 424 449
2055 2 2 0 309 296 273 272
2056 2 2 0 309 297 273 296
2057 2 2 0 310 297 274 273
2058 2 2 0 310 298 274 297
2059 2 2 0 311 275 274 565
2060 2 2 0 311 298 299 565
2061 2 2 0 311 274 298 565
2062 2 2 0 311 299 275 565
2063 2 2 0 312 300 276 275
2064 2 2 0 312 299 300 275
2065 2 2 0 313 428 454 566
2066 2 2 0 313 301 277 566
2067 2 2 0 313 300 452 276
2068 2 2 0 313 277 428 566
2069 2 2 0 313 454 301 566
2070 2 2 0 313 452 426 276
2071 2 2 0 313 453 427 426
2072 2 2 0 313 453 426 452
2073 2 2 0 313 454 428 427
2074 2 2 0 313 454 427 453
2075 2 2 0 314 455 429 567
2076 2 2 0 314 277 301 567
2077 2 2 0 314 429 277 567
2078 2 2 0 314 302 278 457
2079 2 2 0 314 301 455 567
2080 2 2 0 314 278 431 457
2081 2 2 0 314 430 429 455
2082 2 2 0 314 430 456 431
2083 2 2 0 314 456 430 455
2084 2 2 0 314 431 456 457
2085 2 2 0 315 302 279 278
2086 2 2 0 315 303 279 302
2087 2 2 0 316 280 279 568
2088 2 2 0 316 303 304 568
2089 2 2 0 316 279 303 568
2090 2 2 0 316 304 280 568
2091 2 2 0 317 305 281 280
2092 2 2 0 317 304 305 280
2093 2 2 0 318 306 282 281
2094 2 2 0 318 305 306 281
2095 2 2 0 319 434 461 569
2096 2 2 0 319 307 283 569
2097 2 2 0 319 306 458 282
2098 2 2 0 319 458 432 282
2099 2 2 0 319 283 434 569
2100 2 2 0 319 461 307 569
2101 2 2 0 319 459 433 432
2102 2 2 0 319 459 432 458
2103 2 2 0 319 460 434 433
2104 2 2 0 319 460 433 459
2105 2 2 0 319 461 434 460
2106 2 2 0 320 462 435 570
2107 2 2 0 320 283 307 570
2108 2 2 0 320 435 283 570
2109 2 2 0 320 308 284 465
2110 2 2 0 320 284 437 465
2111 2 2 0 320 307 462 570
2112 2 2 0 320 436 435 463
2113 2 2 0 320 436 464 437
2114 2 2 0 320 437 464 465
2115 2 2 0 320 435 462 463
2116 2 2 0 320 464 436 463
2117 2 2 0 321 308 285 284
2118 2 2 0 321 309 285 308
2119 2 2 0 322 309 286 285
2120 2 2 0 322 310 286 309
2121 2 2 0 323 287 286 571
2122 2 2 0 323 310 311 571
2123 2 2 0 323 286 310 571
2124 2 2 0 323 311 287 571
2125 2 2 0 324 312 288 287
2126 2 2 0 324 311 312 287
2127 2 2 0 325 440 468 572
2128 2 2 0 325 289 265 572
2129 2 2 0 325 265 440 572
2130 2 2 0 325 312 466 288
2131 2 2 0 325 468 289 572
2132 2 2 0 325 466 438 288
2133 2 2 0 325 439 438 467
2134 2 2 0 325 467 438 466
2135 2 2 0 325 440 439 468
2136 2 2 0 325 439 467 468
$EndElements
