$MeshFormat
2.2 0 8
$EndMeshFormat
$Nodes
616
1 12.7 0 0
2 9.709 8.186 0
3 9.478999999999999 8.452 0
4 9.234 8.718999999999999 0
5 8.994999999999999 8.965999999999999 0
6 8.779999999999999 9.176 0
7 0 12.7 0
8 -8.779999999999999 9.176 0
9 -8.994999999999999 8.965999999999999 0
10 -9.234 8.718999999999999 0
11 -9.478999999999999 8.452 0
12 -9.709 8.186 0
13 -12.7 0 0
14 -9.709 -8.186 0
15 -9.478999999999999 -8.452 0
16 -9.234 -8.718999999999999 0
17 -8.994999999999999 -8.965999999999999 0
18 -8.779999999999999 -9.176 0
19 0 -12.7 0
20 8.779999999999999 -9.176 0
21 8.994999999999999 -8.965999999999999 0
22 9.234 -8.718999999999999 0
23 9.478999999999999 -8.452 0
24 9.709 -8.186 0
25 12.942 0 4.896
26 9.939 8.380000000000001 4.896
27 9.721 8.669 4.896
28 9.491 8.961 4.896
29 9.262 9.231999999999999 4.896
30 9.053000000000001 9.461 4.896
31 0 12.848 4.896
32 -9.053000000000001 9.461 4.896
33 -9.262 9.231999999999999 4.896
34 -9.491 8.961 4.896
35 -9.721 8.669 4.896
36 -9.939 8.380000000000001 4.896
37 -12.942 0 4.896
38 -9.939 -8.380000000000001 4.896
39 -9.721 -8.669 4.896
40 -9.491 -8.961 4.896
41 -9.262 -9.231999999999999 4.896
42 -9.053000000000001 -9.461 4.896
43 0 -12.848 4.896
44 9.053000000000001 -9.461 4.896
45 9.262 -9.231999999999999 4.896
46 9.491 -8.961 4.896
47 9.721 -8.669 4.896
48 9.939 -8.380000000000001 4.896
49 14.505 0 13.673
50 11.395 9.606999999999999 13.673
51 11.251 10.033 13.673
52 11.095 10.475 13.673
53 10.926 10.89 13.673
54 10.745 11.229 13.673
55 0 13.837 13.673
56 -10.745 11.229 13.673
57 -10.926 10.89 13.673
58 -11.095 10.475 13.673
59 -11.251 10.033 13.673
60 -11.395 9.606999999999999 13.673
61 -14.505 0 13.673
62 -11.395 -9.606999999999999 13.673
63 -11.251 -10.033 13.673
64 -11.095 -10.475 13.673
65 -10.926 -10.89 13.673
66 -10.745 -11.229 13.673
67 0 -13.837 13.673
68 10.745 -11.229 13.673
69 10.926 -10.89 13.673
70 11.095 -10.475 13.673
71 11.251 -10.033 13.673
72 11.395 -9.606999999999999 13.673
73 18.955 0 27.112
74 15.404 12.988 27.112
75 15.409 13.74 27.112
76 15.399 14.539 27.112
77 15.337 15.287 27.112
78 15.195 15.88 27.112
79 0 16.851 27.112
80 -15.195 15.88 27.112
81 -15.337 15.287 27.112
82 -15.399 14.539 27.112
83 -15.409 13.74 27.112
84 -15.404 12.988 27.112
85 -18.955 0 27.112
86 -15.404 -12.988 27.112
87 -15.409 -13.74 27.112
88 -15.399 -14.539 27.112
89 -15.337 -15.287 27.112
90 -15.195 -15.88 27.112
91 0 -16.851 27.112
92 15.195 -15.88 27.112
93 15.337 -15.287 27.112
94 15.399 -14.539 27.112
95 15.409 -13.74 27.112
96 15.404 -12.988 27.112
97 27.813 0 46.529
98 23.119 19.492 46.529
99 23.312 20.788 46.529
100 23.478 22.167 46.529
101 23.532 23.456 46.529
102 23.41 24.465 46.529
103 0 23.352 46.529
104 -23.41 24.465 46.529
105 -23.532 23.456 46.529
106 -23.478 22.167 46.529
107 -23.312 20.788 46.529
108 -23.119 19.492 46.529
109 -27.813 0 46.529
110 -23.119 -19.492 46.529
111 -23.312 -20.788 46.529
112 -23.478 -22.167 46.529
113 -23.532 -23.456 46.529
114 -23.41 -24.465 46.529
115 0 -23.352 46.529
116 23.41 -24.465 46.529
117 23.532 -23.456 46.529
118 23.478 -22.167 46.529
119 23.312 -20.788 46.529
120 23.119 -19.492 46.529
121 41.657 0 71.574
122 34.908 29.432 71.574
123 35.286 31.465 71.574
124 35.618 33.629 71.574
125 35.764 35.648 71.574
126 35.617 37.221 71.574
127 0 34.182 71.574
128 -35.617 37.221 71.574
129 -35.764 35.648 71.574
130 -35.618 33.629 71.574
131 -35.286 31.465 71.574
132 -34.908 29.432 71.574
133 -41.657 0 71.574
134 -34.908 -29.432 71.574
135 -35.286 -31.465 71.574
136 -35.618 -33.629 71.574
137 -35.764 -35.648 71.574
138 -35.617 -37.221 71.574
139 0 -34.182 71.574
140 35.617 -37.221 71.574
141 35.764 -35.648 71.574
142 35.618 -33.629 71.574
143 35.286 -31.465 71.574
144 34.908 -29.432 71.574
145 61.472 0 100.723
146 51.963 43.811 100.723
147 52.447 46.768 100.723
148 52.839 49.889 100.723
149 52.947 52.776 100.723
150 52.633 55.004 100.723
151 0 50.582 100.723
152 -52.633 55.004 100.723
153 -52.947 52.776 100.723
154 -52.839 49.889 100.723
155 -52.447 46.768 100.723
156 -51.963 43.811 100.723
157 -61.472 0 100.723
158 -51.963 -43.811 100.723
159 -52.447 -46.768 100.723
160 -52.839 -49.889 100.723
161 -52.947 -52.776 100.723
162 -52.633 -55.004 100.723
163 0 -50.582 100.723
164 52.633 -55.004 100.723
165 52.947 -52.776 100.723
166 52.839 -49.889 100.723
167 52.447 -46.768 100.723
168 51.963 -43.811 100.723
169 89.533 0 129.78
170 78.136 65.879 129.78
171 78.41500000000001 69.92400000000001 129.78
172 78.425 74.04600000000001 129.78
173 77.986 77.73399999999999 129.78
174 76.991 80.45999999999999 129.78
175 0 75.322 129.78
176 -76.991 80.45999999999999 129.78
177 -77.986 77.73399999999999 129.78
178 -78.425 74.04600000000001 129.78
179 -78.41500000000001 69.92400000000001 129.78
180 -78.136 65.879 129.78
181 -89.533 0 129.78
182 -78.136 -65.879 129.78
183 -78.41500000000001 -69.92400000000001 129.78
184 -78.425 -74.04600000000001 129.78
185 -77.986 -77.73399999999999 129.78
186 -76.991 -80.45999999999999 129.78
187 0 -75.322 129.78
188 76.991 -80.45999999999999 129.78
189 77.986 -77.73399999999999 129.78
190 78.425 -74.04600000000001 129.78
191 78.41500000000001 -69.92400000000001 129.78
192 78.136 -65.879 129.78
193 126.332 0 153.868
194 115.847 97.67400000000001 153.868
195 115.395 102.899 153.868
196 114.275 107.894 153.868
197 112.429 112.065 153.868
198 109.898 114.849 153.868
199 0 109.449 153.868
200 -109.898 114.849 153.868
201 -112.429 112.065 153.868
202 -114.275 107.894 153.868
203 -115.395 102.899 153.868
204 -115.847 97.67400000000001 153.868
205 -126.332 0 153.868
206 -115.847 -97.67400000000001 153.868
207 -115.395 -102.899 153.868
208 -114.275 -107.894 153.868
209 -112.429 -112.065 153.868
210 -109.898 -114.849 153.868
211 0 -109.449 153.868
212 109.898 -114.849 153.868
213 112.429 -112.065 153.868
214 114.275 -107.894 153.868
215 115.395 -102.899 153.868
216 115.847 -97.67400000000001 153.868
217 168.928 0 171.927
218 161.846 136.457 171.927
219 160.229 142.879 171.927
220 157.365 148.577 171.927
221 153.411 152.915 171.927
222 148.654 155.352 171.927
223 0 150.112 171.927
224 -148.654 155.352 171.927
225 -153.411 152.915 171.927
226 -157.365 148.577 171.927
227 -160.229 142.879 171.927
228 -161.846 136.457 171.927
229 -168.928 0 171.927
230 -161.846 -136.457 171.927
231 -160.229 -142.879 171.927
232 -157.365 -148.577 171.927
233 -153.411 -152.915 171.927
234 -148.654 -155.352 171.927
235 0 -150.112 171.927
236 148.654 -155.352 171.927
237 153.411 -152.915 171.927
238 157.365 -148.577 171.927
239 160.229 -142.879 171.927
240 161.846 -136.457 171.927
241 209.25 0 183.83
242 205.843 173.552 183.83
243 202.999 181.017 183.83
244 198.328 187.253 183.83
245 192.224 191.603 183.83
246 185.229 193.574 183.83
247 0 189.208 183.83
248 -185.229 193.574 183.83
249 -192.224 191.603 183.83
250 -198.328 187.253 183.83
251 -202.999 181.017 183.83
252 -205.843 173.552 183.83
253 -209.25 0 183.83
254 -205.843 -173.552 183.83
255 -202.999 -181.017 183.83
256 -198.328 -187.253 183.83
257 -192.224 -191.603 183.83
258 -185.229 -193.574 183.83
259 0 -189.208 183.83
260 185.229 -193.574 183.83
261 192.224 -191.603 183.83
262 198.328 -187.253 183.83
263 202.999 -181.017 183.83
264 205.843 -173.552 183.83
265 242.824 0 190.966
266 241.487 203.605 190.966
267 237.622 211.891 190.966
268 231.486 218.558 190.966
269 223.659 222.937 190.966
270 214.89 224.572 190.966
271 0 222.068 190.966
272 -214.89 224.572 190.966
273 -223.659 222.937 190.966
274 -231.486 218.558 190.966
275 -237.622 211.891 190.966
276 -241.487 203.605 190.966
277 -242.824 0 190.966
278 -241.487 -203.605 190.966
279 -237.622 -211.891 190.966
280 -231.486 -218.558 190.966
281 -223.659 -222.937 190.966
282 -214.89 -224.572 190.966
283 0 -222.068 190.966
284 214.89 -224.572 190.966
285 223.659 -222.937 190.966
286 231.486 -218.558 190.966
287 237.622 -211.891 190.966
288 241.487 -203.605 190.966
289 265.156 0 194.164
290 263.609 222.256 194.164
291 259.122 231.063 194.164
292 252.133 238.053 194.164
293 243.326 242.54 194.164
294 233.563 244.086 194.164
295 0 244.086 194.164
296 -233.563 244.086 194.164
297 -243.326 242.54 194.164
298 -252.133 238.053 194.164
299 -259.122 231.063 194.164
300 -263.609 222.256 194.164
301 -265.156 0 194.164
302 -263.609 -222.256 194.164
303 -259.122 -231.063 194.164
304 -252.133 -238.053 194.164
305 -243.326 -242.54 194.164
306 -233.563 -244.086 194.164
307 0 -244.086 194.164
308 233.563 -244.086 194.164
309 243.326 -242.54 194.164
310 252.133 -238.053 194.164
311 259.122 -231.063 194.164
312 263.609 -222.256 194.164
313 26.31650000006756 52.79300000000568 100.723
314 -26.31649999993114 52.79299999999422 100.723
315 -26.31650000006756 -52.79300000000568 100.723
316 26.31649999993114 -52.79299999999422 100.723
317 83.83450000001503 32.93949999991312 129.78
318 96.99149999994478 81.77649999995346 141.8239999999647
319 96.90499999995224 86.41149999995741 141.8239999999689
320 96.34999999995703 90.96999999995944 141.8239999999711
321 95.20749999995489 94.89949999995503 141.8239999999685
322 93.44449999995938 97.65449999995755 141.8239999999703
323 38.4955000000862 77.89100000000575 129.78
324 -38.4954999999236 77.8909999999949 129.78
325 -93.44449999995938 97.65449999995755 141.8239999999703
326 -95.20749999995489 94.89949999995503 141.8239999999685
327 -96.34999999995703 90.96999999995944 141.8239999999711
328 -96.90499999995224 86.41149999995741 141.8239999999689
329 -96.99149999994478 81.77649999995346 141.8239999999647
330 -83.83449999998616 32.93950000007995 129.78
331 -83.83450000001503 -32.93949999991312 129.78
332 -96.99149999994478 -81.77649999995346 141.8239999999647
333 -96.90499999995224 -86.41149999995741 141.8239999999689
334 -96.34999999995703 -90.96999999995944 141.8239999999711
335 -95.20749999995489 -94.89949999995503 141.8239999999685
336 -93.44449999995938 -97.65449999995755 141.8239999999703
337 -38.4955000000862 -77.89100000000575 129.78
338 38.4954999999236 -77.8909999999949 129.78
339 93.44449999995938 -97.65449999995755 141.8239999999703
340 95.20749999995489 -94.89949999995503 141.8239999999685
341 96.34999999995703 -90.96999999995944 141.8239999999711
342 96.90499999995224 -86.41149999995741 141.8239999999689
343 96.99149999994478 -81.77649999995346 141.8239999999647
344 83.83449999998616 -32.93950000007995 129.78
345 121.0895000000147 48.83699999986323 153.868
346 138.8464999999399 117.0654999999493 162.8974999999764
347 137.8119999999395 122.8889999999461 162.8974999999757
348 135.8199999999551 128.2354999999577 162.8974999999812
349 132.91999999994 132.4899999999402 162.8974999999735
350 129.2759999999574 135.1004999999555 162.8974999999801
351 73.26533333342311 113.0490000000044 153.868
352 36.63266666676448 111.2490000000048 153.868
353 -36.63266666657917 111.2489999999957 153.868
354 -73.2653333332369 113.0489999999953 153.868
355 -129.2759999999574 135.1004999999555 162.8974999999801
356 -132.91999999994 132.4899999999402 162.8974999999735
357 -135.8199999999551 128.2354999999577 162.8974999999812
358 -137.8119999999395 122.8889999999461 162.8974999999757
359 -138.8464999999399 117.0654999999493 162.8974999999764
360 -121.0894999999854 48.83700000013555 153.868
361 -121.0895000000147 -48.83699999986323 153.868
362 -138.8464999999399 -117.0654999999493 162.8974999999764
363 -137.8119999999395 -122.8889999999461 162.8974999999757
364 -135.8199999999551 -128.2354999999577 162.8974999999812
365 -132.91999999994 -132.4899999999402 162.8974999999735
366 -129.2759999999574 -135.1004999999555 162.8974999999801
367 -73.26533333342311 -113.0490000000044 153.868
368 -36.63266666676448 -111.2490000000048 153.868
369 36.63266666657917 -111.2489999999957 153.868
370 73.2653333332369 -113.0489999999953 153.868
371 129.2759999999574 -135.1004999999555 162.8974999999801
372 132.91999999994 -132.4899999999402 162.8974999999735
373 135.8199999999551 -128.2354999999577 162.8974999999812
374 137.8119999999395 -122.8889999999461 162.8974999999757
375 138.8464999999399 -117.0654999999493 162.8974999999764
376 121.0894999999854 -48.83700000013555 153.868
377 166.5673333333391 45.48566666655626 171.927
378 164.2066666666727 90.97133333321648 171.927
379 183.8444999999401 155.0044999999495 177.8784999999838
380 181.6139999999375 161.9479999999442 177.8784999999826
381 177.8464999999438 167.9149999999469 177.8784999999837
382 172.8174999999481 172.2589999999483 177.8784999999841
383 166.9414999999462 174.4629999999438 177.8784999999825
384 99.10266666679459 153.6053333333379 171.927
385 49.55133333345682 151.858666666671 171.927
386 -49.55133333320602 151.8586666666622 171.927
387 -99.10266666654439 153.605333333329 171.927
388 -166.9414999999462 174.4629999999438 177.8784999999825
389 -172.8174999999481 172.2589999999483 177.8784999999841
390 -177.8464999999438 167.9149999999469 177.8784999999837
391 -181.6139999999375 161.9479999999442 177.8784999999826
392 -183.8444999999401 155.0044999999495 177.8784999999838
393 -164.2066666666612 90.97133333343916 171.927
394 -166.5673333333274 45.48566666678124 171.927
395 -166.5673333333391 -45.48566666655626 171.927
396 -164.2066666666727 -90.97133333321648 171.927
397 -183.8444999999401 -155.0044999999495 177.8784999999838
398 -181.6139999999375 -161.9479999999442 177.8784999999826
399 -177.8464999999438 -167.9149999999469 177.8784999999837
400 -172.8174999999481 -172.2589999999483 177.8784999999841
401 -166.9414999999462 -174.4629999999438 177.8784999999825
402 -99.10266666679459 -153.6053333333379 171.927
403 -49.55133333345682 -151.858666666671 171.927
404 49.55133333320602 -151.8586666666622 171.927
405 99.10266666654439 -153.605333333329 171.927
406 166.9414999999462 -174.4629999999438 177.8784999999825
407 172.8174999999481 -172.2589999999483 177.8784999999841
408 177.8464999999438 -167.9149999999469 177.8784999999837
409 181.6139999999375 -161.9479999999442 177.8784999999826
410 183.8444999999401 -155.0044999999495 177.8784999999838
411 164.2066666666612 -90.97133333343916 171.927
412 166.5673333333274 -45.48566666678124 171.927
413 208.3982500000019 43.38799999990363 183.83
414 207.5465000000044 86.77599999977637 183.83
415 206.694750000002 130.1639999998966 183.83
416 138.9217500000931 192.4825000000022 183.83
417 92.61450000023859 191.3910000000056 183.83
418 46.30725000011245 190.2995000000026 183.83
419 -46.30724999989313 190.2994999999975 183.83
420 -92.61449999976111 191.3909999999944 183.83
421 -138.9217499998874 192.4824999999973 183.83
422 -206.6947499999984 130.1640000000819 183.83
423 -207.5464999999957 86.77600000021943 183.83
424 -208.398249999998 43.38800000010141 183.83
425 -208.3982500000019 -43.38799999990363 183.83
426 -207.5465000000044 -86.77599999977637 183.83
427 -206.694750000002 -130.1639999998966 183.83
428 -138.9217500000931 -192.4825000000022 183.83
429 -92.61450000023859 -191.3910000000056 183.83
430 -46.30725000011245 -190.2995000000026 183.83
431 46.30724999989313 -190.2994999999975 183.83
432 92.61449999976111 -191.3909999999944 183.83
433 138.9217499998874 -192.4824999999973 183.83
434 206.6947499999984 -130.1640000000819 183.83
435 207.5464999999957 -86.77600000021943 183.83
436 208.398249999998 -43.38800000010141 183.83
437 242.5566000000006 40.72099999991325 190.966
438 242.2892000000014 81.44199999979197 190.966
439 242.0218000000014 122.1629999997905 190.966
440 241.7544000000008 162.8839999998814 190.966
441 171.9120000000977 224.0712000000011 190.966
442 128.9340000002169 223.5704000000025 190.966
443 85.95600000021921 223.0696000000026 190.966
444 42.97800000011537 222.5688000000013 190.966
445 -42.97799999990693 222.5687999999989 190.966
446 -85.95599999978388 223.0695999999975 190.966
447 -128.9339999997828 223.5703999999975 190.966
448 -171.9119999998856 224.0711999999987 190.966
449 -241.7543999999994 162.8840000000877 190.966
450 -242.0217999999986 122.1630000002087 190.966
451 -242.2891999999986 81.44200000020997 190.966
452 -242.5565999999992 40.72100000011881 190.966
453 -242.5566000000006 -40.72099999991325 190.966
454 -242.2892000000014 -81.44199999979197 190.966
455 -242.0218000000014 -122.1629999997905 190.966
456 -241.7544000000008 -162.8839999998814 190.966
457 -171.9120000000977 -224.0712000000011 190.966
458 -128.9340000002169 -223.5704000000025 190.966
459 -85.95600000021921 -223.0696000000026 190.966
460 -42.97800000011537 -222.5688000000013 190.966
461 42.97799999990693 -222.5687999999989 190.966
462 85.95599999978388 -223.0695999999975 190.966
463 128.9339999997828 -223.5703999999975 190.966
464 171.9119999998856 -224.0711999999987 190.966
465 241.7543999999994 -162.8840000000877 190.966
466 242.0217999999986 -122.1630000002087 190.966
467 242.2891999999986 -81.44200000020997 190.966
468 242.5565999999992 -40.72100000011881 190.966
469 264.8466000000007 44.45119999989813 194.164
470 264.5372000000016 88.90239999976302 194.164
471 264.2278000000017 133.3535999997506 194.164
472 263.918400000001 177.8047999998504 194.164
473 186.8504000000977 244.086 194.164
474 140.1378000002398 244.086 194.164
475 93.42520000025647 244.086 194.164
476 46.71260000012546 244.086 194.164
477 -46.7125999998947 244.086 194.164
478 -93.42519999975595 244.086 194.164
479 -140.1377999997407 244.086 194.164
480 -186.8503999998731 244.086 194.164
481 -263.9183999999995 177.8048000000799 194.164
482 -264.2277999999984 133.3536000002331 194.164
483 -264.5371999999983 88.9024000002409 194.164
484 -264.846599999999 44.45120000014535 194.164
485 -264.8466000000007 -44.45119999989813 194.164
486 -264.5372000000016 -88.90239999976302 194.164
487 -264.2278000000017 -133.3535999997506 194.164
488 -263.918400000001 -177.8047999998504 194.164
489 -186.8504000000977 -244.086 194.164
490 -140.1378000002398 -244.086 194.164
491 -93.42520000025647 -244.086 194.164
492 -46.71260000012546 -244.086 194.164
493 46.7125999998947 -244.086 194.164
494 93.42519999975595 -244.086 194.164
495 140.1377999997407 -244.086 194.164
496 186.8503999998731 -244.086 194.164
497 263.9183999999995 -177.8048000000799 194.164
498 264.2277999999984 -133.3536000002331 194.164
499 264.5371999999983 -88.9024000002409 194.164
500 264.846599999999 -44.45120000014535 194.164
501 11.33521610023631 4.146056855490412 2.447371467267731
502 4.438736272010084 10.99409240345654 2.45212421624921
503 -4.477855039995286 11.09865166137506 2.44641596285059
504 -11.30979849466735 4.136948374640339 2.448777034629551
505 -11.33521610023631 -4.146056855490412 2.447371467267731
506 -4.438736272010084 -10.99409240345654 2.45212421624921
507 4.477855039995286 -11.09865166137506 2.44641596285059
508 11.30979849466735 -4.136948374640339 2.448777034629551
509 12.2590874685545 4.51741561124227 9.273131882949675
510 4.885075957140427 11.57832195531975 9.350386095877075
511 -5.01686500892768 12.1212948699877 9.253226002458943
512 -12.1321273126775 4.476315779372023 9.297827950490156
513 -12.2590874685545 -4.51741561124227 9.273131882949675
514 -4.885075957140427 -11.57832195531975 9.350386095877075
515 5.01686500892768 -12.1212948699877 9.253226002458943
516 12.1321273126775 -4.476315779372023 9.297827950490156
517 15.35700343766777 5.572432924315672 20.84713462328881
518 6.056611041316313 14.11670571057902 20.7204095311596
519 -6.064129982052001 14.95942859156714 20.40561912756435
520 -15.16836999507013 5.531690337084367 20.91678360783089
521 -15.35700343766777 -5.572432924315672 20.84713462328881
522 -6.056611041316313 -14.11670571057902 20.7204095311596
523 6.064129982052001 -14.95942859156714 20.40561912756435
524 15.16836999507013 -5.531690337084367 20.91678360783089
525 21.83680458146144 7.761888564643833 37.52632772917622
526 8.353839323972984 19.72888102455181 37.00276902992163
527 -8.257070751046168 20.45543323671974 36.70509367499152
528 -21.68325827778218 7.730716780906343 37.59996140399716
529 -21.83680458146144 -7.761888564643833 37.52632772917622
530 -8.353839323972984 -19.72888102455181 37.00276902992163
531 8.257070751046168 -20.45543323671974 36.70509367499152
532 21.68325827778218 -7.730716780906343 37.59996140399716
533 32.50813966416818 11.68619306841845 59.87079927303204
534 14.77213768862885 29.62465669434237 59.13585303221707
535 -14.74095273064452 29.99014358099184 58.97143990887835
536 -32.43137248375302 11.66935367898566 59.91387221930216
537 -32.50813966416818 -11.68619306841845 59.87079927303204
538 -14.77213768862885 -29.62465669434237 59.13585303221707
539 14.74095273064452 -29.99014358099184 58.97143990887835
540 32.43137248375302 -11.66935367898566 59.91387221930216
541 47.55978337874522 18.32372574007643 86.10786026450869
542 14.4539993854955 43.43749598851758 85.82378648105379
543 -14.4555125020819 43.41948606806341 85.83389628250892
544 -47.44088200780941 18.29791867937869 86.1894193768577
545 -47.55978337874522 -18.32372574007643 86.10786026450869
546 -14.4539993854955 -43.43749598851758 85.82378648105379
547 14.4555125020819 -43.41948606806341 85.83389628250892
548 47.44088200780941 -18.29791867937868 86.1894193768577
549 106.1834678082291 22.75656664742024 142.278159136918
550 97.76413894138555 50.49322727691475 138.7159939317759
551 56.50130185929503 95.39475642379695 141.4972962035789
552 21.00448954076699 93.78102489518093 141.5931839170223
553 -56.51082187982325 95.16243163640868 141.8241335574605
554 -21.01582931641572 93.54823521146436 141.9158230174469
555 -105.6471208060163 22.72386833726247 143.1808678429355
556 -97.029564510399 50.41934837172172 139.8746429753254
557 -106.1834678082291 -22.75656664742024 142.278159136918
558 -97.76413894138555 -50.49322727691475 138.7159939317759
559 -56.50130185929503 -95.39475642379695 141.4972962035789
560 -21.00448954076699 -93.78102489518093 141.5931839170223
561 56.51082187982325 -95.1624316364087 141.8241335574605
562 21.01582931641569 -93.5482352114644 141.9158230174469
563 105.6471208060163 -22.72386833726247 143.1808678429355
564 97.029564510399 -50.41934837172172 139.8746429753254
565 139.170683023852 76.56678884915046 160.9957990257326
566 90.74505341419882 130.9879353450575 161.6265490627869
567 19.4902511551012 130.4063834452548 162.517183899919
568 -90.74861525100482 130.8436292672625 161.9489942438204
569 -19.49413368201286 130.2715594818283 162.8104085196875
570 -138.7274395780826 76.55719024929002 162.0619475313126
571 -139.170683023852 -76.56678884915046 160.9957990257326
572 -90.74505341419882 -130.9879353450575 161.6265490627869
573 -19.49025115510121 -130.4063834452548 162.517183899919
574 90.74861525100481 -130.8436292672625 161.9489942438204
575 19.49413368201286 -130.2715594818283 162.8104085196875
576 138.7274395780826 -76.55719024929002 162.0619475313126
577 182.0502869957486 114.6920028253457 176.4653268363978
578 119.8229149275007 173.2210400391895 177.8366558296716
579 23.963074636988 170.4362001959339 177.6692791483576
580 71.89299478230802 171.8286201175635 177.7529674890147
581 -119.8246755000208 173.1463471554117 178.0800438638917
582 -23.9649350999693 170.3572694310812 177.9188087727783
583 -71.89480529993467 171.7518082932447 177.9994263183349
584 -181.8544841848397 114.6928976523036 177.1382758232036
585 -182.0502869957486 -114.6920028253457 176.4653268363978
586 -119.8229149275007 -173.2210400391895 177.8366558296716
587 -23.963074636988 -170.4362001959339 177.6692791483576
588 -71.89299478230802 -171.8286201175635 177.7529674890147
589 119.8246755000208 -173.1463471554117 178.0800438638917
590 23.9649350999693 -170.3572694310812 177.9188087727783
591 71.8948052999347 -171.7518082932447 177.9994263183349
592 181.8544841848397 -114.6928976523036 177.1382758232036
593 225.7633375760931 21.02729022110171 187.369182272319
594 225.2160127282797 63.08187066328878 187.3115468169569
595 22.32073390122016 206.0857295942665 187.1847108614152
596 64.6344396202022 208.4497511384592 187.620278609113
597 -22.32138490720361 206.0298611043419 187.4266138749012
598 -64.63501353733682 208.4004982941168 187.834355872087
599 -225.7193897476726 21.02700163179366 187.5879689455289
600 -225.1706212483359 63.08157259426141 187.5336921039491
601 -225.7633375760931 -21.02729022110171 187.369182272319
602 -225.2160127282797 -63.08187066328878 187.3115468169569
603 -22.32073390122015 -206.0857295942664 187.1847108614152
604 -64.6344396202022 -208.4497511384592 187.620278609113
605 22.32138490720361 -206.0298611043419 187.4266138749012
606 64.63501353733682 -208.4004982941168 187.834355872087
607 225.7193897476726 -21.02700163179366 187.5879689455289
608 225.1706212483359 -63.08157259426142 187.5336921039491
609 253.8457194388522 21.29304943921164 192.5655625677167
610 22.42265000006021 233.2316714164608 192.3851672230113
611 -22.42264999995041 233.1996133425683 192.582808950383
612 -253.8465301790088 21.29305508243468 192.5599193835833
613 -253.8457194388522 -21.29304943921164 192.5655625677167
614 -22.42265000006021 -233.2316714164608 192.3851672230113
615 22.42264999995041 -233.1996133425683 192.582808950383
616 253.8465301790089 -21.29305508243469 192.5599193835833
$EndNodes
$Elements
2252
1 15 2 0 1 1
2 15 2 0 2 2
3 15 2 0 3 3
4 15 2 0 4 4
5 15 2 0 5 5
6 15 2 0 6 6
7 15 2 0 7 7
8 15 2 0 8 8
9 15 2 0 9 9
10 15 2 0 10 10
11 15 2 0 11 11
12 15 2 0 12 12
13 15 2 0 13 13
14 15 2 0 14 14
15 15 2 0 15 15
16 15 2 0 16 16
17 15 2 0 17 17
18 15 2 0 18 18
19 15 2 0 19 19
20 15 2 0 20 20
21 15 2 0 21 21
22 15 2 0 22 22
23 15 2 0 23 23
24 15 2 0 24 24
25 15 2 0 25 25
26 15 2 0 26 26
27 15 2 0 27 27
28 15 2 0 28 28
29 15 2 0 29 29
30 15 2 0 30 30
31 15 2 0 31 31
32 15 2 0 32 32
33 15 2 0 33 33
34 15 2 0 34 34
35 15 2 0 35 35
36 15 2 0 36 36
37 15 2 0 37 37
38 15 2 0 38 38
39 15 2 0 39 39
40 15 2 0 40 40
41 15 2 0 41 41
42 15 2 0 42 42
43 15 2 0 43 43
44 15 2 0 44 44
45 15 2 0 45 45
46 15 2 0 46 46
47 15 2 0 47 47
48 15 2 0 48 48
49 15 2 0 49 49
50 15 2 0 50 50
51 15 2 0 51 51
52 15 2 0 52 52
53 15 2 0 53 53
54 15 2 0 54 54
55 15 2 0 55 55
56 15 2 0 56 56
57 15 2 0 57 57
58 15 2 0 58 58
59 15 2 0 59 59
60 15 2 0 60 60
61 15 2 0 61 61
62 15 2 0 62 62
63 15 2 0 63 63
64 15 2 0 64 64
65 15 2 0 65 65
66 15 2 0 66 66
67 15 2 0 67 67
68 15 2 0 68 68
69 15 2 0 69 69
70 15 2 0 70 70
71 15 2 0 71 71
72 15 2 0 72 72
73 15 2 0 73 73
74 15 2 0 74 74
75 15 2 0 75 75
76 15 2 0 76 76
77 15 2 0 77 77
78 15 2 0 78 78
79 15 2 0 79 79
80 15 2 0 80 80
81 15 2 0 81 81
82 15 2 0 82 82
83 15 2 0 83 83
84 15 2 0 84 84
85 15 2 0 85 85
86 15 2 0 86 86
87 15 2 0 87 87
88 15 2 0 88 88
89 15 2 0 89 89
90 15 2 0 90 90
91 15 2 0 91 91
92 15 2 0 92 92
93 15 2 0 93 93
94 15 2 0 94 94
95 15 2 0 95 95
96 15 2 0 96 96
97 15 2 0 97 97
98 15 2 0 98 98
99 15 2 0 99 99
100 15 2 0 100 100
101 15 2 0 101 101
102 15 2 0 102 102
103 15 2 0 103 103
104 15 2 0 104 104
105 15 2 0 105 105
106 15 2 0 106 106
107 15 2 0 107 107
108 15 2 0 108 108
109 15 2 0 109 109
110 15 2 0 110 110
111 15 2 0 111 111
112 15 2 0 112 112
113 15 2 0 113 113
114 15 2 0 114 114
115 15 2 0 115 115
116 15 2 0 116 116
117 15 2 0 117 117
118 15 2 0 118 118
119 15 2 0 119 119
120 15 2 0 120 120
121 15 2 0 121 121
122 15 2 0 122 122
123 15 2 0 123 123
124 15 2 0 124 124
125 15 2 0 125 125
126 15 2 0 126 126
127 15 2 0 127 127
128 15 2 0 128 128
129 15 2 0 129 129
130 15 2 0 130 130
131 15 2 0 131 131
132 15 2 0 132 132
133 15 2 0 133 133
134 15 2 0 134 134
135 15 2 0 135 135
136 15 2 0 136 136
137 15 2 0 137 137
138 15 2 0 138 138
139 15 2 0 139 139
140 15 2 0 140 140
141 15 2 0 141 141
142 15 2 0 142 142
143 15 2 0 143 143
144 15 2 0 144 144
145 15 2 0 145 145
146 15 2 0 146 146
147 15 2 0 147 147
148 15 2 0 148 148
149 15 2 0 149 149
150 15 2 0 150 150
151 15 2 0 151 151
152 15 2 0 152 152
153 15 2 0 153 153
154 15 2 0 154 154
155 15 2 0 155 155
156 15 2 0 156 156
157 15 2 0 157 157
158 15 2 0 158 158
159 15 2 0 159 159
160 15 2 0 160 160
161 15 2 0 161 161
162 15 2 0 162 162
163 15 2 0 163 163
164 15 2 0 164 164
165 15 2 0 165 165
166 15 2 0 166 166
167 15 2 0 167 167
168 15 2 0 168 168
169 15 2 0 169 169
170 15 2 0 170 170
171 15 2 0 171 171
172 15 2 0 172 172
173 15 2 0 173 173
174 15 2 0 174 174
175 15 2 0 175 175
176 15 2 0 176 176
177 15 2 0 177 177
178 15 2 0 178 178
179 15 2 0 179 179
180 15 2 0 180 180
181 15 2 0 181 181
182 15 2 0 182 182
183 15 2 0 183 183
184 15 2 0 184 184
185 15 2 0 185 185
186 15 2 0 186 186
187 15 2 0 187 187
188 15 2 0 188 188
189 15 2 0 189 189
190 15 2 0 190 190
191 15 2 0 191 191
192 15 2 0 192 192
193 15 2 0 193 193
194 15 2 0 194 194
195 15 2 0 195 195
196 15 2 0 196 196
197 15 2 0 197 197
198 15 2 0 198 198
199 15 2 0 199 199
200 15 2 0 200 200
201 15 2 0 201 201
202 15 2 0 202 202
203 15 2 0 203 203
204 15 2 0 204 204
205 15 2 0 205 205
206 15 2 0 206 206
207 15 2 0 207 207
208 15 2 0 208 208
209 15 2 0 209 209
210 15 2 0 210 210
211 15 2 0 211 211
212 15 2 0 212 212
213 15 2 0 213 213
214 15 2 0 214 214
215 15 2 0 215 215
216 15 2 0 216 216
217 15 2 0 217 217
218 15 2 0 218 218
219 15 2 0 219 219
220 15 2 0 220 220
221 15 2 0 221 221
222 15 2 0 222 222
223 15 2 0 223 223
224 15 2 0 224 224
225 15 2 0 225 225
226 15 2 0 226 226
227 15 2 0 227 227
228 15 2 0 228 228
229 15 2 0 229 229
230 15 2 0 230 230
231 15 2 0 231 231
232 15 2 0 232 232
233 15 2 0 233 233
234 15 2 0 234 234
235 15 2 0 235 235
236 15 2 0 236 236
237 15 2 0 237 237
238 15 2 0 238 238
239 15 2 0 239 239
240 15 2 0 240 240
241 15 2 0 241 241
242 15 2 0 242 242
243 15 2 0 243 243
244 15 2 0 244 244
245 15 2 0 245 245
246 15 2 0 246 246
247 15 2 0 247 247
248 15 2 0 248 248
249 15 2 0 249 249
250 15 2 0 250 250
251 15 2 0 251 251
252 15 2 0 252 252
253 15 2 0 253 253
254 15 2 0 254 254
255 15 2 0 255 255
256 15 2 0 256 256
257 15 2 0 257 257
258 15 2 0 258 258
259 15 2 0 259 259
260 15 2 0 260 260
261 15 2 0 261 261
262 15 2 0 262 262
263 15 2 0 263 263
264 15 2 0 264 264
265 15 2 0 265 265
266 15 2 0 266 266
267 15 2 0 267 267
268 15 2 0 268 268
269 15 2 0 269 269
270 15 2 0 270 270
271 15 2 0 271 271
272 15 2 0 272 272
273 15 2 0 273 273
274 15 2 0 274 274
275 15 2 0 275 275
276 15 2 0 276 276
277 15 2 0 277 277
278 15 2 0 278 278
279 15 2 0 279 279
280 15 2 0 280 280
281 15 2 0 281 281
282 15 2 0 282 282
283 15 2 0 283 283
284 15 2 0 284 284
285 15 2 0 285 285
286 15 2 0 286 286
287 15 2 0 287 287
288 15 2 0 288 288
289 15 2 0 289 289
290 15 2 0 290 290
291 15 2 0 291 291
292 15 2 0 292 292
293 15 2 0 293 293
294 15 2 0 294 294
295 15 2 0 295 295
296 15 2 0 296 296
297 15 2 0 297 297
298 15 2 0 298 298
299 15 2 0 299 299
300 15 2 0 300 300
301 15 2 0 301 301
302 15 2 0 302 302
303 15 2 0 303 303
304 15 2 0 304 304
305 15 2 0 305 305
306 15 2 0 306 306
307 15 2 0 307 307
308 15 2 0 308 308
309 15 2 0 309 309
310 15 2 0 310 310
311 15 2 0 311 311
312 15 2 0 312 312
313 1 2 0 1 1 25
314 1 2 0 2 1 2
315 1 2 0 3 2 26
316 1 2 0 4 2 3
317 1 2 0 5 3 27
318 1 2 0 6 3 4
319 1 2 0 7 4 28
320 1 2 0 8 4 5
321 1 2 0 9 5 29
322 1 2 0 10 5 6
323 1 2 0 11 6 30
324 1 2 0 12 6 7
325 1 2 0 13 7 31
326 1 2 0 14 7 8
327 1 2 0 15 8 32
328 1 2 0 16 8 9
329 1 2 0 17 9 33
330 1 2 0 18 9 10
331 1 2 0 19 10 34
332 1 2 0 20 10 11
333 1 2 0 21 11 35
334 1 2 0 22 11 12
335 1 2 0 23 12 36
336 1 2 0 24 12 13
337 1 2 0 25 13 37
338 1 2 0 26 13 14
339 1 2 0 27 14 38
340 1 2 0 28 14 15
341 1 2 0 29 15 39
342 1 2 0 30 15 16
343 1 2 0 31 16 40
344 1 2 0 32 16 17
345 1 2 0 33 17 41
346 1 2 0 34 17 18
347 1 2 0 35 18 42
348 1 2 0 36 18 19
349 1 2 0 37 19 43
350 1 2 0 38 19 20
351 1 2 0 39 20 44
352 1 2 0 40 20 21
353 1 2 0 41 21 45
354 1 2 0 42 21 22
355 1 2 0 43 22 46
356 1 2 0 44 22 23
357 1 2 0 45 23 47
358 1 2 0 46 23 24
359 1 2 0 47 24 48
360 1 2 0 48 24 1
361 1 2 0 49 25 49
362 1 2 0 50 25 26
363 1 2 0 51 26 50
364 1 2 0 52 26 27
365 1 2 0 53 27 51
366 1 2 0 54 27 28
367 1 2 0 55 28 52
368 1 2 0 56 28 29
369 1 2 0 57 29 53
370 1 2 0 58 29 30
371 1 2 0 59 30 54
372 1 2 0 60 30 31
373 1 2 0 61 31 55
374 1 2 0 62 31 32
375 1 2 0 63 32 56
376 1 2 0 64 32 33
377 1 2 0 65 33 57
378 1 2 0 66 33 34
379 1 2 0 67 34 58
380 1 2 0 68 34 35
381 1 2 0 69 35 59
382 1 2 0 70 35 36
383 1 2 0 71 36 60
384 1 2 0 72 36 37
385 1 2 0 73 37 61
386 1 2 0 74 37 38
387 1 2 0 75 38 62
388 1 2 0 76 38 39
389 1 2 0 77 39 63
390 1 2 0 78 39 40
391 1 2 0 79 40 64
392 1 2 0 80 40 41
393 1 2 0 81 41 65
394 1 2 0 82 41 42
395 1 2 0 83 42 66
396 1 2 0 84 42 43
397 1 2 0 85 43 67
398 1 2 0 86 43 44
399 1 2 0 87 44 68
400 1 2 0 88 44 45
401 1 2 0 89 45 69
402 1 2 0 90 45 46
403 1 2 0 91 46 70
404 1 2 0 92 46 47
405 1 2 0 93 47 71
406 1 2 0 94 47 48
407 1 2 0 95 48 72
408 1 2 0 96 48 25
409 1 2 0 97 49 73
410 1 2 0 98 49 50
411 1 2 0 99 50 74
412 1 2 0 100 50 51
413 1 2 0 101 51 75
414 1 2 0 102 51 52
415 1 2 0 103 52 76
416 1 2 0 104 52 53
417 1 2 0 105 53 77
418 1 2 0 106 53 54
419 1 2 0 107 54 78
420 1 2 0 108 54 55
421 1 2 0 109 55 79
422 1 2 0 110 55 56
423 1 2 0 111 56 80
424 1 2 0 112 56 57
425 1 2 0 113 57 81
426 1 2 0 114 57 58
427 1 2 0 115 58 82
428 1 2 0 116 58 59
429 1 2 0 117 59 83
430 1 2 0 118 59 60
431 1 2 0 119 60 84
432 1 2 0 120 60 61
433 1 2 0 121 61 85
434 1 2 0 122 61 62
435 1 2 0 123 62 86
436 1 2 0 124 62 63
437 1 2 0 125 63 87
438 1 2 0 126 63 64
439 1 2 0 127 64 88
440 1 2 0 128 64 65
441 1 2 0 129 65 89
442 1 2 0 130 65 66
443 1 2 0 131 66 90
444 1 2 0 132 66 67
445 1 2 0 133 67 91
446 1 2 0 134 67 68
447 1 2 0 135 68 92
448 1 2 0 136 68 69
449 1 2 0 137 69 93
450 1 2 0 138 69 70
451 1 2 0 139 70 94
452 1 2 0 140 70 71
453 1 2 0 141 71 95
454 1 2 0 142 71 72
455 1 2 0 143 72 96
456 1 2 0 144 72 49
457 1 2 0 145 73 97
458 1 2 0 146 73 74
459 1 2 0 147 74 98
460 1 2 0 148 74 75
461 1 2 0 149 75 99
462 1 2 0 150 75 76
463 1 2 0 151 76 100
464 1 2 0 152 76 77
465 1 2 0 153 77 101
466 1 2 0 154 77 78
467 1 2 0 155 78 102
468 1 2 0 156 78 79
469 1 2 0 157 79 103
470 1 2 0 158 79 80
471 1 2 0 159 80 104
472 1 2 0 160 80 81
473 1 2 0 161 81 105
474 1 2 0 162 81 82
475 1 2 0 163 82 106
476 1 2 0 164 82 83
477 1 2 0 165 83 107
478 1 2 0 166 83 84
479 1 2 0 167 84 108
480 1 2 0 168 84 85
481 1 2 0 169 85 109
482 1 2 0 170 85 86
483 1 2 0 171 86 110
484 1 2 0 172 86 87
485 1 2 0 173 87 111
486 1 2 0 174 87 88
487 1 2 0 175 88 112
488 1 2 0 176 88 89
489 1 2 0 177 89 113
490 1 2 0 178 89 90
491 1 2 0 179 90 114
492 1 2 0 180 90 91
493 1 2 0 181 91 115
494 1 2 0 182 91 92
495 1 2 0 183 92 116
496 1 2 0 184 92 93
497 1 2 0 185 93 117
498 1 2 0 186 93 94
499 1 2 0 187 94 118
500 1 2 0 188 94 95
501 1 2 0 189 95 119
502 1 2 0 190 95 96
503 1 2 0 191 96 120
504 1 2 0 192 96 73
505 1 2 0 193 97 121
506 1 2 0 194 97 98
507 1 2 0 195 98 122
508 1 2 0 196 98 99
509 1 2 0 197 99 123
510 1 2 0 198 99 100
511 1 2 0 199 100 124
512 1 2 0 200 100 101
513 1 2 0 201 101 125
514 1 2 0 202 101 102
515 1 2 0 203 102 126
516 1 2 0 204 102 103
517 1 2 0 205 103 127
518 1 2 0 206 103 104
519 1 2 0 207 104 128
520 1 2 0 208 104 105
521 1 2 0 209 105 129
522 1 2 0 210 105 106
523 1 2 0 211 106 130
524 1 2 0 212 106 107
525 1 2 0 213 107 131
526 1 2 0 214 107 108
527 1 2 0 215 108 132
528 1 2 0 216 108 109
529 1 2 0 217 109 133
530 1 2 0 218 109 110
531 1 2 0 219 110 134
532 1 2 0 220 110 111
533 1 2 0 221 111 135
534 1 2 0 222 111 112
535 1 2 0 223 112 136
536 1 2 0 224 112 113
537 1 2 0 225 113 137
538 1 2 0 226 113 114
539 1 2 0 227 114 138
540 1 2 0 228 114 115
541 1 2 0 229 115 139
542 1 2 0 230 115 116
543 1 2 0 231 116 140
544 1 2 0 232 116 117
545 1 2 0 233 117 141
546 1 2 0 234 117 118
547 1 2 0 235 118 142
548 1 2 0 236 118 119
549 1 2 0 237 119 143
550 1 2 0 238 119 120
551 1 2 0 239 120 144
552 1 2 0 240 120 97
553 1 2 0 241 121 145
554 1 2 0 242 121 122
555 1 2 0 243 122 146
556 1 2 0 244 122 123
557 1 2 0 245 123 147
558 1 2 0 246 123 124
559 1 2 0 247 124 148
560 1 2 0 248 124 125
561 1 2 0 249 125 149
562 1 2 0 250 125 126
563 1 2 0 251 126 150
564 1 2 0 252 126 127
565 1 2 0 253 127 151
566 1 2 0 254 127 128
567 1 2 0 255 128 152
568 1 2 0 256 128 129
569 1 2 0 257 129 153
570 1 2 0 258 129 130
571 1 2 0 259 130 154
572 1 2 0 260 130 131
573 1 2 0 261 131 155
574 1 2 0 262 131 132
575 1 2 0 263 132 156
576 1 2 0 264 132 133
577 1 2 0 265 133 157
578 1 2 0 266 133 134
579 1 2 0 267 134 158
580 1 2 0 268 134 135
581 1 2 0 269 135 159
582 1 2 0 270 135 136
583 1 2 0 271 136 160
584 1 2 0 272 136 137
585 1 2 0 273 137 161
586 1 2 0 274 137 138
587 1 2 0 275 138 162
588 1 2 0 276 138 139
589 1 2 0 277 139 163
590 1 2 0 278 139 140
591 1 2 0 279 140 164
592 1 2 0 280 140 141
593 1 2 0 281 141 165
594 1 2 0 282 141 142
595 1 2 0 283 142 166
596 1 2 0 284 142 143
597 1 2 0 285 143 167
598 1 2 0 286 143 144
599 1 2 0 287 144 168
600 1 2 0 288 144 121
601 1 2 0 289 145 169
602 1 2 0 290 145 146
603 1 2 0 291 146 170
604 1 2 0 292 146 147
605 1 2 0 293 147 171
606 1 2 0 294 147 148
607 1 2 0 295 148 172
608 1 2 0 296 148 149
609 1 2 0 297 149 173
610 1 2 0 298 149 150
611 1 2 0 299 150 174
612 1 2 0 300 150 313
613 1 2 0 300 313 151
614 1 2 0 301 151 175
615 1 2 0 302 151 314
616 1 2 0 302 314 152
617 1 2 0 303 152 176
618 1 2 0 304 152 153
619 1 2 0 305 153 177
620 1 2 0 306 153 154
621 1 2 0 307 154 178
622 1 2 0 308 154 155
623 1 2 0 309 155 179
624 1 2 0 310 155 156
625 1 2 0 311 156 180
626 1 2 0 312 156 157
627 1 2 0 313 157 181
628 1 2 0 314 157 158
629 1 2 0 315 158 182
630 1 2 0 316 158 159
631 1 2 0 317 159 183
632 1 2 0 318 159 160
633 1 2 0 319 160 184
634 1 2 0 320 160 161
635 1 2 0 321 161 185
636 1 2 0 322 161 162
637 1 2 0 323 162 186
638 1 2 0 324 162 315
639 1 2 0 324 315 163
640 1 2 0 325 163 187
641 1 2 0 326 163 316
642 1 2 0 326 316 164
643 1 2 0 327 164 188
644 1 2 0 328 164 165
645 1 2 0 329 165 189
646 1 2 0 330 165 166
647 1 2 0 331 166 190
648 1 2 0 332 166 167
649 1 2 0 333 167 191
650 1 2 0 334 167 168
651 1 2 0 335 168 192
652 1 2 0 336 168 145
653 1 2 0 337 169 193
654 1 2 0 338 169 317
655 1 2 0 338 317 170
656 1 2 0 339 170 318
657 1 2 0 339 318 194
658 1 2 0 340 170 171
659 1 2 0 341 171 319
660 1 2 0 341 319 195
661 1 2 0 342 171 172
662 1 2 0 343 172 320
663 1 2 0 343 320 196
664 1 2 0 344 172 173
665 1 2 0 345 173 321
666 1 2 0 345 321 197
667 1 2 0 346 173 174
668 1 2 0 347 174 322
669 1 2 0 347 322 198
670 1 2 0 348 174 323
671 1 2 0 348 323 175
672 1 2 0 349 175 199
673 1 2 0 350 175 324
674 1 2 0 350 324 176
675 1 2 0 351 176 325
676 1 2 0 351 325 200
677 1 2 0 352 176 177
678 1 2 0 353 177 326
679 1 2 0 353 326 201
680 1 2 0 354 177 178
681 1 2 0 355 178 327
682 1 2 0 355 327 202
683 1 2 0 356 178 179
684 1 2 0 357 179 328
685 1 2 0 357 328 203
686 1 2 0 358 179 180
687 1 2 0 359 180 329
688 1 2 0 359 329 204
689 1 2 0 360 180 330
690 1 2 0 360 330 181
691 1 2 0 361 181 205
692 1 2 0 362 181 331
693 1 2 0 362 331 182
694 1 2 0 363 182 332
695 1 2 0 363 332 206
696 1 2 0 364 182 183
697 1 2 0 365 183 333
698 1 2 0 365 333 207
699 1 2 0 366 183 184
700 1 2 0 367 184 334
701 1 2 0 367 334 208
702 1 2 0 368 184 185
703 1 2 0 369 185 335
704 1 2 0 369 335 209
705 1 2 0 370 185 186
706 1 2 0 371 186 336
707 1 2 0 371 336 210
708 1 2 0 372 186 337
709 1 2 0 372 337 187
710 1 2 0 373 187 211
711 1 2 0 374 187 338
712 1 2 0 374 338 188
713 1 2 0 375 188 339
714 1 2 0 375 339 212
715 1 2 0 376 188 189
716 1 2 0 377 189 340
717 1 2 0 377 340 213
718 1 2 0 378 189 190
719 1 2 0 379 190 341
720 1 2 0 379 341 214
721 1 2 0 380 190 191
722 1 2 0 381 191 342
723 1 2 0 381 342 215
724 1 2 0 382 191 192
725 1 2 0 383 192 343
726 1 2 0 383 343 216
727 1 2 0 384 192 344
728 1 2 0 384 344 169
729 1 2 0 385 193 217
730 1 2 0 386 193 345
731 1 2 0 386 345 194
732 1 2 0 387 194 346
733 1 2 0 387 346 218
734 1 2 0 388 194 195
735 1 2 0 389 195 347
736 1 2 0 389 347 219
737 1 2 0 390 195 196
738 1 2 0 391 196 348
739 1 2 0 391 348 220
740 1 2 0 392 196 197
741 1 2 0 393 197 349
742 1 2 0 393 349 221
743 1 2 0 394 197 198
744 1 2 0 395 198 350
745 1 2 0 395 350 222
746 1 2 0 396 198 351
747 1 2 0 396 351 352
748 1 2 0 396 352 199
749 1 2 0 397 199 223
750 1 2 0 398 199 353
751 1 2 0 398 353 354
752 1 2 0 398 354 200
753 1 2 0 399 200 355
754 1 2 0 399 355 224
755 1 2 0 400 200 201
756 1 2 0 401 201 356
757 1 2 0 401 356 225
758 1 2 0 402 201 202
759 1 2 0 403 202 357
760 1 2 0 403 357 226
761 1 2 0 404 202 203
762 1 2 0 405 203 358
763 1 2 0 405 358 227
764 1 2 0 406 203 204
765 1 2 0 407 204 359
766 1 2 0 407 359 228
767 1 2 0 408 204 360
768 1 2 0 408 360 205
769 1 2 0 409 205 229
770 1 2 0 410 205 361
771 1 2 0 410 361 206
772 1 2 0 411 206 362
773 1 2 0 411 362 230
774 1 2 0 412 206 207
775 1 2 0 413 207 363
776 1 2 0 413 363 231
777 1 2 0 414 207 208
778 1 2 0 415 208 364
779 1 2 0 415 364 232
780 1 2 0 416 208 209
781 1 2 0 417 209 365
782 1 2 0 417 365 233
783 1 2 0 418 209 210
784 1 2 0 419 210 366
785 1 2 0 419 366 234
786 1 2 0 420 210 367
787 1 2 0 420 367 368
788 1 2 0 420 368 211
789 1 2 0 421 211 235
790 1 2 0 422 211 369
791 1 2 0 422 369 370
792 1 2 0 422 370 212
793 1 2 0 423 212 371
794 1 2 0 423 371 236
795 1 2 0 424 212 213
796 1 2 0 425 213 372
797 1 2 0 425 372 237
798 1 2 0 426 213 214
799 1 2 0 427 214 373
800 1 2 0 427 373 238
801 1 2 0 428 214 215
802 1 2 0 429 215 374
803 1 2 0 429 374 239
804 1 2 0 430 215 216
805 1 2 0 431 216 375
806 1 2 0 431 375 240
807 1 2 0 432 216 376
808 1 2 0 432 376 193
809 1 2 0 433 217 241
810 1 2 0 434 217 377
811 1 2 0 434 377 378
812 1 2 0 434 378 218
813 1 2 0 435 218 379
814 1 2 0 435 379 242
815 1 2 0 436 218 219
816 1 2 0 437 219 380
817 1 2 0 437 380 243
818 1 2 0 438 219 220
819 1 2 0 439 220 381
820 1 2 0 439 381 244
821 1 2 0 440 220 221
822 1 2 0 441 221 382
823 1 2 0 441 382 245
824 1 2 0 442 221 222
825 1 2 0 443 222 383
826 1 2 0 443 383 246
827 1 2 0 444 222 384
828 1 2 0 444 384 385
829 1 2 0 444 385 223
830 1 2 0 445 223 247
831 1 2 0 446 223 386
832 1 2 0 446 386 387
833 1 2 0 446 387 224
834 1 2 0 447 224 388
835 1 2 0 447 388 248
836 1 2 0 448 224 225
837 1 2 0 449 225 389
838 1 2 0 449 389 249
839 1 2 0 450 225 226
840 1 2 0 451 226 390
841 1 2 0 451 390 250
842 1 2 0 452 226 227
843 1 2 0 453 227 391
844 1 2 0 453 391 251
845 1 2 0 454 227 228
846 1 2 0 455 228 392
847 1 2 0 455 392 252
848 1 2 0 456 228 393
849 1 2 0 456 393 394
850 1 2 0 456 394 229
851 1 2 0 457 229 253
852 1 2 0 458 229 395
853 1 2 0 458 395 396
854 1 2 0 458 396 230
855 1 2 0 459 230 397
856 1 2 0 459 397 254
857 1 2 0 460 230 231
858 1 2 0 461 231 398
859 1 2 0 461 398 255
860 1 2 0 462 231 232
861 1 2 0 463 232 399
862 1 2 0 463 399 256
863 1 2 0 464 232 233
864 1 2 0 465 233 400
865 1 2 0 465 400 257
866 1 2 0 466 233 234
867 1 2 0 467 234 401
868 1 2 0 467 401 258
869 1 2 0 468 234 402
870 1 2 0 468 402 403
871 1 2 0 468 403 235
872 1 2 0 469 235 259
873 1 2 0 470 235 404
874 1 2 0 470 404 405
875 1 2 0 470 405 236
876 1 2 0 471 236 406
877 1 2 0 471 406 260
878 1 2 0 472 236 237
879 1 2 0 473 237 407
880 1 2 0 473 407 261
881 1 2 0 474 237 238
882 1 2 0 475 238 408
883 1 2 0 475 408 262
884 1 2 0 476 238 239
885 1 2 0 477 239 409
886 1 2 0 477 409 263
887 1 2 0 478 239 240
888 1 2 0 479 240 410
889 1 2 0 479 410 264
890 1 2 0 480 240 411
891 1 2 0 480 411 412
892 1 2 0 480 412 217
893 1 2 0 481 241 265
894 1 2 0 482 241 413
895 1 2 0 482 413 414
896 1 2 0 482 414 415
897 1 2 0 482 415 242
898 1 2 0 483 242 266
899 1 2 0 484 242 243
900 1 2 0 485 243 267
901 1 2 0 486 243 244
902 1 2 0 487 244 268
903 1 2 0 488 244 245
904 1 2 0 489 245 269
905 1 2 0 490 245 246
906 1 2 0 491 246 270
907 1 2 0 492 246 416
908 1 2 0 492 416 417
909 1 2 0 492 417 418
910 1 2 0 492 418 247
911 1 2 0 493 247 271
912 1 2 0 494 247 419
913 1 2 0 494 419 420
914 1 2 0 494 420 421
915 1 2 0 494 421 248
916 1 2 0 495 248 272
917 1 2 0 496 248 249
918 1 2 0 497 249 273
919 1 2 0 498 249 250
920 1 2 0 499 250 274
921 1 2 0 500 250 251
922 1 2 0 501 251 275
923 1 2 0 502 251 252
924 1 2 0 503 252 276
925 1 2 0 504 252 422
926 1 2 0 504 422 423
927 1 2 0 504 423 424
928 1 2 0 504 424 253
929 1 2 0 505 253 277
930 1 2 0 506 253 425
931 1 2 0 506 425 426
932 1 2 0 506 426 427
933 1 2 0 506 427 254
934 1 2 0 507 254 278
935 1 2 0 508 254 255
936 1 2 0 509 255 279
937 1 2 0 510 255 256
938 1 2 0 511 256 280
939 1 2 0 512 256 257
940 1 2 0 513 257 281
941 1 2 0 514 257 258
942 1 2 0 515 258 282
943 1 2 0 516 258 428
944 1 2 0 516 428 429
945 1 2 0 516 429 430
946 1 2 0 516 430 259
947 1 2 0 517 259 283
948 1 2 0 518 259 431
949 1 2 0 518 431 432
950 1 2 0 518 432 433
951 1 2 0 518 433 260
952 1 2 0 519 260 284
953 1 2 0 520 260 261
954 1 2 0 521 261 285
955 1 2 0 522 261 262
956 1 2 0 523 262 286
957 1 2 0 524 262 263
958 1 2 0 525 263 287
959 1 2 0 526 263 264
960 1 2 0 527 264 288
961 1 2 0 528 264 434
962 1 2 0 528 434 435
963 1 2 0 528 435 436
964 1 2 0 528 436 241
965 1 2 0 529 265 289
966 1 2 0 530 265 437
967 1 2 0 530 437 438
968 1 2 0 530 438 439
969 1 2 0 530 439 440
970 1 2 0 530 440 266
971 1 2 0 531 266 290
972 1 2 0 532 266 267
973 1 2 0 533 267 291
974 1 2 0 534 267 268
975 1 2 0 535 268 292
976 1 2 0 536 268 269
977 1 2 0 537 269 293
978 1 2 0 538 269 270
979 1 2 0 539 270 294
980 1 2 0 540 270 441
981 1 2 0 540 441 442
982 1 2 0 540 442 443
983 1 2 0 540 443 444
984 1 2 0 540 444 271
985 1 2 0 541 271 295
986 1 2 0 542 271 445
987 1 2 0 542 445 446
988 1 2 0 542 446 447
989 1 2 0 542 447 448
990 1 2 0 542 448 272
991 1 2 0 543 272 296
992 1 2 0 544 272 273
993 1 2 0 545 273 297
994 1 2 0 546 273 274
995 1 2 0 547 274 298
996 1 2 0 548 274 275
997 1 2 0 549 275 299
998 1 2 0 550 275 276
999 1 2 0 551 276 300
1000 1 2 0 552 276 449
1001 1 2 0 552 449 450
1002 1 2 0 552 450 451
1003 1 2 0 552 451 452
1004 1 2 0 552 452 277
1005 1 2 0 553 277 301
1006 1 2 0 554 277 453
1007 1 2 0 554 453 454
1008 1 2 0 554 454 455
1009 1 2 0 554 455 456
1010 1 2 0 554 456 278
1011 1 2 0 555 278 302
1012 1 2 0 556 278 279
1013 1 2 0 557 279 303
1014 1 2 0 558 279 280
1015 1 2 0 559 280 304
1016 1 2 0 560 280 281
1017 1 2 0 561 281 305
1018 1 2 0 562 281 282
1019 1 2 0 563 282 306
1020 1 2 0 564 282 457
1021 1 2 0 564 457 458
1022 1 2 0 564 458 459
1023 1 2 0 564 459 460
1024 1 2 0 564 460 283
1025 1 2 0 565 283 307
1026 1 2 0 566 283 461
1027 1 2 0 566 461 462
1028 1 2 0 566 462 463
1029 1 2 0 566 463 464
1030 1 2 0 566 464 284
1031 1 2 0 567 284 308
1032 1 2 0 568 284 285
1033 1 2 0 569 285 309
1034 1 2 0 570 285 286
1035 1 2 0 571 286 310
1036 1 2 0 572 286 287
1037 1 2 0 573 287 311
1038 1 2 0 574 287 288
1039 1 2 0 575 288 312
1040 1 2 0 576 288 465
1041 1 2 0 576 465 466
1042 1 2 0 576 466 467
1043 1 2 0 576 467 468
1044 1 2 0 576 468 265
1045 1 2 0 578 289 469
1046 1 2 0 578 469 470
1047 1 2 0 578 470 471
1048 1 2 0 578 471 472
1049 1 2 0 578 472 290
1050 1 2 0 580 290 291
1051 1 2 0 582 291 292
1052 1 2 0 584 292 293
1053 1 2 0 586 293 294
1054 1 2 0 588 294 473
1055 1 2 0 588 473 474
1056 1 2 0 588 474 475
1057 1 2 0 588 475 476
1058 1 2 0 588 476 295
1059 1 2 0 590 295 477
1060 1 2 0 590 477 478
1061 1 2 0 590 478 479
1062 1 2 0 590 479 480
1063 1 2 0 590 480 296
1064 1 2 0 592 296 297
1065 1 2 0 594 297 298
1066 1 2 0 596 298 299
1067 1 2 0 598 299 300
1068 1 2 0 600 300 481
1069 1 2 0 600 481 482
1070 1 2 0 600 482 483
1071 1 2 0 600 483 484
1072 1 2 0 600 484 301
1073 1 2 0 602 301 485
1074 1 2 0 602 485 486
1075 1 2 0 602 486 487
1076 1 2 0 602 487 488
1077 1 2 0 602 488 302
1078 1 2 0 604 302 303
1079 1 2 0 606 303 304
1080 1 2 0 608 304 305
1081 1 2 0 610 305 306
1082 1 2 0 612 306 489
1083 1 2 0 612 489 490
1084 1 2 0 612 490 491
1085 1 2 0 612 491 492
1086 1 2 0 612 492 307
1087 1 2 0 614 307 493
1088 1 2 0 614 493 494
1089 1 2 0 614 494 495
1090 1 2 0 614 495 496
1091 1 2 0 614 496 308
1092 1 2 0 616 308 309
1093 1 2 0 618 309 310
1094 1 2 0 620 310 311
1095 1 2 0 622 311 312
1096 1 2 0 624 312 497
1097 1 2 0 624 497 498
1098 1 2 0 624 498 499
1099 1 2 0 624 499 500
1100 1 2 0 624 500 289
1101 2 2 0 38 26 2 501
1102 2 2 0 38 1 25 501
1103 2 2 0 38 2 1 501
1104 2 2 0 38 25 26 501
1105 2 2 0 39 26 3 2
1106 2 2 0 39 27 3 26
1107 2 2 0 40 27 4 3
1108 2 2 0 40 28 4 27
1109 2 2 0 41 28 5 4
1110 2 2 0 41 29 5 28
1111 2 2 0 42 29 6 5
1112 2 2 0 42 30 6 29
1113 2 2 0 43 6 30 502
1114 2 2 0 43 31 7 502
1115 2 2 0 43 7 6 502
1116 2 2 0 43 30 31 502
1117 2 2 0 44 32 8 503
1118 2 2 0 44 7 31 503
1119 2 2 0 44 8 7 503
1120 2 2 0 44 31 32 503
1121 2 2 0 45 33 9 8
1122 2 2 0 45 32 33 8
1123 2 2 0 46 34 10 9
1124 2 2 0 46 33 34 9
1125 2 2 0 47 35 11 10
1126 2 2 0 47 34 35 10
1127 2 2 0 48 36 12 11
1128 2 2 0 48 35 36 11
1129 2 2 0 49 12 36 504
1130 2 2 0 49 37 13 504
1131 2 2 0 49 13 12 504
1132 2 2 0 49 36 37 504
1133 2 2 0 50 38 14 505
1134 2 2 0 50 13 37 505
1135 2 2 0 50 14 13 505
1136 2 2 0 50 37 38 505
1137 2 2 0 51 38 15 14
1138 2 2 0 51 39 15 38
1139 2 2 0 52 39 16 15
1140 2 2 0 52 40 16 39
1141 2 2 0 53 40 17 16
1142 2 2 0 53 41 17 40
1143 2 2 0 54 41 18 17
1144 2 2 0 54 42 18 41
1145 2 2 0 55 18 42 506
1146 2 2 0 55 43 19 506
1147 2 2 0 55 19 18 506
1148 2 2 0 55 42 43 506
1149 2 2 0 56 44 20 507
1150 2 2 0 56 19 43 507
1151 2 2 0 56 20 19 507
1152 2 2 0 56 43 44 507
1153 2 2 0 57 45 21 20
1154 2 2 0 57 44 45 20
1155 2 2 0 58 46 22 21
1156 2 2 0 58 45 46 21
1157 2 2 0 59 47 23 22
1158 2 2 0 59 46 47 22
1159 2 2 0 60 48 24 23
1160 2 2 0 60 47 48 23
1161 2 2 0 61 24 48 508
1162 2 2 0 61 25 1 508
1163 2 2 0 61 1 24 508
1164 2 2 0 61 48 25 508
1165 2 2 0 62 49 50 509
1166 2 2 0 62 50 26 509
1167 2 2 0 62 25 49 509
1168 2 2 0 62 26 25 509
1169 2 2 0 63 51 27 50
1170 2 2 0 63 50 27 26
1171 2 2 0 64 52 28 51
1172 2 2 0 64 51 28 27
1173 2 2 0 65 53 29 52
1174 2 2 0 65 52 29 28
1175 2 2 0 66 54 30 53
1176 2 2 0 66 53 30 29
1177 2 2 0 67 54 55 510
1178 2 2 0 67 31 30 510
1179 2 2 0 67 30 54 510
1180 2 2 0 67 55 31 510
1181 2 2 0 68 55 56 511
1182 2 2 0 68 32 31 511
1183 2 2 0 68 56 32 511
1184 2 2 0 68 31 55 511
1185 2 2 0 69 56 57 32
1186 2 2 0 69 57 33 32
1187 2 2 0 70 57 58 33
1188 2 2 0 70 58 34 33
1189 2 2 0 71 58 59 34
1190 2 2 0 71 59 35 34
1191 2 2 0 72 59 60 35
1192 2 2 0 72 60 36 35
1193 2 2 0 73 60 61 512
1194 2 2 0 73 36 60 512
1195 2 2 0 73 61 37 512
1196 2 2 0 73 37 36 512
1197 2 2 0 74 61 62 513
1198 2 2 0 74 62 38 513
1199 2 2 0 74 37 61 513
1200 2 2 0 74 38 37 513
1201 2 2 0 75 63 39 62
1202 2 2 0 75 62 39 38
1203 2 2 0 76 64 40 63
1204 2 2 0 76 63 40 39
1205 2 2 0 77 65 41 64
1206 2 2 0 77 64 41 40
1207 2 2 0 78 66 42 65
1208 2 2 0 78 65 42 41
1209 2 2 0 79 66 67 514
1210 2 2 0 79 43 42 514
1211 2 2 0 79 42 66 514
1212 2 2 0 79 67 43 514
1213 2 2 0 80 67 68 515
1214 2 2 0 80 44 43 515
1215 2 2 0 80 68 44 515
1216 2 2 0 80 43 67 515
1217 2 2 0 81 68 69 44
1218 2 2 0 81 69 45 44
1219 2 2 0 82 69 70 45
1220 2 2 0 82 70 46 45
1221 2 2 0 83 70 71 46
1222 2 2 0 83 71 47 46
1223 2 2 0 84 71 72 47
1224 2 2 0 84 72 48 47
1225 2 2 0 85 72 49 516
1226 2 2 0 85 48 72 516
1227 2 2 0 85 49 25 516
1228 2 2 0 85 25 48 516
1229 2 2 0 86 74 50 517
1230 2 2 0 86 49 73 517
1231 2 2 0 86 73 74 517
1232 2 2 0 86 50 49 517
1233 2 2 0 87 74 51 50
1234 2 2 0 87 74 75 51
1235 2 2 0 88 75 52 51
1236 2 2 0 88 75 76 52
1237 2 2 0 89 76 53 52
1238 2 2 0 89 76 77 53
1239 2 2 0 90 77 54 53
1240 2 2 0 90 78 54 77
1241 2 2 0 91 54 78 518
1242 2 2 0 91 79 55 518
1243 2 2 0 91 78 79 518
1244 2 2 0 91 55 54 518
1245 2 2 0 92 80 56 519
1246 2 2 0 92 55 79 519
1247 2 2 0 92 79 80 519
1248 2 2 0 92 56 55 519
1249 2 2 0 93 81 57 56
1250 2 2 0 93 80 81 56
1251 2 2 0 94 82 58 57
1252 2 2 0 94 81 82 57
1253 2 2 0 95 83 59 58
1254 2 2 0 95 82 83 58
1255 2 2 0 96 84 60 59
1256 2 2 0 96 83 84 59
1257 2 2 0 97 60 84 520
1258 2 2 0 97 85 61 520
1259 2 2 0 97 84 85 520
1260 2 2 0 97 61 60 520
1261 2 2 0 98 86 62 521
1262 2 2 0 98 61 85 521
1263 2 2 0 98 85 86 521
1264 2 2 0 98 62 61 521
1265 2 2 0 99 86 63 62
1266 2 2 0 99 86 87 63
1267 2 2 0 100 87 64 63
1268 2 2 0 100 87 88 64
1269 2 2 0 101 88 65 64
1270 2 2 0 101 88 89 65
1271 2 2 0 102 89 66 65
1272 2 2 0 102 90 66 89
1273 2 2 0 103 66 90 522
1274 2 2 0 103 91 67 522
1275 2 2 0 103 90 91 522
1276 2 2 0 103 67 66 522
1277 2 2 0 104 92 68 523
1278 2 2 0 104 67 91 523
1279 2 2 0 104 91 92 523
1280 2 2 0 104 68 67 523
1281 2 2 0 105 93 69 68
1282 2 2 0 105 92 93 68
1283 2 2 0 106 94 70 69
1284 2 2 0 106 93 94 69
1285 2 2 0 107 95 71 70
1286 2 2 0 107 94 95 70
1287 2 2 0 108 96 72 71
1288 2 2 0 108 95 96 71
1289 2 2 0 109 72 96 524
1290 2 2 0 109 73 49 524
1291 2 2 0 109 96 73 524
1292 2 2 0 109 49 72 524
1293 2 2 0 110 98 74 525
1294 2 2 0 110 73 97 525
1295 2 2 0 110 97 98 525
1296 2 2 0 110 74 73 525
1297 2 2 0 111 98 75 74
1298 2 2 0 111 98 99 75
1299 2 2 0 112 99 76 75
1300 2 2 0 112 99 100 76
1301 2 2 0 113 100 77 76
1302 2 2 0 113 100 101 77
1303 2 2 0 114 101 78 77
1304 2 2 0 114 101 102 78
1305 2 2 0 115 78 102 526
1306 2 2 0 115 103 79 526
1307 2 2 0 115 102 103 526
1308 2 2 0 115 79 78 526
1309 2 2 0 116 104 80 527
1310 2 2 0 116 79 103 527
1311 2 2 0 116 103 104 527
1312 2 2 0 116 80 79 527
1313 2 2 0 117 80 105 81
1314 2 2 0 117 104 105 80
1315 2 2 0 118 81 106 82
1316 2 2 0 118 105 106 81
1317 2 2 0 119 82 107 83
1318 2 2 0 119 106 107 82
1319 2 2 0 120 83 108 84
1320 2 2 0 120 107 108 83
1321 2 2 0 121 84 108 528
1322 2 2 0 121 109 85 528
1323 2 2 0 121 85 84 528
1324 2 2 0 121 108 109 528
1325 2 2 0 122 110 86 529
1326 2 2 0 122 85 109 529
1327 2 2 0 122 109 110 529
1328 2 2 0 122 86 85 529
1329 2 2 0 123 110 87 86
1330 2 2 0 123 110 111 87
1331 2 2 0 124 111 88 87
1332 2 2 0 124 111 112 88
1333 2 2 0 125 112 89 88
1334 2 2 0 125 112 113 89
1335 2 2 0 126 113 90 89
1336 2 2 0 126 113 114 90
1337 2 2 0 127 90 114 530
1338 2 2 0 127 115 91 530
1339 2 2 0 127 114 115 530
1340 2 2 0 127 91 90 530
1341 2 2 0 128 116 92 531
1342 2 2 0 128 91 115 531
1343 2 2 0 128 115 116 531
1344 2 2 0 128 92 91 531
1345 2 2 0 129 92 117 93
1346 2 2 0 129 116 117 92
1347 2 2 0 130 93 118 94
1348 2 2 0 130 117 118 93
1349 2 2 0 131 94 119 95
1350 2 2 0 131 118 119 94
1351 2 2 0 132 95 120 96
1352 2 2 0 132 119 120 95
1353 2 2 0 133 96 120 532
1354 2 2 0 133 97 73 532
1355 2 2 0 133 73 96 532
1356 2 2 0 133 120 97 532
1357 2 2 0 134 122 98 533
1358 2 2 0 134 97 121 533
1359 2 2 0 134 121 122 533
1360 2 2 0 134 98 97 533
1361 2 2 0 135 122 99 98
1362 2 2 0 135 122 123 99
1363 2 2 0 136 123 100 99
1364 2 2 0 136 123 124 100
1365 2 2 0 137 124 101 100
1366 2 2 0 137 124 125 101
1367 2 2 0 138 125 102 101
1368 2 2 0 138 125 126 102
1369 2 2 0 139 126 127 534
1370 2 2 0 139 102 126 534
1371 2 2 0 139 127 103 534
1372 2 2 0 139 103 102 534
1373 2 2 0 140 127 128 535
1374 2 2 0 140 128 104 535
1375 2 2 0 140 103 127 535
1376 2 2 0 140 104 103 535
1377 2 2 0 141 104 129 105
1378 2 2 0 141 128 129 104
1379 2 2 0 142 105 130 106
1380 2 2 0 142 129 130 105
1381 2 2 0 143 106 131 107
1382 2 2 0 143 130 131 106
1383 2 2 0 144 107 132 108
1384 2 2 0 144 131 132 107
1385 2 2 0 145 108 132 536
1386 2 2 0 145 133 109 536
1387 2 2 0 145 132 133 536
1388 2 2 0 145 109 108 536
1389 2 2 0 146 134 110 537
1390 2 2 0 146 109 133 537
1391 2 2 0 146 133 134 537
1392 2 2 0 146 110 109 537
1393 2 2 0 147 134 111 110
1394 2 2 0 147 134 135 111
1395 2 2 0 148 135 112 111
1396 2 2 0 148 135 136 112
1397 2 2 0 149 136 113 112
1398 2 2 0 149 136 137 113
1399 2 2 0 150 137 114 113
1400 2 2 0 150 137 138 114
1401 2 2 0 151 138 139 538
1402 2 2 0 151 114 138 538
1403 2 2 0 151 139 115 538
1404 2 2 0 151 115 114 538
1405 2 2 0 152 139 140 539
1406 2 2 0 152 140 116 539
1407 2 2 0 152 115 139 539
1408 2 2 0 152 116 115 539
1409 2 2 0 153 116 141 117
1410 2 2 0 153 140 141 116
1411 2 2 0 154 117 142 118
1412 2 2 0 154 141 142 117
1413 2 2 0 155 118 143 119
1414 2 2 0 155 142 143 118
1415 2 2 0 156 119 144 120
1416 2 2 0 156 143 144 119
1417 2 2 0 157 120 144 540
1418 2 2 0 157 121 97 540
1419 2 2 0 157 144 121 540
1420 2 2 0 157 97 120 540
1421 2 2 0 158 145 146 541
1422 2 2 0 158 146 122 541
1423 2 2 0 158 121 145 541
1424 2 2 0 158 122 121 541
1425 2 2 0 159 146 123 122
1426 2 2 0 159 146 147 123
1427 2 2 0 160 147 124 123
1428 2 2 0 160 147 148 124
1429 2 2 0 161 148 125 124
1430 2 2 0 161 148 149 125
1431 2 2 0 162 149 126 125
1432 2 2 0 162 149 150 126
1433 2 2 0 163 150 313 126
1434 2 2 0 163 151 127 542
1435 2 2 0 163 126 313 542
1436 2 2 0 163 127 126 542
1437 2 2 0 163 313 151 542
1438 2 2 0 164 128 314 152
1439 2 2 0 164 127 151 543
1440 2 2 0 164 314 128 543
1441 2 2 0 164 128 127 543
1442 2 2 0 164 151 314 543
1443 2 2 0 165 128 153 129
1444 2 2 0 165 152 153 128
1445 2 2 0 166 129 154 130
1446 2 2 0 166 153 154 129
1447 2 2 0 167 130 155 131
1448 2 2 0 167 154 155 130
1449 2 2 0 168 131 156 132
1450 2 2 0 168 155 156 131
1451 2 2 0 169 156 157 544
1452 2 2 0 169 132 156 544
1453 2 2 0 169 157 133 544
1454 2 2 0 169 133 132 544
1455 2 2 0 170 157 158 545
1456 2 2 0 170 158 134 545
1457 2 2 0 170 133 157 545
1458 2 2 0 170 134 133 545
1459 2 2 0 171 158 135 134
1460 2 2 0 171 158 159 135
1461 2 2 0 172 159 136 135
1462 2 2 0 172 159 160 136
1463 2 2 0 173 160 137 136
1464 2 2 0 173 160 161 137
1465 2 2 0 174 161 138 137
1466 2 2 0 174 161 162 138
1467 2 2 0 175 162 315 138
1468 2 2 0 175 163 139 546
1469 2 2 0 175 138 315 546
1470 2 2 0 175 139 138 546
1471 2 2 0 175 315 163 546
1472 2 2 0 176 140 316 164
1473 2 2 0 176 139 163 547
1474 2 2 0 176 316 140 547
1475 2 2 0 176 140 139 547
1476 2 2 0 176 163 316 547
1477 2 2 0 177 140 165 141
1478 2 2 0 177 164 165 140
1479 2 2 0 178 141 166 142
1480 2 2 0 178 165 166 141
1481 2 2 0 179 142 167 143
1482 2 2 0 179 166 167 142
1483 2 2 0 180 143 168 144
1484 2 2 0 180 167 168 143
1485 2 2 0 181 168 145 548
1486 2 2 0 181 144 168 548
1487 2 2 0 181 145 121 548
1488 2 2 0 181 121 144 548
1489 2 2 0 182 169 317 145
1490 2 2 0 182 317 146 145
1491 2 2 0 182 146 317 170
1492 2 2 0 183 170 147 146
1493 2 2 0 183 170 171 147
1494 2 2 0 184 171 148 147
1495 2 2 0 184 171 172 148
1496 2 2 0 185 172 149 148
1497 2 2 0 185 172 173 149
1498 2 2 0 186 173 150 149
1499 2 2 0 186 173 174 150
1500 2 2 0 187 313 323 175
1501 2 2 0 187 174 323 150
1502 2 2 0 187 323 313 150
1503 2 2 0 187 151 313 175
1504 2 2 0 188 324 314 175
1505 2 2 0 188 152 324 176
1506 2 2 0 188 152 314 324
1507 2 2 0 188 175 314 151
1508 2 2 0 189 152 177 153
1509 2 2 0 189 176 177 152
1510 2 2 0 190 153 178 154
1511 2 2 0 190 177 178 153
1512 2 2 0 191 154 179 155
1513 2 2 0 191 178 179 154
1514 2 2 0 192 155 180 156
1515 2 2 0 192 179 180 155
1516 2 2 0 193 157 330 181
1517 2 2 0 193 330 157 156
1518 2 2 0 193 180 330 156
1519 2 2 0 194 181 331 157
1520 2 2 0 194 331 158 157
1521 2 2 0 194 158 331 182
1522 2 2 0 195 182 159 158
1523 2 2 0 195 182 183 159
1524 2 2 0 196 183 160 159
1525 2 2 0 196 183 184 160
1526 2 2 0 197 184 161 160
1527 2 2 0 197 184 185 161
1528 2 2 0 198 185 162 161
1529 2 2 0 198 185 186 162
1530 2 2 0 199 315 337 187
1531 2 2 0 199 186 337 162
1532 2 2 0 199 337 315 162
1533 2 2 0 199 163 315 187
1534 2 2 0 200 338 316 187
1535 2 2 0 200 164 338 188
1536 2 2 0 200 164 316 338
1537 2 2 0 200 187 316 163
1538 2 2 0 201 164 189 165
1539 2 2 0 201 188 189 164
1540 2 2 0 202 165 190 166
1541 2 2 0 202 189 190 165
1542 2 2 0 203 166 191 167
1543 2 2 0 203 190 191 166
1544 2 2 0 204 167 192 168
1545 2 2 0 204 191 192 167
1546 2 2 0 205 145 344 169
1547 2 2 0 205 344 145 168
1548 2 2 0 205 192 344 168
1549 2 2 0 206 345 318 550
1550 2 2 0 206 193 345 549
1551 2 2 0 206 169 193 549
1552 2 2 0 206 170 317 550
1553 2 2 0 206 317 549 550
1554 2 2 0 206 318 170 550
1555 2 2 0 206 317 169 549
1556 2 2 0 206 549 345 550
1557 2 2 0 206 318 345 194
1558 2 2 0 207 318 171 170
1559 2 2 0 207 319 171 318
1560 2 2 0 207 195 319 194
1561 2 2 0 207 319 318 194
1562 2 2 0 208 319 172 171
1563 2 2 0 208 320 172 319
1564 2 2 0 208 196 320 195
1565 2 2 0 208 320 319 195
1566 2 2 0 209 320 173 172
1567 2 2 0 209 321 173 320
1568 2 2 0 209 197 321 196
1569 2 2 0 209 321 320 196
1570 2 2 0 210 321 174 173
1571 2 2 0 210 322 174 321
1572 2 2 0 210 322 321 197
1573 2 2 0 210 198 322 197
1574 2 2 0 211 351 322 198
1575 2 2 0 211 174 322 551
1576 2 2 0 211 322 351 551
1577 2 2 0 211 323 174 551
1578 2 2 0 211 351 352 551
1579 2 2 0 211 199 175 552
1580 2 2 0 211 551 352 552
1581 2 2 0 211 323 551 552
1582 2 2 0 211 175 323 552
1583 2 2 0 211 352 199 552
1584 2 2 0 212 325 354 200
1585 2 2 0 212 325 176 553
1586 2 2 0 212 354 325 553
1587 2 2 0 212 176 324 553
1588 2 2 0 212 353 354 553
1589 2 2 0 212 175 199 554
1590 2 2 0 212 353 553 554
1591 2 2 0 212 553 324 554
1592 2 2 0 212 324 175 554
1593 2 2 0 212 199 353 554
1594 2 2 0 213 326 177 176
1595 2 2 0 213 325 326 176
1596 2 2 0 213 201 326 325
1597 2 2 0 213 201 325 200
1598 2 2 0 214 327 178 177
1599 2 2 0 214 326 327 177
1600 2 2 0 214 202 326 201
1601 2 2 0 214 202 327 326
1602 2 2 0 215 328 179 178
1603 2 2 0 215 327 328 178
1604 2 2 0 215 203 327 202
1605 2 2 0 215 203 328 327
1606 2 2 0 216 329 180 179
1607 2 2 0 216 328 329 179
1608 2 2 0 216 204 328 203
1609 2 2 0 216 204 329 328
1610 2 2 0 217 329 360 556
1611 2 2 0 217 360 205 555
1612 2 2 0 217 205 181 555
1613 2 2 0 217 330 180 556
1614 2 2 0 217 555 330 556
1615 2 2 0 217 180 329 556
1616 2 2 0 217 181 330 555
1617 2 2 0 217 360 555 556
1618 2 2 0 217 360 329 204
1619 2 2 0 218 361 332 558
1620 2 2 0 218 205 361 557
1621 2 2 0 218 181 205 557
1622 2 2 0 218 182 331 558
1623 2 2 0 218 331 557 558
1624 2 2 0 218 332 182 558
1625 2 2 0 218 331 181 557
1626 2 2 0 218 557 361 558
1627 2 2 0 218 206 332 361
1628 2 2 0 219 332 183 182
1629 2 2 0 219 333 183 332
1630 2 2 0 219 207 333 206
1631 2 2 0 219 333 332 206
1632 2 2 0 220 333 184 183
1633 2 2 0 220 334 184 333
1634 2 2 0 220 208 334 207
1635 2 2 0 220 334 333 207
1636 2 2 0 221 334 185 184
1637 2 2 0 221 335 185 334
1638 2 2 0 221 209 335 208
1639 2 2 0 221 335 334 208
1640 2 2 0 222 335 186 185
1641 2 2 0 222 336 186 335
1642 2 2 0 222 336 335 209
1643 2 2 0 222 210 336 209
1644 2 2 0 223 367 336 210
1645 2 2 0 223 186 336 559
1646 2 2 0 223 336 367 559
1647 2 2 0 223 337 186 559
1648 2 2 0 223 367 368 559
1649 2 2 0 223 211 187 560
1650 2 2 0 223 559 368 560
1651 2 2 0 223 337 559 560
1652 2 2 0 223 187 337 560
1653 2 2 0 223 368 211 560
1654 2 2 0 224 339 370 212
1655 2 2 0 224 339 188 561
1656 2 2 0 224 370 339 561
1657 2 2 0 224 188 338 561
1658 2 2 0 224 369 370 561
1659 2 2 0 224 187 211 562
1660 2 2 0 224 369 561 562
1661 2 2 0 224 561 338 562
1662 2 2 0 224 338 187 562
1663 2 2 0 224 211 369 562
1664 2 2 0 225 340 189 188
1665 2 2 0 225 339 340 188
1666 2 2 0 225 213 340 339
1667 2 2 0 225 213 339 212
1668 2 2 0 226 341 190 189
1669 2 2 0 226 340 341 189
1670 2 2 0 226 214 340 213
1671 2 2 0 226 214 341 340
1672 2 2 0 227 342 191 190
1673 2 2 0 227 341 342 190
1674 2 2 0 227 215 341 214
1675 2 2 0 227 215 342 341
1676 2 2 0 228 343 192 191
1677 2 2 0 228 342 343 191
1678 2 2 0 228 216 342 215
1679 2 2 0 228 216 343 342
1680 2 2 0 229 343 376 564
1681 2 2 0 229 376 193 563
1682 2 2 0 229 193 169 563
1683 2 2 0 229 344 192 564
1684 2 2 0 229 563 344 564
1685 2 2 0 229 192 343 564
1686 2 2 0 229 169 344 563
1687 2 2 0 229 376 563 564
1688 2 2 0 229 376 343 216
1689 2 2 0 230 217 377 193
1690 2 2 0 230 346 378 218
1691 2 2 0 230 377 345 193
1692 2 2 0 230 194 345 565
1693 2 2 0 230 346 194 565
1694 2 2 0 230 378 346 565
1695 2 2 0 230 377 378 565
1696 2 2 0 230 345 377 565
1697 2 2 0 231 346 195 194
1698 2 2 0 231 347 195 346
1699 2 2 0 231 219 347 218
1700 2 2 0 231 347 346 218
1701 2 2 0 232 347 196 195
1702 2 2 0 232 348 196 347
1703 2 2 0 232 220 348 219
1704 2 2 0 232 348 347 219
1705 2 2 0 233 348 197 196
1706 2 2 0 233 349 197 348
1707 2 2 0 233 221 349 220
1708 2 2 0 233 349 348 220
1709 2 2 0 234 349 350 197
1710 2 2 0 234 222 349 221
1711 2 2 0 234 350 198 197
1712 2 2 0 234 222 350 349
1713 2 2 0 235 351 385 352
1714 2 2 0 235 384 385 566
1715 2 2 0 235 385 351 566
1716 2 2 0 235 198 350 566
1717 2 2 0 235 350 384 566
1718 2 2 0 235 385 223 567
1719 2 2 0 235 352 385 567
1720 2 2 0 235 223 199 567
1721 2 2 0 235 351 198 566
1722 2 2 0 235 199 352 567
1723 2 2 0 235 384 350 222
1724 2 2 0 236 386 354 353
1725 2 2 0 236 386 387 568
1726 2 2 0 236 354 386 568
1727 2 2 0 236 355 200 568
1728 2 2 0 236 387 355 568
1729 2 2 0 236 223 386 569
1730 2 2 0 236 386 353 569
1731 2 2 0 236 199 223 569
1732 2 2 0 236 200 354 568
1733 2 2 0 236 353 199 569
1734 2 2 0 236 387 224 355
1735 2 2 0 237 201 355 356
1736 2 2 0 237 224 225 356
1737 2 2 0 237 355 201 200
1738 2 2 0 237 355 224 356
1739 2 2 0 238 357 202 201
1740 2 2 0 238 356 357 201
1741 2 2 0 238 226 356 225
1742 2 2 0 238 356 226 357
1743 2 2 0 239 358 203 202
1744 2 2 0 239 357 358 202
1745 2 2 0 239 227 357 226
1746 2 2 0 239 357 227 358
1747 2 2 0 240 359 204 203
1748 2 2 0 240 358 359 203
1749 2 2 0 240 228 358 227
1750 2 2 0 240 358 228 359
1751 2 2 0 241 205 394 229
1752 2 2 0 241 393 359 228
1753 2 2 0 241 394 205 360
1754 2 2 0 241 360 204 570
1755 2 2 0 241 204 359 570
1756 2 2 0 241 359 393 570
1757 2 2 0 241 393 394 570
1758 2 2 0 241 394 360 570
1759 2 2 0 242 229 395 205
1760 2 2 0 242 362 396 230
1761 2 2 0 242 395 361 205
1762 2 2 0 242 206 361 571
1763 2 2 0 242 362 206 571
1764 2 2 0 242 396 362 571
1765 2 2 0 242 395 396 571
1766 2 2 0 242 361 395 571
1767 2 2 0 243 362 207 206
1768 2 2 0 243 363 207 362
1769 2 2 0 243 231 363 230
1770 2 2 0 243 230 363 362
1771 2 2 0 244 363 208 207
1772 2 2 0 244 364 208 363
1773 2 2 0 244 232 364 231
1774 2 2 0 244 231 364 363
1775 2 2 0 245 364 209 208
1776 2 2 0 245 365 209 364
1777 2 2 0 245 233 365 232
1778 2 2 0 245 232 365 364
1779 2 2 0 246 365 366 209
1780 2 2 0 246 233 234 365
1781 2 2 0 246 366 210 209
1782 2 2 0 246 234 366 365
1783 2 2 0 247 368 367 403
1784 2 2 0 247 402 403 572
1785 2 2 0 247 403 367 572
1786 2 2 0 247 210 366 572
1787 2 2 0 247 366 402 572
1788 2 2 0 247 403 235 573
1789 2 2 0 247 368 403 573
1790 2 2 0 247 235 211 573
1791 2 2 0 247 367 210 572
1792 2 2 0 247 211 368 573
1793 2 2 0 247 234 402 366
1794 2 2 0 248 370 369 404
1795 2 2 0 248 404 405 574
1796 2 2 0 248 370 404 574
1797 2 2 0 248 371 212 574
1798 2 2 0 248 405 371 574
1799 2 2 0 248 235 404 575
1800 2 2 0 248 404 369 575
1801 2 2 0 248 211 235 575
1802 2 2 0 248 212 370 574
1803 2 2 0 248 369 211 575
1804 2 2 0 248 371 405 236
1805 2 2 0 249 372 213 371
1806 2 2 0 249 237 372 236
1807 2 2 0 249 371 213 212
1808 2 2 0 249 372 371 236
1809 2 2 0 250 373 214 213
1810 2 2 0 250 372 373 213
1811 2 2 0 250 238 372 237
1812 2 2 0 250 238 373 372
1813 2 2 0 251 374 215 214
1814 2 2 0 251 373 374 214
1815 2 2 0 251 239 373 238
1816 2 2 0 251 239 374 373
1817 2 2 0 252 375 216 215
1818 2 2 0 252 374 375 215
1819 2 2 0 252 240 374 239
1820 2 2 0 252 240 375 374
1821 2 2 0 253 412 217 193
1822 2 2 0 253 375 240 411
1823 2 2 0 253 376 412 193
1824 2 2 0 253 376 216 576
1825 2 2 0 253 216 375 576
1826 2 2 0 253 375 411 576
1827 2 2 0 253 411 412 576
1828 2 2 0 253 412 376 576
1829 2 2 0 254 241 413 217
1830 2 2 0 254 379 415 242
1831 2 2 0 254 413 377 217
1832 2 2 0 254 414 377 413
1833 2 2 0 254 378 377 414
1834 2 2 0 254 379 218 577
1835 2 2 0 254 218 378 577
1836 2 2 0 254 415 379 577
1837 2 2 0 254 414 415 577
1838 2 2 0 254 378 414 577
1839 2 2 0 255 379 219 218
1840 2 2 0 255 380 219 379
1841 2 2 0 255 243 380 242
1842 2 2 0 255 380 379 242
1843 2 2 0 256 380 220 219
1844 2 2 0 256 381 220 380
1845 2 2 0 256 244 381 243
1846 2 2 0 256 381 380 243
1847 2 2 0 257 382 221 220
1848 2 2 0 257 381 382 220
1849 2 2 0 257 245 381 244
1850 2 2 0 257 245 382 381
1851 2 2 0 258 383 222 221
1852 2 2 0 258 382 383 221
1853 2 2 0 258 246 382 245
1854 2 2 0 258 246 383 382
1855 2 2 0 259 383 416 222
1856 2 2 0 259 385 384 580
1857 2 2 0 259 416 417 578
1858 2 2 0 259 223 385 579
1859 2 2 0 259 222 416 578
1860 2 2 0 259 417 418 580
1861 2 2 0 259 418 247 579
1862 2 2 0 259 417 384 578
1863 2 2 0 259 418 385 580
1864 2 2 0 259 247 223 579
1865 2 2 0 259 385 418 579
1866 2 2 0 259 384 417 580
1867 2 2 0 259 384 222 578
1868 2 2 0 259 416 383 246
1869 2 2 0 260 421 388 224
1870 2 2 0 260 387 386 583
1871 2 2 0 260 420 421 581
1872 2 2 0 260 386 223 582
1873 2 2 0 260 421 224 581
1874 2 2 0 260 419 420 583
1875 2 2 0 260 247 419 582
1876 2 2 0 260 387 420 581
1877 2 2 0 260 386 419 583
1878 2 2 0 260 223 247 582
1879 2 2 0 260 419 386 582
1880 2 2 0 260 420 387 583
1881 2 2 0 260 224 387 581
1882 2 2 0 260 388 421 248
1883 2 2 0 261 388 225 224
1884 2 2 0 261 389 225 388
1885 2 2 0 261 249 389 248
1886 2 2 0 261 389 388 248
1887 2 2 0 262 389 226 225
1888 2 2 0 262 390 226 389
1889 2 2 0 262 250 390 249
1890 2 2 0 262 390 389 249
1891 2 2 0 263 391 227 226
1892 2 2 0 263 390 391 226
1893 2 2 0 263 251 390 250
1894 2 2 0 263 251 391 390
1895 2 2 0 264 392 228 227
1896 2 2 0 264 391 392 227
1897 2 2 0 264 252 391 251
1898 2 2 0 264 252 392 391
1899 2 2 0 265 229 424 253
1900 2 2 0 265 422 392 252
1901 2 2 0 265 229 394 424
1902 2 2 0 265 424 394 423
1903 2 2 0 265 394 393 423
1904 2 2 0 265 228 392 584
1905 2 2 0 265 393 228 584
1906 2 2 0 265 392 422 584
1907 2 2 0 265 422 423 584
1908 2 2 0 265 423 393 584
1909 2 2 0 266 253 425 229
1910 2 2 0 266 397 427 254
1911 2 2 0 266 425 395 229
1912 2 2 0 266 426 395 425
1913 2 2 0 266 395 426 396
1914 2 2 0 266 397 230 585
1915 2 2 0 266 230 396 585
1916 2 2 0 266 427 397 585
1917 2 2 0 266 426 427 585
1918 2 2 0 266 396 426 585
1919 2 2 0 267 397 231 230
1920 2 2 0 267 398 231 397
1921 2 2 0 267 255 398 254
1922 2 2 0 267 398 397 254
1923 2 2 0 268 398 232 231
1924 2 2 0 268 399 232 398
1925 2 2 0 268 256 399 255
1926 2 2 0 268 399 398 255
1927 2 2 0 269 400 233 232
1928 2 2 0 269 399 400 232
1929 2 2 0 269 257 399 256
1930 2 2 0 269 257 400 399
1931 2 2 0 270 401 234 233
1932 2 2 0 270 400 401 233
1933 2 2 0 270 258 400 257
1934 2 2 0 270 258 401 400
1935 2 2 0 271 401 428 234
1936 2 2 0 271 403 402 588
1937 2 2 0 271 428 429 586
1938 2 2 0 271 235 403 587
1939 2 2 0 271 234 428 586
1940 2 2 0 271 429 430 588
1941 2 2 0 271 430 259 587
1942 2 2 0 271 429 402 586
1943 2 2 0 271 430 403 588
1944 2 2 0 271 259 235 587
1945 2 2 0 271 403 430 587
1946 2 2 0 271 402 429 588
1947 2 2 0 271 402 234 586
1948 2 2 0 271 428 401 258
1949 2 2 0 272 433 406 236
1950 2 2 0 272 405 404 591
1951 2 2 0 272 432 433 589
1952 2 2 0 272 404 235 590
1953 2 2 0 272 433 236 589
1954 2 2 0 272 431 432 591
1955 2 2 0 272 259 431 590
1956 2 2 0 272 405 432 589
1957 2 2 0 272 404 431 591
1958 2 2 0 272 235 259 590
1959 2 2 0 272 431 404 590
1960 2 2 0 272 432 405 591
1961 2 2 0 272 236 405 589
1962 2 2 0 272 406 433 260
1963 2 2 0 273 406 237 236
1964 2 2 0 273 407 237 406
1965 2 2 0 273 261 407 260
1966 2 2 0 273 407 406 260
1967 2 2 0 274 407 238 237
1968 2 2 0 274 408 238 407
1969 2 2 0 274 262 408 261
1970 2 2 0 274 408 407 261
1971 2 2 0 275 409 239 238
1972 2 2 0 275 408 409 238
1973 2 2 0 275 263 408 262
1974 2 2 0 275 263 409 408
1975 2 2 0 276 410 240 239
1976 2 2 0 276 409 410 239
1977 2 2 0 276 264 409 263
1978 2 2 0 276 264 410 409
1979 2 2 0 277 217 436 241
1980 2 2 0 277 434 410 264
1981 2 2 0 277 217 412 436
1982 2 2 0 277 436 412 435
1983 2 2 0 277 412 411 435
1984 2 2 0 277 240 410 592
1985 2 2 0 277 411 240 592
1986 2 2 0 277 410 434 592
1987 2 2 0 277 434 435 592
1988 2 2 0 277 435 411 592
1989 2 2 0 278 415 414 439
1990 2 2 0 278 439 414 438
1991 2 2 0 278 415 440 242
1992 2 2 0 278 440 415 439
1993 2 2 0 278 414 413 594
1994 2 2 0 278 413 241 593
1995 2 2 0 278 242 440 266
1996 2 2 0 278 265 437 593
1997 2 2 0 278 437 438 594
1998 2 2 0 278 413 437 594
1999 2 2 0 278 437 413 593
2000 2 2 0 278 241 265 593
2001 2 2 0 278 438 414 594
2002 2 2 0 279 266 243 242
2003 2 2 0 279 267 243 266
2004 2 2 0 280 267 244 243
2005 2 2 0 280 268 244 267
2006 2 2 0 281 268 269 244
2007 2 2 0 281 269 245 244
2008 2 2 0 282 245 270 246
2009 2 2 0 282 269 270 245
2010 2 2 0 283 443 444 596
2011 2 2 0 283 444 271 595
2012 2 2 0 283 270 441 246
2013 2 2 0 283 417 443 596
2014 2 2 0 283 271 247 595
2015 2 2 0 283 418 444 595
2016 2 2 0 283 444 418 596
2017 2 2 0 283 247 418 595
2018 2 2 0 283 418 417 596
2019 2 2 0 283 441 416 246
2020 2 2 0 283 417 416 442
2021 2 2 0 283 442 416 441
2022 2 2 0 283 443 417 442
2023 2 2 0 284 445 446 598
2024 2 2 0 284 271 445 597
2025 2 2 0 284 248 448 272
2026 2 2 0 284 446 420 598
2027 2 2 0 284 247 271 597
2028 2 2 0 284 445 419 597
2029 2 2 0 284 419 445 598
2030 2 2 0 284 419 247 597
2031 2 2 0 284 420 419 598
2032 2 2 0 284 448 248 421
2033 2 2 0 284 447 421 420
2034 2 2 0 284 447 420 446
2035 2 2 0 284 448 421 447
2036 2 2 0 285 272 249 248
2037 2 2 0 285 272 273 249
2038 2 2 0 286 274 250 273
2039 2 2 0 286 273 250 249
2040 2 2 0 287 275 251 250
2041 2 2 0 287 274 275 250
2042 2 2 0 288 276 252 251
2043 2 2 0 288 275 276 251
2044 2 2 0 289 422 450 423
2045 2 2 0 289 450 451 423
2046 2 2 0 289 449 422 252
2047 2 2 0 289 450 422 449
2048 2 2 0 289 424 423 600
2049 2 2 0 289 253 424 599
2050 2 2 0 289 276 449 252
2051 2 2 0 289 452 277 599
2052 2 2 0 289 451 452 600
2053 2 2 0 289 452 424 600
2054 2 2 0 289 424 452 599
2055 2 2 0 289 277 253 599
2056 2 2 0 289 423 451 600
2057 2 2 0 290 426 455 427
2058 2 2 0 290 455 426 454
2059 2 2 0 290 456 254 427
2060 2 2 0 290 455 456 427
2061 2 2 0 290 426 425 602
2062 2 2 0 290 425 253 601
2063 2 2 0 290 254 456 278
2064 2 2 0 290 277 453 601
2065 2 2 0 290 453 454 602
2066 2 2 0 290 425 453 602
2067 2 2 0 290 453 425 601
2068 2 2 0 290 253 277 601
2069 2 2 0 290 454 426 602
2070 2 2 0 291 278 255 254
2071 2 2 0 291 279 255 278
2072 2 2 0 292 279 256 255
2073 2 2 0 292 280 256 279
2074 2 2 0 293 280 281 256
2075 2 2 0 293 281 257 256
2076 2 2 0 294 257 282 258
2077 2 2 0 294 281 282 257
2078 2 2 0 295 459 460 604
2079 2 2 0 295 460 283 603
2080 2 2 0 295 282 457 258
2081 2 2 0 295 429 459 604
2082 2 2 0 295 283 259 603
2083 2 2 0 295 430 460 603
2084 2 2 0 295 460 430 604
2085 2 2 0 295 259 430 603
2086 2 2 0 295 430 429 604
2087 2 2 0 295 457 428 258
2088 2 2 0 295 429 428 458
2089 2 2 0 295 458 428 457
2090 2 2 0 295 459 429 458
2091 2 2 0 296 461 462 606
2092 2 2 0 296 283 461 605
2093 2 2 0 296 260 464 284
2094 2 2 0 296 462 432 606
2095 2 2 0 296 259 283 605
2096 2 2 0 296 461 431 605
2097 2 2 0 296 431 461 606
2098 2 2 0 296 431 259 605
2099 2 2 0 296 432 431 606
2100 2 2 0 296 260 433 464
2101 2 2 0 296 433 432 463
2102 2 2 0 296 463 432 462
2103 2 2 0 296 464 433 463
2104 2 2 0 297 284 261 260
2105 2 2 0 297 284 285 261
2106 2 2 0 298 286 262 285
2107 2 2 0 298 285 262 261
2108 2 2 0 299 287 263 262
2109 2 2 0 299 286 287 262
2110 2 2 0 300 288 264 263
2111 2 2 0 300 287 288 263
2112 2 2 0 301 466 435 434
2113 2 2 0 301 467 435 466
2114 2 2 0 301 465 434 264
2115 2 2 0 301 465 466 434
2116 2 2 0 301 436 435 608
2117 2 2 0 301 241 436 607
2118 2 2 0 301 288 465 264
2119 2 2 0 301 468 265 607
2120 2 2 0 301 467 468 608
2121 2 2 0 301 468 436 608
2122 2 2 0 301 436 468 607
2123 2 2 0 301 265 241 607
2124 2 2 0 301 435 467 608
2125 2 2 0 302 469 437 609
2126 2 2 0 302 265 289 609
2127 2 2 0 302 437 265 609
2128 2 2 0 302 289 469 609
2129 2 2 0 302 266 472 290
2130 2 2 0 302 266 440 472
2131 2 2 0 302 438 437 469
2132 2 2 0 302 439 438 470
2133 2 2 0 302 470 438 469
2134 2 2 0 302 440 439 471
2135 2 2 0 302 439 470 471
2136 2 2 0 302 472 440 471
2137 2 2 0 303 290 267 266
2138 2 2 0 303 291 267 290
2139 2 2 0 304 292 268 267
2140 2 2 0 304 291 292 267
2141 2 2 0 305 293 269 268
2142 2 2 0 305 292 293 268
2143 2 2 0 306 269 294 270
2144 2 2 0 306 293 294 269
2145 2 2 0 307 444 476 610
2146 2 2 0 307 295 271 610
2147 2 2 0 307 294 473 270
2148 2 2 0 307 473 441 270
2149 2 2 0 307 271 444 610
2150 2 2 0 307 476 295 610
2151 2 2 0 307 474 441 473
2152 2 2 0 307 442 441 474
2153 2 2 0 307 443 442 475
2154 2 2 0 307 475 442 474
2155 2 2 0 307 444 443 476
2156 2 2 0 307 443 475 476
2157 2 2 0 308 477 445 611
2158 2 2 0 308 271 295 611
2159 2 2 0 308 445 271 611
2160 2 2 0 308 272 480 296
2161 2 2 0 308 272 448 480
2162 2 2 0 308 295 477 611
2163 2 2 0 308 480 448 479
2164 2 2 0 308 446 445 477
2165 2 2 0 308 447 446 478
2166 2 2 0 308 478 446 477
2167 2 2 0 308 448 447 479
2168 2 2 0 308 447 478 479
2169 2 2 0 309 296 273 272
2170 2 2 0 309 296 297 273
2171 2 2 0 310 297 274 273
2172 2 2 0 310 298 274 297
2173 2 2 0 311 298 275 274
2174 2 2 0 311 299 275 298
2175 2 2 0 312 300 276 275
2176 2 2 0 312 299 300 275
2177 2 2 0 313 452 484 612
2178 2 2 0 313 301 277 612
2179 2 2 0 313 277 452 612
2180 2 2 0 313 484 301 612
2181 2 2 0 313 300 481 276
2182 2 2 0 313 481 449 276
2183 2 2 0 313 450 449 482
2184 2 2 0 313 449 481 482
2185 2 2 0 313 451 450 483
2186 2 2 0 313 483 450 482
2187 2 2 0 313 452 451 484
2188 2 2 0 313 451 483 484
2189 2 2 0 314 485 453 613
2190 2 2 0 314 277 301 613
2191 2 2 0 314 453 277 613
2192 2 2 0 314 301 485 613
2193 2 2 0 314 278 488 302
2194 2 2 0 314 456 488 278
2195 2 2 0 314 454 453 485
2196 2 2 0 314 455 454 486
2197 2 2 0 314 486 454 485
2198 2 2 0 314 456 455 487
2199 2 2 0 314 487 455 486
2200 2 2 0 314 488 456 487
2201 2 2 0 315 302 279 278
2202 2 2 0 315 303 279 302
2203 2 2 0 316 304 280 279
2204 2 2 0 316 303 304 279
2205 2 2 0 317 305 281 280
2206 2 2 0 317 304 305 280
2207 2 2 0 318 281 306 282
2208 2 2 0 318 305 306 281
2209 2 2 0 319 460 492 614
2210 2 2 0 319 307 283 614
2211 2 2 0 319 306 489 282
2212 2 2 0 319 489 457 282
2213 2 2 0 319 283 460 614
2214 2 2 0 319 492 307 614
2215 2 2 0 319 457 489 490
2216 2 2 0 319 458 457 490
2217 2 2 0 319 459 458 491
2218 2 2 0 319 491 458 490
2219 2 2 0 319 460 459 492
2220 2 2 0 319 492 459 491
2221 2 2 0 320 493 461 615
2222 2 2 0 320 283 307 615
2223 2 2 0 320 461 283 615
2224 2 2 0 320 284 496 308
2225 2 2 0 320 496 284 464
2226 2 2 0 320 307 493 615
2227 2 2 0 320 495 496 464
2228 2 2 0 320 462 461 493
2229 2 2 0 320 462 494 463
2230 2 2 0 320 494 462 493
2231 2 2 0 320 495 464 463
2232 2 2 0 320 494 495 463
2233 2 2 0 321 308 285 284
2234 2 2 0 321 308 309 285
2235 2 2 0 322 309 286 285
2236 2 2 0 322 310 286 309
2237 2 2 0 323 310 287 286
2238 2 2 0 323 311 287 310
2239 2 2 0 324 312 288 287
2240 2 2 0 324 311 312 287
2241 2 2 0 325 468 500 616
2242 2 2 0 325 289 265 616
2243 2 2 0 325 265 468 616
2244 2 2 0 325 500 289 616
2245 2 2 0 325 312 497 288
2246 2 2 0 325 497 465 288
2247 2 2 0 325 466 465 498
2248 2 2 0 325 498 465 497
2249 2 2 0 325 467 466 499
2250 2 2 0 325 499 466 498
2251 2 2 0 325 467 500 468
2252 2 2 0 325 500 467 499
$EndElements
