$MeshFormat
2.2 0 8
$EndMeshFormat
$PhysicalNames
4
2 1 "SD1G0"
2 2 "SD1D1001"
2 3 "SD2G0"
2 4 "I1-2"
$EndPhysicalNames
$Nodes
765
1 12.7 0 0
2 9.845000000000001 8.023 0
3 0 12.7 0
4 12.942 0 4.901
5 10.138 8.262 4.901
6 0 12.848 4.901
7 14.504 0 13.687
8 11.962 9.747999999999999 13.687
9 0 13.837 13.687
10 18.953 0 27.14
11 16.795 13.686 27.14
12 0 16.849 27.14
13 27.809 0 46.577
14 25.775 21.004 46.577
15 0 23.348 46.577
16 41.662 0 71.648
17 39.183 31.93 71.648
18 0 34.175 71.648
19 61.766 0 100.826
20 58.255 47.472 100.826
21 0 50.504 100.826
22 91.583 0 129.914
23 87.197 71.05800000000001 129.914
24 0 74.803 129.914
25 132.769 0 154.026
26 128.711 104.887 154.026
27 0 107.824 154.026
28 181.887 0 172.104
29 179.231 146.057 172.104
30 0 146.842 172.104
31 228.741 0 184.019
32 227.383 185.295 184.019
33 0 184.292 184.019
34 267.311 0 191.163
35 266.124 216.866 191.163
36 0 215.898 191.163
37 292.187 0 194.364
38 289.856 236.206 194.364
39 0 237.285 194.364
40 0 0 194.364
41 0 0 0
42 0 0 24.364
43 293 0 194.364
44 303 0 184.364
45 303 0 34.364
46 293 0 24.364
47 0 238 194.364
48 0 248 184.364
49 0 248 34.364
50 0 238 24.364
51 293 238 194.364
52 303 238 184.364
53 303 238 34.364
54 293 238 24.364
55 293 248 184.364
56 293 248 34.364
57 11.09945920158584 4.570024532318124 0
58 5.631379861530154 10.05293080292796 0
59 11.37736276935789 4.710695557468017 4.901
60 5.791711427091221 10.24837198087024 4.901
61 13.12563938190908 5.590061451040484 13.687
62 6.798423775333739 11.49549928695627 13.687
63 17.87986527980887 7.918148934567532 27.14
64 9.496181132380771 14.98502061769615 27.14
65 14.26638435912508 11.62564651484265 20.10141812193454
66 16.62529236783526 0 20.10141812193476
67 0 15.2731278066877 20.10141812196867
68 26.94260541064427 12.21435318349765 46.577
69 19.37822489874191 21.39901052741025 46.577
70 9.689079628279119 22.37317995232421 46.577
71 21.0616631842507 17.16299790449294 36.37509268510923
72 23.16074712246366 0 36.37509268510911
73 0 19.93686681899652 36.375092685157
74 41.03146699902975 12.39719451550469 71.64799999999998
75 40.39887915424308 24.79428396748438 71.648
76 29.43591512330507 32.19984116565792 71.648
77 14.71792312735247 33.1869067371468 71.64800000000001
78 32.11470810547938 26.17014340397283 58.43132740993985
79 34.35911757049604 0 58.43132740994052
80 0 28.46733320841147 58.43132741000129
81 60.87860868645616 18.40573674892111 100.826
82 59.98833075177274 36.81133388225648 100.826
83 43.78372408979038 47.83421441014586 100.826
84 21.89181907621051 49.16840633207329 100.826
85 48.22775605457898 39.30067945680927 85.48545239935535
86 51.19617448202869 0 85.485452399355
87 0 41.91890843204719 85.48545239942879
88 90.76481036726011 20.56072219316746 129.914
89 89.95525898900641 41.12178817622073 129.914
90 89.11896426521916 61.68177765695534 129.914
91 73.86065191371539 71.18927021947293 129.914
92 49.2400983779392 72.38696801833706 129.914
93 24.62014998296283 73.5970472872519 129.914
94 72.10812882248685 58.76147192340456 114.7490119269054
95 76.03794879760187 0 114.7490119269089
96 0 62.1347503717579 114.7490119269803
97 132.2469257510425 24.12598290154416 154.026
98 131.7354817173966 48.25219497307521 154.026
99 131.2172544516047 72.378261836791 154.026
100 130.6621089942624 96.50349952727231 154.026
101 116.5809181534901 104.9090119460353 154.026
102 87.43546760459967 105.6288131471498 154.026
103 58.29030380445359 106.3602545222555 154.026
104 29.14519392381789 107.0938380940475 154.026
105 100.4587752730397 81.86477833289153 137.6166527288031
106 114.2886614423192 93.13449985383761 145.6492734185383
107 111.5283632373299 0 141.5908464618681
108 0 90.79425526788718 141.5908464619271
109 181.747645563855 27.86017784603396 172.104
110 181.618285567164 55.72040653776301 172.104
111 181.4881918697953 83.58063057135936 172.104
112 181.3459331976203 111.4407970247202 172.104
113 181.1613640449103 139.3007034638135 172.104
114 145.2746935311268 146.3100285769453 172.104
115 116.2197490215603 146.4150839863858 172.104
116 87.16481089404805 146.5217425393141 172.104
117 58.10987474879276 146.6289290774074 172.104
118 29.05493906809453 146.7359488755813 172.104
119 145.0979679151536 118.2411462602311 159.8898876874534
120 161.9338741572735 131.9611434888153 165.9144227833569
121 156.8302543073596 0 162.8818034807697
122 0 126.9376043928841 162.881803480818
123 228.8460610132465 30.21085379088227 184.019
124 228.9598422083129 60.42167936253929 184.019
125 229.0751128672087 90.63249881262038 184.019
126 229.1856040579443 120.8433363103408 184.019
127 229.2815828008393 151.0542200490482 184.019
128 229.3315155420798 181.2652118149715 184.019
129 193.8307582342648 185.6304711548895 184.019
130 161.5256207458355 185.4089493121547 184.019
131 129.2204932508131 185.1859300683352 184.019
132 96.91537060294166 184.9622816255692 184.019
133 64.61024907276703 184.7384683134243 184.019
134 32.30512515621292 184.5148766087337 184.019
135 202.9964124086637 165.422909039939 177.9846464705356
136 205.0117847025039 0 177.9846464705326
137 0 165.3254419070542 177.9846464705621
138 267.4345326892876 30.89434475840196 191.163
139 267.5655808934995 61.78866102527821 191.163
140 267.6989509639118 92.68296663129199 191.163
141 267.8305729759259 123.5772807718466 191.163
142 267.9555487426803 154.4716219875959 191.163
143 268.0646901543419 185.3660229119077 191.163
144 268.1237593358121 216.2605492283825 191.163
145 235.496063414113 217.559432598888 191.163
146 201.8537326737668 217.327266956272 191.163
147 168.2114304293512 217.0908009561163 191.163
148 134.5691423459962 216.852365185584 191.163
149 100.9268609821595 216.6130777633172 191.163
150 67.28457976632475 216.3737132209639 191.163
151 33.6422946647323 216.1350191053471 191.163
152 246.6262506170762 200.9768013275784 187.5675346895638
153 247.8993122866865 0 187.5675346895538
154 292.1534979936675 33.63034959231517 194.364
155 292.1275749301594 67.26070882308667 194.364
156 292.1039942109477 100.8910690007865 194.364
157 292.0786523262285 134.5214287256738 194.364
158 292.0466117676424 168.1517808147549 194.364
159 291.9986149072989 201.7821145600485 194.364
160 291.9002170957025 235.412331808407 194.364
161 263.9613636432225 237.2983443323584 194.364
162 230.966190602752 237.3047576346711 194.364
163 197.9710212267978 237.3051384455109 194.364
164 164.975850268532 237.3026594672498 194.364
165 131.9806791755686 237.2987365760871 194.364
166 98.98550853300038 237.2942491970485 194.364
167 65.99033770073046 237.2899120496538 194.364
168 32.99516839893714 237.2864815124453 194.364
169 259.7217777778554 0 194.364
170 227.2565555557219 0 194.364
171 194.7913333335866 0 194.364
172 162.3261111114593 0 194.364
173 129.8608888892371 0 194.364
174 97.39566666693113 0 194.364
175 64.93044444462453 0 194.364
176 32.46522222230249 0 194.364
177 0 33.89785714279339 194.364
178 0 67.79571428555749 194.364
179 0 101.6935714283271 194.364
180 0 135.5914285711816 194.364
181 0 169.4892857141155 194.364
182 0 203.3871428570383 194.364
183 6.349999999983785 0 0
184 0 6.350000000015788 0
185 300.0710678214817 0 191.4350678022492
186 303 0 159.3639999999824
187 303 0 134.3639999999648
188 303 0 109.36400000005
189 303 0 84.36400000003516
190 303 0 59.36400000001758
191 300.0710677911069 0 27.29293216737599
192 268.5833333333333 0 24.364
193 244.1666666666667 0 24.364
194 219.75 0 24.364
195 195.3333333333333 0 24.364
196 170.9166666666667 0 24.364
197 146.5 0 24.364
198 122.0833333333333 0 24.364
199 97.66666666666669 0 24.364
200 73.25 0 24.364
201 48.83333333333331 0 24.364
202 24.41666666666669 0 24.364
203 0 245.0710678290617 191.4350677946692
204 0 248 159.3639999999824
205 0 248 134.3639999999648
206 0 248 109.36400000005
207 0 248 84.36400000003516
208 0 248 59.36400000001758
209 0 245.0710677799691 27.29293215623813
210 0 214.1999999998984 24.364
211 0 190.40000000001 24.364
212 0 166.6000000001926 24.364
213 0 142.8000000003753 24.364
214 0 119.0000000005052 24.364
215 0 95.20000000040636 24.364
216 0 71.40000000030477 24.364
217 0 47.60000000020318 24.364
218 0 23.80000000010162 24.364
219 24.41666666664603 238 194.364
220 48.83333333326831 238 194.364
221 73.24999999986099 238 194.364
222 97.66666666645368 238 194.364
223 122.0833333330464 238 194.364
224 146.4999999997334 238 194.364
225 170.9166666664445 238 194.364
226 195.3333333331556 238 194.364
227 219.7499999998667 238 194.364
228 244.1666666665778 238 194.364
229 268.5833333332889 238 194.364
230 300.0710678214817 238 191.4350678022492
231 303 238 159.3639999999824
232 303 238 134.3639999999648
233 303 238 109.36400000005
234 303 238 84.36400000003516
235 303 238 59.36400000001758
236 300.0710677911069 238 27.29293216737599
237 268.5833333333333 238 24.364
238 244.1666666666667 238 24.364
239 219.75 238 24.364
240 195.3333333333333 238 24.364
241 170.9166666666667 238 24.364
242 146.5 238 24.364
243 122.0833333333333 238 24.364
244 97.66666666666669 238 24.364
245 73.25 238 24.364
246 48.83333333333331 238 24.364
247 24.41666666666669 238 24.364
248 24.41666666664603 248 184.364
249 48.83333333326831 248 184.364
250 73.24999999986099 248 184.364
251 97.66666666645368 248 184.364
252 122.0833333330464 248 184.364
253 146.4999999997334 248 184.364
254 170.9166666664445 248 184.364
255 195.3333333331556 248 184.364
256 219.7499999998667 248 184.364
257 244.1666666665778 248 184.364
258 268.5833333332889 248 184.364
259 293 248 159.3639999999824
260 293 248 134.3639999999648
261 293 248 109.36400000005
262 293 248 84.36400000003516
263 293 248 59.36400000001758
264 268.5833333333333 248 34.364
265 244.1666666666667 248 34.364
266 219.75 248 34.364
267 195.3333333333333 248 34.364
268 170.9166666666667 248 34.364
269 146.5 248 34.364
270 122.0833333333333 248 34.364
271 97.66666666666669 248 34.364
272 73.25 248 34.364
273 48.83333333333331 248 34.364
274 24.41666666666669 248 34.364
275 293 245.0710678290617 191.4350677946692
276 300.0710677943634 245.0710678293676 184.364
277 300.0710677943634 245.0710678293676 34.364
278 293 245.0710678278447 27.29293220411375
279 293 23.79999999995193 194.364
280 293 47.59999999988621 194.364
281 293 71.39999999981161 194.364
282 293 95.19999999973703 194.364
283 293 118.9999999996652 194.364
284 293 142.7999999997299 194.364
285 293 166.5999999997975 194.364
286 293 190.399999999865 194.364
287 293 214.1999999999325 194.364
288 303 23.79999999995193 184.364
289 303 47.59999999988621 184.364
290 303 71.39999999981161 184.364
291 303 95.19999999973703 184.364
292 303 118.9999999996652 184.364
293 303 142.7999999997299 184.364
294 303 166.5999999997975 184.364
295 303 190.399999999865 184.364
296 303 214.1999999999325 184.364
297 303 23.79999999995193 34.364
298 303 47.59999999988621 34.364
299 303 71.39999999981161 34.364
300 303 95.19999999973703 34.364
301 303 118.9999999996652 34.364
302 303 142.7999999997299 34.364
303 303 166.5999999997975 34.364
304 303 190.399999999865 34.364
305 303 214.1999999999325 34.364
306 293 23.79999999995193 24.364
307 293 47.59999999988621 24.364
308 293 71.39999999981161 24.364
309 293 95.19999999973703 24.364
310 293 118.9999999996652 24.364
311 293 142.7999999997299 24.364
312 293 166.5999999997975 24.364
313 293 190.399999999865 24.364
314 293 214.1999999999325 24.364
315 12.05031531727927 2.259264863043039 2.4505
316 10.85867033165785 5.754633051277579 2.456460130510762
317 7.860321594380808 9.163923134444103 2.458128125060119
318 12.44892394890984 4.536695470175145 9.394505039760212
319 3.063491506175785 12.14016204092039 9.294
320 16.10067085944506 8.654094580681745 22.79682980405917
321 16.74158013418906 4.038039002832762 22.47981823400151
322 14.77656883018263 5.583797648802708 17.93503939092628
323 4.629016873558276 14.15275215491337 20.43022690645665
324 10.28569999103292 12.72010772631626 20.51014636128395
325 22.87586802160563 5.747486347987026 36.96351823839844
326 22.28327348270436 12.6637026960314 37.10863995280825
327 15.10085117794868 18.40772230542705 37.84846309220545
328 7.069999447063973 18.56033888538443 35.34108531546452
329 36.20988202324099 10.52471347868379 62.85065442820639
330 36.80528898064848 20.65254864868953 64.90551180605176
331 31.77303850418527 16.82262903410459 55.62806988898566
332 31.19303761199885 7.519507467573606 53.56788356791326
333 23.56677958289869 29.22508954472242 64.24592209467536
334 22.43352476377138 24.90105403003167 54.66816068504707
335 13.87178782945524 26.34555249718549 56.22707251274461
336 10.18282555910601 30.18793234130444 64.16965285729019
337 55.0050056327312 30.62456324209886 93.17788718308856
338 49.9046086705854 16.96274126953088 84.8260062085333
339 12.47025951726605 43.07993923010842 88.96028133892685
340 25.77441756872305 40.12567677888908 85.21627969393143
341 38.3816270296286 43.71002156919862 92.95308855346121
342 34.99237591850174 37.52863059727093 81.66774612153459
343 81.27418253428669 51.21299154689644 121.9306044629926
344 81.25040918255515 34.6331583147339 121.2353161211192
345 73.37806418890764 23.58019230280725 113.159806040352
346 70.7232143785601 41.62293355977672 111.3636814320999
347 67.84961034094719 66.63283606797192 124.2435777601408
348 53.14320678749887 59.29043896057647 114.7818944497305
349 34.21658676194266 61.21246059994796 115.843085788059
350 16.65441862397599 63.77855081443992 117.7693919173632
351 110.9681666218252 29.05821648653857 141.7569521769865
352 119.7948564015047 48.40913076146991 147.1470283090274
353 123.0803300061564 85.36817785669869 149.5595442339172
354 113.2962432810549 69.74560696898861 143.7538737487449
355 102.6346836509154 50.03137528430354 137.3332151607039
356 100.0309343014178 66.69752056776851 136.1738452377874
357 122.1270186268965 12.53486138490298 147.9808237244989
358 67.0249175338212 88.22006315801616 141.4375944115308
359 45.880541268116 88.65080259786896 141.2145354699971
360 20.17330545486551 90.02480581142009 141.5454778577163
361 104.841028832191 97.12595376763784 148.4389496584461
362 87.00965941606202 87.28028822583885 141.2719260574888
363 149.9045234605554 104.0670196299849 160.8700679810144
364 166.3950594042315 118.8551932190686 166.7907450389991
365 166.2340536995348 96.89218585508407 166.655671910911
366 152.5358721566558 87.10699551185368 161.7186741367659
367 156.7369185319543 64.70478416005726 163.125670548029
368 157.5176910185578 16.98963216961914 163.2096044087775
369 156.0906534278688 40.67374804105553 162.7904696907377
370 18.13441540335448 127.0405392359649 163.0352501426273
371 143.276614056658 135.5439569969764 167.3976245452816
372 42.43187848617421 126.2664259848776 162.8239205718581
373 123.6738849657706 124.5257111199878 162.5220289580216
374 100.6855868035239 125.1800600516131 162.6770674821516
375 70.55939984707679 123.2301946604897 161.6320721756544
376 128.8860593917792 114.1861061718946 158.09790166695
377 205.5368043242553 101.8110217516783 178.1183584771703
378 209.3214813482846 80.29536287034502 179.067557090445
379 201.470531310184 64.07891814388834 177.0966686333643
380 218.5165415013954 162.7479213387801 181.3432125505666
381 208.145483529694 142.9809579730413 178.771420448275
382 201.792416974314 123.3534572020819 177.1890563895325
383 205.5729465993967 18.02795855557277 178.1287866672131
384 205.4787087427956 42.18291249246825 178.1049794415042
385 76.13951351984804 166.14244578522 178.1873124712883
386 103.2153439398401 166.0590420166978 178.1417238573589
387 45.3205864241018 165.8775684269625 178.1269712980626
388 174.6236629735571 165.7892254136949 178.0094436798836
389 199.9590471880551 175.8021360921926 181.0195248930363
390 17.6130153668818 164.7717864880072 177.7971520015585
391 248.5170014179467 168.6107464356559 187.5621389240826
392 248.4584853014456 108.9843058413259 187.591
393 248.5072525634498 138.538208759982 187.5789538777841
394 248.2058775948296 46.86868601040874 187.591
395 248.3322260202451 77.85043256677545 187.591
396 248.1565111747498 19.6438398544194 187.6017475099268
397 239.0408725967143 205.270951688273 188.3838190845139
398 220.6183427660397 201.6734600512288 187.599591330402
399 15.22329982021846 200.2010146275815 187.591
400 146.0935000003482 118.5138303733029 194.364
401 215.7996413846685 79.44356834319296 194.364
402 76.37726503443687 79.40304142244148 194.364
403 209.1015316428075 161.4060574375977 194.364
404 76.17726978391624 157.8961943934547 194.364
405 146.0935000003482 58.14524044516944 194.364
406 148.3766288560527 178.8238557678587 194.364
407 243.6994793622997 118.9727353992271 194.364
408 47.55863311035115 118.9037544143092 194.364
409 248.7336496560584 195.0784473016051 194.364
410 246.8510778568386 44.86505201521585 194.364
411 45.36427121594426 44.84938891680105 194.364
412 192.3003971484673 118.7398865252388 194.364
413 45.34797408847222 192.2559259338581 194.364
414 100.0043152904359 118.5425549864654 194.364
415 102.3353855753376 195.6189820895391 194.364
416 188.2364096331495 43.09445046529971 194.364
417 103.9744340584242 43.07588398984291 194.364
418 188.5770666984576 195.1332780388987 194.364
419 118.0515942695661 153.5266361239102 194.364
420 175.3907568107486 83.71942903940516 194.364
421 116.7464070211605 83.53446011729744 194.364
422 253.1239231105461 155.6839041728618 194.364
423 252.814193026732 82.41562439738617 194.364
424 178.3356345609507 152.0894442692522 194.364
425 39.18354681755791 82.68732608377219 194.364
426 38.7768001956165 154.8564583501543 194.364
427 72.96455432222743 208.9157010282766 194.364
428 214.5229160672205 26.10313575163355 194.364
429 77.66497869046543 26.0896734380769 194.364
430 217.1352428603269 212.3367471019374 194.364
431 146.1007597884673 33.69702330469702 194.364
432 150.6438074066267 208.264250370964 194.364
433 276.1206933490034 218.0724625296996 194.364
434 146.4817408651057 84.74278063551299 194.364
435 147.0826597709847 152.2688004705466 194.364
436 73.96851138819974 106.2900311167696 194.364
437 220.2998165564926 104.6687680478103 194.364
438 220.1924847874862 133.4591614955526 194.364
439 266.2548519129497 26.15285368997369 194.364
440 70.73893636056002 133.2124133316756 194.364
441 25.86796039648972 26.17705630880209 194.364
442 25.94379460643392 211.1425530790439 194.364
443 269.7493172396944 117.9002078526865 194.364
444 22.0463090049662 118.6695740756068 194.364
445 271.6730715711473 184.9379050343727 194.364
446 247.3834280222726 220.0181517800543 194.364
447 224.7636083653076 183.0643381790593 194.364
448 122.9625091677144 213.2666200799356 194.364
449 21.19227666424532 51.30728534971027 194.364
450 178.5587222225229 19.36805278097996 194.364
451 270.9136891172948 51.09952072258274 194.364
452 113.6282777780841 19.36495106216827 194.364
453 21.12055477916306 186.0272830337478 194.364
454 122.8439463324957 129.8978105139427 194.364
455 169.6874963532493 107.2340988838342 194.364
456 49.21238662364789 217.2947099319132 194.364
457 242.9214358341172 19.42420829136462 194.364
458 49.25857539396529 19.42322373273601 194.364
459 224.0652613716681 55.07886798230042 194.364
460 68.14862767500158 55.06542198469071 194.364
461 181.4748224029935 218.8475331425602 194.364
462 68.00787234448136 181.896621168765 194.364
463 167.9805238276707 60.89308859307891 194.364
464 97.94071589653549 143.9009367082331 194.364
465 124.2966065350082 60.82344452106523 194.364
466 171.7726514438054 176.1390424783378 194.364
467 127.0401169126459 181.7284508289577 194.364
468 195.5391416440374 94.15902728513825 194.364
469 96.30204677763003 94.43920380832138 194.364
470 98.25882579708043 169.0946368854766 194.364
471 124.845419820464 105.3750450583878 194.364
472 194.5019557786571 69.39807195140256 194.364
473 97.64089785027689 69.39024264060984 194.364
474 196.2874703164739 141.4232678265725 194.364
475 167.909977593666 131.7247045132282 194.364
476 5.724671590428668 4.81961849902566 0
477 299.2261494365598 224.9445029343865 192.1892835855082
478 299.2423204328076 13.03246893424965 192.1763898785297
479 303 83.29999999977434 109.364
480 303 159.5367474198422 108.7350249493987
481 303 121.3080316482634 79.67639115024073
482 303 121.0067527008559 137.4121857142881
483 303 43.94021463979284 140.2423433780196
484 303 45.51268494439877 76.5318159297276
485 303 195.0410040953731 141.0171706718898
486 303 193.3579510136242 75.76692488875288
487 303 86.35086039933449 70.69364253551016
488 303 84.50181246020388 147.3933242930869
489 303 157.4689941764493 149.1123824929817
490 303 154.8812314386008 70.32699077698351
491 303 205.6489881127603 109.364
492 303 31.93334519716712 109.364
493 303 111.0796710359405 112.3947414553362
494 303 27.24183060039796 157.2585772684293
495 303 27.24183060039793 61.46942273157072
496 303 107.496789526344 160.3535527701765
497 303 107.496789526344 58.37444722982353
498 303 62.46801063041818 161.9287054536958
499 303 60.70051834573153 58.5948073700563
500 303 211.5116282690148 157.6201804105459
501 303 211.4386095146005 61.02348387693171
502 303 133.7736630649374 160.1563878190994
503 303 133.4325998175981 58.54971454231922
504 303 58.87039847507496 117.0857068538929
505 303 177.3398564125298 162.1380331792186
506 303 179.2419593233951 57.68467871775731
507 303 138.2888788621652 116.2270948442973
508 303 180.0974858437155 117.0900725060866
509 303 143.3802965818342 90.60754805593764
510 303 68.77691436695062 89.51958256440516
511 303 97.94260220574718 128.2337312108044
512 303 99.72266812325478 90.67513786103811
513 303 171.2048509685611 89.18874580075178
514 303 23.55508842332414 131.5569400812395
515 303 23.58475131839556 87.44476674674395
516 303 214.8458297084369 130.8946741310898
517 303 214.1644929376791 87.32306031489212
518 303 77.5677099767197 128.9759943486493
519 303 158.6404166193976 128.5956179703151
520 303 83.29999999977434 167.94614222055
521 303 83.29999999977433 50.78185777945011
522 303 154.6999999997637 168.2601172725261
523 303 154.6999999997637 50.46788272747395
524 303 141.131226882655 137.3424060268572
525 303 190.6245191071438 97.08186733229203
526 303 43.31031057066033 166.3879188987518
527 303 43.31031057066035 52.3400811012482
528 303 123.9752020630136 98.05748191871655
529 303 45.73561886039741 95.98917441895392
530 303 196.1199773690511 167.2975282747103
531 303 196.1199773690512 51.43047172528977
532 303 173.7175514294931 139.5906553640984
533 303 64.04221068363039 141.4628323738028
534 303 14.47862859497719 169.4091455775568
535 303 14.47862859497712 49.31885442244322
536 303 13.34771550895253 146.1363639717291
537 303 13.34771550895256 72.59163602827094
538 303 224.4462105949212 145.8217983002704
539 303 224.4462105949212 72.90620169972972
540 303 224.1734836315345 170.0299564172403
541 303 224.1734836315345 48.69804358275974
542 303 103.4418351271264 143.4071958719634
543 303 103.7195874242992 74.85490469415313
544 303 137.4916520739172 74.94573702185468
545 301.0253483005278 225.055188445542 28.39794731374125
546 301.0253494978379 12.94481103883324 28.39794892432592
547 118.1766759443128 115.2048306328133 24.364
548 203.5762878121765 89.24209035140376 24.364
549 180.9293109216576 161.5171498861564 24.364
550 69.65626222474567 169.8039074034522 24.364
551 71.01266412492232 68.12835737340019 24.364
552 146.7350460629045 62.72276995727898 24.364
553 234.3706387361103 136.3370399265345 24.364
554 126.5589960569003 180.1330808200642 24.364
555 240.7881740368172 52.31534199538672 24.364
556 49.65625726178916 121.6332661413123 24.364
557 231.3231410111473 188.4325563023243 24.364
558 165.806498563401 118.8073889075957 24.364
559 185.0010294686185 40.59969850140897 24.364
560 251.4371953920106 95.30816111548701 24.364
561 108.5085287125252 42.46219086950219 24.364
562 40.62509039680815 197.5716101087848 24.364
563 38.32528900981364 39.40232612442779 24.364
564 162.8352302144606 198.2602320109775 24.364
565 92.17209545894755 199.9700195228797 24.364
566 109.5793866589921 81.01317841249539 24.364
567 35.18332810044237 154.7000000002839 24.364
568 35.18332810053828 83.30000000035551 24.364
569 85.67889655330977 134.9673037733304 24.364
570 145.1109892097098 146.5824681602365 24.364
571 201.9169755493849 124.2415599863142 24.364
572 198.5656451568706 202.1987860518012 24.364
573 258.703509323402 164.4300847151581 24.364
574 73.8561323480739 33.86715955433508 24.364
575 262.166287816037 202.2999999998987 24.364
576 158.1729586768024 34.49008357098327 24.364
577 173.8188183951132 84.5938770813529 24.364
578 80.59889910445733 102.7480505359671 24.364
579 137.7880234651193 98.59944339860816 24.364
580 214.3900865692507 163.2522669206789 24.364
581 109.1658308562172 154.9946243317553 24.364
582 261.2638508539321 123.4108241525272 24.364
583 218.5416533681837 26.90311408180553 24.364
584 260.6208461956784 31.97302549389693 24.364
585 136.0019440674913 212.7156223992155 24.364
586 263.6137731634441 70.83195683810591 24.364
587 217.6763456694844 64.42657075150784 24.364
588 130.2043732353694 27.73701832679445 24.364
589 66.90007430964364 207.4761929704314 24.364
590 26.06538327631201 128.7843538422653 24.364
591 223.2369646351295 109.9109642877799 24.364
592 154.3472459258569 171.957858680848 24.364
593 95.07985141461977 174.3144372576386 24.364
594 59.67915714133868 144.7928228002123 24.364
595 22.37312129022114 176.4424120146936 24.364
596 22.04457823494036 61.41100744754495 24.364
597 231.9583333333333 214.9628564247703 24.364
598 227.9890615195002 86.10960560119833 24.364
599 58.77097768418905 93.98912646443038 24.364
600 121.5421201122826 62.8465174127385 24.364
601 19.67288938099512 102.2893883580774 24.364
602 182.9359554079904 20.81664605043266 24.364
603 179.8162085688233 135.5685938792215 24.364
604 107.8022852750074 217.4015248337359 24.364
605 191.7318938407984 65.33270579069365 24.364
606 143.1966965714447 122.5118773104366 24.364
607 23.7429022264311 214.2665662266185 24.364
608 19.89641294696089 19.88510538953061 24.364
609 185.4866633751156 107.4455566068742 24.364
610 237.7203925721707 24.62089119009323 24.364
611 47.38696221518207 63.8516337173757 24.364
612 47.19718781797607 173.9505715794782 24.364
613 181.643845497089 214.7029108805563 24.364
614 97.37471147759371 63.78163349606255 24.364
615 274.4324200222433 106.2922604700075 24.364
616 94.84047588890672 23.31668549398657 24.364
617 269.8333420177221 145.1260576396047 24.364
618 168.7143541148812 59.53403772869598 24.364
619 183.8336272554928 186.267485160614 24.364
620 57.78281191982107 22.16022041696953 24.364
621 273.3388665291736 181.5792995232419 24.364
622 236.0308891082555 160.6063158864127 24.364
623 271.3780567873371 50.45166444116023 24.364
624 100.8153907552946 99.24369207057087 24.364
625 207.3170222971492 185.436241518354 24.364
626 75.99267168238381 188.2743884104243 24.364
627 159.5795372891415 220.3357530581499 24.364
628 87.55822434205305 220.1695474654094 24.364
629 198.9265823306199 148.080650422744 24.364
630 242.6315620036789 119.6307331692993 24.364
631 163.8542698265972 150.8251335908328 24.364
632 211.3563856251793 218.7984555829802 24.364
633 46.87010644290322 217.3511356835957 24.364
634 85.80146217133138 83.30744057537191 24.364
635 251.8846869696373 184.5559865828232 24.364
636 113.9877033857717 194.868595891846 24.364
637 85.57545769053098 155.413525447967 24.364
638 142.2914409154853 191.5331530200247 24.364
639 254.2522804394474 218.6200737001606 24.364
640 62.94168753742052 49.38075885911672 24.364
641 16.16347118666353 154.2741597815483 24.364
642 15.38015914329475 82.72007916133778 24.364
643 133.744261481504 47.0078463598017 24.364
644 70.83180983306593 119.3018009773152 24.364
645 125.7494704163556 137.6764539693842 24.364
646 105.449180633633 133.4400541919684 24.364
647 242.1217772864303 72.7511015817131 24.364
648 202.5698433312582 18.3351670196184 24.364
649 120.3253394412089 96.03977139337698 24.364
650 128.9629283997477 160.1354429781131 24.364
651 275.0966777155396 87.80647568462979 24.364
652 112.476435051956 17.97999040288373 24.364
653 158.315070414331 100.1761949747387 24.364
654 17.54780646531525 40.94736346659023 24.364
655 18.0737603034572 196.16311102891 24.364
656 250.9318541288739 144.4267074154937 24.364
657 275.0092748628043 218.5467513674209 24.364
658 216.6824347767655 137.7612340890186 24.364
659 153.3225299874539 80.36724718626574 24.364
660 38.8239535887263 105.4714410593706 24.364
661 216.1041054847359 201.965779176046 24.364
662 275.6801251346334 17.14398343446036 24.364
663 42.64603144497055 137.4776106960184 24.364
664 131.5487409546602 80.26482129346061 24.364
665 203.5542228429516 107.710042808093 24.364
666 158.1720081429506 134.336402904374 24.364
667 87.15562790816286 45.81731531896209 24.364
668 145.8638185897042 16.80651344251313 24.364
669 197.5534138542 170.3438984145473 24.364
670 277.000483697794 160.8218033712523 24.364
671 278.6744340637908 128.6970561724866 24.364
672 256.8746289696412 14.10218118725885 24.364
673 246.3169459139205 201.7742946019955 24.364
674 93.59180880401223 117.4842886969942 24.364
675 279.5964193881556 35.02250224604362 24.364
676 224.2814559182682 42.6493370535189 24.364
677 38.56276170164903 14.27141724133828 24.364
678 78.44274228500025 16.84606754108219 24.364
679 58.95449091992603 188.0987771811443 24.364
680 113.5396531263055 170.7149154739901 24.364
681 206.6471351266494 43.59528983281857 24.364
682 279.1186003195772 200.4844598256339 24.364
683 13.40342403327443 243.7412068192526 192.5517068986724
684 279.5965759948149 243.7412072705524 192.5517065822216
685 300.7742384354688 242.4475395968784 188.8115395762914
686 301.2080231287264 243.7121236259636 48.09529520317317
687 301.2080245280551 243.7121216152009 170.6327079299025
688 279.5965759523833 243.7412066874514 26.17629300890884
689 13.40342405165785 246.1877066460474 28.62279282047131
690 84.45311598088144 248 109.8315576836181
691 208.5554114590805 248 109.8362770277386
692 144.104617677476 248 97.63438217071675
693 125.6947302441118 248 140.82275255745
694 45.15449231357203 248 138.5135773495829
695 247.8455076863309 248 138.5135773495354
696 244.3595057556571 248 79.47520876588547
697 48.64049424429022 248 79.47520876584733
698 166.9475916046155 248 135.6921921115482
699 110.1620323721907 248 74.98503553070515
700 182.8379676276123 248 74.98503553073324
701 85.45833333315731 248 147.857622685185
702 207.5416666665112 248 147.8576226851833
703 217.3277137325299 248 69.08207024945838
704 75.67228626736127 248 69.08207024942928
705 138.5454773963145 248 70.15087695828178
706 181.6946214587424 248 103.9509181212429
707 115.1641063470988 248 104.6262990086921
708 32.08047389756747 248 110.3383873491606
709 260.9195261024348 248 110.3383873491534
710 146.5106641597447 248 154.122478000806
711 27.63063540282044 248 156.8015516454721
712 261.0829314331474 248 65.44949607988127
713 265.3693645971455 248 156.8015516454304
714 31.91706856682004 248 65.44949607987108
715 146.5749258810335 248 123.8235372063531
716 62.93969943978763 248 160.1973184526075
717 230.0603005599964 248 160.1973184525671
718 234.5834688241437 248 112.8456899796778
719 58.41690113621246 248 112.8454852324516
720 108.4731060758344 248 160.1433428028305
721 185.7215053759036 248 159.4809824293972
722 159.4849442843885 248 56.06521010245677
723 236.4639963283297 248 54.27077073515068
724 56.53600367162695 248 54.27077073513878
725 101.8681768527022 248 130.2068660251762
726 193.4572793099697 248 129.3735361715102
727 67.62763044052181 248 93.11219411812286
728 225.3738524594969 248 93.11301480001501
729 22.28303884190773 248 132.2251064599369
730 270.7169611580684 248 132.2251064599539
731 268.7985588098774 248 87.71489291128475
732 24.2014411901095 248 87.71489291129512
733 196.4128810158281 248 57.87264433910178
734 96.91517256941094 248 58.14992285017679
735 223.8514818726847 248 132.4273778981978
736 69.14851812711211 248 132.4273778982546
737 92.00647250279975 248 88.00414451513946
738 201.2643036828442 248 87.17181306366571
739 161.0033633196622 248 84.01549903922022
740 116.9909904822878 248 53.43766276321952
741 126.99405844827 248 86.84914841709893
742 128.894900507097 248 165.1884534111705
743 164.1765341952305 248 165.1734552483049
744 85.48416313580765 248 167.9525178007326
745 207.5780302963986 248 167.9180342327814
746 249.2652036170979 248 166.3496808735001
747 43.73479638276795 248 166.3496808735693
748 128.2548301068429 248 120.0036438525503
749 158.9172929537398 248 109.9166009207146
750 46.43688994240007 248 98.43707997257363
751 246.5632451057542 248 98.43715471231795
752 13.88982512341483 248 167.7860154579702
753 275.377728254114 248 52.0524218237946
754 279.1101748765582 248 167.7860154579619
755 17.62227174587957 248 52.05242182379184
756 180.1525294492932 248 50.35643361046037
757 212.1861567103072 248 50.25158518798722
758 80.8138432895839 248 50.25158518798784
759 12.77489524179137 248 146.8639999999736
760 280.2251047582053 248 146.8639999999736
761 280.2251047582034 248 71.86400000002637
762 12.77489524179073 248 71.86400000002637
763 256.3750000000002 248 46.90903486284243
764 36.625 248 46.90903486283605
765 136.7209490992649 248 49.67634996479162
$EndNodes
$Elements
1440
1 2 2 1 1 59 316 315
2 2 2 1 1 315 316 57
3 2 2 1 1 4 315 1
4 2 2 1 1 315 57 1
5 2 2 1 1 316 2 57
6 2 2 1 1 316 59 5
7 2 2 1 1 315 4 59
8 2 2 1 1 2 316 5
9 2 2 1 2 2 317 58
10 2 2 1 2 6 3 58
11 2 2 1 2 60 317 5
12 2 2 1 2 6 58 60
13 2 2 1 2 317 2 5
14 2 2 1 2 317 60 58
15 2 2 1 3 59 4 318
16 2 2 1 3 318 61 8
17 2 2 1 3 4 7 318
18 2 2 1 3 5 318 8
19 2 2 1 3 61 318 7
20 2 2 1 3 59 318 5
21 2 2 1 4 60 5 62
22 2 2 1 4 319 9 6
23 2 2 1 4 62 5 8
24 2 2 1 4 319 60 62
25 2 2 1 4 9 319 62
26 2 2 1 4 60 319 6
27 2 2 1 5 320 321 63
28 2 2 1 5 320 11 65
29 2 2 1 5 7 66 322
30 2 2 1 5 7 322 61
31 2 2 1 5 66 10 321
32 2 2 1 5 321 10 63
33 2 2 1 5 11 320 63
34 2 2 1 5 320 65 322
35 2 2 1 5 322 65 8
36 2 2 1 5 322 8 61
37 2 2 1 5 322 66 321
38 2 2 1 5 320 322 321
39 2 2 1 6 67 323 12
40 2 2 1 6 324 11 64
41 2 2 1 6 11 324 65
42 2 2 1 6 323 324 64
43 2 2 1 6 323 64 12
44 2 2 1 6 62 324 323
45 2 2 1 6 8 324 62
46 2 2 1 6 65 324 8
47 2 2 1 6 323 67 9
48 2 2 1 6 62 323 9
49 2 2 1 7 325 68 326
50 2 2 1 7 326 68 14
51 2 2 1 7 325 13 68
52 2 2 1 7 10 72 325
53 2 2 1 7 72 13 325
54 2 2 1 7 10 325 63
55 2 2 1 7 71 326 14
56 2 2 1 7 326 71 11
57 2 2 1 7 326 11 63
58 2 2 1 7 326 63 325
59 2 2 1 8 327 70 328
60 2 2 1 8 328 70 73
61 2 2 1 8 11 71 327
62 2 2 1 8 11 327 64
63 2 2 1 8 64 327 328
64 2 2 1 8 70 15 73
65 2 2 1 8 14 327 71
66 2 2 1 8 327 14 69
67 2 2 1 8 327 69 70
68 2 2 1 8 328 12 64
69 2 2 1 8 73 12 328
70 2 2 1 9 329 74 330
71 2 2 1 9 330 74 75
72 2 2 1 9 16 329 79
73 2 2 1 9 331 14 68
74 2 2 1 9 16 74 329
75 2 2 1 9 331 329 330
76 2 2 1 9 13 79 332
77 2 2 1 9 13 332 68
78 2 2 1 9 331 68 332
79 2 2 1 9 17 330 75
80 2 2 1 9 331 330 78
81 2 2 1 9 332 329 331
82 2 2 1 9 330 17 78
83 2 2 1 9 332 79 329
84 2 2 1 9 78 14 331
85 2 2 1 10 333 335 334
86 2 2 1 10 333 334 78
87 2 2 1 10 18 80 336
88 2 2 1 10 80 15 70
89 2 2 1 10 18 336 77
90 2 2 1 10 335 80 70
91 2 2 1 10 17 333 78
92 2 2 1 10 333 17 76
93 2 2 1 10 334 335 69
94 2 2 1 10 14 334 69
95 2 2 1 10 69 335 70
96 2 2 1 10 14 78 334
97 2 2 1 10 336 80 335
98 2 2 1 10 333 76 77
99 2 2 1 10 336 333 77
100 2 2 1 10 333 336 335
101 2 2 1 11 85 337 20
102 2 2 1 11 20 337 82
103 2 2 1 11 86 19 81
104 2 2 1 11 338 337 85
105 2 2 1 11 75 338 85
106 2 2 1 11 74 16 86
107 2 2 1 11 85 17 75
108 2 2 1 11 338 81 337
109 2 2 1 11 338 86 81
110 2 2 1 11 86 338 74
111 2 2 1 11 338 75 74
112 2 2 1 11 337 81 82
113 2 2 1 12 77 340 339
114 2 2 1 12 77 339 87
115 2 2 1 12 341 84 340
116 2 2 1 12 87 18 77
117 2 2 1 12 340 342 341
118 2 2 1 12 76 342 340
119 2 2 1 12 340 84 339
120 2 2 1 12 20 341 85
121 2 2 1 12 341 20 83
122 2 2 1 12 84 341 83
123 2 2 1 12 341 342 85
124 2 2 1 12 17 85 342
125 2 2 1 12 17 342 76
126 2 2 1 12 339 84 21
127 2 2 1 12 87 339 21
128 2 2 1 12 76 340 77
129 2 2 1 13 95 22 88
130 2 2 1 13 94 343 23
131 2 2 1 13 23 343 90
132 2 2 1 13 344 345 88
133 2 2 1 13 346 20 82
134 2 2 1 13 81 19 95
135 2 2 1 13 345 95 88
136 2 2 1 13 344 88 89
137 2 2 1 13 94 20 346
138 2 2 1 13 346 344 343
139 2 2 1 13 346 343 94
140 2 2 1 13 346 345 344
141 2 2 1 13 89 343 344
142 2 2 1 13 90 343 89
143 2 2 1 13 345 346 82
144 2 2 1 13 95 345 81
145 2 2 1 13 345 82 81
146 2 2 1 14 347 92 348
147 2 2 1 14 92 347 91
148 2 2 1 14 349 350 84
149 2 2 1 14 84 350 96
150 2 2 1 14 94 347 348
151 2 2 1 14 96 21 84
152 2 2 1 14 83 349 84
153 2 2 1 14 92 349 348
154 2 2 1 14 348 349 83
155 2 2 1 14 349 92 93
156 2 2 1 14 20 348 83
157 2 2 1 14 347 23 91
158 2 2 1 14 94 348 20
159 2 2 1 14 350 93 24
160 2 2 1 14 23 347 94
161 2 2 1 14 93 350 349
162 2 2 1 14 96 350 24
163 2 2 1 15 351 97 352
164 2 2 1 15 352 97 98
165 2 2 1 15 353 354 99
166 2 2 1 15 353 99 100
167 2 2 1 15 107 88 22
168 2 2 1 15 354 352 99
169 2 2 1 15 99 352 98
170 2 2 1 15 355 354 356
171 2 2 1 15 355 356 90
172 2 2 1 15 357 97 351
173 2 2 1 15 357 351 107
174 2 2 1 15 354 355 352
175 2 2 1 15 23 356 105
176 2 2 1 15 354 106 105
177 2 2 1 15 107 351 88
178 2 2 1 15 89 351 355
179 2 2 1 15 26 353 100
180 2 2 1 15 351 89 88
181 2 2 1 15 352 355 351
182 2 2 1 15 353 26 106
183 2 2 1 15 357 107 25
184 2 2 1 15 97 357 25
185 2 2 1 15 355 90 89
186 2 2 1 15 106 354 353
187 2 2 1 15 356 23 90
188 2 2 1 15 356 354 105
189 2 2 1 16 358 359 92
190 2 2 1 16 358 92 91
191 2 2 1 16 360 93 359
192 2 2 1 16 360 27 108
193 2 2 1 16 359 93 92
194 2 2 1 16 104 27 360
195 2 2 1 16 102 361 101
196 2 2 1 16 358 362 102
197 2 2 1 16 104 359 103
198 2 2 1 16 360 359 104
199 2 2 1 16 361 105 106
200 2 2 1 16 360 108 24
201 2 2 1 16 93 360 24
202 2 2 1 16 361 362 105
203 2 2 1 16 358 102 103
204 2 2 1 16 103 359 358
205 2 2 1 16 361 26 101
206 2 2 1 16 362 361 102
207 2 2 1 16 362 358 91
208 2 2 1 16 26 361 106
209 2 2 1 16 23 362 91
210 2 2 1 16 362 23 105
211 2 2 1 17 363 365 364
212 2 2 1 17 363 364 119
213 2 2 1 17 120 119 364
214 2 2 1 17 99 367 366
215 2 2 1 17 112 364 365
216 2 2 1 17 112 365 111
217 2 2 1 17 119 26 363
218 2 2 1 17 363 26 100
219 2 2 1 17 109 368 28
220 2 2 1 17 368 121 28
221 2 2 1 17 366 367 111
222 2 2 1 17 364 29 120
223 2 2 1 17 29 364 113
224 2 2 1 17 367 369 110
225 2 2 1 17 109 110 369
226 2 2 1 17 364 112 113
227 2 2 1 17 366 111 365
228 2 2 1 17 363 366 365
229 2 2 1 17 367 110 111
230 2 2 1 17 369 367 98
231 2 2 1 17 98 97 369
232 2 2 1 17 100 366 363
233 2 2 1 17 367 99 98
234 2 2 1 17 366 100 99
235 2 2 1 17 368 369 97
236 2 2 1 17 368 97 25
237 2 2 1 17 369 368 109
238 2 2 1 17 368 25 121
239 2 2 1 18 370 122 27
240 2 2 1 18 115 371 114
241 2 2 1 18 370 104 372
242 2 2 1 18 104 370 27
243 2 2 1 18 115 373 371
244 2 2 1 18 374 373 115
245 2 2 1 18 371 119 120
246 2 2 1 18 371 373 119
247 2 2 1 18 371 120 29
248 2 2 1 18 117 375 116
249 2 2 1 18 375 374 116
250 2 2 1 18 101 374 102
251 2 2 1 18 374 375 102
252 2 2 1 18 372 117 118
253 2 2 1 18 118 370 372
254 2 2 1 18 373 374 101
255 2 2 1 18 374 115 116
256 2 2 1 18 102 375 103
257 2 2 1 18 372 375 117
258 2 2 1 18 103 372 104
259 2 2 1 18 372 103 375
260 2 2 1 18 370 118 30
261 2 2 1 18 371 29 114
262 2 2 1 18 122 370 30
263 2 2 1 18 376 26 119
264 2 2 1 18 376 373 101
265 2 2 1 18 26 376 101
266 2 2 1 18 373 376 119
267 2 2 1 19 111 378 377
268 2 2 1 19 379 111 110
269 2 2 1 19 380 381 127
270 2 2 1 19 380 127 128
271 2 2 1 19 381 382 126
272 2 2 1 19 126 382 377
273 2 2 1 19 135 29 381
274 2 2 1 19 381 29 113
275 2 2 1 19 136 383 28
276 2 2 1 19 383 109 28
277 2 2 1 19 381 113 382
278 2 2 1 19 111 379 378
279 2 2 1 19 113 112 382
280 2 2 1 19 377 382 112
281 2 2 1 19 384 123 124
282 2 2 1 19 377 112 111
283 2 2 1 19 379 384 124
284 2 2 1 19 379 124 378
285 2 2 1 19 125 377 378
286 2 2 1 19 32 380 128
287 2 2 1 19 126 377 125
288 2 2 1 19 383 136 31
289 2 2 1 19 123 383 31
290 2 2 1 19 378 124 125
291 2 2 1 19 135 380 32
292 2 2 1 19 135 381 380
293 2 2 1 19 381 126 127
294 2 2 1 19 384 379 110
295 2 2 1 19 109 384 110
296 2 2 1 19 383 384 109
297 2 2 1 19 384 383 123
298 2 2 1 20 385 116 386
299 2 2 1 20 386 131 132
300 2 2 1 20 386 116 115
301 2 2 1 20 114 131 115
302 2 2 1 20 386 115 131
303 2 2 1 20 130 131 114
304 2 2 1 20 385 133 387
305 2 2 1 20 134 387 133
306 2 2 1 20 385 117 116
307 2 2 1 20 129 130 388
308 2 2 1 20 389 388 135
309 2 2 1 20 129 388 389
310 2 2 1 20 385 387 117
311 2 2 1 20 386 132 385
312 2 2 1 20 385 132 133
313 2 2 1 20 114 388 130
314 2 2 1 20 387 118 117
315 2 2 1 20 137 390 33
316 2 2 1 20 134 390 387
317 2 2 1 20 390 134 33
318 2 2 1 20 32 389 135
319 2 2 1 20 390 137 30
320 2 2 1 20 387 390 118
321 2 2 1 20 118 390 30
322 2 2 1 20 135 388 29
323 2 2 1 20 388 114 29
324 2 2 1 20 129 389 32
325 2 2 1 21 152 32 128
326 2 2 1 21 143 152 391
327 2 2 1 21 391 152 128
328 2 2 1 21 392 141 393
329 2 2 1 21 392 393 126
330 2 2 1 21 394 139 395
331 2 2 1 21 394 395 124
332 2 2 1 21 152 144 35
333 2 2 1 21 395 140 392
334 2 2 1 21 395 392 125
335 2 2 1 21 138 394 396
336 2 2 1 21 142 391 393
337 2 2 1 21 393 391 127
338 2 2 1 21 143 144 152
339 2 2 1 21 153 396 31
340 2 2 1 21 396 394 123
341 2 2 1 21 396 123 31
342 2 2 1 21 394 124 123
343 2 2 1 21 396 153 34
344 2 2 1 21 138 396 34
345 2 2 1 21 393 127 126
346 2 2 1 21 393 141 142
347 2 2 1 21 392 140 141
348 2 2 1 21 392 126 125
349 2 2 1 21 391 142 143
350 2 2 1 21 391 128 127
351 2 2 1 21 395 125 124
352 2 2 1 21 395 139 140
353 2 2 1 21 394 138 139
354 2 2 1 22 397 32 152
355 2 2 1 22 397 145 398
356 2 2 1 22 398 32 397
357 2 2 1 22 398 145 146
358 2 2 1 22 129 398 146
359 2 2 1 22 398 129 32
360 2 2 1 22 145 397 35
361 2 2 1 22 35 397 152
362 2 2 1 22 147 148 130
363 2 2 1 22 130 148 131
364 2 2 1 22 146 147 129
365 2 2 1 22 129 147 130
366 2 2 1 22 150 151 133
367 2 2 1 22 33 399 36
368 2 2 1 22 151 399 134
369 2 2 1 22 399 151 36
370 2 2 1 22 132 150 133
371 2 2 1 22 132 149 150
372 2 2 1 22 399 33 134
373 2 2 1 22 133 151 134
374 2 2 1 22 131 149 132
375 2 2 1 22 148 149 131
376 2 2 1 23 160 144 159
377 2 2 1 23 159 144 143
378 2 2 1 23 38 35 144
379 2 2 1 23 154 138 34
380 2 2 1 23 158 142 157
381 2 2 1 23 157 142 141
382 2 2 1 23 157 141 156
383 2 2 1 23 156 141 140
384 2 2 1 23 159 143 158
385 2 2 1 23 158 143 142
386 2 2 1 23 154 155 139
387 2 2 1 23 154 139 138
388 2 2 1 23 155 156 140
389 2 2 1 23 154 34 37
390 2 2 1 23 155 140 139
391 2 2 1 23 144 160 38
392 2 2 1 24 167 151 150
393 2 2 1 24 35 38 161
394 2 2 1 24 36 151 168
395 2 2 1 24 35 161 145
396 2 2 1 24 165 149 148
397 2 2 1 24 166 149 165
398 2 2 1 24 164 148 147
399 2 2 1 24 165 148 164
400 2 2 1 24 168 39 36
401 2 2 1 24 147 146 163
402 2 2 1 24 150 149 166
403 2 2 1 24 163 146 162
404 2 2 1 24 164 147 163
405 2 2 1 24 168 151 167
406 2 2 1 24 162 146 145
407 2 2 1 24 166 167 150
408 2 2 1 24 145 161 162
409 2 2 4 25 423 401 437
410 2 2 4 25 402 425 436
411 2 2 4 25 166 415 427
412 2 2 4 25 418 403 466
413 2 2 4 25 416 431 463
414 2 2 4 25 407 423 437
415 2 2 4 25 431 417 465
416 2 2 4 25 431 416 450
417 2 2 4 25 417 431 452
418 2 2 4 25 425 408 436
419 2 2 4 25 158 157 422
420 2 2 4 25 422 157 443
421 2 2 4 25 415 166 448
422 2 2 4 25 401 423 459
423 2 2 4 25 403 424 466
424 2 2 4 25 425 402 460
425 2 2 4 25 426 404 440
426 2 2 4 25 432 418 466
427 2 2 4 25 404 426 462
428 2 2 4 25 403 418 447
429 2 2 4 25 403 422 438
430 2 2 4 25 407 422 443
431 2 2 4 25 418 432 461
432 2 2 4 25 156 155 423
433 2 2 4 25 178 179 425
434 2 2 4 25 423 410 459
435 2 2 4 25 180 181 426
436 2 2 4 25 411 425 460
437 2 2 4 25 422 407 438
438 2 2 4 25 422 403 447
439 2 2 4 25 428 171 450
440 2 2 4 25 174 429 452
441 2 2 4 25 426 413 462
442 2 2 4 25 408 426 440
443 2 2 4 25 431 405 463
444 2 2 4 25 425 179 444
445 2 2 4 25 405 431 465
446 2 2 4 25 180 426 444
447 2 2 4 25 448 432 467
448 2 2 4 25 406 432 466
449 2 2 4 25 160 159 433
450 2 2 4 25 409 422 447
451 2 2 4 25 432 406 467
452 2 2 4 25 156 423 443
453 2 2 4 25 167 166 427
454 2 2 4 25 416 428 450
455 2 2 4 25 429 417 452
456 2 2 4 25 408 425 444
457 2 2 4 25 170 171 428
458 2 2 4 25 174 175 429
459 2 2 4 25 426 408 444
460 2 2 4 25 423 407 443
461 2 2 4 25 38 160 433
462 2 2 4 25 462 415 470
463 2 2 4 25 427 415 462
464 2 2 4 25 161 38 433
465 2 2 4 25 410 423 451
466 2 2 4 25 428 416 459
467 2 2 4 25 422 409 445
468 2 2 4 25 424 403 474
469 2 2 4 25 163 430 461
470 2 2 4 25 417 429 460
471 2 2 4 25 459 416 472
472 2 2 4 25 158 422 445
473 2 2 4 25 423 155 451
474 2 2 4 25 417 460 473
475 2 2 4 25 425 411 449
476 2 2 4 25 409 433 445
477 2 2 4 25 413 426 453
478 2 2 4 25 163 162 430
479 2 2 4 25 435 406 466
480 2 2 4 25 424 435 466
481 2 2 4 25 426 181 453
482 2 2 4 25 178 425 449
483 2 2 4 25 418 430 447
484 2 2 4 25 433 409 446
485 2 2 4 25 37 169 439
486 2 2 4 25 430 418 461
487 2 2 4 25 176 40 441
488 2 2 4 25 154 37 439
489 2 2 4 25 40 177 441
490 2 2 4 25 39 168 442
491 2 2 4 25 182 39 442
492 2 2 4 25 405 434 463
493 2 2 4 25 434 405 465
494 2 2 4 25 434 420 463
495 2 2 4 25 421 434 465
496 2 2 4 25 172 173 431
497 2 2 4 25 406 435 467
498 2 2 4 25 165 164 432
499 2 2 4 25 435 419 467
500 2 2 4 25 162 161 446
501 2 2 4 25 166 165 448
502 2 2 4 25 415 448 467
503 2 2 4 25 172 431 450
504 2 2 4 25 431 173 452
505 2 2 4 25 432 164 461
506 2 2 4 25 430 162 446
507 2 2 4 25 409 430 446
508 2 2 4 25 414 436 440
509 2 2 4 25 474 412 475
510 2 2 4 25 433 159 445
511 2 2 4 25 157 156 443
512 2 2 4 25 437 412 438
513 2 2 4 25 167 427 456
514 2 2 4 25 179 180 444
515 2 2 4 25 161 433 446
516 2 2 4 25 169 170 457
517 2 2 4 25 427 413 456
518 2 2 4 25 404 462 470
519 2 2 4 25 175 176 458
520 2 2 4 25 155 154 451
521 2 2 4 25 469 414 471
522 2 2 4 25 177 178 449
523 2 2 4 25 159 158 445
524 2 2 4 25 170 428 457
525 2 2 4 25 168 167 456
526 2 2 4 25 429 175 458
527 2 2 4 25 181 182 453
528 2 2 4 25 171 172 450
529 2 2 4 25 173 174 452
530 2 2 4 25 428 410 457
531 2 2 4 25 411 429 458
532 2 2 4 25 434 400 455
533 2 2 4 25 424 474 475
534 2 2 4 25 435 400 454
535 2 2 4 25 420 434 455
536 2 2 4 25 414 440 464
537 2 2 4 25 419 435 454
538 2 2 4 25 164 163 461
539 2 2 4 25 413 427 462
540 2 2 4 25 401 459 472
541 2 2 4 25 410 428 459
542 2 2 4 25 460 402 473
543 2 2 4 25 429 411 460
544 2 2 4 25 430 409 447
545 2 2 4 25 421 469 471
546 2 2 4 25 165 432 448
547 2 2 4 25 438 412 474
548 2 2 4 25 407 437 438
549 2 2 4 25 436 408 440
550 2 2 4 25 420 455 468
551 2 2 4 25 455 412 468
552 2 2 4 25 400 434 471
553 2 2 4 25 434 421 471
554 2 2 4 25 419 454 464
555 2 2 4 25 454 414 464
556 2 2 4 25 400 435 475
557 2 2 4 25 435 424 475
558 2 2 4 25 412 455 475
559 2 2 4 25 439 169 457
560 2 2 4 25 414 454 471
561 2 2 4 25 420 468 472
562 2 2 4 25 176 441 458
563 2 2 4 25 154 439 451
564 2 2 4 25 469 421 473
565 2 2 4 25 442 168 456
566 2 2 4 25 441 177 449
567 2 2 4 25 468 401 472
568 2 2 4 25 440 404 464
569 2 2 4 25 411 441 449
570 2 2 4 25 182 442 453
571 2 2 4 25 439 410 451
572 2 2 4 25 402 469 473
573 2 2 4 25 436 414 469
574 2 2 4 25 442 413 453
575 2 2 4 25 402 436 469
576 2 2 4 25 437 401 468
577 2 2 4 25 412 437 468
578 2 2 4 25 410 439 457
579 2 2 4 25 413 442 456
580 2 2 4 25 441 411 458
581 2 2 4 25 419 464 470
582 2 2 4 25 464 404 470
583 2 2 4 25 403 438 474
584 2 2 4 25 467 419 470
585 2 2 4 25 415 467 470
586 2 2 4 25 454 400 471
587 2 2 4 25 463 420 472
588 2 2 4 25 455 400 475
589 2 2 4 25 421 465 473
590 2 2 4 25 416 463 472
591 2 2 4 25 465 417 473
592 2 2 2 26 57 183 1
593 2 2 2 26 184 41 476
594 2 2 2 26 58 184 476
595 2 2 2 26 41 183 476
596 2 2 2 26 184 58 3
597 2 2 2 26 183 57 476
598 2 2 2 26 2 58 476
599 2 2 2 26 57 2 476
600 2 2 3 27 51 38 160
601 2 2 3 27 154 37 279
602 2 2 3 27 51 229 38
603 2 2 3 27 229 161 38
604 2 2 3 27 219 39 168
605 2 2 3 27 51 160 287
606 2 2 3 27 280 155 154
607 2 2 3 27 280 154 279
608 2 2 3 27 155 282 156
609 2 2 3 27 281 155 280
610 2 2 3 27 282 155 281
611 2 2 3 27 283 157 156
612 2 2 3 27 282 283 156
613 2 2 3 27 284 158 157
614 2 2 3 27 283 284 157
615 2 2 3 27 286 159 158
616 2 2 3 27 158 284 285
617 2 2 3 27 158 285 286
618 2 2 3 27 287 160 159
619 2 2 3 27 287 159 286
620 2 2 3 27 228 162 161
621 2 2 3 27 161 229 228
622 2 2 3 27 227 163 162
623 2 2 3 27 162 228 227
624 2 2 3 27 225 164 163
625 2 2 3 27 225 163 226
626 2 2 3 27 226 163 227
627 2 2 3 27 224 165 164
628 2 2 3 27 164 225 224
629 2 2 3 27 223 166 165
630 2 2 3 27 224 223 165
631 2 2 3 27 166 221 167
632 2 2 3 27 166 222 221
633 2 2 3 27 166 223 222
634 2 2 3 27 220 168 167
635 2 2 3 27 221 220 167
636 2 2 3 27 220 219 168
637 2 2 3 27 279 37 43
638 2 2 3 27 39 219 47
639 2 2 3 28 293 284 292
640 2 2 3 28 292 284 283
641 2 2 3 28 291 292 282
642 2 2 3 28 282 292 283
643 2 2 3 28 477 296 52
644 2 2 3 28 230 477 52
645 2 2 3 28 288 478 44
646 2 2 3 28 478 185 44
647 2 2 3 28 293 294 284
648 2 2 3 28 289 290 280
649 2 2 3 28 288 289 280
650 2 2 3 28 280 279 288
651 2 2 3 28 287 477 51
652 2 2 3 28 477 287 296
653 2 2 3 28 477 230 51
654 2 2 3 28 478 279 43
655 2 2 3 28 279 478 288
656 2 2 3 28 185 478 43
657 2 2 3 28 295 296 287
658 2 2 3 28 295 287 286
659 2 2 3 28 295 286 285
660 2 2 3 28 291 282 290
661 2 2 3 28 290 282 281
662 2 2 3 28 294 295 285
663 2 2 3 28 294 285 284
664 2 2 3 28 290 281 280
665 2 2 3 29 492 188 515
666 2 2 3 29 188 492 514
667 2 2 3 29 233 491 517
668 2 2 3 29 491 233 516
669 2 2 3 29 499 487 510
670 2 2 3 29 490 506 513
671 2 2 3 29 484 499 510
672 2 2 3 29 506 486 513
673 2 2 3 29 483 492 504
674 2 2 3 29 491 485 508
675 2 2 3 29 507 480 519
676 2 2 3 29 507 519 524
677 2 2 3 29 485 491 516
678 2 2 3 29 492 483 514
679 2 2 3 29 188 189 515
680 2 2 3 29 187 188 514
681 2 2 3 29 292 496 502
682 2 2 3 29 497 301 503
683 2 2 3 29 234 233 517
684 2 2 3 29 233 232 516
685 2 2 3 29 482 493 507
686 2 2 3 29 508 480 513
687 2 2 3 29 493 482 511
688 2 2 3 29 479 493 511
689 2 2 3 29 493 479 512
690 2 2 3 29 496 482 502
691 2 2 3 29 481 497 503
692 2 2 3 29 293 292 502
693 2 2 3 29 301 302 503
694 2 2 3 29 512 481 528
695 2 2 3 29 493 512 528
696 2 2 3 29 479 510 512
697 2 2 3 29 510 487 512
698 2 2 3 29 290 289 498
699 2 2 3 29 298 299 499
700 2 2 3 29 508 513 525
701 2 2 3 29 292 291 496
702 2 2 3 29 300 301 497
703 2 2 3 29 480 507 509
704 2 2 3 29 479 504 510
705 2 2 3 29 480 509 513
706 2 2 3 29 295 294 505
707 2 2 3 29 303 304 506
708 2 2 3 29 509 490 513
709 2 2 3 29 494 483 526
710 2 2 3 29 484 495 527
711 2 2 3 29 500 485 516
712 2 2 3 29 486 501 517
713 2 2 3 29 483 498 526
714 2 2 3 29 499 484 527
715 2 2 3 29 483 504 533
716 2 2 3 29 483 494 514
717 2 2 3 29 495 484 515
718 2 2 3 29 504 518 533
719 2 2 3 29 485 500 530
720 2 2 3 29 501 486 531
721 2 2 3 29 505 485 530
722 2 2 3 29 486 506 531
723 2 2 3 29 496 291 520
724 2 2 3 29 300 497 521
725 2 2 3 29 288 494 526
726 2 2 3 29 495 297 527
727 2 2 3 29 517 491 525
728 2 2 3 29 486 517 525
729 2 2 3 29 488 496 520
730 2 2 3 29 497 487 521
731 2 2 3 29 509 507 528
732 2 2 3 29 505 294 522
733 2 2 3 29 303 506 523
734 2 2 3 29 489 505 522
735 2 2 3 29 506 490 523
736 2 2 3 29 508 485 532
737 2 2 3 29 290 498 520
738 2 2 3 29 499 299 521
739 2 2 3 29 498 488 520
740 2 2 3 29 487 499 521
741 2 2 3 29 498 289 526
742 2 2 3 29 298 499 527
743 2 2 3 29 494 288 534
744 2 2 3 29 297 495 535
745 2 2 3 29 489 502 524
746 2 2 3 29 502 482 524
747 2 2 3 29 482 496 542
748 2 2 3 29 497 481 543
749 2 2 3 29 500 296 530
750 2 2 3 29 305 501 531
751 2 2 3 29 519 508 532
752 2 2 3 29 289 288 526
753 2 2 3 29 297 298 527
754 2 2 3 29 510 504 529
755 2 2 3 29 504 479 518
756 2 2 3 29 502 489 522
757 2 2 3 29 490 503 523
758 2 2 3 29 500 516 538
759 2 2 3 29 517 501 539
760 2 2 3 29 293 502 522
761 2 2 3 29 503 302 523
762 2 2 3 29 479 511 518
763 2 2 3 29 511 488 518
764 2 2 3 29 496 488 542
765 2 2 3 29 487 497 543
766 2 2 3 29 515 484 529
767 2 2 3 29 492 515 529
768 2 2 3 29 498 483 533
769 2 2 3 29 296 500 540
770 2 2 3 29 501 305 541
771 2 2 3 29 488 498 533
772 2 2 3 29 481 503 544
773 2 2 3 29 296 295 530
774 2 2 3 29 304 305 531
775 2 2 3 29 519 489 524
776 2 2 3 29 503 490 544
777 2 2 3 29 480 508 519
778 2 2 3 29 295 505 530
779 2 2 3 29 506 304 531
780 2 2 3 29 505 489 532
781 2 2 3 29 504 492 529
782 2 2 3 29 485 505 532
783 2 2 3 29 484 510 529
784 2 2 3 29 514 494 536
785 2 2 3 29 495 515 537
786 2 2 3 29 507 493 528
787 2 2 3 29 482 507 524
788 2 2 3 29 291 290 520
789 2 2 3 29 299 300 521
790 2 2 3 29 491 508 525
791 2 2 3 29 294 293 522
792 2 2 3 29 302 303 523
793 2 2 3 29 511 482 542
794 2 2 3 29 481 512 543
795 2 2 3 29 44 186 534
796 2 2 3 29 190 45 535
797 2 2 3 29 488 511 542
798 2 2 3 29 512 487 543
799 2 2 3 29 490 509 544
800 2 2 3 29 231 52 540
801 2 2 3 29 53 235 541
802 2 2 3 29 481 509 528
803 2 2 3 29 288 44 534
804 2 2 3 29 45 297 535
805 2 2 3 29 513 486 525
806 2 2 3 29 509 481 544
807 2 2 3 29 52 296 540
808 2 2 3 29 305 53 541
809 2 2 3 29 232 231 538
810 2 2 3 29 235 234 539
811 2 2 3 29 186 187 536
812 2 2 3 29 189 190 537
813 2 2 3 29 500 538 540
814 2 2 3 29 539 501 541
815 2 2 3 29 538 231 540
816 2 2 3 29 235 539 541
817 2 2 3 29 518 488 533
818 2 2 3 29 187 514 536
819 2 2 3 29 515 189 537
820 2 2 3 29 494 534 536
821 2 2 3 29 535 495 537
822 2 2 3 29 534 186 536
823 2 2 3 29 190 535 537
824 2 2 3 29 516 232 538
825 2 2 3 29 234 517 539
826 2 2 3 29 489 519 532
827 2 2 3 30 301 310 311
828 2 2 3 30 301 311 302
829 2 2 3 30 545 314 54
830 2 2 3 30 236 545 54
831 2 2 3 30 306 546 46
832 2 2 3 30 546 191 46
833 2 2 3 30 308 309 300
834 2 2 3 30 300 299 308
835 2 2 3 30 300 310 301
836 2 2 3 30 309 310 300
837 2 2 3 30 305 545 53
838 2 2 3 30 545 305 314
839 2 2 3 30 545 236 53
840 2 2 3 30 546 297 45
841 2 2 3 30 297 546 306
842 2 2 3 30 191 546 45
843 2 2 3 30 305 304 314
844 2 2 3 30 313 314 304
845 2 2 3 30 312 313 304
846 2 2 3 30 312 304 303
847 2 2 3 30 306 307 297
848 2 2 3 30 311 312 303
849 2 2 3 30 311 303 302
850 2 2 3 30 298 297 307
851 2 2 3 30 299 298 307
852 2 2 3 30 307 308 299
853 2 2 3 31 210 50 607
854 2 2 3 31 42 218 608
855 2 2 3 31 559 576 618
856 2 2 3 31 576 552 618
857 2 2 3 31 599 551 611
858 2 2 3 31 50 247 607
859 2 2 3 31 202 42 608
860 2 2 3 31 576 196 668
861 2 2 3 31 576 559 602
862 2 2 3 31 196 576 602
863 2 2 3 31 552 576 643
864 2 2 3 31 194 583 610
865 2 2 3 31 245 589 633
866 2 2 3 31 568 599 611
867 2 2 3 31 246 245 633
868 2 2 3 31 594 567 612
869 2 2 3 31 548 577 609
870 2 2 3 31 579 547 606
871 2 2 3 31 550 594 612
872 2 2 3 31 613 240 632
873 2 2 3 31 243 242 585
874 2 2 3 31 584 555 623
875 2 2 3 31 577 548 605
876 2 2 3 31 580 557 622
877 2 2 3 31 555 584 610
878 2 2 3 31 555 587 647
879 2 2 3 31 553 591 658
880 2 2 3 31 591 553 630
881 2 2 3 31 555 586 623
882 2 2 3 31 603 571 609
883 2 2 3 31 558 603 609
884 2 2 3 31 547 579 649
885 2 2 3 31 586 308 623
886 2 2 3 31 572 613 632
887 2 2 3 31 587 598 647
888 2 2 3 31 586 560 651
889 2 2 3 31 214 213 590
890 2 2 3 31 557 580 625
891 2 2 3 31 551 599 634
892 2 2 3 31 580 622 658
893 2 2 3 31 560 582 615
894 2 2 3 31 560 615 651
895 2 2 3 31 549 592 619
896 2 2 3 31 622 553 658
897 2 2 3 31 592 564 619
898 2 2 3 31 590 213 641
899 2 2 3 31 582 560 630
900 2 2 3 31 243 585 604
901 2 2 3 31 583 194 648
902 2 2 3 31 193 194 610
903 2 2 3 31 554 592 650
904 2 2 3 31 587 555 676
905 2 2 3 31 582 630 656
906 2 2 3 31 214 590 601
907 2 2 3 31 599 578 634
908 2 2 3 31 576 588 643
909 2 2 3 31 198 588 668
910 2 2 3 31 630 553 656
911 2 2 3 31 564 585 627
912 2 2 3 31 607 247 633
913 2 2 3 31 308 307 623
914 2 2 3 31 585 242 627
915 2 2 3 31 587 548 598
916 2 2 3 31 585 564 638
917 2 2 3 31 622 557 635
918 2 2 3 31 554 636 638
919 2 2 3 31 196 197 668
920 2 2 3 31 636 585 638
921 2 2 3 31 591 560 598
922 2 2 3 31 548 591 598
923 2 2 3 31 548 587 605
924 2 2 3 31 620 563 640
925 2 2 3 31 640 551 667
926 2 2 3 31 613 572 619
927 2 2 3 31 564 613 619
928 2 2 3 31 555 610 676
929 2 2 3 31 247 246 633
930 2 2 3 31 591 571 658
931 2 2 3 31 592 554 638
932 2 2 3 31 648 559 681
933 2 2 3 31 310 615 671
934 2 2 3 31 600 561 614
935 2 2 3 31 566 600 614
936 2 2 3 31 569 594 637
937 2 2 3 31 567 590 641
938 2 2 3 31 605 587 681
939 2 2 3 31 637 581 646
940 2 2 3 31 551 614 667
941 2 2 3 31 602 559 648
942 2 2 3 31 588 561 643
943 2 2 3 31 559 605 681
944 2 2 3 31 599 556 644
945 2 2 3 31 578 599 644
946 2 2 3 31 590 556 660
947 2 2 3 31 579 606 653
948 2 2 3 31 308 586 651
949 2 2 3 31 212 211 595
950 2 2 3 31 217 216 596
951 2 2 3 31 560 586 647
952 2 2 3 31 609 577 653
953 2 2 3 31 197 198 668
954 2 2 3 31 574 620 640
955 2 2 3 31 561 588 652
956 2 2 3 31 200 201 620
957 2 2 3 31 586 555 647
958 2 2 3 31 592 570 650
959 2 2 3 31 593 565 636
960 2 2 3 31 577 618 659
961 2 2 3 31 594 550 637
962 2 2 3 31 593 550 626
963 2 2 3 31 569 637 646
964 2 2 3 31 565 593 626
965 2 2 3 31 237 54 657
966 2 2 3 31 215 214 601
967 2 2 3 31 588 576 668
968 2 2 3 31 310 309 615
969 2 2 3 31 594 569 644
970 2 2 3 31 615 582 671
971 2 2 3 31 558 609 653
972 2 2 3 31 239 238 597
973 2 2 3 31 241 240 613
974 2 2 3 31 577 605 618
975 2 2 3 31 601 590 660
976 2 2 3 31 200 620 678
977 2 2 3 31 610 583 676
978 2 2 3 31 566 649 664
979 2 2 3 31 600 566 664
980 2 2 3 31 54 314 657
981 2 2 3 31 573 622 635
982 2 2 3 31 593 636 680
983 2 2 3 31 619 572 625
984 2 2 3 31 588 198 652
985 2 2 3 31 589 565 626
986 2 2 3 31 593 581 637
987 2 2 3 31 589 245 628
988 2 2 3 31 565 589 628
989 2 2 3 31 556 594 644
990 2 2 3 31 560 591 630
991 2 2 3 31 562 589 679
992 2 2 3 31 589 562 633
993 2 2 3 31 561 600 643
994 2 2 3 31 567 595 612
995 2 2 3 31 596 568 611
996 2 2 3 31 595 562 612
997 2 2 3 31 563 596 611
998 2 2 3 31 618 552 659
999 2 2 3 31 313 312 621
1000 2 2 3 31 244 243 604
1001 2 2 3 31 646 547 674
1002 2 2 3 31 619 625 669
1003 2 2 3 31 547 624 674
1004 2 2 3 31 590 567 663
1005 2 2 3 31 591 548 665
1006 2 2 3 31 571 591 665
1007 2 2 3 31 195 196 602
1008 2 2 3 31 606 558 653
1009 2 2 3 31 564 592 638
1010 2 2 3 31 556 590 663
1011 2 2 3 31 592 549 631
1012 2 2 3 31 570 592 631
1013 2 2 3 31 212 595 641
1014 2 2 3 31 596 216 642
1015 2 2 3 31 597 238 639
1016 2 2 3 31 244 604 628
1017 2 2 3 31 595 567 641
1018 2 2 3 31 568 596 642
1019 2 2 3 31 578 624 634
1020 2 2 3 31 624 566 634
1021 2 2 3 31 616 561 652
1022 2 2 3 31 604 565 628
1023 2 2 3 31 312 311 670
1024 2 2 3 31 604 585 636
1025 2 2 3 31 598 560 647
1026 2 2 3 31 311 617 670
1027 2 2 3 31 218 217 654
1028 2 2 3 31 211 210 655
1029 2 2 3 31 605 559 618
1030 2 2 3 31 240 239 632
1031 2 2 3 31 603 549 629
1032 2 2 3 31 608 218 654
1033 2 2 3 31 210 607 655
1034 2 2 3 31 617 582 656
1035 2 2 3 31 608 563 677
1036 2 2 3 31 562 595 655
1037 2 2 3 31 596 563 654
1038 2 2 3 31 583 648 681
1039 2 2 3 31 595 211 655
1040 2 2 3 31 217 596 654
1041 2 2 3 31 581 593 680
1042 2 2 3 31 550 593 637
1043 2 2 3 31 194 195 648
1044 2 2 3 31 563 620 677
1045 2 2 3 31 239 597 632
1046 2 2 3 31 563 611 640
1047 2 2 3 31 594 556 663
1048 2 2 3 31 199 200 678
1049 2 2 3 31 46 192 662
1050 2 2 3 31 621 312 670
1051 2 2 3 31 242 241 627
1052 2 2 3 31 306 46 662
1053 2 2 3 31 629 549 669
1054 2 2 3 31 567 594 663
1055 2 2 3 31 550 612 679
1056 2 2 3 31 636 554 680
1057 2 2 3 31 562 607 633
1058 2 2 3 31 616 199 678
1059 2 2 3 31 597 639 673
1060 2 2 3 31 629 580 658
1061 2 2 3 31 241 613 627
1062 2 2 3 31 245 244 628
1063 2 2 3 31 215 601 642
1064 2 2 3 31 198 199 652
1065 2 2 3 31 557 597 673
1066 2 2 3 31 597 557 661
1067 2 2 3 31 601 568 642
1068 2 2 3 31 571 603 629
1069 2 2 3 31 603 558 666
1070 2 2 3 31 549 603 631
1071 2 2 3 31 613 564 627
1072 2 2 3 31 626 550 679
1073 2 2 3 31 599 568 660
1074 2 2 3 31 199 616 652
1075 2 2 3 31 574 640 667
1076 2 2 3 31 570 606 645
1077 2 2 3 31 620 574 678
1078 2 2 3 31 568 601 660
1079 2 2 3 31 606 547 645
1080 2 2 3 31 607 562 655
1081 2 2 3 31 563 608 654
1082 2 2 3 31 565 604 636
1083 2 2 3 31 580 629 669
1084 2 2 3 31 600 552 643
1085 2 2 3 31 238 237 639
1086 2 2 3 31 616 574 667
1087 2 2 3 31 561 616 667
1088 2 2 3 31 195 602 648
1089 2 2 3 31 614 551 634
1090 2 2 3 31 309 308 651
1091 2 2 3 31 566 614 634
1092 2 2 3 31 213 212 641
1093 2 2 3 31 216 215 642
1094 2 2 3 31 556 599 660
1095 2 2 3 31 624 547 649
1096 2 2 3 31 552 600 664
1097 2 2 3 31 611 551 640
1098 2 2 3 31 575 621 635
1099 2 2 3 31 621 573 635
1100 2 2 3 31 201 202 677
1101 2 2 3 31 314 313 682
1102 2 2 3 31 311 310 671
1103 2 2 3 31 631 603 666
1104 2 2 3 31 649 579 664
1105 2 2 3 31 645 581 650
1106 2 2 3 31 570 645 650
1107 2 2 3 31 615 309 651
1108 2 2 3 31 549 619 669
1109 2 2 3 31 192 193 672
1110 2 2 3 31 307 306 675
1111 2 2 3 31 606 570 666
1112 2 2 3 31 610 584 672
1113 2 2 3 31 202 608 677
1114 2 2 3 31 193 610 672
1115 2 2 3 31 548 609 665
1116 2 2 3 31 639 575 673
1117 2 2 3 31 609 571 665
1118 2 2 3 31 589 626 679
1119 2 2 3 31 558 606 666
1120 2 2 3 31 573 617 656
1121 2 2 3 31 622 573 656
1122 2 2 3 31 553 622 656
1123 2 2 3 31 617 311 671
1124 2 2 3 31 614 561 667
1125 2 2 3 31 639 237 657
1126 2 2 3 31 573 621 670
1127 2 2 3 31 612 562 679
1128 2 2 3 31 582 617 671
1129 2 2 3 31 617 573 670
1130 2 2 3 31 566 624 649
1131 2 2 3 31 574 616 678
1132 2 2 3 31 313 621 682
1133 2 2 3 31 621 575 682
1134 2 2 3 31 625 572 661
1135 2 2 3 31 581 645 646
1136 2 2 3 31 645 547 646
1137 2 2 3 31 569 646 674
1138 2 2 3 31 620 201 677
1139 2 2 3 31 557 625 661
1140 2 2 3 31 623 307 675
1141 2 2 3 31 571 629 658
1142 2 2 3 31 632 597 661
1143 2 2 3 31 572 632 661
1144 2 2 3 31 625 580 669
1145 2 2 3 31 624 578 674
1146 2 2 3 31 570 631 666
1147 2 2 3 31 584 623 675
1148 2 2 3 31 653 577 659
1149 2 2 3 31 579 653 659
1150 2 2 3 31 575 639 657
1151 2 2 3 31 575 635 673
1152 2 2 3 31 635 557 673
1153 2 2 3 31 578 644 674
1154 2 2 3 31 644 569 674
1155 2 2 3 31 657 314 682
1156 2 2 3 31 584 662 672
1157 2 2 3 31 662 192 672
1158 2 2 3 31 650 581 680
1159 2 2 3 31 554 650 680
1160 2 2 3 31 579 659 664
1161 2 2 3 31 659 552 664
1162 2 2 3 31 306 662 675
1163 2 2 3 31 662 584 675
1164 2 2 3 31 575 657 682
1165 2 2 3 31 587 676 681
1166 2 2 3 31 676 583 681
1167 2 2 3 32 229 258 257
1168 2 2 3 32 229 257 228
1169 2 2 3 32 249 220 250
1170 2 2 3 32 250 220 221
1171 2 2 3 32 254 225 255
1172 2 2 3 32 255 225 226
1173 2 2 3 32 683 248 48
1174 2 2 3 32 203 683 48
1175 2 2 3 32 684 275 55
1176 2 2 3 32 258 684 55
1177 2 2 3 32 222 251 221
1178 2 2 3 32 225 254 253
1179 2 2 3 32 251 250 221
1180 2 2 3 32 225 253 224
1181 2 2 3 32 229 684 258
1182 2 2 3 32 275 684 51
1183 2 2 3 32 684 229 51
1184 2 2 3 32 219 683 47
1185 2 2 3 32 683 219 248
1186 2 2 3 32 683 203 47
1187 2 2 3 32 228 257 256
1188 2 2 3 32 228 256 227
1189 2 2 3 32 220 249 219
1190 2 2 3 32 249 248 219
1191 2 2 3 32 227 256 255
1192 2 2 3 32 227 255 226
1193 2 2 3 32 223 252 251
1194 2 2 3 32 224 253 252
1195 2 2 3 32 223 251 222
1196 2 2 3 32 223 224 252
1197 2 2 3 33 275 51 230
1198 2 2 3 33 52 685 230
1199 2 2 3 33 275 685 276
1200 2 2 3 33 276 55 275
1201 2 2 3 33 685 52 276
1202 2 2 3 33 685 275 230
1203 2 2 3 34 686 277 56
1204 2 2 3 34 263 686 56
1205 2 2 3 34 276 687 55
1206 2 2 3 34 687 259 55
1207 2 2 3 34 259 232 260
1208 2 2 3 34 260 232 261
1209 2 2 3 34 259 231 232
1210 2 2 3 34 261 232 233
1211 2 2 3 34 235 686 263
1212 2 2 3 34 277 686 53
1213 2 2 3 34 686 235 53
1214 2 2 3 34 687 231 259
1215 2 2 3 34 687 276 52
1216 2 2 3 34 231 687 52
1217 2 2 3 34 234 261 233
1218 2 2 3 34 235 263 262
1219 2 2 3 34 234 262 261
1220 2 2 3 34 235 262 234
1221 2 2 3 35 277 53 236
1222 2 2 3 35 236 54 278
1223 2 2 3 35 277 236 278
1224 2 2 3 35 278 56 277
1225 2 2 3 36 265 238 266
1226 2 2 3 36 266 238 239
1227 2 2 3 36 271 244 272
1228 2 2 3 36 272 244 245
1229 2 2 3 36 278 688 56
1230 2 2 3 36 688 264 56
1231 2 2 3 36 689 247 50
1232 2 2 3 36 209 689 50
1233 2 2 3 36 270 242 243
1234 2 2 3 36 269 242 270
1235 2 2 3 36 242 268 241
1236 2 2 3 36 242 269 268
1237 2 2 3 36 274 689 49
1238 2 2 3 36 689 274 247
1239 2 2 3 36 689 209 49
1240 2 2 3 36 688 237 264
1241 2 2 3 36 688 278 54
1242 2 2 3 36 237 688 54
1243 2 2 3 36 274 273 246
1244 2 2 3 36 274 246 247
1245 2 2 3 36 272 246 273
1246 2 2 3 36 264 237 265
1247 2 2 3 36 245 246 272
1248 2 2 3 36 239 267 266
1249 2 2 3 36 265 237 238
1250 2 2 3 36 270 243 271
1251 2 2 3 36 271 243 244
1252 2 2 3 36 268 267 240
1253 2 2 3 36 268 240 241
1254 2 2 3 36 267 239 240
1255 2 2 3 37 206 708 732
1256 2 2 3 37 709 261 731
1257 2 2 3 37 708 206 729
1258 2 2 3 37 261 709 730
1259 2 2 3 37 700 706 738
1260 2 2 3 37 693 710 715
1261 2 2 3 37 710 698 715
1262 2 2 3 37 707 699 737
1263 2 2 3 37 706 700 739
1264 2 2 3 37 706 691 738
1265 2 2 3 37 690 707 737
1266 2 2 3 37 703 696 723
1267 2 2 3 37 697 704 724
1268 2 2 3 37 696 703 728
1269 2 2 3 37 704 697 727
1270 2 2 3 37 701 720 725
1271 2 2 3 37 720 693 725
1272 2 2 3 37 698 721 726
1273 2 2 3 37 721 702 726
1274 2 2 3 37 708 694 719
1275 2 2 3 37 695 709 718
1276 2 2 3 37 725 690 736
1277 2 2 3 37 691 726 735
1278 2 2 3 37 699 707 741
1279 2 2 3 37 707 690 725
1280 2 2 3 37 706 698 726
1281 2 2 3 37 691 706 726
1282 2 2 3 37 260 261 730
1283 2 2 3 37 261 262 731
1284 2 2 3 37 206 205 729
1285 2 2 3 37 207 206 732
1286 2 2 3 37 698 706 749
1287 2 2 3 37 692 707 748
1288 2 2 3 37 705 692 739
1289 2 2 3 37 705 699 741
1290 2 2 3 37 692 705 741
1291 2 2 3 37 270 271 740
1292 2 2 3 37 271 734 740
1293 2 2 3 37 734 704 737
1294 2 2 3 37 703 733 738
1295 2 2 3 37 699 705 740
1296 2 2 3 37 699 734 737
1297 2 2 3 37 733 700 738
1298 2 2 3 37 706 739 749
1299 2 2 3 37 694 708 729
1300 2 2 3 37 709 695 730
1301 2 2 3 37 701 725 736
1302 2 2 3 37 726 702 735
1303 2 2 3 37 707 692 741
1304 2 2 3 37 272 273 724
1305 2 2 3 37 265 266 723
1306 2 2 3 37 722 269 765
1307 2 2 3 37 268 269 722
1308 2 2 3 37 710 693 742
1309 2 2 3 37 698 710 743
1310 2 2 3 37 696 712 723
1311 2 2 3 37 714 697 724
1312 2 2 3 37 272 724 758
1313 2 2 3 37 723 266 757
1314 2 2 3 37 716 701 736
1315 2 2 3 37 702 717 735
1316 2 2 3 37 249 250 716
1317 2 2 3 37 256 257 717
1318 2 2 3 37 694 716 736
1319 2 2 3 37 717 695 735
1320 2 2 3 37 251 252 720
1321 2 2 3 37 254 255 721
1322 2 2 3 37 739 692 749
1323 2 2 3 37 707 725 748
1324 2 2 3 37 690 719 736
1325 2 2 3 37 718 691 735
1326 2 2 3 37 715 698 749
1327 2 2 3 37 694 711 747
1328 2 2 3 37 713 695 746
1329 2 2 3 37 710 253 743
1330 2 2 3 37 253 710 742
1331 2 2 3 37 715 692 748
1332 2 2 3 37 716 694 747
1333 2 2 3 37 695 717 746
1334 2 2 3 37 693 720 742
1335 2 2 3 37 725 693 748
1336 2 2 3 37 721 698 743
1337 2 2 3 37 705 722 765
1338 2 2 3 37 711 694 729
1339 2 2 3 37 695 713 730
1340 2 2 3 37 697 714 732
1341 2 2 3 37 712 696 731
1342 2 2 3 37 719 690 727
1343 2 2 3 37 691 718 728
1344 2 2 3 37 711 248 747
1345 2 2 3 37 258 713 746
1346 2 2 3 37 716 250 744
1347 2 2 3 37 701 716 744
1348 2 2 3 37 717 702 745
1349 2 2 3 37 256 717 745
1350 2 2 3 37 251 720 744
1351 2 2 3 37 720 701 744
1352 2 2 3 37 248 711 752
1353 2 2 3 37 713 258 754
1354 2 2 3 37 702 721 745
1355 2 2 3 37 721 255 745
1356 2 2 3 37 722 705 739
1357 2 2 3 37 695 718 735
1358 2 2 3 37 719 694 736
1359 2 2 3 37 703 723 757
1360 2 2 3 37 724 704 758
1361 2 2 3 37 253 254 743
1362 2 2 3 37 704 727 737
1363 2 2 3 37 728 703 738
1364 2 2 3 37 252 253 742
1365 2 2 3 37 254 721 743
1366 2 2 3 37 720 252 742
1367 2 2 3 37 248 249 747
1368 2 2 3 37 257 258 746
1369 2 2 3 37 692 715 749
1370 2 2 3 37 693 715 748
1371 2 2 3 37 249 716 747
1372 2 2 3 37 717 257 746
1373 2 2 3 37 723 712 763
1374 2 2 3 37 714 724 764
1375 2 2 3 37 718 709 751
1376 2 2 3 37 708 719 750
1377 2 2 3 37 722 700 756
1378 2 2 3 37 700 722 739
1379 2 2 3 37 727 690 737
1380 2 2 3 37 691 728 738
1381 2 2 3 37 697 732 750
1382 2 2 3 37 731 696 751
1383 2 2 3 37 732 708 750
1384 2 2 3 37 709 731 751
1385 2 2 3 37 719 727 750
1386 2 2 3 37 728 718 751
1387 2 2 3 37 696 728 751
1388 2 2 3 37 727 697 750
1389 2 2 3 37 734 699 740
1390 2 2 3 37 700 733 756
1391 2 2 3 37 271 272 758
1392 2 2 3 37 266 267 757
1393 2 2 3 37 250 251 744
1394 2 2 3 37 255 256 745
1395 2 2 3 37 267 268 756
1396 2 2 3 37 204 48 752
1397 2 2 3 37 263 56 753
1398 2 2 3 37 49 208 755
1399 2 2 3 37 55 259 754
1400 2 2 3 37 265 723 763
1401 2 2 3 37 724 273 764
1402 2 2 3 37 48 248 752
1403 2 2 3 37 56 264 753
1404 2 2 3 37 258 55 754
1405 2 2 3 37 274 49 755
1406 2 2 3 37 268 722 756
1407 2 2 3 37 711 729 759
1408 2 2 3 37 732 714 762
1409 2 2 3 37 730 713 760
1410 2 2 3 37 712 731 761
1411 2 2 3 37 269 270 765
1412 2 2 3 37 734 271 758
1413 2 2 3 37 267 733 757
1414 2 2 3 37 205 204 759
1415 2 2 3 37 259 260 760
1416 2 2 3 37 208 207 762
1417 2 2 3 37 262 263 761
1418 2 2 3 37 273 274 764
1419 2 2 3 37 264 265 763
1420 2 2 3 37 733 267 756
1421 2 2 3 37 729 205 759
1422 2 2 3 37 260 730 760
1423 2 2 3 37 731 262 761
1424 2 2 3 37 207 732 762
1425 2 2 3 37 270 740 765
1426 2 2 3 37 733 703 757
1427 2 2 3 37 704 734 758
1428 2 2 3 37 752 711 759
1429 2 2 3 37 714 755 762
1430 2 2 3 37 713 754 760
1431 2 2 3 37 753 712 761
1432 2 2 3 37 204 752 759
1433 2 2 3 37 754 259 760
1434 2 2 3 37 755 208 762
1435 2 2 3 37 263 753 761
1436 2 2 3 37 274 755 764
1437 2 2 3 37 753 264 763
1438 2 2 3 37 755 714 764
1439 2 2 3 37 712 753 763
1440 2 2 3 37 740 705 765
$EndElements
