$MeshFormat
2.2 0 8
$EndMeshFormat
$PhysicalNames
4
2 1 "SD1G0"
2 2 "SD1D1001"
2 3 "SD2G0"
2 4 "I1-2"
$EndPhysicalNames
$Nodes
695
1 12.7 0 0
2 9.146000000000001 8.811 0
3 0 12.7 0
4 12.945 0 4.764
5 9.44 9.093999999999999 4.764
6 0 12.85 4.764
7 14.523 0 13.304
8 11.252 10.839 13.304
9 0 13.852 13.304
10 19.007 0 26.381
11 15.992 15.406 26.381
12 0 16.897 26.381
13 27.906 0 45.274
14 24.694 23.788 45.274
15 0 23.438 45.274
16 41.773 0 69.64400000000001
17 37.567 36.188 69.64400000000001
18 0 34.293 69.64400000000001
19 61.615 0 98.006
20 55.452 53.417 98.006
21 0 50.713 98.006
22 89.94199999999999 0 126.28
23 81.038 78.065 126.28
24 0 75.66 126.28
25 127.515 0 149.718
26 115.655 111.411 149.718
27 0 110.409 149.718
28 171.297 0 167.291
29 156.457 150.716 167.291
30 0 152.031 167.291
31 212.768 0 178.873
32 194.925 187.772 178.873
33 0 192.047 178.873
34 247.114 0 185.816
35 226.017 217.723 185.816
36 0 225.505 185.816
37 269.688 0 188.928
38 245.457 236.45 188.928
39 0 247.677 188.928
40 0 0 188.928
41 0 0 0
42 0 0 28.928
43 270 0 188.928
44 280 0 178.928
45 280 0 38.928
46 270 0 28.928
47 0 248 188.928
48 0 258 178.928
49 0 258 38.928
50 0 248 28.928
51 270 248 188.928
52 280 248 178.928
53 280 248 38.928
54 270 248 28.928
55 270 258 178.928
56 270 258 38.928
57 11.09245630217288 4.742003477344674 0
58 4.97867386808529 10.88295893406506 0
59 11.32715649958962 4.841189279412428 4.764
60 5.059088836193931 11.0513847091161 4.764
61 12.80095881467178 5.55331538320188 13.304
62 5.773906375238152 12.09425372184685 13.304
63 16.86981098630217 7.805139204475288 26.381
64 8.198244579758828 15.12395833534497 26.381
65 13.51804489359013 13.02233903565952 19.55570233617682
66 16.66665934659434 0 19.55570233617622
67 0 15.30771871329515 19.55570233621041
68 24.89125366015823 12.08692669708925 45.274
69 12.79852002242366 21.56333177136079 45.274
70 20.11906858936265 19.38130325396894 35.34132025497915
71 23.22749912396531 0 35.34132025498107
72 0 19.99917830879805 35.34132025502546
73 38.81971824581624 12.27768678230163 69.64400000000001
74 35.97553678560718 24.58046395781196 69.64400000000001
75 26.10221319263474 31.56742631964648 69.64400000000001
76 13.03339051306863 32.72866551952564 69.64400000000001
77 30.78290922967922 29.65318095611142 56.80097257261576
78 34.46506970309594 0 56.80097257261471
79 0 28.57239832894454 56.8009725726742
80 57.49273795441285 18.10877394061335 98.006
81 53.50884939410295 36.24777597446649 98.006
82 38.4500857026804 47.01720588091545 98.006
83 19.20408873531536 48.6088261773358 98.006
84 46.04107438935718 44.35125566979228 83.08217153094485
85 51.17431864879121 0 83.08217153094529
86 0 42.07294416963739 83.08217153101435
87 86.36620624325302 19.79543738761469 126.28
88 82.75812234786184 39.58505422184784 126.28
89 79.45264529240777 59.42642518834579 126.28
90 62.7104712122776 71.40300304313841 126.28
91 41.77607068064302 72.13090805925937 126.28
92 20.88946595883513 73.91299974676708 126.28
93 67.7154598054228 65.23087310576335 111.5578276611633
94 75.19223074760291 0 111.5578276611616
95 0 62.67018485763559 111.5578276612334
96 124.3076845085717 28.25640316491352 149.718
97 121.0807852551955 56.51058511055253 149.718
98 117.972425599115 84.7779532619988 149.718
99 88.60678193552066 106.7784724537969 149.718
100 59.05921957588901 107.6332986671614 149.718
101 29.53083502404792 109.048038271806 149.718
102 97.83332181058005 94.24366369401167 137.6515444029343
103 108.1715007189746 0 137.651544402931
104 0 92.51936498249 137.6515444029929
105 169.5120729146957 31.1094069764293 167.291
106 167.7447922258397 62.21982428990131 167.291
107 165.9597906153895 93.3292281064617 167.291
108 164.0816616713767 124.4330988188878 167.291
109 127.3569039110868 150.4504231857933 167.291
110 95.51565811948002 150.5995134854799 167.291
111 63.67678683407985 151.0551598945255 167.291
112 31.83877497195617 151.5685912768407 167.291
113 135.6252729738272 130.6485760804931 158.3189903183438
114 148.9438145517425 0 158.3189903183448
115 0 130.7806166296011 158.3189903183888
116 211.9439916581478 33.00810615753443 178.873
117 211.178587913768 66.0176390127272 178.873
118 210.3996408238043 99.02685278216948 178.873
119 209.5205858742029 132.0335188110611 178.873
120 208.2397479840475 165.0261260198895 178.873
121 166.5878929669877 192.411070186874 178.873
122 133.2704989726273 192.2806265484317 178.873
123 99.95289322698625 192.2121749880586 178.873
124 66.63525837390596 192.1587440193663 178.873
125 33.31762044291255 192.107324590345 178.873
126 175.4571209193379 169.0187056459131 173.0115833546785
127 191.7803631757897 0 173.0115833546815
128 0 171.7957093353633 173.0115833547126
129 246.726302516198 33.27066118913245 185.816
130 246.4194421025288 66.54218863286971 185.816
131 246.1187440411238 99.81377278834063 185.816
132 245.7538722292483 133.0847010806951 185.816
133 245.1987132490046 166.3528985949616 185.816
134 243.8627588020375 199.595000205469 185.816
135 201.0004447158524 226.4378545510179 185.8160000000001
136 167.5000012664665 226.4382594280985 185.816
137 133.9998047122473 226.29052959664 185.816
138 100.4998210180114 226.0994804670111 185.816
139 66.99992384382334 225.8937265058792 185.816
140 33.5000160955647 225.6896972270834 185.816
141 210.357360482183 202.6380307732491 182.3191237240382
142 229.8154672945695 0 182.3191237240493
143 269.3192620677718 31.81403616920546 188.928
144 269.0346194031495 63.62895540790599 188.928
145 268.7704743930164 95.44405483750518 188.928
146 268.4739221576039 127.2588642054768 188.928
147 268.0745014296346 159.0725201680051 188.928
148 267.4159397249559 190.8816786747822 188.928
149 265.5604391356777 222.6313849269162 188.928
150 224.3193335165293 247.4479753289678 188.928
151 192.2759442344355 247.8218029214423 188.928
152 160.2300044003815 247.8891385690551 188.928
153 128.1839759424281 247.8716768278112 188.928
154 96.13798294722781 247.8198741484265 188.928
155 64.09200873746744 247.7574269094471 188.928
156 32.04602070203269 247.7024847381473 188.928
157 235.9770000000681 0 188.928
158 202.2660000001584 0 188.928
159 168.5550000002486 0 188.928
160 134.8440000003445 0 188.928
161 101.1330000002569 0 188.928
162 67.42200000016391 0 188.928
163 33.71100000007081 0 188.928
164 0 30.95962499994257 188.928
165 0 61.9192499998534 188.928
166 0 92.87887499976351 188.928
167 0 123.8384999996736 188.928
168 0 154.7981249997504 188.928
169 0 185.757749999841 188.928
170 0 216.7173749999094 188.928
171 6.349999999983785 0 0
172 0 6.350000000015788 0
173 277.0710678303063 0 185.9990677934246
174 280 0 155.5946666666343
175 280 0 132.2613333332686
176 280 0 108.9280000000944
177 280 0 85.59466666673144
178 280 0 62.2613333333657
179 277.0710677930576 0 31.8569321693267
180 245.4545454546615 0 28.928
181 220.9090909093231 0 28.928
182 196.3636363639846 0 28.928
183 171.8181818186461 0 28.928
184 147.2727272733076 0 28.928
185 122.7272727278399 0 28.928
186 98.18181818224309 0 28.928
187 73.63636363664625 0 28.928
188 49.09090909104935 0 28.928
189 24.54545454545254 0 28.928
190 0 255.0710678375298 185.9990677862011
191 0 258 155.5946666666343
192 0 258 132.2613333332686
193 0 258 108.9280000000944
194 0 258 85.59466666673144
195 0 258 62.2613333333657
196 0 255.0710677787379 31.85693215500698
197 0 223.1999999999972 28.928
198 0 198.3999999999945 28.928
199 0 173.5999999999917 28.928
200 0 148.7999999999889 28.928
201 0 124.0000000000111 28.928
202 0 99.20000000001113 28.928
203 0 74.40000000000836 28.928
204 0 49.60000000000556 28.928
205 0 24.8000000000028 28.928
206 24.54545454537762 248 188.928
207 49.09090909073399 248 188.928
208 73.63636363606612 248 188.928
209 98.18181818139827 248 188.928
210 122.7272727267304 248 188.928
211 147.2727272721917 248 188.928
212 171.8181818177823 248 188.928
213 196.3636363633728 248 188.928
214 220.9090909089633 248 188.928
215 245.4545454545538 248 188.928
216 277.0710678303063 248 185.9990677934246
217 280 248 155.5946666666343
218 280 248 132.2613333332686
219 280 248 108.9280000000944
220 280 248 85.59466666673144
221 280 248 62.2613333333657
222 277.0710677930576 248 31.8569321693267
223 245.4545454546615 248 28.928
224 220.9090909093231 248 28.928
225 196.3636363639846 248 28.928
226 171.8181818186461 248 28.928
227 147.2727272733076 248 28.928
228 122.7272727278399 248 28.928
229 98.18181818224309 248 28.928
230 73.63636363664625 248 28.928
231 49.09090909104935 248 28.928
232 24.54545454545254 248 28.928
233 24.54545454537762 258 178.928
234 49.09090909073399 258 178.928
235 73.63636363606612 258 178.928
236 98.18181818139827 258 178.928
237 122.7272727267304 258 178.928
238 147.2727272721917 258 178.928
239 171.8181818177823 258 178.928
240 196.3636363633728 258 178.928
241 220.9090909089633 258 178.928
242 245.4545454545538 258 178.928
243 270 258 155.5946666666343
244 270 258 132.2613333332686
245 270 258 108.9280000000944
246 270 258 85.59466666673144
247 270 258 62.2613333333657
248 245.4545454546615 258 38.928
249 220.9090909093231 258 38.928
250 196.3636363639846 258 38.928
251 171.8181818186461 258 38.928
252 147.2727272733076 258 38.928
253 122.7272727278399 258 38.928
254 98.18181818224309 258 38.928
255 73.63636363664625 258 38.928
256 49.09090909104935 258 38.928
257 24.54545454545254 258 38.928
258 270 255.0710678375298 185.9990677862011
259 277.0710677947199 255.071067829011 178.928
260 277.0710677947199 255.071067829011 38.928
261 270 255.0710678052455 31.85693218151453
262 270 24.79999999998139 188.928
263 270 49.59999999992153 188.928
264 270 74.39999999984252 188.928
265 270 99.19999999976351 188.928
266 270 123.9999999996873 188.928
267 270 148.7999999997476 188.928
268 270 173.5999999998107 188.928
269 270 198.3999999998738 188.928
270 270 223.1999999999369 188.928
271 280 24.79999999998139 178.928
272 280 49.59999999992153 178.928
273 280 74.39999999984252 178.928
274 280 99.19999999976351 178.928
275 280 123.9999999996873 178.928
276 280 148.7999999997476 178.928
277 280 173.5999999998107 178.928
278 280 198.3999999998738 178.928
279 280 223.1999999999369 178.928
280 280 24.79999999998139 38.928
281 280 49.59999999992153 38.928
282 280 74.39999999984252 38.928
283 280 99.19999999976351 38.928
284 280 123.9999999996873 38.928
285 280 148.7999999997476 38.928
286 280 173.5999999998107 38.928
287 280 198.3999999998738 38.928
288 280 223.1999999999369 38.928
289 270 24.79999999998139 28.928
290 270 49.59999999992153 28.928
291 270 74.39999999984252 28.928
292 270 99.19999999976351 28.928
293 270 123.9999999996873 28.928
294 270 148.7999999997476 28.928
295 270 173.5999999998107 28.928
296 270 198.3999999998738 28.928
297 270 223.1999999999369 28.928
298 10.47439475145465 6.950874345668313 2.381179418454317
299 7.241779966260233 10.16002261853636 2.38176460783674
300 12.55334173527145 3.713890443479837 9.100087224405357
301 10.73279258254609 9.251409487557288 9.034000000000002
302 5.204131432309138 11.65528070746921 9.131218969995267
303 16.2180996384945 4.960926445787615 22.33932042477216
304 14.16433469193109 6.175921705051832 17.58601708532614
305 14.91829084798583 9.677238630622622 22.38738748622569
306 4.781381395565292 14.7675690501369 22.16129706937959
307 9.920536358179779 13.25159497476475 21.05383555201531
308 5.416328880696492 13.28485653659219 17.22341982442556
309 22.90451516020885 8.117519915798544 39.06223555593291
310 19.38877736616256 8.687271488886534 32.06822036528558
311 8.616897655952558 18.57784248896876 35.63403306835375
312 31.1296150826811 16.25957486384609 57.89710540352782
313 29.30220993982751 8.087414446520331 51.22604924230487
314 9.582135081887083 25.38332153200005 52.58464268368664
315 16.67201501728646 28.21658723191328 60.73490460872119
316 19.69080253335525 24.44717546607628 53.01305457296944
317 50.33969486823622 19.59305397085791 88.36703113197888
318 44.01033897907237 29.81266284311096 82.60791905888109
319 44.10066114065522 14.54096745495256 77.87159981178183
320 31.29439827354459 40.04356659371136 85.14722600046537
321 19.11391830316183 39.03388677424181 81.6203587851594
322 74.86018282899792 32.37618839816997 117.4428684329252
323 69.15200982378686 48.87474667286847 114.8848069318591
324 63.12809770233176 34.60161913968071 106.7164831743571
325 70.12363045455828 16.75840470309208 109.8895696038464
326 14.82731380855556 59.57673708254242 109.6388319808165
327 31.59833651234491 57.95291255201747 109.6726139833569
328 48.38179745315183 56.36316002773621 108.8535799623596
329 44.94789719304905 65.08143730611533 118.6951175188907
330 113.7195321779743 23.20215794950965 142.9611292681043
331 100.1501984245069 71.26941646142643 138.7371882792672
332 99.16664276669736 16.29295875436501 133.5886255179875
333 101.7652392403944 35.57360300716212 136.8575942141207
334 98.11239372619534 52.95131277329808 136.1976349583609
335 72.39090311698318 91.29705288716488 139.482628045002
336 27.09715585647964 87.83042842587355 135.6806909392818
337 12.34601069384658 85.45578933943094 133.4326134343465
338 13.06431516785704 100.8069919426684 143.6847722014965
339 48.41377250463317 90.57997879739821 138.3568556207399
340 148.0816283033638 19.4197995022163 158.5992031455443
341 147.1259967349047 69.91220881350827 159.7481412212714
342 136.2533887401674 88.1426263823044 156.3274378464279
343 145.9085054383415 46.29757627132207 158.5957129174926
344 144.232524154433 110.7840428399631 159.8356223011903
345 19.9980093090609 130.4329878090912 158.3980073987189
346 48.49582804875541 130.4501390246763 158.7515887899696
347 79.71417863850003 130.8459783403381 159.2503680271811
348 106.8532268307059 130.18305617399 159.1415914860602
349 188.849453955069 80.30497932435865 173.0577720072358
350 191.0222039076815 51.01468944750698 173.3415393061826
351 191.4095013169527 21.21483992931147 173.1414281386579
352 190.3407431444225 136.8083365480507 174.0309996072025
353 187.6336627455828 112.2679310546112 173.0722013750636
354 179.5643965804514 149.5980849902413 171.5372316971157
355 52.51896777925656 171.8090999359609 173.1006467919373
356 22.58654732686777 172.1016547437729 173.1326842417939
357 83.72536073124398 170.817505605831 172.8762870216225
358 117.0063838785507 171.3755545537267 173.0755102809387
359 144.3449040745115 171.7104067718579 173.1647606602738
360 227.8189493768658 118.3768026573037 182.312298021337
361 226.4426406986326 147.5609147707666 182.1671901543141
362 228.4555500642549 87.9954814472392 182.3362301336594
363 229.7278830083077 18.7529129034358 182.371438885731
364 229.1062225030426 48.66684090249544 182.3445
365 222.6938995336531 183.5218976978649 181.746704624843
366 182.0768963624772 208.4091960532543 182.1346734504802
367 150.0989700956993 209.3565928500778 182.3445
368 117.407410821594 209.2431114286894 182.3452108712675
369 84.58932805324781 209.1129112535741 182.345022859887
370 54.88498094396638 208.9942847940391 182.3453162001298
371 15.0781750477929 208.832544836029 182.3445
372 156.6297161594627 122.8225931561589 188.928
373 77.55928021700865 168.2675246651011 188.928
374 79.46317087617717 80.39201896643479 188.928
375 195.765044173116 174.1401166615799 188.928
376 194.1886545815943 72.5363990032475 188.928
377 126.9556604273295 190.2945131033808 188.928
378 138.1811852568195 61.61782941183364 188.928
379 214.4094776814647 120.8627409535298 188.928
380 50.71641613008978 124.1663154811122 188.928
381 44.59309882860619 46.43943749989799 188.928
382 218.2216098205056 210.9358816854046 188.928
383 43.17165502643056 201.2375624998751 188.928
384 98.25291814143688 129.2050056009746 188.928
385 225.3862215845708 40.56793489851427 188.928
386 96.77827138538093 208.0936368969877 188.928
387 178.1713123089758 220.930655837657 188.928
388 101.729944500728 41.23126628244935 188.928
389 42.83340065106302 85.74076585146659 188.928
390 45.32645651398825 162.9290531804858 188.928
391 170.9255865072269 42.01452483382577 188.928
392 241.338787855573 173.9145359353367 188.928
393 108.3696229638701 98.23214843185464 188.928
394 183.5475568087076 145.6986075587781 188.928
395 231.8926365124468 91.83376937087301 188.928
396 163.050592728365 89.57716496018529 188.928
397 110.0998068690801 161.0094501118387 188.928
398 145.0619280763459 218.923406648541 188.928
399 144.4779569919358 156.7911386830307 188.928
400 241.4851799247623 209.0849165315032 188.928
401 240.7325014757886 142.4553145223919 188.928
402 69.54624322334442 219.201423371007 188.928
403 186.4322692991658 107.8621445149174 188.928
404 125.814374114391 24.90905461428279 188.928
405 167.2652595439476 185.267249987767 188.928
406 71.04746803773442 29.52481654714249 188.928
407 26.05334389580557 136.2349946808541 188.928
408 76.36924283795122 109.2966764756448 188.928
409 200.1731158623263 34.14132591592996 188.928
410 214.788743969336 155.9914607148404 188.928
411 23.92063213539167 112.571890202574 188.928
412 244.8558024440641 115.5709487779554 188.928
413 75.57846610968708 142.4740400234126 188.928
414 206.2694124645049 225.5767237748773 188.928
415 26.15777037154113 221.7281619433505 188.928
416 26.65344752511744 26.14850144627949 188.928
417 243.8209778000586 62.78184103729177 188.928
418 102.2243045324699 68.36795151416212 188.928
419 25.8167881314057 64.32018705870097 188.928
420 118.3809047839989 223.5332623006844 188.928
421 25.13726399210817 183.5930536899299 188.928
422 126.1535797760573 128.0787594108383 188.928
423 153.1837408138062 21.69617737713097 188.928
424 167.9681965724464 66.40410214141495 188.928
425 244.2764999540436 25.75067017315538 188.928
426 69.6930900404098 56.53799474582718 188.928
427 68.35301128629416 191.8041895053603 188.928
428 227.3976598517655 226.9513010950199 188.928
429 207.6063757791588 94.16285856376686 188.928
430 139.0914575305584 100.4122204811722 188.928
431 47.00273961216325 227.5254118923654 188.928
432 97.4587098287455 182.4947644601523 188.928
433 196.8700436173855 200.6344920102182 188.928
434 48.68540287833855 20.42255109866399 188.928
435 221.6157674802334 20.09198619751993 188.928
436 218.4228100906931 64.53021374200146 188.928
437 218.0782348934464 187.4502339231472 188.928
438 5.201258768557929 5.322840297923385 0
439 260.3697372169023 236.6125424229921 188.9280000000001
440 276.2139555186652 13.60483779418902 186.7629701219628
441 276.2259270524282 234.4002034063449 186.7534605192182
442 280 70.69148218827216 108.9457294632461
443 280 178.6703198855504 110.0139462637592
444 280 124.594675709306 94.89105206601278
445 280 107.0458427081995 137.7310273434424
446 280 41.40546683761331 139.3410484315122
447 280 40.9861819278956 79.46493241100536
448 280 206.7917137119012 138.9045853525458
449 280 207.013818072089 79.46493241098396
450 280 148.9221169644077 139.7579362462529
451 280 85.8767056675895 74.0899170313341
452 280 157.696628770341 76.26950403528289
453 280 74.496207817059 147.2410974868326
454 280 30.35520320671726 108.9754523134147
455 280 217.6447967932639 108.9754523134141
456 280 175.76954769094 148.1883766416549
457 280 149.4509730312534 109.2734856765205
458 280 134.6516892598843 66.97891389636462
459 280 99.85073255970212 108.2766863775704
460 280 64.31646990341895 63.93554293669384
461 280 183.560468622586 63.64171437237832
462 280 126.0475382971908 151.6266373915226
463 280 126.2204837208299 121.3035477192216
464 280 22.81373585543468 154.3730918684226
465 280 23.00985153341049 63.74637909541725
466 280 224.7127161061264 154.0715196304648
467 280 224.9901484665857 63.74637909541197
468 280 94.86638987732979 155.8472091560364
469 280 106.7198713942067 59.20922779170131
470 280 64.60180418238397 87.08737651439466
471 280 181.7938219806655 87.42602409610916
472 280 54.29042761497207 156.747661917779
473 280 85.41035793270646 128.451323250374
474 280 157.0106101528023 158.8883074285084
475 280 21.50765194770371 128.5423858090821
476 280 226.4923480522849 128.5423858090893
477 280 21.50765194770371 89.31361419091786
478 280 226.4923480522849 89.31361419091058
479 280 49.07915170157043 118.8441989654125
480 280 203.2078941377551 120.2104413298031
481 280 167.616013438797 128.1960560610811
482 280 198.1740988283622 158.5016277643007
483 280 44.27267494145287 58.97963485067556
484 280 203.7273250585393 58.97963485063829
485 280 86.30186385206105 55.21417243236068
486 280 159.6617573304739 56.94922646080516
487 280 109.7908334385128 80.62627618911144
488 280 163.6366682432615 95.16011619096354
489 280 144.6233008134891 89.11544789678638
490 280 84.60812712506232 93.68371960193232
491 280 46.20357919242385 98.77188397639851
492 280 200.1850282901655 100.0059313032871
493 280 62.5621823486989 133.261843252526
494 280 111.4568731672902 164.6794392297257
495 280 189.0653592068924 134.5222997909995
496 280 38.58126264746075 162.620095942421
497 280 139.925677869221 163.4436205171628
498 280 12.20668521682472 167.2613333333172
499 280 12.11403859383755 50.72996602547033
500 280 235.9781790265158 166.8805465742748
501 280 235.8859614061561 50.72996602546985
502 278.2449983784607 234.3491205768571 33.2693781060066
503 278.2442781917959 13.63446540814307 33.26832888797622
504 135.0000000005738 124 28.928
505 75.99395510618359 170.4724260246111 28.928
506 75.25621094740565 74.80171022923813 28.928
507 194.0060448943289 77.52757397507608 28.928
508 194.7437890530122 173.1982897710752 28.928
509 131.4966744289768 61.65945140841443 28.928
510 138.503325571844 186.3405485915911 28.928
511 216.8367116536386 124.0000000000024 28.928
512 57.72409802543411 122.4219988702365 28.928
513 225.2665440668481 44.25983176208875 28.928
514 44.73345593339043 203.7401682377377 28.928
515 44.73345593339053 44.25983176226229 28.928
516 225.2665440668686 203.7401682379108 28.928
517 94.25139301217705 132.1854047858409 28.928
518 175.748606988446 115.8145952139227 28.928
519 95.66763672051748 42.70585567732046 28.928
520 97.54153522001485 207.183718578228 28.928
521 172.4584647806674 40.81628142152864 28.928
522 174.3323632802827 205.2941443228551 28.928
523 38.10483189831974 161.0093629550278 28.928
524 37.91867212311877 87.2970287945389 28.928
525 232.3481839232872 86.21535633467144 28.928
526 232.1795033225559 159.9290377106011 28.928
527 112.0666556454284 91.94653670747047 28.928
528 157.9333443553384 156.0534632925317 28.928
529 120.7242044266379 157.0255341767864 28.928
530 149.2757955737331 90.97446582318705 28.928
531 135.0000000005131 23.87242855276292 28.928
532 135.0000000005128 224.1275714472387 28.928
533 192.8293728795687 140.4866900353359 28.928
534 77.08957820996002 107.5477166052038 28.928
535 70.99818391764845 30.00587664338131 28.928
536 71.11200185372012 218.1088934158726 28.928
537 198.887998146786 29.89110658393729 28.928
538 199.001816082873 217.9941233568013 28.928
539 166.918408782989 68.70571710908393 28.928
540 103.0815912173089 179.2942828906938 28.928
541 243.7598908801569 135.5043292753207 28.928
542 28.70762058361307 134.5818805324696 28.928
543 199.9220407536547 102.4993458152147 28.928
544 70.24756155842768 145.4419732356129 28.928
545 245.2216851741092 63.76726580098469 28.928
546 245.2154124678802 184.1637299911587 28.928
547 24.79516107371387 184.2039039233961 28.928
548 24.78823837129817 63.80748983179396 28.928
549 159.7823225270618 179.9139415614062 28.928
550 110.2176774736787 68.08605843873779 28.928
551 26.00971496151389 222.0040077860253 28.928
552 26.00971496151386 25.99599221397474 28.928
553 243.9902850386104 25.99599221384608 28.928
554 243.99028503861 222.0040077861576 28.928
555 21.20777595712384 106.3830327053705 28.928
556 243.808795374926 108.5409856614639 28.928
557 155.5311214661256 132.34764766502 28.928
558 114.4688785345716 115.6523523351583 28.928
559 216.898461801088 68.4487905208989 28.928
560 216.6086437894091 178.5885984265959 28.928
561 53.17984854422637 179.4171909813166 28.928
562 53.40832725827026 69.27761596151785 28.928
563 112.0289958037511 21.54614122394767 28.928
564 112.0289958037502 226.4538587760525 28.928
565 157.9710041971243 21.54614122383125 28.928
566 157.9710041971234 226.4538587761698 28.928
567 194.2056654507615 53.70206475325301 28.928
568 71.79342187094059 54.34488300374349 28.928
569 75.80099359268775 194.2865391157458 28.928
570 198.2094066374812 193.6328193944977 28.928
571 96.29865728839557 154.5109557893821 28.928
572 173.721533463528 93.48205838306581 28.928
573 208.1082130556297 153.7534667372373 28.928
574 60.36149437316304 93.08870110139699 28.928
575 220.7374083467448 22.48663825094071 28.928
576 220.7374083467563 225.5133617490557 28.928
577 49.26259165365141 22.48663825105897 28.928
578 49.26259165365052 225.5133617489412 28.928
579 90.10259965216126 18.85157470892989 28.928
580 90.50014293927491 229.5492941540306 28.928
581 179.4998570614417 18.45070584585944 28.928
582 179.897400348582 229.1484252911652 28.928
583 122.4366829920304 43.69350621665033 28.928
584 122.6242074436413 200.2587585983354 28.928
585 147.7537634879346 47.65587057560695 28.928
586 149.1001459968534 203.7204146075676 28.928
587 137.8436213835022 145.3939535304096 28.928
588 132.156378617277 102.6060464695686 28.928
589 139.4652848386163 166.5716455093307 28.928
590 130.5347151620559 81.42835449072591 28.928
591 252.7773049658734 86.6632367197528 28.928
592 18.32152271112934 160.4390294821748 28.928
593 16.93509636931754 86.80000000000973 28.928
594 252.2309613341187 160.3994193953278 28.928
595 90.45180758986962 88.88825642678337 28.928
596 179.7843199243854 159.5140237995494 28.928
597 151.6575075135216 112.1805312291325 28.928
598 118.3424924876375 135.8194687708002 28.928
599 49.34812246363665 143.9327859792703 28.928
600 220.9711872508226 101.5534938028669 28.928
601 194.4817987074759 121.4548126615019 28.928
602 75.51820129315988 126.5451873384249 28.928
603 41.89859919940574 108.0873165449111 28.928
604 225.0139664593251 142.5808076128216 28.928
605 250.8999595243382 44.51439671873764 28.928
606 250.89995952443 203.4856032813225 28.928
607 19.10004047552624 203.485603281329 28.928
608 19.10004047552618 44.51439671867091 28.928
609 57.71034058600276 160.7568560613731 28.928
610 212.3937653527033 86.88786839010621 28.928
611 124.058342147525 176.9850905104652 28.928
612 145.9956537003103 71.00271365728179 28.928
613 89.66642791375367 65.39950213977345 28.928
614 180.779824075301 182.5023433361256 28.928
615 93.97441904752776 110.4609090331469 28.928
616 176.05142738689 137.6118721113103 28.928
617 256.455347922849 13.65886985779384 28.928
618 13.54465207725929 13.65886985786008 28.928
619 13.54465207725929 234.3411301421401 28.928
620 256.4553479228856 234.3411301422057 28.928
621 256.5265549059515 253.7410911454816 187.1157880077144
622 13.47344502558824 253.7410914311463 187.1157878074127
623 278.0889014247626 253.8795980934475 51.6252974593758
624 278.0889014153466 253.8795981064016 166.2307025875977
625 13.47344511619019 256.1877876616923 33.18690836103109
626 256.5265550286684 256.1877876416863 33.18690833249919
627 68.06344043086015 258 109.9292595632443
628 200.5855283427932 258 109.4030719312527
629 135.4547064338996 258 114.3317043140062
630 165.5734791465855 258 82.52539333026868
631 102.3961109063165 258 82.2193145254638
632 41.13650913760157 258 138.8874204675954
633 228.5234580766965 258 78.13686089227122
634 229.7047896974599 258 138.0595099603575
635 40.51409216809959 258 76.58671561354456
636 99.02070079453672 258 137.7989228852946
637 170.9210120915735 258 137.7374886808485
638 195.1602926049532 258 71.7512388275826
639 73.49787712523526 258 72.27155617232147
640 134.9999999994611 258 148.0946610645126
641 136.1508226812551 258 69.66261980961849
642 31.03531996818458 258 108.9279999999741
643 238.9646800318188 258 108.9280000000293
644 71.98332333622639 258 148.1708719374337
645 197.8697045816966 258 147.8365946788694
646 173.2399534520224 258 112.5519348470583
647 97.16184741284357 258 110.6247456908327
648 23.8821459570483 258 155.0488279641111
649 247.2002614233929 258 63.47772060746124
650 246.1178540429642 258 155.0488279641263
651 22.76394806687415 258 63.42007553103247
652 138.6116400307435 258 92.98854139115238
653 115.3012235730157 258 60.33956795447207
654 156.0862245735293 258 56.62066481395939
655 155.4590554065727 258 156.9917735338163
656 114.5326178622356 258 157.0005498486526
657 214.3809763303628 258 61.32761449974267
658 53.9087965818169 258 61.00592065235326
659 21.48047498640171 258 128.5257183026816
660 248.0553078659165 258 128.2167818060941
661 248.5195250136006 258 89.33028169732296
662 21.48047498640816 258 89.33028169726632
663 187.6778168196433 258 93.09398640664226
664 82.33319883269972 258 92.3582744810019
665 91.47096476209263 258 160.1652689342762
666 178.4863180521996 258 160.0843713787069
667 118.6538244491862 258 100.8838166640931
668 48.19235449283872 258 119.0654516696023
669 220.7141780748001 258 99.18073059225824
670 210.1313513219028 258 133.3812048181234
671 80.00978171815588 258 128.228061050163
672 60.4115993195071 258 84.85440744045295
673 51.27294069679878 258 157.3786360307059
674 219.2008397399675 258 156.9748537098513
675 149.1356077947676 258 129.9035150678939
676 121.1599229059938 258 129.9073523282449
677 189.8985697597324 258 127.7876536857405
678 92.60267868469136 258 58.53728773045147
679 177.0003629015397 258 57.75065939436213
680 152.6805054098341 258 107.5122073160683
681 207.8403750415415 258 85.48225052495826
682 224.9604013709577 258 119.8938049087389
683 122.2227243281034 258 81.21877206895999
684 59.64535517351725 258 133.9397017070169
685 44.35974911756088 258 97.27172144979184
686 134.9995664962273 258 165.4422517837073
687 231.6486414491813 258 52.83625074267328
688 38.28331246477255 258 53.90676518016394
689 12.10690012560648 258 167.1248736576864
690 258.1637017195136 258 50.89876348520673
691 257.8930998743795 258 167.1248736576901
692 11.82735065308167 258 50.88435221609954
693 135.1321465450386 258 51.87831592488381
694 37.19786257248967 258 167.5708659987042
695 232.9205825366122 258 167.4699204184944
$EndNodes
$Elements
1300
1 2 2 1 1 1 4 59
2 2 2 1 1 5 298 59
3 2 2 1 1 59 57 1
4 2 2 1 1 57 298 2
5 2 2 1 1 298 5 2
6 2 2 1 1 298 57 59
7 2 2 1 2 5 299 2
8 2 2 1 2 6 3 60
9 2 2 1 2 58 299 60
10 2 2 1 2 60 3 58
11 2 2 1 2 299 5 60
12 2 2 1 2 299 58 2
13 2 2 1 3 61 301 300
14 2 2 1 3 59 301 5
15 2 2 1 3 301 61 8
16 2 2 1 3 61 300 7
17 2 2 1 3 5 301 8
18 2 2 1 3 59 300 301
19 2 2 1 3 7 300 4
20 2 2 1 3 300 59 4
21 2 2 1 4 8 62 302
22 2 2 1 4 5 8 302
23 2 2 1 4 60 302 6
24 2 2 1 4 302 9 6
25 2 2 1 4 302 60 5
26 2 2 1 4 302 62 9
27 2 2 1 5 303 305 304
28 2 2 1 5 303 304 66
29 2 2 1 5 305 65 304
30 2 2 1 5 8 304 65
31 2 2 1 5 66 10 303
32 2 2 1 5 303 10 63
33 2 2 1 5 11 65 305
34 2 2 1 5 11 305 63
35 2 2 1 5 304 8 61
36 2 2 1 5 305 303 63
37 2 2 1 5 304 61 7
38 2 2 1 5 66 304 7
39 2 2 1 6 12 67 306
40 2 2 1 6 12 306 64
41 2 2 1 6 65 11 307
42 2 2 1 6 307 11 64
43 2 2 1 6 67 9 308
44 2 2 1 6 308 9 62
45 2 2 1 6 306 67 308
46 2 2 1 6 306 307 64
47 2 2 1 6 308 8 307
48 2 2 1 6 307 306 308
49 2 2 1 6 65 307 8
50 2 2 1 6 8 308 62
51 2 2 1 7 309 70 310
52 2 2 1 7 68 14 70
53 2 2 1 7 309 310 71
54 2 2 1 7 71 13 309
55 2 2 1 7 309 13 68
56 2 2 1 7 70 309 68
57 2 2 1 7 11 310 70
58 2 2 1 7 310 63 10
59 2 2 1 7 310 11 63
60 2 2 1 7 71 310 10
61 2 2 1 8 15 311 69
62 2 2 1 8 72 311 15
63 2 2 1 8 72 12 311
64 2 2 1 8 70 14 69
65 2 2 1 8 311 12 64
66 2 2 1 8 11 311 64
67 2 2 1 8 311 11 70
68 2 2 1 8 311 70 69
69 2 2 1 9 312 78 73
70 2 2 1 9 78 16 73
71 2 2 1 9 74 17 77
72 2 2 1 9 74 312 73
73 2 2 1 9 312 74 77
74 2 2 1 9 68 313 312
75 2 2 1 9 78 312 313
76 2 2 1 9 14 312 77
77 2 2 1 9 312 14 68
78 2 2 1 9 313 68 13
79 2 2 1 9 78 313 13
80 2 2 1 10 79 15 314
81 2 2 1 10 314 15 69
82 2 2 1 10 314 316 315
83 2 2 1 10 79 314 315
84 2 2 1 10 77 17 75
85 2 2 1 10 76 18 79
86 2 2 1 10 316 314 69
87 2 2 1 10 316 14 77
88 2 2 1 10 14 316 69
89 2 2 1 10 75 315 77
90 2 2 1 10 79 315 76
91 2 2 1 10 316 77 315
92 2 2 1 10 315 75 76
93 2 2 1 11 85 19 80
94 2 2 1 11 81 20 84
95 2 2 1 11 317 81 318
96 2 2 1 11 84 318 81
97 2 2 1 11 85 319 16
98 2 2 1 11 319 73 16
99 2 2 1 11 74 319 318
100 2 2 1 11 319 74 73
101 2 2 1 11 318 319 317
102 2 2 1 11 319 85 317
103 2 2 1 11 318 17 74
104 2 2 1 11 317 85 80
105 2 2 1 11 81 317 80
106 2 2 1 11 17 318 84
107 2 2 1 12 320 321 75
108 2 2 1 12 75 17 320
109 2 2 1 12 321 320 83
110 2 2 1 12 86 18 76
111 2 2 1 12 86 321 83
112 2 2 1 12 84 20 82
113 2 2 1 12 82 83 320
114 2 2 1 12 83 21 86
115 2 2 1 12 321 86 76
116 2 2 1 12 75 321 76
117 2 2 1 12 320 84 82
118 2 2 1 12 84 320 17
119 2 2 1 13 88 323 322
120 2 2 1 13 88 89 323
121 2 2 1 13 94 22 87
122 2 2 1 13 89 23 93
123 2 2 1 13 322 323 324
124 2 2 1 13 93 323 89
125 2 2 1 13 325 322 324
126 2 2 1 13 94 325 19
127 2 2 1 13 322 325 87
128 2 2 1 13 325 94 87
129 2 2 1 13 87 88 322
130 2 2 1 13 20 324 323
131 2 2 1 13 324 20 81
132 2 2 1 13 324 80 325
133 2 2 1 13 325 80 19
134 2 2 1 13 323 93 20
135 2 2 1 13 80 324 81
136 2 2 1 14 326 327 92
137 2 2 1 14 326 92 95
138 2 2 1 14 95 92 24
139 2 2 1 14 93 329 328
140 2 2 1 14 93 328 20
141 2 2 1 14 327 329 92
142 2 2 1 14 329 327 328
143 2 2 1 14 329 93 90
144 2 2 1 14 93 23 90
145 2 2 1 14 329 90 91
146 2 2 1 14 91 92 329
147 2 2 1 14 328 327 82
148 2 2 1 14 326 83 327
149 2 2 1 14 82 327 83
150 2 2 1 14 326 95 21
151 2 2 1 14 83 326 21
152 2 2 1 14 20 328 82
153 2 2 1 15 103 25 330
154 2 2 1 15 330 25 96
155 2 2 1 15 331 97 98
156 2 2 1 15 98 26 102
157 2 2 1 15 331 102 23
158 2 2 1 15 330 332 103
159 2 2 1 15 102 331 98
160 2 2 1 15 330 97 333
161 2 2 1 15 333 97 334
162 2 2 1 15 334 97 331
163 2 2 1 15 334 88 333
164 2 2 1 15 97 330 96
165 2 2 1 15 88 87 333
166 2 2 1 15 87 332 333
167 2 2 1 15 333 332 330
168 2 2 1 15 103 332 22
169 2 2 1 15 331 23 89
170 2 2 1 15 332 87 22
171 2 2 1 15 88 334 89
172 2 2 1 15 334 331 89
173 2 2 1 16 90 23 335
174 2 2 1 16 336 338 337
175 2 2 1 16 26 99 102
176 2 2 1 16 102 335 23
177 2 2 1 16 335 102 99
178 2 2 1 16 337 338 104
179 2 2 1 16 339 90 335
180 2 2 1 16 91 90 339
181 2 2 1 16 336 339 101
182 2 2 1 16 339 335 100
183 2 2 1 16 101 339 100
184 2 2 1 16 101 338 336
185 2 2 1 16 91 339 336
186 2 2 1 16 337 92 336
187 2 2 1 16 92 91 336
188 2 2 1 16 335 99 100
189 2 2 1 16 337 104 24
190 2 2 1 16 338 101 27
191 2 2 1 16 92 337 24
192 2 2 1 16 104 338 27
193 2 2 1 17 114 28 340
194 2 2 1 17 340 28 105
195 2 2 1 17 108 29 113
196 2 2 1 17 114 340 25
197 2 2 1 17 340 96 25
198 2 2 1 17 107 341 106
199 2 2 1 17 341 107 342
200 2 2 1 17 97 341 342
201 2 2 1 17 97 342 98
202 2 2 1 17 343 96 340
203 2 2 1 17 341 97 343
204 2 2 1 17 97 96 343
205 2 2 1 17 343 105 106
206 2 2 1 17 113 344 108
207 2 2 1 17 341 343 106
208 2 2 1 17 343 340 105
209 2 2 1 17 344 113 26
210 2 2 1 17 342 26 98
211 2 2 1 17 342 107 344
212 2 2 1 17 344 107 108
213 2 2 1 17 26 342 344
214 2 2 1 18 345 101 346
215 2 2 1 18 346 101 100
216 2 2 1 18 346 347 111
217 2 2 1 18 29 109 113
218 2 2 1 18 347 346 100
219 2 2 1 18 115 345 30
220 2 2 1 18 113 348 26
221 2 2 1 18 348 113 109
222 2 2 1 18 345 112 30
223 2 2 1 18 347 100 99
224 2 2 1 18 348 347 99
225 2 2 1 18 112 346 111
226 2 2 1 18 99 26 348
227 2 2 1 18 348 109 110
228 2 2 1 18 345 115 27
229 2 2 1 18 101 345 27
230 2 2 1 18 347 348 110
231 2 2 1 18 347 110 111
232 2 2 1 18 345 346 112
233 2 2 1 19 118 349 117
234 2 2 1 19 32 126 120
235 2 2 1 19 349 350 117
236 2 2 1 19 351 116 350
237 2 2 1 19 350 116 117
238 2 2 1 19 350 349 106
239 2 2 1 19 119 120 352
240 2 2 1 19 349 118 353
241 2 2 1 19 105 351 350
242 2 2 1 19 351 105 28
243 2 2 1 19 127 351 28
244 2 2 1 19 353 352 108
245 2 2 1 19 108 352 354
246 2 2 1 19 29 108 354
247 2 2 1 19 354 352 120
248 2 2 1 19 126 354 120
249 2 2 1 19 351 127 31
250 2 2 1 19 353 107 349
251 2 2 1 19 354 126 29
252 2 2 1 19 353 108 107
253 2 2 1 19 119 353 118
254 2 2 1 19 119 352 353
255 2 2 1 19 107 106 349
256 2 2 1 19 105 350 106
257 2 2 1 19 116 351 31
258 2 2 1 20 32 121 126
259 2 2 1 20 125 356 355
260 2 2 1 20 125 355 124
261 2 2 1 20 110 358 357
262 2 2 1 20 110 357 111
263 2 2 1 20 359 122 358
264 2 2 1 20 358 110 109
265 2 2 1 20 359 358 109
266 2 2 1 20 109 29 359
267 2 2 1 20 124 355 357
268 2 2 1 20 355 111 357
269 2 2 1 20 128 356 33
270 2 2 1 20 356 125 33
271 2 2 1 20 112 356 30
272 2 2 1 20 356 128 30
273 2 2 1 20 359 126 121
274 2 2 1 20 355 356 112
275 2 2 1 20 123 358 122
276 2 2 1 20 126 359 29
277 2 2 1 20 122 359 121
278 2 2 1 20 123 357 358
279 2 2 1 20 355 112 111
280 2 2 1 20 357 123 124
281 2 2 1 21 132 361 360
282 2 2 1 21 35 141 134
283 2 2 1 21 360 361 119
284 2 2 1 21 131 360 362
285 2 2 1 21 117 362 118
286 2 2 1 21 362 360 118
287 2 2 1 21 363 129 364
288 2 2 1 21 363 364 116
289 2 2 1 21 119 118 360
290 2 2 1 21 120 119 361
291 2 2 1 21 131 362 130
292 2 2 1 21 132 133 361
293 2 2 1 21 362 117 130
294 2 2 1 21 364 130 117
295 2 2 1 21 130 364 129
296 2 2 1 21 132 360 131
297 2 2 1 21 365 133 134
298 2 2 1 21 141 32 365
299 2 2 1 21 141 365 134
300 2 2 1 21 365 32 120
301 2 2 1 21 129 363 34
302 2 2 1 21 363 142 34
303 2 2 1 21 116 364 117
304 2 2 1 21 142 363 31
305 2 2 1 21 363 116 31
306 2 2 1 21 120 361 133
307 2 2 1 21 365 120 133
308 2 2 1 22 141 135 366
309 2 2 1 22 141 366 32
310 2 2 1 22 366 136 367
311 2 2 1 22 135 141 35
312 2 2 1 22 366 367 121
313 2 2 1 22 367 137 368
314 2 2 1 22 367 368 122
315 2 2 1 22 369 139 370
316 2 2 1 22 369 370 124
317 2 2 1 22 368 138 369
318 2 2 1 22 368 369 123
319 2 2 1 22 33 371 36
320 2 2 1 22 140 371 125
321 2 2 1 22 371 140 36
322 2 2 1 22 371 33 125
323 2 2 1 22 370 140 125
324 2 2 1 22 140 370 139
325 2 2 1 22 124 370 125
326 2 2 1 22 139 369 138
327 2 2 1 22 123 369 124
328 2 2 1 22 368 123 122
329 2 2 1 22 368 137 138
330 2 2 1 22 366 135 136
331 2 2 1 22 366 121 32
332 2 2 1 22 367 122 121
333 2 2 1 22 367 136 137
334 2 2 1 23 130 129 144
335 2 2 1 23 143 129 34
336 2 2 1 23 144 129 143
337 2 2 1 23 38 35 149
338 2 2 1 23 148 149 134
339 2 2 1 23 133 148 134
340 2 2 1 23 149 35 134
341 2 2 1 23 132 147 133
342 2 2 1 23 145 146 131
343 2 2 1 23 132 146 147
344 2 2 1 23 147 148 133
345 2 2 1 23 131 146 132
346 2 2 1 23 130 145 131
347 2 2 1 23 144 145 130
348 2 2 1 23 143 34 37
349 2 2 1 24 156 140 155
350 2 2 1 24 35 38 150
351 2 2 1 24 151 152 136
352 2 2 1 24 140 139 155
353 2 2 1 24 154 139 138
354 2 2 1 24 135 35 150
355 2 2 1 24 153 138 137
356 2 2 1 24 150 151 135
357 2 2 1 24 154 138 153
358 2 2 1 24 135 151 136
359 2 2 1 24 156 39 36
360 2 2 1 24 137 152 153
361 2 2 1 24 156 36 140
362 2 2 1 24 136 152 137
363 2 2 1 24 155 139 154
364 2 2 4 25 389 380 408
365 2 2 4 25 393 422 430
366 2 2 4 25 393 384 422
367 2 2 4 25 374 389 408
368 2 2 4 25 372 394 403
369 2 2 4 25 396 372 403
370 2 2 4 25 154 386 402
371 2 2 4 25 152 151 387
372 2 2 4 25 375 394 405
373 2 2 4 25 388 161 406
374 2 2 4 25 417 143 425
375 2 2 4 25 391 376 409
376 2 2 4 25 422 372 430
377 2 2 4 25 416 164 419
378 2 2 4 25 170 415 421
379 2 2 4 25 164 165 419
380 2 2 4 25 377 386 420
381 2 2 4 25 148 392 400
382 2 2 4 25 159 391 409
383 2 2 4 25 380 390 413
384 2 2 4 25 377 398 405
385 2 2 4 25 398 387 405
386 2 2 4 25 381 389 426
387 2 2 4 25 144 143 417
388 2 2 4 25 161 388 404
389 2 2 4 25 394 399 405
390 2 2 4 25 169 170 421
391 2 2 4 25 389 374 426
392 2 2 4 25 390 383 427
393 2 2 4 25 373 390 427
394 2 2 4 25 390 373 413
395 2 2 4 25 373 397 413
396 2 2 4 25 384 393 408
397 2 2 4 25 409 376 436
398 2 2 4 25 397 384 413
399 2 2 4 25 393 374 408
400 2 2 4 25 378 391 423
401 2 2 4 25 152 387 398
402 2 2 4 25 166 389 419
403 2 2 4 25 386 377 432
404 2 2 4 25 390 168 421
405 2 2 4 25 395 145 417
406 2 2 4 25 386 154 420
407 2 2 4 25 387 151 414
408 2 2 4 25 397 377 399
409 2 2 4 25 148 147 392
410 2 2 4 25 158 159 409
411 2 2 4 25 385 417 425
412 2 2 4 25 161 162 406
413 2 2 4 25 389 381 419
414 2 2 4 25 382 400 437
415 2 2 4 25 376 396 403
416 2 2 4 25 378 388 418
417 2 2 4 25 155 154 402
418 2 2 4 25 404 378 423
419 2 2 4 25 388 378 404
420 2 2 4 25 390 380 407
421 2 2 4 25 400 392 437
422 2 2 4 25 380 389 411
423 2 2 4 25 389 166 411
424 2 2 4 25 383 390 421
425 2 2 4 25 168 390 407
426 2 2 4 25 378 393 430
427 2 2 4 25 376 391 424
428 2 2 4 25 398 377 420
429 2 2 4 25 145 144 417
430 2 2 4 25 396 378 430
431 2 2 4 25 394 375 410
432 2 2 4 25 379 394 410
433 2 2 4 25 394 372 399
434 2 2 4 25 392 147 401
435 2 2 4 25 149 148 400
436 2 2 4 25 160 161 404
437 2 2 4 25 391 378 424
438 2 2 4 25 397 399 422
439 2 2 4 25 165 166 419
440 2 2 4 25 391 159 423
441 2 2 4 25 168 169 421
442 2 2 4 25 394 379 403
443 2 2 4 25 377 397 432
444 2 2 4 25 393 378 418
445 2 2 4 25 145 395 412
446 2 2 4 25 387 414 433
447 2 2 4 25 415 383 421
448 2 2 4 25 40 164 416
449 2 2 4 25 374 393 418
450 2 2 4 25 378 396 424
451 2 2 4 25 372 396 430
452 2 2 4 25 170 39 415
453 2 2 4 25 395 379 412
454 2 2 4 25 39 156 415
455 2 2 4 25 163 40 416
456 2 2 4 25 385 409 436
457 2 2 4 25 381 416 419
458 2 2 4 25 418 388 426
459 2 2 4 25 376 403 429
460 2 2 4 25 396 376 424
461 2 2 4 25 379 395 429
462 2 2 4 25 153 152 398
463 2 2 4 25 374 418 426
464 2 2 4 25 414 382 433
465 2 2 4 25 147 146 401
466 2 2 4 25 38 149 400
467 2 2 4 25 427 386 432
468 2 2 4 25 167 168 407
469 2 2 4 25 151 150 414
470 2 2 4 25 399 377 405
471 2 2 4 25 402 386 427
472 2 2 4 25 37 157 425
473 2 2 4 25 143 37 425
474 2 2 4 25 399 372 422
475 2 2 4 25 407 380 411
476 2 2 4 25 408 380 413
477 2 2 4 25 146 145 412
478 2 2 4 25 384 408 413
479 2 2 4 25 154 153 420
480 2 2 4 25 392 401 410
481 2 2 4 25 397 373 432
482 2 2 4 25 384 397 422
483 2 2 4 25 392 410 437
484 2 2 4 25 405 387 433
485 2 2 4 25 379 401 412
486 2 2 4 25 375 405 433
487 2 2 4 25 410 375 437
488 2 2 4 25 166 167 411
489 2 2 4 25 401 146 412
490 2 2 4 25 401 379 410
491 2 2 4 25 388 406 426
492 2 2 4 25 153 398 420
493 2 2 4 25 429 395 436
494 2 2 4 25 373 427 432
495 2 2 4 25 167 407 411
496 2 2 4 25 159 160 423
497 2 2 4 25 403 379 429
498 2 2 4 25 38 400 428
499 2 2 4 25 402 383 431
500 2 2 4 25 376 429 436
501 2 2 4 25 157 158 435
502 2 2 4 25 156 155 431
503 2 2 4 25 162 163 434
504 2 2 4 25 150 38 428
505 2 2 4 25 160 404 423
506 2 2 4 25 400 382 428
507 2 2 4 25 383 402 427
508 2 2 4 25 381 406 434
509 2 2 4 25 155 402 431
510 2 2 4 25 406 381 426
511 2 2 4 25 383 415 431
512 2 2 4 25 416 381 434
513 2 2 4 25 158 409 435
514 2 2 4 25 406 162 434
515 2 2 4 25 395 417 436
516 2 2 4 25 414 150 428
517 2 2 4 25 409 385 435
518 2 2 4 25 415 156 431
519 2 2 4 25 382 414 428
520 2 2 4 25 417 385 436
521 2 2 4 25 163 416 434
522 2 2 4 25 385 425 435
523 2 2 4 25 425 157 435
524 2 2 4 25 433 382 437
525 2 2 4 25 375 433 437
526 2 2 2 26 57 171 1
527 2 2 2 26 171 57 438
528 2 2 2 26 172 58 3
529 2 2 2 26 41 171 438
530 2 2 2 26 57 2 438
531 2 2 2 26 172 41 438
532 2 2 2 26 58 172 438
533 2 2 2 26 2 58 438
534 2 2 3 27 270 51 439
535 2 2 3 27 51 215 439
536 2 2 3 27 215 38 439
537 2 2 3 27 149 270 439
538 2 2 3 27 262 143 37
539 2 2 3 27 38 149 439
540 2 2 3 27 206 39 156
541 2 2 3 27 144 143 263
542 2 2 3 27 143 262 263
543 2 2 3 27 145 144 264
544 2 2 3 27 144 263 264
545 2 2 3 27 145 265 146
546 2 2 3 27 265 145 264
547 2 2 3 27 267 147 146
548 2 2 3 27 265 266 146
549 2 2 3 27 266 267 146
550 2 2 3 27 147 268 148
551 2 2 3 27 267 268 147
552 2 2 3 27 269 149 148
553 2 2 3 27 268 269 148
554 2 2 3 27 213 151 150
555 2 2 3 27 214 213 150
556 2 2 3 27 215 214 150
557 2 2 3 27 212 152 151
558 2 2 3 27 151 213 212
559 2 2 3 27 211 153 152
560 2 2 3 27 152 212 211
561 2 2 3 27 210 154 153
562 2 2 3 27 153 211 210
563 2 2 3 27 208 155 154
564 2 2 3 27 154 209 208
565 2 2 3 27 209 154 210
566 2 2 3 27 207 156 155
567 2 2 3 27 155 208 207
568 2 2 3 27 156 207 206
569 2 2 3 27 43 262 37
570 2 2 3 27 215 150 38
571 2 2 3 27 39 206 47
572 2 2 3 27 269 270 149
573 2 2 3 28 272 263 271
574 2 2 3 28 271 263 262
575 2 2 3 28 272 273 264
576 2 2 3 28 272 264 263
577 2 2 3 28 274 275 265
578 2 2 3 28 265 275 266
579 2 2 3 28 271 440 44
580 2 2 3 28 440 173 44
581 2 2 3 28 441 279 52
582 2 2 3 28 216 441 52
583 2 2 3 28 265 264 274
584 2 2 3 28 275 276 267
585 2 2 3 28 276 277 267
586 2 2 3 28 274 264 273
587 2 2 3 28 270 441 51
588 2 2 3 28 441 270 279
589 2 2 3 28 441 216 51
590 2 2 3 28 440 262 43
591 2 2 3 28 262 440 271
592 2 2 3 28 173 440 43
593 2 2 3 28 277 278 269
594 2 2 3 28 277 269 268
595 2 2 3 28 270 269 279
596 2 2 3 28 278 279 269
597 2 2 3 28 277 268 267
598 2 2 3 28 267 266 275
599 2 2 3 29 466 279 482
600 2 2 3 29 273 453 468
601 2 2 3 29 458 285 486
602 2 2 3 29 174 175 464
603 2 2 3 29 218 217 466
604 2 2 3 29 177 178 465
605 2 2 3 29 221 220 467
606 2 2 3 29 279 278 482
607 2 2 3 29 464 175 475
608 2 2 3 29 218 466 476
609 2 2 3 29 177 465 477
610 2 2 3 29 467 220 478
611 2 2 3 29 453 273 472
612 2 2 3 29 284 285 458
613 2 2 3 29 450 462 463
614 2 2 3 29 454 176 477
615 2 2 3 29 176 454 475
616 2 2 3 29 219 455 478
617 2 2 3 29 455 219 476
618 2 2 3 29 277 456 482
619 2 2 3 29 462 445 463
620 2 2 3 29 452 458 486
621 2 2 3 29 459 444 463
622 2 2 3 29 445 459 463
623 2 2 3 29 472 446 493
624 2 2 3 29 281 282 460
625 2 2 3 29 286 287 461
626 2 2 3 29 456 277 474
627 2 2 3 29 460 451 470
628 2 2 3 29 452 461 471
629 2 2 3 29 468 453 473
630 2 2 3 29 453 472 493
631 2 2 3 29 445 468 473
632 2 2 3 29 278 277 482
633 2 2 3 29 475 454 479
634 2 2 3 29 455 476 480
635 2 2 3 29 457 450 463
636 2 2 3 29 456 450 481
637 2 2 3 29 450 456 474
638 2 2 3 29 446 475 479
639 2 2 3 29 476 448 480
640 2 2 3 29 274 273 468
641 2 2 3 29 487 459 490
642 2 2 3 29 176 177 477
643 2 2 3 29 220 219 478
644 2 2 3 29 175 176 475
645 2 2 3 29 219 218 476
646 2 2 3 29 444 457 463
647 2 2 3 29 444 459 487
648 2 2 3 29 284 458 469
649 2 2 3 29 273 272 472
650 2 2 3 29 470 451 490
651 2 2 3 29 452 471 488
652 2 2 3 29 445 462 494
653 2 2 3 29 281 460 483
654 2 2 3 29 461 287 484
655 2 2 3 29 457 443 481
656 2 2 3 29 450 457 481
657 2 2 3 29 468 445 494
658 2 2 3 29 451 487 490
659 2 2 3 29 444 458 489
660 2 2 3 29 458 452 489
661 2 2 3 29 477 447 491
662 2 2 3 29 449 478 492
663 2 2 3 29 458 444 487
664 2 2 3 29 448 466 482
665 2 2 3 29 454 477 491
666 2 2 3 29 478 455 492
667 2 2 3 29 459 445 473
668 2 2 3 29 442 459 473
669 2 2 3 29 481 443 495
670 2 2 3 29 283 284 469
671 2 2 3 29 447 460 470
672 2 2 3 29 461 449 471
673 2 2 3 29 465 280 483
674 2 2 3 29 288 467 484
675 2 2 3 29 280 281 483
676 2 2 3 29 287 288 484
677 2 2 3 29 446 464 475
678 2 2 3 29 465 447 477
679 2 2 3 29 466 448 476
680 2 2 3 29 449 467 478
681 2 2 3 29 443 457 488
682 2 2 3 29 457 444 489
683 2 2 3 29 277 276 474
684 2 2 3 29 451 460 485
685 2 2 3 29 461 452 486
686 2 2 3 29 460 282 485
687 2 2 3 29 286 461 486
688 2 2 3 29 443 480 495
689 2 2 3 29 459 442 490
690 2 2 3 29 462 450 497
691 2 2 3 29 460 447 483
692 2 2 3 29 449 461 484
693 2 2 3 29 446 479 493
694 2 2 3 29 464 446 496
695 2 2 3 29 450 474 497
696 2 2 3 29 446 472 496
697 2 2 3 29 275 462 497
698 2 2 3 29 469 458 487
699 2 2 3 29 462 275 494
700 2 2 3 29 282 283 485
701 2 2 3 29 285 286 486
702 2 2 3 29 470 442 491
703 2 2 3 29 443 471 492
704 2 2 3 29 447 465 483
705 2 2 3 29 467 449 484
706 2 2 3 29 52 279 500
707 2 2 3 29 288 53 501
708 2 2 3 29 271 44 498
709 2 2 3 29 45 280 499
710 2 2 3 29 471 443 488
711 2 2 3 29 442 479 491
712 2 2 3 29 480 443 492
713 2 2 3 29 276 275 497
714 2 2 3 29 469 451 485
715 2 2 3 29 283 469 485
716 2 2 3 29 442 470 490
717 2 2 3 29 448 482 495
718 2 2 3 29 272 271 496
719 2 2 3 29 275 274 494
720 2 2 3 29 482 456 495
721 2 2 3 29 447 470 491
722 2 2 3 29 471 449 492
723 2 2 3 29 174 464 498
724 2 2 3 29 465 178 499
725 2 2 3 29 466 217 500
726 2 2 3 29 221 467 501
727 2 2 3 29 456 481 495
728 2 2 3 29 451 469 487
729 2 2 3 29 44 174 498
730 2 2 3 29 178 45 499
731 2 2 3 29 217 52 500
732 2 2 3 29 53 221 501
733 2 2 3 29 271 464 496
734 2 2 3 29 464 271 498
735 2 2 3 29 280 465 499
736 2 2 3 29 279 466 500
737 2 2 3 29 467 288 501
738 2 2 3 29 274 468 494
739 2 2 3 29 442 473 493
740 2 2 3 29 479 454 491
741 2 2 3 29 455 480 492
742 2 2 3 29 473 453 493
743 2 2 3 29 479 442 493
744 2 2 3 29 488 457 489
745 2 2 3 29 452 488 489
746 2 2 3 29 472 272 496
747 2 2 3 29 474 276 497
748 2 2 3 29 480 448 495
749 2 2 3 30 290 281 289
750 2 2 3 30 289 281 280
751 2 2 3 30 290 291 282
752 2 2 3 30 290 282 281
753 2 2 3 30 292 293 283
754 2 2 3 30 283 293 284
755 2 2 3 30 502 297 54
756 2 2 3 30 222 502 54
757 2 2 3 30 289 503 46
758 2 2 3 30 503 179 46
759 2 2 3 30 283 282 292
760 2 2 3 30 292 282 291
761 2 2 3 30 293 294 285
762 2 2 3 30 285 295 286
763 2 2 3 30 288 502 53
764 2 2 3 30 502 288 297
765 2 2 3 30 502 222 53
766 2 2 3 30 503 280 45
767 2 2 3 30 280 503 289
768 2 2 3 30 179 503 45
769 2 2 3 30 295 296 287
770 2 2 3 30 295 287 286
771 2 2 3 30 288 287 297
772 2 2 3 30 296 297 287
773 2 2 3 30 285 294 295
774 2 2 3 30 284 293 285
775 2 2 3 31 535 515 568
776 2 2 3 31 514 536 569
777 2 2 3 31 513 537 567
778 2 2 3 31 538 516 570
779 2 2 3 31 515 562 568
780 2 2 3 31 561 514 569
781 2 2 3 31 559 513 567
782 2 2 3 31 516 560 570
783 2 2 3 31 182 537 575
784 2 2 3 31 538 225 576
785 2 2 3 31 535 187 577
786 2 2 3 31 230 536 578
787 2 2 3 31 511 541 556
788 2 2 3 31 184 185 531
789 2 2 3 31 228 227 532
790 2 2 3 31 511 533 573
791 2 2 3 31 512 534 574
792 2 2 3 31 189 552 577
793 2 2 3 31 551 232 578
794 2 2 3 31 553 180 575
795 2 2 3 31 223 554 576
796 2 2 3 31 188 189 577
797 2 2 3 31 232 231 578
798 2 2 3 31 180 181 575
799 2 2 3 31 224 223 576
800 2 2 3 31 181 182 575
801 2 2 3 31 225 224 576
802 2 2 3 31 231 230 578
803 2 2 3 31 187 188 577
804 2 2 3 31 542 512 603
805 2 2 3 31 511 573 604
806 2 2 3 31 511 556 600
807 2 2 3 31 521 539 567
808 2 2 3 31 520 540 569
809 2 2 3 31 539 507 567
810 2 2 3 31 540 505 569
811 2 2 3 31 555 542 603
812 2 2 3 31 571 529 598
813 2 2 3 31 572 530 597
814 2 2 3 31 517 571 598
815 2 2 3 31 518 572 597
816 2 2 3 31 294 293 541
817 2 2 3 31 201 200 542
818 2 2 3 31 512 574 603
819 2 2 3 31 201 542 555
820 2 2 3 31 541 293 556
821 2 2 3 31 184 531 565
822 2 2 3 31 532 227 566
823 2 2 3 31 531 185 563
824 2 2 3 31 228 532 564
825 2 2 3 31 540 520 584
826 2 2 3 31 539 521 585
827 2 2 3 31 542 200 592
828 2 2 3 31 294 541 594
829 2 2 3 31 506 574 595
830 2 2 3 31 508 573 596
831 2 2 3 31 574 534 595
832 2 2 3 31 573 533 596
833 2 2 3 31 533 511 601
834 2 2 3 31 534 512 602
835 2 2 3 31 540 584 611
836 2 2 3 31 539 585 612
837 2 2 3 31 527 550 595
838 2 2 3 31 528 549 596
839 2 2 3 31 291 290 545
840 2 2 3 31 199 198 547
841 2 2 3 31 204 203 548
842 2 2 3 31 296 295 546
843 2 2 3 31 547 514 561
844 2 2 3 31 515 548 562
845 2 2 3 31 545 513 559
846 2 2 3 31 516 546 560
847 2 2 3 31 523 547 561
848 2 2 3 31 548 524 562
849 2 2 3 31 525 545 559
850 2 2 3 31 546 526 560
851 2 2 3 31 537 182 581
852 2 2 3 31 225 538 582
853 2 2 3 31 187 535 579
854 2 2 3 31 536 230 580
855 2 2 3 31 539 530 572
856 2 2 3 31 540 529 571
857 2 2 3 31 519 535 568
858 2 2 3 31 536 520 569
859 2 2 3 31 537 521 567
860 2 2 3 31 522 538 570
861 2 2 3 31 541 526 594
862 2 2 3 31 523 542 592
863 2 2 3 31 531 583 585
864 2 2 3 31 584 532 586
865 2 2 3 31 583 509 585
866 2 2 3 31 510 584 586
867 2 2 3 31 595 550 613
868 2 2 3 31 596 549 614
869 2 2 3 31 202 201 555
870 2 2 3 31 293 292 556
871 2 2 3 31 518 543 572
872 2 2 3 31 517 544 571
873 2 2 3 31 543 507 572
874 2 2 3 31 544 505 571
875 2 2 3 31 537 513 575
876 2 2 3 31 515 535 577
877 2 2 3 31 536 514 578
878 2 2 3 31 516 538 576
879 2 2 3 31 507 559 567
880 2 2 3 31 560 508 570
881 2 2 3 31 505 561 569
882 2 2 3 31 562 506 568
883 2 2 3 31 535 519 579
884 2 2 3 31 520 536 580
885 2 2 3 31 521 537 581
886 2 2 3 31 538 522 582
887 2 2 3 31 601 518 616
888 2 2 3 31 602 517 615
889 2 2 3 31 507 539 572
890 2 2 3 31 505 540 571
891 2 2 3 31 533 601 616
892 2 2 3 31 534 602 615
893 2 2 3 31 585 509 612
894 2 2 3 31 584 510 611
895 2 2 3 31 512 542 599
896 2 2 3 31 542 523 599
897 2 2 3 31 530 539 612
898 2 2 3 31 529 540 611
899 2 2 3 31 549 528 589
900 2 2 3 31 550 527 590
901 2 2 3 31 510 549 589
902 2 2 3 31 509 550 590
903 2 2 3 31 508 560 573
904 2 2 3 31 506 562 574
905 2 2 3 31 289 553 605
906 2 2 3 31 197 551 607
907 2 2 3 31 552 205 608
908 2 2 3 31 554 297 606
909 2 2 3 31 560 526 573
910 2 2 3 31 562 524 574
911 2 2 3 31 185 186 563
912 2 2 3 31 229 228 564
913 2 2 3 31 183 184 565
914 2 2 3 31 227 226 566
915 2 2 3 31 541 511 604
916 2 2 3 31 526 541 604
917 2 2 3 31 526 546 594
918 2 2 3 31 547 523 592
919 2 2 3 31 524 548 593
920 2 2 3 31 545 525 591
921 2 2 3 31 546 295 594
922 2 2 3 31 199 547 592
923 2 2 3 31 548 203 593
924 2 2 3 31 291 545 591
925 2 2 3 31 545 290 605
926 2 2 3 31 547 198 607
927 2 2 3 31 204 548 608
928 2 2 3 31 296 546 606
929 2 2 3 31 513 545 605
930 2 2 3 31 514 547 607
931 2 2 3 31 548 515 608
932 2 2 3 31 546 516 606
933 2 2 3 31 182 183 581
934 2 2 3 31 226 225 582
935 2 2 3 31 186 187 579
936 2 2 3 31 230 229 580
937 2 2 3 31 290 289 605
938 2 2 3 31 198 197 607
939 2 2 3 31 205 204 608
940 2 2 3 31 297 296 606
941 2 2 3 31 522 549 586
942 2 2 3 31 519 550 583
943 2 2 3 31 549 510 586
944 2 2 3 31 550 509 583
945 2 2 3 31 556 525 600
946 2 2 3 31 552 515 577
947 2 2 3 31 514 551 578
948 2 2 3 31 513 553 575
949 2 2 3 31 554 516 576
950 2 2 3 31 518 557 616
951 2 2 3 31 517 558 615
952 2 2 3 31 551 514 607
953 2 2 3 31 515 552 608
954 2 2 3 31 553 513 605
955 2 2 3 31 516 554 606
956 2 2 3 31 550 519 613
957 2 2 3 31 549 522 614
958 2 2 3 31 512 544 602
959 2 2 3 31 511 543 601
960 2 2 3 31 507 543 610
961 2 2 3 31 505 544 609
962 2 2 3 31 544 512 599
963 2 2 3 31 543 511 600
964 2 2 3 31 543 518 601
965 2 2 3 31 544 517 602
966 2 2 3 31 525 556 591
967 2 2 3 31 555 524 593
968 2 2 3 31 556 292 591
969 2 2 3 31 202 555 593
970 2 2 3 31 183 565 581
971 2 2 3 31 566 226 582
972 2 2 3 31 563 186 579
973 2 2 3 31 229 564 580
974 2 2 3 31 531 563 583
975 2 2 3 31 564 532 584
976 2 2 3 31 565 531 585
977 2 2 3 31 532 566 586
978 2 2 3 31 521 565 585
979 2 2 3 31 563 519 583
980 2 2 3 31 566 522 586
981 2 2 3 31 520 564 584
982 2 2 3 31 558 517 598
983 2 2 3 31 557 518 597
984 2 2 3 31 557 504 587
985 2 2 3 31 558 504 588
986 2 2 3 31 528 557 587
987 2 2 3 31 527 558 588
988 2 2 3 31 519 563 579
989 2 2 3 31 564 520 580
990 2 2 3 31 565 521 581
991 2 2 3 31 522 566 582
992 2 2 3 31 519 568 613
993 2 2 3 31 522 570 614
994 2 2 3 31 552 189 618
995 2 2 3 31 232 551 619
996 2 2 3 31 180 553 617
997 2 2 3 31 554 223 620
998 2 2 3 31 551 197 619
999 2 2 3 31 205 552 618
1000 2 2 3 31 553 289 617
1001 2 2 3 31 297 554 620
1002 2 2 3 31 524 555 603
1003 2 2 3 31 292 291 591
1004 2 2 3 31 200 199 592
1005 2 2 3 31 203 202 593
1006 2 2 3 31 295 294 594
1007 2 2 3 31 504 557 597
1008 2 2 3 31 504 558 598
1009 2 2 3 31 506 595 613
1010 2 2 3 31 508 596 614
1011 2 2 3 31 559 507 610
1012 2 2 3 31 561 505 609
1013 2 2 3 31 523 561 609
1014 2 2 3 31 525 559 610
1015 2 2 3 31 558 527 615
1016 2 2 3 31 557 528 616
1017 2 2 3 31 588 504 597
1018 2 2 3 31 587 504 598
1019 2 2 3 31 530 588 597
1020 2 2 3 31 529 587 598
1021 2 2 3 31 527 588 590
1022 2 2 3 31 528 587 589
1023 2 2 3 31 588 530 590
1024 2 2 3 31 587 529 589
1025 2 2 3 31 574 524 603
1026 2 2 3 31 54 297 620
1027 2 2 3 31 289 46 617
1028 2 2 3 31 42 205 618
1029 2 2 3 31 197 50 619
1030 2 2 3 31 189 42 618
1031 2 2 3 31 50 232 619
1032 2 2 3 31 46 180 617
1033 2 2 3 31 223 54 620
1034 2 2 3 31 573 526 604
1035 2 2 3 31 568 506 613
1036 2 2 3 31 570 508 614
1037 2 2 3 31 527 595 615
1038 2 2 3 31 528 596 616
1039 2 2 3 31 599 523 609
1040 2 2 3 31 600 525 610
1041 2 2 3 31 589 529 611
1042 2 2 3 31 590 530 612
1043 2 2 3 31 510 589 611
1044 2 2 3 31 509 590 612
1045 2 2 3 31 544 599 609
1046 2 2 3 31 543 600 610
1047 2 2 3 31 595 534 615
1048 2 2 3 31 596 533 616
1049 2 2 3 32 235 208 236
1050 2 2 3 32 236 208 209
1051 2 2 3 32 207 234 233
1052 2 2 3 32 207 233 206
1053 2 2 3 32 621 258 55
1054 2 2 3 32 242 621 55
1055 2 2 3 32 622 233 48
1056 2 2 3 32 190 622 48
1057 2 2 3 32 211 237 210
1058 2 2 3 32 211 238 237
1059 2 2 3 32 238 212 239
1060 2 2 3 32 212 238 211
1061 2 2 3 32 215 621 242
1062 2 2 3 32 258 621 51
1063 2 2 3 32 621 215 51
1064 2 2 3 32 206 622 47
1065 2 2 3 32 622 206 233
1066 2 2 3 32 622 190 47
1067 2 2 3 32 235 234 208
1068 2 2 3 32 208 234 207
1069 2 2 3 32 241 214 242
1070 2 2 3 32 242 214 215
1071 2 2 3 32 239 212 240
1072 2 2 3 32 240 212 213
1073 2 2 3 32 240 213 214
1074 2 2 3 32 214 241 240
1075 2 2 3 32 237 236 209
1076 2 2 3 32 209 210 237
1077 2 2 3 33 258 51 216
1078 2 2 3 33 52 259 216
1079 2 2 3 33 216 259 258
1080 2 2 3 33 258 259 55
1081 2 2 3 34 623 260 56
1082 2 2 3 34 247 623 56
1083 2 2 3 34 259 624 55
1084 2 2 3 34 624 243 55
1085 2 2 3 34 221 247 220
1086 2 2 3 34 220 247 246
1087 2 2 3 34 244 218 219
1088 2 2 3 34 244 219 245
1089 2 2 3 34 221 623 247
1090 2 2 3 34 260 623 53
1091 2 2 3 34 623 221 53
1092 2 2 3 34 624 217 243
1093 2 2 3 34 624 259 52
1094 2 2 3 34 217 624 52
1095 2 2 3 34 220 245 219
1096 2 2 3 34 243 217 218
1097 2 2 3 34 220 246 245
1098 2 2 3 34 243 218 244
1099 2 2 3 35 260 53 222
1100 2 2 3 35 260 222 261
1101 2 2 3 35 261 222 54
1102 2 2 3 35 260 261 56
1103 2 2 3 36 248 223 249
1104 2 2 3 36 249 223 224
1105 2 2 3 36 251 250 225
1106 2 2 3 36 251 225 226
1107 2 2 3 36 252 251 226
1108 2 2 3 36 252 226 227
1109 2 2 3 36 625 232 50
1110 2 2 3 36 196 625 50
1111 2 2 3 36 626 261 54
1112 2 2 3 36 223 626 54
1113 2 2 3 36 257 625 49
1114 2 2 3 36 625 257 232
1115 2 2 3 36 625 196 49
1116 2 2 3 36 253 228 229
1117 2 2 3 36 254 253 229
1118 2 2 3 36 253 227 228
1119 2 2 3 36 252 227 253
1120 2 2 3 36 248 626 223
1121 2 2 3 36 261 626 56
1122 2 2 3 36 626 248 56
1123 2 2 3 36 254 229 255
1124 2 2 3 36 255 229 230
1125 2 2 3 36 257 256 232
1126 2 2 3 36 231 232 256
1127 2 2 3 36 250 249 225
1128 2 2 3 36 255 230 231
1129 2 2 3 36 249 224 225
1130 2 2 3 36 256 255 231
1131 2 2 3 37 192 191 648
1132 2 2 3 37 243 244 650
1133 2 2 3 37 246 247 649
1134 2 2 3 37 195 194 651
1135 2 2 3 37 192 648 659
1136 2 2 3 37 650 244 660
1137 2 2 3 37 246 649 661
1138 2 2 3 37 651 194 662
1139 2 2 3 37 250 638 657
1140 2 2 3 37 639 255 658
1141 2 2 3 37 630 638 679
1142 2 2 3 37 639 631 678
1143 2 2 3 37 667 647 676
1144 2 2 3 37 638 630 663
1145 2 2 3 37 631 639 664
1146 2 2 3 37 193 642 662
1147 2 2 3 37 642 193 659
1148 2 2 3 37 245 643 660
1149 2 2 3 37 643 245 661
1150 2 2 3 37 638 250 679
1151 2 2 3 37 255 639 678
1152 2 2 3 37 235 644 673
1153 2 2 3 37 645 240 674
1154 2 2 3 37 641 630 654
1155 2 2 3 37 630 641 652
1156 2 2 3 37 637 646 675
1157 2 2 3 37 647 636 676
1158 2 2 3 37 644 235 665
1159 2 2 3 37 240 645 666
1160 2 2 3 37 633 657 681
1161 2 2 3 37 675 646 680
1162 2 2 3 37 642 659 668
1163 2 2 3 37 643 661 669
1164 2 2 3 37 637 645 677
1165 2 2 3 37 644 636 671
1166 2 2 3 37 636 644 665
1167 2 2 3 37 645 637 666
1168 2 2 3 37 629 667 676
1169 2 2 3 37 659 632 668
1170 2 2 3 37 661 633 669
1171 2 2 3 37 240 241 674
1172 2 2 3 37 234 235 673
1173 2 2 3 37 657 638 681
1174 2 2 3 37 194 193 662
1175 2 2 3 37 244 245 660
1176 2 2 3 37 245 246 661
1177 2 2 3 37 193 192 659
1178 2 2 3 37 634 670 674
1179 2 2 3 37 670 645 674
1180 2 2 3 37 255 256 658
1181 2 2 3 37 249 250 657
1182 2 2 3 37 646 630 680
1183 2 2 3 37 658 635 672
1184 2 2 3 37 639 658 672
1185 2 2 3 37 647 627 671
1186 2 2 3 37 636 647 671
1187 2 2 3 37 654 630 679
1188 2 2 3 37 631 653 678
1189 2 2 3 37 668 627 685
1190 2 2 3 37 669 628 682
1191 2 2 3 37 671 627 684
1192 2 2 3 37 632 648 673
1193 2 2 3 37 650 634 674
1194 2 2 3 37 628 646 677
1195 2 2 3 37 646 637 677
1196 2 2 3 37 630 646 663
1197 2 2 3 37 647 631 664
1198 2 2 3 37 673 648 694
1199 2 2 3 37 650 674 695
1200 2 2 3 37 235 236 665
1201 2 2 3 37 239 240 666
1202 2 2 3 37 627 672 685
1203 2 2 3 37 648 632 659
1204 2 2 3 37 649 633 661
1205 2 2 3 37 634 650 660
1206 2 2 3 37 635 651 662
1207 2 2 3 37 238 239 655
1208 2 2 3 37 236 237 656
1209 2 2 3 37 646 628 663
1210 2 2 3 37 627 647 664
1211 2 2 3 37 630 652 680
1212 2 2 3 37 631 647 667
1213 2 2 3 37 628 670 682
1214 2 2 3 37 627 668 684
1215 2 2 3 37 641 653 683
1216 2 2 3 37 675 629 676
1217 2 2 3 37 640 675 676
1218 2 2 3 37 636 656 676
1219 2 2 3 37 655 637 675
1220 2 2 3 37 656 640 676
1221 2 2 3 37 640 655 675
1222 2 2 3 37 629 652 667
1223 2 2 3 37 633 649 687
1224 2 2 3 37 651 635 688
1225 2 2 3 37 641 654 693
1226 2 2 3 37 653 641 693
1227 2 2 3 37 253 254 653
1228 2 2 3 37 251 252 654
1229 2 2 3 37 655 239 666
1230 2 2 3 37 236 656 665
1231 2 2 3 37 669 633 681
1232 2 2 3 37 653 631 683
1233 2 2 3 37 254 255 678
1234 2 2 3 37 250 251 679
1235 2 2 3 37 657 633 687
1236 2 2 3 37 635 658 688
1237 2 2 3 37 664 639 672
1238 2 2 3 37 253 653 693
1239 2 2 3 37 654 252 693
1240 2 2 3 37 627 664 672
1241 2 2 3 37 637 655 666
1242 2 2 3 37 656 636 665
1243 2 2 3 37 667 652 683
1244 2 2 3 37 645 670 677
1245 2 2 3 37 660 643 682
1246 2 2 3 37 634 660 682
1247 2 2 3 37 653 254 678
1248 2 2 3 37 251 654 679
1249 2 2 3 37 662 642 685
1250 2 2 3 37 635 662 685
1251 2 2 3 37 655 640 686
1252 2 2 3 37 640 656 686
1253 2 2 3 37 238 655 686
1254 2 2 3 37 656 237 686
1255 2 2 3 37 242 55 691
1256 2 2 3 37 257 49 692
1257 2 2 3 37 48 233 689
1258 2 2 3 37 56 248 690
1259 2 2 3 37 629 675 680
1260 2 2 3 37 632 673 684
1261 2 2 3 37 673 644 684
1262 2 2 3 37 652 641 683
1263 2 2 3 37 670 628 677
1264 2 2 3 37 256 257 688
1265 2 2 3 37 248 249 687
1266 2 2 3 37 648 191 689
1267 2 2 3 37 649 247 690
1268 2 2 3 37 243 650 691
1269 2 2 3 37 195 651 692
1270 2 2 3 37 642 668 685
1271 2 2 3 37 643 669 682
1272 2 2 3 37 652 629 680
1273 2 2 3 37 644 671 684
1274 2 2 3 37 241 242 695
1275 2 2 3 37 233 234 694
1276 2 2 3 37 237 238 686
1277 2 2 3 37 252 253 693
1278 2 2 3 37 649 248 687
1279 2 2 3 37 257 651 688
1280 2 2 3 37 191 48 689
1281 2 2 3 37 247 56 690
1282 2 2 3 37 55 243 691
1283 2 2 3 37 49 195 692
1284 2 2 3 37 233 648 689
1285 2 2 3 37 248 649 690
1286 2 2 3 37 650 242 691
1287 2 2 3 37 651 257 692
1288 2 2 3 37 648 233 694
1289 2 2 3 37 242 650 695
1290 2 2 3 37 663 628 681
1291 2 2 3 37 628 669 681
1292 2 2 3 37 638 663 681
1293 2 2 3 37 249 657 687
1294 2 2 3 37 658 256 688
1295 2 2 3 37 631 667 683
1296 2 2 3 37 668 632 684
1297 2 2 3 37 670 634 682
1298 2 2 3 37 672 635 685
1299 2 2 3 37 234 673 694
1300 2 2 3 37 674 241 695
$EndElements
