$MeshFormat
2.2 0 8
$EndMeshFormat
$PhysicalNames
4
2 1 "SD1G0"
2 2 "SD1D1001"
2 3 "SD2G0"
2 4 "I1-2"
$EndPhysicalNames
$Nodes
807
1 12.7 0 0
2 9.202 8.753 0
3 0 12.7 0
4 12.947 0 4.646
5 9.489000000000001 9.026999999999999 4.646
6 0 12.852 4.646
7 14.54 0 12.975
8 11.268 10.72 12.975
9 0 13.866 12.975
10 19.054 0 25.728
11 15.942 15.165 25.728
12 0 16.938 25.728
13 27.99 0 44.154
14 24.547 23.351 44.154
15 0 23.516 44.154
16 41.873 0 67.92100000000001
17 37.288 35.472 67.92100000000001
18 0 34.388 67.92100000000001
19 61.648 0 95.581
20 54.937 52.261 95.581
21 0 50.698 95.581
22 89.658 0 123.155
23 79.926 76.033 123.155
24 0 75.054 123.155
25 126.532 0 146.013
26 113.358 107.837 146.013
27 0 108.416 146.013
28 169.306 0 163.15
29 152.509 145.081 163.15
30 0 148.006 163.15
31 209.734 0 174.446
32 189.335 180.113 174.446
33 0 185.953 174.446
34 243.186 0 181.217
35 219.131 208.457 181.217
36 0 217.733 181.217
37 265.174 0 184.252
38 237.841 226.256 184.252
39 0 238.92 184.252
40 0 0 184.252
41 0 0 0
42 0 0 24.252
43 266 0 184.252
44 276 0 174.252
45 276 0 34.252
46 266 0 24.252
47 0 239 184.252
48 0 249 174.252
49 0 249 34.252
50 0 239 24.252
51 266 239 184.252
52 276 239 174.252
53 276 239 34.252
54 266 239 24.252
55 266 249 174.252
56 266 249 34.252
57 11.18362454336429 4.670836690674918 0
58 4.976918353913389 10.91835700612354 0
59 11.41514669351139 4.765862014249124 4.646
60 5.079094072957895 11.11459955171337 4.646
61 12.88095546792876 5.440151364318497 12.975
62 5.84693455132058 12.34839786408282 12.975
63 16.92475645082823 7.607920757518559 25.728
64 8.294426177390832 15.86587425156851 25.728
65 13.50153515484024 12.8441043567105 19.06919636920787
66 16.69707695527363 0 19.06919636920794
67 0 15.33399743168672 19.06919636923851
68 24.90186367828913 11.75768187892915 44.154
69 12.87290778302566 23.05178723390392 44.154
70 20.01393589468807 19.03866266518495 34.44729004015367
71 23.28256701393772 0 34.44729004015403
72 0 20.05074774147561 34.44729004019909
73 38.81739491779469 11.92841302455125 67.92100000000002
74 35.86368404617753 23.88191856956329 67.92100000000001
75 26.13339107024101 34.49629771673757 67.92100000000001
76 13.06743153017218 34.37157860462867 67.92100000000001
77 30.58232132041762 29.09263171845082 55.41225930636258
78 34.56627861952562 0 55.41225930636502
79 0 28.66598927838773 55.41225930642396
80 57.38417169083837 17.56036221454548 95.581
81 53.24894531678157 35.15085500144617 95.581
82 38.40817171819017 50.99905490270437 95.581
83 19.20533614392936 50.75617896821688 95.58100000000002
84 45.65790874618867 43.43406005664693 81.03855203805195
85 51.25114864614643 0 81.03855203804856
86 0 42.12289782146539 81.03855203811972
87 84.70979480417701 25.47207210648137 123.155
88 79.85090826601231 50.96111680327973 123.155
89 62.28461864207335 75.64138885690511 123.155
90 41.52826848052392 75.1560210158174 123.155
91 20.76406469296537 75.1223091530735 123.155
92 66.88609773521078 63.6281596046833 108.7661783164874
93 75.04166231394964 0 108.7661783164887
94 0 62.34441339950929 108.7661783165573
95 123.1902697799243 27.09597727636891 146.013
96 119.8416604846699 54.19110730112001 146.013
97 116.5451120832677 81.29259950132059 146.013
98 87.28790130885621 109.3302561842793 146.013
99 58.19454225443226 108.8418019095706 146.013
100 29.09712980144884 108.6462435907975 146.013
101 96.13225881819201 91.45008110354686 134.2354816961663
102 107.5327782861383 0 134.2354816961694
103 0 91.22632611556101 134.2354816962261
104 167.3961334436856 29.76433921074095 163.15
105 165.5196117339014 59.53080847565946 163.15
106 163.6040001681374 89.29477821212031 163.15
107 161.4771570727154 119.0441109422837 163.15
108 124.2966544102321 149.7917629833632 163.15
109 93.22448376086305 149.2243717245232 163.15
110 62.14979723592855 148.8074482253025 163.15
111 31.07473816718033 148.4189717518341 163.15
112 132.5367566144259 126.0815815265939 154.4078392659553
113 147.4855423214073 0 154.4078392659549
114 0 127.8098079326068 154.4078392660036
115 208.803292932226 31.47658781809551 174.446
116 207.9463375146568 62.955295236318 174.446
117 207.0676780585183 94.43339870138743 174.446
118 206.047503541039 125.9071637338729 174.446
119 204.4116033712639 157.3524127376836 174.446
120 161.2722459415375 188.1641401059433 174.4460000000001
121 129.0173300956112 187.7576616488727 174.446
122 96.76288420814528 187.3146342949363 174.446
123 64.50860340878982 186.8597308912934 174.446
124 32.25434663598663 186.4030914745213 174.446
125 170.6981040078938 162.3840112313185 168.7293221873993
126 189.2742044433571 0 168.7293221873989
127 0 166.7487885133085 168.7293221874281
128 242.7165264932373 31.67679455617869 181.217
129 242.3418855914659 63.35488397218563 181.217
130 241.9711637160574 95.03301962108377 181.217
131 241.5163094230104 126.7100348516605 181.217
132 240.810577579168 158.3822625770533 181.217
133 238.9323429936494 189.9954221445578 181.217
134 193.234281066013 219.220393286684 181.217
135 161.0275900639919 219.2175269629665 181.217
136 128.8215635977296 218.981231803521 181.217
137 96.61608172164468 218.6784477710492 181.217
138 64.41081838714348 218.3531030914351 181.217
139 32.20553800008821 218.0294660563786 181.217
140 204.1240972895958 194.1814042682341 177.8067523744078
141 264.7000556204866 34.60258079643716 184.252
142 264.3372420658724 69.20654380422805 184.252
143 263.9788619746893 103.8105536289083 184.252
144 263.521472418887 138.4133669249792 184.252
145 262.7683022838256 173.010758413709 184.252
146 260.6042796674521 207.5331926548663 184.252
147 214.9480950342267 238.5565617199873 184.252
148 203.8081847237996 238.8402572607708 184.252
149 195.1337091079452 238.9691648356556 184.252
150 192.6101944407378 238.9966741584633 184.252
151 192.2851490207523 238.9999380717387 184.252
152 192.2800534565334 238.9999887660433 184.252
153 192.2794164748633 238.9999951021738 184.252
154 192.2790979810163 238.9999982701843 184.252
155 192.2789387333399 238.9999998541759 184.252
156 192.2789287803434 238.999999953175 184.252
157 192.278926292094 238.9999999779248 184.252
158 192.2789250479693 238.9999999902997 184.252
159 192.2789244259069 238.9999999964871 184.252
160 192.2789241148757 238.9999999995808 184.252
161 192.2789240759968 238.9999999999676 184.252
162 192.2789240735669 238.9999999999918 184.252
163 192.2789240729594 238.9999999999978 184.252
164 192.2789240728075 238.9999999999993 184.252
165 192.2789240727695 238.9999999999997 184.252
166 192.2789240727506 238.9999999999999 184.252
167 192.2789240727411 239 184.252
168 192.2789240727405 238.9999999999999 184.252
169 192.2789240727399 239 184.252
170 192.2789240727396 238.9999999999999 184.252
171 192.2789240727393 239 184.252
172 192.2789240727387 239 184.252
173 192.2789240727381 239 184.252
174 192.2789240727375 239 184.252
175 192.2789240727363 239 184.252
176 192.278924072734 239 184.252
177 192.2789240727316 239.0000000000001 184.252
178 192.2789240726556 239.0000000000008 184.252
179 192.2789240723519 239.0000000000038 184.252
180 192.2789240711369 239.0000000000159 184.252
181 192.2789240662771 239.0000000000643 184.252
182 192.2789240565573 239.000000000161 184.252
183 192.2789240371179 239.0000000003543 184.252
184 192.2789239593601 239.0000000011277 184.252
185 192.2789238038445 239.0000000026746 184.252
186 192.278918827345 239.0000000521742 184.252
187 192.2788989213424 239.0000002501723 184.252
188 192.2788591093135 239.0000006461682 184.252
189 192.2787794851615 239.0000014381583 184.252
190 192.2775054816638 239.0000141096888 184.252
191 192.2749573782928 239.0000394509968 184.252
192 192.2647636798795 239.0001407928533 184.252
193 192.244370116258 239.0003433643812 184.252
194 192.2035583292989 239.0007480588323 184.252
195 192.1218361762281 239.0015556544014 184.252
196 191.9579980311646 239.0031636808979 184.252
197 191.2974142827485 239.009500622481 184.252
198 189.9513642859183 239.0217218480037 184.252
199 184.2456465714305 239.0647577615777 184.252
200 153.538148875984 239.1577129501561 184.252
201 122.8304822335544 239.1427245396212 184.252
202 92.12286060139732 239.0848278769349 184.252
203 61.4152674597714 239.0132034419579 184.252
204 45.91280387383645 238.9787070426198 184.252
205 30.7076566310324 238.9496193648851 184.252
206 232.0272500000638 0 184.252
207 198.8805000001832 0 184.252
208 165.7337500002693 0 184.252
209 132.5870000003498 0 184.252
210 99.44025000026375 0 184.252
211 66.29350000017217 0 184.252
212 33.14675000008054 0 184.252
213 0 34.13142857136118 184.252
214 0 68.26285714268482 184.252
215 0 102.3942857140141 184.252
216 0 136.5257142854421 184.252
217 0 170.6571428569577 184.252
218 0 204.7885714284733 184.252
219 6.349999999983785 0 0
220 0 6.350000000015788 0
221 273.0710678303063 0 181.3230677934246
222 276 0 150.9186666666269
223 276 0 127.5853333332575
224 276 0 104.2520000001166
225 276 0 80.91866666674625
226 276 0 57.58533333337313
227 273.0710677915843 0 27.18093216785337
228 241.8181818181818 0 24.252
229 217.6363636363636 0 24.252
230 193.4545454545454 0 24.252
231 169.2727272727273 0 24.252
232 145.0909090909091 0 24.252
233 120.9090909090909 0 24.252
234 96.72727272727272 0 24.252
235 72.54545454545453 0 24.252
236 48.36363636363632 0 24.252
237 24.18181818181813 0 24.252
238 0 246.0710678378863 181.3230677858446
239 0 249 150.9186666666269
240 0 249 127.5853333332575
241 0 249 104.2520000001166
242 0 249 80.91866666674625
243 0 249 57.58533333337313
244 0 246.0710677804465 27.18093215671551
245 0 215.099999999995 24.252
246 0 191.19999999999 24.252
247 0 167.299999999985 24.252
248 0 143.39999999998 24.252
249 0 119.5000000000222 24.252
250 0 95.60000000002 24.252
251 0 71.700000000015 24.252
252 0 47.80000000001002 24.252
253 0 23.90000000000501 24.252
254 24.18181818179863 239 184.252
255 48.36363636356673 239 184.252
256 60.45454545443869 239 184.252
257 72.54545454531063 239 184.252
258 96.7272727270545 239 184.252
259 120.9090909087984 239 184.252
260 145.0909090906347 239 184.252
261 169.2727272725077 239 184.252
262 181.3636363634442 239 184.252
263 187.4090909089125 239 184.252
264 190.4318181816466 239 184.252
265 191.9431818180137 239 184.252
266 192.1321022725596 239 184.252
267 192.2265624998325 239 184.252
268 192.273792613469 239 184.252
269 192.2767444955713 239 184.252
270 192.2782204366224 239 184.252
271 192.2785894218852 239 184.252
272 192.2787739145166 239 184.252
273 192.2788661608323 239 184.252
274 192.2789122839901 239 184.252
275 192.2789238147796 239 184.252
276 192.2789239949482 239 184.252
277 192.2789240399903 239 184.252
278 192.2789240625114 239 184.252
279 192.2789240681417 239 184.252
280 192.2789240709568 239 184.252
281 192.2789240723644 239 184.252
282 192.2789240727163 239 184.252
283 192.2789240727272 239 184.252
284 192.2789240727328 239 184.252
285 192.2789240727355 239 184.252
286 192.2789240727369 239 184.252
287 192.2789240727383 239 184.252
288 192.278924072739 239 184.252
289 192.2789240727397 239 184.252
290 192.278924072741 239 184.252
291 192.2789240727438 239 184.252
292 192.2789240727493 239 184.252
293 192.2789240727603 239 184.252
294 192.2789240728042 239 184.252
295 192.2789240728922 239 184.252
296 192.2789240730681 239 184.252
297 192.2789240737719 239 184.252
298 192.2789240850325 239 184.252
299 192.2789241751168 239 184.252
300 192.2789245354539 239 184.252
301 192.2789252561282 239 184.252
302 192.2789266974769 239 184.252
303 192.2789295801743 239 184.252
304 192.278935345569 239 184.252
305 192.278958407148 239 184.252
306 192.2796963776735 239 184.252
307 192.2856001418781 239 184.252
308 192.2974076702872 239 184.252
309 192.3210227271055 239 184.252
310 192.6988636361972 239 184.252
311 193.4545454543808 239 184.252
312 217.6363636362539 239 184.252
313 241.8181818181269 239 184.252
314 273.0710678303063 239 181.3230677934246
315 276 239 150.9186666666269
316 276 239 127.5853333332575
317 276 239 104.2520000001166
318 276 239 80.91866666674625
319 276 239 57.58533333337313
320 273.0710677915843 239 27.18093216785337
321 241.8181818181818 239 24.252
322 217.6363636363636 239 24.252
323 193.4545454545454 239 24.252
324 169.2727272727273 239 24.252
325 145.0909090909091 239 24.252
326 120.9090909090909 239 24.252
327 96.72727272727272 239 24.252
328 72.54545454545453 239 24.252
329 48.36363636363632 239 24.252
330 24.18181818181813 239 24.252
331 24.18181818179863 249 174.252
332 48.36363636356673 249 174.252
333 72.54545454531063 249 174.252
334 96.7272727270545 249 174.252
335 120.9090909087984 249 174.252
336 145.0909090906347 249 174.252
337 169.2727272725077 249 174.252
338 193.4545454543808 249 174.252
339 217.6363636362539 249 174.252
340 241.8181818181269 249 174.252
341 266 249 150.9186666666269
342 266 249 127.5853333332575
343 266 249 104.2520000001166
344 266 249 80.91866666674625
345 266 249 57.58533333337313
346 241.8181818181818 249 34.252
347 217.6363636363636 249 34.252
348 193.4545454545454 249 34.252
349 169.2727272727273 249 34.252
350 145.0909090909091 249 34.252
351 120.9090909090909 249 34.252
352 96.72727272727272 249 34.252
353 72.54545454545453 249 34.252
354 48.36363636363632 249 34.252
355 24.18181818181813 249 34.252
356 266 246.0710678378863 181.3230677858446
357 273.0710677943634 246.0710678293676 174.252
358 273.0710677943634 246.0710678293676 34.252
359 266 246.0710678123748 27.18093218864388
360 266 23.89999999998059 184.252
361 266 47.79999999992329 184.252
362 266 71.69999999984405 184.252
363 266 95.59999999976483 184.252
364 266 119.4999999996884 184.252
365 266 143.3999999997485 184.252
366 266 167.2999999998113 184.252
367 266 191.1999999998743 184.252
368 266 215.0999999999371 184.252
369 276 23.89999999998059 174.252
370 276 47.79999999992329 174.252
371 276 71.69999999984405 174.252
372 276 95.59999999976483 174.252
373 276 119.4999999996884 174.252
374 276 143.3999999997485 174.252
375 276 167.2999999998113 174.252
376 276 191.1999999998743 174.252
377 276 215.0999999999371 174.252
378 276 23.89999999998059 34.252
379 276 47.79999999992329 34.252
380 276 71.69999999984405 34.252
381 276 95.59999999976483 34.252
382 276 119.4999999996884 34.252
383 276 143.3999999997485 34.252
384 276 167.2999999998113 34.252
385 276 191.1999999998743 34.252
386 276 215.0999999999371 34.252
387 266 23.89999999998059 24.252
388 266 47.79999999992329 24.252
389 266 71.69999999984405 24.252
390 266 95.59999999976483 24.252
391 266 119.4999999996884 24.252
392 266 143.3999999997485 24.252
393 266 167.2999999998113 24.252
394 266 191.1999999998743 24.252
395 266 215.0999999999371 24.252
396 10.58242294891168 6.898757982468442 2.322085377672559
397 7.294891613437827 10.21367125650475 2.321707042108723
398 12.14824178443324 5.101917568111348 8.810500000000001
399 5.279403556190267 11.79835816615261 8.887435116937649
400 14.28460902875908 8.846404201025646 19.48733454213505
401 16.23292183763574 4.289700406523601 21.23643357338751
402 14.8013469475556 3.993451923811845 17.04475070302322
403 5.709750558386665 14.70313944036682 20.55866488528695
404 9.259719824279141 12.9630472357945 17.15404703685052
405 10.62326843765774 14.37125805946042 21.99182228203181
406 20.27665607871247 13.12229496158623 35.45495996000059
407 23.19075759558329 6.476767020005208 37.82512219951404
408 20.37997240863271 5.763060256367263 31.7023796353604
409 11.44526270214592 20.31467336137079 37.20194694808538
410 7.272866837404246 17.96331742731308 30.57893635123584
411 32.67075267972825 15.26609444160042 58.90845413472272
412 27.48297444115892 18.42113033032943 51.35206345300836
413 29.36135724128781 9.384518090092605 50.68654359439212
414 10.11517038661103 27.52966660753751 53.35145890382066
415 8.361684364669358 31.08586975132722 60.84104382790954
416 18.44264610621685 31.15989824702343 61.18515378908199
417 20.54989706808102 27.12322039856326 52.70853005586212
418 27.04371261154741 31.43589915509289 61.11575303125547
419 49.90595564978432 19.53651520431863 85.895350973978
420 43.71592836260704 29.1581353829661 80.46909581489214
421 44.01146244155157 14.00763565386767 75.83487825386352
422 30.04791787724527 43.14981537084728 82.56631002311207
423 15.23728089851008 42.65853988223276 81.90804336083156
424 69.4038289219329 31.36056650358382 109.792327736645
425 69.98520618616618 13.94962085676809 106.771948232674
426 64.72269716607204 46.5527628493472 108.2534602445391
427 14.14791194929628 65.05996227869628 111.7681623468899
428 32.2199098200052 63.18256895510142 109.6247422347731
429 50.4310022380625 63.69883732697606 109.8131725141566
430 98.82548383116098 67.65612562272838 135.0921894292503
431 101.1969349379964 44.14461756898112 134.4782808398088
432 102.9946057644146 21.20662409922272 133.460476338388
433 72.94464935225081 93.30842764077876 135.2155843975272
434 45.35257895634933 92.8955938657426 135.2143335607108
435 25.56461213183998 86.53612054269172 130.9332633003721
436 19.56061243024692 98.06870336302258 138.8226655302466
437 146.4642136462542 17.12340304604657 154.6086459325607
438 144.8034632338652 40.93057681315963 154.7764703819691
439 145.1288933020534 66.02973442498734 155.708831434076
440 134.4179749919541 84.58585730718545 152.4387839175994
441 141.6888839808063 106.4820738071608 155.7536323318274
442 18.07629473289022 129.1859993320956 154.9112334407782
443 43.20167657193703 131.0935321941764 155.6232823111855
444 66.41345756625137 126.0248322130236 153.3437703779629
445 83.44141667562285 132.5992053829558 156.073142987534
446 106.3460206474032 129.4736191946155 154.5310896432287
447 188.195228073434 71.36060235237929 169.2719386807777
448 186.4559987460229 102.3164269525803 169.1722630364304
449 176.0623868139724 143.068431386882 167.269813685623
450 186.9971502094534 129.0974828990857 169.6540366081655
451 188.8444454751653 43.46223726321963 169.1345173478927
452 188.8829504276644 18.78148466503991 168.8574357738576
453 17.04106135116276 167.3085205682905 168.825836495443
454 43.62094045215063 167.6722812640653 168.8272203679958
455 135.3417145618841 171.7616598390474 169.6629619715191
456 150.3419993448704 163.1325541429626 166.6255530660278
457 83.21455285929787 168.5276233864708 168.9229018841504
458 110.5817956598901 168.8293410381872 168.8996094741443
459 218.8928310287729 175.0967114792779 177.3665472950091
460 224.2525348837666 110.0968824702733 177.8315
461 223.4130040938666 141.8894653754242 177.8315
462 225.4934370585879 46.5346365235218 177.8318879377715
463 224.8987468570612 78.27265842047456 177.8315
464 226.0387425034354 19.81604803403091 177.836091558574
465 81.12368898994164 202.797327663938 177.8317119231343
466 52.78041865323767 202.4607384755727 177.8325161291311
467 112.3276200996446 203.1611870065933 177.8315
468 144.7697340081745 203.5034996105276 177.8315
469 14.56399446942665 202.0055097790744 177.8314999999999
470 212.6952049075509 225.2188575747372 182.6707226196681
471 188.0038405924826 208.3383483906044 184.252
472 116.1618240102061 115.7937418109196 184.252
473 80.01618062139545 167.8765047806025 184.252
474 182.6751166396885 79.899931253613 184.252
475 180.3306867929511 146.6504498874486 184.252
476 66.65306094842344 67.93667343973866 184.252
477 128.8710368506244 191.5017581907666 184.252
478 54.00405994526333 203.3741721459826 184.252
479 127.9443787654741 64.35865324497475 184.252
480 62.08444854411755 124.9201084119132 184.252
481 213.7664566884194 176.7422852524076 184.252
482 217.0575945365984 114.5769322441527 184.252
483 190.0315367779517 226.1617183521389 184.252
484 208.9631783893591 222.404061809553 184.252
485 191.5511626085611 233.6982481968801 184.252
486 34.66241403238348 167.7133177656303 184.252
487 219.2674633990284 43.70823493693196 184.252
488 160.351914184791 106.0132787072537 184.252
489 98.4470926497624 206.3876892168378 184.252
490 176.9842202911314 186.6081398780524 184.252
491 101.5226900538585 152.449104304901 184.252
492 164.9914886688933 44.26166964104088 184.252
493 141.8711536278004 145.6917880437407 184.252
494 41.68387086968745 39.13313743158331 184.252
495 37.94547521409849 219.9800740960824 184.252
496 95.67985615372406 39.56355068570804 184.252
497 169.0686512636964 220.8978647042064 184.252
498 192.4403012322468 238.5974471634635 184.252
499 36.12267819049476 88.68708085734858 184.252
500 85.86553036324131 101.4006561145734 184.252
501 196.9880121399772 233.1118162697436 184.252
502 72.31092550478675 217.9091353222219 184.252
503 79.9824014312515 143.3322089052597 184.252
504 28.14697598805333 194.6788512638877 184.252
505 231.1215675482917 81.00716847640136 184.252
506 228.2192595216045 202.9276531260362 184.252
507 141.9120902137871 218.1383063563762 184.252
508 235.1994953319387 150.8080442293908 184.252
509 112.423294416667 90.07081117303244 184.252
510 17.5269014946553 220.5256652193424 184.252
511 154.199413593743 79.26703655664825 184.252
512 54.31770639955128 223.8510584097729 184.252
513 135.3940774046285 31.33070562520189 184.252
514 187.9537490721628 117.5539915084499 184.252
515 29.2802389960376 138.9970058597054 184.252
516 193.1053665909984 27.72812171911566 184.252
517 67.69715792555148 27.60442226197736 184.252
518 195.0960082253798 188.5429389403557 184.252
519 102.0513717401014 179.1674372977319 184.252
520 77.13069259742723 192.55861613376 184.252
521 56.99670145807328 153.9126506270491 184.252
522 97.41804622176994 69.89053545898346 184.252
523 55.15950410709934 180.0190187861521 184.252
524 203.8259252735551 145.6052308409159 184.252
525 58.71149069882421 98.34320051024663 184.252
526 242.175798362081 117.7232131007665 184.252
527 240.0785323305977 24.88166582458544 184.252
528 135.2412561693301 96.63867448075777 184.252
529 26.26517153445361 113.3214079853054 184.252
530 26.88524282868343 60.87463042940738 184.252
531 158.403927786739 166.6234286653092 184.252
532 188.3518047415914 167.8927416109428 184.252
533 244.2151864758992 52.20934860493079 184.252
534 158.9473299888372 200.6148953510213 184.252
535 204.8287642816157 90.52211992961466 184.252
536 198.1992838983033 59.40768006951299 184.252
537 240.1115586986481 182.204386735282 184.252
538 95.07593441148562 125.5565602560308 184.252
539 115.7752958897415 17.72356407772748 184.252
540 161.5463572515906 134.47691036732 184.252
541 22.01558878117584 23.93908464240105 184.252
542 140.3667120450999 124.3285253917179 184.252
543 215.4997186984546 18.89836400334902 184.252
544 117.71391118074 218.0018280415606 184.252
545 126.1373482954642 162.7883126866145 184.252
546 120.1892770739858 137.7680054156541 184.252
547 207.4309106355258 201.7184934645803 184.252
548 5.216966593585594 5.324718774297932 0
549 272.2299659036634 13.10851638768871 182.0742455113088
550 272.2300116625469 225.8921494146755 182.0742090667873
551 276 83.1620333026621 104.252
552 276 155.3499999997799 104.252
553 276 43.51099087036244 130.5091725429531
554 276 195.4890091294776 130.5091725429312
555 276 43.51099087036247 77.99482745704678
556 276 195.4890091294777 77.99482745706874
557 276 119.4999999997922 130.0718392857205
558 276 119.4999999997921 78.43216071427939
559 276 83.64999999980446 140.272017857136
560 276 83.64999999980445 68.23198214286386
561 276 155.3499999997799 140.2720178571482
562 276 155.3330083290912 68.99351034819118
563 276 31.39931584069106 104.2520000000194
564 276 207.6006841591955 104.2520000000194
565 276 110.8729651426249 104.252
566 276 56.1514963169152 104.2520000000032
567 276 182.7671759000055 104.2520000000032
568 276 212.4996171569167 147.6815840497735
569 276 26.50038284300496 147.681584049863
570 276 212.4996171569167 60.82241595022643
571 276 26.50038284300496 60.82241595013691
572 276 61.32175089719266 151.1254372628649
573 276 61.32175089719263 57.37856273713508
574 276 177.6782491025392 151.1254372628274
575 276 177.6770106425764 57.43406770840718
576 276 104.6822483025146 150.3602998519324
577 276 104.6822483025145 58.14370014806752
578 276 132.7985015955839 151.4324250548185
579 276 133.8192709915822 57.42500302024024
580 276 135.1100865134212 98.36563070737213
581 276 141.377949784393 122.4964417223979
582 276 67.66282350870658 124.1168984297262
583 276 67.66282350870657 84.38710157027376
584 276 171.3371764910512 124.1168984298662
585 276 171.3371764910513 84.38710157013362
586 276 21.47365625844652 125.5953200571035
587 276 217.5263437415633 125.5953200570718
588 276 21.47365625844675 82.90867994290846
589 276 217.5263437415632 82.90867994294022
590 276 98.07723652316375 85.62546607449532
591 276 98.07723652316383 122.8785339255047
592 276 138.9696403104611 78.76093277152289
593 276 83.64999999980446 159.3632828403474
594 276 83.64999999980445 49.1407171596526
595 276 155.3499999997799 159.3632828403791
596 276 155.4067995598317 49.62562935194837
597 276 42.36316308480087 156.7879225301029
598 276 196.6368369150286 156.7879225300237
599 276 42.36316308480084 51.71607746989709
600 276 196.6368369150285 51.71607746997625
601 276 126.7152503600578 113.7964779288726
602 276 152.0756932046385 86.9578485501347
603 276 13.49524131977646 158.5706949933574
604 276 225.5047586801705 158.5706949933284
605 276 13.49524131977646 49.93330500664276
606 276 225.5047586801705 49.93330500667172
607 276 12.02278983560378 139.2519999999422
608 276 226.9772101643818 139.2519999999421
609 276 12.0227898356036 69.25200000005965
610 276 226.9772101643821 69.25200000005964
611 274.2202024271072 13.13590615544385 28.55741730612503
612 274.2211671000484 225.8710131001277 28.55881007579393
613 133 119.5 24.252
614 191.8129619503339 74.21137948523068 24.252
615 74.92962946850659 163.0403153793335 24.252
616 74.18703804966997 74.21137948522866 24.252
617 190.9843687640468 163.017567831984 24.252
618 133.3712758684237 55.34908439666286 24.252
619 132.6069592514997 179.8219064549219 24.252
620 216.0881309422062 118.5953126561527 24.252
621 49.91186905779315 118.5953126561808 24.252
622 226.3801129148933 43.41037788532164 24.252
623 39.61988708509099 195.5896221146472 24.252
624 39.68082269840919 43.45960167234686 24.252
625 226.3191773016082 195.5403983276236 24.252
626 175.5394347752204 111.9559058012517 24.252
627 90.54270714451765 111.9029925780701 24.252
628 95.65588611976216 40.81155633114655 24.252
629 170.5442963605158 199.3254426510519 24.252
630 170.7732425167735 40.70391961474093 24.252
631 95.53172215160001 199.1847074255539 24.252
632 229.1470492404943 83.6463391689926 24.252
633 37.02330314393421 155.7002662970933 24.252
634 36.8529507593759 83.64633916918196 24.252
635 228.9766968561872 155.7002662969133 24.252
636 156.2499390363492 149.0792096532554 24.252
637 109.2635623596328 149.507573680201 24.252
638 107.5644341514416 81.55953897976497 24.252
639 158.7408410341292 81.70323846119057 24.252
640 133.0980835209647 25.46132017688637 24.252
641 132.9349090850987 215.4280572229044 24.252
642 70.78611819373862 29.60991591384092 24.252
643 195.222566663282 209.4394124468315 24.252
644 195.5148168985024 29.42811688046013 24.252
645 70.49841390239519 209.6104359378195 24.252
646 192.2813902720353 141.6181352135669 24.252
647 73.69895441446498 141.6186232901053 24.252
648 240.6573600048133 107.8410314486675 24.252
649 25.34263999512819 107.8410314488842 24.252
650 133.2413307411536 91.55182900293401 24.252
651 197.7109540908638 99.53707285985973 24.252
652 68.33048977169827 99.53604069325617 24.252
653 242.161963635993 60.79577167080152 24.252
654 242.1619636359937 178.2042283290545 24.252
655 23.83803636400816 60.79577167087437 24.252
656 23.83803636400816 178.2042283291256 24.252
657 97.17540476287671 173.2963587168304 24.252
658 168.5655135866299 173.2380306923492 24.252
659 240.6240107045522 25.39173196807766 24.252
660 25.3759892954481 213.6082680319235 24.252
661 25.37598929544811 25.39173196807644 24.252
662 240.6240107045506 213.6082680319257 24.252
663 25.29093958097663 134.3751302073543 24.252
664 240.7090604190474 134.3751302071595 24.252
665 132.3242386610834 155.6945088844355 24.252
666 212.883242494758 176.0408212231228 24.252
667 52.85584435613824 63.05573043806704 24.252
668 52.992925804884 176.1185008226134 24.252
669 213.2557013774448 62.98130048819256 24.252
670 156.5233643143465 21.15702808384665 24.252
671 109.9966622476436 217.7835697430915 24.252
672 109.8666045048446 21.15497971200228 24.252
673 155.4883583266684 217.8110045073465 24.252
674 154.9935829914761 125.7571024675648 24.252
675 110.3723161646915 125.9603207019531 24.252
676 191.9634048335079 52.6174754911888 24.252
677 75.2883661392369 186.0118884561003 24.252
678 74.31226071303303 52.81812553136104 24.252
679 190.5687677579969 185.9177205412296 24.252
680 154.771506789711 103.5762028293884 24.252
681 111.337620328501 103.5402167237954 24.252
682 154.9483490986637 59.42456798611093 24.252
683 111.6914379948569 59.67834788269491 24.252
684 53.39126869482914 140.4340399651555 24.252
685 212.6078785652755 140.4340187900807 24.252
686 48.96167644747845 22.01992758949807 24.252
687 217.0383235525286 216.9800724105 24.252
688 217.3649021282953 21.98241183115298 24.252
689 48.63509787170292 217.0175881688452 24.252
690 88.9748829779282 90.1896370623072 24.252
691 177.107739291379 18.25781291580955 24.252
692 89.05990511487319 220.915742621293 24.252
693 89.11626721821455 18.31529039139794 24.252
694 176.7964988155478 220.915171921046 24.252
695 177.2280590970657 90.14660260293918 24.252
696 118.4771521810728 193.9733383844994 24.252
697 146.9872563895729 193.2248448577226 24.252
698 176.1601529181163 151.9465330693643 24.252
699 249.1924561996712 83.78603492725834 24.252
700 16.69738784846181 155.5125090986432 24.252
701 16.80754380025881 83.78603492745503 24.252
702 249.3026121516084 155.5125090984524 24.252
703 89.6798073566459 152.0456083836798 24.252
704 149.7428630638344 40.41918405164955 24.252
705 217.7645106550474 99.28143573830553 24.252
706 48.23851003465573 99.28136050755546 24.252
707 91.77003789099155 65.35018472446231 24.252
708 116.7366576017704 40.49105769987859 24.252
709 147.6481394945591 169.5463100698533 24.252
710 174.4677137307193 65.82023108101468 24.252
711 117.9694634432331 170.4587372241776 24.252
712 139.7842244732649 137.5272731082133 24.252
713 247.8206089201042 42.81453566796787 24.252
714 18.17939107991259 42.81453566800513 24.252
715 18.17939107991259 196.1854643319949 24.252
716 247.8206089200775 196.1854643319599 24.252
717 209.0855617061389 83.64377715223621 24.252
718 56.93035771079906 83.65125904539768 24.252
719 92.58587801900528 132.8836028864681 24.252
720 172.7195529315205 132.779721955666 24.252
721 195.5997149136736 121.2794132722505 24.252
722 70.34998820532569 121.2837027954345 24.252
723 125.6952777507358 72.49439056879021 24.252
724 141.6018420698161 72.74134508278247 24.252
725 58.31021215018713 42.86760062014659 24.252
726 208.4064155540347 196.7836849898615 24.252
727 207.8963909517604 42.68252252391397 24.252
728 57.40693816066199 196.8696071000051 24.252
729 123.7824935002542 138.0765415950721 24.252
730 252.641094949618 13.23294760447897 24.252
731 13.35890505037135 225.7670523955207 24.252
732 13.35890505037134 13.23294760447908 24.252
733 252.6410949496535 225.7670523955202 24.252
734 58.47089353145878 156.0606061854457 24.252
735 207.4962005369461 156.0461866999167 24.252
736 13.27574729631468 244.7414242977828 182.4395543987707
737 252.7242528250559 244.7414243041506 182.4395543943053
738 274.0889014170148 244.8795981041066 161.5547025384862
739 274.0889014360345 244.8795980779403 46.94929749642852
740 13.27574724284258 247.1875545084301 28.51057585859701
741 252.7242526111241 244.7414241068089 26.0644454673112
742 83.36717028730584 249 104.3499457417144
743 182.6481535393326 249 104.3858180469583
744 132.2229495419095 249 86.56669478027992
745 45.79275208215656 249 128.5218806244925
746 220.2072479177707 249 128.521880624427
747 219.7693782776034 249 79.95183028456825
748 46.23062172232596 249 79.95183028452536
749 133.0597031949469 249 133.3874997021096
750 95.24266842831267 249 70.24650699890422
751 167.2654321389695 249 69.05434092479484
752 96.43349283130851 249 137.7387243917425
753 170.1355469238804 249 137.5590238993957
754 29.32782074296451 249 104.2519999999993
755 236.6721792570453 249 104.2520000000018
756 194.3314031672955 249 64.790925454053
757 70.53483689721378 249 63.76615864017802
758 154.5739724844555 249 105.3334450451858
759 114.8590119057423 249 107.4498481979186
760 195.8447054827527 249 145.157986460994
761 70.2501344762603 249 145.1879365431073
762 26.68305454125768 249 147.462564412071
763 239.3169454587068 249 147.4625644120262
764 239.3169454587076 249 61.04143558796718
765 26.68305454125951 249 61.04143558793301
766 57.63252465008294 249 104.252000000003
767 208.3674753497317 249 104.2519999999973
768 132.7610600390236 249 57.81442714693758
769 118.728775701502 249 150.058794610577
770 147.2712242980096 249 150.0587946105553
771 21.08425365454862 249 125.4031660076613
772 244.9157463454565 249 125.4031660076436
773 21.11084923521869 249 83.0989942759437
774 244.8891507647828 249 83.09899427595768
775 75.22619104998559 249 123.1017368480066
776 191.106754750919 249 123.1571153947347
777 217.0487815874373 249 56.89524913960288
778 48.95121841248037 249 56.89524913955833
779 73.44922514253938 249 85.95716678217248
780 196.3030285357198 249 87.96889480142931
781 217.6377927220606 249 152.0854351883116
782 48.36220727775647 249 152.0854351884387
783 108.762838143235 249 53.61462977489499
784 154.5357547954893 249 53.55355659271495
785 154.904798083717 249 84.5117956154598
786 101.8870773519377 249 91.95440948994417
787 88.63716575725384 249 51.78259784892241
788 176.3161104670741 249 51.74995892859031
789 87.23245597790341 249 155.9111360601753
790 178.7675440217477 249 155.911136060127
791 97.81861151793925 249 117.7689960794075
792 151.5258529463873 249 126.3935517635217
793 114.1753187008837 249 72.03933363819219
794 133.3858816639355 249 114.6108632928512
795 169.437399292046 249 119.0659833366362
796 114.6716301673596 249 127.9152071209862
797 175.6873712801524 249 86.23106166361585
798 147.4333849616693 249 70.29089317114351
799 132.9999999997362 249 162.1553973052831
800 13.63164779220207 249 158.5155828555902
801 252.3683522077685 249 158.5155828555822
802 252.3683522077768 249 49.98841714442539
803 13.6316477922058 249 49.9884171444082
804 12.05423568563444 249 139.2519999999422
805 253.9457643143598 249 139.2519999999422
806 253.9457643143585 249 69.2520000000597
807 12.05423568563397 249 69.2520000000597
$EndNodes
$Elements
1439
1 2 2 1 1 1 4 59
2 2 2 1 1 5 396 59
3 2 2 1 1 59 57 1
4 2 2 1 1 57 396 2
5 2 2 1 1 396 5 2
6 2 2 1 1 396 57 59
7 2 2 1 2 5 397 2
8 2 2 1 2 6 3 60
9 2 2 1 2 58 397 60
10 2 2 1 2 60 3 58
11 2 2 1 2 397 5 60
12 2 2 1 2 397 58 2
13 2 2 1 3 398 59 4
14 2 2 1 3 7 398 4
15 2 2 1 3 61 8 398
16 2 2 1 3 8 5 398
17 2 2 1 3 59 398 5
18 2 2 1 3 61 398 7
19 2 2 1 4 8 62 399
20 2 2 1 4 5 8 399
21 2 2 1 4 60 399 6
22 2 2 1 4 399 9 6
23 2 2 1 4 399 60 5
24 2 2 1 4 399 62 9
25 2 2 1 5 400 402 401
26 2 2 1 5 401 402 66
27 2 2 1 5 61 402 400
28 2 2 1 5 8 400 65
29 2 2 1 5 11 65 400
30 2 2 1 5 11 400 63
31 2 2 1 5 66 10 401
32 2 2 1 5 401 10 63
33 2 2 1 5 400 8 61
34 2 2 1 5 400 401 63
35 2 2 1 5 402 61 7
36 2 2 1 5 66 402 7
37 2 2 1 6 62 404 403
38 2 2 1 6 62 403 67
39 2 2 1 6 67 403 12
40 2 2 1 6 64 403 405
41 2 2 1 6 67 9 62
42 2 2 1 6 65 405 404
43 2 2 1 6 403 64 12
44 2 2 1 6 65 11 405
45 2 2 1 6 404 8 65
46 2 2 1 6 405 11 64
47 2 2 1 6 405 403 404
48 2 2 1 6 8 404 62
49 2 2 1 7 11 406 70
50 2 2 1 7 407 408 71
51 2 2 1 7 406 11 63
52 2 2 1 7 406 408 407
53 2 2 1 7 14 70 406
54 2 2 1 7 14 406 68
55 2 2 1 7 71 13 407
56 2 2 1 7 407 13 68
57 2 2 1 7 63 408 406
58 2 2 1 7 406 407 68
59 2 2 1 7 408 63 10
60 2 2 1 7 71 408 10
61 2 2 1 8 70 14 409
62 2 2 1 8 409 14 69
63 2 2 1 8 72 12 410
64 2 2 1 8 410 12 64
65 2 2 1 8 11 409 410
66 2 2 1 8 11 410 64
67 2 2 1 8 72 410 409
68 2 2 1 8 72 409 15
69 2 2 1 8 409 69 15
70 2 2 1 8 409 11 70
71 2 2 1 9 78 16 73
72 2 2 1 9 74 17 77
73 2 2 1 9 77 412 411
74 2 2 1 9 74 411 73
75 2 2 1 9 411 74 77
76 2 2 1 9 73 411 78
77 2 2 1 9 411 412 413
78 2 2 1 9 68 413 412
79 2 2 1 9 78 411 413
80 2 2 1 9 412 14 68
81 2 2 1 9 413 68 13
82 2 2 1 9 78 413 13
83 2 2 1 9 14 412 77
84 2 2 1 10 414 416 415
85 2 2 1 10 414 415 79
86 2 2 1 10 414 417 416
87 2 2 1 10 77 17 418
88 2 2 1 10 418 17 75
89 2 2 1 10 79 15 414
90 2 2 1 10 414 15 69
91 2 2 1 10 418 416 417
92 2 2 1 10 416 418 75
93 2 2 1 10 14 417 69
94 2 2 1 10 77 418 417
95 2 2 1 10 417 414 69
96 2 2 1 10 417 14 77
97 2 2 1 10 415 76 18
98 2 2 1 10 79 415 18
99 2 2 1 10 76 415 416
100 2 2 1 10 416 75 76
101 2 2 1 11 419 81 420
102 2 2 1 11 85 19 80
103 2 2 1 11 81 20 84
104 2 2 1 11 84 420 81
105 2 2 1 11 85 421 16
106 2 2 1 11 421 73 16
107 2 2 1 11 74 421 420
108 2 2 1 11 421 74 73
109 2 2 1 11 420 421 419
110 2 2 1 11 421 85 419
111 2 2 1 11 420 17 74
112 2 2 1 11 419 85 80
113 2 2 1 11 81 419 80
114 2 2 1 11 17 420 84
115 2 2 1 12 82 83 422
116 2 2 1 12 422 84 82
117 2 2 1 12 86 423 21
118 2 2 1 12 86 18 76
119 2 2 1 12 423 83 21
120 2 2 1 12 84 20 82
121 2 2 1 12 423 86 76
122 2 2 1 12 423 75 422
123 2 2 1 12 75 423 76
124 2 2 1 12 423 422 83
125 2 2 1 12 17 422 75
126 2 2 1 12 422 17 84
127 2 2 1 13 93 22 87
128 2 2 1 13 88 23 92
129 2 2 1 13 80 425 424
130 2 2 1 13 426 81 424
131 2 2 1 13 426 92 20
132 2 2 1 13 87 424 425
133 2 2 1 13 426 20 81
134 2 2 1 13 92 426 88
135 2 2 1 13 424 81 80
136 2 2 1 13 426 424 88
137 2 2 1 13 425 80 19
138 2 2 1 13 93 425 19
139 2 2 1 13 87 425 93
140 2 2 1 13 88 424 87
141 2 2 1 14 427 83 428
142 2 2 1 14 89 92 23
143 2 2 1 14 428 83 82
144 2 2 1 14 94 21 83
145 2 2 1 14 24 94 427
146 2 2 1 14 91 24 427
147 2 2 1 14 429 90 428
148 2 2 1 14 427 428 91
149 2 2 1 14 91 428 90
150 2 2 1 14 427 94 83
151 2 2 1 14 429 428 82
152 2 2 1 14 429 20 92
153 2 2 1 14 20 429 82
154 2 2 1 14 89 90 429
155 2 2 1 14 429 92 89
156 2 2 1 15 102 25 95
157 2 2 1 15 430 96 97
158 2 2 1 15 97 26 101
159 2 2 1 15 430 101 23
160 2 2 1 15 101 430 97
161 2 2 1 15 87 432 431
162 2 2 1 15 431 88 87
163 2 2 1 15 432 22 102
164 2 2 1 15 22 432 87
165 2 2 1 15 431 432 95
166 2 2 1 15 95 96 431
167 2 2 1 15 88 431 430
168 2 2 1 15 430 431 96
169 2 2 1 15 432 102 95
170 2 2 1 15 430 23 88
171 2 2 1 16 433 23 101
172 2 2 1 16 433 101 98
173 2 2 1 16 434 435 90
174 2 2 1 16 435 434 436
175 2 2 1 16 434 433 99
176 2 2 1 16 103 24 91
177 2 2 1 16 433 98 99
178 2 2 1 16 100 436 434
179 2 2 1 16 100 434 99
180 2 2 1 16 101 26 98
181 2 2 1 16 103 436 27
182 2 2 1 16 436 100 27
183 2 2 1 16 90 89 434
184 2 2 1 16 434 89 433
185 2 2 1 16 435 103 91
186 2 2 1 16 90 435 91
187 2 2 1 16 23 433 89
188 2 2 1 16 435 436 103
189 2 2 1 17 113 28 437
190 2 2 1 17 437 28 104
191 2 2 1 17 113 437 25
192 2 2 1 17 107 29 112
193 2 2 1 17 95 437 438
194 2 2 1 17 437 95 25
195 2 2 1 17 106 439 105
196 2 2 1 17 439 106 440
197 2 2 1 17 438 104 105
198 2 2 1 17 438 437 104
199 2 2 1 17 96 438 439
200 2 2 1 17 439 438 105
201 2 2 1 17 96 439 440
202 2 2 1 17 112 441 107
203 2 2 1 17 96 440 97
204 2 2 1 17 440 106 441
205 2 2 1 17 441 112 26
206 2 2 1 17 440 26 97
207 2 2 1 17 441 106 107
208 2 2 1 17 96 95 438
209 2 2 1 17 26 440 441
210 2 2 1 18 442 100 443
211 2 2 1 18 443 100 99
212 2 2 1 18 98 445 444
213 2 2 1 18 446 445 98
214 2 2 1 18 98 26 446
215 2 2 1 18 442 30 114
216 2 2 1 18 111 30 442
217 2 2 1 18 443 444 110
218 2 2 1 18 108 112 29
219 2 2 1 18 444 443 99
220 2 2 1 18 112 446 26
221 2 2 1 18 446 112 108
222 2 2 1 18 111 443 110
223 2 2 1 18 110 444 445
224 2 2 1 18 442 114 27
225 2 2 1 18 100 442 27
226 2 2 1 18 442 443 111
227 2 2 1 18 445 109 110
228 2 2 1 18 445 446 109
229 2 2 1 18 446 108 109
230 2 2 1 18 98 444 99
231 2 2 1 19 105 447 106
232 2 2 1 19 32 125 119
233 2 2 1 19 106 447 448
234 2 2 1 19 107 450 449
235 2 2 1 19 29 107 449
236 2 2 1 19 451 447 105
237 2 2 1 19 104 451 105
238 2 2 1 19 104 28 452
239 2 2 1 19 452 451 104
240 2 2 1 19 451 452 115
241 2 2 1 19 107 448 450
242 2 2 1 19 451 115 116
243 2 2 1 19 447 451 116
244 2 2 1 19 452 28 126
245 2 2 1 19 118 448 117
246 2 2 1 19 125 449 119
247 2 2 1 19 118 450 448
248 2 2 1 19 447 117 448
249 2 2 1 19 449 125 29
250 2 2 1 19 448 107 106
251 2 2 1 19 117 447 116
252 2 2 1 19 118 119 450
253 2 2 1 19 449 450 119
254 2 2 1 19 452 126 31
255 2 2 1 19 115 452 31
256 2 2 1 20 111 454 453
257 2 2 1 20 111 453 30
258 2 2 1 20 120 125 32
259 2 2 1 20 455 108 456
260 2 2 1 20 108 29 456
261 2 2 1 20 454 110 123
262 2 2 1 20 110 109 457
263 2 2 1 20 123 110 457
264 2 2 1 20 457 109 458
265 2 2 1 20 124 454 123
266 2 2 1 20 30 453 127
267 2 2 1 20 454 111 110
268 2 2 1 20 108 458 109
269 2 2 1 20 458 108 455
270 2 2 1 20 458 121 122
271 2 2 1 20 456 125 120
272 2 2 1 20 455 121 458
273 2 2 1 20 124 453 454
274 2 2 1 20 125 456 29
275 2 2 1 20 457 122 123
276 2 2 1 20 120 121 455
277 2 2 1 20 122 457 458
278 2 2 1 20 455 456 120
279 2 2 1 20 127 453 33
280 2 2 1 20 453 124 33
281 2 2 1 21 35 140 459
282 2 2 1 21 35 459 133
283 2 2 1 21 131 461 460
284 2 2 1 21 460 461 118
285 2 2 1 21 461 132 459
286 2 2 1 21 461 459 119
287 2 2 1 21 129 463 462
288 2 2 1 21 462 463 116
289 2 2 1 21 130 460 463
290 2 2 1 21 463 460 117
291 2 2 1 21 128 462 464
292 2 2 1 21 464 462 115
293 2 2 1 21 31 464 115
294 2 2 1 21 128 464 34
295 2 2 1 21 464 31 34
296 2 2 1 21 459 140 32
297 2 2 1 21 132 461 131
298 2 2 1 21 118 461 119
299 2 2 1 21 119 459 32
300 2 2 1 21 130 463 129
301 2 2 1 21 133 459 132
302 2 2 1 21 116 463 117
303 2 2 1 21 117 460 118
304 2 2 1 21 131 460 130
305 2 2 1 21 129 462 128
306 2 2 1 21 115 462 116
307 2 2 1 22 465 138 466
308 2 2 1 22 465 466 123
309 2 2 1 22 137 465 467
310 2 2 1 22 134 140 35
311 2 2 1 22 467 465 122
312 2 2 1 22 468 121 120
313 2 2 1 22 134 135 120
314 2 2 1 22 468 135 136
315 2 2 1 22 135 468 120
316 2 2 1 22 121 468 136
317 2 2 1 22 466 139 124
318 2 2 1 22 139 466 138
319 2 2 1 22 123 466 124
320 2 2 1 22 467 122 121
321 2 2 1 22 467 136 137
322 2 2 1 22 136 467 121
323 2 2 1 22 32 134 120
324 2 2 1 22 140 134 32
325 2 2 1 22 469 33 124
326 2 2 1 22 469 139 36
327 2 2 1 22 139 469 124
328 2 2 1 22 33 469 36
329 2 2 1 22 465 123 122
330 2 2 1 22 465 137 138
331 2 2 1 23 128 34 37
332 2 2 1 23 38 35 146
333 2 2 1 23 146 35 133
334 2 2 1 23 145 146 133
335 2 2 1 23 144 145 132
336 2 2 1 23 132 145 133
337 2 2 1 23 143 130 142
338 2 2 1 23 131 144 132
339 2 2 1 23 131 130 143
340 2 2 1 23 142 130 129
341 2 2 1 23 131 143 144
342 2 2 1 23 128 37 141
343 2 2 1 23 142 129 141
344 2 2 1 23 141 129 128
345 2 2 1 24 134 470 148
346 2 2 1 24 134 148 149
347 2 2 1 24 198 199 134
348 2 2 1 24 134 199 135
349 2 2 1 24 38 147 470
350 2 2 1 24 197 198 134
351 2 2 1 24 196 197 134
352 2 2 1 24 195 196 134
353 2 2 1 24 194 195 134
354 2 2 1 24 193 194 134
355 2 2 1 24 192 193 134
356 2 2 1 24 191 192 134
357 2 2 1 24 190 191 134
358 2 2 1 24 189 190 134
359 2 2 1 24 188 189 134
360 2 2 1 24 187 188 134
361 2 2 1 24 186 187 134
362 2 2 1 24 185 186 134
363 2 2 1 24 184 185 134
364 2 2 1 24 183 184 134
365 2 2 1 24 182 183 134
366 2 2 1 24 181 182 134
367 2 2 1 24 180 181 134
368 2 2 1 24 179 180 134
369 2 2 1 24 178 179 134
370 2 2 1 24 177 178 134
371 2 2 1 24 176 177 134
372 2 2 1 24 205 139 204
373 2 2 1 24 175 176 134
374 2 2 1 24 174 175 134
375 2 2 1 24 173 174 134
376 2 2 1 24 172 173 134
377 2 2 1 24 171 172 134
378 2 2 1 24 170 171 134
379 2 2 1 24 38 470 35
380 2 2 1 24 169 170 134
381 2 2 1 24 168 169 134
382 2 2 1 24 136 135 200
383 2 2 1 24 167 168 134
384 2 2 1 24 36 139 205
385 2 2 1 24 166 167 134
386 2 2 1 24 165 166 134
387 2 2 1 24 138 203 204
388 2 2 1 24 164 165 134
389 2 2 1 24 202 203 138
390 2 2 1 24 163 164 134
391 2 2 1 24 162 163 134
392 2 2 1 24 161 162 134
393 2 2 1 24 138 137 202
394 2 2 1 24 160 161 134
395 2 2 1 24 159 160 134
396 2 2 1 24 204 139 138
397 2 2 1 24 39 36 205
398 2 2 1 24 201 137 136
399 2 2 1 24 158 159 134
400 2 2 1 24 157 158 134
401 2 2 1 24 200 201 136
402 2 2 1 24 156 157 134
403 2 2 1 24 155 156 134
404 2 2 1 24 135 199 200
405 2 2 1 24 154 155 134
406 2 2 1 24 202 137 201
407 2 2 1 24 153 154 134
408 2 2 1 24 152 153 134
409 2 2 1 24 151 152 134
410 2 2 1 24 150 151 134
411 2 2 1 24 134 149 150
412 2 2 1 24 35 470 134
413 2 2 1 24 148 470 147
414 2 2 4 25 473 491 503
415 2 2 4 25 212 494 517
416 2 2 4 25 492 208 513
417 2 2 4 25 477 489 544
418 2 2 4 25 217 486 515
419 2 2 4 25 480 503 538
420 2 2 4 25 211 212 517
421 2 2 4 25 474 488 514
422 2 2 4 25 471 490 534
423 2 2 4 25 205 204 495
424 2 2 4 25 489 477 519
425 2 2 4 25 476 494 530
426 2 2 4 25 491 473 519
427 2 2 4 25 474 492 511
428 2 2 4 25 492 479 511
429 2 2 4 25 500 480 538
430 2 2 4 25 496 210 517
431 2 2 4 25 203 202 502
432 2 2 4 25 203 502 512
433 2 2 4 25 499 476 530
434 2 2 4 25 490 471 518
435 2 2 4 25 208 492 516
436 2 2 4 25 507 477 544
437 2 2 4 25 496 479 513
438 2 2 4 25 494 476 517
439 2 2 4 25 202 489 502
440 2 2 4 25 208 209 513
441 2 2 4 25 143 505 526
442 2 2 4 25 482 514 524
443 2 2 4 25 199 198 485
444 2 2 4 25 488 474 511
445 2 2 4 25 476 496 517
446 2 2 4 25 150 149 498
447 2 2 4 25 495 504 510
448 2 2 4 25 494 212 541
449 2 2 4 25 199 483 497
450 2 2 4 25 214 215 499
451 2 2 4 25 39 205 510
452 2 2 4 25 505 482 526
453 2 2 4 25 535 505 536
454 2 2 4 25 496 513 539
455 2 2 4 25 210 211 517
456 2 2 4 25 486 217 504
457 2 2 4 25 145 508 537
458 2 2 4 25 216 217 515
459 2 2 4 25 489 202 544
460 2 2 4 25 38 146 506
461 2 2 4 25 143 142 505
462 2 2 4 25 505 487 536
463 2 2 4 25 205 495 510
464 2 2 4 25 145 144 508
465 2 2 4 25 479 492 513
466 2 2 4 25 531 475 540
467 2 2 4 25 493 531 540
468 2 2 4 25 475 531 532
469 2 2 4 25 492 474 536
470 2 2 4 25 497 471 534
471 2 2 4 25 511 479 528
472 2 2 4 25 479 509 528
473 2 2 4 25 484 38 506
474 2 2 4 25 476 500 522
475 2 2 4 25 514 475 524
476 2 2 4 25 214 499 530
477 2 2 4 25 495 478 504
478 2 2 4 25 531 490 532
479 2 2 4 25 213 530 541
480 2 2 4 25 210 496 539
481 2 2 4 25 530 494 541
482 2 2 4 25 472 500 538
483 2 2 4 25 519 477 545
484 2 2 4 25 200 199 497
485 2 2 4 25 148 484 501
486 2 2 4 25 480 515 521
487 2 2 4 25 502 478 512
488 2 2 4 25 500 472 509
489 2 2 4 25 207 208 516
490 2 2 4 25 479 496 522
491 2 2 4 25 496 476 522
492 2 2 4 25 504 478 523
493 2 2 4 25 538 491 546
494 2 2 4 25 506 146 537
495 2 2 4 25 503 491 538
496 2 2 4 25 508 482 524
497 2 2 4 25 500 509 522
498 2 2 4 25 474 514 535
499 2 2 4 25 148 147 484
500 2 2 4 25 480 525 529
501 2 2 4 25 495 204 512
502 2 2 4 25 508 481 537
503 2 2 4 25 489 519 520
504 2 2 4 25 217 218 504
505 2 2 4 25 503 480 521
506 2 2 4 25 476 499 525
507 2 2 4 25 531 477 534
508 2 2 4 25 213 214 530
509 2 2 4 25 519 473 520
510 2 2 4 25 474 535 536
511 2 2 4 25 480 500 525
512 2 2 4 25 149 148 501
513 2 2 4 25 201 200 507
514 2 2 4 25 525 499 529
515 2 2 4 25 491 519 545
516 2 2 4 25 515 486 521
517 2 2 4 25 500 476 525
518 2 2 4 25 499 215 529
519 2 2 4 25 37 206 527
520 2 2 4 25 473 503 521
521 2 2 4 25 502 489 520
522 2 2 4 25 141 37 527
523 2 2 4 25 490 531 534
524 2 2 4 25 218 39 510
525 2 2 4 25 504 218 510
526 2 2 4 25 146 145 537
527 2 2 4 25 202 201 544
528 2 2 4 25 484 483 501
529 2 2 4 25 204 203 512
530 2 2 4 25 478 495 512
531 2 2 4 25 472 538 546
532 2 2 4 25 477 507 534
533 2 2 4 25 486 504 523
534 2 2 4 25 482 505 535
535 2 2 4 25 487 505 533
536 2 2 4 25 200 497 507
537 2 2 4 25 505 142 533
538 2 2 4 25 215 216 529
539 2 2 4 25 478 502 520
540 2 2 4 25 483 471 497
541 2 2 4 25 509 479 522
542 2 2 4 25 216 515 529
543 2 2 4 25 481 508 524
544 2 2 4 25 506 481 547
545 2 2 4 25 40 213 541
546 2 2 4 25 212 40 541
547 2 2 4 25 515 480 529
548 2 2 4 25 201 507 544
549 2 2 4 25 484 506 547
550 2 2 4 25 514 482 535
551 2 2 4 25 475 514 540
552 2 2 4 25 488 511 528
553 2 2 4 25 516 492 536
554 2 2 4 25 498 149 501
555 2 2 4 25 481 518 547
556 2 2 4 25 507 497 534
557 2 2 4 25 482 508 526
558 2 2 4 25 514 488 540
559 2 2 4 25 209 210 539
560 2 2 4 25 478 520 523
561 2 2 4 25 509 472 528
562 2 2 4 25 144 143 526
563 2 2 4 25 473 521 523
564 2 2 4 25 508 144 526
565 2 2 4 25 142 141 533
566 2 2 4 25 518 481 532
567 2 2 4 25 481 524 532
568 2 2 4 25 513 209 539
569 2 2 4 25 206 207 543
570 2 2 4 25 483 485 501
571 2 2 4 25 520 473 523
572 2 2 4 25 481 506 537
573 2 2 4 25 521 486 523
574 2 2 4 25 516 487 543
575 2 2 4 25 487 516 536
576 2 2 4 25 490 518 532
577 2 2 4 25 207 516 543
578 2 2 4 25 471 483 484
579 2 2 4 25 524 475 532
580 2 2 4 25 477 531 545
581 2 2 4 25 531 493 545
582 2 2 4 25 527 487 533
583 2 2 4 25 518 471 547
584 2 2 4 25 141 527 533
585 2 2 4 25 487 527 543
586 2 2 4 25 485 498 501
587 2 2 4 25 527 206 543
588 2 2 4 25 528 472 542
589 2 2 4 25 493 540 542
590 2 2 4 25 488 528 542
591 2 2 4 25 493 542 546
592 2 2 4 25 542 472 546
593 2 2 4 25 540 488 542
594 2 2 4 25 471 484 547
595 2 2 4 25 491 545 546
596 2 2 4 25 545 493 546
597 2 2 4 25 185 160 186
598 2 2 4 25 185 170 160
599 2 2 4 25 170 185 184
600 2 2 4 25 160 159 158
601 2 2 4 25 160 170 161
602 2 2 4 25 183 170 184
603 2 2 4 25 182 170 183
604 2 2 4 25 170 162 161
605 2 2 4 25 170 182 181
606 2 2 4 25 170 181 180
607 2 2 4 25 179 170 180
608 2 2 4 25 163 162 170
609 2 2 4 25 178 170 179
610 2 2 4 25 164 163 165
611 2 2 4 25 165 163 170
612 2 2 4 25 170 178 177
613 2 2 4 25 176 170 177
614 2 2 4 25 165 170 166
615 2 2 4 25 168 167 166
616 2 2 4 25 170 168 166
617 2 2 4 25 176 175 170
618 2 2 4 25 174 173 175
619 2 2 4 25 175 173 170
620 2 2 4 25 172 171 170
621 2 2 4 25 173 172 170
622 2 2 4 25 169 168 170
623 2 2 4 25 147 38 484
624 2 2 4 25 483 199 485
625 2 2 4 25 198 197 498
626 2 2 4 25 485 198 498
627 2 2 4 25 151 150 498
628 2 2 4 25 197 196 498
629 2 2 4 25 196 195 498
630 2 2 4 25 152 151 498
631 2 2 4 25 195 194 498
632 2 2 4 25 194 193 498
633 2 2 4 25 193 192 498
634 2 2 4 25 192 191 498
635 2 2 4 25 191 190 498
636 2 2 4 25 153 152 498
637 2 2 4 25 190 189 498
638 2 2 4 25 189 188 498
639 2 2 4 25 154 153 498
640 2 2 4 25 155 154 498
641 2 2 4 25 156 155 498
642 2 2 4 25 188 187 498
643 2 2 4 25 187 186 498
644 2 2 4 25 186 160 498
645 2 2 4 25 157 156 498
646 2 2 4 25 158 157 498
647 2 2 4 25 160 158 498
648 2 2 2 26 57 219 1
649 2 2 2 26 219 57 548
650 2 2 2 26 220 58 3
651 2 2 2 26 41 219 548
652 2 2 2 26 57 2 548
653 2 2 2 26 220 41 548
654 2 2 2 26 58 220 548
655 2 2 2 26 2 58 548
656 2 2 3 28 369 549 44
657 2 2 3 28 549 221 44
658 2 2 3 28 550 377 52
659 2 2 3 28 314 550 52
660 2 2 3 28 364 373 374
661 2 2 3 28 365 364 374
662 2 2 3 28 366 365 374
663 2 2 3 28 374 375 366
664 2 2 3 28 368 550 51
665 2 2 3 28 550 368 377
666 2 2 3 28 550 314 51
667 2 2 3 28 549 360 43
668 2 2 3 28 360 549 369
669 2 2 3 28 221 549 43
670 2 2 3 28 368 367 377
671 2 2 3 28 376 377 367
672 2 2 3 28 371 361 370
673 2 2 3 28 370 361 360
674 2 2 3 28 372 363 371
675 2 2 3 28 371 363 362
676 2 2 3 28 375 376 367
677 2 2 3 28 367 366 375
678 2 2 3 28 369 370 360
679 2 2 3 28 373 364 372
680 2 2 3 28 371 362 361
681 2 2 3 28 364 363 372
682 2 2 3 29 563 224 588
683 2 2 3 29 224 563 586
684 2 2 3 29 317 564 589
685 2 2 3 29 564 317 587
686 2 2 3 29 564 554 567
687 2 2 3 29 553 563 566
688 2 2 3 29 556 564 567
689 2 2 3 29 563 555 566
690 2 2 3 29 224 225 588
691 2 2 3 29 223 224 586
692 2 2 3 29 318 317 589
693 2 2 3 29 317 316 587
694 2 2 3 29 582 551 591
695 2 2 3 29 551 583 590
696 2 2 3 29 581 552 584
697 2 2 3 29 578 557 581
698 2 2 3 29 561 578 581
699 2 2 3 29 559 582 591
700 2 2 3 29 583 560 590
701 2 2 3 29 373 576 578
702 2 2 3 29 577 382 579
703 2 2 3 29 561 581 584
704 2 2 3 29 560 577 590
705 2 2 3 29 576 559 591
706 2 2 3 29 577 558 590
707 2 2 3 29 557 576 591
708 2 2 3 29 563 553 586
709 2 2 3 29 555 563 588
710 2 2 3 29 554 564 587
711 2 2 3 29 564 556 589
712 2 2 3 29 572 553 582
713 2 2 3 29 555 573 583
714 2 2 3 29 554 574 584
715 2 2 3 29 575 556 585
716 2 2 3 29 559 572 582
717 2 2 3 29 573 560 583
718 2 2 3 29 574 561 584
719 2 2 3 29 562 575 585
720 2 2 3 29 576 557 578
721 2 2 3 29 558 577 579
722 2 2 3 29 371 370 572
723 2 2 3 29 379 380 573
724 2 2 3 29 376 375 574
725 2 2 3 29 384 385 575
726 2 2 3 29 569 553 597
727 2 2 3 29 554 568 598
728 2 2 3 29 555 571 599
729 2 2 3 29 570 556 600
730 2 2 3 29 566 551 582
731 2 2 3 29 551 566 583
732 2 2 3 29 552 567 584
733 2 2 3 29 567 552 585
734 2 2 3 29 374 373 578
735 2 2 3 29 382 383 579
736 2 2 3 29 373 372 576
737 2 2 3 29 381 382 577
738 2 2 3 29 553 572 597
739 2 2 3 29 574 554 598
740 2 2 3 29 573 555 599
741 2 2 3 29 556 575 600
742 2 2 3 29 565 558 580
743 2 2 3 29 565 551 590
744 2 2 3 29 551 565 591
745 2 2 3 29 568 554 587
746 2 2 3 29 553 569 586
747 2 2 3 29 556 570 589
748 2 2 3 29 571 555 588
749 2 2 3 29 553 566 582
750 2 2 3 29 566 555 583
751 2 2 3 29 567 554 584
752 2 2 3 29 556 567 585
753 2 2 3 29 558 565 590
754 2 2 3 29 565 557 591
755 2 2 3 29 580 552 581
756 2 2 3 29 369 569 597
757 2 2 3 29 568 377 598
758 2 2 3 29 571 378 599
759 2 2 3 29 386 570 600
760 2 2 3 29 371 572 593
761 2 2 3 29 573 380 594
762 2 2 3 29 574 375 595
763 2 2 3 29 384 575 596
764 2 2 3 29 572 559 593
765 2 2 3 29 560 573 594
766 2 2 3 29 561 574 595
767 2 2 3 29 575 562 596
768 2 2 3 29 557 565 601
769 2 2 3 29 377 568 604
770 2 2 3 29 569 369 603
771 2 2 3 29 570 386 606
772 2 2 3 29 378 571 605
773 2 2 3 29 576 372 593
774 2 2 3 29 559 576 593
775 2 2 3 29 577 560 594
776 2 2 3 29 381 577 594
777 2 2 3 29 374 578 595
778 2 2 3 29 579 383 596
779 2 2 3 29 578 561 595
780 2 2 3 29 562 579 596
781 2 2 3 29 370 369 597
782 2 2 3 29 378 379 599
783 2 2 3 29 377 376 598
784 2 2 3 29 385 386 600
785 2 2 3 29 558 579 592
786 2 2 3 29 579 562 592
787 2 2 3 29 572 370 597
788 2 2 3 29 379 573 599
789 2 2 3 29 376 574 598
790 2 2 3 29 575 385 600
791 2 2 3 29 580 581 601
792 2 2 3 29 585 552 602
793 2 2 3 29 552 580 602
794 2 2 3 29 52 377 604
795 2 2 3 29 386 53 606
796 2 2 3 29 369 44 603
797 2 2 3 29 45 378 605
798 2 2 3 29 315 52 604
799 2 2 3 29 53 319 606
800 2 2 3 29 44 222 603
801 2 2 3 29 226 45 605
802 2 2 3 29 372 371 593
803 2 2 3 29 380 381 594
804 2 2 3 29 375 374 595
805 2 2 3 29 383 384 596
806 2 2 3 29 580 558 592
807 2 2 3 29 580 592 602
808 2 2 3 29 222 223 607
809 2 2 3 29 316 315 608
810 2 2 3 29 225 226 609
811 2 2 3 29 319 318 610
812 2 2 3 29 565 580 601
813 2 2 3 29 562 585 602
814 2 2 3 29 581 557 601
815 2 2 3 29 223 586 607
816 2 2 3 29 587 316 608
817 2 2 3 29 588 225 609
818 2 2 3 29 318 589 610
819 2 2 3 29 586 569 607
820 2 2 3 29 571 588 609
821 2 2 3 29 568 587 608
822 2 2 3 29 589 570 610
823 2 2 3 29 603 222 607
824 2 2 3 29 315 604 608
825 2 2 3 29 226 605 609
826 2 2 3 29 606 319 610
827 2 2 3 29 569 603 607
828 2 2 3 29 605 571 609
829 2 2 3 29 604 568 608
830 2 2 3 29 570 606 610
831 2 2 3 29 592 562 602
832 2 2 3 30 383 392 393
833 2 2 3 30 383 393 384
834 2 2 3 30 390 381 389
835 2 2 3 30 389 381 380
836 2 2 3 30 387 611 46
837 2 2 3 30 611 227 46
838 2 2 3 30 612 395 54
839 2 2 3 30 320 612 54
840 2 2 3 30 391 392 383
841 2 2 3 30 380 379 389
842 2 2 3 30 383 382 391
843 2 2 3 30 388 389 379
844 2 2 3 30 386 612 53
845 2 2 3 30 612 386 395
846 2 2 3 30 612 320 53
847 2 2 3 30 611 378 45
848 2 2 3 30 378 611 387
849 2 2 3 30 227 611 45
850 2 2 3 30 393 394 385
851 2 2 3 30 393 385 384
852 2 2 3 30 386 385 395
853 2 2 3 30 394 395 385
854 2 2 3 30 387 388 378
855 2 2 3 30 391 382 390
856 2 2 3 30 379 378 388
857 2 2 3 30 382 381 390
858 2 2 3 31 621 663 684
859 2 2 3 31 664 620 685
860 2 2 3 31 232 233 640
861 2 2 3 31 326 325 641
862 2 2 3 31 230 644 688
863 2 2 3 31 328 645 689
864 2 2 3 31 237 661 686
865 2 2 3 31 321 662 687
866 2 2 3 31 642 235 686
867 2 2 3 31 643 323 687
868 2 2 3 31 236 237 686
869 2 2 3 31 322 321 687
870 2 2 3 31 659 228 688
871 2 2 3 31 660 330 689
872 2 2 3 31 621 649 663
873 2 2 3 31 648 620 664
874 2 2 3 31 228 229 688
875 2 2 3 31 330 329 689
876 2 2 3 31 229 230 688
877 2 2 3 31 329 328 689
878 2 2 3 31 323 322 687
879 2 2 3 31 235 236 686
880 2 2 3 31 635 664 685
881 2 2 3 31 663 633 684
882 2 2 3 31 391 390 648
883 2 2 3 31 250 249 649
884 2 2 3 31 391 648 664
885 2 2 3 31 649 249 663
886 2 2 3 31 232 640 670
887 2 2 3 31 326 641 671
888 2 2 3 31 640 233 672
889 2 2 3 31 641 325 673
890 2 2 3 31 618 640 708
891 2 2 3 31 640 618 704
892 2 2 3 31 657 696 711
893 2 2 3 31 632 653 669
894 2 2 3 31 633 656 668
895 2 2 3 31 655 634 667
896 2 2 3 31 654 635 666
897 2 2 3 31 653 622 669
898 2 2 3 31 624 655 667
899 2 2 3 31 656 623 668
900 2 2 3 31 625 654 666
901 2 2 3 31 697 658 709
902 2 2 3 31 235 642 693
903 2 2 3 31 323 643 694
904 2 2 3 31 629 658 697
905 2 2 3 31 657 631 696
906 2 2 3 31 644 230 691
907 2 2 3 31 645 328 692
908 2 2 3 31 648 390 699
909 2 2 3 31 250 649 701
910 2 2 3 31 389 388 653
911 2 2 3 31 252 251 655
912 2 2 3 31 247 246 656
913 2 2 3 31 394 393 654
914 2 2 3 31 628 642 678
915 2 2 3 31 629 643 679
916 2 2 3 31 644 630 676
917 2 2 3 31 645 631 677
918 2 2 3 31 249 248 663
919 2 2 3 31 392 391 664
920 2 2 3 31 615 647 734
921 2 2 3 31 646 617 735
922 2 2 3 31 642 628 693
923 2 2 3 31 643 629 694
924 2 2 3 31 696 641 697
925 2 2 3 31 619 696 697
926 2 2 3 31 630 644 691
927 2 2 3 31 631 645 692
928 2 2 3 31 666 617 679
929 2 2 3 31 667 616 678
930 2 2 3 31 632 648 699
931 2 2 3 31 649 634 701
932 2 2 3 31 650 613 680
933 2 2 3 31 615 668 677
934 2 2 3 31 614 669 676
935 2 2 3 31 613 650 681
936 2 2 3 31 657 615 677
937 2 2 3 31 631 657 677
938 2 2 3 31 647 615 703
939 2 2 3 31 617 646 698
940 2 2 3 31 680 626 695
941 2 2 3 31 627 681 690
942 2 2 3 31 639 680 695
943 2 2 3 31 681 638 690
944 2 2 3 31 617 658 679
945 2 2 3 31 658 629 679
946 2 2 3 31 719 627 722
947 2 2 3 31 626 720 721
948 2 2 3 31 648 632 705
949 2 2 3 31 634 649 706
950 2 2 3 31 649 621 706
951 2 2 3 31 620 648 705
952 2 2 3 31 639 650 680
953 2 2 3 31 650 638 681
954 2 2 3 31 666 679 726
955 2 2 3 31 667 678 725
956 2 2 3 31 647 719 722
957 2 2 3 31 720 646 721
958 2 2 3 31 677 668 728
959 2 2 3 31 676 669 727
960 2 2 3 31 231 232 670
961 2 2 3 31 327 326 671
962 2 2 3 31 233 234 672
963 2 2 3 31 325 324 673
964 2 2 3 31 639 695 710
965 2 2 3 31 621 684 722
966 2 2 3 31 685 620 721
967 2 2 3 31 696 619 711
968 2 2 3 31 684 647 722
969 2 2 3 31 646 685 721
970 2 2 3 31 387 659 713
971 2 2 3 31 245 660 715
972 2 2 3 31 661 253 714
973 2 2 3 31 662 395 716
974 2 2 3 31 622 653 713
975 2 2 3 31 655 624 714
976 2 2 3 31 623 656 715
977 2 2 3 31 654 625 716
978 2 2 3 31 389 653 699
979 2 2 3 31 654 393 702
980 2 2 3 31 247 656 700
981 2 2 3 31 655 251 701
982 2 2 3 31 234 235 693
983 2 2 3 31 324 323 694
984 2 2 3 31 638 650 723
985 2 2 3 31 230 231 691
986 2 2 3 31 328 327 692
987 2 2 3 31 635 654 702
988 2 2 3 31 656 633 700
989 2 2 3 31 653 632 699
990 2 2 3 31 634 655 701
991 2 2 3 31 690 638 707
992 2 2 3 31 661 624 686
993 2 2 3 31 662 625 687
994 2 2 3 31 647 684 734
995 2 2 3 31 685 646 735
996 2 2 3 31 650 639 724
997 2 2 3 31 613 674 680
998 2 2 3 31 675 613 681
999 2 2 3 31 622 659 688
1000 2 2 3 31 623 660 689
1001 2 2 3 31 388 387 713
1002 2 2 3 31 246 245 715
1003 2 2 3 31 253 252 714
1004 2 2 3 31 395 394 716
1005 2 2 3 31 615 657 703
1006 2 2 3 31 659 622 713
1007 2 2 3 31 660 623 715
1008 2 2 3 31 624 661 714
1009 2 2 3 31 625 662 716
1010 2 2 3 31 657 637 703
1011 2 2 3 31 619 697 709
1012 2 2 3 31 653 388 713
1013 2 2 3 31 656 246 715
1014 2 2 3 31 252 655 714
1015 2 2 3 31 394 654 716
1016 2 2 3 31 658 617 698
1017 2 2 3 31 616 652 690
1018 2 2 3 31 652 627 690
1019 2 2 3 31 636 658 698
1020 2 2 3 31 626 651 695
1021 2 2 3 31 651 614 695
1022 2 2 3 31 651 626 721
1023 2 2 3 31 627 652 722
1024 2 2 3 31 695 614 710
1025 2 2 3 31 616 690 707
1026 2 2 3 31 663 248 700
1027 2 2 3 31 392 664 702
1028 2 2 3 31 627 675 681
1029 2 2 3 31 633 663 700
1030 2 2 3 31 664 635 702
1031 2 2 3 31 651 620 705
1032 2 2 3 31 621 652 706
1033 2 2 3 31 674 626 680
1034 2 2 3 31 673 629 697
1035 2 2 3 31 641 673 697
1036 2 2 3 31 231 670 691
1037 2 2 3 31 327 671 692
1038 2 2 3 31 672 234 693
1039 2 2 3 31 673 324 694
1040 2 2 3 31 631 671 696
1041 2 2 3 31 671 641 696
1042 2 2 3 31 614 651 717
1043 2 2 3 31 652 616 718
1044 2 2 3 31 620 651 721
1045 2 2 3 31 652 621 722
1046 2 2 3 31 683 618 708
1047 2 2 3 31 628 678 707
1048 2 2 3 31 618 682 704
1049 2 2 3 31 683 628 707
1050 2 2 3 31 676 630 710
1051 2 2 3 31 637 657 711
1052 2 2 3 31 630 682 710
1053 2 2 3 31 686 624 725
1054 2 2 3 31 687 625 726
1055 2 2 3 31 628 672 693
1056 2 2 3 31 629 673 694
1057 2 2 3 31 642 686 725
1058 2 2 3 31 643 687 726
1059 2 2 3 31 658 636 709
1060 2 2 3 31 670 630 691
1061 2 2 3 31 671 631 692
1062 2 2 3 31 622 688 727
1063 2 2 3 31 623 689 728
1064 2 2 3 31 682 639 710
1065 2 2 3 31 688 644 727
1066 2 2 3 31 689 645 728
1067 2 2 3 31 659 387 730
1068 2 2 3 31 660 245 731
1069 2 2 3 31 253 661 732
1070 2 2 3 31 395 662 733
1071 2 2 3 31 228 659 730
1072 2 2 3 31 330 660 731
1073 2 2 3 31 661 237 732
1074 2 2 3 31 662 321 733
1075 2 2 3 31 674 636 720
1076 2 2 3 31 638 683 707
1077 2 2 3 31 637 675 719
1078 2 2 3 31 390 389 699
1079 2 2 3 31 248 247 700
1080 2 2 3 31 251 250 701
1081 2 2 3 31 393 392 702
1082 2 2 3 31 668 623 728
1083 2 2 3 31 669 622 727
1084 2 2 3 31 665 636 712
1085 2 2 3 31 625 666 726
1086 2 2 3 31 624 667 725
1087 2 2 3 31 636 665 709
1088 2 2 3 31 665 619 709
1089 2 2 3 31 665 637 711
1090 2 2 3 31 667 634 718
1091 2 2 3 31 632 669 717
1092 2 2 3 31 619 665 711
1093 2 2 3 31 666 635 735
1094 2 2 3 31 633 668 734
1095 2 2 3 31 630 670 704
1096 2 2 3 31 670 640 704
1097 2 2 3 31 672 628 708
1098 2 2 3 31 640 672 708
1099 2 2 3 31 636 674 712
1100 2 2 3 31 637 665 729
1101 2 2 3 31 626 674 720
1102 2 2 3 31 675 627 719
1103 2 2 3 31 613 675 729
1104 2 2 3 31 683 638 723
1105 2 2 3 31 636 698 720
1106 2 2 3 31 618 683 723
1107 2 2 3 31 46 228 730
1108 2 2 3 31 50 330 731
1109 2 2 3 31 237 42 732
1110 2 2 3 31 321 54 733
1111 2 2 3 31 682 630 704
1112 2 2 3 31 678 616 707
1113 2 2 3 31 616 667 718
1114 2 2 3 31 669 614 717
1115 2 2 3 31 674 613 712
1116 2 2 3 31 387 46 730
1117 2 2 3 31 245 50 731
1118 2 2 3 31 42 253 732
1119 2 2 3 31 54 395 733
1120 2 2 3 31 628 683 708
1121 2 2 3 31 614 676 710
1122 2 2 3 31 703 637 719
1123 2 2 3 31 635 685 735
1124 2 2 3 31 684 633 734
1125 2 2 3 31 617 666 735
1126 2 2 3 31 668 615 734
1127 2 2 3 31 639 682 724
1128 2 2 3 31 682 618 724
1129 2 2 3 31 675 637 729
1130 2 2 3 31 634 706 718
1131 2 2 3 31 705 632 717
1132 2 2 3 31 678 642 725
1133 2 2 3 31 679 643 726
1134 2 2 3 31 644 676 727
1135 2 2 3 31 645 677 728
1136 2 2 3 31 712 613 729
1137 2 2 3 31 651 705 717
1138 2 2 3 31 706 652 718
1139 2 2 3 31 698 646 720
1140 2 2 3 31 647 703 719
1141 2 2 3 31 665 712 729
1142 2 2 3 31 723 650 724
1143 2 2 3 31 618 723 724
1144 2 2 3 32 736 331 48
1145 2 2 3 32 238 736 48
1146 2 2 3 32 737 356 55
1147 2 2 3 32 340 737 55
1148 2 2 3 32 337 260 261
1149 2 2 3 32 336 260 337
1150 2 2 3 32 262 337 261
1151 2 2 3 32 338 337 262
1152 2 2 3 32 313 737 340
1153 2 2 3 32 356 737 51
1154 2 2 3 32 737 313 51
1155 2 2 3 32 254 736 47
1156 2 2 3 32 736 254 331
1157 2 2 3 32 736 238 47
1158 2 2 3 32 340 339 313
1159 2 2 3 32 313 339 312
1160 2 2 3 32 339 338 312
1161 2 2 3 32 312 338 311
1162 2 2 3 32 338 310 311
1163 2 2 3 32 309 310 338
1164 2 2 3 32 338 308 309
1165 2 2 3 32 338 307 308
1166 2 2 3 32 338 306 307
1167 2 2 3 32 338 305 306
1168 2 2 3 32 338 304 305
1169 2 2 3 32 338 303 304
1170 2 2 3 32 338 302 303
1171 2 2 3 32 338 301 302
1172 2 2 3 32 338 300 301
1173 2 2 3 32 338 299 300
1174 2 2 3 32 338 298 299
1175 2 2 3 32 338 297 298
1176 2 2 3 32 338 296 297
1177 2 2 3 32 338 295 296
1178 2 2 3 32 338 294 295
1179 2 2 3 32 293 294 338
1180 2 2 3 32 338 292 293
1181 2 2 3 32 338 291 292
1182 2 2 3 32 290 291 338
1183 2 2 3 32 338 289 290
1184 2 2 3 32 338 288 289
1185 2 2 3 32 338 287 288
1186 2 2 3 32 338 286 287
1187 2 2 3 32 338 285 286
1188 2 2 3 32 338 284 285
1189 2 2 3 32 338 283 284
1190 2 2 3 32 282 283 338
1191 2 2 3 32 338 281 282
1192 2 2 3 32 338 280 281
1193 2 2 3 32 338 279 280
1194 2 2 3 32 338 278 279
1195 2 2 3 32 338 277 278
1196 2 2 3 32 338 276 277
1197 2 2 3 32 338 275 276
1198 2 2 3 32 338 274 275
1199 2 2 3 32 338 273 274
1200 2 2 3 32 338 272 273
1201 2 2 3 32 338 271 272
1202 2 2 3 32 338 270 271
1203 2 2 3 32 338 269 270
1204 2 2 3 32 338 268 269
1205 2 2 3 32 338 267 268
1206 2 2 3 32 338 266 267
1207 2 2 3 32 338 265 266
1208 2 2 3 32 333 332 256
1209 2 2 3 32 333 256 257
1210 2 2 3 32 255 256 332
1211 2 2 3 32 255 332 331
1212 2 2 3 32 254 255 331
1213 2 2 3 32 264 265 338
1214 2 2 3 32 263 264 338
1215 2 2 3 32 338 262 263
1216 2 2 3 32 333 257 258
1217 2 2 3 32 335 334 258
1218 2 2 3 32 335 258 259
1219 2 2 3 32 334 333 258
1220 2 2 3 32 336 335 259
1221 2 2 3 32 336 259 260
1222 2 2 3 33 356 51 314
1223 2 2 3 33 314 52 357
1224 2 2 3 33 356 314 357
1225 2 2 3 33 357 55 356
1226 2 2 3 34 316 342 341
1227 2 2 3 34 316 341 315
1228 2 2 3 34 357 738 55
1229 2 2 3 34 738 341 55
1230 2 2 3 34 739 358 56
1231 2 2 3 34 345 739 56
1232 2 2 3 34 344 317 318
1233 2 2 3 34 343 317 344
1234 2 2 3 34 319 344 318
1235 2 2 3 34 342 316 343
1236 2 2 3 34 319 739 345
1237 2 2 3 34 358 739 53
1238 2 2 3 34 739 319 53
1239 2 2 3 34 738 315 341
1240 2 2 3 34 738 357 52
1241 2 2 3 34 315 738 52
1242 2 2 3 34 343 316 317
1243 2 2 3 34 345 344 319
1244 2 2 3 35 358 53 320
1245 2 2 3 35 320 54 359
1246 2 2 3 35 358 320 359
1247 2 2 3 35 358 359 56
1248 2 2 3 36 352 327 353
1249 2 2 3 36 353 327 328
1250 2 2 3 36 740 330 50
1251 2 2 3 36 244 740 50
1252 2 2 3 36 359 741 56
1253 2 2 3 36 741 346 56
1254 2 2 3 36 355 740 49
1255 2 2 3 36 740 355 330
1256 2 2 3 36 740 244 49
1257 2 2 3 36 351 326 327
1258 2 2 3 36 352 351 327
1259 2 2 3 36 349 325 350
1260 2 2 3 36 351 325 326
1261 2 2 3 36 741 321 346
1262 2 2 3 36 741 359 54
1263 2 2 3 36 321 741 54
1264 2 2 3 36 347 346 321
1265 2 2 3 36 347 321 322
1266 2 2 3 36 348 347 322
1267 2 2 3 36 348 322 323
1268 2 2 3 36 354 353 329
1269 2 2 3 36 329 353 328
1270 2 2 3 36 329 330 355
1271 2 2 3 36 355 354 329
1272 2 2 3 36 349 348 324
1273 2 2 3 36 349 324 325
1274 2 2 3 36 348 323 324
1275 2 2 3 36 350 325 351
1276 2 2 3 37 334 769 789
1277 2 2 3 37 770 337 790
1278 2 2 3 37 764 346 777
1279 2 2 3 37 355 765 778
1280 2 2 3 37 757 353 778
1281 2 2 3 37 348 756 777
1282 2 2 3 37 346 347 777
1283 2 2 3 37 354 355 778
1284 2 2 3 37 760 338 781
1285 2 2 3 37 333 761 782
1286 2 2 3 37 750 757 779
1287 2 2 3 37 241 754 773
1288 2 2 3 37 755 343 774
1289 2 2 3 37 754 241 771
1290 2 2 3 37 343 755 772
1291 2 2 3 37 759 744 786
1292 2 2 3 37 340 763 781
1293 2 2 3 37 762 331 782
1294 2 2 3 37 750 779 786
1295 2 2 3 37 746 755 767
1296 2 2 3 37 754 745 766
1297 2 2 3 37 755 747 767
1298 2 2 3 37 748 754 766
1299 2 2 3 37 338 339 781
1300 2 2 3 37 332 333 782
1301 2 2 3 37 339 340 781
1302 2 2 3 37 331 332 782
1303 2 2 3 37 334 335 769
1304 2 2 3 37 336 337 770
1305 2 2 3 37 353 354 778
1306 2 2 3 37 347 348 777
1307 2 2 3 37 758 743 797
1308 2 2 3 37 786 744 793
1309 2 2 3 37 785 758 797
1310 2 2 3 37 753 760 776
1311 2 2 3 37 761 752 775
1312 2 2 3 37 753 770 790
1313 2 2 3 37 769 752 789
1314 2 2 3 37 242 241 773
1315 2 2 3 37 343 344 774
1316 2 2 3 37 241 240 771
1317 2 2 3 37 342 343 772
1318 2 2 3 37 756 751 797
1319 2 2 3 37 775 752 791
1320 2 2 3 37 747 756 780
1321 2 2 3 37 757 748 779
1322 2 2 3 37 753 776 795
1323 2 2 3 37 760 746 776
1324 2 2 3 37 745 761 775
1325 2 2 3 37 745 754 771
1326 2 2 3 37 755 746 772
1327 2 2 3 37 754 748 773
1328 2 2 3 37 747 755 774
1329 2 2 3 37 779 742 786
1330 2 2 3 37 756 747 777
1331 2 2 3 37 748 757 778
1332 2 2 3 37 758 744 794
1333 2 2 3 37 744 759 794
1334 2 2 3 37 756 348 788
1335 2 2 3 37 353 757 787
1336 2 2 3 37 749 769 770
1337 2 2 3 37 350 351 768
1338 2 2 3 37 746 760 781
1339 2 2 3 37 761 745 782
1340 2 2 3 37 780 756 797
1341 2 2 3 37 743 758 795
1342 2 2 3 37 751 756 788
1343 2 2 3 37 757 750 787
1344 2 2 3 37 766 745 775
1345 2 2 3 37 746 767 776
1346 2 2 3 37 744 758 785
1347 2 2 3 37 748 766 779
1348 2 2 3 37 767 747 780
1349 2 2 3 37 770 769 799
1350 2 2 3 37 338 760 790
1351 2 2 3 37 761 333 789
1352 2 2 3 37 760 753 790
1353 2 2 3 37 752 761 789
1354 2 2 3 37 762 745 771
1355 2 2 3 37 746 763 772
1356 2 2 3 37 764 747 774
1357 2 2 3 37 748 765 773
1358 2 2 3 37 747 764 777
1359 2 2 3 37 765 748 778
1360 2 2 3 37 745 762 782
1361 2 2 3 37 763 746 781
1362 2 2 3 37 742 766 775
1363 2 2 3 37 767 743 776
1364 2 2 3 37 766 742 779
1365 2 2 3 37 743 767 780
1366 2 2 3 37 331 762 800
1367 2 2 3 37 346 764 802
1368 2 2 3 37 763 340 801
1369 2 2 3 37 765 355 803
1370 2 2 3 37 742 775 791
1371 2 2 3 37 768 351 783
1372 2 2 3 37 350 768 784
1373 2 2 3 37 786 742 791
1374 2 2 3 37 759 786 791
1375 2 2 3 37 351 352 783
1376 2 2 3 37 349 350 784
1377 2 2 3 37 348 349 788
1378 2 2 3 37 352 353 787
1379 2 2 3 37 783 352 787
1380 2 2 3 37 349 784 788
1381 2 2 3 37 744 768 793
1382 2 2 3 37 768 744 798
1383 2 2 3 37 776 743 795
1384 2 2 3 37 750 786 793
1385 2 2 3 37 333 334 789
1386 2 2 3 37 337 338 790
1387 2 2 3 37 749 770 792
1388 2 2 3 37 770 753 792
1389 2 2 3 37 794 759 796
1390 2 2 3 37 749 794 796
1391 2 2 3 37 750 783 787
1392 2 2 3 37 784 751 788
1393 2 2 3 37 752 769 796
1394 2 2 3 37 769 749 796
1395 2 2 3 37 749 792 794
1396 2 2 3 37 792 758 794
1397 2 2 3 37 340 55 801
1398 2 2 3 37 48 331 800
1399 2 2 3 37 56 346 802
1400 2 2 3 37 355 49 803
1401 2 2 3 37 345 56 802
1402 2 2 3 37 239 48 800
1403 2 2 3 37 55 341 801
1404 2 2 3 37 49 243 803
1405 2 2 3 37 769 335 799
1406 2 2 3 37 336 770 799
1407 2 2 3 37 335 336 799
1408 2 2 3 37 240 239 804
1409 2 2 3 37 341 342 805
1410 2 2 3 37 243 242 807
1411 2 2 3 37 344 345 806
1412 2 2 3 37 751 785 797
1413 2 2 3 37 768 783 793
1414 2 2 3 37 743 780 797
1415 2 2 3 37 771 240 804
1416 2 2 3 37 342 772 805
1417 2 2 3 37 242 773 807
1418 2 2 3 37 774 344 806
1419 2 2 3 37 783 750 793
1420 2 2 3 37 751 784 798
1421 2 2 3 37 762 771 804
1422 2 2 3 37 772 763 805
1423 2 2 3 37 773 765 807
1424 2 2 3 37 764 774 806
1425 2 2 3 37 759 791 796
1426 2 2 3 37 758 792 795
1427 2 2 3 37 785 751 798
1428 2 2 3 37 744 785 798
1429 2 2 3 37 784 768 798
1430 2 2 3 37 792 753 795
1431 2 2 3 37 791 752 796
1432 2 2 3 37 239 800 804
1433 2 2 3 37 801 341 805
1434 2 2 3 37 803 243 807
1435 2 2 3 37 345 802 806
1436 2 2 3 37 800 762 804
1437 2 2 3 37 763 801 805
1438 2 2 3 37 765 803 807
1439 2 2 3 37 802 764 806
$EndElements
