$MeshFormat
2.2 0 8
$EndMeshFormat
$PhysicalNames
4
2 1 "SD1G0"
2 2 "SD1D1001"
2 3 "SD2G0"
2 4 "I1-2"
$EndPhysicalNames
$Nodes
709
1 12.7 0 0
2 9.294 8.656000000000001 0
3 0 12.7 0
4 12.936 0 5.21
5 9.526 8.872 5.21
6 0 12.843 5.21
7 14.462 0 14.552
8 10.995 10.24 14.552
9 0 13.802 14.552
10 18.831 0 28.854
11 15.009 13.979 28.854
12 0 16.744 28.854
13 27.591 0 49.52
14 22.685 21.128 49.52
15 0 23.146 49.52
16 41.388 0 76.175
17 34.388 32.027 76.175
18 0 33.921 76.175
19 61.314 0 107.197
20 51.231 47.714 107.197
21 0 50.36 107.197
22 89.81 0 138.122
23 76.621 71.361 138.122
24 0 75.125 138.122
25 127.442 0 163.758
26 112.519 104.794 163.758
27 0 109.071 163.758
28 171.191 0 182.978
29 155.88 145.179 182.978
30 0 149.384 182.978
31 212.762 0 195.646
32 197.284 183.741 195.646
33 0 188.223 195.646
34 247.544 0 203.24
35 231.012 215.154 203.24
36 0 221.142 203.24
37 270.846 0 206.644
38 252.242 234.926 206.644
39 0 243.546 206.644
40 0 0 206.644
41 0 0 0
42 0 0 36.644
43 271 0 206.644
44 281 0 196.644
45 281 0 46.644
46 271 0 36.644
47 0 244 206.644
48 0 254 196.644
49 0 254 46.644
50 0 244 36.644
51 271 244 206.644
52 281 244 196.644
53 281 244 46.644
54 271 244 36.644
55 271 254 196.644
56 271 254 46.644
57 11.07607966709858 4.708872054343821 0
58 5.130805211355351 10.70011219288486 0
59 11.29700925493772 4.805311083092478 5.210000000000001
60 5.288797285613565 10.91834984980649 5.210000000000001
61 12.71250545206869 5.441381161303766 14.552
62 6.286284516460882 12.30944575753377 14.552
63 10.23678182493437 9.533912550381361 9.730165969051665
64 13.67436151509264 0 9.730165972474076
65 0 13.30701618174148 9.730165974795572
66 16.70645170024675 7.291304266913402 28.854
67 8.961460657237952 16.20755571632965 28.854
68 12.91822958458396 12.03146871369194 21.40452354726453
69 16.55532089064459 0 21.40452354726459
70 0 15.21160175333227 21.40452354730052
71 24.62669328471841 10.94494767800626 49.52
72 13.89655895911847 23.89202874542038 49.52
73 18.64132770803307 17.36194825230959 38.63327102842774
74 22.97628279343007 0 38.6332710284276
75 0 19.77346352096814 38.63327102847977
76 37.02818229066074 16.56593235189047 76.175
77 28.2905119417862 36.47815371502937 76.175
78 14.14355657902534 35.21897348881174 76.175
79 28.22050102656074 26.28321026134201 62.12777406331509
80 34.11695981060077 0 62.12777406331546
81 0 28.24255845180724 62.12777406338023
82 57.21788482999254 16.46694161853749 107.197
83 53.13287959612035 32.9366341756842 107.197
84 41.7681947803724 54.05010451997965 107.197
85 20.88182603581442 52.23154627962367 107.197
86 42.37784403204096 39.46847024464921 90.89096161978121
87 50.84033225568179 0 90.89096161978122
88 0 41.71919782956665 90.89096161985623
89 84.94747295209463 24.73745713324872 138.122
90 80.09090039729092 49.47608271163739 138.122
91 68.01187173070579 79.78148881350999 138.122
92 45.33240143862156 78.36575855771157 138.122
93 22.66782326252291 76.72237348147443 138.122
94 63.38621197850835 59.03476792657688 122.0020386150205
95 74.95617883180344 0 122.0020386150169
96 0 62.21599939540891 122.0020386151028
97 124.0973462691064 27.54950874849168 163.758
98 120.7604927451883 55.09996525618029 163.758
99 117.3903755938793 82.64636552163063 163.758
100 102.0559613296752 114.1490472896129 163.758
101 76.53205596700386 113.0990694730639 163.758
102 51.02060218821621 111.7709059227417 163.758
103 25.51185030780166 110.3914169278164 163.758
104 94.03783168258315 87.58187396634359 150.5599602488913
105 108.0681260760773 0 150.5599602488924
106 0 91.59476902056299 150.5599602489587
107 169.3549943969314 30.96225271951953 182.978
108 167.5532173908395 61.9265238231313 182.978
109 165.7220541246733 92.88906608399003 182.978
110 163.7360164639257 123.8419350926775 182.978
111 142.5740407287689 154.4612194568698 182.978
112 114.0513632825418 153.7003542277931 182.978
113 85.53682410586859 152.6669947417327 182.978
114 57.02496511632762 151.5615951869315 182.978
115 28.51340542004713 150.4484691047914 182.978
116 126.5825720325608 117.8923454379504 169.9917550901921
117 141.0327022518888 131.3507183746346 176.396854207267
118 148.871719005751 0 173.1725968888554
119 0 128.8176516328086 173.1725968889089
120 211.9867989443235 33.00030568742874 195.646
121 211.2663676178599 66.00186525242377 195.646
122 210.5363982613442 99.00321424983719 195.646
123 209.7227980046595 132.0025844057461 195.646
124 208.5913524982632 164.9920637541488 195.646
125 182.3304967197105 192.5582691793632 195.646
126 151.9371151807474 192.0933772341818 195.646
127 121.5481890395134 191.3805220593205 195.646
128 91.16096272809942 190.5978960716814 195.646
129 60.77434847429682 189.7917920600439 195.646
130 30.38762141555387 188.9899565340137 195.646
131 176.3141247451868 164.2105118931479 189.2300406789689
132 191.7075442899776 0 189.2300406789694
133 0 168.5522197609555 189.2300406790027
134 247.2512068161691 33.33253010640725 203.24
135 247.0224099624108 66.66557310790543 203.24
136 246.8006419691919 99.99866459764264 203.24
137 246.5337279258525 133.3314188535745 203.24
138 246.1327621819082 166.6627828428759 203.24
139 245.2322885568946 199.9829763317873 203.24
140 216.1223877050111 223.6316741403504 203.24
141 185.2459510260008 223.5216067860075 203.24
142 154.3708301079542 223.1921071838862 203.2400000000001
143 123.4964322150319 222.7997580539613 203.24
144 92.62237229014728 222.3815084359846 203.24
145 61.74841667076959 221.9556173925543 203.24
146 30.87436880971265 221.5365145620185 203.24
147 214.012595146268 199.3213889744342 199.4125130319248
148 230.0133637445779 0 199.4125130319224
149 270.5682840383672 31.93429320992545 206.644
150 270.3537330131406 63.86908641448484 206.644
151 270.1560402771825 95.80398971099672 206.644
152 269.9374419902298 127.7387547221487 206.644
153 269.6493961359217 159.6729564024905 206.644
154 269.1907041935305 191.6050867425055 206.644
155 268.0606795923678 223.5175431031606 206.644
156 235.3439265670148 243.4383926755109 206.644
157 201.7241832622766 243.6702331037801 206.644
158 168.1034932829864 243.7095465658595 206.644
159 134.4827821468743 243.692656658881 206.644
160 100.8620885938312 243.6525920037826 206.644
161 67.24140274299779 243.6056863312184 206.644
162 33.62070996890711 243.5648493838335 206.644
163 236.9902500000485 0 206.644
164 203.1345000001415 0 206.644
165 169.2787500002345 0 206.644
166 135.4230000003331 0 206.644
167 101.567250000254 0 206.644
168 67.71150000016925 0 206.644
169 33.85575000008458 0 206.644
170 0 34.79228571421701 206.644
171 0 69.58457142839958 206.644
172 0 104.3768571425811 206.644
173 0 139.1691428568627 206.644
174 0 173.9614285712381 206.644
175 0 208.7537142856135 206.644
176 6.349999999983785 0 0
177 0 6.350000000015788 0
178 278.0710678303063 0 203.7150677934246
179 281 0 171.643999999975
180 281 0 146.64399999995
181 281 0 121.6440000000722
182 281 0 96.64400000004997
183 281 0 71.64400000002497
184 278.0710677865382 0 39.57293216280723
185 246.3636363636141 0 36.644
186 221.7272727273948 0 36.644
187 197.0909090911755 0 36.644
188 172.4545454549562 0 36.644
189 147.8181818187369 0 36.644
190 123.1818181823884 0 36.644
191 98.54545454591076 0 36.644
192 73.90909090943305 0 36.644
193 49.27272727295539 0 36.644
194 24.63636363647768 0 36.644
195 0 251.0710678378863 203.7150677858446
196 0 254 171.643999999975
197 0 254 146.64399999995
198 0 254 121.6440000000722
199 0 254 96.64400000004997
200 0 254 71.64400000002497
201 0 251.0710677754003 39.57293215166938
202 0 219.6000000001382 36.644
203 0 195.2000000002764 36.644
204 0 170.8000000004147 36.644
205 0 146.4000000005529 36.644
206 0 122.0000000006883 36.644
207 0 97.600000000584 36.644
208 0 73.200000000438 36.644
209 0 48.80000000029202 36.644
210 0 24.40000000014601 36.644
211 24.63636363628538 244 206.644
212 49.27272727256886 244 206.644
213 73.90909090882785 244 206.644
214 98.54545454504674 244 206.644
215 123.1818181812656 244 206.644
216 147.8181818176137 244 206.644
217 172.4545454540909 244 206.644
218 197.0909090905682 244 206.644
219 221.7272727270455 244 206.644
220 246.3636363635227 244 206.644
221 278.0710678303063 244 203.7150677934246
222 281 244 171.643999999975
223 281 244 146.64399999995
224 281 244 121.6440000000722
225 281 244 96.64400000004997
226 281 244 71.64400000002497
227 278.0710677865382 244 39.57293216280723
228 246.3636363636141 244 36.644
229 221.7272727273948 244 36.644
230 197.0909090911755 244 36.644
231 172.4545454549562 244 36.644
232 147.8181818187369 244 36.644
233 123.1818181823884 244 36.644
234 98.54545454591076 244 36.644
235 73.90909090943305 244 36.644
236 49.27272727295539 244 36.644
237 24.63636363647768 244 36.644
238 24.63636363628538 254 196.644
239 49.27272727256886 254 196.644
240 73.90909090882785 254 196.644
241 98.54545454504674 254 196.644
242 123.1818181812656 254 196.644
243 147.8181818176137 254 196.644
244 172.4545454540909 254 196.644
245 197.0909090905682 254 196.644
246 221.7272727270455 254 196.644
247 246.3636363635227 254 196.644
248 271 254 171.643999999975
249 271 254 146.64399999995
250 271 254 121.6440000000722
251 271 254 96.64400000004997
252 271 254 71.64400000002497
253 246.3636363636141 254 46.644
254 221.7272727273948 254 46.644
255 197.0909090911755 254 46.644
256 172.4545454549562 254 46.644
257 147.8181818187369 254 46.644
258 123.1818181823884 254 46.644
259 98.54545454591076 254 46.644
260 73.90909090943305 254 46.644
261 49.27272727295539 254 46.644
262 24.63636363647768 254 46.644
263 271 251.0710678378863 203.7150677858446
264 278.0710677943634 251.0710678293676 196.644
265 278.0710677943634 251.0710678293676 46.644
266 271 251.0710678213272 39.57293219759627
267 271 24.39999999991468 206.644
268 271 48.79999999982763 206.644
269 271 73.19999999971478 206.644
270 271 97.59999999955805 206.644
271 271 121.9999999994041 206.644
272 271 146.39999999949 206.644
273 271 170.7999999996175 206.644
274 271 195.199999999745 206.644
275 271 219.5999999998725 206.644
276 281 24.39999999991468 196.644
277 281 48.79999999982763 196.644
278 281 73.19999999971478 196.644
279 281 97.59999999955805 196.644
280 281 121.9999999994041 196.644
281 281 146.39999999949 196.644
282 281 170.7999999996175 196.644
283 281 195.199999999745 196.644
284 281 219.5999999998725 196.644
285 281 24.39999999991468 46.644
286 281 48.79999999982763 46.644
287 281 73.19999999971478 46.644
288 281 97.59999999955805 46.644
289 281 121.9999999994041 46.644
290 281 146.39999999949 46.644
291 281 170.7999999996175 46.644
292 281 195.199999999745 46.644
293 281 219.5999999998725 46.644
294 271 24.39999999991468 36.644
295 271 48.79999999982763 36.644
296 271 73.19999999971478 36.644
297 271 97.59999999955805 36.644
298 271 121.9999999994041 36.644
299 271 146.39999999949 36.644
300 271 170.7999999996175 36.644
301 271 195.199999999745 36.644
302 271 219.5999999998725 36.644
303 12.01963592423047 2.324608523696886 2.605
304 10.47446082605443 6.817395107656652 2.60447801995821
305 7.430326520629477 9.967142528845173 2.603241427738756
306 11.22914553576785 6.549135818618013 8.177302877571615
307 12.57845205862911 3.408275020871416 9.921629716908642
308 11.66312177585079 6.995260505717501 11.45323490670393
309 4.823346681334508 11.8469635069974 9.582793770480208
310 7.330487034931727 10.67228517431061 7.545124312303057
311 7.919132832884177 11.39919070539856 11.93682971354965
312 15.61209985083313 6.433634525574356 24.60684461817246
313 14.0307953933418 5.708588490534133 18.94028483239362
314 9.339307148440964 14.13650664524314 22.0749488741189
315 3.960864082488056 15.71463235740219 25.61581891831974
316 5.139238769534657 13.88679517957055 19.13568543914917
317 19.25511363782096 8.059060967229692 35.23874339411167
318 22.41272744186747 9.459913522128161 43.44871419580842
319 7.942752419372724 19.39274671122935 37.4272544417895
320 12.54956011037996 21.99171701188933 44.42679299908481
321 33.58643919894745 14.29584061061377 68.41722812715437
322 28.63179347095214 12.16316741428322 57.82241354542973
323 19.70813352065553 27.01251102006819 55.91136486031083
324 13.35941253008842 29.64971140786717 63.06110709703394
325 22.49113309940971 32.69318829188359 68.49331139139538
326 46.24393711835482 14.16855110428441 89.37261591256072
327 47.98966133476833 29.53161399842048 98.01752784214403
328 41.28298465507856 25.78349656462753 86.31192263589126
329 32.73062552985176 46.86721467213054 95.0483199461809
330 16.49356535960518 44.15858272994667 92.68550019636859
331 70.15923014575434 14.84243047940742 120.3553371692819
332 68.070187273904 30.8001384817422 121.8399359470176
333 63.90229143420956 44.27243391451614 120.5853516408022
334 21.96148985989618 67.08961161570775 125.9942554960143
335 42.66168464408287 64.51955096416646 120.6239846813462
336 57.77940342625033 72.09732958443863 129.0295264642732
337 93.05969837424641 47.40897565224262 145.7425619308233
338 101.0921008939885 68.55827772803764 152.6640319563337
339 109.1769500122189 43.57059218673649 155.4569875362655
340 102.4496684906493 21.94834262995682 149.0780768818473
341 35.8902566492369 94.54091886635905 151.1553566597746
342 54.07015687724094 92.80614506368471 148.9420054053542
343 71.60841917438304 98.14433510765561 152.3211829012388
344 90.25448777879205 104.0387432517947 156.2511692220728
345 17.03515706007006 95.37331368895684 152.6739825359956
346 155.3618123760786 20.82794059025176 176.7141146287567
347 147.1469125504827 105.5577357827959 176.0125341739416
348 142.2460125594149 74.82811741788888 173.0787672161438
349 131.4350386107833 96.51682626374328 169.6671391340704
350 139.8401024156026 20.51231056313703 170.0721977020482
351 146.4012666755345 48.97023661556308 173.8765892426357
352 112.4152391749047 131.9690832832379 172.3430918033373
353 127.3484757100307 139.7855722561305 175.9814310466539
354 92.80676867693835 133.5783501645294 173.4894769475
355 69.44426814725162 132.6692786194815 173.5362637349321
356 48.03574653853853 134.1637421280979 174.7297184499291
357 25.75531964762148 130.9126705302339 173.6413542627316
358 189.7657326512947 47.21443883309978 189.2005549736355
359 189.0509652342556 75.68216067057206 189.3062895141142
360 188.4745639319669 109.2387297357336 189.512452616505
361 185.5266850899554 140.2685805015297 189.0895172527238
362 190.3692408743757 17.39260370442705 189.037199547884
363 95.54136768030595 169.7194182018898 188.6063879269402
364 120.464619374625 172.739967134228 189.3688052375392
365 47.43028897366082 170.5465930081995 189.4007106689631
366 69.82705384920533 171.3256235738461 189.4206581923912
367 151.5613448326224 174.3013166192513 189.6300297295942
368 21.8039846934299 172.6232546066418 190.3489524901012
369 228.9753143960617 79.35665813807577 199.4363317900614
370 229.4521795466115 49.03750363155096 199.4505659831724
371 229.9843560132066 18.58658489976672 199.4716095371809
372 228.410756728502 117.7116058663937 199.4335485074429
373 227.7030577929838 148.3787656535207 199.3997822097219
374 225.0356671267233 177.1818783568255 199.0238904046325
375 194.8859706516486 206.8502322434608 199.137376619079
376 47.2504003409901 205.6242266055161 199.4551729030522
377 19.36209745102105 205.0838375997873 199.4540294006689
378 102.7611606441494 206.7365225615176 199.4606588995704
379 75.43147288658824 206.1893902014424 199.4577934894605
380 168.3925213031376 207.6992687031091 199.4112808736045
381 147.5773984901047 121.895036351368 206.644
382 78.47930334121354 162.510056133411 206.644
383 78.39344218078512 81.11973930995909 206.644
384 197.3633376292971 165.5432034360508 206.644
385 200.3486402668327 67.13898502013285 206.644
386 136.0509802447446 184.1035184243562 206.644
387 138.2360699758542 59.27633078771842 206.644
388 227.1526518372025 203.1486424773214 206.644
389 215.7976090558402 122.8761430766598 206.644
390 49.00823697889774 121.7682994356801 206.644
391 99.78150463673077 120.3647254361413 206.644
392 46.0125158648532 199.0156880850894 206.644
393 45.96416373737728 44.69422793006873 206.644
394 226.5968500902643 44.49319570547401 206.644
395 100.5403130974756 201.2565880930998 206.644
396 101.2177446095695 42.0766592663003 206.644
397 186.1058214024277 217.5443596046701 206.644
398 172.8866198772137 40.92947047971517 206.644
399 234.7730274200927 168.510969533406 206.644
400 239.6030323858941 74.7806493568873 206.644
401 39.99261162077301 159.2242452821454 206.644
402 39.86747531663219 84.30201335220757 206.644
403 182.2694562564448 106.0152130182714 206.644
404 164.0802045237814 154.8343250795298 206.644
405 248.1472857815079 211.7576986316128 206.644
406 129.5625971270716 151.1065116514805 206.644
407 123.9505967084703 94.41806404557222 206.644
408 154.4591412951917 212.5800619003694 206.644
409 168.661104203864 73.92992410753038 206.644
410 192.7782595419181 141.4415858663819 206.644
411 241.8696542708621 139.0814658073397 206.644
412 126.1979627145549 24.63573118596712 206.644
413 217.6477977173814 224.9749532485484 206.644
414 241.7858351172883 109.1862221625776 206.644
415 72.46308736192205 215.1457219339317 206.644
416 172.3822369588037 187.2805552805489 206.644
417 72.58983399947986 28.53226397738361 206.644
418 201.5252846850597 30.03471511026588 206.644
419 125.2790610756235 217.0570834160978 206.644
420 236.1067323806214 223.6491374065987 206.644
421 103.5975060939405 172.5744381875578 206.644
422 104.4349211395645 71.07489065966116 206.644
423 73.25835052122906 136.3997036623071 206.644
424 246.8377114859239 188.1596351678611 206.644
425 73.78918928386373 107.2433246227522 206.644
426 214.030554332618 95.1390979569605 206.644
427 25.07707712862404 218.5199935593077 206.644
428 25.05385353509806 25.15155703725464 206.644
429 217.4185255980955 148.4830430870677 206.644
430 22.66553497461574 121.7717275127825 206.644
431 152.3076773857703 22.97094306782246 206.644
432 21.04659543252674 191.3706036311029 206.644
433 21.02111681566058 52.18854170624769 206.644
434 246.6793947259328 23.85913633611386 206.644
435 151.4034421315267 92.58768725344123 206.644
436 70.69737428001638 187.2045630924017 206.644
437 100.5956357086734 145.463765465035 206.644
438 96.0699307898829 94.8441488148172 206.644
439 69.72222310483986 55.69225893057111 206.644
440 171.6049778328843 129.4043188076348 206.644
441 251.2544113400337 47.78546638044526 206.644
442 50.45342447009213 225.16979996423 206.644
443 50.144924202283 18.95698720910788 206.644
444 205.348656570037 193.6302523821977 206.644
445 222.9852559002894 19.67740943037075 206.644
446 122.9803395897343 125.7622890438956 206.644
447 5.230705903235334 5.268910166238792 0
448 277.2516487694829 13.38313808854496 204.4489271401482
449 277.2517458296809 230.6168130380809 204.4488493951559
450 281 85.45053931993954 121.9531357863002
451 281 161.0332552689551 121.644
452 281 123.2166276342958 93.66811428571003
453 281 124.2918214560919 151.752267303168
454 281 45.13377609471305 150.8064693803659
455 281 46.00841944605241 89.07164019248475
456 281 199.5252485010879 151.3377613846454
457 281 198.575095515213 88.68674287413879
458 281 85.39999999963642 83.15173333334612
459 281 85.39999999963642 160.136266666654
460 281 159.7517554561096 83.68612019304487
461 281 160.1110875901197 160.5257155826033
462 281 212.0105457140061 121.644
463 281 32.08162021759037 122.6205788137147
464 281 112.8067115640428 117.4695475758951
465 281 27.62006802321545 169.0940136093553
466 281 27.62006802321547 74.19398639064477
467 281 216.8532684838003 169.5559900401771
468 281 216.8532684838002 73.7320099598229
469 281 62.90128711116132 172.4852748026006
470 281 61.34788500323937 70.89702856903817
471 281 58.58141114926234 124.9274345843473
472 281 107.8267435253769 71.87787341261131
473 281 107.4303508285253 171.2889446238711
474 281 181.7944563957312 172.826097387475
475 281 183.4204412306104 70.53904945045107
476 281 137.2881810986287 71.38635891669119
477 281 137.7839602098796 171.0753779868746
478 281 186.5219004914807 126.7525034029613
479 281 138.9929804310308 114.8695964440193
480 281 70.17914257736203 102.3978666666731
481 281 146.5143605703954 141.9746155993761
482 281 101.9662490784684 142.8283620362054
483 281 99.41403586278528 100.7090388037369
484 281 176.9959843221312 101.3283111314833
485 281 22.27639562229634 144.499858217687
486 281 23.58191687334483 100.0037217795451
487 281 221.5510074812938 144.0984625031062
488 281 220.4933126711399 99.70305382104443
489 281 69.10203210291056 144.7321549688848
490 281 176.512847886942 145.8896582622896
491 281 158.8426269147291 63.21653859763713
492 281 158.5999999995537 180.2697184105274
493 281 85.39999999963641 62.85939445259373
494 281 85.36586282328172 180.0682162147601
495 281 143.2221410761709 94.16612293599957
496 281 43.71206374692576 178.6391457123059
497 281 43.7120637469258 64.64885428769412
498 281 200.8853927026641 178.9902548231228
499 281 200.8853927026641 64.29774517687717
500 281 198.9193677427942 107.6229222459256
501 281 124.9144246200059 133.7788777917328
502 281 46.33292245751346 109.7162150942718
503 281 156.4952673933842 103.4620709560534
504 281 13.88193596510617 180.069035727231
505 281 13.88193596510619 63.21896427276903
506 281 229.5535294942393 181.9514447864181
507 281 229.5535294942393 61.336555213582
508 281 12.77370004738478 159.1439999999625
509 281 12.77370004738478 84.14400000003747
510 281 231.3077801613314 159.1439999999625
511 281 231.3077801613313 84.14400000003747
512 279.2960200002823 230.5981865515767 41.06044807000822
513 279.2470833989551 13.4401626883124 40.98841732350428
514 135.5000000005627 122 36.644
515 75.64848149407673 168.331234475712 36.644
516 195.3515185062811 75.66876552390791 36.644
517 76.49061345849056 77.49148734308341 36.644
518 194.5464606140912 166.5182909783804 36.644
519 137.0518375142908 57.23671918772831 36.644
520 134.1916496826279 186.7652998730378 36.644
521 220.0294276473261 121.070792787323 36.644
522 50.97057235261479 122.929207212668 36.644
523 40.43947153866031 199.6838720645428 36.644
524 230.5868914152708 44.29490579162159 36.644
525 40.43947153857783 44.31612793560451 36.644
526 230.5868914153355 199.7050942082588 36.644
527 92.11266104855295 129.5008891679911 36.644
528 178.9066169978683 114.4723275203635 36.644
529 97.3434509007398 202.4321897559533 36.644
530 97.17294810171407 40.40582954041705 36.644
531 173.8452098443928 41.51926689133734 36.644
532 173.5188879972311 203.3714465654019 36.644
533 37.61807979402992 158.6031061045937 36.644
534 233.3819202060592 85.39689389551509 36.644
535 233.2001404616245 158.9637411009432 36.644
536 37.79985953832836 85.03625889914014 36.644
537 109.4542639720413 91.48507582943144 36.644
538 161.5652237599679 152.4653678146192 36.644
539 109.5172806948767 160.8066020493328 36.644
540 161.6147668343819 83.25561242367118 36.644
541 135.5000000005626 28.94167663106897 36.644
542 135.5000000005627 215.058323368932 36.644
543 72.04910226726548 213.8761187074438 36.644
544 72.04170505433378 30.07346910739023 36.644
545 199.0811701693852 30.04536084675484 36.644
546 199.0670127936796 213.9932824900667 36.644
547 195.7393707256648 144.6582374502375 36.644
548 75.268971352178 99.34186920222047 36.644
549 245.1198500954739 110.1084541548111 36.644
550 25.88014990451431 133.8915458453429 36.644
551 69.65697810640773 142.3743410637912 36.644
552 201.3586478956352 101.6189753271453 36.644
553 246.6635749379572 62.07758488802854 36.644
554 246.6635749379579 181.9224151116899 36.644
555 24.33642506205059 181.9224151120529 36.644
556 24.33642506204166 62.07758488829582 36.644
557 136.519438587407 95.48324571375822 36.644
558 134.5606885976801 148.5012136614908 36.644
559 172.142725721702 176.916767885466 36.644
560 98.90084065094125 67.04311429360789 36.644
561 25.87651960562322 218.1103221296556 36.644
562 245.1234803944991 25.88967787021294 36.644
563 245.1234803944944 218.1103221297953 36.644
564 25.87651960562945 25.88967787033335 36.644
565 245.1706786514829 137.1923032538847 36.644
566 25.82932134847417 106.8076967462122 36.644
567 54.12820297107238 64.20605248969864 36.644
568 216.9253586101062 179.8274107377962 36.644
569 217.1900260119422 64.28035979785261 36.644
570 53.85823927323288 179.6875738777485 36.644
571 159.7956042998927 21.88867568444025 36.644
572 159.6142071378723 221.7934860101011 36.644
573 111.2613763059146 222.1107733874954 36.644
574 111.3919569918874 22.19433838045798 36.644
575 112.5686877676281 115.0658679437677 36.644
576 158.4149520655426 128.8476697874175 36.644
577 195.4611233177569 53.69840413006871 36.644
578 194.2291024170362 189.9165672939958 36.644
579 75.65865740904525 190.2147833764504 36.644
580 76.77339078214186 54.0849846126028 36.644
581 157.7067578848186 61.01057063197621 36.644
582 113.4806257237804 182.9676166252876 36.644
583 216.4427453903145 143.3927785356785 36.644
584 54.55761652804281 100.6072260914832 36.644
585 49.78889795526462 221.5600821827832 36.644
586 49.78889795524748 22.43991781722777 36.644
587 221.3523476349521 22.42381181795316 36.644
588 221.3523476349638 221.5761881820385 36.644
589 112.3216298808953 137.8890871871475 36.644
590 90.89332684197475 152.1737250014401 36.644
591 180.4534877719605 18.69066068450649 36.644
592 180.3491124949829 225.4316430131139 36.644
593 158.7292362128198 106.0964838655814 36.644
594 90.62169498585273 225.2838163701785 36.644
595 90.61223112065582 18.53472740565305 36.644
596 180.1923958786726 91.8007241937255 36.644
597 152.5918852026008 197.5758521814347 36.644
598 117.7315996668635 47.14713280950093 36.644
599 17.16154497972598 158.4588843944163 36.644
600 253.8384550202949 85.54111560570227 36.644
601 253.9495610603017 158.7660684738873 36.644
602 17.05043893966076 85.23393152617538 36.644
603 91.07074535654462 88.69727367998453 36.644
604 179.9463611237212 155.2854120270116 36.644
605 49.16243869864988 142.6090506784463 36.644
606 221.8387002230809 101.3904621781931 36.644
607 152.7798819087915 42.11938180531021 36.644
608 118.3554205227251 201.8668406021412 36.644
609 93.30551112722731 177.7056252351754 36.644
610 123.8867903495839 72.64536895943789 36.644
611 147.0923102286306 171.466650315287 36.644
612 177.8467003391868 66.3785708768966 36.644
613 252.4302480468183 43.7054398997046 36.644
614 252.4302480467718 200.2945601001555 36.644
615 18.56975195314462 200.294560100297 36.644
616 18.56975195319351 43.70543989987398 36.644
617 212.9721508977798 85.3852285574077 36.644
618 58.03448483804617 158.6107676592299 36.644
619 199.0952855316187 123.8372283252825 36.644
620 71.90647213746178 120.1593585875983 36.644
621 127.7685109855191 170.1014765048872 36.644
622 143.3559182340965 73.92630338331435 36.644
623 177.3740504282434 136.2387928504707 36.644
624 93.61893339838961 107.7422880599397 36.644
625 59.37234819372787 200.3489314866033 36.644
626 58.63433366027466 43.0241103925048 36.644
627 211.7171280114432 43.57120459577865 36.644
628 212.4321425742243 201.0037085824312 36.644
629 257.3915227154803 13.50279460269992 36.644
630 257.3915227155717 230.4972053972974 36.644
631 13.60847728465867 230.497205397225 36.644
632 13.60847728453643 13.50279460277857 36.644
633 211.3273835615146 159.3712790948344 36.644
634 59.68680781713455 84.63491416647747 36.644
635 257.4771262782423 249.741010064899 204.8318448589801
636 13.52287368847466 249.7410100465702 204.8318448718315
637 279.2080224455855 249.7121246076015 60.37529520582424
638 279.2080224888108 249.7121245454887 182.9127055272379
639 13.52287370782432 252.187844552685 40.90298949826196
640 257.4771263712381 249.7410106199781 38.45615553022051
641 84.07468117879525 254 121.9733211256092
642 184.7727272730659 254 121.6439999999501
643 135.4999999998833 254 141.4578927560693
644 135.5000000005627 254 94.52758903267573
645 48.02910459548426 254 149.0776369876032
646 225.5712844968019 254 92.66636880245248
647 222.8545024715237 254 153.0768397288185
648 46.26796136620306 254 89.19504477980556
649 96.86785107227351 254 157.4841327804533
650 170.9776293778724 254 160.1092539322125
651 183.3233205042165 254 84.618279328673
652 87.97830810275724 254 85.30951453990795
653 238.7864193464165 254 120.3207628738146
654 32.37152459747807 254 122.8734571085826
655 115.0622751984712 254 119.2146110825437
656 156.0322386812462 254 119.2254254085342
657 71.88841866153682 254 166.4659664707717
658 197.9352255372861 254 165.1718015073962
659 110.415798780751 254 71.34436414582181
660 160.6272910210115 254 71.24561625855193
661 135.4999999994716 254 171.8346368797861
662 243.2297720312869 254 74.3712891156144
663 27.77022796871791 254 168.9167108843934
664 243.2297720312787 254 168.916710884366
665 27.77278290864619 254 74.24264976227153
666 59.16762970250809 254 124.7445063612469
667 212.4070329653562 254 117.8323111232261
668 207.9344294903528 254 71.02880900453032
669 61.84880277805279 254 71.03891685428289
670 203.7755533574775 254 138.2875579386879
671 67.8052738894349 254 101.1042383566723
672 163.6843028297838 254 94.52103674575312
673 107.5681583090231 254 94.81138744484953
674 75.72216925075017 254 143.1710272474058
675 22.00076313578249 254 144.5486435858467
676 247.0948780975692 254 143.0324010106326
677 248.6190410078005 254 98.68987752705101
678 23.65983086265146 254 100.0786654376249
679 135.5000000004308 254 66.00206326183056
680 158.2962481413383 254 176.3579399518436
681 111.5422893625092 254 176.3434523754343
682 201.2360726428264 254 98.91338144412133
683 49.72946432395999 254 174.0885671724957
684 221.2705356760739 254 174.0885671725133
685 113.6222614215239 254 141.0584740272458
686 157.6599446499584 254 141.8262912603741
687 179.8249260863854 254 178.4470488651572
688 90.55062091003882 254 178.7163103253319
689 184.425135729692 254 63.68551516699657
690 86.34105490540846 254 63.3144931790423
691 178.5255531461511 254 141.0440550078591
692 94.30533029390325 254 139.2805997587505
693 135.5236284700408 254 118.6063795699557
694 151.5867644337048 254 158.3172029560571
695 118.6064803711323 254 157.6357177637978
696 44.03488077686533 254 64.78328603982486
697 226.9651192234411 254 64.78328603965143
698 179.275141402129 254 103.5569529039562
699 92.49773933569632 254 104.4826145099166
700 257.0059625482279 254 63.26207659786031
701 13.99403745176064 254 180.0259234021237
702 257.0059625482108 254 180.0259234021479
703 13.99429815994516 254 63.24895013322352
704 12.78142231767675 254 159.9800723590044
705 258.2085774689215 254 159.1439999999625
706 258.2085774689191 254 84.14400000003748
707 12.79142253107855 254 84.14400000003748
708 224.7883457132241 254 133.0261471321341
709 46.01463852694063 254 108.8015606955776
$EndNodes
$Elements
1327
1 2 2 1 1 59 304 303
2 2 2 1 1 303 304 57
3 2 2 1 1 303 1 4
4 2 2 1 1 59 303 4
5 2 2 1 1 304 5 2
6 2 2 1 1 1 303 57
7 2 2 1 1 57 304 2
8 2 2 1 1 5 304 59
9 2 2 1 2 2 305 58
10 2 2 1 2 6 3 58
11 2 2 1 2 60 305 5
12 2 2 1 2 6 58 60
13 2 2 1 2 305 2 5
14 2 2 1 2 305 60 58
15 2 2 1 3 63 5 306
16 2 2 1 3 306 5 59
17 2 2 1 3 307 7 61
18 2 2 1 3 307 308 306
19 2 2 1 3 308 307 61
20 2 2 1 3 64 7 307
21 2 2 1 3 63 306 308
22 2 2 1 3 64 307 4
23 2 2 1 3 8 308 61
24 2 2 1 3 307 306 59
25 2 2 1 3 307 59 4
26 2 2 1 3 308 8 63
27 2 2 1 4 65 309 9
28 2 2 1 4 309 62 9
29 2 2 1 4 310 309 60
30 2 2 1 4 310 63 309
31 2 2 1 4 62 309 311
32 2 2 1 4 309 63 311
33 2 2 1 4 309 65 6
34 2 2 1 4 60 309 6
35 2 2 1 4 311 8 62
36 2 2 1 4 63 310 5
37 2 2 1 4 310 60 5
38 2 2 1 4 8 311 63
39 2 2 1 5 68 313 312
40 2 2 1 5 313 68 8
41 2 2 1 5 69 313 7
42 2 2 1 5 61 313 8
43 2 2 1 5 69 10 312
44 2 2 1 5 312 10 66
45 2 2 1 5 313 69 312
46 2 2 1 5 313 61 7
47 2 2 1 5 68 312 11
48 2 2 1 5 11 312 66
49 2 2 1 6 67 315 314
50 2 2 1 6 11 314 68
51 2 2 1 6 314 11 67
52 2 2 1 6 8 68 314
53 2 2 1 6 70 9 316
54 2 2 1 6 316 9 62
55 2 2 1 6 8 314 62
56 2 2 1 6 62 314 316
57 2 2 1 6 316 314 315
58 2 2 1 6 70 316 315
59 2 2 1 6 70 315 12
60 2 2 1 6 315 67 12
61 2 2 1 7 74 318 317
62 2 2 1 7 74 317 10
63 2 2 1 7 317 66 10
64 2 2 1 7 73 11 317
65 2 2 1 7 73 317 318
66 2 2 1 7 317 11 66
67 2 2 1 7 14 318 71
68 2 2 1 7 73 318 14
69 2 2 1 7 13 318 74
70 2 2 1 7 318 13 71
71 2 2 1 8 319 320 15
72 2 2 1 8 15 320 72
73 2 2 1 8 11 73 319
74 2 2 1 8 75 12 319
75 2 2 1 8 319 12 67
76 2 2 1 8 11 319 67
77 2 2 1 8 75 319 15
78 2 2 1 8 319 73 320
79 2 2 1 8 320 14 72
80 2 2 1 8 14 320 73
81 2 2 1 9 17 79 321
82 2 2 1 9 17 321 76
83 2 2 1 9 80 321 322
84 2 2 1 9 80 322 13
85 2 2 1 9 322 14 71
86 2 2 1 9 80 16 321
87 2 2 1 9 321 16 76
88 2 2 1 9 322 71 13
89 2 2 1 9 322 321 79
90 2 2 1 9 79 14 322
91 2 2 1 10 323 14 79
92 2 2 1 10 323 324 72
93 2 2 1 10 81 324 18
94 2 2 1 10 324 78 18
95 2 2 1 10 81 15 72
96 2 2 1 10 324 325 78
97 2 2 1 10 324 79 325
98 2 2 1 10 77 78 325
99 2 2 1 10 17 325 79
100 2 2 1 10 325 17 77
101 2 2 1 10 324 81 72
102 2 2 1 10 14 323 72
103 2 2 1 10 324 323 79
104 2 2 1 11 87 19 82
105 2 2 1 11 326 82 327
106 2 2 1 11 328 17 76
107 2 2 1 11 20 86 327
108 2 2 1 11 20 327 83
109 2 2 1 11 327 82 83
110 2 2 1 11 87 326 16
111 2 2 1 11 326 76 16
112 2 2 1 11 326 87 82
113 2 2 1 11 328 76 326
114 2 2 1 11 327 328 326
115 2 2 1 11 328 327 86
116 2 2 1 11 86 17 328
117 2 2 1 12 85 329 84
118 2 2 1 12 77 17 86
119 2 2 1 12 20 329 86
120 2 2 1 12 329 20 84
121 2 2 1 12 88 18 78
122 2 2 1 12 329 77 86
123 2 2 1 12 330 329 85
124 2 2 1 12 329 330 77
125 2 2 1 12 330 21 88
126 2 2 1 12 330 85 21
127 2 2 1 12 77 330 78
128 2 2 1 12 330 88 78
129 2 2 1 13 89 332 331
130 2 2 1 13 95 22 89
131 2 2 1 13 89 331 95
132 2 2 1 13 90 23 94
133 2 2 1 13 333 94 20
134 2 2 1 13 333 20 83
135 2 2 1 13 94 333 90
136 2 2 1 13 333 332 90
137 2 2 1 13 90 332 89
138 2 2 1 13 332 333 83
139 2 2 1 13 82 331 332
140 2 2 1 13 332 83 82
141 2 2 1 13 331 82 19
142 2 2 1 13 95 331 19
143 2 2 1 14 85 335 334
144 2 2 1 14 85 334 96
145 2 2 1 14 84 20 94
146 2 2 1 14 335 85 84
147 2 2 1 14 96 21 85
148 2 2 1 14 92 336 91
149 2 2 1 14 93 334 92
150 2 2 1 14 335 92 334
151 2 2 1 14 92 335 336
152 2 2 1 14 96 334 24
153 2 2 1 14 334 93 24
154 2 2 1 14 23 336 94
155 2 2 1 14 336 23 91
156 2 2 1 14 335 84 94
157 2 2 1 14 336 335 94
158 2 2 1 15 105 25 97
159 2 2 1 15 337 338 23
160 2 2 1 15 99 26 104
161 2 2 1 15 23 338 104
162 2 2 1 15 339 337 340
163 2 2 1 15 89 340 337
164 2 2 1 15 337 90 89
165 2 2 1 15 337 339 338
166 2 2 1 15 337 23 90
167 2 2 1 15 105 340 22
168 2 2 1 15 340 89 22
169 2 2 1 15 338 339 98
170 2 2 1 15 104 338 99
171 2 2 1 15 338 98 99
172 2 2 1 15 339 340 97
173 2 2 1 15 340 105 97
174 2 2 1 15 97 98 339
175 2 2 1 16 341 342 102
176 2 2 1 16 91 23 104
177 2 2 1 16 106 24 93
178 2 2 1 16 102 342 343
179 2 2 1 16 344 101 343
180 2 2 1 16 343 101 102
181 2 2 1 16 341 93 92
182 2 2 1 16 341 92 342
183 2 2 1 16 343 104 344
184 2 2 1 16 343 91 104
185 2 2 1 16 343 342 91
186 2 2 1 16 106 345 27
187 2 2 1 16 345 103 27
188 2 2 1 16 103 341 102
189 2 2 1 16 26 344 104
190 2 2 1 16 344 26 100
191 2 2 1 16 341 345 93
192 2 2 1 16 93 345 106
193 2 2 1 16 345 341 103
194 2 2 1 16 344 100 101
195 2 2 1 16 91 342 92
196 2 2 1 17 118 28 346
197 2 2 1 17 346 28 107
198 2 2 1 17 347 349 348
199 2 2 1 17 116 347 117
200 2 2 1 17 346 350 118
201 2 2 1 17 29 117 110
202 2 2 1 17 116 349 347
203 2 2 1 17 99 98 348
204 2 2 1 17 348 98 351
205 2 2 1 17 349 99 348
206 2 2 1 17 109 348 108
207 2 2 1 17 347 348 109
208 2 2 1 17 117 347 110
209 2 2 1 17 351 108 348
210 2 2 1 17 350 346 351
211 2 2 1 17 98 97 351
212 2 2 1 17 349 26 99
213 2 2 1 17 350 351 97
214 2 2 1 17 107 351 346
215 2 2 1 17 108 351 107
216 2 2 1 17 110 347 109
217 2 2 1 17 118 350 25
218 2 2 1 17 350 97 25
219 2 2 1 17 349 116 26
220 2 2 1 18 352 116 353
221 2 2 1 18 353 116 117
222 2 2 1 18 29 111 117
223 2 2 1 18 354 113 355
224 2 2 1 18 355 113 114
225 2 2 1 18 101 355 102
226 2 2 1 18 356 102 355
227 2 2 1 18 356 355 114
228 2 2 1 18 352 112 354
229 2 2 1 18 26 116 100
230 2 2 1 18 352 353 112
231 2 2 1 18 357 30 119
232 2 2 1 18 30 357 115
233 2 2 1 18 27 103 119
234 2 2 1 18 355 101 354
235 2 2 1 18 112 353 111
236 2 2 1 18 353 117 111
237 2 2 1 18 100 352 354
238 2 2 1 18 357 102 356
239 2 2 1 18 115 357 356
240 2 2 1 18 102 357 103
241 2 2 1 18 354 101 100
242 2 2 1 18 113 354 112
243 2 2 1 18 357 119 103
244 2 2 1 18 115 356 114
245 2 2 1 18 116 352 100
246 2 2 1 19 32 131 124
247 2 2 1 19 358 121 359
248 2 2 1 19 358 359 108
249 2 2 1 19 360 110 109
250 2 2 1 19 361 110 360
251 2 2 1 19 29 361 131
252 2 2 1 19 362 132 31
253 2 2 1 19 362 120 358
254 2 2 1 19 120 362 31
255 2 2 1 19 29 110 361
256 2 2 1 19 131 361 124
257 2 2 1 19 359 109 108
258 2 2 1 19 358 120 121
259 2 2 1 19 360 109 359
260 2 2 1 19 123 124 361
261 2 2 1 19 123 360 122
262 2 2 1 19 123 361 360
263 2 2 1 19 132 362 28
264 2 2 1 19 362 107 28
265 2 2 1 19 358 108 107
266 2 2 1 19 107 362 358
267 2 2 1 19 359 122 360
268 2 2 1 19 122 359 121
269 2 2 1 20 363 112 364
270 2 2 1 20 365 114 366
271 2 2 1 20 125 131 32
272 2 2 1 20 113 366 114
273 2 2 1 20 367 29 131
274 2 2 1 20 30 115 133
275 2 2 1 20 365 115 114
276 2 2 1 20 365 368 115
277 2 2 1 20 368 365 130
278 2 2 1 20 363 128 366
279 2 2 1 20 364 128 363
280 2 2 1 20 366 128 129
281 2 2 1 20 366 129 365
282 2 2 1 20 130 365 129
283 2 2 1 20 364 127 128
284 2 2 1 20 363 366 113
285 2 2 1 20 364 112 111
286 2 2 1 20 367 364 111
287 2 2 1 20 367 131 125
288 2 2 1 20 111 29 367
289 2 2 1 20 133 368 33
290 2 2 1 20 368 130 33
291 2 2 1 20 127 364 367
292 2 2 1 20 126 127 367
293 2 2 1 20 368 133 115
294 2 2 1 20 126 367 125
295 2 2 1 20 112 363 113
296 2 2 1 21 369 370 135
297 2 2 1 21 134 370 371
298 2 2 1 21 121 370 369
299 2 2 1 21 121 369 122
300 2 2 1 21 137 372 136
301 2 2 1 21 147 139 35
302 2 2 1 21 137 373 372
303 2 2 1 21 371 370 120
304 2 2 1 21 122 136 372
305 2 2 1 21 136 369 135
306 2 2 1 21 122 369 136
307 2 2 1 21 137 138 373
308 2 2 1 21 373 138 374
309 2 2 1 21 124 373 374
310 2 2 1 21 135 370 134
311 2 2 1 21 147 374 139
312 2 2 1 21 374 138 139
313 2 2 1 21 120 370 121
314 2 2 1 21 147 32 374
315 2 2 1 21 123 122 372
316 2 2 1 21 371 120 31
317 2 2 1 21 148 371 31
318 2 2 1 21 372 373 123
319 2 2 1 21 373 124 123
320 2 2 1 21 371 148 34
321 2 2 1 21 134 371 34
322 2 2 1 21 374 32 124
323 2 2 1 22 32 147 375
324 2 2 1 22 140 147 35
325 2 2 1 22 32 375 125
326 2 2 1 22 376 146 377
327 2 2 1 22 376 377 130
328 2 2 1 22 144 379 378
329 2 2 1 22 378 379 128
330 2 2 1 22 375 141 380
331 2 2 1 22 375 380 125
332 2 2 1 22 145 376 379
333 2 2 1 22 379 376 129
334 2 2 1 22 378 127 143
335 2 2 1 22 144 378 143
336 2 2 1 22 127 378 128
337 2 2 1 22 380 142 126
338 2 2 1 22 142 380 141
339 2 2 1 22 125 380 126
340 2 2 1 22 33 377 36
341 2 2 1 22 377 146 36
342 2 2 1 22 377 33 130
343 2 2 1 22 145 379 144
344 2 2 1 22 128 379 129
345 2 2 1 22 146 376 145
346 2 2 1 22 129 376 130
347 2 2 1 22 126 143 127
348 2 2 1 22 142 143 126
349 2 2 1 22 140 375 147
350 2 2 1 22 375 140 141
351 2 2 1 23 136 135 151
352 2 2 1 23 154 155 139
353 2 2 1 23 139 155 35
354 2 2 1 23 153 154 138
355 2 2 1 23 35 155 38
356 2 2 1 23 137 153 138
357 2 2 1 23 152 153 137
358 2 2 1 23 151 152 136
359 2 2 1 23 151 135 150
360 2 2 1 23 149 34 37
361 2 2 1 23 134 34 149
362 2 2 1 23 150 135 134
363 2 2 1 23 138 154 139
364 2 2 1 23 136 152 137
365 2 2 1 23 149 150 134
366 2 2 1 24 161 144 160
367 2 2 1 24 162 39 146
368 2 2 1 24 35 38 140
369 2 2 1 24 162 146 145
370 2 2 1 24 160 143 159
371 2 2 1 24 162 145 161
372 2 2 1 24 159 142 158
373 2 2 1 24 141 157 158
374 2 2 1 24 140 156 157
375 2 2 1 24 146 39 36
376 2 2 1 24 143 142 159
377 2 2 1 24 161 145 144
378 2 2 1 24 158 142 141
379 2 2 1 24 140 38 156
380 2 2 1 24 140 157 141
381 2 2 1 24 160 144 143
382 2 2 4 25 394 385 400
383 2 2 4 25 401 382 423
384 2 2 4 25 385 394 418
385 2 2 4 25 165 398 418
386 2 2 4 25 167 396 412
387 2 2 4 25 383 402 425
388 2 2 4 25 155 154 405
389 2 2 4 25 160 395 415
390 2 2 4 25 396 167 417
391 2 2 4 25 404 381 406
392 2 2 4 25 386 404 406
393 2 2 4 25 388 399 444
394 2 2 4 25 382 401 436
395 2 2 4 25 402 383 439
396 2 2 4 25 390 401 423
397 2 2 4 25 398 385 418
398 2 2 4 25 164 165 418
399 2 2 4 25 173 174 401
400 2 2 4 25 387 398 431
401 2 2 4 25 171 172 402
402 2 2 4 25 402 390 425
403 2 2 4 25 158 157 397
404 2 2 4 25 151 150 400
405 2 2 4 25 153 399 424
406 2 2 4 25 401 392 436
407 2 2 4 25 393 402 439
408 2 2 4 25 385 398 409
409 2 2 4 25 399 388 424
410 2 2 4 25 154 153 424
411 2 2 4 25 395 160 419
412 2 2 4 25 398 387 409
413 2 2 4 25 386 395 419
414 2 2 4 25 173 401 430
415 2 2 4 25 402 172 430
416 2 2 4 25 158 397 408
417 2 2 4 25 412 387 431
418 2 2 4 25 413 388 444
419 2 2 4 25 396 387 412
420 2 2 4 25 166 167 412
421 2 2 4 25 395 386 421
422 2 2 4 25 157 156 413
423 2 2 4 25 387 396 422
424 2 2 4 25 38 155 405
425 2 2 4 25 167 168 417
426 2 2 4 25 161 160 415
427 2 2 4 25 389 403 410
428 2 2 4 25 401 390 430
429 2 2 4 25 390 402 430
430 2 2 4 25 397 157 413
431 2 2 4 25 399 384 444
432 2 2 4 25 398 165 431
433 2 2 4 25 399 153 411
434 2 2 4 25 397 413 444
435 2 2 4 25 395 421 436
436 2 2 4 25 400 150 441
437 2 2 4 25 422 396 439
438 2 2 4 25 394 400 441
439 2 2 4 25 403 385 409
440 2 2 4 25 151 400 414
441 2 2 4 25 159 158 408
442 2 2 4 25 421 382 436
443 2 2 4 25 383 422 439
444 2 2 4 25 384 404 416
445 2 2 4 25 403 389 426
446 2 2 4 25 392 401 432
447 2 2 4 25 402 393 433
448 2 2 4 25 404 384 410
449 2 2 4 25 385 403 426
450 2 2 4 25 171 402 433
451 2 2 4 25 401 174 432
452 2 2 4 25 384 416 444
453 2 2 4 25 153 152 411
454 2 2 4 25 381 403 435
455 2 2 4 25 403 381 440
456 2 2 4 25 416 397 444
457 2 2 4 25 160 159 419
458 2 2 4 25 387 407 435
459 2 2 4 25 404 386 416
460 2 2 4 25 400 385 426
461 2 2 4 25 39 162 427
462 2 2 4 25 175 39 427
463 2 2 4 25 408 386 419
464 2 2 4 25 169 40 428
465 2 2 4 25 40 170 428
466 2 2 4 25 386 406 421
467 2 2 4 25 381 404 440
468 2 2 4 25 407 387 422
469 2 2 4 25 409 387 435
470 2 2 4 25 384 399 429
471 2 2 4 25 152 151 414
472 2 2 4 25 159 408 419
473 2 2 4 25 410 403 440
474 2 2 4 25 37 163 434
475 2 2 4 25 149 37 434
476 2 2 4 25 414 400 426
477 2 2 4 25 411 152 414
478 2 2 4 25 405 154 424
479 2 2 4 25 408 397 416
480 2 2 4 25 386 408 416
481 2 2 4 25 405 388 420
482 2 2 4 25 38 405 420
483 2 2 4 25 406 381 446
484 2 2 4 25 381 407 446
485 2 2 4 25 407 391 446
486 2 2 4 25 389 414 426
487 2 2 4 25 403 409 435
488 2 2 4 25 407 381 435
489 2 2 4 25 391 407 438
490 2 2 4 25 389 411 414
491 2 2 4 25 413 156 420
492 2 2 4 25 388 413 420
493 2 2 4 25 415 395 436
494 2 2 4 25 165 166 431
495 2 2 4 25 396 417 439
496 2 2 4 25 156 38 420
497 2 2 4 25 388 405 424
498 2 2 4 25 172 173 430
499 2 2 4 25 410 384 429
500 2 2 4 25 174 175 432
501 2 2 4 25 170 171 433
502 2 2 4 25 163 164 445
503 2 2 4 25 168 169 443
504 2 2 4 25 162 161 442
505 2 2 4 25 150 149 441
506 2 2 4 25 389 410 429
507 2 2 4 25 166 412 431
508 2 2 4 25 437 406 446
509 2 2 4 25 423 391 425
510 2 2 4 25 391 437 446
511 2 2 4 25 411 389 429
512 2 2 4 25 399 411 429
513 2 2 4 25 404 410 440
514 2 2 4 25 390 423 425
515 2 2 4 25 415 392 442
516 2 2 4 25 393 417 443
517 2 2 4 25 425 391 438
518 2 2 4 25 164 418 445
519 2 2 4 25 392 415 436
520 2 2 4 25 417 168 443
521 2 2 4 25 417 393 439
522 2 2 4 25 161 415 442
523 2 2 4 25 421 406 437
524 2 2 4 25 407 422 438
525 2 2 4 25 382 421 437
526 2 2 4 25 422 383 438
527 2 2 4 25 391 423 437
528 2 2 4 25 418 394 445
529 2 2 4 25 423 382 437
530 2 2 4 25 383 425 438
531 2 2 4 25 392 427 442
532 2 2 4 25 427 392 432
533 2 2 4 25 393 428 433
534 2 2 4 25 175 427 432
535 2 2 4 25 428 170 433
536 2 2 4 25 428 393 443
537 2 2 4 25 427 162 442
538 2 2 4 25 149 434 441
539 2 2 4 25 169 428 443
540 2 2 4 25 434 394 441
541 2 2 4 25 394 434 445
542 2 2 4 25 434 163 445
543 2 2 2 26 57 176 1
544 2 2 2 26 58 3 177
545 2 2 2 26 176 57 447
546 2 2 2 26 57 2 447
547 2 2 2 26 41 176 447
548 2 2 2 26 177 41 447
549 2 2 2 26 58 177 447
550 2 2 2 26 2 58 447
551 2 2 3 27 267 149 37
552 2 2 3 27 220 38 51
553 2 2 3 27 220 156 38
554 2 2 3 27 211 39 162
555 2 2 3 27 155 275 51
556 2 2 3 27 268 150 149
557 2 2 3 27 268 149 267
558 2 2 3 27 151 150 269
559 2 2 3 27 269 150 268
560 2 2 3 27 152 151 271
561 2 2 3 27 151 269 270
562 2 2 3 27 151 270 271
563 2 2 3 27 272 153 152
564 2 2 3 27 272 152 271
565 2 2 3 27 273 154 153
566 2 2 3 27 272 273 153
567 2 2 3 27 274 155 154
568 2 2 3 27 274 154 273
569 2 2 3 27 274 275 155
570 2 2 3 27 219 157 156
571 2 2 3 27 156 220 219
572 2 2 3 27 217 158 157
573 2 2 3 27 218 217 157
574 2 2 3 27 157 219 218
575 2 2 3 27 216 159 158
576 2 2 3 27 158 217 216
577 2 2 3 27 215 160 159
578 2 2 3 27 159 216 215
579 2 2 3 27 213 161 160
580 2 2 3 27 213 160 214
581 2 2 3 27 160 215 214
582 2 2 3 27 212 162 161
583 2 2 3 27 161 213 212
584 2 2 3 27 162 212 211
585 2 2 3 27 267 37 43
586 2 2 3 27 38 155 51
587 2 2 3 27 47 39 211
588 2 2 3 28 279 270 278
589 2 2 3 28 278 270 269
590 2 2 3 28 271 280 281
591 2 2 3 28 271 281 272
592 2 2 3 28 276 448 44
593 2 2 3 28 448 178 44
594 2 2 3 28 449 284 52
595 2 2 3 28 221 449 52
596 2 2 3 28 270 280 271
597 2 2 3 28 279 280 270
598 2 2 3 28 281 282 272
599 2 2 3 28 273 272 282
600 2 2 3 28 275 449 51
601 2 2 3 28 449 275 284
602 2 2 3 28 449 221 51
603 2 2 3 28 448 267 43
604 2 2 3 28 267 448 276
605 2 2 3 28 178 448 43
606 2 2 3 28 282 283 274
607 2 2 3 28 282 274 273
608 2 2 3 28 275 274 284
609 2 2 3 28 283 284 274
610 2 2 3 28 276 277 267
611 2 2 3 28 277 278 269
612 2 2 3 28 268 267 277
613 2 2 3 28 269 268 277
614 2 2 3 29 463 181 486
615 2 2 3 29 181 463 485
616 2 2 3 29 224 462 488
617 2 2 3 29 462 224 487
618 2 2 3 29 477 453 481
619 2 2 3 29 461 477 481
620 2 2 3 29 470 458 480
621 2 2 3 29 455 470 480
622 2 2 3 29 460 475 484
623 2 2 3 29 454 463 471
624 2 2 3 29 450 482 489
625 2 2 3 29 458 472 483
626 2 2 3 29 473 459 482
627 2 2 3 29 453 473 482
628 2 2 3 29 472 452 483
629 2 2 3 29 475 457 484
630 2 2 3 29 481 451 490
631 2 2 3 29 462 456 478
632 2 2 3 29 180 181 485
633 2 2 3 29 181 182 486
634 2 2 3 29 280 473 477
635 2 2 3 29 472 289 476
636 2 2 3 29 225 224 488
637 2 2 3 29 224 223 487
638 2 2 3 29 456 462 487
639 2 2 3 29 482 459 489
640 2 2 3 29 463 454 485
641 2 2 3 29 461 481 490
642 2 2 3 29 450 480 483
643 2 2 3 29 480 458 483
644 2 2 3 29 473 453 477
645 2 2 3 29 452 472 476
646 2 2 3 29 281 280 477
647 2 2 3 29 289 290 476
648 2 2 3 29 464 452 479
649 2 2 3 29 450 464 482
650 2 2 3 29 464 450 483
651 2 2 3 29 459 469 489
652 2 2 3 29 452 464 483
653 2 2 3 29 278 277 469
654 2 2 3 29 286 287 470
655 2 2 3 29 288 289 472
656 2 2 3 29 280 279 473
657 2 2 3 29 469 454 489
658 2 2 3 29 471 450 489
659 2 2 3 29 283 282 474
660 2 2 3 29 291 292 475
661 2 2 3 29 465 454 496
662 2 2 3 29 455 466 497
663 2 2 3 29 482 464 501
664 2 2 3 29 453 482 501
665 2 2 3 29 454 469 496
666 2 2 3 29 470 455 497
667 2 2 3 29 451 478 490
668 2 2 3 29 479 451 481
669 2 2 3 29 478 451 484
670 2 2 3 29 456 467 498
671 2 2 3 29 468 457 499
672 2 2 3 29 474 461 490
673 2 2 3 29 450 471 480
674 2 2 3 29 456 474 490
675 2 2 3 29 474 456 498
676 2 2 3 29 457 475 499
677 2 2 3 29 454 465 485
678 2 2 3 29 466 455 486
679 2 2 3 29 467 456 487
680 2 2 3 29 457 468 488
681 2 2 3 29 276 465 496
682 2 2 3 29 466 285 497
683 2 2 3 29 474 282 492
684 2 2 3 29 291 475 491
685 2 2 3 29 461 474 492
686 2 2 3 29 475 460 491
687 2 2 3 29 278 469 494
688 2 2 3 29 469 459 494
689 2 2 3 29 470 287 493
690 2 2 3 29 458 470 493
691 2 2 3 29 288 472 493
692 2 2 3 29 472 458 493
693 2 2 3 29 473 279 494
694 2 2 3 29 459 473 494
695 2 2 3 29 467 284 498
696 2 2 3 29 293 468 499
697 2 2 3 29 465 276 504
698 2 2 3 29 285 466 505
699 2 2 3 29 479 481 501
700 2 2 3 29 454 471 489
701 2 2 3 29 452 476 495
702 2 2 3 29 476 460 495
703 2 2 3 29 284 467 506
704 2 2 3 29 468 293 507
705 2 2 3 29 460 476 491
706 2 2 3 29 477 461 492
707 2 2 3 29 476 290 491
708 2 2 3 29 281 477 492
709 2 2 3 29 277 276 496
710 2 2 3 29 285 286 497
711 2 2 3 29 478 484 500
712 2 2 3 29 469 277 496
713 2 2 3 29 286 470 497
714 2 2 3 29 471 463 502
715 2 2 3 29 284 283 498
716 2 2 3 29 292 293 499
717 2 2 3 29 457 488 500
718 2 2 3 29 488 462 500
719 2 2 3 29 480 471 502
720 2 2 3 29 478 456 490
721 2 2 3 29 486 455 502
722 2 2 3 29 283 474 498
723 2 2 3 29 475 292 499
724 2 2 3 29 455 480 502
725 2 2 3 29 463 486 502
726 2 2 3 29 462 478 500
727 2 2 3 29 467 487 510
728 2 2 3 29 488 468 511
729 2 2 3 29 484 457 500
730 2 2 3 29 282 281 492
731 2 2 3 29 290 291 491
732 2 2 3 29 287 288 493
733 2 2 3 29 279 278 494
734 2 2 3 29 479 452 495
735 2 2 3 29 451 479 503
736 2 2 3 29 464 479 501
737 2 2 3 29 44 179 504
738 2 2 3 29 183 45 505
739 2 2 3 29 222 52 506
740 2 2 3 29 53 226 507
741 2 2 3 29 276 44 504
742 2 2 3 29 45 285 505
743 2 2 3 29 485 465 508
744 2 2 3 29 466 486 509
745 2 2 3 29 52 284 506
746 2 2 3 29 293 53 507
747 2 2 3 29 460 484 503
748 2 2 3 29 179 180 508
749 2 2 3 29 182 183 509
750 2 2 3 29 223 222 510
751 2 2 3 29 226 225 511
752 2 2 3 29 481 453 501
753 2 2 3 29 484 451 503
754 2 2 3 29 180 485 508
755 2 2 3 29 486 182 509
756 2 2 3 29 487 223 510
757 2 2 3 29 225 488 511
758 2 2 3 29 479 495 503
759 2 2 3 29 506 467 510
760 2 2 3 29 468 507 511
761 2 2 3 29 222 506 510
762 2 2 3 29 507 226 511
763 2 2 3 29 495 460 503
764 2 2 3 29 465 504 508
765 2 2 3 29 505 466 509
766 2 2 3 29 504 179 508
767 2 2 3 29 183 505 509
768 2 2 3 30 295 286 294
769 2 2 3 30 294 286 285
770 2 2 3 30 301 302 293
771 2 2 3 30 301 293 292
772 2 2 3 30 291 300 301
773 2 2 3 30 291 301 292
774 2 2 3 30 295 296 287
775 2 2 3 30 295 287 286
776 2 2 3 30 298 289 297
777 2 2 3 30 297 289 288
778 2 2 3 30 512 302 54
779 2 2 3 30 227 512 54
780 2 2 3 30 294 513 46
781 2 2 3 30 513 184 46
782 2 2 3 30 291 290 299
783 2 2 3 30 299 300 291
784 2 2 3 30 289 299 290
785 2 2 3 30 289 298 299
786 2 2 3 30 293 512 53
787 2 2 3 30 512 293 302
788 2 2 3 30 512 227 53
789 2 2 3 30 513 285 45
790 2 2 3 30 285 513 294
791 2 2 3 30 184 513 45
792 2 2 3 30 297 288 296
793 2 2 3 30 296 288 287
794 2 2 3 31 565 521 583
795 2 2 3 31 566 522 584
796 2 2 3 31 189 190 541
797 2 2 3 31 233 232 542
798 2 2 3 31 187 545 587
799 2 2 3 31 546 230 588
800 2 2 3 31 235 543 585
801 2 2 3 31 544 192 586
802 2 2 3 31 561 237 585
803 2 2 3 31 194 564 586
804 2 2 3 31 562 185 587
805 2 2 3 31 228 563 588
806 2 2 3 31 237 236 585
807 2 2 3 31 193 194 586
808 2 2 3 31 549 521 565
809 2 2 3 31 550 522 566
810 2 2 3 31 185 186 587
811 2 2 3 31 229 228 588
812 2 2 3 31 186 187 587
813 2 2 3 31 230 229 588
814 2 2 3 31 236 235 585
815 2 2 3 31 192 193 586
816 2 2 3 31 557 537 575
817 2 2 3 31 514 557 575
818 2 2 3 31 558 538 576
819 2 2 3 31 514 558 576
820 2 2 3 31 535 565 583
821 2 2 3 31 536 566 584
822 2 2 3 31 298 297 549
823 2 2 3 31 206 205 550
824 2 2 3 31 298 549 565
825 2 2 3 31 206 550 566
826 2 2 3 31 189 541 571
827 2 2 3 31 542 232 572
828 2 2 3 31 233 542 573
829 2 2 3 31 541 190 574
830 2 2 3 31 542 520 608
831 2 2 3 31 541 519 607
832 2 2 3 31 519 541 598
833 2 2 3 31 520 542 597
834 2 2 3 31 597 559 611
835 2 2 3 31 533 555 570
836 2 2 3 31 534 553 569
837 2 2 3 31 556 536 567
838 2 2 3 31 554 535 568
839 2 2 3 31 555 523 570
840 2 2 3 31 553 524 569
841 2 2 3 31 525 556 567
842 2 2 3 31 526 554 568
843 2 2 3 31 598 560 610
844 2 2 3 31 543 235 594
845 2 2 3 31 192 544 595
846 2 2 3 31 545 187 591
847 2 2 3 31 230 546 592
848 2 2 3 31 530 560 598
849 2 2 3 31 532 559 597
850 2 2 3 31 549 297 600
851 2 2 3 31 550 205 599
852 2 2 3 31 296 295 553
853 2 2 3 31 204 203 555
854 2 2 3 31 301 300 554
855 2 2 3 31 209 208 556
856 2 2 3 31 543 529 579
857 2 2 3 31 530 544 580
858 2 2 3 31 545 531 577
859 2 2 3 31 532 546 578
860 2 2 3 31 547 518 633
861 2 2 3 31 548 517 634
862 2 2 3 31 299 298 565
863 2 2 3 31 207 206 566
864 2 2 3 31 529 543 594
865 2 2 3 31 544 530 595
866 2 2 3 31 531 545 591
867 2 2 3 31 546 532 592
868 2 2 3 31 534 549 600
869 2 2 3 31 533 550 599
870 2 2 3 31 567 517 580
871 2 2 3 31 515 570 579
872 2 2 3 31 568 518 578
873 2 2 3 31 516 569 577
874 2 2 3 31 537 557 610
875 2 2 3 31 518 547 604
876 2 2 3 31 517 548 603
877 2 2 3 31 538 558 611
878 2 2 3 31 518 559 578
879 2 2 3 31 559 532 578
880 2 2 3 31 539 589 590
881 2 2 3 31 517 560 580
882 2 2 3 31 560 530 580
883 2 2 3 31 540 593 596
884 2 2 3 31 619 528 623
885 2 2 3 31 620 527 624
886 2 2 3 31 547 619 623
887 2 2 3 31 548 620 624
888 2 2 3 31 550 533 605
889 2 2 3 31 549 534 606
890 2 2 3 31 522 550 605
891 2 2 3 31 521 549 606
892 2 2 3 31 593 528 596
893 2 2 3 31 589 527 590
894 2 2 3 31 610 557 622
895 2 2 3 31 567 580 626
896 2 2 3 31 579 570 625
897 2 2 3 31 611 558 621
898 2 2 3 31 557 514 593
899 2 2 3 31 558 514 589
900 2 2 3 31 568 578 628
901 2 2 3 31 577 569 627
902 2 2 3 31 188 189 571
903 2 2 3 31 232 231 572
904 2 2 3 31 234 233 573
905 2 2 3 31 190 191 574
906 2 2 3 31 583 521 619
907 2 2 3 31 584 522 620
908 2 2 3 31 547 583 619
909 2 2 3 31 548 584 620
910 2 2 3 31 540 596 612
911 2 2 3 31 520 597 611
912 2 2 3 31 202 561 615
913 2 2 3 31 294 562 613
914 2 2 3 31 563 302 614
915 2 2 3 31 564 210 616
916 2 2 3 31 539 590 609
917 2 2 3 31 539 558 589
918 2 2 3 31 523 555 615
919 2 2 3 31 524 553 613
920 2 2 3 31 556 525 616
921 2 2 3 31 554 526 614
922 2 2 3 31 540 557 593
923 2 2 3 31 296 553 600
924 2 2 3 31 554 300 601
925 2 2 3 31 556 208 602
926 2 2 3 31 204 555 599
927 2 2 3 31 235 234 594
928 2 2 3 31 191 192 595
929 2 2 3 31 583 547 633
930 2 2 3 31 584 548 634
931 2 2 3 31 187 188 591
932 2 2 3 31 231 230 592
933 2 2 3 31 535 554 601
934 2 2 3 31 536 556 602
935 2 2 3 31 553 534 600
936 2 2 3 31 555 533 599
937 2 2 3 31 519 598 610
938 2 2 3 31 523 561 585
939 2 2 3 31 564 525 586
940 2 2 3 31 524 562 587
941 2 2 3 31 563 526 588
942 2 2 3 31 295 294 613
943 2 2 3 31 203 202 615
944 2 2 3 31 302 301 614
945 2 2 3 31 210 209 616
946 2 2 3 31 553 295 613
947 2 2 3 31 555 203 615
948 2 2 3 31 301 554 614
949 2 2 3 31 209 556 616
950 2 2 3 31 559 518 604
951 2 2 3 31 561 523 615
952 2 2 3 31 562 524 613
953 2 2 3 31 525 564 616
954 2 2 3 31 526 563 614
955 2 2 3 31 538 559 604
956 2 2 3 31 560 517 603
957 2 2 3 31 537 560 603
958 2 2 3 31 551 515 590
959 2 2 3 31 527 551 590
960 2 2 3 31 528 552 596
961 2 2 3 31 552 516 596
962 2 2 3 31 514 576 593
963 2 2 3 31 514 575 589
964 2 2 3 31 551 527 620
965 2 2 3 31 552 528 619
966 2 2 3 31 596 516 612
967 2 2 3 31 590 515 609
968 2 2 3 31 207 566 602
969 2 2 3 31 299 565 601
970 2 2 3 31 565 535 601
971 2 2 3 31 566 536 602
972 2 2 3 31 551 522 605
973 2 2 3 31 552 521 606
974 2 2 3 31 574 530 598
975 2 2 3 31 541 574 598
976 2 2 3 31 188 571 591
977 2 2 3 31 572 231 592
978 2 2 3 31 234 573 594
979 2 2 3 31 574 191 595
980 2 2 3 31 572 532 597
981 2 2 3 31 542 572 597
982 2 2 3 31 515 551 618
983 2 2 3 31 516 552 617
984 2 2 3 31 522 551 620
985 2 2 3 31 521 552 619
986 2 2 3 31 520 582 608
987 2 2 3 31 519 581 607
988 2 2 3 31 579 529 609
989 2 2 3 31 557 540 622
990 2 2 3 31 558 539 621
991 2 2 3 31 577 531 612
992 2 2 3 31 529 582 609
993 2 2 3 31 531 581 612
994 2 2 3 31 559 538 611
995 2 2 3 31 560 537 610
996 2 2 3 31 573 529 594
997 2 2 3 31 530 574 595
998 2 2 3 31 571 531 591
999 2 2 3 31 532 572 592
1000 2 2 3 31 523 585 625
1001 2 2 3 31 586 525 626
1002 2 2 3 31 585 543 625
1003 2 2 3 31 544 586 626
1004 2 2 3 31 524 587 627
1005 2 2 3 31 588 526 628
1006 2 2 3 31 587 545 627
1007 2 2 3 31 546 588 628
1008 2 2 3 31 575 527 589
1009 2 2 3 31 561 202 631
1010 2 2 3 31 562 294 629
1011 2 2 3 31 210 564 632
1012 2 2 3 31 302 563 630
1013 2 2 3 31 576 528 593
1014 2 2 3 31 581 540 612
1015 2 2 3 31 185 562 629
1016 2 2 3 31 237 561 631
1017 2 2 3 31 563 228 630
1018 2 2 3 31 564 194 632
1019 2 2 3 31 582 539 609
1020 2 2 3 31 575 537 624
1021 2 2 3 31 205 204 599
1022 2 2 3 31 297 296 600
1023 2 2 3 31 300 299 601
1024 2 2 3 31 208 207 602
1025 2 2 3 31 576 538 623
1026 2 2 3 31 526 568 628
1027 2 2 3 31 569 524 627
1028 2 2 3 31 525 567 626
1029 2 2 3 31 570 523 625
1030 2 2 3 31 534 569 617
1031 2 2 3 31 533 570 618
1032 2 2 3 31 567 536 634
1033 2 2 3 31 568 535 633
1034 2 2 3 31 540 581 622
1035 2 2 3 31 531 571 607
1036 2 2 3 31 581 519 622
1037 2 2 3 31 571 541 607
1038 2 2 3 31 529 573 608
1039 2 2 3 31 573 542 608
1040 2 2 3 31 539 582 621
1041 2 2 3 31 582 520 621
1042 2 2 3 31 527 575 624
1043 2 2 3 31 528 576 623
1044 2 2 3 31 519 610 622
1045 2 2 3 31 569 516 617
1046 2 2 3 31 570 515 618
1047 2 2 3 31 46 185 629
1048 2 2 3 31 50 237 631
1049 2 2 3 31 228 54 630
1050 2 2 3 31 194 42 632
1051 2 2 3 31 581 531 607
1052 2 2 3 31 520 611 621
1053 2 2 3 31 515 579 609
1054 2 2 3 31 294 46 629
1055 2 2 3 31 54 302 630
1056 2 2 3 31 202 50 631
1057 2 2 3 31 42 210 632
1058 2 2 3 31 582 529 608
1059 2 2 3 31 516 577 612
1060 2 2 3 31 537 603 624
1061 2 2 3 31 538 604 623
1062 2 2 3 31 536 584 634
1063 2 2 3 31 535 583 633
1064 2 2 3 31 517 567 634
1065 2 2 3 31 518 568 633
1066 2 2 3 31 543 579 625
1067 2 2 3 31 580 544 626
1068 2 2 3 31 605 533 618
1069 2 2 3 31 606 534 617
1070 2 2 3 31 545 577 627
1071 2 2 3 31 578 546 628
1072 2 2 3 31 551 605 618
1073 2 2 3 31 552 606 617
1074 2 2 3 31 603 548 624
1075 2 2 3 31 604 547 623
1076 2 2 3 32 240 213 241
1077 2 2 3 32 241 213 214
1078 2 2 3 32 218 245 244
1079 2 2 3 32 218 244 217
1080 2 2 3 32 212 239 238
1081 2 2 3 32 212 238 211
1082 2 2 3 32 635 263 55
1083 2 2 3 32 247 635 55
1084 2 2 3 32 636 238 48
1085 2 2 3 32 195 636 48
1086 2 2 3 32 243 242 215
1087 2 2 3 32 214 215 242
1088 2 2 3 32 215 216 243
1089 2 2 3 32 243 217 244
1090 2 2 3 32 220 635 247
1091 2 2 3 32 263 635 51
1092 2 2 3 32 635 220 51
1093 2 2 3 32 211 636 47
1094 2 2 3 32 636 211 238
1095 2 2 3 32 636 195 47
1096 2 2 3 32 220 247 246
1097 2 2 3 32 212 240 239
1098 2 2 3 32 245 219 246
1099 2 2 3 32 246 219 220
1100 2 2 3 32 245 218 219
1101 2 2 3 32 213 240 212
1102 2 2 3 32 217 243 216
1103 2 2 3 32 214 242 241
1104 2 2 3 33 263 51 221
1105 2 2 3 33 264 55 263
1106 2 2 3 33 221 52 264
1107 2 2 3 33 263 221 264
1108 2 2 3 34 249 248 222
1109 2 2 3 34 249 222 223
1110 2 2 3 34 224 250 249
1111 2 2 3 34 224 249 223
1112 2 2 3 34 637 265 56
1113 2 2 3 34 252 637 56
1114 2 2 3 34 264 638 55
1115 2 2 3 34 638 248 55
1116 2 2 3 34 226 252 225
1117 2 2 3 34 251 224 225
1118 2 2 3 34 250 224 251
1119 2 2 3 34 225 252 251
1120 2 2 3 34 226 637 252
1121 2 2 3 34 265 637 53
1122 2 2 3 34 637 226 53
1123 2 2 3 34 638 222 248
1124 2 2 3 34 638 264 52
1125 2 2 3 34 222 638 52
1126 2 2 3 35 265 53 227
1127 2 2 3 35 227 54 266
1128 2 2 3 35 265 227 266
1129 2 2 3 35 265 266 56
1130 2 2 3 36 259 234 260
1131 2 2 3 36 260 234 235
1132 2 2 3 36 237 262 261
1133 2 2 3 36 237 261 236
1134 2 2 3 36 254 253 228
1135 2 2 3 36 254 228 229
1136 2 2 3 36 258 257 233
1137 2 2 3 36 233 257 232
1138 2 2 3 36 639 237 50
1139 2 2 3 36 201 639 50
1140 2 2 3 36 266 640 56
1141 2 2 3 36 640 253 56
1142 2 2 3 36 262 639 49
1143 2 2 3 36 639 262 237
1144 2 2 3 36 639 201 49
1145 2 2 3 36 254 230 255
1146 2 2 3 36 254 229 230
1147 2 2 3 36 234 258 233
1148 2 2 3 36 259 258 234
1149 2 2 3 36 640 228 253
1150 2 2 3 36 640 266 54
1151 2 2 3 36 228 640 54
1152 2 2 3 36 261 260 236
1153 2 2 3 36 236 260 235
1154 2 2 3 36 232 257 256
1155 2 2 3 36 232 256 231
1156 2 2 3 36 256 255 231
1157 2 2 3 36 231 255 230
1158 2 2 3 37 653 250 677
1159 2 2 3 37 198 654 678
1160 2 2 3 37 250 653 676
1161 2 2 3 37 654 198 675
1162 2 2 3 37 642 656 691
1163 2 2 3 37 656 686 691
1164 2 2 3 37 663 238 683
1165 2 2 3 37 247 664 684
1166 2 2 3 37 658 245 684
1167 2 2 3 37 240 657 683
1168 2 2 3 37 238 239 683
1169 2 2 3 37 246 247 684
1170 2 2 3 37 656 642 698
1171 2 2 3 37 672 656 698
1172 2 2 3 37 256 257 660
1173 2 2 3 37 258 259 659
1174 2 2 3 37 650 658 691
1175 2 2 3 37 654 645 666
1176 2 2 3 37 653 646 667
1177 2 2 3 37 652 669 671
1178 2 2 3 37 669 648 671
1179 2 2 3 37 658 670 691
1180 2 2 3 37 655 644 673
1181 2 2 3 37 644 656 672
1182 2 2 3 37 245 246 684
1183 2 2 3 37 239 240 683
1184 2 2 3 37 256 660 689
1185 2 2 3 37 659 259 690
1186 2 2 3 37 641 655 699
1187 2 2 3 37 249 250 676
1188 2 2 3 37 199 198 678
1189 2 2 3 37 250 251 677
1190 2 2 3 37 198 197 675
1191 2 2 3 37 655 673 699
1192 2 2 3 37 644 659 673
1193 2 2 3 37 660 644 672
1194 2 2 3 37 657 649 674
1195 2 2 3 37 655 641 692
1196 2 2 3 37 644 655 693
1197 2 2 3 37 655 643 693
1198 2 2 3 37 643 656 693
1199 2 2 3 37 656 644 693
1200 2 2 3 37 645 654 675
1201 2 2 3 37 646 653 677
1202 2 2 3 37 660 651 689
1203 2 2 3 37 652 659 690
1204 2 2 3 37 645 657 674
1205 2 2 3 37 659 644 679
1206 2 2 3 37 644 660 679
1207 2 2 3 37 658 647 670
1208 2 2 3 37 242 243 661
1209 2 2 3 37 643 655 685
1210 2 2 3 37 656 643 686
1211 2 2 3 37 668 651 682
1212 2 2 3 37 646 668 682
1213 2 2 3 37 666 645 674
1214 2 2 3 37 254 255 668
1215 2 2 3 37 260 261 669
1216 2 2 3 37 651 660 672
1217 2 2 3 37 659 652 673
1218 2 2 3 37 657 645 683
1219 2 2 3 37 647 658 684
1220 2 2 3 37 642 667 682
1221 2 2 3 37 646 662 697
1222 2 2 3 37 665 648 696
1223 2 2 3 37 685 655 692
1224 2 2 3 37 657 240 688
1225 2 2 3 37 245 658 687
1226 2 2 3 37 667 642 670
1227 2 2 3 37 668 646 697
1228 2 2 3 37 648 669 696
1229 2 2 3 37 660 257 679
1230 2 2 3 37 258 659 679
1231 2 2 3 37 649 657 688
1232 2 2 3 37 658 650 687
1233 2 2 3 37 666 641 671
1234 2 2 3 37 663 645 675
1235 2 2 3 37 662 646 677
1236 2 2 3 37 647 664 676
1237 2 2 3 37 648 665 678
1238 2 2 3 37 641 666 674
1239 2 2 3 37 645 663 683
1240 2 2 3 37 664 647 684
1241 2 2 3 37 674 649 692
1242 2 2 3 37 662 253 697
1243 2 2 3 37 262 665 696
1244 2 2 3 37 661 243 680
1245 2 2 3 37 242 661 681
1246 2 2 3 37 668 255 689
1247 2 2 3 37 669 652 690
1248 2 2 3 37 651 668 689
1249 2 2 3 37 260 669 690
1250 2 2 3 37 667 646 682
1251 2 2 3 37 253 662 700
1252 2 2 3 37 238 663 701
1253 2 2 3 37 664 247 702
1254 2 2 3 37 665 262 703
1255 2 2 3 37 642 682 698
1256 2 2 3 37 667 670 708
1257 2 2 3 37 243 244 680
1258 2 2 3 37 241 242 681
1259 2 2 3 37 670 647 708
1260 2 2 3 37 661 643 695
1261 2 2 3 37 643 661 694
1262 2 2 3 37 653 667 708
1263 2 2 3 37 654 666 709
1264 2 2 3 37 240 241 688
1265 2 2 3 37 244 245 687
1266 2 2 3 37 261 262 696
1267 2 2 3 37 253 254 697
1268 2 2 3 37 254 668 697
1269 2 2 3 37 669 261 696
1270 2 2 3 37 257 258 679
1271 2 2 3 37 666 671 709
1272 2 2 3 37 671 648 709
1273 2 2 3 37 680 244 687
1274 2 2 3 37 241 681 688
1275 2 2 3 37 647 676 708
1276 2 2 3 37 648 678 709
1277 2 2 3 37 676 653 708
1278 2 2 3 37 678 654 709
1279 2 2 3 37 650 680 687
1280 2 2 3 37 681 649 688
1281 2 2 3 37 255 256 689
1282 2 2 3 37 259 260 690
1283 2 2 3 37 670 642 691
1284 2 2 3 37 196 48 701
1285 2 2 3 37 252 56 700
1286 2 2 3 37 55 248 702
1287 2 2 3 37 49 200 703
1288 2 2 3 37 56 253 700
1289 2 2 3 37 48 238 701
1290 2 2 3 37 247 55 702
1291 2 2 3 37 262 49 703
1292 2 2 3 37 652 671 699
1293 2 2 3 37 641 674 692
1294 2 2 3 37 673 652 699
1295 2 2 3 37 651 672 698
1296 2 2 3 37 686 650 691
1297 2 2 3 37 680 650 694
1298 2 2 3 37 649 681 695
1299 2 2 3 37 671 641 699
1300 2 2 3 37 663 675 704
1301 2 2 3 37 662 677 706
1302 2 2 3 37 676 664 705
1303 2 2 3 37 678 665 707
1304 2 2 3 37 197 196 704
1305 2 2 3 37 248 249 705
1306 2 2 3 37 251 252 706
1307 2 2 3 37 200 199 707
1308 2 2 3 37 650 686 694
1309 2 2 3 37 685 649 695
1310 2 2 3 37 675 197 704
1311 2 2 3 37 249 676 705
1312 2 2 3 37 677 251 706
1313 2 2 3 37 199 678 707
1314 2 2 3 37 682 651 698
1315 2 2 3 37 643 685 695
1316 2 2 3 37 686 643 694
1317 2 2 3 37 661 680 694
1318 2 2 3 37 681 661 695
1319 2 2 3 37 649 685 692
1320 2 2 3 37 700 662 706
1321 2 2 3 37 701 663 704
1322 2 2 3 37 664 702 705
1323 2 2 3 37 665 703 707
1324 2 2 3 37 252 700 706
1325 2 2 3 37 702 248 705
1326 2 2 3 37 196 701 704
1327 2 2 3 37 703 200 707
$EndElements
