$MeshFormat
2.2 0 8
$EndMeshFormat
$Nodes
516
1 12.7 0 0
2 9.472 8.460000000000001 0
3 9.303000000000001 8.646000000000001 0
4 9.122999999999999 8.835000000000001 0
5 8.949 9.012 0
6 8.794 9.162000000000001 0
7 0 12.7 0
8 -8.794 9.162000000000001 0
9 -8.949 9.012 0
10 -9.122999999999999 8.835000000000001 0
11 -9.303000000000001 8.646000000000001 0
12 -9.472 8.460000000000001 0
13 -12.7 0 0
14 -9.472 -8.460000000000001 0
15 -9.303000000000001 -8.646000000000001 0
16 -9.122999999999999 -8.835000000000001 0
17 -8.949 -9.012 0
18 -8.794 -9.162000000000001 0
19 0 -12.7 0
20 8.794 -9.162000000000001 0
21 8.949 -9.012 0
22 9.122999999999999 -8.835000000000001 0
23 9.303000000000001 -8.646000000000001 0
24 9.472 -8.460000000000001 0
25 12.946 0 4.71
26 9.750999999999999 8.709 4.71
27 9.586 8.91 4.71
28 9.409000000000001 9.112 4.71
29 9.234 9.300000000000001 4.71
30 9.077999999999999 9.457000000000001 4.71
31 0 12.851 4.71
32 -9.077999999999999 9.457000000000001 4.71
33 -9.234 9.300000000000001 4.71
34 -9.409000000000001 9.112 4.71
35 -9.586 8.91 4.71
36 -9.750999999999999 8.709 4.71
37 -12.946 0 4.71
38 -9.750999999999999 -8.709 4.71
39 -9.586 -8.91 4.71
40 -9.409000000000001 -9.112 4.71
41 -9.234 -9.300000000000001 4.71
42 -9.077999999999999 -9.457000000000001 4.71
43 0 -12.851 4.71
44 9.077999999999999 -9.457000000000001 4.71
45 9.234 -9.300000000000001 4.71
46 9.409000000000001 -9.112 4.71
47 9.586 -8.91 4.71
48 9.750999999999999 -8.709 4.71
49 14.531 0 13.154
50 11.488 10.26 13.154
51 11.347 10.546 13.154
52 11.181 10.827 13.154
53 11 11.078 13.154
54 10.825 11.278 13.154
55 0 13.858 13.154
56 -10.825 11.278 13.154
57 -11 11.078 13.154
58 -11.181 10.827 13.154
59 -11.347 10.546 13.154
60 -11.488 10.26 13.154
61 -14.531 0 13.154
62 -11.488 -10.26 13.154
63 -11.347 -10.546 13.154
64 -11.181 -10.827 13.154
65 -11 -11.078 13.154
66 -10.825 -11.278 13.154
67 0 -13.858 13.154
68 10.825 -11.278 13.154
69 11 -11.078 13.154
70 11.181 -10.827 13.154
71 11.347 -10.546 13.154
72 11.488 -10.26 13.154
73 19.028 0 26.082
74 16.097 14.376 26.082
75 15.991 14.862 26.082
76 15.83 15.33 26.082
77 15.621 15.732 26.082
78 15.392 16.036 26.082
79 0 16.915 26.082
80 -15.392 16.036 26.082
81 -15.621 15.732 26.082
82 -15.83 15.33 26.082
83 -15.991 14.862 26.082
84 -16.097 14.376 26.082
85 -19.028 0 26.082
86 -16.097 -14.376 26.082
87 -15.991 -14.862 26.082
88 -15.83 -15.33 26.082
89 -15.621 -15.732 26.082
90 -15.392 -16.036 26.082
91 0 -16.915 26.082
92 15.392 -16.036 26.082
93 15.621 -15.732 26.082
94 15.83 -15.33 26.082
95 15.991 -14.862 26.082
96 16.097 -14.376 26.082
97 27.944 0 44.762
98 24.661 22.024 44.762
99 24.576 22.841 44.762
100 24.39 23.62 44.762
101 24.107 24.277 44.762
102 23.769 24.763 44.762
103 0 23.474 44.762
104 -23.769 24.763 44.762
105 -24.107 24.277 44.762
106 -24.39 23.62 44.762
107 -24.576 22.841 44.762
108 -24.661 22.024 44.762
109 -27.944 0 44.762
110 -24.661 -22.024 44.762
111 -24.576 -22.841 44.762
112 -24.39 -23.62 44.762
113 -24.107 -24.277 44.762
114 -23.769 -24.763 44.762
115 0 -23.474 44.762
116 23.769 -24.763 44.762
117 24.107 -24.277 44.762
118 24.39 -23.62 44.762
119 24.576 -22.841 44.762
120 24.661 -22.024 44.762
121 41.803 0 68.85599999999999
122 37.413 33.413 68.85599999999999
123 37.318 34.683 68.85599999999999
124 37.061 35.891 68.85599999999999
125 36.647 36.905 68.85599999999999
126 36.138 37.65 68.85599999999999
127 0 34.325 68.85599999999999
128 -36.138 37.65 68.85599999999999
129 -36.647 36.905 68.85599999999999
130 -37.061 35.891 68.85599999999999
131 -37.318 34.683 68.85599999999999
132 -37.413 33.413 68.85599999999999
133 -41.803 0 68.85599999999999
134 -37.413 -33.413 68.85599999999999
135 -37.318 -34.683 68.85599999999999
136 -37.061 -35.891 68.85599999999999
137 -36.647 -36.905 68.85599999999999
138 -36.138 -37.65 68.85599999999999
139 0 -34.325 68.85599999999999
140 36.138 -37.65 68.85599999999999
141 36.647 -36.905 68.85599999999999
142 37.061 -35.891 68.85599999999999
143 37.318 -34.683 68.85599999999999
144 37.413 -33.413 68.85599999999999
145 61.122 0 96.89700000000001
146 54.958 49.082 96.89700000000001
147 54.793 50.925 96.89700000000001
148 54.384 52.667 96.89700000000001
149 53.743 54.122 96.89700000000001
150 52.964 55.18 96.89700000000001
151 0 50.34 96.89700000000001
152 -52.964 55.18 96.89700000000001
153 -53.743 54.122 96.89700000000001
154 -54.384 52.667 96.89700000000001
155 -54.793 50.925 96.89700000000001
156 -54.958 49.082 96.89700000000001
157 -61.122 0 96.89700000000001
158 -54.958 -49.082 96.89700000000001
159 -54.793 -50.925 96.89700000000001
160 -54.384 -52.667 96.89700000000001
161 -53.743 -54.122 96.89700000000001
162 -52.964 -55.18 96.89700000000001
163 0 -50.34 96.89700000000001
164 52.964 -55.18 96.89700000000001
165 53.743 -54.122 96.89700000000001
166 54.384 -52.667 96.89700000000001
167 54.793 -50.925 96.89700000000001
168 54.958 -49.082 96.89700000000001
169 86.306 0 124.851
170 78.886 70.452 124.851
171 78.51000000000001 72.968 124.851
172 77.751 75.295 124.851
173 76.646 77.187 124.851
174 75.345 78.497 124.851
175 0 72.857 124.851
176 -75.345 78.497 124.851
177 -76.646 77.187 124.851
178 -77.751 75.295 124.851
179 -78.51000000000001 72.968 124.851
180 -78.886 70.452 124.851
181 -86.306 0 124.851
182 -78.886 -70.452 124.851
183 -78.51000000000001 -72.968 124.851
184 -77.751 -75.295 124.851
185 -76.646 -77.187 124.851
186 -75.345 -78.497 124.851
187 0 -72.857 124.851
188 75.345 -78.497 124.851
189 76.646 -77.187 124.851
190 77.751 -75.295 124.851
191 78.51000000000001 -72.968 124.851
192 78.886 -70.452 124.851
193 116.064 0 148.023
194 109.43 97.73 148.023
195 108.64 100.972 148.023
196 107.234 103.847 148.023
197 105.315 106.058 148.023
198 103.11 107.424 148.023
199 0 101.569 148.023
200 -103.11 107.424 148.023
201 -105.315 106.058 148.023
202 -107.234 103.847 148.023
203 -108.64 100.972 148.023
204 -109.43 97.73 148.023
205 -116.064 0 148.023
206 -109.43 -97.73 148.023
207 -108.64 -100.972 148.023
208 -107.234 -103.847 148.023
209 -105.315 -106.058 148.023
210 -103.11 -107.424 148.023
211 0 -101.569 148.023
212 103.11 -107.424 148.023
213 105.315 -106.058 148.023
214 107.234 -103.847 148.023
215 108.64 -100.972 148.023
216 109.43 -97.73 148.023
217 148.238 0 165.397
218 144.203 128.785 165.397
219 142.838 132.755 165.397
220 140.552 136.114 165.397
221 137.548 138.519 165.397
222 134.147 139.759 165.397
223 0 134.228 165.397
224 -134.147 139.759 165.397
225 -137.548 138.519 165.397
226 -140.552 136.114 165.397
227 -142.838 132.755 165.397
228 -144.203 128.785 165.397
229 -148.238 0 165.397
230 -144.203 -128.785 165.397
231 -142.838 -132.755 165.397
232 -140.552 -136.114 165.397
233 -137.548 -138.519 165.397
234 -134.147 -139.759 165.397
235 0 -134.228 165.397
236 134.147 -139.759 165.397
237 137.548 -138.519 165.397
238 140.552 -136.114 165.397
239 142.838 -132.755 165.397
240 144.203 -128.785 165.397
241 178.07 0 176.848
242 176.673 157.784 176.848
243 174.722 162.389 176.848
244 171.561 166.143 176.848
245 167.488 168.669 176.848
246 162.917 169.733 176.848
247 0 165.255 176.848
248 -162.917 169.733 176.848
249 -167.488 168.669 176.848
250 -171.561 166.143 176.848
251 -174.722 162.389 176.848
252 -176.673 157.784 176.848
253 -178.07 0 176.848
254 -176.673 -157.784 176.848
255 -174.722 -162.389 176.848
256 -171.561 -166.143 176.848
257 -167.488 -168.669 176.848
258 -162.917 -169.733 176.848
259 0 -165.255 176.848
260 162.917 -169.733 176.848
261 167.488 -168.669 176.848
262 171.561 -166.143 176.848
263 174.722 -162.389 176.848
264 176.673 -157.784 176.848
265 203.477 0 183.712
266 203.253 181.522 183.712
267 200.806 186.632 183.712
268 196.929 190.71 183.712
269 191.998 193.353 183.712
270 186.503 194.305 183.712
271 0 191.797 183.712
272 -186.503 194.305 183.712
273 -191.998 193.353 183.712
274 -196.929 190.71 183.712
275 -200.806 186.632 183.712
276 -203.253 181.522 183.712
277 -203.477 0 183.712
278 -203.253 -181.522 183.712
279 -200.806 -186.632 183.712
280 -196.929 -190.71 183.712
281 -191.998 -193.353 183.712
282 -186.503 -194.305 183.712
283 0 -191.797 183.712
284 186.503 -194.305 183.712
285 191.998 -193.353 183.712
286 196.929 -190.71 183.712
287 200.806 -186.632 183.712
288 203.253 -181.522 183.712
289 221.45 0 186.789
290 220.495 196.92 186.789
291 217.725 202.357 186.789
292 213.41 206.671 186.789
293 207.974 209.441 186.789
294 201.947 210.396 186.789
295 0 210.396 186.789
296 -201.947 210.396 186.789
297 -207.974 209.441 186.789
298 -213.41 206.671 186.789
299 -217.725 202.357 186.789
300 -220.495 196.92 186.789
301 -221.45 0 186.789
302 -220.495 -196.92 186.789
303 -217.725 -202.357 186.789
304 -213.41 -206.671 186.789
305 -207.974 -209.441 186.789
306 -201.947 -210.396 186.789
307 0 -210.396 186.789
308 201.947 -210.396 186.789
309 207.974 -209.441 186.789
310 213.41 -206.671 186.789
311 217.725 -202.357 186.789
312 220.495 -196.92 186.789
313 26.48200000007992 52.7600000000073 96.89700000000001
314 -26.48199999992656 52.75999999999329 96.89700000000001
315 -26.48200000007992 -52.7600000000073 96.89700000000001
316 26.48199999992656 -52.75999999999329 96.89700000000001
317 82.59600000000933 35.22599999991146 124.851
318 37.67250000010269 75.67700000000768 124.851
319 -37.67249999990003 75.67699999999252 124.851
320 -82.59599999999072 35.22600000008808 124.851
321 -82.59600000000933 -35.22599999991146 124.851
322 -37.67250000010269 -75.67700000000768 124.851
323 37.67249999990003 -75.67699999999252 124.851
324 82.59599999999072 -35.22600000008808 124.851
325 112.7470000000089 48.86499999986908 148.023
326 68.74000000008915 105.4723333333384 148.023
327 34.3700000000963 103.5206666666721 148.023
328 -34.36999999991276 103.5206666666617 148.023
329 -68.73999999990819 105.4723333333281 148.023
330 -112.7469999999912 48.86500000012897 148.023
331 -112.7470000000089 -48.86499999986908 148.023
332 -68.74000000008915 -105.4723333333384 148.023
333 -34.3700000000963 -103.5206666666721 148.023
334 34.36999999991276 -103.5206666666617 148.023
335 68.73999999990819 -105.4723333333281 148.023
336 112.7469999999912 -48.86500000012897 148.023
337 146.8930000000034 42.9283333332239 165.397
338 145.5480000000034 85.85666666655912 165.397
339 89.43133333343877 137.9153333333377 165.397
340 44.71566666678473 136.0716666666715 165.397
341 -44.71566666655249 136.071666666662 165.397
342 -89.43133333321155 137.9153333333283 165.397
343 -145.5479999999971 85.85666666676008 165.397
344 -146.8929999999966 42.92833333344176 165.397
345 -146.8930000000034 -42.9283333332239 165.397
346 -145.5480000000034 -85.85666666655912 165.397
347 -89.43133333343877 -137.9153333333377 165.397
348 -44.71566666678473 -136.0716666666715 165.397
349 44.71566666655249 -136.071666666662 165.397
350 89.43133333321155 -137.9153333333283 165.397
351 145.5479999999971 -85.85666666676008 165.397
352 146.8929999999966 -42.92833333344176 165.397
353 177.7207500000008 39.44599999990759 176.848
354 177.3715000000018 78.89199999979034 176.848
355 177.0222500000009 118.3379999998951 176.848
356 122.187750000097 168.6135000000027 176.848
357 81.45850000021345 167.4940000000059 176.848
358 40.72925000011084 166.3745000000031 176.848
359 -40.72924999990139 166.3744999999973 176.848
360 -81.45849999978367 167.4939999999941 176.848
361 -122.1877499998877 168.6134999999969 176.848
362 -177.0222499999992 118.3380000000874 176.848
363 -177.3714999999982 78.8920000002026 176.848
364 -177.7207499999991 39.44600000010134 176.848
365 -177.7207500000008 -39.44599999990759 176.848
366 -177.3715000000018 -78.89199999979034 176.848
367 -177.0222500000009 -118.3379999998951 176.848
368 -122.187750000097 -168.6135000000027 176.848
369 -81.45850000021345 -167.4940000000059 176.848
370 -40.72925000011084 -166.3745000000031 176.848
371 40.72924999990139 -166.3744999999973 176.848
372 81.45849999978367 -167.4939999999941 176.848
373 122.1877499998877 -168.6134999999969 176.848
374 177.0222499999992 -118.3380000000874 176.848
375 177.3714999999982 -78.8920000002026 176.848
376 177.7207499999991 -39.44600000010134 176.848
377 203.4210000000001 45.38049999989354 183.712
378 203.3650000000003 90.76099999976636 183.712
379 203.3090000000001 136.1414999998859 183.712
380 139.877250000093 193.6780000000012 183.712
381 93.25150000023304 193.0510000000031 183.712
382 46.62575000012322 192.4240000000017 183.712
383 -46.62574999989621 192.4239999999986 183.712
384 -93.25149999976732 193.0509999999969 183.712
385 -139.8772499998769 193.6779999999983 183.712
386 -203.3089999999999 136.141500000097 183.712
387 -203.3649999999997 90.76100000023287 183.712
388 -203.4209999999999 45.38050000011367 183.712
389 -203.4210000000001 -45.38049999989354 183.712
390 -203.3650000000003 -90.76099999976636 183.712
391 -203.3090000000001 -136.1414999998859 183.712
392 -139.877250000093 -193.6780000000012 183.712
393 -93.25150000023304 -193.0510000000031 183.712
394 -46.62575000012322 -192.4240000000017 183.712
395 46.62574999989621 -192.4239999999986 183.712
396 93.25149999976732 -193.0509999999969 183.712
397 139.8772499998769 -193.6779999999983 183.712
398 203.3089999999999 -136.141500000097 183.712
399 203.3649999999997 -90.76100000023287 183.712
400 203.4209999999999 -45.38050000011367 183.712
401 221.2112500000006 49.22999999988247 186.789
402 220.9725000000012 98.45999999974291 186.789
403 220.7337500000007 147.6899999998617 186.789
404 161.5576000000844 210.396 186.789
405 121.1682000002315 210.396 186.789
406 80.77880000021096 210.396 186.789
407 40.38940000012769 210.396 186.789
408 -40.38939999992049 210.396 186.789
409 -80.77879999980506 210.396 186.789
410 -121.1681999998134 210.396 186.789
411 -161.5575999998845 210.396 186.789
412 -220.7337499999994 147.6900000001292 186.789
413 -220.9724999999987 98.46000000026672 186.789
414 -221.2112499999993 49.23000000014309 186.789
415 -221.2112500000006 -49.22999999988247 186.789
416 -220.9725000000012 -98.45999999974291 186.789
417 -220.7337500000007 -147.6899999998617 186.789
418 -161.5576000000844 -210.396 186.789
419 -121.1682000002315 -210.396 186.789
420 -80.77880000021096 -210.396 186.789
421 -40.38940000012769 -210.396 186.789
422 40.38939999992049 -210.396 186.789
423 80.77879999980506 -210.396 186.789
424 121.1681999998134 -210.396 186.789
425 161.5575999998845 -210.396 186.789
426 220.7337499999994 -147.6900000001292 186.789
427 220.9724999999987 -98.46000000026672 186.789
428 221.2112499999993 -49.23000000014309 186.789
429 11.24458379649257 4.302277727614395 2.353572374960261
430 4.447613782462454 10.98797257430588 2.359644432348287
431 -4.488497496776693 11.09732506651114 2.353242338632021
432 -11.18999898385624 4.282252641338924 2.357142754949196
433 -11.24458379649257 -4.302277727614395 2.353572374960261
434 -4.447613782462454 -10.98797257430588 2.359644432348287
435 4.488497496776693 -11.09732506651114 2.353242338632021
436 11.18999898385624 -4.282252641338924 2.357142754949196
437 12.31522010398422 4.782651342731381 8.906430499192917
438 4.910700959890996 11.58807137241087 9.004316876351282
439 -5.044199304827341 12.14819524215348 8.897750164750288
440 -12.04660633266316 4.702983535116371 8.966446954902722
441 -12.31522010398422 -4.782651342731381 8.906430499192917
442 -4.910700959890996 -11.58807137241087 9.004316876351282
443 5.044199304827341 -12.14819524215348 8.897750164750288
444 12.04660633266316 -4.702983535116372 8.966446954902722
445 15.6512660291599 5.972630125010124 19.87522216194307
446 6.251194846759551 14.15816322134167 19.90021419926371
447 -6.369387956765931 15.00931255730491 19.56113262836183
448 -15.27077056885753 5.924225928715953 20.03254284668527
449 -15.6512660291599 -5.972630125010124 19.87522216194307
450 -6.251194846759551 -14.15816322134167 19.90021419926371
451 6.369387956765931 -15.00931255730491 19.56113262836183
452 15.27077056885753 -5.924225928715953 20.03254284668527
453 22.49337824770051 8.176035939433394 35.89578027534807
454 8.63939396737198 19.88399566201447 35.59775372900376
455 -8.827098535984375 20.62639599113196 35.28871322926858
456 -22.20204800509874 8.150634284802571 36.04769760502766
457 -22.49337824770051 -8.176035939433394 35.89578027534807
458 -8.63939396737198 -19.88399566201447 35.59775372900376
459 8.827098535984375 -20.62639599113196 35.28871322926858
460 22.20204800509874 -8.150634284802571 36.04769760502766
461 33.21334660239114 13.3659218945391 56.97579509903016
462 14.99332349751107 29.87286975847975 56.89683684036512
463 -14.95969819565002 30.23832875356365 56.72553514132482
464 -33.07248491032375 13.34818407587712 57.05829898244038
465 -33.21334660239114 -13.3659218945391 56.97579509903016
466 -14.99332349751107 -29.87286975847975 56.89683684036512
467 14.95969819565002 -30.23832875356365 56.72553514132482
468 33.07248491032375 -13.34818407587712 57.05829898244038
469 48.85650790104496 20.62783252927837 82.85410350414438
470 15.180263479206 43.6394679345023 82.71597454871322
471 -15.18104653781407 43.63089894302496 82.72086414659178
472 -48.79169952267733 20.61969352018628 82.89897683238212
473 -48.85650790104496 -20.62783252927837 82.85410350414438
474 -15.180263479206 -43.6394679345023 82.71597454871322
475 15.18104653781407 -43.63089894302496 82.72086414659178
476 48.79169952267733 -20.61969352018628 82.89897683238212
477 99.55248790768248 21.03118338047859 136.2774509038201
478 18.00100192194887 88.46086300672616 136.0514180965227
479 -18.01705443145284 88.17816885389875 136.390262262854
480 -99.09399236358377 21.00006029208378 136.9043094726644
481 -99.55248790768248 -21.03118338047859 136.2774509038201
482 -18.00100192194887 -88.46086300672616 136.0514180965227
483 18.01705443145284 -88.17816885389875 136.390262262854
484 99.09399236358377 -21.00006029208378 136.9043094726644
485 131.0862825689728 22.95149098102564 156.5233660427058
486 -130.7295800365119 22.9403150311629 157.2365404205141
487 -131.0862825689728 -22.95149098102564 156.5233660427058
488 130.7295800365119 -22.9403150311629 157.2365404205141
489 162.7614156693143 20.59385761015841 171.0417960661118
490 164.1150540398005 59.05008296053315 171.692085208607
491 21.35841207722276 150.5847820128625 170.8613002819083
492 61.46261648913917 153.5188285708681 171.5800388611473
493 -21.36173540592534 150.4638738484486 171.1724039075884
494 -61.46552278166246 153.4130928604795 171.8540352178943
495 -162.5988789428416 20.59241853020961 171.4984920075281
496 -163.9691242783799 59.04879091679683 172.0970728270366
497 -162.7614156693143 -20.59385761015841 171.0417960661118
498 -164.1150540398004 -59.05008296053313 171.692085208607
499 -21.35841207722276 -150.5847820128625 170.8613002819083
500 -61.46261648913917 -153.5188285708681 171.5800388611473
501 21.36173540592534 -150.4638738484486 171.1724039075884
502 61.46552278166246 -153.4130928604795 171.8540352178943
503 162.5988789428416 -20.59241853020961 171.4984920075281
504 163.9691242783799 -59.04879091679684 172.0970728270366
505 190.6772989418876 21.20663130752172 180.2610800693421
506 21.83775227091286 179.036819369559 180.0178246490174
507 -21.83887050022551 178.9536642093311 180.3146499571541
508 -190.6393705114008 21.20658450355501 180.4072198226757
509 -190.6772989418876 -21.20663130752172 180.2610800693421
510 -21.83775227091286 -179.036819369559 180.0178246490174
511 21.83887050022551 -178.9536642093311 180.3146499571541
512 190.6393705114008 -21.20658450355501 180.4072198226757
513 21.75378750006272 201.2919576805473 185.0480803419952
514 -21.75378749995417 201.2490740388801 185.2757416967382
515 -21.75378750006272 -201.2919576805473 185.0480803419952
516 21.75378749995417 -201.2490740388801 185.2757416967382
$EndNodes
$Elements
1984
1 15 2 0 1 1
2 15 2 0 2 2
3 15 2 0 3 3
4 15 2 0 4 4
5 15 2 0 5 5
6 15 2 0 6 6
7 15 2 0 7 7
8 15 2 0 8 8
9 15 2 0 9 9
10 15 2 0 10 10
11 15 2 0 11 11
12 15 2 0 12 12
13 15 2 0 13 13
14 15 2 0 14 14
15 15 2 0 15 15
16 15 2 0 16 16
17 15 2 0 17 17
18 15 2 0 18 18
19 15 2 0 19 19
20 15 2 0 20 20
21 15 2 0 21 21
22 15 2 0 22 22
23 15 2 0 23 23
24 15 2 0 24 24
25 15 2 0 25 25
26 15 2 0 26 26
27 15 2 0 27 27
28 15 2 0 28 28
29 15 2 0 29 29
30 15 2 0 30 30
31 15 2 0 31 31
32 15 2 0 32 32
33 15 2 0 33 33
34 15 2 0 34 34
35 15 2 0 35 35
36 15 2 0 36 36
37 15 2 0 37 37
38 15 2 0 38 38
39 15 2 0 39 39
40 15 2 0 40 40
41 15 2 0 41 41
42 15 2 0 42 42
43 15 2 0 43 43
44 15 2 0 44 44
45 15 2 0 45 45
46 15 2 0 46 46
47 15 2 0 47 47
48 15 2 0 48 48
49 15 2 0 49 49
50 15 2 0 50 50
51 15 2 0 51 51
52 15 2 0 52 52
53 15 2 0 53 53
54 15 2 0 54 54
55 15 2 0 55 55
56 15 2 0 56 56
57 15 2 0 57 57
58 15 2 0 58 58
59 15 2 0 59 59
60 15 2 0 60 60
61 15 2 0 61 61
62 15 2 0 62 62
63 15 2 0 63 63
64 15 2 0 64 64
65 15 2 0 65 65
66 15 2 0 66 66
67 15 2 0 67 67
68 15 2 0 68 68
69 15 2 0 69 69
70 15 2 0 70 70
71 15 2 0 71 71
72 15 2 0 72 72
73 15 2 0 73 73
74 15 2 0 74 74
75 15 2 0 75 75
76 15 2 0 76 76
77 15 2 0 77 77
78 15 2 0 78 78
79 15 2 0 79 79
80 15 2 0 80 80
81 15 2 0 81 81
82 15 2 0 82 82
83 15 2 0 83 83
84 15 2 0 84 84
85 15 2 0 85 85
86 15 2 0 86 86
87 15 2 0 87 87
88 15 2 0 88 88
89 15 2 0 89 89
90 15 2 0 90 90
91 15 2 0 91 91
92 15 2 0 92 92
93 15 2 0 93 93
94 15 2 0 94 94
95 15 2 0 95 95
96 15 2 0 96 96
97 15 2 0 97 97
98 15 2 0 98 98
99 15 2 0 99 99
100 15 2 0 100 100
101 15 2 0 101 101
102 15 2 0 102 102
103 15 2 0 103 103
104 15 2 0 104 104
105 15 2 0 105 105
106 15 2 0 106 106
107 15 2 0 107 107
108 15 2 0 108 108
109 15 2 0 109 109
110 15 2 0 110 110
111 15 2 0 111 111
112 15 2 0 112 112
113 15 2 0 113 113
114 15 2 0 114 114
115 15 2 0 115 115
116 15 2 0 116 116
117 15 2 0 117 117
118 15 2 0 118 118
119 15 2 0 119 119
120 15 2 0 120 120
121 15 2 0 121 121
122 15 2 0 122 122
123 15 2 0 123 123
124 15 2 0 124 124
125 15 2 0 125 125
126 15 2 0 126 126
127 15 2 0 127 127
128 15 2 0 128 128
129 15 2 0 129 129
130 15 2 0 130 130
131 15 2 0 131 131
132 15 2 0 132 132
133 15 2 0 133 133
134 15 2 0 134 134
135 15 2 0 135 135
136 15 2 0 136 136
137 15 2 0 137 137
138 15 2 0 138 138
139 15 2 0 139 139
140 15 2 0 140 140
141 15 2 0 141 141
142 15 2 0 142 142
143 15 2 0 143 143
144 15 2 0 144 144
145 15 2 0 145 145
146 15 2 0 146 146
147 15 2 0 147 147
148 15 2 0 148 148
149 15 2 0 149 149
150 15 2 0 150 150
151 15 2 0 151 151
152 15 2 0 152 152
153 15 2 0 153 153
154 15 2 0 154 154
155 15 2 0 155 155
156 15 2 0 156 156
157 15 2 0 157 157
158 15 2 0 158 158
159 15 2 0 159 159
160 15 2 0 160 160
161 15 2 0 161 161
162 15 2 0 162 162
163 15 2 0 163 163
164 15 2 0 164 164
165 15 2 0 165 165
166 15 2 0 166 166
167 15 2 0 167 167
168 15 2 0 168 168
169 15 2 0 169 169
170 15 2 0 170 170
171 15 2 0 171 171
172 15 2 0 172 172
173 15 2 0 173 173
174 15 2 0 174 174
175 15 2 0 175 175
176 15 2 0 176 176
177 15 2 0 177 177
178 15 2 0 178 178
179 15 2 0 179 179
180 15 2 0 180 180
181 15 2 0 181 181
182 15 2 0 182 182
183 15 2 0 183 183
184 15 2 0 184 184
185 15 2 0 185 185
186 15 2 0 186 186
187 15 2 0 187 187
188 15 2 0 188 188
189 15 2 0 189 189
190 15 2 0 190 190
191 15 2 0 191 191
192 15 2 0 192 192
193 15 2 0 193 193
194 15 2 0 194 194
195 15 2 0 195 195
196 15 2 0 196 196
197 15 2 0 197 197
198 15 2 0 198 198
199 15 2 0 199 199
200 15 2 0 200 200
201 15 2 0 201 201
202 15 2 0 202 202
203 15 2 0 203 203
204 15 2 0 204 204
205 15 2 0 205 205
206 15 2 0 206 206
207 15 2 0 207 207
208 15 2 0 208 208
209 15 2 0 209 209
210 15 2 0 210 210
211 15 2 0 211 211
212 15 2 0 212 212
213 15 2 0 213 213
214 15 2 0 214 214
215 15 2 0 215 215
216 15 2 0 216 216
217 15 2 0 217 217
218 15 2 0 218 218
219 15 2 0 219 219
220 15 2 0 220 220
221 15 2 0 221 221
222 15 2 0 222 222
223 15 2 0 223 223
224 15 2 0 224 224
225 15 2 0 225 225
226 15 2 0 226 226
227 15 2 0 227 227
228 15 2 0 228 228
229 15 2 0 229 229
230 15 2 0 230 230
231 15 2 0 231 231
232 15 2 0 232 232
233 15 2 0 233 233
234 15 2 0 234 234
235 15 2 0 235 235
236 15 2 0 236 236
237 15 2 0 237 237
238 15 2 0 238 238
239 15 2 0 239 239
240 15 2 0 240 240
241 15 2 0 241 241
242 15 2 0 242 242
243 15 2 0 243 243
244 15 2 0 244 244
245 15 2 0 245 245
246 15 2 0 246 246
247 15 2 0 247 247
248 15 2 0 248 248
249 15 2 0 249 249
250 15 2 0 250 250
251 15 2 0 251 251
252 15 2 0 252 252
253 15 2 0 253 253
254 15 2 0 254 254
255 15 2 0 255 255
256 15 2 0 256 256
257 15 2 0 257 257
258 15 2 0 258 258
259 15 2 0 259 259
260 15 2 0 260 260
261 15 2 0 261 261
262 15 2 0 262 262
263 15 2 0 263 263
264 15 2 0 264 264
265 15 2 0 265 265
266 15 2 0 266 266
267 15 2 0 267 267
268 15 2 0 268 268
269 15 2 0 269 269
270 15 2 0 270 270
271 15 2 0 271 271
272 15 2 0 272 272
273 15 2 0 273 273
274 15 2 0 274 274
275 15 2 0 275 275
276 15 2 0 276 276
277 15 2 0 277 277
278 15 2 0 278 278
279 15 2 0 279 279
280 15 2 0 280 280
281 15 2 0 281 281
282 15 2 0 282 282
283 15 2 0 283 283
284 15 2 0 284 284
285 15 2 0 285 285
286 15 2 0 286 286
287 15 2 0 287 287
288 15 2 0 288 288
289 15 2 0 289 289
290 15 2 0 290 290
291 15 2 0 291 291
292 15 2 0 292 292
293 15 2 0 293 293
294 15 2 0 294 294
295 15 2 0 295 295
296 15 2 0 296 296
297 15 2 0 297 297
298 15 2 0 298 298
299 15 2 0 299 299
300 15 2 0 300 300
301 15 2 0 301 301
302 15 2 0 302 302
303 15 2 0 303 303
304 15 2 0 304 304
305 15 2 0 305 305
306 15 2 0 306 306
307 15 2 0 307 307
308 15 2 0 308 308
309 15 2 0 309 309
310 15 2 0 310 310
311 15 2 0 311 311
312 15 2 0 312 312
313 1 2 0 1 1 25
314 1 2 0 2 1 2
315 1 2 0 3 2 26
316 1 2 0 4 2 3
317 1 2 0 5 3 27
318 1 2 0 6 3 4
319 1 2 0 7 4 28
320 1 2 0 8 4 5
321 1 2 0 9 5 29
322 1 2 0 10 5 6
323 1 2 0 11 6 30
324 1 2 0 12 6 7
325 1 2 0 13 7 31
326 1 2 0 14 7 8
327 1 2 0 15 8 32
328 1 2 0 16 8 9
329 1 2 0 17 9 33
330 1 2 0 18 9 10
331 1 2 0 19 10 34
332 1 2 0 20 10 11
333 1 2 0 21 11 35
334 1 2 0 22 11 12
335 1 2 0 23 12 36
336 1 2 0 24 12 13
337 1 2 0 25 13 37
338 1 2 0 26 13 14
339 1 2 0 27 14 38
340 1 2 0 28 14 15
341 1 2 0 29 15 39
342 1 2 0 30 15 16
343 1 2 0 31 16 40
344 1 2 0 32 16 17
345 1 2 0 33 17 41
346 1 2 0 34 17 18
347 1 2 0 35 18 42
348 1 2 0 36 18 19
349 1 2 0 37 19 43
350 1 2 0 38 19 20
351 1 2 0 39 20 44
352 1 2 0 40 20 21
353 1 2 0 41 21 45
354 1 2 0 42 21 22
355 1 2 0 43 22 46
356 1 2 0 44 22 23
357 1 2 0 45 23 47
358 1 2 0 46 23 24
359 1 2 0 47 24 48
360 1 2 0 48 24 1
361 1 2 0 49 25 49
362 1 2 0 50 25 26
363 1 2 0 51 26 50
364 1 2 0 52 26 27
365 1 2 0 53 27 51
366 1 2 0 54 27 28
367 1 2 0 55 28 52
368 1 2 0 56 28 29
369 1 2 0 57 29 53
370 1 2 0 58 29 30
371 1 2 0 59 30 54
372 1 2 0 60 30 31
373 1 2 0 61 31 55
374 1 2 0 62 31 32
375 1 2 0 63 32 56
376 1 2 0 64 32 33
377 1 2 0 65 33 57
378 1 2 0 66 33 34
379 1 2 0 67 34 58
380 1 2 0 68 34 35
381 1 2 0 69 35 59
382 1 2 0 70 35 36
383 1 2 0 71 36 60
384 1 2 0 72 36 37
385 1 2 0 73 37 61
386 1 2 0 74 37 38
387 1 2 0 75 38 62
388 1 2 0 76 38 39
389 1 2 0 77 39 63
390 1 2 0 78 39 40
391 1 2 0 79 40 64
392 1 2 0 80 40 41
393 1 2 0 81 41 65
394 1 2 0 82 41 42
395 1 2 0 83 42 66
396 1 2 0 84 42 43
397 1 2 0 85 43 67
398 1 2 0 86 43 44
399 1 2 0 87 44 68
400 1 2 0 88 44 45
401 1 2 0 89 45 69
402 1 2 0 90 45 46
403 1 2 0 91 46 70
404 1 2 0 92 46 47
405 1 2 0 93 47 71
406 1 2 0 94 47 48
407 1 2 0 95 48 72
408 1 2 0 96 48 25
409 1 2 0 97 49 73
410 1 2 0 98 49 50
411 1 2 0 99 50 74
412 1 2 0 100 50 51
413 1 2 0 101 51 75
414 1 2 0 102 51 52
415 1 2 0 103 52 76
416 1 2 0 104 52 53
417 1 2 0 105 53 77
418 1 2 0 106 53 54
419 1 2 0 107 54 78
420 1 2 0 108 54 55
421 1 2 0 109 55 79
422 1 2 0 110 55 56
423 1 2 0 111 56 80
424 1 2 0 112 56 57
425 1 2 0 113 57 81
426 1 2 0 114 57 58
427 1 2 0 115 58 82
428 1 2 0 116 58 59
429 1 2 0 117 59 83
430 1 2 0 118 59 60
431 1 2 0 119 60 84
432 1 2 0 120 60 61
433 1 2 0 121 61 85
434 1 2 0 122 61 62
435 1 2 0 123 62 86
436 1 2 0 124 62 63
437 1 2 0 125 63 87
438 1 2 0 126 63 64
439 1 2 0 127 64 88
440 1 2 0 128 64 65
441 1 2 0 129 65 89
442 1 2 0 130 65 66
443 1 2 0 131 66 90
444 1 2 0 132 66 67
445 1 2 0 133 67 91
446 1 2 0 134 67 68
447 1 2 0 135 68 92
448 1 2 0 136 68 69
449 1 2 0 137 69 93
450 1 2 0 138 69 70
451 1 2 0 139 70 94
452 1 2 0 140 70 71
453 1 2 0 141 71 95
454 1 2 0 142 71 72
455 1 2 0 143 72 96
456 1 2 0 144 72 49
457 1 2 0 145 73 97
458 1 2 0 146 73 74
459 1 2 0 147 74 98
460 1 2 0 148 74 75
461 1 2 0 149 75 99
462 1 2 0 150 75 76
463 1 2 0 151 76 100
464 1 2 0 152 76 77
465 1 2 0 153 77 101
466 1 2 0 154 77 78
467 1 2 0 155 78 102
468 1 2 0 156 78 79
469 1 2 0 157 79 103
470 1 2 0 158 79 80
471 1 2 0 159 80 104
472 1 2 0 160 80 81
473 1 2 0 161 81 105
474 1 2 0 162 81 82
475 1 2 0 163 82 106
476 1 2 0 164 82 83
477 1 2 0 165 83 107
478 1 2 0 166 83 84
479 1 2 0 167 84 108
480 1 2 0 168 84 85
481 1 2 0 169 85 109
482 1 2 0 170 85 86
483 1 2 0 171 86 110
484 1 2 0 172 86 87
485 1 2 0 173 87 111
486 1 2 0 174 87 88
487 1 2 0 175 88 112
488 1 2 0 176 88 89
489 1 2 0 177 89 113
490 1 2 0 178 89 90
491 1 2 0 179 90 114
492 1 2 0 180 90 91
493 1 2 0 181 91 115
494 1 2 0 182 91 92
495 1 2 0 183 92 116
496 1 2 0 184 92 93
497 1 2 0 185 93 117
498 1 2 0 186 93 94
499 1 2 0 187 94 118
500 1 2 0 188 94 95
501 1 2 0 189 95 119
502 1 2 0 190 95 96
503 1 2 0 191 96 120
504 1 2 0 192 96 73
505 1 2 0 193 97 121
506 1 2 0 194 97 98
507 1 2 0 195 98 122
508 1 2 0 196 98 99
509 1 2 0 197 99 123
510 1 2 0 198 99 100
511 1 2 0 199 100 124
512 1 2 0 200 100 101
513 1 2 0 201 101 125
514 1 2 0 202 101 102
515 1 2 0 203 102 126
516 1 2 0 204 102 103
517 1 2 0 205 103 127
518 1 2 0 206 103 104
519 1 2 0 207 104 128
520 1 2 0 208 104 105
521 1 2 0 209 105 129
522 1 2 0 210 105 106
523 1 2 0 211 106 130
524 1 2 0 212 106 107
525 1 2 0 213 107 131
526 1 2 0 214 107 108
527 1 2 0 215 108 132
528 1 2 0 216 108 109
529 1 2 0 217 109 133
530 1 2 0 218 109 110
531 1 2 0 219 110 134
532 1 2 0 220 110 111
533 1 2 0 221 111 135
534 1 2 0 222 111 112
535 1 2 0 223 112 136
536 1 2 0 224 112 113
537 1 2 0 225 113 137
538 1 2 0 226 113 114
539 1 2 0 227 114 138
540 1 2 0 228 114 115
541 1 2 0 229 115 139
542 1 2 0 230 115 116
543 1 2 0 231 116 140
544 1 2 0 232 116 117
545 1 2 0 233 117 141
546 1 2 0 234 117 118
547 1 2 0 235 118 142
548 1 2 0 236 118 119
549 1 2 0 237 119 143
550 1 2 0 238 119 120
551 1 2 0 239 120 144
552 1 2 0 240 120 97
553 1 2 0 241 121 145
554 1 2 0 242 121 122
555 1 2 0 243 122 146
556 1 2 0 244 122 123
557 1 2 0 245 123 147
558 1 2 0 246 123 124
559 1 2 0 247 124 148
560 1 2 0 248 124 125
561 1 2 0 249 125 149
562 1 2 0 250 125 126
563 1 2 0 251 126 150
564 1 2 0 252 126 127
565 1 2 0 253 127 151
566 1 2 0 254 127 128
567 1 2 0 255 128 152
568 1 2 0 256 128 129
569 1 2 0 257 129 153
570 1 2 0 258 129 130
571 1 2 0 259 130 154
572 1 2 0 260 130 131
573 1 2 0 261 131 155
574 1 2 0 262 131 132
575 1 2 0 263 132 156
576 1 2 0 264 132 133
577 1 2 0 265 133 157
578 1 2 0 266 133 134
579 1 2 0 267 134 158
580 1 2 0 268 134 135
581 1 2 0 269 135 159
582 1 2 0 270 135 136
583 1 2 0 271 136 160
584 1 2 0 272 136 137
585 1 2 0 273 137 161
586 1 2 0 274 137 138
587 1 2 0 275 138 162
588 1 2 0 276 138 139
589 1 2 0 277 139 163
590 1 2 0 278 139 140
591 1 2 0 279 140 164
592 1 2 0 280 140 141
593 1 2 0 281 141 165
594 1 2 0 282 141 142
595 1 2 0 283 142 166
596 1 2 0 284 142 143
597 1 2 0 285 143 167
598 1 2 0 286 143 144
599 1 2 0 287 144 168
600 1 2 0 288 144 121
601 1 2 0 289 145 169
602 1 2 0 290 145 146
603 1 2 0 291 146 170
604 1 2 0 292 146 147
605 1 2 0 293 147 171
606 1 2 0 294 147 148
607 1 2 0 295 148 172
608 1 2 0 296 148 149
609 1 2 0 297 149 173
610 1 2 0 298 149 150
611 1 2 0 299 150 174
612 1 2 0 300 150 313
613 1 2 0 300 313 151
614 1 2 0 301 151 175
615 1 2 0 302 151 314
616 1 2 0 302 314 152
617 1 2 0 303 152 176
618 1 2 0 304 152 153
619 1 2 0 305 153 177
620 1 2 0 306 153 154
621 1 2 0 307 154 178
622 1 2 0 308 154 155
623 1 2 0 309 155 179
624 1 2 0 310 155 156
625 1 2 0 311 156 180
626 1 2 0 312 156 157
627 1 2 0 313 157 181
628 1 2 0 314 157 158
629 1 2 0 315 158 182
630 1 2 0 316 158 159
631 1 2 0 317 159 183
632 1 2 0 318 159 160
633 1 2 0 319 160 184
634 1 2 0 320 160 161
635 1 2 0 321 161 185
636 1 2 0 322 161 162
637 1 2 0 323 162 186
638 1 2 0 324 162 315
639 1 2 0 324 315 163
640 1 2 0 325 163 187
641 1 2 0 326 163 316
642 1 2 0 326 316 164
643 1 2 0 327 164 188
644 1 2 0 328 164 165
645 1 2 0 329 165 189
646 1 2 0 330 165 166
647 1 2 0 331 166 190
648 1 2 0 332 166 167
649 1 2 0 333 167 191
650 1 2 0 334 167 168
651 1 2 0 335 168 192
652 1 2 0 336 168 145
653 1 2 0 337 169 193
654 1 2 0 338 169 317
655 1 2 0 338 317 170
656 1 2 0 339 170 194
657 1 2 0 340 170 171
658 1 2 0 341 171 195
659 1 2 0 342 171 172
660 1 2 0 343 172 196
661 1 2 0 344 172 173
662 1 2 0 345 173 197
663 1 2 0 346 173 174
664 1 2 0 347 174 198
665 1 2 0 348 174 318
666 1 2 0 348 318 175
667 1 2 0 349 175 199
668 1 2 0 350 175 319
669 1 2 0 350 319 176
670 1 2 0 351 176 200
671 1 2 0 352 176 177
672 1 2 0 353 177 201
673 1 2 0 354 177 178
674 1 2 0 355 178 202
675 1 2 0 356 178 179
676 1 2 0 357 179 203
677 1 2 0 358 179 180
678 1 2 0 359 180 204
679 1 2 0 360 180 320
680 1 2 0 360 320 181
681 1 2 0 361 181 205
682 1 2 0 362 181 321
683 1 2 0 362 321 182
684 1 2 0 363 182 206
685 1 2 0 364 182 183
686 1 2 0 365 183 207
687 1 2 0 366 183 184
688 1 2 0 367 184 208
689 1 2 0 368 184 185
690 1 2 0 369 185 209
691 1 2 0 370 185 186
692 1 2 0 371 186 210
693 1 2 0 372 186 322
694 1 2 0 372 322 187
695 1 2 0 373 187 211
696 1 2 0 374 187 323
697 1 2 0 374 323 188
698 1 2 0 375 188 212
699 1 2 0 376 188 189
700 1 2 0 377 189 213
701 1 2 0 378 189 190
702 1 2 0 379 190 214
703 1 2 0 380 190 191
704 1 2 0 381 191 215
705 1 2 0 382 191 192
706 1 2 0 383 192 216
707 1 2 0 384 192 324
708 1 2 0 384 324 169
709 1 2 0 385 193 217
710 1 2 0 386 193 325
711 1 2 0 386 325 194
712 1 2 0 387 194 218
713 1 2 0 388 194 195
714 1 2 0 389 195 219
715 1 2 0 390 195 196
716 1 2 0 391 196 220
717 1 2 0 392 196 197
718 1 2 0 393 197 221
719 1 2 0 394 197 198
720 1 2 0 395 198 222
721 1 2 0 396 198 326
722 1 2 0 396 326 327
723 1 2 0 396 327 199
724 1 2 0 397 199 223
725 1 2 0 398 199 328
726 1 2 0 398 328 329
727 1 2 0 398 329 200
728 1 2 0 399 200 224
729 1 2 0 400 200 201
730 1 2 0 401 201 225
731 1 2 0 402 201 202
732 1 2 0 403 202 226
733 1 2 0 404 202 203
734 1 2 0 405 203 227
735 1 2 0 406 203 204
736 1 2 0 407 204 228
737 1 2 0 408 204 330
738 1 2 0 408 330 205
739 1 2 0 409 205 229
740 1 2 0 410 205 331
741 1 2 0 410 331 206
742 1 2 0 411 206 230
743 1 2 0 412 206 207
744 1 2 0 413 207 231
745 1 2 0 414 207 208
746 1 2 0 415 208 232
747 1 2 0 416 208 209
748 1 2 0 417 209 233
749 1 2 0 418 209 210
750 1 2 0 419 210 234
751 1 2 0 420 210 332
752 1 2 0 420 332 333
753 1 2 0 420 333 211
754 1 2 0 421 211 235
755 1 2 0 422 211 334
756 1 2 0 422 334 335
757 1 2 0 422 335 212
758 1 2 0 423 212 236
759 1 2 0 424 212 213
760 1 2 0 425 213 237
761 1 2 0 426 213 214
762 1 2 0 427 214 238
763 1 2 0 428 214 215
764 1 2 0 429 215 239
765 1 2 0 430 215 216
766 1 2 0 431 216 240
767 1 2 0 432 216 336
768 1 2 0 432 336 193
769 1 2 0 433 217 241
770 1 2 0 434 217 337
771 1 2 0 434 337 338
772 1 2 0 434 338 218
773 1 2 0 435 218 242
774 1 2 0 436 218 219
775 1 2 0 437 219 243
776 1 2 0 438 219 220
777 1 2 0 439 220 244
778 1 2 0 440 220 221
779 1 2 0 441 221 245
780 1 2 0 442 221 222
781 1 2 0 443 222 246
782 1 2 0 444 222 339
783 1 2 0 444 339 340
784 1 2 0 444 340 223
785 1 2 0 445 223 247
786 1 2 0 446 223 341
787 1 2 0 446 341 342
788 1 2 0 446 342 224
789 1 2 0 447 224 248
790 1 2 0 448 224 225
791 1 2 0 449 225 249
792 1 2 0 450 225 226
793 1 2 0 451 226 250
794 1 2 0 452 226 227
795 1 2 0 453 227 251
796 1 2 0 454 227 228
797 1 2 0 455 228 252
798 1 2 0 456 228 343
799 1 2 0 456 343 344
800 1 2 0 456 344 229
801 1 2 0 457 229 253
802 1 2 0 458 229 345
803 1 2 0 458 345 346
804 1 2 0 458 346 230
805 1 2 0 459 230 254
806 1 2 0 460 230 231
807 1 2 0 461 231 255
808 1 2 0 462 231 232
809 1 2 0 463 232 256
810 1 2 0 464 232 233
811 1 2 0 465 233 257
812 1 2 0 466 233 234
813 1 2 0 467 234 258
814 1 2 0 468 234 347
815 1 2 0 468 347 348
816 1 2 0 468 348 235
817 1 2 0 469 235 259
818 1 2 0 470 235 349
819 1 2 0 470 349 350
820 1 2 0 470 350 236
821 1 2 0 471 236 260
822 1 2 0 472 236 237
823 1 2 0 473 237 261
824 1 2 0 474 237 238
825 1 2 0 475 238 262
826 1 2 0 476 238 239
827 1 2 0 477 239 263
828 1 2 0 478 239 240
829 1 2 0 479 240 264
830 1 2 0 480 240 351
831 1 2 0 480 351 352
832 1 2 0 480 352 217
833 1 2 0 481 241 265
834 1 2 0 482 241 353
835 1 2 0 482 353 354
836 1 2 0 482 354 355
837 1 2 0 482 355 242
838 1 2 0 483 242 266
839 1 2 0 484 242 243
840 1 2 0 485 243 267
841 1 2 0 486 243 244
842 1 2 0 487 244 268
843 1 2 0 488 244 245
844 1 2 0 489 245 269
845 1 2 0 490 245 246
846 1 2 0 491 246 270
847 1 2 0 492 246 356
848 1 2 0 492 356 357
849 1 2 0 492 357 358
850 1 2 0 492 358 247
851 1 2 0 493 247 271
852 1 2 0 494 247 359
853 1 2 0 494 359 360
854 1 2 0 494 360 361
855 1 2 0 494 361 248
856 1 2 0 495 248 272
857 1 2 0 496 248 249
858 1 2 0 497 249 273
859 1 2 0 498 249 250
860 1 2 0 499 250 274
861 1 2 0 500 250 251
862 1 2 0 501 251 275
863 1 2 0 502 251 252
864 1 2 0 503 252 276
865 1 2 0 504 252 362
866 1 2 0 504 362 363
867 1 2 0 504 363 364
868 1 2 0 504 364 253
869 1 2 0 505 253 277
870 1 2 0 506 253 365
871 1 2 0 506 365 366
872 1 2 0 506 366 367
873 1 2 0 506 367 254
874 1 2 0 507 254 278
875 1 2 0 508 254 255
876 1 2 0 509 255 279
877 1 2 0 510 255 256
878 1 2 0 511 256 280
879 1 2 0 512 256 257
880 1 2 0 513 257 281
881 1 2 0 514 257 258
882 1 2 0 515 258 282
883 1 2 0 516 258 368
884 1 2 0 516 368 369
885 1 2 0 516 369 370
886 1 2 0 516 370 259
887 1 2 0 517 259 283
888 1 2 0 518 259 371
889 1 2 0 518 371 372
890 1 2 0 518 372 373
891 1 2 0 518 373 260
892 1 2 0 519 260 284
893 1 2 0 520 260 261
894 1 2 0 521 261 285
895 1 2 0 522 261 262
896 1 2 0 523 262 286
897 1 2 0 524 262 263
898 1 2 0 525 263 287
899 1 2 0 526 263 264
900 1 2 0 527 264 288
901 1 2 0 528 264 374
902 1 2 0 528 374 375
903 1 2 0 528 375 376
904 1 2 0 528 376 241
905 1 2 0 529 265 289
906 1 2 0 530 265 377
907 1 2 0 530 377 378
908 1 2 0 530 378 379
909 1 2 0 530 379 266
910 1 2 0 531 266 290
911 1 2 0 532 266 267
912 1 2 0 533 267 291
913 1 2 0 534 267 268
914 1 2 0 535 268 292
915 1 2 0 536 268 269
916 1 2 0 537 269 293
917 1 2 0 538 269 270
918 1 2 0 539 270 294
919 1 2 0 540 270 380
920 1 2 0 540 380 381
921 1 2 0 540 381 382
922 1 2 0 540 382 271
923 1 2 0 541 271 295
924 1 2 0 542 271 383
925 1 2 0 542 383 384
926 1 2 0 542 384 385
927 1 2 0 542 385 272
928 1 2 0 543 272 296
929 1 2 0 544 272 273
930 1 2 0 545 273 297
931 1 2 0 546 273 274
932 1 2 0 547 274 298
933 1 2 0 548 274 275
934 1 2 0 549 275 299
935 1 2 0 550 275 276
936 1 2 0 551 276 300
937 1 2 0 552 276 386
938 1 2 0 552 386 387
939 1 2 0 552 387 388
940 1 2 0 552 388 277
941 1 2 0 553 277 301
942 1 2 0 554 277 389
943 1 2 0 554 389 390
944 1 2 0 554 390 391
945 1 2 0 554 391 278
946 1 2 0 555 278 302
947 1 2 0 556 278 279
948 1 2 0 557 279 303
949 1 2 0 558 279 280
950 1 2 0 559 280 304
951 1 2 0 560 280 281
952 1 2 0 561 281 305
953 1 2 0 562 281 282
954 1 2 0 563 282 306
955 1 2 0 564 282 392
956 1 2 0 564 392 393
957 1 2 0 564 393 394
958 1 2 0 564 394 283
959 1 2 0 565 283 307
960 1 2 0 566 283 395
961 1 2 0 566 395 396
962 1 2 0 566 396 397
963 1 2 0 566 397 284
964 1 2 0 567 284 308
965 1 2 0 568 284 285
966 1 2 0 569 285 309
967 1 2 0 570 285 286
968 1 2 0 571 286 310
969 1 2 0 572 286 287
970 1 2 0 573 287 311
971 1 2 0 574 287 288
972 1 2 0 575 288 312
973 1 2 0 576 288 398
974 1 2 0 576 398 399
975 1 2 0 576 399 400
976 1 2 0 576 400 265
977 1 2 0 578 289 401
978 1 2 0 578 401 402
979 1 2 0 578 402 403
980 1 2 0 578 403 290
981 1 2 0 580 290 291
982 1 2 0 582 291 292
983 1 2 0 584 292 293
984 1 2 0 586 293 294
985 1 2 0 588 294 404
986 1 2 0 588 404 405
987 1 2 0 588 405 406
988 1 2 0 588 406 407
989 1 2 0 588 407 295
990 1 2 0 590 295 408
991 1 2 0 590 408 409
992 1 2 0 590 409 410
993 1 2 0 590 410 411
994 1 2 0 590 411 296
995 1 2 0 592 296 297
996 1 2 0 594 297 298
997 1 2 0 596 298 299
998 1 2 0 598 299 300
999 1 2 0 600 300 412
1000 1 2 0 600 412 413
1001 1 2 0 600 413 414
1002 1 2 0 600 414 301
1003 1 2 0 602 301 415
1004 1 2 0 602 415 416
1005 1 2 0 602 416 417
1006 1 2 0 602 417 302
1007 1 2 0 604 302 303
1008 1 2 0 606 303 304
1009 1 2 0 608 304 305
1010 1 2 0 610 305 306
1011 1 2 0 612 306 418
1012 1 2 0 612 418 419
1013 1 2 0 612 419 420
1014 1 2 0 612 420 421
1015 1 2 0 612 421 307
1016 1 2 0 614 307 422
1017 1 2 0 614 422 423
1018 1 2 0 614 423 424
1019 1 2 0 614 424 425
1020 1 2 0 614 425 308
1021 1 2 0 616 308 309
1022 1 2 0 618 309 310
1023 1 2 0 620 310 311
1024 1 2 0 622 311 312
1025 1 2 0 624 312 426
1026 1 2 0 624 426 427
1027 1 2 0 624 427 428
1028 1 2 0 624 428 289
1029 2 2 0 38 26 2 429
1030 2 2 0 38 1 25 429
1031 2 2 0 38 2 1 429
1032 2 2 0 38 25 26 429
1033 2 2 0 39 26 3 2
1034 2 2 0 39 27 3 26
1035 2 2 0 40 27 4 3
1036 2 2 0 40 28 4 27
1037 2 2 0 41 28 5 4
1038 2 2 0 41 29 5 28
1039 2 2 0 42 29 6 5
1040 2 2 0 42 30 6 29
1041 2 2 0 43 6 30 430
1042 2 2 0 43 31 7 430
1043 2 2 0 43 7 6 430
1044 2 2 0 43 30 31 430
1045 2 2 0 44 32 8 431
1046 2 2 0 44 7 31 431
1047 2 2 0 44 8 7 431
1048 2 2 0 44 31 32 431
1049 2 2 0 45 33 9 8
1050 2 2 0 45 32 33 8
1051 2 2 0 46 34 10 9
1052 2 2 0 46 33 34 9
1053 2 2 0 47 35 11 10
1054 2 2 0 47 34 35 10
1055 2 2 0 48 36 12 11
1056 2 2 0 48 35 36 11
1057 2 2 0 49 12 36 432
1058 2 2 0 49 37 13 432
1059 2 2 0 49 13 12 432
1060 2 2 0 49 36 37 432
1061 2 2 0 50 38 14 433
1062 2 2 0 50 13 37 433
1063 2 2 0 50 14 13 433
1064 2 2 0 50 37 38 433
1065 2 2 0 51 38 15 14
1066 2 2 0 51 39 15 38
1067 2 2 0 52 39 16 15
1068 2 2 0 52 40 16 39
1069 2 2 0 53 40 17 16
1070 2 2 0 53 41 17 40
1071 2 2 0 54 41 18 17
1072 2 2 0 54 42 18 41
1073 2 2 0 55 18 42 434
1074 2 2 0 55 43 19 434
1075 2 2 0 55 19 18 434
1076 2 2 0 55 42 43 434
1077 2 2 0 56 44 20 435
1078 2 2 0 56 19 43 435
1079 2 2 0 56 20 19 435
1080 2 2 0 56 43 44 435
1081 2 2 0 57 45 21 20
1082 2 2 0 57 44 45 20
1083 2 2 0 58 46 22 21
1084 2 2 0 58 45 46 21
1085 2 2 0 59 47 23 22
1086 2 2 0 59 46 47 22
1087 2 2 0 60 48 24 23
1088 2 2 0 60 47 48 23
1089 2 2 0 61 24 48 436
1090 2 2 0 61 25 1 436
1091 2 2 0 61 1 24 436
1092 2 2 0 61 48 25 436
1093 2 2 0 62 49 50 437
1094 2 2 0 62 26 25 437
1095 2 2 0 62 50 26 437
1096 2 2 0 62 25 49 437
1097 2 2 0 63 51 27 50
1098 2 2 0 63 50 27 26
1099 2 2 0 64 52 28 51
1100 2 2 0 64 51 28 27
1101 2 2 0 65 53 29 52
1102 2 2 0 65 52 29 28
1103 2 2 0 66 53 30 29
1104 2 2 0 66 54 30 53
1105 2 2 0 67 54 55 438
1106 2 2 0 67 31 30 438
1107 2 2 0 67 30 54 438
1108 2 2 0 67 55 31 438
1109 2 2 0 68 55 56 439
1110 2 2 0 68 32 31 439
1111 2 2 0 68 56 32 439
1112 2 2 0 68 31 55 439
1113 2 2 0 69 57 33 32
1114 2 2 0 69 56 57 32
1115 2 2 0 70 57 58 33
1116 2 2 0 70 58 34 33
1117 2 2 0 71 58 59 34
1118 2 2 0 71 59 35 34
1119 2 2 0 72 59 60 35
1120 2 2 0 72 60 36 35
1121 2 2 0 73 60 61 440
1122 2 2 0 73 37 36 440
1123 2 2 0 73 36 60 440
1124 2 2 0 73 61 37 440
1125 2 2 0 74 61 62 441
1126 2 2 0 74 38 37 441
1127 2 2 0 74 62 38 441
1128 2 2 0 74 37 61 441
1129 2 2 0 75 63 39 62
1130 2 2 0 75 62 39 38
1131 2 2 0 76 64 40 63
1132 2 2 0 76 63 40 39
1133 2 2 0 77 65 41 64
1134 2 2 0 77 64 41 40
1135 2 2 0 78 65 42 41
1136 2 2 0 78 66 42 65
1137 2 2 0 79 66 67 442
1138 2 2 0 79 43 42 442
1139 2 2 0 79 42 66 442
1140 2 2 0 79 67 43 442
1141 2 2 0 80 67 68 443
1142 2 2 0 80 44 43 443
1143 2 2 0 80 68 44 443
1144 2 2 0 80 43 67 443
1145 2 2 0 81 69 45 44
1146 2 2 0 81 68 69 44
1147 2 2 0 82 69 70 45
1148 2 2 0 82 70 46 45
1149 2 2 0 83 70 71 46
1150 2 2 0 83 71 47 46
1151 2 2 0 84 71 72 47
1152 2 2 0 84 72 48 47
1153 2 2 0 85 72 49 444
1154 2 2 0 85 25 48 444
1155 2 2 0 85 48 72 444
1156 2 2 0 85 49 25 444
1157 2 2 0 86 74 50 445
1158 2 2 0 86 49 73 445
1159 2 2 0 86 73 74 445
1160 2 2 0 86 50 49 445
1161 2 2 0 87 74 51 50
1162 2 2 0 87 75 51 74
1163 2 2 0 88 75 52 51
1164 2 2 0 88 76 52 75
1165 2 2 0 89 76 53 52
1166 2 2 0 89 77 53 76
1167 2 2 0 90 77 54 53
1168 2 2 0 90 78 54 77
1169 2 2 0 91 78 79 446
1170 2 2 0 91 54 78 446
1171 2 2 0 91 79 55 446
1172 2 2 0 91 55 54 446
1173 2 2 0 92 79 80 447
1174 2 2 0 92 80 56 447
1175 2 2 0 92 55 79 447
1176 2 2 0 92 56 55 447
1177 2 2 0 93 81 57 56
1178 2 2 0 93 80 81 56
1179 2 2 0 94 82 58 57
1180 2 2 0 94 81 82 57
1181 2 2 0 95 83 59 58
1182 2 2 0 95 82 83 58
1183 2 2 0 96 84 60 59
1184 2 2 0 96 83 84 59
1185 2 2 0 97 60 84 448
1186 2 2 0 97 85 61 448
1187 2 2 0 97 84 85 448
1188 2 2 0 97 61 60 448
1189 2 2 0 98 86 62 449
1190 2 2 0 98 61 85 449
1191 2 2 0 98 85 86 449
1192 2 2 0 98 62 61 449
1193 2 2 0 99 86 63 62
1194 2 2 0 99 87 63 86
1195 2 2 0 100 87 64 63
1196 2 2 0 100 88 64 87
1197 2 2 0 101 88 65 64
1198 2 2 0 101 89 65 88
1199 2 2 0 102 89 66 65
1200 2 2 0 102 90 66 89
1201 2 2 0 103 90 91 450
1202 2 2 0 103 66 90 450
1203 2 2 0 103 91 67 450
1204 2 2 0 103 67 66 450
1205 2 2 0 104 91 92 451
1206 2 2 0 104 92 68 451
1207 2 2 0 104 67 91 451
1208 2 2 0 104 68 67 451
1209 2 2 0 105 93 69 68
1210 2 2 0 105 92 93 68
1211 2 2 0 106 94 70 69
1212 2 2 0 106 93 94 69
1213 2 2 0 107 95 71 70
1214 2 2 0 107 94 95 70
1215 2 2 0 108 96 72 71
1216 2 2 0 108 95 96 71
1217 2 2 0 109 72 96 452
1218 2 2 0 109 73 49 452
1219 2 2 0 109 96 73 452
1220 2 2 0 109 49 72 452
1221 2 2 0 110 98 74 453
1222 2 2 0 110 73 97 453
1223 2 2 0 110 97 98 453
1224 2 2 0 110 74 73 453
1225 2 2 0 111 98 75 74
1226 2 2 0 111 98 99 75
1227 2 2 0 112 99 76 75
1228 2 2 0 112 99 100 76
1229 2 2 0 113 100 77 76
1230 2 2 0 113 101 77 100
1231 2 2 0 114 101 78 77
1232 2 2 0 114 102 78 101
1233 2 2 0 115 78 102 454
1234 2 2 0 115 102 103 454
1235 2 2 0 115 103 79 454
1236 2 2 0 115 79 78 454
1237 2 2 0 116 104 80 455
1238 2 2 0 116 103 104 455
1239 2 2 0 116 79 103 455
1240 2 2 0 116 80 79 455
1241 2 2 0 117 105 81 80
1242 2 2 0 117 104 105 80
1243 2 2 0 118 106 82 81
1244 2 2 0 118 105 106 81
1245 2 2 0 119 82 107 83
1246 2 2 0 119 106 107 82
1247 2 2 0 120 83 108 84
1248 2 2 0 120 107 108 83
1249 2 2 0 121 84 108 456
1250 2 2 0 121 109 85 456
1251 2 2 0 121 108 109 456
1252 2 2 0 121 85 84 456
1253 2 2 0 122 110 86 457
1254 2 2 0 122 85 109 457
1255 2 2 0 122 109 110 457
1256 2 2 0 122 86 85 457
1257 2 2 0 123 110 87 86
1258 2 2 0 123 110 111 87
1259 2 2 0 124 111 88 87
1260 2 2 0 124 111 112 88
1261 2 2 0 125 112 89 88
1262 2 2 0 125 113 89 112
1263 2 2 0 126 113 90 89
1264 2 2 0 126 114 90 113
1265 2 2 0 127 90 114 458
1266 2 2 0 127 114 115 458
1267 2 2 0 127 115 91 458
1268 2 2 0 127 91 90 458
1269 2 2 0 128 116 92 459
1270 2 2 0 128 115 116 459
1271 2 2 0 128 91 115 459
1272 2 2 0 128 92 91 459
1273 2 2 0 129 117 93 92
1274 2 2 0 129 116 117 92
1275 2 2 0 130 118 94 93
1276 2 2 0 130 117 118 93
1277 2 2 0 131 94 119 95
1278 2 2 0 131 118 119 94
1279 2 2 0 132 95 120 96
1280 2 2 0 132 119 120 95
1281 2 2 0 133 96 120 460
1282 2 2 0 133 97 73 460
1283 2 2 0 133 120 97 460
1284 2 2 0 133 73 96 460
1285 2 2 0 134 121 122 461
1286 2 2 0 134 122 98 461
1287 2 2 0 134 97 121 461
1288 2 2 0 134 98 97 461
1289 2 2 0 135 122 99 98
1290 2 2 0 135 122 123 99
1291 2 2 0 136 123 100 99
1292 2 2 0 136 123 124 100
1293 2 2 0 137 124 101 100
1294 2 2 0 137 125 101 124
1295 2 2 0 138 125 102 101
1296 2 2 0 138 126 102 125
1297 2 2 0 139 126 127 462
1298 2 2 0 139 102 126 462
1299 2 2 0 139 127 103 462
1300 2 2 0 139 103 102 462
1301 2 2 0 140 127 128 463
1302 2 2 0 140 128 104 463
1303 2 2 0 140 103 127 463
1304 2 2 0 140 104 103 463
1305 2 2 0 141 129 105 104
1306 2 2 0 141 128 129 104
1307 2 2 0 142 130 106 105
1308 2 2 0 142 129 130 105
1309 2 2 0 143 106 131 107
1310 2 2 0 143 130 131 106
1311 2 2 0 144 107 132 108
1312 2 2 0 144 131 132 107
1313 2 2 0 145 132 133 464
1314 2 2 0 145 108 132 464
1315 2 2 0 145 133 109 464
1316 2 2 0 145 109 108 464
1317 2 2 0 146 133 134 465
1318 2 2 0 146 134 110 465
1319 2 2 0 146 109 133 465
1320 2 2 0 146 110 109 465
1321 2 2 0 147 134 111 110
1322 2 2 0 147 134 135 111
1323 2 2 0 148 135 112 111
1324 2 2 0 148 135 136 112
1325 2 2 0 149 136 113 112
1326 2 2 0 149 137 113 136
1327 2 2 0 150 137 114 113
1328 2 2 0 150 138 114 137
1329 2 2 0 151 138 139 466
1330 2 2 0 151 114 138 466
1331 2 2 0 151 139 115 466
1332 2 2 0 151 115 114 466
1333 2 2 0 152 139 140 467
1334 2 2 0 152 140 116 467
1335 2 2 0 152 115 139 467
1336 2 2 0 152 116 115 467
1337 2 2 0 153 141 117 116
1338 2 2 0 153 140 141 116
1339 2 2 0 154 142 118 117
1340 2 2 0 154 141 142 117
1341 2 2 0 155 118 143 119
1342 2 2 0 155 142 143 118
1343 2 2 0 156 119 144 120
1344 2 2 0 156 143 144 119
1345 2 2 0 157 144 121 468
1346 2 2 0 157 120 144 468
1347 2 2 0 157 121 97 468
1348 2 2 0 157 97 120 468
1349 2 2 0 158 146 122 469
1350 2 2 0 158 121 145 469
1351 2 2 0 158 122 121 469
1352 2 2 0 158 145 146 469
1353 2 2 0 159 146 123 122
1354 2 2 0 159 146 147 123
1355 2 2 0 160 147 124 123
1356 2 2 0 160 147 148 124
1357 2 2 0 161 148 125 124
1358 2 2 0 161 149 125 148
1359 2 2 0 162 149 126 125
1360 2 2 0 162 150 126 149
1361 2 2 0 163 150 313 126
1362 2 2 0 163 127 126 470
1363 2 2 0 163 126 313 470
1364 2 2 0 163 151 127 470
1365 2 2 0 163 313 151 470
1366 2 2 0 164 128 314 152
1367 2 2 0 164 128 127 471
1368 2 2 0 164 314 128 471
1369 2 2 0 164 127 151 471
1370 2 2 0 164 151 314 471
1371 2 2 0 165 153 129 128
1372 2 2 0 165 152 153 128
1373 2 2 0 166 129 154 130
1374 2 2 0 166 153 154 129
1375 2 2 0 167 130 155 131
1376 2 2 0 167 154 155 130
1377 2 2 0 168 131 156 132
1378 2 2 0 168 155 156 131
1379 2 2 0 169 132 156 472
1380 2 2 0 169 157 133 472
1381 2 2 0 169 133 132 472
1382 2 2 0 169 156 157 472
1383 2 2 0 170 158 134 473
1384 2 2 0 170 133 157 473
1385 2 2 0 170 134 133 473
1386 2 2 0 170 157 158 473
1387 2 2 0 171 158 135 134
1388 2 2 0 171 158 159 135
1389 2 2 0 172 159 136 135
1390 2 2 0 172 159 160 136
1391 2 2 0 173 160 137 136
1392 2 2 0 173 161 137 160
1393 2 2 0 174 161 138 137
1394 2 2 0 174 162 138 161
1395 2 2 0 175 162 315 138
1396 2 2 0 175 139 138 474
1397 2 2 0 175 138 315 474
1398 2 2 0 175 163 139 474
1399 2 2 0 175 315 163 474
1400 2 2 0 176 140 316 164
1401 2 2 0 176 140 139 475
1402 2 2 0 176 316 140 475
1403 2 2 0 176 139 163 475
1404 2 2 0 176 163 316 475
1405 2 2 0 177 165 141 140
1406 2 2 0 177 164 165 140
1407 2 2 0 178 141 166 142
1408 2 2 0 178 165 166 141
1409 2 2 0 179 142 167 143
1410 2 2 0 179 166 167 142
1411 2 2 0 180 143 168 144
1412 2 2 0 180 167 168 143
1413 2 2 0 181 144 168 476
1414 2 2 0 181 145 121 476
1415 2 2 0 181 121 144 476
1416 2 2 0 181 168 145 476
1417 2 2 0 182 169 317 145
1418 2 2 0 182 146 317 170
1419 2 2 0 182 317 146 145
1420 2 2 0 183 170 147 146
1421 2 2 0 183 170 171 147
1422 2 2 0 184 171 148 147
1423 2 2 0 184 171 172 148
1424 2 2 0 185 172 149 148
1425 2 2 0 185 173 149 172
1426 2 2 0 186 173 150 149
1427 2 2 0 186 174 150 173
1428 2 2 0 187 313 318 175
1429 2 2 0 187 174 318 150
1430 2 2 0 187 318 313 150
1431 2 2 0 187 151 313 175
1432 2 2 0 188 319 314 175
1433 2 2 0 188 152 319 176
1434 2 2 0 188 152 314 319
1435 2 2 0 188 175 314 151
1436 2 2 0 189 177 153 152
1437 2 2 0 189 176 177 152
1438 2 2 0 190 178 154 153
1439 2 2 0 190 177 178 153
1440 2 2 0 191 154 179 155
1441 2 2 0 191 178 179 154
1442 2 2 0 192 155 180 156
1443 2 2 0 192 179 180 155
1444 2 2 0 193 157 320 181
1445 2 2 0 193 180 320 156
1446 2 2 0 193 320 157 156
1447 2 2 0 194 181 321 157
1448 2 2 0 194 158 321 182
1449 2 2 0 194 321 158 157
1450 2 2 0 195 182 159 158
1451 2 2 0 195 182 183 159
1452 2 2 0 196 183 160 159
1453 2 2 0 196 183 184 160
1454 2 2 0 197 184 161 160
1455 2 2 0 197 185 161 184
1456 2 2 0 198 185 162 161
1457 2 2 0 198 186 162 185
1458 2 2 0 199 315 322 187
1459 2 2 0 199 186 322 162
1460 2 2 0 199 322 315 162
1461 2 2 0 199 163 315 187
1462 2 2 0 200 323 316 187
1463 2 2 0 200 164 323 188
1464 2 2 0 200 164 316 323
1465 2 2 0 200 187 316 163
1466 2 2 0 201 189 165 164
1467 2 2 0 201 188 189 164
1468 2 2 0 202 190 166 165
1469 2 2 0 202 189 190 165
1470 2 2 0 203 166 191 167
1471 2 2 0 203 190 191 166
1472 2 2 0 204 167 192 168
1473 2 2 0 204 191 192 167
1474 2 2 0 205 169 145 324
1475 2 2 0 205 192 324 168
1476 2 2 0 205 324 145 168
1477 2 2 0 206 194 170 325
1478 2 2 0 206 193 325 477
1479 2 2 0 206 170 317 325
1480 2 2 0 206 325 317 477
1481 2 2 0 206 169 193 477
1482 2 2 0 206 317 169 477
1483 2 2 0 207 194 171 170
1484 2 2 0 207 194 195 171
1485 2 2 0 208 195 172 171
1486 2 2 0 208 195 196 172
1487 2 2 0 209 196 173 172
1488 2 2 0 209 197 173 196
1489 2 2 0 210 197 198 173
1490 2 2 0 210 198 174 173
1491 2 2 0 211 327 318 326
1492 2 2 0 211 326 318 174
1493 2 2 0 211 198 326 174
1494 2 2 0 211 175 318 478
1495 2 2 0 211 199 175 478
1496 2 2 0 211 318 327 478
1497 2 2 0 211 327 199 478
1498 2 2 0 212 319 328 329
1499 2 2 0 212 176 319 329
1500 2 2 0 212 200 176 329
1501 2 2 0 212 319 175 479
1502 2 2 0 212 175 199 479
1503 2 2 0 212 328 319 479
1504 2 2 0 212 199 328 479
1505 2 2 0 213 201 177 200
1506 2 2 0 213 200 177 176
1507 2 2 0 214 202 178 177
1508 2 2 0 214 201 202 177
1509 2 2 0 215 178 203 179
1510 2 2 0 215 202 203 178
1511 2 2 0 216 179 204 180
1512 2 2 0 216 203 204 179
1513 2 2 0 217 204 330 180
1514 2 2 0 217 330 205 480
1515 2 2 0 217 330 320 180
1516 2 2 0 217 320 330 480
1517 2 2 0 217 205 181 480
1518 2 2 0 217 181 320 480
1519 2 2 0 218 182 331 206
1520 2 2 0 218 205 331 481
1521 2 2 0 218 182 321 331
1522 2 2 0 218 331 321 481
1523 2 2 0 218 181 205 481
1524 2 2 0 218 321 181 481
1525 2 2 0 219 206 183 182
1526 2 2 0 219 206 207 183
1527 2 2 0 220 207 184 183
1528 2 2 0 220 207 208 184
1529 2 2 0 221 208 185 184
1530 2 2 0 221 209 185 208
1531 2 2 0 222 209 210 185
1532 2 2 0 222 210 186 185
1533 2 2 0 223 333 322 332
1534 2 2 0 223 332 322 186
1535 2 2 0 223 210 332 186
1536 2 2 0 223 187 322 482
1537 2 2 0 223 211 187 482
1538 2 2 0 223 322 333 482
1539 2 2 0 223 333 211 482
1540 2 2 0 224 335 323 334
1541 2 2 0 224 188 323 335
1542 2 2 0 224 188 335 212
1543 2 2 0 224 323 187 483
1544 2 2 0 224 187 211 483
1545 2 2 0 224 334 323 483
1546 2 2 0 224 211 334 483
1547 2 2 0 225 213 189 212
1548 2 2 0 225 212 189 188
1549 2 2 0 226 214 190 189
1550 2 2 0 226 213 214 189
1551 2 2 0 227 190 215 191
1552 2 2 0 227 214 215 190
1553 2 2 0 228 191 216 192
1554 2 2 0 228 215 216 191
1555 2 2 0 229 216 336 192
1556 2 2 0 229 336 193 484
1557 2 2 0 229 336 324 192
1558 2 2 0 229 324 336 484
1559 2 2 0 229 193 169 484
1560 2 2 0 229 169 324 484
1561 2 2 0 230 325 338 194
1562 2 2 0 230 338 325 337
1563 2 2 0 230 325 193 485
1564 2 2 0 230 194 338 218
1565 2 2 0 230 217 337 485
1566 2 2 0 230 337 325 485
1567 2 2 0 230 193 217 485
1568 2 2 0 231 218 195 194
1569 2 2 0 231 218 219 195
1570 2 2 0 232 219 196 195
1571 2 2 0 232 220 196 219
1572 2 2 0 233 220 221 196
1573 2 2 0 233 221 197 196
1574 2 2 0 234 197 222 198
1575 2 2 0 234 221 222 197
1576 2 2 0 235 327 340 223
1577 2 2 0 235 199 327 223
1578 2 2 0 235 340 326 339
1579 2 2 0 235 222 339 198
1580 2 2 0 235 340 327 326
1581 2 2 0 235 339 326 198
1582 2 2 0 236 341 328 223
1583 2 2 0 236 223 328 199
1584 2 2 0 236 329 341 342
1585 2 2 0 236 224 200 342
1586 2 2 0 236 328 341 329
1587 2 2 0 236 200 329 342
1588 2 2 0 237 224 201 200
1589 2 2 0 237 224 225 201
1590 2 2 0 238 226 202 225
1591 2 2 0 238 225 202 201
1592 2 2 0 239 227 203 202
1593 2 2 0 239 226 227 202
1594 2 2 0 240 203 228 204
1595 2 2 0 240 227 228 203
1596 2 2 0 241 343 330 204
1597 2 2 0 241 344 330 343
1598 2 2 0 241 205 330 486
1599 2 2 0 241 228 343 204
1600 2 2 0 241 344 229 486
1601 2 2 0 241 330 344 486
1602 2 2 0 241 229 205 486
1603 2 2 0 242 206 331 346
1604 2 2 0 242 331 345 346
1605 2 2 0 242 331 205 487
1606 2 2 0 242 230 206 346
1607 2 2 0 242 229 345 487
1608 2 2 0 242 345 331 487
1609 2 2 0 242 205 229 487
1610 2 2 0 243 230 207 206
1611 2 2 0 243 230 231 207
1612 2 2 0 244 231 208 207
1613 2 2 0 244 232 208 231
1614 2 2 0 245 232 233 208
1615 2 2 0 245 233 209 208
1616 2 2 0 246 209 234 210
1617 2 2 0 246 233 234 209
1618 2 2 0 247 333 348 235
1619 2 2 0 247 211 333 235
1620 2 2 0 247 348 332 347
1621 2 2 0 247 234 347 210
1622 2 2 0 247 333 332 348
1623 2 2 0 247 347 332 210
1624 2 2 0 248 349 334 235
1625 2 2 0 248 235 334 211
1626 2 2 0 248 350 335 349
1627 2 2 0 248 212 350 236
1628 2 2 0 248 335 334 349
1629 2 2 0 248 212 335 350
1630 2 2 0 249 236 213 212
1631 2 2 0 249 236 237 213
1632 2 2 0 250 238 214 237
1633 2 2 0 250 237 214 213
1634 2 2 0 251 239 215 214
1635 2 2 0 251 238 239 214
1636 2 2 0 252 215 240 216
1637 2 2 0 252 239 240 215
1638 2 2 0 253 351 336 216
1639 2 2 0 253 352 336 351
1640 2 2 0 253 193 336 488
1641 2 2 0 253 240 351 216
1642 2 2 0 253 352 217 488
1643 2 2 0 253 336 352 488
1644 2 2 0 253 217 193 488
1645 2 2 0 254 218 338 355
1646 2 2 0 254 337 217 489
1647 2 2 0 254 355 338 354
1648 2 2 0 254 338 337 490
1649 2 2 0 254 218 355 242
1650 2 2 0 254 241 353 489
1651 2 2 0 254 353 354 490
1652 2 2 0 254 354 338 490
1653 2 2 0 254 353 337 489
1654 2 2 0 254 217 241 489
1655 2 2 0 254 337 353 490
1656 2 2 0 255 242 219 218
1657 2 2 0 255 242 243 219
1658 2 2 0 256 243 220 219
1659 2 2 0 256 244 220 243
1660 2 2 0 257 245 221 220
1661 2 2 0 257 244 245 220
1662 2 2 0 258 221 246 222
1663 2 2 0 258 245 246 221
1664 2 2 0 259 340 339 492
1665 2 2 0 259 357 358 492
1666 2 2 0 259 246 356 222
1667 2 2 0 259 358 247 491
1668 2 2 0 259 339 357 492
1669 2 2 0 259 247 223 491
1670 2 2 0 259 340 358 491
1671 2 2 0 259 358 340 492
1672 2 2 0 259 223 340 491
1673 2 2 0 259 356 339 222
1674 2 2 0 259 356 357 339
1675 2 2 0 260 342 341 494
1676 2 2 0 260 359 360 494
1677 2 2 0 260 224 361 248
1678 2 2 0 260 247 359 493
1679 2 2 0 260 360 342 494
1680 2 2 0 260 223 247 493
1681 2 2 0 260 359 341 493
1682 2 2 0 260 341 359 494
1683 2 2 0 260 341 223 493
1684 2 2 0 260 224 342 361
1685 2 2 0 260 361 342 360
1686 2 2 0 261 248 225 224
1687 2 2 0 261 248 249 225
1688 2 2 0 262 249 226 225
1689 2 2 0 262 250 226 249
1690 2 2 0 263 251 227 226
1691 2 2 0 263 250 251 226
1692 2 2 0 264 227 252 228
1693 2 2 0 264 251 252 227
1694 2 2 0 265 362 343 228
1695 2 2 0 265 229 344 495
1696 2 2 0 265 362 363 343
1697 2 2 0 265 344 343 496
1698 2 2 0 265 252 362 228
1699 2 2 0 265 364 253 495
1700 2 2 0 265 363 364 496
1701 2 2 0 265 343 363 496
1702 2 2 0 265 344 364 495
1703 2 2 0 265 253 229 495
1704 2 2 0 265 364 344 496
1705 2 2 0 266 367 230 346
1706 2 2 0 266 345 229 497
1707 2 2 0 266 366 367 346
1708 2 2 0 266 346 345 498
1709 2 2 0 266 230 367 254
1710 2 2 0 266 253 365 497
1711 2 2 0 266 365 366 498
1712 2 2 0 266 366 346 498
1713 2 2 0 266 365 345 497
1714 2 2 0 266 229 253 497
1715 2 2 0 266 345 365 498
1716 2 2 0 267 254 231 230
1717 2 2 0 267 254 255 231
1718 2 2 0 268 255 232 231
1719 2 2 0 268 256 232 255
1720 2 2 0 269 257 233 232
1721 2 2 0 269 256 257 232
1722 2 2 0 270 233 258 234
1723 2 2 0 270 257 258 233
1724 2 2 0 271 348 347 500
1725 2 2 0 271 369 370 500
1726 2 2 0 271 258 368 234
1727 2 2 0 271 370 259 499
1728 2 2 0 271 347 369 500
1729 2 2 0 271 259 235 499
1730 2 2 0 271 348 370 499
1731 2 2 0 271 370 348 500
1732 2 2 0 271 235 348 499
1733 2 2 0 271 368 347 234
1734 2 2 0 271 369 347 368
1735 2 2 0 272 350 349 502
1736 2 2 0 272 371 372 502
1737 2 2 0 272 236 373 260
1738 2 2 0 272 259 371 501
1739 2 2 0 272 372 350 502
1740 2 2 0 272 235 259 501
1741 2 2 0 272 371 349 501
1742 2 2 0 272 349 371 502
1743 2 2 0 272 349 235 501
1744 2 2 0 272 373 236 350
1745 2 2 0 272 372 373 350
1746 2 2 0 273 260 237 236
1747 2 2 0 273 260 261 237
1748 2 2 0 274 261 238 237
1749 2 2 0 274 262 238 261
1750 2 2 0 275 263 239 238
1751 2 2 0 275 262 263 238
1752 2 2 0 276 239 264 240
1753 2 2 0 276 263 264 239
1754 2 2 0 277 374 351 240
1755 2 2 0 277 217 352 503
1756 2 2 0 277 375 351 374
1757 2 2 0 277 352 351 504
1758 2 2 0 277 264 374 240
1759 2 2 0 277 376 241 503
1760 2 2 0 277 375 376 504
1761 2 2 0 277 351 375 504
1762 2 2 0 277 352 376 503
1763 2 2 0 277 241 217 503
1764 2 2 0 277 376 352 504
1765 2 2 0 278 355 354 378
1766 2 2 0 278 242 379 266
1767 2 2 0 278 242 355 379
1768 2 2 0 278 377 353 505
1769 2 2 0 278 241 265 505
1770 2 2 0 278 353 241 505
1771 2 2 0 278 265 377 505
1772 2 2 0 278 354 353 377
1773 2 2 0 278 378 354 377
1774 2 2 0 278 379 355 378
1775 2 2 0 279 266 243 242
1776 2 2 0 279 267 243 266
1777 2 2 0 280 267 244 243
1778 2 2 0 280 268 244 267
1779 2 2 0 281 269 245 244
1780 2 2 0 281 268 269 244
1781 2 2 0 282 245 270 246
1782 2 2 0 282 269 270 245
1783 2 2 0 283 270 380 246
1784 2 2 0 283 380 356 246
1785 2 2 0 283 358 382 506
1786 2 2 0 283 271 247 506
1787 2 2 0 283 247 358 506
1788 2 2 0 283 382 271 506
1789 2 2 0 283 357 356 381
1790 2 2 0 283 381 356 380
1791 2 2 0 283 358 357 382
1792 2 2 0 283 382 357 381
1793 2 2 0 284 248 385 272
1794 2 2 0 284 248 361 385
1795 2 2 0 284 383 359 507
1796 2 2 0 284 247 271 507
1797 2 2 0 284 359 247 507
1798 2 2 0 284 271 383 507
1799 2 2 0 284 360 359 383
1800 2 2 0 284 361 360 384
1801 2 2 0 284 384 360 383
1802 2 2 0 284 385 361 384
1803 2 2 0 285 272 249 248
1804 2 2 0 285 272 273 249
1805 2 2 0 286 273 250 249
1806 2 2 0 286 274 250 273
1807 2 2 0 287 275 251 250
1808 2 2 0 287 274 275 250
1809 2 2 0 288 251 276 252
1810 2 2 0 288 275 276 251
1811 2 2 0 289 363 362 387
1812 2 2 0 289 276 386 252
1813 2 2 0 289 386 362 252
1814 2 2 0 289 364 388 508
1815 2 2 0 289 277 253 508
1816 2 2 0 289 253 364 508
1817 2 2 0 289 388 277 508
1818 2 2 0 289 387 362 386
1819 2 2 0 289 364 363 388
1820 2 2 0 289 388 363 387
1821 2 2 0 290 367 366 390
1822 2 2 0 290 254 391 278
1823 2 2 0 290 254 367 391
1824 2 2 0 290 389 365 509
1825 2 2 0 290 253 277 509
1826 2 2 0 290 365 253 509
1827 2 2 0 290 277 389 509
1828 2 2 0 290 366 365 389
1829 2 2 0 290 390 366 389
1830 2 2 0 290 391 367 390
1831 2 2 0 291 278 255 254
1832 2 2 0 291 279 255 278
1833 2 2 0 292 279 256 255
1834 2 2 0 292 280 256 279
1835 2 2 0 293 281 257 256
1836 2 2 0 293 280 281 256
1837 2 2 0 294 257 282 258
1838 2 2 0 294 281 282 257
1839 2 2 0 295 282 392 258
1840 2 2 0 295 392 368 258
1841 2 2 0 295 370 394 510
1842 2 2 0 295 283 259 510
1843 2 2 0 295 259 370 510
1844 2 2 0 295 394 283 510
1845 2 2 0 295 369 368 393
1846 2 2 0 295 393 368 392
1847 2 2 0 295 370 369 394
1848 2 2 0 295 394 369 393
1849 2 2 0 296 260 397 284
1850 2 2 0 296 260 373 397
1851 2 2 0 296 395 371 511
1852 2 2 0 296 259 283 511
1853 2 2 0 296 371 259 511
1854 2 2 0 296 283 395 511
1855 2 2 0 296 372 371 395
1856 2 2 0 296 373 372 396
1857 2 2 0 296 396 372 395
1858 2 2 0 296 397 373 396
1859 2 2 0 297 284 261 260
1860 2 2 0 297 284 285 261
1861 2 2 0 298 285 262 261
1862 2 2 0 298 286 262 285
1863 2 2 0 299 287 263 262
1864 2 2 0 299 286 287 262
1865 2 2 0 300 263 288 264
1866 2 2 0 300 287 288 263
1867 2 2 0 301 375 374 399
1868 2 2 0 301 288 398 264
1869 2 2 0 301 398 374 264
1870 2 2 0 301 376 400 512
1871 2 2 0 301 265 241 512
1872 2 2 0 301 241 376 512
1873 2 2 0 301 400 265 512
1874 2 2 0 301 399 374 398
1875 2 2 0 301 376 375 400
1876 2 2 0 301 400 375 399
1877 2 2 0 302 266 403 290
1878 2 2 0 302 266 379 403
1879 2 2 0 302 403 379 402
1880 2 2 0 302 289 377 265
1881 2 2 0 302 401 377 289
1882 2 2 0 302 378 377 401
1883 2 2 0 302 379 378 402
1884 2 2 0 302 402 378 401
1885 2 2 0 303 290 267 266
1886 2 2 0 303 291 267 290
1887 2 2 0 304 292 268 267
1888 2 2 0 304 291 292 267
1889 2 2 0 305 293 269 268
1890 2 2 0 305 292 293 268
1891 2 2 0 306 269 294 270
1892 2 2 0 306 293 294 269
1893 2 2 0 307 382 407 513
1894 2 2 0 307 295 271 513
1895 2 2 0 307 294 404 270
1896 2 2 0 307 404 380 270
1897 2 2 0 307 271 382 513
1898 2 2 0 307 407 295 513
1899 2 2 0 307 381 380 405
1900 2 2 0 307 405 380 404
1901 2 2 0 307 382 381 406
1902 2 2 0 307 406 381 405
1903 2 2 0 307 407 382 406
1904 2 2 0 308 408 383 514
1905 2 2 0 308 271 295 514
1906 2 2 0 308 383 271 514
1907 2 2 0 308 272 411 296
1908 2 2 0 308 272 385 411
1909 2 2 0 308 295 408 514
1910 2 2 0 308 384 383 409
1911 2 2 0 308 385 384 410
1912 2 2 0 308 410 384 409
1913 2 2 0 308 411 385 410
1914 2 2 0 308 409 383 408
1915 2 2 0 309 296 273 272
1916 2 2 0 309 296 297 273
1917 2 2 0 310 297 274 273
1918 2 2 0 310 298 274 297
1919 2 2 0 311 298 275 274
1920 2 2 0 311 299 275 298
1921 2 2 0 312 300 276 275
1922 2 2 0 312 299 300 275
1923 2 2 0 313 300 412 276
1924 2 2 0 313 412 386 276
1925 2 2 0 313 413 386 412
1926 2 2 0 313 277 388 301
1927 2 2 0 313 388 414 301
1928 2 2 0 313 413 387 386
1929 2 2 0 313 414 388 387
1930 2 2 0 313 414 387 413
1931 2 2 0 314 278 417 302
1932 2 2 0 314 278 391 417
1933 2 2 0 314 417 391 416
1934 2 2 0 314 301 389 277
1935 2 2 0 314 415 389 301
1936 2 2 0 314 390 389 415
1937 2 2 0 314 391 390 416
1938 2 2 0 314 416 390 415
1939 2 2 0 315 302 279 278
1940 2 2 0 315 303 279 302
1941 2 2 0 316 304 280 279
1942 2 2 0 316 303 304 279
1943 2 2 0 317 305 281 280
1944 2 2 0 317 304 305 280
1945 2 2 0 318 281 306 282
1946 2 2 0 318 305 306 281
1947 2 2 0 319 394 421 515
1948 2 2 0 319 307 283 515
1949 2 2 0 319 306 418 282
1950 2 2 0 319 418 392 282
1951 2 2 0 319 283 394 515
1952 2 2 0 319 421 307 515
1953 2 2 0 319 419 393 392
1954 2 2 0 319 419 392 418
1955 2 2 0 319 420 394 393
1956 2 2 0 319 420 393 419
1957 2 2 0 319 421 394 420
1958 2 2 0 320 422 395 516
1959 2 2 0 320 283 307 516
1960 2 2 0 320 395 283 516
1961 2 2 0 320 284 425 308
1962 2 2 0 320 284 397 425
1963 2 2 0 320 307 422 516
1964 2 2 0 320 395 423 396
1965 2 2 0 320 397 396 424
1966 2 2 0 320 396 423 424
1967 2 2 0 320 425 397 424
1968 2 2 0 320 423 395 422
1969 2 2 0 321 308 285 284
1970 2 2 0 321 308 309 285
1971 2 2 0 322 309 286 285
1972 2 2 0 322 310 286 309
1973 2 2 0 323 310 287 286
1974 2 2 0 323 311 287 310
1975 2 2 0 324 312 288 287
1976 2 2 0 324 311 312 287
1977 2 2 0 325 312 426 288
1978 2 2 0 325 426 398 288
1979 2 2 0 325 427 398 426
1980 2 2 0 325 265 400 289
1981 2 2 0 325 400 428 289
1982 2 2 0 325 399 398 427
1983 2 2 0 325 399 428 400
1984 2 2 0 325 428 399 427
$EndElements
