$MeshFormat
2.2 0 8
$EndMeshFormat
$PhysicalNames
4
2 1 "SD1G0"
2 2 "SD1D1001"
2 3 "SD2G0"
2 4 "I1-2"
$EndPhysicalNames
$Nodes
602
1 12.7 0 0
2 9.59 8.326000000000001 0
3 0 12.7 0
4 12.951 0 4.439
5 9.904 8.599 4.439
6 0 12.856 4.439
7 14.569 0 12.398
8 11.84 10.28 12.398
9 0 13.889 12.398
10 19.136 0 24.583
11 16.877 14.654 24.583
12 0 17.01 24.583
13 28.136 0 42.19
14 26.076 22.64 42.19
15 0 23.652 42.19
16 42.04 0 64.90000000000001
17 39.599 34.382 64.90000000000001
18 0 34.547 64.90000000000001
19 61.387 0 91.33
20 57.988 50.348 91.33
21 0 50.388 91.33
22 86.955 0 117.677
23 82.803 71.892 117.677
24 0 72.029 117.677
25 117.891 0 139.519
26 114.266 99.20999999999999 139.519
27 0 98.764 139.519
28 151.89 0 155.894
29 149.927 130.173 155.894
30 0 128.554 155.894
31 183.47 0 166.687
32 183.06 158.94 166.687
33 0 156.626 166.687
34 209.994 0 173.157
35 209.958 182.294 173.157
36 0 180.693 173.157
37 228.228 0 176.057
38 227.168 197.236 176.057
39 0 197.727 176.057
40 0 0 176.057
41 0 0 0
42 0 0 6.057
43 229 0 176.057
44 239 0 166.057
45 239 0 16.057
46 229 0 6.057
47 0 198 176.057
48 0 208 166.057
49 0 208 16.057
50 0 198 6.057
51 229 198 176.057
52 239 198 166.057
53 239 198 16.057
54 229 198 6.057
55 229 208 166.057
56 229 208 16.057
57 10.93734723896552 4.760094791705445 0
58 5.493112245571735 10.21071246787993 0
59 11.22512445578129 4.915445404840388 4.439000000000001
60 5.67310041404513 10.43457694565509 4.438999999999999
61 13.02951273077153 5.876290741195388 12.398
62 6.783026580475824 11.84562268243336 12.398
63 17.87824829368169 8.376308984527796 24.583
64 9.671327718837793 15.70160467309893 24.583
65 14.25338002430215 12.37571654284249 18.23620440661539
66 16.75718871768688 0 18.23620440661587
67 0 15.38436610202253 18.23620440664676
68 27.01466992389032 12.93950024002522 42.19
69 19.92642460378582 22.9731631004623 42.19
70 9.963215834946647 23.31269023516927 42.19
71 21.23002013890116 18.4330215055185 32.91473449131784
72 23.39485218503479 0 32.91473449132306
73 0 20.15303291256957 32.91473449135989
74 41.16737769639354 13.10012577098904 64.90000000000001
75 40.29447087853487 26.2002328930188 64.89999999999999
76 30.26046185165562 34.56762071812904 64.90000000000001
77 15.13023055094265 34.5574806097798 64.90000000000001
78 32.48174917322185 28.20210210692679 52.94756590430143
79 34.72222617055964 0 52.9475659043016
80 0 28.81288421523458 52.94756590435772
81 60.17656943681364 19.1831755435791 91.32999999999998
82 58.96572123239652 38.36632512901441 91.33
83 44.30649332921359 50.5684764847483 91.33
84 22.15324527190397 50.4784818338485 91.33
85 48.30945271221331 41.94473250330076 77.41929224992103
86 51.20423560950606 0 77.41929224992222
87 0 42.05052283511407 77.4192922499883
88 85.86032134308761 20.5440631752513 117.677
89 84.76750398284746 41.08822612409738 117.677
90 83.66926361927543 61.63209965221555 117.677
91 71.13232146869683 72.21608463515615 117.677
92 47.42153938584724 72.1567928989333 117.677
93 23.71077171474693 72.09194040838149 117.677
94 69.87977829889826 60.67225837886215 103.955939264198
95 73.63962895612238 0 103.9559392641957
96 0 60.75874246092391 103.9559392642652
97 116.9862956910965 28.35080577444067 139.519
98 116.0841120156303 56.70169283823274 139.519
99 115.1745840391113 85.0523447528428 139.519
100 104.6095773853729 99.54839433240268 139.519
101 78.45714052768844 99.35804415340496 139.519
102 52.30475911577481 99.16019777056653 139.519
103 26.15238760449432 98.96097873474311 139.519
104 98.05305139344406 85.13297841801814 128.2637724799163
105 101.9496155772692 0 128.263772479917
106 0 84.98739958949868 128.2637725391371
107 151.5832778007045 29.7595657437663 155.894
108 151.2800707577311 59.51916834113975 155.894
109 150.9747036016026 89.27874906694629 155.894
110 150.6575486784481 119.038206103623 155.894
111 114.286267842664 130.1340520458629 155.894
112 85.71468299862329 129.7403490586023 155.894
113 57.14312889192206 129.3443392503431 155.894
114 28.57157704588933 128.9482028821413 155.894
115 131.7478932738715 114.3888189181145 147.5464249841464
116 134.5581402770027 0 147.5464249841442
117 0 113.367785665874 147.5464249841788
118 183.5387558401619 30.2802419934927 166.687
119 183.6113275857109 60.56047534369825 166.687
120 183.6836460403284 90.84070946500091 166.687
121 183.7514012916359 121.1209546942937 166.687
122 183.8034068214396 151.4012296188179 166.687
123 149.4299226123536 158.9015573881598 166.687
124 119.5439042255747 158.4485451642276 166.687
125 89.65792656997039 157.9930114291598 166.687
126 59.77196095864777 157.5366489901442 166.687
127 29.88599111052319 157.0805551723808 166.687
128 166.2784816054899 144.3698149984948 161.2204582430825
129 167.4750598829283 0 161.2204582430793
130 210.1566834820393 34.73015343031143 173.157
131 210.3237012473363 69.46028657055261 173.157
132 210.4904312828633 104.1904213201123 173.157
133 210.6519781320213 138.9205812133782 173.157
134 210.7956354403498 173.6508177745358 173.157
135 171.3411768861453 182.3993390821049 173.157
136 137.0729199441432 182.0600209410045 173.157
137 102.8046890134496 181.7183609475157 173.157
138 68.53646501327847 181.3759312694108 173.157
139 34.26823839505003 181.0337510976986 173.157
140 196.4006987001227 170.5229681553523 169.8959493861921
141 228.2109604114751 32.20916771996964 176.057
142 228.197924416319 64.41834075143505 176.057
143 228.1855850962068 96.62751336314787 176.057
144 228.171083695233 128.836683967101 176.057
145 228.1500055513195 161.0458542701344 176.057
146 228.1082387860164 193.2550018448731 176.0569999999999
147 194.6414917277039 197.7350928567806 176.057
148 162.2012404031533 197.7363049595142 176.057
149 129.7609928475582 197.7350500253904 176.057
150 97.32074373702402 197.7327581850722 176.057
151 64.88049526764181 197.7301963841423 176.057
152 32.44024684498343 197.7280042914337 176.057
153 195.6240000000594 0 176.057
154 163.0200000001411 0 176.057
155 130.4160000002448 0 176.057
156 97.81200000024708 0 176.057
157 65.20800000015913 0 176.057
158 32.60400000008232 0 176.057
159 0 32.95449999993225 176.057
160 0 65.90899999983422 176.057
161 0 98.86349999973757 176.057
162 0 131.8179999998326 176.057
163 0 164.7724999999218 176.057
164 6.349999999983785 0 0
165 0 6.350000000015788 0
166 236.0710678290617 0 173.1280677946692
167 239 0 141.0569999999824
168 239 0 116.0569999999648
169 239 0 91.05700000004995
170 239 0 66.05700000003515
171 239 0 41.05700000001757
172 236.0710677836867 0 8.985932159955798
173 206.0999999999017 0 6.057
174 183.2000000000166 0 6.057
175 160.3000000002026 0 6.057
176 137.4000000003886 0 6.057
177 114.5000000004885 0 6.057
178 91.60000000039304 0 6.057
179 68.70000000029478 0 6.057
180 45.80000000019655 0 6.057
181 22.90000000009829 0 6.057
182 0 205.0710678290617 173.1280677946692
183 0 208 141.0569999999824
184 0 208 116.0569999999648
185 0 208 91.05700000004995
186 0 208 66.05700000003515
187 0 208 41.05700000001757
188 0 205.0710677836867 8.985932159955798
189 0 173.2500000000257 6.057
190 0 148.5000000000513 6.057
191 0 123.750000000077 6.057
192 0 99.00000000009992 6.057
193 0 74.24999999995073 6.057
194 0 49.49999999994864 6.057
195 0 24.74999999997434 6.057
196 22.89999999995079 198 176.057
197 45.7999999998852 198 176.057
198 68.69999999981074 198 176.057
199 91.59999999973627 198 176.057
200 114.4999999996646 198 176.057
201 137.3999999997295 198 176.057
202 160.2999999997971 198 176.057
203 183.1999999998647 198 176.057
204 206.0999999999324 198 176.057
205 236.0710678290617 198 173.1280677946692
206 239 198 141.0569999999824
207 239 198 116.0569999999648
208 239 198 91.05700000004995
209 239 198 66.05700000003515
210 239 198 41.05700000001757
211 236.0710677836867 198 8.985932159955798
212 206.0999999999017 198 6.057
213 183.2000000000166 198 6.057
214 160.3000000002026 198 6.057
215 137.4000000003886 198 6.057
216 114.5000000004885 198 6.057
217 91.60000000039304 198 6.057
218 68.70000000029478 198 6.057
219 45.80000000019655 198 6.057
220 22.90000000009829 198 6.057
221 22.89999999995079 208 166.057
222 45.7999999998852 208 166.057
223 68.69999999981074 208 166.057
224 91.59999999973627 208 166.057
225 114.4999999996646 208 166.057
226 137.3999999997295 208 166.057
227 160.2999999997971 208 166.057
228 183.1999999998647 208 166.057
229 206.0999999999324 208 166.057
230 229 208 141.0569999999824
231 229 208 116.0569999999648
232 229 208 91.05700000004995
233 229 208 66.05700000003515
234 229 208 41.05700000001757
235 206.0999999999017 208 16.057
236 183.2000000000166 208 16.057
237 160.3000000002026 208 16.057
238 137.4000000003886 208 16.057
239 114.5000000004885 208 16.057
240 91.60000000039304 208 16.057
241 68.70000000029478 208 16.057
242 45.80000000019655 208 16.057
243 22.90000000009829 208 16.057
244 229 205.0710678290617 173.1280677946692
245 236.0710677858446 205.0710678378863 166.057
246 236.0710677858446 205.0710678378863 16.057
247 229 205.0710678314624 8.985932207731405
248 229 24.75000000000797 176.057
249 229 49.49999999997809 176.057
250 229 74.24999999994749 176.057
251 229 98.99999999991969 176.057
252 229 123.750000000064 176.057
253 229 148.5000000000612 176.057
254 229 173.2500000000306 176.057
255 239 24.75000000000797 166.057
256 239 49.49999999997809 166.057
257 239 74.24999999994749 166.057
258 239 98.99999999991969 166.057
259 239 123.750000000064 166.057
260 239 148.5000000000612 166.057
261 239 173.2500000000306 166.057
262 239 24.75000000000797 16.057
263 239 49.49999999997809 16.057
264 239 74.24999999994749 16.057
265 239 98.99999999991969 16.057
266 239 123.750000000064 16.057
267 239 148.5000000000612 16.057
268 239 173.2500000000306 16.057
269 229 24.75000000000797 6.057
270 229 49.49999999997809 6.057
271 229 74.24999999994749 6.057
272 229 98.99999999991969 6.057
273 229 123.750000000064 6.057
274 229 148.5000000000612 6.057
275 229 173.2500000000306 6.057
276 10.42648510696 6.655259060466381 2.228182492878917
277 12.34733725031379 4.752873257354582 8.518053601543258
278 3.031563736902054 12.28574689483473 8.4185
279 17.0163967673968 4.448589202846264 21.00961104235903
280 14.81067391077035 5.938701069118757 16.45702329043219
281 16.10673493740877 9.400757572241147 20.91760224154275
282 4.858531015422399 14.55019195885069 18.77367270115739
283 10.88594736201063 13.29959859557129 18.66065056895295
284 22.37913426437535 13.66008791743877 33.8671076635677
285 23.04394317075167 6.214993189273554 33.57767280089828
286 16.72314810081643 20.98156277280501 37.47890277946418
287 14.81148167157284 18.09159394936842 30.91566073862644
288 8.631241447547671 20.4629091792559 35.20677275747994
289 33.07977802167858 10.38435841114247 51.55941240494828
290 30.87440410851076 19.32200836121114 49.14424321913579
291 36.29920383669421 21.53748798224434 58.02337462196895
292 24.76971745934886 29.7953158078784 55.52723619901184
293 14.4790794349753 28.48286716202846 52.69306615619151
294 6.628189573828103 31.64020234868256 58.92378295217886
295 51.21733331650992 15.29235592901334 78.78349519425933
296 51.37934273813632 32.19148783084102 80.48328687633321
297 36.73179177997866 43.51623638108451 79.68730633641695
298 17.24892461363935 42.81327443438376 78.61243243114922
299 47.05562659402581 46.70240694581618 84.91329369360386
300 78.49096766640598 56.23105570821501 112.1331614463838
301 71.01850362418773 43.31930881494254 103.8242482866055
302 72.85356026074416 23.57399339887383 104.5378097607281
303 35.80211766828767 61.61776116169838 104.8598638837313
304 16.57900308673213 63.02991590288657 106.6583473608596
305 53.9592789207672 60.66681968168106 103.6279467305846
306 64.99122156553035 67.63177890464188 112.09706758814
307 98.9861544134784 67.14600674095482 128.1310273091017
308 102.5121520882077 15.24520414660264 129.0965019411303
309 97.67680127226356 51.96896050415793 126.8100804901374
310 101.591273041803 35.57575241761421 129.0268564170588
311 108.5583304952774 77.99276675695907 134.880183332055
312 36.4729325101428 85.47972735039619 128.5024556388015
313 18.62171423373242 87.08912466339453 129.8935807390909
314 81.51924836365043 82.00740662639713 125.5122185901389
315 89.96548032357953 92.11481845170907 133.6094864877647
316 69.98743402256986 88.65488538806306 130.9165981701856
317 56.20532822003818 83.40035032364223 126.7326421603489
318 134.331957197782 15.72260977167547 147.5878728294724
319 133.176428576455 42.38190339277305 147.2923747907962
320 132.1635909829785 94.3674822965302 147.3097627494759
321 132.6866781645377 69.38646500740431 147.3169331901605
322 144.1647017386215 110.5572876264843 152.8916743806767
323 41.14620094125085 114.3536022471134 147.8359538252301
324 16.53026847662773 114.0550154555703 147.8232959502197
325 114.258831596979 118.434494805894 149.5915085636038
326 93.76593034391331 114.0545971041384 147.3575268401597
327 67.17031509262161 114.3371929424684 147.6688508688231
328 168.5568532370146 18.97456519451207 161.6100534146719
329 167.3058846587666 43.54326117414405 161.2139147970003
330 167.6375060183273 73.27440703655654 161.3571884110357
331 167.8488595590707 100.3742161144142 161.4559060100686
332 168.7609888676953 126.6584888636887 161.7825306702607
333 149.0108607550183 144.4263053311201 161.162768613345
334 13.21663461316196 142.7822547140139 161.2905
335 178.7189204206557 170.9275414131729 169.936893161258
336 113.8358209081003 101.2993541416564 176.057
337 167.9598817336495 136.8343078894253 176.057
338 167.0077643675963 56.16986375227795 176.057
339 59.83802184949604 137.0961178552969 176.057
340 61.05225790117328 56.07586954018714 176.057
341 113.5442652515137 149.6510588332425 176.057
342 114.1140000002459 48.11118997757335 176.057
343 182.6098991483261 103.2561416265848 176.057
344 42.46553555920475 100.6152723104745 176.057
345 191.4736428601844 36.17875939151788 176.057
346 191.3767730197267 160.3125019364372 176.057
347 150.2841246775057 104.8336916401259 176.057
348 36.57923823438529 161.2094509429089 176.057
349 36.66686988015469 36.38760861365115 176.057
350 143.8876407805605 165.5836896400348 176.057
351 146.4277573326913 32.24290588708542 176.057
352 77.09589673944178 104.5133269626424 176.057
353 81.84624141627808 32.22731966695591 176.057
354 83.55102238790556 165.7587679177635 176.057
355 93.35570751435583 73.28042441733773 176.057
356 135.0983635172361 72.6340284110149 176.057
357 198.0213495552764 74.91982365585739 176.057
358 196.5081526484587 128.8546879821045 176.057
359 29.48586898975661 129.108296246119 176.057
360 31.17899807437725 70.45286815489891 176.057
361 134.1423521919849 129.1482550881726 176.057
362 93.20075153796616 129.5115570445182 176.057
363 209.7069092284434 177.1265393084317 176.057
364 113.5607407105475 176.1325850733824 176.057
365 114.1140000002459 21.29370940537206 176.057
366 169.7185179743747 173.8151427506301 176.057
367 170.011585843382 23.98852758617686 176.057
368 58.22579614387099 24.01339008467367 176.057
369 57.99301423483438 173.8413458948878 176.057
370 209.5568219688022 21.72051928938984 176.057
371 206.6992140287002 106.4989701189591 176.057
372 18.42743586586666 175.8308474811264 176.057
373 18.46090120593071 21.86058292914994 176.057
374 211.5617889979476 48.30701846669941 176.057
375 16.85816255027423 148.2952499998772 176.057
376 16.85133699950755 49.43174999988323 176.057
377 166.7797175153549 83.40627979906691 176.057
378 61.12142137300358 83.38731930245498 176.057
379 209.7256848057302 147.509240831251 176.057
380 5.567001552753048 4.938196225729701 0
381 235.1642881759332 13.56345255406548 173.9311063800312
382 235.1705613977645 184.4281896071785 173.9261913203592
383 239 87.43089340298447 91.06539001818047
384 239 141.2041556920467 107.4190180455471
385 239 125.6649537989138 64.27890336447571
386 239 49.07341742878142 117.7693638751959
387 239 46.40951981035762 58.66786503543877
388 239 107.063004123963 128.4489839891235
389 239 86.62499999993362 52.53606250000229
390 239 161.583739211006 77.13031875974261
391 239 166.3966971118256 131.4060132723535
392 239 160.306140253706 40.15613508118557
393 239 32.42992150269651 92.22665039538221
394 239 73.76835951186486 134.5669711242149
395 239 130.3168718000693 142.0498166694293
396 239 116.4840016949703 92.17090146243244
397 239 170.3105128383956 105.8698434383637
398 239 29.7768110575486 136.2964330376647
399 239 27.86324666186059 43.6678484308091
400 239 59.41024788650491 93.60211484456141
401 239 108.6432228576352 41.61285618881803
402 239 62.09006859766702 40.52063483278556
403 239 135.6580621639392 39.95241100330205
404 239 101.5232471458809 71.04517145564041
405 239 71.15384006283425 71.79653125000114
406 239 52.01616538314323 143.9359906465944
407 239 21.6203864422983 113.7184028062469
408 239 23.6918778498288 69.50055677251254
409 239 138.764713445245 83.84353297586122
410 239 74.49117833347738 111.1309274886705
411 239 110.5305323932196 149.3243523846361
412 239 174.969992032751 57.39443973555061
413 239 149.4912668175935 60.45929015335295
414 239 99.56019470073984 108.7050829995364
415 239 122.9277103963623 116.1195267178882
416 239 90.83385082853789 147.2014937334456
417 239 86.62499999993362 32.19751040757068
418 239 179.1666376214184 35.1888928624865
419 239 181.0103466769692 79.97829358934125
420 239 178.6080725253753 146.760227310066
421 239 153.3617731526203 94.03502034822688
422 239 157.586347090426 146.3481686089042
423 239 183.5506215910432 128.5403529690722
424 239 44.19040378037827 34.26107359486732
425 239 148.4464411051943 125.7589544015765
426 239 17.40872414208003 148.5631728255642
427 239 14.05020042902551 32.67539289194346
428 239 12.80053379493057 128.5569999999736
429 239 12.80053379493049 53.55700000002636
430 239 37.12499999999302 153.3546039157647
431 239 88.27112771061385 123.9635098719095
432 239 46.4823508542054 79.17268156305698
433 237.2228995891455 184.3964968977079 10.3663126648155
434 237.2222993036227 13.60309468674109 10.36544536513566
435 127.8211634417814 98.56030815158832 6.057
436 68.86744845887142 133.2844946779424 6.057
437 68.77703013595921 65.08633252513606 6.057
438 173.8726586537853 136.6434251147483 6.057
439 171.0495398144065 61.05777635892159 6.057
440 112.6258555935408 147.5101370595367 6.057
441 114.8735888152086 51.93527008246021 6.057
442 186.9132720887166 95.53472132021682 6.057
443 41.4326145103417 94.89665756266997 6.057
444 40.9805539655496 37.69062243883 6.057
445 37.76711442842534 160.7977292908743 6.057
446 87.8166294188995 99.02865771715936 6.057
447 81.7814704629143 163.4714776280248 6.057
448 193.8918166402008 33.66715308412289 6.057
449 192.8945309460826 163.3684253961201 6.057
450 86.03582348158456 34.18128796362367 6.057
451 147.3481977366242 163.6382686681918 6.057
452 147.8474439754289 33.67310887829842 6.057
453 138.8402631734621 130.0903077526918 6.057
454 140.7922849304069 70.98794512502619 6.057
455 26.74867744363559 125.5118945592505 6.057
456 157.3276766117006 102.8837125353282 6.057
457 200.1265677631167 71.46026087131449 6.057
458 196.0181128726889 125.3521433991902 6.057
459 29.72047989883349 70.27902948908563 6.057
460 108.53089378876 71.45457553883853 6.057
461 104.3795513316083 121.8334206533061 6.057
462 106.3446244391199 172.9618993063661 6.057
463 62.53447101673539 25.40963218082662 6.057
464 170.0802138024559 175.4777985250064 6.057
465 125.7917975681625 25.9921605130337 6.057
466 170.3389158505378 20.8007200173537 6.057
467 58.98643156494072 175.4645086610362 6.057
468 90.57877569658518 138.6727898887112 6.057
469 92.5625947131122 57.61699471076909 6.057
470 65.52433336940305 87.72731314967629 6.057
471 161.8118098136345 78.62212773278024 6.057
472 22.96683245516002 23.03097831204553 6.057
473 129.8021443610527 179.422760562864 6.057
474 22.67475628058002 175.2392659060522 6.057
475 59.81400540817416 152.1140388697147 6.057
476 100.3109927000889 18.90575342575 6.057
477 21.42026328643355 107.0751580107773 6.057
478 174.3354903571898 117.3496615718155 6.057
479 209.7144418533103 106.0395206703492 6.057
480 62.68776870110373 112.1516016438139 6.057
481 58.71369338185491 46.97779387984452 6.057
482 209.3034517718969 52.74112660015258 6.057
483 207.9031071739907 145.88745462245 6.057
484 49.93784927731179 75.0246986163028 6.057
485 87.70673708595999 79.18305031269993 6.057
486 82.86603472141363 120.9941929161866 6.057
487 21.28247280814046 146.0554323535866 6.057
488 136.0451189787076 50.89062469032024 6.057
489 18.51467153912175 89.10016901251673 6.057
490 20.57295918754904 49.55657027293844 6.057
491 134.0238748737338 147.3202294728604 6.057
492 80.76452530627517 15.7546048600181 6.057
493 209.4827905544987 19.83920591117935 6.057
494 209.6678934148209 178.675752850963 6.057
495 42.30755179793218 19.37156511917715 6.057
496 211.7501166624596 87.30542487514541 6.057
497 108.7254900538442 95.67186357834645 6.057
498 81.48250529353254 181.5795771190854 6.057
499 148.9861111801448 182.9077655512125 6.057
500 187.3328601974802 53.44641586708696 6.057
501 188.850871772628 145.5106377647319 6.057
502 142.2571683861254 89.82212161252036 6.057
503 154.1994458688759 143.3880461315396 6.057
504 168.7757422601071 42.80502978154379 6.057
505 45.65724743050075 134.8490269755483 6.057
506 148.3356314789441 16.09319788173717 6.057
507 40.79768636727799 179.9542624075756 6.057
508 125.3303619721795 81.16651249305423 6.057
509 124.9889673117856 117.2963684020043 6.057
510 103.7883351495608 37.4747756203601 6.057
511 97.17792091526185 156.0703484261868 6.057
512 44.78376097450966 57.43584120368956 6.057
513 187.8691883538402 180.9799939531009 6.057
514 192.6027046090311 14.86141580253119 6.057
515 156.417515395792 123.210477548876 6.057
516 75.3493270061723 47.67341901813495 6.057
517 171.2076531300753 154.671100266723 6.057
518 140.8909158123831 109.9097387204913 6.057
519 153.6365016517471 57.49182171970758 6.057
520 125.216419199305 161.7388530089933 6.057
521 122.9717024568261 132.8100926680798 6.057
522 76.01182387634773 147.7077159136685 6.057
523 125.1144496970525 65.28698558593987 6.057
524 12.49056240680789 161.0999989899898 6.057
525 39.58931427440307 114.896867750412 6.057
526 215.032343224102 161.9952916727339 6.057
527 215.3669341975689 36.00437345332244 6.057
528 181.4468099354709 72.02426043006402 6.057
529 216.5351951385612 203.9754334998891 174.0753660734842
530 12.4648042406177 203.9754333785846 174.0753661638825
531 236.7742384352582 202.4475395997565 170.5045395737814
532 237.208022260339 203.7121248737907 152.3257050494354
533 237.20802193112 203.712125346861 29.78829532985488
534 12.46480479667764 206.0183660455533 10.08156646263072
535 216.5351951806969 203.9754336272359 8.038634021416961
536 148.21620209543 208 90.78190782722112
537 74.42500000014822 208 91.84829999987915
538 111.333639662981 208 62.87334303447025
539 111.5384032049578 208 121.2225965674985
540 186.2396251763905 208 59.29293629928102
541 181.804852485827 208 126.5574757561034
542 43.73212050117695 208 60.13922237907411
543 38.52441921967636 208 127.2480852274857
544 147.3163505214088 208 52.24299006859619
545 144.7431514552955 208 128.4894684877868
546 79.20025287162895 208 131.2882282356416
547 78.51866977570936 208 51.85860689290165
548 32.3651668758327 208 89.89112693873797
549 196.7736855702073 208 91.05699999999638
550 121.0995163810374 208 88.06955967446275
551 124.205347044707 208 40.22865585879745
552 202.3169418080298 208 42.51048130385865
553 202.3169418080185 208 139.6035186961357
554 124.6149729285909 208 142.1588291474827
555 169.4950300826904 208 38.17608201435282
556 171.4167945056495 208 145.4412402367943
557 25.76284481478727 208 41.66756585035596
558 99.9203383457742 208 142.7974893884315
559 23.91791526828769 208 141.9492181053639
560 170.5699236881771 208 83.14048186675038
561 57.86207969723901 208 144.1076660021077
562 58.26288779589709 208 39.18291611463888
563 98.90794276857278 208 40.30260412244633
564 131.5448671427538 208 109.7071886089878
565 96.50647121885103 208 85.1288793714066
566 134.1221010910793 208 72.20163590218132
567 161.1298794695712 208 110.5978902056466
568 89.71700645440191 208 110.3779088459525
569 65.03522227679295 208 69.34720982744811
570 64.26815960243673 208 112.6947383884509
571 204.7081966927357 208 113.4510805521572
572 205.7795869593866 208 69.3953735611003
573 22.83694528350026 208 70.27290956347386
574 22.69752671292084 208 111.9006714805493
575 153.3016013375401 208 70.92922642901169
576 54.24213503463361 208 88.04004386814422
577 148.8500000002956 208 32.37098582341684
578 149.6867074804329 208 147.9330369172196
579 80.14999999977353 208 150.5349177959988
580 79.19790006817341 208 32.69162542599737
581 92.49168152754469 208 63.52040329798762
582 180.832019216658 208 103.6043765539088
583 165.8247950414197 208 58.56341589627322
584 108.8754972157074 208 102.8455255058519
585 43.3359556211898 208 105.487713893417
586 40.56672586420617 208 149.4305398544405
587 187.9618898199684 208 149.3639495490995
588 187.9618898201393 208 32.75005045080827
589 40.16275830102521 208 32.29014577409314
590 215.485386481612 208 127.6341190279228
591 215.4853864816136 208 54.47988097207871
592 95.09400021919072 208 126.4215557593811
593 163.0828814889079 208 129.851570021524
594 12.14994752457188 208 54.76361885347062
595 14.96861702302506 208 127.4236831014168
596 128.6318738842509 208 56.87761926320888
597 128.1103486828995 208 125.3945207029389
598 215.0621193353043 208 30.83589868883329
599 215.0621193352974 208 151.2781013111493
600 11.70447881705962 208 153.7800545263365
601 11.45000000004915 208 28.55700000000878
602 81.14811233199214 208 75.33268502548852
$EndNodes
$Elements
1120
1 2 2 1 1 1 4 57
2 2 2 1 1 2 276 5
3 2 2 1 1 57 4 59
4 2 2 1 1 59 276 57
5 2 2 1 1 276 2 57
6 2 2 1 1 276 59 5
7 2 2 1 2 58 60 2
8 2 2 1 2 6 58 3
9 2 2 1 2 60 5 2
10 2 2 1 2 6 60 58
11 2 2 1 3 61 8 277
12 2 2 1 3 277 8 5
13 2 2 1 3 277 59 4
14 2 2 1 3 7 277 4
15 2 2 1 3 277 7 61
16 2 2 1 3 59 277 5
17 2 2 1 4 60 5 62
18 2 2 1 4 278 9 6
19 2 2 1 4 62 5 8
20 2 2 1 4 278 60 62
21 2 2 1 4 9 278 62
22 2 2 1 4 60 278 6
23 2 2 1 5 279 281 280
24 2 2 1 5 280 281 65
25 2 2 1 5 66 10 279
26 2 2 1 5 279 10 63
27 2 2 1 5 65 8 280
28 2 2 1 5 280 8 61
29 2 2 1 5 280 66 279
30 2 2 1 5 66 280 7
31 2 2 1 5 11 281 63
32 2 2 1 5 280 61 7
33 2 2 1 5 281 279 63
34 2 2 1 5 281 11 65
35 2 2 1 6 67 282 12
36 2 2 1 6 64 282 283
37 2 2 1 6 8 65 283
38 2 2 1 6 62 282 9
39 2 2 1 6 282 64 12
40 2 2 1 6 282 67 9
41 2 2 1 6 282 62 283
42 2 2 1 6 62 8 283
43 2 2 1 6 283 11 64
44 2 2 1 6 11 283 65
45 2 2 1 7 284 285 68
46 2 2 1 7 285 13 68
47 2 2 1 7 10 72 285
48 2 2 1 7 10 285 63
49 2 2 1 7 72 13 285
50 2 2 1 7 284 14 71
51 2 2 1 7 14 284 68
52 2 2 1 7 71 11 284
53 2 2 1 7 284 11 63
54 2 2 1 7 284 63 285
55 2 2 1 8 286 288 287
56 2 2 1 8 64 287 288
57 2 2 1 8 288 73 64
58 2 2 1 8 73 12 64
59 2 2 1 8 70 288 286
60 2 2 1 8 286 287 71
61 2 2 1 8 11 71 287
62 2 2 1 8 70 286 69
63 2 2 1 8 11 287 64
64 2 2 1 8 14 286 71
65 2 2 1 8 286 14 69
66 2 2 1 8 288 70 15
67 2 2 1 8 73 288 15
68 2 2 1 9 79 16 74
69 2 2 1 9 289 291 290
70 2 2 1 9 74 291 289
71 2 2 1 9 74 289 79
72 2 2 1 9 13 79 289
73 2 2 1 9 13 289 68
74 2 2 1 9 290 291 78
75 2 2 1 9 78 14 290
76 2 2 1 9 291 17 78
77 2 2 1 9 17 291 75
78 2 2 1 9 290 14 68
79 2 2 1 9 75 291 74
80 2 2 1 9 290 68 289
81 2 2 1 10 14 78 292
82 2 2 1 10 69 292 293
83 2 2 1 10 14 292 69
84 2 2 1 10 80 15 70
85 2 2 1 10 292 78 17
86 2 2 1 10 292 17 76
87 2 2 1 10 77 293 292
88 2 2 1 10 77 292 76
89 2 2 1 10 77 294 293
90 2 2 1 10 294 80 293
91 2 2 1 10 293 80 70
92 2 2 1 10 69 293 70
93 2 2 1 10 294 77 18
94 2 2 1 10 80 294 18
95 2 2 1 11 86 19 295
96 2 2 1 11 295 81 296
97 2 2 1 11 296 81 82
98 2 2 1 11 85 17 296
99 2 2 1 11 296 75 295
100 2 2 1 11 74 16 86
101 2 2 1 11 296 17 75
102 2 2 1 11 85 296 20
103 2 2 1 11 82 20 296
104 2 2 1 11 295 19 81
105 2 2 1 11 86 295 74
106 2 2 1 11 295 75 74
107 2 2 1 12 17 85 297
108 2 2 1 12 297 298 76
109 2 2 1 12 17 297 76
110 2 2 1 12 87 18 77
111 2 2 1 12 297 85 299
112 2 2 1 12 84 298 297
113 2 2 1 12 84 297 83
114 2 2 1 12 297 299 83
115 2 2 1 12 21 87 298
116 2 2 1 12 84 21 298
117 2 2 1 12 299 20 83
118 2 2 1 12 298 87 77
119 2 2 1 12 76 298 77
120 2 2 1 12 20 299 85
121 2 2 1 13 300 301 89
122 2 2 1 13 300 89 90
123 2 2 1 13 95 22 88
124 2 2 1 13 95 302 81
125 2 2 1 13 89 301 302
126 2 2 1 13 302 82 81
127 2 2 1 13 81 19 95
128 2 2 1 13 302 301 82
129 2 2 1 13 301 94 20
130 2 2 1 13 89 302 88
131 2 2 1 13 301 20 82
132 2 2 1 13 23 300 90
133 2 2 1 13 94 301 300
134 2 2 1 13 302 95 88
135 2 2 1 13 300 23 94
136 2 2 1 14 93 304 303
137 2 2 1 14 93 303 92
138 2 2 1 14 305 306 92
139 2 2 1 14 92 306 91
140 2 2 1 14 304 24 96
141 2 2 1 14 96 21 84
142 2 2 1 14 93 24 304
143 2 2 1 14 20 94 305
144 2 2 1 14 305 303 83
145 2 2 1 14 20 305 83
146 2 2 1 14 305 92 303
147 2 2 1 14 306 23 91
148 2 2 1 14 84 303 304
149 2 2 1 14 84 304 96
150 2 2 1 14 23 306 94
151 2 2 1 14 83 303 84
152 2 2 1 14 305 94 306
153 2 2 1 15 104 23 307
154 2 2 1 15 307 23 90
155 2 2 1 15 105 308 22
156 2 2 1 15 308 88 22
157 2 2 1 15 307 90 309
158 2 2 1 15 309 89 310
159 2 2 1 15 310 98 309
160 2 2 1 15 307 309 98
161 2 2 1 15 90 89 309
162 2 2 1 15 308 105 25
163 2 2 1 15 97 308 25
164 2 2 1 15 310 88 308
165 2 2 1 15 26 311 99
166 2 2 1 15 89 88 310
167 2 2 1 15 310 97 98
168 2 2 1 15 311 26 104
169 2 2 1 15 310 308 97
170 2 2 1 15 307 98 311
171 2 2 1 15 311 98 99
172 2 2 1 15 104 307 311
173 2 2 1 16 312 313 93
174 2 2 1 16 93 313 106
175 2 2 1 16 106 24 93
176 2 2 1 16 314 104 315
177 2 2 1 16 26 315 104
178 2 2 1 16 315 26 100
179 2 2 1 16 102 317 316
180 2 2 1 16 312 317 102
181 2 2 1 16 106 313 27
182 2 2 1 16 313 103 27
183 2 2 1 16 316 91 314
184 2 2 1 16 317 91 316
185 2 2 1 16 103 312 102
186 2 2 1 16 313 312 103
187 2 2 1 16 315 316 314
188 2 2 1 16 91 317 92
189 2 2 1 16 316 101 102
190 2 2 1 16 93 92 312
191 2 2 1 16 312 92 317
192 2 2 1 16 316 315 101
193 2 2 1 16 315 100 101
194 2 2 1 16 23 314 91
195 2 2 1 16 23 104 314
196 2 2 1 17 107 319 318
197 2 2 1 17 107 318 28
198 2 2 1 17 320 99 321
199 2 2 1 17 322 109 110
200 2 2 1 17 115 26 320
201 2 2 1 17 320 26 99
202 2 2 1 17 319 108 321
203 2 2 1 17 98 319 321
204 2 2 1 17 28 318 116
205 2 2 1 17 320 321 109
206 2 2 1 17 108 109 321
207 2 2 1 17 322 320 109
208 2 2 1 17 97 318 319
209 2 2 1 17 319 98 97
210 2 2 1 17 321 99 98
211 2 2 1 17 29 322 110
212 2 2 1 17 108 319 107
213 2 2 1 17 115 320 322
214 2 2 1 17 318 97 25
215 2 2 1 17 116 318 25
216 2 2 1 17 29 115 322
217 2 2 1 18 114 324 323
218 2 2 1 18 323 324 103
219 2 2 1 18 325 111 112
220 2 2 1 18 325 115 29
221 2 2 1 18 117 324 30
222 2 2 1 18 324 114 30
223 2 2 1 18 26 325 100
224 2 2 1 18 326 100 325
225 2 2 1 18 324 117 27
226 2 2 1 18 27 103 324
227 2 2 1 18 323 102 327
228 2 2 1 18 26 115 325
229 2 2 1 18 103 102 323
230 2 2 1 18 325 112 326
231 2 2 1 18 100 326 101
232 2 2 1 18 327 101 326
233 2 2 1 18 101 327 102
234 2 2 1 18 113 323 327
235 2 2 1 18 113 327 112
236 2 2 1 18 325 29 111
237 2 2 1 18 114 323 113
238 2 2 1 18 326 112 327
239 2 2 1 19 129 328 28
240 2 2 1 19 328 329 107
241 2 2 1 19 118 329 328
242 2 2 1 19 119 330 329
243 2 2 1 19 329 330 108
244 2 2 1 19 120 331 330
245 2 2 1 19 330 331 109
246 2 2 1 19 121 332 331
247 2 2 1 19 331 332 110
248 2 2 1 19 128 29 332
249 2 2 1 19 128 122 32
250 2 2 1 19 332 29 110
251 2 2 1 19 328 107 28
252 2 2 1 19 122 332 121
253 2 2 1 19 332 122 128
254 2 2 1 19 328 129 31
255 2 2 1 19 118 328 31
256 2 2 1 19 329 108 107
257 2 2 1 19 329 118 119
258 2 2 1 19 330 109 108
259 2 2 1 19 330 119 120
260 2 2 1 19 331 120 121
261 2 2 1 19 331 110 109
262 2 2 1 20 333 123 124
263 2 2 1 20 333 124 111
264 2 2 1 20 333 111 29
265 2 2 1 20 333 128 32
266 2 2 1 20 123 333 32
267 2 2 1 20 128 333 29
268 2 2 1 20 334 30 114
269 2 2 1 20 111 124 125
270 2 2 1 20 111 125 112
271 2 2 1 20 112 125 126
272 2 2 1 20 112 126 113
273 2 2 1 20 30 334 33
274 2 2 1 20 113 127 114
275 2 2 1 20 113 126 127
276 2 2 1 20 127 334 114
277 2 2 1 20 334 127 33
278 2 2 1 21 118 31 34
279 2 2 1 21 35 140 134
280 2 2 1 21 134 32 122
281 2 2 1 21 118 34 130
282 2 2 1 21 132 133 121
283 2 2 1 21 121 133 122
284 2 2 1 21 132 120 131
285 2 2 1 21 121 120 132
286 2 2 1 21 131 120 119
287 2 2 1 21 131 119 130
288 2 2 1 21 140 32 134
289 2 2 1 21 133 134 122
290 2 2 1 21 130 119 118
291 2 2 1 22 139 36 33
292 2 2 1 22 140 335 32
293 2 2 1 22 335 140 35
294 2 2 1 22 335 123 32
295 2 2 1 22 335 135 123
296 2 2 1 22 135 335 35
297 2 2 1 22 123 135 136
298 2 2 1 22 123 136 124
299 2 2 1 22 125 137 138
300 2 2 1 22 127 139 33
301 2 2 1 22 125 138 126
302 2 2 1 22 124 136 137
303 2 2 1 22 124 137 125
304 2 2 1 22 126 139 127
305 2 2 1 22 126 138 139
306 2 2 1 23 130 34 141
307 2 2 1 23 35 134 146
308 2 2 1 23 38 35 146
309 2 2 1 23 145 134 133
310 2 2 1 23 146 134 145
311 2 2 1 23 142 131 130
312 2 2 1 23 143 131 142
313 2 2 1 23 141 34 37
314 2 2 1 23 144 145 133
315 2 2 1 23 132 131 143
316 2 2 1 23 133 132 144
317 2 2 1 23 132 143 144
318 2 2 1 23 142 130 141
319 2 2 1 24 138 150 151
320 2 2 1 24 152 39 36
321 2 2 1 24 35 38 147
322 2 2 1 24 36 139 152
323 2 2 1 24 152 139 151
324 2 2 1 24 149 150 137
325 2 2 1 24 151 139 138
326 2 2 1 24 136 148 149
327 2 2 1 24 147 148 135
328 2 2 1 24 137 150 138
329 2 2 1 24 137 136 149
330 2 2 1 24 135 35 147
331 2 2 1 24 135 148 136
332 2 2 4 25 361 336 362
333 2 2 4 25 161 344 360
334 2 2 4 25 344 161 359
335 2 2 4 25 337 343 347
336 2 2 4 25 147 38 363
337 2 2 4 25 344 339 352
338 2 2 4 25 143 357 371
339 2 2 4 25 338 351 356
340 2 2 4 25 351 342 356
341 2 2 4 25 341 361 362
342 2 2 4 25 146 145 363
343 2 2 4 25 342 353 355
344 2 2 4 25 353 340 355
345 2 2 4 25 160 161 360
346 2 2 4 25 161 162 359
347 2 2 4 25 143 142 357
348 2 2 4 25 343 337 358
349 2 2 4 25 355 336 356
350 2 2 4 25 342 355 356
351 2 2 4 25 339 344 359
352 2 2 4 25 357 343 371
353 2 2 4 25 350 337 361
354 2 2 4 25 341 350 361
355 2 2 4 25 346 337 366
356 2 2 4 25 149 148 350
357 2 2 4 25 338 345 367
358 2 2 4 25 346 147 363
359 2 2 4 25 354 341 362
360 2 2 4 25 339 354 362
361 2 2 4 25 347 336 361
362 2 2 4 25 154 155 351
363 2 2 4 25 151 150 354
364 2 2 4 25 337 350 366
365 2 2 4 25 156 157 353
366 2 2 4 25 351 338 367
367 2 2 4 25 339 348 369
368 2 2 4 25 336 352 362
369 2 2 4 25 349 340 368
370 2 2 4 25 354 339 369
371 2 2 4 25 340 353 368
372 2 2 4 25 336 347 356
373 2 2 4 25 337 346 358
374 2 2 4 25 345 338 357
375 2 2 4 25 352 336 355
376 2 2 4 25 348 339 359
377 2 2 4 25 340 349 360
378 2 2 4 25 345 153 367
379 2 2 4 25 147 346 366
380 2 2 4 25 149 350 364
381 2 2 4 25 348 152 369
382 2 2 4 25 350 341 364
383 2 2 4 25 337 347 361
384 2 2 4 25 158 349 368
385 2 2 4 25 153 345 370
386 2 2 4 25 342 351 365
387 2 2 4 25 351 155 365
388 2 2 4 25 347 343 377
389 2 2 4 25 353 342 365
390 2 2 4 25 354 150 364
391 2 2 4 25 156 353 365
392 2 2 4 25 341 354 364
393 2 2 4 25 152 348 372
394 2 2 4 25 352 339 362
395 2 2 4 25 349 158 373
396 2 2 4 25 344 352 378
397 2 2 4 25 153 154 367
398 2 2 4 25 157 158 368
399 2 2 4 25 152 151 369
400 2 2 4 25 148 147 366
401 2 2 4 25 350 148 366
402 2 2 4 25 154 351 367
403 2 2 4 25 151 354 369
404 2 2 4 25 353 157 368
405 2 2 4 25 356 347 377
406 2 2 4 25 338 356 377
407 2 2 4 25 352 355 378
408 2 2 4 25 355 340 378
409 2 2 4 25 343 357 377
410 2 2 4 25 357 338 377
411 2 2 4 25 340 360 378
412 2 2 4 25 360 344 378
413 2 2 4 25 150 149 364
414 2 2 4 25 155 156 365
415 2 2 4 25 144 143 371
416 2 2 4 25 37 153 370
417 2 2 4 25 141 37 370
418 2 2 4 25 163 39 372
419 2 2 4 25 363 145 379
420 2 2 4 25 40 159 373
421 2 2 4 25 346 363 379
422 2 2 4 25 39 152 372
423 2 2 4 25 158 40 373
424 2 2 4 25 358 144 371
425 2 2 4 25 145 144 379
426 2 2 4 25 358 346 379
427 2 2 4 25 348 359 375
428 2 2 4 25 345 357 374
429 2 2 4 25 162 163 375
430 2 2 4 25 159 160 376
431 2 2 4 25 360 349 376
432 2 2 4 25 142 141 374
433 2 2 4 25 144 358 379
434 2 2 4 25 357 142 374
435 2 2 4 25 343 358 371
436 2 2 4 25 359 162 375
437 2 2 4 25 160 360 376
438 2 2 4 25 372 348 375
439 2 2 4 25 349 373 376
440 2 2 4 25 373 159 376
441 2 2 4 25 163 372 375
442 2 2 4 25 141 370 374
443 2 2 4 25 370 345 374
444 2 2 4 25 38 146 363
445 2 2 2 26 57 164 1
446 2 2 2 26 165 41 380
447 2 2 2 26 165 58 3
448 2 2 2 26 58 165 380
449 2 2 2 26 41 164 380
450 2 2 2 26 164 57 380
451 2 2 2 26 2 58 380
452 2 2 2 26 57 2 380
453 2 2 3 27 38 146 51
454 2 2 3 27 248 141 37
455 2 2 3 27 204 38 51
456 2 2 3 27 204 147 38
457 2 2 3 27 196 39 152
458 2 2 3 27 51 146 254
459 2 2 3 27 249 142 141
460 2 2 3 27 249 141 248
461 2 2 3 27 250 143 142
462 2 2 3 27 250 142 249
463 2 2 3 27 144 143 252
464 2 2 3 27 143 250 251
465 2 2 3 27 143 251 252
466 2 2 3 27 253 145 144
467 2 2 3 27 144 252 253
468 2 2 3 27 254 146 145
469 2 2 3 27 254 145 253
470 2 2 3 27 203 148 147
471 2 2 3 27 147 204 203
472 2 2 3 27 201 149 148
473 2 2 3 27 202 201 148
474 2 2 3 27 202 148 203
475 2 2 3 27 200 150 149
476 2 2 3 27 149 201 200
477 2 2 3 27 151 150 199
478 2 2 3 27 150 200 199
479 2 2 3 27 197 152 151
480 2 2 3 27 151 198 197
481 2 2 3 27 198 151 199
482 2 2 3 27 152 197 196
483 2 2 3 27 37 43 248
484 2 2 3 27 39 196 47
485 2 2 3 28 261 254 260
486 2 2 3 28 260 254 253
487 2 2 3 28 252 259 260
488 2 2 3 28 252 260 253
489 2 2 3 28 256 257 249
490 2 2 3 28 249 257 250
491 2 2 3 28 258 259 252
492 2 2 3 28 258 252 251
493 2 2 3 28 255 381 44
494 2 2 3 28 381 166 44
495 2 2 3 28 382 261 52
496 2 2 3 28 205 382 52
497 2 2 3 28 257 258 250
498 2 2 3 28 255 249 248
499 2 2 3 28 258 251 250
500 2 2 3 28 256 249 255
501 2 2 3 28 254 382 51
502 2 2 3 28 382 254 261
503 2 2 3 28 382 205 51
504 2 2 3 28 381 248 43
505 2 2 3 28 248 381 255
506 2 2 3 28 166 381 43
507 2 2 3 29 394 257 406
508 2 2 3 29 393 169 408
509 2 2 3 29 169 393 407
510 2 2 3 29 267 268 392
511 2 2 3 29 386 393 400
512 2 2 3 29 395 388 415
513 2 2 3 29 401 385 404
514 2 2 3 29 389 401 404
515 2 2 3 29 387 402 405
516 2 2 3 29 402 389 405
517 2 2 3 29 260 259 395
518 2 2 3 29 257 256 406
519 2 2 3 29 168 169 407
520 2 2 3 29 169 170 408
521 2 2 3 29 388 395 411
522 2 2 3 29 392 268 418
523 2 2 3 29 394 386 410
524 2 2 3 29 267 392 403
525 2 2 3 29 208 207 397
526 2 2 3 29 384 397 425
527 2 2 3 29 404 383 405
528 2 2 3 29 389 404 405
529 2 2 3 29 393 386 407
530 2 2 3 29 386 394 406
531 2 2 3 29 395 415 425
532 2 2 3 29 397 391 425
533 2 2 3 29 257 394 416
534 2 2 3 29 260 395 422
535 2 2 3 29 415 384 425
536 2 2 3 29 397 384 421
537 2 2 3 29 385 396 404
538 2 2 3 29 396 383 404
539 2 2 3 29 385 401 403
540 2 2 3 29 384 396 409
541 2 2 3 29 265 266 401
542 2 2 3 29 395 259 411
543 2 2 3 29 263 264 402
544 2 2 3 29 386 400 410
545 2 2 3 29 387 399 424
546 2 2 3 29 396 385 409
547 2 2 3 29 208 397 419
548 2 2 3 29 402 387 424
549 2 2 3 29 401 266 403
550 2 2 3 29 383 396 414
551 2 2 3 29 396 384 415
552 2 2 3 29 210 209 412
553 2 2 3 29 391 397 423
554 2 2 3 29 397 390 419
555 2 2 3 29 397 207 423
556 2 2 3 29 383 400 405
557 2 2 3 29 386 398 407
558 2 2 3 29 399 387 408
559 2 2 3 29 210 412 418
560 2 2 3 29 398 386 406
561 2 2 3 29 392 412 413
562 2 2 3 29 412 390 413
563 2 2 3 29 420 261 422
564 2 2 3 29 390 397 421
565 2 2 3 29 266 267 403
566 2 2 3 29 399 262 424
567 2 2 3 29 385 403 413
568 2 2 3 29 401 389 417
569 2 2 3 29 265 401 417
570 2 2 3 29 400 383 410
571 2 2 3 29 402 264 417
572 2 2 3 29 389 402 417
573 2 2 3 29 262 399 427
574 2 2 3 29 261 260 422
575 2 2 3 29 268 53 418
576 2 2 3 29 53 210 418
577 2 2 3 29 400 393 432
578 2 2 3 29 52 261 420
579 2 2 3 29 206 52 420
580 2 2 3 29 410 383 414
581 2 2 3 29 403 392 413
582 2 2 3 29 262 263 424
583 2 2 3 29 263 402 424
584 2 2 3 29 387 405 432
585 2 2 3 29 258 257 416
586 2 2 3 29 405 400 432
587 2 2 3 29 410 414 431
588 2 2 3 29 259 258 411
589 2 2 3 29 408 387 432
590 2 2 3 29 393 408 432
591 2 2 3 29 391 420 422
592 2 2 3 29 388 416 431
593 2 2 3 29 409 385 413
594 2 2 3 29 390 409 413
595 2 2 3 29 388 411 416
596 2 2 3 29 412 392 418
597 2 2 3 29 209 208 419
598 2 2 3 29 264 265 417
599 2 2 3 29 384 409 421
600 2 2 3 29 44 167 426
601 2 2 3 29 171 45 427
602 2 2 3 29 255 44 426
603 2 2 3 29 45 262 427
604 2 2 3 29 207 206 423
605 2 2 3 29 416 394 431
606 2 2 3 29 167 168 428
607 2 2 3 29 170 171 429
608 2 2 3 29 256 255 430
609 2 2 3 29 407 398 428
610 2 2 3 29 399 408 429
611 2 2 3 29 412 209 419
612 2 2 3 29 409 390 421
613 2 2 3 29 411 258 416
614 2 2 3 29 398 406 430
615 2 2 3 29 406 256 430
616 2 2 3 29 414 396 415
617 2 2 3 29 168 407 428
618 2 2 3 29 408 170 429
619 2 2 3 29 388 414 415
620 2 2 3 29 390 412 419
621 2 2 3 29 394 410 431
622 2 2 3 29 414 388 431
623 2 2 3 29 422 395 425
624 2 2 3 29 391 422 425
625 2 2 3 29 398 426 428
626 2 2 3 29 427 399 429
627 2 2 3 29 426 167 428
628 2 2 3 29 171 427 429
629 2 2 3 29 255 426 430
630 2 2 3 29 426 398 430
631 2 2 3 29 420 391 423
632 2 2 3 29 206 420 423
633 2 2 3 30 262 269 270
634 2 2 3 30 262 270 263
635 2 2 3 30 433 275 54
636 2 2 3 30 211 433 54
637 2 2 3 30 269 434 46
638 2 2 3 30 434 172 46
639 2 2 3 30 272 273 266
640 2 2 3 30 264 263 270
641 2 2 3 30 265 272 266
642 2 2 3 30 270 271 264
643 2 2 3 30 268 433 53
644 2 2 3 30 433 268 275
645 2 2 3 30 433 211 53
646 2 2 3 30 434 262 45
647 2 2 3 30 262 434 269
648 2 2 3 30 172 434 45
649 2 2 3 30 274 275 268
650 2 2 3 30 274 268 267
651 2 2 3 30 273 274 267
652 2 2 3 30 273 267 266
653 2 2 3 30 271 272 264
654 2 2 3 30 264 272 265
655 2 2 3 31 181 42 472
656 2 2 3 31 50 220 474
657 2 2 3 31 455 191 487
658 2 2 3 31 472 195 490
659 2 2 3 31 42 195 472
660 2 2 3 31 457 271 482
661 2 2 3 31 273 458 483
662 2 2 3 31 193 459 490
663 2 2 3 31 189 50 474
664 2 2 3 31 191 455 477
665 2 2 3 31 179 180 463
666 2 2 3 31 446 480 486
667 2 2 3 31 195 194 490
668 2 2 3 31 438 458 478
669 2 2 3 31 460 441 469
670 2 2 3 31 448 466 504
671 2 2 3 31 217 216 462
672 2 2 3 31 465 441 488
673 2 2 3 31 458 442 478
674 2 2 3 31 457 442 496
675 2 2 3 31 500 448 504
676 2 2 3 31 452 465 488
677 2 2 3 31 446 470 480
678 2 2 3 31 454 471 519
679 2 2 3 31 440 461 468
680 2 2 3 31 217 462 498
681 2 2 3 31 471 454 502
682 2 2 3 31 176 177 465
683 2 2 3 31 458 273 479
684 2 2 3 31 214 213 464
685 2 2 3 31 456 442 471
686 2 2 3 31 176 465 506
687 2 2 3 31 194 193 490
688 2 2 3 31 458 438 501
689 2 2 3 31 442 457 528
690 2 2 3 31 271 270 482
691 2 2 3 31 274 273 483
692 2 2 3 31 443 459 489
693 2 2 3 31 459 443 484
694 2 2 3 31 463 180 495
695 2 2 3 31 442 458 479
696 2 2 3 31 442 456 478
697 2 2 3 31 450 463 516
698 2 2 3 31 451 464 517
699 2 2 3 31 271 457 496
700 2 2 3 31 441 460 523
701 2 2 3 31 219 218 467
702 2 2 3 31 191 190 487
703 2 2 3 31 462 447 498
704 2 2 3 31 174 175 466
705 2 2 3 31 503 451 517
706 2 2 3 31 463 481 516
707 2 2 3 31 459 193 489
708 2 2 3 31 465 452 506
709 2 2 3 31 446 461 497
710 2 2 3 31 464 213 513
711 2 2 3 31 461 446 486
712 2 2 3 31 461 440 521
713 2 2 3 31 487 445 505
714 2 2 3 31 462 216 473
715 2 2 3 31 471 439 519
716 2 2 3 31 212 54 494
717 2 2 3 31 46 173 493
718 2 2 3 31 497 461 509
719 2 2 3 31 442 479 496
720 2 2 3 31 435 497 509
721 2 2 3 31 180 181 495
722 2 2 3 31 269 46 493
723 2 2 3 31 54 275 494
724 2 2 3 31 455 487 505
725 2 2 3 31 467 447 475
726 2 2 3 31 465 177 476
727 2 2 3 31 181 472 495
728 2 2 3 31 436 480 505
729 2 2 3 31 460 485 497
730 2 2 3 31 273 272 479
731 2 2 3 31 505 480 525
732 2 2 3 31 485 446 497
733 2 2 3 31 456 471 502
734 2 2 3 31 471 442 528
735 2 2 3 31 192 191 477
736 2 2 3 31 212 494 513
737 2 2 3 31 214 464 499
738 2 2 3 31 444 472 490
739 2 2 3 31 213 212 513
740 2 2 3 31 464 451 499
741 2 2 3 31 216 215 473
742 2 2 3 31 463 444 481
743 2 2 3 31 466 175 506
744 2 2 3 31 179 463 492
745 2 2 3 31 445 467 475
746 2 2 3 31 480 436 486
747 2 2 3 31 463 450 492
748 2 2 3 31 441 465 510
749 2 2 3 31 452 466 506
750 2 2 3 31 219 467 507
751 2 2 3 31 469 441 510
752 2 2 3 31 437 481 512
753 2 2 3 31 467 218 498
754 2 2 3 31 174 466 514
755 2 2 3 31 468 461 486
756 2 2 3 31 440 462 520
757 2 2 3 31 462 440 511
758 2 2 3 31 437 470 485
759 2 2 3 31 447 467 498
760 2 2 3 31 470 446 485
761 2 2 3 31 477 443 489
762 2 2 3 31 484 437 512
763 2 2 3 31 220 219 507
764 2 2 3 31 177 178 476
765 2 2 3 31 447 462 511
766 2 2 3 31 443 470 484
767 2 2 3 31 504 452 519
768 2 2 3 31 444 463 495
769 2 2 3 31 464 449 517
770 2 2 3 31 452 488 519
771 2 2 3 31 449 464 513
772 2 2 3 31 474 220 507
773 2 2 3 31 466 448 514
774 2 2 3 31 460 469 485
775 2 2 3 31 469 437 485
776 2 2 3 31 436 468 486
777 2 2 3 31 450 469 510
778 2 2 3 31 470 443 480
779 2 2 3 31 515 456 518
780 2 2 3 31 467 445 507
781 2 2 3 31 474 445 524
782 2 2 3 31 466 452 504
783 2 2 3 31 470 437 484
784 2 2 3 31 439 500 504
785 2 2 3 31 440 468 511
786 2 2 3 31 445 487 524
787 2 2 3 31 445 475 505
788 2 2 3 31 468 436 522
789 2 2 3 31 453 515 518
790 2 2 3 31 193 192 489
791 2 2 3 31 465 476 510
792 2 2 3 31 478 456 515
793 2 2 3 31 497 435 508
794 2 2 3 31 475 447 522
795 2 2 3 31 476 178 492
796 2 2 3 31 460 497 508
797 2 2 3 31 450 476 492
798 2 2 3 31 473 215 499
799 2 2 3 31 444 490 512
800 2 2 3 31 451 473 499
801 2 2 3 31 272 271 496
802 2 2 3 31 178 179 492
803 2 2 3 31 173 174 514
804 2 2 3 31 511 468 522
805 2 2 3 31 490 459 512
806 2 2 3 31 469 450 516
807 2 2 3 31 437 469 516
808 2 2 3 31 447 511 522
809 2 2 3 31 218 217 498
810 2 2 3 31 215 214 499
811 2 2 3 31 472 444 495
812 2 2 3 31 192 477 489
813 2 2 3 31 445 474 507
814 2 2 3 31 462 473 520
815 2 2 3 31 453 491 503
816 2 2 3 31 175 176 506
817 2 2 3 31 453 503 515
818 2 2 3 31 494 449 513
819 2 2 3 31 473 451 520
820 2 2 3 31 479 272 496
821 2 2 3 31 443 477 525
822 2 2 3 31 457 482 500
823 2 2 3 31 483 458 501
824 2 2 3 31 477 455 525
825 2 2 3 31 270 269 527
826 2 2 3 31 275 274 526
827 2 2 3 31 460 508 523
828 2 2 3 31 439 471 528
829 2 2 3 31 190 189 524
830 2 2 3 31 475 436 505
831 2 2 3 31 438 503 517
832 2 2 3 31 455 505 525
833 2 2 3 31 476 450 510
834 2 2 3 31 449 501 517
835 2 2 3 31 493 173 514
836 2 2 3 31 436 475 522
837 2 2 3 31 482 448 500
838 2 2 3 31 449 483 501
839 2 2 3 31 483 449 526
840 2 2 3 31 448 482 527
841 2 2 3 31 457 500 528
842 2 2 3 31 451 491 520
843 2 2 3 31 509 461 521
844 2 2 3 31 438 478 515
845 2 2 3 31 481 444 512
846 2 2 3 31 481 437 516
847 2 2 3 31 491 451 503
848 2 2 3 31 449 494 526
849 2 2 3 31 493 448 527
850 2 2 3 31 503 438 515
851 2 2 3 31 439 504 519
852 2 2 3 31 435 502 508
853 2 2 3 31 502 454 508
854 2 2 3 31 189 474 524
855 2 2 3 31 459 484 512
856 2 2 3 31 500 439 528
857 2 2 3 31 480 443 525
858 2 2 3 31 482 270 527
859 2 2 3 31 274 483 526
860 2 2 3 31 488 441 523
861 2 2 3 31 502 435 518
862 2 2 3 31 454 488 523
863 2 2 3 31 488 454 519
864 2 2 3 31 448 493 514
865 2 2 3 31 456 502 518
866 2 2 3 31 509 453 518
867 2 2 3 31 491 440 520
868 2 2 3 31 487 190 524
869 2 2 3 31 491 453 521
870 2 2 3 31 440 491 521
871 2 2 3 31 501 438 517
872 2 2 3 31 435 509 518
873 2 2 3 31 494 275 526
874 2 2 3 31 269 493 527
875 2 2 3 31 453 509 521
876 2 2 3 31 508 454 523
877 2 2 3 32 197 222 221
878 2 2 3 32 197 221 196
879 2 2 3 32 223 222 198
880 2 2 3 32 198 222 197
881 2 2 3 32 200 225 224
882 2 2 3 32 200 224 199
883 2 2 3 32 529 244 55
884 2 2 3 32 229 529 55
885 2 2 3 32 530 221 48
886 2 2 3 32 182 530 48
887 2 2 3 32 202 227 226
888 2 2 3 32 202 226 201
889 2 2 3 32 203 227 202
890 2 2 3 32 203 228 227
891 2 2 3 32 204 529 229
892 2 2 3 32 244 529 51
893 2 2 3 32 529 204 51
894 2 2 3 32 196 530 47
895 2 2 3 32 530 196 221
896 2 2 3 32 530 182 47
897 2 2 3 32 228 203 229
898 2 2 3 32 229 203 204
899 2 2 3 32 201 225 200
900 2 2 3 32 199 224 223
901 2 2 3 32 201 226 225
902 2 2 3 32 199 223 198
903 2 2 3 33 244 51 205
904 2 2 3 33 52 531 205
905 2 2 3 33 244 531 245
906 2 2 3 33 55 244 245
907 2 2 3 33 531 52 245
908 2 2 3 33 531 244 205
909 2 2 3 34 245 532 55
910 2 2 3 34 532 230 55
911 2 2 3 34 533 246 56
912 2 2 3 34 234 533 56
913 2 2 3 34 231 207 232
914 2 2 3 34 232 207 208
915 2 2 3 34 210 234 209
916 2 2 3 34 209 234 233
917 2 2 3 34 210 533 234
918 2 2 3 34 246 533 53
919 2 2 3 34 533 210 53
920 2 2 3 34 532 206 230
921 2 2 3 34 532 245 52
922 2 2 3 34 206 532 52
923 2 2 3 34 209 232 208
924 2 2 3 34 230 206 231
925 2 2 3 34 209 233 232
926 2 2 3 34 231 206 207
927 2 2 3 35 246 53 211
928 2 2 3 35 211 54 247
929 2 2 3 35 246 211 247
930 2 2 3 35 247 56 246
931 2 2 3 36 236 235 212
932 2 2 3 36 236 212 213
933 2 2 3 36 534 220 50
934 2 2 3 36 188 534 50
935 2 2 3 36 247 535 56
936 2 2 3 36 535 235 56
937 2 2 3 36 217 218 240
938 2 2 3 36 241 240 218
939 2 2 3 36 236 213 214
940 2 2 3 36 238 216 239
941 2 2 3 36 243 534 49
942 2 2 3 36 534 243 220
943 2 2 3 36 534 188 49
944 2 2 3 36 535 212 235
945 2 2 3 36 535 247 54
946 2 2 3 36 212 535 54
947 2 2 3 36 241 218 242
948 2 2 3 36 242 218 219
949 2 2 3 36 243 242 219
950 2 2 3 36 243 219 220
951 2 2 3 36 237 236 214
952 2 2 3 36 237 214 215
953 2 2 3 36 238 237 215
954 2 2 3 36 239 216 240
955 2 2 3 36 238 215 216
956 2 2 3 36 216 217 240
957 2 2 3 37 549 232 572
958 2 2 3 37 232 549 571
959 2 2 3 37 547 562 569
960 2 2 3 37 185 548 573
961 2 2 3 37 548 185 574
962 2 2 3 37 542 548 576
963 2 2 3 37 562 542 569
964 2 2 3 37 561 546 570
965 2 2 3 37 543 561 570
966 2 2 3 37 549 540 560
967 2 2 3 37 548 542 573
968 2 2 3 37 540 549 572
969 2 2 3 37 536 550 564
970 2 2 3 37 538 550 566
971 2 2 3 37 550 536 566
972 2 2 3 37 560 536 567
973 2 2 3 37 550 538 565
974 2 2 3 37 225 554 558
975 2 2 3 37 551 239 563
976 2 2 3 37 232 233 572
977 2 2 3 37 231 232 571
978 2 2 3 37 238 239 551
979 2 2 3 37 225 226 554
980 2 2 3 37 538 551 563
981 2 2 3 37 554 539 558
982 2 2 3 37 565 537 568
983 2 2 3 37 536 564 567
984 2 2 3 37 224 225 558
985 2 2 3 37 186 185 573
986 2 2 3 37 560 567 582
987 2 2 3 37 239 240 563
988 2 2 3 37 185 184 574
989 2 2 3 37 564 550 584
990 2 2 3 37 539 564 584
991 2 2 3 37 564 545 567
992 2 2 3 37 553 541 587
993 2 2 3 37 540 552 588
994 2 2 3 37 541 556 587
995 2 2 3 37 555 540 588
996 2 2 3 37 542 557 573
997 2 2 3 37 552 540 572
998 2 2 3 37 541 553 571
999 2 2 3 37 238 551 577
1000 2 2 3 37 569 542 576
1001 2 2 3 37 573 557 594
1002 2 2 3 37 227 228 556
1003 2 2 3 37 236 237 555
1004 2 2 3 37 559 543 595
1005 2 2 3 37 571 549 582
1006 2 2 3 37 560 540 583
1007 2 2 3 37 554 226 578
1008 2 2 3 37 241 242 562
1009 2 2 3 37 565 568 584
1010 2 2 3 37 543 574 595
1011 2 2 3 37 541 571 582
1012 2 2 3 37 575 560 583
1013 2 2 3 37 544 555 577
1014 2 2 3 37 551 544 577
1015 2 2 3 37 557 542 589
1016 2 2 3 37 542 562 589
1017 2 2 3 37 538 563 581
1018 2 2 3 37 222 223 561
1019 2 2 3 37 545 554 578
1020 2 2 3 37 555 544 583
1021 2 2 3 37 561 543 586
1022 2 2 3 37 546 568 570
1023 2 2 3 37 241 562 580
1024 2 2 3 37 578 556 593
1025 2 2 3 37 568 537 570
1026 2 2 3 37 543 559 586
1027 2 2 3 37 229 553 587
1028 2 2 3 37 552 235 588
1029 2 2 3 37 555 237 577
1030 2 2 3 37 227 556 578
1031 2 2 3 37 545 578 593
1032 2 2 3 37 563 547 581
1033 2 2 3 37 570 537 576
1034 2 2 3 37 562 547 580
1035 2 2 3 37 235 552 598
1036 2 2 3 37 553 229 599
1037 2 2 3 37 558 539 592
1038 2 2 3 37 551 538 596
1039 2 2 3 37 539 554 597
1040 2 2 3 37 561 223 579
1041 2 2 3 37 552 572 591
1042 2 2 3 37 571 553 590
1043 2 2 3 37 559 221 586
1044 2 2 3 37 243 557 589
1045 2 2 3 37 547 569 602
1046 2 2 3 37 546 561 579
1047 2 2 3 37 536 560 575
1048 2 2 3 37 570 576 585
1049 2 2 3 37 544 551 596
1050 2 2 3 37 554 545 597
1051 2 2 3 37 566 536 575
1052 2 2 3 37 581 547 602
1053 2 2 3 37 544 566 575
1054 2 2 3 37 228 229 587
1055 2 2 3 37 235 236 588
1056 2 2 3 37 556 228 587
1057 2 2 3 37 236 555 588
1058 2 2 3 37 224 558 579
1059 2 2 3 37 221 222 586
1060 2 2 3 37 558 546 579
1061 2 2 3 37 556 541 593
1062 2 2 3 37 563 240 580
1063 2 2 3 37 540 555 583
1064 2 2 3 37 557 243 601
1065 2 2 3 37 547 563 580
1066 2 2 3 37 549 560 582
1067 2 2 3 37 242 243 589
1068 2 2 3 37 550 565 584
1069 2 2 3 37 221 559 600
1070 2 2 3 37 562 242 589
1071 2 2 3 37 537 569 576
1072 2 2 3 37 538 566 596
1073 2 2 3 37 574 543 585
1074 2 2 3 37 565 538 581
1075 2 2 3 37 546 558 592
1076 2 2 3 37 187 557 601
1077 2 2 3 37 237 238 577
1078 2 2 3 37 548 574 585
1079 2 2 3 37 222 561 586
1080 2 2 3 37 226 227 578
1081 2 2 3 37 557 187 594
1082 2 2 3 37 545 564 597
1083 2 2 3 37 234 56 598
1084 2 2 3 37 55 230 599
1085 2 2 3 37 566 544 596
1086 2 2 3 37 559 183 600
1087 2 2 3 37 183 48 600
1088 2 2 3 37 49 187 601
1089 2 2 3 37 183 559 595
1090 2 2 3 37 223 224 579
1091 2 2 3 37 541 567 593
1092 2 2 3 37 567 541 582
1093 2 2 3 37 564 539 597
1094 2 2 3 37 240 241 580
1095 2 2 3 37 568 539 584
1096 2 2 3 37 568 546 592
1097 2 2 3 37 539 568 592
1098 2 2 3 37 537 565 602
1099 2 2 3 37 567 545 593
1100 2 2 3 37 56 235 598
1101 2 2 3 37 229 55 599
1102 2 2 3 37 187 186 594
1103 2 2 3 37 184 183 595
1104 2 2 3 37 543 570 585
1105 2 2 3 37 230 231 590
1106 2 2 3 37 233 234 591
1107 2 2 3 37 569 537 602
1108 2 2 3 37 552 591 598
1109 2 2 3 37 590 553 599
1110 2 2 3 37 243 49 601
1111 2 2 3 37 48 221 600
1112 2 2 3 37 591 234 598
1113 2 2 3 37 230 590 599
1114 2 2 3 37 544 575 583
1115 2 2 3 37 231 571 590
1116 2 2 3 37 572 233 591
1117 2 2 3 37 186 573 594
1118 2 2 3 37 574 184 595
1119 2 2 3 37 576 548 585
1120 2 2 3 37 565 581 602
$EndElements
