$MeshFormat
2.2 0 8
$EndMeshFormat
$Nodes
600
1 12.7 0 0
2 10.222 7.536 0
3 9.734 8.157 0
4 9.202 8.753 0
5 8.653 9.295999999999999 0
6 8.125 9.760999999999999 0
7 0 12.7 0
8 -8.125 9.760999999999999 0
9 -8.653 9.295999999999999 0
10 -9.202 8.753 0
11 -9.734 8.157 0
12 -10.222 7.536 0
13 -12.7 0 0
14 -10.222 -7.536 0
15 -9.734 -8.157 0
16 -9.202 -8.753 0
17 -8.653 -9.295999999999999 0
18 -8.125 -9.760999999999999 0
19 0 -12.7 0
20 8.125 -9.760999999999999 0
21 8.653 -9.295999999999999 0
22 9.202 -8.753 0
23 9.734 -8.157 0
24 10.222 -7.536 0
25 12.947 0 4.646
26 10.445 7.701 4.646
27 9.987 8.369 4.646
28 9.489000000000001 9.026999999999999 4.646
29 8.920999999999999 9.585000000000001 4.646
30 8.313000000000001 9.987 4.646
31 0 12.852 4.646
32 -8.313000000000001 9.987 4.646
33 -8.920999999999999 9.585000000000001 4.646
34 -9.489000000000001 9.026999999999999 4.646
35 -9.987 8.369 4.646
36 -10.445 7.701 4.646
37 -12.947 0 4.646
38 -10.445 -7.701 4.646
39 -9.987 -8.369 4.646
40 -9.489000000000001 -9.026999999999999 4.646
41 -8.920999999999999 -9.585000000000001 4.646
42 -8.313000000000001 -9.987 4.646
43 0 -12.852 4.646
44 8.313000000000001 -9.987 4.646
45 8.920999999999999 -9.585000000000001 4.646
46 9.489000000000001 -9.026999999999999 4.646
47 9.987 -8.369 4.646
48 10.445 -7.701 4.646
49 14.54 0 12.975
50 11.871 8.752000000000001 12.975
51 11.581 9.704000000000001 12.975
52 11.268 10.72 12.975
53 10.583 11.37 12.975
54 9.507999999999999 11.423 12.975
55 0 13.866 12.975
56 -9.507999999999999 11.423 12.975
57 -10.583 11.37 12.975
58 -11.268 10.72 12.975
59 -11.581 9.704000000000001 12.975
60 -11.871 8.752000000000001 12.975
61 -14.54 0 12.975
62 -11.871 -8.752000000000001 12.975
63 -11.581 -9.704000000000001 12.975
64 -11.268 -10.72 12.975
65 -10.583 -11.37 12.975
66 -9.507999999999999 -11.423 12.975
67 0 -13.866 12.975
68 9.507999999999999 -11.423 12.975
69 10.583 -11.37 12.975
70 11.268 -10.72 12.975
71 11.581 -9.704000000000001 12.975
72 11.871 -8.752000000000001 12.975
73 19.054 0 25.728
74 15.841 11.679 25.728
75 15.897 13.321 25.728
76 15.942 15.165 25.728
77 14.953 16.066 25.728
78 12.807 15.386 25.728
79 0 16.938 25.728
80 -12.807 15.386 25.728
81 -14.953 16.066 25.728
82 -15.942 15.165 25.728
83 -15.897 13.321 25.728
84 -15.841 11.679 25.728
85 -19.054 0 25.728
86 -15.841 -11.679 25.728
87 -15.897 -13.321 25.728
88 -15.942 -15.165 25.728
89 -14.953 -16.066 25.728
90 -12.807 -15.386 25.728
91 0 -16.938 25.728
92 12.807 -15.386 25.728
93 14.953 -16.066 25.728
94 15.942 -15.165 25.728
95 15.897 -13.321 25.728
96 15.841 -11.679 25.728
97 27.99 0 44.154
98 23.559 17.369 44.154
99 24.063 20.163 44.154
100 24.547 23.351 44.154
101 23.009 24.721 44.154
102 19.161 23.02 44.154
103 0 23.516 44.154
104 -19.161 23.02 44.154
105 -23.009 24.721 44.154
106 -24.547 23.351 44.154
107 -24.063 20.163 44.154
108 -23.559 17.369 44.154
109 -27.99 0 44.154
110 -23.559 -17.369 44.154
111 -24.063 -20.163 44.154
112 -24.547 -23.351 44.154
113 -23.009 -24.721 44.154
114 -19.161 -23.02 44.154
115 0 -23.516 44.154
116 19.161 -23.02 44.154
117 23.009 -24.721 44.154
118 24.547 -23.351 44.154
119 24.063 -20.163 44.154
120 23.559 -17.369 44.154
121 41.873 0 67.92100000000001
122 35.411 26.106 67.92100000000001
123 36.373 30.478 67.92100000000001
124 37.288 35.472 67.92100000000001
125 34.945 37.544 67.92100000000001
126 28.853 34.664 67.92100000000001
127 0 34.388 67.92100000000001
128 -28.853 34.664 67.92100000000001
129 -34.945 37.544 67.92100000000001
130 -37.288 35.472 67.92100000000001
131 -36.373 30.478 67.92100000000001
132 -35.411 26.106 67.92100000000001
133 -41.873 0 67.92100000000001
134 -35.411 -26.106 67.92100000000001
135 -36.373 -30.478 67.92100000000001
136 -37.288 -35.472 67.92100000000001
137 -34.945 -37.544 67.92100000000001
138 -28.853 -34.664 67.92100000000001
139 0 -34.388 67.92100000000001
140 28.853 -34.664 67.92100000000001
141 34.945 -37.544 67.92100000000001
142 37.288 -35.472 67.92100000000001
143 36.373 -30.478 67.92100000000001
144 35.411 -26.106 67.92100000000001
145 61.648 0 95.581
146 52.545 38.738 95.581
147 53.808 45.088 95.581
148 54.937 52.261 95.581
149 51.448 55.275 95.581
150 42.665 51.258 95.581
151 0 50.698 95.581
152 -42.665 51.258 95.581
153 -51.448 55.275 95.581
154 -54.937 52.261 95.581
155 -53.808 45.088 95.581
156 -52.545 38.738 95.581
157 -61.648 0 95.581
158 -52.545 -38.738 95.581
159 -53.808 -45.088 95.581
160 -54.937 -52.261 95.581
161 -51.448 -55.275 95.581
162 -42.665 -51.258 95.581
163 0 -50.698 95.581
164 42.665 -51.258 95.581
165 51.448 -55.275 95.581
166 54.937 -52.261 95.581
167 53.808 -45.088 95.581
168 52.545 -38.738 95.581
169 89.658 0 123.155
170 78.666 57.995 123.155
171 79.545 66.654 123.155
172 79.926 76.033 123.155
173 74.639 80.191 123.155
174 62.999 75.688 123.155
175 0 75.054 123.155
176 -62.999 75.688 123.155
177 -74.639 80.191 123.155
178 -79.926 76.033 123.155
179 -79.545 66.654 123.155
180 -78.666 57.995 123.155
181 -89.658 0 123.155
182 -78.666 -57.995 123.155
183 -79.545 -66.654 123.155
184 -79.926 -76.033 123.155
185 -74.639 -80.191 123.155
186 -62.999 -75.688 123.155
187 0 -75.054 123.155
188 62.999 -75.688 123.155
189 74.639 -80.191 123.155
190 79.926 -76.033 123.155
191 79.545 -66.654 123.155
192 78.666 -57.995 123.155
193 126.532 0 146.013
194 116.046 85.553 146.013
195 115.372 96.675 146.013
196 113.358 107.837 146.013
197 105.391 113.231 146.013
198 91.125 109.479 146.013
199 0 108.416 146.013
200 -91.125 109.479 146.013
201 -105.391 113.231 146.013
202 -113.358 107.837 146.013
203 -115.372 96.675 146.013
204 -116.046 85.553 146.013
205 -126.532 0 146.013
206 -116.046 -85.553 146.013
207 -115.372 -96.675 146.013
208 -113.358 -107.837 146.013
209 -105.391 -113.231 146.013
210 -91.125 -109.479 146.013
211 0 -108.416 146.013
212 91.125 -109.479 146.013
213 105.391 -113.231 146.013
214 113.358 -107.837 146.013
215 115.372 -96.675 146.013
216 116.046 -85.553 146.013
217 169.306 0 163.15
218 161.477 119.046 163.15
219 158.278 132.627 163.15
220 152.509 145.081 163.15
221 141.217 151.723 163.15
222 124.689 149.802 163.15
223 0 148.006 163.15
224 -124.689 149.802 163.15
225 -141.217 151.723 163.15
226 -152.509 145.081 163.15
227 -158.278 132.627 163.15
228 -161.477 119.046 163.15
229 -169.306 0 163.15
230 -161.477 -119.046 163.15
231 -158.278 -132.627 163.15
232 -152.509 -145.081 163.15
233 -141.217 -151.723 163.15
234 -124.689 -149.802 163.15
235 0 -148.006 163.15
236 124.689 -149.802 163.15
237 141.217 -151.723 163.15
238 152.509 -145.081 163.15
239 158.278 -132.627 163.15
240 161.477 -119.046 163.15
241 209.734 0 174.446
242 204.875 151.041 174.446
243 199.005 166.753 174.446
244 189.335 180.113 174.446
245 174.867 187.876 174.446
246 156.568 188.103 174.446
247 0 185.953 174.446
248 -156.568 188.103 174.446
249 -174.867 187.876 174.446
250 -189.335 180.113 174.446
251 -199.005 166.753 174.446
252 -204.875 151.041 174.446
253 -209.734 0 174.446
254 -204.875 -151.041 174.446
255 -199.005 -166.753 174.446
256 -189.335 -180.113 174.446
257 -174.867 -187.876 174.446
258 -156.568 -188.103 174.446
259 0 -185.953 174.446
260 156.568 -188.103 174.446
261 174.867 -187.876 174.446
262 189.335 -180.113 174.446
263 199.005 -166.753 174.446
264 204.875 -151.041 174.446
265 243.186 0 181.217
266 240.051 176.974 181.217
267 231.966 194.372 181.217
268 219.131 208.457 181.217
269 202.14 217.177 181.217
270 182.508 219.266 181.217
271 0 217.733 181.217
272 -182.508 219.266 181.217
273 -202.14 217.177 181.217
274 -219.131 208.457 181.217
275 -231.966 194.372 181.217
276 -240.051 176.974 181.217
277 -243.186 0 181.217
278 -240.051 -176.974 181.217
279 -231.966 -194.372 181.217
280 -219.131 -208.457 181.217
281 -202.14 -217.177 181.217
282 -182.508 -219.266 181.217
283 0 -217.733 181.217
284 182.508 -219.266 181.217
285 202.14 -217.177 181.217
286 219.131 -208.457 181.217
287 231.966 -194.372 181.217
288 240.051 -176.974 181.217
289 265.174 0 184.252
290 261.929 193.103 184.252
291 252.51 211.587 184.252
292 237.841 226.256 184.252
293 219.357 235.675 184.252
294 198.867 238.92 184.252
295 0 238.92 184.252
296 -198.867 238.92 184.252
297 -219.357 235.675 184.252
298 -237.841 226.256 184.252
299 -252.51 211.587 184.252
300 -261.929 193.103 184.252
301 -265.174 0 184.252
302 -261.929 -193.103 184.252
303 -252.51 -211.587 184.252
304 -237.841 -226.256 184.252
305 -219.357 -235.675 184.252
306 -198.867 -238.92 184.252
307 0 -238.92 184.252
308 198.867 -238.92 184.252
309 219.357 -235.675 184.252
310 237.841 -226.256 184.252
311 252.51 -211.587 184.252
312 261.929 -193.103 184.252
313 84.16200000001426 28.99749999992473 123.155
314 97.35599999995112 71.77399999996396 134.5839999999701
315 97.45849999995701 81.66449999996398 134.5839999999726
316 96.64199999995233 91.93499999995466 134.5839999999674
317 90.01499999995521 96.71099999995187 134.5839999999667
318 31.49950000007763 75.37100000000078 123.155
319 -31.49949999991875 75.37099999999919 123.155
320 -90.01499999995521 96.71099999995187 134.5839999999667
321 -96.64199999995233 91.93499999995466 134.5839999999674
322 -97.45849999995701 81.66449999996398 134.5839999999726
323 -97.35599999995112 71.77399999996396 134.5839999999701
324 -84.16199999998543 28.99750000007687 123.155
325 -84.16200000001426 -28.99749999992473 123.155
326 -97.35599999995112 -71.77399999996396 134.5839999999701
327 -97.45849999995701 -81.66449999996398 134.5839999999726
328 -96.64199999995233 -91.93499999995466 134.5839999999674
329 -90.01499999995521 -96.71099999995187 134.5839999999667
330 -31.49950000007763 -75.37100000000078 123.155
331 31.49949999991875 -75.37099999999919 123.155
332 90.01499999995521 -96.71099999995187 134.5839999999667
333 96.64199999995233 -91.93499999995466 134.5839999999674
334 97.45849999995701 -81.66449999996398 134.5839999999726
335 97.35599999995112 -71.77399999996396 134.5839999999701
336 84.16199999998543 -28.99750000007687 123.155
337 121.2890000000151 42.77649999987654 146.013
338 138.7614999999394 102.2994999999553 154.5814999999772
339 136.8249999999463 114.650999999955 154.5814999999785
340 132.9334999999427 126.4589999999455 154.5814999999749
341 123.3039999999595 132.4769999999565 154.5814999999807
342 107.9069999999684 129.6404999999621 154.5814999999839
343 45.56250000006936 108.9475000000008 146.013
344 -45.56249999994019 108.9474999999993 146.013
345 -107.9069999999684 129.6404999999621 154.5814999999839
346 -123.3039999999595 132.4769999999565 154.5814999999807
347 -132.9334999999427 126.4589999999455 154.5814999999749
348 -136.8249999999463 114.650999999955 154.5814999999785
349 -138.7614999999394 102.2994999999553 154.5814999999772
350 -121.2889999999854 42.77650000011959 146.013
351 -121.2890000000151 -42.77649999987654 146.013
352 -138.7614999999394 -102.2994999999553 154.5814999999772
353 -136.8249999999463 -114.650999999955 154.5814999999785
354 -132.9334999999427 -126.4589999999455 154.5814999999749
355 -123.3039999999595 -132.4769999999565 154.5814999999807
356 -107.9069999999684 -129.6404999999621 154.5814999999839
357 -45.56250000006936 -108.9475000000008 146.013
358 45.56249999994019 -108.9474999999993 146.013
359 107.9069999999684 -129.6404999999621 154.5814999999839
360 123.3039999999595 -132.4769999999565 154.5814999999807
361 132.9334999999427 -126.4589999999455 154.5814999999749
362 136.8249999999463 -114.650999999955 154.5814999999785
363 138.7614999999394 -102.2994999999553 154.5814999999772
364 121.2889999999854 -42.77650000011959 146.013
365 166.6963333333397 39.68199999990415 163.15
366 164.0866666666736 79.36399999989563 163.15
367 183.1759999999491 135.0434999999624 168.7979999999868
368 178.6414999999281 149.6899999999397 168.79799999998
369 170.9219999999597 162.5969999999616 168.7979999999876
370 158.0419999999518 169.7994999999482 168.7979999999838
371 140.628499999956 168.9524999999471 168.7979999999844
372 83.12600000009982 149.2033333333348 163.15
373 41.56300000011288 148.6046666666683 163.15
374 -41.56299999989856 148.6046666666652 163.15
375 -83.125999999887 149.2033333333317 163.15
376 -140.628499999956 168.9524999999471 168.7979999999844
377 -158.0419999999518 169.7994999999482 168.7979999999838
378 -170.9219999999597 162.5969999999616 168.7979999999876
379 -178.6414999999281 149.6899999999397 168.79799999998
380 -183.1759999999491 135.0434999999624 168.7979999999868
381 -164.0866666666601 79.36400000009952 163.15
382 -166.6963333333262 39.68200000010827 163.15
383 -166.6963333333397 -39.68199999990415 163.15
384 -164.0866666666736 -79.36399999989563 163.15
385 -183.1759999999491 -135.0434999999624 168.7979999999868
386 -178.6414999999281 -149.6899999999397 168.79799999998
387 -170.9219999999597 -162.5969999999616 168.7979999999876
388 -158.0419999999518 -169.7994999999482 168.7979999999838
389 -140.628499999956 -168.9524999999471 168.7979999999844
390 -83.12600000009982 -149.2033333333348 163.15
391 -41.56300000011288 -148.6046666666683 163.15
392 41.56299999989856 -148.6046666666652 163.15
393 83.125999999887 -149.2033333333317 163.15
394 140.628499999956 -168.9524999999471 168.7979999999844
395 158.0419999999518 -169.7994999999482 168.7979999999838
396 170.9219999999597 -162.5969999999616 168.7979999999876
397 178.6414999999281 -149.6899999999397 168.79799999998
398 183.1759999999491 -135.0434999999624 168.7979999999868
399 164.0866666666601 -79.36400000009952 163.15
400 166.6963333333262 -39.68200000010827 163.15
401 208.519250000003 37.76024999990562 174.446
402 207.3045000000066 75.52049999979489 174.446
403 206.0897500000034 113.2807499998952 174.446
404 117.426000000096 187.5655000000013 174.446
405 78.28400000020838 187.0280000000029 174.446
406 39.14200000010699 186.4905000000015 174.446
407 -39.14199999990684 186.4904999999987 174.446
408 -78.28399999979355 187.0279999999972 174.446
409 -117.425999999894 187.5654999999986 174.446
410 -206.0897499999974 113.2807500000822 174.446
411 -207.3044999999937 75.52050000019709 174.446
412 -208.5192499999968 37.76025000010098 174.446
413 -208.519250000003 -37.76024999990562 174.446
414 -207.3045000000066 -75.52049999979489 174.446
415 -206.0897500000034 -113.2807499998952 174.446
416 -117.426000000096 -187.5655000000013 174.446
417 -78.28400000020838 -187.0280000000029 174.446
418 -39.14200000010699 -186.4905000000015 174.446
419 39.14199999990684 -186.4904999999987 174.446
420 78.28399999979355 -187.0279999999972 174.446
421 117.425999999894 -187.5654999999986 174.446
422 206.0897499999974 -113.2807500000822 174.446
423 207.3044999999937 -75.52050000019709 174.446
424 208.5192499999968 -37.76025000010098 174.446
425 242.4022500000018 44.24349999989856 181.217
426 241.6185000000041 88.48699999976664 181.217
427 240.8347500000021 132.7304999998821 181.217
428 136.8810000001068 218.8827500000009 181.217
429 91.25400000023289 218.4995000000019 181.217
430 45.62700000013166 218.1162500000011 181.217
431 -45.62699999989151 218.1162499999991 181.217
432 -91.25399999976224 218.499499999998 181.217
433 -136.880999999866 218.8827499999989 181.217
434 -240.8347499999981 132.7305000001057 181.217
435 -241.6184999999959 88.48700000023052 181.217
436 -242.4022499999979 44.24350000011648 181.217
437 -242.4022500000018 -44.24349999989856 181.217
438 -241.6185000000041 -88.48699999976664 181.217
439 -240.8347500000021 -132.7304999998821 181.217
440 -136.8810000001068 -218.8827500000009 181.217
441 -91.25400000023289 -218.4995000000019 181.217
442 -45.62700000013166 -218.1162500000011 181.217
443 45.62699999989151 -218.1162499999991 181.217
444 91.25399999976224 -218.499499999998 181.217
445 136.880999999866 -218.8827499999989 181.217
446 240.8347499999981 -132.7305000001057 181.217
447 241.6184999999959 -88.48700000023052 181.217
448 242.4022499999979 -44.24350000011648 181.217
449 264.3627500000019 48.27574999988367 184.252
450 263.5515000000042 96.55149999974574 184.252
451 262.7402500000021 144.8272499998741 184.252
452 149.1502500001138 238.92 184.252
453 99.43350000026366 238.92 184.252
454 49.7167500001471 238.92 184.252
455 -49.71674999988137 238.92 184.252
456 -99.4334999997368 238.92 184.252
457 -149.1502499998531 238.92 184.252
458 -262.740249999998 144.8272500001179 184.252
459 -263.5514999999957 96.55150000025533 184.252
460 -264.3627499999978 48.27575000012646 184.252
461 -264.3627500000019 -48.27574999988367 184.252
462 -263.5515000000042 -96.55149999974574 184.252
463 -262.7402500000021 -144.8272499998741 184.252
464 -149.1502500001138 -238.92 184.252
465 -99.43350000026366 -238.92 184.252
466 -49.7167500001471 -238.92 184.252
467 49.71674999988137 -238.92 184.252
468 99.4334999997368 -238.92 184.252
469 149.1502499998531 -238.92 184.252
470 262.740249999998 -144.8272500001179 184.252
471 263.5514999999957 -96.55150000025533 184.252
472 264.3627499999978 -48.27575000012646 184.252
473 11.58517805173171 3.811419651400175 2.322644967977243
474 4.098848491946454 11.29409389652736 2.324934408716936
475 -4.120178588757305 11.35598468004869 2.321986295443952
476 -11.57182627266502 3.807081753565494 2.323397331437234
477 -11.58517805173171 -3.811419651400175 2.322644967977243
478 -4.098848491946454 -11.29409389652736 2.324934408716936
479 4.120178588757305 -11.35598468004869 2.321986295443952
480 11.57182627266502 -3.807081753565493 2.323397331437234
481 12.48472540603406 4.123611101314546 8.804001882361357
482 4.413053322615008 11.86777322612505 8.84486843279619
483 -4.498577850959603 12.20062922919522 8.789970520061958
484 -12.41699542219083 4.102956242210618 8.817578012653682
485 -12.48472540603406 -4.123611101314546 8.804001882361357
486 -4.413053322615008 -11.86777322612505 8.84486843279619
487 4.498577850959603 -12.20062922919522 8.789970520061958
488 12.41699542219083 -4.102956242210618 8.817578012653682
489 15.55293513261108 5.088624585335129 19.79184413952745
490 5.240663907343818 14.23725274419002 19.68978973941951
491 -5.227009904323679 14.80331061141941 19.49571499268561
492 -15.45218710430229 5.064353883521941 19.82970518453546
493 -15.55293513261108 -5.088624585335129 19.79184413952745
494 -5.240663907343818 -14.23725274419002 19.68978973941951
495 5.227009904323679 -14.80331061141941 19.49571499268561
496 15.45218710430229 -5.064353883521941 19.82970518453546
497 22.05454421438016 7.105143811776992 35.65266747532286
498 6.863980397467851 19.55509906419666 35.21512607502726
499 -6.825570603959782 20.0702863639403 34.99694607066105
500 -21.9721082965391 7.086040489758027 35.69377391648922
501 -22.05454421438016 -7.105143811776992 35.65266747532286
502 -6.863980397467851 -19.55509906419666 35.21512607502726
503 6.825570603959782 -20.0702863639403 34.99694607066105
504 21.9721082965391 -7.086040489758027 35.69377391648922
505 32.98909933774692 10.52465829527236 57.17211305146041
506 10.32380557551142 28.75503686610412 56.12787983953237
507 -10.31381944874338 29.0311095110733 55.99476290661003
508 -32.94677920670819 10.51457201782419 57.19709231227898
509 -32.98909933774692 -10.52465829527236 57.17211305146041
510 -10.32380557551142 -28.75503686610412 56.12787983953237
511 10.31381944874338 -29.0311095110733 55.99476290661003
512 32.94677920670819 -10.51457201782419 57.19709231227898
513 48.32103642453767 16.07227783162226 82.22285415599306
514 17.87974923508636 42.73301140185775 81.7622673305336
515 -17.87924995260673 42.77105048577441 81.73976668752786
516 -48.22094026073164 16.04917698039023 82.29520261674804
517 -48.32103642453767 -16.07227783162226 82.22285415599306
518 -17.87974923508636 -42.73301140185775 81.7622673305336
519 17.87924995260673 -42.77105048577441 81.73976668752786
520 48.22094026073164 -16.04917698039023 82.29520261674804
521 17.77856369424732 63.08200161532189 109.3244823318832
522 -17.77893464123913 63.04514153211199 109.3569284258833
523 -17.77856369424732 -63.08200161532189 109.3244823318832
524 17.77893464123913 -63.04514153211199 109.3569284258833
525 105.9005182590747 21.07710322943419 134.825065821592
526 97.90415569231705 44.57665742183542 131.6536310074475
527 16.92512744336977 91.83454986065514 134.5515973357215
528 -16.92492300536048 91.85068206945952 134.5279874521542
529 -105.4422404898575 21.03860075478767 135.6314777636793
530 -97.2904555301476 44.50497133018803 132.6727957797106
531 -105.9005182590747 -21.07710322943419 134.825065821592
532 -97.90415569231705 -44.57665742183542 131.6536310074475
533 -16.92512744336977 -91.83454986065514 134.5515973357215
534 16.92492300536048 -91.85068206945952 134.5279874521542
535 105.4422404898575 -21.03860075478767 135.6314777636793
536 97.2904555301476 -44.50497133018803 132.6727957797106
537 141.6445984668885 69.95267081874697 153.9108278740127
538 147.7506396418434 18.50923432888912 155.001727925529
539 68.14707955439221 126.0749858150038 153.2941376691088
540 21.78158545731657 128.478930471419 154.6154676395024
541 -68.1467080864079 126.0976096134343 153.2418080149725
542 -21.78130410038113 128.4984639370169 154.5701285415658
543 -141.320236364644 69.93133930922221 154.7362214877218
544 -147.4873257861347 18.49191762640316 155.7378845369619
545 -141.6445984668885 -69.95267081874697 153.9108278740127
546 -147.7506396418434 -18.50923432888912 155.001727925529
547 -68.14707955439221 -126.0749858150038 153.2941376691088
548 -21.78158545731657 -128.478930471419 154.6154676395024
549 68.1467080864079 -126.0976096134343 153.2418080149725
550 21.78130410038113 -128.4984639370169 154.5701285415658
551 141.320236364644 -69.93133930922221 154.7362214877218
552 147.4873257861347 -18.49191762640316 155.7378845369619
553 182.9723057484411 101.9191595076648 167.884622381375
554 189.233858948318 20.44587383562011 168.9018300453575
555 187.9440103994464 54.02332724373271 168.8432490416945
556 184.4643087440443 164.7798783162313 171.68899282795
557 103.6757084414117 165.5950682421355 167.9477416319439
558 20.17621082951665 167.2663941563613 168.788438695983
559 -103.67576037449 165.5911445182847 167.9609176495388
560 -20.17625780232386 167.2629734797543 168.7999087277566
561 -184.4886207105475 164.7974753758185 171.551837384536
562 -182.8199254335727 101.9168896799613 168.4365058714075
563 -189.1142864879934 20.44202718094822 169.3704746979476
564 -187.8194488515684 54.01932008991262 169.3158972448095
565 -182.9723057484411 -101.9191595076648 167.884622381375
566 -189.233858948318 -20.44587383562011 168.9018300453575
567 -187.9440103994464 -54.0233272437327 168.8432490416945
568 -184.4643087440443 -164.7798783162313 171.68899282795
569 -103.6757084414117 -165.5950682421355 167.9477416319439
570 -20.17621082951665 -167.2663941563613 168.788438695983
571 103.67576037449 -165.5911445182847 167.9609176495388
572 20.17625780232386 -167.2629734797543 168.7999087277566
573 184.4886207105475 -164.7974753758185 171.551837384536
574 182.8199254335727 -101.9168896799613 168.4365058714075
575 189.1142864879934 -20.4420271809482 169.3704746979476
576 187.8194488515684 -54.01932008991262 169.3158972448095
577 225.9657456795332 20.50103263867387 177.8049662573176
578 209.8509610206461 187.416196641817 177.9026607219223
579 21.19210982339373 202.0898759298401 177.7552298247862
580 -21.19226903194013 202.0709216875218 177.8421346951022
581 -209.8682820057325 187.4319804432784 177.7573010150503
582 -225.9270903354649 20.50034787997847 178.0066753030666
583 -225.9657456795332 -20.50103263867387 177.8049662573176
584 -209.8509610206461 -187.416196641817 177.9026607219223
585 -21.19210982339373 -202.0898759298401 177.7552298247862
586 21.19226903194013 -202.0709216875218 177.8421346951022
587 209.8682820057325 -187.4319804432784 177.7573010150503
588 225.9270903354649 -20.50034787997847 178.0066753030666
589 253.781438174395 23.12981566212279 182.7331367121664
590 235.2439538496179 210.24915865541 182.7566532337392
591 23.83593750006969 228.4379332205446 182.6333436106824
592 -23.83593749994322 228.4203859553118 182.7479489958168
593 -235.2478280444392 210.2534208928514 182.7061317353167
594 -253.779951512107 23.12979067961668 182.7439761977079
595 -253.781438174395 -23.12981566212279 182.7331367121664
596 -235.2439538496179 -210.24915865541 182.7566532337392
597 -23.83593750006969 -228.4379332205446 182.6333436106824
598 23.83593749994322 -228.4203859553118 182.7479489958168
599 235.2478280444392 -210.2534208928514 182.7061317353167
600 253.779951512107 -23.12979067961668 182.7439761977079
$EndNodes
$Elements
2200
1 15 2 0 1 1
2 15 2 0 2 2
3 15 2 0 3 3
4 15 2 0 4 4
5 15 2 0 5 5
6 15 2 0 6 6
7 15 2 0 7 7
8 15 2 0 8 8
9 15 2 0 9 9
10 15 2 0 10 10
11 15 2 0 11 11
12 15 2 0 12 12
13 15 2 0 13 13
14 15 2 0 14 14
15 15 2 0 15 15
16 15 2 0 16 16
17 15 2 0 17 17
18 15 2 0 18 18
19 15 2 0 19 19
20 15 2 0 20 20
21 15 2 0 21 21
22 15 2 0 22 22
23 15 2 0 23 23
24 15 2 0 24 24
25 15 2 0 25 25
26 15 2 0 26 26
27 15 2 0 27 27
28 15 2 0 28 28
29 15 2 0 29 29
30 15 2 0 30 30
31 15 2 0 31 31
32 15 2 0 32 32
33 15 2 0 33 33
34 15 2 0 34 34
35 15 2 0 35 35
36 15 2 0 36 36
37 15 2 0 37 37
38 15 2 0 38 38
39 15 2 0 39 39
40 15 2 0 40 40
41 15 2 0 41 41
42 15 2 0 42 42
43 15 2 0 43 43
44 15 2 0 44 44
45 15 2 0 45 45
46 15 2 0 46 46
47 15 2 0 47 47
48 15 2 0 48 48
49 15 2 0 49 49
50 15 2 0 50 50
51 15 2 0 51 51
52 15 2 0 52 52
53 15 2 0 53 53
54 15 2 0 54 54
55 15 2 0 55 55
56 15 2 0 56 56
57 15 2 0 57 57
58 15 2 0 58 58
59 15 2 0 59 59
60 15 2 0 60 60
61 15 2 0 61 61
62 15 2 0 62 62
63 15 2 0 63 63
64 15 2 0 64 64
65 15 2 0 65 65
66 15 2 0 66 66
67 15 2 0 67 67
68 15 2 0 68 68
69 15 2 0 69 69
70 15 2 0 70 70
71 15 2 0 71 71
72 15 2 0 72 72
73 15 2 0 73 73
74 15 2 0 74 74
75 15 2 0 75 75
76 15 2 0 76 76
77 15 2 0 77 77
78 15 2 0 78 78
79 15 2 0 79 79
80 15 2 0 80 80
81 15 2 0 81 81
82 15 2 0 82 82
83 15 2 0 83 83
84 15 2 0 84 84
85 15 2 0 85 85
86 15 2 0 86 86
87 15 2 0 87 87
88 15 2 0 88 88
89 15 2 0 89 89
90 15 2 0 90 90
91 15 2 0 91 91
92 15 2 0 92 92
93 15 2 0 93 93
94 15 2 0 94 94
95 15 2 0 95 95
96 15 2 0 96 96
97 15 2 0 97 97
98 15 2 0 98 98
99 15 2 0 99 99
100 15 2 0 100 100
101 15 2 0 101 101
102 15 2 0 102 102
103 15 2 0 103 103
104 15 2 0 104 104
105 15 2 0 105 105
106 15 2 0 106 106
107 15 2 0 107 107
108 15 2 0 108 108
109 15 2 0 109 109
110 15 2 0 110 110
111 15 2 0 111 111
112 15 2 0 112 112
113 15 2 0 113 113
114 15 2 0 114 114
115 15 2 0 115 115
116 15 2 0 116 116
117 15 2 0 117 117
118 15 2 0 118 118
119 15 2 0 119 119
120 15 2 0 120 120
121 15 2 0 121 121
122 15 2 0 122 122
123 15 2 0 123 123
124 15 2 0 124 124
125 15 2 0 125 125
126 15 2 0 126 126
127 15 2 0 127 127
128 15 2 0 128 128
129 15 2 0 129 129
130 15 2 0 130 130
131 15 2 0 131 131
132 15 2 0 132 132
133 15 2 0 133 133
134 15 2 0 134 134
135 15 2 0 135 135
136 15 2 0 136 136
137 15 2 0 137 137
138 15 2 0 138 138
139 15 2 0 139 139
140 15 2 0 140 140
141 15 2 0 141 141
142 15 2 0 142 142
143 15 2 0 143 143
144 15 2 0 144 144
145 15 2 0 145 145
146 15 2 0 146 146
147 15 2 0 147 147
148 15 2 0 148 148
149 15 2 0 149 149
150 15 2 0 150 150
151 15 2 0 151 151
152 15 2 0 152 152
153 15 2 0 153 153
154 15 2 0 154 154
155 15 2 0 155 155
156 15 2 0 156 156
157 15 2 0 157 157
158 15 2 0 158 158
159 15 2 0 159 159
160 15 2 0 160 160
161 15 2 0 161 161
162 15 2 0 162 162
163 15 2 0 163 163
164 15 2 0 164 164
165 15 2 0 165 165
166 15 2 0 166 166
167 15 2 0 167 167
168 15 2 0 168 168
169 15 2 0 169 169
170 15 2 0 170 170
171 15 2 0 171 171
172 15 2 0 172 172
173 15 2 0 173 173
174 15 2 0 174 174
175 15 2 0 175 175
176 15 2 0 176 176
177 15 2 0 177 177
178 15 2 0 178 178
179 15 2 0 179 179
180 15 2 0 180 180
181 15 2 0 181 181
182 15 2 0 182 182
183 15 2 0 183 183
184 15 2 0 184 184
185 15 2 0 185 185
186 15 2 0 186 186
187 15 2 0 187 187
188 15 2 0 188 188
189 15 2 0 189 189
190 15 2 0 190 190
191 15 2 0 191 191
192 15 2 0 192 192
193 15 2 0 193 193
194 15 2 0 194 194
195 15 2 0 195 195
196 15 2 0 196 196
197 15 2 0 197 197
198 15 2 0 198 198
199 15 2 0 199 199
200 15 2 0 200 200
201 15 2 0 201 201
202 15 2 0 202 202
203 15 2 0 203 203
204 15 2 0 204 204
205 15 2 0 205 205
206 15 2 0 206 206
207 15 2 0 207 207
208 15 2 0 208 208
209 15 2 0 209 209
210 15 2 0 210 210
211 15 2 0 211 211
212 15 2 0 212 212
213 15 2 0 213 213
214 15 2 0 214 214
215 15 2 0 215 215
216 15 2 0 216 216
217 15 2 0 217 217
218 15 2 0 218 218
219 15 2 0 219 219
220 15 2 0 220 220
221 15 2 0 221 221
222 15 2 0 222 222
223 15 2 0 223 223
224 15 2 0 224 224
225 15 2 0 225 225
226 15 2 0 226 226
227 15 2 0 227 227
228 15 2 0 228 228
229 15 2 0 229 229
230 15 2 0 230 230
231 15 2 0 231 231
232 15 2 0 232 232
233 15 2 0 233 233
234 15 2 0 234 234
235 15 2 0 235 235
236 15 2 0 236 236
237 15 2 0 237 237
238 15 2 0 238 238
239 15 2 0 239 239
240 15 2 0 240 240
241 15 2 0 241 241
242 15 2 0 242 242
243 15 2 0 243 243
244 15 2 0 244 244
245 15 2 0 245 245
246 15 2 0 246 246
247 15 2 0 247 247
248 15 2 0 248 248
249 15 2 0 249 249
250 15 2 0 250 250
251 15 2 0 251 251
252 15 2 0 252 252
253 15 2 0 253 253
254 15 2 0 254 254
255 15 2 0 255 255
256 15 2 0 256 256
257 15 2 0 257 257
258 15 2 0 258 258
259 15 2 0 259 259
260 15 2 0 260 260
261 15 2 0 261 261
262 15 2 0 262 262
263 15 2 0 263 263
264 15 2 0 264 264
265 15 2 0 265 265
266 15 2 0 266 266
267 15 2 0 267 267
268 15 2 0 268 268
269 15 2 0 269 269
270 15 2 0 270 270
271 15 2 0 271 271
272 15 2 0 272 272
273 15 2 0 273 273
274 15 2 0 274 274
275 15 2 0 275 275
276 15 2 0 276 276
277 15 2 0 277 277
278 15 2 0 278 278
279 15 2 0 279 279
280 15 2 0 280 280
281 15 2 0 281 281
282 15 2 0 282 282
283 15 2 0 283 283
284 15 2 0 284 284
285 15 2 0 285 285
286 15 2 0 286 286
287 15 2 0 287 287
288 15 2 0 288 288
289 15 2 0 289 289
290 15 2 0 290 290
291 15 2 0 291 291
292 15 2 0 292 292
293 15 2 0 293 293
294 15 2 0 294 294
295 15 2 0 295 295
296 15 2 0 296 296
297 15 2 0 297 297
298 15 2 0 298 298
299 15 2 0 299 299
300 15 2 0 300 300
301 15 2 0 301 301
302 15 2 0 302 302
303 15 2 0 303 303
304 15 2 0 304 304
305 15 2 0 305 305
306 15 2 0 306 306
307 15 2 0 307 307
308 15 2 0 308 308
309 15 2 0 309 309
310 15 2 0 310 310
311 15 2 0 311 311
312 15 2 0 312 312
313 1 2 0 1 1 25
314 1 2 0 2 1 2
315 1 2 0 3 2 26
316 1 2 0 4 2 3
317 1 2 0 5 3 27
318 1 2 0 6 3 4
319 1 2 0 7 4 28
320 1 2 0 8 4 5
321 1 2 0 9 5 29
322 1 2 0 10 5 6
323 1 2 0 11 6 30
324 1 2 0 12 6 7
325 1 2 0 13 7 31
326 1 2 0 14 7 8
327 1 2 0 15 8 32
328 1 2 0 16 8 9
329 1 2 0 17 9 33
330 1 2 0 18 9 10
331 1 2 0 19 10 34
332 1 2 0 20 10 11
333 1 2 0 21 11 35
334 1 2 0 22 11 12
335 1 2 0 23 12 36
336 1 2 0 24 12 13
337 1 2 0 25 13 37
338 1 2 0 26 13 14
339 1 2 0 27 14 38
340 1 2 0 28 14 15
341 1 2 0 29 15 39
342 1 2 0 30 15 16
343 1 2 0 31 16 40
344 1 2 0 32 16 17
345 1 2 0 33 17 41
346 1 2 0 34 17 18
347 1 2 0 35 18 42
348 1 2 0 36 18 19
349 1 2 0 37 19 43
350 1 2 0 38 19 20
351 1 2 0 39 20 44
352 1 2 0 40 20 21
353 1 2 0 41 21 45
354 1 2 0 42 21 22
355 1 2 0 43 22 46
356 1 2 0 44 22 23
357 1 2 0 45 23 47
358 1 2 0 46 23 24
359 1 2 0 47 24 48
360 1 2 0 48 24 1
361 1 2 0 49 25 49
362 1 2 0 50 25 26
363 1 2 0 51 26 50
364 1 2 0 52 26 27
365 1 2 0 53 27 51
366 1 2 0 54 27 28
367 1 2 0 55 28 52
368 1 2 0 56 28 29
369 1 2 0 57 29 53
370 1 2 0 58 29 30
371 1 2 0 59 30 54
372 1 2 0 60 30 31
373 1 2 0 61 31 55
374 1 2 0 62 31 32
375 1 2 0 63 32 56
376 1 2 0 64 32 33
377 1 2 0 65 33 57
378 1 2 0 66 33 34
379 1 2 0 67 34 58
380 1 2 0 68 34 35
381 1 2 0 69 35 59
382 1 2 0 70 35 36
383 1 2 0 71 36 60
384 1 2 0 72 36 37
385 1 2 0 73 37 61
386 1 2 0 74 37 38
387 1 2 0 75 38 62
388 1 2 0 76 38 39
389 1 2 0 77 39 63
390 1 2 0 78 39 40
391 1 2 0 79 40 64
392 1 2 0 80 40 41
393 1 2 0 81 41 65
394 1 2 0 82 41 42
395 1 2 0 83 42 66
396 1 2 0 84 42 43
397 1 2 0 85 43 67
398 1 2 0 86 43 44
399 1 2 0 87 44 68
400 1 2 0 88 44 45
401 1 2 0 89 45 69
402 1 2 0 90 45 46
403 1 2 0 91 46 70
404 1 2 0 92 46 47
405 1 2 0 93 47 71
406 1 2 0 94 47 48
407 1 2 0 95 48 72
408 1 2 0 96 48 25
409 1 2 0 97 49 73
410 1 2 0 98 49 50
411 1 2 0 99 50 74
412 1 2 0 100 50 51
413 1 2 0 101 51 75
414 1 2 0 102 51 52
415 1 2 0 103 52 76
416 1 2 0 104 52 53
417 1 2 0 105 53 77
418 1 2 0 106 53 54
419 1 2 0 107 54 78
420 1 2 0 108 54 55
421 1 2 0 109 55 79
422 1 2 0 110 55 56
423 1 2 0 111 56 80
424 1 2 0 112 56 57
425 1 2 0 113 57 81
426 1 2 0 114 57 58
427 1 2 0 115 58 82
428 1 2 0 116 58 59
429 1 2 0 117 59 83
430 1 2 0 118 59 60
431 1 2 0 119 60 84
432 1 2 0 120 60 61
433 1 2 0 121 61 85
434 1 2 0 122 61 62
435 1 2 0 123 62 86
436 1 2 0 124 62 63
437 1 2 0 125 63 87
438 1 2 0 126 63 64
439 1 2 0 127 64 88
440 1 2 0 128 64 65
441 1 2 0 129 65 89
442 1 2 0 130 65 66
443 1 2 0 131 66 90
444 1 2 0 132 66 67
445 1 2 0 133 67 91
446 1 2 0 134 67 68
447 1 2 0 135 68 92
448 1 2 0 136 68 69
449 1 2 0 137 69 93
450 1 2 0 138 69 70
451 1 2 0 139 70 94
452 1 2 0 140 70 71
453 1 2 0 141 71 95
454 1 2 0 142 71 72
455 1 2 0 143 72 96
456 1 2 0 144 72 49
457 1 2 0 145 73 97
458 1 2 0 146 73 74
459 1 2 0 147 74 98
460 1 2 0 148 74 75
461 1 2 0 149 75 99
462 1 2 0 150 75 76
463 1 2 0 151 76 100
464 1 2 0 152 76 77
465 1 2 0 153 77 101
466 1 2 0 154 77 78
467 1 2 0 155 78 102
468 1 2 0 156 78 79
469 1 2 0 157 79 103
470 1 2 0 158 79 80
471 1 2 0 159 80 104
472 1 2 0 160 80 81
473 1 2 0 161 81 105
474 1 2 0 162 81 82
475 1 2 0 163 82 106
476 1 2 0 164 82 83
477 1 2 0 165 83 107
478 1 2 0 166 83 84
479 1 2 0 167 84 108
480 1 2 0 168 84 85
481 1 2 0 169 85 109
482 1 2 0 170 85 86
483 1 2 0 171 86 110
484 1 2 0 172 86 87
485 1 2 0 173 87 111
486 1 2 0 174 87 88
487 1 2 0 175 88 112
488 1 2 0 176 88 89
489 1 2 0 177 89 113
490 1 2 0 178 89 90
491 1 2 0 179 90 114
492 1 2 0 180 90 91
493 1 2 0 181 91 115
494 1 2 0 182 91 92
495 1 2 0 183 92 116
496 1 2 0 184 92 93
497 1 2 0 185 93 117
498 1 2 0 186 93 94
499 1 2 0 187 94 118
500 1 2 0 188 94 95
501 1 2 0 189 95 119
502 1 2 0 190 95 96
503 1 2 0 191 96 120
504 1 2 0 192 96 73
505 1 2 0 193 97 121
506 1 2 0 194 97 98
507 1 2 0 195 98 122
508 1 2 0 196 98 99
509 1 2 0 197 99 123
510 1 2 0 198 99 100
511 1 2 0 199 100 124
512 1 2 0 200 100 101
513 1 2 0 201 101 125
514 1 2 0 202 101 102
515 1 2 0 203 102 126
516 1 2 0 204 102 103
517 1 2 0 205 103 127
518 1 2 0 206 103 104
519 1 2 0 207 104 128
520 1 2 0 208 104 105
521 1 2 0 209 105 129
522 1 2 0 210 105 106
523 1 2 0 211 106 130
524 1 2 0 212 106 107
525 1 2 0 213 107 131
526 1 2 0 214 107 108
527 1 2 0 215 108 132
528 1 2 0 216 108 109
529 1 2 0 217 109 133
530 1 2 0 218 109 110
531 1 2 0 219 110 134
532 1 2 0 220 110 111
533 1 2 0 221 111 135
534 1 2 0 222 111 112
535 1 2 0 223 112 136
536 1 2 0 224 112 113
537 1 2 0 225 113 137
538 1 2 0 226 113 114
539 1 2 0 227 114 138
540 1 2 0 228 114 115
541 1 2 0 229 115 139
542 1 2 0 230 115 116
543 1 2 0 231 116 140
544 1 2 0 232 116 117
545 1 2 0 233 117 141
546 1 2 0 234 117 118
547 1 2 0 235 118 142
548 1 2 0 236 118 119
549 1 2 0 237 119 143
550 1 2 0 238 119 120
551 1 2 0 239 120 144
552 1 2 0 240 120 97
553 1 2 0 241 121 145
554 1 2 0 242 121 122
555 1 2 0 243 122 146
556 1 2 0 244 122 123
557 1 2 0 245 123 147
558 1 2 0 246 123 124
559 1 2 0 247 124 148
560 1 2 0 248 124 125
561 1 2 0 249 125 149
562 1 2 0 250 125 126
563 1 2 0 251 126 150
564 1 2 0 252 126 127
565 1 2 0 253 127 151
566 1 2 0 254 127 128
567 1 2 0 255 128 152
568 1 2 0 256 128 129
569 1 2 0 257 129 153
570 1 2 0 258 129 130
571 1 2 0 259 130 154
572 1 2 0 260 130 131
573 1 2 0 261 131 155
574 1 2 0 262 131 132
575 1 2 0 263 132 156
576 1 2 0 264 132 133
577 1 2 0 265 133 157
578 1 2 0 266 133 134
579 1 2 0 267 134 158
580 1 2 0 268 134 135
581 1 2 0 269 135 159
582 1 2 0 270 135 136
583 1 2 0 271 136 160
584 1 2 0 272 136 137
585 1 2 0 273 137 161
586 1 2 0 274 137 138
587 1 2 0 275 138 162
588 1 2 0 276 138 139
589 1 2 0 277 139 163
590 1 2 0 278 139 140
591 1 2 0 279 140 164
592 1 2 0 280 140 141
593 1 2 0 281 141 165
594 1 2 0 282 141 142
595 1 2 0 283 142 166
596 1 2 0 284 142 143
597 1 2 0 285 143 167
598 1 2 0 286 143 144
599 1 2 0 287 144 168
600 1 2 0 288 144 121
601 1 2 0 289 145 169
602 1 2 0 290 145 146
603 1 2 0 291 146 170
604 1 2 0 292 146 147
605 1 2 0 293 147 171
606 1 2 0 294 147 148
607 1 2 0 295 148 172
608 1 2 0 296 148 149
609 1 2 0 297 149 173
610 1 2 0 298 149 150
611 1 2 0 299 150 174
612 1 2 0 300 150 151
613 1 2 0 301 151 175
614 1 2 0 302 151 152
615 1 2 0 303 152 176
616 1 2 0 304 152 153
617 1 2 0 305 153 177
618 1 2 0 306 153 154
619 1 2 0 307 154 178
620 1 2 0 308 154 155
621 1 2 0 309 155 179
622 1 2 0 310 155 156
623 1 2 0 311 156 180
624 1 2 0 312 156 157
625 1 2 0 313 157 181
626 1 2 0 314 157 158
627 1 2 0 315 158 182
628 1 2 0 316 158 159
629 1 2 0 317 159 183
630 1 2 0 318 159 160
631 1 2 0 319 160 184
632 1 2 0 320 160 161
633 1 2 0 321 161 185
634 1 2 0 322 161 162
635 1 2 0 323 162 186
636 1 2 0 324 162 163
637 1 2 0 325 163 187
638 1 2 0 326 163 164
639 1 2 0 327 164 188
640 1 2 0 328 164 165
641 1 2 0 329 165 189
642 1 2 0 330 165 166
643 1 2 0 331 166 190
644 1 2 0 332 166 167
645 1 2 0 333 167 191
646 1 2 0 334 167 168
647 1 2 0 335 168 192
648 1 2 0 336 168 145
649 1 2 0 337 169 193
650 1 2 0 338 169 313
651 1 2 0 338 313 170
652 1 2 0 339 170 314
653 1 2 0 339 314 194
654 1 2 0 340 170 171
655 1 2 0 341 171 315
656 1 2 0 341 315 195
657 1 2 0 342 171 172
658 1 2 0 343 172 316
659 1 2 0 343 316 196
660 1 2 0 344 172 173
661 1 2 0 345 173 317
662 1 2 0 345 317 197
663 1 2 0 346 173 174
664 1 2 0 347 174 198
665 1 2 0 348 174 318
666 1 2 0 348 318 175
667 1 2 0 349 175 199
668 1 2 0 350 175 319
669 1 2 0 350 319 176
670 1 2 0 351 176 200
671 1 2 0 352 176 177
672 1 2 0 353 177 320
673 1 2 0 353 320 201
674 1 2 0 354 177 178
675 1 2 0 355 178 321
676 1 2 0 355 321 202
677 1 2 0 356 178 179
678 1 2 0 357 179 322
679 1 2 0 357 322 203
680 1 2 0 358 179 180
681 1 2 0 359 180 323
682 1 2 0 359 323 204
683 1 2 0 360 180 324
684 1 2 0 360 324 181
685 1 2 0 361 181 205
686 1 2 0 362 181 325
687 1 2 0 362 325 182
688 1 2 0 363 182 326
689 1 2 0 363 326 206
690 1 2 0 364 182 183
691 1 2 0 365 183 327
692 1 2 0 365 327 207
693 1 2 0 366 183 184
694 1 2 0 367 184 328
695 1 2 0 367 328 208
696 1 2 0 368 184 185
697 1 2 0 369 185 329
698 1 2 0 369 329 209
699 1 2 0 370 185 186
700 1 2 0 371 186 210
701 1 2 0 372 186 330
702 1 2 0 372 330 187
703 1 2 0 373 187 211
704 1 2 0 374 187 331
705 1 2 0 374 331 188
706 1 2 0 375 188 212
707 1 2 0 376 188 189
708 1 2 0 377 189 332
709 1 2 0 377 332 213
710 1 2 0 378 189 190
711 1 2 0 379 190 333
712 1 2 0 379 333 214
713 1 2 0 380 190 191
714 1 2 0 381 191 334
715 1 2 0 381 334 215
716 1 2 0 382 191 192
717 1 2 0 383 192 335
718 1 2 0 383 335 216
719 1 2 0 384 192 336
720 1 2 0 384 336 169
721 1 2 0 385 193 217
722 1 2 0 386 193 337
723 1 2 0 386 337 194
724 1 2 0 387 194 338
725 1 2 0 387 338 218
726 1 2 0 388 194 195
727 1 2 0 389 195 339
728 1 2 0 389 339 219
729 1 2 0 390 195 196
730 1 2 0 391 196 340
731 1 2 0 391 340 220
732 1 2 0 392 196 197
733 1 2 0 393 197 341
734 1 2 0 393 341 221
735 1 2 0 394 197 198
736 1 2 0 395 198 342
737 1 2 0 395 342 222
738 1 2 0 396 198 343
739 1 2 0 396 343 199
740 1 2 0 397 199 223
741 1 2 0 398 199 344
742 1 2 0 398 344 200
743 1 2 0 399 200 345
744 1 2 0 399 345 224
745 1 2 0 400 200 201
746 1 2 0 401 201 346
747 1 2 0 401 346 225
748 1 2 0 402 201 202
749 1 2 0 403 202 347
750 1 2 0 403 347 226
751 1 2 0 404 202 203
752 1 2 0 405 203 348
753 1 2 0 405 348 227
754 1 2 0 406 203 204
755 1 2 0 407 204 349
756 1 2 0 407 349 228
757 1 2 0 408 204 350
758 1 2 0 408 350 205
759 1 2 0 409 205 229
760 1 2 0 410 205 351
761 1 2 0 410 351 206
762 1 2 0 411 206 352
763 1 2 0 411 352 230
764 1 2 0 412 206 207
765 1 2 0 413 207 353
766 1 2 0 413 353 231
767 1 2 0 414 207 208
768 1 2 0 415 208 354
769 1 2 0 415 354 232
770 1 2 0 416 208 209
771 1 2 0 417 209 355
772 1 2 0 417 355 233
773 1 2 0 418 209 210
774 1 2 0 419 210 356
775 1 2 0 419 356 234
776 1 2 0 420 210 357
777 1 2 0 420 357 211
778 1 2 0 421 211 235
779 1 2 0 422 211 358
780 1 2 0 422 358 212
781 1 2 0 423 212 359
782 1 2 0 423 359 236
783 1 2 0 424 212 213
784 1 2 0 425 213 360
785 1 2 0 425 360 237
786 1 2 0 426 213 214
787 1 2 0 427 214 361
788 1 2 0 427 361 238
789 1 2 0 428 214 215
790 1 2 0 429 215 362
791 1 2 0 429 362 239
792 1 2 0 430 215 216
793 1 2 0 431 216 363
794 1 2 0 431 363 240
795 1 2 0 432 216 364
796 1 2 0 432 364 193
797 1 2 0 433 217 241
798 1 2 0 434 217 365
799 1 2 0 434 365 366
800 1 2 0 434 366 218
801 1 2 0 435 218 367
802 1 2 0 435 367 242
803 1 2 0 436 218 219
804 1 2 0 437 219 368
805 1 2 0 437 368 243
806 1 2 0 438 219 220
807 1 2 0 439 220 369
808 1 2 0 439 369 244
809 1 2 0 440 220 221
810 1 2 0 441 221 370
811 1 2 0 441 370 245
812 1 2 0 442 221 222
813 1 2 0 443 222 371
814 1 2 0 443 371 246
815 1 2 0 444 222 372
816 1 2 0 444 372 373
817 1 2 0 444 373 223
818 1 2 0 445 223 247
819 1 2 0 446 223 374
820 1 2 0 446 374 375
821 1 2 0 446 375 224
822 1 2 0 447 224 376
823 1 2 0 447 376 248
824 1 2 0 448 224 225
825 1 2 0 449 225 377
826 1 2 0 449 377 249
827 1 2 0 450 225 226
828 1 2 0 451 226 378
829 1 2 0 451 378 250
830 1 2 0 452 226 227
831 1 2 0 453 227 379
832 1 2 0 453 379 251
833 1 2 0 454 227 228
834 1 2 0 455 228 380
835 1 2 0 455 380 252
836 1 2 0 456 228 381
837 1 2 0 456 381 382
838 1 2 0 456 382 229
839 1 2 0 457 229 253
840 1 2 0 458 229 383
841 1 2 0 458 383 384
842 1 2 0 458 384 230
843 1 2 0 459 230 385
844 1 2 0 459 385 254
845 1 2 0 460 230 231
846 1 2 0 461 231 386
847 1 2 0 461 386 255
848 1 2 0 462 231 232
849 1 2 0 463 232 387
850 1 2 0 463 387 256
851 1 2 0 464 232 233
852 1 2 0 465 233 388
853 1 2 0 465 388 257
854 1 2 0 466 233 234
855 1 2 0 467 234 389
856 1 2 0 467 389 258
857 1 2 0 468 234 390
858 1 2 0 468 390 391
859 1 2 0 468 391 235
860 1 2 0 469 235 259
861 1 2 0 470 235 392
862 1 2 0 470 392 393
863 1 2 0 470 393 236
864 1 2 0 471 236 394
865 1 2 0 471 394 260
866 1 2 0 472 236 237
867 1 2 0 473 237 395
868 1 2 0 473 395 261
869 1 2 0 474 237 238
870 1 2 0 475 238 396
871 1 2 0 475 396 262
872 1 2 0 476 238 239
873 1 2 0 477 239 397
874 1 2 0 477 397 263
875 1 2 0 478 239 240
876 1 2 0 479 240 398
877 1 2 0 479 398 264
878 1 2 0 480 240 399
879 1 2 0 480 399 400
880 1 2 0 480 400 217
881 1 2 0 481 241 265
882 1 2 0 482 241 401
883 1 2 0 482 401 402
884 1 2 0 482 402 403
885 1 2 0 482 403 242
886 1 2 0 483 242 266
887 1 2 0 484 242 243
888 1 2 0 485 243 267
889 1 2 0 486 243 244
890 1 2 0 487 244 268
891 1 2 0 488 244 245
892 1 2 0 489 245 269
893 1 2 0 490 245 246
894 1 2 0 491 246 270
895 1 2 0 492 246 404
896 1 2 0 492 404 405
897 1 2 0 492 405 406
898 1 2 0 492 406 247
899 1 2 0 493 247 271
900 1 2 0 494 247 407
901 1 2 0 494 407 408
902 1 2 0 494 408 409
903 1 2 0 494 409 248
904 1 2 0 495 248 272
905 1 2 0 496 248 249
906 1 2 0 497 249 273
907 1 2 0 498 249 250
908 1 2 0 499 250 274
909 1 2 0 500 250 251
910 1 2 0 501 251 275
911 1 2 0 502 251 252
912 1 2 0 503 252 276
913 1 2 0 504 252 410
914 1 2 0 504 410 411
915 1 2 0 504 411 412
916 1 2 0 504 412 253
917 1 2 0 505 253 277
918 1 2 0 506 253 413
919 1 2 0 506 413 414
920 1 2 0 506 414 415
921 1 2 0 506 415 254
922 1 2 0 507 254 278
923 1 2 0 508 254 255
924 1 2 0 509 255 279
925 1 2 0 510 255 256
926 1 2 0 511 256 280
927 1 2 0 512 256 257
928 1 2 0 513 257 281
929 1 2 0 514 257 258
930 1 2 0 515 258 282
931 1 2 0 516 258 416
932 1 2 0 516 416 417
933 1 2 0 516 417 418
934 1 2 0 516 418 259
935 1 2 0 517 259 283
936 1 2 0 518 259 419
937 1 2 0 518 419 420
938 1 2 0 518 420 421
939 1 2 0 518 421 260
940 1 2 0 519 260 284
941 1 2 0 520 260 261
942 1 2 0 521 261 285
943 1 2 0 522 261 262
944 1 2 0 523 262 286
945 1 2 0 524 262 263
946 1 2 0 525 263 287
947 1 2 0 526 263 264
948 1 2 0 527 264 288
949 1 2 0 528 264 422
950 1 2 0 528 422 423
951 1 2 0 528 423 424
952 1 2 0 528 424 241
953 1 2 0 529 265 289
954 1 2 0 530 265 425
955 1 2 0 530 425 426
956 1 2 0 530 426 427
957 1 2 0 530 427 266
958 1 2 0 531 266 290
959 1 2 0 532 266 267
960 1 2 0 533 267 291
961 1 2 0 534 267 268
962 1 2 0 535 268 292
963 1 2 0 536 268 269
964 1 2 0 537 269 293
965 1 2 0 538 269 270
966 1 2 0 539 270 294
967 1 2 0 540 270 428
968 1 2 0 540 428 429
969 1 2 0 540 429 430
970 1 2 0 540 430 271
971 1 2 0 541 271 295
972 1 2 0 542 271 431
973 1 2 0 542 431 432
974 1 2 0 542 432 433
975 1 2 0 542 433 272
976 1 2 0 543 272 296
977 1 2 0 544 272 273
978 1 2 0 545 273 297
979 1 2 0 546 273 274
980 1 2 0 547 274 298
981 1 2 0 548 274 275
982 1 2 0 549 275 299
983 1 2 0 550 275 276
984 1 2 0 551 276 300
985 1 2 0 552 276 434
986 1 2 0 552 434 435
987 1 2 0 552 435 436
988 1 2 0 552 436 277
989 1 2 0 553 277 301
990 1 2 0 554 277 437
991 1 2 0 554 437 438
992 1 2 0 554 438 439
993 1 2 0 554 439 278
994 1 2 0 555 278 302
995 1 2 0 556 278 279
996 1 2 0 557 279 303
997 1 2 0 558 279 280
998 1 2 0 559 280 304
999 1 2 0 560 280 281
1000 1 2 0 561 281 305
1001 1 2 0 562 281 282
1002 1 2 0 563 282 306
1003 1 2 0 564 282 440
1004 1 2 0 564 440 441
1005 1 2 0 564 441 442
1006 1 2 0 564 442 283
1007 1 2 0 565 283 307
1008 1 2 0 566 283 443
1009 1 2 0 566 443 444
1010 1 2 0 566 444 445
1011 1 2 0 566 445 284
1012 1 2 0 567 284 308
1013 1 2 0 568 284 285
1014 1 2 0 569 285 309
1015 1 2 0 570 285 286
1016 1 2 0 571 286 310
1017 1 2 0 572 286 287
1018 1 2 0 573 287 311
1019 1 2 0 574 287 288
1020 1 2 0 575 288 312
1021 1 2 0 576 288 446
1022 1 2 0 576 446 447
1023 1 2 0 576 447 448
1024 1 2 0 576 448 265
1025 1 2 0 578 289 449
1026 1 2 0 578 449 450
1027 1 2 0 578 450 451
1028 1 2 0 578 451 290
1029 1 2 0 580 290 291
1030 1 2 0 582 291 292
1031 1 2 0 584 292 293
1032 1 2 0 586 293 294
1033 1 2 0 588 294 452
1034 1 2 0 588 452 453
1035 1 2 0 588 453 454
1036 1 2 0 588 454 295
1037 1 2 0 590 295 455
1038 1 2 0 590 455 456
1039 1 2 0 590 456 457
1040 1 2 0 590 457 296
1041 1 2 0 592 296 297
1042 1 2 0 594 297 298
1043 1 2 0 596 298 299
1044 1 2 0 598 299 300
1045 1 2 0 600 300 458
1046 1 2 0 600 458 459
1047 1 2 0 600 459 460
1048 1 2 0 600 460 301
1049 1 2 0 602 301 461
1050 1 2 0 602 461 462
1051 1 2 0 602 462 463
1052 1 2 0 602 463 302
1053 1 2 0 604 302 303
1054 1 2 0 606 303 304
1055 1 2 0 608 304 305
1056 1 2 0 610 305 306
1057 1 2 0 612 306 464
1058 1 2 0 612 464 465
1059 1 2 0 612 465 466
1060 1 2 0 612 466 307
1061 1 2 0 614 307 467
1062 1 2 0 614 467 468
1063 1 2 0 614 468 469
1064 1 2 0 614 469 308
1065 1 2 0 616 308 309
1066 1 2 0 618 309 310
1067 1 2 0 620 310 311
1068 1 2 0 622 311 312
1069 1 2 0 624 312 470
1070 1 2 0 624 470 471
1071 1 2 0 624 471 472
1072 1 2 0 624 472 289
1073 2 2 0 38 26 2 473
1074 2 2 0 38 1 25 473
1075 2 2 0 38 2 1 473
1076 2 2 0 38 25 26 473
1077 2 2 0 39 26 3 2
1078 2 2 0 39 27 3 26
1079 2 2 0 40 27 4 3
1080 2 2 0 40 28 4 27
1081 2 2 0 41 29 5 4
1082 2 2 0 41 28 29 4
1083 2 2 0 42 30 6 5
1084 2 2 0 42 29 30 5
1085 2 2 0 43 6 30 474
1086 2 2 0 43 31 7 474
1087 2 2 0 43 7 6 474
1088 2 2 0 43 30 31 474
1089 2 2 0 44 32 8 475
1090 2 2 0 44 7 31 475
1091 2 2 0 44 8 7 475
1092 2 2 0 44 31 32 475
1093 2 2 0 45 32 9 8
1094 2 2 0 45 33 9 32
1095 2 2 0 46 33 10 9
1096 2 2 0 46 34 10 33
1097 2 2 0 47 35 11 10
1098 2 2 0 47 34 35 10
1099 2 2 0 48 36 12 11
1100 2 2 0 48 35 36 11
1101 2 2 0 49 12 36 476
1102 2 2 0 49 37 13 476
1103 2 2 0 49 13 12 476
1104 2 2 0 49 36 37 476
1105 2 2 0 50 38 14 477
1106 2 2 0 50 13 37 477
1107 2 2 0 50 14 13 477
1108 2 2 0 50 37 38 477
1109 2 2 0 51 38 15 14
1110 2 2 0 51 39 15 38
1111 2 2 0 52 39 16 15
1112 2 2 0 52 40 16 39
1113 2 2 0 53 41 17 16
1114 2 2 0 53 40 41 16
1115 2 2 0 54 42 18 17
1116 2 2 0 54 41 42 17
1117 2 2 0 55 18 42 478
1118 2 2 0 55 43 19 478
1119 2 2 0 55 19 18 478
1120 2 2 0 55 42 43 478
1121 2 2 0 56 44 20 479
1122 2 2 0 56 19 43 479
1123 2 2 0 56 20 19 479
1124 2 2 0 56 43 44 479
1125 2 2 0 57 44 21 20
1126 2 2 0 57 45 21 44
1127 2 2 0 58 45 22 21
1128 2 2 0 58 46 22 45
1129 2 2 0 59 47 23 22
1130 2 2 0 59 46 47 22
1131 2 2 0 60 48 24 23
1132 2 2 0 60 47 48 23
1133 2 2 0 61 24 48 480
1134 2 2 0 61 25 1 480
1135 2 2 0 61 1 24 480
1136 2 2 0 61 48 25 480
1137 2 2 0 62 49 50 481
1138 2 2 0 62 50 26 481
1139 2 2 0 62 25 49 481
1140 2 2 0 62 26 25 481
1141 2 2 0 63 50 27 26
1142 2 2 0 63 51 27 50
1143 2 2 0 64 52 28 51
1144 2 2 0 64 51 28 27
1145 2 2 0 65 53 29 28
1146 2 2 0 65 52 53 28
1147 2 2 0 66 53 54 29
1148 2 2 0 66 54 30 29
1149 2 2 0 67 54 55 482
1150 2 2 0 67 31 30 482
1151 2 2 0 67 30 54 482
1152 2 2 0 67 55 31 482
1153 2 2 0 68 55 56 483
1154 2 2 0 68 32 31 483
1155 2 2 0 68 56 32 483
1156 2 2 0 68 31 55 483
1157 2 2 0 69 57 33 56
1158 2 2 0 69 56 33 32
1159 2 2 0 70 57 34 33
1160 2 2 0 70 58 34 57
1161 2 2 0 71 58 59 34
1162 2 2 0 71 59 35 34
1163 2 2 0 72 60 36 35
1164 2 2 0 72 59 60 35
1165 2 2 0 73 60 61 484
1166 2 2 0 73 36 60 484
1167 2 2 0 73 61 37 484
1168 2 2 0 73 37 36 484
1169 2 2 0 74 61 62 485
1170 2 2 0 74 62 38 485
1171 2 2 0 74 37 61 485
1172 2 2 0 74 38 37 485
1173 2 2 0 75 62 39 38
1174 2 2 0 75 63 39 62
1175 2 2 0 76 64 40 63
1176 2 2 0 76 63 40 39
1177 2 2 0 77 65 41 40
1178 2 2 0 77 64 65 40
1179 2 2 0 78 65 66 41
1180 2 2 0 78 66 42 41
1181 2 2 0 79 66 67 486
1182 2 2 0 79 43 42 486
1183 2 2 0 79 42 66 486
1184 2 2 0 79 67 43 486
1185 2 2 0 80 67 68 487
1186 2 2 0 80 44 43 487
1187 2 2 0 80 68 44 487
1188 2 2 0 80 43 67 487
1189 2 2 0 81 69 45 68
1190 2 2 0 81 68 45 44
1191 2 2 0 82 69 46 45
1192 2 2 0 82 70 46 69
1193 2 2 0 83 70 71 46
1194 2 2 0 83 71 47 46
1195 2 2 0 84 72 48 47
1196 2 2 0 84 71 72 47
1197 2 2 0 85 72 49 488
1198 2 2 0 85 48 72 488
1199 2 2 0 85 49 25 488
1200 2 2 0 85 25 48 488
1201 2 2 0 86 74 50 489
1202 2 2 0 86 49 73 489
1203 2 2 0 86 50 49 489
1204 2 2 0 86 73 74 489
1205 2 2 0 87 74 51 50
1206 2 2 0 87 75 51 74
1207 2 2 0 88 75 52 51
1208 2 2 0 88 75 76 52
1209 2 2 0 89 77 53 52
1210 2 2 0 89 76 77 52
1211 2 2 0 90 78 54 53
1212 2 2 0 90 77 78 53
1213 2 2 0 91 54 78 490
1214 2 2 0 91 79 55 490
1215 2 2 0 91 78 79 490
1216 2 2 0 91 55 54 490
1217 2 2 0 92 80 56 491
1218 2 2 0 92 55 79 491
1219 2 2 0 92 79 80 491
1220 2 2 0 92 56 55 491
1221 2 2 0 93 80 57 56
1222 2 2 0 93 80 81 57
1223 2 2 0 94 81 58 57
1224 2 2 0 94 82 58 81
1225 2 2 0 95 83 59 58
1226 2 2 0 95 82 83 58
1227 2 2 0 96 84 60 59
1228 2 2 0 96 83 84 59
1229 2 2 0 97 60 84 492
1230 2 2 0 97 85 61 492
1231 2 2 0 97 61 60 492
1232 2 2 0 97 84 85 492
1233 2 2 0 98 86 62 493
1234 2 2 0 98 61 85 493
1235 2 2 0 98 62 61 493
1236 2 2 0 98 85 86 493
1237 2 2 0 99 86 63 62
1238 2 2 0 99 87 63 86
1239 2 2 0 100 87 64 63
1240 2 2 0 100 87 88 64
1241 2 2 0 101 89 65 64
1242 2 2 0 101 88 89 64
1243 2 2 0 102 90 66 65
1244 2 2 0 102 89 90 65
1245 2 2 0 103 66 90 494
1246 2 2 0 103 91 67 494
1247 2 2 0 103 90 91 494
1248 2 2 0 103 67 66 494
1249 2 2 0 104 92 68 495
1250 2 2 0 104 67 91 495
1251 2 2 0 104 91 92 495
1252 2 2 0 104 68 67 495
1253 2 2 0 105 92 69 68
1254 2 2 0 105 92 93 69
1255 2 2 0 106 93 70 69
1256 2 2 0 106 94 70 93
1257 2 2 0 107 95 71 70
1258 2 2 0 107 94 95 70
1259 2 2 0 108 96 72 71
1260 2 2 0 108 95 96 71
1261 2 2 0 109 72 96 496
1262 2 2 0 109 73 49 496
1263 2 2 0 109 49 72 496
1264 2 2 0 109 96 73 496
1265 2 2 0 110 74 73 497
1266 2 2 0 110 97 98 497
1267 2 2 0 110 73 97 497
1268 2 2 0 110 98 74 497
1269 2 2 0 111 98 75 74
1270 2 2 0 111 98 99 75
1271 2 2 0 112 99 76 75
1272 2 2 0 112 99 100 76
1273 2 2 0 113 101 77 76
1274 2 2 0 113 100 101 76
1275 2 2 0 114 77 102 78
1276 2 2 0 114 101 102 77
1277 2 2 0 115 78 102 498
1278 2 2 0 115 103 79 498
1279 2 2 0 115 102 103 498
1280 2 2 0 115 79 78 498
1281 2 2 0 116 104 80 499
1282 2 2 0 116 79 103 499
1283 2 2 0 116 103 104 499
1284 2 2 0 116 80 79 499
1285 2 2 0 117 104 81 80
1286 2 2 0 117 104 105 81
1287 2 2 0 118 105 82 81
1288 2 2 0 118 106 82 105
1289 2 2 0 119 82 107 83
1290 2 2 0 119 106 107 82
1291 2 2 0 120 83 108 84
1292 2 2 0 120 107 108 83
1293 2 2 0 121 85 84 500
1294 2 2 0 121 108 109 500
1295 2 2 0 121 84 108 500
1296 2 2 0 121 109 85 500
1297 2 2 0 122 86 85 501
1298 2 2 0 122 109 110 501
1299 2 2 0 122 85 109 501
1300 2 2 0 122 110 86 501
1301 2 2 0 123 110 87 86
1302 2 2 0 123 110 111 87
1303 2 2 0 124 111 88 87
1304 2 2 0 124 111 112 88
1305 2 2 0 125 113 89 88
1306 2 2 0 125 112 113 88
1307 2 2 0 126 89 114 90
1308 2 2 0 126 113 114 89
1309 2 2 0 127 90 114 502
1310 2 2 0 127 115 91 502
1311 2 2 0 127 114 115 502
1312 2 2 0 127 91 90 502
1313 2 2 0 128 116 92 503
1314 2 2 0 128 91 115 503
1315 2 2 0 128 115 116 503
1316 2 2 0 128 92 91 503
1317 2 2 0 129 116 93 92
1318 2 2 0 129 116 117 93
1319 2 2 0 130 117 94 93
1320 2 2 0 130 118 94 117
1321 2 2 0 131 94 119 95
1322 2 2 0 131 118 119 94
1323 2 2 0 132 95 120 96
1324 2 2 0 132 119 120 95
1325 2 2 0 133 73 96 504
1326 2 2 0 133 120 97 504
1327 2 2 0 133 97 73 504
1328 2 2 0 133 96 120 504
1329 2 2 0 134 122 98 505
1330 2 2 0 134 97 121 505
1331 2 2 0 134 121 122 505
1332 2 2 0 134 98 97 505
1333 2 2 0 135 122 99 98
1334 2 2 0 135 122 123 99
1335 2 2 0 136 123 100 99
1336 2 2 0 136 123 124 100
1337 2 2 0 137 125 101 100
1338 2 2 0 137 124 125 100
1339 2 2 0 138 101 126 102
1340 2 2 0 138 125 126 101
1341 2 2 0 139 102 126 506
1342 2 2 0 139 127 103 506
1343 2 2 0 139 126 127 506
1344 2 2 0 139 103 102 506
1345 2 2 0 140 128 104 507
1346 2 2 0 140 103 127 507
1347 2 2 0 140 127 128 507
1348 2 2 0 140 104 103 507
1349 2 2 0 141 128 105 104
1350 2 2 0 141 128 129 105
1351 2 2 0 142 129 106 105
1352 2 2 0 142 130 106 129
1353 2 2 0 143 106 131 107
1354 2 2 0 143 130 131 106
1355 2 2 0 144 107 132 108
1356 2 2 0 144 131 132 107
1357 2 2 0 145 108 132 508
1358 2 2 0 145 133 109 508
1359 2 2 0 145 132 133 508
1360 2 2 0 145 109 108 508
1361 2 2 0 146 134 110 509
1362 2 2 0 146 109 133 509
1363 2 2 0 146 133 134 509
1364 2 2 0 146 110 109 509
1365 2 2 0 147 134 111 110
1366 2 2 0 147 134 135 111
1367 2 2 0 148 135 112 111
1368 2 2 0 148 135 136 112
1369 2 2 0 149 137 113 112
1370 2 2 0 149 136 137 112
1371 2 2 0 150 113 138 114
1372 2 2 0 150 137 138 113
1373 2 2 0 151 114 138 510
1374 2 2 0 151 139 115 510
1375 2 2 0 151 138 139 510
1376 2 2 0 151 115 114 510
1377 2 2 0 152 140 116 511
1378 2 2 0 152 115 139 511
1379 2 2 0 152 139 140 511
1380 2 2 0 152 116 115 511
1381 2 2 0 153 140 117 116
1382 2 2 0 153 140 141 117
1383 2 2 0 154 141 118 117
1384 2 2 0 154 142 118 141
1385 2 2 0 155 118 143 119
1386 2 2 0 155 142 143 118
1387 2 2 0 156 119 144 120
1388 2 2 0 156 143 144 119
1389 2 2 0 157 120 144 512
1390 2 2 0 157 121 97 512
1391 2 2 0 157 144 121 512
1392 2 2 0 157 97 120 512
1393 2 2 0 158 145 146 513
1394 2 2 0 158 146 122 513
1395 2 2 0 158 121 145 513
1396 2 2 0 158 122 121 513
1397 2 2 0 159 146 123 122
1398 2 2 0 159 146 147 123
1399 2 2 0 160 147 124 123
1400 2 2 0 160 147 148 124
1401 2 2 0 161 149 125 124
1402 2 2 0 161 148 149 124
1403 2 2 0 162 125 150 126
1404 2 2 0 162 149 150 125
1405 2 2 0 163 150 151 514
1406 2 2 0 163 126 150 514
1407 2 2 0 163 151 127 514
1408 2 2 0 163 127 126 514
1409 2 2 0 164 151 152 515
1410 2 2 0 164 152 128 515
1411 2 2 0 164 127 151 515
1412 2 2 0 164 128 127 515
1413 2 2 0 165 152 129 128
1414 2 2 0 165 152 153 129
1415 2 2 0 166 153 130 129
1416 2 2 0 166 154 130 153
1417 2 2 0 167 130 155 131
1418 2 2 0 167 154 155 130
1419 2 2 0 168 131 156 132
1420 2 2 0 168 155 156 131
1421 2 2 0 169 156 157 516
1422 2 2 0 169 132 156 516
1423 2 2 0 169 157 133 516
1424 2 2 0 169 133 132 516
1425 2 2 0 170 157 158 517
1426 2 2 0 170 158 134 517
1427 2 2 0 170 133 157 517
1428 2 2 0 170 134 133 517
1429 2 2 0 171 158 135 134
1430 2 2 0 171 158 159 135
1431 2 2 0 172 159 136 135
1432 2 2 0 172 159 160 136
1433 2 2 0 173 161 137 136
1434 2 2 0 173 160 161 136
1435 2 2 0 174 137 162 138
1436 2 2 0 174 161 162 137
1437 2 2 0 175 162 163 518
1438 2 2 0 175 138 162 518
1439 2 2 0 175 163 139 518
1440 2 2 0 175 139 138 518
1441 2 2 0 176 163 164 519
1442 2 2 0 176 164 140 519
1443 2 2 0 176 139 163 519
1444 2 2 0 176 140 139 519
1445 2 2 0 177 164 141 140
1446 2 2 0 177 164 165 141
1447 2 2 0 178 165 142 141
1448 2 2 0 178 166 142 165
1449 2 2 0 179 142 167 143
1450 2 2 0 179 166 167 142
1451 2 2 0 180 143 168 144
1452 2 2 0 180 167 168 143
1453 2 2 0 181 168 145 520
1454 2 2 0 181 144 168 520
1455 2 2 0 181 145 121 520
1456 2 2 0 181 121 144 520
1457 2 2 0 182 169 313 145
1458 2 2 0 182 146 313 170
1459 2 2 0 182 313 146 145
1460 2 2 0 183 170 147 146
1461 2 2 0 183 170 171 147
1462 2 2 0 184 171 148 147
1463 2 2 0 184 171 172 148
1464 2 2 0 185 173 149 148
1465 2 2 0 185 172 173 148
1466 2 2 0 186 149 174 150
1467 2 2 0 186 173 174 149
1468 2 2 0 187 174 318 150
1469 2 2 0 187 151 150 521
1470 2 2 0 187 150 318 521
1471 2 2 0 187 175 151 521
1472 2 2 0 187 318 175 521
1473 2 2 0 188 152 319 176
1474 2 2 0 188 152 151 522
1475 2 2 0 188 319 152 522
1476 2 2 0 188 151 175 522
1477 2 2 0 188 175 319 522
1478 2 2 0 189 176 153 152
1479 2 2 0 189 176 177 153
1480 2 2 0 190 177 154 153
1481 2 2 0 190 178 154 177
1482 2 2 0 191 154 179 155
1483 2 2 0 191 178 179 154
1484 2 2 0 192 155 180 156
1485 2 2 0 192 179 180 155
1486 2 2 0 193 157 324 181
1487 2 2 0 193 180 324 156
1488 2 2 0 193 324 157 156
1489 2 2 0 194 181 325 157
1490 2 2 0 194 158 325 182
1491 2 2 0 194 325 158 157
1492 2 2 0 195 182 159 158
1493 2 2 0 195 182 183 159
1494 2 2 0 196 183 160 159
1495 2 2 0 196 183 184 160
1496 2 2 0 197 185 161 160
1497 2 2 0 197 184 185 160
1498 2 2 0 198 161 186 162
1499 2 2 0 198 185 186 161
1500 2 2 0 199 186 330 162
1501 2 2 0 199 163 162 523
1502 2 2 0 199 162 330 523
1503 2 2 0 199 187 163 523
1504 2 2 0 199 330 187 523
1505 2 2 0 200 164 331 188
1506 2 2 0 200 164 163 524
1507 2 2 0 200 331 164 524
1508 2 2 0 200 163 187 524
1509 2 2 0 200 187 331 524
1510 2 2 0 201 188 165 164
1511 2 2 0 201 188 189 165
1512 2 2 0 202 189 166 165
1513 2 2 0 202 190 166 189
1514 2 2 0 203 166 191 167
1515 2 2 0 203 190 191 166
1516 2 2 0 204 167 192 168
1517 2 2 0 204 191 192 167
1518 2 2 0 205 145 336 169
1519 2 2 0 205 192 336 168
1520 2 2 0 205 336 145 168
1521 2 2 0 206 337 314 526
1522 2 2 0 206 169 193 525
1523 2 2 0 206 193 337 525
1524 2 2 0 206 170 313 526
1525 2 2 0 206 314 170 526
1526 2 2 0 206 313 169 525
1527 2 2 0 206 313 525 526
1528 2 2 0 206 525 337 526
1529 2 2 0 206 314 337 194
1530 2 2 0 207 314 171 170
1531 2 2 0 207 315 171 314
1532 2 2 0 207 195 315 194
1533 2 2 0 207 315 314 194
1534 2 2 0 208 315 172 171
1535 2 2 0 208 316 172 315
1536 2 2 0 208 196 316 195
1537 2 2 0 208 316 315 195
1538 2 2 0 209 317 173 172
1539 2 2 0 209 316 317 172
1540 2 2 0 209 197 316 196
1541 2 2 0 209 197 317 316
1542 2 2 0 210 198 317 197
1543 2 2 0 210 173 317 174
1544 2 2 0 210 317 198 174
1545 2 2 0 211 198 343 174
1546 2 2 0 211 343 318 174
1547 2 2 0 211 318 343 527
1548 2 2 0 211 199 175 527
1549 2 2 0 211 343 199 527
1550 2 2 0 211 175 318 527
1551 2 2 0 212 200 176 344
1552 2 2 0 212 176 319 344
1553 2 2 0 212 344 319 528
1554 2 2 0 212 175 199 528
1555 2 2 0 212 199 344 528
1556 2 2 0 212 319 175 528
1557 2 2 0 213 201 320 200
1558 2 2 0 213 320 177 176
1559 2 2 0 213 200 320 176
1560 2 2 0 214 320 178 177
1561 2 2 0 214 321 178 320
1562 2 2 0 214 202 321 201
1563 2 2 0 214 201 321 320
1564 2 2 0 215 322 179 178
1565 2 2 0 215 321 322 178
1566 2 2 0 215 202 203 321
1567 2 2 0 215 203 322 321
1568 2 2 0 216 323 180 179
1569 2 2 0 216 322 323 179
1570 2 2 0 216 203 204 322
1571 2 2 0 216 204 323 322
1572 2 2 0 217 323 350 530
1573 2 2 0 217 205 181 529
1574 2 2 0 217 350 205 529
1575 2 2 0 217 324 180 530
1576 2 2 0 217 180 323 530
1577 2 2 0 217 181 324 529
1578 2 2 0 217 529 324 530
1579 2 2 0 217 350 529 530
1580 2 2 0 217 204 350 323
1581 2 2 0 218 351 326 532
1582 2 2 0 218 181 205 531
1583 2 2 0 218 205 351 531
1584 2 2 0 218 182 325 532
1585 2 2 0 218 326 182 532
1586 2 2 0 218 325 181 531
1587 2 2 0 218 325 531 532
1588 2 2 0 218 531 351 532
1589 2 2 0 218 326 351 206
1590 2 2 0 219 326 183 182
1591 2 2 0 219 327 183 326
1592 2 2 0 219 207 327 206
1593 2 2 0 219 327 326 206
1594 2 2 0 220 327 184 183
1595 2 2 0 220 328 184 327
1596 2 2 0 220 208 328 207
1597 2 2 0 220 328 327 207
1598 2 2 0 221 329 185 184
1599 2 2 0 221 328 329 184
1600 2 2 0 221 209 328 208
1601 2 2 0 221 209 329 328
1602 2 2 0 222 210 329 209
1603 2 2 0 222 185 329 186
1604 2 2 0 222 329 210 186
1605 2 2 0 223 210 357 186
1606 2 2 0 223 357 330 186
1607 2 2 0 223 330 357 533
1608 2 2 0 223 211 187 533
1609 2 2 0 223 357 211 533
1610 2 2 0 223 187 330 533
1611 2 2 0 224 188 358 212
1612 2 2 0 224 188 331 358
1613 2 2 0 224 358 331 534
1614 2 2 0 224 187 211 534
1615 2 2 0 224 211 358 534
1616 2 2 0 224 331 187 534
1617 2 2 0 225 213 332 212
1618 2 2 0 225 332 189 188
1619 2 2 0 225 212 332 188
1620 2 2 0 226 332 190 189
1621 2 2 0 226 333 190 332
1622 2 2 0 226 214 333 213
1623 2 2 0 226 213 333 332
1624 2 2 0 227 334 191 190
1625 2 2 0 227 333 334 190
1626 2 2 0 227 214 215 333
1627 2 2 0 227 215 334 333
1628 2 2 0 228 335 192 191
1629 2 2 0 228 334 335 191
1630 2 2 0 228 215 216 334
1631 2 2 0 228 216 335 334
1632 2 2 0 229 335 364 536
1633 2 2 0 229 193 169 535
1634 2 2 0 229 364 193 535
1635 2 2 0 229 336 192 536
1636 2 2 0 229 192 335 536
1637 2 2 0 229 169 336 535
1638 2 2 0 229 535 336 536
1639 2 2 0 229 364 535 536
1640 2 2 0 229 216 364 335
1641 2 2 0 230 337 365 537
1642 2 2 0 230 338 366 218
1643 2 2 0 230 365 366 537
1644 2 2 0 230 194 337 537
1645 2 2 0 230 365 337 538
1646 2 2 0 230 193 217 538
1647 2 2 0 230 366 338 537
1648 2 2 0 230 337 193 538
1649 2 2 0 230 338 194 537
1650 2 2 0 230 217 365 538
1651 2 2 0 231 338 195 194
1652 2 2 0 231 339 195 338
1653 2 2 0 231 339 338 218
1654 2 2 0 231 219 339 218
1655 2 2 0 232 339 196 195
1656 2 2 0 232 340 196 339
1657 2 2 0 232 220 340 219
1658 2 2 0 232 340 339 219
1659 2 2 0 233 341 197 196
1660 2 2 0 233 340 341 196
1661 2 2 0 233 221 340 220
1662 2 2 0 233 221 341 340
1663 2 2 0 234 342 198 197
1664 2 2 0 234 341 342 197
1665 2 2 0 234 222 341 221
1666 2 2 0 234 222 342 341
1667 2 2 0 235 198 342 539
1668 2 2 0 235 343 198 539
1669 2 2 0 235 342 372 539
1670 2 2 0 235 372 373 539
1671 2 2 0 235 373 343 539
1672 2 2 0 235 199 343 540
1673 2 2 0 235 343 373 540
1674 2 2 0 235 223 199 540
1675 2 2 0 235 373 223 540
1676 2 2 0 235 372 342 222
1677 2 2 0 236 345 200 541
1678 2 2 0 236 200 344 541
1679 2 2 0 236 375 345 541
1680 2 2 0 236 374 375 541
1681 2 2 0 236 344 374 541
1682 2 2 0 236 344 199 542
1683 2 2 0 236 374 344 542
1684 2 2 0 236 199 223 542
1685 2 2 0 236 223 374 542
1686 2 2 0 236 345 375 224
1687 2 2 0 237 345 201 200
1688 2 2 0 237 346 201 345
1689 2 2 0 237 225 346 224
1690 2 2 0 237 346 345 224
1691 2 2 0 238 346 202 201
1692 2 2 0 238 347 202 346
1693 2 2 0 238 226 347 225
1694 2 2 0 238 347 346 225
1695 2 2 0 239 348 203 202
1696 2 2 0 239 347 348 202
1697 2 2 0 239 227 347 226
1698 2 2 0 239 227 348 347
1699 2 2 0 240 349 204 203
1700 2 2 0 240 348 349 203
1701 2 2 0 240 228 349 348
1702 2 2 0 240 228 348 227
1703 2 2 0 241 382 350 543
1704 2 2 0 241 381 349 228
1705 2 2 0 241 381 382 543
1706 2 2 0 241 350 204 543
1707 2 2 0 241 350 382 544
1708 2 2 0 241 229 205 544
1709 2 2 0 241 349 381 543
1710 2 2 0 241 205 350 544
1711 2 2 0 241 204 349 543
1712 2 2 0 241 382 229 544
1713 2 2 0 242 351 383 545
1714 2 2 0 242 352 384 230
1715 2 2 0 242 383 384 545
1716 2 2 0 242 206 351 545
1717 2 2 0 242 383 351 546
1718 2 2 0 242 205 229 546
1719 2 2 0 242 384 352 545
1720 2 2 0 242 351 205 546
1721 2 2 0 242 352 206 545
1722 2 2 0 242 229 383 546
1723 2 2 0 243 352 207 206
1724 2 2 0 243 353 207 352
1725 2 2 0 243 353 352 230
1726 2 2 0 243 231 353 230
1727 2 2 0 244 353 208 207
1728 2 2 0 244 354 208 353
1729 2 2 0 244 232 354 231
1730 2 2 0 244 354 353 231
1731 2 2 0 245 355 209 208
1732 2 2 0 245 354 355 208
1733 2 2 0 245 233 354 232
1734 2 2 0 245 233 355 354
1735 2 2 0 246 356 210 209
1736 2 2 0 246 355 356 209
1737 2 2 0 246 234 355 233
1738 2 2 0 246 234 356 355
1739 2 2 0 247 210 356 547
1740 2 2 0 247 357 210 547
1741 2 2 0 247 356 390 547
1742 2 2 0 247 390 391 547
1743 2 2 0 247 391 357 547
1744 2 2 0 247 211 357 548
1745 2 2 0 247 357 391 548
1746 2 2 0 247 235 211 548
1747 2 2 0 247 391 235 548
1748 2 2 0 247 390 356 234
1749 2 2 0 248 359 212 549
1750 2 2 0 248 212 358 549
1751 2 2 0 248 393 359 549
1752 2 2 0 248 392 393 549
1753 2 2 0 248 358 392 549
1754 2 2 0 248 358 211 550
1755 2 2 0 248 392 358 550
1756 2 2 0 248 211 235 550
1757 2 2 0 248 235 392 550
1758 2 2 0 248 236 359 393
1759 2 2 0 249 359 213 212
1760 2 2 0 249 360 213 359
1761 2 2 0 249 237 360 236
1762 2 2 0 249 360 359 236
1763 2 2 0 250 360 214 213
1764 2 2 0 250 361 214 360
1765 2 2 0 250 238 361 237
1766 2 2 0 250 361 360 237
1767 2 2 0 251 362 215 214
1768 2 2 0 251 361 362 214
1769 2 2 0 251 239 361 238
1770 2 2 0 251 239 362 361
1771 2 2 0 252 363 216 215
1772 2 2 0 252 362 363 215
1773 2 2 0 252 240 363 362
1774 2 2 0 252 240 362 239
1775 2 2 0 253 400 364 551
1776 2 2 0 253 399 363 240
1777 2 2 0 253 399 400 551
1778 2 2 0 253 364 216 551
1779 2 2 0 253 364 400 552
1780 2 2 0 253 217 193 552
1781 2 2 0 253 363 399 551
1782 2 2 0 253 193 364 552
1783 2 2 0 253 216 363 551
1784 2 2 0 253 400 217 552
1785 2 2 0 254 367 403 242
1786 2 2 0 254 366 402 553
1787 2 2 0 254 367 218 553
1788 2 2 0 254 403 367 553
1789 2 2 0 254 218 366 553
1790 2 2 0 254 402 366 555
1791 2 2 0 254 402 403 553
1792 2 2 0 254 217 241 554
1793 2 2 0 254 366 365 555
1794 2 2 0 254 365 217 554
1795 2 2 0 254 241 401 554
1796 2 2 0 254 401 402 555
1797 2 2 0 254 365 554 555
1798 2 2 0 254 554 401 555
1799 2 2 0 255 367 219 218
1800 2 2 0 255 368 219 367
1801 2 2 0 255 243 368 242
1802 2 2 0 255 368 367 242
1803 2 2 0 256 369 368 556
1804 2 2 0 256 243 244 556
1805 2 2 0 256 368 243 556
1806 2 2 0 256 244 369 556
1807 2 2 0 256 368 220 219
1808 2 2 0 256 369 220 368
1809 2 2 0 257 370 221 220
1810 2 2 0 257 369 370 220
1811 2 2 0 257 245 369 244
1812 2 2 0 257 245 370 369
1813 2 2 0 258 246 370 245
1814 2 2 0 258 371 222 221
1815 2 2 0 258 370 371 221
1816 2 2 0 258 246 371 370
1817 2 2 0 259 406 373 405
1818 2 2 0 259 373 372 405
1819 2 2 0 259 222 371 557
1820 2 2 0 259 372 222 557
1821 2 2 0 259 371 404 557
1822 2 2 0 259 404 405 557
1823 2 2 0 259 405 372 557
1824 2 2 0 259 223 373 558
1825 2 2 0 259 373 406 558
1826 2 2 0 259 247 223 558
1827 2 2 0 259 406 247 558
1828 2 2 0 259 371 246 404
1829 2 2 0 260 408 374 407
1830 2 2 0 260 375 374 408
1831 2 2 0 260 376 224 559
1832 2 2 0 260 224 375 559
1833 2 2 0 260 409 376 559
1834 2 2 0 260 408 409 559
1835 2 2 0 260 375 408 559
1836 2 2 0 260 374 223 560
1837 2 2 0 260 407 374 560
1838 2 2 0 260 223 247 560
1839 2 2 0 260 247 407 560
1840 2 2 0 260 376 409 248
1841 2 2 0 261 249 377 248
1842 2 2 0 261 376 225 224
1843 2 2 0 261 377 225 376
1844 2 2 0 261 377 376 248
1845 2 2 0 262 377 226 225
1846 2 2 0 262 378 226 377
1847 2 2 0 262 250 378 249
1848 2 2 0 262 378 377 249
1849 2 2 0 263 379 378 561
1850 2 2 0 263 250 251 561
1851 2 2 0 263 378 250 561
1852 2 2 0 263 251 379 561
1853 2 2 0 263 379 227 226
1854 2 2 0 263 378 379 226
1855 2 2 0 264 380 228 227
1856 2 2 0 264 379 380 227
1857 2 2 0 264 252 379 251
1858 2 2 0 264 252 380 379
1859 2 2 0 265 380 252 410
1860 2 2 0 265 411 381 562
1861 2 2 0 265 228 380 562
1862 2 2 0 265 380 410 562
1863 2 2 0 265 381 228 562
1864 2 2 0 265 381 411 564
1865 2 2 0 265 410 411 562
1866 2 2 0 265 253 229 563
1867 2 2 0 265 382 381 564
1868 2 2 0 265 229 382 563
1869 2 2 0 265 412 253 563
1870 2 2 0 265 411 412 564
1871 2 2 0 265 563 382 564
1872 2 2 0 265 412 563 564
1873 2 2 0 266 415 254 385
1874 2 2 0 266 384 414 565
1875 2 2 0 266 385 230 565
1876 2 2 0 266 415 385 565
1877 2 2 0 266 230 384 565
1878 2 2 0 266 414 384 567
1879 2 2 0 266 414 415 565
1880 2 2 0 266 229 253 566
1881 2 2 0 266 384 383 567
1882 2 2 0 266 383 229 566
1883 2 2 0 266 253 413 566
1884 2 2 0 266 413 414 567
1885 2 2 0 266 383 566 567
1886 2 2 0 266 566 413 567
1887 2 2 0 267 385 231 230
1888 2 2 0 267 231 385 386
1889 2 2 0 267 254 255 386
1890 2 2 0 267 385 254 386
1891 2 2 0 268 387 386 568
1892 2 2 0 268 255 256 568
1893 2 2 0 268 386 255 568
1894 2 2 0 268 256 387 568
1895 2 2 0 268 386 232 231
1896 2 2 0 268 232 386 387
1897 2 2 0 269 388 233 232
1898 2 2 0 269 387 388 232
1899 2 2 0 269 257 387 256
1900 2 2 0 269 387 257 388
1901 2 2 0 270 258 388 257
1902 2 2 0 270 389 234 233
1903 2 2 0 270 388 389 233
1904 2 2 0 270 388 258 389
1905 2 2 0 271 418 391 417
1906 2 2 0 271 417 391 390
1907 2 2 0 271 234 389 569
1908 2 2 0 271 390 234 569
1909 2 2 0 271 389 416 569
1910 2 2 0 271 416 417 569
1911 2 2 0 271 417 390 569
1912 2 2 0 271 235 391 570
1913 2 2 0 271 391 418 570
1914 2 2 0 271 259 235 570
1915 2 2 0 271 418 259 570
1916 2 2 0 271 389 258 416
1917 2 2 0 272 420 392 419
1918 2 2 0 272 392 420 393
1919 2 2 0 272 394 236 571
1920 2 2 0 272 236 393 571
1921 2 2 0 272 421 394 571
1922 2 2 0 272 420 421 571
1923 2 2 0 272 393 420 571
1924 2 2 0 272 392 235 572
1925 2 2 0 272 419 392 572
1926 2 2 0 272 235 259 572
1927 2 2 0 272 259 419 572
1928 2 2 0 272 394 421 260
1929 2 2 0 273 261 395 260
1930 2 2 0 273 394 237 236
1931 2 2 0 273 395 237 394
1932 2 2 0 273 395 394 260
1933 2 2 0 274 395 238 237
1934 2 2 0 274 396 238 395
1935 2 2 0 274 262 396 261
1936 2 2 0 274 396 395 261
1937 2 2 0 275 397 396 573
1938 2 2 0 275 262 263 573
1939 2 2 0 275 396 262 573
1940 2 2 0 275 263 397 573
1941 2 2 0 275 397 239 238
1942 2 2 0 275 396 397 238
1943 2 2 0 276 398 240 239
1944 2 2 0 276 397 398 239
1945 2 2 0 276 264 397 263
1946 2 2 0 276 264 398 397
1947 2 2 0 277 398 264 422
1948 2 2 0 277 423 399 574
1949 2 2 0 277 240 398 574
1950 2 2 0 277 398 422 574
1951 2 2 0 277 399 240 574
1952 2 2 0 277 399 423 576
1953 2 2 0 277 422 423 574
1954 2 2 0 277 241 217 575
1955 2 2 0 277 400 399 576
1956 2 2 0 277 217 400 575
1957 2 2 0 277 424 241 575
1958 2 2 0 277 423 424 576
1959 2 2 0 277 575 400 576
1960 2 2 0 277 424 575 576
1961 2 2 0 278 265 425 577
1962 2 2 0 278 426 402 425
1963 2 2 0 278 402 401 425
1964 2 2 0 278 427 403 426
1965 2 2 0 278 403 402 426
1966 2 2 0 278 242 427 266
1967 2 2 0 278 242 403 427
1968 2 2 0 278 401 241 577
1969 2 2 0 278 241 265 577
1970 2 2 0 278 425 401 577
1971 2 2 0 279 266 243 242
1972 2 2 0 279 267 243 266
1973 2 2 0 280 244 243 578
1974 2 2 0 280 267 268 578
1975 2 2 0 280 243 267 578
1976 2 2 0 280 268 244 578
1977 2 2 0 281 269 245 244
1978 2 2 0 281 268 269 244
1979 2 2 0 282 245 270 246
1980 2 2 0 282 269 270 245
1981 2 2 0 283 406 405 430
1982 2 2 0 283 429 404 428
1983 2 2 0 283 270 428 246
1984 2 2 0 283 405 404 429
1985 2 2 0 283 247 406 579
1986 2 2 0 283 428 404 246
1987 2 2 0 283 406 430 579
1988 2 2 0 283 271 247 579
1989 2 2 0 283 430 271 579
1990 2 2 0 283 430 405 429
1991 2 2 0 284 408 407 431
1992 2 2 0 284 433 409 432
1993 2 2 0 284 248 433 272
1994 2 2 0 284 409 408 432
1995 2 2 0 284 407 247 580
1996 2 2 0 284 248 409 433
1997 2 2 0 284 431 407 580
1998 2 2 0 284 247 271 580
1999 2 2 0 284 271 431 580
2000 2 2 0 284 432 408 431
2001 2 2 0 285 272 249 248
2002 2 2 0 285 273 249 272
2003 2 2 0 286 273 250 249
2004 2 2 0 286 274 250 273
2005 2 2 0 287 251 250 581
2006 2 2 0 287 274 275 581
2007 2 2 0 287 250 274 581
2008 2 2 0 287 275 251 581
2009 2 2 0 288 276 252 251
2010 2 2 0 288 275 276 251
2011 2 2 0 289 436 277 582
2012 2 2 0 289 436 411 435
2013 2 2 0 289 412 411 436
2014 2 2 0 289 435 410 434
2015 2 2 0 289 411 410 435
2016 2 2 0 289 276 434 252
2017 2 2 0 289 434 410 252
2018 2 2 0 289 253 412 582
2019 2 2 0 289 277 253 582
2020 2 2 0 289 412 436 582
2021 2 2 0 290 277 437 583
2022 2 2 0 290 438 414 437
2023 2 2 0 290 414 413 437
2024 2 2 0 290 439 415 438
2025 2 2 0 290 415 414 438
2026 2 2 0 290 254 439 278
2027 2 2 0 290 254 415 439
2028 2 2 0 290 413 253 583
2029 2 2 0 290 253 277 583
2030 2 2 0 290 437 413 583
2031 2 2 0 291 278 255 254
2032 2 2 0 291 279 255 278
2033 2 2 0 292 256 255 584
2034 2 2 0 292 279 280 584
2035 2 2 0 292 255 279 584
2036 2 2 0 292 280 256 584
2037 2 2 0 293 281 257 256
2038 2 2 0 293 280 281 256
2039 2 2 0 294 257 282 258
2040 2 2 0 294 281 282 257
2041 2 2 0 295 418 417 442
2042 2 2 0 295 441 416 440
2043 2 2 0 295 282 440 258
2044 2 2 0 295 417 416 441
2045 2 2 0 295 259 418 585
2046 2 2 0 295 440 416 258
2047 2 2 0 295 418 442 585
2048 2 2 0 295 283 259 585
2049 2 2 0 295 442 283 585
2050 2 2 0 295 442 417 441
2051 2 2 0 296 420 419 443
2052 2 2 0 296 445 421 444
2053 2 2 0 296 260 445 284
2054 2 2 0 296 421 420 444
2055 2 2 0 296 419 259 586
2056 2 2 0 296 260 421 445
2057 2 2 0 296 443 419 586
2058 2 2 0 296 259 283 586
2059 2 2 0 296 283 443 586
2060 2 2 0 296 444 420 443
2061 2 2 0 297 284 261 260
2062 2 2 0 297 285 261 284
2063 2 2 0 298 285 262 261
2064 2 2 0 298 286 262 285
2065 2 2 0 299 263 262 587
2066 2 2 0 299 286 287 587
2067 2 2 0 299 262 286 587
2068 2 2 0 299 287 263 587
2069 2 2 0 300 288 264 263
2070 2 2 0 300 287 288 263
2071 2 2 0 301 448 265 588
2072 2 2 0 301 448 423 447
2073 2 2 0 301 424 423 448
2074 2 2 0 301 447 422 446
2075 2 2 0 301 423 422 447
2076 2 2 0 301 288 446 264
2077 2 2 0 301 446 422 264
2078 2 2 0 301 241 424 588
2079 2 2 0 301 265 241 588
2080 2 2 0 301 424 448 588
2081 2 2 0 302 449 425 589
2082 2 2 0 302 265 289 589
2083 2 2 0 302 425 265 589
2084 2 2 0 302 266 451 290
2085 2 2 0 302 289 449 589
2086 2 2 0 302 266 427 451
2087 2 2 0 302 426 425 449
2088 2 2 0 302 427 426 450
2089 2 2 0 302 450 426 449
2090 2 2 0 302 451 427 450
2091 2 2 0 303 290 267 266
2092 2 2 0 303 291 267 290
2093 2 2 0 304 267 291 590
2094 2 2 0 304 292 268 590
2095 2 2 0 304 291 292 590
2096 2 2 0 304 268 267 590
2097 2 2 0 305 293 269 268
2098 2 2 0 305 292 293 268
2099 2 2 0 306 294 270 269
2100 2 2 0 306 293 294 269
2101 2 2 0 307 430 454 591
2102 2 2 0 307 295 271 591
2103 2 2 0 307 294 452 270
2104 2 2 0 307 452 428 270
2105 2 2 0 307 271 430 591
2106 2 2 0 307 454 295 591
2107 2 2 0 307 453 428 452
2108 2 2 0 307 429 428 453
2109 2 2 0 307 430 429 454
2110 2 2 0 307 454 429 453
2111 2 2 0 308 455 431 592
2112 2 2 0 308 271 295 592
2113 2 2 0 308 431 271 592
2114 2 2 0 308 272 457 296
2115 2 2 0 308 272 433 457
2116 2 2 0 308 295 455 592
2117 2 2 0 308 457 433 456
2118 2 2 0 308 432 431 455
2119 2 2 0 308 433 432 456
2120 2 2 0 308 456 432 455
2121 2 2 0 309 296 273 272
2122 2 2 0 309 297 273 296
2123 2 2 0 310 297 274 273
2124 2 2 0 310 298 274 297
2125 2 2 0 311 299 275 593
2126 2 2 0 311 274 298 593
2127 2 2 0 311 298 299 593
2128 2 2 0 311 275 274 593
2129 2 2 0 312 300 276 275
2130 2 2 0 312 299 300 275
2131 2 2 0 313 436 460 594
2132 2 2 0 313 301 277 594
2133 2 2 0 313 300 458 276
2134 2 2 0 313 277 436 594
2135 2 2 0 313 460 301 594
2136 2 2 0 313 458 434 276
2137 2 2 0 313 435 434 459
2138 2 2 0 313 459 434 458
2139 2 2 0 313 436 435 460
2140 2 2 0 313 460 435 459
2141 2 2 0 314 461 437 595
2142 2 2 0 314 277 301 595
2143 2 2 0 314 437 277 595
2144 2 2 0 314 278 463 302
2145 2 2 0 314 301 461 595
2146 2 2 0 314 278 439 463
2147 2 2 0 314 438 437 461
2148 2 2 0 314 439 438 462
2149 2 2 0 314 462 438 461
2150 2 2 0 314 463 439 462
2151 2 2 0 315 302 279 278
2152 2 2 0 315 303 279 302
2153 2 2 0 316 279 303 596
2154 2 2 0 316 304 280 596
2155 2 2 0 316 303 304 596
2156 2 2 0 316 280 279 596
2157 2 2 0 317 305 281 280
2158 2 2 0 317 304 305 280
2159 2 2 0 318 306 282 281
2160 2 2 0 318 305 306 281
2161 2 2 0 319 442 466 597
2162 2 2 0 319 307 283 597
2163 2 2 0 319 306 464 282
2164 2 2 0 319 464 440 282
2165 2 2 0 319 283 442 597
2166 2 2 0 319 466 307 597
2167 2 2 0 319 465 440 464
2168 2 2 0 319 441 440 465
2169 2 2 0 319 442 441 466
2170 2 2 0 319 466 441 465
2171 2 2 0 320 467 443 598
2172 2 2 0 320 283 307 598
2173 2 2 0 320 443 283 598
2174 2 2 0 320 284 469 308
2175 2 2 0 320 284 445 469
2176 2 2 0 320 307 467 598
2177 2 2 0 320 469 445 468
2178 2 2 0 320 444 443 467
2179 2 2 0 320 445 444 468
2180 2 2 0 320 468 444 467
2181 2 2 0 321 308 285 284
2182 2 2 0 321 309 285 308
2183 2 2 0 322 309 286 285
2184 2 2 0 322 310 286 309
2185 2 2 0 323 311 287 599
2186 2 2 0 323 286 310 599
2187 2 2 0 323 310 311 599
2188 2 2 0 323 287 286 599
2189 2 2 0 324 312 288 287
2190 2 2 0 324 311 312 287
2191 2 2 0 325 448 472 600
2192 2 2 0 325 289 265 600
2193 2 2 0 325 265 448 600
2194 2 2 0 325 312 470 288
2195 2 2 0 325 472 289 600
2196 2 2 0 325 470 446 288
2197 2 2 0 325 447 446 471
2198 2 2 0 325 471 446 470
2199 2 2 0 325 448 447 472
2200 2 2 0 325 472 447 471
$EndElements
