$MeshFormat
2.2 0 8
$EndMeshFormat
$Nodes
608
1 12.7 0 0
2 10.033 7.786 0
3 9.606999999999999 8.305999999999999 0
4 9.146000000000001 8.811 0
5 8.677 9.273 0
6 8.234 9.669 0
7 0 12.7 0
8 -8.234 9.669 0
9 -8.677 9.273 0
10 -9.146000000000001 8.811 0
11 -9.606999999999999 8.305999999999999 0
12 -10.033 7.786 0
13 -12.7 0 0
14 -10.033 -7.786 0
15 -9.606999999999999 -8.305999999999999 0
16 -9.146000000000001 -8.811 0
17 -8.677 -9.273 0
18 -8.234 -9.669 0
19 0 -12.7 0
20 8.234 -9.669 0
21 8.677 -9.273 0
22 9.146000000000001 -8.811 0
23 9.606999999999999 -8.305999999999999 0
24 10.033 -7.786 0
25 12.945 0 4.764
26 10.262 7.964 4.764
27 9.875 8.537000000000001 4.764
28 9.44 9.093999999999999 4.764
29 8.914999999999999 9.528 4.764
30 8.390000000000001 9.852 4.764
31 0 12.85 4.764
32 -8.390000000000001 9.852 4.764
33 -8.914999999999999 9.528 4.764
34 -9.44 9.093999999999999 4.764
35 -9.875 8.537000000000001 4.764
36 -10.262 7.964 4.764
37 -12.945 0 4.764
38 -10.262 -7.964 4.764
39 -9.875 -8.537000000000001 4.764
40 -9.44 -9.093999999999999 4.764
41 -8.914999999999999 -9.528 4.764
42 -8.390000000000001 -9.852 4.764
43 0 -12.85 4.764
44 8.390000000000001 -9.852 4.764
45 8.914999999999999 -9.528 4.764
46 9.44 -9.093999999999999 4.764
47 9.875 -8.537000000000001 4.764
48 10.262 -7.964 4.764
49 14.523 0 13.304
50 11.716 9.092000000000001 13.304
51 11.551 9.986000000000001 13.304
52 11.252 10.839 13.304
53 10.407 11.122 13.304
54 9.396000000000001 11.035 13.304
55 0 13.852 13.304
56 -9.396000000000001 11.035 13.304
57 -10.407 11.122 13.304
58 -11.252 10.839 13.304
59 -11.551 9.986000000000001 13.304
60 -11.716 9.092000000000001 13.304
61 -14.523 0 13.304
62 -11.716 -9.092000000000001 13.304
63 -11.551 -9.986000000000001 13.304
64 -11.252 -10.839 13.304
65 -10.407 -11.122 13.304
66 -9.396000000000001 -11.035 13.304
67 0 -13.852 13.304
68 9.396000000000001 -11.035 13.304
69 10.407 -11.122 13.304
70 11.252 -10.839 13.304
71 11.551 -9.986000000000001 13.304
72 11.716 -9.092000000000001 13.304
73 19.007 0 26.381
74 15.743 12.218 26.381
75 16.041 13.868 26.381
76 15.992 15.406 26.381
77 14.414 15.403 26.381
78 12.263 14.401 26.381
79 0 16.897 26.381
80 -12.263 14.401 26.381
81 -14.414 15.403 26.381
82 -15.992 15.406 26.381
83 -16.041 13.868 26.381
84 -15.743 12.218 26.381
85 -19.007 0 26.381
86 -15.743 -12.218 26.381
87 -16.041 -13.868 26.381
88 -15.992 -15.406 26.381
89 -14.414 -15.403 26.381
90 -12.263 -14.401 26.381
91 0 -16.897 26.381
92 12.263 -14.401 26.381
93 14.414 -15.403 26.381
94 15.992 -15.406 26.381
95 16.041 -13.868 26.381
96 15.743 -12.218 26.381
97 27.906 0 45.274
98 23.528 18.259 45.274
99 24.455 21.142 45.274
100 24.694 23.788 45.274
101 21.941 23.447 45.274
102 17.97 21.103 45.274
103 0 23.438 45.274
104 -17.97 21.103 45.274
105 -21.941 23.447 45.274
106 -24.694 23.788 45.274
107 -24.455 21.142 45.274
108 -23.528 18.259 45.274
109 -27.906 0 45.274
110 -23.528 -18.259 45.274
111 -24.455 -21.142 45.274
112 -24.694 -23.788 45.274
113 -21.941 -23.447 45.274
114 -17.97 -21.103 45.274
115 0 -23.438 45.274
116 17.97 -21.103 45.274
117 21.941 -23.447 45.274
118 24.694 -23.788 45.274
119 24.455 -21.142 45.274
120 23.528 -18.259 45.274
121 41.773 0 69.64400000000001
122 35.448 27.509 69.64400000000001
123 37.071 32.048 69.64400000000001
124 37.567 36.188 69.64400000000001
125 33.243 35.526 69.64400000000001
126 26.893 31.582 69.64400000000001
127 0 34.293 69.64400000000001
128 -26.893 31.582 69.64400000000001
129 -33.243 35.526 69.64400000000001
130 -37.567 36.188 69.64400000000001
131 -37.071 32.048 69.64400000000001
132 -35.448 27.509 69.64400000000001
133 -41.773 0 69.64400000000001
134 -35.448 -27.509 69.64400000000001
135 -37.071 -32.048 69.64400000000001
136 -37.567 -36.188 69.64400000000001
137 -33.243 -35.526 69.64400000000001
138 -26.893 -31.582 69.64400000000001
139 0 -34.293 69.64400000000001
140 26.893 -31.582 69.64400000000001
141 33.243 -35.526 69.64400000000001
142 37.567 -36.188 69.64400000000001
143 37.071 -32.048 69.64400000000001
144 35.448 -27.509 69.64400000000001
145 61.615 0 98.006
146 52.701 40.899 98.006
147 54.899 47.462 98.006
148 55.452 53.417 98.006
149 49.203 52.582 98.006
150 40.057 47.041 98.006
151 0 50.713 98.006
152 -40.057 47.041 98.006
153 -49.203 52.582 98.006
154 -55.452 53.417 98.006
155 -54.899 47.462 98.006
156 -52.701 40.899 98.006
157 -61.615 0 98.006
158 -52.701 -40.899 98.006
159 -54.899 -47.462 98.006
160 -55.452 -53.417 98.006
161 -49.203 -52.582 98.006
162 -40.057 -47.041 98.006
163 0 -50.713 98.006
164 40.057 -47.041 98.006
165 49.203 -52.582 98.006
166 55.452 -53.417 98.006
167 54.899 -47.462 98.006
168 52.701 -40.899 98.006
169 89.94199999999999 0 126.28
170 79.184 61.451 126.28
171 81.229 70.224 126.28
172 81.038 78.065 126.28
173 72.64100000000001 77.63 126.28
174 60.713 71.298 126.28
175 0 75.66 126.28
176 -60.713 71.298 126.28
177 -72.64100000000001 77.63 126.28
178 -81.038 78.065 126.28
179 -81.229 70.224 126.28
180 -79.184 61.451 126.28
181 -89.94199999999999 0 126.28
182 -79.184 -61.451 126.28
183 -81.229 -70.224 126.28
184 -81.038 -78.065 126.28
185 -72.64100000000001 -77.63 126.28
186 -60.713 -71.298 126.28
187 0 -75.66 126.28
188 60.713 -71.298 126.28
189 72.64100000000001 -77.63 126.28
190 81.038 -78.065 126.28
191 81.229 -70.224 126.28
192 79.184 -61.451 126.28
193 127.515 0 149.718
194 117.347 91.06699999999999 149.718
195 117.937 101.959 149.718
196 115.655 111.411 149.718
197 105.111 112.328 149.718
198 90.946 106.803 149.718
199 0 110.409 149.718
200 -90.946 106.803 149.718
201 -105.111 112.328 149.718
202 -115.655 111.411 149.718
203 -117.937 101.959 149.718
204 -117.347 91.06699999999999 149.718
205 -127.515 0 149.718
206 -117.347 -91.06699999999999 149.718
207 -117.937 -101.959 149.718
208 -115.655 -111.411 149.718
209 -105.111 -112.328 149.718
210 -90.946 -106.803 149.718
211 0 -110.409 149.718
212 90.946 -106.803 149.718
213 105.111 -112.328 149.718
214 115.655 -111.411 149.718
215 117.937 -101.959 149.718
216 117.347 -91.06699999999999 149.718
217 171.297 0 167.291
218 163.9 127.195 167.291
219 161.936 139.997 167.291
220 156.457 150.716 167.291
221 143.893 153.774 167.291
222 128.121 150.459 167.291
223 0 152.031 167.291
224 -128.121 150.459 167.291
225 -143.893 153.774 167.291
226 -156.457 150.716 167.291
227 -161.936 139.997 167.291
228 -163.9 127.195 167.291
229 -171.297 0 167.291
230 -163.9 -127.195 167.291
231 -161.936 -139.997 167.291
232 -156.457 -150.716 167.291
233 -143.893 -153.774 167.291
234 -128.121 -150.459 167.291
235 0 -152.031 167.291
236 128.121 -150.459 167.291
237 143.893 -153.774 167.291
238 156.457 -150.716 167.291
239 161.936 -139.997 167.291
240 163.9 -127.195 167.291
241 212.768 0 178.873
242 208.418 161.743 178.873
243 203.7 176.103 178.873
244 194.925 187.772 178.873
245 180.677 193.084 178.873
246 163.827 192.391 178.873
247 0 192.047 178.873
248 -163.827 192.391 178.873
249 -180.677 193.084 178.873
250 -194.925 187.772 178.873
251 -203.7 176.103 178.873
252 -208.418 161.743 178.873
253 -212.768 0 178.873
254 -208.418 -161.743 178.873
255 -203.7 -176.103 178.873
256 -194.925 -187.772 178.873
257 -180.677 -193.084 178.873
258 -163.827 -192.391 178.873
259 0 -192.047 178.873
260 163.827 -192.391 178.873
261 180.677 -193.084 178.873
262 194.925 -187.772 178.873
263 203.7 -176.103 178.873
264 208.418 -161.743 178.873
265 247.114 0 185.816
266 244.464 189.717 185.816
267 237.465 205.293 185.816
268 226.017 217.723 185.816
269 210.464 224.917 185.816
270 192.841 226.463 185.816
271 0 225.505 185.816
272 -192.841 226.463 185.816
273 -210.464 224.917 185.816
274 -226.017 217.723 185.816
275 -237.465 205.293 185.816
276 -244.464 189.717 185.816
277 -247.114 0 185.816
278 -244.464 -189.717 185.816
279 -237.465 -205.293 185.816
280 -226.017 -217.723 185.816
281 -210.464 -224.917 185.816
282 -192.841 -226.463 185.816
283 0 -225.505 185.816
284 192.841 -226.463 185.816
285 210.464 -224.917 185.816
286 226.017 -217.723 185.816
287 237.465 -205.293 185.816
288 244.464 -189.717 185.816
289 269.688 0 188.928
290 266.811 207.059 188.928
291 258.462 223.446 188.928
292 245.457 236.45 188.928
293 229.07 244.8 188.928
294 210.905 247.677 188.928
295 0 247.677 188.928
296 -210.905 247.677 188.928
297 -229.07 244.8 188.928
298 -245.457 236.45 188.928
299 -258.462 223.446 188.928
300 -266.811 207.059 188.928
301 -269.688 0 188.928
302 -266.811 -207.059 188.928
303 -258.462 -223.446 188.928
304 -245.457 -236.45 188.928
305 -229.07 -244.8 188.928
306 -210.905 -247.677 188.928
307 0 -247.677 188.928
308 210.905 -247.677 188.928
309 229.07 -244.8 188.928
310 245.457 -236.45 188.928
311 258.462 -223.446 188.928
312 266.811 -207.059 188.928
313 84.56300000001336 30.72549999992363 126.28
314 98.26549999998119 76.25899999998541 137.9989999999885
315 99.58299999994762 86.09149999995472 137.9989999999665
316 98.34649999997029 94.73799999997138 137.9989999999799
317 88.87599999995162 94.97899999994829 137.9989999999651
318 75.82949999995424 89.05049999994625 137.9989999999645
319 30.35650000007633 73.47899999999451 126.28
320 -30.35649999992191 73.47900000000561 126.28
321 -75.82949999995424 89.05049999994625 137.9989999999645
322 -88.87599999995162 94.97899999994829 137.9989999999651
323 -98.34649999997029 94.73799999997138 137.9989999999799
324 -99.58299999994762 86.09149999995472 137.9989999999665
325 -98.26549999998119 76.25899999998541 137.9989999999885
326 -84.5629999999863 30.72550000007823 126.28
327 -84.56300000001336 -30.72549999992363 126.28
328 -98.26549999998119 -76.25899999998541 137.9989999999885
329 -99.58299999994762 -86.09149999995472 137.9989999999665
330 -98.34649999997029 -94.73799999997138 137.9989999999799
331 -88.87599999995162 -94.97899999994829 137.9989999999651
332 -75.82949999995424 -89.05049999994625 137.9989999999645
333 -30.35650000007633 -73.47899999999451 126.28
334 30.35649999992191 -73.47900000000561 126.28
335 75.82949999995424 -89.05049999994625 137.9989999999645
336 88.87599999995162 -94.97899999994829 137.9989999999651
337 98.34649999997029 -94.73799999997138 137.9989999999799
338 99.58299999994762 -86.09149999995472 137.9989999999665
339 98.26549999998119 -76.25899999998541 137.9989999999885
340 84.5629999999863 -30.72550000007823 126.28
341 122.4310000000134 45.53349999988006 149.718
342 140.6234999999353 109.1309999999498 158.5044999999756
343 139.936499999947 120.9779999999542 158.5044999999788
344 136.055999999948 131.06349999995 158.5044999999776
345 124.5019999999508 133.0509999999474 158.5044999999777
346 109.5334999999431 128.6309999999332 158.5044999999731
347 45.47300000011899 108.6059999999953 149.718
348 -45.47299999988077 108.6060000000047 149.718
349 -109.5334999999431 128.6309999999332 158.5044999999731
350 -124.5019999999508 133.0509999999474 158.5044999999777
351 -136.055999999948 131.06349999995 158.5044999999776
352 -139.936499999947 120.9779999999542 158.5044999999788
353 -140.6234999999353 109.1309999999498 158.5044999999756
354 -122.4309999999865 45.53350000012052 149.718
355 -122.4310000000134 -45.53349999988006 149.718
356 -140.6234999999353 -109.1309999999498 158.5044999999756
357 -139.936499999947 -120.9779999999542 158.5044999999788
358 -136.055999999948 -131.06349999995 158.5044999999776
359 -124.5019999999508 -133.0509999999474 158.5044999999777
360 -109.5334999999431 -128.6309999999332 158.5044999999731
361 -45.47300000011899 -108.6059999999953 149.718
362 45.47299999988077 -108.6060000000047 149.718
363 109.5334999999431 -128.6309999999332 158.5044999999731
364 124.5019999999508 -133.0509999999474 158.5044999999777
365 136.055999999948 -131.06349999995 158.5044999999776
366 139.936499999947 -120.9779999999542 158.5044999999788
367 140.6234999999353 -109.1309999999498 158.5044999999756
368 122.4309999999865 -45.53350000012052 149.718
369 168.8313333333396 42.39833333322571 167.291
370 166.3656666666731 84.79666666655663 167.291
371 186.158999999958 144.4689999999674 173.0819999999891
372 182.817999999936 158.0499999999447 173.0819999999822
373 175.6909999999473 169.2439999999493 173.0819999999841
374 162.2849999999549 173.4289999999519 173.0819999999858
375 145.9739999999504 171.4249999999418 173.0819999999839
376 85.41400000009773 150.9829999999988 167.291
377 42.70700000010773 151.5069999999987 167.291
378 -42.70699999989723 151.5070000000013 167.291
379 -85.41399999989115 150.9830000000013 167.291
380 -145.9739999999504 171.4249999999418 173.0819999999839
381 -162.2849999999549 173.4289999999519 173.0819999999858
382 -175.6909999999473 169.2439999999493 173.0819999999841
383 -182.817999999936 158.0499999999447 173.0819999999822
384 -186.158999999958 144.4689999999674 173.0819999999891
385 -166.3656666666604 84.79666666677346 167.291
386 -168.8313333333269 42.39833333344384 167.291
387 -168.8313333333396 -42.39833333322571 167.291
388 -166.3656666666731 -84.79666666655663 167.291
389 -186.158999999958 -144.4689999999674 173.0819999999891
390 -182.817999999936 -158.0499999999447 173.0819999999822
391 -175.6909999999473 -169.2439999999493 173.0819999999841
392 -162.2849999999549 -173.4289999999519 173.0819999999858
393 -145.9739999999504 -171.4249999999418 173.0819999999839
394 -85.41400000009773 -150.9829999999988 167.291
395 -42.70700000010773 -151.5069999999987 167.291
396 42.70699999989723 -151.5070000000013 167.291
397 85.41399999989115 -150.9830000000013 167.291
398 145.9739999999504 -171.4249999999418 173.0819999999839
399 162.2849999999549 -173.4289999999519 173.0819999999858
400 175.6909999999473 -169.2439999999493 173.0819999999841
401 182.817999999936 -158.0499999999447 173.0819999999822
402 186.158999999958 -144.4689999999674 173.0819999999891
403 166.3656666666604 -84.79666666677346 167.291
404 168.8313333333269 -42.39833333344384 167.291
405 211.6805000000024 40.43574999990888 178.873
406 210.5930000000056 80.87149999979268 178.873
407 209.5055000000027 121.3072499999011 178.873
408 122.8702500000875 192.3050000000002 178.873
409 81.9135000002054 192.2190000000004 178.873
410 40.95675000010131 192.1330000000002 178.873
411 -40.95674999990715 192.1329999999998 178.873
412 -81.91349999979285 192.2189999999996 178.873
413 -122.8702499998978 192.3049999999998 178.873
414 -209.5054999999975 121.3072500000913 178.873
415 -210.5929999999945 80.8715000002058 178.873
416 -211.6804999999974 40.43575000009841 178.873
417 -211.6805000000024 -40.43574999990888 178.873
418 -210.5930000000056 -80.87149999979268 178.873
419 -209.5055000000027 -121.3072499999011 178.873
420 -122.8702500000875 -192.3050000000002 178.873
421 -81.9135000002054 -192.2190000000004 178.873
422 -40.95675000010131 -192.1330000000002 178.873
423 40.95674999990715 -192.1329999999998 178.873
424 81.91349999979285 -192.2189999999996 178.873
425 122.8702499998978 -192.3049999999998 178.873
426 209.5054999999975 -121.3072500000913 178.873
427 210.5929999999945 -80.8715000002058 178.873
428 211.6804999999974 -40.43575000009841 178.873
429 246.4515000000016 47.42924999988625 185.816
430 245.7890000000035 94.85849999974788 185.816
431 245.1265000000018 142.2877499998702 185.816
432 144.6307500001096 226.2235000000005 185.816
433 96.42050000024412 225.9840000000012 185.816
434 48.21025000012344 225.7445000000006 185.816
435 -48.21024999988705 225.7444999999994 185.816
436 -96.42049999974812 225.9839999999987 185.816
437 -144.6307499998727 226.2234999999994 185.816
438 -245.1264999999985 142.2877500001086 185.816
439 -245.7889999999965 94.85850000025249 185.816
440 -246.4514999999982 47.42925000013005 185.816
441 -246.4515000000016 -47.42924999988625 185.816
442 -245.7890000000035 -94.85849999974788 185.816
443 -245.1265000000018 -142.2877499998702 185.816
444 -144.6307500001096 -226.2235000000005 185.816
445 -96.42050000024412 -225.9840000000012 185.816
446 -48.21025000012344 -225.7445000000006 185.816
447 48.21024999988705 -225.7444999999994 185.816
448 96.42049999974812 -225.9839999999987 185.816
449 144.6307499998727 -226.2234999999994 185.816
450 245.1264999999985 -142.2877500001086 185.816
451 245.7889999999965 -94.85850000025249 185.816
452 246.4514999999982 -47.42925000013005 185.816
453 269.1126000000012 41.41179999991004 188.928
454 268.537200000003 82.82359999978512 188.928
455 267.961800000003 124.2353999997823 188.928
456 267.3864000000015 165.6471999998882 188.928
457 168.7240000000855 247.677 188.928
458 126.5430000002154 247.677 188.928
459 84.36200000022151 247.677 188.928
460 42.18100000011771 247.677 188.928
461 -42.18099999990731 247.677 188.928
462 -84.36199999977921 247.677 188.928
463 -126.5429999997749 247.677 188.928
464 -168.7239999998805 247.677 188.928
465 -267.3863999999986 165.6472000000986 188.928
466 -267.9617999999971 124.2354000002097 188.928
467 -268.537199999997 82.82360000021427 188.928
468 -269.1125999999985 41.41180000011005 188.928
469 -269.1126000000012 -41.41179999991004 188.928
470 -268.537200000003 -82.82359999978512 188.928
471 -267.961800000003 -124.2353999997823 188.928
472 -267.3864000000015 -165.6471999998882 188.928
473 -168.7240000000855 -247.677 188.928
474 -126.5430000002154 -247.677 188.928
475 -84.36200000022151 -247.677 188.928
476 -42.18100000011771 -247.677 188.928
477 42.18099999990731 -247.677 188.928
478 84.36199999977921 -247.677 188.928
479 126.5429999997749 -247.677 188.928
480 168.7239999998805 -247.677 188.928
481 267.3863999999986 -165.6472000000986 188.928
482 267.9617999999971 -124.2354000002097 188.928
483 268.537199999997 -82.82360000021427 188.928
484 269.1125999999985 -41.41180000011005 188.928
485 11.49484791039243 3.940817672473993 2.381493547849256
486 4.148985570032329 11.24811989078426 2.382983744975113
487 -4.163023876648074 11.28740654605649 2.381381091119128
488 -11.47516120796154 3.93418539941748 2.38259678469364
489 -11.49484791039243 -3.940817672473993 2.381493547849256
490 -4.148985570032329 -11.24811989078426 2.382983744975113
491 4.163023876648074 -11.28740654605649 2.381381091119128
492 11.47516120796154 -3.934185399417481 2.38259678469364
493 12.41113677659689 4.279324508568794 9.024828239640531
494 4.414206241455621 11.78953535488712 9.052725286447799
495 -4.47927523158521 12.00657058075066 9.021173393218715
496 -12.31231583124781 4.24881522638722 9.044379649414626
497 -12.41113677659689 -4.279324508568794 9.024828239640531
498 -4.414206241455621 -11.78953535488712 9.052725286447799
499 4.47927523158521 -12.00657058075066 9.021173393218715
500 12.31231583124781 -4.24881522638722 9.044379649414626
501 15.50392716457615 5.275538741760899 20.27491191359184
502 5.194665660578861 13.97189147810308 20.19671998181224
503 -5.234031379893999 14.3639612217883 20.07780554252923
504 -15.3565092734269 5.243138007610511 20.32997925002976
505 -15.50392716457615 -5.275538741760899 20.27491191359184
506 -5.194665660578861 -13.97189147810308 20.19671998181224
507 5.234031379893999 -14.3639612217883 20.07780554252923
508 15.3565092734269 -5.243138007610511 20.32997925002976
509 22.01514763460434 7.345022433742482 36.50640725134473
510 6.840792116858314 18.99457253381509 36.25197566511123
511 -6.859962082781049 19.37153222169508 36.10307429936444
512 -21.89476806819058 7.319973133757895 36.56539230057967
513 -22.01514763460434 -7.345022433742482 36.50640725134473
514 -6.840792116858314 -18.99457253381509 36.25197566511123
515 6.859962082781049 -19.37153222169508 36.10307429936444
516 21.89476806819058 -7.319973133757895 36.56539230057967
517 32.95260033889621 10.86375248874102 58.53268229792889
518 9.714884990521291 27.83986331025831 57.92042208524254
519 -9.729294294190346 28.04709427562083 57.82353812630841
520 -32.89331437983876 10.85081961246671 58.5668960379102
521 -32.95260033889621 -10.86375248874102 58.53268229792889
522 -9.714884990521291 -27.83986331025831 57.92042208524254
523 9.729294294190346 -28.04709427562083 57.82353812630841
524 32.89331437983876 -10.85081961246671 58.5668960379102
525 47.93782578090869 17.11367692391061 83.787518487949
526 16.03917505166145 41.02512966539678 84.02121682180068
527 -16.04717550271685 41.11511156118471 83.96861682209311
528 -47.83123931653348 17.09044623994668 83.86270179003458
529 -47.93782578090869 -17.11367692391061 83.787518487949
530 -16.03917505166145 -41.02512966539678 84.02121682180068
531 16.04717550271685 -41.11511156118471 83.96861682209311
532 47.83123931653348 -17.09044623994668 83.86270179003456
533 14.30388194309111 62.39950737243497 112.8434669398173
534 -14.31886577216913 62.6080615263844 112.6533736507494
535 -14.30388194309111 -62.39950737243499 112.8434669398173
536 14.31886577216913 -62.6080615263844 112.6533736507494
537 107.0129010869145 21.22966774280003 138.4074508733849
538 98.72638726982981 47.08831501611053 135.0393785575773
539 23.0410689689764 91.74382342437939 138.3823142536162
540 47.08036981000001 86.77886974505009 135.8204901099127
541 -23.05064819437808 92.03176096106834 137.9391163155281
542 -47.09421882562372 87.13742068427787 135.2809244009499
543 -106.5551813882293 21.20281869834028 139.2098682789132
544 -98.10568066554659 47.02386204904052 136.063789834418
545 -107.0129010869145 -21.22966774280003 138.4074508733849
546 -98.72638726982981 -47.08831501611053 135.0393785575773
547 -23.0410689689764 -91.74382342437939 138.3823142536162
548 -47.08036981000001 -86.77886974505009 135.8204901099127
549 23.05064819437808 -92.03176096106834 137.9391163155281
550 47.09421882562372 -87.13742068427787 135.2809244009499
551 106.5551813882293 -21.20281869834028 139.2098682789132
552 98.10568066554659 -47.02386204904052 136.063789834418
553 141.4747897160318 72.03309780435261 157.0024986725557
554 149.2447149015703 19.98841557807604 158.9063314561798
555 70.49198814684526 127.4796759974063 157.8550156130901
556 21.09882129338024 131.0121993780363 159.0208435372361
557 -70.49118335157006 127.6804668242398 157.375258507813
558 -21.10089034833433 131.1808313139516 158.5972718119106
559 -141.1190188151744 72.02174789222713 157.9040108578739
560 -148.9778112801821 19.97289385101531 159.6492112345925
561 -141.4747897160318 -72.03309780435261 157.0024986725557
562 -149.2447149015703 -19.98841557807604 158.9063314561798
563 -70.49198814684526 -127.4796759974063 157.8550156130901
564 -21.09882129338024 -131.0121993780363 159.0208435372361
565 70.49118335157006 -127.6804668242398 157.375258507813
566 21.10089034833433 -131.1808313139516 158.5972718119106
567 141.1190188151744 -72.02174789222713 157.9040108578739
568 148.977811280182 -19.97289385101532 159.6492112345925
569 185.4940294255568 108.3298361560609 172.0696140977212
570 191.9942164229711 19.6737980008875 173.2190797982186
571 189.2747714189692 172.7856861728856 176.0294369709623
572 106.9948258647362 169.2229350417157 172.4953276796985
573 20.80306814306187 171.9040256055392 173.2872745544267
574 -106.9937648330215 169.3008981591601 172.2244744685723
575 -20.80292917502516 171.9702078734536 173.0494462855073
576 -189.2928896566231 172.7993109509653 175.9237224216758
577 -185.3405290378688 108.3285329968998 172.6257116022324
578 -191.8761048168011 19.67062144628233 173.6836168719287
579 -185.4940294255568 -108.3298361560609 172.0696140977212
580 -191.9942164229711 -19.6737980008875 173.2190797982186
581 -189.2747714189692 -172.7856861728856 176.0294369709623
582 -106.9948258647362 -169.2229350417157 172.4953276796985
583 -20.80306814306187 -171.9040256055392 173.2872745544267
584 106.9937648330215 -169.3008981591601 172.2244744685723
585 20.80292917502516 -171.9702078734536 173.0494462855073
586 189.2928896566231 -172.7993109509653 175.9237224216758
587 185.3405290378688 -108.3285329968998 172.6257116022324
588 191.8761048168012 -19.67062144628235 173.6836168719287
589 229.5086301004402 21.96632165808255 182.3191221475321
590 22.29179104693731 208.8491124513543 182.3848760079578
591 -22.29174397710288 208.858587371171 182.3386576386799
592 -229.4714519089717 21.96580234675656 182.5126878356036
593 -229.5086301004402 -21.96632165808255 182.3191221475321
594 -22.29179104693731 -208.8491124513543 182.3848760079578
595 22.29174397710288 -208.858587371171 182.3386576386799
596 229.4714519089717 -21.96580234675656 182.5126878356036
597 258.091541272318 22.21026272604625 187.3718819629533
598 241.8088616762078 220.7802338126648 187.3923952707405
599 22.59781250006028 236.6597043943288 187.3118114488145
600 -22.59781249994859 236.6497182420792 187.3802415284751
601 -241.8118371328601 220.7834716700993 187.3533552928203
602 -258.091411231907 22.21026091929898 187.3728257677098
603 -258.091541272318 -22.21026272604625 187.3718819629533
604 -241.8088616762078 -220.7802338126648 187.3923952707405
605 -22.59781250006028 -236.6597043943288 187.3118114488145
606 22.59781249994859 -236.6497182420792 187.3802415284751
607 241.8118371328601 -220.7834716700993 187.3533552928203
608 258.091411231907 -22.21026091929898 187.3728257677098
$EndNodes
$Elements
2220
1 15 2 0 1 1
2 15 2 0 2 2
3 15 2 0 3 3
4 15 2 0 4 4
5 15 2 0 5 5
6 15 2 0 6 6
7 15 2 0 7 7
8 15 2 0 8 8
9 15 2 0 9 9
10 15 2 0 10 10
11 15 2 0 11 11
12 15 2 0 12 12
13 15 2 0 13 13
14 15 2 0 14 14
15 15 2 0 15 15
16 15 2 0 16 16
17 15 2 0 17 17
18 15 2 0 18 18
19 15 2 0 19 19
20 15 2 0 20 20
21 15 2 0 21 21
22 15 2 0 22 22
23 15 2 0 23 23
24 15 2 0 24 24
25 15 2 0 25 25
26 15 2 0 26 26
27 15 2 0 27 27
28 15 2 0 28 28
29 15 2 0 29 29
30 15 2 0 30 30
31 15 2 0 31 31
32 15 2 0 32 32
33 15 2 0 33 33
34 15 2 0 34 34
35 15 2 0 35 35
36 15 2 0 36 36
37 15 2 0 37 37
38 15 2 0 38 38
39 15 2 0 39 39
40 15 2 0 40 40
41 15 2 0 41 41
42 15 2 0 42 42
43 15 2 0 43 43
44 15 2 0 44 44
45 15 2 0 45 45
46 15 2 0 46 46
47 15 2 0 47 47
48 15 2 0 48 48
49 15 2 0 49 49
50 15 2 0 50 50
51 15 2 0 51 51
52 15 2 0 52 52
53 15 2 0 53 53
54 15 2 0 54 54
55 15 2 0 55 55
56 15 2 0 56 56
57 15 2 0 57 57
58 15 2 0 58 58
59 15 2 0 59 59
60 15 2 0 60 60
61 15 2 0 61 61
62 15 2 0 62 62
63 15 2 0 63 63
64 15 2 0 64 64
65 15 2 0 65 65
66 15 2 0 66 66
67 15 2 0 67 67
68 15 2 0 68 68
69 15 2 0 69 69
70 15 2 0 70 70
71 15 2 0 71 71
72 15 2 0 72 72
73 15 2 0 73 73
74 15 2 0 74 74
75 15 2 0 75 75
76 15 2 0 76 76
77 15 2 0 77 77
78 15 2 0 78 78
79 15 2 0 79 79
80 15 2 0 80 80
81 15 2 0 81 81
82 15 2 0 82 82
83 15 2 0 83 83
84 15 2 0 84 84
85 15 2 0 85 85
86 15 2 0 86 86
87 15 2 0 87 87
88 15 2 0 88 88
89 15 2 0 89 89
90 15 2 0 90 90
91 15 2 0 91 91
92 15 2 0 92 92
93 15 2 0 93 93
94 15 2 0 94 94
95 15 2 0 95 95
96 15 2 0 96 96
97 15 2 0 97 97
98 15 2 0 98 98
99 15 2 0 99 99
100 15 2 0 100 100
101 15 2 0 101 101
102 15 2 0 102 102
103 15 2 0 103 103
104 15 2 0 104 104
105 15 2 0 105 105
106 15 2 0 106 106
107 15 2 0 107 107
108 15 2 0 108 108
109 15 2 0 109 109
110 15 2 0 110 110
111 15 2 0 111 111
112 15 2 0 112 112
113 15 2 0 113 113
114 15 2 0 114 114
115 15 2 0 115 115
116 15 2 0 116 116
117 15 2 0 117 117
118 15 2 0 118 118
119 15 2 0 119 119
120 15 2 0 120 120
121 15 2 0 121 121
122 15 2 0 122 122
123 15 2 0 123 123
124 15 2 0 124 124
125 15 2 0 125 125
126 15 2 0 126 126
127 15 2 0 127 127
128 15 2 0 128 128
129 15 2 0 129 129
130 15 2 0 130 130
131 15 2 0 131 131
132 15 2 0 132 132
133 15 2 0 133 133
134 15 2 0 134 134
135 15 2 0 135 135
136 15 2 0 136 136
137 15 2 0 137 137
138 15 2 0 138 138
139 15 2 0 139 139
140 15 2 0 140 140
141 15 2 0 141 141
142 15 2 0 142 142
143 15 2 0 143 143
144 15 2 0 144 144
145 15 2 0 145 145
146 15 2 0 146 146
147 15 2 0 147 147
148 15 2 0 148 148
149 15 2 0 149 149
150 15 2 0 150 150
151 15 2 0 151 151
152 15 2 0 152 152
153 15 2 0 153 153
154 15 2 0 154 154
155 15 2 0 155 155
156 15 2 0 156 156
157 15 2 0 157 157
158 15 2 0 158 158
159 15 2 0 159 159
160 15 2 0 160 160
161 15 2 0 161 161
162 15 2 0 162 162
163 15 2 0 163 163
164 15 2 0 164 164
165 15 2 0 165 165
166 15 2 0 166 166
167 15 2 0 167 167
168 15 2 0 168 168
169 15 2 0 169 169
170 15 2 0 170 170
171 15 2 0 171 171
172 15 2 0 172 172
173 15 2 0 173 173
174 15 2 0 174 174
175 15 2 0 175 175
176 15 2 0 176 176
177 15 2 0 177 177
178 15 2 0 178 178
179 15 2 0 179 179
180 15 2 0 180 180
181 15 2 0 181 181
182 15 2 0 182 182
183 15 2 0 183 183
184 15 2 0 184 184
185 15 2 0 185 185
186 15 2 0 186 186
187 15 2 0 187 187
188 15 2 0 188 188
189 15 2 0 189 189
190 15 2 0 190 190
191 15 2 0 191 191
192 15 2 0 192 192
193 15 2 0 193 193
194 15 2 0 194 194
195 15 2 0 195 195
196 15 2 0 196 196
197 15 2 0 197 197
198 15 2 0 198 198
199 15 2 0 199 199
200 15 2 0 200 200
201 15 2 0 201 201
202 15 2 0 202 202
203 15 2 0 203 203
204 15 2 0 204 204
205 15 2 0 205 205
206 15 2 0 206 206
207 15 2 0 207 207
208 15 2 0 208 208
209 15 2 0 209 209
210 15 2 0 210 210
211 15 2 0 211 211
212 15 2 0 212 212
213 15 2 0 213 213
214 15 2 0 214 214
215 15 2 0 215 215
216 15 2 0 216 216
217 15 2 0 217 217
218 15 2 0 218 218
219 15 2 0 219 219
220 15 2 0 220 220
221 15 2 0 221 221
222 15 2 0 222 222
223 15 2 0 223 223
224 15 2 0 224 224
225 15 2 0 225 225
226 15 2 0 226 226
227 15 2 0 227 227
228 15 2 0 228 228
229 15 2 0 229 229
230 15 2 0 230 230
231 15 2 0 231 231
232 15 2 0 232 232
233 15 2 0 233 233
234 15 2 0 234 234
235 15 2 0 235 235
236 15 2 0 236 236
237 15 2 0 237 237
238 15 2 0 238 238
239 15 2 0 239 239
240 15 2 0 240 240
241 15 2 0 241 241
242 15 2 0 242 242
243 15 2 0 243 243
244 15 2 0 244 244
245 15 2 0 245 245
246 15 2 0 246 246
247 15 2 0 247 247
248 15 2 0 248 248
249 15 2 0 249 249
250 15 2 0 250 250
251 15 2 0 251 251
252 15 2 0 252 252
253 15 2 0 253 253
254 15 2 0 254 254
255 15 2 0 255 255
256 15 2 0 256 256
257 15 2 0 257 257
258 15 2 0 258 258
259 15 2 0 259 259
260 15 2 0 260 260
261 15 2 0 261 261
262 15 2 0 262 262
263 15 2 0 263 263
264 15 2 0 264 264
265 15 2 0 265 265
266 15 2 0 266 266
267 15 2 0 267 267
268 15 2 0 268 268
269 15 2 0 269 269
270 15 2 0 270 270
271 15 2 0 271 271
272 15 2 0 272 272
273 15 2 0 273 273
274 15 2 0 274 274
275 15 2 0 275 275
276 15 2 0 276 276
277 15 2 0 277 277
278 15 2 0 278 278
279 15 2 0 279 279
280 15 2 0 280 280
281 15 2 0 281 281
282 15 2 0 282 282
283 15 2 0 283 283
284 15 2 0 284 284
285 15 2 0 285 285
286 15 2 0 286 286
287 15 2 0 287 287
288 15 2 0 288 288
289 15 2 0 289 289
290 15 2 0 290 290
291 15 2 0 291 291
292 15 2 0 292 292
293 15 2 0 293 293
294 15 2 0 294 294
295 15 2 0 295 295
296 15 2 0 296 296
297 15 2 0 297 297
298 15 2 0 298 298
299 15 2 0 299 299
300 15 2 0 300 300
301 15 2 0 301 301
302 15 2 0 302 302
303 15 2 0 303 303
304 15 2 0 304 304
305 15 2 0 305 305
306 15 2 0 306 306
307 15 2 0 307 307
308 15 2 0 308 308
309 15 2 0 309 309
310 15 2 0 310 310
311 15 2 0 311 311
312 15 2 0 312 312
313 1 2 0 1 1 25
314 1 2 0 2 1 2
315 1 2 0 3 2 26
316 1 2 0 4 2 3
317 1 2 0 5 3 27
318 1 2 0 6 3 4
319 1 2 0 7 4 28
320 1 2 0 8 4 5
321 1 2 0 9 5 29
322 1 2 0 10 5 6
323 1 2 0 11 6 30
324 1 2 0 12 6 7
325 1 2 0 13 7 31
326 1 2 0 14 7 8
327 1 2 0 15 8 32
328 1 2 0 16 8 9
329 1 2 0 17 9 33
330 1 2 0 18 9 10
331 1 2 0 19 10 34
332 1 2 0 20 10 11
333 1 2 0 21 11 35
334 1 2 0 22 11 12
335 1 2 0 23 12 36
336 1 2 0 24 12 13
337 1 2 0 25 13 37
338 1 2 0 26 13 14
339 1 2 0 27 14 38
340 1 2 0 28 14 15
341 1 2 0 29 15 39
342 1 2 0 30 15 16
343 1 2 0 31 16 40
344 1 2 0 32 16 17
345 1 2 0 33 17 41
346 1 2 0 34 17 18
347 1 2 0 35 18 42
348 1 2 0 36 18 19
349 1 2 0 37 19 43
350 1 2 0 38 19 20
351 1 2 0 39 20 44
352 1 2 0 40 20 21
353 1 2 0 41 21 45
354 1 2 0 42 21 22
355 1 2 0 43 22 46
356 1 2 0 44 22 23
357 1 2 0 45 23 47
358 1 2 0 46 23 24
359 1 2 0 47 24 48
360 1 2 0 48 24 1
361 1 2 0 49 25 49
362 1 2 0 50 25 26
363 1 2 0 51 26 50
364 1 2 0 52 26 27
365 1 2 0 53 27 51
366 1 2 0 54 27 28
367 1 2 0 55 28 52
368 1 2 0 56 28 29
369 1 2 0 57 29 53
370 1 2 0 58 29 30
371 1 2 0 59 30 54
372 1 2 0 60 30 31
373 1 2 0 61 31 55
374 1 2 0 62 31 32
375 1 2 0 63 32 56
376 1 2 0 64 32 33
377 1 2 0 65 33 57
378 1 2 0 66 33 34
379 1 2 0 67 34 58
380 1 2 0 68 34 35
381 1 2 0 69 35 59
382 1 2 0 70 35 36
383 1 2 0 71 36 60
384 1 2 0 72 36 37
385 1 2 0 73 37 61
386 1 2 0 74 37 38
387 1 2 0 75 38 62
388 1 2 0 76 38 39
389 1 2 0 77 39 63
390 1 2 0 78 39 40
391 1 2 0 79 40 64
392 1 2 0 80 40 41
393 1 2 0 81 41 65
394 1 2 0 82 41 42
395 1 2 0 83 42 66
396 1 2 0 84 42 43
397 1 2 0 85 43 67
398 1 2 0 86 43 44
399 1 2 0 87 44 68
400 1 2 0 88 44 45
401 1 2 0 89 45 69
402 1 2 0 90 45 46
403 1 2 0 91 46 70
404 1 2 0 92 46 47
405 1 2 0 93 47 71
406 1 2 0 94 47 48
407 1 2 0 95 48 72
408 1 2 0 96 48 25
409 1 2 0 97 49 73
410 1 2 0 98 49 50
411 1 2 0 99 50 74
412 1 2 0 100 50 51
413 1 2 0 101 51 75
414 1 2 0 102 51 52
415 1 2 0 103 52 76
416 1 2 0 104 52 53
417 1 2 0 105 53 77
418 1 2 0 106 53 54
419 1 2 0 107 54 78
420 1 2 0 108 54 55
421 1 2 0 109 55 79
422 1 2 0 110 55 56
423 1 2 0 111 56 80
424 1 2 0 112 56 57
425 1 2 0 113 57 81
426 1 2 0 114 57 58
427 1 2 0 115 58 82
428 1 2 0 116 58 59
429 1 2 0 117 59 83
430 1 2 0 118 59 60
431 1 2 0 119 60 84
432 1 2 0 120 60 61
433 1 2 0 121 61 85
434 1 2 0 122 61 62
435 1 2 0 123 62 86
436 1 2 0 124 62 63
437 1 2 0 125 63 87
438 1 2 0 126 63 64
439 1 2 0 127 64 88
440 1 2 0 128 64 65
441 1 2 0 129 65 89
442 1 2 0 130 65 66
443 1 2 0 131 66 90
444 1 2 0 132 66 67
445 1 2 0 133 67 91
446 1 2 0 134 67 68
447 1 2 0 135 68 92
448 1 2 0 136 68 69
449 1 2 0 137 69 93
450 1 2 0 138 69 70
451 1 2 0 139 70 94
452 1 2 0 140 70 71
453 1 2 0 141 71 95
454 1 2 0 142 71 72
455 1 2 0 143 72 96
456 1 2 0 144 72 49
457 1 2 0 145 73 97
458 1 2 0 146 73 74
459 1 2 0 147 74 98
460 1 2 0 148 74 75
461 1 2 0 149 75 99
462 1 2 0 150 75 76
463 1 2 0 151 76 100
464 1 2 0 152 76 77
465 1 2 0 153 77 101
466 1 2 0 154 77 78
467 1 2 0 155 78 102
468 1 2 0 156 78 79
469 1 2 0 157 79 103
470 1 2 0 158 79 80
471 1 2 0 159 80 104
472 1 2 0 160 80 81
473 1 2 0 161 81 105
474 1 2 0 162 81 82
475 1 2 0 163 82 106
476 1 2 0 164 82 83
477 1 2 0 165 83 107
478 1 2 0 166 83 84
479 1 2 0 167 84 108
480 1 2 0 168 84 85
481 1 2 0 169 85 109
482 1 2 0 170 85 86
483 1 2 0 171 86 110
484 1 2 0 172 86 87
485 1 2 0 173 87 111
486 1 2 0 174 87 88
487 1 2 0 175 88 112
488 1 2 0 176 88 89
489 1 2 0 177 89 113
490 1 2 0 178 89 90
491 1 2 0 179 90 114
492 1 2 0 180 90 91
493 1 2 0 181 91 115
494 1 2 0 182 91 92
495 1 2 0 183 92 116
496 1 2 0 184 92 93
497 1 2 0 185 93 117
498 1 2 0 186 93 94
499 1 2 0 187 94 118
500 1 2 0 188 94 95
501 1 2 0 189 95 119
502 1 2 0 190 95 96
503 1 2 0 191 96 120
504 1 2 0 192 96 73
505 1 2 0 193 97 121
506 1 2 0 194 97 98
507 1 2 0 195 98 122
508 1 2 0 196 98 99
509 1 2 0 197 99 123
510 1 2 0 198 99 100
511 1 2 0 199 100 124
512 1 2 0 200 100 101
513 1 2 0 201 101 125
514 1 2 0 202 101 102
515 1 2 0 203 102 126
516 1 2 0 204 102 103
517 1 2 0 205 103 127
518 1 2 0 206 103 104
519 1 2 0 207 104 128
520 1 2 0 208 104 105
521 1 2 0 209 105 129
522 1 2 0 210 105 106
523 1 2 0 211 106 130
524 1 2 0 212 106 107
525 1 2 0 213 107 131
526 1 2 0 214 107 108
527 1 2 0 215 108 132
528 1 2 0 216 108 109
529 1 2 0 217 109 133
530 1 2 0 218 109 110
531 1 2 0 219 110 134
532 1 2 0 220 110 111
533 1 2 0 221 111 135
534 1 2 0 222 111 112
535 1 2 0 223 112 136
536 1 2 0 224 112 113
537 1 2 0 225 113 137
538 1 2 0 226 113 114
539 1 2 0 227 114 138
540 1 2 0 228 114 115
541 1 2 0 229 115 139
542 1 2 0 230 115 116
543 1 2 0 231 116 140
544 1 2 0 232 116 117
545 1 2 0 233 117 141
546 1 2 0 234 117 118
547 1 2 0 235 118 142
548 1 2 0 236 118 119
549 1 2 0 237 119 143
550 1 2 0 238 119 120
551 1 2 0 239 120 144
552 1 2 0 240 120 97
553 1 2 0 241 121 145
554 1 2 0 242 121 122
555 1 2 0 243 122 146
556 1 2 0 244 122 123
557 1 2 0 245 123 147
558 1 2 0 246 123 124
559 1 2 0 247 124 148
560 1 2 0 248 124 125
561 1 2 0 249 125 149
562 1 2 0 250 125 126
563 1 2 0 251 126 150
564 1 2 0 252 126 127
565 1 2 0 253 127 151
566 1 2 0 254 127 128
567 1 2 0 255 128 152
568 1 2 0 256 128 129
569 1 2 0 257 129 153
570 1 2 0 258 129 130
571 1 2 0 259 130 154
572 1 2 0 260 130 131
573 1 2 0 261 131 155
574 1 2 0 262 131 132
575 1 2 0 263 132 156
576 1 2 0 264 132 133
577 1 2 0 265 133 157
578 1 2 0 266 133 134
579 1 2 0 267 134 158
580 1 2 0 268 134 135
581 1 2 0 269 135 159
582 1 2 0 270 135 136
583 1 2 0 271 136 160
584 1 2 0 272 136 137
585 1 2 0 273 137 161
586 1 2 0 274 137 138
587 1 2 0 275 138 162
588 1 2 0 276 138 139
589 1 2 0 277 139 163
590 1 2 0 278 139 140
591 1 2 0 279 140 164
592 1 2 0 280 140 141
593 1 2 0 281 141 165
594 1 2 0 282 141 142
595 1 2 0 283 142 166
596 1 2 0 284 142 143
597 1 2 0 285 143 167
598 1 2 0 286 143 144
599 1 2 0 287 144 168
600 1 2 0 288 144 121
601 1 2 0 289 145 169
602 1 2 0 290 145 146
603 1 2 0 291 146 170
604 1 2 0 292 146 147
605 1 2 0 293 147 171
606 1 2 0 294 147 148
607 1 2 0 295 148 172
608 1 2 0 296 148 149
609 1 2 0 297 149 173
610 1 2 0 298 149 150
611 1 2 0 299 150 174
612 1 2 0 300 150 151
613 1 2 0 301 151 175
614 1 2 0 302 151 152
615 1 2 0 303 152 176
616 1 2 0 304 152 153
617 1 2 0 305 153 177
618 1 2 0 306 153 154
619 1 2 0 307 154 178
620 1 2 0 308 154 155
621 1 2 0 309 155 179
622 1 2 0 310 155 156
623 1 2 0 311 156 180
624 1 2 0 312 156 157
625 1 2 0 313 157 181
626 1 2 0 314 157 158
627 1 2 0 315 158 182
628 1 2 0 316 158 159
629 1 2 0 317 159 183
630 1 2 0 318 159 160
631 1 2 0 319 160 184
632 1 2 0 320 160 161
633 1 2 0 321 161 185
634 1 2 0 322 161 162
635 1 2 0 323 162 186
636 1 2 0 324 162 163
637 1 2 0 325 163 187
638 1 2 0 326 163 164
639 1 2 0 327 164 188
640 1 2 0 328 164 165
641 1 2 0 329 165 189
642 1 2 0 330 165 166
643 1 2 0 331 166 190
644 1 2 0 332 166 167
645 1 2 0 333 167 191
646 1 2 0 334 167 168
647 1 2 0 335 168 192
648 1 2 0 336 168 145
649 1 2 0 337 169 193
650 1 2 0 338 169 313
651 1 2 0 338 313 170
652 1 2 0 339 170 314
653 1 2 0 339 314 194
654 1 2 0 340 170 171
655 1 2 0 341 171 315
656 1 2 0 341 315 195
657 1 2 0 342 171 172
658 1 2 0 343 172 316
659 1 2 0 343 316 196
660 1 2 0 344 172 173
661 1 2 0 345 173 317
662 1 2 0 345 317 197
663 1 2 0 346 173 174
664 1 2 0 347 174 318
665 1 2 0 347 318 198
666 1 2 0 348 174 319
667 1 2 0 348 319 175
668 1 2 0 349 175 199
669 1 2 0 350 175 320
670 1 2 0 350 320 176
671 1 2 0 351 176 321
672 1 2 0 351 321 200
673 1 2 0 352 176 177
674 1 2 0 353 177 322
675 1 2 0 353 322 201
676 1 2 0 354 177 178
677 1 2 0 355 178 323
678 1 2 0 355 323 202
679 1 2 0 356 178 179
680 1 2 0 357 179 324
681 1 2 0 357 324 203
682 1 2 0 358 179 180
683 1 2 0 359 180 325
684 1 2 0 359 325 204
685 1 2 0 360 180 326
686 1 2 0 360 326 181
687 1 2 0 361 181 205
688 1 2 0 362 181 327
689 1 2 0 362 327 182
690 1 2 0 363 182 328
691 1 2 0 363 328 206
692 1 2 0 364 182 183
693 1 2 0 365 183 329
694 1 2 0 365 329 207
695 1 2 0 366 183 184
696 1 2 0 367 184 330
697 1 2 0 367 330 208
698 1 2 0 368 184 185
699 1 2 0 369 185 331
700 1 2 0 369 331 209
701 1 2 0 370 185 186
702 1 2 0 371 186 332
703 1 2 0 371 332 210
704 1 2 0 372 186 333
705 1 2 0 372 333 187
706 1 2 0 373 187 211
707 1 2 0 374 187 334
708 1 2 0 374 334 188
709 1 2 0 375 188 335
710 1 2 0 375 335 212
711 1 2 0 376 188 189
712 1 2 0 377 189 336
713 1 2 0 377 336 213
714 1 2 0 378 189 190
715 1 2 0 379 190 337
716 1 2 0 379 337 214
717 1 2 0 380 190 191
718 1 2 0 381 191 338
719 1 2 0 381 338 215
720 1 2 0 382 191 192
721 1 2 0 383 192 339
722 1 2 0 383 339 216
723 1 2 0 384 192 340
724 1 2 0 384 340 169
725 1 2 0 385 193 217
726 1 2 0 386 193 341
727 1 2 0 386 341 194
728 1 2 0 387 194 342
729 1 2 0 387 342 218
730 1 2 0 388 194 195
731 1 2 0 389 195 343
732 1 2 0 389 343 219
733 1 2 0 390 195 196
734 1 2 0 391 196 344
735 1 2 0 391 344 220
736 1 2 0 392 196 197
737 1 2 0 393 197 345
738 1 2 0 393 345 221
739 1 2 0 394 197 198
740 1 2 0 395 198 346
741 1 2 0 395 346 222
742 1 2 0 396 198 347
743 1 2 0 396 347 199
744 1 2 0 397 199 223
745 1 2 0 398 199 348
746 1 2 0 398 348 200
747 1 2 0 399 200 349
748 1 2 0 399 349 224
749 1 2 0 400 200 201
750 1 2 0 401 201 350
751 1 2 0 401 350 225
752 1 2 0 402 201 202
753 1 2 0 403 202 351
754 1 2 0 403 351 226
755 1 2 0 404 202 203
756 1 2 0 405 203 352
757 1 2 0 405 352 227
758 1 2 0 406 203 204
759 1 2 0 407 204 353
760 1 2 0 407 353 228
761 1 2 0 408 204 354
762 1 2 0 408 354 205
763 1 2 0 409 205 229
764 1 2 0 410 205 355
765 1 2 0 410 355 206
766 1 2 0 411 206 356
767 1 2 0 411 356 230
768 1 2 0 412 206 207
769 1 2 0 413 207 357
770 1 2 0 413 357 231
771 1 2 0 414 207 208
772 1 2 0 415 208 358
773 1 2 0 415 358 232
774 1 2 0 416 208 209
775 1 2 0 417 209 359
776 1 2 0 417 359 233
777 1 2 0 418 209 210
778 1 2 0 419 210 360
779 1 2 0 419 360 234
780 1 2 0 420 210 361
781 1 2 0 420 361 211
782 1 2 0 421 211 235
783 1 2 0 422 211 362
784 1 2 0 422 362 212
785 1 2 0 423 212 363
786 1 2 0 423 363 236
787 1 2 0 424 212 213
788 1 2 0 425 213 364
789 1 2 0 425 364 237
790 1 2 0 426 213 214
791 1 2 0 427 214 365
792 1 2 0 427 365 238
793 1 2 0 428 214 215
794 1 2 0 429 215 366
795 1 2 0 429 366 239
796 1 2 0 430 215 216
797 1 2 0 431 216 367
798 1 2 0 431 367 240
799 1 2 0 432 216 368
800 1 2 0 432 368 193
801 1 2 0 433 217 241
802 1 2 0 434 217 369
803 1 2 0 434 369 370
804 1 2 0 434 370 218
805 1 2 0 435 218 371
806 1 2 0 435 371 242
807 1 2 0 436 218 219
808 1 2 0 437 219 372
809 1 2 0 437 372 243
810 1 2 0 438 219 220
811 1 2 0 439 220 373
812 1 2 0 439 373 244
813 1 2 0 440 220 221
814 1 2 0 441 221 374
815 1 2 0 441 374 245
816 1 2 0 442 221 222
817 1 2 0 443 222 375
818 1 2 0 443 375 246
819 1 2 0 444 222 376
820 1 2 0 444 376 377
821 1 2 0 444 377 223
822 1 2 0 445 223 247
823 1 2 0 446 223 378
824 1 2 0 446 378 379
825 1 2 0 446 379 224
826 1 2 0 447 224 380
827 1 2 0 447 380 248
828 1 2 0 448 224 225
829 1 2 0 449 225 381
830 1 2 0 449 381 249
831 1 2 0 450 225 226
832 1 2 0 451 226 382
833 1 2 0 451 382 250
834 1 2 0 452 226 227
835 1 2 0 453 227 383
836 1 2 0 453 383 251
837 1 2 0 454 227 228
838 1 2 0 455 228 384
839 1 2 0 455 384 252
840 1 2 0 456 228 385
841 1 2 0 456 385 386
842 1 2 0 456 386 229
843 1 2 0 457 229 253
844 1 2 0 458 229 387
845 1 2 0 458 387 388
846 1 2 0 458 388 230
847 1 2 0 459 230 389
848 1 2 0 459 389 254
849 1 2 0 460 230 231
850 1 2 0 461 231 390
851 1 2 0 461 390 255
852 1 2 0 462 231 232
853 1 2 0 463 232 391
854 1 2 0 463 391 256
855 1 2 0 464 232 233
856 1 2 0 465 233 392
857 1 2 0 465 392 257
858 1 2 0 466 233 234
859 1 2 0 467 234 393
860 1 2 0 467 393 258
861 1 2 0 468 234 394
862 1 2 0 468 394 395
863 1 2 0 468 395 235
864 1 2 0 469 235 259
865 1 2 0 470 235 396
866 1 2 0 470 396 397
867 1 2 0 470 397 236
868 1 2 0 471 236 398
869 1 2 0 471 398 260
870 1 2 0 472 236 237
871 1 2 0 473 237 399
872 1 2 0 473 399 261
873 1 2 0 474 237 238
874 1 2 0 475 238 400
875 1 2 0 475 400 262
876 1 2 0 476 238 239
877 1 2 0 477 239 401
878 1 2 0 477 401 263
879 1 2 0 478 239 240
880 1 2 0 479 240 402
881 1 2 0 479 402 264
882 1 2 0 480 240 403
883 1 2 0 480 403 404
884 1 2 0 480 404 217
885 1 2 0 481 241 265
886 1 2 0 482 241 405
887 1 2 0 482 405 406
888 1 2 0 482 406 407
889 1 2 0 482 407 242
890 1 2 0 483 242 266
891 1 2 0 484 242 243
892 1 2 0 485 243 267
893 1 2 0 486 243 244
894 1 2 0 487 244 268
895 1 2 0 488 244 245
896 1 2 0 489 245 269
897 1 2 0 490 245 246
898 1 2 0 491 246 270
899 1 2 0 492 246 408
900 1 2 0 492 408 409
901 1 2 0 492 409 410
902 1 2 0 492 410 247
903 1 2 0 493 247 271
904 1 2 0 494 247 411
905 1 2 0 494 411 412
906 1 2 0 494 412 413
907 1 2 0 494 413 248
908 1 2 0 495 248 272
909 1 2 0 496 248 249
910 1 2 0 497 249 273
911 1 2 0 498 249 250
912 1 2 0 499 250 274
913 1 2 0 500 250 251
914 1 2 0 501 251 275
915 1 2 0 502 251 252
916 1 2 0 503 252 276
917 1 2 0 504 252 414
918 1 2 0 504 414 415
919 1 2 0 504 415 416
920 1 2 0 504 416 253
921 1 2 0 505 253 277
922 1 2 0 506 253 417
923 1 2 0 506 417 418
924 1 2 0 506 418 419
925 1 2 0 506 419 254
926 1 2 0 507 254 278
927 1 2 0 508 254 255
928 1 2 0 509 255 279
929 1 2 0 510 255 256
930 1 2 0 511 256 280
931 1 2 0 512 256 257
932 1 2 0 513 257 281
933 1 2 0 514 257 258
934 1 2 0 515 258 282
935 1 2 0 516 258 420
936 1 2 0 516 420 421
937 1 2 0 516 421 422
938 1 2 0 516 422 259
939 1 2 0 517 259 283
940 1 2 0 518 259 423
941 1 2 0 518 423 424
942 1 2 0 518 424 425
943 1 2 0 518 425 260
944 1 2 0 519 260 284
945 1 2 0 520 260 261
946 1 2 0 521 261 285
947 1 2 0 522 261 262
948 1 2 0 523 262 286
949 1 2 0 524 262 263
950 1 2 0 525 263 287
951 1 2 0 526 263 264
952 1 2 0 527 264 288
953 1 2 0 528 264 426
954 1 2 0 528 426 427
955 1 2 0 528 427 428
956 1 2 0 528 428 241
957 1 2 0 529 265 289
958 1 2 0 530 265 429
959 1 2 0 530 429 430
960 1 2 0 530 430 431
961 1 2 0 530 431 266
962 1 2 0 531 266 290
963 1 2 0 532 266 267
964 1 2 0 533 267 291
965 1 2 0 534 267 268
966 1 2 0 535 268 292
967 1 2 0 536 268 269
968 1 2 0 537 269 293
969 1 2 0 538 269 270
970 1 2 0 539 270 294
971 1 2 0 540 270 432
972 1 2 0 540 432 433
973 1 2 0 540 433 434
974 1 2 0 540 434 271
975 1 2 0 541 271 295
976 1 2 0 542 271 435
977 1 2 0 542 435 436
978 1 2 0 542 436 437
979 1 2 0 542 437 272
980 1 2 0 543 272 296
981 1 2 0 544 272 273
982 1 2 0 545 273 297
983 1 2 0 546 273 274
984 1 2 0 547 274 298
985 1 2 0 548 274 275
986 1 2 0 549 275 299
987 1 2 0 550 275 276
988 1 2 0 551 276 300
989 1 2 0 552 276 438
990 1 2 0 552 438 439
991 1 2 0 552 439 440
992 1 2 0 552 440 277
993 1 2 0 553 277 301
994 1 2 0 554 277 441
995 1 2 0 554 441 442
996 1 2 0 554 442 443
997 1 2 0 554 443 278
998 1 2 0 555 278 302
999 1 2 0 556 278 279
1000 1 2 0 557 279 303
1001 1 2 0 558 279 280
1002 1 2 0 559 280 304
1003 1 2 0 560 280 281
1004 1 2 0 561 281 305
1005 1 2 0 562 281 282
1006 1 2 0 563 282 306
1007 1 2 0 564 282 444
1008 1 2 0 564 444 445
1009 1 2 0 564 445 446
1010 1 2 0 564 446 283
1011 1 2 0 565 283 307
1012 1 2 0 566 283 447
1013 1 2 0 566 447 448
1014 1 2 0 566 448 449
1015 1 2 0 566 449 284
1016 1 2 0 567 284 308
1017 1 2 0 568 284 285
1018 1 2 0 569 285 309
1019 1 2 0 570 285 286
1020 1 2 0 571 286 310
1021 1 2 0 572 286 287
1022 1 2 0 573 287 311
1023 1 2 0 574 287 288
1024 1 2 0 575 288 312
1025 1 2 0 576 288 450
1026 1 2 0 576 450 451
1027 1 2 0 576 451 452
1028 1 2 0 576 452 265
1029 1 2 0 578 289 453
1030 1 2 0 578 453 454
1031 1 2 0 578 454 455
1032 1 2 0 578 455 456
1033 1 2 0 578 456 290
1034 1 2 0 580 290 291
1035 1 2 0 582 291 292
1036 1 2 0 584 292 293
1037 1 2 0 586 293 294
1038 1 2 0 588 294 457
1039 1 2 0 588 457 458
1040 1 2 0 588 458 459
1041 1 2 0 588 459 460
1042 1 2 0 588 460 295
1043 1 2 0 590 295 461
1044 1 2 0 590 461 462
1045 1 2 0 590 462 463
1046 1 2 0 590 463 464
1047 1 2 0 590 464 296
1048 1 2 0 592 296 297
1049 1 2 0 594 297 298
1050 1 2 0 596 298 299
1051 1 2 0 598 299 300
1052 1 2 0 600 300 465
1053 1 2 0 600 465 466
1054 1 2 0 600 466 467
1055 1 2 0 600 467 468
1056 1 2 0 600 468 301
1057 1 2 0 602 301 469
1058 1 2 0 602 469 470
1059 1 2 0 602 470 471
1060 1 2 0 602 471 472
1061 1 2 0 602 472 302
1062 1 2 0 604 302 303
1063 1 2 0 606 303 304
1064 1 2 0 608 304 305
1065 1 2 0 610 305 306
1066 1 2 0 612 306 473
1067 1 2 0 612 473 474
1068 1 2 0 612 474 475
1069 1 2 0 612 475 476
1070 1 2 0 612 476 307
1071 1 2 0 614 307 477
1072 1 2 0 614 477 478
1073 1 2 0 614 478 479
1074 1 2 0 614 479 480
1075 1 2 0 614 480 308
1076 1 2 0 616 308 309
1077 1 2 0 618 309 310
1078 1 2 0 620 310 311
1079 1 2 0 622 311 312
1080 1 2 0 624 312 481
1081 1 2 0 624 481 482
1082 1 2 0 624 482 483
1083 1 2 0 624 483 484
1084 1 2 0 624 484 289
1085 2 2 0 38 26 2 485
1086 2 2 0 38 1 25 485
1087 2 2 0 38 2 1 485
1088 2 2 0 38 25 26 485
1089 2 2 0 39 26 3 2
1090 2 2 0 39 27 3 26
1091 2 2 0 40 27 4 3
1092 2 2 0 40 28 4 27
1093 2 2 0 41 29 5 4
1094 2 2 0 41 28 29 4
1095 2 2 0 42 30 6 5
1096 2 2 0 42 29 30 5
1097 2 2 0 43 6 30 486
1098 2 2 0 43 31 7 486
1099 2 2 0 43 7 6 486
1100 2 2 0 43 30 31 486
1101 2 2 0 44 32 8 487
1102 2 2 0 44 7 31 487
1103 2 2 0 44 8 7 487
1104 2 2 0 44 31 32 487
1105 2 2 0 45 32 9 8
1106 2 2 0 45 33 9 32
1107 2 2 0 46 33 10 9
1108 2 2 0 46 34 10 33
1109 2 2 0 47 35 11 10
1110 2 2 0 47 34 35 10
1111 2 2 0 48 36 12 11
1112 2 2 0 48 35 36 11
1113 2 2 0 49 12 36 488
1114 2 2 0 49 37 13 488
1115 2 2 0 49 13 12 488
1116 2 2 0 49 36 37 488
1117 2 2 0 50 38 14 489
1118 2 2 0 50 13 37 489
1119 2 2 0 50 14 13 489
1120 2 2 0 50 37 38 489
1121 2 2 0 51 38 15 14
1122 2 2 0 51 39 15 38
1123 2 2 0 52 39 16 15
1124 2 2 0 52 40 16 39
1125 2 2 0 53 41 17 16
1126 2 2 0 53 40 41 16
1127 2 2 0 54 42 18 17
1128 2 2 0 54 41 42 17
1129 2 2 0 55 18 42 490
1130 2 2 0 55 43 19 490
1131 2 2 0 55 19 18 490
1132 2 2 0 55 42 43 490
1133 2 2 0 56 44 20 491
1134 2 2 0 56 19 43 491
1135 2 2 0 56 20 19 491
1136 2 2 0 56 43 44 491
1137 2 2 0 57 44 21 20
1138 2 2 0 57 45 21 44
1139 2 2 0 58 45 22 21
1140 2 2 0 58 46 22 45
1141 2 2 0 59 47 23 22
1142 2 2 0 59 46 47 22
1143 2 2 0 60 48 24 23
1144 2 2 0 60 47 48 23
1145 2 2 0 61 24 48 492
1146 2 2 0 61 25 1 492
1147 2 2 0 61 1 24 492
1148 2 2 0 61 48 25 492
1149 2 2 0 62 49 50 493
1150 2 2 0 62 50 26 493
1151 2 2 0 62 25 49 493
1152 2 2 0 62 26 25 493
1153 2 2 0 63 51 27 50
1154 2 2 0 63 50 27 26
1155 2 2 0 64 52 28 51
1156 2 2 0 64 51 28 27
1157 2 2 0 65 52 53 28
1158 2 2 0 65 53 29 28
1159 2 2 0 66 53 54 29
1160 2 2 0 66 54 30 29
1161 2 2 0 67 54 55 494
1162 2 2 0 67 31 30 494
1163 2 2 0 67 30 54 494
1164 2 2 0 67 55 31 494
1165 2 2 0 68 55 56 495
1166 2 2 0 68 32 31 495
1167 2 2 0 68 56 32 495
1168 2 2 0 68 31 55 495
1169 2 2 0 69 57 33 56
1170 2 2 0 69 56 33 32
1171 2 2 0 70 58 34 57
1172 2 2 0 70 57 34 33
1173 2 2 0 71 58 59 34
1174 2 2 0 71 59 35 34
1175 2 2 0 72 59 60 35
1176 2 2 0 72 60 36 35
1177 2 2 0 73 60 61 496
1178 2 2 0 73 36 60 496
1179 2 2 0 73 61 37 496
1180 2 2 0 73 37 36 496
1181 2 2 0 74 61 62 497
1182 2 2 0 74 62 38 497
1183 2 2 0 74 37 61 497
1184 2 2 0 74 38 37 497
1185 2 2 0 75 63 39 62
1186 2 2 0 75 62 39 38
1187 2 2 0 76 64 40 63
1188 2 2 0 76 63 40 39
1189 2 2 0 77 64 65 40
1190 2 2 0 77 65 41 40
1191 2 2 0 78 65 66 41
1192 2 2 0 78 66 42 41
1193 2 2 0 79 66 67 498
1194 2 2 0 79 43 42 498
1195 2 2 0 79 42 66 498
1196 2 2 0 79 67 43 498
1197 2 2 0 80 67 68 499
1198 2 2 0 80 44 43 499
1199 2 2 0 80 68 44 499
1200 2 2 0 80 43 67 499
1201 2 2 0 81 69 45 68
1202 2 2 0 81 68 45 44
1203 2 2 0 82 70 46 69
1204 2 2 0 82 69 46 45
1205 2 2 0 83 70 71 46
1206 2 2 0 83 71 47 46
1207 2 2 0 84 71 72 47
1208 2 2 0 84 72 48 47
1209 2 2 0 85 72 49 500
1210 2 2 0 85 48 72 500
1211 2 2 0 85 49 25 500
1212 2 2 0 85 25 48 500
1213 2 2 0 86 74 50 501
1214 2 2 0 86 49 73 501
1215 2 2 0 86 73 74 501
1216 2 2 0 86 50 49 501
1217 2 2 0 87 74 51 50
1218 2 2 0 87 74 75 51
1219 2 2 0 88 75 52 51
1220 2 2 0 88 75 76 52
1221 2 2 0 89 77 53 52
1222 2 2 0 89 76 77 52
1223 2 2 0 90 78 54 53
1224 2 2 0 90 77 78 53
1225 2 2 0 91 54 78 502
1226 2 2 0 91 79 55 502
1227 2 2 0 91 78 79 502
1228 2 2 0 91 55 54 502
1229 2 2 0 92 80 56 503
1230 2 2 0 92 55 79 503
1231 2 2 0 92 79 80 503
1232 2 2 0 92 56 55 503
1233 2 2 0 93 80 57 56
1234 2 2 0 93 80 81 57
1235 2 2 0 94 81 58 57
1236 2 2 0 94 81 82 58
1237 2 2 0 95 83 59 58
1238 2 2 0 95 82 83 58
1239 2 2 0 96 84 60 59
1240 2 2 0 96 83 84 59
1241 2 2 0 97 60 84 504
1242 2 2 0 97 85 61 504
1243 2 2 0 97 84 85 504
1244 2 2 0 97 61 60 504
1245 2 2 0 98 86 62 505
1246 2 2 0 98 61 85 505
1247 2 2 0 98 85 86 505
1248 2 2 0 98 62 61 505
1249 2 2 0 99 86 63 62
1250 2 2 0 99 86 87 63
1251 2 2 0 100 87 64 63
1252 2 2 0 100 87 88 64
1253 2 2 0 101 89 65 64
1254 2 2 0 101 88 89 64
1255 2 2 0 102 90 66 65
1256 2 2 0 102 89 90 65
1257 2 2 0 103 66 90 506
1258 2 2 0 103 91 67 506
1259 2 2 0 103 90 91 506
1260 2 2 0 103 67 66 506
1261 2 2 0 104 92 68 507
1262 2 2 0 104 67 91 507
1263 2 2 0 104 91 92 507
1264 2 2 0 104 68 67 507
1265 2 2 0 105 92 69 68
1266 2 2 0 105 92 93 69
1267 2 2 0 106 93 70 69
1268 2 2 0 106 93 94 70
1269 2 2 0 107 95 71 70
1270 2 2 0 107 94 95 70
1271 2 2 0 108 96 72 71
1272 2 2 0 108 95 96 71
1273 2 2 0 109 72 96 508
1274 2 2 0 109 73 49 508
1275 2 2 0 109 96 73 508
1276 2 2 0 109 49 72 508
1277 2 2 0 110 73 97 509
1278 2 2 0 110 98 74 509
1279 2 2 0 110 74 73 509
1280 2 2 0 110 97 98 509
1281 2 2 0 111 98 75 74
1282 2 2 0 111 98 99 75
1283 2 2 0 112 99 76 75
1284 2 2 0 112 99 100 76
1285 2 2 0 113 76 101 77
1286 2 2 0 113 100 101 76
1287 2 2 0 114 77 102 78
1288 2 2 0 114 101 102 77
1289 2 2 0 115 78 102 510
1290 2 2 0 115 103 79 510
1291 2 2 0 115 102 103 510
1292 2 2 0 115 79 78 510
1293 2 2 0 116 79 103 511
1294 2 2 0 116 104 80 511
1295 2 2 0 116 103 104 511
1296 2 2 0 116 80 79 511
1297 2 2 0 117 104 81 80
1298 2 2 0 117 104 105 81
1299 2 2 0 118 105 82 81
1300 2 2 0 118 105 106 82
1301 2 2 0 119 82 107 83
1302 2 2 0 119 106 107 82
1303 2 2 0 120 83 108 84
1304 2 2 0 120 107 108 83
1305 2 2 0 121 109 85 512
1306 2 2 0 121 84 108 512
1307 2 2 0 121 85 84 512
1308 2 2 0 121 108 109 512
1309 2 2 0 122 85 109 513
1310 2 2 0 122 110 86 513
1311 2 2 0 122 86 85 513
1312 2 2 0 122 109 110 513
1313 2 2 0 123 110 87 86
1314 2 2 0 123 110 111 87
1315 2 2 0 124 111 88 87
1316 2 2 0 124 111 112 88
1317 2 2 0 125 88 113 89
1318 2 2 0 125 112 113 88
1319 2 2 0 126 89 114 90
1320 2 2 0 126 113 114 89
1321 2 2 0 127 90 114 514
1322 2 2 0 127 115 91 514
1323 2 2 0 127 114 115 514
1324 2 2 0 127 91 90 514
1325 2 2 0 128 91 115 515
1326 2 2 0 128 116 92 515
1327 2 2 0 128 115 116 515
1328 2 2 0 128 92 91 515
1329 2 2 0 129 116 93 92
1330 2 2 0 129 116 117 93
1331 2 2 0 130 117 94 93
1332 2 2 0 130 117 118 94
1333 2 2 0 131 94 119 95
1334 2 2 0 131 118 119 94
1335 2 2 0 132 95 120 96
1336 2 2 0 132 119 120 95
1337 2 2 0 133 97 73 516
1338 2 2 0 133 96 120 516
1339 2 2 0 133 73 96 516
1340 2 2 0 133 120 97 516
1341 2 2 0 134 122 98 517
1342 2 2 0 134 97 121 517
1343 2 2 0 134 121 122 517
1344 2 2 0 134 98 97 517
1345 2 2 0 135 122 99 98
1346 2 2 0 135 122 123 99
1347 2 2 0 136 123 100 99
1348 2 2 0 136 123 124 100
1349 2 2 0 137 100 125 101
1350 2 2 0 137 124 125 100
1351 2 2 0 138 101 126 102
1352 2 2 0 138 125 126 101
1353 2 2 0 139 127 103 518
1354 2 2 0 139 102 126 518
1355 2 2 0 139 126 127 518
1356 2 2 0 139 103 102 518
1357 2 2 0 140 103 127 519
1358 2 2 0 140 128 104 519
1359 2 2 0 140 127 128 519
1360 2 2 0 140 104 103 519
1361 2 2 0 141 128 105 104
1362 2 2 0 141 128 129 105
1363 2 2 0 142 129 106 105
1364 2 2 0 142 129 130 106
1365 2 2 0 143 106 131 107
1366 2 2 0 143 130 131 106
1367 2 2 0 144 107 132 108
1368 2 2 0 144 131 132 107
1369 2 2 0 145 108 132 520
1370 2 2 0 145 133 109 520
1371 2 2 0 145 132 133 520
1372 2 2 0 145 109 108 520
1373 2 2 0 146 134 110 521
1374 2 2 0 146 109 133 521
1375 2 2 0 146 133 134 521
1376 2 2 0 146 110 109 521
1377 2 2 0 147 134 111 110
1378 2 2 0 147 134 135 111
1379 2 2 0 148 135 112 111
1380 2 2 0 148 135 136 112
1381 2 2 0 149 112 137 113
1382 2 2 0 149 136 137 112
1383 2 2 0 150 113 138 114
1384 2 2 0 150 137 138 113
1385 2 2 0 151 139 115 522
1386 2 2 0 151 114 138 522
1387 2 2 0 151 138 139 522
1388 2 2 0 151 115 114 522
1389 2 2 0 152 115 139 523
1390 2 2 0 152 140 116 523
1391 2 2 0 152 139 140 523
1392 2 2 0 152 116 115 523
1393 2 2 0 153 140 117 116
1394 2 2 0 153 140 141 117
1395 2 2 0 154 141 118 117
1396 2 2 0 154 141 142 118
1397 2 2 0 155 118 143 119
1398 2 2 0 155 142 143 118
1399 2 2 0 156 119 144 120
1400 2 2 0 156 143 144 119
1401 2 2 0 157 120 144 524
1402 2 2 0 157 121 97 524
1403 2 2 0 157 144 121 524
1404 2 2 0 157 97 120 524
1405 2 2 0 158 145 146 525
1406 2 2 0 158 146 122 525
1407 2 2 0 158 121 145 525
1408 2 2 0 158 122 121 525
1409 2 2 0 159 146 123 122
1410 2 2 0 159 146 147 123
1411 2 2 0 160 147 124 123
1412 2 2 0 160 147 148 124
1413 2 2 0 161 124 149 125
1414 2 2 0 161 148 149 124
1415 2 2 0 162 125 150 126
1416 2 2 0 162 149 150 125
1417 2 2 0 163 150 151 526
1418 2 2 0 163 126 150 526
1419 2 2 0 163 151 127 526
1420 2 2 0 163 127 126 526
1421 2 2 0 164 151 152 527
1422 2 2 0 164 152 128 527
1423 2 2 0 164 127 151 527
1424 2 2 0 164 128 127 527
1425 2 2 0 165 152 129 128
1426 2 2 0 165 152 153 129
1427 2 2 0 166 153 130 129
1428 2 2 0 166 153 154 130
1429 2 2 0 167 130 155 131
1430 2 2 0 167 154 155 130
1431 2 2 0 168 131 156 132
1432 2 2 0 168 155 156 131
1433 2 2 0 169 156 157 528
1434 2 2 0 169 132 156 528
1435 2 2 0 169 157 133 528
1436 2 2 0 169 133 132 528
1437 2 2 0 170 157 158 529
1438 2 2 0 170 158 134 529
1439 2 2 0 170 133 157 529
1440 2 2 0 170 134 133 529
1441 2 2 0 171 158 135 134
1442 2 2 0 171 158 159 135
1443 2 2 0 172 159 136 135
1444 2 2 0 172 159 160 136
1445 2 2 0 173 136 161 137
1446 2 2 0 173 160 161 136
1447 2 2 0 174 137 162 138
1448 2 2 0 174 161 162 137
1449 2 2 0 175 162 163 530
1450 2 2 0 175 138 162 530
1451 2 2 0 175 163 139 530
1452 2 2 0 175 139 138 530
1453 2 2 0 176 163 164 531
1454 2 2 0 176 164 140 531
1455 2 2 0 176 139 163 531
1456 2 2 0 176 140 139 531
1457 2 2 0 177 164 141 140
1458 2 2 0 177 164 165 141
1459 2 2 0 178 165 142 141
1460 2 2 0 178 165 166 142
1461 2 2 0 179 142 167 143
1462 2 2 0 179 166 167 142
1463 2 2 0 180 143 168 144
1464 2 2 0 180 167 168 143
1465 2 2 0 181 168 145 532
1466 2 2 0 181 144 168 532
1467 2 2 0 181 145 121 532
1468 2 2 0 181 121 144 532
1469 2 2 0 182 169 313 145
1470 2 2 0 182 313 146 145
1471 2 2 0 182 146 313 170
1472 2 2 0 183 170 147 146
1473 2 2 0 183 170 171 147
1474 2 2 0 184 171 148 147
1475 2 2 0 184 171 172 148
1476 2 2 0 185 148 173 149
1477 2 2 0 185 172 173 148
1478 2 2 0 186 149 174 150
1479 2 2 0 186 173 174 149
1480 2 2 0 187 174 319 150
1481 2 2 0 187 175 151 533
1482 2 2 0 187 150 319 533
1483 2 2 0 187 151 150 533
1484 2 2 0 187 319 175 533
1485 2 2 0 188 176 152 320
1486 2 2 0 188 151 175 534
1487 2 2 0 188 320 152 534
1488 2 2 0 188 152 151 534
1489 2 2 0 188 175 320 534
1490 2 2 0 189 176 153 152
1491 2 2 0 189 176 177 153
1492 2 2 0 190 177 154 153
1493 2 2 0 190 177 178 154
1494 2 2 0 191 154 179 155
1495 2 2 0 191 178 179 154
1496 2 2 0 192 155 180 156
1497 2 2 0 192 179 180 155
1498 2 2 0 193 157 326 181
1499 2 2 0 193 326 157 156
1500 2 2 0 193 180 326 156
1501 2 2 0 194 181 327 157
1502 2 2 0 194 327 158 157
1503 2 2 0 194 158 327 182
1504 2 2 0 195 182 159 158
1505 2 2 0 195 182 183 159
1506 2 2 0 196 183 160 159
1507 2 2 0 196 183 184 160
1508 2 2 0 197 160 185 161
1509 2 2 0 197 184 185 160
1510 2 2 0 198 161 186 162
1511 2 2 0 198 185 186 161
1512 2 2 0 199 186 333 162
1513 2 2 0 199 187 163 535
1514 2 2 0 199 162 333 535
1515 2 2 0 199 163 162 535
1516 2 2 0 199 333 187 535
1517 2 2 0 200 164 334 188
1518 2 2 0 200 163 187 536
1519 2 2 0 200 334 164 536
1520 2 2 0 200 164 163 536
1521 2 2 0 200 187 334 536
1522 2 2 0 201 188 165 164
1523 2 2 0 201 188 189 165
1524 2 2 0 202 189 166 165
1525 2 2 0 202 189 190 166
1526 2 2 0 203 166 191 167
1527 2 2 0 203 190 191 166
1528 2 2 0 204 167 192 168
1529 2 2 0 204 191 192 167
1530 2 2 0 205 145 340 169
1531 2 2 0 205 340 145 168
1532 2 2 0 205 192 340 168
1533 2 2 0 206 341 314 538
1534 2 2 0 206 169 193 537
1535 2 2 0 206 193 341 537
1536 2 2 0 206 170 313 538
1537 2 2 0 206 314 170 538
1538 2 2 0 206 313 169 537
1539 2 2 0 206 313 537 538
1540 2 2 0 206 537 341 538
1541 2 2 0 206 314 341 194
1542 2 2 0 207 314 171 170
1543 2 2 0 207 315 171 314
1544 2 2 0 207 195 315 194
1545 2 2 0 207 315 314 194
1546 2 2 0 208 315 172 171
1547 2 2 0 208 316 172 315
1548 2 2 0 208 196 316 195
1549 2 2 0 208 316 315 195
1550 2 2 0 209 317 173 172
1551 2 2 0 209 316 317 172
1552 2 2 0 209 197 316 196
1553 2 2 0 209 197 317 316
1554 2 2 0 210 318 174 173
1555 2 2 0 210 317 318 173
1556 2 2 0 210 198 317 197
1557 2 2 0 210 198 318 317
1558 2 2 0 211 318 347 540
1559 2 2 0 211 199 175 539
1560 2 2 0 211 347 199 539
1561 2 2 0 211 539 319 540
1562 2 2 0 211 319 174 540
1563 2 2 0 211 347 539 540
1564 2 2 0 211 175 319 539
1565 2 2 0 211 174 318 540
1566 2 2 0 211 347 318 198
1567 2 2 0 212 348 321 542
1568 2 2 0 212 175 199 541
1569 2 2 0 212 199 348 541
1570 2 2 0 212 320 541 542
1571 2 2 0 212 176 320 542
1572 2 2 0 212 541 348 542
1573 2 2 0 212 320 175 541
1574 2 2 0 212 321 176 542
1575 2 2 0 212 321 348 200
1576 2 2 0 213 321 177 176
1577 2 2 0 213 322 177 321
1578 2 2 0 213 201 322 200
1579 2 2 0 213 322 321 200
1580 2 2 0 214 322 178 177
1581 2 2 0 214 323 178 322
1582 2 2 0 214 202 323 201
1583 2 2 0 214 323 322 201
1584 2 2 0 215 324 179 178
1585 2 2 0 215 323 324 178
1586 2 2 0 215 203 323 202
1587 2 2 0 215 203 324 323
1588 2 2 0 216 325 180 179
1589 2 2 0 216 324 325 179
1590 2 2 0 216 204 324 203
1591 2 2 0 216 204 325 324
1592 2 2 0 217 325 354 544
1593 2 2 0 217 205 181 543
1594 2 2 0 217 354 205 543
1595 2 2 0 217 326 180 544
1596 2 2 0 217 180 325 544
1597 2 2 0 217 181 326 543
1598 2 2 0 217 543 326 544
1599 2 2 0 217 354 543 544
1600 2 2 0 217 354 325 204
1601 2 2 0 218 355 328 546
1602 2 2 0 218 181 205 545
1603 2 2 0 218 205 355 545
1604 2 2 0 218 182 327 546
1605 2 2 0 218 328 182 546
1606 2 2 0 218 327 181 545
1607 2 2 0 218 327 545 546
1608 2 2 0 218 545 355 546
1609 2 2 0 218 328 355 206
1610 2 2 0 219 328 183 182
1611 2 2 0 219 329 183 328
1612 2 2 0 219 207 329 206
1613 2 2 0 219 329 328 206
1614 2 2 0 220 329 184 183
1615 2 2 0 220 330 184 329
1616 2 2 0 220 208 330 207
1617 2 2 0 220 330 329 207
1618 2 2 0 221 331 185 184
1619 2 2 0 221 330 331 184
1620 2 2 0 221 209 330 208
1621 2 2 0 221 209 331 330
1622 2 2 0 222 332 186 185
1623 2 2 0 222 331 332 185
1624 2 2 0 222 210 331 209
1625 2 2 0 222 210 332 331
1626 2 2 0 223 332 361 548
1627 2 2 0 223 211 187 547
1628 2 2 0 223 361 211 547
1629 2 2 0 223 547 333 548
1630 2 2 0 223 333 186 548
1631 2 2 0 223 361 547 548
1632 2 2 0 223 187 333 547
1633 2 2 0 223 186 332 548
1634 2 2 0 223 361 332 210
1635 2 2 0 224 362 335 550
1636 2 2 0 224 187 211 549
1637 2 2 0 224 211 362 549
1638 2 2 0 224 334 549 550
1639 2 2 0 224 188 334 550
1640 2 2 0 224 549 362 550
1641 2 2 0 224 334 187 549
1642 2 2 0 224 335 188 550
1643 2 2 0 224 335 362 212
1644 2 2 0 225 335 189 188
1645 2 2 0 225 336 189 335
1646 2 2 0 225 213 336 212
1647 2 2 0 225 336 335 212
1648 2 2 0 226 336 190 189
1649 2 2 0 226 337 190 336
1650 2 2 0 226 214 337 213
1651 2 2 0 226 337 336 213
1652 2 2 0 227 338 191 190
1653 2 2 0 227 337 338 190
1654 2 2 0 227 215 337 214
1655 2 2 0 227 215 338 337
1656 2 2 0 228 339 192 191
1657 2 2 0 228 338 339 191
1658 2 2 0 228 216 338 215
1659 2 2 0 228 216 339 338
1660 2 2 0 229 339 368 552
1661 2 2 0 229 193 169 551
1662 2 2 0 229 368 193 551
1663 2 2 0 229 340 192 552
1664 2 2 0 229 192 339 552
1665 2 2 0 229 169 340 551
1666 2 2 0 229 551 340 552
1667 2 2 0 229 368 551 552
1668 2 2 0 229 368 339 216
1669 2 2 0 230 342 370 218
1670 2 2 0 230 194 341 553
1671 2 2 0 230 342 194 553
1672 2 2 0 230 341 369 553
1673 2 2 0 230 370 342 553
1674 2 2 0 230 369 370 553
1675 2 2 0 230 369 341 554
1676 2 2 0 230 193 217 554
1677 2 2 0 230 341 193 554
1678 2 2 0 230 217 369 554
1679 2 2 0 231 342 195 194
1680 2 2 0 231 343 195 342
1681 2 2 0 231 219 343 218
1682 2 2 0 231 343 342 218
1683 2 2 0 232 343 196 195
1684 2 2 0 232 344 196 343
1685 2 2 0 232 220 344 219
1686 2 2 0 232 344 343 219
1687 2 2 0 233 345 197 196
1688 2 2 0 233 344 345 196
1689 2 2 0 233 221 344 220
1690 2 2 0 233 221 345 344
1691 2 2 0 234 346 198 197
1692 2 2 0 234 345 346 197
1693 2 2 0 234 222 345 221
1694 2 2 0 234 222 346 345
1695 2 2 0 235 376 346 222
1696 2 2 0 235 198 346 555
1697 2 2 0 235 346 376 555
1698 2 2 0 235 347 198 555
1699 2 2 0 235 376 377 555
1700 2 2 0 235 377 347 555
1701 2 2 0 235 347 377 556
1702 2 2 0 235 223 199 556
1703 2 2 0 235 199 347 556
1704 2 2 0 235 377 223 556
1705 2 2 0 236 224 349 379
1706 2 2 0 236 349 200 557
1707 2 2 0 236 379 349 557
1708 2 2 0 236 200 348 557
1709 2 2 0 236 378 379 557
1710 2 2 0 236 348 378 557
1711 2 2 0 236 378 348 558
1712 2 2 0 236 199 223 558
1713 2 2 0 236 348 199 558
1714 2 2 0 236 223 378 558
1715 2 2 0 237 349 201 200
1716 2 2 0 237 350 201 349
1717 2 2 0 237 225 350 224
1718 2 2 0 237 350 349 224
1719 2 2 0 238 350 202 201
1720 2 2 0 238 351 202 350
1721 2 2 0 238 226 351 225
1722 2 2 0 238 351 350 225
1723 2 2 0 239 352 203 202
1724 2 2 0 239 351 352 202
1725 2 2 0 239 227 351 226
1726 2 2 0 239 227 352 351
1727 2 2 0 240 353 204 203
1728 2 2 0 240 352 353 203
1729 2 2 0 240 228 352 227
1730 2 2 0 240 228 353 352
1731 2 2 0 241 385 353 228
1732 2 2 0 241 354 204 559
1733 2 2 0 241 204 353 559
1734 2 2 0 241 386 354 559
1735 2 2 0 241 353 385 559
1736 2 2 0 241 385 386 559
1737 2 2 0 241 354 386 560
1738 2 2 0 241 229 205 560
1739 2 2 0 241 205 354 560
1740 2 2 0 241 386 229 560
1741 2 2 0 242 356 388 230
1742 2 2 0 242 206 355 561
1743 2 2 0 242 356 206 561
1744 2 2 0 242 355 387 561
1745 2 2 0 242 388 356 561
1746 2 2 0 242 387 388 561
1747 2 2 0 242 387 355 562
1748 2 2 0 242 205 229 562
1749 2 2 0 242 355 205 562
1750 2 2 0 242 229 387 562
1751 2 2 0 243 356 207 206
1752 2 2 0 243 357 207 356
1753 2 2 0 243 231 357 230
1754 2 2 0 243 357 356 230
1755 2 2 0 244 357 208 207
1756 2 2 0 244 358 208 357
1757 2 2 0 244 232 358 231
1758 2 2 0 244 358 357 231
1759 2 2 0 245 359 209 208
1760 2 2 0 245 358 359 208
1761 2 2 0 245 233 358 232
1762 2 2 0 245 233 359 358
1763 2 2 0 246 360 210 209
1764 2 2 0 246 359 360 209
1765 2 2 0 246 234 359 233
1766 2 2 0 246 234 360 359
1767 2 2 0 247 394 360 234
1768 2 2 0 247 210 360 563
1769 2 2 0 247 360 394 563
1770 2 2 0 247 361 210 563
1771 2 2 0 247 394 395 563
1772 2 2 0 247 395 361 563
1773 2 2 0 247 361 395 564
1774 2 2 0 247 235 211 564
1775 2 2 0 247 211 361 564
1776 2 2 0 247 395 235 564
1777 2 2 0 248 363 397 236
1778 2 2 0 248 363 212 565
1779 2 2 0 248 397 363 565
1780 2 2 0 248 212 362 565
1781 2 2 0 248 396 397 565
1782 2 2 0 248 362 396 565
1783 2 2 0 248 396 362 566
1784 2 2 0 248 211 235 566
1785 2 2 0 248 362 211 566
1786 2 2 0 248 235 396 566
1787 2 2 0 249 363 213 212
1788 2 2 0 249 364 213 363
1789 2 2 0 249 237 364 236
1790 2 2 0 249 364 363 236
1791 2 2 0 250 364 214 213
1792 2 2 0 250 365 214 364
1793 2 2 0 250 238 365 237
1794 2 2 0 250 365 364 237
1795 2 2 0 251 366 215 214
1796 2 2 0 251 365 366 214
1797 2 2 0 251 239 365 238
1798 2 2 0 251 239 366 365
1799 2 2 0 252 367 216 215
1800 2 2 0 252 366 367 215
1801 2 2 0 252 240 366 239
1802 2 2 0 252 240 367 366
1803 2 2 0 253 403 367 240
1804 2 2 0 253 368 216 567
1805 2 2 0 253 216 367 567
1806 2 2 0 253 404 368 567
1807 2 2 0 253 367 403 567
1808 2 2 0 253 403 404 567
1809 2 2 0 253 368 404 568
1810 2 2 0 253 217 193 568
1811 2 2 0 253 193 368 568
1812 2 2 0 253 404 217 568
1813 2 2 0 254 406 369 405
1814 2 2 0 254 370 369 406
1815 2 2 0 254 407 242 371
1816 2 2 0 254 371 218 569
1817 2 2 0 254 407 371 569
1818 2 2 0 254 218 370 569
1819 2 2 0 254 370 406 569
1820 2 2 0 254 406 407 569
1821 2 2 0 254 405 369 570
1822 2 2 0 254 217 241 570
1823 2 2 0 254 369 217 570
1824 2 2 0 254 241 405 570
1825 2 2 0 255 371 219 218
1826 2 2 0 255 219 371 372
1827 2 2 0 255 243 372 242
1828 2 2 0 255 372 371 242
1829 2 2 0 256 373 372 571
1830 2 2 0 256 243 244 571
1831 2 2 0 256 372 243 571
1832 2 2 0 256 244 373 571
1833 2 2 0 256 372 220 219
1834 2 2 0 256 220 372 373
1835 2 2 0 257 374 221 220
1836 2 2 0 257 373 374 220
1837 2 2 0 257 245 373 244
1838 2 2 0 257 373 245 374
1839 2 2 0 258 375 222 221
1840 2 2 0 258 374 375 221
1841 2 2 0 258 246 374 245
1842 2 2 0 258 374 246 375
1843 2 2 0 259 408 375 246
1844 2 2 0 259 409 410 377
1845 2 2 0 259 409 377 376
1846 2 2 0 259 222 375 572
1847 2 2 0 259 375 408 572
1848 2 2 0 259 376 222 572
1849 2 2 0 259 408 409 572
1850 2 2 0 259 409 376 572
1851 2 2 0 259 223 377 573
1852 2 2 0 259 377 410 573
1853 2 2 0 259 247 223 573
1854 2 2 0 259 410 247 573
1855 2 2 0 260 380 413 248
1856 2 2 0 260 411 412 378
1857 2 2 0 260 378 412 379
1858 2 2 0 260 380 224 574
1859 2 2 0 260 413 380 574
1860 2 2 0 260 224 379 574
1861 2 2 0 260 412 413 574
1862 2 2 0 260 379 412 574
1863 2 2 0 260 378 223 575
1864 2 2 0 260 411 378 575
1865 2 2 0 260 223 247 575
1866 2 2 0 260 247 411 575
1867 2 2 0 261 380 225 224
1868 2 2 0 261 381 225 380
1869 2 2 0 261 249 381 248
1870 2 2 0 261 248 381 380
1871 2 2 0 262 381 226 225
1872 2 2 0 262 382 226 381
1873 2 2 0 262 250 382 249
1874 2 2 0 262 249 382 381
1875 2 2 0 263 383 382 576
1876 2 2 0 263 250 251 576
1877 2 2 0 263 382 250 576
1878 2 2 0 263 251 383 576
1879 2 2 0 263 383 227 226
1880 2 2 0 263 382 383 226
1881 2 2 0 264 384 228 227
1882 2 2 0 264 383 384 227
1883 2 2 0 264 251 252 383
1884 2 2 0 264 252 384 383
1885 2 2 0 265 416 386 415
1886 2 2 0 265 386 385 415
1887 2 2 0 265 252 414 384
1888 2 2 0 265 228 384 577
1889 2 2 0 265 384 414 577
1890 2 2 0 265 385 228 577
1891 2 2 0 265 415 385 577
1892 2 2 0 265 414 415 577
1893 2 2 0 265 386 416 578
1894 2 2 0 265 253 229 578
1895 2 2 0 265 229 386 578
1896 2 2 0 265 416 253 578
1897 2 2 0 266 418 387 417
1898 2 2 0 266 388 387 418
1899 2 2 0 266 389 419 254
1900 2 2 0 266 389 230 579
1901 2 2 0 266 419 389 579
1902 2 2 0 266 230 388 579
1903 2 2 0 266 388 418 579
1904 2 2 0 266 418 419 579
1905 2 2 0 266 417 387 580
1906 2 2 0 266 229 253 580
1907 2 2 0 266 387 229 580
1908 2 2 0 266 253 417 580
1909 2 2 0 267 389 231 230
1910 2 2 0 267 390 231 389
1911 2 2 0 267 255 390 254
1912 2 2 0 267 390 389 254
1913 2 2 0 268 391 390 581
1914 2 2 0 268 255 256 581
1915 2 2 0 268 390 255 581
1916 2 2 0 268 256 391 581
1917 2 2 0 268 390 232 231
1918 2 2 0 268 391 232 390
1919 2 2 0 269 392 233 232
1920 2 2 0 269 391 392 232
1921 2 2 0 269 257 391 256
1922 2 2 0 269 257 392 391
1923 2 2 0 270 393 234 233
1924 2 2 0 270 392 393 233
1925 2 2 0 270 258 392 257
1926 2 2 0 270 258 393 392
1927 2 2 0 271 420 393 258
1928 2 2 0 271 422 395 421
1929 2 2 0 271 421 395 394
1930 2 2 0 271 234 393 582
1931 2 2 0 271 393 420 582
1932 2 2 0 271 394 234 582
1933 2 2 0 271 420 421 582
1934 2 2 0 271 421 394 582
1935 2 2 0 271 235 395 583
1936 2 2 0 271 395 422 583
1937 2 2 0 271 259 235 583
1938 2 2 0 271 422 259 583
1939 2 2 0 272 398 425 260
1940 2 2 0 272 424 396 423
1941 2 2 0 272 396 424 397
1942 2 2 0 272 398 236 584
1943 2 2 0 272 425 398 584
1944 2 2 0 272 236 397 584
1945 2 2 0 272 424 425 584
1946 2 2 0 272 397 424 584
1947 2 2 0 272 396 235 585
1948 2 2 0 272 423 396 585
1949 2 2 0 272 235 259 585
1950 2 2 0 272 259 423 585
1951 2 2 0 273 398 237 236
1952 2 2 0 273 399 237 398
1953 2 2 0 273 261 399 260
1954 2 2 0 273 399 398 260
1955 2 2 0 274 399 238 237
1956 2 2 0 274 400 238 399
1957 2 2 0 274 262 400 261
1958 2 2 0 274 400 399 261
1959 2 2 0 275 401 400 586
1960 2 2 0 275 262 263 586
1961 2 2 0 275 400 262 586
1962 2 2 0 275 263 401 586
1963 2 2 0 275 401 239 238
1964 2 2 0 275 400 401 238
1965 2 2 0 276 402 240 239
1966 2 2 0 276 401 402 239
1967 2 2 0 276 264 401 263
1968 2 2 0 276 264 402 401
1969 2 2 0 277 404 427 428
1970 2 2 0 277 404 403 427
1971 2 2 0 277 426 402 264
1972 2 2 0 277 240 402 587
1973 2 2 0 277 402 426 587
1974 2 2 0 277 403 240 587
1975 2 2 0 277 427 403 587
1976 2 2 0 277 426 427 587
1977 2 2 0 277 404 428 588
1978 2 2 0 277 241 217 588
1979 2 2 0 277 217 404 588
1980 2 2 0 277 428 241 588
1981 2 2 0 278 430 406 429
1982 2 2 0 278 265 429 589
1983 2 2 0 278 406 405 429
1984 2 2 0 278 431 407 430
1985 2 2 0 278 407 406 430
1986 2 2 0 278 242 431 266
1987 2 2 0 278 242 407 431
1988 2 2 0 278 405 241 589
1989 2 2 0 278 429 405 589
1990 2 2 0 278 241 265 589
1991 2 2 0 279 266 243 242
1992 2 2 0 279 267 243 266
1993 2 2 0 280 267 244 243
1994 2 2 0 280 268 244 267
1995 2 2 0 281 269 245 244
1996 2 2 0 281 268 269 244
1997 2 2 0 282 245 270 246
1998 2 2 0 282 269 270 245
1999 2 2 0 283 410 409 434
2000 2 2 0 283 433 408 432
2001 2 2 0 283 270 432 246
2002 2 2 0 283 409 408 433
2003 2 2 0 283 247 410 590
2004 2 2 0 283 432 408 246
2005 2 2 0 283 410 434 590
2006 2 2 0 283 271 247 590
2007 2 2 0 283 434 271 590
2008 2 2 0 283 434 409 433
2009 2 2 0 284 412 411 435
2010 2 2 0 284 437 413 436
2011 2 2 0 284 248 437 272
2012 2 2 0 284 413 412 436
2013 2 2 0 284 411 247 591
2014 2 2 0 284 248 413 437
2015 2 2 0 284 435 411 591
2016 2 2 0 284 247 271 591
2017 2 2 0 284 271 435 591
2018 2 2 0 284 436 412 435
2019 2 2 0 285 272 249 248
2020 2 2 0 285 272 273 249
2021 2 2 0 286 273 250 249
2022 2 2 0 286 274 250 273
2023 2 2 0 287 275 251 250
2024 2 2 0 287 274 275 250
2025 2 2 0 288 276 252 251
2026 2 2 0 288 275 276 251
2027 2 2 0 289 440 415 439
2028 2 2 0 289 440 277 592
2029 2 2 0 289 416 415 440
2030 2 2 0 289 439 414 438
2031 2 2 0 289 415 414 439
2032 2 2 0 289 276 438 252
2033 2 2 0 289 438 414 252
2034 2 2 0 289 253 416 592
2035 2 2 0 289 416 440 592
2036 2 2 0 289 277 253 592
2037 2 2 0 290 442 418 441
2038 2 2 0 290 277 441 593
2039 2 2 0 290 418 417 441
2040 2 2 0 290 443 419 442
2041 2 2 0 290 419 418 442
2042 2 2 0 290 254 443 278
2043 2 2 0 290 254 419 443
2044 2 2 0 290 417 253 593
2045 2 2 0 290 441 417 593
2046 2 2 0 290 253 277 593
2047 2 2 0 291 278 255 254
2048 2 2 0 291 279 255 278
2049 2 2 0 292 279 256 255
2050 2 2 0 292 280 256 279
2051 2 2 0 293 281 257 256
2052 2 2 0 293 280 281 256
2053 2 2 0 294 257 282 258
2054 2 2 0 294 281 282 257
2055 2 2 0 295 422 421 446
2056 2 2 0 295 445 420 444
2057 2 2 0 295 282 444 258
2058 2 2 0 295 421 420 445
2059 2 2 0 295 259 422 594
2060 2 2 0 295 444 420 258
2061 2 2 0 295 422 446 594
2062 2 2 0 295 283 259 594
2063 2 2 0 295 446 283 594
2064 2 2 0 295 446 421 445
2065 2 2 0 296 424 423 447
2066 2 2 0 296 449 425 448
2067 2 2 0 296 260 449 284
2068 2 2 0 296 425 424 448
2069 2 2 0 296 423 259 595
2070 2 2 0 296 260 425 449
2071 2 2 0 296 447 423 595
2072 2 2 0 296 259 283 595
2073 2 2 0 296 283 447 595
2074 2 2 0 296 448 424 447
2075 2 2 0 297 284 261 260
2076 2 2 0 297 284 285 261
2077 2 2 0 298 285 262 261
2078 2 2 0 298 286 262 285
2079 2 2 0 299 287 263 262
2080 2 2 0 299 286 287 262
2081 2 2 0 300 288 264 263
2082 2 2 0 300 287 288 263
2083 2 2 0 301 452 427 451
2084 2 2 0 301 452 265 596
2085 2 2 0 301 428 427 452
2086 2 2 0 301 451 426 450
2087 2 2 0 301 427 426 451
2088 2 2 0 301 288 450 264
2089 2 2 0 301 450 426 264
2090 2 2 0 301 241 428 596
2091 2 2 0 301 428 452 596
2092 2 2 0 301 265 241 596
2093 2 2 0 302 266 456 290
2094 2 2 0 302 456 431 455
2095 2 2 0 302 453 429 597
2096 2 2 0 302 265 289 597
2097 2 2 0 302 429 265 597
2098 2 2 0 302 266 431 456
2099 2 2 0 302 289 453 597
2100 2 2 0 302 431 430 455
2101 2 2 0 302 430 429 454
2102 2 2 0 302 454 429 453
2103 2 2 0 302 455 430 454
2104 2 2 0 303 290 267 266
2105 2 2 0 303 291 267 290
2106 2 2 0 304 268 267 598
2107 2 2 0 304 291 292 598
2108 2 2 0 304 267 291 598
2109 2 2 0 304 292 268 598
2110 2 2 0 305 293 269 268
2111 2 2 0 305 292 293 268
2112 2 2 0 306 294 270 269
2113 2 2 0 306 293 294 269
2114 2 2 0 307 434 460 599
2115 2 2 0 307 295 271 599
2116 2 2 0 307 457 432 270
2117 2 2 0 307 271 434 599
2118 2 2 0 307 460 295 599
2119 2 2 0 307 433 432 458
2120 2 2 0 307 294 457 270
2121 2 2 0 307 458 432 457
2122 2 2 0 307 434 433 459
2123 2 2 0 307 459 433 458
2124 2 2 0 307 460 434 459
2125 2 2 0 308 461 435 600
2126 2 2 0 308 271 295 600
2127 2 2 0 308 435 271 600
2128 2 2 0 308 272 437 464
2129 2 2 0 308 295 461 600
2130 2 2 0 308 463 437 436
2131 2 2 0 308 296 272 464
2132 2 2 0 308 462 436 435
2133 2 2 0 308 462 435 461
2134 2 2 0 308 463 436 462
2135 2 2 0 308 437 463 464
2136 2 2 0 309 296 273 272
2137 2 2 0 309 297 273 296
2138 2 2 0 310 297 274 273
2139 2 2 0 310 298 274 297
2140 2 2 0 311 275 274 601
2141 2 2 0 311 298 299 601
2142 2 2 0 311 274 298 601
2143 2 2 0 311 299 275 601
2144 2 2 0 312 300 276 275
2145 2 2 0 312 299 300 275
2146 2 2 0 313 300 465 276
2147 2 2 0 313 466 438 465
2148 2 2 0 313 440 468 602
2149 2 2 0 313 301 277 602
2150 2 2 0 313 465 438 276
2151 2 2 0 313 277 440 602
2152 2 2 0 313 468 301 602
2153 2 2 0 313 438 466 439
2154 2 2 0 313 467 440 439
2155 2 2 0 313 466 467 439
2156 2 2 0 313 467 468 440
2157 2 2 0 314 302 278 472
2158 2 2 0 314 443 471 472
2159 2 2 0 314 469 441 603
2160 2 2 0 314 277 301 603
2161 2 2 0 314 441 277 603
2162 2 2 0 314 278 443 472
2163 2 2 0 314 301 469 603
2164 2 2 0 314 443 442 471
2165 2 2 0 314 442 441 470
2166 2 2 0 314 441 469 470
2167 2 2 0 314 471 442 470
2168 2 2 0 315 302 279 278
2169 2 2 0 315 303 279 302
2170 2 2 0 316 280 279 604
2171 2 2 0 316 303 304 604
2172 2 2 0 316 279 303 604
2173 2 2 0 316 304 280 604
2174 2 2 0 317 305 281 280
2175 2 2 0 317 304 305 280
2176 2 2 0 318 306 282 281
2177 2 2 0 318 305 306 281
2178 2 2 0 319 446 476 605
2179 2 2 0 319 307 283 605
2180 2 2 0 319 473 444 282
2181 2 2 0 319 283 446 605
2182 2 2 0 319 476 307 605
2183 2 2 0 319 445 444 474
2184 2 2 0 319 306 473 282
2185 2 2 0 319 474 444 473
2186 2 2 0 319 446 445 475
2187 2 2 0 319 445 474 475
2188 2 2 0 319 476 446 475
2189 2 2 0 320 477 447 606
2190 2 2 0 320 283 307 606
2191 2 2 0 320 447 283 606
2192 2 2 0 320 449 480 284
2193 2 2 0 320 307 477 606
2194 2 2 0 320 449 448 479
2195 2 2 0 320 284 480 308
2196 2 2 0 320 448 447 478
2197 2 2 0 320 447 477 478
2198 2 2 0 320 479 448 478
2199 2 2 0 320 480 449 479
2200 2 2 0 321 308 285 284
2201 2 2 0 321 309 285 308
2202 2 2 0 322 309 286 285
2203 2 2 0 322 310 286 309
2204 2 2 0 323 287 286 607
2205 2 2 0 323 310 311 607
2206 2 2 0 323 286 310 607
2207 2 2 0 323 311 287 607
2208 2 2 0 324 312 288 287
2209 2 2 0 324 311 312 287
2210 2 2 0 325 312 481 288
2211 2 2 0 325 482 450 481
2212 2 2 0 325 452 484 608
2213 2 2 0 325 289 265 608
2214 2 2 0 325 265 452 608
2215 2 2 0 325 481 450 288
2216 2 2 0 325 484 289 608
2217 2 2 0 325 451 450 482
2218 2 2 0 325 452 451 483
2219 2 2 0 325 451 482 483
2220 2 2 0 325 484 452 483
$EndElements
